<?xml version="1.0" encoding="UTF-8" standalone="no"?>
<!-- Created with Inkscape (http://www.inkscape.org/) -->

<svg
   width="121.25816mm"
   height="119.20766mm"
   viewBox="0 0 121.25816 119.20766"
   version="1.1"
   id="svg1"
   inkscape:version="1.3.2 (091e20ef0f, 2023-11-25, custom)"
   sodipodi:docname="pWaveEsiam.svg"
   xmlns:inkscape="http://www.inkscape.org/namespaces/inkscape"
   xmlns:sodipodi="http://sodipodi.sourceforge.net/DTD/sodipodi-0.dtd"
   xmlns="http://www.w3.org/2000/svg"
   xmlns:svg="http://www.w3.org/2000/svg"
   xmlns:ns9="http://www.iki.fi/pav/software/textext/">
  <sodipodi:namedview
     id="namedview1"
     pagecolor="#ffffff"
     bordercolor="#000000"
     borderopacity="0.25"
     inkscape:showpageshadow="2"
     inkscape:pageopacity="0.0"
     inkscape:pagecheckerboard="0"
     inkscape:deskcolor="#d1d1d1"
     inkscape:document-units="mm"
     inkscape:zoom="1.1451454"
     inkscape:cx="241.01742"
     inkscape:cy="260.66558"
     inkscape:window-width="1920"
     inkscape:window-height="1004"
     inkscape:window-x="0"
     inkscape:window-y="0"
     inkscape:window-maximized="1"
     inkscape:current-layer="layer1"
     showgrid="false" />
  <defs
     id="defs1">
    <inkscape:path-effect
       effect="spiro"
       id="path-effect18"
       is_visible="true"
       lpeversion="1" />
    <inkscape:path-effect
       effect="spiro"
       id="path-effect15"
       is_visible="true"
       lpeversion="1" />
    <inkscape:path-effect
       effect="spiro"
       id="path-effect6"
       is_visible="true"
       lpeversion="1" />
    <marker
       style="overflow:visible"
       id="marker15"
       refX="0"
       refY="0"
       orient="auto-start-reverse"
       inkscape:stockid="Rounded arrow"
       markerWidth="0.5"
       markerHeight="0.5"
       viewBox="0 0 1 1"
       inkscape:isstock="true"
       inkscape:collect="always"
       preserveAspectRatio="xMidYMid">
      <path
         transform="scale(0.7)"
         d="m -0.21114562,-4.1055728 6.42229122,3.21114561 a 1,1 90 0 1 0,1.78885438 L -0.21114562,4.1055728 A 1.236068,1.236068 31.717474 0 1 -2,3 v -6 a 1.236068,1.236068 148.28253 0 1 1.78885438,-1.1055728 z"
         style="fill:context-stroke;fill-rule:evenodd;stroke:none"
         id="path15" />
    </marker>
    <marker
       style="overflow:visible"
       id="marker14"
       refX="0"
       refY="0"
       orient="auto-start-reverse"
       inkscape:stockid="Rounded arrow"
       markerWidth="0.5"
       markerHeight="0.5"
       viewBox="0 0 1 1"
       inkscape:isstock="true"
       inkscape:collect="always"
       preserveAspectRatio="xMidYMid">
      <path
         transform="scale(0.7)"
         d="m -0.21114562,-4.1055728 6.42229122,3.21114561 a 1,1 90 0 1 0,1.78885438 L -0.21114562,4.1055728 A 1.236068,1.236068 31.717474 0 1 -2,3 v -6 a 1.236068,1.236068 148.28253 0 1 1.78885438,-1.1055728 z"
         style="fill:context-stroke;fill-rule:evenodd;stroke:none"
         id="path14" />
    </marker>
    <inkscape:path-effect
       effect="spiro"
       id="path-effect14"
       is_visible="true"
       lpeversion="1" />
    <inkscape:path-effect
       effect="spiro"
       id="path-effect13"
       is_visible="true"
       lpeversion="1" />
    <inkscape:path-effect
       effect="spiro"
       id="path-effect11"
       is_visible="true"
       lpeversion="1" />
    <marker
       style="overflow:visible"
       id="RoundedArrow"
       refX="0"
       refY="0"
       orient="auto-start-reverse"
       inkscape:stockid="Rounded arrow"
       markerWidth="0.5"
       markerHeight="0.5"
       viewBox="0 0 1 1"
       inkscape:isstock="true"
       inkscape:collect="always"
       preserveAspectRatio="xMidYMid">
      <path
         transform="scale(0.7)"
         d="m -0.21114562,-4.1055728 6.42229122,3.21114561 a 1,1 90 0 1 0,1.78885438 L -0.21114562,4.1055728 A 1.236068,1.236068 31.717474 0 1 -2,3 v -6 a 1.236068,1.236068 148.28253 0 1 1.78885438,-1.1055728 z"
         style="fill:context-stroke;fill-rule:evenodd;stroke:none"
         id="path8" />
    </marker>
    <inkscape:path-effect
       effect="spiro"
       id="path-effect2"
       is_visible="true"
       lpeversion="1" />
    <inkscape:path-effect
       effect="spiro"
       id="path-effect7"
       is_visible="true"
       lpeversion="1" />
    <inkscape:path-effect
       effect="spiro"
       id="path-effect5"
       is_visible="true"
       lpeversion="1" />
    <inkscape:path-effect
       effect="spiro"
       id="path-effect3"
       is_visible="true"
       lpeversion="1" />
    <inkscape:path-effect
       effect="spiro"
       id="path-effect1"
       is_visible="true"
       lpeversion="1" />
    <inkscape:path-effect
       effect="spiro"
       id="path-effect1-3"
       is_visible="true"
       lpeversion="1" />
    <inkscape:path-effect
       effect="spiro"
       id="path-effect1-6"
       is_visible="true"
       lpeversion="1" />
    <inkscape:path-effect
       effect="spiro"
       id="path-effect1-3-1"
       is_visible="true"
       lpeversion="1" />
    <inkscape:path-effect
       effect="spiro"
       id="path-effect3-8"
       is_visible="true"
       lpeversion="1" />
    <inkscape:path-effect
       effect="spiro"
       id="path-effect5-7"
       is_visible="true"
       lpeversion="1" />
    <inkscape:path-effect
       effect="spiro"
       id="path-effect7-9"
       is_visible="true"
       lpeversion="1" />
    <inkscape:path-effect
       effect="spiro"
       id="path-effect1-2"
       is_visible="true"
       lpeversion="1" />
    <inkscape:path-effect
       effect="spiro"
       id="path-effect1-3-9"
       is_visible="true"
       lpeversion="1" />
    <inkscape:path-effect
       effect="spiro"
       id="path-effect3-3"
       is_visible="true"
       lpeversion="1" />
    <inkscape:path-effect
       effect="spiro"
       id="path-effect5-1"
       is_visible="true"
       lpeversion="1" />
    <inkscape:path-effect
       effect="spiro"
       id="path-effect7-94"
       is_visible="true"
       lpeversion="1" />
    <inkscape:path-effect
       effect="spiro"
       id="path-effect1-6-7"
       is_visible="true"
       lpeversion="1" />
    <inkscape:path-effect
       effect="spiro"
       id="path-effect1-3-1-8"
       is_visible="true"
       lpeversion="1" />
    <inkscape:path-effect
       effect="spiro"
       id="path-effect3-8-4"
       is_visible="true"
       lpeversion="1" />
    <inkscape:path-effect
       effect="spiro"
       id="path-effect5-7-5"
       is_visible="true"
       lpeversion="1" />
    <inkscape:path-effect
       effect="spiro"
       id="path-effect7-9-0"
       is_visible="true"
       lpeversion="1" />
    <inkscape:path-effect
       effect="spiro"
       id="path-effect1-68"
       is_visible="true"
       lpeversion="1" />
    <inkscape:path-effect
       effect="spiro"
       id="path-effect1-3-92"
       is_visible="true"
       lpeversion="1" />
    <inkscape:path-effect
       effect="spiro"
       id="path-effect3-6"
       is_visible="true"
       lpeversion="1" />
    <inkscape:path-effect
       effect="spiro"
       id="path-effect5-6"
       is_visible="true"
       lpeversion="1" />
    <inkscape:path-effect
       effect="spiro"
       id="path-effect7-4"
       is_visible="true"
       lpeversion="1" />
    <inkscape:path-effect
       effect="spiro"
       id="path-effect1-6-9"
       is_visible="true"
       lpeversion="1" />
    <inkscape:path-effect
       effect="spiro"
       id="path-effect1-3-1-5"
       is_visible="true"
       lpeversion="1" />
    <inkscape:path-effect
       effect="spiro"
       id="path-effect3-8-0"
       is_visible="true"
       lpeversion="1" />
    <inkscape:path-effect
       effect="spiro"
       id="path-effect5-7-4"
       is_visible="true"
       lpeversion="1" />
    <inkscape:path-effect
       effect="spiro"
       id="path-effect7-9-8"
       is_visible="true"
       lpeversion="1" />
    <inkscape:path-effect
       effect="spiro"
       id="path-effect1-2-7"
       is_visible="true"
       lpeversion="1" />
    <inkscape:path-effect
       effect="spiro"
       id="path-effect1-3-9-1"
       is_visible="true"
       lpeversion="1" />
    <inkscape:path-effect
       effect="spiro"
       id="path-effect3-3-7"
       is_visible="true"
       lpeversion="1" />
    <inkscape:path-effect
       effect="spiro"
       id="path-effect5-1-2"
       is_visible="true"
       lpeversion="1" />
    <inkscape:path-effect
       effect="spiro"
       id="path-effect7-94-7"
       is_visible="true"
       lpeversion="1" />
    <inkscape:path-effect
       effect="spiro"
       id="path-effect1-6-7-2"
       is_visible="true"
       lpeversion="1" />
    <inkscape:path-effect
       effect="spiro"
       id="path-effect1-3-1-8-2"
       is_visible="true"
       lpeversion="1" />
    <inkscape:path-effect
       effect="spiro"
       id="path-effect3-8-4-6"
       is_visible="true"
       lpeversion="1" />
    <inkscape:path-effect
       effect="spiro"
       id="path-effect5-7-5-1"
       is_visible="true"
       lpeversion="1" />
    <inkscape:path-effect
       effect="spiro"
       id="path-effect7-9-0-0"
       is_visible="true"
       lpeversion="1" />
    <inkscape:path-effect
       effect="spiro"
       id="path-effect2-3"
       is_visible="true"
       lpeversion="1" />
    <inkscape:path-effect
       effect="spiro"
       id="path-effect2-3-7"
       is_visible="true"
       lpeversion="1" />
    <inkscape:path-effect
       effect="spiro"
       id="path-effect2-2"
       is_visible="true"
       lpeversion="1" />
    <inkscape:path-effect
       effect="spiro"
       id="path-effect2-3-0"
       is_visible="true"
       lpeversion="1" />
    <inkscape:path-effect
       effect="spiro"
       id="path-effect2-28"
       is_visible="true"
       lpeversion="1" />
    <inkscape:path-effect
       effect="spiro"
       id="path-effect2-28-9"
       is_visible="true"
       lpeversion="1" />
    <inkscape:path-effect
       effect="spiro"
       id="path-effect2-28-9-4"
       is_visible="true"
       lpeversion="1" />
    <inkscape:path-effect
       effect="spiro"
       id="path-effect2-28-3"
       is_visible="true"
       lpeversion="1" />
    <inkscape:path-effect
       effect="spiro"
       id="path-effect2-28-9-47"
       is_visible="true"
       lpeversion="1" />
    <g
       id="id-f83a9160-6730-4e1a-b9d3-f026adb54697-5">
      <g
         id="id-d4f1c1fd-5d7e-4cc2-98f2-243a43401039-2">
        <path
           d="M 6.25,-6.875 H 5.3125 l -0.640625,4.578125 c -0.15625,1.0625 -0.71875,1.625 -1.71875,1.625 C 2,-0.671875 1.625,-1.171875 1.78125,-2.25 l 0.640625,-4.625 h -0.9375 l -0.65625,4.640625 C 0.640625,-0.875 1.34375,0.125 2.90625,0.125 c 1.515625,0 2.5,-0.9375 2.6875,-2.296875 z m 0,0"
           id="id-794839ec-723a-4315-80cb-2ff75269337b-5" />
      </g>
      <g
         id="id-762b0ead-5bcf-4ffc-a9d4-650f41334f29-4">
        <path
           d="m 2.453125,-3.34375 c 0.375,0 0.65625,0.234375 0.65625,0.90625 0,0.859375 -0.359375,2 -1.296875,2 -0.265625,0 -0.421875,-0.03125 -0.671875,-0.109375 l 0.3125,-2.25 c 0.28125,-0.28125 0.578125,-0.546875 1,-0.546875 z M 2.625,-3.859375 c -0.40625,0 -0.75,0.15625 -1.078125,0.453125 L 1.8125,-5.375 1.15625,-5.296875 0.4375,-0.171875 C 0.96875,0.015625 1.328125,0.09375 1.765625,0.09375 3.25,0.09375 3.78125,-1.3125 3.78125,-2.375 c 0,-0.953125 -0.453125,-1.484375 -1.15625,-1.484375 z m 0,0"
           id="id-08ca60ef-a63a-4a79-8dde-f37a9d4a8d09-7" />
      </g>
    </g>
    <g
       id="id-f83a9160-6730-4e1a-b9d3-f026adb54697-1">
      <g
         id="id-d4f1c1fd-5d7e-4cc2-98f2-243a43401039-4">
        <path
           d="M 6.25,-6.875 H 5.3125 l -0.640625,4.578125 c -0.15625,1.0625 -0.71875,1.625 -1.71875,1.625 C 2,-0.671875 1.625,-1.171875 1.78125,-2.25 l 0.640625,-4.625 h -0.9375 l -0.65625,4.640625 C 0.640625,-0.875 1.34375,0.125 2.90625,0.125 c 1.515625,0 2.5,-0.9375 2.6875,-2.296875 z m 0,0"
           id="id-794839ec-723a-4315-80cb-2ff75269337b-9" />
      </g>
      <g
         id="id-762b0ead-5bcf-4ffc-a9d4-650f41334f29-2">
        <path
           d="m 2.453125,-3.34375 c 0.375,0 0.65625,0.234375 0.65625,0.90625 0,0.859375 -0.359375,2 -1.296875,2 -0.265625,0 -0.421875,-0.03125 -0.671875,-0.109375 l 0.3125,-2.25 c 0.28125,-0.28125 0.578125,-0.546875 1,-0.546875 z M 2.625,-3.859375 c -0.40625,0 -0.75,0.15625 -1.078125,0.453125 L 1.8125,-5.375 1.15625,-5.296875 0.4375,-0.171875 C 0.96875,0.015625 1.328125,0.09375 1.765625,0.09375 3.25,0.09375 3.78125,-1.3125 3.78125,-2.375 c 0,-0.953125 -0.453125,-1.484375 -1.15625,-1.484375 z m 0,0"
           id="id-08ca60ef-a63a-4a79-8dde-f37a9d4a8d09-0" />
      </g>
    </g>
    <g
       id="id-f83a9160-6730-4e1a-b9d3-f026adb54697-7">
      <g
         id="id-d4f1c1fd-5d7e-4cc2-98f2-243a43401039-1">
        <path
           d="M 6.25,-6.875 H 5.3125 l -0.640625,4.578125 c -0.15625,1.0625 -0.71875,1.625 -1.71875,1.625 C 2,-0.671875 1.625,-1.171875 1.78125,-2.25 l 0.640625,-4.625 h -0.9375 l -0.65625,4.640625 C 0.640625,-0.875 1.34375,0.125 2.90625,0.125 c 1.515625,0 2.5,-0.9375 2.6875,-2.296875 z m 0,0"
           id="id-794839ec-723a-4315-80cb-2ff75269337b-7" />
      </g>
      <g
         id="id-762b0ead-5bcf-4ffc-a9d4-650f41334f29-27">
        <path
           d="m 2.453125,-3.34375 c 0.375,0 0.65625,0.234375 0.65625,0.90625 0,0.859375 -0.359375,2 -1.296875,2 -0.265625,0 -0.421875,-0.03125 -0.671875,-0.109375 l 0.3125,-2.25 c 0.28125,-0.28125 0.578125,-0.546875 1,-0.546875 z M 2.625,-3.859375 c -0.40625,0 -0.75,0.15625 -1.078125,0.453125 L 1.8125,-5.375 1.15625,-5.296875 0.4375,-0.171875 C 0.96875,0.015625 1.328125,0.09375 1.765625,0.09375 3.25,0.09375 3.78125,-1.3125 3.78125,-2.375 c 0,-0.953125 -0.453125,-1.484375 -1.15625,-1.484375 z m 0,0"
           id="id-08ca60ef-a63a-4a79-8dde-f37a9d4a8d09-2" />
      </g>
    </g>
    <inkscape:path-effect
       effect="spiro"
       id="path-effect14-7"
       is_visible="true"
       lpeversion="1" />
    <g
       id="id-6695c8bc-d4fb-408d-af10-16e63854ae55-9">
      <g
         id="id-0a61603c-02a1-4c32-b915-3b84f2905897-7">
        <path
           d="M 2.15625,-4.546875 H 3.296875 L 3.5,-5.25 H 2.265625 L 2.4375,-6.546875 1.71875,-6.46875 1.390625,-5.25 h -0.9375 L 0.34375,-4.546875 H 1.25 L 0.8125,-1.40625 c -0.140625,0.984375 0.34375,1.53125 1.25,1.53125 0.40625,0 0.78125,-0.109375 1.171875,-0.359375 L 2.9375,-0.875 c -0.28125,0.140625 -0.5,0.234375 -0.765625,0.234375 -0.390625,0 -0.53125,-0.21875 -0.453125,-0.75 z m 0,0"
           id="id-cf346f64-ce42-4651-93c5-bab93ca876f1-7" />
      </g>
    </g>
    <inkscape:path-effect
       effect="spiro"
       id="path-effect6-7"
       is_visible="true"
       lpeversion="1" />
    <inkscape:path-effect
       effect="spiro"
       id="path-effect6-7-2"
       is_visible="true"
       lpeversion="1" />
    <inkscape:path-effect
       effect="spiro"
       id="path-effect6-7-2-0"
       is_visible="true"
       lpeversion="1" />
  </defs>
  <g
     inkscape:label="Layer 1"
     inkscape:groupmode="layer"
     id="layer1"
     transform="translate(-89.508717,-73.634924)">
    <path
       style="fill:#35837b;stroke:#202020;stroke-width:0.500134;stroke-linejoin:bevel;stroke-dasharray:1.5004, 1.5004;stroke-dashoffset:0;stroke-opacity:1;paint-order:markers stroke fill"
       d="m 154.96176,95.412254 -0.0527,84.466666"
       id="path6-3-1-3"
       inkscape:path-effect="#path-effect6-7-2-0"
       inkscape:original-d="m 154.96176,95.412254 c -0.0175,28.155556 -0.0351,56.311116 -0.0527,84.466666"
       transform="matrix(0,-0.99895458,1.4161394,0,-44.78743,250.18569)" />
    <path
       style="fill:#35837b;stroke:#202020;stroke-width:0.500134;stroke-linejoin:bevel;stroke-dasharray:1.5004, 1.5004;stroke-dashoffset:0;stroke-opacity:1;paint-order:markers stroke fill"
       d="m 154.96176,95.412254 -0.0527,84.466666"
       id="path11"
       inkscape:path-effect="#path-effect15"
       inkscape:original-d="m 154.96176,95.412254 c -0.0175,28.155556 -0.0351,56.311116 -0.0527,84.466666"
       transform="matrix(0,-0.99895458,1.4161394,0,-44.78743,292.51905)" />
    <path
       style="fill:#35837b;stroke:#202020;stroke-width:0.500134;stroke-linejoin:bevel;stroke-dasharray:1.5004, 1.5004;stroke-dashoffset:0;stroke-opacity:1;paint-order:markers stroke fill"
       d="m 154.96176,95.412254 -0.0527,84.466666"
       id="path17"
       inkscape:path-effect="#path-effect18"
       inkscape:original-d="m 154.96176,95.412254 c -0.0175,28.155556 -0.0351,56.311116 -0.0527,84.466666"
       transform="matrix(0,-0.99895458,1.4161394,0,-44.78743,334.85241)" />
    <path
       style="fill:#35837b;stroke:#202020;stroke-width:0.50013412;stroke-linejoin:bevel;stroke-dasharray:1.50040233,1.50040233;paint-order:markers stroke fill;stroke-opacity:1;stroke-dashoffset:0"
       d="m 154.96176,95.412254 -0.0527,84.466666"
       id="path6"
       inkscape:path-effect="#path-effect6"
       inkscape:original-d="m 154.96176,95.412254 c -0.0175,28.155556 -0.0351,56.311116 -0.0527,84.466666"
       transform="matrix(0.99901507,0,0,1.4072277,0.15260001,-60.287759)" />
    <path
       style="fill:#35837b;stroke:#202020;stroke-width:0.500134;stroke-linejoin:bevel;stroke-dasharray:1.50040197,1.50040197;stroke-dashoffset:0;stroke-opacity:1;paint-order:markers stroke fill"
       d="m 154.96176,95.412254 -0.0527,84.466666"
       id="path6-3"
       inkscape:path-effect="#path-effect6-7"
       inkscape:original-d="m 154.96176,95.412254 c -0.0175,28.155556 -0.0351,56.311116 -0.0527,84.466666"
       transform="matrix(0.99901507,0,0,1.4072277,45.355761,-60.287759)" />
    <path
       style="fill:#35837b;stroke:#202020;stroke-width:0.500134;stroke-linejoin:bevel;stroke-dasharray:1.50040197,1.50040197;stroke-dashoffset:0;stroke-opacity:1;paint-order:markers stroke fill"
       d="m 154.96176,95.412254 -0.0527,84.466666"
       id="path6-3-1"
       inkscape:path-effect="#path-effect6-7-2"
       inkscape:original-d="m 154.96176,95.412254 c -0.0175,28.155556 -0.0351,56.311116 -0.0527,84.466666"
       transform="matrix(0.99901507,0,0,1.4072277,-44.581125,-60.631623)" />
    <circle
       style="fill:#226ba8;fill-opacity:1;stroke:none;stroke-width:0.1;stroke-dasharray:none;stroke-dashoffset:0;stroke-opacity:1"
       id="path7-9"
       cx="154.96176"
       cy="95.412254"
       r="6.7877083" />
    <circle
       style="fill:#226ba8;fill-opacity:1;stroke:none;stroke-width:0.1;stroke-dasharray:none;stroke-dashoffset:0;stroke-opacity:1"
       id="path7-9-2"
       cx="109.95486"
       cy="137.64558"
       r="6.7877083" />
    <circle
       style="fill:#226ba8;fill-opacity:1;stroke:none;stroke-width:0.1;stroke-dasharray:none;stroke-dashoffset:0;stroke-opacity:1"
       id="path7-9-0"
       cx="154.9091"
       cy="179.87892"
       r="6.7877083" />
    <circle
       style="fill:#226ba8;fill-opacity:1;stroke:none;stroke-width:0.1;stroke-dasharray:none;stroke-dashoffset:0;stroke-opacity:1"
       id="path7-9-09"
       cx="199.86333"
       cy="138.19559"
       r="6.7877083" />
    <circle
       style="fill:#226ba8;fill-opacity:1;stroke:none;stroke-width:0.1;stroke-dasharray:none;stroke-dashoffset:0;stroke-opacity:1"
       id="path7-9-59"
       cx="110.47783"
       cy="95.412254"
       r="6.7877083" />
    <circle
       style="fill:#226ba8;fill-opacity:1;stroke:none;stroke-width:0.1;stroke-dasharray:none;stroke-dashoffset:0;stroke-opacity:1"
       id="path7-9-03"
       cx="199.86333"
       cy="95.412254"
       r="6.7877083" />
    <circle
       style="fill:#226ba8;fill-opacity:1;stroke:none;stroke-width:0.1;stroke-dasharray:none;stroke-dashoffset:0;stroke-opacity:1"
       id="path7-9-5-7"
       cx="109.95486"
       cy="179.87892"
       r="6.7877083" />
    <circle
       style="fill:#226ba8;fill-opacity:1;stroke:none;stroke-width:0.1;stroke-dasharray:none;stroke-dashoffset:0;stroke-opacity:1"
       id="path7-9-5-5"
       cx="199.81067"
       cy="179.92892"
       r="6.7877083" />
    <path
       style="fill:none;stroke:#404040;stroke-width:2;stroke-dasharray:none;stroke-opacity:1;marker-end:url(#RoundedArrow)"
       d="m 158.53978,131.91051 c 3.7636,-3.56795 6.13251,-8.57044 6.50789,-13.74287 0.3273,-4.50987 -0.84884,-9.11604 -3.2982,-12.91692"
       id="path1"
       inkscape:path-effect="#path-effect2"
       inkscape:original-d="m 158.53978,131.91051 c 2.1693,-4.58096 4.3386,-9.16192 6.50789,-13.74287 2.1693,-4.58096 -0.99557,-7.33105 -3.2982,-12.91692"
       sodipodi:nodetypes="csc" />
    <g
       transform="matrix(1.2099,0,0,1.2099,158.21481,111.99266)"
       ns9:version="1.10.2"
       ns9:texconverter="xelatex"
       ns9:pdfconverter="inkscape"
       ns9:text="$J$"
       ns9:preamble="/home/kirito/.config/textext/beamer_preamble.tex"
       ns9:scale="3.4296223540333495"
       ns9:alignment="middle center"
       ns9:stroke-to-path="0"
       ns9:inkscapeversion="1.3.2"
       id="g6656"
       ns9:jacobian_sqrt="1.2099">
      <defs
         id="id-a38ad654-c09e-43ea-b3e0-d4d8f7f9e258">
        <g
           id="id-e3ca5a55-9dc5-4503-89f1-e2515b3e117e">
          <g
             id="id-02dd66b8-eeb6-48b8-8595-e45f9fa7c3a8">
            <path
               d="M 2.65625,-6.875 H 1.71875 L 0.890625,-1.03125 C 0.765625,-0.109375 0.5,0.3125 -0.453125,0.671875 L -0.265625,1.375 C 0.875,1.03125 1.609375,0.515625 1.8125,-0.921875 Z m 0,0"
               id="id-d3407b9d-85b0-4cb1-8aa1-56e07cf84840" />
          </g>
        </g>
      </defs>
      <g
         fill="#000000"
         fill-opacity="1"
         id="id-df31466b-0a0f-40c6-b8c6-ebff6804fb76"
         transform="translate(-148.259,-127.89)">
        <g
           transform="translate(148.712,134.765)"
           id="g661">
          <path
             d="M 2.65625,-6.875 H 1.71875 L 0.890625,-1.03125 C 0.765625,-0.109375 0.5,0.3125 -0.453125,0.671875 L -0.265625,1.375 C 0.875,1.03125 1.609375,0.515625 1.8125,-0.921875 Z m 0,0"
             id="id-eafb46ab-d705-4b70-af2a-1544c64fc16a" />
        </g>
      </g>
    </g>
    <circle
       style="fill:#d2473f;fill-opacity:1;stroke:none;stroke-width:1.2939;stroke-dasharray:2.58781, 1.2939;stroke-dashoffset:0;stroke-opacity:1"
       id="path7"
       cx="154.90909"
       cy="137.64558"
       r="8.7826414" />
    <g
       transform="matrix(1.2099,0,0,1.2099,153.58144,79.787743)"
       ns9:version="1.10.2"
       ns9:texconverter="xelatex"
       ns9:pdfconverter="inkscape"
       ns9:text="$U_b$"
       ns9:preamble="/home/kirito/.config/textext/beamer_preamble.tex"
       ns9:scale="3.4296223540333495"
       ns9:alignment="middle center"
       ns9:stroke-to-path="0"
       ns9:inkscapeversion="1.3.2"
       id="g4116"
       ns9:jacobian_sqrt="1.2099">
      <defs
         id="id-b41da64e-01d9-4c3d-ac1c-b15b0c4189c4">
        <g
           id="id-f83a9160-6730-4e1a-b9d3-f026adb54697">
          <g
             id="id-d4f1c1fd-5d7e-4cc2-98f2-243a43401039">
            <path
               d="M 6.25,-6.875 H 5.3125 l -0.640625,4.578125 c -0.15625,1.0625 -0.71875,1.625 -1.71875,1.625 C 2,-0.671875 1.625,-1.171875 1.78125,-2.25 l 0.640625,-4.625 h -0.9375 l -0.65625,4.640625 C 0.640625,-0.875 1.34375,0.125 2.90625,0.125 c 1.515625,0 2.5,-0.9375 2.6875,-2.296875 z m 0,0"
               id="id-794839ec-723a-4315-80cb-2ff75269337b" />
          </g>
          <g
             id="id-762b0ead-5bcf-4ffc-a9d4-650f41334f29">
            <path
               d="m 2.453125,-3.34375 c 0.375,0 0.65625,0.234375 0.65625,0.90625 0,0.859375 -0.359375,2 -1.296875,2 -0.265625,0 -0.421875,-0.03125 -0.671875,-0.109375 l 0.3125,-2.25 c 0.28125,-0.28125 0.578125,-0.546875 1,-0.546875 z M 2.625,-3.859375 c -0.40625,0 -0.75,0.15625 -1.078125,0.453125 L 1.8125,-5.375 1.15625,-5.296875 0.4375,-0.171875 C 0.96875,0.015625 1.328125,0.09375 1.765625,0.09375 3.25,0.09375 3.78125,-1.3125 3.78125,-2.375 c 0,-0.953125 -0.453125,-1.484375 -1.15625,-1.484375 z m 0,0"
               id="id-08ca60ef-a63a-4a79-8dde-f37a9d4a8d09" />
          </g>
        </g>
      </defs>
      <g
         fill="#000000"
         fill-opacity="1"
         id="id-c66aafb5-b7c7-4cff-a958-b211b31a3554"
         transform="translate(-149.51,-127.89)">
        <g
           transform="translate(148.712,134.765)"
           id="g3841">
          <path
             d="M 6.25,-6.875 H 5.3125 l -0.640625,4.578125 c -0.15625,1.0625 -0.71875,1.625 -1.71875,1.625 C 2,-0.671875 1.625,-1.171875 1.78125,-2.25 l 0.640625,-4.625 h -0.9375 l -0.65625,4.640625 C 0.640625,-0.875 1.34375,0.125 2.90625,0.125 c 1.515625,0 2.5,-0.9375 2.6875,-2.296875 z m 0,0"
             id="id-b6e67a93-357a-4bd2-9dcb-521ff5005559" />
        </g>
      </g>
      <g
         fill="#000000"
         fill-opacity="1"
         id="id-34e4680d-8d98-4924-aa33-5e249ccb04da"
         transform="translate(-149.51,-127.89)">
        <g
           transform="translate(155.248,138.252)"
           id="g1024">
          <path
             d="m 2.453125,-3.34375 c 0.375,0 0.65625,0.234375 0.65625,0.90625 0,0.859375 -0.359375,2 -1.296875,2 -0.265625,0 -0.421875,-0.03125 -0.671875,-0.109375 l 0.3125,-2.25 c 0.28125,-0.28125 0.578125,-0.546875 1,-0.546875 z M 2.625,-3.859375 c -0.40625,0 -0.75,0.15625 -1.078125,0.453125 L 1.8125,-5.375 1.15625,-5.296875 0.4375,-0.171875 C 0.96875,0.015625 1.328125,0.09375 1.765625,0.09375 3.25,0.09375 3.78125,-1.3125 3.78125,-2.375 c 0,-0.953125 -0.453125,-1.484375 -1.15625,-1.484375 z m 0,0"
             id="id-7f8a21ad-9ad8-43a0-9649-581ec68a71b7" />
        </g>
      </g>
    </g>
    <path
       style="fill:none;stroke:#808080;stroke-width:2.20313;stroke-dasharray:none;stroke-dashoffset:0;stroke-opacity:1;marker-start:url(#marker15);marker-end:url(#marker14)"
       d="m 149.74601,91.068411 c -2.61141,-1.591883 -5.42746,-2.84765 -8.35681,-3.726569 -8.8553,-2.656936 -18.73531,-1.711865 -26.92634,2.575637"
       id="path13"
       inkscape:path-effect="#path-effect14"
       inkscape:original-d="m 149.74601,91.068411 c -2.7856,-1.24219 -5.57121,-2.484379 -8.35681,-3.726569 -2.78561,-1.24219 -17.9509,1.71709 -26.92634,2.575637"
       transform="matrix(0.71316815,0,0,1.1555464,38.423804,-14.44638)" />
    <g
       transform="matrix(1.2099,0,0,1.2099,127.69643,73.634773)"
       ns9:version="1.10.2"
       ns9:texconverter="xelatex"
       ns9:pdfconverter="inkscape"
       ns9:text="$t$"
       ns9:preamble="/home/kirito/.config/textext/beamer_preamble.tex"
       ns9:scale="3.4296223540333495"
       ns9:alignment="middle center"
       ns9:stroke-to-path="0"
       ns9:inkscapeversion="1.3.2"
       id="g4803"
       ns9:jacobian_sqrt="1.2099">
      <defs
         id="id-7480780f-ac4e-4918-b81d-c63b2c87f47f">
        <g
           id="id-6695c8bc-d4fb-408d-af10-16e63854ae55">
          <g
             id="id-0a61603c-02a1-4c32-b915-3b84f2905897">
            <path
               d="M 2.15625,-4.546875 H 3.296875 L 3.5,-5.25 H 2.265625 L 2.4375,-6.546875 1.71875,-6.46875 1.390625,-5.25 h -0.9375 L 0.34375,-4.546875 H 1.25 L 0.8125,-1.40625 c -0.140625,0.984375 0.34375,1.53125 1.25,1.53125 0.40625,0 0.78125,-0.109375 1.171875,-0.359375 L 2.9375,-0.875 c -0.28125,0.140625 -0.5,0.234375 -0.765625,0.234375 -0.390625,0 -0.53125,-0.21875 -0.453125,-0.75 z m 0,0"
               id="id-cf346f64-ce42-4651-93c5-bab93ca876f1" />
          </g>
        </g>
      </defs>
      <g
         fill="#000000"
         fill-opacity="1"
         id="id-9c06bc59-d059-47d9-a918-c7c082ea7f4e"
         transform="translate(-149.056,-128.218)">
        <g
           transform="translate(148.712,134.765)"
           id="g3575">
          <path
             d="M 2.15625,-4.546875 H 3.296875 L 3.5,-5.25 H 2.265625 L 2.4375,-6.546875 1.71875,-6.46875 1.390625,-5.25 h -0.9375 L 0.34375,-4.546875 H 1.25 L 0.8125,-1.40625 c -0.140625,0.984375 0.34375,1.53125 1.25,1.53125 0.40625,0 0.78125,-0.109375 1.171875,-0.359375 L 2.9375,-0.875 c -0.28125,0.140625 -0.5,0.234375 -0.765625,0.234375 -0.390625,0 -0.53125,-0.21875 -0.453125,-0.75 z m 0,0"
             id="id-aa8cf37c-58c6-43d6-9a69-211a9fffa212" />
        </g>
      </g>
    </g>
  </g>
</svg>
