<?xml version="1.0" encoding="UTF-8" standalone="no"?>
<svg
   width="338.22296pt"
   height="115.88262pt"
   viewBox="0 0 338.22296 115.88263"
   version="1.2"
   id="svg32714"
   sodipodi:docname="local-moment.svg"
   inkscape:version="1.2.1 (9c6d41e410, 2022-07-14)"
   xmlns:inkscape="http://www.inkscape.org/namespaces/inkscape"
   xmlns:sodipodi="http://sodipodi.sourceforge.net/DTD/sodipodi-0.dtd"
   xmlns="http://www.w3.org/2000/svg"
   xmlns:svg="http://www.w3.org/2000/svg"
   xmlns:ns2="http://www.iki.fi/pav/software/textext/">
  <sodipodi:namedview
     id="namedview32716"
     pagecolor="#505050"
     bordercolor="#eeeeee"
     borderopacity="1"
     inkscape:pageshadow="0"
     inkscape:pageopacity="0"
     inkscape:pagecheckerboard="0"
     inkscape:document-units="pt"
     showgrid="false"
     inkscape:zoom="1.3335911"
     inkscape:cx="173.59144"
     inkscape:cy="49.490432"
     inkscape:window-width="1916"
     inkscape:window-height="1052"
     inkscape:window-x="0"
     inkscape:window-y="24"
     inkscape:window-maximized="1"
     inkscape:current-layer="svg32714"
     inkscape:snap-bbox="true"
     inkscape:object-paths="true"
     inkscape:snap-intersection-paths="true"
     inkscape:snap-global="false"
     inkscape:showpageshadow="2"
     inkscape:deskcolor="#505050" />
  <defs
     id="defs32609">
    <inkscape:path-effect
       effect="spiro"
       id="path-effect11192"
       is_visible="true"
       lpeversion="1" />
    <marker
       style="overflow:visible"
       id="marker9621"
       refX="0"
       refY="0"
       orient="auto"
       inkscape:stockid="Arrow2Mend"
       inkscape:isstock="true">
      <path
         transform="scale(-0.6)"
         d="M 8.7185878,4.0337352 -2.2072895,0.01601326 8.7185884,-4.0017078 c -1.7454984,2.3720609 -1.7354408,5.6174519 -6e-7,8.035443 z"
         style="fill:context-stroke;fill-rule:evenodd;stroke:context-stroke;stroke-width:0.625;stroke-linejoin:round"
         id="path9619" />
    </marker>
    <marker
       style="overflow:visible"
       id="Arrow2Mend"
       refX="0"
       refY="0"
       orient="auto"
       inkscape:stockid="Arrow2Mend"
       inkscape:isstock="true">
      <path
         transform="scale(-0.6)"
         d="M 8.7185878,4.0337352 -2.2072895,0.01601326 8.7185884,-4.0017078 c -1.7454984,2.3720609 -1.7354408,5.6174519 -6e-7,8.035443 z"
         style="fill:context-stroke;fill-rule:evenodd;stroke:context-stroke;stroke-width:0.625;stroke-linejoin:round"
         id="path9370" />
    </marker>
    <marker
       style="overflow:visible"
       id="Arrow2Lend"
       refX="0"
       refY="0"
       orient="auto"
       inkscape:stockid="Arrow2Lend"
       inkscape:isstock="true">
      <path
         transform="matrix(-1.1,0,0,-1.1,-1.1,0)"
         d="M 8.7185878,4.0337352 -2.2072895,0.01601326 8.7185884,-4.0017078 c -1.7454984,2.3720609 -1.7354408,5.6174519 -6e-7,8.035443 z"
         style="fill:context-stroke;fill-rule:evenodd;stroke:context-stroke;stroke-width:0.625;stroke-linejoin:round"
         id="path9364" />
    </marker>
    <inkscape:path-effect
       effect="spiro"
       id="path-effect8375"
       is_visible="true"
       lpeversion="1" />
    <inkscape:path-effect
       effect="spiro"
       id="path-effect8371"
       is_visible="true"
       lpeversion="1" />
    <inkscape:path-effect
       effect="spiro"
       id="path-effect8334"
       is_visible="true"
       lpeversion="1" />
    <inkscape:path-effect
       effect="spiro"
       id="path-effect8213"
       is_visible="true"
       lpeversion="1" />
    <clipPath
       id="clip1">
      <path
         d="m 28,134 h 11 v 17.24219 H 28 Z m 0,0"
         id="path32600" />
    </clipPath>
    <clipPath
       id="clip2">
      <path
         d="m 75,134 h 12 v 17.24219 H 75 Z m 0,0"
         id="path32603" />
    </clipPath>
    <clipPath
       id="clip3">
      <path
         d="m 345,133 h 10.31641 v 13 H 345 Z m 0,0"
         id="path32606" />
    </clipPath>
    <g
       id="id-d512316c-f310-4ef7-b32f-ea93f87dd485-7">
      <g
         id="id-aec88e65-99b3-4c56-a594-255c12e961eb-5">
        <path
           d="M 5.40625,-10.46875 H 1.21875 V 3.484375 h 4.1875 z M 4.875,-9.953125 V 2.96875 H 1.78125 V -9.953125 Z M 3.234375,-4.5 c -0.390625,0 -0.9375,0.125 -0.9375,0.390625 0,0.125 0.09375,0.234375 0.25,0.234375 0.03125,0 0.078125,-0.015625 0.125,-0.03125 0.171875,-0.078125 0.3125,-0.109375 0.515625,-0.109375 0.5,0 0.609375,0.296875 0.609375,0.6875 0,0.53125 -0.1875,0.71875 -0.90625,0.765625 v 0.84375 c 0,0.140625 0.125,0.234375 0.25,0.234375 0.125,0 0.25,-0.09375 0.25,-0.234375 V -2.171875 C 4.0625,-2.265625 4.34375,-2.65625 4.34375,-3.34375 4.34375,-3.953125 4.09375,-4.5 3.234375,-4.5 Z m -0.09375,3.296875 c -0.203125,0 -0.34375,0.15625 -0.34375,0.359375 0,0.203125 0.140625,0.359375 0.34375,0.359375 0.203125,0 0.34375,-0.15625 0.34375,-0.359375 0,-0.203125 -0.140625,-0.359375 -0.34375,-0.359375 z m 0,0"
           id="id-7c2a457f-f768-4159-9e9f-9df2cc3e5e13-3" />
      </g>
      <g
         id="id-cbdc8fff-0ca5-40b0-a6c3-fd6785a6998c-5">
        <path
           d="M 4.03125,-5.25 H 0.484375 v 0.78125 h 2.5 L 0.25,-0.6875 V 0 H 3.953125 L 4.0625,-0.765625 H 1.28125 l 2.75,-3.796875 z m 0,0"
           id="id-d973a2bc-a0f1-46d3-be99-e1468b8100fd-6" />
      </g>
      <g
         id="id-5686a47d-2053-4c4d-820f-b70b1f5df129-2">
        <path
           d="m 4.921875,-2.78125 c 0,-1.609375 -0.75,-2.59375 -2.171875,-2.59375 -1.359375,0 -2.1875,1.171875 -2.1875,2.796875 0,1.671875 0.859375,2.703125 2.328125,2.703125 0.734375,0 1.3125,-0.25 1.828125,-0.65625 L 4.328125,-1.09375 C 3.875,-0.765625 3.484375,-0.625 2.953125,-0.625 c -0.75,0 -1.3125,-0.46875 -1.40625,-1.6875 h 3.34375 c 0.015625,-0.125 0.03125,-0.296875 0.03125,-0.46875 z M 4,-2.984375 H 1.546875 c 0.0625,-1.171875 0.53125,-1.65625 1.21875,-1.65625 0.828125,0 1.234375,0.5625 1.234375,1.59375 z m 0,0"
           id="id-a332717d-d305-44bd-a0ed-aad2acac9b2e-9" />
      </g>
      <g
         id="id-0e774e49-ecc7-4b16-9075-b05632ae91b5-1">
        <path
           d="m 3.203125,-5.375 c -0.640625,0 -1.125,0.40625 -1.40625,1.1875 L 1.703125,-5.25 H 0.921875 V 0 h 0.90625 v -3 c 0.21875,-1 0.609375,-1.46875 1.265625,-1.46875 0.1875,0 0.296875,0.015625 0.453125,0.046875 L 3.71875,-5.3125 C 3.5625,-5.359375 3.375,-5.375 3.203125,-5.375 Z m 0,0"
           id="id-af3d88dc-cd40-4e0c-89bc-b4785b17be2d-2" />
      </g>
      <g
         id="id-b16cf8d5-1627-44bd-a3e3-091b7fd09800-7">
        <path
           d="m 2.921875,-5.375 c -1.5,0 -2.359375,1.125 -2.359375,2.75 0,1.671875 0.859375,2.75 2.34375,2.75 C 4.390625,0.125 5.25,-1 5.25,-2.625 c 0,-1.671875 -0.828125,-2.75 -2.328125,-2.75 z m 0,0.734375 c 0.859375,0 1.34375,0.640625 1.34375,2.015625 0,1.375 -0.484375,2 -1.359375,2 -0.875,0 -1.34375,-0.625 -1.34375,-2 0,-1.375 0.484375,-2.015625 1.359375,-2.015625 z m 0,0"
           id="id-20005495-b261-4cc2-b6b6-ed297e2db39b-0" />
      </g>
      <g
         id="id-6b9ff16d-207e-4e6d-bab3-4e5b23972824-9">
        <path
           d="m 3.25,-0.84375 c -0.265625,0.140625 -0.46875,0.203125 -0.703125,0.203125 -0.453125,0 -0.625,-0.25 -0.625,-0.78125 v -3.125 h 1.15625 L 3.171875,-5.25 h -1.25 V -6.546875 L 1,-6.4375 V -5.25 H 0.09375 v 0.703125 H 1 V -1.375 c 0,0.96875 0.53125,1.5 1.421875,1.5 C 2.875,0.125 3.25,0 3.59375,-0.234375 Z m 0,0"
           id="id-32b60361-bbea-40ea-b977-53eb510acd35-3" />
      </g>
      <g
         id="id-71869a43-d697-4ceb-a7f9-8ebf4b864781-6">
        <path
           d="m 3.390625,-5.375 c -0.65625,0 -1.171875,0.328125 -1.5625,0.84375 v -2.921875 l -0.90625,0.09375 V 0 h 0.90625 V -3.734375 C 2.1875,-4.28125 2.59375,-4.65625 3.15625,-4.65625 3.65625,-4.65625 4,-4.421875 4,-3.640625 V 0 H 4.921875 V -3.765625 C 4.921875,-4.75 4.34375,-5.375 3.390625,-5.375 Z m 0,0"
           id="id-1e3d112e-4560-4763-824b-0e30cffc45d8-0" />
      </g>
      <g
         id="id-1e91a301-79e9-4d0c-a978-b6b3c6a52f9e-6">
        <path
           d="m 2.375,-5.375 c -1.09375,0 -1.890625,0.609375 -1.890625,1.453125 0,0.734375 0.4375,1.21875 1.578125,1.515625 1.015625,0.265625 1.28125,0.46875 1.28125,0.984375 0,0.5 -0.4375,0.796875 -1.125,0.796875 -0.578125,0 -1.0625,-0.1875 -1.484375,-0.5 L 0.25,-0.5625 c 0.453125,0.390625 1.09375,0.6875 1.984375,0.6875 1.0625,0 2.078125,-0.5 2.078125,-1.59375 0,-0.921875 -0.640625,-1.359375 -1.75,-1.640625 -0.84375,-0.21875 -1.125,-0.421875 -1.125,-0.84375 0,-0.421875 0.359375,-0.6875 0.96875,-0.6875 0.484375,0 0.890625,0.140625 1.359375,0.4375 L 4.15625,-4.78125 C 3.65625,-5.15625 3.109375,-5.375 2.375,-5.375 Z m 0,0"
           id="id-53a9d073-0486-42ca-ac9a-a430e0ddfb98-2" />
      </g>
      <g
         id="id-0db217cc-3c59-4772-870f-536584d3a0e2-6">
        <path
           d="m 1.359375,-7.78125 c -0.375,0 -0.625,0.28125 -0.625,0.640625 0,0.34375 0.25,0.609375 0.625,0.609375 0.390625,0 0.65625,-0.265625 0.65625,-0.609375 C 2.015625,-7.5 1.75,-7.78125 1.359375,-7.78125 Z M 1.828125,-5.25 H 0.921875 V 0 h 0.90625 z m 0,0"
           id="id-87b2e3dc-de9a-40b7-8807-e8766aeb7488-1" />
      </g>
    </g>
  </defs>
  <path
     style="fill:none;stroke:#404040;stroke-width:2.83465;stroke-opacity:1"
     d="M 237.90734,44.563733 H 338.22295"
     id="path11190"
     inkscape:path-effect="#path-effect11192"
     inkscape:original-d="m 237.90734,44.563733 c 33.43929,7.5e-4 66.87782,7.5e-4 100.31561,0" />
  <path
     style="fill:#303030;fill-opacity:1;fill-rule:nonzero;stroke:none"
     d="m 87.671875,43.835937 c 0,24.210939 -19.628906,43.83593 -43.835937,43.83593 C 19.625,87.671867 0,68.046876 0,43.835937 0,19.628905 19.625,0 43.835938,0 68.042969,0 87.671875,19.628905 87.671875,43.835937 Z m 0,0"
     id="path32611" />
  <path
     style="fill:#303030;fill-opacity:1;fill-rule:nonzero;stroke:none;stroke-width:0.876179"
     d="m 266.14582,43.835937 c 0,23.369341 -18.94396,42.309877 -42.30988,42.309877 -23.36935,0 -42.30989,-18.940536 -42.30989,-42.309877 0,-23.365924 18.94054,-42.3098791 42.30989,-42.3098791 23.36592,0 42.30988,18.9439551 42.30988,42.3098791 z m 0,0"
     id="path32613" />
  <path
     style="fill:none;stroke:#b0781e;stroke-width:2.83465;stroke-linecap:butt;stroke-linejoin:miter;stroke-miterlimit:4;stroke-opacity:1"
     d="M 28.835938,63.636718 V 29.621093"
     id="path32615" />
  <path
     style="fill:#b0781e;fill-opacity:1;fill-rule:evenodd;stroke:#b0781e;stroke-width:1.51181;stroke-linecap:butt;stroke-linejoin:miter;stroke-miterlimit:4;stroke-opacity:1"
     d="m 28.835938,40.960937 5.667968,5.667968 -5.667968,-19.839843 -5.671876,19.839843 z m 0,0"
     id="path32617" />
  <path
     style="fill:none;stroke:#b0781e;stroke-width:2.83465;stroke-linecap:butt;stroke-linejoin:miter;stroke-miterlimit:4;stroke-opacity:1"
     d="M 58.835938,24.035155 V 58.050781"
     id="path32619" />
  <path
     style="fill:#b0781e;fill-opacity:1;fill-rule:evenodd;stroke:#b0781e;stroke-width:1.51181;stroke-linecap:butt;stroke-linejoin:miter;stroke-miterlimit:4;stroke-opacity:1"
     d="m 58.835938,46.710937 -5.671876,-5.667969 5.671876,19.84375 5.667968,-19.84375 z m 0,0"
     id="path32621" />
  <path
     style="fill:none;stroke:#009e6e;stroke-width:2.83465;stroke-linecap:butt;stroke-linejoin:miter;stroke-miterlimit:4;stroke-opacity:1"
     d="M 209.50781,76.910155 V 42.898437"
     id="path32623" />
  <path
     style="fill:#009e6e;fill-opacity:1;fill-rule:evenodd;stroke:#009e6e;stroke-width:1.51181;stroke-linecap:butt;stroke-linejoin:miter;stroke-miterlimit:4;stroke-opacity:1"
     d="m 209.50781,54.238281 5.67188,5.667968 -5.67188,-19.84375 -5.66797,19.84375 z m 0,0"
     id="path32625" />
  <path
     style="fill:none;stroke:#009e6e;stroke-width:2.83465;stroke-linecap:butt;stroke-linejoin:miter;stroke-miterlimit:4;stroke-opacity:1"
     d="M 239.50781,37.312499 V 71.324218"
     id="path32627" />
  <path
     style="fill:#009e6e;fill-opacity:1;fill-rule:evenodd;stroke:#009e6e;stroke-width:1.51181;stroke-linecap:butt;stroke-linejoin:miter;stroke-miterlimit:4;stroke-opacity:1"
     d="m 239.50781,59.988281 -5.66797,-5.671876 5.66797,19.84375 5.67188,-19.84375 z m 0,0"
     id="path32629" />
  <g
     ns2:version="1.6.0"
     ns2:texconverter="pdflatex"
     ns2:pdfconverter="inkscape"
     ns2:text="$U_b$"
     ns2:preamble="/home/kirito/.config/inkscape/textext.tex"
     ns2:scale="2.5"
     ns2:alignment="middle center"
     ns2:stroke-to-path="0"
     transform="matrix(3.05876,0,0,3.05876,208.586,9.1181553)"
     ns2:jacobian_sqrt="2.5"
     id="g34217"
     style="fill:#ffffff;fill-opacity:1">
    <defs
       id="id-8ab35b15-088f-4598-b37e-567cdc66d2aa">
      <g
         id="id-b661bff2-d558-4e91-be1b-9e56c87d042c">
        <symbol
           overflow="visible"
           id="id-3e0a2efb-3a0a-4af4-8feb-a7db67fe96cb">
          <path
             style="stroke:none"
             d=""
             id="id-fef532e4-4de6-4402-903b-f783ae0251e3" />
        </symbol>
        <symbol
           overflow="visible"
           id="id-3c2c67e8-fd0a-44f2-9f5f-3f955b5882ee">
          <path
             style="stroke:none"
             d="M 6.328125,-5.765625 C 6.4375,-6.171875 6.609375,-6.46875 7.40625,-6.5 c 0.046875,0 0.171875,-0.015625 0.171875,-0.203125 0,0 0,-0.109375 -0.125,-0.109375 -0.328125,0 -0.6875,0.03125 -1.015625,0.03125 -0.34375,0 -0.71875,-0.03125 -1.046875,-0.03125 -0.0625,0 -0.171875,0 -0.171875,0.203125 C 5.21875,-6.5 5.3125,-6.5 5.390625,-6.5 c 0.578125,0.015625 0.6875,0.21875 0.6875,0.4375 0,0.03125 -0.03125,0.1875 -0.03125,0.203125 l -0.90625,3.5625 C 4.8125,-0.953125 3.65625,-0.09375 2.65625,-0.09375 c -0.671875,0 -1.203125,-0.4375 -1.203125,-1.296875 0,-0.015625 0,-0.328125 0.109375,-0.765625 L 2.515625,-6.046875 C 2.609375,-6.40625 2.625,-6.5 3.359375,-6.5 c 0.265625,0 0.34375,0 0.34375,-0.203125 0,-0.109375 -0.109375,-0.109375 -0.140625,-0.109375 -0.28125,0 -1,0.03125 -1.28125,0.03125 -0.28125,0 -1,-0.03125 -1.28125,-0.03125 -0.078125,0 -0.1875,0 -0.1875,0.203125 C 0.8125,-6.5 0.890625,-6.5 1.09375,-6.5 c 0.015625,0 0.203125,0 0.375,0.015625 0.171875,0.03125 0.265625,0.03125 0.265625,0.171875 0,0.046875 -0.109375,0.46875 -0.171875,0.703125 l -0.21875,0.875 C 1.25,-4.34375 0.78125,-2.46875 0.734375,-2.265625 0.671875,-2 0.671875,-1.84375 0.671875,-1.6875 c 0,1.203125 0.90625,1.90625 1.953125,1.90625 1.25,0 2.484375,-1.125 2.8125,-2.4375 z m 0,0"
             id="id-5ce49387-8134-426d-953d-0dfd52b13709" />
        </symbol>
        <symbol
           overflow="visible"
           id="id-75d0fc9b-62d5-4c88-9af6-48ef845bf78e">
          <path
             style="stroke:none"
             d=""
             id="id-e56b9e0d-959d-4e14-92ac-18bb0784147a" />
        </symbol>
        <symbol
           overflow="visible"
           id="id-2f938b14-7be3-4978-8589-01cc7ca454db">
          <path
             style="stroke:none"
             d="m 1.84375,-4.625 c 0,-0.015625 0.03125,-0.109375 0.03125,-0.109375 0,-0.046875 -0.03125,-0.109375 -0.125,-0.109375 -0.140625,0 -0.71875,0.0625 -0.890625,0.078125 -0.046875,0 -0.15625,0.015625 -0.15625,0.15625 0,0.09375 0.109375,0.09375 0.1875,0.09375 0.328125,0 0.328125,0.0625 0.328125,0.109375 0,0.046875 -0.0625,0.328125 -0.109375,0.484375 l -0.15625,0.640625 c -0.0625,0.25 -0.4375,1.765625 -0.453125,1.859375 -0.046875,0.171875 -0.046875,0.265625 -0.046875,0.34375 0,0.703125 0.453125,1.140625 1.03125,1.140625 0.875,0 1.796875,-0.9375 1.796875,-1.96875 0,-0.8125 -0.5625,-1.171875 -1.046875,-1.171875 -0.359375,0 -0.671875,0.203125 -0.875,0.390625 z m -0.359375,4.5 c -0.328125,0 -0.53125,-0.296875 -0.53125,-0.71875 0,-0.25 0.0625,-0.484375 0.265625,-1.28125 C 1.25,-2.25 1.25,-2.265625 1.390625,-2.421875 1.65625,-2.71875 1.96875,-2.875 2.21875,-2.875 c 0.265625,0 0.5,0.203125 0.5,0.671875 0,0.28125 -0.140625,1 -0.359375,1.40625 C 2.1875,-0.453125 1.84375,-0.125 1.484375,-0.125 Z m 0,0"
             id="id-77ca1573-47f1-4e67-8f9d-be2c1cbc7faf" />
        </symbol>
      </g>
    </defs>
    <g
       id="id-851908ad-786c-4c70-866b-c98693404ed5"
       transform="translate(-149.384,-127.953)"
       style="fill:#ffffff;fill-opacity:1">
      <g
         style="fill:#ffffff;fill-opacity:1"
         id="id-711da59a-6c9b-43f1-b1b5-8d18b0811f92">
        <g
           transform="translate(148.712,134.765)"
           id="g34505"
           style="fill:#ffffff;fill-opacity:1">
          <path
             style="fill:#ffffff;fill-opacity:1;stroke:none"
             d="M 6.328125,-5.765625 C 6.4375,-6.171875 6.609375,-6.46875 7.40625,-6.5 c 0.046875,0 0.171875,-0.015625 0.171875,-0.203125 0,0 0,-0.109375 -0.125,-0.109375 -0.328125,0 -0.6875,0.03125 -1.015625,0.03125 -0.34375,0 -0.71875,-0.03125 -1.046875,-0.03125 -0.0625,0 -0.171875,0 -0.171875,0.203125 C 5.21875,-6.5 5.3125,-6.5 5.390625,-6.5 c 0.578125,0.015625 0.6875,0.21875 0.6875,0.4375 0,0.03125 -0.03125,0.1875 -0.03125,0.203125 l -0.90625,3.5625 C 4.8125,-0.953125 3.65625,-0.09375 2.65625,-0.09375 c -0.671875,0 -1.203125,-0.4375 -1.203125,-1.296875 0,-0.015625 0,-0.328125 0.109375,-0.765625 L 2.515625,-6.046875 C 2.609375,-6.40625 2.625,-6.5 3.359375,-6.5 c 0.265625,0 0.34375,0 0.34375,-0.203125 0,-0.109375 -0.109375,-0.109375 -0.140625,-0.109375 -0.28125,0 -1,0.03125 -1.28125,0.03125 -0.28125,0 -1,-0.03125 -1.28125,-0.03125 -0.078125,0 -0.1875,0 -0.1875,0.203125 C 0.8125,-6.5 0.890625,-6.5 1.09375,-6.5 c 0.015625,0 0.203125,0 0.375,0.015625 0.171875,0.03125 0.265625,0.03125 0.265625,0.171875 0,0.046875 -0.109375,0.46875 -0.171875,0.703125 l -0.21875,0.875 C 1.25,-4.34375 0.78125,-2.46875 0.734375,-2.265625 0.671875,-2 0.671875,-1.84375 0.671875,-1.6875 c 0,1.203125 0.90625,1.90625 1.953125,1.90625 1.25,0 2.484375,-1.125 2.8125,-2.4375 z m 0,0"
             id="id-688ba641-a704-4723-91e6-89fde031d7b6" />
        </g>
      </g>
      <g
         style="fill:#ffffff;fill-opacity:1"
         id="id-2c19dde1-5f67-44e2-8675-f05e9e9ef39d">
        <g
           transform="translate(155.515,136.259)"
           id="g34509"
           style="fill:#ffffff;fill-opacity:1">
          <path
             style="fill:#ffffff;fill-opacity:1;stroke:none"
             d="m 1.84375,-4.625 c 0,-0.015625 0.03125,-0.109375 0.03125,-0.109375 0,-0.046875 -0.03125,-0.109375 -0.125,-0.109375 -0.140625,0 -0.71875,0.0625 -0.890625,0.078125 -0.046875,0 -0.15625,0.015625 -0.15625,0.15625 0,0.09375 0.109375,0.09375 0.1875,0.09375 0.328125,0 0.328125,0.0625 0.328125,0.109375 0,0.046875 -0.0625,0.328125 -0.109375,0.484375 l -0.15625,0.640625 c -0.0625,0.25 -0.4375,1.765625 -0.453125,1.859375 -0.046875,0.171875 -0.046875,0.265625 -0.046875,0.34375 0,0.703125 0.453125,1.140625 1.03125,1.140625 0.875,0 1.796875,-0.9375 1.796875,-1.96875 0,-0.8125 -0.5625,-1.171875 -1.046875,-1.171875 -0.359375,0 -0.671875,0.203125 -0.875,0.390625 z m -0.359375,4.5 c -0.328125,0 -0.53125,-0.296875 -0.53125,-0.71875 0,-0.25 0.0625,-0.484375 0.265625,-1.28125 C 1.25,-2.25 1.25,-2.265625 1.390625,-2.421875 1.65625,-2.71875 1.96875,-2.875 2.21875,-2.875 c 0.265625,0 0.5,0.203125 0.5,0.671875 0,0.28125 -0.140625,1 -0.359375,1.40625 C 2.1875,-0.453125 1.84375,-0.125 1.484375,-0.125 Z m 0,0"
             id="id-c165ccb8-45b8-40e5-8ed0-3a8fe86ca22c" />
        </g>
      </g>
    </g>
  </g>
  <g
     transform="matrix(1.875,0,0,1.875,1.1561047,97.308875)"
     ns2:version="1.3.0"
     ns2:texconverter="pdflatex"
     ns2:pdfconverter="inkscape"
     ns2:text="impurity site"
     ns2:preamble="/home/abhirup/textext.tex"
     ns2:scale="2.5"
     ns2:alignment="middle center"
     ns2:inkscapeversion="1.1.2"
     ns2:jacobian_sqrt="1.875"
     id="g6237">
    <defs
       id="id-cddaa2f2-109c-45e1-8620-c3fbb6070a55">
      <g
         id="id-36d3d313-1e37-4550-8f0b-445bc3e18518">
        <g
           id="id-906733d4-a90b-46e8-8ae3-77602c5b93bc">
          <path
             d="M 5.40625,-10.46875 H 1.21875 V 3.484375 h 4.1875 z M 4.875,-9.953125 V 2.96875 H 1.78125 V -9.953125 Z M 3.234375,-4.5 c -0.390625,0 -0.9375,0.125 -0.9375,0.390625 0,0.125 0.09375,0.234375 0.25,0.234375 0.03125,0 0.078125,-0.015625 0.125,-0.03125 0.171875,-0.078125 0.3125,-0.109375 0.515625,-0.109375 0.5,0 0.609375,0.296875 0.609375,0.6875 0,0.53125 -0.1875,0.71875 -0.90625,0.765625 v 0.84375 c 0,0.140625 0.125,0.234375 0.25,0.234375 0.125,0 0.25,-0.09375 0.25,-0.234375 V -2.171875 C 4.0625,-2.265625 4.34375,-2.65625 4.34375,-3.34375 4.34375,-3.953125 4.09375,-4.5 3.234375,-4.5 Z m -0.09375,3.296875 c -0.203125,0 -0.34375,0.15625 -0.34375,0.359375 0,0.203125 0.140625,0.359375 0.34375,0.359375 0.203125,0 0.34375,-0.15625 0.34375,-0.359375 0,-0.203125 -0.140625,-0.359375 -0.34375,-0.359375 z m 0,0"
             id="id-b52cb2dd-5d8c-4be9-9492-f5f368581e41" />
        </g>
        <g
           id="id-a0a99f13-57af-44e6-9d89-9807ca744f58">
          <path
             d="m 1.359375,-7.78125 c -0.375,0 -0.625,0.28125 -0.625,0.640625 0,0.34375 0.25,0.609375 0.625,0.609375 0.390625,0 0.65625,-0.265625 0.65625,-0.609375 C 2.015625,-7.5 1.75,-7.78125 1.359375,-7.78125 Z M 1.828125,-5.25 H 0.921875 V 0 h 0.90625 z m 0,0"
             id="id-c4b50d3a-1d7f-4a89-9c77-3fe45d0cd35d" />
        </g>
        <g
           id="id-79bfbc32-41b6-4cd0-97c8-170cb187dc89">
          <path
             d="M 6.1875,-5.375 C 5.484375,-5.375 5,-5 4.625,-4.421875 4.421875,-5.03125 3.953125,-5.375 3.296875,-5.375 c -0.6875,0 -1.15625,0.359375 -1.515625,0.890625 L 1.703125,-5.25 H 0.921875 V 0 h 0.90625 V -3.734375 C 2.1875,-4.28125 2.5,-4.65625 3.078125,-4.65625 c 0.390625,0 0.734375,0.234375 0.734375,1.015625 V 0 h 0.90625 v -3.734375 c 0.359375,-0.546875 0.671875,-0.921875 1.25,-0.921875 0.390625,0 0.734375,0.234375 0.734375,1.015625 V 0 h 0.90625 V -3.765625 C 7.609375,-4.75 7.046875,-5.375 6.1875,-5.375 Z m 0,0"
             id="id-0a77de24-03ca-45ef-88fc-32ca285213fd" />
        </g>
        <g
           id="id-891a2ad6-0cda-4a20-9ed6-ba5ac11304ff">
          <path
             d="m 3.328125,-5.375 c -0.59375,0 -1.171875,0.296875 -1.546875,0.828125 L 1.703125,-5.25 h -0.78125 v 7.375 l 0.90625,-0.109375 v -2.5 c 0.34375,0.421875 0.8125,0.609375 1.375,0.609375 1.359375,0 2.078125,-1.15625 2.078125,-2.75 0,-1.65625 -0.5625,-2.75 -1.953125,-2.75 z m -0.34375,4.75 c -0.46875,0 -0.875,-0.234375 -1.15625,-0.640625 v -2.5625 c 0.28125,-0.421875 0.71875,-0.8125 1.265625,-0.8125 0.796875,0 1.1875,0.640625 1.1875,2.015625 0,1.375 -0.453125,2 -1.296875,2 z m 0,0"
             id="id-36c8309f-69b3-4907-9d66-2625769761ae" />
        </g>
        <g
           id="id-3dedce45-82f8-4295-b9d7-85decdbb2fe1">
          <path
             d="M 4.8125,-5.25 H 3.890625 v 3.75 c -0.3125,0.515625 -0.734375,0.90625 -1.3125,0.90625 -0.5625,0 -0.796875,-0.28125 -0.796875,-0.984375 V -5.25 H 0.859375 v 3.765625 c 0,1.03125 0.546875,1.609375 1.46875,1.609375 0.75,0 1.234375,-0.296875 1.625,-0.9375 L 4.03125,0 H 4.8125 Z m 0,0"
             id="id-78e2eaaf-21a6-4e3f-8d09-bbc6a48eeebb" />
        </g>
        <g
           id="id-f34ae48b-8cc8-4efc-9615-1c2f8cc661ee">
          <path
             d="m 3.203125,-5.375 c -0.640625,0 -1.125,0.40625 -1.40625,1.1875 L 1.703125,-5.25 H 0.921875 V 0 h 0.90625 v -3 c 0.21875,-1 0.609375,-1.46875 1.265625,-1.46875 0.1875,0 0.296875,0.015625 0.453125,0.046875 L 3.71875,-5.3125 C 3.5625,-5.359375 3.375,-5.375 3.203125,-5.375 Z m 0,0"
             id="id-50054453-2106-4282-8fd2-00c5f731b5ec" />
        </g>
        <g
           id="id-1b34e325-b778-4c8d-9fe8-e612857f7851">
          <path
             d="m 3.25,-0.84375 c -0.265625,0.140625 -0.46875,0.203125 -0.703125,0.203125 -0.453125,0 -0.625,-0.25 -0.625,-0.78125 v -3.125 h 1.15625 L 3.171875,-5.25 h -1.25 V -6.546875 L 1,-6.4375 V -5.25 H 0.09375 v 0.703125 H 1 V -1.375 c 0,0.96875 0.53125,1.5 1.421875,1.5 C 2.875,0.125 3.25,0 3.59375,-0.234375 Z m 0,0"
             id="id-1e4163c9-7892-41a8-ab3e-cdd49ac03905" />
        </g>
        <g
           id="id-22f25420-ca3f-46fb-b03d-6cbeaf93bb01">
          <path
             d="M 4.8125,-5.25 H 3.859375 l -1.375,4.578125 L 1.078125,-5.25 H 0.09375 L 1.859375,0 h 0.3125 C 1.875,0.8125 1.578125,1.21875 0.515625,1.40625 L 0.609375,2.125 C 2.0625,1.96875 2.6875,1.140625 3.046875,0.03125 Z m 0,0"
             id="id-c880fd0b-1344-4a6c-b9ce-f04573761060" />
        </g>
        <g
           id="id-32f6fd4f-44cd-4cca-974e-f01a293fdba1">
          <path
             d="m 2.375,-5.375 c -1.09375,0 -1.890625,0.609375 -1.890625,1.453125 0,0.734375 0.4375,1.21875 1.578125,1.515625 1.015625,0.265625 1.28125,0.46875 1.28125,0.984375 0,0.5 -0.4375,0.796875 -1.125,0.796875 -0.578125,0 -1.0625,-0.1875 -1.484375,-0.5 L 0.25,-0.5625 c 0.453125,0.390625 1.09375,0.6875 1.984375,0.6875 1.0625,0 2.078125,-0.5 2.078125,-1.59375 0,-0.921875 -0.640625,-1.359375 -1.75,-1.640625 -0.84375,-0.21875 -1.125,-0.421875 -1.125,-0.84375 0,-0.421875 0.359375,-0.6875 0.96875,-0.6875 0.484375,0 0.890625,0.140625 1.359375,0.4375 L 4.15625,-4.78125 C 3.65625,-5.15625 3.109375,-5.375 2.375,-5.375 Z m 0,0"
             id="id-a3e495f2-7607-4892-9652-7c8e3222683a" />
        </g>
        <g
           id="id-cfc042ee-1e65-4b3f-8b13-7eebe71bad80">
          <path
             d="m 4.921875,-2.78125 c 0,-1.609375 -0.75,-2.59375 -2.171875,-2.59375 -1.359375,0 -2.1875,1.171875 -2.1875,2.796875 0,1.671875 0.859375,2.703125 2.328125,2.703125 0.734375,0 1.3125,-0.25 1.828125,-0.65625 L 4.328125,-1.09375 C 3.875,-0.765625 3.484375,-0.625 2.953125,-0.625 c -0.75,0 -1.3125,-0.46875 -1.40625,-1.6875 h 3.34375 c 0.015625,-0.125 0.03125,-0.296875 0.03125,-0.46875 z M 4,-2.984375 H 1.546875 c 0.0625,-1.171875 0.53125,-1.65625 1.21875,-1.65625 0.828125,0 1.234375,0.5625 1.234375,1.59375 z m 0,0"
             id="id-bf42e50f-6e44-4083-a932-daf8e1b7cc2d" />
        </g>
      </g>
    </defs>
    <g
       fill="#000000"
       fill-opacity="1"
       id="id-3cdc44e3-5492-4f29-a288-bdf29130e0de"
       transform="translate(-149.446,-126.984)">
      <g
         transform="translate(148.712,134.765)"
         id="g6198">
        <path
           d="m 1.359375,-7.78125 c -0.375,0 -0.625,0.28125 -0.625,0.640625 0,0.34375 0.25,0.609375 0.625,0.609375 0.390625,0 0.65625,-0.265625 0.65625,-0.609375 C 2.015625,-7.5 1.75,-7.78125 1.359375,-7.78125 Z M 1.828125,-5.25 H 0.921875 V 0 h 0.90625 z m 0,0"
           id="id-9523b5ba-a8d9-4288-af18-98c6fb522507" />
      </g>
      <g
         transform="translate(151.462,134.765)"
         id="g6201">
        <path
           d="M 6.1875,-5.375 C 5.484375,-5.375 5,-5 4.625,-4.421875 4.421875,-5.03125 3.953125,-5.375 3.296875,-5.375 c -0.6875,0 -1.15625,0.359375 -1.515625,0.890625 L 1.703125,-5.25 H 0.921875 V 0 h 0.90625 V -3.734375 C 2.1875,-4.28125 2.5,-4.65625 3.078125,-4.65625 c 0.390625,0 0.734375,0.234375 0.734375,1.015625 V 0 h 0.90625 v -3.734375 c 0.359375,-0.546875 0.671875,-0.921875 1.25,-0.921875 0.390625,0 0.734375,0.234375 0.734375,1.015625 V 0 h 0.90625 V -3.765625 C 7.609375,-4.75 7.046875,-5.375 6.1875,-5.375 Z m 0,0"
           id="id-cce0be56-2b57-4650-a3af-5609bb1e3e00" />
      </g>
      <g
         transform="translate(159.93,134.765)"
         id="g6204">
        <path
           d="m 3.328125,-5.375 c -0.59375,0 -1.171875,0.296875 -1.546875,0.828125 L 1.703125,-5.25 h -0.78125 v 7.375 l 0.90625,-0.109375 v -2.5 c 0.34375,0.421875 0.8125,0.609375 1.375,0.609375 1.359375,0 2.078125,-1.15625 2.078125,-2.75 0,-1.65625 -0.5625,-2.75 -1.953125,-2.75 z m -0.34375,4.75 c -0.46875,0 -0.875,-0.234375 -1.15625,-0.640625 v -2.5625 c 0.28125,-0.421875 0.71875,-0.8125 1.265625,-0.8125 0.796875,0 1.1875,0.640625 1.1875,2.015625 0,1.375 -0.453125,2 -1.296875,2 z m 0,0"
           id="id-109847e2-9db5-4767-9029-37b09cc71cbb" />
      </g>
      <g
         transform="translate(165.768,134.765)"
         id="g6207">
        <path
           d="M 4.8125,-5.25 H 3.890625 v 3.75 c -0.3125,0.515625 -0.734375,0.90625 -1.3125,0.90625 -0.5625,0 -0.796875,-0.28125 -0.796875,-0.984375 V -5.25 H 0.859375 v 3.765625 c 0,1.03125 0.546875,1.609375 1.46875,1.609375 0.75,0 1.234375,-0.296875 1.625,-0.9375 L 4.03125,0 H 4.8125 Z m 0,0"
           id="id-9f902a92-338c-48b9-b2a9-36d57d3ceaf2" />
      </g>
      <g
         transform="translate(171.496,134.765)"
         id="g6210">
        <path
           d="m 3.203125,-5.375 c -0.640625,0 -1.125,0.40625 -1.40625,1.1875 L 1.703125,-5.25 H 0.921875 V 0 h 0.90625 v -3 c 0.21875,-1 0.609375,-1.46875 1.265625,-1.46875 0.1875,0 0.296875,0.015625 0.453125,0.046875 L 3.71875,-5.3125 C 3.5625,-5.359375 3.375,-5.375 3.203125,-5.375 Z m 0,0"
           id="id-9addae2c-288d-4b8f-9570-182c26204332" />
      </g>
      <g
         transform="translate(175.312,134.765)"
         id="g6213">
        <path
           d="m 1.359375,-7.78125 c -0.375,0 -0.625,0.28125 -0.625,0.640625 0,0.34375 0.25,0.609375 0.625,0.609375 0.390625,0 0.65625,-0.265625 0.65625,-0.609375 C 2.015625,-7.5 1.75,-7.78125 1.359375,-7.78125 Z M 1.828125,-5.25 H 0.921875 V 0 h 0.90625 z m 0,0"
           id="id-e0d483d8-55e8-461f-8af7-14d58bdb0249" />
      </g>
      <g
         transform="translate(178.062,134.765)"
         id="g6216">
        <path
           d="m 3.25,-0.84375 c -0.265625,0.140625 -0.46875,0.203125 -0.703125,0.203125 -0.453125,0 -0.625,-0.25 -0.625,-0.78125 v -3.125 h 1.15625 L 3.171875,-5.25 h -1.25 V -6.546875 L 1,-6.4375 V -5.25 H 0.09375 v 0.703125 H 1 V -1.375 c 0,0.96875 0.53125,1.5 1.421875,1.5 C 2.875,0.125 3.25,0 3.59375,-0.234375 Z m 0,0"
           id="id-99dba202-678f-40eb-a35f-62c04140aa3e" />
      </g>
    </g>
    <g
       fill="#000000"
       fill-opacity="1"
       id="id-e58b1f04-ef12-452f-86a3-ee037d0ac5dd"
       transform="translate(-149.446,-126.984)">
      <g
         transform="translate(181.609,134.765)"
         id="g6220">
        <path
           d="M 4.8125,-5.25 H 3.859375 l -1.375,4.578125 L 1.078125,-5.25 H 0.09375 L 1.859375,0 h 0.3125 C 1.875,0.8125 1.578125,1.21875 0.515625,1.40625 L 0.609375,2.125 C 2.0625,1.96875 2.6875,1.140625 3.046875,0.03125 Z m 0,0"
           id="id-cc114e2b-84c3-46fd-bf3d-e7d90d6ac81c" />
      </g>
    </g>
    <g
       fill="#000000"
       fill-opacity="1"
       id="id-36b4df31-f772-4ee1-9b57-51e80b6dc54a"
       transform="translate(-149.446,-126.984)">
      <g
         transform="translate(189.15,134.765)"
         id="g6224">
        <path
           d="m 2.375,-5.375 c -1.09375,0 -1.890625,0.609375 -1.890625,1.453125 0,0.734375 0.4375,1.21875 1.578125,1.515625 1.015625,0.265625 1.28125,0.46875 1.28125,0.984375 0,0.5 -0.4375,0.796875 -1.125,0.796875 -0.578125,0 -1.0625,-0.1875 -1.484375,-0.5 L 0.25,-0.5625 c 0.453125,0.390625 1.09375,0.6875 1.984375,0.6875 1.0625,0 2.078125,-0.5 2.078125,-1.59375 0,-0.921875 -0.640625,-1.359375 -1.75,-1.640625 -0.84375,-0.21875 -1.125,-0.421875 -1.125,-0.84375 0,-0.421875 0.359375,-0.6875 0.96875,-0.6875 0.484375,0 0.890625,0.140625 1.359375,0.4375 L 4.15625,-4.78125 C 3.65625,-5.15625 3.109375,-5.375 2.375,-5.375 Z m 0,0"
           id="id-41e6a151-5067-4f44-9e38-e4f41a623ff6" />
      </g>
      <g
         transform="translate(193.803,134.765)"
         id="g6227">
        <path
           d="m 1.359375,-7.78125 c -0.375,0 -0.625,0.28125 -0.625,0.640625 0,0.34375 0.25,0.609375 0.625,0.609375 0.390625,0 0.65625,-0.265625 0.65625,-0.609375 C 2.015625,-7.5 1.75,-7.78125 1.359375,-7.78125 Z M 1.828125,-5.25 H 0.921875 V 0 h 0.90625 z m 0,0"
           id="id-4695071f-4c53-4133-8785-b863406a75c5" />
      </g>
      <g
         transform="translate(196.552,134.765)"
         id="g6230">
        <path
           d="m 3.25,-0.84375 c -0.265625,0.140625 -0.46875,0.203125 -0.703125,0.203125 -0.453125,0 -0.625,-0.25 -0.625,-0.78125 v -3.125 h 1.15625 L 3.171875,-5.25 h -1.25 V -6.546875 L 1,-6.4375 V -5.25 H 0.09375 v 0.703125 H 1 V -1.375 c 0,0.96875 0.53125,1.5 1.421875,1.5 C 2.875,0.125 3.25,0 3.59375,-0.234375 Z m 0,0"
           id="id-2d264f55-2273-4d36-9457-b0a93da27dcc" />
      </g>
    </g>
    <g
       fill="#000000"
       fill-opacity="1"
       id="id-647cc400-0a65-4a57-b14c-ebf7ff146f55"
       transform="translate(-149.446,-126.984)">
      <g
         transform="translate(199.999,134.765)"
         id="g6234">
        <path
           d="m 4.921875,-2.78125 c 0,-1.609375 -0.75,-2.59375 -2.171875,-2.59375 -1.359375,0 -2.1875,1.171875 -2.1875,2.796875 0,1.671875 0.859375,2.703125 2.328125,2.703125 0.734375,0 1.3125,-0.25 1.828125,-0.65625 L 4.328125,-1.09375 C 3.875,-0.765625 3.484375,-0.625 2.953125,-0.625 c -0.75,0 -1.3125,-0.46875 -1.40625,-1.6875 h 3.34375 c 0.015625,-0.125 0.03125,-0.296875 0.03125,-0.46875 z M 4,-2.984375 H 1.546875 c 0.0625,-1.171875 0.53125,-1.65625 1.21875,-1.65625 0.828125,0 1.234375,0.5625 1.234375,1.59375 z m 0,0"
           id="id-1c6e2b33-d330-4373-ba74-d340231653ba" />
      </g>
    </g>
  </g>
  <g
     transform="matrix(1.875,0,0,1.875,181.945,97.683965)"
     ns2:version="1.3.0"
     ns2:texconverter="pdflatex"
     ns2:pdfconverter="inkscape"
     ns2:text="zeroth site"
     ns2:preamble="/home/abhirup/textext.tex"
     ns2:scale="2.5"
     ns2:alignment="middle center"
     ns2:inkscapeversion="1.1.2"
     ns2:jacobian_sqrt="1.875"
     id="g6785">
    <defs
       id="id-cb54b633-2c39-40f7-aca3-3ff6258b21c7">
      <g
         id="id-d512316c-f310-4ef7-b32f-ea93f87dd485">
        <g
           id="id-aec88e65-99b3-4c56-a594-255c12e961eb">
          <path
             d="M 5.40625,-10.46875 H 1.21875 V 3.484375 h 4.1875 z M 4.875,-9.953125 V 2.96875 H 1.78125 V -9.953125 Z M 3.234375,-4.5 c -0.390625,0 -0.9375,0.125 -0.9375,0.390625 0,0.125 0.09375,0.234375 0.25,0.234375 0.03125,0 0.078125,-0.015625 0.125,-0.03125 0.171875,-0.078125 0.3125,-0.109375 0.515625,-0.109375 0.5,0 0.609375,0.296875 0.609375,0.6875 0,0.53125 -0.1875,0.71875 -0.90625,0.765625 v 0.84375 c 0,0.140625 0.125,0.234375 0.25,0.234375 0.125,0 0.25,-0.09375 0.25,-0.234375 V -2.171875 C 4.0625,-2.265625 4.34375,-2.65625 4.34375,-3.34375 4.34375,-3.953125 4.09375,-4.5 3.234375,-4.5 Z m -0.09375,3.296875 c -0.203125,0 -0.34375,0.15625 -0.34375,0.359375 0,0.203125 0.140625,0.359375 0.34375,0.359375 0.203125,0 0.34375,-0.15625 0.34375,-0.359375 0,-0.203125 -0.140625,-0.359375 -0.34375,-0.359375 z m 0,0"
             id="id-7c2a457f-f768-4159-9e9f-9df2cc3e5e13" />
        </g>
        <g
           id="id-cbdc8fff-0ca5-40b0-a6c3-fd6785a6998c">
          <path
             d="M 4.03125,-5.25 H 0.484375 v 0.78125 h 2.5 L 0.25,-0.6875 V 0 H 3.953125 L 4.0625,-0.765625 H 1.28125 l 2.75,-3.796875 z m 0,0"
             id="id-d973a2bc-a0f1-46d3-be99-e1468b8100fd" />
        </g>
        <g
           id="id-5686a47d-2053-4c4d-820f-b70b1f5df129">
          <path
             d="m 4.921875,-2.78125 c 0,-1.609375 -0.75,-2.59375 -2.171875,-2.59375 -1.359375,0 -2.1875,1.171875 -2.1875,2.796875 0,1.671875 0.859375,2.703125 2.328125,2.703125 0.734375,0 1.3125,-0.25 1.828125,-0.65625 L 4.328125,-1.09375 C 3.875,-0.765625 3.484375,-0.625 2.953125,-0.625 c -0.75,0 -1.3125,-0.46875 -1.40625,-1.6875 h 3.34375 c 0.015625,-0.125 0.03125,-0.296875 0.03125,-0.46875 z M 4,-2.984375 H 1.546875 c 0.0625,-1.171875 0.53125,-1.65625 1.21875,-1.65625 0.828125,0 1.234375,0.5625 1.234375,1.59375 z m 0,0"
             id="id-a332717d-d305-44bd-a0ed-aad2acac9b2e" />
        </g>
        <g
           id="id-0e774e49-ecc7-4b16-9075-b05632ae91b5">
          <path
             d="m 3.203125,-5.375 c -0.640625,0 -1.125,0.40625 -1.40625,1.1875 L 1.703125,-5.25 H 0.921875 V 0 h 0.90625 v -3 c 0.21875,-1 0.609375,-1.46875 1.265625,-1.46875 0.1875,0 0.296875,0.015625 0.453125,0.046875 L 3.71875,-5.3125 C 3.5625,-5.359375 3.375,-5.375 3.203125,-5.375 Z m 0,0"
             id="id-af3d88dc-cd40-4e0c-89bc-b4785b17be2d" />
        </g>
        <g
           id="id-b16cf8d5-1627-44bd-a3e3-091b7fd09800">
          <path
             d="m 2.921875,-5.375 c -1.5,0 -2.359375,1.125 -2.359375,2.75 0,1.671875 0.859375,2.75 2.34375,2.75 C 4.390625,0.125 5.25,-1 5.25,-2.625 c 0,-1.671875 -0.828125,-2.75 -2.328125,-2.75 z m 0,0.734375 c 0.859375,0 1.34375,0.640625 1.34375,2.015625 0,1.375 -0.484375,2 -1.359375,2 -0.875,0 -1.34375,-0.625 -1.34375,-2 0,-1.375 0.484375,-2.015625 1.359375,-2.015625 z m 0,0"
             id="id-20005495-b261-4cc2-b6b6-ed297e2db39b" />
        </g>
        <g
           id="id-6b9ff16d-207e-4e6d-bab3-4e5b23972824">
          <path
             d="m 3.25,-0.84375 c -0.265625,0.140625 -0.46875,0.203125 -0.703125,0.203125 -0.453125,0 -0.625,-0.25 -0.625,-0.78125 v -3.125 h 1.15625 L 3.171875,-5.25 h -1.25 V -6.546875 L 1,-6.4375 V -5.25 H 0.09375 v 0.703125 H 1 V -1.375 c 0,0.96875 0.53125,1.5 1.421875,1.5 C 2.875,0.125 3.25,0 3.59375,-0.234375 Z m 0,0"
             id="id-32b60361-bbea-40ea-b977-53eb510acd35" />
        </g>
        <g
           id="id-71869a43-d697-4ceb-a7f9-8ebf4b864781">
          <path
             d="m 3.390625,-5.375 c -0.65625,0 -1.171875,0.328125 -1.5625,0.84375 v -2.921875 l -0.90625,0.09375 V 0 h 0.90625 V -3.734375 C 2.1875,-4.28125 2.59375,-4.65625 3.15625,-4.65625 3.65625,-4.65625 4,-4.421875 4,-3.640625 V 0 H 4.921875 V -3.765625 C 4.921875,-4.75 4.34375,-5.375 3.390625,-5.375 Z m 0,0"
             id="id-1e3d112e-4560-4763-824b-0e30cffc45d8" />
        </g>
        <g
           id="id-1e91a301-79e9-4d0c-a978-b6b3c6a52f9e">
          <path
             d="m 2.375,-5.375 c -1.09375,0 -1.890625,0.609375 -1.890625,1.453125 0,0.734375 0.4375,1.21875 1.578125,1.515625 1.015625,0.265625 1.28125,0.46875 1.28125,0.984375 0,0.5 -0.4375,0.796875 -1.125,0.796875 -0.578125,0 -1.0625,-0.1875 -1.484375,-0.5 L 0.25,-0.5625 c 0.453125,0.390625 1.09375,0.6875 1.984375,0.6875 1.0625,0 2.078125,-0.5 2.078125,-1.59375 0,-0.921875 -0.640625,-1.359375 -1.75,-1.640625 -0.84375,-0.21875 -1.125,-0.421875 -1.125,-0.84375 0,-0.421875 0.359375,-0.6875 0.96875,-0.6875 0.484375,0 0.890625,0.140625 1.359375,0.4375 L 4.15625,-4.78125 C 3.65625,-5.15625 3.109375,-5.375 2.375,-5.375 Z m 0,0"
             id="id-53a9d073-0486-42ca-ac9a-a430e0ddfb98" />
        </g>
        <g
           id="id-0db217cc-3c59-4772-870f-536584d3a0e2">
          <path
             d="m 1.359375,-7.78125 c -0.375,0 -0.625,0.28125 -0.625,0.640625 0,0.34375 0.25,0.609375 0.625,0.609375 0.390625,0 0.65625,-0.265625 0.65625,-0.609375 C 2.015625,-7.5 1.75,-7.78125 1.359375,-7.78125 Z M 1.828125,-5.25 H 0.921875 V 0 h 0.90625 z m 0,0"
             id="id-87b2e3dc-de9a-40b7-8807-e8766aeb7488" />
        </g>
      </g>
    </defs>
    <g
       fill="#000000"
       fill-opacity="1"
       id="id-ededd961-2708-419a-ba1d-516eb7a099d4"
       transform="translate(-148.962,-126.984)">
      <g
         transform="translate(148.712,134.765)"
         id="g7414">
        <path
           d="M 4.03125,-5.25 H 0.484375 v 0.78125 h 2.5 L 0.25,-0.6875 V 0 H 3.953125 L 4.0625,-0.765625 H 1.28125 l 2.75,-3.796875 z m 0,0"
           id="id-d6867763-36e0-4385-be50-74bbc4b733a6" />
      </g>
    </g>
    <g
       fill="#000000"
       fill-opacity="1"
       id="id-3dd00220-fc9f-4f02-9b7b-c0bc6120c1ca"
       transform="translate(-148.962,-126.984)">
      <g
         transform="translate(152.966,134.765)"
         id="g7418">
        <path
           d="m 4.921875,-2.78125 c 0,-1.609375 -0.75,-2.59375 -2.171875,-2.59375 -1.359375,0 -2.1875,1.171875 -2.1875,2.796875 0,1.671875 0.859375,2.703125 2.328125,2.703125 0.734375,0 1.3125,-0.25 1.828125,-0.65625 L 4.328125,-1.09375 C 3.875,-0.765625 3.484375,-0.625 2.953125,-0.625 c -0.75,0 -1.3125,-0.46875 -1.40625,-1.6875 h 3.34375 c 0.015625,-0.125 0.03125,-0.296875 0.03125,-0.46875 z M 4,-2.984375 H 1.546875 c 0.0625,-1.171875 0.53125,-1.65625 1.21875,-1.65625 0.828125,0 1.234375,0.5625 1.234375,1.59375 z m 0,0"
           id="id-11377ad3-b6d8-464b-8ed3-f20a74367827" />
      </g>
      <g
         transform="translate(158.386,134.765)"
         id="g7421">
        <path
           d="m 3.203125,-5.375 c -0.640625,0 -1.125,0.40625 -1.40625,1.1875 L 1.703125,-5.25 H 0.921875 V 0 h 0.90625 v -3 c 0.21875,-1 0.609375,-1.46875 1.265625,-1.46875 0.1875,0 0.296875,0.015625 0.453125,0.046875 L 3.71875,-5.3125 C 3.5625,-5.359375 3.375,-5.375 3.203125,-5.375 Z m 0,0"
           id="id-afc629c3-e528-4a40-8d11-502187619f15" />
      </g>
    </g>
    <g
       fill="#000000"
       fill-opacity="1"
       id="id-bc09f163-5ce4-42d9-bb27-55de37b3d34a"
       transform="translate(-148.962,-126.984)">
      <g
         transform="translate(162.002,134.765)"
         id="g7425">
        <path
           d="m 2.921875,-5.375 c -1.5,0 -2.359375,1.125 -2.359375,2.75 0,1.671875 0.859375,2.75 2.34375,2.75 C 4.390625,0.125 5.25,-1 5.25,-2.625 c 0,-1.671875 -0.828125,-2.75 -2.328125,-2.75 z m 0,0.734375 c 0.859375,0 1.34375,0.640625 1.34375,2.015625 0,1.375 -0.484375,2 -1.359375,2 -0.875,0 -1.34375,-0.625 -1.34375,-2 0,-1.375 0.484375,-2.015625 1.359375,-2.015625 z m 0,0"
           id="id-8466b37f-22b5-445c-ac48-b0fe6ef458c7" />
      </g>
      <g
         transform="translate(167.82,134.765)"
         id="g7428">
        <path
           d="m 3.25,-0.84375 c -0.265625,0.140625 -0.46875,0.203125 -0.703125,0.203125 -0.453125,0 -0.625,-0.25 -0.625,-0.78125 v -3.125 h 1.15625 L 3.171875,-5.25 h -1.25 V -6.546875 L 1,-6.4375 V -5.25 H 0.09375 v 0.703125 H 1 V -1.375 c 0,0.96875 0.53125,1.5 1.421875,1.5 C 2.875,0.125 3.25,0 3.59375,-0.234375 Z m 0,0"
           id="id-f7f456ff-4c21-4c86-816c-8da348c7b651" />
      </g>
      <g
         transform="translate(171.417,134.765)"
         id="g7431">
        <path
           d="m 3.390625,-5.375 c -0.65625,0 -1.171875,0.328125 -1.5625,0.84375 v -2.921875 l -0.90625,0.09375 V 0 h 0.90625 V -3.734375 C 2.1875,-4.28125 2.59375,-4.65625 3.15625,-4.65625 3.65625,-4.65625 4,-4.421875 4,-3.640625 V 0 H 4.921875 V -3.765625 C 4.921875,-4.75 4.34375,-5.375 3.390625,-5.375 Z m 0,0"
           id="id-8f56d807-fe30-4ad9-8859-89d01aafd8c1" />
      </g>
    </g>
    <g
       fill="#000000"
       fill-opacity="1"
       id="id-2a74b008-38f0-424d-ae0a-c00982a0d5f7"
       transform="translate(-148.962,-126.984)">
      <g
         transform="translate(179.825,134.765)"
         id="g7435">
        <path
           d="m 2.375,-5.375 c -1.09375,0 -1.890625,0.609375 -1.890625,1.453125 0,0.734375 0.4375,1.21875 1.578125,1.515625 1.015625,0.265625 1.28125,0.46875 1.28125,0.984375 0,0.5 -0.4375,0.796875 -1.125,0.796875 -0.578125,0 -1.0625,-0.1875 -1.484375,-0.5 L 0.25,-0.5625 c 0.453125,0.390625 1.09375,0.6875 1.984375,0.6875 1.0625,0 2.078125,-0.5 2.078125,-1.59375 0,-0.921875 -0.640625,-1.359375 -1.75,-1.640625 -0.84375,-0.21875 -1.125,-0.421875 -1.125,-0.84375 0,-0.421875 0.359375,-0.6875 0.96875,-0.6875 0.484375,0 0.890625,0.140625 1.359375,0.4375 L 4.15625,-4.78125 C 3.65625,-5.15625 3.109375,-5.375 2.375,-5.375 Z m 0,0"
           id="id-b0c25c5d-1d39-429e-91b1-3aa787f322f9" />
      </g>
      <g
         transform="translate(184.478,134.765)"
         id="g7438">
        <path
           d="m 1.359375,-7.78125 c -0.375,0 -0.625,0.28125 -0.625,0.640625 0,0.34375 0.25,0.609375 0.625,0.609375 0.390625,0 0.65625,-0.265625 0.65625,-0.609375 C 2.015625,-7.5 1.75,-7.78125 1.359375,-7.78125 Z M 1.828125,-5.25 H 0.921875 V 0 h 0.90625 z m 0,0"
           id="id-1d83401d-891b-4cb0-a6dd-0602490c8f0b" />
      </g>
      <g
         transform="translate(187.227,134.765)"
         id="g7441">
        <path
           d="m 3.25,-0.84375 c -0.265625,0.140625 -0.46875,0.203125 -0.703125,0.203125 -0.453125,0 -0.625,-0.25 -0.625,-0.78125 v -3.125 h 1.15625 L 3.171875,-5.25 h -1.25 V -6.546875 L 1,-6.4375 V -5.25 H 0.09375 v 0.703125 H 1 V -1.375 c 0,0.96875 0.53125,1.5 1.421875,1.5 C 2.875,0.125 3.25,0 3.59375,-0.234375 Z m 0,0"
           id="id-1b728ce9-7852-4ff9-bafe-a54b5e073c4c" />
      </g>
    </g>
    <g
       fill="#000000"
       fill-opacity="1"
       id="id-0437d3f3-b04a-4fed-9782-013013307be8"
       transform="translate(-148.962,-126.984)">
      <g
         transform="translate(190.674,134.765)"
         id="g7445">
        <path
           d="m 4.921875,-2.78125 c 0,-1.609375 -0.75,-2.59375 -2.171875,-2.59375 -1.359375,0 -2.1875,1.171875 -2.1875,2.796875 0,1.671875 0.859375,2.703125 2.328125,2.703125 0.734375,0 1.3125,-0.25 1.828125,-0.65625 L 4.328125,-1.09375 C 3.875,-0.765625 3.484375,-0.625 2.953125,-0.625 c -0.75,0 -1.3125,-0.46875 -1.40625,-1.6875 h 3.34375 c 0.015625,-0.125 0.03125,-0.296875 0.03125,-0.46875 z M 4,-2.984375 H 1.546875 c 0.0625,-1.171875 0.53125,-1.65625 1.21875,-1.65625 0.828125,0 1.234375,0.5625 1.234375,1.59375 z m 0,0"
           id="id-702b7d26-f023-4667-8a09-41e13285ea1f" />
      </g>
    </g>
  </g>
  <g
     ns2:version="1.8.1"
     ns2:texconverter="pdflatex"
     ns2:pdfconverter="inkscape"
     ns2:text="$t$"
     ns2:preamble="/home/kirito/.config/textext/textext.tex"
     ns2:scale="3.05876"
     ns2:alignment="middle center"
     ns2:stroke-to-path="0"
     ns2:inkscapeversion="1.2.1"
     transform="matrix(3.05876,0,0,3.05876,294.46987,21.430058)"
     ns2:jacobian_sqrt="3.05876"
     id="g11586">
    <defs
       id="id-cc3b7544-78c9-4e32-a4e9-19c41afa433c">
      <g
         id="id-2a82352b-68fa-4e13-b88e-d12043da0401">
        <g
           id="id-42c04ffc-ea1a-45e4-b7d3-48e2bf0bd8c6" />
        <g
           id="id-a6dd7186-f290-427f-8f0b-3299031ce132">
          <path
             d="m 2.046875,-3.984375 h 0.9375 c 0.203125,0 0.3125,0 0.3125,-0.203125 0,-0.109375 -0.109375,-0.109375 -0.28125,-0.109375 h -0.875 C 2.5,-5.71875 2.546875,-5.90625 2.546875,-5.96875 c 0,-0.171875 -0.125,-0.265625 -0.296875,-0.265625 -0.03125,0 -0.3125,0 -0.390625,0.359375 L 1.46875,-4.296875 h -0.9375 c -0.203125,0 -0.296875,0 -0.296875,0.1875 0,0.125 0.078125,0.125 0.28125,0.125 h 0.875 C 0.671875,-1.15625 0.625,-0.984375 0.625,-0.8125 0.625,-0.265625 1,0.109375 1.546875,0.109375 2.5625,0.109375 3.125,-1.34375 3.125,-1.421875 3.125,-1.53125 3.046875,-1.53125 3.015625,-1.53125 2.921875,-1.53125 2.90625,-1.5 2.859375,-1.390625 2.4375,-0.34375 1.90625,-0.109375 1.5625,-0.109375 c -0.203125,0 -0.3125,-0.125 -0.3125,-0.453125 0,-0.25 0.03125,-0.3125 0.0625,-0.484375 z m 0,0"
             id="id-d4dd3731-4d57-4379-bc6b-44ed60b9d43e" />
        </g>
      </g>
    </defs>
    <g
       fill="#000000"
       fill-opacity="1"
       id="id-d1b6bd6a-b78a-4666-bf04-f4e55adf0dfd"
       transform="translate(-148.946,-128.531)">
      <g
         transform="translate(148.712,134.765)"
         id="g11583">
        <path
           d="m 2.046875,-3.984375 h 0.9375 c 0.203125,0 0.3125,0 0.3125,-0.203125 0,-0.109375 -0.109375,-0.109375 -0.28125,-0.109375 h -0.875 C 2.5,-5.71875 2.546875,-5.90625 2.546875,-5.96875 c 0,-0.171875 -0.125,-0.265625 -0.296875,-0.265625 -0.03125,0 -0.3125,0 -0.390625,0.359375 L 1.46875,-4.296875 h -0.9375 c -0.203125,0 -0.296875,0 -0.296875,0.1875 0,0.125 0.078125,0.125 0.28125,0.125 h 0.875 C 0.671875,-1.15625 0.625,-0.984375 0.625,-0.8125 0.625,-0.265625 1,0.109375 1.546875,0.109375 2.5625,0.109375 3.125,-1.34375 3.125,-1.421875 3.125,-1.53125 3.046875,-1.53125 3.015625,-1.53125 2.921875,-1.53125 2.90625,-1.5 2.859375,-1.390625 2.4375,-0.34375 1.90625,-0.109375 1.5625,-0.109375 c -0.203125,0 -0.3125,-0.125 -0.3125,-0.453125 0,-0.25 0.03125,-0.3125 0.0625,-0.484375 z m 0,0"
           id="id-55ebf556-1f3c-4b5d-8291-edb4ce8f22e8" />
      </g>
    </g>
  </g>
</svg>
