<?xml version="1.0" encoding="UTF-8" standalone="no"?>
<svg
   xml:space="preserve"
   inkscape:version="1.2.1 (9c6d41e410, 2022-07-14)"
   sodipodi:docname="perturbation.svg"
   id="svg32714"
   version="1.2"
   viewBox="0 0 674.01574 185.355"
   height="185.355pt"
   width="674.01575pt"
   xmlns:inkscape="http://www.inkscape.org/namespaces/inkscape"
   xmlns:sodipodi="http://sodipodi.sourceforge.net/DTD/sodipodi-0.dtd"
   xmlns="http://www.w3.org/2000/svg"
   xmlns:svg="http://www.w3.org/2000/svg"
   xmlns:ns26="http://www.iki.fi/pav/software/textext/"><sodipodi:namedview
     id="namedview32716"
     pagecolor="#505050"
     bordercolor="#eeeeee"
     borderopacity="1"
     inkscape:pageshadow="0"
     inkscape:pageopacity="0"
     inkscape:pagecheckerboard="0"
     inkscape:document-units="pt"
     showgrid="false"
     inkscape:zoom="1.1540071"
     inkscape:cx="476.16693"
     inkscape:cy="-14.731279"
     inkscape:window-width="1916"
     inkscape:window-height="1052"
     inkscape:window-x="0"
     inkscape:window-y="24"
     inkscape:window-maximized="1"
     inkscape:current-layer="svg32714"
     inkscape:snap-bbox="true"
     inkscape:object-paths="true"
     inkscape:snap-intersection-paths="true"
     inkscape:snap-global="false"
     inkscape:showpageshadow="0"
     inkscape:deskcolor="#505050" /><defs
     id="defs32609"><inkscape:path-effect
       effect="spiro"
       id="path-effect15818"
       is_visible="true"
       lpeversion="1" /><marker
       style="overflow:visible"
       id="marker15558"
       refX="0"
       refY="0"
       orient="auto"
       inkscape:stockid="Dot"
       markerWidth="5.6666665"
       markerHeight="5.6666665"
       viewBox="0 0 5.6666667 5.6666667"
       inkscape:isstock="true"
       inkscape:collect="always"
       preserveAspectRatio="xMidYMid"><path
         transform="scale(0.5)"
         style="fill:context-stroke;fill-rule:evenodd;stroke:context-stroke;stroke-width:1pt"
         d="M 5,0 C 5,2.76 2.76,5 0,5 -2.76,5 -5,2.76 -5,0 c 0,-2.76 2.3,-5 5,-5 2.76,0 5,2.24 5,5 z"
         id="path15556"
         sodipodi:nodetypes="sssss" /></marker><marker
       style="overflow:visible"
       id="Dot"
       refX="0"
       refY="0"
       orient="auto"
       inkscape:stockid="Dot"
       markerWidth="5.6666665"
       markerHeight="5.6666665"
       viewBox="0 0 5.6666667 5.6666667"
       inkscape:isstock="true"
       inkscape:collect="always"
       preserveAspectRatio="xMidYMid"><path
         transform="scale(0.5)"
         style="fill:context-stroke;fill-rule:evenodd;stroke:context-stroke;stroke-width:1pt"
         d="M 5,0 C 5,2.76 2.76,5 0,5 -2.76,5 -5,2.76 -5,0 c 0,-2.76 2.3,-5 5,-5 2.76,0 5,2.24 5,5 z"
         id="Dot1"
         sodipodi:nodetypes="sssss" /></marker><inkscape:path-effect
       effect="spiro"
       id="path-effect13972"
       is_visible="true"
       lpeversion="1" /><inkscape:path-effect
       effect="spiro"
       id="path-effect13467"
       is_visible="true"
       lpeversion="1" /><inkscape:path-effect
       effect="spiro"
       id="path-effect13026"
       is_visible="true"
       lpeversion="1" /><marker
       style="overflow:visible"
       id="RoundedArrow"
       refX="0"
       refY="0"
       orient="auto-start-reverse"
       inkscape:stockid="RoundedArrow"
       markerWidth="6.1347523"
       markerHeight="5.9304953"
       viewBox="0 0 6.1347524 5.9304951"
       inkscape:isstock="true"
       inkscape:collect="always"
       preserveAspectRatio="xMidYMid"><path
         transform="scale(0.7)"
         d="m -0.21114562,-4.1055728 6.42229122,3.21114561 a 1,1 90 0 1 0,1.78885438 L -0.21114562,4.1055728 A 1.236068,1.236068 31.717474 0 1 -2,3 v -6 a 1.236068,1.236068 148.28253 0 1 1.78885438,-1.1055728 z"
         style="fill:context-stroke;fill-rule:evenodd;stroke:none"
         id="path1367" /></marker><inkscape:path-effect
       effect="spiro"
       id="path-effect97285"
       is_visible="true"
       lpeversion="1" /><marker
       style="overflow:visible"
       id="EmptyTriangleIn"
       refX="-1"
       refY="0"
       orient="auto-start-reverse"
       inkscape:stockid="EmptyTriangleIn"
       markerWidth="5.8241119"
       markerHeight="6.7330775"
       viewBox="0 0 5.8241121 6.7330776"
       inkscape:isstock="true"
       inkscape:collect="always"
       preserveAspectRatio="xMidYMid"><path
         transform="scale(0.5)"
         style="fill:context-fill;fill-rule:evenodd;stroke:context-stroke;stroke-width:2"
         d="M 5.77,0 -2.88,5 V -5 Z"
         id="path153" /></marker><inkscape:path-effect
       effect="spiro"
       id="path-effect97007"
       is_visible="true"
       lpeversion="1" /><marker
       style="overflow:visible"
       id="marker9621"
       refX="0"
       refY="0"
       orient="auto"
       inkscape:stockid="Arrow2Mend"
       inkscape:isstock="true"><path
         transform="scale(-0.6)"
         d="M 8.7185878,4.0337352 -2.2072895,0.01601326 8.7185884,-4.0017078 c -1.7454984,2.3720609 -1.7354408,5.6174519 -6e-7,8.035443 z"
         style="fill:context-stroke;fill-rule:evenodd;stroke:context-stroke;stroke-width:0.625;stroke-linejoin:round"
         id="path9619" /></marker><marker
       style="overflow:visible"
       id="Arrow2Mend"
       refX="0"
       refY="0"
       orient="auto"
       inkscape:stockid="Arrow2Mend"
       inkscape:isstock="true"><path
         transform="scale(-0.6)"
         d="M 8.7185878,4.0337352 -2.2072895,0.01601326 8.7185884,-4.0017078 c -1.7454984,2.3720609 -1.7354408,5.6174519 -6e-7,8.035443 z"
         style="fill:context-stroke;fill-rule:evenodd;stroke:context-stroke;stroke-width:0.625;stroke-linejoin:round"
         id="path9370" /></marker><marker
       style="overflow:visible"
       id="Arrow2Lend"
       refX="0"
       refY="0"
       orient="auto"
       inkscape:stockid="Arrow2Lend"
       inkscape:isstock="true"><path
         transform="matrix(-1.1,0,0,-1.1,-1.1,0)"
         d="M 8.7185878,4.0337352 -2.2072895,0.01601326 8.7185884,-4.0017078 c -1.7454984,2.3720609 -1.7354408,5.6174519 -6e-7,8.035443 z"
         style="fill:context-stroke;fill-rule:evenodd;stroke:context-stroke;stroke-width:0.625;stroke-linejoin:round"
         id="path9364" /></marker><inkscape:path-effect
       effect="spiro"
       id="path-effect8375"
       is_visible="true"
       lpeversion="1" /><inkscape:path-effect
       effect="spiro"
       id="path-effect8371"
       is_visible="true"
       lpeversion="1" /><inkscape:path-effect
       effect="spiro"
       id="path-effect8334"
       is_visible="true"
       lpeversion="1" /><inkscape:path-effect
       effect="spiro"
       id="path-effect8213"
       is_visible="true"
       lpeversion="1" /><clipPath
       id="clip1"><path
         d="m 28,134 h 11 v 17.24219 H 28 Z m 0,0"
         id="path32600" /></clipPath><clipPath
       id="clip2"><path
         d="m 75,134 h 12 v 17.24219 H 75 Z m 0,0"
         id="path32603" /></clipPath><clipPath
       id="clip3"><path
         d="m 345,133 h 10.31641 v 13 H 345 Z m 0,0"
         id="path32606" /></clipPath><g
       id="id-d512316c-f310-4ef7-b32f-ea93f87dd485-7"><g
         id="id-aec88e65-99b3-4c56-a594-255c12e961eb-5"><path
           d="M 5.40625,-10.46875 H 1.21875 V 3.484375 h 4.1875 z M 4.875,-9.953125 V 2.96875 H 1.78125 V -9.953125 Z M 3.234375,-4.5 c -0.390625,0 -0.9375,0.125 -0.9375,0.390625 0,0.125 0.09375,0.234375 0.25,0.234375 0.03125,0 0.078125,-0.015625 0.125,-0.03125 0.171875,-0.078125 0.3125,-0.109375 0.515625,-0.109375 0.5,0 0.609375,0.296875 0.609375,0.6875 0,0.53125 -0.1875,0.71875 -0.90625,0.765625 v 0.84375 c 0,0.140625 0.125,0.234375 0.25,0.234375 0.125,0 0.25,-0.09375 0.25,-0.234375 V -2.171875 C 4.0625,-2.265625 4.34375,-2.65625 4.34375,-3.34375 4.34375,-3.953125 4.09375,-4.5 3.234375,-4.5 Z m -0.09375,3.296875 c -0.203125,0 -0.34375,0.15625 -0.34375,0.359375 0,0.203125 0.140625,0.359375 0.34375,0.359375 0.203125,0 0.34375,-0.15625 0.34375,-0.359375 0,-0.203125 -0.140625,-0.359375 -0.34375,-0.359375 z m 0,0"
           id="id-7c2a457f-f768-4159-9e9f-9df2cc3e5e13-3" /></g><g
         id="id-cbdc8fff-0ca5-40b0-a6c3-fd6785a6998c-5"><path
           d="M 4.03125,-5.25 H 0.484375 v 0.78125 h 2.5 L 0.25,-0.6875 V 0 H 3.953125 L 4.0625,-0.765625 H 1.28125 l 2.75,-3.796875 z m 0,0"
           id="id-d973a2bc-a0f1-46d3-be99-e1468b8100fd-6" /></g><g
         id="id-5686a47d-2053-4c4d-820f-b70b1f5df129-2"><path
           d="m 4.921875,-2.78125 c 0,-1.609375 -0.75,-2.59375 -2.171875,-2.59375 -1.359375,0 -2.1875,1.171875 -2.1875,2.796875 0,1.671875 0.859375,2.703125 2.328125,2.703125 0.734375,0 1.3125,-0.25 1.828125,-0.65625 L 4.328125,-1.09375 C 3.875,-0.765625 3.484375,-0.625 2.953125,-0.625 c -0.75,0 -1.3125,-0.46875 -1.40625,-1.6875 h 3.34375 c 0.015625,-0.125 0.03125,-0.296875 0.03125,-0.46875 z M 4,-2.984375 H 1.546875 c 0.0625,-1.171875 0.53125,-1.65625 1.21875,-1.65625 0.828125,0 1.234375,0.5625 1.234375,1.59375 z m 0,0"
           id="id-a332717d-d305-44bd-a0ed-aad2acac9b2e-9" /></g><g
         id="id-0e774e49-ecc7-4b16-9075-b05632ae91b5-1"><path
           d="m 3.203125,-5.375 c -0.640625,0 -1.125,0.40625 -1.40625,1.1875 L 1.703125,-5.25 H 0.921875 V 0 h 0.90625 v -3 c 0.21875,-1 0.609375,-1.46875 1.265625,-1.46875 0.1875,0 0.296875,0.015625 0.453125,0.046875 L 3.71875,-5.3125 C 3.5625,-5.359375 3.375,-5.375 3.203125,-5.375 Z m 0,0"
           id="id-af3d88dc-cd40-4e0c-89bc-b4785b17be2d-2" /></g><g
         id="id-b16cf8d5-1627-44bd-a3e3-091b7fd09800-7"><path
           d="m 2.921875,-5.375 c -1.5,0 -2.359375,1.125 -2.359375,2.75 0,1.671875 0.859375,2.75 2.34375,2.75 C 4.390625,0.125 5.25,-1 5.25,-2.625 c 0,-1.671875 -0.828125,-2.75 -2.328125,-2.75 z m 0,0.734375 c 0.859375,0 1.34375,0.640625 1.34375,2.015625 0,1.375 -0.484375,2 -1.359375,2 -0.875,0 -1.34375,-0.625 -1.34375,-2 0,-1.375 0.484375,-2.015625 1.359375,-2.015625 z m 0,0"
           id="id-20005495-b261-4cc2-b6b6-ed297e2db39b-0" /></g><g
         id="id-6b9ff16d-207e-4e6d-bab3-4e5b23972824-9"><path
           d="m 3.25,-0.84375 c -0.265625,0.140625 -0.46875,0.203125 -0.703125,0.203125 -0.453125,0 -0.625,-0.25 -0.625,-0.78125 v -3.125 h 1.15625 L 3.171875,-5.25 h -1.25 V -6.546875 L 1,-6.4375 V -5.25 H 0.09375 v 0.703125 H 1 V -1.375 c 0,0.96875 0.53125,1.5 1.421875,1.5 C 2.875,0.125 3.25,0 3.59375,-0.234375 Z m 0,0"
           id="id-32b60361-bbea-40ea-b977-53eb510acd35-3" /></g><g
         id="id-71869a43-d697-4ceb-a7f9-8ebf4b864781-6"><path
           d="m 3.390625,-5.375 c -0.65625,0 -1.171875,0.328125 -1.5625,0.84375 v -2.921875 l -0.90625,0.09375 V 0 h 0.90625 V -3.734375 C 2.1875,-4.28125 2.59375,-4.65625 3.15625,-4.65625 3.65625,-4.65625 4,-4.421875 4,-3.640625 V 0 H 4.921875 V -3.765625 C 4.921875,-4.75 4.34375,-5.375 3.390625,-5.375 Z m 0,0"
           id="id-1e3d112e-4560-4763-824b-0e30cffc45d8-0" /></g><g
         id="id-1e91a301-79e9-4d0c-a978-b6b3c6a52f9e-6"><path
           d="m 2.375,-5.375 c -1.09375,0 -1.890625,0.609375 -1.890625,1.453125 0,0.734375 0.4375,1.21875 1.578125,1.515625 1.015625,0.265625 1.28125,0.46875 1.28125,0.984375 0,0.5 -0.4375,0.796875 -1.125,0.796875 -0.578125,0 -1.0625,-0.1875 -1.484375,-0.5 L 0.25,-0.5625 c 0.453125,0.390625 1.09375,0.6875 1.984375,0.6875 1.0625,0 2.078125,-0.5 2.078125,-1.59375 0,-0.921875 -0.640625,-1.359375 -1.75,-1.640625 -0.84375,-0.21875 -1.125,-0.421875 -1.125,-0.84375 0,-0.421875 0.359375,-0.6875 0.96875,-0.6875 0.484375,0 0.890625,0.140625 1.359375,0.4375 L 4.15625,-4.78125 C 3.65625,-5.15625 3.109375,-5.375 2.375,-5.375 Z m 0,0"
           id="id-53a9d073-0486-42ca-ac9a-a430e0ddfb98-2" /></g><g
         id="id-0db217cc-3c59-4772-870f-536584d3a0e2-6"><path
           d="m 1.359375,-7.78125 c -0.375,0 -0.625,0.28125 -0.625,0.640625 0,0.34375 0.25,0.609375 0.625,0.609375 0.390625,0 0.65625,-0.265625 0.65625,-0.609375 C 2.015625,-7.5 1.75,-7.78125 1.359375,-7.78125 Z M 1.828125,-5.25 H 0.921875 V 0 h 0.90625 z m 0,0"
           id="id-87b2e3dc-de9a-40b7-8807-e8766aeb7488-1" /></g></g><inkscape:path-effect
       effect="spiro"
       id="path-effect97007-1"
       is_visible="true"
       lpeversion="1" /><inkscape:path-effect
       effect="spiro"
       id="path-effect97285-2"
       is_visible="true"
       lpeversion="1" /><clipPath
       id="clip-0"><path
         clip-rule="nonzero"
         d="m 355,64 h 203.05469 v 4 H 355 Z m 0,0"
         id="path4083" /></clipPath><clipPath
       id="clip-1"><path
         clip-rule="nonzero"
         d="m 405,88 h 114 v 61.89453 H 405 Z m 0,0"
         id="path4086" /></clipPath><clipPath
       id="clip-2"><path
         clip-rule="nonzero"
         d="m 547,8 h 11.05469 V 23 H 547 Z m 0,0"
         id="path4089" /></clipPath><clipPath
       id="clip-3"><path
         clip-rule="nonzero"
         d="m 25,133 h 11 v 16.89453 H 25 Z m 0,0"
         id="path4092" /></clipPath><clipPath
       id="clip-4"><path
         clip-rule="nonzero"
         d="m 73,133 h 11 v 16.89453 H 73 Z m 0,0"
         id="path4095" /></clipPath><marker
       style="overflow:visible"
       id="Arrow2Mend-7"
       refX="0"
       refY="0"
       orient="auto"
       inkscape:stockid="Arrow2Mend"
       inkscape:isstock="true"><path
         transform="scale(-0.6)"
         d="M 8.7185878,4.0337352 -2.2072895,0.01601326 8.7185884,-4.0017078 c -1.7454984,2.3720609 -1.7354408,5.6174519 -6e-7,8.035443 z"
         style="fill:context-stroke;fill-rule:evenodd;stroke:context-stroke;stroke-width:0.625;stroke-linejoin:round"
         id="path9370-5" /></marker><inkscape:path-effect
       effect="spiro"
       id="path-effect8371-3"
       is_visible="true"
       lpeversion="1" /><filter
       inkscape:collect="always"
       style="color-interpolation-filters:sRGB"
       id="filter15718"
       x="-0.070515245"
       y="-0.1591618"
       width="1.1410305"
       height="1.3183236"><feGaussianBlur
         inkscape:collect="always"
         stdDeviation="9.1101094"
         id="feGaussianBlur15720" /></filter></defs><ellipse
     style="opacity:1;mix-blend-mode:normal;fill:#303030;fill-opacity:1;stroke:none;stroke-width:3.86899;stroke-dasharray:none;filter:url(#filter15718)"
     id="path14894"
     cx="176.89642"
     cy="90.549911"
     rx="155.03217"
     ry="68.685646" /><path
     style="fill:none;stroke:#303030;stroke-width:3.12887;stroke-linecap:butt;stroke-linejoin:miter;stroke-miterlimit:4;stroke-dasharray:none;stroke-opacity:1"
     d="M 448.85319,89.852667 H 674.01575"
     id="path8211"
     inkscape:path-effect="#path-effect8213"
     inkscape:original-d="m 448.85319,89.852667 c 75.05505,-7.51e-4 150.10924,-7.51e-4 225.16256,0" /><path
     fill-rule="nonzero"
     fill="#304070"
     fill-opacity="1"
     d="m 321.08874,90.795791 c 0,23.535299 -19.07759,42.609859 -42.60986,42.609859 -23.5353,0 -42.60986,-19.07456 -42.60986,-42.609859 0,-23.532266 19.07456,-42.609864 42.60986,-42.609864 23.53227,0 42.60986,19.077598 42.60986,42.609864 z m 0,0"
     id="path4102-6"
     style="stroke-width:0.774725" /><path
     fill-rule="nonzero"
     fill="#307070"
     fill-opacity="1"
     d="m 121.28792,89.670648 c 0,24.377722 -19.76614,44.140722 -44.140708,44.140722 -24.377716,0 -44.140721,-19.763 -44.140721,-44.140722 0,-24.374579 19.763005,-44.140722 44.140721,-44.140722 24.374568,0 44.140708,19.766143 44.140708,44.140722 z m 0,0"
     id="path4100-3"
     style="fill:#00704e;fill-opacity:1;stroke-width:0.802559" /><path
     style="fill:#304070;fill-opacity:1;fill-rule:nonzero;stroke:none;stroke-width:0.653841"
     d="m 571.89656,89.852663 c 0,17.439167 -14.13675,31.573387 -31.57337,31.573387 -17.43916,0 -31.57338,-14.13422 -31.57338,-31.573387 0,-17.436616 14.13422,-31.573377 31.57338,-31.573377 17.43662,0 31.57337,14.136761 31.57337,31.573377 z m 0,0"
     id="path9341" /><path
     style="fill:#304070;fill-opacity:1;fill-rule:nonzero;stroke:none;stroke-width:0.653841"
     d="m 481.89656,89.852663 c 0,17.439167 -14.13675,31.573387 -31.57337,31.573387 -17.43917,0 -31.57338,-14.13422 -31.57338,-31.573387 0,-17.436616 14.13421,-31.573377 31.57338,-31.573377 17.43662,0 31.57337,14.136761 31.57337,31.573377 z m 0,0"
     id="path8295" /><path
     style="fill:none;stroke:#000000;stroke-width:2;stroke-linecap:butt;stroke-linejoin:miter;stroke-miterlimit:4;stroke-dasharray:2, 2;stroke-dashoffset:0;stroke-opacity:1;marker-end:url(#Arrow2Mend-7)"
     d="m 335.06543,107.83625 c 4.40101,7.02343 10.60641,12.90574 17.85491,16.92529 7.24849,4.01954 15.5246,6.16772 23.81298,6.181 9.92298,0.0159 19.82924,-3.05417 28.00416,-8.67882 8.17491,-5.62464 14.58278,-13.77931 18.11449,-23.052539"
     id="path8369-5"
     inkscape:path-effect="#path-effect8371-3"
     inkscape:original-d="m 335.06543,107.83625 c 3.60647,4.97561 38.06292,18.12918 41.66789,23.10629 3.60495,4.97711 26.23416,-22.10401 46.11865,-31.731359"
     sodipodi:nodetypes="csc" /><g
     transform="matrix(7.0517666,0,0,7.0517666,433.61948,71.584008)"
     ns26:version="1.6.0"
     ns26:texconverter="pdflatex"
     ns26:pdfconverter="inkscape"
     ns26:text="1"
     ns26:preamble="/home/kirito/.config/inkscape/textext.tex"
     ns26:scale="1.538712710378192"
     ns26:alignment="middle center"
     ns26:stroke-to-path="0"
     ns26:inkscapeversion="1.1.2"
     ns26:jacobian_sqrt="1.15403"
     id="g5204"
     style="fill:#fffff0;fill-opacity:1"><defs
       id="id-dd0b2e13-3573-4216-8844-eac4baa350d1"><g
         id="id-b973796e-d354-4848-a5ff-eaebdb09e24b"><g
           id="id-c3d102dd-40fc-4a9c-b5fd-9099f25be71d"><path
             d="M 5.40625,-10.46875 H 1.21875 V 3.484375 h 4.1875 z M 4.875,-9.953125 V 2.96875 H 1.78125 V -9.953125 Z M 3.234375,-4.5 c -0.390625,0 -0.9375,0.125 -0.9375,0.390625 0,0.125 0.09375,0.234375 0.25,0.234375 0.03125,0 0.078125,-0.015625 0.125,-0.03125 0.171875,-0.078125 0.3125,-0.109375 0.515625,-0.109375 0.5,0 0.609375,0.296875 0.609375,0.6875 0,0.53125 -0.1875,0.71875 -0.90625,0.765625 v 0.84375 c 0,0.140625 0.125,0.234375 0.25,0.234375 0.125,0 0.25,-0.09375 0.25,-0.234375 V -2.171875 C 4.0625,-2.265625 4.34375,-2.65625 4.34375,-3.34375 4.34375,-3.953125 4.09375,-4.5 3.234375,-4.5 Z m -0.09375,3.296875 c -0.203125,0 -0.34375,0.15625 -0.34375,0.359375 0,0.203125 0.140625,0.359375 0.34375,0.359375 0.203125,0 0.34375,-0.15625 0.34375,-0.359375 0,-0.203125 -0.140625,-0.359375 -0.34375,-0.359375 z m 0,0"
             id="id-26b0e9d6-a94f-4966-a84e-15f1b8718643" /></g><g
           id="id-1667c4f7-7ac4-4136-847d-d91f19a27025"><path
             d="m 3.21875,-5.625 h -0.8125 l -2.0625,1.28125 0.40625,0.640625 1.546875,-0.9375 V 0 H 3.21875 Z m 0,0"
             id="id-70203c3e-0722-4afe-a49b-8cd7dbe769d6" /></g></g></defs><g
       fill="#000000"
       fill-opacity="1"
       id="id-5ddd0cd7-14a8-4e50-9881-ece535838dfe"
       transform="translate(-149.056,-129.14)"
       style="fill:#fffff0;fill-opacity:1"><g
         transform="translate(148.712,134.765)"
         id="g5201"
         style="fill:#fffff0;fill-opacity:1"><path
           d="m 3.21875,-5.625 h -0.8125 l -2.0625,1.28125 0.40625,0.640625 1.546875,-0.9375 V 0 H 3.21875 Z m 0,0"
           id="id-f140cd23-f640-40a4-aff7-73312f5ce338"
           style="fill:#fffff0;fill-opacity:1" /></g></g></g><g
     transform="matrix(7.05177,0,0,7.05177,525.3915,69.687249)"
     ns26:version="1.6.0"
     ns26:texconverter="pdflatex"
     ns26:pdfconverter="inkscape"
     ns26:text="2"
     ns26:preamble="/home/kirito/.config/inkscape/textext.tex"
     ns26:scale="9.402392397113081"
     ns26:alignment="middle center"
     ns26:stroke-to-path="0"
     ns26:inkscapeversion="1.1.2"
     ns26:jacobian_sqrt="7.05177"
     style="fill:#fffff0;fill-opacity:1;stroke-width:0"
     id="g5585"><defs
       id="id-6a4a5511-3f68-49db-9157-c4ad87183321"
       style="fill:#fffff0;fill-opacity:1;stroke-width:0"><g
         id="id-57d23a1f-89b1-4436-bbc7-2a4cdee42d2d"
         style="fill:#fffff0;fill-opacity:1;stroke-width:0"><g
           id="id-443c3c25-1e2b-40b0-9286-a500f1a904b5"
           style="fill:#fffff0;fill-opacity:1;stroke-width:0"><path
             d="M 5.40625,-10.46875 H 1.21875 V 3.484375 h 4.1875 z M 4.875,-9.953125 V 2.96875 H 1.78125 V -9.953125 Z M 3.234375,-4.5 c -0.390625,0 -0.9375,0.125 -0.9375,0.390625 0,0.125 0.09375,0.234375 0.25,0.234375 0.03125,0 0.078125,-0.015625 0.125,-0.03125 0.171875,-0.078125 0.3125,-0.109375 0.515625,-0.109375 0.5,0 0.609375,0.296875 0.609375,0.6875 0,0.53125 -0.1875,0.71875 -0.90625,0.765625 v 0.84375 c 0,0.140625 0.125,0.234375 0.25,0.234375 0.125,0 0.25,-0.09375 0.25,-0.234375 V -2.171875 C 4.0625,-2.265625 4.34375,-2.65625 4.34375,-3.34375 4.34375,-3.953125 4.09375,-4.5 3.234375,-4.5 Z m -0.09375,3.296875 c -0.203125,0 -0.34375,0.15625 -0.34375,0.359375 0,0.203125 0.140625,0.359375 0.34375,0.359375 0.203125,0 0.34375,-0.15625 0.34375,-0.359375 0,-0.203125 -0.140625,-0.359375 -0.34375,-0.359375 z m 0,0"
             id="id-52a0cf9d-15e8-47c4-8c72-12bce957fc6c"
             style="fill:#fffff0;fill-opacity:1;stroke-width:0" /></g><g
           id="id-34e0aa38-a64d-4524-83f6-c59d6df62f79"
           style="fill:#fffff0;fill-opacity:1;stroke-width:0"><path
             d="m 2.21875,-5.71875 c -0.875,0 -1.515625,0.359375 -2.0625,1.046875 L 0.734375,-4.1875 c 0.484375,-0.578125 0.921875,-0.78125 1.46875,-0.78125 0.65625,0 1.125,0.40625 1.125,1.046875 0,0.796875 -0.3125,1.234375 -3.03125,3.1875 V 0 H 4.28125 L 4.390625,-0.765625 H 1.46875 c 2.578125,-1.640625 2.828125,-2.28125 2.828125,-3.1875 0,-1.015625 -0.8125,-1.765625 -2.078125,-1.765625 z m 0,0"
             id="id-e40e3187-e742-497f-8c55-b1bcdcfb6095"
             style="fill:#fffff0;fill-opacity:1;stroke-width:0" /></g></g></defs><g
       fill-opacity="1"
       id="id-70b7229c-a90e-43af-807a-c81d317eb872"
       transform="translate(-148.868,-129.046)"
       style="fill:#fffff0;fill-opacity:1;stroke-width:0"><g
         transform="translate(148.712,134.765)"
         style="fill:#fffff0;fill-opacity:1;stroke-width:0"
         id="g6493"><path
           d="m 2.21875,-5.71875 c -0.875,0 -1.515625,0.359375 -2.0625,1.046875 L 0.734375,-4.1875 c 0.484375,-0.578125 0.921875,-0.78125 1.46875,-0.78125 0.65625,0 1.125,0.40625 1.125,1.046875 0,0.796875 -0.3125,1.234375 -3.03125,3.1875 V 0 H 4.28125 L 4.390625,-0.765625 H 1.46875 c 2.578125,-1.640625 2.828125,-2.28125 2.828125,-3.1875 0,-1.015625 -0.8125,-1.765625 -2.078125,-1.765625 z m 0,0"
           id="id-81eae40f-0dfb-4709-a454-109ec118b029"
           style="fill:#fffff0;fill-opacity:1;stroke-width:0" /></g></g></g><path
     style="fill:none;fill-opacity:1;stroke:#ffffff;stroke-width:4.252;stroke-miterlimit:4.5;stroke-dasharray:none;stroke-dashoffset:0;stroke-opacity:1;marker-end:url(#EmptyTriangleIn)"
     d="M 261.84152,100.69995 V 71.771055"
     id="path97005"
     inkscape:path-effect="#path-effect97007"
     inkscape:original-d="m 261.84152,100.69995 c 7.5e-4,-9.643718 7.5e-4,-19.286678 0,-28.928895" /><path
     style="fill:none;fill-opacity:1;stroke:#ffffff;stroke-width:4.252;stroke-miterlimit:4.5;stroke-dasharray:none;stroke-dashoffset:0;stroke-opacity:1;marker-end:url(#EmptyTriangleIn)"
     d="M 299.62513,75.851881 V 104.78078"
     id="path97281"
     inkscape:path-effect="#path-effect97285"
     inkscape:original-d="m 299.62513,75.851881 c 7.5e-4,9.643717 7.5e-4,19.286677 0,28.928899" /><path
     style="fill:none;fill-opacity:1;stroke:#ffffff;stroke-width:4.252;stroke-miterlimit:4.5;stroke-dasharray:none;stroke-dashoffset:0;stroke-opacity:1;marker-end:url(#RoundedArrow)"
     d="M 62.874188,99.257269 V 70.328373"
     id="path97005-9"
     inkscape:path-effect="#path-effect97007-1"
     inkscape:original-d="m 62.874188,99.257269 c 7.5e-4,-9.643719 7.5e-4,-19.286679 0,-28.928896" /><path
     style="fill:none;fill-opacity:1;stroke:#ffffff;stroke-width:4.252;stroke-miterlimit:4.5;stroke-dasharray:none;stroke-dashoffset:0;stroke-opacity:1;marker-end:url(#RoundedArrow)"
     d="M 95.136567,79.782737 V 108.71163"
     id="path97281-3"
     inkscape:path-effect="#path-effect97285-2"
     inkscape:original-d="m 95.136567,79.782737 c 7.5e-4,9.643717 7.5e-4,19.286677 0,28.928893" /><g
     ns26:version="1.8.1"
     ns26:texconverter="xelatex"
     ns26:pdfconverter="inkscape"
     ns26:text="$J \\vec S_d \\cdot \\vec S_0$"
     ns26:preamble="/home/kirito/.config/textext/beamer_preamble.tex"
     ns26:scale="4.0"
     ns26:alignment="middle center"
     ns26:stroke-to-path="0"
     ns26:inkscapeversion="1.2.1"
     transform="matrix(3,0,0,3,133.13748,101.26759)"
     ns26:jacobian_sqrt="3.0"
     id="g5285"><defs
   id="id-49897a2d-6ca0-4def-900d-5a6820e492be">
    <g
   id="id-b35b3373-debf-4097-a2e9-09cd23904e1f">
      <g
   id="id-ed0928d2-ee8d-4b3c-8f52-cd4e6bc5d7b9">
        <path
   d="m 5.4375,-6.4375 v 5.890625 H 1.34375 V -6.4375 Z m 0.546875,-0.546875 h -5.1875 V 0 h 5.1875 z m -2.75,4.953125 c -0.21875,0 -0.40625,0.1875 -0.40625,0.421875 0,0.21875 0.1875,0.40625 0.40625,0.40625 0.25,0 0.421875,-0.1875 0.421875,-0.40625 0,-0.234375 -0.171875,-0.421875 -0.421875,-0.421875 z M 3.4375,-5.453125 c -0.5,0 -0.90625,0.1875 -1.25,0.59375 l 0.390625,0.28125 C 2.828125,-4.875 3.09375,-5 3.40625,-5 3.765625,-5 4,-4.8125 4,-4.484375 4,-3.84375 2.953125,-3.953125 2.953125,-2.9375 v 0.296875 H 3.5 V -2.90625 c 0,-0.796875 1.078125,-0.65625 1.078125,-1.625 0,-0.46875 -0.375,-0.921875 -1.140625,-0.921875 z m 0,0"
   id="id-08122262-b2f0-41c4-9d3d-30f0e657c5a8" />
      </g>
      <g
   id="id-64f7b8b5-3d5a-4945-8e3f-456ee6119b06">
        <path
   d="M 2.65625,-6.875 H 1.71875 L 0.890625,-1.03125 C 0.765625,-0.109375 0.5,0.3125 -0.453125,0.671875 L -0.265625,1.375 C 0.875,1.03125 1.609375,0.515625 1.8125,-0.921875 Z m 0,0"
   id="id-edbb8fd4-c320-46a6-9c43-cd2cac0956a5" />
      </g>
      <g
   id="id-8c1c3a2a-7755-4c5b-ae5d-5c36d07d3262">
        <path
   d="m -1.421875,-8.203125 -0.375,0.34375 0.5,0.546875 h -2.59375 v 0.609375 h 2.59375 l -0.5,0.546875 0.375,0.34375 1.125,-1.1875 z m 0,0"
   id="id-82b27ffa-c5c6-43f7-8e75-9c244c6e9091" />
      </g>
      <g
   id="id-f4f3d055-12b3-418d-bcfb-bafc5f5aa9be">
        <path
   d="m 3.234375,-6.984375 c -1.546875,0 -2.359375,1.03125 -2.359375,1.9375 0,0.984375 0.625,1.40625 1.78125,1.8125 0.953125,0.328125 1.265625,0.609375 1.265625,1.203125 0,0.84375 -0.671875,1.375 -1.6875,1.375 C 1.5,-0.65625 1,-0.90625 0.59375,-1.359375 l -0.609375,0.5625 c 0.5,0.5625 1.21875,0.921875 2.234375,0.921875 1.875,0 2.6875,-1.15625 2.6875,-2.203125 0,-1.1875 -0.84375,-1.59375 -1.796875,-1.890625 -1,-0.34375 -1.28125,-0.609375 -1.28125,-1.125 0,-0.71875 0.625,-1.109375 1.40625,-1.109375 0.546875,0 1,0.15625 1.4375,0.59375 L 5.25,-6.15625 C 4.75,-6.6875 4.125,-6.984375 3.234375,-6.984375 Z m 0,0"
   id="id-acb49069-43f0-417c-861d-1dca88c0c511" />
      </g>
      <g
   id="id-b9c9ecb5-eafe-48a6-9a57-59c7beea0619">
        <path
   d="m 1.1875,-3.484375 c -0.390625,0 -0.6875,0.3125 -0.6875,0.6875 0,0.390625 0.296875,0.703125 0.6875,0.703125 0.390625,0 0.703125,-0.3125 0.703125,-0.703125 0,-0.375 -0.3125,-0.6875 -0.703125,-0.6875 z m 0,0"
   id="id-b8d3a8e3-844b-4051-aead-b7e9a9f25690" />
      </g>
      <g
   id="id-be67d191-e391-4eb7-8516-34401254d703">
        <path
   d="m 3.90625,-4.625 v 4.234375 H 0.96875 V -4.625 Z M 4.296875,-5.015625 H 0.578125 V 0 h 3.71875 z m -1.96875,3.5625 c -0.15625,0 -0.296875,0.125 -0.296875,0.296875 0,0.15625 0.140625,0.296875 0.296875,0.296875 C 2.5,-0.859375 2.625,-1 2.625,-1.15625 2.625,-1.328125 2.5,-1.453125 2.328125,-1.453125 Z m 0.140625,-2.46875 c -0.359375,0 -0.640625,0.140625 -0.890625,0.421875 L 1.84375,-3.296875 C 2.03125,-3.5 2.234375,-3.59375 2.453125,-3.59375 c 0.265625,0 0.4375,0.125 0.4375,0.359375 0,0.46875 -0.765625,0.390625 -0.765625,1.125 v 0.203125 h 0.390625 v -0.1875 c 0,-0.5625 0.78125,-0.46875 0.78125,-1.15625 0,-0.34375 -0.28125,-0.671875 -0.828125,-0.671875 z m 0,0"
   id="id-54f291f6-fab5-4d28-8692-373168330d4f" />
      </g>
      <g
   id="id-247c3608-1108-4354-85da-1d2b569174a6">
        <path
   d="m 2.25,-3.34375 c 0.34375,0 0.578125,0.171875 0.78125,0.453125 L 2.796875,-1.3125 c -0.328125,0.53125 -0.640625,0.875 -1.109375,0.875 -0.390625,0 -0.625,-0.28125 -0.625,-0.921875 0,-0.75 0.265625,-1.984375 1.1875,-1.984375 z m 1.125,-2.015625 -0.28125,1.96875 C 2.890625,-3.65625 2.5625,-3.859375 2.125,-3.859375 c -1.296875,0 -1.765625,1.46875 -1.765625,2.453125 0,0.90625 0.421875,1.5 1.203125,1.5 0.484375,0 0.875,-0.28125 1.140625,-0.71875 V 0 h 0.5625 l 0.75,-5.296875 z m 0,0"
   id="id-611e0b20-4d4f-497f-bbea-942ee1359073" />
      </g>
      <g
   id="id-aa341d88-3c3f-46f8-b635-f56e0cdb2c30">
        <path
   d="m 2.015625,-4.5 c 0.59375,0 0.90625,0.546875 0.90625,2.03125 0,1.484375 -0.3125,2.03125 -0.90625,2.03125 -0.609375,0 -0.921875,-0.546875 -0.921875,-2.03125 0,-1.484375 0.3125,-2.03125 0.921875,-2.03125 z m 0,-0.53125 c -1.078125,0 -1.609375,0.890625 -1.609375,2.5625 0,1.671875 0.53125,2.5625 1.609375,2.5625 1.0625,0 1.59375,-0.890625 1.59375,-2.5625 0,-1.671875 -0.53125,-2.5625 -1.59375,-2.5625 z m 0,0"
   id="id-80560866-3600-4f69-9d2c-839676491f4a" />
      </g>
    </g>
  </defs>
  <g
   fill="#000000"
   fill-opacity="1"
   id="id-77e001af-58fc-47f5-b9fb-2dec8514ffde"
   transform="translate(-148.259,-124.828)">
    <g
   transform="translate(148.712,134.765)"
   id="g12265"><path
   d="M 2.65625,-6.875 H 1.71875 L 0.890625,-1.03125 C 0.765625,-0.109375 0.5,0.3125 -0.453125,0.671875 L -0.265625,1.375 C 0.875,1.03125 1.609375,0.515625 1.8125,-0.921875 Z m 0,0"
   id="id-84bf62ae-cf41-4678-ace5-99886aa74a65" />
      </g></g>
  <g
   fill="#000000"
   fill-opacity="1"
   id="id-cf848387-4a74-4265-9f59-b6ed4ba8d127"
   transform="translate(-148.259,-124.828)">
    <g
   transform="translate(157.37,133.031)"
   id="g12269"><path
   d="m -1.421875,-8.203125 -0.375,0.34375 0.5,0.546875 h -2.59375 v 0.609375 h 2.59375 l -0.5,0.546875 0.375,0.34375 1.125,-1.1875 z m 0,0"
   id="id-a15db4dd-4172-4712-8201-b83a8ac9e7ff" />
      </g></g>
  <g
   fill="#000000"
   fill-opacity="1"
   id="id-10e2805e-36b8-4353-aeca-a7462dc171f5"
   transform="translate(-148.259,-124.828)">
    <g
   transform="translate(151.9,134.765)"
   id="g12273"><path
   d="m 3.234375,-6.984375 c -1.546875,0 -2.359375,1.03125 -2.359375,1.9375 0,0.984375 0.625,1.40625 1.78125,1.8125 0.953125,0.328125 1.265625,0.609375 1.265625,1.203125 0,0.84375 -0.671875,1.375 -1.6875,1.375 C 1.5,-0.65625 1,-0.90625 0.59375,-1.359375 l -0.609375,0.5625 c 0.5,0.5625 1.21875,0.921875 2.234375,0.921875 1.875,0 2.6875,-1.15625 2.6875,-2.203125 0,-1.1875 -0.84375,-1.59375 -1.796875,-1.890625 -1,-0.34375 -1.28125,-0.609375 -1.28125,-1.125 0,-0.71875 0.625,-1.109375 1.40625,-1.109375 0.546875,0 1,0.15625 1.4375,0.59375 L 5.25,-6.15625 C 4.75,-6.6875 4.125,-6.984375 3.234375,-6.984375 Z m 0,0"
   id="id-88a9ab9f-de97-419e-aae8-9828138097a8" />
      </g></g>
  <g
   fill="#000000"
   fill-opacity="1"
   id="id-0c7d7b1f-3570-4f4f-bf83-05c37289a7c7"
   transform="translate(-148.259,-124.828)">
    <g
   transform="translate(157.27,138.252)"
   id="g12277"><path
   d="m 2.25,-3.34375 c 0.34375,0 0.578125,0.171875 0.78125,0.453125 L 2.796875,-1.3125 c -0.328125,0.53125 -0.640625,0.875 -1.109375,0.875 -0.390625,0 -0.625,-0.28125 -0.625,-0.921875 0,-0.75 0.265625,-1.984375 1.1875,-1.984375 z m 1.125,-2.015625 -0.28125,1.96875 C 2.890625,-3.65625 2.5625,-3.859375 2.125,-3.859375 c -1.296875,0 -1.765625,1.46875 -1.765625,2.453125 0,0.90625 0.421875,1.5 1.203125,1.5 0.484375,0 0.875,-0.28125 1.140625,-0.71875 V 0 h 0.5625 l 0.75,-5.296875 z m 0,0"
   id="id-bf6dfc70-18f9-46e7-b8bf-37f20c180498" />
      </g></g>
  <g
   fill="#000000"
   fill-opacity="1"
   id="id-855c5124-f358-4670-975f-0a4526e7b3d2"
   transform="translate(-148.259,-124.828)">
    <g
   transform="translate(164.552,134.765)"
   id="g12281"><path
   d="m 1.1875,-3.484375 c -0.390625,0 -0.6875,0.3125 -0.6875,0.6875 0,0.390625 0.296875,0.703125 0.6875,0.703125 0.390625,0 0.703125,-0.3125 0.703125,-0.703125 0,-0.375 -0.3125,-0.6875 -0.703125,-0.6875 z m 0,0"
   id="id-b4ef6955-94b0-4bb4-9602-9a4618647174" />
      </g></g>
  <g
   fill="#000000"
   fill-opacity="1"
   id="id-fc924575-1573-4256-bed3-6ea2df1d329d"
   transform="translate(-148.259,-124.828)">
    <g
   transform="translate(174.616,133.031)"
   id="g12285"><path
   d="m -1.421875,-8.203125 -0.375,0.34375 0.5,0.546875 h -2.59375 v 0.609375 h 2.59375 l -0.5,0.546875 0.375,0.34375 1.125,-1.1875 z m 0,0"
   id="id-f884dc2e-e2d4-4d54-903e-f54bb1b65065" />
      </g></g>
  <g
   fill="#000000"
   fill-opacity="1"
   id="id-cecf7b06-dfcf-484f-9a04-6d721386c1c9"
   transform="translate(-148.259,-124.828)">
    <g
   transform="translate(169.147,134.765)"
   id="g12289"><path
   d="m 3.234375,-6.984375 c -1.546875,0 -2.359375,1.03125 -2.359375,1.9375 0,0.984375 0.625,1.40625 1.78125,1.8125 0.953125,0.328125 1.265625,0.609375 1.265625,1.203125 0,0.84375 -0.671875,1.375 -1.6875,1.375 C 1.5,-0.65625 1,-0.90625 0.59375,-1.359375 l -0.609375,0.5625 c 0.5,0.5625 1.21875,0.921875 2.234375,0.921875 1.875,0 2.6875,-1.15625 2.6875,-2.203125 0,-1.1875 -0.84375,-1.59375 -1.796875,-1.890625 -1,-0.34375 -1.28125,-0.609375 -1.28125,-1.125 0,-0.71875 0.625,-1.109375 1.40625,-1.109375 0.546875,0 1,0.15625 1.4375,0.59375 L 5.25,-6.15625 C 4.75,-6.6875 4.125,-6.984375 3.234375,-6.984375 Z m 0,0"
   id="id-dc9c9b7b-c5df-47dd-85ff-39b2606154d3" />
      </g></g>
  <g
   fill="#000000"
   fill-opacity="1"
   id="id-ea640128-ef5b-48e4-a468-b618029a0f61"
   transform="translate(-148.259,-124.828)">
    <g
   transform="translate(174.517,138.252)"
   id="g12293"><path
   d="m 2.015625,-4.5 c 0.59375,0 0.90625,0.546875 0.90625,2.03125 0,1.484375 -0.3125,2.03125 -0.90625,2.03125 -0.609375,0 -0.921875,-0.546875 -0.921875,-2.03125 0,-1.484375 0.3125,-2.03125 0.921875,-2.03125 z m 0,-0.53125 c -1.078125,0 -1.609375,0.890625 -1.609375,2.5625 0,1.671875 0.53125,2.5625 1.609375,2.5625 1.0625,0 1.59375,-0.890625 1.59375,-2.5625 0,-1.671875 -0.53125,-2.5625 -1.59375,-2.5625 z m 0,0"
   id="id-1ea34f2e-ad21-4730-bb47-797f454e6691" />
      </g></g>
</g><g
     ns26:version="1.8.1"
     ns26:texconverter="xelatex"
     ns26:pdfconverter="inkscape"
     ns26:text="$t$"
     ns26:preamble="/home/kirito/.config/textext/beamer_preamble.tex"
     ns26:scale="5.0"
     ns26:alignment="middle center"
     ns26:stroke-to-path="0"
     ns26:inkscapeversion="1.2.1"
     transform="matrix(3.75,0,0,3.75,373.29449,96.35363)"
     ns26:jacobian_sqrt="3.75"
     id="g9131"><defs
   id="id-7591ea8d-d0f8-43b4-8342-0483c8353ec0">
    <g
   id="id-b37c3b16-3a2d-4fd1-9b91-9d20855296e8">
      <g
   id="id-4d5e0fee-1182-4782-9b45-c52319d0f905">
        <path
   d="m 5.4375,-6.4375 v 5.890625 H 1.34375 V -6.4375 Z m 0.546875,-0.546875 h -5.1875 V 0 h 5.1875 z m -2.75,4.953125 c -0.21875,0 -0.40625,0.1875 -0.40625,0.421875 0,0.21875 0.1875,0.40625 0.40625,0.40625 0.25,0 0.421875,-0.1875 0.421875,-0.40625 0,-0.234375 -0.171875,-0.421875 -0.421875,-0.421875 z M 3.4375,-5.453125 c -0.5,0 -0.90625,0.1875 -1.25,0.59375 l 0.390625,0.28125 C 2.828125,-4.875 3.09375,-5 3.40625,-5 3.765625,-5 4,-4.8125 4,-4.484375 4,-3.84375 2.953125,-3.953125 2.953125,-2.9375 v 0.296875 H 3.5 V -2.90625 c 0,-0.796875 1.078125,-0.65625 1.078125,-1.625 0,-0.46875 -0.375,-0.921875 -1.140625,-0.921875 z m 0,0"
   id="id-87d5df4b-51fa-47d2-8ac5-91caca2427b2" />
      </g>
      <g
   id="id-0981651e-f9a4-4414-86a2-41f56edc2c8e">
        <path
   d="M 2.15625,-4.546875 H 3.296875 L 3.5,-5.25 H 2.265625 L 2.4375,-6.546875 1.71875,-6.46875 1.390625,-5.25 h -0.9375 L 0.34375,-4.546875 H 1.25 L 0.8125,-1.40625 c -0.140625,0.984375 0.34375,1.53125 1.25,1.53125 0.40625,0 0.78125,-0.109375 1.171875,-0.359375 L 2.9375,-0.875 c -0.28125,0.140625 -0.5,0.234375 -0.765625,0.234375 -0.390625,0 -0.53125,-0.21875 -0.453125,-0.75 z m 0,0"
   id="id-a269a9c8-88b0-48e7-9e5f-782c5e53a072" />
      </g>
    </g>
  </defs>
  <g
   fill="#000000"
   fill-opacity="1"
   id="id-937fcd35-7354-4c21-a733-979bd245d6e0"
   transform="translate(-149.056,-128.218)">
    <g
   transform="translate(148.712,134.765)"
   id="g13188"><path
   d="M 2.15625,-4.546875 H 3.296875 L 3.5,-5.25 H 2.265625 L 2.4375,-6.546875 1.71875,-6.46875 1.390625,-5.25 h -0.9375 L 0.34375,-4.546875 H 1.25 L 0.8125,-1.40625 c -0.140625,0.984375 0.34375,1.53125 1.25,1.53125 0.40625,0 0.78125,-0.109375 1.171875,-0.359375 L 2.9375,-0.875 c -0.28125,0.140625 -0.5,0.234375 -0.765625,0.234375 -0.390625,0 -0.53125,-0.21875 -0.453125,-0.75 z m 0,0"
   id="id-c4f0d492-811c-49fb-a1c5-56d9b1e322fe" />
      </g></g>
</g><path
     style="fill:none;stroke:#404040;stroke-width:3;stroke-dasharray:none;stroke-opacity:1;marker-start:url(#Dot);marker-end:url(#marker15558)"
     d="m 142.51233,88.933497 72.47199,-1.615469"
     id="path15814"
     inkscape:path-effect="#path-effect15818"
     inkscape:original-d="m 142.51233,88.933497 c 24.15769,-0.537232 48.31502,-1.07572 72.47199,-1.615469" /><path
     style="fill:#304070;fill-opacity:1;fill-rule:nonzero;stroke:none;stroke-width:0.653841"
     d="m 661.89656,89.852663 c 0,17.439167 -14.13675,31.573387 -31.57337,31.573387 -17.43916,0 -31.57338,-14.13422 -31.57338,-31.573387 0,-17.436616 14.13422,-31.573377 31.57338,-31.573377 17.43662,0 31.57337,14.136761 31.57337,31.573377 z m 0,0"
     id="path17168" /><g
     ns26:version="1.8.1"
     ns26:texconverter="pdflatex"
     ns26:pdfconverter="inkscape"
     ns26:text="3"
     ns26:preamble="/home/kirito/.config/textext/textext.tex"
     ns26:scale="9.402392397113081"
     ns26:alignment="middle center"
     ns26:stroke-to-path="0"
     ns26:inkscapeversion="1.2.1"
     transform="matrix(7.05177,0,0,7.05177,615.06448,65.555353)"
     ns26:jacobian_sqrt="7.05177"
     style="fill:#fffff0;fill-opacity:1;stroke-width:0"
     id="g17188"><defs
   id="id-f355de02-9b1e-4ee0-9c65-b97678b37b95"
   style="fill:#fffff0;fill-opacity:1;stroke-width:0">
    <g
   id="id-cda03965-b38f-4769-93f1-951c1e60c62a"
   style="fill:#fffff0;fill-opacity:1;stroke-width:0">
      <g
   id="id-53caa8d6-5592-4fe3-8b1c-767f546226e6"
   style="fill:#fffff0;fill-opacity:1;stroke-width:0">
        <path
   d="M 5.40625,-10.46875 H 1.21875 V 3.484375 h 4.1875 z M 4.875,-9.953125 V 2.96875 H 1.78125 V -9.953125 Z M 3.234375,-4.5 c -0.390625,0 -0.9375,0.125 -0.9375,0.390625 0,0.125 0.09375,0.234375 0.25,0.234375 0.03125,0 0.078125,-0.015625 0.125,-0.03125 0.171875,-0.078125 0.3125,-0.109375 0.515625,-0.109375 0.5,0 0.609375,0.296875 0.609375,0.6875 0,0.53125 -0.1875,0.71875 -0.90625,0.765625 v 0.84375 c 0,0.140625 0.125,0.234375 0.25,0.234375 0.125,0 0.25,-0.09375 0.25,-0.234375 V -2.171875 C 4.0625,-2.265625 4.34375,-2.65625 4.34375,-3.34375 4.34375,-3.953125 4.09375,-4.5 3.234375,-4.5 Z m -0.09375,3.296875 c -0.203125,0 -0.34375,0.15625 -0.34375,0.359375 0,0.203125 0.140625,0.359375 0.34375,0.359375 0.203125,0 0.34375,-0.15625 0.34375,-0.359375 0,-0.203125 -0.140625,-0.359375 -0.34375,-0.359375 z m 0,0"
   id="id-877dde57-ca1e-4e72-951d-7dc760e64cbb"
   style="fill:#fffff0;fill-opacity:1;stroke-width:0" />
      </g>
      <g
   id="id-6af47bea-f56c-4001-b610-5d3e4066c174"
   style="fill:#fffff0;fill-opacity:1;stroke-width:0">
        <path
   d="m 2.21875,-5.71875 c -0.75,0 -1.359375,0.25 -1.921875,0.78125 l 0.46875,0.546875 c 0.453125,-0.421875 0.84375,-0.59375 1.375,-0.59375 0.703125,0 1.15625,0.375 1.15625,1 0,0.71875 -0.5625,1.125 -1.25,1.125 H 1.703125 L 1.59375,-2.15625 h 0.5 c 0.890625,0 1.359375,0.359375 1.359375,1.234375 0,0.828125 -0.5,1.34375 -1.375,1.34375 -0.546875,0 -0.984375,-0.203125 -1.4375,-0.65625 l -0.546875,0.5 c 0.515625,0.609375 1.21875,0.90625 2.015625,0.90625 1.421875,0 2.3125,-0.875 2.3125,-2.046875 0,-1.046875 -0.640625,-1.578125 -1.53125,-1.671875 0.765625,-0.171875 1.3125,-0.71875 1.3125,-1.515625 0,-0.875 -0.6875,-1.65625 -1.984375,-1.65625 z m 0,0"
   id="id-dd7a851d-a038-4b8c-876b-9769001a5bca"
   style="fill:#fffff0;fill-opacity:1;stroke-width:0" />
      </g>
    </g>
  </defs>
  <g
   fill-opacity="1"
   id="id-755aae37-e9d4-4056-a39f-fdf44e40fc27"
   transform="translate(-148.806,-129.046)"
   style="fill:#fffff0;fill-opacity:1;stroke-width:0">
    <g
   transform="translate(148.712,134.765)"
   style="fill:#fffff0;fill-opacity:1;stroke-width:0"
   id="g17564"><path
   d="m 2.21875,-5.71875 c -0.75,0 -1.359375,0.25 -1.921875,0.78125 l 0.46875,0.546875 c 0.453125,-0.421875 0.84375,-0.59375 1.375,-0.59375 0.703125,0 1.15625,0.375 1.15625,1 0,0.71875 -0.5625,1.125 -1.25,1.125 H 1.703125 L 1.59375,-2.15625 h 0.5 c 0.890625,0 1.359375,0.359375 1.359375,1.234375 0,0.828125 -0.5,1.34375 -1.375,1.34375 -0.546875,0 -0.984375,-0.203125 -1.4375,-0.65625 l -0.546875,0.5 c 0.515625,0.609375 1.21875,0.90625 2.015625,0.90625 1.421875,0 2.3125,-0.875 2.3125,-2.046875 0,-1.046875 -0.640625,-1.578125 -1.53125,-1.671875 0.765625,-0.171875 1.3125,-0.71875 1.3125,-1.515625 0,-0.875 -0.6875,-1.65625 -1.984375,-1.65625 z m 0,0"
   id="id-954ab2fe-53ba-48a6-9c80-5bdac54150f7"
   style="fill:#fffff0;fill-opacity:1;stroke-width:0" />
      </g></g>
</g><g
     ns26:version="1.8.1"
     ns26:texconverter="pdflatex"
     ns26:pdfconverter="inkscape"
     ns26:text="zeroth Hamiltonian"
     ns26:preamble="/home/kirito/.config/textext/textext.tex"
     ns26:scale="2.5"
     ns26:alignment="middle center"
     ns26:stroke-to-path="0"
     ns26:inkscapeversion="1.2.1"
     transform="matrix(2.5,0,0,2.5,54.711205,165.59)"
     ns26:jacobian_sqrt="2.5"
     id="g18042"><defs
   id="id-ada1afe7-772a-4b2f-ab31-f1c542be8e9f">
    <g
   id="id-4734a255-b11b-4a0f-90d6-0227dea2c842">
      <g
   id="id-c6c8ddc3-0329-4708-9098-87f5370e8f04">
        <path
   d="M 5.40625,-10.46875 H 1.21875 V 3.484375 h 4.1875 z M 4.875,-9.953125 V 2.96875 H 1.78125 V -9.953125 Z M 3.234375,-4.5 c -0.390625,0 -0.9375,0.125 -0.9375,0.390625 0,0.125 0.09375,0.234375 0.25,0.234375 0.03125,0 0.078125,-0.015625 0.125,-0.03125 0.171875,-0.078125 0.3125,-0.109375 0.515625,-0.109375 0.5,0 0.609375,0.296875 0.609375,0.6875 0,0.53125 -0.1875,0.71875 -0.90625,0.765625 v 0.84375 c 0,0.140625 0.125,0.234375 0.25,0.234375 0.125,0 0.25,-0.09375 0.25,-0.234375 V -2.171875 C 4.0625,-2.265625 4.34375,-2.65625 4.34375,-3.34375 4.34375,-3.953125 4.09375,-4.5 3.234375,-4.5 Z m -0.09375,3.296875 c -0.203125,0 -0.34375,0.15625 -0.34375,0.359375 0,0.203125 0.140625,0.359375 0.34375,0.359375 0.203125,0 0.34375,-0.15625 0.34375,-0.359375 0,-0.203125 -0.140625,-0.359375 -0.34375,-0.359375 z m 0,0"
   id="id-06b53b51-8034-496a-bcb6-e6bc1d6fd640" />
      </g>
      <g
   id="id-459d0d2a-eabb-48df-8cf1-6935e2054b3d">
        <path
   d="M 4.03125,-5.25 H 0.484375 v 0.78125 h 2.5 L 0.25,-0.6875 V 0 H 3.953125 L 4.0625,-0.765625 H 1.28125 l 2.75,-3.796875 z m 0,0"
   id="id-4cc87479-166a-457c-9d67-4745bec5ca1d" />
      </g>
      <g
   id="id-c44d8916-0daa-4871-a238-2de91643d14a">
        <path
   d="m 4.921875,-2.78125 c 0,-1.609375 -0.75,-2.59375 -2.171875,-2.59375 -1.359375,0 -2.1875,1.171875 -2.1875,2.796875 0,1.671875 0.859375,2.703125 2.328125,2.703125 0.734375,0 1.3125,-0.25 1.828125,-0.65625 L 4.328125,-1.09375 C 3.875,-0.765625 3.484375,-0.625 2.953125,-0.625 c -0.75,0 -1.3125,-0.46875 -1.40625,-1.6875 h 3.34375 c 0.015625,-0.125 0.03125,-0.296875 0.03125,-0.46875 z M 4,-2.984375 H 1.546875 c 0.0625,-1.171875 0.53125,-1.65625 1.21875,-1.65625 0.828125,0 1.234375,0.5625 1.234375,1.59375 z m 0,0"
   id="id-56b57561-1d05-435d-9fcf-2111d52fc7a8" />
      </g>
      <g
   id="id-4fc5e4aa-6e97-4c93-9fd6-fedcf6c4d10a">
        <path
   d="m 3.203125,-5.375 c -0.640625,0 -1.125,0.40625 -1.40625,1.1875 L 1.703125,-5.25 H 0.921875 V 0 h 0.90625 v -3 c 0.21875,-1 0.609375,-1.46875 1.265625,-1.46875 0.1875,0 0.296875,0.015625 0.453125,0.046875 L 3.71875,-5.3125 C 3.5625,-5.359375 3.375,-5.375 3.203125,-5.375 Z m 0,0"
   id="id-dfda8a37-30b4-48dc-9b70-ef897aabb23d" />
      </g>
      <g
   id="id-1275a94e-dabd-4c2b-a424-6598491b43ae">
        <path
   d="m 2.921875,-5.375 c -1.5,0 -2.359375,1.125 -2.359375,2.75 0,1.671875 0.859375,2.75 2.34375,2.75 C 4.390625,0.125 5.25,-1 5.25,-2.625 c 0,-1.671875 -0.828125,-2.75 -2.328125,-2.75 z m 0,0.734375 c 0.859375,0 1.34375,0.640625 1.34375,2.015625 0,1.375 -0.484375,2 -1.359375,2 -0.875,0 -1.34375,-0.625 -1.34375,-2 0,-1.375 0.484375,-2.015625 1.359375,-2.015625 z m 0,0"
   id="id-9b6d856d-3893-44ab-ab86-1bbd2c3e9bb8" />
      </g>
      <g
   id="id-97eda27e-79d7-4d6d-9316-fcdf586cf927">
        <path
   d="m 3.25,-0.84375 c -0.265625,0.140625 -0.46875,0.203125 -0.703125,0.203125 -0.453125,0 -0.625,-0.25 -0.625,-0.78125 v -3.125 h 1.15625 L 3.171875,-5.25 h -1.25 V -6.546875 L 1,-6.4375 V -5.25 H 0.09375 v 0.703125 H 1 V -1.375 c 0,0.96875 0.53125,1.5 1.421875,1.5 C 2.875,0.125 3.25,0 3.59375,-0.234375 Z m 0,0"
   id="id-93d5be23-3b5f-4823-90f7-4d279cfe3459" />
      </g>
      <g
   id="id-1325a3c5-5c2b-4b7e-bb7b-64d76c31be37">
        <path
   d="m 3.390625,-5.375 c -0.65625,0 -1.171875,0.328125 -1.5625,0.84375 v -2.921875 l -0.90625,0.09375 V 0 h 0.90625 V -3.734375 C 2.1875,-4.28125 2.59375,-4.65625 3.15625,-4.65625 3.65625,-4.65625 4,-4.421875 4,-3.640625 V 0 H 4.921875 V -3.765625 C 4.921875,-4.75 4.34375,-5.375 3.390625,-5.375 Z m 0,0"
   id="id-7a3cf05b-705d-4c91-b84d-26aae84dc3bf" />
      </g>
      <g
   id="id-beae7b08-67c9-48c8-ba6b-611e96945752">
        <path
   d="M 4.828125,0 H 5.78125 V -6.875 H 4.828125 V -4 H 1.9375 V -6.875 H 1 V 0 h 0.9375 v -3.21875 h 2.890625 z m 0,0"
   id="id-fe5bb6fc-1b44-4c08-8f41-48209bb43355" />
      </g>
      <g
   id="id-cb14c9e9-c71e-486c-8cb9-7b260e39081e">
        <path
   d="M 4.4375,-1.21875 V -3.625 c 0,-1.09375 -0.578125,-1.75 -1.84375,-1.75 C 2,-5.375 1.421875,-5.25 0.78125,-5.015625 L 1,-4.34375 C 1.546875,-4.53125 2.03125,-4.625 2.421875,-4.625 c 0.734375,0 1.09375,0.28125 1.09375,1.03125 v 0.390625 H 2.71875 c -1.46875,0 -2.3125,0.609375 -2.3125,1.734375 0,0.9375 0.625,1.59375 1.671875,1.59375 0.640625,0 1.1875,-0.25 1.5625,-0.796875 0.15625,0.515625 0.5,0.734375 1.03125,0.796875 L 4.875,-0.515625 C 4.609375,-0.625 4.4375,-0.765625 4.4375,-1.21875 Z M 2.28125,-0.5625 c -0.59375,0 -0.90625,-0.328125 -0.90625,-0.953125 0,-0.71875 0.484375,-1.078125 1.453125,-1.078125 h 0.6875 v 1.203125 C 3.21875,-0.84375 2.828125,-0.5625 2.28125,-0.5625 Z m 0,0"
   id="id-6675e110-4d11-47da-a73a-965c999cc213" />
      </g>
      <g
   id="id-76e19f9f-a510-4028-81e5-919d44ead07d">
        <path
   d="M 6.1875,-5.375 C 5.484375,-5.375 5,-5 4.625,-4.421875 4.421875,-5.03125 3.953125,-5.375 3.296875,-5.375 c -0.6875,0 -1.15625,0.359375 -1.515625,0.890625 L 1.703125,-5.25 H 0.921875 V 0 h 0.90625 V -3.734375 C 2.1875,-4.28125 2.5,-4.65625 3.078125,-4.65625 c 0.390625,0 0.734375,0.234375 0.734375,1.015625 V 0 h 0.90625 v -3.734375 c 0.359375,-0.546875 0.671875,-0.921875 1.25,-0.921875 0.390625,0 0.734375,0.234375 0.734375,1.015625 V 0 h 0.90625 V -3.765625 C 7.609375,-4.75 7.046875,-5.375 6.1875,-5.375 Z m 0,0"
   id="id-ccb6467c-de38-44c1-bb25-c3e90b8adf1c" />
      </g>
      <g
   id="id-e26da4ec-4c55-468c-9b62-de59f26b3594">
        <path
   d="m 1.359375,-7.78125 c -0.375,0 -0.625,0.28125 -0.625,0.640625 0,0.34375 0.25,0.609375 0.625,0.609375 0.390625,0 0.65625,-0.265625 0.65625,-0.609375 C 2.015625,-7.5 1.75,-7.78125 1.359375,-7.78125 Z M 1.828125,-5.25 H 0.921875 V 0 h 0.90625 z m 0,0"
   id="id-d6cfbb9f-3a3f-47f7-b5c0-21ea3cb39223" />
      </g>
      <g
   id="id-d24cb319-564e-4c60-bb3f-66e102b8a724">
        <path
   d="m 1.953125,0.125 c 0.265625,0 0.53125,-0.078125 0.734375,-0.1875 l -0.25,-0.640625 c -0.09375,0.046875 -0.203125,0.0625 -0.328125,0.0625 -0.25,0 -0.328125,-0.140625 -0.328125,-0.421875 v -6.421875 l -0.921875,0.125 v 6.328125 c 0,0.734375 0.421875,1.15625 1.09375,1.15625 z m 0,0"
   id="id-3d7a3c64-5b6b-4a46-b761-8e99f7528103" />
      </g>
      <g
   id="id-1615c23e-0b0f-468b-8281-cdd7f3989f51">
        <path
   d="m 3.390625,-5.375 c -0.6875,0 -1.25,0.359375 -1.609375,0.90625 L 1.703125,-5.25 H 0.921875 V 0 h 0.90625 V -3.734375 C 2.1875,-4.28125 2.578125,-4.65625 3.171875,-4.65625 3.671875,-4.65625 4,-4.421875 4,-3.640625 V 0 h 0.921875 v -3.765625 c 0,-1 -0.5625,-1.609375 -1.53125,-1.609375 z m 0,0"
   id="id-053096c3-7d4f-462a-bc28-f7f6484abee2" />
      </g>
    </g>
  </defs>
  <g
   fill="#000000"
   fill-opacity="1"
   id="id-9869236c-7cac-44aa-9e40-a21c33a1abf8"
   transform="translate(-148.962,-126.984)">
    <g
   transform="translate(148.712,134.765)"
   id="g20384"><path
   d="M 4.03125,-5.25 H 0.484375 v 0.78125 h 2.5 L 0.25,-0.6875 V 0 H 3.953125 L 4.0625,-0.765625 H 1.28125 l 2.75,-3.796875 z m 0,0"
   id="id-aa07d1cf-367c-4072-98b5-c92c5000c1bd" />
      </g></g>
  <g
   fill="#000000"
   fill-opacity="1"
   id="id-1aa53759-f039-4a77-9321-35030f1b8216"
   transform="translate(-148.962,-126.984)">
    <g
   transform="translate(152.966,134.765)"
   id="g20388"><path
   d="m 4.921875,-2.78125 c 0,-1.609375 -0.75,-2.59375 -2.171875,-2.59375 -1.359375,0 -2.1875,1.171875 -2.1875,2.796875 0,1.671875 0.859375,2.703125 2.328125,2.703125 0.734375,0 1.3125,-0.25 1.828125,-0.65625 L 4.328125,-1.09375 C 3.875,-0.765625 3.484375,-0.625 2.953125,-0.625 c -0.75,0 -1.3125,-0.46875 -1.40625,-1.6875 h 3.34375 c 0.015625,-0.125 0.03125,-0.296875 0.03125,-0.46875 z M 4,-2.984375 H 1.546875 c 0.0625,-1.171875 0.53125,-1.65625 1.21875,-1.65625 0.828125,0 1.234375,0.5625 1.234375,1.59375 z m 0,0"
   id="id-711519ff-42fb-42be-82ce-ac02e6094396" />
      </g><g
   transform="translate(158.386,134.765)"
   id="g20391"><path
   d="m 3.203125,-5.375 c -0.640625,0 -1.125,0.40625 -1.40625,1.1875 L 1.703125,-5.25 H 0.921875 V 0 h 0.90625 v -3 c 0.21875,-1 0.609375,-1.46875 1.265625,-1.46875 0.1875,0 0.296875,0.015625 0.453125,0.046875 L 3.71875,-5.3125 C 3.5625,-5.359375 3.375,-5.375 3.203125,-5.375 Z m 0,0"
   id="id-3dd02d03-1f8a-47db-b022-7dccde7ad302" />
      </g></g>
  <g
   fill="#000000"
   fill-opacity="1"
   id="id-04b4cc7b-5d76-47c8-9771-4d72818d2738"
   transform="translate(-148.962,-126.984)">
    <g
   transform="translate(162.002,134.765)"
   id="g20395"><path
   d="m 2.921875,-5.375 c -1.5,0 -2.359375,1.125 -2.359375,2.75 0,1.671875 0.859375,2.75 2.34375,2.75 C 4.390625,0.125 5.25,-1 5.25,-2.625 c 0,-1.671875 -0.828125,-2.75 -2.328125,-2.75 z m 0,0.734375 c 0.859375,0 1.34375,0.640625 1.34375,2.015625 0,1.375 -0.484375,2 -1.359375,2 -0.875,0 -1.34375,-0.625 -1.34375,-2 0,-1.375 0.484375,-2.015625 1.359375,-2.015625 z m 0,0"
   id="id-0810c183-ba11-4452-bb2c-afcf2cf70d46" />
      </g><g
   transform="translate(167.82,134.765)"
   id="g20398"><path
   d="m 3.25,-0.84375 c -0.265625,0.140625 -0.46875,0.203125 -0.703125,0.203125 -0.453125,0 -0.625,-0.25 -0.625,-0.78125 v -3.125 h 1.15625 L 3.171875,-5.25 h -1.25 V -6.546875 L 1,-6.4375 V -5.25 H 0.09375 v 0.703125 H 1 V -1.375 c 0,0.96875 0.53125,1.5 1.421875,1.5 C 2.875,0.125 3.25,0 3.59375,-0.234375 Z m 0,0"
   id="id-54266e54-3e46-4a85-8e7e-2b1b1496d2d7" />
      </g><g
   transform="translate(171.417,134.765)"
   id="g20401"><path
   d="m 3.390625,-5.375 c -0.65625,0 -1.171875,0.328125 -1.5625,0.84375 v -2.921875 l -0.90625,0.09375 V 0 h 0.90625 V -3.734375 C 2.1875,-4.28125 2.59375,-4.65625 3.15625,-4.65625 3.65625,-4.65625 4,-4.421875 4,-3.640625 V 0 H 4.921875 V -3.765625 C 4.921875,-4.75 4.34375,-5.375 3.390625,-5.375 Z m 0,0"
   id="id-6ecbccfe-db85-4a25-9ca2-7d3926a2c496" />
      </g></g>
  <g
   fill="#000000"
   fill-opacity="1"
   id="id-0a5a1706-ae0c-4e41-bbf2-60e1caaed260"
   transform="translate(-148.962,-126.984)">
    <g
   transform="translate(179.825,134.765)"
   id="g20405"><path
   d="M 4.828125,0 H 5.78125 V -6.875 H 4.828125 V -4 H 1.9375 V -6.875 H 1 V 0 h 0.9375 v -3.21875 h 2.890625 z m 0,0"
   id="id-56eef028-88c8-4d76-a431-3bfcac6e9ab8" />
      </g><g
   transform="translate(186.6,134.765)"
   id="g20408"><path
   d="M 4.4375,-1.21875 V -3.625 c 0,-1.09375 -0.578125,-1.75 -1.84375,-1.75 C 2,-5.375 1.421875,-5.25 0.78125,-5.015625 L 1,-4.34375 C 1.546875,-4.53125 2.03125,-4.625 2.421875,-4.625 c 0.734375,0 1.09375,0.28125 1.09375,1.03125 v 0.390625 H 2.71875 c -1.46875,0 -2.3125,0.609375 -2.3125,1.734375 0,0.9375 0.625,1.59375 1.671875,1.59375 0.640625,0 1.1875,-0.25 1.5625,-0.796875 0.15625,0.515625 0.5,0.734375 1.03125,0.796875 L 4.875,-0.515625 C 4.609375,-0.625 4.4375,-0.765625 4.4375,-1.21875 Z M 2.28125,-0.5625 c -0.59375,0 -0.90625,-0.328125 -0.90625,-0.953125 0,-0.71875 0.484375,-1.078125 1.453125,-1.078125 h 0.6875 v 1.203125 C 3.21875,-0.84375 2.828125,-0.5625 2.28125,-0.5625 Z m 0,0"
   id="id-a151e675-91dc-4775-a3b7-30a258e23c44" />
      </g><g
   transform="translate(191.97,134.765)"
   id="g20411"><path
   d="M 6.1875,-5.375 C 5.484375,-5.375 5,-5 4.625,-4.421875 4.421875,-5.03125 3.953125,-5.375 3.296875,-5.375 c -0.6875,0 -1.15625,0.359375 -1.515625,0.890625 L 1.703125,-5.25 H 0.921875 V 0 h 0.90625 V -3.734375 C 2.1875,-4.28125 2.5,-4.65625 3.078125,-4.65625 c 0.390625,0 0.734375,0.234375 0.734375,1.015625 V 0 h 0.90625 v -3.734375 c 0.359375,-0.546875 0.671875,-0.921875 1.25,-0.921875 0.390625,0 0.734375,0.234375 0.734375,1.015625 V 0 h 0.90625 V -3.765625 C 7.609375,-4.75 7.046875,-5.375 6.1875,-5.375 Z m 0,0"
   id="id-eb4b880c-9122-4cb8-a4a0-c946291b89c4" />
      </g><g
   transform="translate(200.438,134.765)"
   id="g20414"><path
   d="m 1.359375,-7.78125 c -0.375,0 -0.625,0.28125 -0.625,0.640625 0,0.34375 0.25,0.609375 0.625,0.609375 0.390625,0 0.65625,-0.265625 0.65625,-0.609375 C 2.015625,-7.5 1.75,-7.78125 1.359375,-7.78125 Z M 1.828125,-5.25 H 0.921875 V 0 h 0.90625 z m 0,0"
   id="id-6a3923a3-f969-4ab5-bbdb-e7578171c717" />
      </g><g
   transform="translate(203.188,134.765)"
   id="g20417"><path
   d="m 1.953125,0.125 c 0.265625,0 0.53125,-0.078125 0.734375,-0.1875 l -0.25,-0.640625 c -0.09375,0.046875 -0.203125,0.0625 -0.328125,0.0625 -0.25,0 -0.328125,-0.140625 -0.328125,-0.421875 v -6.421875 l -0.921875,0.125 v 6.328125 c 0,0.734375 0.421875,1.15625 1.09375,1.15625 z m 0,0"
   id="id-04840c68-a86b-4988-b20c-5d304cf942a7" />
      </g><g
   transform="translate(206.117,134.765)"
   id="g20420"><path
   d="m 3.25,-0.84375 c -0.265625,0.140625 -0.46875,0.203125 -0.703125,0.203125 -0.453125,0 -0.625,-0.25 -0.625,-0.78125 v -3.125 h 1.15625 L 3.171875,-5.25 h -1.25 V -6.546875 L 1,-6.4375 V -5.25 H 0.09375 v 0.703125 H 1 V -1.375 c 0,0.96875 0.53125,1.5 1.421875,1.5 C 2.875,0.125 3.25,0 3.59375,-0.234375 Z m 0,0"
   id="id-5a30a842-9529-440f-8546-82edfc30a86e" />
      </g></g>
  <g
   fill="#000000"
   fill-opacity="1"
   id="id-0be1333e-1ce9-4e2e-8c8a-1924f00b3b07"
   transform="translate(-148.962,-126.984)">
    <g
   transform="translate(209.564,134.765)"
   id="g20424"><path
   d="m 2.921875,-5.375 c -1.5,0 -2.359375,1.125 -2.359375,2.75 0,1.671875 0.859375,2.75 2.34375,2.75 C 4.390625,0.125 5.25,-1 5.25,-2.625 c 0,-1.671875 -0.828125,-2.75 -2.328125,-2.75 z m 0,0.734375 c 0.859375,0 1.34375,0.640625 1.34375,2.015625 0,1.375 -0.484375,2 -1.359375,2 -0.875,0 -1.34375,-0.625 -1.34375,-2 0,-1.375 0.484375,-2.015625 1.359375,-2.015625 z m 0,0"
   id="id-74addfcf-258a-4f1a-bc98-11609c2ffd32" />
      </g><g
   transform="translate(215.382,134.765)"
   id="g20427"><path
   d="m 3.390625,-5.375 c -0.6875,0 -1.25,0.359375 -1.609375,0.90625 L 1.703125,-5.25 H 0.921875 V 0 h 0.90625 V -3.734375 C 2.1875,-4.28125 2.578125,-4.65625 3.171875,-4.65625 3.671875,-4.65625 4,-4.421875 4,-3.640625 V 0 h 0.921875 v -3.765625 c 0,-1 -0.5625,-1.609375 -1.53125,-1.609375 z m 0,0"
   id="id-8524714b-ad94-4c35-bde0-e04381ffaa4b" />
      </g><g
   transform="translate(221.15,134.765)"
   id="g20430"><path
   d="m 1.359375,-7.78125 c -0.375,0 -0.625,0.28125 -0.625,0.640625 0,0.34375 0.25,0.609375 0.625,0.609375 0.390625,0 0.65625,-0.265625 0.65625,-0.609375 C 2.015625,-7.5 1.75,-7.78125 1.359375,-7.78125 Z M 1.828125,-5.25 H 0.921875 V 0 h 0.90625 z m 0,0"
   id="id-a93bccbf-5dc5-4397-b7a9-ad72a33961fd" />
      </g><g
   transform="translate(223.9,134.765)"
   id="g20433"><path
   d="M 4.4375,-1.21875 V -3.625 c 0,-1.09375 -0.578125,-1.75 -1.84375,-1.75 C 2,-5.375 1.421875,-5.25 0.78125,-5.015625 L 1,-4.34375 C 1.546875,-4.53125 2.03125,-4.625 2.421875,-4.625 c 0.734375,0 1.09375,0.28125 1.09375,1.03125 v 0.390625 H 2.71875 c -1.46875,0 -2.3125,0.609375 -2.3125,1.734375 0,0.9375 0.625,1.59375 1.671875,1.59375 0.640625,0 1.1875,-0.25 1.5625,-0.796875 0.15625,0.515625 0.5,0.734375 1.03125,0.796875 L 4.875,-0.515625 C 4.609375,-0.625 4.4375,-0.765625 4.4375,-1.21875 Z M 2.28125,-0.5625 c -0.59375,0 -0.90625,-0.328125 -0.90625,-0.953125 0,-0.71875 0.484375,-1.078125 1.453125,-1.078125 h 0.6875 v 1.203125 C 3.21875,-0.84375 2.828125,-0.5625 2.28125,-0.5625 Z m 0,0"
   id="id-a43a5925-972c-4987-b9cb-a271872a069d" />
      </g><g
   transform="translate(229.27,134.765)"
   id="g20436"><path
   d="m 3.390625,-5.375 c -0.6875,0 -1.25,0.359375 -1.609375,0.90625 L 1.703125,-5.25 H 0.921875 V 0 h 0.90625 V -3.734375 C 2.1875,-4.28125 2.578125,-4.65625 3.171875,-4.65625 3.671875,-4.65625 4,-4.421875 4,-3.640625 V 0 h 0.921875 v -3.765625 c 0,-1 -0.5625,-1.609375 -1.53125,-1.609375 z m 0,0"
   id="id-4c4577bf-469c-4eb5-8e23-8311b220c274" />
      </g></g>
</g><g
     ns26:version="1.8.1"
     ns26:texconverter="pdflatex"
     ns26:pdfconverter="inkscape"
     ns26:text="perturbation"
     ns26:preamble="/home/kirito/.config/textext/textext.tex"
     ns26:scale="2.5"
     ns26:alignment="middle center"
     ns26:stroke-to-path="0"
     ns26:inkscapeversion="1.2.1"
     transform="matrix(2.5,0,0,2.5,321.08905,140.82437)"
     ns26:jacobian_sqrt="2.5"
     id="g20691"><defs
   id="id-aaef5192-15b9-4b8d-b1ab-50f17151a97c">
    <g
   id="id-5a8c4090-b212-4efb-b25c-b37a86730d34">
      <g
   id="id-0e195545-5497-490d-b5e0-087067d0977c">
        <path
   d="M 5.40625,-10.46875 H 1.21875 V 3.484375 h 4.1875 z M 4.875,-9.953125 V 2.96875 H 1.78125 V -9.953125 Z M 3.234375,-4.5 c -0.390625,0 -0.9375,0.125 -0.9375,0.390625 0,0.125 0.09375,0.234375 0.25,0.234375 0.03125,0 0.078125,-0.015625 0.125,-0.03125 0.171875,-0.078125 0.3125,-0.109375 0.515625,-0.109375 0.5,0 0.609375,0.296875 0.609375,0.6875 0,0.53125 -0.1875,0.71875 -0.90625,0.765625 v 0.84375 c 0,0.140625 0.125,0.234375 0.25,0.234375 0.125,0 0.25,-0.09375 0.25,-0.234375 V -2.171875 C 4.0625,-2.265625 4.34375,-2.65625 4.34375,-3.34375 4.34375,-3.953125 4.09375,-4.5 3.234375,-4.5 Z m -0.09375,3.296875 c -0.203125,0 -0.34375,0.15625 -0.34375,0.359375 0,0.203125 0.140625,0.359375 0.34375,0.359375 0.203125,0 0.34375,-0.15625 0.34375,-0.359375 0,-0.203125 -0.140625,-0.359375 -0.34375,-0.359375 z m 0,0"
   id="id-b174c9c2-cd30-44ab-9da9-b90460005dd9" />
      </g>
      <g
   id="id-0fc9bddf-a209-4b45-8769-e7d40161d532">
        <path
   d="m 3.328125,-5.375 c -0.59375,0 -1.171875,0.296875 -1.546875,0.828125 L 1.703125,-5.25 h -0.78125 v 7.375 l 0.90625,-0.109375 v -2.5 c 0.34375,0.421875 0.8125,0.609375 1.375,0.609375 1.359375,0 2.078125,-1.15625 2.078125,-2.75 0,-1.65625 -0.5625,-2.75 -1.953125,-2.75 z m -0.34375,4.75 c -0.46875,0 -0.875,-0.234375 -1.15625,-0.640625 v -2.5625 c 0.28125,-0.421875 0.71875,-0.8125 1.265625,-0.8125 0.796875,0 1.1875,0.640625 1.1875,2.015625 0,1.375 -0.453125,2 -1.296875,2 z m 0,0"
   id="id-d7c19069-ed34-4d01-812e-c3bf90454600" />
      </g>
      <g
   id="id-bd38dfd2-8e3a-4614-ac9b-0e78b1496189">
        <path
   d="m 4.921875,-2.78125 c 0,-1.609375 -0.75,-2.59375 -2.171875,-2.59375 -1.359375,0 -2.1875,1.171875 -2.1875,2.796875 0,1.671875 0.859375,2.703125 2.328125,2.703125 0.734375,0 1.3125,-0.25 1.828125,-0.65625 L 4.328125,-1.09375 C 3.875,-0.765625 3.484375,-0.625 2.953125,-0.625 c -0.75,0 -1.3125,-0.46875 -1.40625,-1.6875 h 3.34375 c 0.015625,-0.125 0.03125,-0.296875 0.03125,-0.46875 z M 4,-2.984375 H 1.546875 c 0.0625,-1.171875 0.53125,-1.65625 1.21875,-1.65625 0.828125,0 1.234375,0.5625 1.234375,1.59375 z m 0,0"
   id="id-12df43e2-47da-4173-b8b8-2f9a10e54a13" />
      </g>
      <g
   id="id-862cc446-0a4d-45b8-b82a-98da2c0e6aaa">
        <path
   d="m 3.203125,-5.375 c -0.640625,0 -1.125,0.40625 -1.40625,1.1875 L 1.703125,-5.25 H 0.921875 V 0 h 0.90625 v -3 c 0.21875,-1 0.609375,-1.46875 1.265625,-1.46875 0.1875,0 0.296875,0.015625 0.453125,0.046875 L 3.71875,-5.3125 C 3.5625,-5.359375 3.375,-5.375 3.203125,-5.375 Z m 0,0"
   id="id-35dffded-897d-4af9-8da5-f3258cf73b40" />
      </g>
      <g
   id="id-8bac92b8-4ae3-4342-b42d-68a0a9203b26">
        <path
   d="m 3.25,-0.84375 c -0.265625,0.140625 -0.46875,0.203125 -0.703125,0.203125 -0.453125,0 -0.625,-0.25 -0.625,-0.78125 v -3.125 h 1.15625 L 3.171875,-5.25 h -1.25 V -6.546875 L 1,-6.4375 V -5.25 H 0.09375 v 0.703125 H 1 V -1.375 c 0,0.96875 0.53125,1.5 1.421875,1.5 C 2.875,0.125 3.25,0 3.59375,-0.234375 Z m 0,0"
   id="id-d23af247-e690-4af8-87e8-70d452d3fe9c" />
      </g>
      <g
   id="id-9ab298c4-8c60-480b-a3f1-d219c2a56ed4">
        <path
   d="M 4.8125,-5.25 H 3.890625 v 3.75 c -0.3125,0.515625 -0.734375,0.90625 -1.3125,0.90625 -0.5625,0 -0.796875,-0.28125 -0.796875,-0.984375 V -5.25 H 0.859375 v 3.765625 c 0,1.03125 0.546875,1.609375 1.46875,1.609375 0.75,0 1.234375,-0.296875 1.625,-0.9375 L 4.03125,0 H 4.8125 Z m 0,0"
   id="id-514a623d-5380-48b3-b4cb-e90c75dd0944" />
      </g>
      <g
   id="id-09396a94-d684-4b8d-9a54-ee3fb63a1dff">
        <path
   d="m 3.3125,-5.375 c -0.625,0 -1.125,0.296875 -1.484375,0.78125 v -2.890625 l -0.90625,0.125 V 0 H 1.71875 L 1.8125,-0.578125 C 2.171875,-0.140625 2.625,0.125 3.203125,0.125 c 1.28125,0 2.078125,-1.109375 2.078125,-2.75 0,-1.765625 -0.78125,-2.75 -1.96875,-2.75 z m -0.328125,4.765625 c -0.46875,0 -0.875,-0.28125 -1.15625,-0.703125 v -2.515625 c 0.28125,-0.421875 0.65625,-0.8125 1.234375,-0.8125 0.734375,0 1.21875,0.515625 1.21875,2.015625 0,1.421875 -0.515625,2.015625 -1.296875,2.015625 z m 0,0"
   id="id-ad73b4ad-505c-4c5f-a83d-1706cb0e62ed" />
      </g>
      <g
   id="id-095890f6-bdba-479c-b08a-329c5b125cb8">
        <path
   d="M 4.4375,-1.21875 V -3.625 c 0,-1.09375 -0.578125,-1.75 -1.84375,-1.75 C 2,-5.375 1.421875,-5.25 0.78125,-5.015625 L 1,-4.34375 C 1.546875,-4.53125 2.03125,-4.625 2.421875,-4.625 c 0.734375,0 1.09375,0.28125 1.09375,1.03125 v 0.390625 H 2.71875 c -1.46875,0 -2.3125,0.609375 -2.3125,1.734375 0,0.9375 0.625,1.59375 1.671875,1.59375 0.640625,0 1.1875,-0.25 1.5625,-0.796875 0.15625,0.515625 0.5,0.734375 1.03125,0.796875 L 4.875,-0.515625 C 4.609375,-0.625 4.4375,-0.765625 4.4375,-1.21875 Z M 2.28125,-0.5625 c -0.59375,0 -0.90625,-0.328125 -0.90625,-0.953125 0,-0.71875 0.484375,-1.078125 1.453125,-1.078125 h 0.6875 v 1.203125 C 3.21875,-0.84375 2.828125,-0.5625 2.28125,-0.5625 Z m 0,0"
   id="id-75799763-05e6-484c-8b68-9c52f5b395c4" />
      </g>
      <g
   id="id-229f353d-7e04-4254-aed9-e8b29e16f030">
        <path
   d="m 1.359375,-7.78125 c -0.375,0 -0.625,0.28125 -0.625,0.640625 0,0.34375 0.25,0.609375 0.625,0.609375 0.390625,0 0.65625,-0.265625 0.65625,-0.609375 C 2.015625,-7.5 1.75,-7.78125 1.359375,-7.78125 Z M 1.828125,-5.25 H 0.921875 V 0 h 0.90625 z m 0,0"
   id="id-b0ea9e87-f1a9-423d-b8bd-ca2f7020c524" />
      </g>
      <g
   id="id-670cbfa1-48b9-40c0-9304-df154a8b34ad">
        <path
   d="m 2.921875,-5.375 c -1.5,0 -2.359375,1.125 -2.359375,2.75 0,1.671875 0.859375,2.75 2.34375,2.75 C 4.390625,0.125 5.25,-1 5.25,-2.625 c 0,-1.671875 -0.828125,-2.75 -2.328125,-2.75 z m 0,0.734375 c 0.859375,0 1.34375,0.640625 1.34375,2.015625 0,1.375 -0.484375,2 -1.359375,2 -0.875,0 -1.34375,-0.625 -1.34375,-2 0,-1.375 0.484375,-2.015625 1.359375,-2.015625 z m 0,0"
   id="id-60c725da-2b1b-4146-9c75-bd7825af14a6" />
      </g>
      <g
   id="id-e0537296-a7ce-4172-ba91-f8fdfe3630bd">
        <path
   d="m 3.390625,-5.375 c -0.6875,0 -1.25,0.359375 -1.609375,0.90625 L 1.703125,-5.25 H 0.921875 V 0 h 0.90625 V -3.734375 C 2.1875,-4.28125 2.578125,-4.65625 3.171875,-4.65625 3.671875,-4.65625 4,-4.421875 4,-3.640625 V 0 h 0.921875 v -3.765625 c 0,-1 -0.5625,-1.609375 -1.53125,-1.609375 z m 0,0"
   id="id-db23a684-8fab-4e4b-8a60-8dbf6d50b8e7" />
      </g>
    </g>
  </defs>
  <g
   fill="#000000"
   fill-opacity="1"
   id="id-a2a2ad22-c37e-4934-ba17-304039b1d9da"
   transform="translate(-149.634,-126.984)">
    <g
   transform="translate(148.712,134.765)"
   id="g21299"><path
   d="m 3.328125,-5.375 c -0.59375,0 -1.171875,0.296875 -1.546875,0.828125 L 1.703125,-5.25 h -0.78125 v 7.375 l 0.90625,-0.109375 v -2.5 c 0.34375,0.421875 0.8125,0.609375 1.375,0.609375 1.359375,0 2.078125,-1.15625 2.078125,-2.75 0,-1.65625 -0.5625,-2.75 -1.953125,-2.75 z m -0.34375,4.75 c -0.46875,0 -0.875,-0.234375 -1.15625,-0.640625 v -2.5625 c 0.28125,-0.421875 0.71875,-0.8125 1.265625,-0.8125 0.796875,0 1.1875,0.640625 1.1875,2.015625 0,1.375 -0.453125,2 -1.296875,2 z m 0,0"
   id="id-5c74931c-aa41-4ecf-9764-13768b1efc5c" />
      </g><g
   transform="translate(154.55,134.765)"
   id="g21302"><path
   d="m 4.921875,-2.78125 c 0,-1.609375 -0.75,-2.59375 -2.171875,-2.59375 -1.359375,0 -2.1875,1.171875 -2.1875,2.796875 0,1.671875 0.859375,2.703125 2.328125,2.703125 0.734375,0 1.3125,-0.25 1.828125,-0.65625 L 4.328125,-1.09375 C 3.875,-0.765625 3.484375,-0.625 2.953125,-0.625 c -0.75,0 -1.3125,-0.46875 -1.40625,-1.6875 h 3.34375 c 0.015625,-0.125 0.03125,-0.296875 0.03125,-0.46875 z M 4,-2.984375 H 1.546875 c 0.0625,-1.171875 0.53125,-1.65625 1.21875,-1.65625 0.828125,0 1.234375,0.5625 1.234375,1.59375 z m 0,0"
   id="id-d1fe6427-99aa-4bdc-bdf0-eabc7fa69c9c" />
      </g><g
   transform="translate(159.97,134.765)"
   id="g21305"><path
   d="m 3.203125,-5.375 c -0.640625,0 -1.125,0.40625 -1.40625,1.1875 L 1.703125,-5.25 H 0.921875 V 0 h 0.90625 v -3 c 0.21875,-1 0.609375,-1.46875 1.265625,-1.46875 0.1875,0 0.296875,0.015625 0.453125,0.046875 L 3.71875,-5.3125 C 3.5625,-5.359375 3.375,-5.375 3.203125,-5.375 Z m 0,0"
   id="id-f5b2f1c1-e666-419e-a6b8-c0002669f958" />
      </g><g
   transform="translate(163.785,134.765)"
   id="g21308"><path
   d="m 3.25,-0.84375 c -0.265625,0.140625 -0.46875,0.203125 -0.703125,0.203125 -0.453125,0 -0.625,-0.25 -0.625,-0.78125 v -3.125 h 1.15625 L 3.171875,-5.25 h -1.25 V -6.546875 L 1,-6.4375 V -5.25 H 0.09375 v 0.703125 H 1 V -1.375 c 0,0.96875 0.53125,1.5 1.421875,1.5 C 2.875,0.125 3.25,0 3.59375,-0.234375 Z m 0,0"
   id="id-6d694d1b-3d6e-4e02-a2c5-6e0b2312f9ff" />
      </g><g
   transform="translate(167.382,134.765)"
   id="g21311"><path
   d="M 4.8125,-5.25 H 3.890625 v 3.75 c -0.3125,0.515625 -0.734375,0.90625 -1.3125,0.90625 -0.5625,0 -0.796875,-0.28125 -0.796875,-0.984375 V -5.25 H 0.859375 v 3.765625 c 0,1.03125 0.546875,1.609375 1.46875,1.609375 0.75,0 1.234375,-0.296875 1.625,-0.9375 L 4.03125,0 H 4.8125 Z m 0,0"
   id="id-ce4d416c-747a-4a85-91ac-4acfa166441a" />
      </g><g
   transform="translate(173.11,134.765)"
   id="g21314"><path
   d="m 3.203125,-5.375 c -0.640625,0 -1.125,0.40625 -1.40625,1.1875 L 1.703125,-5.25 H 0.921875 V 0 h 0.90625 v -3 c 0.21875,-1 0.609375,-1.46875 1.265625,-1.46875 0.1875,0 0.296875,0.015625 0.453125,0.046875 L 3.71875,-5.3125 C 3.5625,-5.359375 3.375,-5.375 3.203125,-5.375 Z m 0,0"
   id="id-40f68eab-fef3-46c1-a3b2-5e8596f55f7d" />
      </g><g
   transform="translate(176.926,134.765)"
   id="g21317"><path
   d="m 3.3125,-5.375 c -0.625,0 -1.125,0.296875 -1.484375,0.78125 v -2.890625 l -0.90625,0.125 V 0 H 1.71875 L 1.8125,-0.578125 C 2.171875,-0.140625 2.625,0.125 3.203125,0.125 c 1.28125,0 2.078125,-1.109375 2.078125,-2.75 0,-1.765625 -0.78125,-2.75 -1.96875,-2.75 z m -0.328125,4.765625 c -0.46875,0 -0.875,-0.28125 -1.15625,-0.703125 v -2.515625 c 0.28125,-0.421875 0.65625,-0.8125 1.234375,-0.8125 0.734375,0 1.21875,0.515625 1.21875,2.015625 0,1.421875 -0.515625,2.015625 -1.296875,2.015625 z m 0,0"
   id="id-b008307e-57c7-4aef-a1f8-a5cae3f64045" />
      </g></g>
  <g
   fill="#000000"
   fill-opacity="1"
   id="id-0332cc91-d18e-4d2e-9063-bcd60fa70b23"
   transform="translate(-149.634,-126.984)">
    <g
   transform="translate(182.714,134.765)"
   id="g21321"><path
   d="M 4.4375,-1.21875 V -3.625 c 0,-1.09375 -0.578125,-1.75 -1.84375,-1.75 C 2,-5.375 1.421875,-5.25 0.78125,-5.015625 L 1,-4.34375 C 1.546875,-4.53125 2.03125,-4.625 2.421875,-4.625 c 0.734375,0 1.09375,0.28125 1.09375,1.03125 v 0.390625 H 2.71875 c -1.46875,0 -2.3125,0.609375 -2.3125,1.734375 0,0.9375 0.625,1.59375 1.671875,1.59375 0.640625,0 1.1875,-0.25 1.5625,-0.796875 0.15625,0.515625 0.5,0.734375 1.03125,0.796875 L 4.875,-0.515625 C 4.609375,-0.625 4.4375,-0.765625 4.4375,-1.21875 Z M 2.28125,-0.5625 c -0.59375,0 -0.90625,-0.328125 -0.90625,-0.953125 0,-0.71875 0.484375,-1.078125 1.453125,-1.078125 h 0.6875 v 1.203125 C 3.21875,-0.84375 2.828125,-0.5625 2.28125,-0.5625 Z m 0,0"
   id="id-260253d5-70a6-44ae-bcf9-a0bfa711edd9" />
      </g><g
   transform="translate(188.084,134.765)"
   id="g21324"><path
   d="m 3.25,-0.84375 c -0.265625,0.140625 -0.46875,0.203125 -0.703125,0.203125 -0.453125,0 -0.625,-0.25 -0.625,-0.78125 v -3.125 h 1.15625 L 3.171875,-5.25 h -1.25 V -6.546875 L 1,-6.4375 V -5.25 H 0.09375 v 0.703125 H 1 V -1.375 c 0,0.96875 0.53125,1.5 1.421875,1.5 C 2.875,0.125 3.25,0 3.59375,-0.234375 Z m 0,0"
   id="id-84f5ed08-22d5-4271-bcfa-8ba2bf74427c" />
      </g><g
   transform="translate(191.681,134.765)"
   id="g21327"><path
   d="m 1.359375,-7.78125 c -0.375,0 -0.625,0.28125 -0.625,0.640625 0,0.34375 0.25,0.609375 0.625,0.609375 0.390625,0 0.65625,-0.265625 0.65625,-0.609375 C 2.015625,-7.5 1.75,-7.78125 1.359375,-7.78125 Z M 1.828125,-5.25 H 0.921875 V 0 h 0.90625 z m 0,0"
   id="id-0d2ef676-7430-4099-9c29-801b621027de" />
      </g><g
   transform="translate(194.43,134.765)"
   id="g21330"><path
   d="m 2.921875,-5.375 c -1.5,0 -2.359375,1.125 -2.359375,2.75 0,1.671875 0.859375,2.75 2.34375,2.75 C 4.390625,0.125 5.25,-1 5.25,-2.625 c 0,-1.671875 -0.828125,-2.75 -2.328125,-2.75 z m 0,0.734375 c 0.859375,0 1.34375,0.640625 1.34375,2.015625 0,1.375 -0.484375,2 -1.359375,2 -0.875,0 -1.34375,-0.625 -1.34375,-2 0,-1.375 0.484375,-2.015625 1.359375,-2.015625 z m 0,0"
   id="id-78215df6-5c58-4d9f-b9c3-61b6d2ed3441" />
      </g><g
   transform="translate(200.249,134.765)"
   id="g21333"><path
   d="m 3.390625,-5.375 c -0.6875,0 -1.25,0.359375 -1.609375,0.90625 L 1.703125,-5.25 H 0.921875 V 0 h 0.90625 V -3.734375 C 2.1875,-4.28125 2.578125,-4.65625 3.171875,-4.65625 3.671875,-4.65625 4,-4.421875 4,-3.640625 V 0 h 0.921875 v -3.765625 c 0,-1 -0.5625,-1.609375 -1.53125,-1.609375 z m 0,0"
   id="id-9dee87a0-c2a4-4e70-9023-5074ce53ba0b" />
      </g></g>
</g></svg>
