<?xml version="1.0" encoding="UTF-8" standalone="no"?>
<svg
   xml:space="preserve"
   inkscape:version="1.2.1 (9c6d41e410, 2022-07-14)"
   sodipodi:docname="perturbation.svg"
   id="svg32714"
   version="1.2"
   viewBox="0 0 685.91881 237.55694"
   height="237.55693pt"
   width="685.91882pt"
   xmlns:inkscape="http://www.inkscape.org/namespaces/inkscape"
   xmlns:sodipodi="http://sodipodi.sourceforge.net/DTD/sodipodi-0.dtd"
   xmlns="http://www.w3.org/2000/svg"
   xmlns:svg="http://www.w3.org/2000/svg"
   xmlns:ns16="http://www.iki.fi/pav/software/textext/"><sodipodi:namedview
     id="namedview32716"
     pagecolor="#505050"
     bordercolor="#eeeeee"
     borderopacity="1"
     inkscape:pageshadow="0"
     inkscape:pageopacity="0"
     inkscape:pagecheckerboard="0"
     inkscape:document-units="pt"
     showgrid="false"
     inkscape:zoom="1.1540071"
     inkscape:cx="480.93292"
     inkscape:cy="162.91061"
     inkscape:window-width="1920"
     inkscape:window-height="1019"
     inkscape:window-x="1920"
     inkscape:window-y="151"
     inkscape:window-maximized="1"
     inkscape:current-layer="svg32714"
     inkscape:snap-bbox="true"
     inkscape:object-paths="true"
     inkscape:snap-intersection-paths="true"
     inkscape:snap-global="false"
     inkscape:showpageshadow="0"
     inkscape:deskcolor="#505050" /><defs
     id="defs32609"><inkscape:path-effect
       effect="spiro"
       id="path-effect15818"
       is_visible="true"
       lpeversion="1" /><inkscape:path-effect
       effect="spiro"
       id="path-effect13972"
       is_visible="true"
       lpeversion="1" /><inkscape:path-effect
       effect="spiro"
       id="path-effect13467"
       is_visible="true"
       lpeversion="1" /><inkscape:path-effect
       effect="spiro"
       id="path-effect13026"
       is_visible="true"
       lpeversion="1" /><marker
       style="overflow:visible"
       id="RoundedArrow"
       refX="0"
       refY="0"
       orient="auto-start-reverse"
       inkscape:stockid="RoundedArrow"
       markerWidth="6.1347523"
       markerHeight="5.9304953"
       viewBox="0 0 6.1347524 5.9304951"
       inkscape:isstock="true"
       inkscape:collect="always"
       preserveAspectRatio="xMidYMid"><path
         transform="scale(0.7)"
         d="m -0.21114562,-4.1055728 6.42229122,3.21114561 a 1,1 90 0 1 0,1.78885438 L -0.21114562,4.1055728 A 1.236068,1.236068 31.717474 0 1 -2,3 v -6 a 1.236068,1.236068 148.28253 0 1 1.78885438,-1.1055728 z"
         style="fill:context-stroke;fill-rule:evenodd;stroke:none"
         id="path1367" /></marker><inkscape:path-effect
       effect="spiro"
       id="path-effect97285"
       is_visible="true"
       lpeversion="1" /><marker
       style="overflow:visible"
       id="EmptyTriangleIn"
       refX="-1"
       refY="0"
       orient="auto-start-reverse"
       inkscape:stockid="EmptyTriangleIn"
       markerWidth="5.8241119"
       markerHeight="6.7330775"
       viewBox="0 0 5.8241121 6.7330776"
       inkscape:isstock="true"
       inkscape:collect="always"
       preserveAspectRatio="xMidYMid"><path
         transform="scale(0.5)"
         style="fill:context-fill;fill-rule:evenodd;stroke:context-stroke;stroke-width:2"
         d="M 5.77,0 -2.88,5 V -5 Z"
         id="path153" /></marker><inkscape:path-effect
       effect="spiro"
       id="path-effect97007"
       is_visible="true"
       lpeversion="1" /><marker
       style="overflow:visible"
       id="marker9621"
       refX="0"
       refY="0"
       orient="auto"
       inkscape:stockid="Arrow2Mend"
       inkscape:isstock="true"><path
         transform="scale(-0.6)"
         d="M 8.7185878,4.0337352 -2.2072895,0.01601326 8.7185884,-4.0017078 c -1.7454984,2.3720609 -1.7354408,5.6174519 -6e-7,8.035443 z"
         style="fill:context-stroke;fill-rule:evenodd;stroke:context-stroke;stroke-width:0.625;stroke-linejoin:round"
         id="path9619" /></marker><marker
       style="overflow:visible"
       id="Arrow2Mend"
       refX="0"
       refY="0"
       orient="auto"
       inkscape:stockid="Arrow2Mend"
       inkscape:isstock="true"><path
         transform="scale(-0.6)"
         d="M 8.7185878,4.0337352 -2.2072895,0.01601326 8.7185884,-4.0017078 c -1.7454984,2.3720609 -1.7354408,5.6174519 -6e-7,8.035443 z"
         style="fill:context-stroke;fill-rule:evenodd;stroke:context-stroke;stroke-width:0.625;stroke-linejoin:round"
         id="path9370" /></marker><marker
       style="overflow:visible"
       id="Arrow2Lend"
       refX="0"
       refY="0"
       orient="auto"
       inkscape:stockid="Arrow2Lend"
       inkscape:isstock="true"><path
         transform="matrix(-1.1,0,0,-1.1,-1.1,0)"
         d="M 8.7185878,4.0337352 -2.2072895,0.01601326 8.7185884,-4.0017078 c -1.7454984,2.3720609 -1.7354408,5.6174519 -6e-7,8.035443 z"
         style="fill:context-stroke;fill-rule:evenodd;stroke:context-stroke;stroke-width:0.625;stroke-linejoin:round"
         id="path9364" /></marker><inkscape:path-effect
       effect="spiro"
       id="path-effect8375"
       is_visible="true"
       lpeversion="1" /><inkscape:path-effect
       effect="spiro"
       id="path-effect8371"
       is_visible="true"
       lpeversion="1" /><inkscape:path-effect
       effect="spiro"
       id="path-effect8334"
       is_visible="true"
       lpeversion="1" /><inkscape:path-effect
       effect="spiro"
       id="path-effect8213"
       is_visible="true"
       lpeversion="1" /><clipPath
       id="clip1"><path
         d="m 28,134 h 11 v 17.24219 H 28 Z m 0,0"
         id="path32600" /></clipPath><clipPath
       id="clip2"><path
         d="m 75,134 h 12 v 17.24219 H 75 Z m 0,0"
         id="path32603" /></clipPath><clipPath
       id="clip3"><path
         d="m 345,133 h 10.31641 v 13 H 345 Z m 0,0"
         id="path32606" /></clipPath><g
       id="id-d512316c-f310-4ef7-b32f-ea93f87dd485-7"><g
         id="id-aec88e65-99b3-4c56-a594-255c12e961eb-5"><path
           d="M 5.40625,-10.46875 H 1.21875 V 3.484375 h 4.1875 z M 4.875,-9.953125 V 2.96875 H 1.78125 V -9.953125 Z M 3.234375,-4.5 c -0.390625,0 -0.9375,0.125 -0.9375,0.390625 0,0.125 0.09375,0.234375 0.25,0.234375 0.03125,0 0.078125,-0.015625 0.125,-0.03125 0.171875,-0.078125 0.3125,-0.109375 0.515625,-0.109375 0.5,0 0.609375,0.296875 0.609375,0.6875 0,0.53125 -0.1875,0.71875 -0.90625,0.765625 v 0.84375 c 0,0.140625 0.125,0.234375 0.25,0.234375 0.125,0 0.25,-0.09375 0.25,-0.234375 V -2.171875 C 4.0625,-2.265625 4.34375,-2.65625 4.34375,-3.34375 4.34375,-3.953125 4.09375,-4.5 3.234375,-4.5 Z m -0.09375,3.296875 c -0.203125,0 -0.34375,0.15625 -0.34375,0.359375 0,0.203125 0.140625,0.359375 0.34375,0.359375 0.203125,0 0.34375,-0.15625 0.34375,-0.359375 0,-0.203125 -0.140625,-0.359375 -0.34375,-0.359375 z m 0,0"
           id="id-7c2a457f-f768-4159-9e9f-9df2cc3e5e13-3" /></g><g
         id="id-cbdc8fff-0ca5-40b0-a6c3-fd6785a6998c-5"><path
           d="M 4.03125,-5.25 H 0.484375 v 0.78125 h 2.5 L 0.25,-0.6875 V 0 H 3.953125 L 4.0625,-0.765625 H 1.28125 l 2.75,-3.796875 z m 0,0"
           id="id-d973a2bc-a0f1-46d3-be99-e1468b8100fd-6" /></g><g
         id="id-5686a47d-2053-4c4d-820f-b70b1f5df129-2"><path
           d="m 4.921875,-2.78125 c 0,-1.609375 -0.75,-2.59375 -2.171875,-2.59375 -1.359375,0 -2.1875,1.171875 -2.1875,2.796875 0,1.671875 0.859375,2.703125 2.328125,2.703125 0.734375,0 1.3125,-0.25 1.828125,-0.65625 L 4.328125,-1.09375 C 3.875,-0.765625 3.484375,-0.625 2.953125,-0.625 c -0.75,0 -1.3125,-0.46875 -1.40625,-1.6875 h 3.34375 c 0.015625,-0.125 0.03125,-0.296875 0.03125,-0.46875 z M 4,-2.984375 H 1.546875 c 0.0625,-1.171875 0.53125,-1.65625 1.21875,-1.65625 0.828125,0 1.234375,0.5625 1.234375,1.59375 z m 0,0"
           id="id-a332717d-d305-44bd-a0ed-aad2acac9b2e-9" /></g><g
         id="id-0e774e49-ecc7-4b16-9075-b05632ae91b5-1"><path
           d="m 3.203125,-5.375 c -0.640625,0 -1.125,0.40625 -1.40625,1.1875 L 1.703125,-5.25 H 0.921875 V 0 h 0.90625 v -3 c 0.21875,-1 0.609375,-1.46875 1.265625,-1.46875 0.1875,0 0.296875,0.015625 0.453125,0.046875 L 3.71875,-5.3125 C 3.5625,-5.359375 3.375,-5.375 3.203125,-5.375 Z m 0,0"
           id="id-af3d88dc-cd40-4e0c-89bc-b4785b17be2d-2" /></g><g
         id="id-b16cf8d5-1627-44bd-a3e3-091b7fd09800-7"><path
           d="m 2.921875,-5.375 c -1.5,0 -2.359375,1.125 -2.359375,2.75 0,1.671875 0.859375,2.75 2.34375,2.75 C 4.390625,0.125 5.25,-1 5.25,-2.625 c 0,-1.671875 -0.828125,-2.75 -2.328125,-2.75 z m 0,0.734375 c 0.859375,0 1.34375,0.640625 1.34375,2.015625 0,1.375 -0.484375,2 -1.359375,2 -0.875,0 -1.34375,-0.625 -1.34375,-2 0,-1.375 0.484375,-2.015625 1.359375,-2.015625 z m 0,0"
           id="id-20005495-b261-4cc2-b6b6-ed297e2db39b-0" /></g><g
         id="id-6b9ff16d-207e-4e6d-bab3-4e5b23972824-9"><path
           d="m 3.25,-0.84375 c -0.265625,0.140625 -0.46875,0.203125 -0.703125,0.203125 -0.453125,0 -0.625,-0.25 -0.625,-0.78125 v -3.125 h 1.15625 L 3.171875,-5.25 h -1.25 V -6.546875 L 1,-6.4375 V -5.25 H 0.09375 v 0.703125 H 1 V -1.375 c 0,0.96875 0.53125,1.5 1.421875,1.5 C 2.875,0.125 3.25,0 3.59375,-0.234375 Z m 0,0"
           id="id-32b60361-bbea-40ea-b977-53eb510acd35-3" /></g><g
         id="id-71869a43-d697-4ceb-a7f9-8ebf4b864781-6"><path
           d="m 3.390625,-5.375 c -0.65625,0 -1.171875,0.328125 -1.5625,0.84375 v -2.921875 l -0.90625,0.09375 V 0 h 0.90625 V -3.734375 C 2.1875,-4.28125 2.59375,-4.65625 3.15625,-4.65625 3.65625,-4.65625 4,-4.421875 4,-3.640625 V 0 H 4.921875 V -3.765625 C 4.921875,-4.75 4.34375,-5.375 3.390625,-5.375 Z m 0,0"
           id="id-1e3d112e-4560-4763-824b-0e30cffc45d8-0" /></g><g
         id="id-1e91a301-79e9-4d0c-a978-b6b3c6a52f9e-6"><path
           d="m 2.375,-5.375 c -1.09375,0 -1.890625,0.609375 -1.890625,1.453125 0,0.734375 0.4375,1.21875 1.578125,1.515625 1.015625,0.265625 1.28125,0.46875 1.28125,0.984375 0,0.5 -0.4375,0.796875 -1.125,0.796875 -0.578125,0 -1.0625,-0.1875 -1.484375,-0.5 L 0.25,-0.5625 c 0.453125,0.390625 1.09375,0.6875 1.984375,0.6875 1.0625,0 2.078125,-0.5 2.078125,-1.59375 0,-0.921875 -0.640625,-1.359375 -1.75,-1.640625 -0.84375,-0.21875 -1.125,-0.421875 -1.125,-0.84375 0,-0.421875 0.359375,-0.6875 0.96875,-0.6875 0.484375,0 0.890625,0.140625 1.359375,0.4375 L 4.15625,-4.78125 C 3.65625,-5.15625 3.109375,-5.375 2.375,-5.375 Z m 0,0"
           id="id-53a9d073-0486-42ca-ac9a-a430e0ddfb98-2" /></g><g
         id="id-0db217cc-3c59-4772-870f-536584d3a0e2-6"><path
           d="m 1.359375,-7.78125 c -0.375,0 -0.625,0.28125 -0.625,0.640625 0,0.34375 0.25,0.609375 0.625,0.609375 0.390625,0 0.65625,-0.265625 0.65625,-0.609375 C 2.015625,-7.5 1.75,-7.78125 1.359375,-7.78125 Z M 1.828125,-5.25 H 0.921875 V 0 h 0.90625 z m 0,0"
           id="id-87b2e3dc-de9a-40b7-8807-e8766aeb7488-1" /></g></g><inkscape:path-effect
       effect="spiro"
       id="path-effect97007-1"
       is_visible="true"
       lpeversion="1" /><inkscape:path-effect
       effect="spiro"
       id="path-effect97285-2"
       is_visible="true"
       lpeversion="1" /><clipPath
       id="clip-0"><path
         clip-rule="nonzero"
         d="m 355,64 h 203.05469 v 4 H 355 Z m 0,0"
         id="path4083" /></clipPath><clipPath
       id="clip-1"><path
         clip-rule="nonzero"
         d="m 405,88 h 114 v 61.89453 H 405 Z m 0,0"
         id="path4086" /></clipPath><clipPath
       id="clip-2"><path
         clip-rule="nonzero"
         d="m 547,8 h 11.05469 V 23 H 547 Z m 0,0"
         id="path4089" /></clipPath><clipPath
       id="clip-3"><path
         clip-rule="nonzero"
         d="m 25,133 h 11 v 16.89453 H 25 Z m 0,0"
         id="path4092" /></clipPath><clipPath
       id="clip-4"><path
         clip-rule="nonzero"
         d="m 73,133 h 11 v 16.89453 H 73 Z m 0,0"
         id="path4095" /></clipPath><marker
       style="overflow:visible"
       id="Arrow2Mend-7"
       refX="0"
       refY="0"
       orient="auto"
       inkscape:stockid="Arrow2Mend"
       inkscape:isstock="true"><path
         transform="scale(-0.6)"
         d="M 8.7185878,4.0337352 -2.2072895,0.01601326 8.7185884,-4.0017078 c -1.7454984,2.3720609 -1.7354408,5.6174519 -6e-7,8.035443 z"
         style="fill:context-stroke;fill-rule:evenodd;stroke:context-stroke;stroke-width:0.625;stroke-linejoin:round"
         id="path9370-5" /></marker><inkscape:path-effect
       effect="spiro"
       id="path-effect8371-3"
       is_visible="true"
       lpeversion="1" /><filter
       inkscape:collect="always"
       style="color-interpolation-filters:sRGB"
       id="filter15718"
       x="-0.10932131"
       y="-0.10932131"
       width="1.2186426"
       height="1.2186426"><feGaussianBlur
         inkscape:collect="always"
         stdDeviation="9.1101094"
         id="feGaussianBlur15720" /></filter></defs><circle
     style="opacity:1;mix-blend-mode:normal;fill:#5090a0;fill-opacity:1;stroke:none;stroke-width:3.86899;stroke-dasharray:none;filter:url(#filter15718)"
     id="path14894"
     r="100"
     cy="90.549911"
     cx="176.89642"
     transform="matrix(0.97467842,0,0,0.97467842,32.15889,30.521422)" /><path
     style="fill:none;stroke:#303030;stroke-width:3.12887;stroke-linecap:butt;stroke-linejoin:miter;stroke-miterlimit:4;stroke-dasharray:none;stroke-opacity:1"
     d="M 460.75629,119.24426 H 685.91885"
     id="path8211"
     inkscape:path-effect="#path-effect8213"
     inkscape:original-d="m 460.75629,119.24426 c 75.05505,-7.5e-4 150.10924,-7.5e-4 225.16256,0" /><path
     fill-rule="nonzero"
     fill="#304070"
     fill-opacity="1"
     d="m 292.29886,132.41018 c 0,23.5353 -19.07759,42.60986 -42.60986,42.60986 -23.5353,0 -42.60986,-19.07456 -42.60986,-42.60986 0,-23.53227 19.07456,-42.609871 42.60986,-42.609871 23.53227,0 42.60986,19.077601 42.60986,42.609871 z m 0,0"
     id="path4102-6"
     style="stroke-width:0.774725" /><path
     fill-rule="nonzero"
     fill="#307070"
     fill-opacity="1"
     d="m 204.18739,88.532319 c 0,24.377731 -19.76614,44.140731 -44.1407,44.140731 -24.37772,0 -44.14072,-19.763 -44.14072,-44.140731 0,-24.37458 19.763,-44.14072 44.14072,-44.14072 24.37456,0 44.1407,19.76614 44.1407,44.14072 z m 0,0"
     id="path4100-3"
     style="fill:#00704e;fill-opacity:1;stroke-width:0.802559" /><path
     style="fill:#304070;fill-opacity:1;fill-rule:nonzero;stroke:none;stroke-width:0.653841"
     d="m 583.79966,119.24426 c 0,17.43917 -14.13675,31.57339 -31.57337,31.57339 -17.43916,0 -31.57338,-14.13422 -31.57338,-31.57339 0,-17.43662 14.13422,-31.573381 31.57338,-31.573381 17.43662,0 31.57337,14.136761 31.57337,31.573381 z m 0,0"
     id="path9341" /><path
     style="fill:#304070;fill-opacity:1;fill-rule:nonzero;stroke:none;stroke-width:0.653841"
     d="m 493.79966,119.24426 c 0,17.43917 -14.13675,31.57339 -31.57337,31.57339 -17.43917,0 -31.57338,-14.13422 -31.57338,-31.57339 0,-17.43662 14.13421,-31.573381 31.57338,-31.573381 17.43662,0 31.57337,14.136761 31.57337,31.573381 z m 0,0"
     id="path8295" /><path
     style="fill:none;stroke:#000000;stroke-width:2.419;stroke-linecap:butt;stroke-linejoin:miter;stroke-miterlimit:4;stroke-dasharray:none;stroke-dashoffset:0;stroke-opacity:1;marker-end:url(#Arrow2Mend-7)"
     d="m 300.28182,137.22785 c 16.50938,14.9131 38.73331,23.33412 60.97984,23.10629 25.63891,-0.26257 50.93463,-12.15511 67.49341,-31.73136"
     id="path8369-5"
     inkscape:path-effect="#path-effect8371-3"
     inkscape:original-d="m 300.28182,137.22785 c 5.27797,4.97561 55.70406,18.12918 60.97984,23.10629 5.27575,4.97711 38.39299,-22.10401 67.49341,-31.73136"
     sodipodi:nodetypes="csc" /><g
     transform="matrix(7.0517666,0,0,7.0517666,445.52258,100.97561)"
     ns16:version="1.6.0"
     ns16:texconverter="pdflatex"
     ns16:pdfconverter="inkscape"
     ns16:text="1"
     ns16:preamble="/home/kirito/.config/inkscape/textext.tex"
     ns16:scale="1.538712710378192"
     ns16:alignment="middle center"
     ns16:stroke-to-path="0"
     ns16:inkscapeversion="1.1.2"
     ns16:jacobian_sqrt="1.15403"
     id="g5204"
     style="fill:#fffff0;fill-opacity:1"><defs
       id="id-dd0b2e13-3573-4216-8844-eac4baa350d1"><g
         id="id-b973796e-d354-4848-a5ff-eaebdb09e24b"><g
           id="id-c3d102dd-40fc-4a9c-b5fd-9099f25be71d"><path
             d="M 5.40625,-10.46875 H 1.21875 V 3.484375 h 4.1875 z M 4.875,-9.953125 V 2.96875 H 1.78125 V -9.953125 Z M 3.234375,-4.5 c -0.390625,0 -0.9375,0.125 -0.9375,0.390625 0,0.125 0.09375,0.234375 0.25,0.234375 0.03125,0 0.078125,-0.015625 0.125,-0.03125 0.171875,-0.078125 0.3125,-0.109375 0.515625,-0.109375 0.5,0 0.609375,0.296875 0.609375,0.6875 0,0.53125 -0.1875,0.71875 -0.90625,0.765625 v 0.84375 c 0,0.140625 0.125,0.234375 0.25,0.234375 0.125,0 0.25,-0.09375 0.25,-0.234375 V -2.171875 C 4.0625,-2.265625 4.34375,-2.65625 4.34375,-3.34375 4.34375,-3.953125 4.09375,-4.5 3.234375,-4.5 Z m -0.09375,3.296875 c -0.203125,0 -0.34375,0.15625 -0.34375,0.359375 0,0.203125 0.140625,0.359375 0.34375,0.359375 0.203125,0 0.34375,-0.15625 0.34375,-0.359375 0,-0.203125 -0.140625,-0.359375 -0.34375,-0.359375 z m 0,0"
             id="id-26b0e9d6-a94f-4966-a84e-15f1b8718643" /></g><g
           id="id-1667c4f7-7ac4-4136-847d-d91f19a27025"><path
             d="m 3.21875,-5.625 h -0.8125 l -2.0625,1.28125 0.40625,0.640625 1.546875,-0.9375 V 0 H 3.21875 Z m 0,0"
             id="id-70203c3e-0722-4afe-a49b-8cd7dbe769d6" /></g></g></defs><g
       fill="#000000"
       fill-opacity="1"
       id="id-5ddd0cd7-14a8-4e50-9881-ece535838dfe"
       transform="translate(-149.056,-129.14)"
       style="fill:#fffff0;fill-opacity:1"><g
         transform="translate(148.712,134.765)"
         id="g5201"
         style="fill:#fffff0;fill-opacity:1"><path
           d="m 3.21875,-5.625 h -0.8125 l -2.0625,1.28125 0.40625,0.640625 1.546875,-0.9375 V 0 H 3.21875 Z m 0,0"
           id="id-f140cd23-f640-40a4-aff7-73312f5ce338"
           style="fill:#fffff0;fill-opacity:1" /></g></g></g><g
     transform="matrix(7.05177,0,0,7.05177,537.2946,99.078849)"
     ns16:version="1.6.0"
     ns16:texconverter="pdflatex"
     ns16:pdfconverter="inkscape"
     ns16:text="2"
     ns16:preamble="/home/kirito/.config/inkscape/textext.tex"
     ns16:scale="9.402392397113081"
     ns16:alignment="middle center"
     ns16:stroke-to-path="0"
     ns16:inkscapeversion="1.1.2"
     ns16:jacobian_sqrt="7.05177"
     style="fill:#fffff0;fill-opacity:1;stroke-width:0"
     id="g5585"><defs
       id="id-6a4a5511-3f68-49db-9157-c4ad87183321"
       style="fill:#fffff0;fill-opacity:1;stroke-width:0"><g
         id="id-57d23a1f-89b1-4436-bbc7-2a4cdee42d2d"
         style="fill:#fffff0;fill-opacity:1;stroke-width:0"><g
           id="id-443c3c25-1e2b-40b0-9286-a500f1a904b5"
           style="fill:#fffff0;fill-opacity:1;stroke-width:0"><path
             d="M 5.40625,-10.46875 H 1.21875 V 3.484375 h 4.1875 z M 4.875,-9.953125 V 2.96875 H 1.78125 V -9.953125 Z M 3.234375,-4.5 c -0.390625,0 -0.9375,0.125 -0.9375,0.390625 0,0.125 0.09375,0.234375 0.25,0.234375 0.03125,0 0.078125,-0.015625 0.125,-0.03125 0.171875,-0.078125 0.3125,-0.109375 0.515625,-0.109375 0.5,0 0.609375,0.296875 0.609375,0.6875 0,0.53125 -0.1875,0.71875 -0.90625,0.765625 v 0.84375 c 0,0.140625 0.125,0.234375 0.25,0.234375 0.125,0 0.25,-0.09375 0.25,-0.234375 V -2.171875 C 4.0625,-2.265625 4.34375,-2.65625 4.34375,-3.34375 4.34375,-3.953125 4.09375,-4.5 3.234375,-4.5 Z m -0.09375,3.296875 c -0.203125,0 -0.34375,0.15625 -0.34375,0.359375 0,0.203125 0.140625,0.359375 0.34375,0.359375 0.203125,0 0.34375,-0.15625 0.34375,-0.359375 0,-0.203125 -0.140625,-0.359375 -0.34375,-0.359375 z m 0,0"
             id="id-52a0cf9d-15e8-47c4-8c72-12bce957fc6c"
             style="fill:#fffff0;fill-opacity:1;stroke-width:0" /></g><g
           id="id-34e0aa38-a64d-4524-83f6-c59d6df62f79"
           style="fill:#fffff0;fill-opacity:1;stroke-width:0"><path
             d="m 2.21875,-5.71875 c -0.875,0 -1.515625,0.359375 -2.0625,1.046875 L 0.734375,-4.1875 c 0.484375,-0.578125 0.921875,-0.78125 1.46875,-0.78125 0.65625,0 1.125,0.40625 1.125,1.046875 0,0.796875 -0.3125,1.234375 -3.03125,3.1875 V 0 H 4.28125 L 4.390625,-0.765625 H 1.46875 c 2.578125,-1.640625 2.828125,-2.28125 2.828125,-3.1875 0,-1.015625 -0.8125,-1.765625 -2.078125,-1.765625 z m 0,0"
             id="id-e40e3187-e742-497f-8c55-b1bcdcfb6095"
             style="fill:#fffff0;fill-opacity:1;stroke-width:0" /></g></g></defs><g
       fill-opacity="1"
       id="id-70b7229c-a90e-43af-807a-c81d317eb872"
       transform="translate(-148.868,-129.046)"
       style="fill:#fffff0;fill-opacity:1;stroke-width:0"><g
         transform="translate(148.712,134.765)"
         style="fill:#fffff0;fill-opacity:1;stroke-width:0"
         id="g6493"><path
           d="m 2.21875,-5.71875 c -0.875,0 -1.515625,0.359375 -2.0625,1.046875 L 0.734375,-4.1875 c 0.484375,-0.578125 0.921875,-0.78125 1.46875,-0.78125 0.65625,0 1.125,0.40625 1.125,1.046875 0,0.796875 -0.3125,1.234375 -3.03125,3.1875 V 0 H 4.28125 L 4.390625,-0.765625 H 1.46875 c 2.578125,-1.640625 2.828125,-2.28125 2.828125,-3.1875 0,-1.015625 -0.8125,-1.765625 -2.078125,-1.765625 z m 0,0"
           id="id-81eae40f-0dfb-4709-a454-109ec118b029"
           style="fill:#fffff0;fill-opacity:1;stroke-width:0" /></g></g></g><path
     style="fill:none;fill-opacity:1;stroke:#ffffff;stroke-width:4.252;stroke-miterlimit:4.5;stroke-dasharray:none;stroke-dashoffset:0;stroke-opacity:1;marker-end:url(#EmptyTriangleIn)"
     d="m 233.05164,142.31434 v -28.9289"
     id="path97005"
     inkscape:path-effect="#path-effect97007"
     inkscape:original-d="m 233.05164,142.31434 c 7.5e-4,-9.64372 7.5e-4,-19.28668 0,-28.9289" /><path
     style="fill:none;fill-opacity:1;stroke:#ffffff;stroke-width:4.252;stroke-miterlimit:4.5;stroke-dasharray:none;stroke-dashoffset:0;stroke-opacity:1;marker-end:url(#EmptyTriangleIn)"
     d="m 270.83525,117.46627 v 28.9289"
     id="path97281"
     inkscape:path-effect="#path-effect97285"
     inkscape:original-d="m 270.83525,117.46627 c 7.5e-4,9.64371 7.5e-4,19.28667 0,28.9289" /><path
     style="fill:none;fill-opacity:1;stroke:#ffffff;stroke-width:4.252;stroke-miterlimit:4.5;stroke-dasharray:none;stroke-dashoffset:0;stroke-opacity:1;marker-end:url(#RoundedArrow)"
     d="M 145.77367,98.118939 V 69.190049"
     id="path97005-9"
     inkscape:path-effect="#path-effect97007-1"
     inkscape:original-d="m 145.77367,98.118939 c 7.5e-4,-9.64372 7.5e-4,-19.28668 0,-28.92889" /><path
     style="fill:none;fill-opacity:1;stroke:#ffffff;stroke-width:4.252;stroke-miterlimit:4.5;stroke-dasharray:none;stroke-dashoffset:0;stroke-opacity:1;marker-end:url(#RoundedArrow)"
     d="M 178.03605,78.644409 V 107.57331"
     id="path97281-3"
     inkscape:path-effect="#path-effect97285-2"
     inkscape:original-d="m 178.03605,78.644409 c 7.5e-4,9.64372 7.5e-4,19.28668 0,28.928901" /><g
     ns16:version="1.8.1"
     ns16:texconverter="xelatex"
     ns16:pdfconverter="inkscape"
     ns16:text="$t$"
     ns16:preamble="/home/kirito/.config/textext/beamer_preamble.tex"
     ns16:scale="5.0"
     ns16:alignment="middle center"
     ns16:stroke-to-path="0"
     ns16:inkscapeversion="1.2.1"
     transform="matrix(3.75,0,0,3.75,354.81729,126.31414)"
     ns16:jacobian_sqrt="3.75"
     id="g9131"><defs
   id="id-7591ea8d-d0f8-43b4-8342-0483c8353ec0">
    <g
   id="id-b37c3b16-3a2d-4fd1-9b91-9d20855296e8">
      <g
   id="id-4d5e0fee-1182-4782-9b45-c52319d0f905">
        <path
   d="m 5.4375,-6.4375 v 5.890625 H 1.34375 V -6.4375 Z m 0.546875,-0.546875 h -5.1875 V 0 h 5.1875 z m -2.75,4.953125 c -0.21875,0 -0.40625,0.1875 -0.40625,0.421875 0,0.21875 0.1875,0.40625 0.40625,0.40625 0.25,0 0.421875,-0.1875 0.421875,-0.40625 0,-0.234375 -0.171875,-0.421875 -0.421875,-0.421875 z M 3.4375,-5.453125 c -0.5,0 -0.90625,0.1875 -1.25,0.59375 l 0.390625,0.28125 C 2.828125,-4.875 3.09375,-5 3.40625,-5 3.765625,-5 4,-4.8125 4,-4.484375 4,-3.84375 2.953125,-3.953125 2.953125,-2.9375 v 0.296875 H 3.5 V -2.90625 c 0,-0.796875 1.078125,-0.65625 1.078125,-1.625 0,-0.46875 -0.375,-0.921875 -1.140625,-0.921875 z m 0,0"
   id="id-87d5df4b-51fa-47d2-8ac5-91caca2427b2" />
      </g>
      <g
   id="id-0981651e-f9a4-4414-86a2-41f56edc2c8e">
        <path
   d="M 2.15625,-4.546875 H 3.296875 L 3.5,-5.25 H 2.265625 L 2.4375,-6.546875 1.71875,-6.46875 1.390625,-5.25 h -0.9375 L 0.34375,-4.546875 H 1.25 L 0.8125,-1.40625 c -0.140625,0.984375 0.34375,1.53125 1.25,1.53125 0.40625,0 0.78125,-0.109375 1.171875,-0.359375 L 2.9375,-0.875 c -0.28125,0.140625 -0.5,0.234375 -0.765625,0.234375 -0.390625,0 -0.53125,-0.21875 -0.453125,-0.75 z m 0,0"
   id="id-a269a9c8-88b0-48e7-9e5f-782c5e53a072" />
      </g>
    </g>
  </defs>
  <g
   fill="#000000"
   fill-opacity="1"
   id="id-937fcd35-7354-4c21-a733-979bd245d6e0"
   transform="translate(-149.056,-128.218)">
    <g
   transform="translate(148.712,134.765)"
   id="g13188"><path
   d="M 2.15625,-4.546875 H 3.296875 L 3.5,-5.25 H 2.265625 L 2.4375,-6.546875 1.71875,-6.46875 1.390625,-5.25 h -0.9375 L 0.34375,-4.546875 H 1.25 L 0.8125,-1.40625 c -0.140625,0.984375 0.34375,1.53125 1.25,1.53125 0.40625,0 0.78125,-0.109375 1.171875,-0.359375 L 2.9375,-0.875 c -0.28125,0.140625 -0.5,0.234375 -0.765625,0.234375 -0.390625,0 -0.53125,-0.21875 -0.453125,-0.75 z m 0,0"
   id="id-c4f0d492-811c-49fb-a1c5-56d9b1e322fe" />
      </g></g>
</g><path
     style="fill:#304070;fill-opacity:1;fill-rule:nonzero;stroke:none;stroke-width:0.653841"
     d="m 673.79966,119.24426 c 0,17.43917 -14.13675,31.57339 -31.57337,31.57339 -17.43916,0 -31.57338,-14.13422 -31.57338,-31.57339 0,-17.43662 14.13422,-31.573381 31.57338,-31.573381 17.43662,0 31.57337,14.136761 31.57337,31.573381 z m 0,0"
     id="path17168" /><g
     ns16:version="1.8.1"
     ns16:texconverter="pdflatex"
     ns16:pdfconverter="inkscape"
     ns16:text="3"
     ns16:preamble="/home/kirito/.config/textext/textext.tex"
     ns16:scale="9.402392397113081"
     ns16:alignment="middle center"
     ns16:stroke-to-path="0"
     ns16:inkscapeversion="1.2.1"
     transform="matrix(7.05177,0,0,7.05177,626.96758,94.946949)"
     ns16:jacobian_sqrt="7.05177"
     style="fill:#fffff0;fill-opacity:1;stroke-width:0"
     id="g17188"><defs
   id="id-f355de02-9b1e-4ee0-9c65-b97678b37b95"
   style="fill:#fffff0;fill-opacity:1;stroke-width:0">
    <g
   id="id-cda03965-b38f-4769-93f1-951c1e60c62a"
   style="fill:#fffff0;fill-opacity:1;stroke-width:0">
      <g
   id="id-53caa8d6-5592-4fe3-8b1c-767f546226e6"
   style="fill:#fffff0;fill-opacity:1;stroke-width:0">
        <path
   d="M 5.40625,-10.46875 H 1.21875 V 3.484375 h 4.1875 z M 4.875,-9.953125 V 2.96875 H 1.78125 V -9.953125 Z M 3.234375,-4.5 c -0.390625,0 -0.9375,0.125 -0.9375,0.390625 0,0.125 0.09375,0.234375 0.25,0.234375 0.03125,0 0.078125,-0.015625 0.125,-0.03125 0.171875,-0.078125 0.3125,-0.109375 0.515625,-0.109375 0.5,0 0.609375,0.296875 0.609375,0.6875 0,0.53125 -0.1875,0.71875 -0.90625,0.765625 v 0.84375 c 0,0.140625 0.125,0.234375 0.25,0.234375 0.125,0 0.25,-0.09375 0.25,-0.234375 V -2.171875 C 4.0625,-2.265625 4.34375,-2.65625 4.34375,-3.34375 4.34375,-3.953125 4.09375,-4.5 3.234375,-4.5 Z m -0.09375,3.296875 c -0.203125,0 -0.34375,0.15625 -0.34375,0.359375 0,0.203125 0.140625,0.359375 0.34375,0.359375 0.203125,0 0.34375,-0.15625 0.34375,-0.359375 0,-0.203125 -0.140625,-0.359375 -0.34375,-0.359375 z m 0,0"
   id="id-877dde57-ca1e-4e72-951d-7dc760e64cbb"
   style="fill:#fffff0;fill-opacity:1;stroke-width:0" />
      </g>
      <g
   id="id-6af47bea-f56c-4001-b610-5d3e4066c174"
   style="fill:#fffff0;fill-opacity:1;stroke-width:0">
        <path
   d="m 2.21875,-5.71875 c -0.75,0 -1.359375,0.25 -1.921875,0.78125 l 0.46875,0.546875 c 0.453125,-0.421875 0.84375,-0.59375 1.375,-0.59375 0.703125,0 1.15625,0.375 1.15625,1 0,0.71875 -0.5625,1.125 -1.25,1.125 H 1.703125 L 1.59375,-2.15625 h 0.5 c 0.890625,0 1.359375,0.359375 1.359375,1.234375 0,0.828125 -0.5,1.34375 -1.375,1.34375 -0.546875,0 -0.984375,-0.203125 -1.4375,-0.65625 l -0.546875,0.5 c 0.515625,0.609375 1.21875,0.90625 2.015625,0.90625 1.421875,0 2.3125,-0.875 2.3125,-2.046875 0,-1.046875 -0.640625,-1.578125 -1.53125,-1.671875 0.765625,-0.171875 1.3125,-0.71875 1.3125,-1.515625 0,-0.875 -0.6875,-1.65625 -1.984375,-1.65625 z m 0,0"
   id="id-dd7a851d-a038-4b8c-876b-9769001a5bca"
   style="fill:#fffff0;fill-opacity:1;stroke-width:0" />
      </g>
    </g>
  </defs>
  <g
   fill-opacity="1"
   id="id-755aae37-e9d4-4056-a39f-fdf44e40fc27"
   transform="translate(-148.806,-129.046)"
   style="fill:#fffff0;fill-opacity:1;stroke-width:0">
    <g
   transform="translate(148.712,134.765)"
   style="fill:#fffff0;fill-opacity:1;stroke-width:0"
   id="g17564"><path
   d="m 2.21875,-5.71875 c -0.75,0 -1.359375,0.25 -1.921875,0.78125 l 0.46875,0.546875 c 0.453125,-0.421875 0.84375,-0.59375 1.375,-0.59375 0.703125,0 1.15625,0.375 1.15625,1 0,0.71875 -0.5625,1.125 -1.25,1.125 H 1.703125 L 1.59375,-2.15625 h 0.5 c 0.890625,0 1.359375,0.359375 1.359375,1.234375 0,0.828125 -0.5,1.34375 -1.375,1.34375 -0.546875,0 -0.984375,-0.203125 -1.4375,-0.65625 l -0.546875,0.5 c 0.515625,0.609375 1.21875,0.90625 2.015625,0.90625 1.421875,0 2.3125,-0.875 2.3125,-2.046875 0,-1.046875 -0.640625,-1.578125 -1.53125,-1.671875 0.765625,-0.171875 1.3125,-0.71875 1.3125,-1.515625 0,-0.875 -0.6875,-1.65625 -1.984375,-1.65625 z m 0,0"
   id="id-954ab2fe-53ba-48a6-9c80-5bdac54150f7"
   style="fill:#fffff0;fill-opacity:1;stroke-width:0" />
      </g></g>
</g><g
     ns16:version="1.8.1"
     ns16:texconverter="pdflatex"
     ns16:pdfconverter="inkscape"
     ns16:text="perturbation"
     ns16:preamble="/home/kirito/.config/textext/textext.tex"
     ns16:scale="2.5"
     ns16:alignment="middle center"
     ns16:stroke-to-path="0"
     ns16:inkscapeversion="1.2.1"
     transform="matrix(2.5,0,0,2.5,332.99215,170.21597)"
     ns16:jacobian_sqrt="2.5"
     id="g20691"><defs
   id="id-aaef5192-15b9-4b8d-b1ab-50f17151a97c">
    <g
   id="id-5a8c4090-b212-4efb-b25c-b37a86730d34">
      <g
   id="id-0e195545-5497-490d-b5e0-087067d0977c">
        <path
   d="M 5.40625,-10.46875 H 1.21875 V 3.484375 h 4.1875 z M 4.875,-9.953125 V 2.96875 H 1.78125 V -9.953125 Z M 3.234375,-4.5 c -0.390625,0 -0.9375,0.125 -0.9375,0.390625 0,0.125 0.09375,0.234375 0.25,0.234375 0.03125,0 0.078125,-0.015625 0.125,-0.03125 0.171875,-0.078125 0.3125,-0.109375 0.515625,-0.109375 0.5,0 0.609375,0.296875 0.609375,0.6875 0,0.53125 -0.1875,0.71875 -0.90625,0.765625 v 0.84375 c 0,0.140625 0.125,0.234375 0.25,0.234375 0.125,0 0.25,-0.09375 0.25,-0.234375 V -2.171875 C 4.0625,-2.265625 4.34375,-2.65625 4.34375,-3.34375 4.34375,-3.953125 4.09375,-4.5 3.234375,-4.5 Z m -0.09375,3.296875 c -0.203125,0 -0.34375,0.15625 -0.34375,0.359375 0,0.203125 0.140625,0.359375 0.34375,0.359375 0.203125,0 0.34375,-0.15625 0.34375,-0.359375 0,-0.203125 -0.140625,-0.359375 -0.34375,-0.359375 z m 0,0"
   id="id-b174c9c2-cd30-44ab-9da9-b90460005dd9" />
      </g>
      <g
   id="id-0fc9bddf-a209-4b45-8769-e7d40161d532">
        <path
   d="m 3.328125,-5.375 c -0.59375,0 -1.171875,0.296875 -1.546875,0.828125 L 1.703125,-5.25 h -0.78125 v 7.375 l 0.90625,-0.109375 v -2.5 c 0.34375,0.421875 0.8125,0.609375 1.375,0.609375 1.359375,0 2.078125,-1.15625 2.078125,-2.75 0,-1.65625 -0.5625,-2.75 -1.953125,-2.75 z m -0.34375,4.75 c -0.46875,0 -0.875,-0.234375 -1.15625,-0.640625 v -2.5625 c 0.28125,-0.421875 0.71875,-0.8125 1.265625,-0.8125 0.796875,0 1.1875,0.640625 1.1875,2.015625 0,1.375 -0.453125,2 -1.296875,2 z m 0,0"
   id="id-d7c19069-ed34-4d01-812e-c3bf90454600" />
      </g>
      <g
   id="id-bd38dfd2-8e3a-4614-ac9b-0e78b1496189">
        <path
   d="m 4.921875,-2.78125 c 0,-1.609375 -0.75,-2.59375 -2.171875,-2.59375 -1.359375,0 -2.1875,1.171875 -2.1875,2.796875 0,1.671875 0.859375,2.703125 2.328125,2.703125 0.734375,0 1.3125,-0.25 1.828125,-0.65625 L 4.328125,-1.09375 C 3.875,-0.765625 3.484375,-0.625 2.953125,-0.625 c -0.75,0 -1.3125,-0.46875 -1.40625,-1.6875 h 3.34375 c 0.015625,-0.125 0.03125,-0.296875 0.03125,-0.46875 z M 4,-2.984375 H 1.546875 c 0.0625,-1.171875 0.53125,-1.65625 1.21875,-1.65625 0.828125,0 1.234375,0.5625 1.234375,1.59375 z m 0,0"
   id="id-12df43e2-47da-4173-b8b8-2f9a10e54a13" />
      </g>
      <g
   id="id-862cc446-0a4d-45b8-b82a-98da2c0e6aaa">
        <path
   d="m 3.203125,-5.375 c -0.640625,0 -1.125,0.40625 -1.40625,1.1875 L 1.703125,-5.25 H 0.921875 V 0 h 0.90625 v -3 c 0.21875,-1 0.609375,-1.46875 1.265625,-1.46875 0.1875,0 0.296875,0.015625 0.453125,0.046875 L 3.71875,-5.3125 C 3.5625,-5.359375 3.375,-5.375 3.203125,-5.375 Z m 0,0"
   id="id-35dffded-897d-4af9-8da5-f3258cf73b40" />
      </g>
      <g
   id="id-8bac92b8-4ae3-4342-b42d-68a0a9203b26">
        <path
   d="m 3.25,-0.84375 c -0.265625,0.140625 -0.46875,0.203125 -0.703125,0.203125 -0.453125,0 -0.625,-0.25 -0.625,-0.78125 v -3.125 h 1.15625 L 3.171875,-5.25 h -1.25 V -6.546875 L 1,-6.4375 V -5.25 H 0.09375 v 0.703125 H 1 V -1.375 c 0,0.96875 0.53125,1.5 1.421875,1.5 C 2.875,0.125 3.25,0 3.59375,-0.234375 Z m 0,0"
   id="id-d23af247-e690-4af8-87e8-70d452d3fe9c" />
      </g>
      <g
   id="id-9ab298c4-8c60-480b-a3f1-d219c2a56ed4">
        <path
   d="M 4.8125,-5.25 H 3.890625 v 3.75 c -0.3125,0.515625 -0.734375,0.90625 -1.3125,0.90625 -0.5625,0 -0.796875,-0.28125 -0.796875,-0.984375 V -5.25 H 0.859375 v 3.765625 c 0,1.03125 0.546875,1.609375 1.46875,1.609375 0.75,0 1.234375,-0.296875 1.625,-0.9375 L 4.03125,0 H 4.8125 Z m 0,0"
   id="id-514a623d-5380-48b3-b4cb-e90c75dd0944" />
      </g>
      <g
   id="id-09396a94-d684-4b8d-9a54-ee3fb63a1dff">
        <path
   d="m 3.3125,-5.375 c -0.625,0 -1.125,0.296875 -1.484375,0.78125 v -2.890625 l -0.90625,0.125 V 0 H 1.71875 L 1.8125,-0.578125 C 2.171875,-0.140625 2.625,0.125 3.203125,0.125 c 1.28125,0 2.078125,-1.109375 2.078125,-2.75 0,-1.765625 -0.78125,-2.75 -1.96875,-2.75 z m -0.328125,4.765625 c -0.46875,0 -0.875,-0.28125 -1.15625,-0.703125 v -2.515625 c 0.28125,-0.421875 0.65625,-0.8125 1.234375,-0.8125 0.734375,0 1.21875,0.515625 1.21875,2.015625 0,1.421875 -0.515625,2.015625 -1.296875,2.015625 z m 0,0"
   id="id-ad73b4ad-505c-4c5f-a83d-1706cb0e62ed" />
      </g>
      <g
   id="id-095890f6-bdba-479c-b08a-329c5b125cb8">
        <path
   d="M 4.4375,-1.21875 V -3.625 c 0,-1.09375 -0.578125,-1.75 -1.84375,-1.75 C 2,-5.375 1.421875,-5.25 0.78125,-5.015625 L 1,-4.34375 C 1.546875,-4.53125 2.03125,-4.625 2.421875,-4.625 c 0.734375,0 1.09375,0.28125 1.09375,1.03125 v 0.390625 H 2.71875 c -1.46875,0 -2.3125,0.609375 -2.3125,1.734375 0,0.9375 0.625,1.59375 1.671875,1.59375 0.640625,0 1.1875,-0.25 1.5625,-0.796875 0.15625,0.515625 0.5,0.734375 1.03125,0.796875 L 4.875,-0.515625 C 4.609375,-0.625 4.4375,-0.765625 4.4375,-1.21875 Z M 2.28125,-0.5625 c -0.59375,0 -0.90625,-0.328125 -0.90625,-0.953125 0,-0.71875 0.484375,-1.078125 1.453125,-1.078125 h 0.6875 v 1.203125 C 3.21875,-0.84375 2.828125,-0.5625 2.28125,-0.5625 Z m 0,0"
   id="id-75799763-05e6-484c-8b68-9c52f5b395c4" />
      </g>
      <g
   id="id-229f353d-7e04-4254-aed9-e8b29e16f030">
        <path
   d="m 1.359375,-7.78125 c -0.375,0 -0.625,0.28125 -0.625,0.640625 0,0.34375 0.25,0.609375 0.625,0.609375 0.390625,0 0.65625,-0.265625 0.65625,-0.609375 C 2.015625,-7.5 1.75,-7.78125 1.359375,-7.78125 Z M 1.828125,-5.25 H 0.921875 V 0 h 0.90625 z m 0,0"
   id="id-b0ea9e87-f1a9-423d-b8bd-ca2f7020c524" />
      </g>
      <g
   id="id-670cbfa1-48b9-40c0-9304-df154a8b34ad">
        <path
   d="m 2.921875,-5.375 c -1.5,0 -2.359375,1.125 -2.359375,2.75 0,1.671875 0.859375,2.75 2.34375,2.75 C 4.390625,0.125 5.25,-1 5.25,-2.625 c 0,-1.671875 -0.828125,-2.75 -2.328125,-2.75 z m 0,0.734375 c 0.859375,0 1.34375,0.640625 1.34375,2.015625 0,1.375 -0.484375,2 -1.359375,2 -0.875,0 -1.34375,-0.625 -1.34375,-2 0,-1.375 0.484375,-2.015625 1.359375,-2.015625 z m 0,0"
   id="id-60c725da-2b1b-4146-9c75-bd7825af14a6" />
      </g>
      <g
   id="id-e0537296-a7ce-4172-ba91-f8fdfe3630bd">
        <path
   d="m 3.390625,-5.375 c -0.6875,0 -1.25,0.359375 -1.609375,0.90625 L 1.703125,-5.25 H 0.921875 V 0 h 0.90625 V -3.734375 C 2.1875,-4.28125 2.578125,-4.65625 3.171875,-4.65625 3.671875,-4.65625 4,-4.421875 4,-3.640625 V 0 h 0.921875 v -3.765625 c 0,-1 -0.5625,-1.609375 -1.53125,-1.609375 z m 0,0"
   id="id-db23a684-8fab-4e4b-8a60-8dbf6d50b8e7" />
      </g>
    </g>
  </defs>
  <g
   fill="#000000"
   fill-opacity="1"
   id="id-a2a2ad22-c37e-4934-ba17-304039b1d9da"
   transform="translate(-149.634,-126.984)">
    <g
   transform="translate(148.712,134.765)"
   id="g21299"><path
   d="m 3.328125,-5.375 c -0.59375,0 -1.171875,0.296875 -1.546875,0.828125 L 1.703125,-5.25 h -0.78125 v 7.375 l 0.90625,-0.109375 v -2.5 c 0.34375,0.421875 0.8125,0.609375 1.375,0.609375 1.359375,0 2.078125,-1.15625 2.078125,-2.75 0,-1.65625 -0.5625,-2.75 -1.953125,-2.75 z m -0.34375,4.75 c -0.46875,0 -0.875,-0.234375 -1.15625,-0.640625 v -2.5625 c 0.28125,-0.421875 0.71875,-0.8125 1.265625,-0.8125 0.796875,0 1.1875,0.640625 1.1875,2.015625 0,1.375 -0.453125,2 -1.296875,2 z m 0,0"
   id="id-5c74931c-aa41-4ecf-9764-13768b1efc5c" />
      </g><g
   transform="translate(154.55,134.765)"
   id="g21302"><path
   d="m 4.921875,-2.78125 c 0,-1.609375 -0.75,-2.59375 -2.171875,-2.59375 -1.359375,0 -2.1875,1.171875 -2.1875,2.796875 0,1.671875 0.859375,2.703125 2.328125,2.703125 0.734375,0 1.3125,-0.25 1.828125,-0.65625 L 4.328125,-1.09375 C 3.875,-0.765625 3.484375,-0.625 2.953125,-0.625 c -0.75,0 -1.3125,-0.46875 -1.40625,-1.6875 h 3.34375 c 0.015625,-0.125 0.03125,-0.296875 0.03125,-0.46875 z M 4,-2.984375 H 1.546875 c 0.0625,-1.171875 0.53125,-1.65625 1.21875,-1.65625 0.828125,0 1.234375,0.5625 1.234375,1.59375 z m 0,0"
   id="id-d1fe6427-99aa-4bdc-bdf0-eabc7fa69c9c" />
      </g><g
   transform="translate(159.97,134.765)"
   id="g21305"><path
   d="m 3.203125,-5.375 c -0.640625,0 -1.125,0.40625 -1.40625,1.1875 L 1.703125,-5.25 H 0.921875 V 0 h 0.90625 v -3 c 0.21875,-1 0.609375,-1.46875 1.265625,-1.46875 0.1875,0 0.296875,0.015625 0.453125,0.046875 L 3.71875,-5.3125 C 3.5625,-5.359375 3.375,-5.375 3.203125,-5.375 Z m 0,0"
   id="id-f5b2f1c1-e666-419e-a6b8-c0002669f958" />
      </g><g
   transform="translate(163.785,134.765)"
   id="g21308"><path
   d="m 3.25,-0.84375 c -0.265625,0.140625 -0.46875,0.203125 -0.703125,0.203125 -0.453125,0 -0.625,-0.25 -0.625,-0.78125 v -3.125 h 1.15625 L 3.171875,-5.25 h -1.25 V -6.546875 L 1,-6.4375 V -5.25 H 0.09375 v 0.703125 H 1 V -1.375 c 0,0.96875 0.53125,1.5 1.421875,1.5 C 2.875,0.125 3.25,0 3.59375,-0.234375 Z m 0,0"
   id="id-6d694d1b-3d6e-4e02-a2c5-6e0b2312f9ff" />
      </g><g
   transform="translate(167.382,134.765)"
   id="g21311"><path
   d="M 4.8125,-5.25 H 3.890625 v 3.75 c -0.3125,0.515625 -0.734375,0.90625 -1.3125,0.90625 -0.5625,0 -0.796875,-0.28125 -0.796875,-0.984375 V -5.25 H 0.859375 v 3.765625 c 0,1.03125 0.546875,1.609375 1.46875,1.609375 0.75,0 1.234375,-0.296875 1.625,-0.9375 L 4.03125,0 H 4.8125 Z m 0,0"
   id="id-ce4d416c-747a-4a85-91ac-4acfa166441a" />
      </g><g
   transform="translate(173.11,134.765)"
   id="g21314"><path
   d="m 3.203125,-5.375 c -0.640625,0 -1.125,0.40625 -1.40625,1.1875 L 1.703125,-5.25 H 0.921875 V 0 h 0.90625 v -3 c 0.21875,-1 0.609375,-1.46875 1.265625,-1.46875 0.1875,0 0.296875,0.015625 0.453125,0.046875 L 3.71875,-5.3125 C 3.5625,-5.359375 3.375,-5.375 3.203125,-5.375 Z m 0,0"
   id="id-40f68eab-fef3-46c1-a3b2-5e8596f55f7d" />
      </g><g
   transform="translate(176.926,134.765)"
   id="g21317"><path
   d="m 3.3125,-5.375 c -0.625,0 -1.125,0.296875 -1.484375,0.78125 v -2.890625 l -0.90625,0.125 V 0 H 1.71875 L 1.8125,-0.578125 C 2.171875,-0.140625 2.625,0.125 3.203125,0.125 c 1.28125,0 2.078125,-1.109375 2.078125,-2.75 0,-1.765625 -0.78125,-2.75 -1.96875,-2.75 z m -0.328125,4.765625 c -0.46875,0 -0.875,-0.28125 -1.15625,-0.703125 v -2.515625 c 0.28125,-0.421875 0.65625,-0.8125 1.234375,-0.8125 0.734375,0 1.21875,0.515625 1.21875,2.015625 0,1.421875 -0.515625,2.015625 -1.296875,2.015625 z m 0,0"
   id="id-b008307e-57c7-4aef-a1f8-a5cae3f64045" />
      </g></g>
  <g
   fill="#000000"
   fill-opacity="1"
   id="id-0332cc91-d18e-4d2e-9063-bcd60fa70b23"
   transform="translate(-149.634,-126.984)">
    <g
   transform="translate(182.714,134.765)"
   id="g21321"><path
   d="M 4.4375,-1.21875 V -3.625 c 0,-1.09375 -0.578125,-1.75 -1.84375,-1.75 C 2,-5.375 1.421875,-5.25 0.78125,-5.015625 L 1,-4.34375 C 1.546875,-4.53125 2.03125,-4.625 2.421875,-4.625 c 0.734375,0 1.09375,0.28125 1.09375,1.03125 v 0.390625 H 2.71875 c -1.46875,0 -2.3125,0.609375 -2.3125,1.734375 0,0.9375 0.625,1.59375 1.671875,1.59375 0.640625,0 1.1875,-0.25 1.5625,-0.796875 0.15625,0.515625 0.5,0.734375 1.03125,0.796875 L 4.875,-0.515625 C 4.609375,-0.625 4.4375,-0.765625 4.4375,-1.21875 Z M 2.28125,-0.5625 c -0.59375,0 -0.90625,-0.328125 -0.90625,-0.953125 0,-0.71875 0.484375,-1.078125 1.453125,-1.078125 h 0.6875 v 1.203125 C 3.21875,-0.84375 2.828125,-0.5625 2.28125,-0.5625 Z m 0,0"
   id="id-260253d5-70a6-44ae-bcf9-a0bfa711edd9" />
      </g><g
   transform="translate(188.084,134.765)"
   id="g21324"><path
   d="m 3.25,-0.84375 c -0.265625,0.140625 -0.46875,0.203125 -0.703125,0.203125 -0.453125,0 -0.625,-0.25 -0.625,-0.78125 v -3.125 h 1.15625 L 3.171875,-5.25 h -1.25 V -6.546875 L 1,-6.4375 V -5.25 H 0.09375 v 0.703125 H 1 V -1.375 c 0,0.96875 0.53125,1.5 1.421875,1.5 C 2.875,0.125 3.25,0 3.59375,-0.234375 Z m 0,0"
   id="id-84f5ed08-22d5-4271-bcfa-8ba2bf74427c" />
      </g><g
   transform="translate(191.681,134.765)"
   id="g21327"><path
   d="m 1.359375,-7.78125 c -0.375,0 -0.625,0.28125 -0.625,0.640625 0,0.34375 0.25,0.609375 0.625,0.609375 0.390625,0 0.65625,-0.265625 0.65625,-0.609375 C 2.015625,-7.5 1.75,-7.78125 1.359375,-7.78125 Z M 1.828125,-5.25 H 0.921875 V 0 h 0.90625 z m 0,0"
   id="id-0d2ef676-7430-4099-9c29-801b621027de" />
      </g><g
   transform="translate(194.43,134.765)"
   id="g21330"><path
   d="m 2.921875,-5.375 c -1.5,0 -2.359375,1.125 -2.359375,2.75 0,1.671875 0.859375,2.75 2.34375,2.75 C 4.390625,0.125 5.25,-1 5.25,-2.625 c 0,-1.671875 -0.828125,-2.75 -2.328125,-2.75 z m 0,0.734375 c 0.859375,0 1.34375,0.640625 1.34375,2.015625 0,1.375 -0.484375,2 -1.359375,2 -0.875,0 -1.34375,-0.625 -1.34375,-2 0,-1.375 0.484375,-2.015625 1.359375,-2.015625 z m 0,0"
   id="id-78215df6-5c58-4d9f-b9c3-61b6d2ed3441" />
      </g><g
   transform="translate(200.249,134.765)"
   id="g21333"><path
   d="m 3.390625,-5.375 c -0.6875,0 -1.25,0.359375 -1.609375,0.90625 L 1.703125,-5.25 H 0.921875 V 0 h 0.90625 V -3.734375 C 2.1875,-4.28125 2.578125,-4.65625 3.171875,-4.65625 3.671875,-4.65625 4,-4.421875 4,-3.640625 V 0 h 0.921875 v -3.765625 c 0,-1 -0.5625,-1.609375 -1.53125,-1.609375 z m 0,0"
   id="id-9dee87a0-c2a4-4e70-9023-5074ce53ba0b" />
      </g></g>
</g><g
     ns16:version="1.8.1"
     ns16:texconverter="xelatex"
     ns16:pdfconverter="inkscape"
     ns16:text="singlet"
     ns16:preamble="/home/kirito/.config/textext/beamer_preamble.tex"
     ns16:scale="2.5"
     ns16:alignment="middle center"
     ns16:stroke-to-path="0"
     ns16:inkscapeversion="1.2.1"
     transform="matrix(2.5,0,0,2.5,0,103.88358)"
     ns16:jacobian_sqrt="2.5"
     id="g18042"><defs
   id="id-22cdc963-793c-4cf5-88a1-0f79c53f0eab">
    <g
   id="id-696a366c-1616-4d59-b3cc-8703376c4026">
      <g
   id="id-4f3a9bba-3b75-45e5-9836-39c5b038c1d1">
        <path
   d="M 5.40625,-10.46875 V 3.484375 H 1.21875 V -10.46875 Z M 4.875,-9.953125 H 1.78125 V 2.96875 H 4.875 Z M 3.234375,-4.5 c 0.394531,0 0.675781,0.109375 0.84375,0.328125 0.175781,0.210937 0.265625,0.484375 0.265625,0.828125 0,0.34375 -0.078125,0.617188 -0.234375,0.8125 -0.148437,0.1875 -0.386719,0.308594 -0.71875,0.359375 v 0.453125 c 0,0.074219 -0.027344,0.132812 -0.078125,0.171875 -0.054688,0.042969 -0.109375,0.0625 -0.171875,0.0625 -0.0625,0 -0.121094,-0.019531 -0.171875,-0.0625 C 2.914062,-1.585938 2.890625,-1.644531 2.890625,-1.71875 V -2.5625 c 0.351563,-0.019531 0.59375,-0.082031 0.71875,-0.1875 0.125,-0.113281 0.1875,-0.304688 0.1875,-0.578125 0,-0.21875 -0.046875,-0.382813 -0.140625,-0.5 -0.085938,-0.125 -0.242188,-0.1875 -0.46875,-0.1875 -0.1875,0 -0.359375,0.039063 -0.515625,0.109375 -0.054687,0.023438 -0.09375,0.03125 -0.125,0.03125 -0.074219,0 -0.136719,-0.019531 -0.1875,-0.0625 -0.042969,-0.039062 -0.0625,-0.097656 -0.0625,-0.171875 0,-0.125 0.097656,-0.21875 0.296875,-0.28125 C 2.789062,-4.460938 3.003906,-4.5 3.234375,-4.5 Z m -0.09375,3.296875 c 0.101563,0 0.1875,0.039063 0.25,0.109375 0.0625,0.0625 0.09375,0.148438 0.09375,0.25 0,0.105469 -0.03125,0.195312 -0.09375,0.265625 -0.0625,0.0625 -0.148437,0.09375 -0.25,0.09375 -0.105469,0 -0.1875,-0.03125 -0.25,-0.09375 -0.0625,-0.070313 -0.09375,-0.160156 -0.09375,-0.265625 0,-0.101562 0.03125,-0.1875 0.09375,-0.25 0.0625,-0.070312 0.144531,-0.109375 0.25,-0.109375 z m 0,0"
   id="id-72245c07-d8eb-4296-a6f0-aa4031838e7f" />
      </g>
      <g
   id="id-0f762e02-a696-4079-9daa-e07c5c88ba60">
        <path
   d="m 2.375,-5.375 c 0.351562,0 0.671875,0.054688 0.953125,0.15625 0.289063,0.09375 0.566406,0.242188 0.828125,0.4375 L 3.765625,-4.203125 C 3.523438,-4.347656 3.296875,-4.457031 3.078125,-4.53125 2.867188,-4.601562 2.644531,-4.640625 2.40625,-4.640625 c -0.304688,0 -0.542969,0.0625 -0.71875,0.1875 -0.167969,0.117187 -0.25,0.28125 -0.25,0.5 0,0.210937 0.078125,0.375 0.234375,0.5 0.164063,0.117187 0.460937,0.230469 0.890625,0.34375 0.582031,0.148437 1.019531,0.34375 1.3125,0.59375 0.289062,0.25 0.4375,0.601563 0.4375,1.046875 0,0.511719 -0.203125,0.90625 -0.609375,1.1875 C 3.296875,-0.0078125 2.804688,0.125 2.234375,0.125 1.429688,0.125 0.769531,-0.101562 0.25,-0.5625 L 0.734375,-1.125 c 0.445313,0.335938 0.941406,0.5 1.484375,0.5 0.34375,0 0.613281,-0.066406 0.8125,-0.203125 0.207031,-0.144531 0.3125,-0.34375 0.3125,-0.59375 0,-0.175781 -0.039062,-0.316406 -0.109375,-0.421875 C 3.160156,-1.957031 3.03125,-2.054688 2.84375,-2.140625 2.664062,-2.222656 2.40625,-2.3125 2.0625,-2.40625 1.5,-2.550781 1.09375,-2.742188 0.84375,-2.984375 c -0.242188,-0.25 -0.359375,-0.5625 -0.359375,-0.9375 0,-0.28125 0.078125,-0.53125 0.234375,-0.75 C 0.882812,-4.890625 1.109375,-5.0625 1.390625,-5.1875 1.679688,-5.3125 2.007812,-5.375 2.375,-5.375 Z m 0,0"
   id="id-c5d7b447-a39a-404b-bec3-9aeef0278514" />
      </g>
      <g
   id="id-5b3e64d3-0155-41ac-a564-df566b81af9a">
        <path
   d="M 1.859375,-5.25 V 0 h -0.90625 v -5.25 z m -0.46875,-2.53125 c 0.195313,0 0.351563,0.0625 0.46875,0.1875 0.125,0.117188 0.1875,0.265625 0.1875,0.453125 0,0.179687 -0.0625,0.324219 -0.1875,0.4375 -0.117187,0.117187 -0.273437,0.171875 -0.46875,0.171875 -0.179687,0 -0.328125,-0.054688 -0.453125,-0.171875 -0.117188,-0.113281 -0.171875,-0.257813 -0.171875,-0.4375 0,-0.1875 0.054687,-0.335937 0.171875,-0.453125 0.125,-0.125 0.273438,-0.1875 0.453125,-0.1875 z m 0,0"
   id="id-4b7ec483-1dfc-4035-9be4-74467405eadf" />
      </g>
      <g
   id="id-230bdb10-395c-45bd-9f0b-3e342225c2bc">
        <path
   d="m 3.421875,-5.375 c 0.476563,0 0.847656,0.148438 1.109375,0.4375 0.269531,0.28125 0.40625,0.671875 0.40625,1.171875 V 0 H 4.03125 v -3.640625 c 0,-0.375 -0.074219,-0.632813 -0.21875,-0.78125 -0.136719,-0.15625 -0.339844,-0.234375 -0.609375,-0.234375 -0.28125,0 -0.53125,0.085938 -0.75,0.25 -0.210937,0.15625 -0.40625,0.382812 -0.59375,0.671875 V 0 h -0.90625 v -5.25 h 0.78125 L 1.8125,-4.46875 C 2,-4.75 2.226562,-4.96875 2.5,-5.125 c 0.28125,-0.164062 0.585938,-0.25 0.921875,-0.25 z m 0,0"
   id="id-d9603033-f216-4ea3-a9a5-a591f5940f80" />
      </g>
      <g
   id="id-7c949aac-653e-4683-ae49-3721361fadbd">
        <path
   d="m 5.1875,-5.015625 c -0.199219,0.0625 -0.417969,0.105469 -0.65625,0.125 -0.242188,0.023437 -0.53125,0.03125 -0.875,0.03125 0.613281,0.28125 0.921875,0.726563 0.921875,1.328125 0,0.53125 -0.183594,0.964844 -0.546875,1.296875 C 3.675781,-1.910156 3.191406,-1.75 2.578125,-1.75 c -0.242187,0 -0.464844,-0.03125 -0.671875,-0.09375 -0.085938,0.054688 -0.152344,0.125 -0.203125,0.21875 -0.042969,0.085938 -0.0625,0.171875 -0.0625,0.265625 0,0.292969 0.226563,0.4375 0.6875,0.4375 h 0.84375 c 0.351563,0 0.664063,0.0625 0.9375,0.1875 0.269531,0.125 0.476563,0.296875 0.625,0.515625 C 4.890625,0 4.96875,0.25 4.96875,0.53125 4.96875,1.039062 4.753906,1.429688 4.328125,1.703125 3.910156,1.984375 3.300781,2.125 2.5,2.125 1.9375,2.125 1.488281,2.066406 1.15625,1.953125 0.832031,1.835938 0.597656,1.660156 0.453125,1.421875 0.316406,1.191406 0.25,0.894531 0.25,0.53125 h 0.828125 c 0,0.207031 0.035156,0.375 0.109375,0.5 C 1.269531,1.15625 1.414062,1.25 1.625,1.3125 1.832031,1.375 2.125,1.40625 2.5,1.40625 3.050781,1.40625 3.441406,1.335938 3.671875,1.203125 3.910156,1.066406 4.03125,0.863281 4.03125,0.59375 c 0,-0.25 -0.09375,-0.4375 -0.28125,-0.5625 -0.179688,-0.125 -0.433594,-0.1875 -0.765625,-0.1875 H 2.15625 c -0.449219,0 -0.789062,-0.09375 -1.015625,-0.28125 -0.230469,-0.195312 -0.34375,-0.4375 -0.34375,-0.71875 0,-0.175781 0.046875,-0.34375 0.140625,-0.5 0.101562,-0.15625 0.25,-0.296875 0.4375,-0.421875 -0.304688,-0.164063 -0.527344,-0.363281 -0.671875,-0.59375 -0.148437,-0.238281 -0.21875,-0.523437 -0.21875,-0.859375 0,-0.351562 0.085937,-0.671875 0.265625,-0.953125 0.175781,-0.28125 0.414062,-0.5 0.71875,-0.65625 0.3125,-0.15625 0.660156,-0.234375 1.046875,-0.234375 0.40625,0.011719 0.75,0 1.03125,-0.03125 0.28125,-0.039062 0.507813,-0.09375 0.6875,-0.15625 0.1875,-0.0625 0.414063,-0.15625 0.6875,-0.28125 z M 2.515625,-4.71875 c -0.34375,0 -0.617187,0.109375 -0.8125,0.328125 -0.1875,0.21875 -0.28125,0.507813 -0.28125,0.859375 0,0.355469 0.09375,0.640625 0.28125,0.859375 0.195313,0.210937 0.472656,0.3125 0.828125,0.3125 0.363281,0 0.640625,-0.101563 0.828125,-0.3125 0.1875,-0.207031 0.28125,-0.5 0.28125,-0.875 0,-0.78125 -0.375,-1.171875 -1.125,-1.171875 z m 0,0"
   id="id-2e06dce5-460f-419e-ba7d-1890dde47d07" />
      </g>
      <g
   id="id-623f925d-62a9-4fd4-b692-8d51db8f7bd6">
        <path
   d="M 2,0.125 C 1.65625,0.125 1.382812,0.0234375 1.1875,-0.171875 0.988281,-0.378906 0.890625,-0.664062 0.890625,-1.03125 v -6.328125 l 0.921875,-0.125 V -1.0625 c 0,0.148438 0.023438,0.257812 0.078125,0.328125 0.050781,0.0625 0.132813,0.09375 0.25,0.09375 0.125,0 0.238281,-0.019531 0.34375,-0.0625 L 2.71875,-0.0625 C 2.5,0.0625 2.257812,0.125 2,0.125 Z m 0,0"
   id="id-714450b2-5d47-4a64-8a79-1d00efecece4" />
      </g>
      <g
   id="id-74d14f36-7102-49a2-ba57-c11280477a07">
        <path
   d="m 4.921875,-2.78125 c 0,0.15625 -0.011719,0.3125 -0.03125,0.46875 h -3.34375 c 0.039063,0.574219 0.1875,1 0.4375,1.28125 0.25,0.273438 0.570313,0.40625 0.96875,0.40625 0.257813,0 0.492187,-0.035156 0.703125,-0.109375 C 3.875,-0.804688 4.097656,-0.925781 4.328125,-1.09375 l 0.390625,0.5625 C 4.164062,-0.09375 3.554688,0.125 2.890625,0.125 2.160156,0.125 1.585938,-0.113281 1.171875,-0.59375 0.765625,-1.070312 0.5625,-1.734375 0.5625,-2.578125 c 0,-0.539063 0.085938,-1.019531 0.265625,-1.4375 0.175781,-0.425781 0.425781,-0.757813 0.75,-1 C 1.910156,-5.253906 2.300781,-5.375 2.75,-5.375 c 0.695312,0 1.234375,0.230469 1.609375,0.6875 0.375,0.460938 0.5625,1.09375 0.5625,1.90625 z M 4,-3.046875 c 0,-0.519531 -0.105469,-0.914063 -0.3125,-1.1875 -0.199219,-0.269531 -0.507812,-0.40625 -0.921875,-0.40625 -0.75,0 -1.15625,0.554687 -1.21875,1.65625 H 4 Z m 0,0"
   id="id-e5caad91-c9cd-4f28-8fe4-ea0be5c29887" />
      </g>
      <g
   id="id-a49e228e-0580-4655-b6d4-2c29129f7573">
        <path
   d="M 3.59375,-0.234375 C 3.25,0.00390625 2.859375,0.125 2.421875,0.125 1.972656,0.125 1.625,0 1.375,-0.25 1.125,-0.507812 1,-0.882812 1,-1.375 V -4.546875 H 0.09375 V -5.25 H 1 V -6.4375 L 1.921875,-6.546875 V -5.25 h 1.25 l -0.09375,0.703125 h -1.15625 v 3.125 c 0,0.28125 0.046875,0.484375 0.140625,0.609375 0.101562,0.117188 0.265625,0.171875 0.484375,0.171875 0.207031,0 0.441406,-0.066406 0.703125,-0.203125 z m 0,0"
   id="id-78c9bdd4-c019-48f0-9b1c-6a0fe0b56d70" />
      </g>
    </g>
  </defs>
  <g
   fill="#000000"
   fill-opacity="1"
   id="id-c8260e68-ca9a-4a64-a49c-7b2c6efc6ff4"
   transform="translate(-148.962,-126.984)">
    <g
   transform="translate(148.712,134.765)"
   id="g158272"><path
   d="m 2.375,-5.375 c 0.351562,0 0.671875,0.054688 0.953125,0.15625 0.289063,0.09375 0.566406,0.242188 0.828125,0.4375 L 3.765625,-4.203125 C 3.523438,-4.347656 3.296875,-4.457031 3.078125,-4.53125 2.867188,-4.601562 2.644531,-4.640625 2.40625,-4.640625 c -0.304688,0 -0.542969,0.0625 -0.71875,0.1875 -0.167969,0.117187 -0.25,0.28125 -0.25,0.5 0,0.210937 0.078125,0.375 0.234375,0.5 0.164063,0.117187 0.460937,0.230469 0.890625,0.34375 0.582031,0.148437 1.019531,0.34375 1.3125,0.59375 0.289062,0.25 0.4375,0.601563 0.4375,1.046875 0,0.511719 -0.203125,0.90625 -0.609375,1.1875 C 3.296875,-0.0078125 2.804688,0.125 2.234375,0.125 1.429688,0.125 0.769531,-0.101562 0.25,-0.5625 L 0.734375,-1.125 c 0.445313,0.335938 0.941406,0.5 1.484375,0.5 0.34375,0 0.613281,-0.066406 0.8125,-0.203125 0.207031,-0.144531 0.3125,-0.34375 0.3125,-0.59375 0,-0.175781 -0.039062,-0.316406 -0.109375,-0.421875 C 3.160156,-1.957031 3.03125,-2.054688 2.84375,-2.140625 2.664062,-2.222656 2.40625,-2.3125 2.0625,-2.40625 1.5,-2.550781 1.09375,-2.742188 0.84375,-2.984375 c -0.242188,-0.25 -0.359375,-0.5625 -0.359375,-0.9375 0,-0.28125 0.078125,-0.53125 0.234375,-0.75 C 0.882812,-4.890625 1.109375,-5.0625 1.390625,-5.1875 1.679688,-5.3125 2.007812,-5.375 2.375,-5.375 Z m 0,0"
   id="id-b3f3967b-fe97-42c8-a896-8cc477a3862d" />
      </g><g
   transform="translate(153.365,134.765)"
   id="g158275"><path
   d="M 1.859375,-5.25 V 0 h -0.90625 v -5.25 z m -0.46875,-2.53125 c 0.195313,0 0.351563,0.0625 0.46875,0.1875 0.125,0.117188 0.1875,0.265625 0.1875,0.453125 0,0.179687 -0.0625,0.324219 -0.1875,0.4375 -0.117187,0.117187 -0.273437,0.171875 -0.46875,0.171875 -0.179687,0 -0.328125,-0.054688 -0.453125,-0.171875 -0.117188,-0.113281 -0.171875,-0.257813 -0.171875,-0.4375 0,-0.1875 0.054687,-0.335937 0.171875,-0.453125 0.125,-0.125 0.273438,-0.1875 0.453125,-0.1875 z m 0,0"
   id="id-bef347a4-1119-4cd4-8dcc-f9f79070715a" />
      </g><g
   transform="translate(156.174,134.765)"
   id="g158278"><path
   d="m 3.421875,-5.375 c 0.476563,0 0.847656,0.148438 1.109375,0.4375 0.269531,0.28125 0.40625,0.671875 0.40625,1.171875 V 0 H 4.03125 v -3.640625 c 0,-0.375 -0.074219,-0.632813 -0.21875,-0.78125 -0.136719,-0.15625 -0.339844,-0.234375 -0.609375,-0.234375 -0.28125,0 -0.53125,0.085938 -0.75,0.25 -0.210937,0.15625 -0.40625,0.382812 -0.59375,0.671875 V 0 h -0.90625 v -5.25 h 0.78125 L 1.8125,-4.46875 C 2,-4.75 2.226562,-4.96875 2.5,-5.125 c 0.28125,-0.164062 0.585938,-0.25 0.921875,-0.25 z m 0,0"
   id="id-c5b2da8b-1d4e-46f1-a4f9-bfe7e65002b0" />
      </g><g
   transform="translate(162.012,134.765)"
   id="g158281"><path
   d="m 5.1875,-5.015625 c -0.199219,0.0625 -0.417969,0.105469 -0.65625,0.125 -0.242188,0.023437 -0.53125,0.03125 -0.875,0.03125 0.613281,0.28125 0.921875,0.726563 0.921875,1.328125 0,0.53125 -0.183594,0.964844 -0.546875,1.296875 C 3.675781,-1.910156 3.191406,-1.75 2.578125,-1.75 c -0.242187,0 -0.464844,-0.03125 -0.671875,-0.09375 -0.085938,0.054688 -0.152344,0.125 -0.203125,0.21875 -0.042969,0.085938 -0.0625,0.171875 -0.0625,0.265625 0,0.292969 0.226563,0.4375 0.6875,0.4375 h 0.84375 c 0.351563,0 0.664063,0.0625 0.9375,0.1875 0.269531,0.125 0.476563,0.296875 0.625,0.515625 C 4.890625,0 4.96875,0.25 4.96875,0.53125 4.96875,1.039062 4.753906,1.429688 4.328125,1.703125 3.910156,1.984375 3.300781,2.125 2.5,2.125 1.9375,2.125 1.488281,2.066406 1.15625,1.953125 0.832031,1.835938 0.597656,1.660156 0.453125,1.421875 0.316406,1.191406 0.25,0.894531 0.25,0.53125 h 0.828125 c 0,0.207031 0.035156,0.375 0.109375,0.5 C 1.269531,1.15625 1.414062,1.25 1.625,1.3125 1.832031,1.375 2.125,1.40625 2.5,1.40625 3.050781,1.40625 3.441406,1.335938 3.671875,1.203125 3.910156,1.066406 4.03125,0.863281 4.03125,0.59375 c 0,-0.25 -0.09375,-0.4375 -0.28125,-0.5625 -0.179688,-0.125 -0.433594,-0.1875 -0.765625,-0.1875 H 2.15625 c -0.449219,0 -0.789062,-0.09375 -1.015625,-0.28125 -0.230469,-0.195312 -0.34375,-0.4375 -0.34375,-0.71875 0,-0.175781 0.046875,-0.34375 0.140625,-0.5 0.101562,-0.15625 0.25,-0.296875 0.4375,-0.421875 -0.304688,-0.164063 -0.527344,-0.363281 -0.671875,-0.59375 -0.148437,-0.238281 -0.21875,-0.523437 -0.21875,-0.859375 0,-0.351562 0.085937,-0.671875 0.265625,-0.953125 0.175781,-0.28125 0.414062,-0.5 0.71875,-0.65625 0.3125,-0.15625 0.660156,-0.234375 1.046875,-0.234375 0.40625,0.011719 0.75,0 1.03125,-0.03125 0.28125,-0.039062 0.507813,-0.09375 0.6875,-0.15625 0.1875,-0.0625 0.414063,-0.15625 0.6875,-0.28125 z M 2.515625,-4.71875 c -0.34375,0 -0.617187,0.109375 -0.8125,0.328125 -0.1875,0.21875 -0.28125,0.507813 -0.28125,0.859375 0,0.355469 0.09375,0.640625 0.28125,0.859375 0.195313,0.210937 0.472656,0.3125 0.828125,0.3125 0.363281,0 0.640625,-0.101563 0.828125,-0.3125 0.1875,-0.207031 0.28125,-0.5 0.28125,-0.875 0,-0.78125 -0.375,-1.171875 -1.125,-1.171875 z m 0,0"
   id="id-a91f161e-4e8e-4cef-8429-046baa32ab0e" />
      </g><g
   transform="translate(167.193,134.765)"
   id="g158284"><path
   d="M 2,0.125 C 1.65625,0.125 1.382812,0.0234375 1.1875,-0.171875 0.988281,-0.378906 0.890625,-0.664062 0.890625,-1.03125 v -6.328125 l 0.921875,-0.125 V -1.0625 c 0,0.148438 0.023438,0.257812 0.078125,0.328125 0.050781,0.0625 0.132813,0.09375 0.25,0.09375 0.125,0 0.238281,-0.019531 0.34375,-0.0625 L 2.71875,-0.0625 C 2.5,0.0625 2.257812,0.125 2,0.125 Z m 0,0"
   id="id-a8ee40a8-6bd8-4994-8880-1a5bb692319f" />
      </g></g>
  <g
   fill="#000000"
   fill-opacity="1"
   id="id-6ddc248a-7e07-46fa-a020-fa3960f895cf"
   transform="translate(-148.962,-126.984)">
    <g
   transform="translate(170.072,134.765)"
   id="g158288"><path
   d="m 4.921875,-2.78125 c 0,0.15625 -0.011719,0.3125 -0.03125,0.46875 h -3.34375 c 0.039063,0.574219 0.1875,1 0.4375,1.28125 0.25,0.273438 0.570313,0.40625 0.96875,0.40625 0.257813,0 0.492187,-0.035156 0.703125,-0.109375 C 3.875,-0.804688 4.097656,-0.925781 4.328125,-1.09375 l 0.390625,0.5625 C 4.164062,-0.09375 3.554688,0.125 2.890625,0.125 2.160156,0.125 1.585938,-0.113281 1.171875,-0.59375 0.765625,-1.070312 0.5625,-1.734375 0.5625,-2.578125 c 0,-0.539063 0.085938,-1.019531 0.265625,-1.4375 0.175781,-0.425781 0.425781,-0.757813 0.75,-1 C 1.910156,-5.253906 2.300781,-5.375 2.75,-5.375 c 0.695312,0 1.234375,0.230469 1.609375,0.6875 0.375,0.460938 0.5625,1.09375 0.5625,1.90625 z M 4,-3.046875 c 0,-0.519531 -0.105469,-0.914063 -0.3125,-1.1875 -0.199219,-0.269531 -0.507812,-0.40625 -0.921875,-0.40625 -0.75,0 -1.15625,0.554687 -1.21875,1.65625 H 4 Z m 0,0"
   id="id-82fd2b55-decc-4e0e-9bdc-a2e95e729e76" />
      </g><g
   transform="translate(175.501,134.765)"
   id="g158291"><path
   d="M 3.59375,-0.234375 C 3.25,0.00390625 2.859375,0.125 2.421875,0.125 1.972656,0.125 1.625,0 1.375,-0.25 1.125,-0.507812 1,-0.882812 1,-1.375 V -4.546875 H 0.09375 V -5.25 H 1 V -6.4375 L 1.921875,-6.546875 V -5.25 h 1.25 l -0.09375,0.703125 h -1.15625 v 3.125 c 0,0.28125 0.046875,0.484375 0.140625,0.609375 0.101562,0.117188 0.265625,0.171875 0.484375,0.171875 0.207031,0 0.441406,-0.066406 0.703125,-0.203125 z m 0,0"
   id="id-6ba6aedd-6215-4e17-9fd2-8f16bae5dfa2" />
      </g></g>
</g></svg>
