<?xml version="1.0" encoding="UTF-8" standalone="no"?>
<svg
   width="1449.719pt"
   height="382.05811pt"
   viewBox="0 0 1449.7191 382.05813"
   version="1.2"
   id="svg32714"
   sodipodi:docname="summary2.svg"
   inkscape:version="1.2.1 (9c6d41e410, 2022-07-14)"
   xml:space="preserve"
   inkscape:export-filename="summary.png"
   inkscape:export-xdpi="8.5799999"
   inkscape:export-ydpi="8.5799999"
   xmlns:inkscape="http://www.inkscape.org/namespaces/inkscape"
   xmlns:sodipodi="http://sodipodi.sourceforge.net/DTD/sodipodi-0.dtd"
   xmlns="http://www.w3.org/2000/svg"
   xmlns:svg="http://www.w3.org/2000/svg"><sodipodi:namedview
     id="namedview32716"
     pagecolor="#505050"
     bordercolor="#eeeeee"
     borderopacity="1"
     inkscape:pageshadow="0"
     inkscape:pageopacity="0"
     inkscape:pagecheckerboard="0"
     inkscape:document-units="pt"
     showgrid="false"
     inkscape:zoom="1.3335911"
     inkscape:cx="1555.1993"
     inkscape:cy="283.4452"
     inkscape:window-width="1920"
     inkscape:window-height="1019"
     inkscape:window-x="1920"
     inkscape:window-y="151"
     inkscape:window-maximized="1"
     inkscape:current-layer="svg32714"
     inkscape:snap-bbox="true"
     inkscape:object-paths="true"
     inkscape:snap-intersection-paths="true"
     inkscape:snap-global="false"
     inkscape:showpageshadow="0"
     inkscape:deskcolor="#505050" /><defs
     id="defs32609"><inkscape:path-effect
       effect="spiro"
       id="path-effect193744"
       is_visible="true"
       lpeversion="1" /><inkscape:path-effect
       effect="spiro"
       id="path-effect193666"
       is_visible="true"
       lpeversion="1" /><inkscape:path-effect
       effect="spiro"
       id="path-effect193588"
       is_visible="true"
       lpeversion="1" /><inkscape:path-effect
       effect="spiro"
       id="path-effect193510"
       is_visible="true"
       lpeversion="1" /><inkscape:path-effect
       effect="spiro"
       id="path-effect193432"
       is_visible="true"
       lpeversion="1" /><inkscape:path-effect
       effect="spiro"
       id="path-effect193354"
       is_visible="true"
       lpeversion="1" /><inkscape:path-effect
       effect="spiro"
       id="path-effect193276"
       is_visible="true"
       lpeversion="1" /><inkscape:path-effect
       effect="spiro"
       id="path-effect192335"
       is_visible="true"
       lpeversion="1" /><inkscape:path-effect
       effect="spiro"
       id="path-effect192257"
       is_visible="true"
       lpeversion="1" /><inkscape:path-effect
       effect="spiro"
       id="path-effect191963"
       is_visible="true"
       lpeversion="1" /><inkscape:path-effect
       effect="spiro"
       id="path-effect191885"
       is_visible="true"
       lpeversion="1" /><inkscape:path-effect
       effect="spiro"
       id="path-effect191807"
       is_visible="true"
       lpeversion="1" /><inkscape:path-effect
       effect="spiro"
       id="path-effect191729"
       is_visible="true"
       lpeversion="1" /><inkscape:path-effect
       effect="spiro"
       id="path-effect191651"
       is_visible="true"
       lpeversion="1" /><inkscape:path-effect
       effect="spiro"
       id="path-effect191485"
       is_visible="true"
       lpeversion="1" /><inkscape:path-effect
       effect="spiro"
       id="path-effect190242"
       is_visible="true"
       lpeversion="1" /><inkscape:path-effect
       effect="spiro"
       id="path-effect190164"
       is_visible="true"
       lpeversion="1" /><inkscape:path-effect
       effect="spiro"
       id="path-effect190086"
       is_visible="true"
       lpeversion="1" /><inkscape:path-effect
       effect="spiro"
       id="path-effect190008"
       is_visible="true"
       lpeversion="1" /><marker
       style="overflow:visible"
       id="Arrow3"
       refX="0"
       refY="0"
       orient="auto-start-reverse"
       inkscape:stockid="Arrow3"
       markerWidth="4.2071066"
       markerHeight="7"
       viewBox="0 0 4.2071068 7"
       inkscape:isstock="true"
       inkscape:collect="always"
       preserveAspectRatio="xMidYMid"><path
         style="fill:none;stroke:context-stroke;stroke-width:1;stroke-linecap:round"
         d="M 3,-3 0,0 3,3"
         id="arrow3"
         transform="rotate(180,0.125,0)"
         sodipodi:nodetypes="ccc" /></marker><inkscape:path-effect
       effect="spiro"
       id="path-effect189655"
       is_visible="true"
       lpeversion="1" /><inkscape:path-effect
       effect="spiro"
       id="path-effect67045"
       is_visible="true"
       lpeversion="1" /><inkscape:path-effect
       effect="spiro"
       id="path-effect67041"
       is_visible="true"
       lpeversion="1" /><inkscape:path-effect
       effect="spiro"
       id="path-effect66893"
       is_visible="true"
       lpeversion="1" /><inkscape:path-effect
       effect="spiro"
       id="path-effect66889"
       is_visible="true"
       lpeversion="1" /><inkscape:path-effect
       effect="spiro"
       id="path-effect62060"
       is_visible="true"
       lpeversion="1" /><inkscape:path-effect
       effect="spiro"
       id="path-effect61932"
       is_visible="true"
       lpeversion="1" /><marker
       style="overflow:visible"
       id="marker9621"
       refX="0"
       refY="0"
       orient="auto"
       inkscape:stockid="Arrow2Mend"
       inkscape:isstock="true"
       viewBox="0 0 6.9304588 5.1962256"
       markerWidth="4.9299998"
       markerHeight="3.6963489"
       preserveAspectRatio="xMidYMid"><path
         transform="scale(-0.6)"
         d="M 8.7185878,4.0337352 -2.2072895,0.01601326 8.7185884,-4.0017078 c -1.7454984,2.3720609 -1.7354408,5.6174519 -6e-7,8.035443 z"
         style="fill:context-stroke;fill-rule:evenodd;stroke:context-stroke;stroke-width:0.625;stroke-linejoin:round"
         id="path9619" /></marker><marker
       style="overflow:visible"
       id="Arrow2Mend"
       refX="0"
       refY="0"
       orient="auto"
       inkscape:stockid="Arrow2Mend"
       inkscape:isstock="true"><path
         transform="scale(-0.6)"
         d="M 8.7185878,4.0337352 -2.2072895,0.01601326 8.7185884,-4.0017078 c -1.7454984,2.3720609 -1.7354408,5.6174519 -6e-7,8.035443 z"
         style="fill:context-stroke;fill-rule:evenodd;stroke:context-stroke;stroke-width:0.625;stroke-linejoin:round"
         id="path9370" /></marker><marker
       style="overflow:visible"
       id="Arrow2Lend"
       refX="0"
       refY="0"
       orient="auto"
       inkscape:stockid="Arrow2Lend"
       inkscape:isstock="true"><path
         transform="matrix(-1.1,0,0,-1.1,-1.1,0)"
         d="M 8.7185878,4.0337352 -2.2072895,0.01601326 8.7185884,-4.0017078 c -1.7454984,2.3720609 -1.7354408,5.6174519 -6e-7,8.035443 z"
         style="fill:context-stroke;fill-rule:evenodd;stroke:context-stroke;stroke-width:0.625;stroke-linejoin:round"
         id="path9364" /></marker><inkscape:path-effect
       effect="spiro"
       id="path-effect8375"
       is_visible="true"
       lpeversion="1" /><inkscape:path-effect
       effect="spiro"
       id="path-effect8371"
       is_visible="true"
       lpeversion="1" /><inkscape:path-effect
       effect="spiro"
       id="path-effect8334"
       is_visible="true"
       lpeversion="1" /><inkscape:path-effect
       effect="spiro"
       id="path-effect8213"
       is_visible="true"
       lpeversion="1" /><clipPath
       id="clip1"><path
         d="m 28,134 h 11 v 17.24219 H 28 Z m 0,0"
         id="path32600" /></clipPath><clipPath
       id="clip2"><path
         d="m 75,134 h 12 v 17.24219 H 75 Z m 0,0"
         id="path32603" /></clipPath><clipPath
       id="clip3"><path
         d="m 345,133 h 10.31641 v 13 H 345 Z m 0,0"
         id="path32606" /></clipPath><g
       id="id-d512316c-f310-4ef7-b32f-ea93f87dd485-7"><g
         id="id-aec88e65-99b3-4c56-a594-255c12e961eb-5"><path
           d="M 5.40625,-10.46875 H 1.21875 V 3.484375 h 4.1875 z M 4.875,-9.953125 V 2.96875 H 1.78125 V -9.953125 Z M 3.234375,-4.5 c -0.390625,0 -0.9375,0.125 -0.9375,0.390625 0,0.125 0.09375,0.234375 0.25,0.234375 0.03125,0 0.078125,-0.015625 0.125,-0.03125 0.171875,-0.078125 0.3125,-0.109375 0.515625,-0.109375 0.5,0 0.609375,0.296875 0.609375,0.6875 0,0.53125 -0.1875,0.71875 -0.90625,0.765625 v 0.84375 c 0,0.140625 0.125,0.234375 0.25,0.234375 0.125,0 0.25,-0.09375 0.25,-0.234375 V -2.171875 C 4.0625,-2.265625 4.34375,-2.65625 4.34375,-3.34375 4.34375,-3.953125 4.09375,-4.5 3.234375,-4.5 Z m -0.09375,3.296875 c -0.203125,0 -0.34375,0.15625 -0.34375,0.359375 0,0.203125 0.140625,0.359375 0.34375,0.359375 0.203125,0 0.34375,-0.15625 0.34375,-0.359375 0,-0.203125 -0.140625,-0.359375 -0.34375,-0.359375 z m 0,0"
           id="id-7c2a457f-f768-4159-9e9f-9df2cc3e5e13-3" /></g><g
         id="id-cbdc8fff-0ca5-40b0-a6c3-fd6785a6998c-5"><path
           d="M 4.03125,-5.25 H 0.484375 v 0.78125 h 2.5 L 0.25,-0.6875 V 0 H 3.953125 L 4.0625,-0.765625 H 1.28125 l 2.75,-3.796875 z m 0,0"
           id="id-d973a2bc-a0f1-46d3-be99-e1468b8100fd-6" /></g><g
         id="id-5686a47d-2053-4c4d-820f-b70b1f5df129-2"><path
           d="m 4.921875,-2.78125 c 0,-1.609375 -0.75,-2.59375 -2.171875,-2.59375 -1.359375,0 -2.1875,1.171875 -2.1875,2.796875 0,1.671875 0.859375,2.703125 2.328125,2.703125 0.734375,0 1.3125,-0.25 1.828125,-0.65625 L 4.328125,-1.09375 C 3.875,-0.765625 3.484375,-0.625 2.953125,-0.625 c -0.75,0 -1.3125,-0.46875 -1.40625,-1.6875 h 3.34375 c 0.015625,-0.125 0.03125,-0.296875 0.03125,-0.46875 z M 4,-2.984375 H 1.546875 c 0.0625,-1.171875 0.53125,-1.65625 1.21875,-1.65625 0.828125,0 1.234375,0.5625 1.234375,1.59375 z m 0,0"
           id="id-a332717d-d305-44bd-a0ed-aad2acac9b2e-9" /></g><g
         id="id-0e774e49-ecc7-4b16-9075-b05632ae91b5-1"><path
           d="m 3.203125,-5.375 c -0.640625,0 -1.125,0.40625 -1.40625,1.1875 L 1.703125,-5.25 H 0.921875 V 0 h 0.90625 v -3 c 0.21875,-1 0.609375,-1.46875 1.265625,-1.46875 0.1875,0 0.296875,0.015625 0.453125,0.046875 L 3.71875,-5.3125 C 3.5625,-5.359375 3.375,-5.375 3.203125,-5.375 Z m 0,0"
           id="id-af3d88dc-cd40-4e0c-89bc-b4785b17be2d-2" /></g><g
         id="id-b16cf8d5-1627-44bd-a3e3-091b7fd09800-7"><path
           d="m 2.921875,-5.375 c -1.5,0 -2.359375,1.125 -2.359375,2.75 0,1.671875 0.859375,2.75 2.34375,2.75 C 4.390625,0.125 5.25,-1 5.25,-2.625 c 0,-1.671875 -0.828125,-2.75 -2.328125,-2.75 z m 0,0.734375 c 0.859375,0 1.34375,0.640625 1.34375,2.015625 0,1.375 -0.484375,2 -1.359375,2 -0.875,0 -1.34375,-0.625 -1.34375,-2 0,-1.375 0.484375,-2.015625 1.359375,-2.015625 z m 0,0"
           id="id-20005495-b261-4cc2-b6b6-ed297e2db39b-0" /></g><g
         id="id-6b9ff16d-207e-4e6d-bab3-4e5b23972824-9"><path
           d="m 3.25,-0.84375 c -0.265625,0.140625 -0.46875,0.203125 -0.703125,0.203125 -0.453125,0 -0.625,-0.25 -0.625,-0.78125 v -3.125 h 1.15625 L 3.171875,-5.25 h -1.25 V -6.546875 L 1,-6.4375 V -5.25 H 0.09375 v 0.703125 H 1 V -1.375 c 0,0.96875 0.53125,1.5 1.421875,1.5 C 2.875,0.125 3.25,0 3.59375,-0.234375 Z m 0,0"
           id="id-32b60361-bbea-40ea-b977-53eb510acd35-3" /></g><g
         id="id-71869a43-d697-4ceb-a7f9-8ebf4b864781-6"><path
           d="m 3.390625,-5.375 c -0.65625,0 -1.171875,0.328125 -1.5625,0.84375 v -2.921875 l -0.90625,0.09375 V 0 h 0.90625 V -3.734375 C 2.1875,-4.28125 2.59375,-4.65625 3.15625,-4.65625 3.65625,-4.65625 4,-4.421875 4,-3.640625 V 0 H 4.921875 V -3.765625 C 4.921875,-4.75 4.34375,-5.375 3.390625,-5.375 Z m 0,0"
           id="id-1e3d112e-4560-4763-824b-0e30cffc45d8-0" /></g><g
         id="id-1e91a301-79e9-4d0c-a978-b6b3c6a52f9e-6"><path
           d="m 2.375,-5.375 c -1.09375,0 -1.890625,0.609375 -1.890625,1.453125 0,0.734375 0.4375,1.21875 1.578125,1.515625 1.015625,0.265625 1.28125,0.46875 1.28125,0.984375 0,0.5 -0.4375,0.796875 -1.125,0.796875 -0.578125,0 -1.0625,-0.1875 -1.484375,-0.5 L 0.25,-0.5625 c 0.453125,0.390625 1.09375,0.6875 1.984375,0.6875 1.0625,0 2.078125,-0.5 2.078125,-1.59375 0,-0.921875 -0.640625,-1.359375 -1.75,-1.640625 -0.84375,-0.21875 -1.125,-0.421875 -1.125,-0.84375 0,-0.421875 0.359375,-0.6875 0.96875,-0.6875 0.484375,0 0.890625,0.140625 1.359375,0.4375 L 4.15625,-4.78125 C 3.65625,-5.15625 3.109375,-5.375 2.375,-5.375 Z m 0,0"
           id="id-53a9d073-0486-42ca-ac9a-a430e0ddfb98-2" /></g><g
         id="id-0db217cc-3c59-4772-870f-536584d3a0e2-6"><path
           d="m 1.359375,-7.78125 c -0.375,0 -0.625,0.28125 -0.625,0.640625 0,0.34375 0.25,0.609375 0.625,0.609375 0.390625,0 0.65625,-0.265625 0.65625,-0.609375 C 2.015625,-7.5 1.75,-7.78125 1.359375,-7.78125 Z M 1.828125,-5.25 H 0.921875 V 0 h 0.90625 z m 0,0"
           id="id-87b2e3dc-de9a-40b7-8807-e8766aeb7488-1" /></g></g><marker
       style="overflow:visible"
       id="marker9621-3"
       refX="0"
       refY="0"
       orient="auto"
       inkscape:stockid="Arrow2Mend"
       inkscape:isstock="true"
       viewBox="0 0 6.9304588 5.1962256"
       markerWidth="4.9299998"
       markerHeight="3.6963489"
       preserveAspectRatio="xMidYMid"><path
         transform="scale(-0.6)"
         d="M 8.7185878,4.0337352 -2.2072895,0.01601326 8.7185884,-4.0017078 c -1.7454984,2.3720609 -1.7354408,5.6174519 -6e-7,8.035443 z"
         style="fill:context-stroke;fill-rule:evenodd;stroke:context-stroke;stroke-width:0.625;stroke-linejoin:round"
         id="path9619-7" /></marker><inkscape:path-effect
       effect="spiro"
       id="path-effect61932-4"
       is_visible="true"
       lpeversion="1" /><marker
       style="overflow:visible"
       id="marker66301"
       refX="0"
       refY="0"
       orient="auto"
       inkscape:stockid="Arrow2Mend"
       inkscape:isstock="true"
       viewBox="0 0 6.9304588 5.1962256"
       markerWidth="4.9299998"
       markerHeight="3.6963489"
       preserveAspectRatio="xMidYMid"><path
         transform="scale(-0.6)"
         d="M 8.7185878,4.0337352 -2.2072895,0.01601326 8.7185884,-4.0017078 c -1.7454984,2.3720609 -1.7354408,5.6174519 -6e-7,8.035443 z"
         style="fill:context-stroke;fill-rule:evenodd;stroke:context-stroke;stroke-width:0.625;stroke-linejoin:round"
         id="path66299" /></marker><inkscape:path-effect
       effect="spiro"
       id="path-effect62060-5"
       is_visible="true"
       lpeversion="1" /><g
       id="id-8ff3f0e3-ea48-431a-b7f5-ec813b225ae0-8"><g
         id="id-89867edc-7e2f-4717-95f8-cfd827ff8c1b-4" /><g
         id="id-1ccb1e4e-44ed-4ada-ac7d-37bbc13c2c2a-3"><path
           d="M 5.390625,-6.078125 C 5.46875,-6.40625 5.5,-6.5 6.046875,-6.5 c 0.15625,0 0.265625,0 0.265625,-0.1875 0,-0.09375 -0.0625,-0.125 -0.140625,-0.125 -0.25,0 -0.859375,0.03125 -1.109375,0.03125 -0.328125,0 -1.140625,-0.03125 -1.46875,-0.03125 -0.078125,0 -0.203125,0 -0.203125,0.203125 C 3.390625,-6.5 3.46875,-6.5 3.734375,-6.5 c 0.21875,0 0.328125,0 0.578125,0.015625 0.234375,0.03125 0.296875,0.0625 0.296875,0.203125 0,0.0625 -0.015625,0.125 -0.03125,0.203125 L 3.421875,-1.5 C 3.1875,-0.53125 2.515625,0 2,0 1.734375,0 1.203125,-0.09375 1.046875,-0.625 c 0.03125,0.015625 0.09375,0.015625 0.125,0.015625 0.390625,0 0.640625,-0.34375 0.640625,-0.640625 0,-0.3125 -0.265625,-0.421875 -0.4375,-0.421875 -0.171875,0 -0.671875,0.125 -0.671875,0.796875 0,0.625 0.53125,1.09375 1.328125,1.09375 0.90625,0 1.953125,-0.65625 2.203125,-1.640625 z m 0,0"
           id="id-5354838d-8131-474a-9b92-6564ba0854ec-1" /></g><g
         id="id-b018d5b6-a2da-4247-956f-a6d545de577f-4"><path
           d="m 5.359375,-5.9375 c -0.140625,0.140625 -0.46875,0.421875 -0.46875,0.59375 0,0.09375 0.09375,0.203125 0.1875,0.203125 0.09375,0 0.140625,-0.078125 0.203125,-0.140625 C 5.390625,-5.421875 5.625,-5.703125 6.0625,-5.921875 6.125,-5.96875 6.234375,-6.015625 6.234375,-6.125 6.234375,-6.234375 6.15625,-6.28125 6.09375,-6.328125 5.875,-6.484375 5.765625,-6.65625 5.6875,-6.890625 5.65625,-6.984375 5.625,-7.125 5.484375,-7.125 c -0.140625,0 -0.203125,0.140625 -0.203125,0.21875 0,0.046875 0.078125,0.359375 0.234375,0.578125 H 2.15625 c -0.15625,0 -0.34375,0 -0.34375,0.203125 0,0.1875 0.1875,0.1875 0.34375,0.1875 z m 0,0"
           id="id-09dd3d4c-9dda-4bf5-9c06-3bde05e3bfe8-9" /></g><g
         id="id-c8a14601-dd47-4789-973d-40955e90a03d-2"><path
           d="m 6.4375,-6.921875 c 0,-0.03125 -0.03125,-0.109375 -0.125,-0.109375 -0.046875,0 -0.046875,0.015625 -0.171875,0.15625 L 5.65625,-6.3125 c -0.25,-0.46875 -0.765625,-0.71875 -1.421875,-0.71875 -1.265625,0 -2.453125,1.15625 -2.453125,2.359375 0,0.796875 0.515625,1.265625 1.03125,1.40625 l 1.0625,0.28125 c 0.375,0.09375 0.921875,0.25 0.921875,1.0625 0,0.890625 -0.8125,1.828125 -1.796875,1.828125 -0.640625,0 -1.75,-0.21875 -1.75,-1.453125 0,-0.234375 0.0625,-0.484375 0.0625,-0.53125 0.015625,-0.046875 0.015625,-0.0625 0.015625,-0.078125 0,-0.09375 -0.0625,-0.109375 -0.109375,-0.109375 -0.046875,0 -0.078125,0.015625 -0.109375,0.046875 -0.03125,0.03125 -0.59375,2.3125 -0.59375,2.34375 0,0.046875 0.046875,0.09375 0.109375,0.09375 0.046875,0 0.0625,-0.015625 0.1875,-0.15625 L 1.296875,-0.5 c 0.421875,0.578125 1.109375,0.71875 1.6875,0.71875 1.359375,0 2.53125,-1.328125 2.53125,-2.5625 0,-0.6875 -0.34375,-1.03125 -0.484375,-1.171875 C 4.796875,-3.734375 4.640625,-3.78125 3.765625,-4 3.53125,-4.0625 3.1875,-4.171875 3.09375,-4.1875 2.828125,-4.28125 2.484375,-4.5625 2.484375,-5.09375 c 0,-0.8125 0.796875,-1.65625 1.75,-1.65625 0.8125,0 1.421875,0.4375 1.421875,1.546875 0,0.3125 -0.03125,0.5 -0.03125,0.5625 0,0 0,0.09375 0.109375,0.09375 0.109375,0 0.125,-0.03125 0.15625,-0.203125 z m 0,0"
           id="id-e3e9f74e-6f91-4aca-a411-a94fb61518fb-0" /></g><g
         id="id-6d43e6c6-91a6-49e8-94d4-4b201124fb6e-6" /><g
         id="id-5f5cfd60-bd74-4c9b-a45e-4f3fc6e49e20-8"><path
           d="M 3.984375,-4.625 C 3.984375,-4.640625 4,-4.734375 4,-4.734375 4,-4.78125 3.984375,-4.84375 3.890625,-4.84375 3.75,-4.84375 3.171875,-4.78125 3,-4.765625 c -0.046875,0 -0.15625,0.015625 -0.15625,0.15625 0,0.09375 0.109375,0.09375 0.1875,0.09375 0.328125,0 0.328125,0.0625 0.328125,0.109375 0,0.046875 0,0.09375 -0.015625,0.15625 L 2.9375,-2.65625 c -0.140625,-0.234375 -0.375,-0.421875 -0.71875,-0.421875 -0.890625,0 -1.796875,0.984375 -1.796875,1.984375 0,0.6875 0.453125,1.15625 1.0625,1.15625 0.375,0 0.703125,-0.203125 0.984375,-0.484375 C 2.59375,0 3,0.0625 3.1875,0.0625 c 0.25,0 0.421875,-0.140625 0.546875,-0.359375 0.15625,-0.28125 0.25,-0.671875 0.25,-0.703125 0,-0.09375 -0.09375,-0.09375 -0.109375,-0.09375 -0.109375,0 -0.109375,0.03125 -0.15625,0.21875 C 3.625,-0.53125 3.5,-0.125 3.203125,-0.125 3.03125,-0.125 2.96875,-0.28125 2.96875,-0.46875 c 0,-0.125 0.015625,-0.1875 0.046875,-0.28125 z M 2.5,-0.875 C 2.453125,-0.671875 2.296875,-0.53125 2.140625,-0.40625 2.078125,-0.34375 1.796875,-0.125 1.5,-0.125 c -0.265625,0 -0.515625,-0.1875 -0.515625,-0.671875 0,-0.375 0.203125,-1.140625 0.375,-1.421875 0.3125,-0.5625 0.671875,-0.65625 0.859375,-0.65625 0.484375,0 0.625,0.53125 0.625,0.609375 0,0.015625 -0.015625,0.078125 -0.015625,0.09375 z m 0,0"
           id="id-ef8d4a3a-fc31-4687-9f2a-844764953c67-9" /></g><g
         id="id-1fd6a83e-26f8-4d6f-b0a2-2d665dc27d8d-2" /><g
         id="id-62c44949-be12-444f-8797-e882debc94ca-6"><path
           d="m 1.90625,-2.5 c 0,-0.28125 -0.234375,-0.515625 -0.515625,-0.515625 -0.296875,0 -0.53125,0.234375 -0.53125,0.515625 0,0.296875 0.234375,0.53125 0.53125,0.53125 0.28125,0 0.515625,-0.234375 0.515625,-0.53125 z m 0,0"
           id="id-698b8b45-29ad-4c8e-b041-cf46bc49f7c3-6" /></g><g
         id="id-d5b3fd6c-80dd-44fb-a2dc-2ced89bcabe2-4" /><g
         id="id-511c8079-f16c-4e54-a24f-763d164af610-9"><path
           d="M 3.59375,-2.21875 C 3.59375,-2.984375 3.5,-3.546875 3.1875,-4.03125 2.96875,-4.34375 2.53125,-4.625 1.984375,-4.625 c -1.625,0 -1.625,1.90625 -1.625,2.40625 0,0.5 0,2.359375 1.625,2.359375 1.609375,0 1.609375,-1.859375 1.609375,-2.359375 z M 1.984375,-0.0625 c -0.328125,0 -0.75,-0.1875 -0.890625,-0.75 C 1,-1.21875 1,-1.796875 1,-2.3125 1,-2.828125 1,-3.359375 1.09375,-3.734375 1.25,-4.28125 1.6875,-4.4375 1.984375,-4.4375 c 0.375,0 0.734375,0.234375 0.859375,0.640625 0.109375,0.375 0.125,0.875 0.125,1.484375 0,0.515625 0,1.03125 -0.09375,1.46875 -0.140625,0.640625 -0.609375,0.78125 -0.890625,0.78125 z m 0,0"
           id="id-12345f9d-fcfc-4a27-a4d4-187c0bee24ce-5" /></g></g><clipPath
       id="clip-0"><path
         clip-rule="nonzero"
         d="m 168,145 h 222.75391 v 54 H 168 Z m 0,0"
         id="path73297" /></clipPath><clipPath
       id="clip-1"><path
         clip-rule="nonzero"
         d="m 167,143 h 57 v 57.30859 h -57 z m 0,0"
         id="path73300" /></clipPath><clipPath
       id="clip-2"><path
         clip-rule="nonzero"
         d="m 348,150 h 42.75391 v 44 H 348 Z m 0,0"
         id="path73303" /></clipPath><filter
       id="filter-remove-color"
       x="0"
       y="0"
       width="1"
       height="1"><feColorMatrix
         color-interpolation-filters="sRGB"
         values="0 0 0 0 1 0 0 0 0 1 0 0 0 0 1 0 0 0 1 0"
         id="feColorMatrix74332" /></filter><clipPath
       id="clip-1-9"><path
         clip-rule="nonzero"
         d="M 0,50 H 1768 V 874 H 0 Z m 0,0"
         id="path74343" /></clipPath><clipPath
       id="clip-2-7"><rect
         x="0"
         y="0"
         width="2061"
         height="1078"
         id="rect74346" /></clipPath><g
       id="source-816097"
       clip-path="url(#clip-2-7)"><path
         fill-rule="nonzero"
         fill="#d0b900"
         fill-opacity="1"
         d="M 506.68359,153.15625 H 1630.0195 L 1239.082,771.3125 H 115.74609 Z m 0,0"
         id="path74349" /><g
         clip-path="url(#clip-1-9)"
         id="g74353"><path
           fill="none"
           stroke-width="21.3876"
           stroke-linecap="butt"
           stroke-linejoin="miter"
           stroke="#566050"
           stroke-opacity="1"
           stroke-dasharray="42.7751, 21.3876"
           stroke-miterlimit="4"
           d="M 603.54419,181.21483 H 1726.8801 v 731.4039 H 603.5472 Z m 0,0"
           transform="matrix(1,0,-0.534507,0.845164,0,0)"
           id="path74351" /></g></g><clipPath
       id="clip-3"><path
         clip-rule="nonzero"
         d="m 826,792 h 409 v 285.2383 H 826 Z m 0,0"
         id="path74356" /></clipPath><clipPath
       id="clip-4"><path
         clip-rule="nonzero"
         d="m 1842,155 h 218.2422 V 309 H 1842 Z m 0,0"
         id="path74359" /></clipPath><clipPath
       id="clip-5"><path
         clip-rule="nonzero"
         d="m 1652,0 h 408.2422 V 286 H 1652 Z m 0,0"
         id="path74362" /></clipPath><inkscape:path-effect
       effect="spiro"
       id="path-effect8736"
       is_visible="true"
       lpeversion="1" /><inkscape:path-effect
       effect="spiro"
       id="path-effect4525"
       is_visible="true"
       lpeversion="1" /><rect
       x="321.28134"
       y="205.74641"
       width="280.79419"
       height="58.809963"
       id="rect13643" /><inkscape:path-effect
       effect="bspline"
       id="path-effect7524"
       is_visible="true"
       lpeversion="1"
       weight="33.333333"
       steps="2"
       helper_size="0"
       apply_no_weight="true"
       apply_with_weight="true"
       only_selected="false" /><inkscape:path-effect
       effect="bspline"
       id="path-effect5514"
       is_visible="true"
       lpeversion="1"
       weight="33.333333"
       steps="2"
       helper_size="0"
       apply_no_weight="true"
       apply_with_weight="true"
       only_selected="false" /><inkscape:path-effect
       effect="spiro"
       id="path-effect1424"
       is_visible="true"
       lpeversion="1" /><inkscape:path-effect
       effect="spiro"
       id="path-effect1420"
       is_visible="true"
       lpeversion="1" /><inkscape:path-effect
       effect="spiro"
       id="path-effect1416"
       is_visible="true"
       lpeversion="1" /><inkscape:path-effect
       effect="spiro"
       id="path-effect1412"
       is_visible="true"
       lpeversion="1" /><inkscape:path-effect
       effect="spiro"
       id="path-effect4525-2"
       is_visible="true"
       lpeversion="1" /><inkscape:path-effect
       effect="spiro"
       id="path-effect8736-6"
       is_visible="true"
       lpeversion="1" /><g
       id="id-5f80445e-fa53-4224-a85a-06142192f8fd"><g
         id="id-ee480c29-57f1-4277-8dd0-9c61e5d21d61"><path
           d="M 5.40625,-10.46875 V 3.484375 H 1.21875 V -10.46875 Z M 4.875,-9.953125 H 1.78125 V 2.96875 H 4.875 Z M 3.234375,-4.5 c 0.394531,0 0.675781,0.109375 0.84375,0.328125 0.175781,0.210937 0.265625,0.484375 0.265625,0.828125 0,0.34375 -0.078125,0.617188 -0.234375,0.8125 -0.148437,0.1875 -0.386719,0.308594 -0.71875,0.359375 v 0.453125 c 0,0.074219 -0.027344,0.132812 -0.078125,0.171875 -0.054688,0.042969 -0.109375,0.0625 -0.171875,0.0625 -0.0625,0 -0.121094,-0.019531 -0.171875,-0.0625 C 2.914062,-1.585938 2.890625,-1.644531 2.890625,-1.71875 V -2.5625 c 0.351563,-0.019531 0.59375,-0.082031 0.71875,-0.1875 0.125,-0.113281 0.1875,-0.304688 0.1875,-0.578125 0,-0.21875 -0.046875,-0.382813 -0.140625,-0.5 -0.085938,-0.125 -0.242188,-0.1875 -0.46875,-0.1875 -0.1875,0 -0.359375,0.039063 -0.515625,0.109375 -0.054687,0.023438 -0.09375,0.03125 -0.125,0.03125 -0.074219,0 -0.136719,-0.019531 -0.1875,-0.0625 -0.042969,-0.039062 -0.0625,-0.097656 -0.0625,-0.171875 0,-0.125 0.097656,-0.21875 0.296875,-0.28125 C 2.789062,-4.460938 3.003906,-4.5 3.234375,-4.5 Z m -0.09375,3.296875 c 0.101563,0 0.1875,0.039063 0.25,0.109375 0.0625,0.0625 0.09375,0.148438 0.09375,0.25 0,0.105469 -0.03125,0.195312 -0.09375,0.265625 -0.0625,0.0625 -0.148437,0.09375 -0.25,0.09375 -0.105469,0 -0.1875,-0.03125 -0.25,-0.09375 -0.0625,-0.070313 -0.09375,-0.160156 -0.09375,-0.265625 0,-0.101562 0.03125,-0.1875 0.09375,-0.25 0.0625,-0.070312 0.144531,-0.109375 0.25,-0.109375 z m 0,0"
           id="id-81df22e7-cdbb-4e52-bffc-4b48a8bad476" /></g><g
         id="id-a384d93b-2ebb-4cb0-8075-6028bafc97c9"><path
           d="M 7.140625,0 H 6.21875 L 5.984375,-3.09375 C 5.878906,-4.3125 5.820312,-5.25 5.8125,-5.90625 l -1.484375,5.125 H 3.4375 l -1.5625,-5.125 c 0,0.824219 -0.042969,1.78125 -0.125,2.875 L 1.515625,0 H 0.625 l 0.5625,-6.875 h 1.28125 l 1.4375,5 1.375,-5 H 6.5625 Z m 0,0"
           id="id-df5d30a1-27f7-46ea-b64e-d4e64f310068" /></g><g
         id="id-7f4e0de4-9d39-497e-82dd-66c9d887a283"><path
           d="M 1.859375,-5.25 V 0 h -0.90625 v -5.25 z m -0.46875,-2.53125 c 0.195313,0 0.351563,0.0625 0.46875,0.1875 0.125,0.117188 0.1875,0.265625 0.1875,0.453125 0,0.179687 -0.0625,0.324219 -0.1875,0.4375 -0.117187,0.117187 -0.273437,0.171875 -0.46875,0.171875 -0.179687,0 -0.328125,-0.054688 -0.453125,-0.171875 -0.117188,-0.113281 -0.171875,-0.257813 -0.171875,-0.4375 0,-0.1875 0.054687,-0.335937 0.171875,-0.453125 0.125,-0.125 0.273438,-0.1875 0.453125,-0.1875 z m 0,0"
           id="id-4c3dc809-91c5-4a5d-aed5-9ec79823b017" /></g><g
         id="id-dbdec125-523a-4d5b-b298-4c165a2afeba"><path
           d="m 3.421875,-5.375 c 0.476563,0 0.847656,0.148438 1.109375,0.4375 0.269531,0.28125 0.40625,0.671875 0.40625,1.171875 V 0 H 4.03125 v -3.640625 c 0,-0.375 -0.074219,-0.632813 -0.21875,-0.78125 -0.136719,-0.15625 -0.339844,-0.234375 -0.609375,-0.234375 -0.28125,0 -0.53125,0.085938 -0.75,0.25 -0.210937,0.15625 -0.40625,0.382812 -0.59375,0.671875 V 0 h -0.90625 v -5.25 h 0.78125 L 1.8125,-4.46875 C 2,-4.75 2.226562,-4.96875 2.5,-5.125 c 0.28125,-0.164062 0.585938,-0.25 0.921875,-0.25 z m 0,0"
           id="id-88f50d2a-a9a1-4669-9bed-d897da6372e4" /></g><g
         id="id-403dc16c-2c5d-4ce8-8b74-545ca50252b6"><path
           d="M 1.859375,-7.484375 V 0 H 0.953125 V -7.359375 Z M 4.890625,-5.25 2.953125,-2.9375 5.109375,0 H 4 l -2.078125,-2.875 1.9375,-2.375 z m 0,0"
           id="id-efa0bd25-ee95-4ce8-a424-af0ca272746d" /></g><g
         id="id-d72a3f24-310c-4099-af53-13fdb4c450a2"><path
           d="m 2.921875,-5.375 c 0.738281,0 1.3125,0.25 1.71875,0.75 0.40625,0.492188 0.609375,1.15625 0.609375,2 0,0.542969 -0.09375,1.023438 -0.28125,1.4375 -0.1875,0.417969 -0.460938,0.742188 -0.8125,0.96875 C 3.8125,0.0078125 3.394531,0.125 2.90625,0.125 2.164062,0.125 1.585938,-0.117188 1.171875,-0.609375 0.765625,-1.109375 0.5625,-1.78125 0.5625,-2.625 c 0,-0.539062 0.09375,-1.019531 0.28125,-1.4375 0.1875,-0.414062 0.457031,-0.738281 0.8125,-0.96875 C 2.007812,-5.257812 2.429688,-5.375 2.921875,-5.375 Z m 0,0.734375 c -0.90625,0 -1.359375,0.671875 -1.359375,2.015625 0,1.335938 0.445312,2 1.34375,2 0.90625,0 1.359375,-0.664062 1.359375,-2 0,-1.34375 -0.449219,-2.015625 -1.34375,-2.015625 z m 0,0"
           id="id-863ee8ea-d1f0-4093-bc39-b48650eeb921" /></g><g
         id="id-90dd7226-d5d8-4e82-99f5-b1e5e1a05a52"><path
           d="M 6.953125,-5.25 5.75,0 H 4.5 L 3.59375,-4.421875 2.640625,0 h -1.21875 l -1.21875,-5.25 h 0.90625 L 2.0625,-0.640625 3.09375,-5.25 H 4.125 L 5.109375,-0.640625 6.078125,-5.25 Z m 0,0"
           id="id-9254531c-6786-456b-ab48-349183394fef" /></g><g
         id="id-08f14027-cbcd-4a8b-9c3a-08a71d8af581"><path
           d="m 2.375,-5.375 c 0.351562,0 0.671875,0.054688 0.953125,0.15625 0.289063,0.09375 0.566406,0.242188 0.828125,0.4375 L 3.765625,-4.203125 C 3.523438,-4.347656 3.296875,-4.457031 3.078125,-4.53125 2.867188,-4.601562 2.644531,-4.640625 2.40625,-4.640625 c -0.304688,0 -0.542969,0.0625 -0.71875,0.1875 -0.167969,0.117187 -0.25,0.28125 -0.25,0.5 0,0.210937 0.078125,0.375 0.234375,0.5 0.164063,0.117187 0.460937,0.230469 0.890625,0.34375 0.582031,0.148437 1.019531,0.34375 1.3125,0.59375 0.289062,0.25 0.4375,0.601563 0.4375,1.046875 0,0.511719 -0.203125,0.90625 -0.609375,1.1875 C 3.296875,-0.0078125 2.804688,0.125 2.234375,0.125 1.429688,0.125 0.769531,-0.101562 0.25,-0.5625 L 0.734375,-1.125 c 0.445313,0.335938 0.941406,0.5 1.484375,0.5 0.34375,0 0.613281,-0.066406 0.8125,-0.203125 0.207031,-0.144531 0.3125,-0.34375 0.3125,-0.59375 0,-0.175781 -0.039062,-0.316406 -0.109375,-0.421875 C 3.160156,-1.957031 3.03125,-2.054688 2.84375,-2.140625 2.664062,-2.222656 2.40625,-2.3125 2.0625,-2.40625 1.5,-2.550781 1.09375,-2.742188 0.84375,-2.984375 c -0.242188,-0.25 -0.359375,-0.5625 -0.359375,-0.9375 0,-0.28125 0.078125,-0.53125 0.234375,-0.75 C 0.882812,-4.890625 1.109375,-5.0625 1.390625,-5.1875 1.679688,-5.3125 2.007812,-5.375 2.375,-5.375 Z m 0,0"
           id="id-59b74e56-fb3d-4031-ada3-e4c15da410d6" /></g><g
         id="id-304aee39-7dda-49c7-8206-dfee8550b3d0"><path
           d="M 2.828125,-8.03125 C 2.484375,-7.507812 2.207031,-7.046875 2,-6.640625 1.800781,-6.242188 1.644531,-5.789062 1.53125,-5.28125 c -0.117188,0.511719 -0.171875,1.109375 -0.171875,1.796875 0,0.679687 0.054687,1.273437 0.171875,1.78125 C 1.644531,-1.191406 1.800781,-0.726562 2,-0.3125 2.207031,0.09375 2.484375,0.546875 2.828125,1.046875 L 2.25,1.453125 C 1.8125,0.828125 1.472656,0.3125 1.234375,-0.09375 1.003906,-0.5 0.804688,-0.976562 0.640625,-1.53125 0.484375,-2.09375 0.40625,-2.742188 0.40625,-3.484375 0.40625,-4.222656 0.484375,-4.875 0.640625,-5.4375 0.804688,-6 1.003906,-6.476562 1.234375,-6.875 1.472656,-7.28125 1.8125,-7.796875 2.25,-8.421875 Z m 0,0"
           id="id-1ab1a53e-a966-475f-bbac-89e1e15a225f" /></g><g
         id="id-8078a582-12c5-4d7d-aba6-aaf8ae90ca94"><path
           d="m 0.984375,-8.421875 c 0.4375,0.625 0.769531,1.140625 1,1.546875 0.238281,0.398438 0.4375,0.875 0.59375,1.4375 0.164063,0.5625 0.25,1.214844 0.25,1.953125 0,0.742187 -0.085937,1.390625 -0.25,1.953125 -0.15625,0.554688 -0.355469,1.03125 -0.59375,1.4375 -0.230469,0.40625 -0.5625,0.921875 -1,1.546875 L 0.40625,1.046875 C 0.75,0.546875 1.019531,0.09375 1.21875,-0.3125 1.425781,-0.726562 1.585938,-1.191406 1.703125,-1.703125 1.816406,-2.210938 1.875,-2.804688 1.875,-3.484375 1.875,-4.171875 1.816406,-4.769531 1.703125,-5.28125 1.585938,-5.789062 1.425781,-6.242188 1.21875,-6.640625 1.019531,-7.046875 0.75,-7.507812 0.40625,-8.03125 Z m 0,0"
           id="id-a24d89a7-b75b-419e-bb3b-11cf972d998b" /></g><g
         id="id-d74c4c3c-0ebf-4149-9d37-d0d882fef85b" /><g
         id="id-fbc0ef9f-67f8-4f3b-bec9-0a5f99b769e5"><path
           d="m 5.140625,-6.8125 c 0,0 0,-0.109375 -0.125,-0.109375 -0.15625,0 -1.09375,0.09375 -1.265625,0.109375 -0.078125,0.015625 -0.140625,0.0625 -0.140625,0.1875 0,0.125 0.09375,0.125 0.234375,0.125 0.484375,0 0.5,0.0625 0.5,0.171875 L 4.3125,-6.125 3.71875,-3.765625 C 3.53125,-4.140625 3.25,-4.40625 2.796875,-4.40625 c -1.15625,0 -2.390625,1.46875 -2.390625,2.921875 0,0.9375 0.546875,1.59375 1.3125,1.59375 0.203125,0 0.703125,-0.046875 1.296875,-0.75 0.078125,0.421875 0.4375,0.75 0.90625,0.75 0.359375,0 0.578125,-0.234375 0.75,-0.546875 0.15625,-0.359375 0.296875,-0.96875 0.296875,-0.984375 0,-0.109375 -0.09375,-0.109375 -0.125,-0.109375 -0.09375,0 -0.109375,0.046875 -0.140625,0.1875 -0.171875,0.640625 -0.34375,1.234375 -0.75,1.234375 -0.28125,0 -0.296875,-0.265625 -0.296875,-0.453125 0,-0.25 0.015625,-0.3125 0.046875,-0.484375 z m -2.0625,5.625 C 3.015625,-1 3.015625,-0.984375 2.875,-0.8125 2.4375,-0.265625 2.03125,-0.109375 1.75,-0.109375 c -0.5,0 -0.640625,-0.546875 -0.640625,-0.9375 0,-0.5 0.3125,-1.71875 0.546875,-2.1875 0.3125,-0.578125 0.75,-0.953125 1.15625,-0.953125 0.640625,0 0.78125,0.8125 0.78125,0.875 0,0.0625 -0.015625,0.125 -0.03125,0.171875 z m 0,0"
           id="id-4f10cc01-377d-4fc7-a1d6-0e520cd403c3" /></g></g><g
       id="id-f31c3872-30e5-418c-96d0-fbacce48201c"><g
         id="id-c7716341-2b54-4eeb-b8bb-8a34bc570d26"><path
           d="M 5.40625,-10.46875 V 3.484375 H 1.21875 V -10.46875 Z M 4.875,-9.953125 H 1.78125 V 2.96875 H 4.875 Z M 3.234375,-4.5 c 0.394531,0 0.675781,0.109375 0.84375,0.328125 0.175781,0.210937 0.265625,0.484375 0.265625,0.828125 0,0.34375 -0.078125,0.617188 -0.234375,0.8125 -0.148437,0.1875 -0.386719,0.308594 -0.71875,0.359375 v 0.453125 c 0,0.074219 -0.027344,0.132812 -0.078125,0.171875 -0.054688,0.042969 -0.109375,0.0625 -0.171875,0.0625 -0.0625,0 -0.121094,-0.019531 -0.171875,-0.0625 C 2.914062,-1.585938 2.890625,-1.644531 2.890625,-1.71875 V -2.5625 c 0.351563,-0.019531 0.59375,-0.082031 0.71875,-0.1875 0.125,-0.113281 0.1875,-0.304688 0.1875,-0.578125 0,-0.21875 -0.046875,-0.382813 -0.140625,-0.5 -0.085938,-0.125 -0.242188,-0.1875 -0.46875,-0.1875 -0.1875,0 -0.359375,0.039063 -0.515625,0.109375 -0.054687,0.023438 -0.09375,0.03125 -0.125,0.03125 -0.074219,0 -0.136719,-0.019531 -0.1875,-0.0625 -0.042969,-0.039062 -0.0625,-0.097656 -0.0625,-0.171875 0,-0.125 0.097656,-0.21875 0.296875,-0.28125 C 2.789062,-4.460938 3.003906,-4.5 3.234375,-4.5 Z m -0.09375,3.296875 c 0.101563,0 0.1875,0.039063 0.25,0.109375 0.0625,0.0625 0.09375,0.148438 0.09375,0.25 0,0.105469 -0.03125,0.195312 -0.09375,0.265625 -0.0625,0.0625 -0.148437,0.09375 -0.25,0.09375 -0.105469,0 -0.1875,-0.03125 -0.25,-0.09375 -0.0625,-0.070313 -0.09375,-0.160156 -0.09375,-0.265625 0,-0.101562 0.03125,-0.1875 0.09375,-0.25 0.0625,-0.070312 0.144531,-0.109375 0.25,-0.109375 z m 0,0"
           id="id-a2eb17c2-32eb-4b24-997a-3ed34b6e95db" /></g><g
         id="id-17ba76da-fbe0-462e-9874-23b821594073"><path
           d="M 4.65625,0 4.140625,-1.71875 H 1.53125 L 1.015625,0 H 0.0625 l 2.203125,-6.875 h 1.1875 L 5.65625,0 Z M 1.765625,-2.5 H 3.90625 l -1.0625,-3.578125 z m 0,0"
           id="id-82c4140c-10fe-476e-88f3-67aacc9f830e" /></g><g
         id="id-d42c22ee-7d5c-4325-ba23-d1c0864d5b35"><path
           d="M 5.015625,-7.359375 V 0 h -0.8125 L 4.109375,-0.734375 C 3.941406,-0.460938 3.726562,-0.25 3.46875,-0.09375 3.207031,0.0507812 2.921875,0.125 2.609375,0.125 c -0.625,0 -1.117187,-0.242188 -1.46875,-0.734375 -0.34375,-0.5 -0.515625,-1.164063 -0.515625,-2 0,-0.53125 0.078125,-1.003906 0.234375,-1.421875 0.164063,-0.425781 0.40625,-0.753906 0.71875,-0.984375 C 1.890625,-5.253906 2.257812,-5.375 2.6875,-5.375 c 0.53125,0 1,0.21875 1.40625,0.65625 v -2.765625 z m -2.21875,6.75 c 0.28125,0 0.519531,-0.0625 0.71875,-0.1875 0.195313,-0.132813 0.390625,-0.332031 0.578125,-0.59375 v -2.5625 C 3.925781,-4.179688 3.742188,-4.351562 3.546875,-4.46875 3.347656,-4.582031 3.125,-4.640625 2.875,-4.640625 c -0.40625,0 -0.71875,0.171875 -0.9375,0.515625 -0.21875,0.335938 -0.328125,0.835938 -0.328125,1.5 0,0.679688 0.097656,1.183594 0.296875,1.515625 0.207031,0.335937 0.503906,0.5 0.890625,0.5 z m 0,0"
           id="id-cd51a293-8e66-4a93-ba47-dd526e5b3d1f" /></g><g
         id="id-0d2728e9-3f6b-463a-bc3f-d03d79aa4776"><path
           d="m 2.6875,-6.984375 c 0.457031,0 0.847656,0.070313 1.171875,0.203125 0.332031,0.125 0.648437,0.324219 0.953125,0.59375 L 4.296875,-5.609375 C 4.035156,-5.816406 3.78125,-5.96875 3.53125,-6.0625 c -0.25,-0.09375 -0.515625,-0.140625 -0.796875,-0.140625 -0.367187,0 -0.664063,0.085937 -0.890625,0.25 C 1.613281,-5.796875 1.5,-5.554688 1.5,-5.234375 c 0,0.199219 0.035156,0.367187 0.109375,0.5 0.082031,0.136719 0.226563,0.261719 0.4375,0.375 C 2.265625,-4.242188 2.582031,-4.125 3,-4 c 0.4375,0.136719 0.796875,0.28125 1.078125,0.4375 0.28125,0.148438 0.507813,0.355469 0.6875,0.625 0.175781,0.273438 0.265625,0.617188 0.265625,1.03125 0,0.398438 -0.101562,0.746094 -0.296875,1.046875 -0.1875,0.304687 -0.46875,0.542969 -0.84375,0.71875 C 3.523438,0.0351562 3.085938,0.125 2.578125,0.125 1.628906,0.125 0.851562,-0.171875 0.25,-0.765625 L 0.765625,-1.34375 c 0.28125,0.230469 0.5625,0.402344 0.84375,0.515625 0.289063,0.117187 0.613281,0.171875 0.96875,0.171875 0.414063,0 0.765625,-0.101562 1.046875,-0.3125 C 3.90625,-1.175781 4.046875,-1.484375 4.046875,-1.890625 4.046875,-2.109375 4,-2.289062 3.90625,-2.4375 3.820312,-2.59375 3.675781,-2.726562 3.46875,-2.84375 3.257812,-2.96875 2.957031,-3.085938 2.5625,-3.203125 1.851562,-3.421875 1.335938,-3.675781 1.015625,-3.96875 0.691406,-4.269531 0.53125,-4.675781 0.53125,-5.1875 c 0,-0.351562 0.085938,-0.664062 0.265625,-0.9375 0.1875,-0.269531 0.441406,-0.476562 0.765625,-0.625 0.332031,-0.15625 0.707031,-0.234375 1.125,-0.234375 z m 0,0"
           id="id-223bdd20-18da-4ff9-9675-03eb251deff8" /></g><g
         id="id-7a8001e0-8573-4805-8ac9-4159cfc93bd1"><path
           d="M 2.828125,-8.03125 C 2.484375,-7.507812 2.207031,-7.046875 2,-6.640625 1.800781,-6.242188 1.644531,-5.789062 1.53125,-5.28125 c -0.117188,0.511719 -0.171875,1.109375 -0.171875,1.796875 0,0.679687 0.054687,1.273437 0.171875,1.78125 C 1.644531,-1.191406 1.800781,-0.726562 2,-0.3125 2.207031,0.09375 2.484375,0.546875 2.828125,1.046875 L 2.25,1.453125 C 1.8125,0.828125 1.472656,0.3125 1.234375,-0.09375 1.003906,-0.5 0.804688,-0.976562 0.640625,-1.53125 0.484375,-2.09375 0.40625,-2.742188 0.40625,-3.484375 0.40625,-4.222656 0.484375,-4.875 0.640625,-5.4375 0.804688,-6 1.003906,-6.476562 1.234375,-6.875 1.472656,-7.28125 1.8125,-7.796875 2.25,-8.421875 Z m 0,0"
           id="id-4190a95a-fb32-4777-862d-fedab1aec6f6" /></g><g
         id="id-1e73e9d2-4862-446e-a080-98911deb8cf9"><path
           d="m 0.984375,-8.421875 c 0.4375,0.625 0.769531,1.140625 1,1.546875 0.238281,0.398438 0.4375,0.875 0.59375,1.4375 0.164063,0.5625 0.25,1.214844 0.25,1.953125 0,0.742187 -0.085937,1.390625 -0.25,1.953125 -0.15625,0.554688 -0.355469,1.03125 -0.59375,1.4375 -0.230469,0.40625 -0.5625,0.921875 -1,1.546875 L 0.40625,1.046875 C 0.75,0.546875 1.019531,0.09375 1.21875,-0.3125 1.425781,-0.726562 1.585938,-1.191406 1.703125,-1.703125 1.816406,-2.210938 1.875,-2.804688 1.875,-3.484375 1.875,-4.171875 1.816406,-4.769531 1.703125,-5.28125 1.585938,-5.789062 1.425781,-6.242188 1.21875,-6.640625 1.019531,-7.046875 0.75,-7.507812 0.40625,-8.03125 Z m 0,0"
           id="id-19c8d13f-542c-400d-ad59-f0cf16e05ce4" /></g><g
         id="id-ec4ad026-5d2b-47e2-9855-eca41aaab1e6" /><g
         id="id-49fb512a-f6ba-43fc-b22e-1bacb7bb1ae2"><path
           d="m 5.140625,-6.8125 c 0,0 0,-0.109375 -0.125,-0.109375 -0.15625,0 -1.09375,0.09375 -1.265625,0.109375 -0.078125,0.015625 -0.140625,0.0625 -0.140625,0.1875 0,0.125 0.09375,0.125 0.234375,0.125 0.484375,0 0.5,0.0625 0.5,0.171875 L 4.3125,-6.125 3.71875,-3.765625 C 3.53125,-4.140625 3.25,-4.40625 2.796875,-4.40625 c -1.15625,0 -2.390625,1.46875 -2.390625,2.921875 0,0.9375 0.546875,1.59375 1.3125,1.59375 0.203125,0 0.703125,-0.046875 1.296875,-0.75 0.078125,0.421875 0.4375,0.75 0.90625,0.75 0.359375,0 0.578125,-0.234375 0.75,-0.546875 0.15625,-0.359375 0.296875,-0.96875 0.296875,-0.984375 0,-0.109375 -0.09375,-0.109375 -0.125,-0.109375 -0.09375,0 -0.109375,0.046875 -0.140625,0.1875 -0.171875,0.640625 -0.34375,1.234375 -0.75,1.234375 -0.28125,0 -0.296875,-0.265625 -0.296875,-0.453125 0,-0.25 0.015625,-0.3125 0.046875,-0.484375 z m -2.0625,5.625 C 3.015625,-1 3.015625,-0.984375 2.875,-0.8125 2.4375,-0.265625 2.03125,-0.109375 1.75,-0.109375 c -0.5,0 -0.640625,-0.546875 -0.640625,-0.9375 0,-0.5 0.3125,-1.71875 0.546875,-2.1875 0.3125,-0.578125 0.75,-0.953125 1.15625,-0.953125 0.640625,0 0.78125,0.8125 0.78125,0.875 0,0.0625 -0.015625,0.125 -0.03125,0.171875 z m 0,0"
           id="id-cbed62da-8421-48ab-a93e-d5f17e677b86" /></g><g
         id="id-99faf7af-4bcb-4636-abe3-42656d4dbbf4" /><g
         id="id-4a44de71-86b3-4828-8ade-bde16b630f6e"><path
           d="m 4.078125,-2.296875 h 2.78125 C 7,-2.296875 7.1875,-2.296875 7.1875,-2.5 7.1875,-2.6875 7,-2.6875 6.859375,-2.6875 h -2.78125 v -2.796875 c 0,-0.140625 0,-0.328125 -0.203125,-0.328125 -0.203125,0 -0.203125,0.1875 -0.203125,0.328125 V -2.6875 h -2.78125 c -0.140625,0 -0.328125,0 -0.328125,0.1875 0,0.203125 0.1875,0.203125 0.328125,0.203125 h 2.78125 V 0.5 c 0,0.140625 0,0.328125 0.203125,0.328125 0.203125,0 0.203125,-0.1875 0.203125,-0.328125 z m 0,0"
           id="id-d3805c7b-9aa3-4571-8074-6b812df88e02" /></g><g
         id="id-42a6d8a7-0503-4438-849b-5077a234140f"><path
           d="m 2.9375,-6.375 c 0,-0.25 0,-0.265625 -0.234375,-0.265625 C 2.078125,-6 1.203125,-6 0.890625,-6 v 0.3125 c 0.203125,0 0.78125,0 1.296875,-0.265625 v 5.171875 c 0,0.359375 -0.03125,0.46875 -0.921875,0.46875 h -0.3125 V 0 c 0.34375,-0.03125 1.203125,-0.03125 1.609375,-0.03125 0.390625,0 1.265625,0 1.609375,0.03125 v -0.3125 h -0.3125 c -0.90625,0 -0.921875,-0.109375 -0.921875,-0.46875 z m 0,0"
           id="id-cf7602a5-16ae-40e7-b72e-cdcf6057a290" /></g></g><g
       id="id-a1e34a75-e16d-422e-b3e1-39f75c5f742a"><g
         id="id-19878351-9da8-46b1-88d7-6541bfe568b5"><path
           d="M 5.40625,-10.46875 V 3.484375 H 1.21875 V -10.46875 Z M 4.875,-9.953125 H 1.78125 V 2.96875 H 4.875 Z M 3.234375,-4.5 c 0.394531,0 0.675781,0.109375 0.84375,0.328125 0.175781,0.210937 0.265625,0.484375 0.265625,0.828125 0,0.34375 -0.078125,0.617188 -0.234375,0.8125 -0.148437,0.1875 -0.386719,0.308594 -0.71875,0.359375 v 0.453125 c 0,0.074219 -0.027344,0.132812 -0.078125,0.171875 -0.054688,0.042969 -0.109375,0.0625 -0.171875,0.0625 -0.0625,0 -0.121094,-0.019531 -0.171875,-0.0625 C 2.914062,-1.585938 2.890625,-1.644531 2.890625,-1.71875 V -2.5625 c 0.351563,-0.019531 0.59375,-0.082031 0.71875,-0.1875 0.125,-0.113281 0.1875,-0.304688 0.1875,-0.578125 0,-0.21875 -0.046875,-0.382813 -0.140625,-0.5 -0.085938,-0.125 -0.242188,-0.1875 -0.46875,-0.1875 -0.1875,0 -0.359375,0.039063 -0.515625,0.109375 -0.054687,0.023438 -0.09375,0.03125 -0.125,0.03125 -0.074219,0 -0.136719,-0.019531 -0.1875,-0.0625 -0.042969,-0.039062 -0.0625,-0.097656 -0.0625,-0.171875 0,-0.125 0.097656,-0.21875 0.296875,-0.28125 C 2.789062,-4.460938 3.003906,-4.5 3.234375,-4.5 Z m -0.09375,3.296875 c 0.101563,0 0.1875,0.039063 0.25,0.109375 0.0625,0.0625 0.09375,0.148438 0.09375,0.25 0,0.105469 -0.03125,0.195312 -0.09375,0.265625 -0.0625,0.0625 -0.148437,0.09375 -0.25,0.09375 -0.105469,0 -0.1875,-0.03125 -0.25,-0.09375 -0.0625,-0.070313 -0.09375,-0.160156 -0.09375,-0.265625 0,-0.101562 0.03125,-0.1875 0.09375,-0.25 0.0625,-0.070312 0.144531,-0.109375 0.25,-0.109375 z m 0,0"
           id="id-c9c90fca-dda0-491c-acdd-bd150adf70c9" /></g><g
         id="id-cf6b1f27-e366-4983-993d-06f82898ea0b"><path
           d="M 3.015625,-2.90625 H 1.9375 V 0 H 1 v -6.875 h 1.796875 c 0.863281,0 1.515625,0.167969 1.953125,0.5 0.4375,0.324219 0.65625,0.808594 0.65625,1.453125 0,0.480469 -0.125,0.871094 -0.375,1.171875 -0.242188,0.292969 -0.609375,0.515625 -1.109375,0.671875 L 5.78125,0 h -1.125 z M 2.90625,-3.640625 c 0.5,0 0.875,-0.097656 1.125,-0.296875 0.25,-0.207031 0.375,-0.535156 0.375,-0.984375 0,-0.425781 -0.132812,-0.734375 -0.390625,-0.921875 -0.25,-0.1875 -0.65625,-0.28125 -1.21875,-0.28125 H 1.9375 v 2.484375 z m 0,0"
           id="id-4ff60f70-c82c-4d70-882d-6f1c8ef4997f" /></g><g
         id="id-dd9e63cd-3da6-4a77-b1ec-c95c113d6c9d"><path
           d="m 3.53125,-6.984375 c 0.425781,0 0.796875,0.0625 1.109375,0.1875 0.320313,0.117187 0.640625,0.304687 0.953125,0.5625 L 5.03125,-5.65625 C 4.789062,-5.851562 4.554688,-5.992188 4.328125,-6.078125 c -0.230469,-0.082031 -0.496094,-0.125 -0.796875,-0.125 -0.355469,0 -0.683594,0.09375 -0.984375,0.28125 -0.292969,0.1875 -0.53125,0.492187 -0.71875,0.90625 C 1.648438,-4.597656 1.5625,-4.070312 1.5625,-3.4375 c 0,0.960938 0.15625,1.664062 0.46875,2.109375 0.3125,0.449219 0.773438,0.671875 1.390625,0.671875 0.507813,0 0.945313,-0.101562 1.3125,-0.3125 V -3.046875 H 3.515625 L 3.40625,-3.8125 h 2.265625 v 3.328125 C 4.960938,-0.078125 4.210938,0.125 3.421875,0.125 2.523438,0.125 1.820312,-0.175781 1.3125,-0.78125 0.800781,-1.382812 0.546875,-2.269531 0.546875,-3.4375 c 0,-0.75 0.132813,-1.390625 0.40625,-1.921875 0.269531,-0.53125 0.628906,-0.929687 1.078125,-1.203125 0.457031,-0.28125 0.957031,-0.421875 1.5,-0.421875 z m 0,0"
           id="id-c3a03800-d631-4dfe-8711-c192192774c8" /></g><g
         id="id-c1939d2b-1a59-42bb-9802-4be0d6937b59"><path
           d="m 2.375,-5.375 c 0.351562,0 0.671875,0.054688 0.953125,0.15625 0.289063,0.09375 0.566406,0.242188 0.828125,0.4375 L 3.765625,-4.203125 C 3.523438,-4.347656 3.296875,-4.457031 3.078125,-4.53125 2.867188,-4.601562 2.644531,-4.640625 2.40625,-4.640625 c -0.304688,0 -0.542969,0.0625 -0.71875,0.1875 -0.167969,0.117187 -0.25,0.28125 -0.25,0.5 0,0.210937 0.078125,0.375 0.234375,0.5 0.164063,0.117187 0.460937,0.230469 0.890625,0.34375 0.582031,0.148437 1.019531,0.34375 1.3125,0.59375 0.289062,0.25 0.4375,0.601563 0.4375,1.046875 0,0.511719 -0.203125,0.90625 -0.609375,1.1875 C 3.296875,-0.0078125 2.804688,0.125 2.234375,0.125 1.429688,0.125 0.769531,-0.101562 0.25,-0.5625 L 0.734375,-1.125 c 0.445313,0.335938 0.941406,0.5 1.484375,0.5 0.34375,0 0.613281,-0.066406 0.8125,-0.203125 0.207031,-0.144531 0.3125,-0.34375 0.3125,-0.59375 0,-0.175781 -0.039062,-0.316406 -0.109375,-0.421875 C 3.160156,-1.957031 3.03125,-2.054688 2.84375,-2.140625 2.664062,-2.222656 2.40625,-2.3125 2.0625,-2.40625 1.5,-2.550781 1.09375,-2.742188 0.84375,-2.984375 c -0.242188,-0.25 -0.359375,-0.5625 -0.359375,-0.9375 0,-0.28125 0.078125,-0.53125 0.234375,-0.75 C 0.882812,-4.890625 1.109375,-5.0625 1.390625,-5.1875 1.679688,-5.3125 2.007812,-5.375 2.375,-5.375 Z m 0,0"
           id="id-8982cac2-dbd0-4abb-a717-f77ee4485bf8" /></g><g
         id="id-682537b9-ed11-481a-8d42-d72269145ceb"><path
           d="m 2.859375,-5.375 c 0.3125,0 0.597656,0.046875 0.859375,0.140625 0.257812,0.085937 0.507812,0.226563 0.75,0.421875 l -0.4375,0.578125 c -0.1875,-0.125 -0.371094,-0.21875 -0.546875,-0.28125 -0.179687,-0.0625 -0.371094,-0.09375 -0.578125,-0.09375 -0.429688,0 -0.761719,0.171875 -1,0.515625 -0.230469,0.335938 -0.34375,0.828125 -0.34375,1.484375 0,0.667969 0.113281,1.164063 0.34375,1.484375 0.226562,0.3125 0.5625,0.46875 1,0.46875 0.195312,0 0.382812,-0.03125 0.5625,-0.09375 0.175781,-0.0625 0.367188,-0.164062 0.578125,-0.3125 L 4.46875,-0.453125 C 3.988281,-0.0664062 3.453125,0.125 2.859375,0.125 2.148438,0.125 1.585938,-0.113281 1.171875,-0.59375 0.765625,-1.070312 0.5625,-1.734375 0.5625,-2.578125 c 0,-0.5625 0.09375,-1.050781 0.28125,-1.46875 0.1875,-0.414063 0.453125,-0.738281 0.796875,-0.96875 0.34375,-0.238281 0.75,-0.359375 1.21875,-0.359375 z m 0,0"
           id="id-70aa17a5-97c7-4663-b6ac-a3a874e59ece" /></g><g
         id="id-3a63fadb-c51b-4901-be87-ba16ebee9deb"><path
           d="m 4.484375,-1.21875 c 0,0.210938 0.035156,0.367188 0.109375,0.46875 0.070312,0.105469 0.179688,0.183594 0.328125,0.234375 L 4.71875,0.125 C 4.445312,0.0820312 4.226562,0.00390625 4.0625,-0.109375 c -0.167969,-0.125 -0.292969,-0.3125 -0.375,-0.5625 C 3.332031,-0.140625 2.8125,0.125 2.125,0.125 c -0.523438,0 -0.933594,-0.1445312 -1.234375,-0.4375 -0.292969,-0.289062 -0.4375,-0.675781 -0.4375,-1.15625 0,-0.550781 0.195313,-0.976562 0.59375,-1.28125 0.40625,-0.300781 0.976563,-0.453125 1.71875,-0.453125 H 3.5625 V -3.59375 c 0,-0.363281 -0.089844,-0.625 -0.265625,-0.78125 -0.179687,-0.164062 -0.453125,-0.25 -0.828125,-0.25 -0.386719,0 -0.855469,0.09375 -1.40625,0.28125 L 0.828125,-5.015625 c 0.644531,-0.238281 1.25,-0.359375 1.8125,-0.359375 0.613281,0 1.070313,0.152344 1.375,0.453125 0.3125,0.304687 0.46875,0.734375 0.46875,1.296875 z m -2.15625,0.65625 c 0.53125,0 0.941406,-0.273438 1.234375,-0.828125 V -2.59375 H 2.875 c -0.96875,0 -1.453125,0.359375 -1.453125,1.078125 0,0.3125 0.078125,0.554687 0.234375,0.71875 0.15625,0.15625 0.378906,0.234375 0.671875,0.234375 z m 0,0"
           id="id-b5b69c44-8309-4893-98c5-3bcd4033e3c2" /></g><g
         id="id-8d5194fc-fcd7-470f-b90e-6e3de28268b0"><path
           d="M 2,0.125 C 1.65625,0.125 1.382812,0.0234375 1.1875,-0.171875 0.988281,-0.378906 0.890625,-0.664062 0.890625,-1.03125 v -6.328125 l 0.921875,-0.125 V -1.0625 c 0,0.148438 0.023438,0.257812 0.078125,0.328125 0.050781,0.0625 0.132813,0.09375 0.25,0.09375 0.125,0 0.238281,-0.019531 0.34375,-0.0625 L 2.71875,-0.0625 C 2.5,0.0625 2.257812,0.125 2,0.125 Z m 0,0"
           id="id-c559f43f-48de-4324-aec6-d348b4fed3ba" /></g><g
         id="id-cdefa4d9-336d-45e9-9fbe-201f288568a8"><path
           d="M 1.859375,-5.25 V 0 h -0.90625 v -5.25 z m -0.46875,-2.53125 c 0.195313,0 0.351563,0.0625 0.46875,0.1875 0.125,0.117188 0.1875,0.265625 0.1875,0.453125 0,0.179687 -0.0625,0.324219 -0.1875,0.4375 -0.117187,0.117187 -0.273437,0.171875 -0.46875,0.171875 -0.179687,0 -0.328125,-0.054688 -0.453125,-0.171875 -0.117188,-0.113281 -0.171875,-0.257813 -0.171875,-0.4375 0,-0.1875 0.054687,-0.335937 0.171875,-0.453125 0.125,-0.125 0.273438,-0.1875 0.453125,-0.1875 z m 0,0"
           id="id-f4a7f21d-910a-4072-86e3-5976be2fe9ae" /></g><g
         id="id-659fd1e9-1f7a-4aba-befc-f3bb371098f1"><path
           d="m 3.421875,-5.375 c 0.476563,0 0.847656,0.148438 1.109375,0.4375 0.269531,0.28125 0.40625,0.671875 0.40625,1.171875 V 0 H 4.03125 v -3.640625 c 0,-0.375 -0.074219,-0.632813 -0.21875,-0.78125 -0.136719,-0.15625 -0.339844,-0.234375 -0.609375,-0.234375 -0.28125,0 -0.53125,0.085938 -0.75,0.25 -0.210937,0.15625 -0.40625,0.382812 -0.59375,0.671875 V 0 h -0.90625 v -5.25 h 0.78125 L 1.8125,-4.46875 C 2,-4.75 2.226562,-4.96875 2.5,-5.125 c 0.28125,-0.164062 0.585938,-0.25 0.921875,-0.25 z m 0,0"
           id="id-0eb838e8-84fd-4e71-b57b-8877e919e8fc" /></g><g
         id="id-aa12ab87-e867-4d6c-8ff8-ac1f1339711e"><path
           d="m 5.1875,-5.015625 c -0.199219,0.0625 -0.417969,0.105469 -0.65625,0.125 -0.242188,0.023437 -0.53125,0.03125 -0.875,0.03125 0.613281,0.28125 0.921875,0.726563 0.921875,1.328125 0,0.53125 -0.183594,0.964844 -0.546875,1.296875 C 3.675781,-1.910156 3.191406,-1.75 2.578125,-1.75 c -0.242187,0 -0.464844,-0.03125 -0.671875,-0.09375 -0.085938,0.054688 -0.152344,0.125 -0.203125,0.21875 -0.042969,0.085938 -0.0625,0.171875 -0.0625,0.265625 0,0.292969 0.226563,0.4375 0.6875,0.4375 h 0.84375 c 0.351563,0 0.664063,0.0625 0.9375,0.1875 0.269531,0.125 0.476563,0.296875 0.625,0.515625 C 4.890625,0 4.96875,0.25 4.96875,0.53125 4.96875,1.039062 4.753906,1.429688 4.328125,1.703125 3.910156,1.984375 3.300781,2.125 2.5,2.125 1.9375,2.125 1.488281,2.066406 1.15625,1.953125 0.832031,1.835938 0.597656,1.660156 0.453125,1.421875 0.316406,1.191406 0.25,0.894531 0.25,0.53125 h 0.828125 c 0,0.207031 0.035156,0.375 0.109375,0.5 C 1.269531,1.15625 1.414062,1.25 1.625,1.3125 1.832031,1.375 2.125,1.40625 2.5,1.40625 3.050781,1.40625 3.441406,1.335938 3.671875,1.203125 3.910156,1.066406 4.03125,0.863281 4.03125,0.59375 c 0,-0.25 -0.09375,-0.4375 -0.28125,-0.5625 -0.179688,-0.125 -0.433594,-0.1875 -0.765625,-0.1875 H 2.15625 c -0.449219,0 -0.789062,-0.09375 -1.015625,-0.28125 -0.230469,-0.195312 -0.34375,-0.4375 -0.34375,-0.71875 0,-0.175781 0.046875,-0.34375 0.140625,-0.5 0.101562,-0.15625 0.25,-0.296875 0.4375,-0.421875 -0.304688,-0.164063 -0.527344,-0.363281 -0.671875,-0.59375 -0.148437,-0.238281 -0.21875,-0.523437 -0.21875,-0.859375 0,-0.351562 0.085937,-0.671875 0.265625,-0.953125 0.175781,-0.28125 0.414062,-0.5 0.71875,-0.65625 0.3125,-0.15625 0.660156,-0.234375 1.046875,-0.234375 0.40625,0.011719 0.75,0 1.03125,-0.03125 0.28125,-0.039062 0.507813,-0.09375 0.6875,-0.15625 0.1875,-0.0625 0.414063,-0.15625 0.6875,-0.28125 z M 2.515625,-4.71875 c -0.34375,0 -0.617187,0.109375 -0.8125,0.328125 -0.1875,0.21875 -0.28125,0.507813 -0.28125,0.859375 0,0.355469 0.09375,0.640625 0.28125,0.859375 0.195313,0.210937 0.472656,0.3125 0.828125,0.3125 0.363281,0 0.640625,-0.101563 0.828125,-0.3125 0.1875,-0.207031 0.28125,-0.5 0.28125,-0.875 0,-0.78125 -0.375,-1.171875 -1.125,-1.171875 z m 0,0"
           id="id-036cb9a9-dee9-4dcf-ade8-3ad18b09a0f9" /></g></g><g
       id="id-d07ed222-a74e-4982-a5b8-0e426ed7cab4"><g
         id="id-f729aaae-bc22-429e-a415-a81e472583c7"><path
           d="M 5.40625,-10.46875 V 3.484375 H 1.21875 V -10.46875 Z M 4.875,-9.953125 H 1.78125 V 2.96875 H 4.875 Z M 3.234375,-4.5 c 0.394531,0 0.675781,0.109375 0.84375,0.328125 0.175781,0.210937 0.265625,0.484375 0.265625,0.828125 0,0.34375 -0.078125,0.617188 -0.234375,0.8125 -0.148437,0.1875 -0.386719,0.308594 -0.71875,0.359375 v 0.453125 c 0,0.074219 -0.027344,0.132812 -0.078125,0.171875 -0.054688,0.042969 -0.109375,0.0625 -0.171875,0.0625 -0.0625,0 -0.121094,-0.019531 -0.171875,-0.0625 C 2.914062,-1.585938 2.890625,-1.644531 2.890625,-1.71875 V -2.5625 c 0.351563,-0.019531 0.59375,-0.082031 0.71875,-0.1875 0.125,-0.113281 0.1875,-0.304688 0.1875,-0.578125 0,-0.21875 -0.046875,-0.382813 -0.140625,-0.5 -0.085938,-0.125 -0.242188,-0.1875 -0.46875,-0.1875 -0.1875,0 -0.359375,0.039063 -0.515625,0.109375 -0.054687,0.023438 -0.09375,0.03125 -0.125,0.03125 -0.074219,0 -0.136719,-0.019531 -0.1875,-0.0625 -0.042969,-0.039062 -0.0625,-0.097656 -0.0625,-0.171875 0,-0.125 0.097656,-0.21875 0.296875,-0.28125 C 2.789062,-4.460938 3.003906,-4.5 3.234375,-4.5 Z m -0.09375,3.296875 c 0.101563,0 0.1875,0.039063 0.25,0.109375 0.0625,0.0625 0.09375,0.148438 0.09375,0.25 0,0.105469 -0.03125,0.195312 -0.09375,0.265625 -0.0625,0.0625 -0.148437,0.09375 -0.25,0.09375 -0.105469,0 -0.1875,-0.03125 -0.25,-0.09375 -0.0625,-0.070313 -0.09375,-0.160156 -0.09375,-0.265625 0,-0.101562 0.03125,-0.1875 0.09375,-0.25 0.0625,-0.070312 0.144531,-0.109375 0.25,-0.109375 z m 0,0"
           id="id-6ba060cd-4dd8-4ae5-9844-364f0cb48d8d" /></g><g
         id="id-72204ff5-9e7e-474e-9630-a0c4695b580f"><path
           d="M 1.9375,-6.875 V 0 H 1 v -6.875 z m 0,0"
           id="id-557dcaaa-fe91-4932-890c-03cef5ffe228" /></g><g
         id="id-9986e04f-9cc2-4d10-9271-78e9c04067da"><path
           d="M 3.015625,-2.90625 H 1.9375 V 0 H 1 v -6.875 h 1.796875 c 0.863281,0 1.515625,0.167969 1.953125,0.5 0.4375,0.324219 0.65625,0.808594 0.65625,1.453125 0,0.480469 -0.125,0.871094 -0.375,1.171875 -0.242188,0.292969 -0.609375,0.515625 -1.109375,0.671875 L 5.78125,0 h -1.125 z M 2.90625,-3.640625 c 0.5,0 0.875,-0.097656 1.125,-0.296875 0.25,-0.207031 0.375,-0.535156 0.375,-0.984375 0,-0.425781 -0.132812,-0.734375 -0.390625,-0.921875 -0.25,-0.1875 -0.65625,-0.28125 -1.21875,-0.28125 H 1.9375 v 2.484375 z m 0,0"
           id="id-bd344ba9-907d-429b-9d00-2d9611103578" /></g></g><g
       id="id-44b894ce-5bb2-48c3-95b5-0e13f226b0ed"><g
         id="id-c98001b3-8556-4773-8a3b-7a90460167f3"><path
           d="M 5.40625,-10.46875 V 3.484375 H 1.21875 V -10.46875 Z M 4.875,-9.953125 H 1.78125 V 2.96875 H 4.875 Z M 3.234375,-4.5 c 0.394531,0 0.675781,0.109375 0.84375,0.328125 0.175781,0.210937 0.265625,0.484375 0.265625,0.828125 0,0.34375 -0.078125,0.617188 -0.234375,0.8125 -0.148437,0.1875 -0.386719,0.308594 -0.71875,0.359375 v 0.453125 c 0,0.074219 -0.027344,0.132812 -0.078125,0.171875 -0.054688,0.042969 -0.109375,0.0625 -0.171875,0.0625 -0.0625,0 -0.121094,-0.019531 -0.171875,-0.0625 C 2.914062,-1.585938 2.890625,-1.644531 2.890625,-1.71875 V -2.5625 c 0.351563,-0.019531 0.59375,-0.082031 0.71875,-0.1875 0.125,-0.113281 0.1875,-0.304688 0.1875,-0.578125 0,-0.21875 -0.046875,-0.382813 -0.140625,-0.5 -0.085938,-0.125 -0.242188,-0.1875 -0.46875,-0.1875 -0.1875,0 -0.359375,0.039063 -0.515625,0.109375 -0.054687,0.023438 -0.09375,0.03125 -0.125,0.03125 -0.074219,0 -0.136719,-0.019531 -0.1875,-0.0625 -0.042969,-0.039062 -0.0625,-0.097656 -0.0625,-0.171875 0,-0.125 0.097656,-0.21875 0.296875,-0.28125 C 2.789062,-4.460938 3.003906,-4.5 3.234375,-4.5 Z m -0.09375,3.296875 c 0.101563,0 0.1875,0.039063 0.25,0.109375 0.0625,0.0625 0.09375,0.148438 0.09375,0.25 0,0.105469 -0.03125,0.195312 -0.09375,0.265625 -0.0625,0.0625 -0.148437,0.09375 -0.25,0.09375 -0.105469,0 -0.1875,-0.03125 -0.25,-0.09375 -0.0625,-0.070313 -0.09375,-0.160156 -0.09375,-0.265625 0,-0.101562 0.03125,-0.1875 0.09375,-0.25 0.0625,-0.070312 0.144531,-0.109375 0.25,-0.109375 z m 0,0"
           id="id-4e5b100e-1978-48f3-9dda-1c43442f795f" /></g><g
         id="id-79a3a9aa-f6b7-448a-8040-fe3e20ff6548"><path
           d="m 5.703125,-2.203125 c 0,0.460937 -0.09375,0.867187 -0.28125,1.21875 -0.1875,0.34375 -0.464844,0.617187 -0.828125,0.8125 C 4.226562,0.0234375 3.796875,0.125 3.296875,0.125 c -0.773437,0 -1.367187,-0.2070312 -1.78125,-0.625 -0.417969,-0.425781 -0.625,-0.992188 -0.625,-1.703125 V -6.875 H 1.84375 v 4.609375 c 0,0.53125 0.117188,0.933594 0.359375,1.203125 0.238281,0.261719 0.601563,0.390625 1.09375,0.390625 0.488281,0 0.851563,-0.128906 1.09375,-0.390625 C 4.628906,-1.332031 4.75,-1.734375 4.75,-2.265625 V -6.875 h 0.953125 z m 0,0"
           id="id-09573412-aa73-4a99-9288-00e25a99a941" /></g><g
         id="id-da92b664-7b23-4436-9cb5-4d1706c71711"><path
           d="M 5.484375,-6.875 3.296875,0 H 2.265625 L 0.0625,-6.875 H 1.078125 L 2.796875,-1.03125 4.53125,-6.875 Z m 0,0"
           id="id-2d783946-ca56-4c5b-89d0-6c96714ebcf5" /></g></g><mask
       maskUnits="userSpaceOnUse"
       id="mask87612"><g
         id="g87618"
         transform="matrix(4.132537,0,0,4.132537,-2967.6409,861.63204)"><g
           filter="url(#filter-remove-color)"
           id="g87616"
           transform="matrix(0.2419821,0,0,0.2419821,718.11597,-208.49953)"><rect
             x="-206.02438"
             y="-107.72378"
             width="2472.2927"
             height="1292.6853"
             fill="#000000"
             fill-opacity="0.277695"
             id="rect87614" /></g></g></mask><clipPath
       clipPathUnits="userSpaceOnUse"
       id="clipPath87650"><g
         id="g87656"
         transform="matrix(4.132537,0,0,4.132537,-2967.6409,861.63204)"><g
           id="g87654"
           transform="translate(6.1056369,-212.73406)"><path
             clip-rule="nonzero"
             d="M 712.01033,4.2345323 H 1210.5521 V 264.90692 H 712.01033 Z m 0,0"
             id="path87652"
             style="stroke-width:0.241982" /></g></g></clipPath><inkscape:path-effect
       effect="spiro"
       id="path-effect190242-4"
       is_visible="true"
       lpeversion="1" /><inkscape:path-effect
       effect="spiro"
       id="path-effect190242-4-9"
       is_visible="true"
       lpeversion="1" /><inkscape:path-effect
       effect="spiro"
       id="path-effect190242-4-3"
       is_visible="true"
       lpeversion="1" /><inkscape:path-effect
       effect="spiro"
       id="path-effect190242-4-0"
       is_visible="true"
       lpeversion="1" /><inkscape:path-effect
       effect="spiro"
       id="path-effect190008-0"
       is_visible="true"
       lpeversion="1" /><inkscape:path-effect
       effect="spiro"
       id="path-effect190086-2"
       is_visible="true"
       lpeversion="1" /><inkscape:path-effect
       effect="spiro"
       id="path-effect190164-9"
       is_visible="true"
       lpeversion="1" /><inkscape:path-effect
       effect="spiro"
       id="path-effect190242-43"
       is_visible="true"
       lpeversion="1" /><inkscape:path-effect
       effect="spiro"
       id="path-effect190242-4-5"
       is_visible="true"
       lpeversion="1" /><inkscape:path-effect
       effect="spiro"
       id="path-effect190242-4-9-1"
       is_visible="true"
       lpeversion="1" /><inkscape:path-effect
       effect="spiro"
       id="path-effect190242-4-3-7"
       is_visible="true"
       lpeversion="1" /><inkscape:path-effect
       effect="spiro"
       id="path-effect190242-4-0-4"
       is_visible="true"
       lpeversion="1" /><inkscape:path-effect
       effect="spiro"
       id="path-effect191729-4"
       is_visible="true"
       lpeversion="1" /><inkscape:path-effect
       effect="spiro"
       id="path-effect191885-1"
       is_visible="true"
       lpeversion="1" /><inkscape:path-effect
       effect="spiro"
       id="path-effect192257-2"
       is_visible="true"
       lpeversion="1" /><inkscape:path-effect
       effect="spiro"
       id="path-effect192335-8"
       is_visible="true"
       lpeversion="1" /><inkscape:path-effect
       effect="spiro"
       id="path-effect190008-0-8"
       is_visible="true"
       lpeversion="1" /><inkscape:path-effect
       effect="spiro"
       id="path-effect191729-8"
       is_visible="true"
       lpeversion="1" /><inkscape:path-effect
       effect="spiro"
       id="path-effect191885-6"
       is_visible="true"
       lpeversion="1" /><inkscape:path-effect
       effect="spiro"
       id="path-effect192257-8"
       is_visible="true"
       lpeversion="1" /><inkscape:path-effect
       effect="spiro"
       id="path-effect192335-3"
       is_visible="true"
       lpeversion="1" /><inkscape:path-effect
       effect="spiro"
       id="path-effect191729-4-8"
       is_visible="true"
       lpeversion="1" /><inkscape:path-effect
       effect="spiro"
       id="path-effect191885-1-3"
       is_visible="true"
       lpeversion="1" /><inkscape:path-effect
       effect="spiro"
       id="path-effect192257-2-3"
       is_visible="true"
       lpeversion="1" /><inkscape:path-effect
       effect="spiro"
       id="path-effect192335-8-3"
       is_visible="true"
       lpeversion="1" /><inkscape:path-effect
       effect="spiro"
       id="path-effect192335-8-8"
       is_visible="true"
       lpeversion="1" /></defs><rect
     style="fill:#455985;fill-opacity:1;stroke:#2e2328;stroke-width:1.90385;stroke-miterlimit:4.5"
     id="rect99394"
     width="344.44528"
     height="227.19492"
     x="227.56276"
     y="72.82164"
     transform="matrix(0.99999865,-0.00164585,-0.62868133,0.77766303,0,0)" /><path
     fill-rule="nonzero"
     fill="#d0b400"
     fill-opacity="1"
     d="m 130.50955,219.93538 c 0,6.18357 -5.01318,11.19675 -11.19677,11.19675 -6.18358,0 -11.19677,-5.01318 -11.19677,-11.19675 0,-6.18359 5.01319,-11.19677 11.19677,-11.19677 6.18359,0 11.19677,5.01318 11.19677,11.19677 z m 0,0"
     id="path74373"
     style="stroke-width:0.314398" /><path
     fill-rule="nonzero"
     fill="#d0b400"
     fill-opacity="1"
     d="m 209.0183,219.4736 c 0,6.18481 -5.01317,11.19676 -11.19675,11.19676 -6.18359,0 -11.19677,-5.01195 -11.19677,-11.19676 0,-6.18358 5.01318,-11.19676 11.19677,-11.19676 6.18358,0 11.19675,5.01318 11.19675,11.19676 z m 0,0"
     id="path74375"
     style="stroke-width:0.314398" /><path
     fill-rule="nonzero"
     fill="#d0b400"
     fill-opacity="1"
     d="m 130.50955,154.51222 c 0,6.18358 -5.01318,11.19677 -11.19677,11.19677 -6.18358,0 -11.19677,-5.01319 -11.19677,-11.19677 0,-6.1848 5.01319,-11.19676 11.19677,-11.19676 6.18359,0 11.19677,5.01196 11.19677,11.19676 z m 0,0"
     id="path74377"
     style="stroke-width:0.314398" /><path
     fill-rule="nonzero"
     fill="#d0b400"
     fill-opacity="1"
     d="m 209.0183,154.05045 c 0,6.18358 -5.01317,11.19677 -11.19675,11.19677 -6.18359,0 -11.19677,-5.01319 -11.19677,-11.19677 0,-6.18358 5.01318,-11.19677 11.19677,-11.19677 6.18358,0 11.19675,5.01319 11.19675,11.19677 z m 0,0"
     id="path74379"
     style="stroke-width:0.314398" /><path
     fill-rule="nonzero"
     fill="#d0b900"
     fill-opacity="1"
     d="m 287.52706,219.01305 c 0,6.18359 -5.01318,11.19677 -11.19675,11.19677 -6.18359,0 -11.19677,-5.01318 -11.19677,-11.19677 0,-6.1848 5.01318,-11.19676 11.19677,-11.19676 6.18357,0 11.19675,5.01196 11.19675,11.19676 z m 0,0"
     id="path74381"
     style="stroke-width:0.314398" /><path
     fill-rule="nonzero"
     fill="#d06100"
     fill-opacity="1"
     d="m 287.52706,153.58868 c 0,6.18358 -5.01318,11.19676 -11.19675,11.19676 -6.18359,0 -11.19677,-5.01318 -11.19677,-11.19676 0,-6.18358 5.01318,-11.19677 11.19677,-11.19677 6.18357,0 11.19675,5.01319 11.19675,11.19677 z m 0,0"
     id="path74383"
     style="stroke-width:0.314398" /><path
     fill-rule="nonzero"
     fill="#d0ba00"
     fill-opacity="1"
     d="m 366.03583,153.1269 c 0,6.18358 -5.01317,11.19677 -11.19677,11.19677 -6.18482,0 -11.19677,-5.01319 -11.19677,-11.19677 0,-6.18357 5.01195,-11.19676 11.19677,-11.19676 6.1836,0 11.19677,5.01319 11.19677,11.19676 z m 0,0"
     id="path74385"
     style="stroke-width:0.314398" /><path
     fill-rule="nonzero"
     fill="#d0ba00"
     fill-opacity="1"
     d="m 366.03583,218.55128 c 0,6.18358 -5.01317,11.19677 -11.19677,11.19677 -6.18482,0 -11.19677,-5.01319 -11.19677,-11.19677 0,-6.18358 5.01195,-11.19677 11.19677,-11.19677 6.1836,0 11.19677,5.01319 11.19677,11.19677 z m 0,0"
     id="path74387"
     style="stroke-width:0.314398" /><path
     fill-rule="nonzero"
     fill="#d0ba00"
     fill-opacity="1"
     d="m 444.54332,152.66513 c 0,6.18482 -5.01191,11.19677 -11.1968,11.19677 -6.18345,0 -11.19666,-5.01195 -11.19666,-11.19677 0,-6.18358 5.01321,-11.19676 11.19666,-11.19676 6.18489,0 11.1968,5.01318 11.1968,11.19676 z m 0,0"
     id="path74389"
     style="stroke-width:0.314398" /><path
     fill-rule="nonzero"
     fill="#d0b400"
     fill-opacity="1"
     d="m 209.0183,88.626085 c 0,6.183572 -5.01317,11.196755 -11.19675,11.196755 -6.18359,0 -11.19677,-5.013183 -11.19677,-11.196755 0,-6.183586 5.01318,-11.196773 11.19677,-11.196773 6.18358,0 11.19675,5.013187 11.19675,11.196773 z m 0,0"
     id="path74391"
     style="stroke-width:0.314398" /><path
     fill-rule="nonzero"
     fill="#d0a000"
     fill-opacity="1"
     d="m 287.52706,88.1643 c 0,6.18482 -5.01318,11.198003 -11.19675,11.198003 -6.18359,0 -11.19677,-5.013183 -11.19677,-11.198003 0,-6.183572 5.01318,-11.196759 11.19677,-11.196759 6.18357,0 11.19675,5.013187 11.19675,11.196759 z m 0,0"
     id="path74393"
     style="stroke-width:0.314398" /><path
     fill-rule="nonzero"
     fill="#d0ba00"
     fill-opacity="1"
     d="m 366.03583,87.703763 c 0,6.183586 -5.01317,11.196769 -11.19677,11.196769 -6.18482,0 -11.19677,-5.013183 -11.19677,-11.196769 0,-6.184807 5.01195,-11.196772 11.19677,-11.196772 6.1836,0 11.19677,5.011965 11.19677,11.196772 z m 0,0"
     id="path74395"
     style="stroke-width:0.314398" /><path
     fill-rule="nonzero"
     fill="#d0ba00"
     fill-opacity="1"
     d="m 444.54332,87.241992 c 0,6.183586 -5.01191,11.196756 -11.1968,11.196756 -6.18345,0 -11.19666,-5.01317 -11.19666,-11.196756 0,-6.183586 5.01321,-11.196773 11.19666,-11.196773 6.18489,0 11.1968,5.013187 11.1968,11.196773 z m 0,0"
     id="path74397"
     style="stroke-width:0.314398" /><path
     fill-rule="nonzero"
     fill="#ff6940"
     fill-opacity="1"
     d="m 302.70048,88.165535 c 0,14.563045 -11.80714,26.368945 -26.37017,26.368945 -14.56428,0 -26.37018,-11.8059 -26.37018,-26.368945 0,-14.56427 11.8059,-26.370185 26.37018,-26.370185 14.56303,0 26.37017,11.805915 26.37017,26.370185 z m 0,0"
     id="path74399"
     style="stroke-width:0.314398" /><path
     fill="none"
     stroke-width="2.57695"
     stroke-linecap="butt"
     stroke-linejoin="miter"
     stroke="#000000"
     stroke-opacity="1"
     stroke-miterlimit="4"
     d="M 269.78811,93.595054 V 69.649178"
     id="path74401" /><path
     fill-rule="evenodd"
     fill="#000000"
     fill-opacity="1"
     stroke-width="0.966355"
     stroke-linecap="butt"
     stroke-linejoin="round"
     stroke="#000000"
     stroke-opacity="1"
     stroke-miterlimit="4"
     d="m 263.55049,83.130251 6.21183,-16.894018 6.21306,16.894018 c -3.6684,-2.699415 -8.68649,-2.683447 -12.42489,0 z m 0,0"
     id="path74403" /><path
     fill="none"
     stroke-width="2.57695"
     stroke-linecap="butt"
     stroke-linejoin="miter"
     stroke="#000000"
     stroke-opacity="1"
     stroke-miterlimit="4"
     d="M 282.87249,78.837961 V 102.78383"
     id="path74405" /><path
     fill-rule="evenodd"
     fill="#000000"
     fill-opacity="1"
     stroke-width="0.966355"
     stroke-linecap="butt"
     stroke-linejoin="round"
     stroke="#000000"
     stroke-opacity="1"
     stroke-miterlimit="4"
     d="m 289.10888,89.304001 -6.21182,16.892779 -6.21183,-16.892779 c 3.66717,2.699403 8.68526,2.683448 12.42365,0 z m 0,0"
     id="path74407" /><path
     fill="none"
     stroke-width="3.27635"
     stroke-linecap="butt"
     stroke-linejoin="miter"
     stroke="#000000"
     stroke-opacity="1"
     stroke-miterlimit="4"
     d="m 249.01693,90.30615 c -6.7215,5.740225 -11.38222,13.84581 -12.96157,22.54335 -1.56709,8.63 -0.0921,17.78195 4.10682,25.48225 4.19895,7.70031 11.09361,13.89617 19.19674,17.25139"
     id="path74409" /><path
     fill-rule="evenodd"
     fill="#000000"
     fill-opacity="1"
     stroke-width="0.614315"
     stroke-linecap="butt"
     stroke-linejoin="round"
     stroke="#000000"
     stroke-opacity="1"
     stroke-miterlimit="4"
     d="m 255.04699,149.50641 8.4114,7.75803 -11.43258,-0.46055 c 2.47713,-1.4983 3.68805,-4.44947 3.0211,-7.29751 z m 0,0"
     id="path74411" /><path
     fill="none"
     stroke-width="3.27635"
     stroke-linecap="butt"
     stroke-linejoin="miter"
     stroke="#000000"
     stroke-opacity="1"
     stroke-miterlimit="4"
     d="m 291.0051,153.9436 c 6.05586,-6.32236 10.54587,-14.13196 12.96157,-22.54457 2.63309,-9.16914 2.78907,-19.03709 0.44704,-28.28483"
     id="path74413" /><path
     fill-rule="evenodd"
     fill="#000000"
     fill-opacity="1"
     stroke-width="0.614314"
     stroke-linecap="butt"
     stroke-linejoin="round"
     stroke="#000000"
     stroke-opacity="1"
     stroke-miterlimit="4"
     d="m 302.11958,110.20414 1.19128,-11.379745 6.46482,9.440535 c -2.68222,-1.09056 -5.77094,-0.29842 -7.6561,1.93921 z m 0,0"
     id="path74415" /><path
     fill="none"
     stroke-width="1.86445"
     stroke-linecap="butt"
     stroke-linejoin="miter"
     stroke="#23487e"
     stroke-opacity="1"
     stroke-miterlimit="4"
     d="m 261.14706,296.45708 c 1.00338,-0.0528 2.00306,-0.11914 3.0003,-0.20017 2.10744,-0.16948 4.22596,-0.40528 6.14674,-0.92722 2.24869,-0.61037 4.16823,-1.61131 5.41723,-2.83943 1.3583,-1.33496 1.90113,-2.87993 2.50291,-4.38438 0.26036,-0.6509 0.53545,-1.30057 0.7909,-1.9527 1.02303,-2.62204 1.70096,-5.28461 2.56432,-7.92505 0.64845,-1.98343 1.40619,-3.96437 2.68221,-5.84586 0.50477,-0.74302 1.0918,-1.4725 1.84832,-2.14305 0.61038,-0.54039 1.3362,-1.04515 2.23027,-1.43815 0.10926,-0.0479 0.22229,-0.0946 0.34878,-0.12525 0.0836,-0.0209 0.17317,-0.0331 0.26405,-0.0405 0.11057,-0.009 0.22229,-0.009 0.33282,0"
     id="path74417"
     style="stroke-width:5.52443;stroke-dasharray:none" /><path
     fill="none"
     stroke-width="1.86445"
     stroke-linecap="butt"
     stroke-linejoin="miter"
     stroke="#23487e"
     stroke-opacity="1"
     stroke-miterlimit="4"
     d="m 317.40353,296.45708 c -1.00215,-0.0528 -2.00306,-0.11914 -3.00031,-0.20017 -2.10621,-0.16948 -4.22595,-0.40528 -6.14673,-0.92722 -2.24745,-0.61037 -4.16701,-1.61131 -5.41723,-2.83943 -1.3583,-1.33496 -1.8999,-2.87993 -2.50291,-4.38438 -0.26036,-0.6509 -0.53545,-1.30057 -0.78968,-1.9527 -1.02303,-2.62204 -1.70217,-5.28461 -2.56554,-7.92505 -0.64845,-1.98343 -1.40619,-3.96437 -2.68221,-5.84586 -0.50477,-0.74302 -1.0918,-1.4725 -1.84832,-2.14305 -0.61038,-0.54039 -1.33619,-1.04515 -2.22904,-1.43815 -0.10927,-0.0479 -0.22228,-0.0946 -0.35001,-0.12525 -0.0836,-0.0209 -0.17317,-0.0331 -0.26405,-0.0405 -0.10927,-0.009 -0.22228,-0.009 -0.33159,0"
     id="path74419"
     style="stroke-width:5.52443;stroke-dasharray:none" /><path
     fill="none"
     stroke-width="1.86445"
     stroke-linecap="butt"
     stroke-linejoin="miter"
     stroke="#23487e"
     stroke-opacity="1"
     stroke-miterlimit="4"
     d="m 317.40353,296.45708 c 0.49983,0.027 1.00091,0.0491 1.50197,0.0651 1.6506,0.0552 3.30736,0.0552 4.95672,0"
     id="path74421"
     style="stroke-width:5.52443;stroke-dasharray:none" /><path
     fill="none"
     stroke-width="1.86445"
     stroke-linecap="butt"
     stroke-linejoin="miter"
     stroke="#23487e"
     stroke-opacity="1"
     stroke-miterlimit="4"
     d="m 323.86222,296.52218 c 1.00337,-0.0528 2.00306,-0.11915 3.00027,-0.19896 2.10747,-0.16946 4.22596,-0.4065 6.14798,-0.92722 2.24748,-0.61038 4.167,-1.61128 5.41602,-2.83941 1.35829,-1.33497 1.90113,-2.88117 2.50289,-4.38561 0.26035,-0.65091 0.53671,-1.30058 0.7909,-1.9515 1.02305,-2.62325 1.70095,-5.28458 2.56555,-7.92626 0.64723,-1.98218 1.40498,-3.96438 2.68224,-5.84585 0.5035,-0.74303 1.09055,-1.47129 1.84708,-2.14184 0.61037,-0.54161 1.33743,-1.04638 2.23025,-1.43936 0.10927,-0.048 0.22228,-0.0946 0.34879,-0.12525 0.0847,-0.0196 0.17318,-0.0331 0.26404,-0.0405 0.11056,-0.009 0.22231,-0.009 0.33282,0"
     id="path74423"
     style="stroke-width:5.52443;stroke-dasharray:none" /><path
     fill="none"
     stroke-width="1.86445"
     stroke-linecap="butt"
     stroke-linejoin="miter"
     stroke="#23487e"
     stroke-opacity="1"
     stroke-miterlimit="4"
     d="m 380.11868,296.52218 c -1.00213,-0.0528 -2.00308,-0.11915 -3.00026,-0.19896 -2.10624,-0.16946 -4.226,-0.4065 -6.14678,-0.92722 -2.24745,-0.61038 -4.16701,-1.61128 -5.41724,-2.83941 -1.35708,-1.33497 -1.89989,-2.88117 -2.5029,-4.38561 -0.26036,-0.65091 -0.53546,-1.30058 -0.78968,-1.9515 -1.02302,-2.62325 -1.70218,-5.28458 -2.56556,-7.92626 -0.64844,-1.98218 -1.40618,-3.96438 -2.6822,-5.84585 -0.50476,-0.74303 -1.09181,-1.47129 -1.84831,-2.14184 -0.61037,-0.54161 -1.33619,-1.04638 -2.22905,-1.43936 -0.10927,-0.048 -0.22229,-0.0946 -0.34876,-0.12525 -0.0847,-0.0196 -0.1744,-0.0331 -0.26407,-0.0405 -0.11057,-0.009 -0.2235,-0.009 -0.33282,0"
     id="path74425"
     style="stroke-width:5.52443;stroke-dasharray:none" /><path
     fill="none"
     stroke-width="1.86445"
     stroke-linecap="butt"
     stroke-linejoin="miter"
     stroke="#23487e"
     stroke-opacity="1"
     stroke-miterlimit="4"
     d="m 380.11868,296.52218 c 0.49982,0.027 1.00095,0.0491 1.50195,0.0664 1.65058,0.0552 3.3074,0.0552 4.95799,0"
     id="path74427"
     style="stroke-width:5.52443;stroke-dasharray:none" /><path
     fill="none"
     stroke-width="2.0578"
     stroke-linecap="butt"
     stroke-linejoin="miter"
     stroke="#23487e"
     stroke-opacity="1"
     stroke-miterlimit="4"
     d="m 16.542525,83.611667 c 11.054305,0.424938 22.170012,-4.972663 28.669215,-13.924421 2.447644,-3.368731 4.254205,-7.168531 5.667765,-11.086227 2.951174,-8.180515 4.211226,-16.855946 6.200788,-25.321376 0.517029,-2.200784 1.089329,-4.402802 2.01165,-6.467267 0.331598,-0.740555 0.708632,-1.46392 1.194959,-2.112369 0.486341,-0.64845 1.086886,-1.221984 1.800429,-1.607605 0.625115,-0.338965 1.332512,-0.528099 2.043586,-0.547744"
     id="path74429"
     style="stroke-width:5.52443;stroke-dasharray:none" /><path
     fill="none"
     stroke-width="2.0578"
     stroke-linecap="butt"
     stroke-linejoin="miter"
     stroke="#23487e"
     stroke-opacity="1"
     stroke-miterlimit="4"
     d="M 111.71933,83.611667 C 100.66502,84.036605 89.550531,78.639004 83.050093,69.687246 80.603684,66.318515 78.795888,62.518715 77.382328,58.601019 74.431155,50.420504 73.172337,41.745073 71.181553,33.279643 70.664511,31.078859 70.092212,28.876841 69.16989,26.812376 c -0.330364,-0.740555 -0.708618,-1.46392 -1.194959,-2.112369 -0.486327,-0.64845 -1.086886,-1.221984 -1.799194,-1.607605 -0.626336,-0.338965 -1.332512,-0.528099 -2.04482,-0.547744"
     id="path74431"
     style="stroke-width:5.52443;stroke-dasharray:none" /><g
     clip-path="url(#clip-3)"
     id="g74435"
     transform="matrix(0.31439856,0,0,0.31439856,-2.4599136e-4,-11.226103)"><path
       fill="none"
       stroke-width="9.0453"
       stroke-linecap="butt"
       stroke-linejoin="miter"
       stroke="#808080"
       stroke-opacity="1"
       stroke-miterlimit="4"
       d="M 830.66406,796.60156 H 1229.582 V 1072.7148 H 830.66406 Z m 0,0"
       id="path74433" /></g><path
     fill="none"
     stroke-width="2.84383"
     stroke-linecap="butt"
     stroke-linejoin="miter"
     stroke="#808080"
     stroke-opacity="1"
     stroke-miterlimit="4"
     d="M 1.4219151,9.6850137 H 126.83992 V 96.494647 H 1.4219151 Z m 0,0"
     id="path74437" /><path
     fill="none"
     stroke-width="2.0578"
     stroke-linecap="butt"
     stroke-linejoin="miter"
     stroke="#23487e"
     stroke-opacity="1"
     stroke-miterlimit="4"
     d="m 524.37112,91.402858 c 2.98558,-0.582122 5.80407,-1.780771 8.14976,-3.463291 2.29047,-1.644452 4.13023,-3.753144 5.26371,-6.120949 0.98874,-2.064469 1.43698,-4.299657 2.49069,-6.342021 0.52685,-1.020559 1.20974,-1.993227 2.12702,-2.786596 0.91741,-0.792135 2.08168,-1.398827 3.36146,-1.610061 1.46634,-0.24317 3.00519,0.04171 4.34252,0.610368 1.33747,0.567389 2.49433,1.404972 3.55921,2.300269 2.95855,2.489402 5.29567,5.486011 7.13296,8.670523 0.6569,1.138467 1.25755,2.311325 2.12338,3.341719 0.867,1.030394 2.04231,1.925691 3.47306,2.260966 0.99355,0.232113 2.07428,0.178077 3.02976,-0.151065 0.95431,-0.330364 1.77583,-0.933365 2.30151,-1.691109"
     id="path74439"
     style="stroke-width:5.52443;stroke-dasharray:none" /><g
     clip-path="url(#clip-4)"
     id="g74443"
     transform="matrix(0.31439856,0,0,0.31439856,-2.4599136e-4,8.2628526)"><path
       fill="none"
       stroke-width="9.19256"
       stroke-linecap="butt"
       stroke-linejoin="miter"
       stroke="#23487e"
       stroke-opacity="1"
       stroke-miterlimit="4"
       d="m 2044.6719,309.00304 c -9.4961,-2.16357 -18.461,-6.61852 -25.9219,-12.87189 -7.2852,-6.11187 -13.1406,-13.94912 -16.7422,-22.74947 -3.1445,-7.67293 -4.5742,-15.98032 -7.9219,-23.57109 -1.6757,-3.7931 -3.8476,-7.40818 -6.7656,-10.35685 -2.918,-2.94411 -6.625,-5.19897 -10.6953,-5.98406 -4.6602,-0.90377 -9.5547,0.15519 -13.8086,2.26855 -4.2539,2.1088 -7.9336,5.22179 -11.3203,8.54931 -9.4141,9.25225 -16.8477,20.38963 -22.6875,32.22538 -2.0898,4.2313 -4,8.59039 -6.7578,12.42001 -2.7539,3.82962 -6.4961,7.15714 -11.0469,8.40325 -3.1562,0.86269 -6.5976,0.66185 -9.6328,-0.56144 -3.0352,-1.22785 -5.6484,-3.46902 -7.3242,-6.28531"
       transform="scale(1,0.855789)"
       id="path74441"
       style="stroke-width:18.9943;stroke-dasharray:none" /></g><path
     fill="none"
     stroke-width="2.0578"
     stroke-linecap="butt"
     stroke-linejoin="miter"
     stroke="#23487e"
     stroke-opacity="1"
     stroke-miterlimit="4"
     d="m 571.72616,86.421611 c 1.96865,-2.773097 3.56648,-5.739004 4.75284,-8.820367 2.18731,-5.680044 2.95608,-11.680641 3.55297,-17.638246 1.14465,-11.442381 1.69722,-22.920389 2.13806,-34.398396 0.0949,-2.4722 0.18554,-4.953001 0.63249,-7.39819 0.19904,-1.08443 0.46669,-2.159038 0.8032,-3.2189"
     id="path74445"
     style="stroke-width:5.52443;stroke-dasharray:none" /><path
     fill="none"
     stroke-width="2.0578"
     stroke-linecap="butt"
     stroke-linejoin="miter"
     stroke="#23487e"
     stroke-opacity="1"
     stroke-miterlimit="4"
     d="m 595.48541,86.421611 c -1.96748,-2.773097 -3.56648,-5.739004 -4.75167,-8.820367 -2.18718,-5.680044 -2.95608,-11.680641 -3.55297,-17.638246 -1.14452,-11.442381 -1.69722,-22.920389 -2.13806,-34.398396 -0.0961,-2.4722 -0.18554,-4.953001 -0.63249,-7.39819 -0.19904,-1.08443 -0.46799,-2.159038 -0.8045,-3.2189"
     id="path74447"
     style="stroke-width:5.52443;stroke-dasharray:none" /><g
     clip-path="url(#clip-5)"
     id="g74451"
     transform="matrix(0.31439856,0,0,0.31439856,-2.4599136e-4,8.2628526)"><path
       fill="none"
       stroke-width="9.0453"
       stroke-linecap="butt"
       stroke-linejoin="miter"
       stroke="#808080"
       stroke-opacity="1"
       stroke-miterlimit="4"
       d="m 1656.8047,4.792969 h 398.918 V 280.90625 h -398.918 z m 0,0"
       id="path74449" /></g><rect
     style="fill:#e24a33;fill-opacity:1;stroke:#e24a33;stroke-width:2.97545;stroke-miterlimit:4;stroke-dasharray:none;stroke-opacity:1"
     id="rect6014-2"
     width="261.19962"
     height="182.8181"
     x="1322.7609"
     y="-538.66718"
     transform="matrix(0.9126094,0.40883258,-0.00188942,0.99999822,0,0)" /><path
     style="fill:none;stroke:#707070;stroke-width:5.65955;stroke-linecap:butt;stroke-linejoin:miter;stroke-miterlimit:4;stroke-dasharray:none;stroke-opacity:1"
     d="M 1207.9761,2.0288511 C 1179.3392,29.944493 1146.8387,53.89115 1111.692,72.971675 1047.9003,107.60309 975.34696,125.93915 902.76126,125.77371"
     id="path1410"
     inkscape:path-effect="#path-effect1412"
     inkscape:original-d="M 1207.9761,2.0288511 C 1170.2515,17.390037 1149.4184,57.61203 1111.692,72.971675 1073.9657,88.331327 966.7103,122.82869 902.76126,125.77371"
     sodipodi:nodetypes="csc" /><path
     style="fill:none;stroke:#707070;stroke-width:5.65955;stroke-linecap:butt;stroke-linejoin:miter;stroke-miterlimit:4;stroke-dasharray:none;stroke-opacity:1"
     d="m 1446.555,108.90832 c -43.0417,30.65363 -90.5103,55.08089 -140.4722,72.28667 -84.2427,29.01133 -175.5676,37.20942 -263.6304,23.66566"
     id="path1414"
     sodipodi:nodetypes="csc"
     inkscape:original-d="m 1446.555,108.90832 c -53.1386,8.45596 -87.332,63.83226 -140.4722,72.28667 -53.1402,8.45437 -191.1858,27.61953 -263.6304,23.66566"
     inkscape:path-effect="#path-effect1416" /><path
     style="fill:none;stroke:#707070;stroke-width:5.65955;stroke-linecap:butt;stroke-linejoin:miter;stroke-miterlimit:4;stroke-dasharray:none;stroke-opacity:1"
     d="m 1446.2096,291.7261 c -75.2476,-11.88437 -152.3187,-12.15101 -227.6467,-0.78756 -60.4966,9.12609 -119.8611,25.73142 -176.3129,49.31788"
     id="path1422"
     inkscape:path-effect="#path-effect1424"
     inkscape:original-d="m 1446.2096,291.7261 c -75.4304,-13.48497 -152.2149,12.69894 -227.6467,-0.78756 -75.4318,-13.48647 -126.1601,54.13913 -176.3129,49.31788"
     sodipodi:nodetypes="csc" /><path
     style="fill:none;stroke:#707070;stroke-width:5.65955;stroke-linecap:butt;stroke-linejoin:miter;stroke-miterlimit:4;stroke-dasharray:none;stroke-opacity:1"
     d="m 1207.8364,184.93918 c -26.7567,5.15425 -53.5139,10.3086 -104.3943,23.01385 -50.8804,12.70526 -125.88072,32.96056 -200.88317,53.21645"
     id="path7522"
     inkscape:path-effect="#path-effect7524"
     inkscape:original-d="m 1207.8364,184.93918 c -26.7565,5.15512 -53.5137,10.30948 -80.2718,15.46309 -75.0027,20.25692 -150.00297,40.51224 -225.00567,60.76721"
     sodipodi:nodetypes="ccc" /><rect
     style="opacity:0.876916;fill:#348abd;fill-opacity:1;stroke:#348abd;stroke-width:2.00738;stroke-miterlimit:4;stroke-dasharray:none;stroke-opacity:1"
     id="rect6014"
     width="160.52525"
     height="135.39594"
     x="1036.7416"
     y="-385.00452"
     transform="matrix(0.87021277,0.49267609,-0.00149505,0.99999888,0,0)" /><rect
     style="fill:none;fill-opacity:1;stroke:#2e2328;stroke-width:1.24416;stroke-miterlimit:4.5;stroke-dasharray:none;stroke-dashoffset:0;stroke-opacity:1"
     id="rect81689"
     width="649.11841"
     height="320.00223"
     x="1.4790729"
     y="7.0747533"
     inkscape:export-filename="summary.png"
     inkscape:export-xdpi="25.73"
     inkscape:export-ydpi="25.73" /><path
     style="opacity:0.86035;fill:none;stroke:#404040;stroke-width:4;stroke-miterlimit:4.5;stroke-dasharray:none;stroke-opacity:1;marker-end:url(#Arrow3)"
     d="M 1392.6061,368.0581 H 1068.8057"
     id="path189653"
     inkscape:path-effect="#path-effect189655"
     inkscape:original-d="m 1392.6061,368.0581 c -107.9327,7.5e-4 -215.8661,7.5e-4 -323.8004,0" /><g
     id="g191068"
     transform="translate(347.12938,-285.10099)"><path
       style="opacity:0.86035;fill:none;stroke:#404040;stroke-width:4;stroke-miterlimit:4.5;stroke-dasharray:none;stroke-opacity:1"
       d="m 555.63476,409.03383 -0.20243,135.39578"
       id="path190006"
       inkscape:path-effect="#path-effect190008"
       inkscape:original-d="m 555.63476,409.03383 c -0.0668,45.13268 -0.1342,90.26461 -0.20243,135.39578" /><path
       style="opacity:0.86035;fill:none;stroke:#404040;stroke-width:4;stroke-miterlimit:4.5;stroke-dasharray:none;stroke-opacity:1"
       d="m 604.1432,436.49717 -0.20243,135.39578"
       id="path190082"
       inkscape:path-effect="#path-effect190086"
       inkscape:original-d="m 604.1432,436.49717 c -0.0668,45.13268 -0.1342,90.26461 -0.20243,135.39578" /><path
       style="opacity:0.86035;fill:none;stroke:#404040;stroke-width:4;stroke-miterlimit:4.5;stroke-dasharray:none;stroke-opacity:1"
       d="m 695.3259,488.12079 -0.20243,135.39578"
       id="path190160"
       inkscape:path-effect="#path-effect190164"
       inkscape:original-d="m 695.3259,488.12079 c -0.0668,45.13268 -0.1342,90.26461 -0.20243,135.39578" /><path
       style="opacity:0.86035;fill:none;stroke:#404040;stroke-width:4;stroke-miterlimit:4.5;stroke-dasharray:none;stroke-opacity:1"
       d="M 647.02993,460.77775 646.8275,596.17353"
       id="path190238"
       inkscape:path-effect="#path-effect190242"
       inkscape:original-d="m 647.02993,460.77775 c -0.0668,45.13268 -0.1342,90.26461 -0.20243,135.39578" /><path
       style="opacity:0.86035;fill:none;stroke:#404040;stroke-width:4.76935;stroke-miterlimit:4.5;stroke-dasharray:none;stroke-opacity:1"
       d="m 555.63475,409.03383 139.68838,80.92783"
       id="path190238-4"
       inkscape:path-effect="#path-effect190242-4"
       inkscape:original-d="m 555.63475,409.03383 c 46.56398,26.97569 93.12682,53.95156 139.68838,80.92783" /><path
       style="opacity:0.86035;fill:none;stroke:#404040;stroke-width:4.76935;stroke-miterlimit:4.5;stroke-dasharray:none;stroke-opacity:1"
       d="m 555.43371,543.50918 139.68838,80.92783"
       id="path190238-4-9"
       inkscape:path-effect="#path-effect190242-4-9"
       inkscape:original-d="m 555.43371,543.50918 c 46.56398,26.97569 93.12682,53.95156 139.68838,80.92783" /><path
       style="opacity:0.86035;fill:none;stroke:#404040;stroke-width:4.76935;stroke-miterlimit:4.5;stroke-dasharray:none;stroke-opacity:1"
       d="m 555.50216,497.72041 139.68838,80.92783"
       id="path190238-4-6"
       inkscape:path-effect="#path-effect190242-4-3"
       inkscape:original-d="m 555.50216,497.72041 c 46.56398,26.97569 93.12682,53.95156 139.68838,80.92783" /><path
       style="opacity:0.86035;fill:none;stroke:#404040;stroke-width:4.76935;stroke-miterlimit:4.5;stroke-dasharray:none;stroke-opacity:1"
       d="m 555.56875,453.19311 139.68838,80.92783"
       id="path190238-4-5"
       inkscape:path-effect="#path-effect190242-4-0"
       inkscape:original-d="m 555.56875,453.19311 c 46.56398,26.97569 93.12682,53.95156 139.68838,80.92783" /></g><path
     style="opacity:0.86035;fill:none;stroke:#404040;stroke-width:4.7011;stroke-miterlimit:4.5;stroke-dasharray:none;stroke-opacity:1"
     d="M 1208.1103,0.00254387 1207.9079,187.02088"
     id="path190006-1"
     inkscape:path-effect="#path-effect190008-0"
     inkscape:original-d="M 1208.1103,0.00254387 C 1208.0433,62.343033 1207.9761,124.68248 1207.9079,187.02088" /><path
     style="opacity:0.86035;fill:none;stroke:#404040;stroke-width:4.7011;stroke-miterlimit:4.5;stroke-dasharray:none;stroke-opacity:1"
     d="m 1238.1103,12.002544 -0.2024,187.018336"
     id="path191725"
     inkscape:path-effect="#path-effect191729"
     inkscape:original-d="m 1238.1103,12.002544 c -0.067,62.340489 -0.1342,124.679936 -0.2024,187.018336" /><path
     style="opacity:0.86035;fill:none;stroke:#404040;stroke-width:4.7011;stroke-miterlimit:4.5;stroke-dasharray:none;stroke-opacity:1"
     d="m 1268.1103,27.002544 -0.2024,187.018336"
     id="path191881"
     inkscape:path-effect="#path-effect191885"
     inkscape:original-d="m 1268.1103,27.002544 c -0.067,62.340489 -0.1342,124.679936 -0.2024,187.018336" /><path
     style="opacity:0.86035;fill:none;stroke:#404040;stroke-width:4.7011;stroke-miterlimit:4.5;stroke-dasharray:none;stroke-opacity:1"
     d="m 1298.1103,39.002544 -0.2024,187.018336"
     id="path192253"
     inkscape:path-effect="#path-effect192257"
     inkscape:original-d="m 1298.1103,39.002544 c -0.067,62.340486 -0.1342,124.679936 -0.2024,187.018336" /><path
     style="opacity:0.86035;fill:none;stroke:#404040;stroke-width:4.7011;stroke-miterlimit:4.5;stroke-dasharray:none;stroke-opacity:1"
     d="m 1328.1103,54.002544 -0.2024,187.018336"
     id="path192331"
     inkscape:path-effect="#path-effect192335"
     inkscape:original-d="m 1328.1103,54.002544 c -0.067,62.340486 -0.1342,124.679936 -0.2024,187.018336" /><path
     style="opacity:0.86035;fill:none;stroke:#404040;stroke-width:4.7011;stroke-miterlimit:4.5;stroke-dasharray:none;stroke-opacity:1"
     d="M 1357.3684,67.514955 1357.166,254.53329"
     id="path191725-8"
     inkscape:path-effect="#path-effect191729-4"
     inkscape:original-d="m 1357.3684,67.514955 c -0.067,62.340485 -0.1342,124.679935 -0.2024,187.018335" /><path
     style="opacity:0.86035;fill:none;stroke:#404040;stroke-width:4.7011;stroke-miterlimit:4.5;stroke-dasharray:none;stroke-opacity:1"
     d="M 1387.3684,82.514955 1387.166,269.53329"
     id="path191881-9"
     inkscape:path-effect="#path-effect191885-1"
     inkscape:original-d="m 1387.3684,82.514955 c -0.067,62.340485 -0.1342,124.679935 -0.2024,187.018335" /><path
     style="opacity:0.86035;fill:none;stroke:#404040;stroke-width:4.7011;stroke-miterlimit:4.5;stroke-dasharray:none;stroke-opacity:1"
     d="M 1417.3684,94.514955 1417.166,281.53329"
     id="path192253-2"
     inkscape:path-effect="#path-effect192257-2"
     inkscape:original-d="m 1417.3684,94.514955 c -0.067,62.340485 -0.1342,124.679935 -0.2024,187.018335" /><path
     style="opacity:0.86035;fill:none;stroke:#404040;stroke-width:4.7011;stroke-miterlimit:4.5;stroke-dasharray:none;stroke-opacity:1"
     d="m 1447.3684,109.51495 -0.2024,187.01834"
     id="path192331-8"
     inkscape:path-effect="#path-effect192335-8"
     inkscape:original-d="m 1447.3684,109.51495 c -0.067,62.34049 -0.1342,124.67994 -0.2024,187.01834" /><path
     style="opacity:0.86035;fill:none;stroke:#404040;stroke-width:4;stroke-miterlimit:4.5;stroke-dasharray:none;stroke-opacity:1"
     d="M 1208.1818,2.1215047 1446.555,108.90832"
     id="path193274"
     inkscape:path-effect="#path-effect193276"
     inkscape:original-d="M 1208.1818,2.1215047 C 1287.6403,37.717861 1367.098,73.313467 1446.555,108.90832" /><path
     style="opacity:0.86035;fill:none;stroke:#404040;stroke-width:4;stroke-miterlimit:4.5;stroke-dasharray:none;stroke-opacity:1"
     d="M 1208.1818,32.121505 1446.555,138.90832"
     id="path193350"
     inkscape:path-effect="#path-effect193354"
     inkscape:original-d="m 1208.1818,32.121505 c 79.4585,35.596356 158.9162,71.191955 238.3732,106.786815" /><path
     style="opacity:0.86035;fill:none;stroke:#404040;stroke-width:4;stroke-miterlimit:4.5;stroke-dasharray:none;stroke-opacity:1"
     d="M 1208.1818,62.121505 1446.555,168.90832"
     id="path193428"
     inkscape:path-effect="#path-effect193432"
     inkscape:original-d="m 1208.1818,62.121505 c 79.4585,35.596356 158.9162,71.191955 238.3732,106.786815" /><path
     style="opacity:0.86035;fill:none;stroke:#404040;stroke-width:4;stroke-miterlimit:4.5;stroke-dasharray:none;stroke-opacity:1"
     d="M 1208.1818,92.121505 1446.555,198.90832"
     id="path193506"
     inkscape:path-effect="#path-effect193510"
     inkscape:original-d="m 1208.1818,92.121505 c 79.4585,35.596355 158.9162,71.191955 238.3732,106.786815" /><path
     style="opacity:0.86035;fill:none;stroke:#404040;stroke-width:4;stroke-miterlimit:4.5;stroke-dasharray:none;stroke-opacity:1"
     d="M 1208.1818,122.1215 1446.555,228.90832"
     id="path193584"
     inkscape:path-effect="#path-effect193588"
     inkscape:original-d="m 1208.1818,122.1215 c 79.4585,35.59636 158.9162,71.19196 238.3732,106.78682" /><path
     style="opacity:0.86035;fill:none;stroke:#404040;stroke-width:4;stroke-miterlimit:4.5;stroke-dasharray:none;stroke-opacity:1"
     d="M 1208.1818,152.1215 1446.555,258.90832"
     id="path193662"
     inkscape:path-effect="#path-effect193666"
     inkscape:original-d="m 1208.1818,152.1215 c 79.4585,35.59636 158.9162,71.19196 238.3732,106.78682" /><path
     style="opacity:0.86035;fill:none;stroke:#404040;stroke-width:4;stroke-miterlimit:4.5;stroke-dasharray:none;stroke-opacity:1"
     d="M 1208.1818,185.1215 1446.555,291.90832"
     id="path193740"
     inkscape:path-effect="#path-effect193744"
     inkscape:original-d="m 1208.1818,185.1215 c 79.4585,35.59636 158.9162,71.19196 238.3732,106.78682" /></svg>
