<?xml version="1.0" encoding="UTF-8" standalone="no"?>
<!-- Created with Inkscape (http://www.inkscape.org/) -->

<svg
   width="133.58095mm"
   height="50.45525mm"
   viewBox="0 0 133.58095 50.45525"
   version="1.1"
   id="svg127271"
   sodipodi:docname="Tk.svg"
   inkscape:version="1.2.1 (9c6d41e410, 2022-07-14)"
   xmlns:inkscape="http://www.inkscape.org/namespaces/inkscape"
   xmlns:sodipodi="http://sodipodi.sourceforge.net/DTD/sodipodi-0.dtd"
   xmlns="http://www.w3.org/2000/svg"
   xmlns:svg="http://www.w3.org/2000/svg"
   xmlns:ns16="http://www.iki.fi/pav/software/textext/">
  <sodipodi:namedview
     id="namedview127273"
     pagecolor="#ffffff"
     bordercolor="#999999"
     borderopacity="1"
     inkscape:showpageshadow="0"
     inkscape:pageopacity="0"
     inkscape:pagecheckerboard="0"
     inkscape:deskcolor="#d1d1d1"
     inkscape:document-units="mm"
     showgrid="false"
     inkscape:zoom="1.4699074"
     inkscape:cx="240.15118"
     inkscape:cy="122.45669"
     inkscape:window-width="1920"
     inkscape:window-height="1019"
     inkscape:window-x="1920"
     inkscape:window-y="151"
     inkscape:window-maximized="1"
     inkscape:current-layer="layer1" />
  <defs
     id="defs127268">
    <marker
       style="overflow:visible"
       id="Arrow4"
       refX="0"
       refY="0"
       orient="auto-start-reverse"
       inkscape:stockid="Arrow4"
       markerWidth="4"
       markerHeight="4.8000002"
       viewBox="0 0 5 6"
       inkscape:isstock="true"
       inkscape:collect="always"
       preserveAspectRatio="xMidYMid">
      <path
         style="fill:context-stroke;fill-rule:evenodd;stroke:none"
         d="m 1,0 -3,3 h -2 l 3,-3 -3,-3 h 2 z"
         id="path1741" />
    </marker>
    <inkscape:path-effect
       effect="spiro"
       id="path-effect129724"
       is_visible="true"
       lpeversion="1" />
    <inkscape:path-effect
       effect="spiro"
       id="path-effect129657"
       is_visible="true"
       lpeversion="1" />
    <inkscape:path-effect
       effect="spiro"
       id="path-effect127919"
       is_visible="true"
       lpeversion="1" />
    <inkscape:path-effect
       effect="spiro"
       id="path-effect127457"
       is_visible="true"
       lpeversion="1" />
    <inkscape:path-effect
       effect="spiro"
       id="path-effect127457-9"
       is_visible="true"
       lpeversion="1" />
    <inkscape:path-effect
       effect="spiro"
       id="path-effect127457-9-8"
       is_visible="true"
       lpeversion="1" />
    <marker
       style="overflow:visible"
       id="Arrow4-5"
       refX="0"
       refY="0"
       orient="auto-start-reverse"
       inkscape:stockid="Arrow4"
       markerWidth="4"
       markerHeight="4.8000002"
       viewBox="0 0 5 6"
       inkscape:isstock="true"
       inkscape:collect="always"
       preserveAspectRatio="xMidYMid">
      <path
         style="fill:context-stroke;fill-rule:evenodd;stroke:none"
         d="m 1,0 -3,3 h -2 l 3,-3 -3,-3 h 2 z"
         id="path1741-0" />
    </marker>
    <inkscape:path-effect
       effect="spiro"
       id="path-effect129724-9"
       is_visible="true"
       lpeversion="1" />
  </defs>
  <g
     inkscape:label="Layer 1"
     inkscape:groupmode="layer"
     id="layer1"
     transform="translate(-21.460452,-113.86895)">
    <path
       style="fill:none;fill-opacity:1;stroke:#d07070;stroke-width:1.087;stroke-miterlimit:4.5;stroke-dasharray:3.26101, 1.087;stroke-dashoffset:0;stroke-opacity:1"
       d="m 22.642482,114.33584 c 2.937571,1.75019 5.816107,3.59946 8.629069,5.54361 5.657528,3.91015 11.045303,8.2007 16.721434,12.08379 17.794114,12.17311 38.39247,20.22007 59.726175,23.33264"
       id="path129655"
       inkscape:original-d="m 22.642482,114.33584 c 2.876668,1.84814 5.753023,3.69601 8.629069,5.54361 2.876042,1.84761 11.147935,8.05613 16.721434,12.08379 5.573497,4.02767 39.817758,15.55536 59.726175,23.33264"
       inkscape:path-effect="#path-effect129657" />
    <path
       style="fill:#ffffff;stroke:#707070;stroke-width:1.63051;stroke-miterlimit:4.5;stroke-dasharray:none;stroke-opacity:1"
       d="M 155.0414,155.29588 H 21.460452"
       id="path127455-0"
       inkscape:original-d="m 155.0414,155.29588 c -44.5274,2.7e-4 -89.054374,2.7e-4 -133.580948,0"
       inkscape:path-effect="#path-effect127457-9" />
    <circle
       style="fill:#0289ff;fill-opacity:1;stroke:none;stroke-width:2;stroke-miterlimit:4.5;stroke-dasharray:none;stroke-opacity:1"
       id="path129558"
       cx="104.83412"
       cy="155.29588"
       r="2.8850372" />
    <path
       style="fill:none;fill-opacity:1;stroke:#808080;stroke-width:1;stroke-miterlimit:4.5;stroke-dasharray:none;stroke-dashoffset:0;stroke-opacity:1;marker-end:url(#Arrow4)"
       d="m 52.367336,121.65415 v 18.68341"
       id="path129722"
       inkscape:path-effect="#path-effect129724"
       inkscape:original-d="m 52.367336,121.65415 c 2.64e-4,6.22807 2.64e-4,12.45587 0,18.68341" />
    <path
       style="fill:none;fill-opacity:1;stroke:#808080;stroke-width:1;stroke-miterlimit:4.5;stroke-dasharray:none;stroke-dashoffset:0;stroke-opacity:1;marker-end:url(#Arrow4-5)"
       d="m 63.800897,161.24012 h 18.68341"
       id="path129722-6"
       inkscape:path-effect="#path-effect129724-9"
       inkscape:original-d="m 63.800897,161.24012 c 6.22808,-2.6e-4 12.45587,-2.6e-4 18.68341,0" />
    <g
       transform="matrix(0.705556,0,0,0.705556,71.163502,136.71236)"
       ns16:version="1.8.1"
       ns16:texconverter="xelatex"
       ns16:pdfconverter="inkscape"
       ns16:text="$T_K$"
       ns16:preamble="/home/kirito/.config/textext/beamer_preamble.tex"
       ns16:scale="2.0"
       ns16:alignment="middle center"
       ns16:stroke-to-path="0"
       ns16:jacobian_sqrt="0.705556"
       id="g130222">
      <defs
         id="id-6458e56d-f594-4b3e-8047-eb5273e80b8f">
        <g
           id="id-2b254096-e66a-47ab-964f-48efb4884c63">
          <g
             id="id-5aa2f174-48f0-4b4e-884f-61d6d258cf48">
            <path
               d="m 5.4375,-6.4375 v 5.890625 H 1.34375 V -6.4375 Z m 0.546875,-0.546875 h -5.1875 V 0 h 5.1875 z m -2.75,4.953125 c -0.21875,0 -0.40625,0.1875 -0.40625,0.421875 0,0.21875 0.1875,0.40625 0.40625,0.40625 0.25,0 0.421875,-0.1875 0.421875,-0.40625 0,-0.234375 -0.171875,-0.421875 -0.421875,-0.421875 z M 3.4375,-5.453125 c -0.5,0 -0.90625,0.1875 -1.25,0.59375 l 0.390625,0.28125 C 2.828125,-4.875 3.09375,-5 3.40625,-5 3.765625,-5 4,-4.8125 4,-4.484375 4,-3.84375 2.953125,-3.953125 2.953125,-2.9375 v 0.296875 H 3.5 V -2.90625 c 0,-0.796875 1.078125,-0.65625 1.078125,-1.625 0,-0.46875 -0.375,-0.921875 -1.140625,-0.921875 z m 0,0"
               id="id-4a41f05f-93fd-46a4-88ef-8e8a8fa35566" />
          </g>
          <g
             id="id-e05a3d9d-2f5e-4b5b-850d-4ebe7c9ba1f2">
            <path
               d="m 5.609375,-6.875 h -4.875 L 0.625,-6.0625 H 2.546875 L 1.703125,0 h 0.9375 l 0.84375,-6.0625 h 1.90625 z m 0,0"
               id="id-551507b8-5237-4a95-850b-1cc57d1ba86e" />
          </g>
          <g
             id="id-34fb67c6-e022-4846-b614-6d23f256f416">
            <path
               d="m 3.90625,-4.625 v 4.234375 H 0.96875 V -4.625 Z M 4.296875,-5.015625 H 0.578125 V 0 h 3.71875 z m -1.96875,3.5625 c -0.15625,0 -0.296875,0.125 -0.296875,0.296875 0,0.15625 0.140625,0.296875 0.296875,0.296875 C 2.5,-0.859375 2.625,-1 2.625,-1.15625 2.625,-1.328125 2.5,-1.453125 2.328125,-1.453125 Z m 0.140625,-2.46875 c -0.359375,0 -0.640625,0.140625 -0.890625,0.421875 L 1.84375,-3.296875 C 2.03125,-3.5 2.234375,-3.59375 2.453125,-3.59375 c 0.265625,0 0.4375,0.125 0.4375,0.359375 0,0.46875 -0.765625,0.390625 -0.765625,1.125 v 0.203125 h 0.390625 v -0.1875 c 0,-0.5625 0.78125,-0.46875 0.78125,-1.15625 0,-0.34375 -0.28125,-0.671875 -0.828125,-0.671875 z m 0,0"
               id="id-c90fcf24-8855-43ae-aa0e-45c75eb6969a" />
          </g>
          <g
             id="id-7b7502bd-7397-4e98-ae38-4f93965d8763">
            <path
               d="m 3.109375,0 h 0.8125 L 2.28125,-2.625 4.484375,-4.9375 H 3.6875 L 1.53125,-2.640625 Z M 0.4375,0 H 1.125 l 0.703125,-4.9375 h -0.6875 z m 0,0"
               id="id-6df3c5a6-2755-4c5b-b428-4e2a9f537eaf" />
          </g>
        </g>
      </defs>
      <g
         fill="#000000"
         fill-opacity="1"
         id="id-961d6f25-77cd-40d0-a07d-8d42a90b681f"
         transform="translate(-149.337,-127.89)">
        <g
           transform="translate(148.712,134.765)"
           id="g130570">
          <path
             d="m 5.609375,-6.875 h -4.875 L 0.625,-6.0625 H 2.546875 L 1.703125,0 h 0.9375 l 0.84375,-6.0625 h 1.90625 z m 0,0"
             id="id-b874638b-7ad6-4418-914b-d7d1741049e8" />
        </g>
      </g>
      <g
         fill="#000000"
         fill-opacity="1"
         id="id-688af846-9c82-4edd-87c1-79bbe0d729c2"
         transform="translate(-149.337,-127.89)">
        <g
           transform="translate(153.803,138.252)"
           id="g130574">
          <path
             d="m 3.109375,0 h 0.8125 L 2.28125,-2.625 4.484375,-4.9375 H 3.6875 L 1.53125,-2.640625 Z M 0.4375,0 H 1.125 l 0.703125,-4.9375 h -0.6875 z m 0,0"
             id="id-d34af632-6f67-42b2-a493-5f4d51d45405" />
        </g>
      </g>
    </g>
    <g
       transform="matrix(0.529167,0,0,0.529167,32.491412,147.26779)"
       ns16:version="1.8.1"
       ns16:texconverter="xelatex"
       ns16:pdfconverter="inkscape"
       ns16:text="singlet"
       ns16:preamble="/home/kirito/.config/textext/beamer_preamble.tex"
       ns16:scale="1.5"
       ns16:alignment="middle center"
       ns16:stroke-to-path="0"
       ns16:jacobian_sqrt="0.529167"
       id="g131024">
      <defs
         id="id-4e5f2f8d-667c-420e-9e66-3ecbec9bd106">
        <g
           id="id-0d7507f9-cc58-4366-826a-52e8fa83ceb1">
          <g
             id="id-410f7caf-3a7e-4d6e-bcf4-32f0c0ea0b5d">
            <path
               d="M 5.40625,-10.46875 V 3.484375 H 1.21875 V -10.46875 Z M 4.875,-9.953125 H 1.78125 V 2.96875 H 4.875 Z M 3.234375,-4.5 c 0.394531,0 0.675781,0.109375 0.84375,0.328125 0.175781,0.210937 0.265625,0.484375 0.265625,0.828125 0,0.34375 -0.078125,0.617188 -0.234375,0.8125 -0.148437,0.1875 -0.386719,0.308594 -0.71875,0.359375 v 0.453125 c 0,0.074219 -0.027344,0.132812 -0.078125,0.171875 -0.054688,0.042969 -0.109375,0.0625 -0.171875,0.0625 -0.0625,0 -0.121094,-0.019531 -0.171875,-0.0625 C 2.914062,-1.585938 2.890625,-1.644531 2.890625,-1.71875 V -2.5625 c 0.351563,-0.019531 0.59375,-0.082031 0.71875,-0.1875 0.125,-0.113281 0.1875,-0.304688 0.1875,-0.578125 0,-0.21875 -0.046875,-0.382813 -0.140625,-0.5 -0.085938,-0.125 -0.242188,-0.1875 -0.46875,-0.1875 -0.1875,0 -0.359375,0.039063 -0.515625,0.109375 -0.054687,0.023438 -0.09375,0.03125 -0.125,0.03125 -0.074219,0 -0.136719,-0.019531 -0.1875,-0.0625 -0.042969,-0.039062 -0.0625,-0.097656 -0.0625,-0.171875 0,-0.125 0.097656,-0.21875 0.296875,-0.28125 C 2.789062,-4.460938 3.003906,-4.5 3.234375,-4.5 Z m -0.09375,3.296875 c 0.101563,0 0.1875,0.039063 0.25,0.109375 0.0625,0.0625 0.09375,0.148438 0.09375,0.25 0,0.105469 -0.03125,0.195312 -0.09375,0.265625 -0.0625,0.0625 -0.148437,0.09375 -0.25,0.09375 -0.105469,0 -0.1875,-0.03125 -0.25,-0.09375 -0.0625,-0.070313 -0.09375,-0.160156 -0.09375,-0.265625 0,-0.101562 0.03125,-0.1875 0.09375,-0.25 0.0625,-0.070312 0.144531,-0.109375 0.25,-0.109375 z m 0,0"
               id="id-00822ff8-dba1-421b-8223-544e8075d21a" />
          </g>
          <g
             id="id-b0f47e8d-3d9c-485c-acb8-1a88433afe05">
            <path
               d="m 2.375,-5.375 c 0.351562,0 0.671875,0.054688 0.953125,0.15625 0.289063,0.09375 0.566406,0.242188 0.828125,0.4375 L 3.765625,-4.203125 C 3.523438,-4.347656 3.296875,-4.457031 3.078125,-4.53125 2.867188,-4.601562 2.644531,-4.640625 2.40625,-4.640625 c -0.304688,0 -0.542969,0.0625 -0.71875,0.1875 -0.167969,0.117187 -0.25,0.28125 -0.25,0.5 0,0.210937 0.078125,0.375 0.234375,0.5 0.164063,0.117187 0.460937,0.230469 0.890625,0.34375 0.582031,0.148437 1.019531,0.34375 1.3125,0.59375 0.289062,0.25 0.4375,0.601563 0.4375,1.046875 0,0.511719 -0.203125,0.90625 -0.609375,1.1875 C 3.296875,-0.0078125 2.804688,0.125 2.234375,0.125 1.429688,0.125 0.769531,-0.101562 0.25,-0.5625 L 0.734375,-1.125 c 0.445313,0.335938 0.941406,0.5 1.484375,0.5 0.34375,0 0.613281,-0.066406 0.8125,-0.203125 0.207031,-0.144531 0.3125,-0.34375 0.3125,-0.59375 0,-0.175781 -0.039062,-0.316406 -0.109375,-0.421875 C 3.160156,-1.957031 3.03125,-2.054688 2.84375,-2.140625 2.664062,-2.222656 2.40625,-2.3125 2.0625,-2.40625 1.5,-2.550781 1.09375,-2.742188 0.84375,-2.984375 c -0.242188,-0.25 -0.359375,-0.5625 -0.359375,-0.9375 0,-0.28125 0.078125,-0.53125 0.234375,-0.75 C 0.882812,-4.890625 1.109375,-5.0625 1.390625,-5.1875 1.679688,-5.3125 2.007812,-5.375 2.375,-5.375 Z m 0,0"
               id="id-d25468f9-4049-4284-87b2-2c7174381441" />
          </g>
          <g
             id="id-23ec5ced-e6f1-495e-83f9-e99341f00591">
            <path
               d="M 1.859375,-5.25 V 0 h -0.90625 v -5.25 z m -0.46875,-2.53125 c 0.195313,0 0.351563,0.0625 0.46875,0.1875 0.125,0.117188 0.1875,0.265625 0.1875,0.453125 0,0.179687 -0.0625,0.324219 -0.1875,0.4375 -0.117187,0.117187 -0.273437,0.171875 -0.46875,0.171875 -0.179687,0 -0.328125,-0.054688 -0.453125,-0.171875 -0.117188,-0.113281 -0.171875,-0.257813 -0.171875,-0.4375 0,-0.1875 0.054687,-0.335937 0.171875,-0.453125 0.125,-0.125 0.273438,-0.1875 0.453125,-0.1875 z m 0,0"
               id="id-c389592b-f207-431b-b7a4-96726322ee5f" />
          </g>
          <g
             id="id-b39c3276-40a8-4819-ad26-32aa2c11f579">
            <path
               d="m 3.421875,-5.375 c 0.476563,0 0.847656,0.148438 1.109375,0.4375 0.269531,0.28125 0.40625,0.671875 0.40625,1.171875 V 0 H 4.03125 v -3.640625 c 0,-0.375 -0.074219,-0.632813 -0.21875,-0.78125 -0.136719,-0.15625 -0.339844,-0.234375 -0.609375,-0.234375 -0.28125,0 -0.53125,0.085938 -0.75,0.25 -0.210937,0.15625 -0.40625,0.382812 -0.59375,0.671875 V 0 h -0.90625 v -5.25 h 0.78125 L 1.8125,-4.46875 C 2,-4.75 2.226562,-4.96875 2.5,-5.125 c 0.28125,-0.164062 0.585938,-0.25 0.921875,-0.25 z m 0,0"
               id="id-32561d5f-e4bf-4fd2-b5b8-f18125c9f4bc" />
          </g>
          <g
             id="id-192727a3-2dca-4db9-9845-2ee5ee7c4be6">
            <path
               d="m 5.1875,-5.015625 c -0.199219,0.0625 -0.417969,0.105469 -0.65625,0.125 -0.242188,0.023437 -0.53125,0.03125 -0.875,0.03125 0.613281,0.28125 0.921875,0.726563 0.921875,1.328125 0,0.53125 -0.183594,0.964844 -0.546875,1.296875 C 3.675781,-1.910156 3.191406,-1.75 2.578125,-1.75 c -0.242187,0 -0.464844,-0.03125 -0.671875,-0.09375 -0.085938,0.054688 -0.152344,0.125 -0.203125,0.21875 -0.042969,0.085938 -0.0625,0.171875 -0.0625,0.265625 0,0.292969 0.226563,0.4375 0.6875,0.4375 h 0.84375 c 0.351563,0 0.664063,0.0625 0.9375,0.1875 0.269531,0.125 0.476563,0.296875 0.625,0.515625 C 4.890625,0 4.96875,0.25 4.96875,0.53125 4.96875,1.039062 4.753906,1.429688 4.328125,1.703125 3.910156,1.984375 3.300781,2.125 2.5,2.125 1.9375,2.125 1.488281,2.066406 1.15625,1.953125 0.832031,1.835938 0.597656,1.660156 0.453125,1.421875 0.316406,1.191406 0.25,0.894531 0.25,0.53125 h 0.828125 c 0,0.207031 0.035156,0.375 0.109375,0.5 C 1.269531,1.15625 1.414062,1.25 1.625,1.3125 1.832031,1.375 2.125,1.40625 2.5,1.40625 3.050781,1.40625 3.441406,1.335938 3.671875,1.203125 3.910156,1.066406 4.03125,0.863281 4.03125,0.59375 c 0,-0.25 -0.09375,-0.4375 -0.28125,-0.5625 -0.179688,-0.125 -0.433594,-0.1875 -0.765625,-0.1875 H 2.15625 c -0.449219,0 -0.789062,-0.09375 -1.015625,-0.28125 -0.230469,-0.195312 -0.34375,-0.4375 -0.34375,-0.71875 0,-0.175781 0.046875,-0.34375 0.140625,-0.5 0.101562,-0.15625 0.25,-0.296875 0.4375,-0.421875 -0.304688,-0.164063 -0.527344,-0.363281 -0.671875,-0.59375 -0.148437,-0.238281 -0.21875,-0.523437 -0.21875,-0.859375 0,-0.351562 0.085937,-0.671875 0.265625,-0.953125 0.175781,-0.28125 0.414062,-0.5 0.71875,-0.65625 0.3125,-0.15625 0.660156,-0.234375 1.046875,-0.234375 0.40625,0.011719 0.75,0 1.03125,-0.03125 0.28125,-0.039062 0.507813,-0.09375 0.6875,-0.15625 0.1875,-0.0625 0.414063,-0.15625 0.6875,-0.28125 z M 2.515625,-4.71875 c -0.34375,0 -0.617187,0.109375 -0.8125,0.328125 -0.1875,0.21875 -0.28125,0.507813 -0.28125,0.859375 0,0.355469 0.09375,0.640625 0.28125,0.859375 0.195313,0.210937 0.472656,0.3125 0.828125,0.3125 0.363281,0 0.640625,-0.101563 0.828125,-0.3125 0.1875,-0.207031 0.28125,-0.5 0.28125,-0.875 0,-0.78125 -0.375,-1.171875 -1.125,-1.171875 z m 0,0"
               id="id-c0008273-c45c-444f-94bf-fb16ea08b4e0" />
          </g>
          <g
             id="id-c470a2eb-3d6f-4b99-a1dc-425a0b1eb8f9">
            <path
               d="M 2,0.125 C 1.65625,0.125 1.382812,0.0234375 1.1875,-0.171875 0.988281,-0.378906 0.890625,-0.664062 0.890625,-1.03125 v -6.328125 l 0.921875,-0.125 V -1.0625 c 0,0.148438 0.023438,0.257812 0.078125,0.328125 0.050781,0.0625 0.132813,0.09375 0.25,0.09375 0.125,0 0.238281,-0.019531 0.34375,-0.0625 L 2.71875,-0.0625 C 2.5,0.0625 2.257812,0.125 2,0.125 Z m 0,0"
               id="id-14433711-d3da-429c-813d-13773ae90005" />
          </g>
          <g
             id="id-25050cb1-f4f2-47e7-9aae-482931880f61">
            <path
               d="m 4.921875,-2.78125 c 0,0.15625 -0.011719,0.3125 -0.03125,0.46875 h -3.34375 c 0.039063,0.574219 0.1875,1 0.4375,1.28125 0.25,0.273438 0.570313,0.40625 0.96875,0.40625 0.257813,0 0.492187,-0.035156 0.703125,-0.109375 C 3.875,-0.804688 4.097656,-0.925781 4.328125,-1.09375 l 0.390625,0.5625 C 4.164062,-0.09375 3.554688,0.125 2.890625,0.125 2.160156,0.125 1.585938,-0.113281 1.171875,-0.59375 0.765625,-1.070312 0.5625,-1.734375 0.5625,-2.578125 c 0,-0.539063 0.085938,-1.019531 0.265625,-1.4375 0.175781,-0.425781 0.425781,-0.757813 0.75,-1 C 1.910156,-5.253906 2.300781,-5.375 2.75,-5.375 c 0.695312,0 1.234375,0.230469 1.609375,0.6875 0.375,0.460938 0.5625,1.09375 0.5625,1.90625 z M 4,-3.046875 c 0,-0.519531 -0.105469,-0.914063 -0.3125,-1.1875 -0.199219,-0.269531 -0.507812,-0.40625 -0.921875,-0.40625 -0.75,0 -1.15625,0.554687 -1.21875,1.65625 H 4 Z m 0,0"
               id="id-f2597d02-7dbc-4b2d-83e1-92f4ad0c0b38" />
          </g>
          <g
             id="id-9f9dcf3b-5bb3-4b76-8b70-5043b9eb008b">
            <path
               d="M 3.59375,-0.234375 C 3.25,0.00390625 2.859375,0.125 2.421875,0.125 1.972656,0.125 1.625,0 1.375,-0.25 1.125,-0.507812 1,-0.882812 1,-1.375 V -4.546875 H 0.09375 V -5.25 H 1 V -6.4375 L 1.921875,-6.546875 V -5.25 h 1.25 l -0.09375,0.703125 h -1.15625 v 3.125 c 0,0.28125 0.046875,0.484375 0.140625,0.609375 0.101562,0.117188 0.265625,0.171875 0.484375,0.171875 0.207031,0 0.441406,-0.066406 0.703125,-0.203125 z m 0,0"
               id="id-7126d967-3e52-42e6-8706-b95c50a60555" />
          </g>
        </g>
      </defs>
      <g
         fill="#000000"
         fill-opacity="1"
         id="id-d61f2944-3317-4a2c-afba-3c44916e5d9c"
         transform="translate(-148.962,-126.984)">
        <g
           transform="translate(148.712,134.765)"
           id="g131002">
          <path
             d="m 2.375,-5.375 c 0.351562,0 0.671875,0.054688 0.953125,0.15625 0.289063,0.09375 0.566406,0.242188 0.828125,0.4375 L 3.765625,-4.203125 C 3.523438,-4.347656 3.296875,-4.457031 3.078125,-4.53125 2.867188,-4.601562 2.644531,-4.640625 2.40625,-4.640625 c -0.304688,0 -0.542969,0.0625 -0.71875,0.1875 -0.167969,0.117187 -0.25,0.28125 -0.25,0.5 0,0.210937 0.078125,0.375 0.234375,0.5 0.164063,0.117187 0.460937,0.230469 0.890625,0.34375 0.582031,0.148437 1.019531,0.34375 1.3125,0.59375 0.289062,0.25 0.4375,0.601563 0.4375,1.046875 0,0.511719 -0.203125,0.90625 -0.609375,1.1875 C 3.296875,-0.0078125 2.804688,0.125 2.234375,0.125 1.429688,0.125 0.769531,-0.101562 0.25,-0.5625 L 0.734375,-1.125 c 0.445313,0.335938 0.941406,0.5 1.484375,0.5 0.34375,0 0.613281,-0.066406 0.8125,-0.203125 0.207031,-0.144531 0.3125,-0.34375 0.3125,-0.59375 0,-0.175781 -0.039062,-0.316406 -0.109375,-0.421875 C 3.160156,-1.957031 3.03125,-2.054688 2.84375,-2.140625 2.664062,-2.222656 2.40625,-2.3125 2.0625,-2.40625 1.5,-2.550781 1.09375,-2.742188 0.84375,-2.984375 c -0.242188,-0.25 -0.359375,-0.5625 -0.359375,-0.9375 0,-0.28125 0.078125,-0.53125 0.234375,-0.75 C 0.882812,-4.890625 1.109375,-5.0625 1.390625,-5.1875 1.679688,-5.3125 2.007812,-5.375 2.375,-5.375 Z m 0,0"
             id="id-9304fb85-7e12-4c78-bdd2-bbcd8e688dd7" />
        </g>
        <g
           transform="translate(153.365,134.765)"
           id="g131005">
          <path
             d="M 1.859375,-5.25 V 0 h -0.90625 v -5.25 z m -0.46875,-2.53125 c 0.195313,0 0.351563,0.0625 0.46875,0.1875 0.125,0.117188 0.1875,0.265625 0.1875,0.453125 0,0.179687 -0.0625,0.324219 -0.1875,0.4375 -0.117187,0.117187 -0.273437,0.171875 -0.46875,0.171875 -0.179687,0 -0.328125,-0.054688 -0.453125,-0.171875 -0.117188,-0.113281 -0.171875,-0.257813 -0.171875,-0.4375 0,-0.1875 0.054687,-0.335937 0.171875,-0.453125 0.125,-0.125 0.273438,-0.1875 0.453125,-0.1875 z m 0,0"
             id="id-bcc2a38f-039a-43e0-b6ea-54927bf952cb" />
        </g>
        <g
           transform="translate(156.174,134.765)"
           id="g131008">
          <path
             d="m 3.421875,-5.375 c 0.476563,0 0.847656,0.148438 1.109375,0.4375 0.269531,0.28125 0.40625,0.671875 0.40625,1.171875 V 0 H 4.03125 v -3.640625 c 0,-0.375 -0.074219,-0.632813 -0.21875,-0.78125 -0.136719,-0.15625 -0.339844,-0.234375 -0.609375,-0.234375 -0.28125,0 -0.53125,0.085938 -0.75,0.25 -0.210937,0.15625 -0.40625,0.382812 -0.59375,0.671875 V 0 h -0.90625 v -5.25 h 0.78125 L 1.8125,-4.46875 C 2,-4.75 2.226562,-4.96875 2.5,-5.125 c 0.28125,-0.164062 0.585938,-0.25 0.921875,-0.25 z m 0,0"
             id="id-9b828bd0-1ca3-493d-8fbe-253b11b0754e" />
        </g>
        <g
           transform="translate(162.012,134.765)"
           id="g131011">
          <path
             d="m 5.1875,-5.015625 c -0.199219,0.0625 -0.417969,0.105469 -0.65625,0.125 -0.242188,0.023437 -0.53125,0.03125 -0.875,0.03125 0.613281,0.28125 0.921875,0.726563 0.921875,1.328125 0,0.53125 -0.183594,0.964844 -0.546875,1.296875 C 3.675781,-1.910156 3.191406,-1.75 2.578125,-1.75 c -0.242187,0 -0.464844,-0.03125 -0.671875,-0.09375 -0.085938,0.054688 -0.152344,0.125 -0.203125,0.21875 -0.042969,0.085938 -0.0625,0.171875 -0.0625,0.265625 0,0.292969 0.226563,0.4375 0.6875,0.4375 h 0.84375 c 0.351563,0 0.664063,0.0625 0.9375,0.1875 0.269531,0.125 0.476563,0.296875 0.625,0.515625 C 4.890625,0 4.96875,0.25 4.96875,0.53125 4.96875,1.039062 4.753906,1.429688 4.328125,1.703125 3.910156,1.984375 3.300781,2.125 2.5,2.125 1.9375,2.125 1.488281,2.066406 1.15625,1.953125 0.832031,1.835938 0.597656,1.660156 0.453125,1.421875 0.316406,1.191406 0.25,0.894531 0.25,0.53125 h 0.828125 c 0,0.207031 0.035156,0.375 0.109375,0.5 C 1.269531,1.15625 1.414062,1.25 1.625,1.3125 1.832031,1.375 2.125,1.40625 2.5,1.40625 3.050781,1.40625 3.441406,1.335938 3.671875,1.203125 3.910156,1.066406 4.03125,0.863281 4.03125,0.59375 c 0,-0.25 -0.09375,-0.4375 -0.28125,-0.5625 -0.179688,-0.125 -0.433594,-0.1875 -0.765625,-0.1875 H 2.15625 c -0.449219,0 -0.789062,-0.09375 -1.015625,-0.28125 -0.230469,-0.195312 -0.34375,-0.4375 -0.34375,-0.71875 0,-0.175781 0.046875,-0.34375 0.140625,-0.5 0.101562,-0.15625 0.25,-0.296875 0.4375,-0.421875 -0.304688,-0.164063 -0.527344,-0.363281 -0.671875,-0.59375 -0.148437,-0.238281 -0.21875,-0.523437 -0.21875,-0.859375 0,-0.351562 0.085937,-0.671875 0.265625,-0.953125 0.175781,-0.28125 0.414062,-0.5 0.71875,-0.65625 0.3125,-0.15625 0.660156,-0.234375 1.046875,-0.234375 0.40625,0.011719 0.75,0 1.03125,-0.03125 0.28125,-0.039062 0.507813,-0.09375 0.6875,-0.15625 0.1875,-0.0625 0.414063,-0.15625 0.6875,-0.28125 z M 2.515625,-4.71875 c -0.34375,0 -0.617187,0.109375 -0.8125,0.328125 -0.1875,0.21875 -0.28125,0.507813 -0.28125,0.859375 0,0.355469 0.09375,0.640625 0.28125,0.859375 0.195313,0.210937 0.472656,0.3125 0.828125,0.3125 0.363281,0 0.640625,-0.101563 0.828125,-0.3125 0.1875,-0.207031 0.28125,-0.5 0.28125,-0.875 0,-0.78125 -0.375,-1.171875 -1.125,-1.171875 z m 0,0"
             id="id-ed53d23b-91ef-4cca-bb12-51c81b928a79" />
        </g>
        <g
           transform="translate(167.193,134.765)"
           id="g131014">
          <path
             d="M 2,0.125 C 1.65625,0.125 1.382812,0.0234375 1.1875,-0.171875 0.988281,-0.378906 0.890625,-0.664062 0.890625,-1.03125 v -6.328125 l 0.921875,-0.125 V -1.0625 c 0,0.148438 0.023438,0.257812 0.078125,0.328125 0.050781,0.0625 0.132813,0.09375 0.25,0.09375 0.125,0 0.238281,-0.019531 0.34375,-0.0625 L 2.71875,-0.0625 C 2.5,0.0625 2.257812,0.125 2,0.125 Z m 0,0"
             id="id-1fb9319e-9652-48fe-bbcf-542398eab42d" />
        </g>
      </g>
      <g
         fill="#000000"
         fill-opacity="1"
         id="id-5ca2c46e-51ad-4194-8173-49f74394f59e"
         transform="translate(-148.962,-126.984)">
        <g
           transform="translate(170.072,134.765)"
           id="g131018">
          <path
             d="m 4.921875,-2.78125 c 0,0.15625 -0.011719,0.3125 -0.03125,0.46875 h -3.34375 c 0.039063,0.574219 0.1875,1 0.4375,1.28125 0.25,0.273438 0.570313,0.40625 0.96875,0.40625 0.257813,0 0.492187,-0.035156 0.703125,-0.109375 C 3.875,-0.804688 4.097656,-0.925781 4.328125,-1.09375 l 0.390625,0.5625 C 4.164062,-0.09375 3.554688,0.125 2.890625,0.125 2.160156,0.125 1.585938,-0.113281 1.171875,-0.59375 0.765625,-1.070312 0.5625,-1.734375 0.5625,-2.578125 c 0,-0.539063 0.085938,-1.019531 0.265625,-1.4375 0.175781,-0.425781 0.425781,-0.757813 0.75,-1 C 1.910156,-5.253906 2.300781,-5.375 2.75,-5.375 c 0.695312,0 1.234375,0.230469 1.609375,0.6875 0.375,0.460938 0.5625,1.09375 0.5625,1.90625 z M 4,-3.046875 c 0,-0.519531 -0.105469,-0.914063 -0.3125,-1.1875 -0.199219,-0.269531 -0.507812,-0.40625 -0.921875,-0.40625 -0.75,0 -1.15625,0.554687 -1.21875,1.65625 H 4 Z m 0,0"
             id="id-bc09df4b-02ac-4160-8115-4847cd129d54" />
        </g>
        <g
           transform="translate(175.501,134.765)"
           id="g131021">
          <path
             d="M 3.59375,-0.234375 C 3.25,0.00390625 2.859375,0.125 2.421875,0.125 1.972656,0.125 1.625,0 1.375,-0.25 1.125,-0.507812 1,-0.882812 1,-1.375 V -4.546875 H 0.09375 V -5.25 H 1 V -6.4375 L 1.921875,-6.546875 V -5.25 h 1.25 l -0.09375,0.703125 h -1.15625 v 3.125 c 0,0.28125 0.046875,0.484375 0.140625,0.609375 0.101562,0.117188 0.265625,0.171875 0.484375,0.171875 0.207031,0 0.441406,-0.066406 0.703125,-0.203125 z m 0,0"
             id="id-ee1977d9-5676-4473-b5ad-931ee245d172" />
        </g>
      </g>
    </g>
    <g
       transform="matrix(0.529167,0,0,0.529167,99.918093,160.08279)"
       ns16:version="1.8.1"
       ns16:texconverter="xelatex"
       ns16:pdfconverter="inkscape"
       ns16:text="QCP"
       ns16:preamble="/home/kirito/.config/textext/beamer_preamble.tex"
       ns16:scale="1.5"
       ns16:alignment="middle center"
       ns16:stroke-to-path="0"
       ns16:jacobian_sqrt="0.529167"
       id="g131315">
      <defs
         id="id-d76268d9-15e5-45e7-a092-abb993fd2c76">
        <g
           id="id-1a4f8fcb-ef18-4bca-9bef-696c4d68c863">
          <g
             id="id-f792e10d-7d68-44e7-9a72-dca9a7583758">
            <path
               d="M 5.40625,-10.46875 V 3.484375 H 1.21875 V -10.46875 Z M 4.875,-9.953125 H 1.78125 V 2.96875 H 4.875 Z M 3.234375,-4.5 c 0.394531,0 0.675781,0.109375 0.84375,0.328125 0.175781,0.210937 0.265625,0.484375 0.265625,0.828125 0,0.34375 -0.078125,0.617188 -0.234375,0.8125 -0.148437,0.1875 -0.386719,0.308594 -0.71875,0.359375 v 0.453125 c 0,0.074219 -0.027344,0.132812 -0.078125,0.171875 -0.054688,0.042969 -0.109375,0.0625 -0.171875,0.0625 -0.0625,0 -0.121094,-0.019531 -0.171875,-0.0625 C 2.914062,-1.585938 2.890625,-1.644531 2.890625,-1.71875 V -2.5625 c 0.351563,-0.019531 0.59375,-0.082031 0.71875,-0.1875 0.125,-0.113281 0.1875,-0.304688 0.1875,-0.578125 0,-0.21875 -0.046875,-0.382813 -0.140625,-0.5 -0.085938,-0.125 -0.242188,-0.1875 -0.46875,-0.1875 -0.1875,0 -0.359375,0.039063 -0.515625,0.109375 -0.054687,0.023438 -0.09375,0.03125 -0.125,0.03125 -0.074219,0 -0.136719,-0.019531 -0.1875,-0.0625 -0.042969,-0.039062 -0.0625,-0.097656 -0.0625,-0.171875 0,-0.125 0.097656,-0.21875 0.296875,-0.28125 C 2.789062,-4.460938 3.003906,-4.5 3.234375,-4.5 Z m -0.09375,3.296875 c 0.101563,0 0.1875,0.039063 0.25,0.109375 0.0625,0.0625 0.09375,0.148438 0.09375,0.25 0,0.105469 -0.03125,0.195312 -0.09375,0.265625 -0.0625,0.0625 -0.148437,0.09375 -0.25,0.09375 -0.105469,0 -0.1875,-0.03125 -0.25,-0.09375 -0.0625,-0.070313 -0.09375,-0.160156 -0.09375,-0.265625 0,-0.101562 0.03125,-0.1875 0.09375,-0.25 0.0625,-0.070312 0.144531,-0.109375 0.25,-0.109375 z m 0,0"
               id="id-0d2427c2-5263-4ce7-97ee-61f25e16186b" />
          </g>
          <g
             id="id-92dd5834-5398-4332-9c47-0ec218c520da">
            <path
               d="m 4.78125,-0.390625 c 0.363281,0 0.691406,0.058594 0.984375,0.171875 0.300781,0.105469 0.59375,0.2539062 0.875,0.453125 l -0.625,0.796875 C 5.617188,0.675781 5.238281,0.429688 4.875,0.296875 4.519531,0.160156 4.035156,0.09375 3.421875,0.09375 c -0.5625,0 -1.0625,-0.1289062 -1.5,-0.390625 C 1.492188,-0.566406 1.15625,-0.96875 0.90625,-1.5 0.664062,-2.03125 0.546875,-2.671875 0.546875,-3.421875 c 0,-0.738281 0.117187,-1.375 0.359375,-1.90625 C 1.15625,-5.867188 1.5,-6.28125 1.9375,-6.5625 2.375,-6.84375 2.878906,-6.984375 3.453125,-6.984375 c 0.570313,0 1.078125,0.140625 1.515625,0.421875 0.4375,0.273438 0.773438,0.671875 1.015625,1.203125 0.238281,0.53125 0.359375,1.179687 0.359375,1.9375 0,0.804687 -0.136719,1.445313 -0.40625,1.921875 -0.261719,0.46875 -0.648438,0.839844 -1.15625,1.109375 z M 1.5625,-3.421875 c 0,0.949219 0.164062,1.648437 0.5,2.09375 0.332031,0.449219 0.796875,0.671875 1.390625,0.671875 1.257813,0 1.890625,-0.921875 1.890625,-2.765625 0,-1.851563 -0.632812,-2.78125 -1.890625,-2.78125 -0.605469,0 -1.074219,0.226563 -1.40625,0.671875 C 1.722656,-5.082031 1.5625,-4.378906 1.5625,-3.421875 Z m 0,0"
               id="id-a05e4316-b737-42ab-9461-4ea62aeba783" />
          </g>
          <g
             id="id-43c4dde1-13b5-4f6c-a892-d66334948f9f">
            <path
               d="m 3.40625,-6.984375 c 0.40625,0 0.75,0.054687 1.03125,0.15625 0.28125,0.105469 0.566406,0.277344 0.859375,0.515625 L 4.78125,-5.703125 c -0.417969,-0.332031 -0.859375,-0.5 -1.328125,-0.5 -0.5625,0 -1.023437,0.21875 -1.375,0.65625 -0.34375,0.4375 -0.515625,1.140625 -0.515625,2.109375 0,0.9375 0.171875,1.636719 0.515625,2.09375 0.34375,0.449219 0.800781,0.671875 1.375,0.671875 0.289063,0 0.546875,-0.050781 0.765625,-0.15625 C 4.4375,-0.929688 4.671875,-1.070312 4.921875,-1.25 l 0.46875,0.609375 C 5.171875,-0.421875 4.894531,-0.238281 4.5625,-0.09375 4.226562,0.0507812 3.847656,0.125 3.421875,0.125 c -0.5625,0 -1.0625,-0.1328125 -1.5,-0.40625 C 1.492188,-0.5625 1.15625,-0.96875 0.90625,-1.5 0.664062,-2.039062 0.546875,-2.6875 0.546875,-3.4375 c 0,-0.75 0.125,-1.390625 0.375,-1.921875 0.257813,-0.539063 0.601563,-0.945313 1.03125,-1.21875 0.4375,-0.269531 0.921875,-0.40625 1.453125,-0.40625 z m 0,0"
               id="id-5dc80268-d0a8-433c-871e-a87dcc10ec5b" />
          </g>
          <g
             id="id-a6d1b73c-2aa3-4e3e-bb8b-f83209d0510e">
            <path
               d="m 2.796875,-6.875 c 0.851563,0 1.507813,0.183594 1.96875,0.546875 0.46875,0.355469 0.703125,0.882813 0.703125,1.578125 0,0.75 -0.246094,1.3125 -0.734375,1.6875 C 4.253906,-2.695312 3.613281,-2.515625 2.8125,-2.515625 H 1.9375 V 0 H 1 v -6.875 z m -0.03125,3.609375 c 0.550781,0 0.972656,-0.101563 1.265625,-0.3125 0.289062,-0.21875 0.4375,-0.601563 0.4375,-1.15625 0,-0.488281 -0.148438,-0.84375 -0.4375,-1.0625 C 3.738281,-6.015625 3.328125,-6.125 2.796875,-6.125 H 1.9375 v 2.859375 z m 0,0"
               id="id-060061a6-19f6-4ee3-965c-e2e7407284fb" />
          </g>
        </g>
      </defs>
      <g
         fill="#000000"
         fill-opacity="1"
         id="id-84dfabcb-a84f-4271-bb00-6966397ff8bc"
         transform="translate(-149.259,-127.781)">
        <g
           transform="translate(148.712,134.765)"
           id="g131306">
          <path
             d="m 4.78125,-0.390625 c 0.363281,0 0.691406,0.058594 0.984375,0.171875 0.300781,0.105469 0.59375,0.2539062 0.875,0.453125 l -0.625,0.796875 C 5.617188,0.675781 5.238281,0.429688 4.875,0.296875 4.519531,0.160156 4.035156,0.09375 3.421875,0.09375 c -0.5625,0 -1.0625,-0.1289062 -1.5,-0.390625 C 1.492188,-0.566406 1.15625,-0.96875 0.90625,-1.5 0.664062,-2.03125 0.546875,-2.671875 0.546875,-3.421875 c 0,-0.738281 0.117187,-1.375 0.359375,-1.90625 C 1.15625,-5.867188 1.5,-6.28125 1.9375,-6.5625 2.375,-6.84375 2.878906,-6.984375 3.453125,-6.984375 c 0.570313,0 1.078125,0.140625 1.515625,0.421875 0.4375,0.273438 0.773438,0.671875 1.015625,1.203125 0.238281,0.53125 0.359375,1.179687 0.359375,1.9375 0,0.804687 -0.136719,1.445313 -0.40625,1.921875 -0.261719,0.46875 -0.648438,0.839844 -1.15625,1.109375 z M 1.5625,-3.421875 c 0,0.949219 0.164062,1.648437 0.5,2.09375 0.332031,0.449219 0.796875,0.671875 1.390625,0.671875 1.257813,0 1.890625,-0.921875 1.890625,-2.765625 0,-1.851563 -0.632812,-2.78125 -1.890625,-2.78125 -0.605469,0 -1.074219,0.226563 -1.40625,0.671875 C 1.722656,-5.082031 1.5625,-4.378906 1.5625,-3.421875 Z m 0,0"
             id="id-008b7713-402d-44b1-bd4c-999295b95315" />
        </g>
        <g
           transform="translate(155.596,134.765)"
           id="g131309">
          <path
             d="m 3.40625,-6.984375 c 0.40625,0 0.75,0.054687 1.03125,0.15625 0.28125,0.105469 0.566406,0.277344 0.859375,0.515625 L 4.78125,-5.703125 c -0.417969,-0.332031 -0.859375,-0.5 -1.328125,-0.5 -0.5625,0 -1.023437,0.21875 -1.375,0.65625 -0.34375,0.4375 -0.515625,1.140625 -0.515625,2.109375 0,0.9375 0.171875,1.636719 0.515625,2.09375 0.34375,0.449219 0.800781,0.671875 1.375,0.671875 0.289063,0 0.546875,-0.050781 0.765625,-0.15625 C 4.4375,-0.929688 4.671875,-1.070312 4.921875,-1.25 l 0.46875,0.609375 C 5.171875,-0.421875 4.894531,-0.238281 4.5625,-0.09375 4.226562,0.0507812 3.847656,0.125 3.421875,0.125 c -0.5625,0 -1.0625,-0.1328125 -1.5,-0.40625 C 1.492188,-0.5625 1.15625,-0.96875 0.90625,-1.5 0.664062,-2.039062 0.546875,-2.6875 0.546875,-3.4375 c 0,-0.75 0.125,-1.390625 0.375,-1.921875 0.257813,-0.539063 0.601563,-0.945313 1.03125,-1.21875 0.4375,-0.269531 0.921875,-0.40625 1.453125,-0.40625 z m 0,0"
             id="id-6659eb69-ae1d-436d-b34c-8bba489d6805" />
        </g>
        <g
           transform="translate(161.175,134.765)"
           id="g131312">
          <path
             d="m 2.796875,-6.875 c 0.851563,0 1.507813,0.183594 1.96875,0.546875 0.46875,0.355469 0.703125,0.882813 0.703125,1.578125 0,0.75 -0.246094,1.3125 -0.734375,1.6875 C 4.253906,-2.695312 3.613281,-2.515625 2.8125,-2.515625 H 1.9375 V 0 H 1 v -6.875 z m -0.03125,3.609375 c 0.550781,0 0.972656,-0.101563 1.265625,-0.3125 0.289062,-0.21875 0.4375,-0.601563 0.4375,-1.15625 0,-0.488281 -0.148438,-0.84375 -0.4375,-1.0625 C 3.738281,-6.015625 3.328125,-6.125 2.796875,-6.125 H 1.9375 v 2.859375 z m 0,0"
             id="id-a21c80fc-e755-4aaf-aed5-d15a8b120fbf" />
        </g>
      </g>
    </g>
    <g
       transform="matrix(0.529167,0,0,0.529167,97.393259,128.91488)"
       ns16:version="1.8.1"
       ns16:texconverter="xelatex"
       ns16:pdfconverter="inkscape"
       ns16:text="local moment"
       ns16:preamble="/home/kirito/.config/textext/beamer_preamble.tex"
       ns16:scale="1.5"
       ns16:alignment="middle center"
       ns16:stroke-to-path="0"
       ns16:jacobian_sqrt="0.529167"
       id="g131663">
      <defs
         id="id-b8104c80-d404-497e-90a7-fddd665a65b6">
        <g
           id="id-2900b654-cab9-4e4f-8ccd-d0a768a66dd5">
          <g
             id="id-89465cfd-c319-4cbc-b4d8-110b09fac038">
            <path
               d="M 5.40625,-10.46875 V 3.484375 H 1.21875 V -10.46875 Z M 4.875,-9.953125 H 1.78125 V 2.96875 H 4.875 Z M 3.234375,-4.5 c 0.394531,0 0.675781,0.109375 0.84375,0.328125 0.175781,0.210937 0.265625,0.484375 0.265625,0.828125 0,0.34375 -0.078125,0.617188 -0.234375,0.8125 -0.148437,0.1875 -0.386719,0.308594 -0.71875,0.359375 v 0.453125 c 0,0.074219 -0.027344,0.132812 -0.078125,0.171875 -0.054688,0.042969 -0.109375,0.0625 -0.171875,0.0625 -0.0625,0 -0.121094,-0.019531 -0.171875,-0.0625 C 2.914062,-1.585938 2.890625,-1.644531 2.890625,-1.71875 V -2.5625 c 0.351563,-0.019531 0.59375,-0.082031 0.71875,-0.1875 0.125,-0.113281 0.1875,-0.304688 0.1875,-0.578125 0,-0.21875 -0.046875,-0.382813 -0.140625,-0.5 -0.085938,-0.125 -0.242188,-0.1875 -0.46875,-0.1875 -0.1875,0 -0.359375,0.039063 -0.515625,0.109375 -0.054687,0.023438 -0.09375,0.03125 -0.125,0.03125 -0.074219,0 -0.136719,-0.019531 -0.1875,-0.0625 -0.042969,-0.039062 -0.0625,-0.097656 -0.0625,-0.171875 0,-0.125 0.097656,-0.21875 0.296875,-0.28125 C 2.789062,-4.460938 3.003906,-4.5 3.234375,-4.5 Z m -0.09375,3.296875 c 0.101563,0 0.1875,0.039063 0.25,0.109375 0.0625,0.0625 0.09375,0.148438 0.09375,0.25 0,0.105469 -0.03125,0.195312 -0.09375,0.265625 -0.0625,0.0625 -0.148437,0.09375 -0.25,0.09375 -0.105469,0 -0.1875,-0.03125 -0.25,-0.09375 -0.0625,-0.070313 -0.09375,-0.160156 -0.09375,-0.265625 0,-0.101562 0.03125,-0.1875 0.09375,-0.25 0.0625,-0.070312 0.144531,-0.109375 0.25,-0.109375 z m 0,0"
               id="id-08090dc6-5a7e-4aa9-b81b-82c7cfe6c9cf" />
          </g>
          <g
             id="id-b9008352-a160-4e74-b281-a0671b5eebd6">
            <path
               d="M 2,0.125 C 1.65625,0.125 1.382812,0.0234375 1.1875,-0.171875 0.988281,-0.378906 0.890625,-0.664062 0.890625,-1.03125 v -6.328125 l 0.921875,-0.125 V -1.0625 c 0,0.148438 0.023438,0.257812 0.078125,0.328125 0.050781,0.0625 0.132813,0.09375 0.25,0.09375 0.125,0 0.238281,-0.019531 0.34375,-0.0625 L 2.71875,-0.0625 C 2.5,0.0625 2.257812,0.125 2,0.125 Z m 0,0"
               id="id-37a970ac-fb4b-4051-a99b-7bc3808185f9" />
          </g>
          <g
             id="id-6ac43bc8-a4e9-4a78-9956-8559f4c0c148">
            <path
               d="m 2.921875,-5.375 c 0.738281,0 1.3125,0.25 1.71875,0.75 0.40625,0.492188 0.609375,1.15625 0.609375,2 0,0.542969 -0.09375,1.023438 -0.28125,1.4375 -0.1875,0.417969 -0.460938,0.742188 -0.8125,0.96875 C 3.8125,0.0078125 3.394531,0.125 2.90625,0.125 2.164062,0.125 1.585938,-0.117188 1.171875,-0.609375 0.765625,-1.109375 0.5625,-1.78125 0.5625,-2.625 c 0,-0.539062 0.09375,-1.019531 0.28125,-1.4375 0.1875,-0.414062 0.457031,-0.738281 0.8125,-0.96875 C 2.007812,-5.257812 2.429688,-5.375 2.921875,-5.375 Z m 0,0.734375 c -0.90625,0 -1.359375,0.671875 -1.359375,2.015625 0,1.335938 0.445312,2 1.34375,2 0.90625,0 1.359375,-0.664062 1.359375,-2 0,-1.34375 -0.449219,-2.015625 -1.34375,-2.015625 z m 0,0"
               id="id-782df64d-809a-453d-96f0-fb687da895fb" />
          </g>
          <g
             id="id-a2b7b4f5-5cb7-4ca2-9ac6-0c5740b3eade">
            <path
               d="m 2.859375,-5.375 c 0.3125,0 0.597656,0.046875 0.859375,0.140625 0.257812,0.085937 0.507812,0.226563 0.75,0.421875 l -0.4375,0.578125 c -0.1875,-0.125 -0.371094,-0.21875 -0.546875,-0.28125 -0.179687,-0.0625 -0.371094,-0.09375 -0.578125,-0.09375 -0.429688,0 -0.761719,0.171875 -1,0.515625 -0.230469,0.335938 -0.34375,0.828125 -0.34375,1.484375 0,0.667969 0.113281,1.164063 0.34375,1.484375 0.226562,0.3125 0.5625,0.46875 1,0.46875 0.195312,0 0.382812,-0.03125 0.5625,-0.09375 0.175781,-0.0625 0.367188,-0.164062 0.578125,-0.3125 L 4.46875,-0.453125 C 3.988281,-0.0664062 3.453125,0.125 2.859375,0.125 2.148438,0.125 1.585938,-0.113281 1.171875,-0.59375 0.765625,-1.070312 0.5625,-1.734375 0.5625,-2.578125 c 0,-0.5625 0.09375,-1.050781 0.28125,-1.46875 0.1875,-0.414063 0.453125,-0.738281 0.796875,-0.96875 0.34375,-0.238281 0.75,-0.359375 1.21875,-0.359375 z m 0,0"
               id="id-1911f4f8-93e6-426f-974e-f39d253ac929" />
          </g>
          <g
             id="id-5169c3d8-90ce-4f6f-9ffe-9e1d54e340b2">
            <path
               d="m 4.484375,-1.21875 c 0,0.210938 0.035156,0.367188 0.109375,0.46875 0.070312,0.105469 0.179688,0.183594 0.328125,0.234375 L 4.71875,0.125 C 4.445312,0.0820312 4.226562,0.00390625 4.0625,-0.109375 c -0.167969,-0.125 -0.292969,-0.3125 -0.375,-0.5625 C 3.332031,-0.140625 2.8125,0.125 2.125,0.125 c -0.523438,0 -0.933594,-0.1445312 -1.234375,-0.4375 -0.292969,-0.289062 -0.4375,-0.675781 -0.4375,-1.15625 0,-0.550781 0.195313,-0.976562 0.59375,-1.28125 0.40625,-0.300781 0.976563,-0.453125 1.71875,-0.453125 H 3.5625 V -3.59375 c 0,-0.363281 -0.089844,-0.625 -0.265625,-0.78125 -0.179687,-0.164062 -0.453125,-0.25 -0.828125,-0.25 -0.386719,0 -0.855469,0.09375 -1.40625,0.28125 L 0.828125,-5.015625 c 0.644531,-0.238281 1.25,-0.359375 1.8125,-0.359375 0.613281,0 1.070313,0.152344 1.375,0.453125 0.3125,0.304687 0.46875,0.734375 0.46875,1.296875 z m -2.15625,0.65625 c 0.53125,0 0.941406,-0.273438 1.234375,-0.828125 V -2.59375 H 2.875 c -0.96875,0 -1.453125,0.359375 -1.453125,1.078125 0,0.3125 0.078125,0.554687 0.234375,0.71875 0.15625,0.15625 0.378906,0.234375 0.671875,0.234375 z m 0,0"
               id="id-ec4160a8-89f7-4c07-9545-99a7c155e557" />
          </g>
          <g
             id="id-c7ac2cb5-02c0-408a-933e-2c41982201c5">
            <path
               d="m 6.21875,-5.375 c 0.4375,0 0.78125,0.148438 1.03125,0.4375 0.257812,0.292969 0.390625,0.683594 0.390625,1.171875 V 0 h -0.90625 v -3.640625 c 0,-0.675781 -0.25,-1.015625 -0.75,-1.015625 -0.25,0 -0.46875,0.078125 -0.65625,0.234375 -0.179687,0.148437 -0.371094,0.375 -0.578125,0.6875 V 0 H 3.84375 v -3.640625 c 0,-0.675781 -0.25,-1.015625 -0.75,-1.015625 -0.261719,0 -0.484375,0.078125 -0.671875,0.234375 -0.179687,0.148437 -0.367187,0.375 -0.5625,0.6875 V 0 h -0.90625 v -5.25 h 0.78125 L 1.8125,-4.484375 C 2.207031,-5.078125 2.710938,-5.375 3.328125,-5.375 c 0.320313,0 0.597656,0.085938 0.828125,0.25 0.226562,0.167969 0.394531,0.402344 0.5,0.703125 0.207031,-0.3125 0.4375,-0.546875 0.6875,-0.703125 0.25,-0.164062 0.539062,-0.25 0.875,-0.25 z m 0,0"
               id="id-64cfa5be-d1d6-4ce5-a8da-e8ed7d8f1d7c" />
          </g>
          <g
             id="id-f3ab2f85-f6f7-42a8-bcb9-b7ec81e6272c">
            <path
               d="m 4.921875,-2.78125 c 0,0.15625 -0.011719,0.3125 -0.03125,0.46875 h -3.34375 c 0.039063,0.574219 0.1875,1 0.4375,1.28125 0.25,0.273438 0.570313,0.40625 0.96875,0.40625 0.257813,0 0.492187,-0.035156 0.703125,-0.109375 C 3.875,-0.804688 4.097656,-0.925781 4.328125,-1.09375 l 0.390625,0.5625 C 4.164062,-0.09375 3.554688,0.125 2.890625,0.125 2.160156,0.125 1.585938,-0.113281 1.171875,-0.59375 0.765625,-1.070312 0.5625,-1.734375 0.5625,-2.578125 c 0,-0.539063 0.085938,-1.019531 0.265625,-1.4375 0.175781,-0.425781 0.425781,-0.757813 0.75,-1 C 1.910156,-5.253906 2.300781,-5.375 2.75,-5.375 c 0.695312,0 1.234375,0.230469 1.609375,0.6875 0.375,0.460938 0.5625,1.09375 0.5625,1.90625 z M 4,-3.046875 c 0,-0.519531 -0.105469,-0.914063 -0.3125,-1.1875 -0.199219,-0.269531 -0.507812,-0.40625 -0.921875,-0.40625 -0.75,0 -1.15625,0.554687 -1.21875,1.65625 H 4 Z m 0,0"
               id="id-771dadce-d6d3-4538-8863-89f78e6c4a5c" />
          </g>
          <g
             id="id-bebf60e6-6a73-4753-9f1f-6338207ca644">
            <path
               d="m 3.421875,-5.375 c 0.476563,0 0.847656,0.148438 1.109375,0.4375 0.269531,0.28125 0.40625,0.671875 0.40625,1.171875 V 0 H 4.03125 v -3.640625 c 0,-0.375 -0.074219,-0.632813 -0.21875,-0.78125 -0.136719,-0.15625 -0.339844,-0.234375 -0.609375,-0.234375 -0.28125,0 -0.53125,0.085938 -0.75,0.25 -0.210937,0.15625 -0.40625,0.382812 -0.59375,0.671875 V 0 h -0.90625 v -5.25 h 0.78125 L 1.8125,-4.46875 C 2,-4.75 2.226562,-4.96875 2.5,-5.125 c 0.28125,-0.164062 0.585938,-0.25 0.921875,-0.25 z m 0,0"
               id="id-61a4ca4b-9d8e-4070-a8d4-bd340b038333" />
          </g>
          <g
             id="id-bfab61e0-fd53-43af-b483-513dd61c9d1a">
            <path
               d="M 3.59375,-0.234375 C 3.25,0.00390625 2.859375,0.125 2.421875,0.125 1.972656,0.125 1.625,0 1.375,-0.25 1.125,-0.507812 1,-0.882812 1,-1.375 V -4.546875 H 0.09375 V -5.25 H 1 V -6.4375 L 1.921875,-6.546875 V -5.25 h 1.25 l -0.09375,0.703125 h -1.15625 v 3.125 c 0,0.28125 0.046875,0.484375 0.140625,0.609375 0.101562,0.117188 0.265625,0.171875 0.484375,0.171875 0.207031,0 0.441406,-0.066406 0.703125,-0.203125 z m 0,0"
               id="id-f720f01d-2c50-4938-84c9-30abb0294718" />
          </g>
        </g>
      </defs>
      <g
         fill="#000000"
         fill-opacity="1"
         id="id-7e3f1464-a2b0-41d5-ab7b-ac9bdda49f34"
         transform="translate(-149.603,-127.281)">
        <g
           transform="translate(148.712,134.765)"
           id="g131626">
          <path
             d="M 2,0.125 C 1.65625,0.125 1.382812,0.0234375 1.1875,-0.171875 0.988281,-0.378906 0.890625,-0.664062 0.890625,-1.03125 v -6.328125 l 0.921875,-0.125 V -1.0625 c 0,0.148438 0.023438,0.257812 0.078125,0.328125 0.050781,0.0625 0.132813,0.09375 0.25,0.09375 0.125,0 0.238281,-0.019531 0.34375,-0.0625 L 2.71875,-0.0625 C 2.5,0.0625 2.257812,0.125 2,0.125 Z m 0,0"
             id="id-af25c390-9392-465c-bca6-00c8f59a2071" />
        </g>
      </g>
      <g
         fill="#000000"
         fill-opacity="1"
         id="id-baee1dfb-e109-4217-884c-92c4f749085b"
         transform="translate(-149.603,-127.281)">
        <g
           transform="translate(151.591,134.765)"
           id="g131630">
          <path
             d="m 2.921875,-5.375 c 0.738281,0 1.3125,0.25 1.71875,0.75 0.40625,0.492188 0.609375,1.15625 0.609375,2 0,0.542969 -0.09375,1.023438 -0.28125,1.4375 -0.1875,0.417969 -0.460938,0.742188 -0.8125,0.96875 C 3.8125,0.0078125 3.394531,0.125 2.90625,0.125 2.164062,0.125 1.585938,-0.117188 1.171875,-0.609375 0.765625,-1.109375 0.5625,-1.78125 0.5625,-2.625 c 0,-0.539062 0.09375,-1.019531 0.28125,-1.4375 0.1875,-0.414062 0.457031,-0.738281 0.8125,-0.96875 C 2.007812,-5.257812 2.429688,-5.375 2.921875,-5.375 Z m 0,0.734375 c -0.90625,0 -1.359375,0.671875 -1.359375,2.015625 0,1.335938 0.445312,2 1.34375,2 0.90625,0 1.359375,-0.664062 1.359375,-2 0,-1.34375 -0.449219,-2.015625 -1.34375,-2.015625 z m 0,0"
             id="id-ba7525bf-18f9-4ef5-b303-74b6d7c91e12" />
        </g>
        <g
           transform="translate(157.409,134.765)"
           id="g131633">
          <path
             d="m 2.859375,-5.375 c 0.3125,0 0.597656,0.046875 0.859375,0.140625 0.257812,0.085937 0.507812,0.226563 0.75,0.421875 l -0.4375,0.578125 c -0.1875,-0.125 -0.371094,-0.21875 -0.546875,-0.28125 -0.179687,-0.0625 -0.371094,-0.09375 -0.578125,-0.09375 -0.429688,0 -0.761719,0.171875 -1,0.515625 -0.230469,0.335938 -0.34375,0.828125 -0.34375,1.484375 0,0.667969 0.113281,1.164063 0.34375,1.484375 0.226562,0.3125 0.5625,0.46875 1,0.46875 0.195312,0 0.382812,-0.03125 0.5625,-0.09375 0.175781,-0.0625 0.367188,-0.164062 0.578125,-0.3125 L 4.46875,-0.453125 C 3.988281,-0.0664062 3.453125,0.125 2.859375,0.125 2.148438,0.125 1.585938,-0.113281 1.171875,-0.59375 0.765625,-1.070312 0.5625,-1.734375 0.5625,-2.578125 c 0,-0.5625 0.09375,-1.050781 0.28125,-1.46875 0.1875,-0.414063 0.453125,-0.738281 0.796875,-0.96875 0.34375,-0.238281 0.75,-0.359375 1.21875,-0.359375 z m 0,0"
             id="id-18c60f82-5454-481a-8548-16c7613be82d" />
        </g>
      </g>
      <g
         fill="#000000"
         fill-opacity="1"
         id="id-ecb5038d-2143-4a42-a536-6b5f8d6ef993"
         transform="translate(-149.603,-127.281)">
        <g
           transform="translate(162.072,134.765)"
           id="g131637">
          <path
             d="m 4.484375,-1.21875 c 0,0.210938 0.035156,0.367188 0.109375,0.46875 0.070312,0.105469 0.179688,0.183594 0.328125,0.234375 L 4.71875,0.125 C 4.445312,0.0820312 4.226562,0.00390625 4.0625,-0.109375 c -0.167969,-0.125 -0.292969,-0.3125 -0.375,-0.5625 C 3.332031,-0.140625 2.8125,0.125 2.125,0.125 c -0.523438,0 -0.933594,-0.1445312 -1.234375,-0.4375 -0.292969,-0.289062 -0.4375,-0.675781 -0.4375,-1.15625 0,-0.550781 0.195313,-0.976562 0.59375,-1.28125 0.40625,-0.300781 0.976563,-0.453125 1.71875,-0.453125 H 3.5625 V -3.59375 c 0,-0.363281 -0.089844,-0.625 -0.265625,-0.78125 -0.179687,-0.164062 -0.453125,-0.25 -0.828125,-0.25 -0.386719,0 -0.855469,0.09375 -1.40625,0.28125 L 0.828125,-5.015625 c 0.644531,-0.238281 1.25,-0.359375 1.8125,-0.359375 0.613281,0 1.070313,0.152344 1.375,0.453125 0.3125,0.304687 0.46875,0.734375 0.46875,1.296875 z m -2.15625,0.65625 c 0.53125,0 0.941406,-0.273438 1.234375,-0.828125 V -2.59375 H 2.875 c -0.96875,0 -1.453125,0.359375 -1.453125,1.078125 0,0.3125 0.078125,0.554687 0.234375,0.71875 0.15625,0.15625 0.378906,0.234375 0.671875,0.234375 z m 0,0"
             id="id-69d03ad9-4853-4bf8-b292-8a988d0f24cc" />
        </g>
      </g>
      <g
         fill="#000000"
         fill-opacity="1"
         id="id-a3c43817-5c28-4601-98fb-fa47605c6435"
         transform="translate(-149.603,-127.281)">
        <g
           transform="translate(167.392,134.765)"
           id="g131641">
          <path
             d="M 2,0.125 C 1.65625,0.125 1.382812,0.0234375 1.1875,-0.171875 0.988281,-0.378906 0.890625,-0.664062 0.890625,-1.03125 v -6.328125 l 0.921875,-0.125 V -1.0625 c 0,0.148438 0.023438,0.257812 0.078125,0.328125 0.050781,0.0625 0.132813,0.09375 0.25,0.09375 0.125,0 0.238281,-0.019531 0.34375,-0.0625 L 2.71875,-0.0625 C 2.5,0.0625 2.257812,0.125 2,0.125 Z m 0,0"
             id="id-44222903-54e2-4afe-9f1b-9702730c4fb1" />
        </g>
      </g>
      <g
         fill="#000000"
         fill-opacity="1"
         id="id-11d5ed96-6585-490d-adb3-3582e68be489"
         transform="translate(-149.603,-127.281)">
        <g
           transform="translate(172.941,134.765)"
           id="g131645">
          <path
             d="m 6.21875,-5.375 c 0.4375,0 0.78125,0.148438 1.03125,0.4375 0.257812,0.292969 0.390625,0.683594 0.390625,1.171875 V 0 h -0.90625 v -3.640625 c 0,-0.675781 -0.25,-1.015625 -0.75,-1.015625 -0.25,0 -0.46875,0.078125 -0.65625,0.234375 -0.179687,0.148437 -0.371094,0.375 -0.578125,0.6875 V 0 H 3.84375 v -3.640625 c 0,-0.675781 -0.25,-1.015625 -0.75,-1.015625 -0.261719,0 -0.484375,0.078125 -0.671875,0.234375 -0.179687,0.148437 -0.367187,0.375 -0.5625,0.6875 V 0 h -0.90625 v -5.25 h 0.78125 L 1.8125,-4.484375 C 2.207031,-5.078125 2.710938,-5.375 3.328125,-5.375 c 0.320313,0 0.597656,0.085938 0.828125,0.25 0.226562,0.167969 0.394531,0.402344 0.5,0.703125 0.207031,-0.3125 0.4375,-0.546875 0.6875,-0.703125 0.25,-0.164062 0.539062,-0.25 0.875,-0.25 z m 0,0"
             id="id-bb50ef56-95d6-4f3d-aa70-88121cce7248" />
        </g>
        <g
           transform="translate(181.479,134.765)"
           id="g131648">
          <path
             d="m 2.921875,-5.375 c 0.738281,0 1.3125,0.25 1.71875,0.75 0.40625,0.492188 0.609375,1.15625 0.609375,2 0,0.542969 -0.09375,1.023438 -0.28125,1.4375 -0.1875,0.417969 -0.460938,0.742188 -0.8125,0.96875 C 3.8125,0.0078125 3.394531,0.125 2.90625,0.125 2.164062,0.125 1.585938,-0.117188 1.171875,-0.609375 0.765625,-1.109375 0.5625,-1.78125 0.5625,-2.625 c 0,-0.539062 0.09375,-1.019531 0.28125,-1.4375 0.1875,-0.414062 0.457031,-0.738281 0.8125,-0.96875 C 2.007812,-5.257812 2.429688,-5.375 2.921875,-5.375 Z m 0,0.734375 c -0.90625,0 -1.359375,0.671875 -1.359375,2.015625 0,1.335938 0.445312,2 1.34375,2 0.90625,0 1.359375,-0.664062 1.359375,-2 0,-1.34375 -0.449219,-2.015625 -1.34375,-2.015625 z m 0,0"
             id="id-d72d6cac-efc1-4c2e-abb7-3b4f959c326a" />
        </g>
        <g
           transform="translate(187.297,134.765)"
           id="g131651">
          <path
             d="m 6.21875,-5.375 c 0.4375,0 0.78125,0.148438 1.03125,0.4375 0.257812,0.292969 0.390625,0.683594 0.390625,1.171875 V 0 h -0.90625 v -3.640625 c 0,-0.675781 -0.25,-1.015625 -0.75,-1.015625 -0.25,0 -0.46875,0.078125 -0.65625,0.234375 -0.179687,0.148437 -0.371094,0.375 -0.578125,0.6875 V 0 H 3.84375 v -3.640625 c 0,-0.675781 -0.25,-1.015625 -0.75,-1.015625 -0.261719,0 -0.484375,0.078125 -0.671875,0.234375 -0.179687,0.148437 -0.367187,0.375 -0.5625,0.6875 V 0 h -0.90625 v -5.25 h 0.78125 L 1.8125,-4.484375 C 2.207031,-5.078125 2.710938,-5.375 3.328125,-5.375 c 0.320313,0 0.597656,0.085938 0.828125,0.25 0.226562,0.167969 0.394531,0.402344 0.5,0.703125 0.207031,-0.3125 0.4375,-0.546875 0.6875,-0.703125 0.25,-0.164062 0.539062,-0.25 0.875,-0.25 z m 0,0"
             id="id-a102db44-be7b-4827-91a4-3a418e34760a" />
        </g>
        <g
           transform="translate(195.835,134.765)"
           id="g131654">
          <path
             d="m 4.921875,-2.78125 c 0,0.15625 -0.011719,0.3125 -0.03125,0.46875 h -3.34375 c 0.039063,0.574219 0.1875,1 0.4375,1.28125 0.25,0.273438 0.570313,0.40625 0.96875,0.40625 0.257813,0 0.492187,-0.035156 0.703125,-0.109375 C 3.875,-0.804688 4.097656,-0.925781 4.328125,-1.09375 l 0.390625,0.5625 C 4.164062,-0.09375 3.554688,0.125 2.890625,0.125 2.160156,0.125 1.585938,-0.113281 1.171875,-0.59375 0.765625,-1.070312 0.5625,-1.734375 0.5625,-2.578125 c 0,-0.539063 0.085938,-1.019531 0.265625,-1.4375 0.175781,-0.425781 0.425781,-0.757813 0.75,-1 C 1.910156,-5.253906 2.300781,-5.375 2.75,-5.375 c 0.695312,0 1.234375,0.230469 1.609375,0.6875 0.375,0.460938 0.5625,1.09375 0.5625,1.90625 z M 4,-3.046875 c 0,-0.519531 -0.105469,-0.914063 -0.3125,-1.1875 -0.199219,-0.269531 -0.507812,-0.40625 -0.921875,-0.40625 -0.75,0 -1.15625,0.554687 -1.21875,1.65625 H 4 Z m 0,0"
             id="id-35ec2033-487d-4a94-820d-7876485f7d1c" />
        </g>
        <g
           transform="translate(201.265,134.765)"
           id="g131657">
          <path
             d="m 3.421875,-5.375 c 0.476563,0 0.847656,0.148438 1.109375,0.4375 0.269531,0.28125 0.40625,0.671875 0.40625,1.171875 V 0 H 4.03125 v -3.640625 c 0,-0.375 -0.074219,-0.632813 -0.21875,-0.78125 -0.136719,-0.15625 -0.339844,-0.234375 -0.609375,-0.234375 -0.28125,0 -0.53125,0.085938 -0.75,0.25 -0.210937,0.15625 -0.40625,0.382812 -0.59375,0.671875 V 0 h -0.90625 v -5.25 h 0.78125 L 1.8125,-4.46875 C 2,-4.75 2.226562,-4.96875 2.5,-5.125 c 0.28125,-0.164062 0.585938,-0.25 0.921875,-0.25 z m 0,0"
             id="id-7e22840a-8023-40c1-b4aa-6e717bfed26d" />
        </g>
        <g
           transform="translate(207.103,134.765)"
           id="g131660">
          <path
             d="M 3.59375,-0.234375 C 3.25,0.00390625 2.859375,0.125 2.421875,0.125 1.972656,0.125 1.625,0 1.375,-0.25 1.125,-0.507812 1,-0.882812 1,-1.375 V -4.546875 H 0.09375 V -5.25 H 1 V -6.4375 L 1.921875,-6.546875 V -5.25 h 1.25 l -0.09375,0.703125 h -1.15625 v 3.125 c 0,0.28125 0.046875,0.484375 0.140625,0.609375 0.101562,0.117188 0.265625,0.171875 0.484375,0.171875 0.207031,0 0.441406,-0.066406 0.703125,-0.203125 z m 0,0"
             id="id-d6718b1c-7af8-4ea3-92e0-cfdd3d6a3f78" />
        </g>
      </g>
    </g>
    <g
       transform="matrix(0.529166,0,0,0.529166,45.768432,116.80051)"
       ns16:version="1.8.1"
       ns16:texconverter="xelatex"
       ns16:pdfconverter="inkscape"
       ns16:text="temp."
       ns16:preamble="/home/kirito/.config/textext/beamer_preamble.tex"
       ns16:scale="1.5"
       ns16:alignment="middle center"
       ns16:stroke-to-path="0"
       ns16:jacobian_sqrt="0.529166"
       id="g129841">
      <defs
         id="id-3c30f9a5-e6d2-4c13-a537-500907133092">
        <g
           id="id-db32ce9f-74bd-4f97-8c49-324a2a0b5249">
          <g
             id="id-15256063-bc90-4718-8aa9-eb00fe58f632">
            <path
               d="M 5.40625,-10.46875 V 3.484375 H 1.21875 V -10.46875 Z M 4.875,-9.953125 H 1.78125 V 2.96875 H 4.875 Z M 3.234375,-4.5 c 0.394531,0 0.675781,0.109375 0.84375,0.328125 0.175781,0.210937 0.265625,0.484375 0.265625,0.828125 0,0.34375 -0.078125,0.617188 -0.234375,0.8125 -0.148437,0.1875 -0.386719,0.308594 -0.71875,0.359375 v 0.453125 c 0,0.074219 -0.027344,0.132812 -0.078125,0.171875 -0.054688,0.042969 -0.109375,0.0625 -0.171875,0.0625 -0.0625,0 -0.121094,-0.019531 -0.171875,-0.0625 C 2.914062,-1.585938 2.890625,-1.644531 2.890625,-1.71875 V -2.5625 c 0.351563,-0.019531 0.59375,-0.082031 0.71875,-0.1875 0.125,-0.113281 0.1875,-0.304688 0.1875,-0.578125 0,-0.21875 -0.046875,-0.382813 -0.140625,-0.5 -0.085938,-0.125 -0.242188,-0.1875 -0.46875,-0.1875 -0.1875,0 -0.359375,0.039063 -0.515625,0.109375 -0.054687,0.023438 -0.09375,0.03125 -0.125,0.03125 -0.074219,0 -0.136719,-0.019531 -0.1875,-0.0625 -0.042969,-0.039062 -0.0625,-0.097656 -0.0625,-0.171875 0,-0.125 0.097656,-0.21875 0.296875,-0.28125 C 2.789062,-4.460938 3.003906,-4.5 3.234375,-4.5 Z m -0.09375,3.296875 c 0.101563,0 0.1875,0.039063 0.25,0.109375 0.0625,0.0625 0.09375,0.148438 0.09375,0.25 0,0.105469 -0.03125,0.195312 -0.09375,0.265625 -0.0625,0.0625 -0.148437,0.09375 -0.25,0.09375 -0.105469,0 -0.1875,-0.03125 -0.25,-0.09375 -0.0625,-0.070313 -0.09375,-0.160156 -0.09375,-0.265625 0,-0.101562 0.03125,-0.1875 0.09375,-0.25 0.0625,-0.070312 0.144531,-0.109375 0.25,-0.109375 z m 0,0"
               id="id-3ca5cdd7-a4fc-4853-989d-7f49226ac889" />
          </g>
          <g
             id="id-e597c69a-1b87-456d-a532-2f7562b4c6a8">
            <path
               d="M 3.59375,-0.234375 C 3.25,0.00390625 2.859375,0.125 2.421875,0.125 1.972656,0.125 1.625,0 1.375,-0.25 1.125,-0.507812 1,-0.882812 1,-1.375 V -4.546875 H 0.09375 V -5.25 H 1 V -6.4375 L 1.921875,-6.546875 V -5.25 h 1.25 l -0.09375,0.703125 h -1.15625 v 3.125 c 0,0.28125 0.046875,0.484375 0.140625,0.609375 0.101562,0.117188 0.265625,0.171875 0.484375,0.171875 0.207031,0 0.441406,-0.066406 0.703125,-0.203125 z m 0,0"
               id="id-0c8aee7c-e53d-499e-8c90-a88da0c2d397" />
          </g>
          <g
             id="id-a422cc30-d1ef-4261-9b1a-a27002f89b11">
            <path
               d="m 4.921875,-2.78125 c 0,0.15625 -0.011719,0.3125 -0.03125,0.46875 h -3.34375 c 0.039063,0.574219 0.1875,1 0.4375,1.28125 0.25,0.273438 0.570313,0.40625 0.96875,0.40625 0.257813,0 0.492187,-0.035156 0.703125,-0.109375 C 3.875,-0.804688 4.097656,-0.925781 4.328125,-1.09375 l 0.390625,0.5625 C 4.164062,-0.09375 3.554688,0.125 2.890625,0.125 2.160156,0.125 1.585938,-0.113281 1.171875,-0.59375 0.765625,-1.070312 0.5625,-1.734375 0.5625,-2.578125 c 0,-0.539063 0.085938,-1.019531 0.265625,-1.4375 0.175781,-0.425781 0.425781,-0.757813 0.75,-1 C 1.910156,-5.253906 2.300781,-5.375 2.75,-5.375 c 0.695312,0 1.234375,0.230469 1.609375,0.6875 0.375,0.460938 0.5625,1.09375 0.5625,1.90625 z M 4,-3.046875 c 0,-0.519531 -0.105469,-0.914063 -0.3125,-1.1875 -0.199219,-0.269531 -0.507812,-0.40625 -0.921875,-0.40625 -0.75,0 -1.15625,0.554687 -1.21875,1.65625 H 4 Z m 0,0"
               id="id-19d69a03-593e-4a53-8e18-75a6a4b04ebe" />
          </g>
          <g
             id="id-2008fd6f-96e8-4bd1-b252-0f9aa52bdc26">
            <path
               d="m 6.21875,-5.375 c 0.4375,0 0.78125,0.148438 1.03125,0.4375 0.257812,0.292969 0.390625,0.683594 0.390625,1.171875 V 0 h -0.90625 v -3.640625 c 0,-0.675781 -0.25,-1.015625 -0.75,-1.015625 -0.25,0 -0.46875,0.078125 -0.65625,0.234375 -0.179687,0.148437 -0.371094,0.375 -0.578125,0.6875 V 0 H 3.84375 v -3.640625 c 0,-0.675781 -0.25,-1.015625 -0.75,-1.015625 -0.261719,0 -0.484375,0.078125 -0.671875,0.234375 -0.179687,0.148437 -0.367187,0.375 -0.5625,0.6875 V 0 h -0.90625 v -5.25 h 0.78125 L 1.8125,-4.484375 C 2.207031,-5.078125 2.710938,-5.375 3.328125,-5.375 c 0.320313,0 0.597656,0.085938 0.828125,0.25 0.226562,0.167969 0.394531,0.402344 0.5,0.703125 0.207031,-0.3125 0.4375,-0.546875 0.6875,-0.703125 0.25,-0.164062 0.539062,-0.25 0.875,-0.25 z m 0,0"
               id="id-bf3f130b-4c93-4593-a110-1de9c14e3c79" />
          </g>
          <g
             id="id-c7daa412-0745-448e-ad61-d2bb72b4cd1a">
            <path
               d="m 3.359375,-5.375 c 0.664063,0 1.15625,0.242188 1.46875,0.71875 0.3125,0.480469 0.46875,1.15625 0.46875,2.03125 0,0.824219 -0.179687,1.492188 -0.53125,2 -0.355469,0.5 -0.867187,0.75 -1.53125,0.75 -0.585937,0 -1.042969,-0.203125 -1.375,-0.609375 v 2.5 L 0.953125,2.125 V -5.25 h 0.78125 l 0.0625,0.703125 C 1.992188,-4.804688 2.226562,-5.007812 2.5,-5.15625 2.769531,-5.300781 3.054688,-5.375 3.359375,-5.375 Z m -0.34375,4.75 c 0.863281,0 1.296875,-0.664062 1.296875,-2 0,-1.34375 -0.398438,-2.015625 -1.1875,-2.015625 -0.261719,0 -0.496094,0.078125 -0.703125,0.234375 -0.210937,0.148438 -0.398437,0.339844 -0.5625,0.578125 v 2.5625 c 0.132813,0.210937 0.300781,0.371094 0.5,0.484375 0.195313,0.105469 0.414063,0.15625 0.65625,0.15625 z m 0,0"
               id="id-83c05ab4-cbdc-474c-b096-a2df77fd2e69" />
          </g>
          <g
             id="id-f54777eb-7084-4181-9bd8-86d720fa97a9">
            <path
               d="m 1.1875,-1.265625 c 0.195312,0 0.363281,0.070313 0.5,0.203125 0.132812,0.125 0.203125,0.289062 0.203125,0.484375 0,0.1875 -0.070313,0.355469 -0.203125,0.5 C 1.550781,0.0546875 1.382812,0.125 1.1875,0.125 c -0.199219,0 -0.367188,-0.0703125 -0.5,-0.203125 -0.125,-0.144531 -0.1875,-0.3125 -0.1875,-0.5 0,-0.195313 0.0625,-0.359375 0.1875,-0.484375 0.132812,-0.132812 0.300781,-0.203125 0.5,-0.203125 z m 0,0"
               id="id-89323e1d-ff93-403d-9a76-8c81eedbd2d6" />
          </g>
        </g>
      </defs>
      <g
         fill="#000000"
         fill-opacity="1"
         id="id-86fdb944-0977-4b94-adf9-14e48d105c99"
         transform="translate(-148.806,-128.218)">
        <g
           transform="translate(148.712,134.765)"
           id="g133963">
          <path
             d="M 3.59375,-0.234375 C 3.25,0.00390625 2.859375,0.125 2.421875,0.125 1.972656,0.125 1.625,0 1.375,-0.25 1.125,-0.507812 1,-0.882812 1,-1.375 V -4.546875 H 0.09375 V -5.25 H 1 V -6.4375 L 1.921875,-6.546875 V -5.25 h 1.25 l -0.09375,0.703125 h -1.15625 v 3.125 c 0,0.28125 0.046875,0.484375 0.140625,0.609375 0.101562,0.117188 0.265625,0.171875 0.484375,0.171875 0.207031,0 0.441406,-0.066406 0.703125,-0.203125 z m 0,0"
             id="id-e1c783d5-7548-4cb8-b21d-34c241ff6d54" />
        </g>
      </g>
      <g
         fill="#000000"
         fill-opacity="1"
         id="id-bd13673b-ac6a-41ce-b556-969f2b461047"
         transform="translate(-148.806,-128.218)">
        <g
           transform="translate(152.169,134.765)"
           id="g133967">
          <path
             d="m 4.921875,-2.78125 c 0,0.15625 -0.011719,0.3125 -0.03125,0.46875 h -3.34375 c 0.039063,0.574219 0.1875,1 0.4375,1.28125 0.25,0.273438 0.570313,0.40625 0.96875,0.40625 0.257813,0 0.492187,-0.035156 0.703125,-0.109375 C 3.875,-0.804688 4.097656,-0.925781 4.328125,-1.09375 l 0.390625,0.5625 C 4.164062,-0.09375 3.554688,0.125 2.890625,0.125 2.160156,0.125 1.585938,-0.113281 1.171875,-0.59375 0.765625,-1.070312 0.5625,-1.734375 0.5625,-2.578125 c 0,-0.539063 0.085938,-1.019531 0.265625,-1.4375 0.175781,-0.425781 0.425781,-0.757813 0.75,-1 C 1.910156,-5.253906 2.300781,-5.375 2.75,-5.375 c 0.695312,0 1.234375,0.230469 1.609375,0.6875 0.375,0.460938 0.5625,1.09375 0.5625,1.90625 z M 4,-3.046875 c 0,-0.519531 -0.105469,-0.914063 -0.3125,-1.1875 -0.199219,-0.269531 -0.507812,-0.40625 -0.921875,-0.40625 -0.75,0 -1.15625,0.554687 -1.21875,1.65625 H 4 Z m 0,0"
             id="id-92aa4832-58f6-48e3-9099-821932265a44" />
        </g>
        <g
           transform="translate(157.599,134.765)"
           id="g133970">
          <path
             d="m 6.21875,-5.375 c 0.4375,0 0.78125,0.148438 1.03125,0.4375 0.257812,0.292969 0.390625,0.683594 0.390625,1.171875 V 0 h -0.90625 v -3.640625 c 0,-0.675781 -0.25,-1.015625 -0.75,-1.015625 -0.25,0 -0.46875,0.078125 -0.65625,0.234375 -0.179687,0.148437 -0.371094,0.375 -0.578125,0.6875 V 0 H 3.84375 v -3.640625 c 0,-0.675781 -0.25,-1.015625 -0.75,-1.015625 -0.261719,0 -0.484375,0.078125 -0.671875,0.234375 -0.179687,0.148437 -0.367187,0.375 -0.5625,0.6875 V 0 h -0.90625 v -5.25 h 0.78125 L 1.8125,-4.484375 C 2.207031,-5.078125 2.710938,-5.375 3.328125,-5.375 c 0.320313,0 0.597656,0.085938 0.828125,0.25 0.226562,0.167969 0.394531,0.402344 0.5,0.703125 0.207031,-0.3125 0.4375,-0.546875 0.6875,-0.703125 0.25,-0.164062 0.539062,-0.25 0.875,-0.25 z m 0,0"
             id="id-86f37835-bff7-4dc0-8bae-18ed0e5b8194" />
        </g>
        <g
           transform="translate(166.137,134.765)"
           id="g133973">
          <path
             d="m 3.359375,-5.375 c 0.664063,0 1.15625,0.242188 1.46875,0.71875 0.3125,0.480469 0.46875,1.15625 0.46875,2.03125 0,0.824219 -0.179687,1.492188 -0.53125,2 -0.355469,0.5 -0.867187,0.75 -1.53125,0.75 -0.585937,0 -1.042969,-0.203125 -1.375,-0.609375 v 2.5 L 0.953125,2.125 V -5.25 h 0.78125 l 0.0625,0.703125 C 1.992188,-4.804688 2.226562,-5.007812 2.5,-5.15625 2.769531,-5.300781 3.054688,-5.375 3.359375,-5.375 Z m -0.34375,4.75 c 0.863281,0 1.296875,-0.664062 1.296875,-2 0,-1.34375 -0.398438,-2.015625 -1.1875,-2.015625 -0.261719,0 -0.496094,0.078125 -0.703125,0.234375 -0.210937,0.148438 -0.398437,0.339844 -0.5625,0.578125 v 2.5625 c 0.132813,0.210937 0.300781,0.371094 0.5,0.484375 0.195313,0.105469 0.414063,0.15625 0.65625,0.15625 z m 0,0"
             id="id-b00b017f-755f-461f-84a8-1f48de4e20b7" />
        </g>
      </g>
      <g
         fill="#000000"
         fill-opacity="1"
         id="id-ffec37c3-0ee1-40b4-ac23-02664105efd1"
         transform="translate(-148.806,-128.218)">
        <g
           transform="translate(171.955,134.765)"
           id="g133977">
          <path
             d="m 1.1875,-1.265625 c 0.195312,0 0.363281,0.070313 0.5,0.203125 0.132812,0.125 0.203125,0.289062 0.203125,0.484375 0,0.1875 -0.070313,0.355469 -0.203125,0.5 C 1.550781,0.0546875 1.382812,0.125 1.1875,0.125 c -0.199219,0 -0.367188,-0.0703125 -0.5,-0.203125 -0.125,-0.144531 -0.1875,-0.3125 -0.1875,-0.5 0,-0.195313 0.0625,-0.359375 0.1875,-0.484375 0.132812,-0.132812 0.300781,-0.203125 0.5,-0.203125 z m 0,0"
             id="id-184d18bf-c8af-4e94-84f5-869e69a39583" />
        </g>
      </g>
    </g>
    <g
       transform="matrix(0.705556,0,0,0.705556,59.654,159.20318)"
       ns16:version="1.8.1"
       ns16:texconverter="xelatex"
       ns16:pdfconverter="inkscape"
       ns16:text="$r$"
       ns16:preamble="/home/kirito/.config/textext/beamer_preamble.tex"
       ns16:scale="2.0"
       ns16:alignment="middle center"
       ns16:stroke-to-path="0"
       ns16:inkscapeversion="1.2.1"
       ns16:jacobian_sqrt="0.705556"
       id="g132922">
      <defs
         id="id-1659d927-5062-42cc-9b44-60ee1df9d612">
        <g
           id="id-e265de00-d2fd-466b-993c-1da151119e3f">
          <g
             id="id-88bae7c4-605f-4d94-aefc-9d8b681d4d5a">
            <path
               d="m 5.4375,-6.4375 v 5.890625 H 1.34375 V -6.4375 Z m 0.546875,-0.546875 h -5.1875 V 0 h 5.1875 z m -2.75,4.953125 c -0.21875,0 -0.40625,0.1875 -0.40625,0.421875 0,0.21875 0.1875,0.40625 0.40625,0.40625 0.25,0 0.421875,-0.1875 0.421875,-0.40625 0,-0.234375 -0.171875,-0.421875 -0.421875,-0.421875 z M 3.4375,-5.453125 c -0.5,0 -0.90625,0.1875 -1.25,0.59375 l 0.390625,0.28125 C 2.828125,-4.875 3.09375,-5 3.40625,-5 3.765625,-5 4,-4.8125 4,-4.484375 4,-3.84375 2.953125,-3.953125 2.953125,-2.9375 v 0.296875 H 3.5 V -2.90625 c 0,-0.796875 1.078125,-0.65625 1.078125,-1.625 0,-0.46875 -0.375,-0.921875 -1.140625,-0.921875 z m 0,0"
               id="id-d9f728bf-5bf0-437f-bcf2-2059a08b58ff" />
          </g>
          <g
             id="id-b7ca04fc-417c-4dbc-9694-abd72800b1eb">
            <path
               d="m 3.546875,-5.375 c -0.578125,0 -1.125,0.375 -1.515625,1.203125 L 2.078125,-5.25 H 1.3125 L 0.5625,0 H 1.46875 L 1.875,-2.78125 c 0.375,-1.0625 0.828125,-1.6875 1.5,-1.6875 0.171875,0 0.28125,0.015625 0.4375,0.046875 l 0.265625,-0.875 C 3.921875,-5.34375 3.734375,-5.375 3.546875,-5.375 Z m 0,0"
               id="id-b9dc8315-baee-4713-9d7e-7b344efecf31" />
          </g>
        </g>
      </defs>
      <g
         fill="#000000"
         fill-opacity="1"
         id="id-dc0feea6-6ba5-418a-8c30-3f77b4c54d05"
         transform="translate(-149.275,-129.39)">
        <g
           transform="translate(148.712,134.765)"
           id="g164640">
          <path
             d="m 3.546875,-5.375 c -0.578125,0 -1.125,0.375 -1.515625,1.203125 L 2.078125,-5.25 H 1.3125 L 0.5625,0 H 1.46875 L 1.875,-2.78125 c 0.375,-1.0625 0.828125,-1.6875 1.5,-1.6875 0.171875,0 0.28125,0.015625 0.4375,0.046875 l 0.265625,-0.875 C 3.921875,-5.34375 3.734375,-5.375 3.546875,-5.375 Z m 0,0"
             id="id-bcf4a569-1fb0-4a01-8952-c74dab6ef618" />
        </g>
      </g>
    </g>
  </g>
</svg>
