<?xml version="1.0" encoding="UTF-8" standalone="no"?>
<svg
   width="610.5pt"
   height="120.33594pt"
   viewBox="0 0 610.5 120.33594"
   version="1.1"
   id="svg481"
   sodipodi:docname="universal-theory.svg"
   inkscape:version="1.2.1 (9c6d41e410, 2022-07-14)"
   xmlns:inkscape="http://www.inkscape.org/namespaces/inkscape"
   xmlns:sodipodi="http://sodipodi.sourceforge.net/DTD/sodipodi-0.dtd"
   xmlns="http://www.w3.org/2000/svg"
   xmlns:svg="http://www.w3.org/2000/svg"
   xmlns:ns16="http://www.iki.fi/pav/software/textext/">
  <sodipodi:namedview
     id="namedview483"
     pagecolor="#ffffff"
     bordercolor="#999999"
     borderopacity="1"
     inkscape:showpageshadow="0"
     inkscape:pageopacity="0"
     inkscape:pagecheckerboard="0"
     inkscape:deskcolor="#d1d1d1"
     inkscape:document-units="pt"
     showgrid="false"
     inkscape:zoom="1.2107909"
     inkscape:cx="396.02214"
     inkscape:cy="18.995848"
     inkscape:window-width="1920"
     inkscape:window-height="1019"
     inkscape:window-x="1920"
     inkscape:window-y="151"
     inkscape:window-maximized="1"
     inkscape:current-layer="svg481" />
  <defs
     id="defs311">
    <marker
       style="overflow:visible"
       id="TriangleStart"
       refX="0"
       refY="0"
       orient="auto-start-reverse"
       inkscape:stockid="TriangleStart"
       markerWidth="3.3239999"
       markerHeight="3.8427744"
       viewBox="0 0 5.3244081 6.1553851"
       inkscape:isstock="true"
       inkscape:collect="always"
       preserveAspectRatio="xMidYMid">
      <path
         transform="scale(0.5)"
         style="fill:context-stroke;fill-rule:evenodd;stroke:context-stroke;stroke-width:1pt"
         d="M 5.77,0 -2.88,5 V -5 Z"
         id="path17089" />
    </marker>
    <inkscape:path-effect
       effect="spiro"
       id="path-effect15854"
       is_visible="true"
       lpeversion="1" />
    <marker
       style="overflow:visible"
       id="EmptyTriangleIn"
       refX="-1"
       refY="0"
       orient="auto-start-reverse"
       inkscape:stockid="EmptyTriangleIn"
       markerWidth="5.8241119"
       markerHeight="6.7330775"
       viewBox="0 0 5.8241121 6.7330776"
       inkscape:isstock="true"
       inkscape:collect="always"
       preserveAspectRatio="xMidYMid">
      <path
         transform="scale(0.5)"
         style="fill:context-fill;fill-rule:evenodd;stroke:context-stroke;stroke-width:2"
         d="M 5.77,0 -2.88,5 V -5 Z"
         id="path153" />
    </marker>
    <marker
       style="overflow:visible"
       id="marker9210"
       refX="0"
       refY="0"
       orient="auto-start-reverse"
       inkscape:stockid="Arrow1"
       markerWidth="4.0606604"
       markerHeight="6.7071066"
       viewBox="0 0 4.0606602 6.7071068"
       inkscape:isstock="true"
       inkscape:collect="always"
       preserveAspectRatio="xMidYMid">
      <path
         style="fill:none;stroke:context-stroke;stroke-width:1;stroke-linecap:butt"
         d="M 3,-3 0,0 3,3"
         id="path9208"
         transform="rotate(180,0.125,0)"
         sodipodi:nodetypes="ccc" />
    </marker>
    <marker
       style="overflow:visible"
       id="Arrow1"
       refX="0"
       refY="0"
       orient="auto-start-reverse"
       inkscape:stockid="Arrow1"
       markerWidth="4.0606604"
       markerHeight="6.7071066"
       viewBox="0 0 4.0606602 6.7071068"
       inkscape:isstock="true"
       inkscape:collect="always"
       preserveAspectRatio="xMidYMid">
      <path
         style="fill:none;stroke:context-stroke;stroke-width:1;stroke-linecap:butt"
         d="M 3,-3 0,0 3,3"
         id="path5057"
         transform="rotate(180,0.125,0)"
         sodipodi:nodetypes="ccc" />
    </marker>
    <inkscape:path-effect
       effect="spiro"
       id="path-effect9150"
       is_visible="true"
       lpeversion="1" />
    <marker
       style="overflow:visible"
       id="RoundedArrow"
       refX="0"
       refY="0"
       orient="auto-start-reverse"
       inkscape:stockid="RoundedArrow"
       markerWidth="6.1350002"
       markerHeight="5.9307346"
       viewBox="0 0 6.1347524 5.9304951"
       inkscape:isstock="true"
       inkscape:collect="always"
       preserveAspectRatio="xMidYMid">
      <path
         transform="scale(0.7)"
         d="m -0.21114562,-4.1055728 6.42229122,3.21114561 a 1,1 90 0 1 0,1.78885438 L -0.21114562,4.1055728 A 1.236068,1.236068 31.717474 0 1 -2,3 v -6 a 1.236068,1.236068 148.28253 0 1 1.78885438,-1.1055728 z"
         style="fill:context-stroke;fill-rule:evenodd;stroke:none"
         id="path1367" />
    </marker>
    <filter
       id="filter-remove-color"
       x="0"
       y="0"
       width="1"
       height="1">
      <feColorMatrix
         color-interpolation-filters="sRGB"
         values="0 0 0 0 1 0 0 0 0 1 0 0 0 0 1 0 0 0 1 0"
         id="feColorMatrix132" />
    </filter>
    <clipPath
       id="clip-0">
      <path
         clip-rule="nonzero"
         d="m 22,106 h 9 v 14.33594 h -9 z m 0,0"
         id="path135" />
    </clipPath>
    <clipPath
       id="clip-1">
      <path
         clip-rule="nonzero"
         d="m 61,106 h 10 v 14.33594 H 61 Z m 0,0"
         id="path138" />
    </clipPath>
    <clipPath
       id="clip-2">
      <path
         clip-rule="nonzero"
         d="M 0,0 H 625.90625 V 120.33594 H 0 Z m 0,0"
         id="path141" />
    </clipPath>
    <mask
       id="mask-0">
      <g
         filter="url(#filter-remove-color)"
         id="g146">
        <rect
           x="-62.59063"
           y="-12.033575"
           width="751.08759"
           height="144.40289"
           fill="#000000"
           fill-opacity="0.86035"
           id="rect144" />
      </g>
    </mask>
    <clipPath
       id="clip-3">
      <path
         clip-rule="nonzero"
         d="m 345,46 h 280.90625 v 4 H 345 Z m 0,0"
         id="path149" />
    </clipPath>
    <clipPath
       id="clip-4">
      <rect
         x="0"
         y="0"
         width="626"
         height="121"
         id="rect152" />
    </clipPath>
    <g
       id="source-2194"
       clip-path="url(#clip-4)">
      <g
         clip-path="url(#clip-3)"
         id="g157">
        <path
           fill="none"
           stroke-width="2.83465"
           stroke-linecap="butt"
           stroke-linejoin="miter"
           stroke="#404040"
           stroke-opacity="1"
           stroke-miterlimit="4.5"
           d="M 347.125,48.289062 H 625.90625"
           id="path155" />
      </g>
    </g>
    <mask
       id="mask-1">
      <g
         filter="url(#filter-remove-color)"
         id="g165">
        <rect
           x="-62.59063"
           y="-12.033575"
           width="751.08759"
           height="144.40289"
           fill="#000000"
           fill-opacity="0.86035"
           id="rect163" />
      </g>
    </mask>
    <clipPath
       id="clip-6">
      <path
         clip-rule="nonzero"
         d="M 315,0 H 462 V 60 H 315 Z m 0,0"
         id="path168" />
    </clipPath>
    <clipPath
       id="clip-7">
      <rect
         x="0"
         y="0"
         width="626"
         height="121"
         id="rect171" />
    </clipPath>
    <g
       id="source-2197"
       clip-path="url(#clip-7)">
      <g
         clip-path="url(#clip-6)"
         id="g176">
        <path
           fill="none"
           stroke-width="4.25197"
           stroke-linecap="butt"
           stroke-linejoin="miter"
           stroke="#404040"
           stroke-opacity="1"
           stroke-miterlimit="4.5"
           d="m 342.39453,27.417969 c 4.26953,-4.683594 9.29297,-8.683594 14.8125,-11.796875 12.58203,-7.09375 27.78125,-9.402344 41.90234,-6.371094 14.11719,3.035156 27.02735,11.382812 35.58594,23.015625"
           id="path174" />
      </g>
      <path
         fill="none"
         stroke-width="2.58192"
         stroke-linecap="butt"
         stroke-linejoin="miter"
         stroke="#404040"
         stroke-opacity="1"
         stroke-miterlimit="4"
         d="m -221.32415,258.92295 -7.74401,7.745 7.74313,7.74654"
         transform="matrix(-0.735589,-1,1,-0.735589,0,0)"
         id="path178" />
    </g>
    <mask
       id="mask-2">
      <g
         filter="url(#filter-remove-color)"
         id="g183">
        <rect
           x="-62.59063"
           y="-12.033575"
           width="751.08759"
           height="144.40289"
           fill="#000000"
           fill-opacity="0.86035"
           id="rect181" />
      </g>
    </mask>
    <clipPath
       id="clip-8">
      <path
         clip-rule="nonzero"
         d="M 439,0 H 589 V 58 H 439 Z m 0,0"
         id="path186" />
    </clipPath>
    <clipPath
       id="clip-9">
      <path
         clip-rule="nonzero"
         d="m 529,0 h 52 v 49 h -52 z m 0,0"
         id="path189" />
    </clipPath>
    <clipPath
       id="clip-10">
      <rect
         x="0"
         y="0"
         width="626"
         height="121"
         id="rect192" />
    </clipPath>
    <g
       id="source-2200"
       clip-path="url(#clip-10)">
      <g
         clip-path="url(#clip-8)"
         id="g197">
        <path
           fill="none"
           stroke-width="4.25197"
           stroke-linecap="butt"
           stroke-linejoin="miter"
           stroke="#404040"
           stroke-opacity="1"
           stroke-miterlimit="4.5"
           d="m 466.89453,27.417969 c 4.30078,-4.652344 9.31641,-8.648438 14.8125,-11.796875 12.67578,-7.265625 27.94922,-9.886719 42.32031,-7.261719 14.375,2.625 27.73438,10.476563 37.02344,21.75"
           id="path195" />
      </g>
      <g
         clip-path="url(#clip-9)"
         id="g201">
        <path
           fill="none"
           stroke-width="2.47391"
           stroke-linecap="butt"
           stroke-linejoin="miter"
           stroke="#404040"
           stroke-opacity="1"
           stroke-miterlimit="4"
           d="m -286.46945,312.03993 -7.42194,7.42123 7.42123,7.42193"
           transform="matrix(-0.823765,-1,1,-0.823765,0,0)"
           id="path199" />
      </g>
    </g>
    <clipPath
       id="clip-12">
      <rect
         x="0"
         y="0"
         width="626"
         height="121"
         id="rect212" />
    </clipPath>
    <g
       id="source-2203"
       clip-path="url(#clip-12)">
      <path
         fill="none"
         stroke-width="4.25197"
         stroke-linecap="butt"
         stroke-linejoin="miter"
         stroke="#c0b0ff"
         stroke-opacity="1"
         stroke-miterlimit="4.5"
         d="M 26.910156,75.597656 V 39.226562"
         id="path215" />
      <path
         fill-rule="evenodd"
         fill="#c0b0ff"
         fill-opacity="1"
         d="M 14.691406,39.855469 24.25,20.742188 c 1.097656,-2.195313 4.226562,-2.195313 5.324219,0 l 9.554687,19.113281 c 1.226563,2.445312 -0.554687,5.324219 -3.289062,5.324219 H 17.980469 c -2.734375,0 -4.511719,-2.878907 -3.289063,-5.324219 z m 0,0"
         id="path217" />
    </g>
    <mask
       id="mask-4">
      <g
         filter="url(#filter-remove-color)"
         id="g222">
        <rect
           x="-62.59063"
           y="-12.033575"
           width="751.08759"
           height="144.40289"
           fill="#000000"
           fill-opacity="0.86035"
           id="rect220" />
      </g>
    </mask>
    <clipPath
       id="clip-13">
      <rect
         x="0"
         y="0"
         width="626"
         height="121"
         id="rect225" />
    </clipPath>
    <g
       id="source-2206"
       clip-path="url(#clip-13)">
      <path
         fill="none"
         stroke-width="4.25197"
         stroke-linecap="butt"
         stroke-linejoin="miter"
         stroke="#305080"
         stroke-opacity="1"
         stroke-miterlimit="4.5"
         d="M 284.29687,93.296875 V 56.925781"
         id="path228" />
      <path
         fill="none"
         stroke-width="4.25192"
         stroke-linecap="butt"
         stroke-linejoin="miter"
         stroke="#305080"
         stroke-opacity="1"
         stroke-miterlimit="4"
         d="m -44.660156,284.29687 -18.390625,10.63282 v -21.26172 z m 0,0"
         transform="rotate(-90)"
         id="path230" />
    </g>
    <mask
       id="mask-5">
      <g
         filter="url(#filter-remove-color)"
         id="g235">
        <rect
           x="-62.59063"
           y="-12.033575"
           width="751.08759"
           height="144.40289"
           fill="#000000"
           fill-opacity="0.86035"
           id="rect233" />
      </g>
    </mask>
    <clipPath
       id="clip-14">
      <rect
         x="0"
         y="0"
         width="626"
         height="121"
         id="rect238" />
    </clipPath>
    <g
       id="source-2209"
       clip-path="url(#clip-14)">
      <path
         fill="none"
         stroke-width="4.25197"
         stroke-linecap="butt"
         stroke-linejoin="miter"
         stroke="#c0b0ff"
         stroke-opacity="1"
         stroke-miterlimit="4.5"
         d="M 56.910156,19.09375 V 55.464844"
         id="path241" />
      <path
         fill-rule="evenodd"
         fill="#c0b0ff"
         fill-opacity="1"
         d="m 69.128906,54.835938 -9.554687,19.117187 c -1.097657,2.191406 -4.226563,2.191406 -5.324219,0 L 44.691406,54.835938 c -1.222656,-2.445313 0.554688,-5.324219 3.289063,-5.324219 h 17.859375 c 2.734375,0 4.515625,2.878906 3.289062,5.324219 z m 0,0"
         id="path243" />
    </g>
    <mask
       id="mask-6">
      <g
         filter="url(#filter-remove-color)"
         id="g248">
        <rect
           x="-62.59063"
           y="-12.033575"
           width="751.08759"
           height="144.40289"
           fill="#000000"
           fill-opacity="0.86035"
           id="rect246" />
      </g>
    </mask>
    <clipPath
       id="clip-15">
      <rect
         x="0"
         y="0"
         width="626"
         height="121"
         id="rect251" />
    </clipPath>
    <g
       id="source-2212"
       clip-path="url(#clip-15)">
      <path
         fill="none"
         stroke-width="4.25197"
         stroke-linecap="butt"
         stroke-linejoin="miter"
         stroke="#305080"
         stroke-opacity="1"
         stroke-miterlimit="4.5"
         d="M 315.79687,40.414062 V 76.78125"
         id="path254" />
      <path
         fill="none"
         stroke-width="4.25192"
         stroke-linecap="butt"
         stroke-linejoin="miter"
         stroke="#305080"
         stroke-opacity="1"
         stroke-miterlimit="4"
         d="m 89.050781,-315.79687 -18.390625,10.6289 v -21.26172 z m 0,0"
         transform="rotate(90)"
         id="path256" />
    </g>
    <mask
       id="mask-7">
      <g
         filter="url(#filter-remove-color)"
         id="g261">
        <rect
           x="-62.59063"
           y="-12.033575"
           width="751.08759"
           height="144.40289"
           fill="#000000"
           fill-opacity="0.86035"
           id="rect259" />
      </g>
    </mask>
    <clipPath
       id="clip-16">
      <rect
         x="0"
         y="0"
         width="626"
         height="121"
         id="rect264" />
    </clipPath>
    <g
       id="source-2215"
       clip-path="url(#clip-16)">
      <path
         fill="none"
         stroke-width="4.25197"
         stroke-linecap="butt"
         stroke-linejoin="miter"
         stroke="#305080"
         stroke-opacity="1"
         stroke-miterlimit="4.5"
         d="M 417.80078,84.660156 V 48.289062"
         id="path267" />
      <path
         fill="none"
         stroke-width="4.25189"
         stroke-linecap="butt"
         stroke-linejoin="miter"
         stroke="#305080"
         stroke-opacity="1"
         stroke-miterlimit="4"
         d="m -36.023438,417.80078 -18.386718,10.62891 v -21.25782 z m 0,0"
         transform="rotate(-90)"
         id="path269" />
    </g>
    <mask
       id="mask-8">
      <g
         filter="url(#filter-remove-color)"
         id="g274">
        <rect
           x="-62.59063"
           y="-12.033575"
           width="751.08759"
           height="144.40289"
           fill="#000000"
           fill-opacity="0.86035"
           id="rect272" />
      </g>
    </mask>
    <clipPath
       id="clip-17">
      <rect
         x="0"
         y="0"
         width="626"
         height="121"
         id="rect277" />
    </clipPath>
    <g
       id="source-2218"
       clip-path="url(#clip-17)">
      <path
         fill="none"
         stroke-width="4.25197"
         stroke-linecap="butt"
         stroke-linejoin="miter"
         stroke="#305080"
         stroke-opacity="1"
         stroke-miterlimit="4.5"
         d="M 449.30078,31.773438 V 68.144531"
         id="path280" />
      <path
         fill="none"
         stroke-width="4.25189"
         stroke-linecap="butt"
         stroke-linejoin="miter"
         stroke="#305080"
         stroke-opacity="1"
         stroke-miterlimit="4"
         d="m 80.410156,-449.30078 -18.386718,10.62891 v -21.25782 z m 0,0"
         transform="rotate(90)"
         id="path282" />
    </g>
    <mask
       id="mask-9">
      <g
         filter="url(#filter-remove-color)"
         id="g287">
        <rect
           x="-62.59063"
           y="-12.033575"
           width="751.08759"
           height="144.40289"
           fill="#000000"
           fill-opacity="0.86035"
           id="rect285" />
      </g>
    </mask>
    <clipPath
       id="clip-18">
      <rect
         x="0"
         y="0"
         width="626"
         height="121"
         id="rect290" />
    </clipPath>
    <g
       id="source-2221"
       clip-path="url(#clip-18)">
      <path
         fill="none"
         stroke-width="4.25197"
         stroke-linecap="butt"
         stroke-linejoin="miter"
         stroke="#305080"
         stroke-opacity="1"
         stroke-miterlimit="4.5"
         d="M 542.30078,84.660156 V 48.289062"
         id="path293" />
      <path
         fill="none"
         stroke-width="4.25189"
         stroke-linecap="butt"
         stroke-linejoin="miter"
         stroke="#305080"
         stroke-opacity="1"
         stroke-miterlimit="4"
         d="m -36.023438,542.30078 -18.386718,10.62891 v -21.25782 z m 0,0"
         transform="rotate(-90)"
         id="path295" />
    </g>
    <mask
       id="mask-10">
      <g
         filter="url(#filter-remove-color)"
         id="g300">
        <rect
           x="-62.59063"
           y="-12.033575"
           width="751.08759"
           height="144.40289"
           fill="#000000"
           fill-opacity="0.86035"
           id="rect298" />
      </g>
    </mask>
    <clipPath
       id="clip-19">
      <rect
         x="0"
         y="0"
         width="626"
         height="121"
         id="rect303" />
    </clipPath>
    <g
       id="source-2224"
       clip-path="url(#clip-19)">
      <path
         fill="none"
         stroke-width="4.25197"
         stroke-linecap="butt"
         stroke-linejoin="miter"
         stroke="#305080"
         stroke-opacity="1"
         stroke-miterlimit="4.5"
         d="M 573.80078,31.773438 V 68.144531"
         id="path306" />
      <path
         fill="none"
         stroke-width="4.25189"
         stroke-linecap="butt"
         stroke-linejoin="miter"
         stroke="#305080"
         stroke-opacity="1"
         stroke-miterlimit="4"
         d="m 80.410156,-573.80078 -18.386718,10.62891 v -21.25782 z m 0,0"
         transform="rotate(90)"
         id="path308" />
    </g>
    <clipPath
       clipPathUnits="userSpaceOnUse"
       id="clipPath1196">
      <g
         id="g1200">
        <path
           clip-rule="nonzero"
           d="M 0,0 H 625.90625 V 120.33594 H 0 Z m 0,0"
           id="path1198" />
      </g>
    </clipPath>
    <clipPath
       clipPathUnits="userSpaceOnUse"
       id="clipPath1202">
      <g
         id="g1206">
        <path
           clip-rule="nonzero"
           d="M 0,0 H 625.90625 V 120.33594 H 0 Z m 0,0"
           id="path1204" />
      </g>
    </clipPath>
    <clipPath
       clipPathUnits="userSpaceOnUse"
       id="clipPath1208">
      <g
         id="g1212">
        <path
           clip-rule="nonzero"
           d="M 0,0 H 625.90625 V 120.33594 H 0 Z m 0,0"
           id="path1210" />
      </g>
    </clipPath>
    <clipPath
       clipPathUnits="userSpaceOnUse"
       id="clipPath1214">
      <g
         id="g1218">
        <path
           clip-rule="nonzero"
           d="M 0,0 H 625.90625 V 120.33594 H 0 Z m 0,0"
           id="path1216" />
      </g>
    </clipPath>
    <clipPath
       clipPathUnits="userSpaceOnUse"
       id="clipPath1220">
      <g
         id="g1224">
        <path
           clip-rule="nonzero"
           d="M 0,0 H 625.90625 V 120.33594 H 0 Z m 0,0"
           id="path1222" />
      </g>
    </clipPath>
    <clipPath
       clipPathUnits="userSpaceOnUse"
       id="clipPath1226">
      <g
         id="g1230">
        <path
           clip-rule="nonzero"
           d="M 0,0 H 625.90625 V 120.33594 H 0 Z m 0,0"
           id="path1228" />
      </g>
    </clipPath>
    <clipPath
       clipPathUnits="userSpaceOnUse"
       id="clipPath1232">
      <g
         id="g1236">
        <path
           clip-rule="nonzero"
           d="M 0,0 H 625.90625 V 120.33594 H 0 Z m 0,0"
           id="path1234" />
      </g>
    </clipPath>
    <clipPath
       clipPathUnits="userSpaceOnUse"
       id="clipPath1252">
      <g
         id="g1256">
        <path
           clip-rule="nonzero"
           d="M 0,0 H 625.90625 V 120.33594 H 0 Z m 0,0"
           id="path1254" />
      </g>
    </clipPath>
    <clipPath
       clipPathUnits="userSpaceOnUse"
       id="clipPath1258">
      <g
         id="g1262">
        <path
           clip-rule="nonzero"
           d="M 0,0 H 625.90625 V 120.33594 H 0 Z m 0,0"
           id="path1260" />
      </g>
    </clipPath>
    <mask
       maskUnits="userSpaceOnUse"
       id="mask3016">
      <g
         id="g3022">
        <g
           filter="url(#filter-remove-color)"
           id="g3020">
          <rect
             x="-62.59063"
             y="-12.033575"
             width="751.08759"
             height="144.40289"
             fill="#000000"
             fill-opacity="0.86035"
             id="rect3018" />
        </g>
      </g>
    </mask>
    <clipPath
       clipPathUnits="userSpaceOnUse"
       id="clipPath3024">
      <g
         id="g3030">
        <g
           id="g3028">
          <path
             clip-rule="nonzero"
             d="M 0,0 H 625.90625 V 120.33594 H 0 Z m 0,0"
             id="path3026" />
        </g>
      </g>
    </clipPath>
    <marker
       style="overflow:visible"
       id="EmptyTriangleIn-5"
       refX="-1"
       refY="0"
       orient="auto-start-reverse"
       inkscape:stockid="EmptyTriangleIn"
       markerWidth="5.8241119"
       markerHeight="6.7330775"
       viewBox="0 0 5.8241121 6.7330776"
       inkscape:isstock="true"
       inkscape:collect="always"
       preserveAspectRatio="xMidYMid">
      <path
         transform="scale(0.5)"
         style="fill:context-fill;fill-rule:evenodd;stroke:context-stroke;stroke-width:2"
         d="M 5.77,0 -2.88,5 V -5 Z"
         id="path153-3" />
    </marker>
    <marker
       style="overflow:visible"
       id="EmptyTriangleIn-2"
       refX="-1"
       refY="0"
       orient="auto-start-reverse"
       inkscape:stockid="EmptyTriangleIn"
       markerWidth="5.8241119"
       markerHeight="6.7330775"
       viewBox="0 0 5.8241121 6.7330776"
       inkscape:isstock="true"
       inkscape:collect="always"
       preserveAspectRatio="xMidYMid">
      <path
         transform="scale(0.5)"
         style="fill:context-fill;fill-rule:evenodd;stroke:context-stroke;stroke-width:2"
         d="M 5.77,0 -2.88,5 V -5 Z"
         id="path153-9" />
    </marker>
    <marker
       style="overflow:visible"
       id="TriangleStart-7"
       refX="0"
       refY="0"
       orient="auto-start-reverse"
       inkscape:stockid="TriangleStart"
       markerWidth="3.3239999"
       markerHeight="3.8427744"
       viewBox="0 0 5.3244081 6.1553851"
       inkscape:isstock="true"
       inkscape:collect="always"
       preserveAspectRatio="xMidYMid">
      <path
         transform="scale(0.5)"
         style="fill:context-stroke;fill-rule:evenodd;stroke:context-stroke;stroke-width:1pt"
         d="M 5.77,0 -2.88,5 V -5 Z"
         id="path17089-0" />
    </marker>
    <inkscape:path-effect
       effect="spiro"
       id="path-effect15854-9"
       is_visible="true"
       lpeversion="1" />
  </defs>
  <path
     fill-rule="nonzero"
     fill="#606060"
     fill-opacity="1"
     d="M 87.671875,48.289062 C 87.671875,72.5 68.042969,92.125 43.835938,92.125 19.625,92.125 0,72.5 0,48.289062 0,24.082031 19.625,4.453125 43.835938,4.453125 c 24.207031,0 43.835937,19.628906 43.835937,43.835937 z m 0,0"
     id="path313" />
  <path
     fill-rule="nonzero"
     fill="#b0b0b0"
     fill-opacity="1"
     d="m 347.125,48.289062 c 0,26.671876 -21.62109,48.289063 -48.28906,48.289063 -26.67188,0 -48.28907,-21.617187 -48.28907,-48.289063 C 250.54687,21.621094 272.16406,0 298.83594,0 325.50391,0 347.125,21.621094 347.125,48.289062 Z m 0,0"
     id="path315"
     style="fill:#606060;fill-opacity:1" />
  <path
     fill-rule="nonzero"
     fill="#000000"
     fill-opacity="1"
     d="m 2.328125,101.76172 c -0.703125,0 -1.171875,0.52734 -1.171875,1.19922 0,0.64453 0.46875,1.14453 1.171875,1.14453 0.734375,0 1.230469,-0.5 1.230469,-1.14453 0,-0.67188 -0.496094,-1.19922 -1.230469,-1.19922 z m 0.878906,4.74609 H 1.507812 v 9.84375 h 1.699219 z m 0,0"
     id="path323" />
  <path
     fill-rule="nonzero"
     fill="#000000"
     fill-opacity="1"
     d="m 16.539062,106.27344 c -1.320312,0 -2.226562,0.70312 -2.929687,1.78515 -0.382813,-1.14062 -1.261719,-1.78515 -2.492187,-1.78515 -1.289063,0 -2.167969,0.67187 -2.839844,1.66797 l -0.148438,-1.4336 H 6.664062 v 9.84375 h 1.699219 v -7.0039 c 0.675781,-1.02344 1.261719,-1.72657 2.34375,-1.72657 0.734375,0 1.378907,0.4375 1.378907,1.90235 v 6.82812 h 1.699218 v -7.0039 c 0.671875,-1.02344 1.257813,-1.72657 2.34375,-1.72657 0.730469,0 1.375,0.4375 1.375,1.90235 v 6.82812 h 1.699219 v -7.0625 c 0,-1.84375 -1.054687,-3.01562 -2.664063,-3.01562 z m 0,0"
     id="path325" />
  <g
     clip-path="url(#clip-0)"
     id="g329">
    <path
       fill-rule="nonzero"
       fill="#000000"
       fill-opacity="1"
       d="m 27.054688,106.27344 c -1.113282,0 -2.199219,0.55469 -2.902344,1.55078 l -0.144532,-1.31641 h -1.464843 v 13.82813 l 1.699219,-0.20703 v -4.6875 c 0.644531,0.79297 1.523437,1.14453 2.578124,1.14453 2.546876,0 3.894532,-2.16797 3.894532,-5.15625 0,-3.10547 -1.054688,-5.15625 -3.660156,-5.15625 z m -0.644532,8.90625 c -0.878906,0 -1.640625,-0.44141 -2.167968,-1.20313 v -4.80468 c 0.527343,-0.78907 1.347656,-1.52344 2.371093,-1.52344 1.496094,0 2.226563,1.20312 2.226563,3.78125 0,2.57812 -0.847656,3.75 -2.429688,3.75 z m 0,0"
       id="path327" />
  </g>
  <path
     fill-rule="nonzero"
     fill="#000000"
     fill-opacity="1"
     d="m 40.785156,106.50781 h -1.730468 v 7.03125 c -0.585938,0.96485 -1.375,1.69922 -2.460938,1.69922 -1.054688,0 -1.492188,-0.52734 -1.492188,-1.84765 v -6.88282 h -1.730468 v 7.0586 c 0,1.93359 1.027344,3.01953 2.753906,3.01953 1.40625,0 2.316406,-0.5586 3.046875,-1.75781 l 0.148437,1.52343 h 1.464844 z m 0,0"
     id="path331" />
  <path
     fill-rule="nonzero"
     fill="#000000"
     fill-opacity="1"
     d="m 48.503906,106.27344 c -1.199218,0 -2.109375,0.76172 -2.636718,2.22656 l -0.175782,-1.99219 h -1.464844 v 9.84375 h 1.699219 v -5.625 c 0.410157,-1.875 1.144531,-2.7539 2.375,-2.7539 0.351563,0 0.554688,0.0273 0.847657,0.0859 l 0.324218,-1.66796 c -0.292968,-0.0898 -0.644531,-0.11719 -0.96875,-0.11719 z m 0,0"
     id="path333" />
  <path
     fill-rule="nonzero"
     fill="#000000"
     fill-opacity="1"
     d="m 52.203125,101.76172 c -0.703125,0 -1.171875,0.52734 -1.171875,1.19922 0,0.64453 0.46875,1.14453 1.171875,1.14453 0.734375,0 1.230469,-0.5 1.230469,-1.14453 0,-0.67188 -0.496094,-1.19922 -1.230469,-1.19922 z m 0.878906,4.74609 h -1.699219 v 9.84375 h 1.699219 z m 0,0"
     id="path335" />
  <path
     fill-rule="nonzero"
     fill="#000000"
     fill-opacity="1"
     d="m 60.90625,114.76953 c -0.5,0.26172 -0.878906,0.37891 -1.320312,0.37891 -0.847657,0 -1.171876,-0.46875 -1.171876,-1.46485 v -5.85937 h 2.167969 l 0.175781,-1.31641 h -2.34375 v -2.43359 l -1.726562,0.20703 v 2.22656 h -1.699219 v 1.31641 H 56.6875 v 5.94922 c 0,1.8164 0.996094,2.8125 2.664062,2.8125 0.851563,0 1.554688,-0.23438 2.199219,-0.67578 z m 0,0"
     id="path337" />
  <g
     clip-path="url(#clip-1)"
     id="g341">
    <path
       fill-rule="nonzero"
       fill="#000000"
       fill-opacity="1"
       d="m 70.484375,106.50781 h -1.785156 l -2.578125,8.58203 -2.636719,-8.58203 h -1.847656 l 3.3125,9.84375 h 0.585937 c -0.558594,1.52344 -1.113281,2.28516 -3.105468,2.63672 l 0.175781,1.34766 c 2.722656,-0.29297 3.894531,-1.84766 4.570312,-3.92578 z m 0,0"
       id="path339" />
  </g>
  <path
     fill-rule="nonzero"
     fill="#000000"
     fill-opacity="1"
     d="m 80.054688,106.27344 c -2.050782,0 -3.546876,1.14062 -3.546876,2.72265 0,1.37891 0.820313,2.28516 2.960938,2.84375 1.902344,0.4961 2.402344,0.87891 2.402344,1.84375 0,0.9375 -0.820313,1.4961 -2.109375,1.4961 -1.085938,0 -1.992188,-0.35156 -2.785157,-0.9375 l -0.90625,1.05469 c 0.847657,0.73046 2.050782,1.28906 3.71875,1.28906 1.992188,0 3.898438,-0.9375 3.898438,-2.98828 0,-1.73047 -1.203125,-2.55078 -3.28125,-3.07813 -1.582031,-0.41015 -2.109375,-0.78906 -2.109375,-1.58203 0,-0.78906 0.671875,-1.28906 1.816406,-1.28906 0.90625,0 1.667969,0.26562 2.546875,0.82031 l 0.734375,-1.08203 c -0.9375,-0.70313 -1.964843,-1.11328 -3.339843,-1.11328 z m 0,0"
     id="path343" />
  <path
     fill-rule="nonzero"
     fill="#000000"
     fill-opacity="1"
     d="m 86.875,101.76172 c -0.703125,0 -1.171875,0.52734 -1.171875,1.19922 0,0.64453 0.46875,1.14453 1.171875,1.14453 0.730469,0 1.230469,-0.5 1.230469,-1.14453 0,-0.67188 -0.5,-1.19922 -1.230469,-1.19922 z m 0.878906,4.74609 h -1.699218 v 9.84375 h 1.699218 z m 0,0"
     id="path345" />
  <path
     fill-rule="nonzero"
     fill="#000000"
     fill-opacity="1"
     d="m 95.574219,114.76953 c -0.5,0.26172 -0.878907,0.37891 -1.320313,0.37891 -0.847656,0 -1.171875,-0.46875 -1.171875,-1.46485 v -5.85937 H 95.25 l 0.175781,-1.31641 h -2.34375 v -2.43359 l -1.726562,0.20703 v 2.22656 H 89.65625 v 1.31641 h 1.699219 v 5.94922 c 0,1.8164 0.996093,2.8125 2.664062,2.8125 0.851563,0 1.554688,-0.23438 2.199219,-0.67578 z m 0,0"
     id="path347" />
  <path
     fill-rule="nonzero"
     fill="#000000"
     fill-opacity="1"
     d="m 105.17188,111.13672 c 0,-3.01953 -1.40625,-4.86328 -4.07422,-4.86328 -2.546879,0 -4.101566,2.19531 -4.101566,5.24219 0,3.13671 1.613281,5.07031 4.367186,5.07031 1.375,0 2.46094,-0.46875 3.42578,-1.23047 l -0.73047,-1.05469 c -0.85156,0.61328 -1.58203,0.87891 -2.57812,0.87891 -1.40625,0 -2.460939,-0.87891 -2.63672,-3.16406 h 6.26953 c 0.0273,-0.23438 0.0586,-0.5586 0.0586,-0.87891 z m -1.73047,-0.38281 h -4.59766 c 0.117188,-2.19532 0.996094,-3.10547 2.28516,-3.10547 1.55078,0 2.3125,1.05469 2.3125,2.98828 z m 0,0"
     id="path349" />
  <path
     fill-rule="nonzero"
     fill="#000000"
     fill-opacity="1"
     d="m 264.03516,106.88281 h -6.65235 v 1.46485 h 4.6875 l -5.125,7.08984 v 1.28906 h 6.94141 l 0.20703,-1.4375 h -5.21484 l 5.15625,-7.11718 z m 0,0"
     id="path351" />
  <path
     fill-rule="nonzero"
     fill="#000000"
     fill-opacity="1"
     d="m 273.67969,111.51172 c 0,-3.01953 -1.40625,-4.86328 -4.07032,-4.86328 -2.55078,0 -4.10156,2.19531 -4.10156,5.24219 0,3.13671 1.60938,5.07031 4.36328,5.07031 1.37891,0 2.46094,-0.46875 3.42969,-1.23047 l -0.73437,-1.05469 c -0.84766,0.61328 -1.58204,0.87891 -2.57813,0.87891 -1.40625,0 -2.46094,-0.87891 -2.63672,-3.16406 h 6.26953 c 0.0312,-0.23438 0.0586,-0.5586 0.0586,-0.87891 z m -1.72657,-0.38281 h -4.60156 c 0.11719,-2.19532 0.9961,-3.10547 2.28516,-3.10547 1.55469,0 2.3164,1.05469 2.3164,2.98828 z m 0,0"
     id="path353" />
  <path
     fill-rule="nonzero"
     fill="#000000"
     fill-opacity="1"
     d="m 280.62109,106.64844 c -1.20312,0 -2.10937,0.76172 -2.63672,2.22656 l -0.17578,-1.99219 h -1.46484 v 9.84375 h 1.69922 v -5.625 c 0.41015,-1.875 1.14062,-2.7539 2.37109,-2.7539 0.35156,0 0.5586,0.0273 0.85156,0.0859 l 0.32032,-1.66796 c -0.29297,-0.0898 -0.64453,-0.11719 -0.96485,-0.11719 z m 0,0"
     id="path355" />
  <path
     fill-rule="nonzero"
     fill="#000000"
     fill-opacity="1"
     d="m 286.875,106.64844 c -2.8125,0 -4.42578,2.10937 -4.42578,5.15625 0,3.13281 1.61328,5.15625 4.39453,5.15625 2.78516,0 4.39453,-2.10938 4.39453,-5.15625 0,-3.13672 -1.55078,-5.15625 -4.36328,-5.15625 z m 0,1.375 c 1.60937,0 2.51953,1.20312 2.51953,3.78125 0,2.57812 -0.91016,3.75 -2.55078,3.75 -1.64063,0 -2.51953,-1.17188 -2.51953,-3.75 0,-2.57813 0.91015,-3.78125 2.55078,-3.78125 z m 0,0"
     id="path357" />
  <path
     fill-rule="nonzero"
     fill="#000000"
     fill-opacity="1"
     d="m 298.39844,115.14453 c -0.5,0.26172 -0.87891,0.37891 -1.32032,0.37891 -0.84765,0 -1.17187,-0.46875 -1.17187,-1.46485 v -5.85937 h 2.16797 l 0.17578,-1.31641 h -2.34375 v -2.43359 l -1.72656,0.20703 v 2.22656 h -1.69922 v 1.31641 h 1.69922 v 5.94922 c 0,1.8164 0.99609,2.8125 2.66406,2.8125 0.85156,0 1.55469,-0.23438 2.19922,-0.67578 z m 0,0"
     id="path359" />
  <path
     fill-rule="nonzero"
     fill="#000000"
     fill-opacity="1"
     d="m 305.40625,106.64844 c -1.23047,0 -2.19922,0.61328 -2.92969,1.58203 V 102.75 l -1.69922,0.17578 v 13.80078 h 1.69922 v -7.0039 c 0.67188,-1.02344 1.4336,-1.72657 2.48828,-1.72657 0.9375,0 1.58203,0.4375 1.58203,1.90235 v 6.82812 h 1.73047 v -7.0625 c 0,-1.84375 -1.08593,-3.01562 -2.87109,-3.01562 z m 0,0"
     id="path361" />
  <path
     fill-rule="nonzero"
     fill="#000000"
     fill-opacity="1"
     d="m 319.26562,106.64844 c -2.05078,0 -3.54296,1.14062 -3.54296,2.72265 0,1.37891 0.82031,2.28516 2.95703,2.84375 1.90625,0.4961 2.40234,0.87891 2.40234,1.84375 0,0.9375 -0.82031,1.4961 -2.10937,1.4961 -1.08204,0 -1.99219,-0.35156 -2.78125,-0.9375 l -0.91016,1.05469 c 0.85156,0.73046 2.05078,1.28906 3.72266,1.28906 1.99218,0 3.89453,-0.9375 3.89453,-2.98828 0,-1.73047 -1.19922,-2.55078 -3.28125,-3.07813 -1.58203,-0.41015 -2.10938,-0.78906 -2.10938,-1.58203 0,-0.78906 0.67578,-1.28906 1.81641,-1.28906 0.91015,0 1.67187,0.26562 2.55078,0.82031 l 0.73047,-1.08203 c -0.9375,-0.70313 -1.96094,-1.11328 -3.33985,-1.11328 z m 0,0"
     id="path363" />
  <path
     fill-rule="nonzero"
     fill="#000000"
     fill-opacity="1"
     d="m 326.08594,102.13672 c -0.70313,0 -1.17188,0.52734 -1.17188,1.19922 0,0.64453 0.46875,1.14453 1.17188,1.14453 0.73437,0 1.23047,-0.5 1.23047,-1.14453 0,-0.67188 -0.4961,-1.19922 -1.23047,-1.19922 z m 0.8789,4.74609 h -1.69922 v 9.84375 h 1.69922 z m 0,0"
     id="path365" />
  <path
     fill-rule="nonzero"
     fill="#000000"
     fill-opacity="1"
     d="m 334.78516,115.14453 c -0.4961,0.26172 -0.87891,0.37891 -1.31641,0.37891 -0.85156,0 -1.17188,-0.46875 -1.17188,-1.46485 v -5.85937 h 2.16797 l 0.17578,-1.31641 h -2.34375 v -2.43359 l -1.73046,0.20703 v 2.22656 h -1.69922 v 1.31641 h 1.69922 v 5.94922 c 0,1.8164 0.99609,2.8125 2.66796,2.8125 0.84766,0 1.55079,-0.23438 2.19532,-0.67578 z m 0,0"
     id="path367" />
  <path
     fill-rule="nonzero"
     fill="#000000"
     fill-opacity="1"
     d="m 344.38281,111.51172 c 0,-3.01953 -1.40625,-4.86328 -4.07031,-4.86328 -2.55078,0 -4.10156,2.19531 -4.10156,5.24219 0,3.13671 1.60937,5.07031 4.36328,5.07031 1.3789,0 2.46094,-0.46875 3.42969,-1.23047 l -0.73438,-1.05469 c -0.84766,0.61328 -1.58203,0.87891 -2.57812,0.87891 -1.40625,0 -2.46094,-0.87891 -2.63672,-3.16406 h 6.26953 c 0.0312,-0.23438 0.0586,-0.5586 0.0586,-0.87891 z m -1.72656,-0.38281 h -4.60156 c 0.11718,-2.19532 0.99609,-3.10547 2.28515,-3.10547 1.55469,0 2.31641,1.05469 2.31641,2.98828 z m 0,0"
     id="path369" />
  <path
     fill-rule="nonzero"
     fill="#b0b0b0"
     fill-opacity="1"
     d="m 472.125,48.289062 c 0,22.09375 -17.91016,40 -40,40 -22.09375,0 -40,-17.90625 -40,-40 0,-22.089843 17.90625,-40 40,-40 22.08984,0 40,17.910157 40,40 z m 0,0"
     id="path393"
     style="fill:#606060;fill-opacity:1" />
  <path
     fill-rule="nonzero"
     fill="#b0b0b0"
     fill-opacity="1"
     d="m 597.125,48.289062 c 0,22.09375 -17.91016,40 -40,40 -22.09375,0 -40,-17.90625 -40,-40 0,-22.089843 17.90625,-40 40,-40 22.08984,0 40,17.910157 40,40 z m 0,0"
     id="path395"
     style="fill:#606060;fill-opacity:1" />
  <g
     id="g9288"
     transform="translate(-12,4.5)">
    <path
       fill-rule="nonzero"
       fill="#000000"
       fill-opacity="1"
       d="m 143.42187,62.179688 c 0.22266,-0.933594 0.3125,-1.203126 1.8711,-1.203126 0.44531,0 0.75781,0 0.75781,-0.53125 0,-0.269531 -0.17969,-0.359374 -0.40234,-0.359374 -0.71094,0 -2.44922,0.08984 -3.16016,0.08984 -0.93359,0 -3.25,-0.08984 -4.18359,-0.08984 -0.22266,0 -0.58203,0 -0.58203,0.582031 0,0.308593 0.22265,0.308593 0.98046,0.308593 0.625,0 0.9336,0 1.64844,0.04688 0.66797,0.08594 0.84375,0.175781 0.84375,0.578124 0,0.175782 -0.043,0.355469 -0.0859,0.578126 l -3.29691,13.04687 C 137.14453,77.988281 135.23047,79.5 133.76172,79.5 c -0.75781,0 -2.27344,-0.265625 -2.71485,-1.78125 0.0859,0.04687 0.26563,0.04687 0.35547,0.04687 1.11328,0 1.82422,-0.980469 1.82422,-1.828125 0,-0.890625 -0.75781,-1.199219 -1.24609,-1.199219 -0.49219,0 -1.91406,0.355469 -1.91406,2.269531 0,1.78125 1.51171,3.117188 3.78515,3.117188 2.58203,0 5.56641,-1.871094 6.27735,-4.675781 z m 0,0"
       id="path371" />
    <path
       fill-rule="nonzero"
       fill="#000000"
       fill-opacity="1"
       d="m 164.41797,55.402344 c -0.40235,0.402344 -1.33594,1.203125 -1.33594,1.691406 0,0.269531 0.26563,0.578125 0.53125,0.578125 0.26953,0 0.40234,-0.222656 0.58203,-0.398437 0.3086,-0.402344 0.97656,-1.203126 2.22656,-1.828126 0.17579,-0.132812 0.48829,-0.265624 0.48829,-0.578124 0,-0.3125 -0.22266,-0.445313 -0.40235,-0.578126 -0.62109,-0.445312 -0.93359,-0.933593 -1.15625,-1.601562 -0.0898,-0.269531 -0.17969,-0.667969 -0.57812,-0.667969 -0.40235,0 -0.57813,0.398438 -0.57813,0.621094 0,0.132813 0.22266,1.023437 0.66797,1.648437 h -9.57422 c -0.44531,0 -0.98047,0 -0.98047,0.578126 0,0.535156 0.53516,0.535156 0.98047,0.535156 z m 0,0"
       id="path373" />
    <path
       fill-rule="nonzero"
       fill="#000000"
       fill-opacity="1"
       d="m 164.88281,59.777344 c 0,-0.08984 -0.0898,-0.3125 -0.35937,-0.3125 -0.13282,0 -0.13282,0.04297 -0.48828,0.445312 l -1.37891,1.601563 c -0.71484,-1.335938 -2.18359,-2.046875 -4.05469,-2.046875 -3.60547,0 -6.98828,3.292968 -6.98828,6.722656 0,2.269531 1.46875,3.605469 2.9375,4.007812 l 3.02734,0.800782 c 1.07032,0.265625 2.62891,0.710937 2.62891,3.027344 0,2.539062 -2.31641,5.210937 -5.12109,5.210937 -1.82422,0 -4.98828,-0.625 -4.98828,-4.140625 0,-0.667969 0.17968,-1.382812 0.17968,-1.515625 0.043,-0.132813 0.043,-0.175781 0.043,-0.222656 0,-0.265625 -0.17578,-0.3125 -0.3125,-0.3125 -0.13281,0 -0.22265,0.04687 -0.30859,0.136719 -0.0898,0.08594 -1.69531,6.589843 -1.69531,6.675781 0,0.136719 0.13671,0.269531 0.3125,0.269531 0.13281,0 0.17968,-0.04687 0.53515,-0.445312 l 1.37891,-1.605469 c 1.20312,1.648437 3.16406,2.050781 4.8125,2.050781 3.87109,0 7.21094,-3.785156 7.21094,-7.304688 0,-1.957031 -0.98047,-2.9375 -1.37891,-3.339843 -0.66797,-0.621094 -1.11328,-0.753907 -3.60938,-1.378907 -0.66796,-0.175781 -1.64453,-0.488281 -1.91406,-0.535156 -0.7539,-0.265625 -1.73437,-1.066406 -1.73437,-2.582031 0,-2.316406 2.26953,-4.71875 4.98437,-4.71875 2.31641,0 4.05469,1.246094 4.05469,4.40625 0,0.890625 -0.0898,1.425781 -0.0898,1.605469 0,0 0,0.265625 0.3125,0.265625 0.3125,0 0.35546,-0.08984 0.44531,-0.578125 z m 0,0"
       id="path375" />
    <path
       fill-rule="nonzero"
       fill="#000000"
       fill-opacity="1"
       d="m 175.30078,70.578125 c 0,-0.04297 0.043,-0.3125 0.043,-0.3125 0,-0.132813 -0.043,-0.308594 -0.3125,-0.308594 -0.39844,0 -2.04688,0.175781 -2.53516,0.222657 -0.13672,0 -0.44531,0.04297 -0.44531,0.441406 0,0.269531 0.30859,0.269531 0.53125,0.269531 0.9375,0 0.9375,0.175781 0.9375,0.3125 0,0.132813 0,0.265625 -0.0469,0.445313 l -1.15625,4.539062 c -0.40235,-0.667969 -1.07032,-1.199219 -2.04688,-1.199219 -2.53906,0 -5.12109,2.804688 -5.12109,5.652344 0,1.960937 1.28906,3.296875 3.02734,3.296875 1.07031,0 2.00391,-0.578125 2.80469,-1.382812 0.35547,1.203124 1.51562,1.382812 2.04687,1.382812 0.71485,0 1.20313,-0.402344 1.5586,-1.023438 0.44531,-0.804687 0.71484,-1.917968 0.71484,-2.003906 0,-0.269531 -0.26953,-0.269531 -0.3125,-0.269531 -0.3125,0 -0.3125,0.08984 -0.44531,0.625 -0.26563,0.980469 -0.625,2.136719 -1.46875,2.136719 -0.49219,0 -0.66797,-0.445313 -0.66797,-0.980469 0,-0.355469 0.043,-0.535156 0.13281,-0.800781 z m -4.23047,10.6875 c -0.13281,0.578125 -0.57812,0.980469 -1.02344,1.335937 -0.17968,0.175782 -0.98046,0.800782 -1.82812,0.800782 -0.75391,0 -1.46875,-0.535156 -1.46875,-1.914063 0,-1.070312 0.57812,-3.25 1.07031,-4.050781 0.89063,-1.605469 1.91406,-1.871094 2.44922,-1.871094 1.37891,0 1.78125,1.511719 1.78125,1.734375 0,0.04687 -0.0469,0.222657 -0.0469,0.269531 z m 0,0"
       id="path377" />
    <path
       fill-rule="nonzero"
       fill="#000000"
       fill-opacity="1"
       d="m 188.92578,72.375 c 0,-0.800781 -0.66797,-1.46875 -1.47266,-1.46875 -0.84375,0 -1.51171,0.667969 -1.51171,1.46875 0,0.847656 0.66796,1.515625 1.51171,1.515625 0.80469,0 1.47266,-0.667969 1.47266,-1.515625 z m 0,0"
       id="path379" />
    <path
       fill-rule="nonzero"
       fill="#000000"
       fill-opacity="1"
       d="m 215.57031,55.402344 c -0.40234,0.402344 -1.33594,1.203125 -1.33594,1.691406 0,0.269531 0.26563,0.578125 0.53516,0.578125 0.26563,0 0.39844,-0.222656 0.57813,-0.398437 0.3125,-0.402344 0.98046,-1.203126 2.22656,-1.828126 0.17578,-0.132812 0.48828,-0.265624 0.48828,-0.578124 0,-0.3125 -0.22266,-0.445313 -0.39844,-0.578126 -0.625,-0.445312 -0.9375,-0.933593 -1.16015,-1.601562 -0.0898,-0.269531 -0.17579,-0.667969 -0.57813,-0.667969 -0.40234,0 -0.57812,0.398438 -0.57812,0.621094 0,0.132813 0.22265,1.023437 0.66796,1.648437 h -9.57421 c -0.44532,0 -0.98047,0 -0.98047,0.578126 0,0.535156 0.53515,0.535156 0.98047,0.535156 z m 0,0"
       id="path381" />
    <path
       fill-rule="nonzero"
       fill="#000000"
       fill-opacity="1"
       d="m 216.03516,59.777344 c 0,-0.08984 -0.0898,-0.3125 -0.35547,-0.3125 -0.13672,0 -0.13672,0.04297 -0.49219,0.445312 l -1.37891,1.601563 c -0.71484,-1.335938 -2.18359,-2.046875 -4.05078,-2.046875 -3.60937,0 -6.99219,3.292968 -6.99219,6.722656 0,2.269531 1.46875,3.605469 2.9375,4.007812 l 3.02735,0.800782 c 1.07031,0.265625 2.6289,0.710937 2.6289,3.027344 0,2.539062 -2.3164,5.210937 -5.12109,5.210937 -1.82422,0 -4.98828,-0.625 -4.98828,-4.140625 0,-0.667969 0.17969,-1.382812 0.17969,-1.515625 0.043,-0.132813 0.043,-0.175781 0.043,-0.222656 0,-0.265625 -0.17579,-0.3125 -0.3086,-0.3125 -0.13672,0 -0.22265,0.04687 -0.3125,0.136719 -0.0898,0.08594 -1.6914,6.589843 -1.6914,6.675781 0,0.136719 0.13281,0.269531 0.30859,0.269531 0.13672,0 0.17969,-0.04687 0.53516,-0.445312 l 1.38281,-1.605469 c 1.19922,1.648437 3.16015,2.050781 4.80859,2.050781 3.8711,0 7.21094,-3.785156 7.21094,-7.304688 0,-1.957031 -0.98047,-2.9375 -1.37891,-3.339843 -0.66797,-0.621094 -1.11328,-0.753907 -3.60547,-1.378907 -0.66796,-0.175781 -1.64843,-0.488281 -1.91796,-0.535156 C 205.75,67.300781 204.76953,66.5 204.76953,64.984375 c 0,-2.316406 2.26953,-4.71875 4.98828,-4.71875 2.3125,0 4.05078,1.246094 4.05078,4.40625 0,0.890625 -0.0898,1.425781 -0.0898,1.605469 0,0 0,0.265625 0.3125,0.265625 0.3125,0 0.35547,-0.08984 0.44531,-0.578125 z m 0,0"
       id="path383" />
    <path
       fill-rule="nonzero"
       fill="#000000"
       fill-opacity="1"
       d="m 225.33984,77.4375 c 0,-2.183594 -0.26953,-3.785156 -1.16015,-5.167969 -0.6211,-0.890625 -1.86719,-1.691406 -3.42578,-1.691406 -4.63282,0 -4.63282,5.433594 -4.63282,6.859375 0,1.421875 0,6.722656 4.63282,6.722656 4.58593,0 4.58593,-5.300781 4.58593,-6.722656 z m -4.58593,6.144531 c -0.9375,0 -2.13672,-0.535156 -2.53907,-2.140625 -0.26562,-1.15625 -0.26562,-2.804687 -0.26562,-4.273437 0,-1.46875 0,-2.984375 0.26562,-4.050781 0.44532,-1.558594 1.69141,-2.003907 2.53907,-2.003907 1.0664,0 2.09375,0.667969 2.44921,1.824219 0.3125,1.070312 0.35547,2.496094 0.35547,4.230469 0,1.46875 0,2.9375 -0.26562,4.1875 -0.40235,1.824219 -1.73828,2.226562 -2.53906,2.226562 z m 0,0"
       id="path385" />
  </g>
  <path
     fill-rule="nonzero"
     fill="#000000"
     fill-opacity="1"
     d="m 403.83594,102.69141 c 0.52734,0 1.0039,0.0586 1.4375,0.17578 0.42578,0.11719 0.85547,0.28515 1.28906,0.5 l -0.58594,1.19922 c -0.64453,-0.3086 -1.33984,-0.46875 -2.08203,-0.46875 -0.66406,0 -1.125,0.13281 -1.375,0.38281 -0.23437,0.23437 -0.35156,0.59766 -0.35156,1.08203 v 1.32031 h 5.47656 v 9.84375 h -1.69922 v -8.52734 h -3.77734 v 8.52734 h -1.73047 v -8.52734 h -1.58203 v -1.31641 h 1.58203 v -1.28906 c 0,-0.87891 0.27344,-1.58203 0.82031,-2.10937 0.56641,-0.52735 1.42188,-0.79297 2.57813,-0.79297 z m 0,0"
     id="path407" />
  <path
     fill-rule="nonzero"
     fill="#000000"
     fill-opacity="1"
     d="m 415.48437,106.64844 c 0.35157,0 0.67579,0.043 0.96875,0.11719 l -0.32421,1.66796 c -0.29297,-0.0586 -0.57813,-0.0859 -0.84766,-0.0859 -0.63281,0 -1.12891,0.22656 -1.49609,0.67187 -0.3711,0.4336 -0.66407,1.12891 -0.87891,2.08203 v 5.625 h -1.69922 v -9.84375 h 1.46484 l 0.17579,1.99219 c 0.25,-0.74219 0.60156,-1.29687 1.05468,-1.67187 0.44922,-0.36719 0.97657,-0.55469 1.58203,-0.55469 z m 0,0"
     id="path409" />
  <path
     fill-rule="nonzero"
     fill="#000000"
     fill-opacity="1"
     d="m 420.82422,106.64844 c 0.66015,0 1.26172,0.10156 1.78906,0.29297 0.53906,0.17578 1.05859,0.45312 1.55078,0.82031 l -0.73047,1.08203 c -0.45703,-0.26953 -0.8789,-0.47656 -1.28906,-0.61328 -0.39844,-0.13281 -0.81641,-0.20703 -1.26172,-0.20703 -0.57031,0 -1.01953,0.11719 -1.34765,0.35156 -0.31641,0.21875 -0.46875,0.52734 -0.46875,0.9375 0,0.39453 0.14843,0.70313 0.4414,0.9375 0.30469,0.21875 0.86328,0.43359 1.66797,0.64453 1.08984,0.27735 1.91016,0.64453 2.46094,1.11328 0.54297,0.46875 0.82031,1.12891 0.82031,1.96485 0,0.95703 -0.37891,1.69922 -1.14062,2.22656 -0.76172,0.51172 -1.6875,0.76172 -2.75391,0.76172 -1.51172,0 -2.75,-0.42578 -3.72266,-1.28906 l 0.91016,-1.05469 c 0.83203,0.6289 1.76172,0.9375 2.78125,0.9375 0.64453,0 1.14844,-0.125 1.52344,-0.38281 0.38672,-0.26954 0.58593,-0.64454 0.58593,-1.11329 0,-0.32812 -0.0742,-0.59375 -0.20312,-0.78906 -0.14063,-0.21484 -0.38281,-0.39844 -0.73438,-0.55859 -0.33593,-0.15235 -0.82031,-0.32031 -1.46484,-0.4961 -1.05469,-0.27343 -1.81641,-0.63281 -2.28516,-1.08593 -0.45312,-0.46875 -0.67187,-1.05469 -0.67187,-1.75782 0,-0.52734 0.14453,-0.99609 0.4375,-1.40625 0.30859,-0.41015 0.73437,-0.73046 1.26172,-0.96484 0.53906,-0.23437 1.15625,-0.35156 1.84375,-0.35156 z m 0,0"
     id="path411" />
  <path
     fill-rule="nonzero"
     fill="#000000"
     fill-opacity="1"
     d="m 431.83203,116.28516 c -0.64453,0.44922 -1.375,0.67578 -2.19531,0.67578 -0.84375,0 -1.4961,-0.23438 -1.96485,-0.70313 -0.46875,-0.48437 -0.70312,-1.1875 -0.70312,-2.10937 v -5.94922 h -1.69922 v -1.31641 h 1.69922 v -2.22656 l 1.73047,-0.20703 v 2.43359 h 2.34375 l -0.17578,1.31641 h -2.16797 v 5.85937 c 0,0.52735 0.0859,0.91016 0.26172,1.14454 0.1914,0.21875 0.5,0.32031 0.91015,0.32031 0.38672,0 0.82422,-0.125 1.31641,-0.37891 z m 0,0"
     id="path413" />
  <path
     fill-rule="nonzero"
     fill="#000000"
     fill-opacity="1"
     d="m 441.22266,106.64844 c 0.66015,0 1.25781,0.10156 1.78515,0.29297 0.54297,0.17578 1.0625,0.45312 1.55469,0.82031 l -0.73438,1.08203 c -0.45312,-0.26953 -0.8789,-0.47656 -1.28906,-0.61328 -0.39453,-0.13281 -0.8125,-0.20703 -1.25781,-0.20703 -0.57031,0 -1.01953,0.11719 -1.34766,0.35156 -0.3164,0.21875 -0.46875,0.52734 -0.46875,0.9375 0,0.39453 0.14453,0.70313 0.4375,0.9375 0.3086,0.21875 0.86719,0.43359 1.67188,0.64453 1.08984,0.27735 1.91015,0.64453 2.46094,1.11328 0.54296,0.46875 0.82031,1.12891 0.82031,1.96485 0,0.95703 -0.38281,1.69922 -1.14453,2.22656 -0.76172,0.51172 -1.6836,0.76172 -2.75391,0.76172 -1.50781,0 -2.74609,-0.42578 -3.71875,-1.28906 l 0.90625,-1.05469 c 0.83594,0.6289 1.76563,0.9375 2.78516,0.9375 0.64453,0 1.14843,-0.125 1.52343,-0.38281 0.38672,-0.26954 0.58594,-0.64454 0.58594,-1.11329 0,-0.32812 -0.0742,-0.59375 -0.20703,-0.78906 -0.13672,-0.21484 -0.37891,-0.39844 -0.73047,-0.55859 -0.33594,-0.15235 -0.82031,-0.32031 -1.46484,-0.4961 -1.05469,-0.27343 -1.81641,-0.63281 -2.28516,-1.08593 -0.45312,-0.46875 -0.67578,-1.05469 -0.67578,-1.75782 0,-0.52734 0.14844,-0.99609 0.44141,-1.40625 0.30859,-0.41015 0.73047,-0.73046 1.25781,-0.96484 0.54297,-0.23437 1.16016,-0.35156 1.84766,-0.35156 z m 0,0"
     id="path415" />
  <path
     fill-rule="nonzero"
     fill="#000000"
     fill-opacity="1"
     d="m 448.97656,106.88281 v 9.84375 h -1.69922 v -9.84375 z m -0.8789,-4.74609 c 0.36718,0 0.66015,0.11719 0.8789,0.35156 0.23438,0.21875 0.35156,0.4961 0.35156,0.84766 0,0.33594 -0.11718,0.60937 -0.35156,0.82031 -0.21875,0.21875 -0.51172,0.32422 -0.8789,0.32422 -0.33594,0 -0.61329,-0.10547 -0.84766,-0.32422 -0.21875,-0.21094 -0.32422,-0.48437 -0.32422,-0.82031 0,-0.35156 0.10547,-0.62891 0.32422,-0.84766 0.23437,-0.23437 0.51172,-0.35156 0.84766,-0.35156 z m 0,0"
     id="path417" />
  <path
     fill-rule="nonzero"
     fill="#000000"
     fill-opacity="1"
     d="m 457.5,116.28516 c -0.64453,0.44922 -1.37891,0.67578 -2.19922,0.67578 -0.83984,0 -1.49219,-0.23438 -1.96094,-0.70313 -0.46875,-0.48437 -0.70312,-1.1875 -0.70312,-2.10937 v -5.94922 h -1.69922 v -1.31641 h 1.69922 v -2.22656 l 1.72656,-0.20703 v 2.43359 h 2.34375 l -0.17578,1.31641 h -2.16797 v 5.85937 c 0,0.52735 0.0898,0.91016 0.26563,1.14454 0.1914,0.21875 0.49609,0.32031 0.90625,0.32031 0.39062,0 0.82812,-0.125 1.32031,-0.37891 z m 0,0"
     id="path419" />
  <path
     fill-rule="nonzero"
     fill="#000000"
     fill-opacity="1"
     d="m 466.47266,111.51172 c 0,0.29297 -0.0234,0.58594 -0.0586,0.87891 h -6.26953 c 0.0703,1.07421 0.35156,1.875 0.82031,2.40234 0.46875,0.51172 1.06641,0.76172 1.81641,0.76172 0.48047,0 0.92187,-0.0664 1.31641,-0.20703 0.41015,-0.13282 0.82812,-0.35938 1.26171,-0.67188 l 0.73047,1.05469 c -1.03906,0.82031 -2.18359,1.23047 -3.42578,1.23047 -1.37109,0 -2.44922,-0.44922 -3.22265,-1.34766 -0.76172,-0.89453 -1.14454,-2.14062 -1.14454,-3.72265 0,-1.01172 0.16016,-1.91016 0.5,-2.69532 0.32813,-0.79687 0.79688,-1.42187 1.40625,-1.875 0.6211,-0.44531 1.35157,-0.67187 2.19532,-0.67187 1.30468,0 2.3164,0.42969 3.01953,1.28906 0.70312,0.86328 1.05469,2.05078 1.05469,3.57422 z m -1.73047,-0.5 c 0,-0.97266 -0.19922,-1.71484 -0.58594,-2.22656 -0.375,-0.50391 -0.95313,-0.76172 -1.72656,-0.76172 -1.40625,0 -2.16797,1.03906 -2.28516,3.10547 h 4.59766 z m 0,0"
     id="path421" />
  <path
     fill-rule="nonzero"
     fill="#000000"
     fill-opacity="1"
     d="m 519.8125,106.64844 c 0.66016,0 1.26172,0.10156 1.78906,0.29297 0.54297,0.17578 1.0625,0.45312 1.55078,0.82031 l -0.73047,1.08203 c -0.45312,-0.26953 -0.8789,-0.47656 -1.28906,-0.61328 -0.39453,-0.13281 -0.8125,-0.20703 -1.26172,-0.20703 -0.57031,0 -1.01562,0.11719 -1.34765,0.35156 -0.3125,0.21875 -0.46875,0.52734 -0.46875,0.9375 0,0.39453 0.14843,0.70313 0.4414,0.9375 0.3086,0.21875 0.86328,0.43359 1.66797,0.64453 1.09375,0.27735 1.91406,0.64453 2.46094,1.11328 0.54297,0.46875 0.82031,1.12891 0.82031,1.96485 0,0.95703 -0.3789,1.69922 -1.14062,2.22656 -0.76172,0.51172 -1.6836,0.76172 -2.75391,0.76172 -1.50781,0 -2.74609,-0.42578 -3.72266,-1.28906 l 0.91016,-1.05469 c 0.83594,0.6289 1.76563,0.9375 2.78125,0.9375 0.64453,0 1.15234,-0.125 1.52344,-0.38281 0.39062,-0.26954 0.58594,-0.64454 0.58594,-1.11329 0,-0.32812 -0.0703,-0.59375 -0.20313,-0.78906 -0.14062,-0.21484 -0.38281,-0.39844 -0.73437,-0.55859 -0.33594,-0.15235 -0.82032,-0.32031 -1.46485,-0.4961 -1.05469,-0.27343 -1.8164,-0.63281 -2.28515,-1.08593 -0.45313,-0.46875 -0.67188,-1.05469 -0.67188,-1.75782 0,-0.52734 0.14453,-0.99609 0.4375,-1.40625 0.30859,-0.41015 0.73438,-0.73046 1.26172,-0.96484 0.54297,-0.23437 1.15625,-0.35156 1.84375,-0.35156 z m 0,0"
     id="path423" />
  <path
     fill-rule="nonzero"
     fill="#000000"
     fill-opacity="1"
     d="m 533.3125,111.51172 c 0,0.29297 -0.0195,0.58594 -0.0586,0.87891 h -6.26954 c 0.0742,1.07421 0.35157,1.875 0.82032,2.40234 0.46875,0.51172 1.07031,0.76172 1.8164,0.76172 0.48438,0 0.92578,-0.0664 1.32032,-0.20703 0.41015,-0.13282 0.82812,-0.35938 1.25781,-0.67188 l 0.73437,1.05469 c -1.03906,0.82031 -2.18359,1.23047 -3.42968,1.23047 -1.36719,0 -2.44532,-0.44922 -3.22266,-1.34766 -0.76172,-0.89453 -1.14063,-2.14062 -1.14063,-3.72265 0,-1.01172 0.16016,-1.91016 0.4961,-2.69532 0.33203,-0.79687 0.80078,-1.42187 1.40625,-1.875 0.625,-0.44531 1.35547,-0.67187 2.19922,-0.67187 1.30468,0 2.3125,0.42969 3.01562,1.28906 0.70313,0.86328 1.05469,2.05078 1.05469,3.57422 z m -1.72656,-0.5 c 0,-0.97266 -0.19922,-1.71484 -0.58594,-2.22656 -0.375,-0.50391 -0.95313,-0.76172 -1.73047,-0.76172 -1.40625,0 -2.16797,1.03906 -2.28516,3.10547 h 4.60157 z m 0,0"
     id="path425" />
  <path
     fill-rule="nonzero"
     fill="#000000"
     fill-opacity="1"
     d="m 539.625,106.64844 c 0.58594,0 1.12109,0.0859 1.61328,0.26172 0.48438,0.16015 0.95313,0.42578 1.40625,0.79297 l -0.82031,1.08203 c -0.35156,-0.23438 -0.69531,-0.41016 -1.02735,-0.52735 -0.33593,-0.11718 -0.69531,-0.17578 -1.08203,-0.17578 -0.80468,0 -1.42968,0.32422 -1.875,0.96875 -0.43359,0.62891 -0.64453,1.55078 -0.64453,2.78125 0,1.25391 0.21094,2.1836 0.64453,2.78516 0.42578,0.58594 1.05469,0.8789 1.875,0.8789 0.36719,0 0.71875,-0.0586 1.05469,-0.17578 0.32813,-0.11718 0.6875,-0.30859 1.08203,-0.58593 l 0.79297,1.14062 c -0.90234,0.72656 -1.90625,1.08594 -3.01953,1.08594 -1.33203,0 -2.38672,-0.44922 -3.16406,-1.34766 -0.76172,-0.89453 -1.14063,-2.14062 -1.14063,-3.72265 0,-1.05469 0.17578,-1.96875 0.52735,-2.75391 0.35156,-0.77734 0.84765,-1.38281 1.49218,-1.81641 0.64453,-0.44531 1.40625,-0.67187 2.28516,-0.67187 z m 0,0"
     id="path427" />
  <path
     fill-rule="nonzero"
     fill="#000000"
     fill-opacity="1"
     d="m 548.31641,106.64844 c 1.38671,0 2.46093,0.46875 3.22265,1.40625 0.76172,0.92187 1.14453,2.16797 1.14453,3.75 0,1.01562 -0.17578,1.91797 -0.52734,2.69531 -0.35156,0.78125 -0.86328,1.39063 -1.52344,1.81641 -0.64453,0.42187 -1.42969,0.64453 -2.34375,0.64453 -1.39062,0 -2.47656,-0.45703 -3.2539,-1.37891 -0.76172,-0.9375 -1.14063,-2.19531 -1.14063,-3.77734 0,-1.01172 0.17578,-1.91406 0.52734,-2.69531 0.35157,-0.77735 0.85547,-1.38672 1.52344,-1.81641 0.66016,-0.42578 1.44922,-0.64453 2.3711,-0.64453 z m 0,1.375 c -1.69922,0 -2.54688,1.26172 -2.54688,3.78125 0,2.5039 0.83594,3.75 2.51953,3.75 1.69922,0 2.54688,-1.2461 2.54688,-3.75 0,-2.51953 -0.83985,-3.78125 -2.51953,-3.78125 z m 0,0"
     id="path429" />
  <path
     fill-rule="nonzero"
     fill="#000000"
     fill-opacity="1"
     d="m 560.16406,106.64844 c 0.89453,0 1.58985,0.27734 2.08203,0.82031 0.50391,0.52734 0.76172,1.25781 0.76172,2.19531 v 7.0625 h -1.69922 v -6.82812 c 0,-0.70313 -0.14062,-1.1875 -0.41015,-1.46485 -0.25782,-0.29296 -0.64063,-0.4375 -1.14453,-0.4375 -0.52735,0 -0.9961,0.16016 -1.40625,0.46875 -0.39454,0.29297 -0.76172,0.71485 -1.11329,1.25782 v 7.0039 h -1.69921 v -9.84375 H 557 l 0.14844,1.46485 c 0.35156,-0.52735 0.77343,-0.9375 1.28906,-1.23047 0.52734,-0.3086 1.09766,-0.46875 1.72656,-0.46875 z m 0,0"
     id="path431" />
  <path
     fill-rule="nonzero"
     fill="#000000"
     fill-opacity="1"
     d="m 574.09766,102.92578 v 13.80078 h -1.52344 l -0.17578,-1.3789 c -0.3125,0.51172 -0.71485,0.91015 -1.19922,1.20312 -0.49219,0.26953 -1.02735,0.41016 -1.61328,0.41016 -1.17188,0 -2.09375,-0.45703 -2.75391,-1.37891 -0.64453,-0.9375 -0.96484,-2.18359 -0.96484,-3.75 0,-0.99609 0.14453,-1.88281 0.4375,-2.66406 0.30859,-0.80078 0.76172,-1.41406 1.34765,-1.84766 0.58594,-0.44531 1.27735,-0.67187 2.08203,-0.67187 0.9961,0 1.875,0.41015 2.63672,1.23047 v -5.1875 z m -4.16016,12.65625 c 0.52734,0 0.97656,-0.11719 1.34766,-0.35156 0.36718,-0.25 0.73437,-0.62109 1.08593,-1.11328 v -4.80469 c -0.3164,-0.42578 -0.66015,-0.74609 -1.02734,-0.96484 -0.37109,-0.21485 -0.78906,-0.32422 -1.25781,-0.32422 -0.76172,0 -1.34766,0.32422 -1.75782,0.96875 -0.41015,0.6289 -0.61718,1.5664 -0.61718,2.8125 0,1.27344 0.18359,2.21875 0.55859,2.83984 0.38672,0.62891 0.94531,0.9375 1.66797,0.9375 z m 0,0"
     id="path433" />
  <path
     fill-rule="nonzero"
     fill="#000000"
     fill-opacity="1"
     d="m 585.25,106.64844 c 0.66016,0 1.25781,0.10156 1.78906,0.29297 0.53906,0.17578 1.0586,0.45312 1.55078,0.82031 l -0.73047,1.08203 c -0.45703,-0.26953 -0.88281,-0.47656 -1.28906,-0.61328 -0.39844,-0.13281 -0.8164,-0.20703 -1.26172,-0.20703 -0.57031,0 -1.01953,0.11719 -1.34765,0.35156 -0.31641,0.21875 -0.46875,0.52734 -0.46875,0.9375 0,0.39453 0.14843,0.70313 0.4375,0.9375 0.30859,0.21875 0.86718,0.43359 1.67187,0.64453 1.08985,0.27735 1.91016,0.64453 2.46094,1.11328 0.54297,0.46875 0.82031,1.12891 0.82031,1.96485 0,0.95703 -0.38281,1.69922 -1.14062,2.22656 -0.76563,0.51172 -1.6875,0.76172 -2.75782,0.76172 -1.50781,0 -2.74609,-0.42578 -3.71875,-1.28906 l 0.90625,-1.05469 c 0.83594,0.6289 1.76563,0.9375 2.78516,0.9375 0.64453,0 1.14844,-0.125 1.52344,-0.38281 0.38672,-0.26954 0.58594,-0.64454 0.58594,-1.11329 0,-0.32812 -0.0742,-0.59375 -0.20704,-0.78906 -0.13671,-0.21484 -0.3789,-0.39844 -0.73046,-0.55859 -0.33594,-0.15235 -0.82032,-0.32031 -1.46485,-0.4961 -1.05469,-0.27343 -1.8164,-0.63281 -2.28515,-1.08593 -0.45313,-0.46875 -0.67579,-1.05469 -0.67579,-1.75782 0,-0.52734 0.14844,-0.99609 0.44141,-1.40625 0.30859,-0.41015 0.73047,-0.73046 1.26172,-0.96484 0.53906,-0.23437 1.15625,-0.35156 1.84375,-0.35156 z m 0,0"
     id="path435" />
  <path
     fill-rule="nonzero"
     fill="#000000"
     fill-opacity="1"
     d="m 593.00781,106.88281 v 9.84375 h -1.69922 v -9.84375 z m -0.8789,-4.74609 c 0.36718,0 0.66015,0.11719 0.8789,0.35156 0.23438,0.21875 0.35156,0.4961 0.35156,0.84766 0,0.33594 -0.11718,0.60937 -0.35156,0.82031 -0.21875,0.21875 -0.51172,0.32422 -0.8789,0.32422 -0.33594,0 -0.61719,-0.10547 -0.85157,-0.32422 -0.21875,-0.21094 -0.32031,-0.48437 -0.32031,-0.82031 0,-0.35156 0.10156,-0.62891 0.32031,-0.84766 0.23438,-0.23437 0.51563,-0.35156 0.85157,-0.35156 z m 0,0"
     id="path437" />
  <path
     fill-rule="nonzero"
     fill="#000000"
     fill-opacity="1"
     d="m 601.52734,116.28516 c -0.64453,0.44922 -1.3789,0.67578 -2.19922,0.67578 -0.83984,0 -1.49218,-0.23438 -1.96093,-0.70313 -0.46875,-0.48437 -0.70313,-1.1875 -0.70313,-2.10937 v -5.94922 h -1.69922 v -1.31641 h 1.69922 v -2.22656 l 1.72656,-0.20703 v 2.43359 h 2.34375 l -0.17578,1.31641 h -2.16797 v 5.85937 c 0,0.52735 0.0898,0.91016 0.26563,1.14454 0.19141,0.21875 0.49609,0.32031 0.90625,0.32031 0.39062,0 0.82812,-0.125 1.32031,-0.37891 z m 0,0"
     id="path439" />
  <path
     fill-rule="nonzero"
     fill="#000000"
     fill-opacity="1"
     d="m 610.5,111.51172 c 0,0.29297 -0.0234,0.58594 -0.0586,0.87891 h -6.26954 c 0.0703,1.07421 0.35157,1.875 0.82032,2.40234 0.46875,0.51172 1.0664,0.76172 1.8164,0.76172 0.48047,0 0.92188,-0.0664 1.31641,-0.20703 0.41016,-0.13282 0.82812,-0.35938 1.26172,-0.67188 l 0.73047,1.05469 c -1.03907,0.82031 -2.1836,1.23047 -3.42578,1.23047 -1.3711,0 -2.44922,-0.44922 -3.22266,-1.34766 -0.76172,-0.89453 -1.14453,-2.14062 -1.14453,-3.72265 0,-1.01172 0.16015,-1.91016 0.5,-2.69532 0.32812,-0.79687 0.79687,-1.42187 1.40625,-1.875 0.62109,-0.44531 1.35156,-0.67187 2.19531,-0.67187 1.30469,0 2.31641,0.42969 3.01953,1.28906 0.70313,0.86328 1.05469,2.05078 1.05469,3.57422 z m -1.73047,-0.5 c 0,-0.97266 -0.19922,-1.71484 -0.58594,-2.22656 -0.375,-0.50391 -0.95312,-0.76172 -1.72656,-0.76172 -1.40625,0 -2.16797,1.03906 -2.28516,3.10547 h 4.59766 z m 0,0"
     id="path441" />
  <g
     mask="url(#mask-8)"
     id="g465"
     clip-path="url(#clipPath1208)"
     transform="translate(4.5,-15)" />
  <g
     mask="url(#mask-9)"
     id="g469"
     clip-path="url(#clipPath1202)"
     transform="translate(-1.5,-18)" />
  <g
     mask="url(#mask-10)"
     id="g473"
     clip-path="url(#clipPath1196)"
     transform="translate(6,-4.5)" />
  <g
     id="g15157"
     transform="translate(-1.5,-6)"
     style="fill:#ffffff;fill-opacity:1">
    <path
       fill-rule="nonzero"
       fill="#303030"
       fill-opacity="1"
       d="m 300.88672,16.769531 c 0.33594,-1.242187 0.85937,-2.152343 3.29687,-2.246093 0.14453,0 0.52735,-0.04688 0.52735,-0.621094 0,0 0,-0.335938 -0.38282,-0.335938 -1.0039,0 -2.10156,0.09766 -3.10546,0.09766 -1.05469,0 -2.19922,-0.09766 -3.20313,-0.09766 -0.19141,0 -0.52734,0 -0.52734,0.621094 0,0.335938 0.28906,0.335938 0.52734,0.335938 1.76953,0.04687 2.10156,0.667968 2.10156,1.335937 0,0.09766 -0.0937,0.574219 -0.0937,0.621094 l -2.77343,10.898437 c -1.00391,4.109375 -4.53907,6.738282 -7.59766,6.738282 -2.05469,0 -3.67969,-1.335938 -3.67969,-3.964844 0,-0.05078 0,-1.003906 0.33203,-2.34375 l 2.91797,-11.898438 c 0.28516,-1.101562 0.33203,-1.386718 2.57813,-1.386718 0.8125,0 1.05468,0 1.05468,-0.621094 0,-0.335938 -0.33593,-0.335938 -0.43359,-0.335938 -0.85937,0 -3.05859,0.09766 -3.91797,0.09766 -0.85937,0 -3.05859,-0.09766 -3.91797,-0.09766 -0.23828,0 -0.57422,0 -0.57422,0.621094 0,0.335938 0.23829,0.335938 0.85938,0.335938 0.0469,0 0.62109,0 1.14844,0.04687 0.52343,0.09375 0.8125,0.09375 0.8125,0.527344 0,0.140625 -0.33594,1.433594 -0.52735,2.148438 l -0.66797,2.675781 c -0.28515,1.195313 -1.71875,6.929687 -1.86328,7.550781 -0.1914,0.8125 -0.1914,1.292969 -0.1914,1.769532 0,3.679687 2.77343,5.832031 5.97265,5.832031 3.82422,0 7.60157,-3.441407 8.60547,-7.457031 z m 0,0"
       id="path477"
       style="fill:#ffffff;fill-opacity:1" />
    <path
       fill-rule="nonzero"
       fill="#303030"
       fill-opacity="1"
       d="m 307.98047,24.828125 c 0,-0.04687 0.0937,-0.335937 0.0937,-0.335937 0,-0.140626 -0.0937,-0.332032 -0.38281,-0.332032 -0.42969,0 -2.19922,0.191406 -2.72266,0.238282 -0.14453,0 -0.48047,0.04687 -0.48047,0.476562 0,0.289062 0.33594,0.289062 0.57422,0.289062 1.00391,0 1.00391,0.1875 1.00391,0.332032 0,0.144531 -0.19141,1.003906 -0.33204,1.480468 l -0.48046,1.960938 c -0.19141,0.765625 -1.33594,5.402344 -1.38672,5.6875 -0.14063,0.527344 -0.14063,0.8125 -0.14063,1.050781 0,2.152344 1.38281,3.488281 3.15235,3.488281 2.67578,0 5.49609,-2.867187 5.49609,-6.019531 0,-2.484375 -1.71875,-3.585937 -3.20313,-3.585937 -1.09765,0 -2.05468,0.621094 -2.67578,1.195312 z m -1.10156,13.765625 c -1.00391,0 -1.625,-0.910156 -1.625,-2.199219 0,-0.765625 0.1914,-1.484375 0.8125,-3.921875 0.0976,-0.378906 0.0976,-0.429687 0.52734,-0.90625 0.8125,-0.90625 1.76562,-1.386718 2.53125,-1.386718 0.8125,0 1.53125,0.621093 1.53125,2.054687 0,0.863281 -0.42969,3.058594 -1.10156,4.300781 -0.52344,1.054688 -1.57422,2.058594 -2.67578,2.058594 z m 0,0"
       id="path479"
       style="fill:#ffffff;fill-opacity:1" />
  </g>
  <g
     ns16:version="1.8.1"
     ns16:texconverter="xelatex"
     ns16:pdfconverter="inkscape"
     ns16:text="$t$"
     ns16:preamble="/home/kirito/.config/textext/beamer_preamble.tex"
     ns16:scale="3.05876"
     ns16:alignment="middle center"
     ns16:stroke-to-path="0"
     ns16:inkscapeversion="1.2.1"
     transform="matrix(3.05876,0,0,3.05876,367.01098,10.987592)"
     ns16:jacobian_sqrt="3.05876"
     id="g1929">
    <defs
       id="id-66a64dab-46cc-46c2-b903-804c6384154c">
      <g
         id="id-a8b669d7-54a2-4375-8b89-c3d3f6d7e376">
        <g
           id="id-d4180de8-b208-438e-99f9-c72d73bf4a00" />
        <g
           id="id-f51808f4-4f30-4d3b-80d8-146921cda90e">
          <path
             d="m 2.046875,-3.984375 h 0.9375 c 0.203125,0 0.3125,0 0.3125,-0.203125 0,-0.109375 -0.109375,-0.109375 -0.28125,-0.109375 h -0.875 C 2.5,-5.71875 2.546875,-5.90625 2.546875,-5.96875 c 0,-0.171875 -0.125,-0.265625 -0.296875,-0.265625 -0.03125,0 -0.3125,0 -0.390625,0.359375 L 1.46875,-4.296875 h -0.9375 c -0.203125,0 -0.296875,0 -0.296875,0.1875 0,0.125 0.078125,0.125 0.28125,0.125 h 0.875 C 0.671875,-1.15625 0.625,-0.984375 0.625,-0.8125 0.625,-0.265625 1,0.109375 1.546875,0.109375 2.5625,0.109375 3.125,-1.34375 3.125,-1.421875 3.125,-1.53125 3.046875,-1.53125 3.015625,-1.53125 2.921875,-1.53125 2.90625,-1.5 2.859375,-1.390625 2.4375,-0.34375 1.90625,-0.109375 1.5625,-0.109375 c -0.203125,0 -0.3125,-0.125 -0.3125,-0.453125 0,-0.25 0.03125,-0.3125 0.0625,-0.484375 z m 0,0"
             id="id-f6d68309-7489-410d-a97f-eab7a75afdd7" />
        </g>
      </g>
    </defs>
    <g
       fill="#000000"
       fill-opacity="1"
       id="id-8a1c77bf-ce43-4022-b092-422c8ae031e6"
       transform="translate(-148.946,-128.531)">
      <g
         transform="translate(148.712,134.765)"
         id="g1926">
        <path
           d="m 2.046875,-3.984375 h 0.9375 c 0.203125,0 0.3125,0 0.3125,-0.203125 0,-0.109375 -0.109375,-0.109375 -0.28125,-0.109375 h -0.875 C 2.5,-5.71875 2.546875,-5.90625 2.546875,-5.96875 c 0,-0.171875 -0.125,-0.265625 -0.296875,-0.265625 -0.03125,0 -0.3125,0 -0.390625,0.359375 L 1.46875,-4.296875 h -0.9375 c -0.203125,0 -0.296875,0 -0.296875,0.1875 0,0.125 0.078125,0.125 0.28125,0.125 h 0.875 C 0.671875,-1.15625 0.625,-0.984375 0.625,-0.8125 0.625,-0.265625 1,0.109375 1.546875,0.109375 2.5625,0.109375 3.125,-1.34375 3.125,-1.421875 3.125,-1.53125 3.046875,-1.53125 3.015625,-1.53125 2.921875,-1.53125 2.90625,-1.5 2.859375,-1.390625 2.4375,-0.34375 1.90625,-0.109375 1.5625,-0.109375 c -0.203125,0 -0.3125,-0.125 -0.3125,-0.453125 0,-0.25 0.03125,-0.3125 0.0625,-0.484375 z m 0,0"
           id="id-047a8006-8902-4000-9b1c-84bc8c5dba11" />
      </g>
    </g>
  </g>
  <g
     ns16:version="1.8.1"
     ns16:texconverter="xelatex"
     ns16:pdfconverter="inkscape"
     ns16:text="$t$"
     ns16:preamble="/home/kirito/.config/textext/beamer_preamble.tex"
     ns16:scale="3.05876"
     ns16:alignment="middle center"
     ns16:stroke-to-path="0"
     ns16:inkscapeversion="1.2.1"
     transform="matrix(3.05876,0,0,3.05876,493.01098,70.987592)"
     ns16:jacobian_sqrt="3.05876"
     id="g1957">
    <defs
       id="defs1949">
      <g
         id="g1947">
        <g
           id="g1941" />
        <g
           id="g1945">
          <path
             d="m 2.046875,-3.984375 h 0.9375 c 0.203125,0 0.3125,0 0.3125,-0.203125 0,-0.109375 -0.109375,-0.109375 -0.28125,-0.109375 h -0.875 C 2.5,-5.71875 2.546875,-5.90625 2.546875,-5.96875 c 0,-0.171875 -0.125,-0.265625 -0.296875,-0.265625 -0.03125,0 -0.3125,0 -0.390625,0.359375 L 1.46875,-4.296875 h -0.9375 c -0.203125,0 -0.296875,0 -0.296875,0.1875 0,0.125 0.078125,0.125 0.28125,0.125 h 0.875 C 0.671875,-1.15625 0.625,-0.984375 0.625,-0.8125 0.625,-0.265625 1,0.109375 1.546875,0.109375 2.5625,0.109375 3.125,-1.34375 3.125,-1.421875 3.125,-1.53125 3.046875,-1.53125 3.015625,-1.53125 2.921875,-1.53125 2.90625,-1.5 2.859375,-1.390625 2.4375,-0.34375 1.90625,-0.109375 1.5625,-0.109375 c -0.203125,0 -0.3125,-0.125 -0.3125,-0.453125 0,-0.25 0.03125,-0.3125 0.0625,-0.484375 z m 0,0"
             id="path1943" />
        </g>
      </g>
    </defs>
    <g
       fill="#000000"
       fill-opacity="1"
       id="g1955"
       transform="translate(-148.946,-128.531)">
      <g
         transform="translate(148.712,134.765)"
         id="g1953">
        <path
           d="m 2.046875,-3.984375 h 0.9375 c 0.203125,0 0.3125,0 0.3125,-0.203125 0,-0.109375 -0.109375,-0.109375 -0.28125,-0.109375 h -0.875 C 2.5,-5.71875 2.546875,-5.90625 2.546875,-5.96875 c 0,-0.171875 -0.125,-0.265625 -0.296875,-0.265625 -0.03125,0 -0.3125,0 -0.390625,0.359375 L 1.46875,-4.296875 h -0.9375 c -0.203125,0 -0.296875,0 -0.296875,0.1875 0,0.125 0.078125,0.125 0.28125,0.125 h 0.875 C 0.671875,-1.15625 0.625,-0.984375 0.625,-0.8125 0.625,-0.265625 1,0.109375 1.546875,0.109375 2.5625,0.109375 3.125,-1.34375 3.125,-1.421875 3.125,-1.53125 3.046875,-1.53125 3.015625,-1.53125 2.921875,-1.53125 2.90625,-1.5 2.859375,-1.390625 2.4375,-0.34375 1.90625,-0.109375 1.5625,-0.109375 c -0.203125,0 -0.3125,-0.125 -0.3125,-0.453125 0,-0.25 0.03125,-0.3125 0.0625,-0.484375 z m 0,0"
           id="path1951" />
      </g>
    </g>
  </g>
  <path
     style="fill:none;fill-opacity:1;stroke:#41a6fe;stroke-width:4.25197;stroke-miterlimit:4.5;stroke-dasharray:none;stroke-opacity:1;marker-end:url(#RoundedArrow)"
     d="M 25.925679,82.540463 V 39.541261"
     id="path4791" />
  <path
     style="fill:none;fill-opacity:1;stroke:#41a6fe;stroke-width:4.25197;stroke-miterlimit:4.5;stroke-dasharray:none;stroke-opacity:1;marker-end:url(#EmptyTriangleIn)"
     d="M 283.87495,92.985052 V 58.411628"
     id="path4791-7"
     sodipodi:nodetypes="cc" />
  <path
     style="fill:none;fill-opacity:1;stroke:#41a6fe;stroke-width:4.25197;stroke-miterlimit:4.5;stroke-dasharray:none;stroke-opacity:1;marker-end:url(#RoundedArrow)"
     d="M 58.925679,19.553604 V 62.552806"
     id="path5068" />
  <path
     style="fill:none;fill-opacity:1;stroke:#909090;stroke-width:4.25197;stroke-miterlimit:4.5;stroke-dasharray:none;stroke-opacity:1;marker-start:url(#Arrow1);marker-end:url(#marker9210)"
     d="M 100.04139,46.028845 H 231.86833"
     id="path9148"
     inkscape:path-effect="#path-effect9150"
     inkscape:original-d="m 100.04139,46.028845 c 43.94306,7.5e-4 87.88538,7.5e-4 131.82694,0" />
  <path
     style="fill:none;fill-opacity:1;stroke:#41a6fe;stroke-width:4.25197;stroke-miterlimit:4.5;stroke-dasharray:none;stroke-opacity:1;marker-end:url(#EmptyTriangleIn)"
     d="M 313.87495,37.644531 V 72.217955"
     id="path15097"
     sodipodi:nodetypes="cc" />
  <path
     style="fill:none;fill-opacity:1;stroke:#41a6fe;stroke-width:4.25197;stroke-miterlimit:4.5;stroke-dasharray:none;stroke-opacity:1;marker-end:url(#EmptyTriangleIn-5)"
     d="M 411.75,81.553815 V 46.980385"
     id="path4791-7-5"
     sodipodi:nodetypes="cc" />
  <path
     style="fill:none;fill-opacity:1;stroke:#41a6fe;stroke-width:4.25197;stroke-miterlimit:4.5;stroke-dasharray:none;stroke-opacity:1;marker-end:url(#EmptyTriangleIn-5)"
     d="m 453.75,20.213285 v 34.57343"
     id="path15097-6"
     sodipodi:nodetypes="cc" />
  <path
     style="fill:none;fill-opacity:1;stroke:#41a6fe;stroke-width:4.25197;stroke-miterlimit:4.5;stroke-dasharray:none;stroke-opacity:1;marker-end:url(#EmptyTriangleIn-2)"
     d="M 540.52377,68.294338 V 33.720914"
     id="path4791-7-1"
     sodipodi:nodetypes="cc" />
  <path
     style="fill:none;fill-opacity:1;stroke:#41a6fe;stroke-width:4.25197;stroke-miterlimit:4.5;stroke-dasharray:none;stroke-opacity:1;marker-end:url(#EmptyTriangleIn-2)"
     d="M 579.52377,23.453817 V 58.027241"
     id="path15097-2"
     sodipodi:nodetypes="cc" />
  <path
     style="fill:none;fill-opacity:1;stroke:#000000;stroke-width:4.25197;stroke-miterlimit:4.5;stroke-dasharray:none;stroke-opacity:1;marker-end:url(#TriangleStart)"
     d="m 323.77079,23.787481 c 4.50774,-3.569917 9.38296,-6.675549 14.52363,-9.251901 15.45164,-7.743907 33.32806,-10.5581476 50.41157,-7.9361685 17.08351,2.6219791 33.29314,10.6677495 45.7112,22.6891005"
     id="path15852"
     inkscape:path-effect="#path-effect15854"
     inkscape:original-d="m 323.77079,23.787481 c 4.48083,-2.722085 9.68317,-6.167184 14.52363,-9.251901 4.84047,-3.084717 64.0826,9.836038 96.12277,14.752932" />
  <path
     style="fill:none;fill-opacity:1;stroke:#000000;stroke-width:4.25197;stroke-miterlimit:4.5;stroke-dasharray:none;stroke-opacity:1;marker-end:url(#TriangleStart-7)"
     d="m 444.41687,78.707333 c 4.50774,3.569917 9.38296,6.675549 14.52363,9.251901 15.45164,7.743907 33.32806,10.558148 50.41157,7.936169 17.08351,-2.62198 33.29314,-10.66775 45.7112,-22.689101"
     id="path15852-3"
     inkscape:path-effect="#path-effect15854-9"
     inkscape:original-d="m 444.41687,78.707333 c 4.48083,2.722085 9.68317,6.167184 14.52363,9.251901 4.84047,3.084717 64.0826,-9.836038 96.12277,-14.752932" />
</svg>
