<?xml version="1.0" encoding="UTF-8" standalone="no"?>
<!-- Created with Inkscape (http://www.inkscape.org/) -->

<svg
   width="498.82816mm"
   height="60.717331mm"
   viewBox="0 0 498.82815 60.717332"
   version="1.1"
   id="svg1"
   sodipodi:docname="bloch1p.svg"
   inkscape:version="1.4.3 (0d15f75042, 2025-12-25)"
   xmlns:inkscape="http://www.inkscape.org/namespaces/inkscape"
   xmlns:sodipodi="http://sodipodi.sourceforge.net/DTD/sodipodi-0.dtd"
   xmlns="http://www.w3.org/2000/svg"
   xmlns:svg="http://www.w3.org/2000/svg">
  <sodipodi:namedview
     id="namedview1"
     pagecolor="#ffffff"
     bordercolor="#000000"
     borderopacity="0.25"
     inkscape:showpageshadow="2"
     inkscape:pageopacity="0.0"
     inkscape:pagecheckerboard="0"
     inkscape:deskcolor="#d1d1d1"
     inkscape:document-units="mm"
     showgrid="false"
     inkscape:zoom="0.32240137"
     inkscape:cx="738.21026"
     inkscape:cy="252.79049"
     inkscape:window-width="1920"
     inkscape:window-height="1123"
     inkscape:window-x="0"
     inkscape:window-y="0"
     inkscape:window-maximized="1"
     inkscape:current-layer="layer1" />
  <defs
     id="defs1">
    <rect
       x="-306.42108"
       y="151.87828"
       width="170.53"
       height="203.83664"
       id="rect10" />
    <inkscape:path-effect
       effect="spiro"
       id="path-effect9"
       is_visible="true"
       lpeversion="1" />
    <rect
       x="-103.29415"
       y="479.74393"
       width="345.42981"
       height="323.655"
       id="rect7" />
    <inkscape:path-effect
       effect="spiro"
       id="path-effect7"
       is_visible="true"
       lpeversion="1" />
    <inkscape:path-effect
       effect="spiro"
       id="path-effect5"
       is_visible="true"
       lpeversion="1" />
    <inkscape:path-effect
       effect="spiro"
       id="path-effect2"
       is_visible="true"
       lpeversion="1" />
    <rect
       x="-103.29415"
       y="479.74393"
       width="345.42981"
       height="323.655"
       id="rect8" />
    <rect
       x="-306.42108"
       y="151.87828"
       width="170.53"
       height="203.83664"
       id="rect11" />
    <filter
       inkscape:collect="always"
       style="color-interpolation-filters:sRGB"
       id="filter11"
       x="-0.029092881"
       y="-0.16873021"
       width="1.0581858"
       height="1.3374745">
      <feGaussianBlur
         inkscape:collect="always"
         stdDeviation="1.3538675"
         id="feGaussianBlur11" />
    </filter>
    <rect
       x="-306.42108"
       y="151.87828"
       width="170.53"
       height="203.83664"
       id="rect12" />
    <inkscape:path-effect
       effect="spiro"
       id="path-effect2-1"
       is_visible="true"
       lpeversion="1" />
    <inkscape:path-effect
       effect="spiro"
       id="path-effect5-8"
       is_visible="true"
       lpeversion="1" />
    <inkscape:path-effect
       effect="spiro"
       id="path-effect7-7"
       is_visible="true"
       lpeversion="1" />
    <rect
       x="-306.42108"
       y="151.87828"
       width="170.53"
       height="203.83664"
       id="rect10-9" />
    <rect
       x="-306.42108"
       y="151.87828"
       width="170.53"
       height="203.83664"
       id="rect11-2" />
    <rect
       x="-306.42108"
       y="151.87828"
       width="170.53"
       height="203.83664"
       id="rect12-0" />
    <inkscape:path-effect
       effect="spiro"
       id="path-effect5-8-3"
       is_visible="true"
       lpeversion="1" />
    <rect
       x="-306.42108"
       y="151.87828"
       width="170.53"
       height="203.83664"
       id="rect10-9-1" />
    <inkscape:path-effect
       effect="spiro"
       id="path-effect7-7-6"
       is_visible="true"
       lpeversion="1" />
    <rect
       x="-306.42108"
       y="151.87828"
       width="170.53"
       height="203.83664"
       id="rect11-2-1" />
    <filter
       inkscape:collect="always"
       style="color-interpolation-filters:sRGB"
       id="filter11-2"
       x="-0.029092881"
       y="-0.16873021"
       width="1.0581858"
       height="1.3374745">
      <feGaussianBlur
         inkscape:collect="always"
         stdDeviation="1.3538675"
         id="feGaussianBlur11-6" />
    </filter>
    <rect
       x="-306.42108"
       y="151.87828"
       width="170.53"
       height="203.83664"
       id="rect12-0-5" />
  </defs>
  <g
     inkscape:label="Layer 1"
     inkscape:groupmode="layer"
     id="layer1"
     transform="translate(-201.15445,-72.83629)">
    <path
       style="fill:none;fill-opacity:1;stroke:#407080;stroke-width:1.5;stroke-dasharray:none;stroke-opacity:1"
       d="m 25.6055,209.20502 c 0.376,0 0.7521,-0.072 1.1281,-0.214 0.3761,-0.142 0.7521,-0.355 1.1282,-0.635 0.376,-0.279 0.7521,-0.626 1.1281,-1.032 0.3761,-0.407 0.7521,-0.874 1.1282,-1.393 0.376,-0.519 0.7521,-1.09 1.1281,-1.702 0.3761,-0.613 0.7521,-1.267 1.1282,-1.952 0.376,-0.684 0.7521,-1.398 1.1281,-2.128 0.376,-0.731 0.7521,-1.479 1.1281,-2.23 0.3761,-0.752 0.7521,-1.506 1.1282,-2.251 0.376,-0.744 0.7521,-1.478 1.1281,-2.189 0.3761,-0.711 0.7521,-1.398 1.1282,-2.049 0.376,-0.652 0.7521,-1.267 1.1281,-1.836 0.3761,-0.568 0.7521,-1.089 1.1282,-1.554 0.376,-0.465 0.7521,-0.874 1.1281,-1.218 0.3761,-0.345 0.7521,-0.626 1.1281,-0.838 0.3761,-0.212 0.7521,-0.354 1.1282,-0.426 0.376,-0.071 0.7521,-0.071 1.1281,0 0.3761,0.072 0.7521,0.215 1.1282,0.426 0.376,0.212 0.7521,0.493 1.1281,0.838 0.3761,0.344 0.7521,0.753 1.1282,1.218 0.376,0.465 0.7521,0.986 1.1281,1.554 0.3761,0.569 0.7521,1.184 1.1281,1.836 0.3761,0.651 0.7521,1.338 1.1282,2.049 0.376,0.711 0.7521,1.445 1.1281,2.189 0.3761,0.745 0.7521,1.499 1.1282,2.251 0.376,0.751 0.7521,1.499 1.1281,2.23 0.3761,0.73 0.7521,1.444 1.1282,2.128 0.376,0.685 0.7521,1.339 1.1281,1.952 0.3761,0.612 0.7521,1.183 1.1281,1.702 0.3761,0.519 0.7521,0.986 1.1282,1.393 0.376,0.406 0.7521,0.753 1.1281,1.032 0.3761,0.28 0.7521,0.492 1.1282,0.635 0.376,0.142 0.7521,0.214 1.1281,0.214 0.3761,0 0.7521,-0.072 1.1282,-0.214 0.376,-0.142 0.7521,-0.355 1.1281,-0.635 0.3761,-0.279 0.7521,-0.626 1.1282,-1.032 0.376,-0.407 0.752,-0.874 1.1281,-1.393 0.376,-0.519 0.7521,-1.09 1.1281,-1.702 0.3761,-0.613 0.7521,-1.267 1.1282,-1.952 0.376,-0.684 0.7521,-1.398 1.1281,-2.128 0.3761,-0.731 0.7521,-1.479 1.1282,-2.23 0.376,-0.752 0.7521,-1.506 1.1281,-2.251 0.3761,-0.744 0.7521,-1.478 1.1282,-2.189 0.376,-0.711 0.752,-1.398 1.1281,-2.049 0.376,-0.652 0.7521,-1.267 1.1281,-1.836 0.3761,-0.568 0.7521,-1.089 1.1282,-1.554 0.376,-0.465 0.7521,-0.874 1.1281,-1.218 0.3761,-0.345 0.7521,-0.626 1.1282,-0.838 0.376,-0.212 0.7521,-0.354 1.1281,-0.426 0.3761,-0.071 0.7521,-0.071 1.1282,0 0.376,0.072 0.7521,0.215 1.1281,0.426 0.376,0.212 0.7521,0.493 1.1281,0.838 0.3761,0.344 0.7521,0.753 1.1282,1.218 0.376,0.465 0.7521,0.986 1.1281,1.554 0.3761,0.569 0.7521,1.184 1.1282,1.836 0.376,0.651 0.7521,1.338 1.1281,2.049 0.3761,0.711 0.7521,1.445 1.1282,2.189 0.376,0.745 0.7521,1.499 1.1281,2.251 0.376,0.751 0.7521,1.499 1.1281,2.23 0.3761,0.73 0.7521,1.444 1.1282,2.128 0.376,0.685 0.7521,1.339 1.1281,1.952 0.3761,0.612 0.7521,1.183 1.1282,1.702 0.376,0.519 0.7521,0.986 1.1281,1.393 0.3761,0.406 0.7521,0.753 1.1282,1.032 0.376,0.28 0.7521,0.492 1.1281,0.635 0.3761,0.142 0.7521,0.214 1.1282,0.214 0.376,0 0.752,-0.072 1.128,-0.214 0.376,-0.142 0.752,-0.355 1.128,-0.635 0.376,-0.279 0.752,-0.626 1.128,-1.032 0.376,-0.407 0.752,-0.874 1.129,-1.393 0.376,-0.519 0.752,-1.09 1.128,-1.702 0.376,-0.613 0.752,-1.267 1.128,-1.952 0.376,-0.684 0.752,-1.398 1.128,-2.128 0.376,-0.731 0.752,-1.479 1.128,-2.23 0.376,-0.752 0.752,-1.506 1.128,-2.251 0.376,-0.744 0.752,-1.478 1.128,-2.189 0.376,-0.711 0.752,-1.398 1.129,-2.049 0.376,-0.652 0.752,-1.267 1.128,-1.836 0.376,-0.568 0.752,-1.089 1.128,-1.554 0.376,-0.465 0.752,-0.874 1.128,-1.218 0.376,-0.345 0.752,-0.626 1.128,-0.838 0.376,-0.212 0.752,-0.354 1.128,-0.426 0.376,-0.071 0.752,-0.071 1.128,0 0.376,0.072 0.752,0.215 1.129,0.426 0.376,0.212 0.752,0.493 1.128,0.838 0.376,0.344 0.752,0.753 1.128,1.218 0.376,0.465 0.752,0.986 1.128,1.554 0.376,0.569 0.752,1.184 1.128,1.836 0.376,0.651 0.752,1.338 1.128,2.049 0.376,0.711 0.752,1.445 1.128,2.189 0.376,0.745 0.752,1.499 1.129,2.251 0.376,0.751 0.752,1.499 1.128,2.23 0.376,0.73 0.752,1.444 1.128,2.128 0.376,0.685 0.752,1.339 1.128,1.952 0.376,0.612 0.752,1.183 1.128,1.702 0.376,0.519 0.752,0.986 1.128,1.393 0.376,0.406 0.752,0.753 1.128,1.032 0.376,0.28 0.752,0.492 1.129,0.635 0.376,0.142 0.752,0.214 1.128,0.214"
       title="2*cos(x)"
       id="path7" />
    <path
       style="opacity:1;mix-blend-mode:normal;fill:none;fill-opacity:1;stroke:#407080;stroke-width:1.5;stroke-dasharray:none;stroke-opacity:1;filter:url(#filter11)"
       d="m 25.6055,209.20502 c 0.376,0 0.7521,-0.072 1.1281,-0.214 0.3761,-0.142 0.7521,-0.355 1.1282,-0.635 0.376,-0.279 0.7521,-0.626 1.1281,-1.032 0.3761,-0.407 0.7521,-0.874 1.1282,-1.393 0.376,-0.519 0.7521,-1.09 1.1281,-1.702 0.3761,-0.613 0.7521,-1.267 1.1282,-1.952 0.376,-0.684 0.7521,-1.398 1.1281,-2.128 0.376,-0.731 0.7521,-1.479 1.1281,-2.23 0.3761,-0.752 0.7521,-1.506 1.1282,-2.251 0.376,-0.744 0.7521,-1.478 1.1281,-2.189 0.3761,-0.711 0.7521,-1.398 1.1282,-2.049 0.376,-0.652 0.7521,-1.267 1.1281,-1.836 0.3761,-0.568 0.7521,-1.089 1.1282,-1.554 0.376,-0.465 0.7521,-0.874 1.1281,-1.218 0.3761,-0.345 0.7521,-0.626 1.1281,-0.838 0.3761,-0.212 0.7521,-0.354 1.1282,-0.426 0.376,-0.071 0.7521,-0.071 1.1281,0 0.3761,0.072 0.7521,0.215 1.1282,0.426 0.376,0.212 0.7521,0.493 1.1281,0.838 0.3761,0.344 0.7521,0.753 1.1282,1.218 0.376,0.465 0.7521,0.986 1.1281,1.554 0.3761,0.569 0.7521,1.184 1.1281,1.836 0.3761,0.651 0.7521,1.338 1.1282,2.049 0.376,0.711 0.7521,1.445 1.1281,2.189 0.3761,0.745 0.7521,1.499 1.1282,2.251 0.376,0.751 0.7521,1.499 1.1281,2.23 0.3761,0.73 0.7521,1.444 1.1282,2.128 0.376,0.685 0.7521,1.339 1.1281,1.952 0.3761,0.612 0.7521,1.183 1.1281,1.702 0.3761,0.519 0.7521,0.986 1.1282,1.393 0.376,0.406 0.7521,0.753 1.1281,1.032 0.3761,0.28 0.7521,0.492 1.1282,0.635 0.376,0.142 0.7521,0.214 1.1281,0.214 0.3761,0 0.7521,-0.072 1.1282,-0.214 0.376,-0.142 0.7521,-0.355 1.1281,-0.635 0.3761,-0.279 0.7521,-0.626 1.1282,-1.032 0.376,-0.407 0.752,-0.874 1.1281,-1.393 0.376,-0.519 0.7521,-1.09 1.1281,-1.702 0.3761,-0.613 0.7521,-1.267 1.1282,-1.952 0.376,-0.684 0.7521,-1.398 1.1281,-2.128 0.3761,-0.731 0.7521,-1.479 1.1282,-2.23 0.376,-0.752 0.7521,-1.506 1.1281,-2.251 0.3761,-0.744 0.7521,-1.478 1.1282,-2.189 0.376,-0.711 0.752,-1.398 1.1281,-2.049 0.376,-0.652 0.7521,-1.267 1.1281,-1.836 0.3761,-0.568 0.7521,-1.089 1.1282,-1.554 0.376,-0.465 0.7521,-0.874 1.1281,-1.218 0.3761,-0.345 0.7521,-0.626 1.1282,-0.838 0.376,-0.212 0.7521,-0.354 1.1281,-0.426 0.3761,-0.071 0.7521,-0.071 1.1282,0 0.376,0.072 0.7521,0.215 1.1281,0.426 0.376,0.212 0.7521,0.493 1.1281,0.838 0.3761,0.344 0.7521,0.753 1.1282,1.218 0.376,0.465 0.7521,0.986 1.1281,1.554 0.3761,0.569 0.7521,1.184 1.1282,1.836 0.376,0.651 0.7521,1.338 1.1281,2.049 0.3761,0.711 0.7521,1.445 1.1282,2.189 0.376,0.745 0.7521,1.499 1.1281,2.251 0.376,0.751 0.7521,1.499 1.1281,2.23 0.3761,0.73 0.7521,1.444 1.1282,2.128 0.376,0.685 0.7521,1.339 1.1281,1.952 0.3761,0.612 0.7521,1.183 1.1282,1.702 0.376,0.519 0.7521,0.986 1.1281,1.393 0.3761,0.406 0.7521,0.753 1.1282,1.032 0.376,0.28 0.7521,0.492 1.1281,0.635 0.3761,0.142 0.7521,0.214 1.1282,0.214 0.376,0 0.752,-0.072 1.128,-0.214 0.376,-0.142 0.752,-0.355 1.128,-0.635 0.376,-0.279 0.752,-0.626 1.128,-1.032 0.376,-0.407 0.752,-0.874 1.129,-1.393 0.376,-0.519 0.752,-1.09 1.128,-1.702 0.376,-0.613 0.752,-1.267 1.128,-1.952 0.376,-0.684 0.752,-1.398 1.128,-2.128 0.376,-0.731 0.752,-1.479 1.128,-2.23 0.376,-0.752 0.752,-1.506 1.128,-2.251 0.376,-0.744 0.752,-1.478 1.128,-2.189 0.376,-0.711 0.752,-1.398 1.129,-2.049 0.376,-0.652 0.752,-1.267 1.128,-1.836 0.376,-0.568 0.752,-1.089 1.128,-1.554 0.376,-0.465 0.752,-0.874 1.128,-1.218 0.376,-0.345 0.752,-0.626 1.128,-0.838 0.376,-0.212 0.752,-0.354 1.128,-0.426 0.376,-0.071 0.752,-0.071 1.128,0 0.376,0.072 0.752,0.215 1.129,0.426 0.376,0.212 0.752,0.493 1.128,0.838 0.376,0.344 0.752,0.753 1.128,1.218 0.376,0.465 0.752,0.986 1.128,1.554 0.376,0.569 0.752,1.184 1.128,1.836 0.376,0.651 0.752,1.338 1.128,2.049 0.376,0.711 0.752,1.445 1.128,2.189 0.376,0.745 0.752,1.499 1.129,2.251 0.376,0.751 0.752,1.499 1.128,2.23 0.376,0.73 0.752,1.444 1.128,2.128 0.376,0.685 0.752,1.339 1.128,1.952 0.376,0.612 0.752,1.183 1.128,1.702 0.376,0.519 0.752,0.986 1.128,1.393 0.376,0.406 0.752,0.753 1.128,1.032 0.376,0.28 0.752,0.492 1.129,0.635 0.376,0.142 0.752,0.214 1.128,0.214"
       title="2*cos(x)"
       id="path11" />
    <path
       style="fill:#407080;fill-opacity:1;stroke:none;stroke-width:1.5;stroke-dasharray:none;stroke-opacity:1"
       d="m 0.00391797,102.41683 c 2.06931203,-0.31252 4.13863113,-0.72246 6.20794183,-1.48928 2.0693134,-0.7674 4.1386252,-1.79523 6.2079442,-4.286577 2.069341,-2.491445 4.138625,-7.478287 6.207907,-14.804946 2.069355,-7.326563 4.13864,-7.32637 6.207995,0 2.069282,7.326466 4.138637,12.310222 6.207921,14.804946 2.069283,2.494723 4.138637,3.518407 6.207922,4.286577 2.069355,0.76779 4.138638,1.17676 6.207992,1.48928"
       title="0.5/(x**2 + 0.25)"
       id="path1" />
    <path
       style="fill:#505050;fill-opacity:1;stroke:#404040;stroke-width:1.5;stroke-dasharray:none;stroke-opacity:1"
       d="M -16.557491,102.40541 H 168.67944"
       id="path2"
       inkscape:path-effect="#path-effect2"
       inkscape:original-d="m -16.557491,102.40541 c 61.515678,0 123.376301,0 185.236931,0"
       transform="matrix(0.7202554,0,0,1,11.925622,0)" />
    <path
       style="fill:#407080;fill-opacity:1;stroke:none;stroke-width:1.5;stroke-dasharray:none;stroke-opacity:1"
       d="m 42.337253,134.16685 c 2.069312,-0.31252 4.138631,-0.72246 6.207942,-1.48928 2.069314,-0.7674 4.138626,-1.79523 6.207945,-4.28658 2.069341,-2.49145 4.138625,-7.47829 6.207907,-14.80496 2.069355,-7.32656 4.13864,-7.32637 6.207995,0 2.069282,7.32647 4.138637,12.31023 6.207921,14.80496 2.069283,2.49472 4.138637,3.51841 6.207922,4.28658 2.069355,0.76779 4.138638,1.17676 6.207992,1.48928"
       title="0.5/(x**2 + 0.25)"
       id="path3" />
    <path
       style="fill:#505050;fill-opacity:1;stroke:#404040;stroke-width:1.5;stroke-dasharray:none;stroke-opacity:1"
       d="M -16.557491,102.40541 H 168.67944"
       id="path4"
       inkscape:path-effect="#path-effect5"
       inkscape:original-d="m -16.557491,102.40541 c 61.515678,0 123.376301,0 185.236931,0"
       transform="matrix(0.60293684,0,0,1,31.714851,31.750001)" />
    <path
       style="fill:#407080;fill-opacity:1;stroke:none;stroke-width:1.5;stroke-dasharray:none;stroke-opacity:1"
       d="m 89.962256,165.91687 c 2.069312,-0.31252 4.138631,-0.72246 6.207942,-1.48928 2.069314,-0.7674 4.138622,-1.79523 6.207942,-4.28658 2.06934,-2.49145 4.13863,-7.47829 6.20791,-14.80496 2.06936,-7.32656 4.13865,-7.32637 6.208,0 2.06929,7.32647 4.13864,12.31023 6.20792,14.80496 2.06929,2.49472 4.13864,3.51841 6.20793,4.28658 2.06936,0.76779 4.13864,1.17676 6.208,1.48928"
       title="0.5/(x**2 + 0.25)"
       id="path5" />
    <path
       style="fill:#505050;fill-opacity:1;stroke:#404040;stroke-width:1.5;stroke-dasharray:none;stroke-opacity:1"
       d="M -16.557491,102.40541 H 168.67944"
       id="path6"
       inkscape:path-effect="#path-effect7"
       inkscape:original-d="m -16.557491,102.40541 c 61.515678,0 123.376301,0 185.236931,0"
       transform="matrix(0.51420656,0,0,1,46.681825,63.500003)" />
    <text
       xml:space="preserve"
       transform="matrix(0.63312794,0,0,0.63312794,147.01066,11.350849)"
       id="text10"
       style="font-style:normal;font-variant:normal;font-weight:250;font-stretch:normal;font-size:53.229px;line-height:1.1;font-family:'Stack Sans Headline';-inkscape-font-specification:'Stack Sans Headline, weight=250';font-variant-ligatures:normal;font-variant-position:sub;font-variant-caps:normal;font-variant-numeric:normal;font-variant-east-asian:normal;text-align:center;writing-mode:lr-tb;direction:ltr;white-space:pre;shape-inside:url(#rect10);display:inline;fill:#404040;fill-opacity:1;stroke:none;stroke-width:5.66929;stroke-dasharray:none;stroke-opacity:1"><tspan
         x="-236.61926"
         y="195.48574"
         id="tspan4">+</tspan></text>
    <text
       xml:space="preserve"
       transform="matrix(0.63312824,0,0,0.63312824,147.01072,43.629963)"
       id="text11"
       style="font-style:normal;font-variant:normal;font-weight:250;font-stretch:normal;font-size:53.229px;line-height:1.1;font-family:'Stack Sans Headline';-inkscape-font-specification:'Stack Sans Headline, weight=250';font-variant-ligatures:normal;font-variant-position:sub;font-variant-caps:normal;font-variant-numeric:normal;font-variant-east-asian:normal;text-align:center;writing-mode:lr-tb;direction:ltr;white-space:pre;shape-inside:url(#rect11);display:inline;fill:#404040;fill-opacity:1;stroke:none;stroke-width:5.66929;stroke-dasharray:none;stroke-opacity:1"><tspan
         x="-236.61926"
         y="195.48574"
         id="tspan5">+</tspan></text>
    <text
       xml:space="preserve"
       transform="matrix(0.63312824,0,0,0.63312824,147.01072,84.904965)"
       id="text12"
       style="font-style:normal;font-variant:normal;font-weight:250;font-stretch:normal;font-size:53.229px;line-height:1.1;font-family:'Stack Sans Headline';-inkscape-font-specification:'Stack Sans Headline, weight=250';font-variant-ligatures:normal;font-variant-position:sub;font-variant-caps:normal;font-variant-numeric:normal;font-variant-east-asian:normal;text-align:center;writing-mode:lr-tb;direction:ltr;white-space:pre;shape-inside:url(#rect12);display:inline;fill:#404040;fill-opacity:1;stroke:none;stroke-width:5.66929;stroke-dasharray:none;stroke-opacity:1"><tspan
         x="-236.61926"
         y="195.48574"
         id="tspan6">=</tspan></text>
    <path
       style="fill:#407080;fill-opacity:1;stroke:none;stroke-width:2.08145;stroke-dasharray:none;stroke-opacity:1"
       d="m 201.15838,124.40645 c 2.08016,-0.59861 4.16034,-1.38384 6.2405,-2.85266 2.08015,-1.46993 4.1603,-3.4387 6.24048,-8.2108 2.08019,-4.77226 4.16033,-14.324375 6.24045,-28.358336 2.08022,-14.03379 4.16035,-14.033407 6.24056,0 2.08014,14.033577 4.16033,23.579796 6.24047,28.358336 2.08013,4.77858 4.16034,6.73941 6.24048,8.2108 2.08019,1.47067 4.16034,2.25405 6.24054,2.85266"
       title="0.5/(x**2 + 0.25)"
       id="path1-9" />
    <path
       style="fill:#505050;fill-opacity:1;stroke:#404040;stroke-width:1.5;stroke-dasharray:none;stroke-opacity:1"
       d="M -16.557491,102.40541 H 168.67944"
       id="path2-2"
       inkscape:path-effect="#path-effect2-1"
       inkscape:original-d="m -16.557491,102.40541 c 61.515678,0 123.376301,0 185.236931,0"
       transform="matrix(0.47087476,0,0,1.9154651,208.95095,-71.76941)" />
    <path
       style="fill:#407080;fill-opacity:1;stroke:none;stroke-width:2.08145;stroke-dasharray:none;stroke-opacity:1"
       d="m 343.78295,124.97521 c 2.08015,-0.59864 4.16032,-1.38387 6.24049,-2.85269 2.08017,-1.46993 4.16033,-3.4387 6.24049,-8.2108 2.0802,-4.77228 4.16034,-14.324404 6.24047,-28.358383 2.08021,-14.033771 4.16034,-14.033407 6.24054,0 2.08013,14.033595 4.16035,23.579823 6.24047,28.358383 2.08013,4.77855 4.16033,6.7394 6.24047,8.2108 2.08021,1.47067 4.16033,2.25405 6.24055,2.85269"
       title="0.5/(x**2 + 0.25)"
       id="path3-2-7" />
    <path
       style="fill:#505050;fill-opacity:1;stroke:#404040;stroke-width:1.5;stroke-dasharray:none;stroke-opacity:1"
       d="M -16.557491,102.40541 H 168.67944"
       id="path4-8-8"
       inkscape:path-effect="#path-effect5-8-3"
       inkscape:original-d="m -16.557491,102.40541 c 61.515678,0 123.376301,0 185.236931,0"
       transform="matrix(0.49405179,0,0,1.9154651,331.24964,-71.200725)" />
    <text
       xml:space="preserve"
       transform="matrix(0.63312794,0,0,0.63312794,447.71241,-11.752862)"
       id="text10-3-4"
       style="font-style:normal;font-variant:normal;font-weight:250;font-stretch:normal;font-size:53.229px;line-height:1.1;font-family:'Stack Sans Headline';-inkscape-font-specification:'Stack Sans Headline, weight=250';font-variant-ligatures:normal;font-variant-position:sub;font-variant-caps:normal;font-variant-numeric:normal;font-variant-east-asian:normal;text-align:center;writing-mode:lr-tb;direction:ltr;white-space:pre;shape-inside:url(#rect10-9-1);display:inline;fill:#404040;fill-opacity:1;stroke:none;stroke-width:5.66929;stroke-dasharray:none;stroke-opacity:1"><tspan
         x="-236.61926"
         y="195.48574"
         id="tspan7">+</tspan></text>
    <path
       style="fill:#407080;fill-opacity:1;stroke:none;stroke-width:2.08145;stroke-dasharray:none;stroke-opacity:1"
       d="m 500.70572,125.14281 c 2.08015,-0.59861 4.16032,-1.38383 6.24049,-2.85266 2.08016,-1.46992 4.16032,-3.4387 6.24048,-8.21079 2.0802,-4.77228 4.16034,-14.324402 6.24047,-28.358384 2.0802,-14.033768 4.16034,-14.033404 6.24054,0 2.08014,14.033599 4.16035,23.579824 6.24047,28.358384 2.08014,4.77855 4.16035,6.73939 6.24049,8.21079 2.08021,1.47068 4.16033,2.25405 6.24055,2.85266"
       title="0.5/(x**2 + 0.25)"
       id="path5-9-3" />
    <path
       style="fill:#505050;fill-opacity:1;stroke:#404040;stroke-width:1.5;stroke-dasharray:none;stroke-opacity:1"
       d="M -16.557491,102.40541 H 168.67944"
       id="path6-7-2"
       inkscape:path-effect="#path-effect7-7-6"
       inkscape:original-d="m -16.557491,102.40541 c 61.515678,0 123.376301,0 185.236931,0"
       transform="matrix(0.47082967,0,0,1.9154651,464.96992,-71.033122)" />
    <text
       xml:space="preserve"
       transform="matrix(0.63312824,0,0,0.63312824,572.06673,-11.136252)"
       id="text11-6-0"
       style="font-style:normal;font-variant:normal;font-weight:250;font-stretch:normal;font-size:53.229px;line-height:1.1;font-family:'Stack Sans Headline';-inkscape-font-specification:'Stack Sans Headline, weight=250';font-variant-ligatures:normal;font-variant-position:sub;font-variant-caps:normal;font-variant-numeric:normal;font-variant-east-asian:normal;text-align:center;writing-mode:lr-tb;direction:ltr;white-space:pre;shape-inside:url(#rect11-2-1);display:inline;fill:#404040;fill-opacity:1;stroke:none;stroke-width:5.66929;stroke-dasharray:none;stroke-opacity:1"><tspan
         x="-236.61926"
         y="195.48574"
         id="tspan8">+</tspan></text>
    <path
       style="fill:none;fill-opacity:1;stroke:#407080;stroke-width:2.08145;stroke-dasharray:none;stroke-opacity:1"
       d="m 584.4442,125.89313 c 0.37797,0 0.75604,-0.13799 1.13401,-0.40989 0.37808,-0.27199 0.75605,-0.68 1.13411,-1.21633 0.37797,-0.53442 0.75605,-1.19908 1.13402,-1.97676 0.37807,-0.77959 0.75605,-1.67411 1.13412,-2.66824 0.37797,-0.99413 0.75604,-2.08785 1.13402,-3.26013 0.37806,-1.17417 0.75603,-2.42689 1.1341,-3.73898 0.37798,-1.31017 0.75605,-2.67782 1.13402,-4.07611 0.37798,-1.40021 0.75605,-2.83297 1.13402,-4.27149 0.37807,-1.44043 0.75605,-2.88469 1.13411,-4.31171 0.37797,-1.425106 0.75604,-2.831057 1.13402,-4.192953 0.37807,-1.361896 0.75604,-2.677821 1.13412,-3.924787 0.37797,-1.248883 0.75604,-2.426896 1.13401,-3.516794 0.37808,-1.087984 0.75604,-2.085941 1.13411,-2.976632 0.37797,-0.890692 0.75605,-1.674117 1.13402,-2.333039 0.37807,-0.660834 0.75605,-1.19908 1.13401,-1.605158 0.37808,-0.406079 0.75604,-0.678075 1.13412,-0.815989 0.37796,-0.135987 0.75604,-0.135987 1.134,0 0.37809,0.137924 0.75605,0.411827 1.13413,0.815989 0.37797,0.406078 0.75604,0.944324 1.13401,1.605158 0.37807,0.658922 0.75604,1.442347 1.13411,2.333039 0.37797,0.890691 0.75604,1.888648 1.13402,2.976632 0.37807,1.089898 0.75604,2.267911 1.13402,3.516794 0.37807,1.246966 0.75604,2.562891 1.13411,3.924787 0.37797,1.361896 0.75604,2.767847 1.13401,4.192953 0.37807,1.42702 0.75605,2.87128 1.13412,4.31171 0.37797,1.43852 0.75605,2.87128 1.13402,4.27149 0.37807,1.39829 0.75604,2.76594 1.13411,4.07611 0.37797,1.31209 0.75604,2.56481 1.13401,3.73898 0.37808,1.17228 0.75605,2.266 1.13402,3.26013 0.37808,0.99413 0.75605,1.88865 1.13412,2.66824 0.37796,0.77768 0.75604,1.44234 1.13401,1.97676 0.37807,0.53633 0.75604,0.94241 1.13412,1.21633 0.37797,0.27199 0.75604,0.40989 1.13402,0.40989 0.37807,0 0.75604,-0.13799 1.1341,-0.40989 0.37798,-0.27199 0.75605,-0.68 1.13402,-1.21633 0.37807,-0.53442 0.75605,-1.19908 1.13412,-1.97676 0.37797,-0.77959 0.75595,-1.67411 1.13402,-2.66824 0.37797,-0.99413 0.75603,-2.08785 1.13401,-3.26013 0.37807,-1.17417 0.75604,-2.42689 1.13411,-3.73898 0.37798,-1.31017 0.75605,-2.67782 1.13402,-4.07611 0.37808,-1.40021 0.75605,-2.83297 1.13411,-4.27149 0.37797,-1.44043 0.75605,-2.88469 1.13402,-4.31171 0.37807,-1.425106 0.75604,-2.831057 1.13412,-4.192953 0.37797,-1.361896 0.75594,-2.677821 1.13402,-3.924787 0.37797,-1.248883 0.75603,-2.426896 1.134,-3.516794 0.37808,-1.087984 0.75605,-2.085941 1.13412,-2.976632 0.37797,-0.890692 0.75605,-1.674117 1.13402,-2.333039 0.37807,-0.660834 0.75605,-1.19908 1.13411,-1.605158 0.37797,-0.406079 0.75604,-0.678075 1.13402,-0.815989 0.37807,-0.135987 0.75604,-0.135987 1.13411,0 0.37798,0.137924 0.75605,0.411827 1.13402,0.815989 0.37798,0.406078 0.75604,0.944324 1.13401,1.605158 0.37807,0.658922 0.75605,1.442347 1.13412,2.333039 0.37797,0.890691 0.75604,1.888648 1.13402,2.976632 0.37807,1.089898 0.75604,2.267911 1.13412,3.516794 0.37796,1.246966 0.75603,2.562891 1.134,3.924787 0.37808,1.361896 0.75605,2.767847 1.13412,4.192953 0.37797,1.42702 0.75605,2.87128 1.13402,4.31171 0.37797,1.43852 0.75605,2.87128 1.13401,4.27149 0.37807,1.39829 0.75604,2.76594 1.13412,4.07611 0.37797,1.31209 0.75604,2.56481 1.13401,3.73898 0.37808,1.17228 0.75605,2.266 1.13412,3.26013 0.37797,0.99413 0.75604,1.88865 1.13401,2.66824 0.37807,0.77768 0.75605,1.44234 1.13412,1.97676 0.37797,0.53633 0.75604,0.94241 1.13402,1.21633 0.37807,0.27199 0.75604,0.40989 1.13411,0.40989 0.37797,0 0.75594,-0.13799 1.13391,-0.40989 0.37798,-0.27199 0.75595,-0.68 1.13392,-1.21633 0.37797,-0.53442 0.75595,-1.19908 1.13392,-1.97676 0.37796,-0.77959 0.75593,-1.67411 1.13491,-2.66824 0.37797,-0.99413 0.75594,-2.08785 1.13392,-3.26013 0.37797,-1.17417 0.75594,-2.42689 1.13391,-3.73898 0.37798,-1.31017 0.75595,-2.67782 1.13391,-4.07611 0.37798,-1.40021 0.75595,-2.83297 1.13392,-4.27149 0.37797,-1.44043 0.75595,-2.88469 1.13392,-4.31171 0.37796,-1.425106 0.75593,-2.831057 1.13391,-4.192953 0.37797,-1.361896 0.75594,-2.677821 1.13491,-3.924787 0.37798,-1.248883 0.75595,-2.426896 1.13392,-3.516794 0.37798,-1.087984 0.75595,-2.085941 1.13392,-2.976632 0.37797,-0.890692 0.75595,-1.674117 1.13391,-2.333039 0.37797,-0.660834 0.75594,-1.19908 1.13392,-1.605158 0.37797,-0.406079 0.75593,-0.678075 1.13391,-0.815989 0.37797,-0.135987 0.75594,-0.135987 1.13391,0 0.37798,0.137924 0.75595,0.411827 1.13492,0.815989 0.37797,0.406078 0.75595,0.944324 1.13392,1.605158 0.37797,0.658922 0.75595,1.442347 1.13392,2.333039 0.37797,0.890691 0.75594,1.888648 1.13392,2.976632 0.37796,1.089898 0.75593,2.267911 1.13389,3.516794 0.37798,1.246966 0.75595,2.562891 1.13392,3.924787 0.37798,1.361896 0.75595,2.767847 1.13392,4.192953 0.37797,1.42702 0.75595,2.87128 1.13492,4.31171 0.37797,1.43852 0.75594,2.87128 1.13392,4.27149 0.37797,1.39829 0.75594,2.76594 1.13392,4.07611 0.37797,1.31209 0.75594,2.56481 1.1339,3.73898 0.37797,1.17228 0.75594,2.266 1.13391,3.26013 0.37797,0.99413 0.75595,1.88865 1.13392,2.66824 0.37797,0.77768 0.75595,1.44234 1.13392,1.97676 0.37797,0.53633 0.75594,0.94241 1.13492,1.21633 0.37797,0.27199 0.75594,0.40989 1.13391,0.40989"
       title="2*cos(x)"
       id="path7-7" />
    <path
       style="mix-blend-mode:normal;fill:none;fill-opacity:1;stroke:#407080;stroke-width:1.5;stroke-dasharray:none;stroke-opacity:1;filter:url(#filter11-2)"
       d="m 582.44496,100.95904 c 0.376,0 0.7521,-0.072 1.1281,-0.214 0.3761,-0.142 0.7521,-0.355 1.1282,-0.635 0.376,-0.279 0.7521,-0.626 1.1281,-1.032 0.3761,-0.407 0.7521,-0.874 1.1282,-1.393 0.376,-0.519 0.7521,-1.09 1.1281,-1.702 0.3761,-0.613 0.7521,-1.267 1.1282,-1.952 0.376,-0.684 0.7521,-1.398 1.1281,-2.128 0.376,-0.731 0.7521,-1.479 1.1281,-2.23 0.3761,-0.752 0.7521,-1.506 1.1282,-2.251 0.376,-0.744 0.7521,-1.478 1.1281,-2.189 0.3761,-0.711 0.7521,-1.398 1.1282,-2.049 0.376,-0.652 0.7521,-1.267 1.1281,-1.836 0.3761,-0.568 0.7521,-1.089 1.1282,-1.554 0.376,-0.465 0.7521,-0.874 1.1281,-1.218 0.3761,-0.345 0.7521,-0.626 1.1281,-0.838 0.3761,-0.212 0.7521,-0.354 1.1282,-0.426 0.376,-0.071 0.7521,-0.071 1.1281,0 0.3761,0.072 0.7521,0.215 1.1282,0.426 0.376,0.212 0.7521,0.493 1.1281,0.838 0.3761,0.344 0.7521,0.753 1.1282,1.218 0.376,0.465 0.7521,0.986 1.1281,1.554 0.3761,0.569 0.7521,1.184 1.1281,1.836 0.3761,0.651 0.7521,1.338 1.1282,2.049 0.376,0.711 0.7521,1.445 1.1281,2.189 0.3761,0.745 0.7521,1.499 1.1282,2.251 0.376,0.751 0.7521,1.499 1.1281,2.23 0.3761,0.73 0.7521,1.444 1.1282,2.128 0.376,0.685 0.7521,1.339 1.1281,1.952 0.3761,0.612 0.7521,1.183 1.1281,1.702 0.3761,0.519 0.7521,0.986 1.1282,1.393 0.376,0.406 0.7521,0.753 1.1281,1.032 0.3761,0.28 0.7521,0.492 1.1282,0.635 0.376,0.142 0.7521,0.214 1.1281,0.214 0.3761,0 0.7521,-0.072 1.1282,-0.214 0.376,-0.142 0.7521,-0.355 1.1281,-0.635 0.3761,-0.279 0.7521,-0.626 1.1282,-1.032 0.376,-0.407 0.752,-0.874 1.1281,-1.393 0.376,-0.519 0.7521,-1.09 1.1281,-1.702 0.3761,-0.613 0.7521,-1.267 1.1282,-1.952 0.376,-0.684 0.7521,-1.398 1.1281,-2.128 0.3761,-0.731 0.7521,-1.479 1.1282,-2.23 0.376,-0.752 0.7521,-1.506 1.1281,-2.251 0.3761,-0.744 0.7521,-1.478 1.1282,-2.189 0.376,-0.711 0.752,-1.398 1.1281,-2.049 0.376,-0.652 0.7521,-1.267 1.1281,-1.836 0.3761,-0.568 0.7521,-1.089 1.1282,-1.554 0.376,-0.465 0.7521,-0.874 1.1281,-1.218 0.3761,-0.345 0.7521,-0.626 1.1282,-0.838 0.376,-0.212 0.7521,-0.354 1.1281,-0.426 0.3761,-0.071 0.7521,-0.071 1.1282,0 0.376,0.072 0.7521,0.215 1.1281,0.426 0.376,0.212 0.7521,0.493 1.1281,0.838 0.3761,0.344 0.7521,0.753 1.1282,1.218 0.376,0.465 0.7521,0.986 1.1281,1.554 0.3761,0.569 0.7521,1.184 1.1282,1.836 0.376,0.651 0.7521,1.338 1.1281,2.049 0.3761,0.711 0.7521,1.445 1.1282,2.189 0.376,0.745 0.7521,1.499 1.1281,2.251 0.376,0.751 0.7521,1.499 1.1281,2.23 0.3761,0.73 0.7521,1.444 1.1282,2.128 0.376,0.685 0.7521,1.339 1.1281,1.952 0.3761,0.612 0.7521,1.183 1.1282,1.702 0.376,0.519 0.7521,0.986 1.1281,1.393 0.3761,0.406 0.7521,0.753 1.1282,1.032 0.376,0.28 0.7521,0.492 1.1281,0.635 0.3761,0.142 0.7521,0.214 1.1282,0.214 0.376,0 0.752,-0.072 1.128,-0.214 0.376,-0.142 0.752,-0.355 1.128,-0.635 0.376,-0.279 0.752,-0.626 1.128,-1.032 0.376,-0.407 0.752,-0.874 1.129,-1.393 0.376,-0.519 0.752,-1.09 1.128,-1.702 0.376,-0.613 0.752,-1.267 1.128,-1.952 0.376,-0.684 0.752,-1.398 1.128,-2.128 0.376,-0.731 0.752,-1.479 1.128,-2.23 0.376,-0.752 0.752,-1.506 1.128,-2.251 0.376,-0.744 0.752,-1.478 1.128,-2.189 0.376,-0.711 0.752,-1.398 1.129,-2.049 0.376,-0.652 0.752,-1.267 1.128,-1.836 0.376,-0.568 0.752,-1.089 1.128,-1.554 0.376,-0.465 0.752,-0.874 1.128,-1.218 0.376,-0.345 0.752,-0.626 1.128,-0.838 0.376,-0.212 0.752,-0.354 1.128,-0.426 0.376,-0.071 0.752,-0.071 1.128,0 0.376,0.072 0.752,0.215 1.129,0.426 0.376,0.212 0.752,0.493 1.128,0.838 0.376,0.344 0.752,0.753 1.128,1.218 0.376,0.465 0.752,0.986 1.128,1.554 0.376,0.569 0.752,1.184 1.128,1.836 0.376,0.651 0.752,1.338 1.128,2.049 0.376,0.711 0.752,1.445 1.128,2.189 0.376,0.745 0.752,1.499 1.129,2.251 0.376,0.751 0.752,1.499 1.128,2.23 0.376,0.73 0.752,1.444 1.128,2.128 0.376,0.685 0.752,1.339 1.128,1.952 0.376,0.612 0.752,1.183 1.128,1.702 0.376,0.519 0.752,0.986 1.128,1.393 0.376,0.406 0.752,0.753 1.128,1.032 0.376,0.28 0.752,0.492 1.129,0.635 0.376,0.142 0.752,0.214 1.128,0.214"
       title="2*cos(x)"
       id="path11-5"
       transform="matrix(1.0052433,0,0,1.9154651,-1.0547195,-67.49038)" />
    <text
       xml:space="preserve"
       transform="matrix(0.63312824,0,0,0.63312824,703.85018,-12.757684)"
       id="text12-1"
       style="font-style:normal;font-variant:normal;font-weight:250;font-stretch:normal;font-size:53.229px;line-height:1.1;font-family:'Stack Sans Headline';-inkscape-font-specification:'Stack Sans Headline, weight=250';font-variant-ligatures:normal;font-variant-position:sub;font-variant-caps:normal;font-variant-numeric:normal;font-variant-east-asian:normal;text-align:center;writing-mode:lr-tb;direction:ltr;white-space:pre;shape-inside:url(#rect12-0-5);display:inline;fill:#404040;fill-opacity:1;stroke:none;stroke-width:5.66929;stroke-dasharray:none;stroke-opacity:1"><tspan
         x="-236.61926"
         y="195.48574"
         id="tspan9">=</tspan></text>
  </g>
</svg>
