<?xml version="1.0" encoding="UTF-8" standalone="no"?>
<!-- Created with Inkscape (http://www.inkscape.org/) -->

<svg
   width="210mm"
   height="297mm"
   viewBox="0 0 210 297"
   version="1.1"
   id="svg38356"
   sodipodi:docname="fermi-surface.svg"
   inkscape:version="1.1.2 (0a00cf5339, 2022-02-04)"
   xmlns:inkscape="http://www.inkscape.org/namespaces/inkscape"
   xmlns:sodipodi="http://sodipodi.sourceforge.net/DTD/sodipodi-0.dtd"
   xmlns:xlink="http://www.w3.org/1999/xlink"
   xmlns="http://www.w3.org/2000/svg"
   xmlns:svg="http://www.w3.org/2000/svg"
   xmlns:ns2="http://www.iki.fi/pav/software/textext/">
  <sodipodi:namedview
     id="namedview38358"
     pagecolor="#ffffff"
     bordercolor="#666666"
     borderopacity="1.0"
     inkscape:pageshadow="2"
     inkscape:pageopacity="0.0"
     inkscape:pagecheckerboard="0"
     inkscape:document-units="mm"
     showgrid="false"
     inkscape:zoom="0.78127806"
     inkscape:cx="364.14692"
     inkscape:cy="577.89924"
     inkscape:window-width="1832"
     inkscape:window-height="1134"
     inkscape:window-x="0"
     inkscape:window-y="0"
     inkscape:window-maximized="1"
     inkscape:current-layer="layer1" />
  <defs
     id="defs38353">
    <linearGradient
       inkscape:collect="always"
       id="linearGradient40409">
      <stop
         style="stop-color:#c04050;stop-opacity:1;"
         offset="0"
         id="stop40405" />
      <stop
         style="stop-color:#c04050;stop-opacity:0;"
         offset="1"
         id="stop40407" />
    </linearGradient>
    <marker
       style="overflow:visible;"
       id="Arrow2Mend"
       refX="0.0"
       refY="0.0"
       orient="auto"
       inkscape:stockid="Arrow2Mend"
       inkscape:isstock="true">
      <path
         transform="scale(0.6) rotate(180) translate(0,0)"
         d="M 8.7185878,4.0337352 L -2.2072895,0.016013256 L 8.7185884,-4.0017078 C 6.9730900,-1.6296469 6.9831476,1.6157441 8.7185878,4.0337352 z "
         style="stroke:context-stroke;fill-rule:evenodd;fill:context-stroke;stroke-width:0.62500000;stroke-linejoin:round;"
         id="path38582" />
    </marker>
    <marker
       style="overflow:visible;"
       id="Arrow2Lend"
       refX="0.0"
       refY="0.0"
       orient="auto"
       inkscape:stockid="Arrow2Lend"
       inkscape:isstock="true">
      <path
         transform="scale(1.1) rotate(180) translate(1,0)"
         d="M 8.7185878,4.0337352 L -2.2072895,0.016013256 L 8.7185884,-4.0017078 C 6.9730900,-1.6296469 6.9831476,1.6157441 8.7185878,4.0337352 z "
         style="stroke:context-stroke;fill-rule:evenodd;fill:context-stroke;stroke-width:0.62500000;stroke-linejoin:round;"
         id="path38576" />
    </marker>
    <linearGradient
       inkscape:collect="always"
       xlink:href="#linearGradient40409"
       id="linearGradient40411"
       x1="85.239059"
       y1="161.26369"
       x2="85.239059"
       y2="80.932465"
       gradientUnits="userSpaceOnUse"
       gradientTransform="matrix(1,0,0,0.59699392,0,65.305058)" />
  </defs>
  <g
     inkscape:label="Layer 1"
     inkscape:groupmode="layer"
     id="layer1">
    <rect
       style="fill:url(#linearGradient40411);fill-opacity:1;stroke:none;stroke-width:0.771581;stroke-miterlimit:4;stroke-dasharray:none;stroke-opacity:1"
       id="rect38853-3"
       width="66.139488"
       height="52.769962"
       x="52.188499"
       y="109.27488" />
    <path
       style="fill:none;stroke:#000000;stroke-width:1;stroke-linecap:butt;stroke-linejoin:miter;stroke-miterlimit:4;stroke-dasharray:none;stroke-opacity:1;marker-end:url(#Arrow2Mend)"
       d="M 42.981342,162.22171 V 72.252063"
       id="path38473" />
    <path
       style="fill:none;stroke:#000000;stroke-width:1;stroke-linecap:butt;stroke-linejoin:miter;stroke-opacity:1;stroke-miterlimit:4;stroke-dasharray:2,1;stroke-dashoffset:0"
       d="m 52.188498,162.04484 c 66.139492,0 66.139492,0 66.139492,0"
       id="path39481" />
    <path
       style="fill:none;stroke:#000000;stroke-width:1;stroke-linecap:butt;stroke-linejoin:miter;stroke-miterlimit:4;stroke-dasharray:2,1;stroke-opacity:1;stroke-dashoffset:0"
       d="m 52.188498,151.4615 c 66.139492,0 66.139492,0 66.139492,0"
       id="path39563" />
    <path
       style="fill:none;stroke:#000000;stroke-width:1;stroke-linecap:butt;stroke-linejoin:miter;stroke-miterlimit:4;stroke-dasharray:2,1;stroke-opacity:1;stroke-dashoffset:0"
       d="m 52.188498,140.87816 c 66.139492,0 66.139492,0 66.139492,0"
       id="path39565" />
    <path
       style="fill:none;stroke:#000000;stroke-width:1;stroke-linecap:butt;stroke-linejoin:miter;stroke-miterlimit:4;stroke-dasharray:2,1;stroke-opacity:1;stroke-dashoffset:0"
       d="m 52.188498,130.29482 c 66.139492,0 66.139492,0 66.139492,0"
       id="path39567" />
    <path
       style="fill:none;stroke:#000000;stroke-width:1;stroke-linecap:butt;stroke-linejoin:miter;stroke-miterlimit:4;stroke-dasharray:2,1;stroke-opacity:1;stroke-dashoffset:0"
       d="m 52.188498,119.71148 c 66.139492,0 66.139492,0 66.139492,0"
       id="path39569" />
    <path
       style="fill:none;stroke:#000000;stroke-width:1;stroke-linecap:butt;stroke-linejoin:miter;stroke-miterlimit:4;stroke-dasharray:2,1;stroke-opacity:1;stroke-dashoffset:0"
       d="m 52.188498,109.12814 c 66.139492,0 66.139492,0 66.139492,0"
       id="path40138" />
    <path
       style="fill:none;stroke:#000000;stroke-width:1;stroke-linecap:butt;stroke-linejoin:miter;stroke-miterlimit:4;stroke-dasharray:2,1;stroke-opacity:1;stroke-dashoffset:0"
       d="m 52.188498,98.544803 c 66.139492,0 66.139492,0 66.139492,0"
       id="path40140" />
    <path
       style="fill:none;stroke:#000000;stroke-width:1;stroke-linecap:butt;stroke-linejoin:miter;stroke-miterlimit:4;stroke-dasharray:2,1;stroke-opacity:1;stroke-dashoffset:0"
       d="m 52.188498,87.961469 c 66.139492,0 66.139492,0 66.139492,0"
       id="path40142" />
    <path
       style="fill:none;stroke:#000000;stroke-width:1;stroke-linecap:butt;stroke-linejoin:miter;stroke-miterlimit:4;stroke-dasharray:2,1;stroke-opacity:1;stroke-dashoffset:0"
       d="m 52.188498,77.378135 c 66.139492,0 66.139492,0 66.139492,0"
       id="path40144" />
    <g
       transform="matrix(1.9246702,0,0,1.9246702,32.594145,50.990607)"
       ns2:version="1.3.0"
       ns2:texconverter="pdflatex"
       ns2:pdfconverter="inkscape"
       ns2:text="$E_n$"
       ns2:preamble="/usr/share/inkscape/extensions/textext/default_packages.tex"
       ns2:scale="7.097311668860765"
       ns2:alignment="middle center"
       ns2:jacobian_sqrt="2.50378"
       id="g40205">
      <defs
         id="id-b01e44a7-b22d-48b6-8efb-d84952581bc6">
        <g
           id="id-0483e61d-bb3c-421b-bfec-aa52885c4cc1">
          <symbol
             overflow="visible"
             id="id-6a871d6f-cb1a-49f8-a86c-3bf6c3c3e4c5">
            <path
               style="stroke:none;stroke-width:0"
               d=""
               id="id-f564a89e-0e63-4f8c-86a3-a119512e6758" />
          </symbol>
          <symbol
             overflow="visible"
             id="id-d56d399c-d979-450e-90f6-6accfae3fb49">
            <path
               style="stroke:none;stroke-width:0"
               d="M 7.0625,-2.328125 C 7.078125,-2.375 7.109375,-2.4375 7.109375,-2.46875 c 0,0 0,-0.109375 -0.125,-0.109375 -0.09375,0 -0.109375,0.0625 -0.125,0.125 C 6.203125,-0.984375 5.84375,-0.3125 4.140625,-0.3125 H 2.6875 c -0.140625,0 -0.171875,0 -0.21875,0 -0.109375,-0.015625 -0.140625,-0.03125 -0.140625,-0.109375 0,-0.03125 0,-0.046875 0.046875,-0.21875 L 3.0625,-3.375 h 0.984375 c 0.84375,0 0.84375,0.21875 0.84375,0.46875 0,0.0625 0,0.1875 -0.0625,0.484375 C 4.8125,-2.375 4.796875,-2.34375 4.796875,-2.3125 c 0,0.046875 0.03125,0.109375 0.125,0.109375 C 5,-2.203125 5.03125,-2.25 5.078125,-2.40625 l 0.5625,-2.328125 c 0,-0.0625 -0.046875,-0.109375 -0.125,-0.109375 -0.078125,0 -0.109375,0.0625 -0.125,0.171875 -0.21875,0.765625 -0.390625,1 -1.3125,1 h -0.9375 l 0.59375,-2.40625 C 3.828125,-6.4375 3.84375,-6.46875 4.28125,-6.46875 H 5.6875 c 1.203125,0 1.515625,0.28125 1.515625,1.109375 0,0.234375 0,0.25 -0.046875,0.53125 0,0.046875 -0.015625,0.125 -0.015625,0.171875 0,0.046875 0.03125,0.125 0.125,0.125 0.109375,0 0.125,-0.0625 0.140625,-0.25 L 7.609375,-6.515625 C 7.640625,-6.78125 7.59375,-6.78125 7.34375,-6.78125 H 2.296875 c -0.1875,0 -0.296875,0 -0.296875,0.203125 0,0.109375 0.09375,0.109375 0.28125,0.109375 0.375,0 0.65625,0 0.65625,0.171875 0,0.046875 0,0.0625 -0.0625,0.25 L 1.5625,-0.78125 c -0.09375,0.390625 -0.109375,0.46875 -0.90625,0.46875 -0.171875,0 -0.28125,0 -0.28125,0.1875 C 0.375,0 0.46875,0 0.65625,0 h 5.171875 c 0.234375,0 0.25,-0.015625 0.3125,-0.171875 z m 0,0"
               id="id-347625b7-5822-493b-9f06-3b359909df78" />
          </symbol>
          <symbol
             overflow="visible"
             id="id-3f81aab4-d447-4d89-9a7d-40a81e79ba8e">
            <path
               style="stroke:none;stroke-width:0"
               d=""
               id="id-9fbaf820-b3ef-4d57-a940-0f2d3cbc884e" />
          </symbol>
          <symbol
             overflow="visible"
             id="id-c99d2114-50fe-4948-a199-1482f84b2d6d">
            <path
               style="stroke:none;stroke-width:0"
               d="m 0.84375,-0.4375 c -0.015625,0.09375 -0.0625,0.265625 -0.0625,0.28125 0,0.15625 0.125,0.21875 0.234375,0.21875 0.125,0 0.234375,-0.078125 0.28125,-0.140625 0.03125,-0.0625 0.078125,-0.296875 0.125,-0.4375 0.03125,-0.125 0.109375,-0.453125 0.140625,-0.625 0.046875,-0.15625 0.09375,-0.3125 0.125,-0.46875 0.078125,-0.28125 0.09375,-0.34375 0.296875,-0.625 C 2.171875,-2.515625 2.5,-2.875 3.03125,-2.875 c 0.390625,0 0.40625,0.359375 0.40625,0.484375 0,0.421875 -0.296875,1.1875 -0.40625,1.484375 -0.078125,0.203125 -0.109375,0.265625 -0.109375,0.375 0,0.375 0.296875,0.59375 0.65625,0.59375 0.703125,0 1,-0.953125 1,-1.0625 0,-0.09375 -0.078125,-0.09375 -0.109375,-0.09375 -0.09375,0 -0.09375,0.046875 -0.125,0.125 C 4.1875,-0.40625 3.875,-0.125 3.609375,-0.125 c -0.15625,0 -0.1875,-0.09375 -0.1875,-0.25 0,-0.15625 0.046875,-0.25 0.171875,-0.5625 0.078125,-0.21875 0.359375,-0.953125 0.359375,-1.34375 0,-0.671875 -0.53125,-0.796875 -0.90625,-0.796875 -0.578125,0 -0.96875,0.359375 -1.171875,0.640625 -0.046875,-0.484375 -0.453125,-0.640625 -0.75,-0.640625 -0.296875,0 -0.453125,0.21875 -0.546875,0.375 -0.15625,0.265625 -0.25,0.65625 -0.25,0.703125 0,0.078125 0.09375,0.078125 0.125,0.078125 0.09375,0 0.09375,-0.015625 0.140625,-0.203125 0.109375,-0.40625 0.25,-0.75 0.515625,-0.75 0.1875,0 0.234375,0.15625 0.234375,0.34375 0,0.125 -0.0625,0.390625 -0.125,0.578125 -0.046875,0.1875 -0.109375,0.46875 -0.140625,0.625 z m 0,0"
               id="id-a81c3209-8aa6-4ac4-b043-f2e7694877f1" />
          </symbol>
        </g>
      </defs>
      <g
         id="id-d7625eb0-e2a7-4c84-a2df-ae6c520f5333"
         transform="translate(-149.087,-127.984)">
        <g
           style="fill:#000000;fill-opacity:1"
           id="id-ca896915-9f2f-424e-a089-30e149264f1d">
          <g
             transform="translate(148.712,134.765)"
             id="g40197">
            <path
               style="stroke:none;stroke-width:0"
               d="M 7.0625,-2.328125 C 7.078125,-2.375 7.109375,-2.4375 7.109375,-2.46875 c 0,0 0,-0.109375 -0.125,-0.109375 -0.09375,0 -0.109375,0.0625 -0.125,0.125 C 6.203125,-0.984375 5.84375,-0.3125 4.140625,-0.3125 H 2.6875 c -0.140625,0 -0.171875,0 -0.21875,0 -0.109375,-0.015625 -0.140625,-0.03125 -0.140625,-0.109375 0,-0.03125 0,-0.046875 0.046875,-0.21875 L 3.0625,-3.375 h 0.984375 c 0.84375,0 0.84375,0.21875 0.84375,0.46875 0,0.0625 0,0.1875 -0.0625,0.484375 C 4.8125,-2.375 4.796875,-2.34375 4.796875,-2.3125 c 0,0.046875 0.03125,0.109375 0.125,0.109375 C 5,-2.203125 5.03125,-2.25 5.078125,-2.40625 l 0.5625,-2.328125 c 0,-0.0625 -0.046875,-0.109375 -0.125,-0.109375 -0.078125,0 -0.109375,0.0625 -0.125,0.171875 -0.21875,0.765625 -0.390625,1 -1.3125,1 h -0.9375 l 0.59375,-2.40625 C 3.828125,-6.4375 3.84375,-6.46875 4.28125,-6.46875 H 5.6875 c 1.203125,0 1.515625,0.28125 1.515625,1.109375 0,0.234375 0,0.25 -0.046875,0.53125 0,0.046875 -0.015625,0.125 -0.015625,0.171875 0,0.046875 0.03125,0.125 0.125,0.125 0.109375,0 0.125,-0.0625 0.140625,-0.25 L 7.609375,-6.515625 C 7.640625,-6.78125 7.59375,-6.78125 7.34375,-6.78125 H 2.296875 c -0.1875,0 -0.296875,0 -0.296875,0.203125 0,0.109375 0.09375,0.109375 0.28125,0.109375 0.375,0 0.65625,0 0.65625,0.171875 0,0.046875 0,0.0625 -0.0625,0.25 L 1.5625,-0.78125 c -0.09375,0.390625 -0.109375,0.46875 -0.90625,0.46875 -0.171875,0 -0.28125,0 -0.28125,0.1875 C 0.375,0 0.46875,0 0.65625,0 h 5.171875 c 0.234375,0 0.25,-0.015625 0.3125,-0.171875 z m 0,0"
               id="id-0ed01763-be62-48e2-8963-49c724260a5b" />
          </g>
        </g>
        <g
           style="fill:#000000;fill-opacity:1"
           id="id-4ab59361-de9f-4d9b-8312-bf69b1431207">
          <g
             transform="translate(156.067,136.259)"
             id="g40201">
            <path
               style="stroke:none;stroke-width:0"
               d="m 0.84375,-0.4375 c -0.015625,0.09375 -0.0625,0.265625 -0.0625,0.28125 0,0.15625 0.125,0.21875 0.234375,0.21875 0.125,0 0.234375,-0.078125 0.28125,-0.140625 0.03125,-0.0625 0.078125,-0.296875 0.125,-0.4375 0.03125,-0.125 0.109375,-0.453125 0.140625,-0.625 0.046875,-0.15625 0.09375,-0.3125 0.125,-0.46875 0.078125,-0.28125 0.09375,-0.34375 0.296875,-0.625 C 2.171875,-2.515625 2.5,-2.875 3.03125,-2.875 c 0.390625,0 0.40625,0.359375 0.40625,0.484375 0,0.421875 -0.296875,1.1875 -0.40625,1.484375 -0.078125,0.203125 -0.109375,0.265625 -0.109375,0.375 0,0.375 0.296875,0.59375 0.65625,0.59375 0.703125,0 1,-0.953125 1,-1.0625 0,-0.09375 -0.078125,-0.09375 -0.109375,-0.09375 -0.09375,0 -0.09375,0.046875 -0.125,0.125 C 4.1875,-0.40625 3.875,-0.125 3.609375,-0.125 c -0.15625,0 -0.1875,-0.09375 -0.1875,-0.25 0,-0.15625 0.046875,-0.25 0.171875,-0.5625 0.078125,-0.21875 0.359375,-0.953125 0.359375,-1.34375 0,-0.671875 -0.53125,-0.796875 -0.90625,-0.796875 -0.578125,0 -0.96875,0.359375 -1.171875,0.640625 -0.046875,-0.484375 -0.453125,-0.640625 -0.75,-0.640625 -0.296875,0 -0.453125,0.21875 -0.546875,0.375 -0.15625,0.265625 -0.25,0.65625 -0.25,0.703125 0,0.078125 0.09375,0.078125 0.125,0.078125 0.09375,0 0.09375,-0.015625 0.140625,-0.203125 0.109375,-0.40625 0.25,-0.75 0.515625,-0.75 0.1875,0 0.234375,0.15625 0.234375,0.34375 0,0.125 -0.0625,0.390625 -0.125,0.578125 -0.046875,0.1875 -0.109375,0.46875 -0.140625,0.625 z m 0,0"
               id="id-08e30f19-acd6-41ae-8d2c-3623b73a109f" />
          </g>
        </g>
      </g>
    </g>
    <g
       transform="matrix(-2.50378,0,0,4.3569475,132.06929,119.1319)"
       ns2:version="1.3.0"
       ns2:texconverter="pdflatex"
       ns2:pdfconverter="inkscape"
       ns2:text="$\\{$"
       ns2:preamble="/usr/share/inkscape/extensions/textext/default_packages.tex"
       ns2:scale="7.097311668860765"
       ns2:alignment="middle center"
       ns2:jacobian_sqrt="2.50378"
       id="g40606">
      <defs
         id="id-fd38181e-183a-4f31-8d62-a045f7b4807e">
        <g
           id="id-c0e6ec00-0bc8-4d98-977b-9a01c1dec9e1">
          <symbol
             overflow="visible"
             id="id-0172c991-7413-47b7-9922-05d98f852ea4">
            <path
               style="stroke:none;stroke-width:0"
               d=""
               id="id-e5f49740-35ce-4b3d-ab7e-b7c08243fbe4" />
          </symbol>
          <symbol
             overflow="visible"
             id="id-b7190617-3e4c-4d22-8cfa-fb879a66fd19">
            <path
               style="stroke:none;stroke-width:0"
               d="m 2.828125,-6.15625 c 0,-0.390625 0.25,-1.03125 1.34375,-1.09375 C 4.21875,-7.265625 4.25,-7.3125 4.25,-7.359375 c 0,-0.125 -0.078125,-0.125 -0.1875,-0.125 -0.984375,0 -1.90625,0.515625 -1.90625,1.25 v 2.28125 c 0,0.390625 0,0.703125 -0.40625,1.03125 -0.34375,0.296875 -0.71875,0.3125 -0.9375,0.3125 C 0.75,-2.59375 0.71875,-2.546875 0.71875,-2.5 c 0,0.109375 0.0625,0.109375 0.15625,0.125 0.65625,0.03125 1.140625,0.390625 1.25,0.875 0.03125,0.109375 0.03125,0.140625 0.03125,0.5 v 1.96875 c 0,0.421875 0,0.734375 0.46875,1.109375 C 3.015625,2.375 3.671875,2.5 4.0625,2.5 4.171875,2.5 4.25,2.5 4.25,2.375 4.25,2.28125 4.203125,2.28125 4.09375,2.265625 3.46875,2.234375 2.984375,1.90625 2.84375,1.40625 2.828125,1.3125 2.828125,1.296875 2.828125,0.9375 v -2.09375 c 0,-0.453125 -0.09375,-0.625 -0.40625,-0.953125 C 2.21875,-2.3125 1.921875,-2.40625 1.640625,-2.5 c 0.828125,-0.21875 1.1875,-0.6875 1.1875,-1.265625 z m 0,0"
               id="id-5c172d2a-b0d1-4519-a295-d20b3077170a" />
          </symbol>
        </g>
      </defs>
      <g
         id="id-b8e80d88-d50c-4435-8a12-93115d040b17"
         transform="translate(-149.431,-127.281)">
        <g
           style="fill:#000000;fill-opacity:1"
           id="id-3848b83a-34cb-400b-a5e9-e6063b5309bb">
          <g
             transform="translate(148.712,134.765)"
             id="g40602">
            <path
               style="stroke:none;stroke-width:0"
               d="m 2.828125,-6.15625 c 0,-0.390625 0.25,-1.03125 1.34375,-1.09375 C 4.21875,-7.265625 4.25,-7.3125 4.25,-7.359375 c 0,-0.125 -0.078125,-0.125 -0.1875,-0.125 -0.984375,0 -1.90625,0.515625 -1.90625,1.25 v 2.28125 c 0,0.390625 0,0.703125 -0.40625,1.03125 -0.34375,0.296875 -0.71875,0.3125 -0.9375,0.3125 C 0.75,-2.59375 0.71875,-2.546875 0.71875,-2.5 c 0,0.109375 0.0625,0.109375 0.15625,0.125 0.65625,0.03125 1.140625,0.390625 1.25,0.875 0.03125,0.109375 0.03125,0.140625 0.03125,0.5 v 1.96875 c 0,0.421875 0,0.734375 0.46875,1.109375 C 3.015625,2.375 3.671875,2.5 4.0625,2.5 4.171875,2.5 4.25,2.5 4.25,2.375 4.25,2.28125 4.203125,2.28125 4.09375,2.265625 3.46875,2.234375 2.984375,1.90625 2.84375,1.40625 2.828125,1.3125 2.828125,1.296875 2.828125,0.9375 v -2.09375 c 0,-0.453125 -0.09375,-0.625 -0.40625,-0.953125 C 2.21875,-2.3125 1.921875,-2.40625 1.640625,-2.5 c 0.828125,-0.21875 1.1875,-0.6875 1.1875,-1.265625 z m 0,0"
               id="id-6027dc23-fd45-4508-97e2-b352ed005017" />
          </g>
        </g>
      </g>
    </g>
    <g
       transform="matrix(1.39464,0,0,1.39464,135.05049,147.21232)"
       ns2:version="1.3.0"
       ns2:texconverter="pdflatex"
       ns2:pdfconverter="inkscape"
       ns2:text="filled"
       ns2:preamble="/usr/share/inkscape/extensions/textext/default_packages.tex"
       ns2:scale="3.9533053268617113"
       ns2:alignment="middle center"
       ns2:jacobian_sqrt="1.39464"
       id="g40786">
      <defs
         id="id-b3fc8a2a-b5f3-47b3-9b15-7b85a75fd43e">
        <g
           id="id-90b64b9c-14ea-4d06-9a6c-2e17bd339079">
          <symbol
             overflow="visible"
             id="id-91351f29-e5ae-4208-9e5d-c48a32c31956">
            <path
               style="stroke:none"
               d=""
               id="id-c56d04e5-2914-42da-9e60-b824ed66ffb5" />
          </symbol>
          <symbol
             overflow="visible"
             id="id-5903425e-7a98-41b6-a424-3de14810f920">
            <path
               style="stroke:none"
               d="m 3.296875,-3.984375 c 0.453125,0 0.515625,0.125 0.515625,0.53125 V -0.75 c 0,0.4375 -0.109375,0.4375 -0.765625,0.4375 V 0 c 0.328125,-0.015625 0.84375,-0.03125 1.09375,-0.03125 0.25,0 0.75,0.015625 1.109375,0.03125 v -0.3125 c -0.671875,0 -0.78125,0 -0.78125,-0.4375 v -3.671875 l -1.25,0.09375 C 3.0625,-4.3125 3.046875,-4.3125 3.046875,-4.3125 3.015625,-4.296875 3,-4.296875 2.859375,-4.296875 H 1.6875 v -1.125 c 0,-0.984375 0.859375,-1.390625 1.46875,-1.390625 0.296875,0 0.65625,0.109375 0.859375,0.328125 -0.40625,0.03125 -0.46875,0.296875 -0.46875,0.46875 C 3.546875,-5.6875 3.8125,-5.5625 4,-5.5625 c 0.234375,0 0.453125,-0.15625 0.453125,-0.453125 0,-0.59375 -0.546875,-1.015625 -1.28125,-1.015625 C 2.25,-7.03125 1.0625,-6.515625 1.0625,-5.4375 v 1.140625 H 0.265625 v 0.3125 H 1.0625 V -0.75 c 0,0.4375 -0.109375,0.4375 -0.78125,0.4375 V 0 C 0.609375,-0.015625 1.140625,-0.03125 1.390625,-0.03125 1.640625,-0.03125 2.125,-0.015625 2.5,0 v -0.3125 c -0.671875,0 -0.78125,0 -0.78125,-0.4375 v -3.234375 z m 0,0"
               id="id-3d5c7a64-c795-4dbc-8903-a3a7a708667d" />
          </symbol>
          <symbol
             overflow="visible"
             id="id-16cc378b-5434-46ee-921e-f0cec657a58d">
            <path
               style="stroke:none"
               d="M 1.765625,-6.921875 0.328125,-6.8125 V -6.5 c 0.703125,0 0.78125,0.0625 0.78125,0.5625 V -0.75 c 0,0.4375 -0.109375,0.4375 -0.78125,0.4375 V 0 C 0.65625,-0.015625 1.1875,-0.03125 1.4375,-0.03125 c 0.25,0 0.734375,0.015625 1.109375,0.03125 v -0.3125 c -0.671875,0 -0.78125,0 -0.78125,-0.4375 z m 0,0"
               id="id-1812f57d-0716-4e7e-90c1-43f440290abc" />
          </symbol>
          <symbol
             overflow="visible"
             id="id-8166319d-2e87-4fcb-8d0b-357d9a089b40">
            <path
               style="stroke:none"
               d="M 1.109375,-2.515625 C 1.171875,-4 2.015625,-4.25 2.359375,-4.25 c 1.015625,0 1.125,1.34375 1.125,1.734375 z m 0,0.21875 h 2.78125 c 0.21875,0 0.25,0 0.25,-0.21875 0,-0.984375 -0.546875,-1.953125 -1.78125,-1.953125 -1.15625,0 -2.078125,1.03125 -2.078125,2.28125 0,1.328125 1.046875,2.296875 2.1875,2.296875 C 3.6875,0.109375 4.140625,-1 4.140625,-1.1875 4.140625,-1.28125 4.0625,-1.3125 4,-1.3125 c -0.078125,0 -0.109375,0.0625 -0.125,0.140625 -0.34375,1.03125 -1.25,1.03125 -1.34375,1.03125 -0.5,0 -0.890625,-0.296875 -1.125,-0.671875 -0.296875,-0.46875 -0.296875,-1.125 -0.296875,-1.484375 z m 0,0"
               id="id-e081ba21-ec0e-46ec-962a-3accf22903cb" />
          </symbol>
          <symbol
             overflow="visible"
             id="id-d745bea0-acd9-4e86-9f7e-502268eb7284">
            <path
               style="stroke:none"
               d="m 3.78125,-0.546875 v 0.65625 L 5.25,0 v -0.3125 c -0.6875,0 -0.78125,-0.0625 -0.78125,-0.5625 V -6.921875 L 3.046875,-6.8125 V -6.5 c 0.6875,0 0.765625,0.0625 0.765625,0.5625 v 2.15625 c -0.28125,-0.359375 -0.71875,-0.625 -1.25,-0.625 -1.171875,0 -2.21875,0.984375 -2.21875,2.265625 0,1.265625 0.96875,2.25 2.109375,2.25 0.640625,0 1.078125,-0.34375 1.328125,-0.65625 z m 0,-2.671875 v 2.046875 c 0,0.171875 0,0.1875 -0.109375,0.359375 C 3.375,-0.328125 2.9375,-0.109375 2.5,-0.109375 2.046875,-0.109375 1.6875,-0.375 1.453125,-0.75 1.203125,-1.15625 1.171875,-1.71875 1.171875,-2.140625 1.171875,-2.5 1.1875,-3.09375 1.46875,-3.546875 1.6875,-3.859375 2.0625,-4.1875 2.609375,-4.1875 c 0.34375,0 0.765625,0.15625 1.0625,0.59375 0.109375,0.171875 0.109375,0.1875 0.109375,0.375 z m 0,0"
               id="id-e724f1c2-27fe-417c-ad8e-65301318e2bb" />
          </symbol>
        </g>
      </defs>
      <g
         id="id-7790a6be-c831-4a7d-ab24-cdffce16b471"
         transform="translate(-148.978,-127.734)">
        <g
           style="fill:#000000;fill-opacity:1"
           id="id-8ccf9afb-d4a7-4f30-807d-62e8796828ff">
          <g
             transform="translate(148.712,134.765)"
             id="g40999">
            <path
               style="stroke:none"
               d="m 3.296875,-3.984375 c 0.453125,0 0.515625,0.125 0.515625,0.53125 V -0.75 c 0,0.4375 -0.109375,0.4375 -0.765625,0.4375 V 0 c 0.328125,-0.015625 0.84375,-0.03125 1.09375,-0.03125 0.25,0 0.75,0.015625 1.109375,0.03125 v -0.3125 c -0.671875,0 -0.78125,0 -0.78125,-0.4375 v -3.671875 l -1.25,0.09375 C 3.0625,-4.3125 3.046875,-4.3125 3.046875,-4.3125 3.015625,-4.296875 3,-4.296875 2.859375,-4.296875 H 1.6875 v -1.125 c 0,-0.984375 0.859375,-1.390625 1.46875,-1.390625 0.296875,0 0.65625,0.109375 0.859375,0.328125 -0.40625,0.03125 -0.46875,0.296875 -0.46875,0.46875 C 3.546875,-5.6875 3.8125,-5.5625 4,-5.5625 c 0.234375,0 0.453125,-0.15625 0.453125,-0.453125 0,-0.59375 -0.546875,-1.015625 -1.28125,-1.015625 C 2.25,-7.03125 1.0625,-6.515625 1.0625,-5.4375 v 1.140625 H 0.265625 v 0.3125 H 1.0625 V -0.75 c 0,0.4375 -0.109375,0.4375 -0.78125,0.4375 V 0 C 0.609375,-0.015625 1.140625,-0.03125 1.390625,-0.03125 1.640625,-0.03125 2.125,-0.015625 2.5,0 v -0.3125 c -0.671875,0 -0.78125,0 -0.78125,-0.4375 v -3.234375 z m 0,0"
               id="id-d4c58482-d2ac-4a28-9a62-469fd90ad51e" />
          </g>
          <g
             transform="translate(154.247,134.765)"
             id="g41002">
            <path
               style="stroke:none"
               d="M 1.765625,-6.921875 0.328125,-6.8125 V -6.5 c 0.703125,0 0.78125,0.0625 0.78125,0.5625 V -0.75 c 0,0.4375 -0.109375,0.4375 -0.78125,0.4375 V 0 C 0.65625,-0.015625 1.1875,-0.03125 1.4375,-0.03125 c 0.25,0 0.734375,0.015625 1.109375,0.03125 v -0.3125 c -0.671875,0 -0.78125,0 -0.78125,-0.4375 z m 0,0"
               id="id-bd3d3cad-d875-40b8-b7c3-ac2afcbbd759" />
          </g>
          <g
             transform="translate(157.015,134.765)"
             id="g41005">
            <path
               style="stroke:none"
               d="M 1.765625,-6.921875 0.328125,-6.8125 V -6.5 c 0.703125,0 0.78125,0.0625 0.78125,0.5625 V -0.75 c 0,0.4375 -0.109375,0.4375 -0.78125,0.4375 V 0 C 0.65625,-0.015625 1.1875,-0.03125 1.4375,-0.03125 c 0.25,0 0.734375,0.015625 1.109375,0.03125 v -0.3125 c -0.671875,0 -0.78125,0 -0.78125,-0.4375 z m 0,0"
               id="id-70f9f8de-8234-4c78-82aa-cebc540c3a4c" />
          </g>
          <g
             transform="translate(159.782,134.765)"
             id="g41008">
            <path
               style="stroke:none"
               d="M 1.109375,-2.515625 C 1.171875,-4 2.015625,-4.25 2.359375,-4.25 c 1.015625,0 1.125,1.34375 1.125,1.734375 z m 0,0.21875 h 2.78125 c 0.21875,0 0.25,0 0.25,-0.21875 0,-0.984375 -0.546875,-1.953125 -1.78125,-1.953125 -1.15625,0 -2.078125,1.03125 -2.078125,2.28125 0,1.328125 1.046875,2.296875 2.1875,2.296875 C 3.6875,0.109375 4.140625,-1 4.140625,-1.1875 4.140625,-1.28125 4.0625,-1.3125 4,-1.3125 c -0.078125,0 -0.109375,0.0625 -0.125,0.140625 -0.34375,1.03125 -1.25,1.03125 -1.34375,1.03125 -0.5,0 -0.890625,-0.296875 -1.125,-0.671875 -0.296875,-0.46875 -0.296875,-1.125 -0.296875,-1.484375 z m 0,0"
               id="id-3b4b5f5c-db0c-463c-91e8-ba4a389f99e2" />
          </g>
          <g
             transform="translate(164.21,134.765)"
             id="g41011">
            <path
               style="stroke:none"
               d="m 3.78125,-0.546875 v 0.65625 L 5.25,0 v -0.3125 c -0.6875,0 -0.78125,-0.0625 -0.78125,-0.5625 V -6.921875 L 3.046875,-6.8125 V -6.5 c 0.6875,0 0.765625,0.0625 0.765625,0.5625 v 2.15625 c -0.28125,-0.359375 -0.71875,-0.625 -1.25,-0.625 -1.171875,0 -2.21875,0.984375 -2.21875,2.265625 0,1.265625 0.96875,2.25 2.109375,2.25 0.640625,0 1.078125,-0.34375 1.328125,-0.65625 z m 0,-2.671875 v 2.046875 c 0,0.171875 0,0.1875 -0.109375,0.359375 C 3.375,-0.328125 2.9375,-0.109375 2.5,-0.109375 2.046875,-0.109375 1.6875,-0.375 1.453125,-0.75 1.203125,-1.15625 1.171875,-1.71875 1.171875,-2.140625 1.171875,-2.5 1.1875,-3.09375 1.46875,-3.546875 1.6875,-3.859375 2.0625,-4.1875 2.609375,-4.1875 c 0.34375,0 0.765625,0.15625 1.0625,0.59375 0.109375,0.171875 0.109375,0.1875 0.109375,0.375 z m 0,0"
               id="id-f1df8f82-79d7-4fb4-b055-c63d705581d2" />
          </g>
        </g>
      </g>
    </g>
    <g
       transform="matrix(-2.50378,0,0,-4.3569475,132.06929,121.17095)"
       ns2:version="1.3.0"
       ns2:texconverter="pdflatex"
       ns2:pdfconverter="inkscape"
       ns2:text="$\\{$"
       ns2:preamble="/usr/share/inkscape/extensions/textext/default_packages.tex"
       ns2:scale="7.097311668860765"
       ns2:alignment="middle center"
       ns2:jacobian_sqrt="2.50378"
       id="g41081">
      <defs
         id="defs41071">
        <g
           id="g41069">
          <symbol
             overflow="visible"
             id="symbol41063">
            <path
               style="stroke:none;stroke-width:0"
               d=""
               id="path41061" />
          </symbol>
          <symbol
             overflow="visible"
             id="symbol41067">
            <path
               style="stroke:none;stroke-width:0"
               d="m 2.828125,-6.15625 c 0,-0.390625 0.25,-1.03125 1.34375,-1.09375 C 4.21875,-7.265625 4.25,-7.3125 4.25,-7.359375 c 0,-0.125 -0.078125,-0.125 -0.1875,-0.125 -0.984375,0 -1.90625,0.515625 -1.90625,1.25 v 2.28125 c 0,0.390625 0,0.703125 -0.40625,1.03125 -0.34375,0.296875 -0.71875,0.3125 -0.9375,0.3125 C 0.75,-2.59375 0.71875,-2.546875 0.71875,-2.5 c 0,0.109375 0.0625,0.109375 0.15625,0.125 0.65625,0.03125 1.140625,0.390625 1.25,0.875 0.03125,0.109375 0.03125,0.140625 0.03125,0.5 v 1.96875 c 0,0.421875 0,0.734375 0.46875,1.109375 C 3.015625,2.375 3.671875,2.5 4.0625,2.5 4.171875,2.5 4.25,2.5 4.25,2.375 4.25,2.28125 4.203125,2.28125 4.09375,2.265625 3.46875,2.234375 2.984375,1.90625 2.84375,1.40625 2.828125,1.3125 2.828125,1.296875 2.828125,0.9375 v -2.09375 c 0,-0.453125 -0.09375,-0.625 -0.40625,-0.953125 C 2.21875,-2.3125 1.921875,-2.40625 1.640625,-2.5 c 0.828125,-0.21875 1.1875,-0.6875 1.1875,-1.265625 z m 0,0"
               id="path41065" />
          </symbol>
        </g>
      </defs>
      <g
         id="g41079"
         transform="translate(-149.431,-127.281)">
        <g
           style="fill:#000000;fill-opacity:1"
           id="g41077">
          <g
             transform="translate(148.712,134.765)"
             id="g41075">
            <path
               style="stroke:none;stroke-width:0"
               d="m 2.828125,-6.15625 c 0,-0.390625 0.25,-1.03125 1.34375,-1.09375 C 4.21875,-7.265625 4.25,-7.3125 4.25,-7.359375 c 0,-0.125 -0.078125,-0.125 -0.1875,-0.125 -0.984375,0 -1.90625,0.515625 -1.90625,1.25 v 2.28125 c 0,0.390625 0,0.703125 -0.40625,1.03125 -0.34375,0.296875 -0.71875,0.3125 -0.9375,0.3125 C 0.75,-2.59375 0.71875,-2.546875 0.71875,-2.5 c 0,0.109375 0.0625,0.109375 0.15625,0.125 0.65625,0.03125 1.140625,0.390625 1.25,0.875 0.03125,0.109375 0.03125,0.140625 0.03125,0.5 v 1.96875 c 0,0.421875 0,0.734375 0.46875,1.109375 C 3.015625,2.375 3.671875,2.5 4.0625,2.5 4.171875,2.5 4.25,2.5 4.25,2.375 4.25,2.28125 4.203125,2.28125 4.09375,2.265625 3.46875,2.234375 2.984375,1.90625 2.84375,1.40625 2.828125,1.3125 2.828125,1.296875 2.828125,0.9375 v -2.09375 c 0,-0.453125 -0.09375,-0.625 -0.40625,-0.953125 C 2.21875,-2.3125 1.921875,-2.40625 1.640625,-2.5 c 0.828125,-0.21875 1.1875,-0.6875 1.1875,-1.265625 z m 0,0"
               id="path41073" />
          </g>
        </g>
      </g>
    </g>
    <g
       transform="matrix(1.39464,0,0,1.39464,131.39828,81.643308)"
       ns2:version="1.3.0"
       ns2:texconverter="pdflatex"
       ns2:pdfconverter="inkscape"
       ns2:text="empty"
       ns2:preamble="/usr/share/inkscape/extensions/textext/default_packages.tex"
       ns2:scale="3.9533053268617113"
       ns2:alignment="middle center"
       ns2:jacobian_sqrt="1.39464"
       id="g41131">
      <defs
         id="id-5821236c-2840-4e69-9ce4-6956ef733ff5">
        <g
           id="id-9c62b90c-8104-4403-b397-f2ed7a2d138b">
          <symbol
             overflow="visible"
             id="id-1eb4e0b3-12d1-4383-ab14-fd0215814ce3">
            <path
               style="stroke:none"
               d=""
               id="id-4533c6d3-ee84-4db3-aa95-65499ccc0551" />
          </symbol>
          <symbol
             overflow="visible"
             id="id-cd28c5f6-31fa-4ec0-b5f4-df522b25903c">
            <path
               style="stroke:none"
               d="M 1.109375,-2.515625 C 1.171875,-4 2.015625,-4.25 2.359375,-4.25 c 1.015625,0 1.125,1.34375 1.125,1.734375 z m 0,0.21875 h 2.78125 c 0.21875,0 0.25,0 0.25,-0.21875 0,-0.984375 -0.546875,-1.953125 -1.78125,-1.953125 -1.15625,0 -2.078125,1.03125 -2.078125,2.28125 0,1.328125 1.046875,2.296875 2.1875,2.296875 C 3.6875,0.109375 4.140625,-1 4.140625,-1.1875 4.140625,-1.28125 4.0625,-1.3125 4,-1.3125 c -0.078125,0 -0.109375,0.0625 -0.125,0.140625 -0.34375,1.03125 -1.25,1.03125 -1.34375,1.03125 -0.5,0 -0.890625,-0.296875 -1.125,-0.671875 -0.296875,-0.46875 -0.296875,-1.125 -0.296875,-1.484375 z m 0,0"
               id="id-a6ad5134-6c5b-46db-8b35-cfab6887b21a" />
          </symbol>
          <symbol
             overflow="visible"
             id="id-e0ae3992-13f6-45d9-bb39-5488952a8c99">
            <path
               style="stroke:none"
               d="M 1.09375,-3.421875 V -0.75 c 0,0.4375 -0.109375,0.4375 -0.78125,0.4375 V 0 c 0.359375,-0.015625 0.859375,-0.03125 1.140625,-0.03125 0.25,0 0.765625,0.015625 1.109375,0.03125 v -0.3125 c -0.671875,0 -0.78125,0 -0.78125,-0.4375 V -2.59375 C 1.78125,-3.625 2.5,-4.1875 3.125,-4.1875 c 0.640625,0 0.75,0.53125 0.75,1.109375 V -0.75 c 0,0.4375 -0.109375,0.4375 -0.78125,0.4375 V 0 c 0.34375,-0.015625 0.859375,-0.03125 1.125,-0.03125 0.25,0 0.78125,0.015625 1.109375,0.03125 v -0.3125 c -0.65625,0 -0.765625,0 -0.765625,-0.4375 v -1.84375 c 0,-1.03125 0.703125,-1.59375 1.34375,-1.59375 0.625,0 0.734375,0.53125 0.734375,1.109375 V -0.75 c 0,0.4375 -0.109375,0.4375 -0.78125,0.4375 V 0 c 0.34375,-0.015625 0.859375,-0.03125 1.125,-0.03125 0.265625,0 0.78125,0.015625 1.125,0.03125 v -0.3125 c -0.515625,0 -0.765625,0 -0.78125,-0.296875 v -1.90625 c 0,-0.859375 0,-1.15625 -0.3125,-1.515625 -0.140625,-0.171875 -0.46875,-0.375 -1.046875,-0.375 -0.828125,0 -1.28125,0.59375 -1.4375,0.984375 C 4.390625,-4.296875 3.65625,-4.40625 3.203125,-4.40625 2.46875,-4.40625 2,-3.984375 1.71875,-3.359375 V -4.40625 L 0.3125,-4.296875 v 0.3125 c 0.703125,0 0.78125,0.0625 0.78125,0.5625 z m 0,0"
               id="id-29e850bd-b0b1-4547-bd0d-8f84bd270a43" />
          </symbol>
          <symbol
             overflow="visible"
             id="id-65e22c1a-551f-4888-a32c-bae75023a9dc">
            <path
               style="stroke:none"
               d="m 1.71875,-3.75 v -0.65625 l -1.4375,0.109375 v 0.3125 c 0.703125,0 0.78125,0.0625 0.78125,0.5 v 4.65625 C 1.0625,1.625 0.953125,1.625 0.28125,1.625 V 1.9375 C 0.625,1.921875 1.140625,1.90625 1.390625,1.90625 c 0.28125,0 0.78125,0.015625 1.125,0.03125 V 1.625 C 1.859375,1.625 1.75,1.625 1.75,1.171875 V -0.59375 c 0.046875,0.171875 0.46875,0.703125 1.21875,0.703125 1.1875,0 2.21875,-0.984375 2.21875,-2.265625 0,-1.265625 -0.953125,-2.25 -2.078125,-2.25 -0.78125,0 -1.203125,0.4375 -1.390625,0.65625 z M 1.75,-1.140625 v -2.21875 C 2.03125,-3.875 2.515625,-4.15625 3.03125,-4.15625 c 0.734375,0 1.328125,0.875 1.328125,2 0,1.203125 -0.6875,2.046875 -1.421875,2.046875 -0.40625,0 -0.78125,-0.203125 -1.046875,-0.609375 C 1.75,-0.921875 1.75,-0.9375 1.75,-1.140625 Z m 0,0"
               id="id-6953d4ad-3c5d-4bb3-b28e-507f8fc5523b" />
          </symbol>
          <symbol
             overflow="visible"
             id="id-57db7ee1-17fd-4ce0-831a-658c1267ca43">
            <path
               style="stroke:none"
               d="m 1.71875,-3.984375 h 1.4375 v -0.3125 H 1.71875 V -6.125 h -0.25 c 0,0.8125 -0.296875,1.875 -1.28125,1.921875 v 0.21875 h 0.84375 v 2.75 c 0,1.21875 0.9375,1.34375 1.296875,1.34375 0.703125,0 0.984375,-0.703125 0.984375,-1.34375 v -0.5625 h -0.25 V -1.25 c 0,0.734375 -0.296875,1.109375 -0.671875,1.109375 -0.671875,0 -0.671875,-0.90625 -0.671875,-1.078125 z m 0,0"
               id="id-4f67e133-5aae-4a8a-b470-021ea1786542" />
          </symbol>
          <symbol
             overflow="visible"
             id="id-37abd79b-7af7-48ec-be4b-295bdadd6ada">
            <path
               style="stroke:none"
               d="m 4.140625,-3.34375 c 0.25,-0.640625 0.765625,-0.640625 0.921875,-0.640625 v -0.3125 c -0.234375,0.015625 -0.515625,0.03125 -0.75,0.03125 -0.171875,0 -0.640625,-0.015625 -0.859375,-0.03125 v 0.3125 c 0.3125,0 0.46875,0.171875 0.46875,0.421875 0,0.109375 -0.015625,0.125 -0.0625,0.25 L 2.84375,-0.875 1.75,-3.546875 C 1.703125,-3.65625 1.6875,-3.6875 1.6875,-3.734375 c 0,-0.25 0.359375,-0.25 0.5625,-0.25 v -0.3125 c -0.265625,0.015625 -0.921875,0.03125 -1.09375,0.03125 -0.265625,0 -0.671875,-0.015625 -0.96875,-0.03125 v 0.3125 c 0.484375,0 0.671875,0 0.8125,0.34375 L 2.5,0 C 2.4375,0.125 2.296875,0.453125 2.25,0.59375 2.03125,1.140625 1.75,1.828125 1.109375,1.828125 c -0.046875,0 -0.28125,0 -0.46875,-0.1875 0.3125,-0.03125 0.390625,-0.25 0.390625,-0.421875 0,-0.25 -0.1875,-0.40625 -0.421875,-0.40625 -0.203125,0 -0.421875,0.125 -0.421875,0.421875 0,0.453125 0.421875,0.8125 0.921875,0.8125 0.625,0 1.03125,-0.578125 1.265625,-1.140625 z m 0,0"
               id="id-c30f5a5c-c0fd-4f56-9923-000fee469b9a" />
          </symbol>
        </g>
      </defs>
      <g
         id="id-42dac914-6dde-4ce6-bb3b-0ac6e2028fce"
         transform="translate(-148.993,-128.64)">
        <g
           style="fill:#000000;fill-opacity:1"
           id="id-1289f204-f3a0-49f9-9c9e-9b951602599a">
          <g
             transform="translate(148.712,134.765)"
             id="g41347">
            <path
               style="stroke:none"
               d="M 1.109375,-2.515625 C 1.171875,-4 2.015625,-4.25 2.359375,-4.25 c 1.015625,0 1.125,1.34375 1.125,1.734375 z m 0,0.21875 h 2.78125 c 0.21875,0 0.25,0 0.25,-0.21875 0,-0.984375 -0.546875,-1.953125 -1.78125,-1.953125 -1.15625,0 -2.078125,1.03125 -2.078125,2.28125 0,1.328125 1.046875,2.296875 2.1875,2.296875 C 3.6875,0.109375 4.140625,-1 4.140625,-1.1875 4.140625,-1.28125 4.0625,-1.3125 4,-1.3125 c -0.078125,0 -0.109375,0.0625 -0.125,0.140625 -0.34375,1.03125 -1.25,1.03125 -1.34375,1.03125 -0.5,0 -0.890625,-0.296875 -1.125,-0.671875 -0.296875,-0.46875 -0.296875,-1.125 -0.296875,-1.484375 z m 0,0"
               id="id-fb840598-8859-465e-962e-7c13196817da" />
          </g>
          <g
             transform="translate(153.139,134.765)"
             id="g41350">
            <path
               style="stroke:none"
               d="M 1.09375,-3.421875 V -0.75 c 0,0.4375 -0.109375,0.4375 -0.78125,0.4375 V 0 c 0.359375,-0.015625 0.859375,-0.03125 1.140625,-0.03125 0.25,0 0.765625,0.015625 1.109375,0.03125 v -0.3125 c -0.671875,0 -0.78125,0 -0.78125,-0.4375 V -2.59375 C 1.78125,-3.625 2.5,-4.1875 3.125,-4.1875 c 0.640625,0 0.75,0.53125 0.75,1.109375 V -0.75 c 0,0.4375 -0.109375,0.4375 -0.78125,0.4375 V 0 c 0.34375,-0.015625 0.859375,-0.03125 1.125,-0.03125 0.25,0 0.78125,0.015625 1.109375,0.03125 v -0.3125 c -0.65625,0 -0.765625,0 -0.765625,-0.4375 v -1.84375 c 0,-1.03125 0.703125,-1.59375 1.34375,-1.59375 0.625,0 0.734375,0.53125 0.734375,1.109375 V -0.75 c 0,0.4375 -0.109375,0.4375 -0.78125,0.4375 V 0 c 0.34375,-0.015625 0.859375,-0.03125 1.125,-0.03125 0.265625,0 0.78125,0.015625 1.125,0.03125 v -0.3125 c -0.515625,0 -0.765625,0 -0.78125,-0.296875 v -1.90625 c 0,-0.859375 0,-1.15625 -0.3125,-1.515625 -0.140625,-0.171875 -0.46875,-0.375 -1.046875,-0.375 -0.828125,0 -1.28125,0.59375 -1.4375,0.984375 C 4.390625,-4.296875 3.65625,-4.40625 3.203125,-4.40625 2.46875,-4.40625 2,-3.984375 1.71875,-3.359375 V -4.40625 L 0.3125,-4.296875 v 0.3125 c 0.703125,0 0.78125,0.0625 0.78125,0.5625 z m 0,0"
               id="id-7033a563-e48d-46fa-b04f-5bde72a786c2" />
          </g>
          <g
             transform="translate(161.441,134.765)"
             id="g41353">
            <path
               style="stroke:none"
               d="m 1.71875,-3.75 v -0.65625 l -1.4375,0.109375 v 0.3125 c 0.703125,0 0.78125,0.0625 0.78125,0.5 v 4.65625 C 1.0625,1.625 0.953125,1.625 0.28125,1.625 V 1.9375 C 0.625,1.921875 1.140625,1.90625 1.390625,1.90625 c 0.28125,0 0.78125,0.015625 1.125,0.03125 V 1.625 C 1.859375,1.625 1.75,1.625 1.75,1.171875 V -0.59375 c 0.046875,0.171875 0.46875,0.703125 1.21875,0.703125 1.1875,0 2.21875,-0.984375 2.21875,-2.265625 0,-1.265625 -0.953125,-2.25 -2.078125,-2.25 -0.78125,0 -1.203125,0.4375 -1.390625,0.65625 z M 1.75,-1.140625 v -2.21875 C 2.03125,-3.875 2.515625,-4.15625 3.03125,-4.15625 c 0.734375,0 1.328125,0.875 1.328125,2 0,1.203125 -0.6875,2.046875 -1.421875,2.046875 -0.40625,0 -0.78125,-0.203125 -1.046875,-0.609375 C 1.75,-0.921875 1.75,-0.9375 1.75,-1.140625 Z m 0,0"
               id="id-7923b443-4c00-4e0e-87a3-dcbd1c222c09" />
          </g>
          <g
             transform="translate(166.976,134.765)"
             id="g41356">
            <path
               style="stroke:none"
               d="m 1.71875,-3.984375 h 1.4375 v -0.3125 H 1.71875 V -6.125 h -0.25 c 0,0.8125 -0.296875,1.875 -1.28125,1.921875 v 0.21875 h 0.84375 v 2.75 c 0,1.21875 0.9375,1.34375 1.296875,1.34375 0.703125,0 0.984375,-0.703125 0.984375,-1.34375 v -0.5625 h -0.25 V -1.25 c 0,0.734375 -0.296875,1.109375 -0.671875,1.109375 -0.671875,0 -0.671875,-0.90625 -0.671875,-1.078125 z m 0,0"
               id="id-2ff76d86-ed2b-4f72-ab1e-48ef3281e324" />
          </g>
        </g>
        <g
           style="fill:#000000;fill-opacity:1"
           id="id-3a0f0763-5116-4ea7-a960-e82f87083bd5">
          <g
             transform="translate(170.572,134.765)"
             id="g41360">
            <path
               style="stroke:none"
               d="m 4.140625,-3.34375 c 0.25,-0.640625 0.765625,-0.640625 0.921875,-0.640625 v -0.3125 c -0.234375,0.015625 -0.515625,0.03125 -0.75,0.03125 -0.171875,0 -0.640625,-0.015625 -0.859375,-0.03125 v 0.3125 c 0.3125,0 0.46875,0.171875 0.46875,0.421875 0,0.109375 -0.015625,0.125 -0.0625,0.25 L 2.84375,-0.875 1.75,-3.546875 C 1.703125,-3.65625 1.6875,-3.6875 1.6875,-3.734375 c 0,-0.25 0.359375,-0.25 0.5625,-0.25 v -0.3125 c -0.265625,0.015625 -0.921875,0.03125 -1.09375,0.03125 -0.265625,0 -0.671875,-0.015625 -0.96875,-0.03125 v 0.3125 c 0.484375,0 0.671875,0 0.8125,0.34375 L 2.5,0 C 2.4375,0.125 2.296875,0.453125 2.25,0.59375 2.03125,1.140625 1.75,1.828125 1.109375,1.828125 c -0.046875,0 -0.28125,0 -0.46875,-0.1875 0.3125,-0.03125 0.390625,-0.25 0.390625,-0.421875 0,-0.25 -0.1875,-0.40625 -0.421875,-0.40625 -0.203125,0 -0.421875,0.125 -0.421875,0.421875 0,0.453125 0.421875,0.8125 0.921875,0.8125 0.625,0 1.03125,-0.578125 1.265625,-1.140625 z m 0,0"
               id="id-0c396e42-111e-4a11-9159-ec9f5c00c100" />
          </g>
        </g>
      </g>
    </g>
  </g>
</svg>
