<?xml version="1.0" encoding="UTF-8" standalone="no"?>
<!-- Created with Inkscape (http://www.inkscape.org/) -->

<svg
   width="119.7414mm"
   height="119.20918mm"
   viewBox="0 0 119.7414 119.20918"
   version="1.1"
   id="svg1"
   xml:space="preserve"
   inkscape:version="1.4.3 (0d15f75042, 2025-12-25)"
   sodipodi:docname="latticeModel.svg"
   xmlns:inkscape="http://www.inkscape.org/namespaces/inkscape"
   xmlns:sodipodi="http://sodipodi.sourceforge.net/DTD/sodipodi-0.dtd"
   xmlns="http://www.w3.org/2000/svg"
   xmlns:svg="http://www.w3.org/2000/svg"><sodipodi:namedview
     id="namedview1"
     pagecolor="#ffffff"
     bordercolor="#000000"
     borderopacity="0.25"
     inkscape:showpageshadow="2"
     inkscape:pageopacity="0.0"
     inkscape:pagecheckerboard="0"
     inkscape:deskcolor="#d1d1d1"
     inkscape:document-units="mm"
     inkscape:zoom="0.96042084"
     inkscape:cx="232.18988"
     inkscape:cy="260.82316"
     inkscape:window-width="1920"
     inkscape:window-height="1123"
     inkscape:window-x="0"
     inkscape:window-y="0"
     inkscape:window-maximized="1"
     inkscape:current-layer="layer1" /><defs
     id="defs1"><inkscape:path-effect
       effect="spiro"
       id="path-effect8"
       is_visible="true"
       lpeversion="1" /><inkscape:path-effect
       effect="spiro"
       id="path-effect4"
       is_visible="true"
       lpeversion="1" /><rect
       x="506.95279"
       y="12.349642"
       width="79.65519"
       height="106.8244"
       id="rect1" /><inkscape:path-effect
       effect="spiro"
       id="path-effect18"
       is_visible="true"
       lpeversion="1" /><inkscape:path-effect
       effect="spiro"
       id="path-effect15"
       is_visible="true"
       lpeversion="1" /><inkscape:path-effect
       effect="spiro"
       id="path-effect6"
       is_visible="true"
       lpeversion="1" /><inkscape:path-effect
       effect="spiro"
       id="path-effect14"
       is_visible="true"
       lpeversion="1" /><inkscape:path-effect
       effect="spiro"
       id="path-effect13"
       is_visible="true"
       lpeversion="1" /><inkscape:path-effect
       effect="spiro"
       id="path-effect11"
       is_visible="true"
       lpeversion="1" /><inkscape:path-effect
       effect="spiro"
       id="path-effect2"
       is_visible="true"
       lpeversion="1" /><inkscape:path-effect
       effect="spiro"
       id="path-effect7"
       is_visible="true"
       lpeversion="1" /><inkscape:path-effect
       effect="spiro"
       id="path-effect5"
       is_visible="true"
       lpeversion="1" /><inkscape:path-effect
       effect="spiro"
       id="path-effect3"
       is_visible="true"
       lpeversion="1" /><inkscape:path-effect
       effect="spiro"
       id="path-effect1"
       is_visible="true"
       lpeversion="1" /><inkscape:path-effect
       effect="spiro"
       id="path-effect1-3"
       is_visible="true"
       lpeversion="1" /><inkscape:path-effect
       effect="spiro"
       id="path-effect1-6"
       is_visible="true"
       lpeversion="1" /><inkscape:path-effect
       effect="spiro"
       id="path-effect1-3-1"
       is_visible="true"
       lpeversion="1" /><inkscape:path-effect
       effect="spiro"
       id="path-effect3-8"
       is_visible="true"
       lpeversion="1" /><inkscape:path-effect
       effect="spiro"
       id="path-effect5-7"
       is_visible="true"
       lpeversion="1" /><inkscape:path-effect
       effect="spiro"
       id="path-effect7-9"
       is_visible="true"
       lpeversion="1" /><inkscape:path-effect
       effect="spiro"
       id="path-effect1-2"
       is_visible="true"
       lpeversion="1" /><inkscape:path-effect
       effect="spiro"
       id="path-effect1-3-9"
       is_visible="true"
       lpeversion="1" /><inkscape:path-effect
       effect="spiro"
       id="path-effect3-3"
       is_visible="true"
       lpeversion="1" /><inkscape:path-effect
       effect="spiro"
       id="path-effect5-1"
       is_visible="true"
       lpeversion="1" /><inkscape:path-effect
       effect="spiro"
       id="path-effect7-94"
       is_visible="true"
       lpeversion="1" /><inkscape:path-effect
       effect="spiro"
       id="path-effect1-6-7"
       is_visible="true"
       lpeversion="1" /><inkscape:path-effect
       effect="spiro"
       id="path-effect1-3-1-8"
       is_visible="true"
       lpeversion="1" /><inkscape:path-effect
       effect="spiro"
       id="path-effect3-8-4"
       is_visible="true"
       lpeversion="1" /><inkscape:path-effect
       effect="spiro"
       id="path-effect5-7-5"
       is_visible="true"
       lpeversion="1" /><inkscape:path-effect
       effect="spiro"
       id="path-effect7-9-0"
       is_visible="true"
       lpeversion="1" /><inkscape:path-effect
       effect="spiro"
       id="path-effect1-68"
       is_visible="true"
       lpeversion="1" /><inkscape:path-effect
       effect="spiro"
       id="path-effect1-3-92"
       is_visible="true"
       lpeversion="1" /><inkscape:path-effect
       effect="spiro"
       id="path-effect3-6"
       is_visible="true"
       lpeversion="1" /><inkscape:path-effect
       effect="spiro"
       id="path-effect5-6"
       is_visible="true"
       lpeversion="1" /><inkscape:path-effect
       effect="spiro"
       id="path-effect7-4"
       is_visible="true"
       lpeversion="1" /><inkscape:path-effect
       effect="spiro"
       id="path-effect1-6-9"
       is_visible="true"
       lpeversion="1" /><inkscape:path-effect
       effect="spiro"
       id="path-effect1-3-1-5"
       is_visible="true"
       lpeversion="1" /><inkscape:path-effect
       effect="spiro"
       id="path-effect3-8-0"
       is_visible="true"
       lpeversion="1" /><inkscape:path-effect
       effect="spiro"
       id="path-effect5-7-4"
       is_visible="true"
       lpeversion="1" /><inkscape:path-effect
       effect="spiro"
       id="path-effect7-9-8"
       is_visible="true"
       lpeversion="1" /><inkscape:path-effect
       effect="spiro"
       id="path-effect1-2-7"
       is_visible="true"
       lpeversion="1" /><inkscape:path-effect
       effect="spiro"
       id="path-effect1-3-9-1"
       is_visible="true"
       lpeversion="1" /><inkscape:path-effect
       effect="spiro"
       id="path-effect3-3-7"
       is_visible="true"
       lpeversion="1" /><inkscape:path-effect
       effect="spiro"
       id="path-effect5-1-2"
       is_visible="true"
       lpeversion="1" /><inkscape:path-effect
       effect="spiro"
       id="path-effect7-94-7"
       is_visible="true"
       lpeversion="1" /><inkscape:path-effect
       effect="spiro"
       id="path-effect1-6-7-2"
       is_visible="true"
       lpeversion="1" /><inkscape:path-effect
       effect="spiro"
       id="path-effect1-3-1-8-2"
       is_visible="true"
       lpeversion="1" /><inkscape:path-effect
       effect="spiro"
       id="path-effect3-8-4-6"
       is_visible="true"
       lpeversion="1" /><inkscape:path-effect
       effect="spiro"
       id="path-effect5-7-5-1"
       is_visible="true"
       lpeversion="1" /><inkscape:path-effect
       effect="spiro"
       id="path-effect7-9-0-0"
       is_visible="true"
       lpeversion="1" /><inkscape:path-effect
       effect="spiro"
       id="path-effect2-3"
       is_visible="true"
       lpeversion="1" /><inkscape:path-effect
       effect="spiro"
       id="path-effect2-3-7"
       is_visible="true"
       lpeversion="1" /><inkscape:path-effect
       effect="spiro"
       id="path-effect2-2"
       is_visible="true"
       lpeversion="1" /><inkscape:path-effect
       effect="spiro"
       id="path-effect2-3-0"
       is_visible="true"
       lpeversion="1" /><inkscape:path-effect
       effect="spiro"
       id="path-effect2-28"
       is_visible="true"
       lpeversion="1" /><inkscape:path-effect
       effect="spiro"
       id="path-effect2-28-9"
       is_visible="true"
       lpeversion="1" /><inkscape:path-effect
       effect="spiro"
       id="path-effect2-28-9-4"
       is_visible="true"
       lpeversion="1" /><inkscape:path-effect
       effect="spiro"
       id="path-effect2-28-3"
       is_visible="true"
       lpeversion="1" /><inkscape:path-effect
       effect="spiro"
       id="path-effect2-28-9-47"
       is_visible="true"
       lpeversion="1" /><g
       id="id-f83a9160-6730-4e1a-b9d3-f026adb54697-5"><g
         id="id-d4f1c1fd-5d7e-4cc2-98f2-243a43401039-2"><path
           d="M 6.25,-6.875 H 5.3125 l -0.640625,4.578125 c -0.15625,1.0625 -0.71875,1.625 -1.71875,1.625 C 2,-0.671875 1.625,-1.171875 1.78125,-2.25 l 0.640625,-4.625 h -0.9375 l -0.65625,4.640625 C 0.640625,-0.875 1.34375,0.125 2.90625,0.125 c 1.515625,0 2.5,-0.9375 2.6875,-2.296875 z m 0,0"
           id="id-794839ec-723a-4315-80cb-2ff75269337b-5" /></g><g
         id="id-762b0ead-5bcf-4ffc-a9d4-650f41334f29-4"><path
           d="m 2.453125,-3.34375 c 0.375,0 0.65625,0.234375 0.65625,0.90625 0,0.859375 -0.359375,2 -1.296875,2 -0.265625,0 -0.421875,-0.03125 -0.671875,-0.109375 l 0.3125,-2.25 c 0.28125,-0.28125 0.578125,-0.546875 1,-0.546875 z M 2.625,-3.859375 c -0.40625,0 -0.75,0.15625 -1.078125,0.453125 L 1.8125,-5.375 1.15625,-5.296875 0.4375,-0.171875 C 0.96875,0.015625 1.328125,0.09375 1.765625,0.09375 3.25,0.09375 3.78125,-1.3125 3.78125,-2.375 c 0,-0.953125 -0.453125,-1.484375 -1.15625,-1.484375 z m 0,0"
           id="id-08ca60ef-a63a-4a79-8dde-f37a9d4a8d09-7" /></g></g><g
       id="id-f83a9160-6730-4e1a-b9d3-f026adb54697-1"><g
         id="id-d4f1c1fd-5d7e-4cc2-98f2-243a43401039-4"><path
           d="M 6.25,-6.875 H 5.3125 l -0.640625,4.578125 c -0.15625,1.0625 -0.71875,1.625 -1.71875,1.625 C 2,-0.671875 1.625,-1.171875 1.78125,-2.25 l 0.640625,-4.625 h -0.9375 l -0.65625,4.640625 C 0.640625,-0.875 1.34375,0.125 2.90625,0.125 c 1.515625,0 2.5,-0.9375 2.6875,-2.296875 z m 0,0"
           id="id-794839ec-723a-4315-80cb-2ff75269337b-9" /></g><g
         id="id-762b0ead-5bcf-4ffc-a9d4-650f41334f29-2"><path
           d="m 2.453125,-3.34375 c 0.375,0 0.65625,0.234375 0.65625,0.90625 0,0.859375 -0.359375,2 -1.296875,2 -0.265625,0 -0.421875,-0.03125 -0.671875,-0.109375 l 0.3125,-2.25 c 0.28125,-0.28125 0.578125,-0.546875 1,-0.546875 z M 2.625,-3.859375 c -0.40625,0 -0.75,0.15625 -1.078125,0.453125 L 1.8125,-5.375 1.15625,-5.296875 0.4375,-0.171875 C 0.96875,0.015625 1.328125,0.09375 1.765625,0.09375 3.25,0.09375 3.78125,-1.3125 3.78125,-2.375 c 0,-0.953125 -0.453125,-1.484375 -1.15625,-1.484375 z m 0,0"
           id="id-08ca60ef-a63a-4a79-8dde-f37a9d4a8d09-0" /></g></g><g
       id="id-f83a9160-6730-4e1a-b9d3-f026adb54697-7"><g
         id="id-d4f1c1fd-5d7e-4cc2-98f2-243a43401039-1"><path
           d="M 6.25,-6.875 H 5.3125 l -0.640625,4.578125 c -0.15625,1.0625 -0.71875,1.625 -1.71875,1.625 C 2,-0.671875 1.625,-1.171875 1.78125,-2.25 l 0.640625,-4.625 h -0.9375 l -0.65625,4.640625 C 0.640625,-0.875 1.34375,0.125 2.90625,0.125 c 1.515625,0 2.5,-0.9375 2.6875,-2.296875 z m 0,0"
           id="id-794839ec-723a-4315-80cb-2ff75269337b-7" /></g><g
         id="id-762b0ead-5bcf-4ffc-a9d4-650f41334f29-27"><path
           d="m 2.453125,-3.34375 c 0.375,0 0.65625,0.234375 0.65625,0.90625 0,0.859375 -0.359375,2 -1.296875,2 -0.265625,0 -0.421875,-0.03125 -0.671875,-0.109375 l 0.3125,-2.25 c 0.28125,-0.28125 0.578125,-0.546875 1,-0.546875 z M 2.625,-3.859375 c -0.40625,0 -0.75,0.15625 -1.078125,0.453125 L 1.8125,-5.375 1.15625,-5.296875 0.4375,-0.171875 C 0.96875,0.015625 1.328125,0.09375 1.765625,0.09375 3.25,0.09375 3.78125,-1.3125 3.78125,-2.375 c 0,-0.953125 -0.453125,-1.484375 -1.15625,-1.484375 z m 0,0"
           id="id-08ca60ef-a63a-4a79-8dde-f37a9d4a8d09-2" /></g></g><inkscape:path-effect
       effect="spiro"
       id="path-effect14-7"
       is_visible="true"
       lpeversion="1" /><g
       id="id-6695c8bc-d4fb-408d-af10-16e63854ae55-9"><g
         id="id-0a61603c-02a1-4c32-b915-3b84f2905897-7"><path
           d="M 2.15625,-4.546875 H 3.296875 L 3.5,-5.25 H 2.265625 L 2.4375,-6.546875 1.71875,-6.46875 1.390625,-5.25 h -0.9375 L 0.34375,-4.546875 H 1.25 L 0.8125,-1.40625 c -0.140625,0.984375 0.34375,1.53125 1.25,1.53125 0.40625,0 0.78125,-0.109375 1.171875,-0.359375 L 2.9375,-0.875 c -0.28125,0.140625 -0.5,0.234375 -0.765625,0.234375 -0.390625,0 -0.53125,-0.21875 -0.453125,-0.75 z m 0,0"
           id="id-cf346f64-ce42-4651-93c5-bab93ca876f1-7" /></g></g><inkscape:path-effect
       effect="spiro"
       id="path-effect6-7"
       is_visible="true"
       lpeversion="1" /><inkscape:path-effect
       effect="spiro"
       id="path-effect6-7-2"
       is_visible="true"
       lpeversion="1" /><inkscape:path-effect
       effect="spiro"
       id="path-effect6-7-2-0"
       is_visible="true"
       lpeversion="1" /><g
       id="id-8f8f5f69-a8af-47aa-a24e-794f2bb534c5-6"><g
         id="id-b1d91c5a-899f-489e-a14d-ef5f8a0f58d0-1"><path
           d="m 9.140625,-5.65625 c 0.25,-0.4375 0.484375,-0.796875 1.125,-0.84375 0.07813,-0.015625 0.1875,-0.015625 0.1875,-0.203125 0,-0.03125 -0.04687,-0.109375 -0.125,-0.109375 -0.234375,0 -0.515625,0.03125 -0.765625,0.03125 -0.34375,0 -0.703125,-0.03125 -1.046875,-0.03125 -0.046875,0 -0.1875,0 -0.1875,0.1875 0,0.109375 0.09375,0.125 0.15625,0.125 0.234375,0.015625 0.59375,0.09375 0.59375,0.390625 0,0.109375 -0.0625,0.1875 -0.140625,0.328125 L 6.25,-1.09375 5.875,-6.03125 c 0,-0.203125 -0.015625,-0.453125 0.703125,-0.46875 0.171875,0 0.265625,0 0.265625,-0.203125 0,-0.09375 -0.109375,-0.109375 -0.140625,-0.109375 -0.40625,0 -0.828125,0.03125 -1.21875,0.03125 -0.234375,0 -0.8125,-0.03125 -1.046875,-0.03125 -0.0625,0 -0.1875,0 -0.1875,0.203125 C 4.25,-6.5 4.34375,-6.5 4.484375,-6.5 4.921875,-6.5 5,-6.4375 5.015625,-6.25 l 0.0625,0.765625 -2.53125,4.390625 -0.375,-5.046875 c 0,-0.125 0,-0.34375 0.765625,-0.359375 0.09375,0 0.203125,0 0.203125,-0.203125 C 3.140625,-6.8125 3.015625,-6.8125 3,-6.8125 c -0.390625,0 -0.8125,0.03125 -1.21875,0.03125 -0.359375,0 -0.71875,-0.03125 -1.046875,-0.03125 -0.0625,0 -0.1875,0 -0.1875,0.1875 0,0.125 0.09375,0.125 0.25,0.125 0.5,0 0.515625,0.09375 0.53125,0.375 l 0.453125,6.078125 c 0,0.1875 0.015625,0.265625 0.15625,0.265625 0.109375,0 0.140625,-0.0625 0.234375,-0.203125 l 2.9375,-5.09375 0.359375,5.03125 C 5.5,0.171875 5.515625,0.21875 5.625,0.21875 c 0.140625,0 0.203125,-0.09375 0.25,-0.1875 z m 0,0"
           id="id-50b09f7b-82c5-4199-8584-5e5cc4cb3f66-8" /></g></g><g
       id="id-8f8f5f69-a8af-47aa-a24e-794f2bb534c5-2"><g
         id="id-b1d91c5a-899f-489e-a14d-ef5f8a0f58d0-2"><path
           d="m 9.140625,-5.65625 c 0.25,-0.4375 0.484375,-0.796875 1.125,-0.84375 0.07813,-0.015625 0.1875,-0.015625 0.1875,-0.203125 0,-0.03125 -0.04687,-0.109375 -0.125,-0.109375 -0.234375,0 -0.515625,0.03125 -0.765625,0.03125 -0.34375,0 -0.703125,-0.03125 -1.046875,-0.03125 -0.046875,0 -0.1875,0 -0.1875,0.1875 0,0.109375 0.09375,0.125 0.15625,0.125 0.234375,0.015625 0.59375,0.09375 0.59375,0.390625 0,0.109375 -0.0625,0.1875 -0.140625,0.328125 L 6.25,-1.09375 5.875,-6.03125 c 0,-0.203125 -0.015625,-0.453125 0.703125,-0.46875 0.171875,0 0.265625,0 0.265625,-0.203125 0,-0.09375 -0.109375,-0.109375 -0.140625,-0.109375 -0.40625,0 -0.828125,0.03125 -1.21875,0.03125 -0.234375,0 -0.8125,-0.03125 -1.046875,-0.03125 -0.0625,0 -0.1875,0 -0.1875,0.203125 C 4.25,-6.5 4.34375,-6.5 4.484375,-6.5 4.921875,-6.5 5,-6.4375 5.015625,-6.25 l 0.0625,0.765625 -2.53125,4.390625 -0.375,-5.046875 c 0,-0.125 0,-0.34375 0.765625,-0.359375 0.09375,0 0.203125,0 0.203125,-0.203125 C 3.140625,-6.8125 3.015625,-6.8125 3,-6.8125 c -0.390625,0 -0.8125,0.03125 -1.21875,0.03125 -0.359375,0 -0.71875,-0.03125 -1.046875,-0.03125 -0.0625,0 -0.1875,0 -0.1875,0.1875 0,0.125 0.09375,0.125 0.25,0.125 0.5,0 0.515625,0.09375 0.53125,0.375 l 0.453125,6.078125 c 0,0.1875 0.015625,0.265625 0.15625,0.265625 0.109375,0 0.140625,-0.0625 0.234375,-0.203125 l 2.9375,-5.09375 0.359375,5.03125 C 5.5,0.171875 5.515625,0.21875 5.625,0.21875 c 0.140625,0 0.203125,-0.09375 0.25,-0.1875 z m 0,0"
           id="id-50b09f7b-82c5-4199-8584-5e5cc4cb3f66-89" /></g></g><g
       id="id-8f8f5f69-a8af-47aa-a24e-794f2bb534c5-7"><g
         id="id-b1d91c5a-899f-489e-a14d-ef5f8a0f58d0-8"><path
           d="m 9.140625,-5.65625 c 0.25,-0.4375 0.484375,-0.796875 1.125,-0.84375 0.07813,-0.015625 0.1875,-0.015625 0.1875,-0.203125 0,-0.03125 -0.04687,-0.109375 -0.125,-0.109375 -0.234375,0 -0.515625,0.03125 -0.765625,0.03125 -0.34375,0 -0.703125,-0.03125 -1.046875,-0.03125 -0.046875,0 -0.1875,0 -0.1875,0.1875 0,0.109375 0.09375,0.125 0.15625,0.125 0.234375,0.015625 0.59375,0.09375 0.59375,0.390625 0,0.109375 -0.0625,0.1875 -0.140625,0.328125 L 6.25,-1.09375 5.875,-6.03125 c 0,-0.203125 -0.015625,-0.453125 0.703125,-0.46875 0.171875,0 0.265625,0 0.265625,-0.203125 0,-0.09375 -0.109375,-0.109375 -0.140625,-0.109375 -0.40625,0 -0.828125,0.03125 -1.21875,0.03125 -0.234375,0 -0.8125,-0.03125 -1.046875,-0.03125 -0.0625,0 -0.1875,0 -0.1875,0.203125 C 4.25,-6.5 4.34375,-6.5 4.484375,-6.5 4.921875,-6.5 5,-6.4375 5.015625,-6.25 l 0.0625,0.765625 -2.53125,4.390625 -0.375,-5.046875 c 0,-0.125 0,-0.34375 0.765625,-0.359375 0.09375,0 0.203125,0 0.203125,-0.203125 C 3.140625,-6.8125 3.015625,-6.8125 3,-6.8125 c -0.390625,0 -0.8125,0.03125 -1.21875,0.03125 -0.359375,0 -0.71875,-0.03125 -1.046875,-0.03125 -0.0625,0 -0.1875,0 -0.1875,0.1875 0,0.125 0.09375,0.125 0.25,0.125 0.5,0 0.515625,0.09375 0.53125,0.375 l 0.453125,6.078125 c 0,0.1875 0.015625,0.265625 0.15625,0.265625 0.109375,0 0.140625,-0.0625 0.234375,-0.203125 l 2.9375,-5.09375 0.359375,5.03125 C 5.5,0.171875 5.515625,0.21875 5.625,0.21875 c 0.140625,0 0.203125,-0.09375 0.25,-0.1875 z m 0,0"
           id="id-50b09f7b-82c5-4199-8584-5e5cc4cb3f66-4" /></g></g><g
       id="id-e3ca5a55-9dc5-4503-89f1-e2515b3e117e-0"><g
         id="id-02dd66b8-eeb6-48b8-8595-e45f9fa7c3a8-6"><path
           d="M 2.65625,-6.875 H 1.71875 L 0.890625,-1.03125 C 0.765625,-0.109375 0.5,0.3125 -0.453125,0.671875 L -0.265625,1.375 C 0.875,1.03125 1.609375,0.515625 1.8125,-0.921875 Z m 0,0"
           id="id-d3407b9d-85b0-4cb1-8aa1-56e07cf84840-1" /></g></g><g
       id="id-e3ca5a55-9dc5-4503-89f1-e2515b3e117e-7"><g
         id="id-02dd66b8-eeb6-48b8-8595-e45f9fa7c3a8-4"><path
           d="M 2.65625,-6.875 H 1.71875 L 0.890625,-1.03125 C 0.765625,-0.109375 0.5,0.3125 -0.453125,0.671875 L -0.265625,1.375 C 0.875,1.03125 1.609375,0.515625 1.8125,-0.921875 Z m 0,0"
           id="id-d3407b9d-85b0-4cb1-8aa1-56e07cf84840-5" /></g></g><g
       id="id-e3ca5a55-9dc5-4503-89f1-e2515b3e117e-6"><g
         id="id-02dd66b8-eeb6-48b8-8595-e45f9fa7c3a8-8"><path
           d="M 2.65625,-6.875 H 1.71875 L 0.890625,-1.03125 C 0.765625,-0.109375 0.5,0.3125 -0.453125,0.671875 L -0.265625,1.375 C 0.875,1.03125 1.609375,0.515625 1.8125,-0.921875 Z m 0,0"
           id="id-d3407b9d-85b0-4cb1-8aa1-56e07cf84840-8" /></g></g><g
       id="id-f763b9b5-19ba-4751-bc12-0efe7d7ebcef-5"><g
         id="id-acd9ed08-de36-4e2e-8553-e5fe142a0e25-9"><path
           d="M 5.390625,-6.078125 C 5.46875,-6.40625 5.5,-6.5 6.046875,-6.5 c 0.15625,0 0.265625,0 0.265625,-0.1875 0,-0.09375 -0.0625,-0.125 -0.140625,-0.125 -0.25,0 -0.859375,0.03125 -1.109375,0.03125 -0.328125,0 -1.140625,-0.03125 -1.46875,-0.03125 -0.078125,0 -0.203125,0 -0.203125,0.203125 C 3.390625,-6.5 3.46875,-6.5 3.734375,-6.5 c 0.21875,0 0.328125,0 0.578125,0.015625 0.234375,0.03125 0.296875,0.0625 0.296875,0.203125 0,0.0625 -0.015625,0.125 -0.03125,0.203125 L 3.421875,-1.5 C 3.1875,-0.53125 2.515625,0 2,0 1.734375,0 1.203125,-0.09375 1.046875,-0.625 c 0.03125,0.015625 0.09375,0.015625 0.125,0.015625 0.390625,0 0.640625,-0.34375 0.640625,-0.640625 0,-0.3125 -0.265625,-0.421875 -0.4375,-0.421875 -0.171875,0 -0.671875,0.125 -0.671875,0.796875 0,0.625 0.53125,1.09375 1.328125,1.09375 0.90625,0 1.953125,-0.65625 2.203125,-1.640625 z m 0,0"
           id="id-60c08aa6-77b1-4231-a030-8eed4d6003b8-4" /></g><g
         id="id-131bcdd4-a18d-4ad6-9542-4c57886d6bd3-9"><path
           d="m 2.03125,-0.015625 c 0,-0.65625 -0.25,-1.046875 -0.640625,-1.046875 -0.328125,0 -0.53125,0.25 -0.53125,0.53125 C 0.859375,-0.265625 1.0625,0 1.390625,0 1.5,0 1.640625,-0.046875 1.734375,-0.125 1.765625,-0.15625 1.78125,-0.15625 1.78125,-0.15625 c 0.015625,0 0.015625,0 0.015625,0.140625 0,0.75 -0.34375,1.34375 -0.671875,1.671875 -0.109375,0.109375 -0.109375,0.125 -0.109375,0.15625 0,0.078125 0.046875,0.109375 0.09375,0.109375 0.109375,0 0.921875,-0.765625 0.921875,-1.9375 z m 0,0"
           id="id-446f9a6c-a292-4b52-b723-e42e5c2b0ffe-0" /></g><g
         id="id-b017fac2-6e90-4d1c-9682-d6113a499250-9"><path
           d="M 6.265625,-5.671875 C 6.75,-6.453125 7.171875,-6.484375 7.53125,-6.5 c 0.125,-0.015625 0.140625,-0.171875 0.140625,-0.1875 0,-0.078125 -0.0625,-0.125 -0.140625,-0.125 -0.25,0 -0.546875,0.03125 -0.8125,0.03125 -0.328125,0 -0.671875,-0.03125 -0.984375,-0.03125 -0.0625,0 -0.1875,0 -0.1875,0.1875 0,0.109375 0.078125,0.125 0.15625,0.125 0.265625,0.015625 0.453125,0.125 0.453125,0.328125 0,0.15625 -0.140625,0.375 -0.140625,0.375 l -3.0625,4.875 -0.6875,-5.28125 C 2.265625,-6.375 2.5,-6.5 2.953125,-6.5 c 0.140625,0 0.25,0 0.25,-0.203125 0,-0.078125 -0.078125,-0.109375 -0.125,-0.109375 -0.40625,0 -0.828125,0.03125 -1.25,0.03125 -0.171875,0 -0.359375,0 -0.546875,0 -0.171875,0 -0.359375,-0.03125 -0.53125,-0.03125 -0.078125,0 -0.1875,0 -0.1875,0.1875 0,0.125 0.078125,0.125 0.25,0.125 0.546875,0 0.5625,0.09375 0.59375,0.34375 L 2.1875,-0.015625 C 2.21875,0.1875 2.265625,0.21875 2.390625,0.21875 c 0.15625,0 0.203125,-0.046875 0.28125,-0.171875 z m 0,0"
           id="id-a0e1ec8c-dabc-491a-b1cd-18a1d44a561d-1" /></g></g><g
       id="id-f763b9b5-19ba-4751-bc12-0efe7d7ebcef-4"><g
         id="id-acd9ed08-de36-4e2e-8553-e5fe142a0e25-8"><path
           d="M 5.390625,-6.078125 C 5.46875,-6.40625 5.5,-6.5 6.046875,-6.5 c 0.15625,0 0.265625,0 0.265625,-0.1875 0,-0.09375 -0.0625,-0.125 -0.140625,-0.125 -0.25,0 -0.859375,0.03125 -1.109375,0.03125 -0.328125,0 -1.140625,-0.03125 -1.46875,-0.03125 -0.078125,0 -0.203125,0 -0.203125,0.203125 C 3.390625,-6.5 3.46875,-6.5 3.734375,-6.5 c 0.21875,0 0.328125,0 0.578125,0.015625 0.234375,0.03125 0.296875,0.0625 0.296875,0.203125 0,0.0625 -0.015625,0.125 -0.03125,0.203125 L 3.421875,-1.5 C 3.1875,-0.53125 2.515625,0 2,0 1.734375,0 1.203125,-0.09375 1.046875,-0.625 c 0.03125,0.015625 0.09375,0.015625 0.125,0.015625 0.390625,0 0.640625,-0.34375 0.640625,-0.640625 0,-0.3125 -0.265625,-0.421875 -0.4375,-0.421875 -0.171875,0 -0.671875,0.125 -0.671875,0.796875 0,0.625 0.53125,1.09375 1.328125,1.09375 0.90625,0 1.953125,-0.65625 2.203125,-1.640625 z m 0,0"
           id="id-60c08aa6-77b1-4231-a030-8eed4d6003b8-1" /></g><g
         id="id-131bcdd4-a18d-4ad6-9542-4c57886d6bd3-2"><path
           d="m 2.03125,-0.015625 c 0,-0.65625 -0.25,-1.046875 -0.640625,-1.046875 -0.328125,0 -0.53125,0.25 -0.53125,0.53125 C 0.859375,-0.265625 1.0625,0 1.390625,0 1.5,0 1.640625,-0.046875 1.734375,-0.125 1.765625,-0.15625 1.78125,-0.15625 1.78125,-0.15625 c 0.015625,0 0.015625,0 0.015625,0.140625 0,0.75 -0.34375,1.34375 -0.671875,1.671875 -0.109375,0.109375 -0.109375,0.125 -0.109375,0.15625 0,0.078125 0.046875,0.109375 0.09375,0.109375 0.109375,0 0.921875,-0.765625 0.921875,-1.9375 z m 0,0"
           id="id-446f9a6c-a292-4b52-b723-e42e5c2b0ffe-9" /></g><g
         id="id-b017fac2-6e90-4d1c-9682-d6113a499250-3"><path
           d="M 6.265625,-5.671875 C 6.75,-6.453125 7.171875,-6.484375 7.53125,-6.5 c 0.125,-0.015625 0.140625,-0.171875 0.140625,-0.1875 0,-0.078125 -0.0625,-0.125 -0.140625,-0.125 -0.25,0 -0.546875,0.03125 -0.8125,0.03125 -0.328125,0 -0.671875,-0.03125 -0.984375,-0.03125 -0.0625,0 -0.1875,0 -0.1875,0.1875 0,0.109375 0.078125,0.125 0.15625,0.125 0.265625,0.015625 0.453125,0.125 0.453125,0.328125 0,0.15625 -0.140625,0.375 -0.140625,0.375 l -3.0625,4.875 -0.6875,-5.28125 C 2.265625,-6.375 2.5,-6.5 2.953125,-6.5 c 0.140625,0 0.25,0 0.25,-0.203125 0,-0.078125 -0.078125,-0.109375 -0.125,-0.109375 -0.40625,0 -0.828125,0.03125 -1.25,0.03125 -0.171875,0 -0.359375,0 -0.546875,0 -0.171875,0 -0.359375,-0.03125 -0.53125,-0.03125 -0.078125,0 -0.1875,0 -0.1875,0.1875 0,0.125 0.078125,0.125 0.25,0.125 0.546875,0 0.5625,0.09375 0.59375,0.34375 L 2.1875,-0.015625 C 2.21875,0.1875 2.265625,0.21875 2.390625,0.21875 c 0.15625,0 0.203125,-0.046875 0.28125,-0.171875 z m 0,0"
           id="id-a0e1ec8c-dabc-491a-b1cd-18a1d44a561d-9" /></g></g><g
       id="id-f763b9b5-19ba-4751-bc12-0efe7d7ebcef-48"><g
         id="id-acd9ed08-de36-4e2e-8553-e5fe142a0e25-1"><path
           d="M 5.390625,-6.078125 C 5.46875,-6.40625 5.5,-6.5 6.046875,-6.5 c 0.15625,0 0.265625,0 0.265625,-0.1875 0,-0.09375 -0.0625,-0.125 -0.140625,-0.125 -0.25,0 -0.859375,0.03125 -1.109375,0.03125 -0.328125,0 -1.140625,-0.03125 -1.46875,-0.03125 -0.078125,0 -0.203125,0 -0.203125,0.203125 C 3.390625,-6.5 3.46875,-6.5 3.734375,-6.5 c 0.21875,0 0.328125,0 0.578125,0.015625 0.234375,0.03125 0.296875,0.0625 0.296875,0.203125 0,0.0625 -0.015625,0.125 -0.03125,0.203125 L 3.421875,-1.5 C 3.1875,-0.53125 2.515625,0 2,0 1.734375,0 1.203125,-0.09375 1.046875,-0.625 c 0.03125,0.015625 0.09375,0.015625 0.125,0.015625 0.390625,0 0.640625,-0.34375 0.640625,-0.640625 0,-0.3125 -0.265625,-0.421875 -0.4375,-0.421875 -0.171875,0 -0.671875,0.125 -0.671875,0.796875 0,0.625 0.53125,1.09375 1.328125,1.09375 0.90625,0 1.953125,-0.65625 2.203125,-1.640625 z m 0,0"
           id="id-60c08aa6-77b1-4231-a030-8eed4d6003b8-0" /></g><g
         id="id-131bcdd4-a18d-4ad6-9542-4c57886d6bd3-3"><path
           d="m 2.03125,-0.015625 c 0,-0.65625 -0.25,-1.046875 -0.640625,-1.046875 -0.328125,0 -0.53125,0.25 -0.53125,0.53125 C 0.859375,-0.265625 1.0625,0 1.390625,0 1.5,0 1.640625,-0.046875 1.734375,-0.125 1.765625,-0.15625 1.78125,-0.15625 1.78125,-0.15625 c 0.015625,0 0.015625,0 0.015625,0.140625 0,0.75 -0.34375,1.34375 -0.671875,1.671875 -0.109375,0.109375 -0.109375,0.125 -0.109375,0.15625 0,0.078125 0.046875,0.109375 0.09375,0.109375 0.109375,0 0.921875,-0.765625 0.921875,-1.9375 z m 0,0"
           id="id-446f9a6c-a292-4b52-b723-e42e5c2b0ffe-04" /></g><g
         id="id-b017fac2-6e90-4d1c-9682-d6113a499250-4"><path
           d="M 6.265625,-5.671875 C 6.75,-6.453125 7.171875,-6.484375 7.53125,-6.5 c 0.125,-0.015625 0.140625,-0.171875 0.140625,-0.1875 0,-0.078125 -0.0625,-0.125 -0.140625,-0.125 -0.25,0 -0.546875,0.03125 -0.8125,0.03125 -0.328125,0 -0.671875,-0.03125 -0.984375,-0.03125 -0.0625,0 -0.1875,0 -0.1875,0.1875 0,0.109375 0.078125,0.125 0.15625,0.125 0.265625,0.015625 0.453125,0.125 0.453125,0.328125 0,0.15625 -0.140625,0.375 -0.140625,0.375 l -3.0625,4.875 -0.6875,-5.28125 C 2.265625,-6.375 2.5,-6.5 2.953125,-6.5 c 0.140625,0 0.25,0 0.25,-0.203125 0,-0.078125 -0.078125,-0.109375 -0.125,-0.109375 -0.40625,0 -0.828125,0.03125 -1.25,0.03125 -0.171875,0 -0.359375,0 -0.546875,0 -0.171875,0 -0.359375,-0.03125 -0.53125,-0.03125 -0.078125,0 -0.1875,0 -0.1875,0.1875 0,0.125 0.078125,0.125 0.25,0.125 0.546875,0 0.5625,0.09375 0.59375,0.34375 L 2.1875,-0.015625 C 2.21875,0.1875 2.265625,0.21875 2.390625,0.21875 c 0.15625,0 0.203125,-0.046875 0.28125,-0.171875 z m 0,0"
           id="id-a0e1ec8c-dabc-491a-b1cd-18a1d44a561d-4" /></g></g><rect
       x="506.95279"
       y="12.349642"
       width="79.65519"
       height="106.8244"
       id="rect1-7" /><rect
       x="506.95279"
       y="12.349642"
       width="79.65519"
       height="106.8244"
       id="rect3" /><rect
       x="506.95279"
       y="12.349642"
       width="79.65519"
       height="106.8244"
       id="rect1-7-2" /><rect
       x="506.95279"
       y="12.349642"
       width="79.65519"
       height="106.8244"
       id="rect1-7-8" /><rect
       x="506.95279"
       y="12.349642"
       width="79.65519"
       height="106.8244"
       id="rect1-7-20" /><rect
       x="506.95279"
       y="12.349642"
       width="79.65519"
       height="106.8244"
       id="rect3-6" /><rect
       x="506.95279"
       y="12.349642"
       width="79.65519"
       height="106.8244"
       id="rect3-0" /><rect
       x="506.95279"
       y="12.349642"
       width="79.65519"
       height="106.8244"
       id="rect3-67" /><rect
       x="506.95279"
       y="12.349642"
       width="79.65519"
       height="106.8244"
       id="rect1-3" /><rect
       x="506.95279"
       y="12.349642"
       width="79.65519"
       height="106.8244"
       id="rect1-8" /><rect
       x="506.95279"
       y="12.349642"
       width="79.65519"
       height="106.8244"
       id="rect1-37" /><inkscape:path-effect
       effect="spiro"
       id="path-effect2-5"
       is_visible="true"
       lpeversion="1" /><inkscape:path-effect
       effect="spiro"
       id="path-effect2-31"
       is_visible="true"
       lpeversion="1" /><inkscape:path-effect
       effect="spiro"
       id="path-effect2-5-5"
       is_visible="true"
       lpeversion="1" /><rect
       x="506.95279"
       y="12.349642"
       width="79.65519"
       height="106.8244"
       id="rect2" /><rect
       x="506.95279"
       y="12.349642"
       width="79.65519"
       height="106.8244"
       id="rect4" /><rect
       x="506.95279"
       y="12.349642"
       width="79.65519"
       height="106.8244"
       id="rect8" /><rect
       x="506.95279"
       y="12.349642"
       width="79.65519"
       height="106.8244"
       id="rect10" /><rect
       x="506.95279"
       y="12.349642"
       width="79.65519"
       height="106.8244"
       id="rect11" /><rect
       x="506.95279"
       y="12.349642"
       width="79.65519"
       height="106.8244"
       id="rect12" /><rect
       x="506.95279"
       y="12.349642"
       width="79.65519"
       height="106.8244"
       id="rect13" /><rect
       x="506.95279"
       y="12.349642"
       width="79.65519"
       height="106.8244"
       id="rect14" /><rect
       x="506.95279"
       y="12.349642"
       width="79.65519"
       height="106.8244"
       id="rect15" /></defs><g
     inkscape:label="Layer 1"
     inkscape:groupmode="layer"
     id="layer1"
     transform="translate(-55.487633,-88.333226)"><path
       style="fill:#35837b;stroke:#808080;stroke-width:1.68153;stroke-linejoin:bevel;stroke-dasharray:3.36306, 1.68153;stroke-dashoffset:0;stroke-opacity:1;paint-order:markers stroke fill"
       d="m 154.96176,95.412254 -0.0527,84.466666"
       id="path6-3-1-3"
       transform="matrix(0,-0.99895458,1.4161394,0,-79.628676,264.88451)"
       inkscape:original-d="m 154.96176,95.412254 c -0.0175,28.155556 -0.0351,56.311116 -0.0527,84.466666"
       inkscape:path-effect="#path-effect6-7-2-0" /><path
       style="fill:#35837b;stroke:#808080;stroke-width:1.68153;stroke-linejoin:bevel;stroke-dasharray:3.36306, 1.68153;stroke-dashoffset:0;stroke-opacity:1;paint-order:markers stroke fill"
       d="m 154.96176,95.412254 -0.0527,84.466666"
       id="path11"
       transform="matrix(0,-0.99895458,1.4161394,0,-79.628676,307.21787)"
       inkscape:original-d="m 154.96176,95.412254 c -0.0175,28.155556 -0.0351,56.311116 -0.0527,84.466666"
       inkscape:path-effect="#path-effect15" /><path
       style="fill:#35837b;stroke:#808080;stroke-width:1.68153;stroke-linejoin:bevel;stroke-dasharray:3.36306, 1.68153;stroke-dashoffset:0;stroke-opacity:1;paint-order:markers stroke fill"
       d="m 154.96176,95.412254 -0.0527,84.466666"
       id="path17"
       transform="matrix(0,-0.99895458,1.4161394,0,-79.628676,349.55123)"
       inkscape:original-d="m 154.96176,95.412254 c -0.0175,28.155556 -0.0351,56.311116 -0.0527,84.466666"
       inkscape:path-effect="#path-effect18" /><path
       style="fill:#35837b;stroke:#808080;stroke-width:1.68679;stroke-linejoin:bevel;stroke-dasharray:3.37359, 1.68679;stroke-dashoffset:0;stroke-opacity:1;paint-order:markers stroke fill"
       d="m 154.96176,95.412254 -0.0527,84.466666"
       id="path6"
       transform="matrix(0.99901507,0,0,1.4072277,-34.688646,-45.588936)"
       inkscape:original-d="m 154.96176,95.412254 c -0.0175,28.155556 -0.0351,56.311116 -0.0527,84.466666"
       inkscape:path-effect="#path-effect6" /><path
       style="fill:#35837b;stroke:#808080;stroke-width:1.68679;stroke-linejoin:bevel;stroke-dasharray:3.37359, 1.68679;stroke-dashoffset:0;stroke-opacity:1;paint-order:markers stroke fill"
       d="m 154.96176,95.412254 -0.0527,84.466666"
       id="path6-3"
       transform="matrix(0.99901507,0,0,1.4072277,10.514515,-45.588936)"
       inkscape:original-d="m 154.96176,95.412254 c -0.0175,28.155556 -0.0351,56.311116 -0.0527,84.466666"
       inkscape:path-effect="#path-effect6-7" /><path
       style="fill:#35837b;stroke:#808080;stroke-width:1.68679;stroke-linejoin:bevel;stroke-dasharray:3.37359, 1.68679;stroke-dashoffset:0;stroke-opacity:1;paint-order:markers stroke fill"
       d="m 154.96176,95.412254 -0.0527,84.466666"
       id="path6-3-1"
       transform="matrix(0.99901507,0,0,1.4072277,-79.422371,-45.9328)"
       inkscape:original-d="m 154.96176,95.412254 c -0.0175,28.155556 -0.0351,56.311116 -0.0527,84.466666"
       inkscape:path-effect="#path-effect6-7-2" /><circle
       style="fill:#505050;fill-opacity:1;stroke:none;stroke-width:0.1;stroke-dasharray:none;stroke-dashoffset:0;stroke-opacity:1"
       id="path7-9"
       cx="120.32933"
       cy="109.75945"
       r="6.7877083" /><circle
       style="fill:#505050;fill-opacity:1;stroke:none;stroke-width:0.1;stroke-dasharray:none;stroke-dashoffset:0;stroke-opacity:1"
       id="path7-9-2"
       cx="75.360435"
       cy="152.34441"
       r="6.7877083" /><circle
       style="fill:#505050;fill-opacity:1;stroke:none;stroke-width:0.1;stroke-dasharray:none;stroke-dashoffset:0;stroke-opacity:1"
       id="path7-9-0"
       cx="120.09416"
       cy="194.12155"
       r="6.7877083" /><circle
       style="fill:#505050;fill-opacity:1;stroke:none;stroke-width:0.1;stroke-dasharray:none;stroke-dashoffset:0;stroke-opacity:1"
       id="path7-9-09"
       cx="165.29732"
       cy="152.04129"
       r="6.7877083" /><circle
       style="fill:#505050;fill-opacity:1;stroke:none;stroke-width:0.1;stroke-dasharray:none;stroke-dashoffset:0;stroke-opacity:1"
       id="path7-9-59"
       cx="75.636581"
       cy="110.11108"
       r="6.7877083" /><circle
       style="fill:#505050;fill-opacity:1;stroke:none;stroke-width:0.1;stroke-dasharray:none;stroke-dashoffset:0;stroke-opacity:1"
       id="path7-9-03"
       cx="165.95557"
       cy="109.45483"
       r="6.7877083" /><circle
       style="fill:#505050;fill-opacity:1;stroke:none;stroke-width:0.1;stroke-dasharray:none;stroke-dashoffset:0;stroke-opacity:1"
       id="path7-9-5-7"
       cx="75.113609"
       cy="194.57774"
       r="6.7877083" /><circle
       style="fill:#505050;fill-opacity:1;stroke:none;stroke-width:0.1;stroke-dasharray:none;stroke-dashoffset:0;stroke-opacity:1"
       id="path7-9-5-5"
       cx="165.07471"
       cy="194.12155"
       r="6.7877083" /><circle
       style="fill:#505050;fill-opacity:1;stroke:none;stroke-width:0.999966;stroke-dasharray:1.99994, 0.999966;stroke-dashoffset:0;stroke-opacity:1"
       id="path7"
       cx="120.46545"
       cy="152.46451"
       r="6.7874999" /><text
       xml:space="preserve"
       transform="matrix(0.36672533,0,0,0.36672533,-104.84568,107.93293)"
       id="text1"
       style="font-style:normal;font-variant:normal;font-weight:300;font-stretch:normal;font-size:38.8448px;line-height:1.1;font-family:'Stack Sans Headline';-inkscape-font-specification:'Stack Sans Headline, Light';font-variant-ligatures:normal;font-variant-position:sub;font-variant-caps:normal;font-variant-numeric:normal;font-variant-east-asian:normal;text-align:center;writing-mode:lr-tb;direction:ltr;white-space:pre;shape-inside:url(#rect1);display:inline;fill:#404040;fill-opacity:1;stroke:none;stroke-width:11.3386;stroke-dasharray:none;stroke-dashoffset:0;stroke-opacity:1"><tspan
         x="539.67169"
         y="44.172464"
         id="tspan3">t</tspan></text><text
       xml:space="preserve"
       transform="matrix(0.36672533,0,0,0.36672533,-107.06084,189.79143)"
       id="text1-8"
       style="font-style:normal;font-variant:normal;font-weight:300;font-stretch:normal;font-size:38.8448px;line-height:1.1;font-family:'Stack Sans Headline';-inkscape-font-specification:'Stack Sans Headline, Light';font-variant-ligatures:normal;font-variant-position:sub;font-variant-caps:normal;font-variant-numeric:normal;font-variant-east-asian:normal;text-align:center;writing-mode:lr-tb;direction:ltr;white-space:pre;shape-inside:url(#rect1-3);display:inline;fill:#404040;fill-opacity:1;stroke:none;stroke-width:11.3386;stroke-dasharray:none;stroke-dashoffset:0;stroke-opacity:1"><tspan
         x="539.67169"
         y="44.172464"
         id="tspan4">t</tspan></text><text
       xml:space="preserve"
       transform="matrix(0.36672533,0,0,0.36672533,-27.468696,117.05415)"
       id="text1-3"
       style="font-style:normal;font-variant:normal;font-weight:300;font-stretch:normal;font-size:38.8448px;line-height:1.1;font-family:'Stack Sans Headline';-inkscape-font-specification:'Stack Sans Headline, Light';font-variant-ligatures:normal;font-variant-position:sub;font-variant-caps:normal;font-variant-numeric:normal;font-variant-east-asian:normal;text-align:center;writing-mode:lr-tb;direction:ltr;white-space:pre;shape-inside:url(#rect1-8);display:inline;fill:#404040;fill-opacity:1;stroke:none;stroke-width:11.3386;stroke-dasharray:none;stroke-dashoffset:0;stroke-opacity:1"><tspan
         x="539.67169"
         y="44.172464"
         id="tspan5">t</tspan></text><text
       xml:space="preserve"
       transform="matrix(0.36672533,0,0,0.36672533,-28.620152,164.60187)"
       id="text1-96"
       style="font-style:normal;font-variant:normal;font-weight:300;font-stretch:normal;font-size:38.8448px;line-height:1.1;font-family:'Stack Sans Headline';-inkscape-font-specification:'Stack Sans Headline, Light';font-variant-ligatures:normal;font-variant-position:sub;font-variant-caps:normal;font-variant-numeric:normal;font-variant-east-asian:normal;text-align:center;writing-mode:lr-tb;direction:ltr;white-space:pre;shape-inside:url(#rect1-37);display:inline;fill:#404040;fill-opacity:1;stroke:none;stroke-width:11.3386;stroke-dasharray:none;stroke-dashoffset:0;stroke-opacity:1"><tspan
         x="539.67169"
         y="44.172464"
         id="tspan6">t</tspan></text><text
       xml:space="preserve"
       transform="matrix(0.36672533,0,0,0.36672533,-91.393537,89.475313)"
       id="text1-9-9"
       style="font-style:normal;font-variant:normal;font-weight:300;font-stretch:normal;font-size:38.8448px;line-height:1.1;font-family:'Stack Sans Headline';-inkscape-font-specification:'Stack Sans Headline, Light';font-variant-ligatures:normal;font-variant-position:sub;font-variant-caps:normal;font-variant-numeric:normal;font-variant-east-asian:normal;text-align:center;writing-mode:lr-tb;direction:ltr;white-space:pre;shape-inside:url(#rect1-7-2);display:inline;fill:#505070;fill-opacity:1;stroke:none;stroke-width:11.3386;stroke-dasharray:none;stroke-dashoffset:0;stroke-opacity:1"><tspan
         x="534.42763"
         y="44.172464"
         id="tspan7">U</tspan></text><text
       xml:space="preserve"
       transform="matrix(0.36672533,0,0,0.36672533,-44.826868,87.887812)"
       id="text2"
       style="font-style:normal;font-variant:normal;font-weight:300;font-stretch:normal;font-size:38.8448px;line-height:1.1;font-family:'Stack Sans Headline';-inkscape-font-specification:'Stack Sans Headline, Light';font-variant-ligatures:normal;font-variant-position:sub;font-variant-caps:normal;font-variant-numeric:normal;font-variant-east-asian:normal;text-align:center;writing-mode:lr-tb;direction:ltr;white-space:pre;shape-inside:url(#rect2);display:inline;fill:#505070;fill-opacity:1;stroke:none;stroke-width:11.3386;stroke-dasharray:none;stroke-dashoffset:0;stroke-opacity:1"><tspan
         x="534.42763"
         y="44.172464"
         id="tspan9">U</tspan></text><text
       xml:space="preserve"
       transform="matrix(0.36672533,0,0,0.36672533,-44.826868,130.75033)"
       id="text3"
       style="font-style:normal;font-variant:normal;font-weight:300;font-stretch:normal;font-size:38.8448px;line-height:1.1;font-family:'Stack Sans Headline';-inkscape-font-specification:'Stack Sans Headline, Light';font-variant-ligatures:normal;font-variant-position:sub;font-variant-caps:normal;font-variant-numeric:normal;font-variant-east-asian:normal;text-align:center;writing-mode:lr-tb;direction:ltr;white-space:pre;shape-inside:url(#rect4);display:inline;fill:#505070;fill-opacity:1;stroke:none;stroke-width:11.3386;stroke-dasharray:none;stroke-dashoffset:0;stroke-opacity:1"><tspan
         x="534.42763"
         y="44.172464"
         id="tspan16">U</tspan></text><text
       xml:space="preserve"
       transform="matrix(0.36672533,0,0,0.36672533,-88.218538,130.75033)"
       id="text8"
       style="font-style:normal;font-variant:normal;font-weight:300;font-stretch:normal;font-size:38.8448px;line-height:1.1;font-family:'Stack Sans Headline';-inkscape-font-specification:'Stack Sans Headline, Light';font-variant-ligatures:normal;font-variant-position:sub;font-variant-caps:normal;font-variant-numeric:normal;font-variant-east-asian:normal;text-align:center;writing-mode:lr-tb;direction:ltr;white-space:pre;shape-inside:url(#rect8);display:inline;fill:#505070;fill-opacity:1;stroke:none;stroke-width:11.3386;stroke-dasharray:none;stroke-dashoffset:0;stroke-opacity:1"><tspan
         x="534.42763"
         y="44.172464"
         id="tspan17">U</tspan></text><text
       xml:space="preserve"
       transform="matrix(0.36672533,0,0,0.36672533,-135.84356,130.75033)"
       id="text10"
       style="font-style:normal;font-variant:normal;font-weight:300;font-stretch:normal;font-size:38.8448px;line-height:1.1;font-family:'Stack Sans Headline';-inkscape-font-specification:'Stack Sans Headline, Light';font-variant-ligatures:normal;font-variant-position:sub;font-variant-caps:normal;font-variant-numeric:normal;font-variant-east-asian:normal;text-align:center;writing-mode:lr-tb;direction:ltr;white-space:pre;shape-inside:url(#rect10);display:inline;fill:#505070;fill-opacity:1;stroke:none;stroke-width:11.3386;stroke-dasharray:none;stroke-dashoffset:0;stroke-opacity:1"><tspan
         x="534.42763"
         y="44.172464"
         id="tspan18">U</tspan></text><text
       xml:space="preserve"
       transform="matrix(0.36672533,0,0,0.36672533,-135.84356,88.416979)"
       id="text11"
       style="font-style:normal;font-variant:normal;font-weight:300;font-stretch:normal;font-size:38.8448px;line-height:1.1;font-family:'Stack Sans Headline';-inkscape-font-specification:'Stack Sans Headline, Light';font-variant-ligatures:normal;font-variant-position:sub;font-variant-caps:normal;font-variant-numeric:normal;font-variant-east-asian:normal;text-align:center;writing-mode:lr-tb;direction:ltr;white-space:pre;shape-inside:url(#rect11);display:inline;fill:#505070;fill-opacity:1;stroke:none;stroke-width:11.3386;stroke-dasharray:none;stroke-dashoffset:0;stroke-opacity:1"><tspan
         x="534.42763"
         y="44.172464"
         id="tspan19">U</tspan></text><text
       xml:space="preserve"
       transform="matrix(0.36672533,0,0,0.36672533,-135.84356,173.08369)"
       id="text12"
       style="font-style:normal;font-variant:normal;font-weight:300;font-stretch:normal;font-size:38.8448px;line-height:1.1;font-family:'Stack Sans Headline';-inkscape-font-specification:'Stack Sans Headline, Light';font-variant-ligatures:normal;font-variant-position:sub;font-variant-caps:normal;font-variant-numeric:normal;font-variant-east-asian:normal;text-align:center;writing-mode:lr-tb;direction:ltr;white-space:pre;shape-inside:url(#rect12);display:inline;fill:#505070;fill-opacity:1;stroke:none;stroke-width:11.3386;stroke-dasharray:none;stroke-dashoffset:0;stroke-opacity:1"><tspan
         x="534.42763"
         y="44.172464"
         id="tspan20">U</tspan></text><text
       xml:space="preserve"
       transform="matrix(0.36672533,0,0,0.36672533,-91.922705,173.08369)"
       id="text13"
       style="font-style:normal;font-variant:normal;font-weight:300;font-stretch:normal;font-size:38.8448px;line-height:1.1;font-family:'Stack Sans Headline';-inkscape-font-specification:'Stack Sans Headline, Light';font-variant-ligatures:normal;font-variant-position:sub;font-variant-caps:normal;font-variant-numeric:normal;font-variant-east-asian:normal;text-align:center;writing-mode:lr-tb;direction:ltr;white-space:pre;shape-inside:url(#rect13);display:inline;fill:#505070;fill-opacity:1;stroke:none;stroke-width:11.3386;stroke-dasharray:none;stroke-dashoffset:0;stroke-opacity:1"><tspan
         x="534.42763"
         y="44.172464"
         id="tspan21">U</tspan></text><text
       xml:space="preserve"
       transform="matrix(0.36672533,0,0,0.36672533,-44.826866,173.08369)"
       id="text14"
       style="font-style:normal;font-variant:normal;font-weight:300;font-stretch:normal;font-size:38.8448px;line-height:1.1;font-family:'Stack Sans Headline';-inkscape-font-specification:'Stack Sans Headline, Light';font-variant-ligatures:normal;font-variant-position:sub;font-variant-caps:normal;font-variant-numeric:normal;font-variant-east-asian:normal;text-align:center;writing-mode:lr-tb;direction:ltr;white-space:pre;shape-inside:url(#rect14);display:inline;fill:#505070;fill-opacity:1;stroke:none;stroke-width:11.3386;stroke-dasharray:none;stroke-dashoffset:0;stroke-opacity:1"><tspan
         x="534.42763"
         y="44.172464"
         id="tspan22">U</tspan></text><text
       xml:space="preserve"
       transform="matrix(0.36672533,0,0,0.36672533,-104.84568,150.26629)"
       id="text15"
       style="font-style:normal;font-variant:normal;font-weight:300;font-stretch:normal;font-size:38.8448px;line-height:1.1;font-family:'Stack Sans Headline';-inkscape-font-specification:'Stack Sans Headline, Light';font-variant-ligatures:normal;font-variant-position:sub;font-variant-caps:normal;font-variant-numeric:normal;font-variant-east-asian:normal;text-align:center;writing-mode:lr-tb;direction:ltr;white-space:pre;shape-inside:url(#rect15);display:inline;fill:#404040;fill-opacity:1;stroke:none;stroke-width:11.3386;stroke-dasharray:none;stroke-dashoffset:0;stroke-opacity:1"><tspan
         x="539.67169"
         y="44.172464"
         id="tspan23">t</tspan></text></g></svg>
