<?xml version="1.0" encoding="UTF-8" standalone="no"?>
<!-- Created with Inkscape (http://www.inkscape.org/) -->

<svg
   width="209.35124mm"
   height="128.66864mm"
   viewBox="0 0 209.35125 128.66864"
   version="1.1"
   id="svg29872"
   sodipodi:docname="metal_impurity.svg"
   inkscape:version="1.2.2 (b0a8486541, 2022-12-01)"
   xmlns:inkscape="http://www.inkscape.org/namespaces/inkscape"
   xmlns:sodipodi="http://sodipodi.sourceforge.net/DTD/sodipodi-0.dtd"
   xmlns="http://www.w3.org/2000/svg"
   xmlns:svg="http://www.w3.org/2000/svg"
   xmlns:ns6="http://www.iki.fi/pav/software/textext/">
  <sodipodi:namedview
     id="namedview29874"
     pagecolor="#ffffff"
     bordercolor="#cccccc"
     borderopacity="1"
     inkscape:showpageshadow="0"
     inkscape:pageopacity="1"
     inkscape:pagecheckerboard="0"
     inkscape:deskcolor="#d1d1d1"
     inkscape:document-units="mm"
     showgrid="false"
     inkscape:zoom="0.98394782"
     inkscape:cx="428.88453"
     inkscape:cy="331.82654"
     inkscape:window-width="1920"
     inkscape:window-height="1019"
     inkscape:window-x="0"
     inkscape:window-y="0"
     inkscape:window-maximized="1"
     inkscape:current-layer="layer1" />
  <defs
     id="defs29869">
    <marker
       style="overflow:visible"
       id="marker37229"
       refX="0"
       refY="0"
       orient="auto-start-reverse"
       inkscape:stockid="RoundedArrow"
       markerWidth="4.1350002"
       markerHeight="3.9973249"
       viewBox="0 0 6.1347524 5.9304951"
       inkscape:isstock="true"
       inkscape:collect="always"
       preserveAspectRatio="xMidYMid">
      <path
         transform="scale(0.7)"
         d="m -0.21114562,-4.1055728 6.42229122,3.21114561 a 1,1 90 0 1 0,1.78885438 L -0.21114562,4.1055728 A 1.236068,1.236068 31.717474 0 1 -2,3 v -6 a 1.236068,1.236068 148.28253 0 1 1.78885438,-1.1055728 z"
         style="fill:context-stroke;fill-rule:evenodd;stroke:none"
         id="path37227" />
    </marker>
    <marker
       style="overflow:visible"
       id="RoundedArrow"
       refX="0"
       refY="0"
       orient="auto-start-reverse"
       inkscape:stockid="RoundedArrow"
       markerWidth="4.1350002"
       markerHeight="3.9973249"
       viewBox="0 0 6.1347524 5.9304951"
       inkscape:isstock="true"
       inkscape:collect="always"
       preserveAspectRatio="xMidYMid">
      <path
         transform="scale(0.7)"
         d="m -0.21114562,-4.1055728 6.42229122,3.21114561 a 1,1 90 0 1 0,1.78885438 L -0.21114562,4.1055728 A 1.236068,1.236068 31.717474 0 1 -2,3 v -6 a 1.236068,1.236068 148.28253 0 1 1.78885438,-1.1055728 z"
         style="fill:context-stroke;fill-rule:evenodd;stroke:none"
         id="path1367" />
    </marker>
    <inkscape:path-effect
       effect="spiro"
       id="path-effect37145"
       is_visible="true"
       lpeversion="1" />
    <inkscape:path-effect
       effect="spiro"
       id="path-effect37141"
       is_visible="true"
       lpeversion="1" />
    <inkscape:path-effect
       effect="spiro"
       id="path-effect31394"
       is_visible="true"
       lpeversion="1" />
    <inkscape:path-effect
       effect="spiro"
       id="path-effect31394-6"
       is_visible="true"
       lpeversion="1" />
  </defs>
  <g
     inkscape:label="Layer 1"
     inkscape:groupmode="layer"
     id="layer1"
     transform="translate(53.493631,9.9684831)">
    <rect
       style="fill:none;stroke:#404040;stroke-width:0.890673;stroke-linejoin:bevel;stroke-dasharray:none;stroke-dashoffset:0;stroke-opacity:1;paint-order:markers stroke fill"
       id="rect29930"
       width="208.46057"
       height="101.82246"
       x="-53.048294"
       y="-9.5231466" />
    <circle
       style="fill:#206080;fill-opacity:1;stroke:none;stroke-width:1;stroke-linejoin:bevel;stroke-dasharray:none;stroke-dashoffset:0;stroke-opacity:1;paint-order:markers stroke fill"
       id="path29984"
       cx="-43.246716"
       cy="-0.94523889"
       r="5" />
    <circle
       style="fill:#206080;fill-opacity:1;stroke:none;stroke-width:1;stroke-linejoin:bevel;stroke-dasharray:none;stroke-dashoffset:0;stroke-opacity:1;paint-order:markers stroke fill"
       id="circle30176"
       cx="-22.080048"
       cy="-0.94523889"
       r="5" />
    <circle
       style="fill:#206080;fill-opacity:1;stroke:none;stroke-width:1;stroke-linejoin:bevel;stroke-dasharray:none;stroke-dashoffset:0;stroke-opacity:1;paint-order:markers stroke fill"
       id="circle30178"
       cx="-0.9133814"
       cy="-0.94523889"
       r="5" />
    <circle
       style="fill:#206080;fill-opacity:1;stroke:none;stroke-width:1;stroke-linejoin:bevel;stroke-dasharray:none;stroke-dashoffset:0;stroke-opacity:1;paint-order:markers stroke fill"
       id="circle30180"
       cx="20.253286"
       cy="-0.94523889"
       r="5" />
    <circle
       style="fill:#206080;fill-opacity:1;stroke:none;stroke-width:1;stroke-linejoin:bevel;stroke-dasharray:none;stroke-dashoffset:0;stroke-opacity:1;paint-order:markers stroke fill"
       id="circle30182"
       cx="41.419952"
       cy="-0.94523889"
       r="5" />
    <circle
       style="fill:#206080;fill-opacity:1;stroke:none;stroke-width:1;stroke-linejoin:bevel;stroke-dasharray:none;stroke-dashoffset:0;stroke-opacity:1;paint-order:markers stroke fill"
       id="circle30184"
       cx="62.586624"
       cy="-0.94523889"
       r="5" />
    <circle
       style="fill:#206080;fill-opacity:1;stroke:none;stroke-width:1;stroke-linejoin:bevel;stroke-dasharray:none;stroke-dashoffset:0;stroke-opacity:1;paint-order:markers stroke fill"
       id="circle30186"
       cx="83.753281"
       cy="-0.94523889"
       r="5" />
    <circle
       style="fill:#206080;fill-opacity:1;stroke:none;stroke-width:1;stroke-linejoin:bevel;stroke-dasharray:none;stroke-dashoffset:0;stroke-opacity:1;paint-order:markers stroke fill"
       id="circle30188"
       cx="-43.246716"
       cy="20.221428"
       r="5" />
    <circle
       style="fill:#206080;fill-opacity:1;stroke:none;stroke-width:1;stroke-linejoin:bevel;stroke-dasharray:none;stroke-dashoffset:0;stroke-opacity:1;paint-order:markers stroke fill"
       id="circle30190"
       cx="-22.080048"
       cy="20.221428"
       r="5" />
    <circle
       style="fill:#206080;fill-opacity:1;stroke:none;stroke-width:1;stroke-linejoin:bevel;stroke-dasharray:none;stroke-dashoffset:0;stroke-opacity:1;paint-order:markers stroke fill"
       id="circle30192"
       cx="-0.9133814"
       cy="20.221428"
       r="5" />
    <circle
       style="fill:#206080;fill-opacity:1;stroke:none;stroke-width:1;stroke-linejoin:bevel;stroke-dasharray:none;stroke-dashoffset:0;stroke-opacity:1;paint-order:markers stroke fill"
       id="circle30194"
       cx="20.253286"
       cy="20.221428"
       r="5" />
    <circle
       style="fill:#206080;fill-opacity:1;stroke:none;stroke-width:1;stroke-linejoin:bevel;stroke-dasharray:none;stroke-dashoffset:0;stroke-opacity:1;paint-order:markers stroke fill"
       id="circle30196"
       cx="41.419952"
       cy="20.221428"
       r="5" />
    <circle
       style="fill:#206080;fill-opacity:1;stroke:none;stroke-width:1;stroke-linejoin:bevel;stroke-dasharray:none;stroke-dashoffset:0;stroke-opacity:1;paint-order:markers stroke fill"
       id="circle30198"
       cx="62.586624"
       cy="20.221428"
       r="5" />
    <circle
       style="fill:#206080;fill-opacity:1;stroke:none;stroke-width:1;stroke-linejoin:bevel;stroke-dasharray:none;stroke-dashoffset:0;stroke-opacity:1;paint-order:markers stroke fill"
       id="circle30200"
       cx="83.753281"
       cy="20.221428"
       r="5" />
    <circle
       style="fill:#206080;fill-opacity:1;stroke:none;stroke-width:1;stroke-linejoin:bevel;stroke-dasharray:none;stroke-dashoffset:0;stroke-opacity:1;paint-order:markers stroke fill"
       id="circle30196-9"
       cx="104.91995"
       cy="-0.94523889"
       r="5" />
    <circle
       style="fill:#206080;fill-opacity:1;stroke:none;stroke-width:1;stroke-linejoin:bevel;stroke-dasharray:none;stroke-dashoffset:0;stroke-opacity:1;paint-order:markers stroke fill"
       id="circle30198-5"
       cx="126.08663"
       cy="-0.94523889"
       r="5" />
    <circle
       style="fill:#c06052;fill-opacity:1;stroke:none;stroke-width:1;stroke-linejoin:bevel;stroke-dasharray:none;stroke-dashoffset:0;stroke-opacity:1;paint-order:markers stroke fill"
       id="circle30200-0"
       cx="147.2533"
       cy="-0.94523889"
       r="5" />
    <circle
       style="fill:#c06052;fill-opacity:1;stroke:none;stroke-width:1;stroke-linejoin:bevel;stroke-dasharray:none;stroke-dashoffset:0;stroke-opacity:1;paint-order:markers stroke fill"
       id="circle30244"
       cx="-43.246716"
       cy="41.388088"
       r="5" />
    <circle
       style="fill:#206080;fill-opacity:1;stroke:none;stroke-width:1;stroke-linejoin:bevel;stroke-dasharray:none;stroke-dashoffset:0;stroke-opacity:1;paint-order:markers stroke fill"
       id="circle30246"
       cx="-22.080048"
       cy="41.388088"
       r="5" />
    <circle
       style="fill:#206080;fill-opacity:1;stroke:none;stroke-width:1;stroke-linejoin:bevel;stroke-dasharray:none;stroke-dashoffset:0;stroke-opacity:1;paint-order:markers stroke fill"
       id="circle30248"
       cx="-0.9133814"
       cy="41.388088"
       r="5" />
    <circle
       style="fill:#206080;fill-opacity:1;stroke:none;stroke-width:1;stroke-linejoin:bevel;stroke-dasharray:none;stroke-dashoffset:0;stroke-opacity:1;paint-order:markers stroke fill"
       id="circle30250"
       cx="20.253286"
       cy="41.388088"
       r="5" />
    <circle
       style="fill:#206080;fill-opacity:1;stroke:none;stroke-width:1;stroke-linejoin:bevel;stroke-dasharray:none;stroke-dashoffset:0;stroke-opacity:1;paint-order:markers stroke fill"
       id="circle30252"
       cx="41.419952"
       cy="41.388088"
       r="5" />
    <circle
       style="fill:#206080;fill-opacity:1;stroke:none;stroke-width:1;stroke-linejoin:bevel;stroke-dasharray:none;stroke-dashoffset:0;stroke-opacity:1;paint-order:markers stroke fill"
       id="circle30254"
       cx="62.586624"
       cy="41.388088"
       r="5" />
    <circle
       style="fill:#c06052;fill-opacity:1;stroke:none;stroke-width:1;stroke-linejoin:bevel;stroke-dasharray:none;stroke-dashoffset:0;stroke-opacity:1;paint-order:markers stroke fill"
       id="circle30256"
       cx="83.753281"
       cy="41.388088"
       r="5" />
    <circle
       style="fill:#206080;fill-opacity:1;stroke:none;stroke-width:1;stroke-linejoin:bevel;stroke-dasharray:none;stroke-dashoffset:0;stroke-opacity:1;paint-order:markers stroke fill"
       id="circle30258"
       cx="-43.246716"
       cy="62.55476"
       r="5" />
    <circle
       style="fill:#206080;fill-opacity:1;stroke:none;stroke-width:1;stroke-linejoin:bevel;stroke-dasharray:none;stroke-dashoffset:0;stroke-opacity:1;paint-order:markers stroke fill"
       id="circle30260"
       cx="-22.080048"
       cy="62.55476"
       r="5" />
    <circle
       style="fill:#206080;fill-opacity:1;stroke:none;stroke-width:1;stroke-linejoin:bevel;stroke-dasharray:none;stroke-dashoffset:0;stroke-opacity:1;paint-order:markers stroke fill"
       id="circle30262"
       cx="-0.9133814"
       cy="62.55476"
       r="5" />
    <circle
       style="fill:#206080;fill-opacity:1;stroke:none;stroke-width:1;stroke-linejoin:bevel;stroke-dasharray:none;stroke-dashoffset:0;stroke-opacity:1;paint-order:markers stroke fill"
       id="circle30264"
       cx="20.253286"
       cy="62.55476"
       r="5" />
    <circle
       style="fill:#206080;fill-opacity:1;stroke:none;stroke-width:1;stroke-linejoin:bevel;stroke-dasharray:none;stroke-dashoffset:0;stroke-opacity:1;paint-order:markers stroke fill"
       id="circle30266"
       cx="41.419952"
       cy="62.55476"
       r="5" />
    <circle
       style="fill:#206080;fill-opacity:1;stroke:none;stroke-width:1;stroke-linejoin:bevel;stroke-dasharray:none;stroke-dashoffset:0;stroke-opacity:1;paint-order:markers stroke fill"
       id="circle30268"
       cx="62.586624"
       cy="62.55476"
       r="5" />
    <circle
       style="fill:#206080;fill-opacity:1;stroke:none;stroke-width:1;stroke-linejoin:bevel;stroke-dasharray:none;stroke-dashoffset:0;stroke-opacity:1;paint-order:markers stroke fill"
       id="circle30270"
       cx="83.753281"
       cy="62.55476"
       r="5" />
    <circle
       style="fill:#206080;fill-opacity:1;stroke:none;stroke-width:1;stroke-linejoin:bevel;stroke-dasharray:none;stroke-dashoffset:0;stroke-opacity:1;paint-order:markers stroke fill"
       id="circle30272"
       cx="-43.246716"
       cy="83.72142"
       r="5" />
    <circle
       style="fill:#206080;fill-opacity:1;stroke:none;stroke-width:1;stroke-linejoin:bevel;stroke-dasharray:none;stroke-dashoffset:0;stroke-opacity:1;paint-order:markers stroke fill"
       id="circle30274"
       cx="-22.080048"
       cy="83.72142"
       r="5" />
    <circle
       style="fill:#206080;fill-opacity:1;stroke:none;stroke-width:1;stroke-linejoin:bevel;stroke-dasharray:none;stroke-dashoffset:0;stroke-opacity:1;paint-order:markers stroke fill"
       id="circle30276"
       cx="-0.9133814"
       cy="83.72142"
       r="5" />
    <circle
       style="fill:#206080;fill-opacity:1;stroke:none;stroke-width:1;stroke-linejoin:bevel;stroke-dasharray:none;stroke-dashoffset:0;stroke-opacity:1;paint-order:markers stroke fill"
       id="circle30278"
       cx="20.253286"
       cy="83.72142"
       r="5" />
    <circle
       style="fill:#206080;fill-opacity:1;stroke:none;stroke-width:1;stroke-linejoin:bevel;stroke-dasharray:none;stroke-dashoffset:0;stroke-opacity:1;paint-order:markers stroke fill"
       id="circle30280"
       cx="41.419952"
       cy="83.72142"
       r="5" />
    <circle
       style="fill:#206080;fill-opacity:1;stroke:none;stroke-width:1;stroke-linejoin:bevel;stroke-dasharray:none;stroke-dashoffset:0;stroke-opacity:1;paint-order:markers stroke fill"
       id="circle30282"
       cx="62.586624"
       cy="83.72142"
       r="5" />
    <circle
       style="fill:#206080;fill-opacity:1;stroke:none;stroke-width:1;stroke-linejoin:bevel;stroke-dasharray:none;stroke-dashoffset:0;stroke-opacity:1;paint-order:markers stroke fill"
       id="circle30284"
       cx="83.753281"
       cy="83.72142"
       r="5" />
    <path
       style="fill:none;fill-opacity:1;stroke:#505050;stroke-width:2;stroke-linejoin:bevel;stroke-dasharray:none;stroke-dashoffset:0;stroke-opacity:1;marker-end:url(#marker37229);paint-order:markers stroke fill"
       d="m -13.877765,105.11271 c 2.801656,-9.541042 2.801656,-19.886663 0,-29.427705 -3.190493,-10.865226 -10.025024,-20.625889 -19.143822,-27.340046"
       id="path37139"
       inkscape:path-effect="#path-effect37141"
       inkscape:original-d="m -13.877765,105.11271 c 2.64e-4,-9.808977 2.64e-4,-19.618211 0,-29.427705 -2.65e-4,-9.809504 -12.036561,-17.574141 -19.143822,-27.340046"
       sodipodi:nodetypes="csc" />
    <path
       style="fill:none;fill-opacity:1;stroke:#505050;stroke-width:2;stroke-linejoin:bevel;stroke-dasharray:none;stroke-dashoffset:0;stroke-opacity:1;marker-end:url(#RoundedArrow);paint-order:markers stroke fill"
       d="M -13.877768,105.11271 C -5.22046,94.688604 4.5652678,85.202296 15.253285,76.872995 32.404679,63.506707 51.88844,53.141692 72.557663,46.388084"
       id="path37143"
       inkscape:path-effect="#path-effect37145"
       inkscape:original-d="M -13.877768,105.11271 C -4.1671522,95.699733 5.5431989,86.286499 15.253285,76.872995 24.963369,67.459491 52.769788,56.549989 72.557663,46.388084"
       sodipodi:nodetypes="csc" />
    <circle
       style="fill:#206080;fill-opacity:1;stroke:none;stroke-width:1;stroke-linejoin:bevel;stroke-dasharray:none;stroke-dashoffset:0;stroke-opacity:1;paint-order:markers stroke fill"
       id="circle40080"
       cx="104.91994"
       cy="20.221428"
       r="5" />
    <circle
       style="fill:#206080;fill-opacity:1;stroke:none;stroke-width:1;stroke-linejoin:bevel;stroke-dasharray:none;stroke-dashoffset:0;stroke-opacity:1;paint-order:markers stroke fill"
       id="circle40082"
       cx="126.0866"
       cy="20.221428"
       r="5" />
    <circle
       style="fill:#206080;fill-opacity:1;stroke:none;stroke-width:1;stroke-linejoin:bevel;stroke-dasharray:none;stroke-dashoffset:0;stroke-opacity:1;paint-order:markers stroke fill"
       id="circle40084"
       cx="147.25328"
       cy="20.221428"
       r="5" />
    <circle
       style="fill:#206080;fill-opacity:1;stroke:none;stroke-width:1;stroke-linejoin:bevel;stroke-dasharray:none;stroke-dashoffset:0;stroke-opacity:1;paint-order:markers stroke fill"
       id="circle40080-4"
       cx="104.91994"
       cy="41.388088"
       r="5" />
    <circle
       style="fill:#206080;fill-opacity:1;stroke:none;stroke-width:1;stroke-linejoin:bevel;stroke-dasharray:none;stroke-dashoffset:0;stroke-opacity:1;paint-order:markers stroke fill"
       id="circle40082-8"
       cx="126.0866"
       cy="41.388088"
       r="5" />
    <circle
       style="fill:#206080;fill-opacity:1;stroke:none;stroke-width:1;stroke-linejoin:bevel;stroke-dasharray:none;stroke-dashoffset:0;stroke-opacity:1;paint-order:markers stroke fill"
       id="circle40084-7"
       cx="147.2533"
       cy="41.388088"
       r="5" />
    <circle
       style="fill:#206080;fill-opacity:1;stroke:none;stroke-width:1;stroke-linejoin:bevel;stroke-dasharray:none;stroke-dashoffset:0;stroke-opacity:1;paint-order:markers stroke fill"
       id="circle40125"
       cx="104.91994"
       cy="62.55476"
       r="5" />
    <circle
       style="fill:#206080;fill-opacity:1;stroke:none;stroke-width:1;stroke-linejoin:bevel;stroke-dasharray:none;stroke-dashoffset:0;stroke-opacity:1;paint-order:markers stroke fill"
       id="circle40127"
       cx="126.0866"
       cy="62.55476"
       r="5" />
    <circle
       style="fill:#206080;fill-opacity:1;stroke:none;stroke-width:1;stroke-linejoin:bevel;stroke-dasharray:none;stroke-dashoffset:0;stroke-opacity:1;paint-order:markers stroke fill"
       id="circle40129"
       cx="147.2533"
       cy="62.55476"
       r="5" />
    <circle
       style="fill:#206080;fill-opacity:1;stroke:none;stroke-width:1;stroke-linejoin:bevel;stroke-dasharray:none;stroke-dashoffset:0;stroke-opacity:1;paint-order:markers stroke fill"
       id="circle40131"
       cx="104.91994"
       cy="83.72142"
       r="5" />
    <circle
       style="fill:#206080;fill-opacity:1;stroke:none;stroke-width:1;stroke-linejoin:bevel;stroke-dasharray:none;stroke-dashoffset:0;stroke-opacity:1;paint-order:markers stroke fill"
       id="circle40133"
       cx="126.0866"
       cy="83.72142"
       r="5" />
    <circle
       style="fill:#206080;fill-opacity:1;stroke:none;stroke-width:1;stroke-linejoin:bevel;stroke-dasharray:none;stroke-dashoffset:0;stroke-opacity:1;paint-order:markers stroke fill"
       id="circle40135"
       cx="147.2533"
       cy="83.72142"
       r="5" />
    <g
       transform="matrix(1.23472,0,0,1.23472,-48.45286,106.46902)"
       ns6:version="1.8.2"
       ns6:texconverter="xelatex"
       ns6:pdfconverter="inkscape"
       ns6:text="\\centering\nimpurities in metal act as scatterors"
       ns6:preamble="/home/kirito/.config/textext/beamer_preamble.tex"
       ns6:scale="3.5"
       ns6:alignment="middle center"
       ns6:stroke-to-path="0"
       ns6:inkscapeversion="1.2.2"
       ns6:jacobian_sqrt="1.23472"
       id="g30580">
      <defs
         id="id-6726b41e-fd89-4f1c-99e6-b348392fcbe9">
        <g
           id="id-696aeef9-f23c-4974-a05e-3f437b413efb">
          <g
             id="id-904132ee-dd2b-4b05-b451-02c1a8bd323a">
            <path
               d="M 5.40625,-10.46875 V 3.484375 H 1.21875 V -10.46875 Z M 4.875,-9.953125 H 1.78125 V 2.96875 H 4.875 Z M 3.234375,-4.5 c 0.394531,0 0.675781,0.109375 0.84375,0.328125 0.175781,0.210937 0.265625,0.484375 0.265625,0.828125 0,0.34375 -0.078125,0.617188 -0.234375,0.8125 -0.148437,0.1875 -0.386719,0.308594 -0.71875,0.359375 v 0.453125 c 0,0.074219 -0.027344,0.132812 -0.078125,0.171875 -0.054688,0.042969 -0.109375,0.0625 -0.171875,0.0625 -0.0625,0 -0.121094,-0.019531 -0.171875,-0.0625 C 2.914062,-1.585938 2.890625,-1.644531 2.890625,-1.71875 V -2.5625 c 0.351563,-0.019531 0.59375,-0.082031 0.71875,-0.1875 0.125,-0.113281 0.1875,-0.304688 0.1875,-0.578125 0,-0.21875 -0.046875,-0.382813 -0.140625,-0.5 -0.085938,-0.125 -0.242188,-0.1875 -0.46875,-0.1875 -0.1875,0 -0.359375,0.039063 -0.515625,0.109375 -0.054687,0.023438 -0.09375,0.03125 -0.125,0.03125 -0.074219,0 -0.136719,-0.019531 -0.1875,-0.0625 -0.042969,-0.039062 -0.0625,-0.097656 -0.0625,-0.171875 0,-0.125 0.097656,-0.21875 0.296875,-0.28125 C 2.789062,-4.460938 3.003906,-4.5 3.234375,-4.5 Z m -0.09375,3.296875 c 0.101563,0 0.1875,0.039063 0.25,0.109375 0.0625,0.0625 0.09375,0.148438 0.09375,0.25 0,0.105469 -0.03125,0.195312 -0.09375,0.265625 -0.0625,0.0625 -0.148437,0.09375 -0.25,0.09375 -0.105469,0 -0.1875,-0.03125 -0.25,-0.09375 -0.0625,-0.070313 -0.09375,-0.160156 -0.09375,-0.265625 0,-0.101562 0.03125,-0.1875 0.09375,-0.25 0.0625,-0.070312 0.144531,-0.109375 0.25,-0.109375 z m 0,0"
               id="id-ae7f6cd5-47ef-4d7f-b029-0ec7fe29b948" />
          </g>
          <g
             id="id-a7e43f4b-6a83-4437-bf9a-3c901c2476d3">
            <path
               d="M 1.859375,-5.25 V 0 h -0.90625 v -5.25 z m -0.46875,-2.53125 c 0.195313,0 0.351563,0.0625 0.46875,0.1875 0.125,0.117188 0.1875,0.265625 0.1875,0.453125 0,0.179687 -0.0625,0.324219 -0.1875,0.4375 -0.117187,0.117187 -0.273437,0.171875 -0.46875,0.171875 -0.179687,0 -0.328125,-0.054688 -0.453125,-0.171875 -0.117188,-0.113281 -0.171875,-0.257813 -0.171875,-0.4375 0,-0.1875 0.054687,-0.335937 0.171875,-0.453125 0.125,-0.125 0.273438,-0.1875 0.453125,-0.1875 z m 0,0"
               id="id-ae1aca48-7daa-4715-a310-187345ce306e" />
          </g>
          <g
             id="id-391429f6-3337-41be-9849-8cf058fd8161">
            <path
               d="m 6.21875,-5.375 c 0.4375,0 0.78125,0.148438 1.03125,0.4375 0.257812,0.292969 0.390625,0.683594 0.390625,1.171875 V 0 h -0.90625 v -3.640625 c 0,-0.675781 -0.25,-1.015625 -0.75,-1.015625 -0.25,0 -0.46875,0.078125 -0.65625,0.234375 -0.179687,0.148437 -0.371094,0.375 -0.578125,0.6875 V 0 H 3.84375 v -3.640625 c 0,-0.675781 -0.25,-1.015625 -0.75,-1.015625 -0.261719,0 -0.484375,0.078125 -0.671875,0.234375 -0.179687,0.148437 -0.367187,0.375 -0.5625,0.6875 V 0 h -0.90625 v -5.25 h 0.78125 L 1.8125,-4.484375 C 2.207031,-5.078125 2.710938,-5.375 3.328125,-5.375 c 0.320313,0 0.597656,0.085938 0.828125,0.25 0.226562,0.167969 0.394531,0.402344 0.5,0.703125 0.207031,-0.3125 0.4375,-0.546875 0.6875,-0.703125 0.25,-0.164062 0.539062,-0.25 0.875,-0.25 z m 0,0"
               id="id-867cdc34-ff0f-44cf-aa6c-2e0d2b0a605b" />
          </g>
          <g
             id="id-e1021ee7-dde3-4afa-90bf-9a1b1806b031">
            <path
               d="m 3.359375,-5.375 c 0.664063,0 1.15625,0.242188 1.46875,0.71875 0.3125,0.480469 0.46875,1.15625 0.46875,2.03125 0,0.824219 -0.179687,1.492188 -0.53125,2 -0.355469,0.5 -0.867187,0.75 -1.53125,0.75 -0.585937,0 -1.042969,-0.203125 -1.375,-0.609375 v 2.5 L 0.953125,2.125 V -5.25 h 0.78125 l 0.0625,0.703125 C 1.992188,-4.804688 2.226562,-5.007812 2.5,-5.15625 2.769531,-5.300781 3.054688,-5.375 3.359375,-5.375 Z m -0.34375,4.75 c 0.863281,0 1.296875,-0.664062 1.296875,-2 0,-1.34375 -0.398438,-2.015625 -1.1875,-2.015625 -0.261719,0 -0.496094,0.078125 -0.703125,0.234375 -0.210937,0.148438 -0.398437,0.339844 -0.5625,0.578125 v 2.5625 c 0.132813,0.210937 0.300781,0.371094 0.5,0.484375 0.195313,0.105469 0.414063,0.15625 0.65625,0.15625 z m 0,0"
               id="id-71b1c9d6-8445-48ba-8ce7-9d0ef31f54f0" />
          </g>
          <g
             id="id-c6718e83-6a31-41d1-9205-05a8972da675">
            <path
               d="M 4.859375,0 H 4.0625 L 4,-0.8125 C 3.800781,-0.488281 3.570312,-0.25 3.3125,-0.09375 3.050781,0.0507812 2.734375,0.125 2.359375,0.125 1.898438,0.125 1.539062,-0.015625 1.28125,-0.296875 1.019531,-0.578125 0.890625,-0.972656 0.890625,-1.484375 V -5.25 H 1.8125 v 3.671875 c 0,0.355469 0.0625,0.609375 0.1875,0.765625 0.125,0.148438 0.332031,0.21875 0.625,0.21875 0.507812,0 0.945312,-0.300781 1.3125,-0.90625 v -3.75 h 0.921875 z m 0,0"
               id="id-f7eec1ef-5e8d-4db1-9bc1-f6e7d3153888" />
          </g>
          <g
             id="id-e6b32251-7aaa-45f7-8b19-68e601b0e5ff">
            <path
               d="m 3.234375,-5.375 c 0.1875,0 0.359375,0.023438 0.515625,0.0625 L 3.578125,-4.421875 C 3.421875,-4.453125 3.269531,-4.46875 3.125,-4.46875 c -0.335938,0 -0.601562,0.121094 -0.796875,0.359375 C 2.128906,-3.878906 1.972656,-3.507812 1.859375,-3 v 3 h -0.90625 v -5.25 h 0.78125 l 0.09375,1.0625 C 1.960938,-4.582031 2.148438,-4.878906 2.390625,-5.078125 2.628906,-5.273438 2.910156,-5.375 3.234375,-5.375 Z m 0,0"
               id="id-f3de9b1b-da2d-437d-95ca-cdb583811cdd" />
          </g>
          <g
             id="id-9c552693-ec3d-4621-936f-a7002b6a423a">
            <path
               d="M 3.59375,-0.234375 C 3.25,0.00390625 2.859375,0.125 2.421875,0.125 1.972656,0.125 1.625,0 1.375,-0.25 1.125,-0.507812 1,-0.882812 1,-1.375 V -4.546875 H 0.09375 V -5.25 H 1 V -6.4375 L 1.921875,-6.546875 V -5.25 h 1.25 l -0.09375,0.703125 h -1.15625 v 3.125 c 0,0.28125 0.046875,0.484375 0.140625,0.609375 0.101562,0.117188 0.265625,0.171875 0.484375,0.171875 0.207031,0 0.441406,-0.066406 0.703125,-0.203125 z m 0,0"
               id="id-549970c6-d747-4d31-86e4-0e3a1043746b" />
          </g>
          <g
             id="id-9b86d435-02c0-490b-bea7-35e6a4ef9a2c">
            <path
               d="m 4.921875,-2.78125 c 0,0.15625 -0.011719,0.3125 -0.03125,0.46875 h -3.34375 c 0.039063,0.574219 0.1875,1 0.4375,1.28125 0.25,0.273438 0.570313,0.40625 0.96875,0.40625 0.257813,0 0.492187,-0.035156 0.703125,-0.109375 C 3.875,-0.804688 4.097656,-0.925781 4.328125,-1.09375 l 0.390625,0.5625 C 4.164062,-0.09375 3.554688,0.125 2.890625,0.125 2.160156,0.125 1.585938,-0.113281 1.171875,-0.59375 0.765625,-1.070312 0.5625,-1.734375 0.5625,-2.578125 c 0,-0.539063 0.085938,-1.019531 0.265625,-1.4375 0.175781,-0.425781 0.425781,-0.757813 0.75,-1 C 1.910156,-5.253906 2.300781,-5.375 2.75,-5.375 c 0.695312,0 1.234375,0.230469 1.609375,0.6875 0.375,0.460938 0.5625,1.09375 0.5625,1.90625 z M 4,-3.046875 c 0,-0.519531 -0.105469,-0.914063 -0.3125,-1.1875 -0.199219,-0.269531 -0.507812,-0.40625 -0.921875,-0.40625 -0.75,0 -1.15625,0.554687 -1.21875,1.65625 H 4 Z m 0,0"
               id="id-fa1a4821-4917-4a1a-842b-7f44336575e3" />
          </g>
          <g
             id="id-563d52f6-622a-4fab-a82d-9b0d5c0358d6">
            <path
               d="m 2.375,-5.375 c 0.351562,0 0.671875,0.054688 0.953125,0.15625 0.289063,0.09375 0.566406,0.242188 0.828125,0.4375 L 3.765625,-4.203125 C 3.523438,-4.347656 3.296875,-4.457031 3.078125,-4.53125 2.867188,-4.601562 2.644531,-4.640625 2.40625,-4.640625 c -0.304688,0 -0.542969,0.0625 -0.71875,0.1875 -0.167969,0.117187 -0.25,0.28125 -0.25,0.5 0,0.210937 0.078125,0.375 0.234375,0.5 0.164063,0.117187 0.460937,0.230469 0.890625,0.34375 0.582031,0.148437 1.019531,0.34375 1.3125,0.59375 0.289062,0.25 0.4375,0.601563 0.4375,1.046875 0,0.511719 -0.203125,0.90625 -0.609375,1.1875 C 3.296875,-0.0078125 2.804688,0.125 2.234375,0.125 1.429688,0.125 0.769531,-0.101562 0.25,-0.5625 L 0.734375,-1.125 c 0.445313,0.335938 0.941406,0.5 1.484375,0.5 0.34375,0 0.613281,-0.066406 0.8125,-0.203125 0.207031,-0.144531 0.3125,-0.34375 0.3125,-0.59375 0,-0.175781 -0.039062,-0.316406 -0.109375,-0.421875 C 3.160156,-1.957031 3.03125,-2.054688 2.84375,-2.140625 2.664062,-2.222656 2.40625,-2.3125 2.0625,-2.40625 1.5,-2.550781 1.09375,-2.742188 0.84375,-2.984375 c -0.242188,-0.25 -0.359375,-0.5625 -0.359375,-0.9375 0,-0.28125 0.078125,-0.53125 0.234375,-0.75 C 0.882812,-4.890625 1.109375,-5.0625 1.390625,-5.1875 1.679688,-5.3125 2.007812,-5.375 2.375,-5.375 Z m 0,0"
               id="id-f346b03a-eae2-4bfa-ae64-aa98d45d1689" />
          </g>
          <g
             id="id-8c1e9ad9-d858-4ecb-908e-3940e922910a">
            <path
               d="m 3.421875,-5.375 c 0.476563,0 0.847656,0.148438 1.109375,0.4375 0.269531,0.28125 0.40625,0.671875 0.40625,1.171875 V 0 H 4.03125 v -3.640625 c 0,-0.375 -0.074219,-0.632813 -0.21875,-0.78125 -0.136719,-0.15625 -0.339844,-0.234375 -0.609375,-0.234375 -0.28125,0 -0.53125,0.085938 -0.75,0.25 -0.210937,0.15625 -0.40625,0.382812 -0.59375,0.671875 V 0 h -0.90625 v -5.25 h 0.78125 L 1.8125,-4.46875 C 2,-4.75 2.226562,-4.96875 2.5,-5.125 c 0.28125,-0.164062 0.585938,-0.25 0.921875,-0.25 z m 0,0"
               id="id-014d8eee-761e-4407-8c1d-f4eb26bc147a" />
          </g>
          <g
             id="id-824aae80-66d8-4a44-937b-8c6293fd8bd6">
            <path
               d="m 4.484375,-1.21875 c 0,0.210938 0.035156,0.367188 0.109375,0.46875 0.070312,0.105469 0.179688,0.183594 0.328125,0.234375 L 4.71875,0.125 C 4.445312,0.0820312 4.226562,0.00390625 4.0625,-0.109375 c -0.167969,-0.125 -0.292969,-0.3125 -0.375,-0.5625 C 3.332031,-0.140625 2.8125,0.125 2.125,0.125 c -0.523438,0 -0.933594,-0.1445312 -1.234375,-0.4375 -0.292969,-0.289062 -0.4375,-0.675781 -0.4375,-1.15625 0,-0.550781 0.195313,-0.976562 0.59375,-1.28125 0.40625,-0.300781 0.976563,-0.453125 1.71875,-0.453125 H 3.5625 V -3.59375 c 0,-0.363281 -0.089844,-0.625 -0.265625,-0.78125 -0.179687,-0.164062 -0.453125,-0.25 -0.828125,-0.25 -0.386719,0 -0.855469,0.09375 -1.40625,0.28125 L 0.828125,-5.015625 c 0.644531,-0.238281 1.25,-0.359375 1.8125,-0.359375 0.613281,0 1.070313,0.152344 1.375,0.453125 0.3125,0.304687 0.46875,0.734375 0.46875,1.296875 z m -2.15625,0.65625 c 0.53125,0 0.941406,-0.273438 1.234375,-0.828125 V -2.59375 H 2.875 c -0.96875,0 -1.453125,0.359375 -1.453125,1.078125 0,0.3125 0.078125,0.554687 0.234375,0.71875 0.15625,0.15625 0.378906,0.234375 0.671875,0.234375 z m 0,0"
               id="id-20df1436-a5b0-41d3-a447-91737f271f07" />
          </g>
          <g
             id="id-364ce387-325c-4634-b778-724672984663">
            <path
               d="M 2,0.125 C 1.65625,0.125 1.382812,0.0234375 1.1875,-0.171875 0.988281,-0.378906 0.890625,-0.664062 0.890625,-1.03125 v -6.328125 l 0.921875,-0.125 V -1.0625 c 0,0.148438 0.023438,0.257812 0.078125,0.328125 0.050781,0.0625 0.132813,0.09375 0.25,0.09375 0.125,0 0.238281,-0.019531 0.34375,-0.0625 L 2.71875,-0.0625 C 2.5,0.0625 2.257812,0.125 2,0.125 Z m 0,0"
               id="id-15de7bda-67b2-4f47-840c-e17f71280a05" />
          </g>
          <g
             id="id-9d17a93f-0fae-4140-8eb9-ed606a84051b">
            <path
               d="m 2.859375,-5.375 c 0.3125,0 0.597656,0.046875 0.859375,0.140625 0.257812,0.085937 0.507812,0.226563 0.75,0.421875 l -0.4375,0.578125 c -0.1875,-0.125 -0.371094,-0.21875 -0.546875,-0.28125 -0.179687,-0.0625 -0.371094,-0.09375 -0.578125,-0.09375 -0.429688,0 -0.761719,0.171875 -1,0.515625 -0.230469,0.335938 -0.34375,0.828125 -0.34375,1.484375 0,0.667969 0.113281,1.164063 0.34375,1.484375 0.226562,0.3125 0.5625,0.46875 1,0.46875 0.195312,0 0.382812,-0.03125 0.5625,-0.09375 0.175781,-0.0625 0.367188,-0.164062 0.578125,-0.3125 L 4.46875,-0.453125 C 3.988281,-0.0664062 3.453125,0.125 2.859375,0.125 2.148438,0.125 1.585938,-0.113281 1.171875,-0.59375 0.765625,-1.070312 0.5625,-1.734375 0.5625,-2.578125 c 0,-0.5625 0.09375,-1.050781 0.28125,-1.46875 0.1875,-0.414063 0.453125,-0.738281 0.796875,-0.96875 0.34375,-0.238281 0.75,-0.359375 1.21875,-0.359375 z m 0,0"
               id="id-d4877232-655d-473f-8842-a79d44e39f3c" />
          </g>
          <g
             id="id-e86e7b50-aa0b-4e77-a40d-a16eda47da4f">
            <path
               d="m 2.921875,-5.375 c 0.738281,0 1.3125,0.25 1.71875,0.75 0.40625,0.492188 0.609375,1.15625 0.609375,2 0,0.542969 -0.09375,1.023438 -0.28125,1.4375 -0.1875,0.417969 -0.460938,0.742188 -0.8125,0.96875 C 3.8125,0.0078125 3.394531,0.125 2.90625,0.125 2.164062,0.125 1.585938,-0.117188 1.171875,-0.609375 0.765625,-1.109375 0.5625,-1.78125 0.5625,-2.625 c 0,-0.539062 0.09375,-1.019531 0.28125,-1.4375 0.1875,-0.414062 0.457031,-0.738281 0.8125,-0.96875 C 2.007812,-5.257812 2.429688,-5.375 2.921875,-5.375 Z m 0,0.734375 c -0.90625,0 -1.359375,0.671875 -1.359375,2.015625 0,1.335938 0.445312,2 1.34375,2 0.90625,0 1.359375,-0.664062 1.359375,-2 0,-1.34375 -0.449219,-2.015625 -1.34375,-2.015625 z m 0,0"
               id="id-9c58a86a-46f6-4ccd-ad3e-ce614c65394a" />
          </g>
        </g>
      </defs>
      <g
         fill="#000000"
         fill-opacity="1"
         id="id-4d2f5dc6-2692-4b3a-b8e2-65246f22687c"
         transform="translate(-225.16,-126.984)">
        <g
           transform="translate(224.394,134.765)"
           id="g44397">
          <path
             d="M 1.859375,-5.25 V 0 h -0.90625 v -5.25 z m -0.46875,-2.53125 c 0.195313,0 0.351563,0.0625 0.46875,0.1875 0.125,0.117188 0.1875,0.265625 0.1875,0.453125 0,0.179687 -0.0625,0.324219 -0.1875,0.4375 -0.117187,0.117187 -0.273437,0.171875 -0.46875,0.171875 -0.179687,0 -0.328125,-0.054688 -0.453125,-0.171875 -0.117188,-0.113281 -0.171875,-0.257813 -0.171875,-0.4375 0,-0.1875 0.054687,-0.335937 0.171875,-0.453125 0.125,-0.125 0.273438,-0.1875 0.453125,-0.1875 z m 0,0"
             id="id-7bdfc368-fb64-47a2-9016-d9b07d993e72" />
        </g>
        <g
           transform="translate(227.203,134.765)"
           id="g44400">
          <path
             d="m 6.21875,-5.375 c 0.4375,0 0.78125,0.148438 1.03125,0.4375 0.257812,0.292969 0.390625,0.683594 0.390625,1.171875 V 0 h -0.90625 v -3.640625 c 0,-0.675781 -0.25,-1.015625 -0.75,-1.015625 -0.25,0 -0.46875,0.078125 -0.65625,0.234375 -0.179687,0.148437 -0.371094,0.375 -0.578125,0.6875 V 0 H 3.84375 v -3.640625 c 0,-0.675781 -0.25,-1.015625 -0.75,-1.015625 -0.261719,0 -0.484375,0.078125 -0.671875,0.234375 -0.179687,0.148437 -0.367187,0.375 -0.5625,0.6875 V 0 h -0.90625 v -5.25 h 0.78125 L 1.8125,-4.484375 C 2.207031,-5.078125 2.710938,-5.375 3.328125,-5.375 c 0.320313,0 0.597656,0.085938 0.828125,0.25 0.226562,0.167969 0.394531,0.402344 0.5,0.703125 0.207031,-0.3125 0.4375,-0.546875 0.6875,-0.703125 0.25,-0.164062 0.539062,-0.25 0.875,-0.25 z m 0,0"
             id="id-af8a09c7-2616-4671-badc-ef89d4eb2d48" />
        </g>
        <g
           transform="translate(235.741,134.765)"
           id="g44403">
          <path
             d="m 3.359375,-5.375 c 0.664063,0 1.15625,0.242188 1.46875,0.71875 0.3125,0.480469 0.46875,1.15625 0.46875,2.03125 0,0.824219 -0.179687,1.492188 -0.53125,2 -0.355469,0.5 -0.867187,0.75 -1.53125,0.75 -0.585937,0 -1.042969,-0.203125 -1.375,-0.609375 v 2.5 L 0.953125,2.125 V -5.25 h 0.78125 l 0.0625,0.703125 C 1.992188,-4.804688 2.226562,-5.007812 2.5,-5.15625 2.769531,-5.300781 3.054688,-5.375 3.359375,-5.375 Z m -0.34375,4.75 c 0.863281,0 1.296875,-0.664062 1.296875,-2 0,-1.34375 -0.398438,-2.015625 -1.1875,-2.015625 -0.261719,0 -0.496094,0.078125 -0.703125,0.234375 -0.210937,0.148438 -0.398437,0.339844 -0.5625,0.578125 v 2.5625 c 0.132813,0.210937 0.300781,0.371094 0.5,0.484375 0.195313,0.105469 0.414063,0.15625 0.65625,0.15625 z m 0,0"
             id="id-2a6c1303-f055-4628-b07a-36e847954240" />
        </g>
        <g
           transform="translate(241.659,134.765)"
           id="g44406">
          <path
             d="M 4.859375,0 H 4.0625 L 4,-0.8125 C 3.800781,-0.488281 3.570312,-0.25 3.3125,-0.09375 3.050781,0.0507812 2.734375,0.125 2.359375,0.125 1.898438,0.125 1.539062,-0.015625 1.28125,-0.296875 1.019531,-0.578125 0.890625,-0.972656 0.890625,-1.484375 V -5.25 H 1.8125 v 3.671875 c 0,0.355469 0.0625,0.609375 0.1875,0.765625 0.125,0.148438 0.332031,0.21875 0.625,0.21875 0.507812,0 0.945312,-0.300781 1.3125,-0.90625 v -3.75 h 0.921875 z m 0,0"
             id="id-bfbc7c52-c21e-4e12-8197-9e924a67164c" />
        </g>
        <g
           transform="translate(247.457,134.765)"
           id="g44409">
          <path
             d="m 3.234375,-5.375 c 0.1875,0 0.359375,0.023438 0.515625,0.0625 L 3.578125,-4.421875 C 3.421875,-4.453125 3.269531,-4.46875 3.125,-4.46875 c -0.335938,0 -0.601562,0.121094 -0.796875,0.359375 C 2.128906,-3.878906 1.972656,-3.507812 1.859375,-3 v 3 h -0.90625 v -5.25 h 0.78125 l 0.09375,1.0625 C 1.960938,-4.582031 2.148438,-4.878906 2.390625,-5.078125 2.628906,-5.273438 2.910156,-5.375 3.234375,-5.375 Z m 0,0"
             id="id-e870f348-bff5-4c39-81e9-7295fc01ef46" />
        </g>
        <g
           transform="translate(251.303,134.765)"
           id="g44412">
          <path
             d="M 1.859375,-5.25 V 0 h -0.90625 v -5.25 z m -0.46875,-2.53125 c 0.195313,0 0.351563,0.0625 0.46875,0.1875 0.125,0.117188 0.1875,0.265625 0.1875,0.453125 0,0.179687 -0.0625,0.324219 -0.1875,0.4375 -0.117187,0.117187 -0.273437,0.171875 -0.46875,0.171875 -0.179687,0 -0.328125,-0.054688 -0.453125,-0.171875 -0.117188,-0.113281 -0.171875,-0.257813 -0.171875,-0.4375 0,-0.1875 0.054687,-0.335937 0.171875,-0.453125 0.125,-0.125 0.273438,-0.1875 0.453125,-0.1875 z m 0,0"
             id="id-643b5b15-b2ea-4b07-9d9f-6594074e7ecb" />
        </g>
        <g
           transform="translate(254.112,134.765)"
           id="g44415">
          <path
             d="M 3.59375,-0.234375 C 3.25,0.00390625 2.859375,0.125 2.421875,0.125 1.972656,0.125 1.625,0 1.375,-0.25 1.125,-0.507812 1,-0.882812 1,-1.375 V -4.546875 H 0.09375 V -5.25 H 1 V -6.4375 L 1.921875,-6.546875 V -5.25 h 1.25 l -0.09375,0.703125 h -1.15625 v 3.125 c 0,0.28125 0.046875,0.484375 0.140625,0.609375 0.101562,0.117188 0.265625,0.171875 0.484375,0.171875 0.207031,0 0.441406,-0.066406 0.703125,-0.203125 z m 0,0"
             id="id-81bb9d91-d723-48e2-86cf-053dcdf0e435" />
        </g>
        <g
           transform="translate(257.709,134.765)"
           id="g44418">
          <path
             d="M 1.859375,-5.25 V 0 h -0.90625 v -5.25 z m -0.46875,-2.53125 c 0.195313,0 0.351563,0.0625 0.46875,0.1875 0.125,0.117188 0.1875,0.265625 0.1875,0.453125 0,0.179687 -0.0625,0.324219 -0.1875,0.4375 -0.117187,0.117187 -0.273437,0.171875 -0.46875,0.171875 -0.179687,0 -0.328125,-0.054688 -0.453125,-0.171875 -0.117188,-0.113281 -0.171875,-0.257813 -0.171875,-0.4375 0,-0.1875 0.054687,-0.335937 0.171875,-0.453125 0.125,-0.125 0.273438,-0.1875 0.453125,-0.1875 z m 0,0"
             id="id-f25dcacd-2f3a-4dab-90a7-54e4200fa259" />
        </g>
        <g
           transform="translate(260.518,134.765)"
           id="g44421">
          <path
             d="m 4.921875,-2.78125 c 0,0.15625 -0.011719,0.3125 -0.03125,0.46875 h -3.34375 c 0.039063,0.574219 0.1875,1 0.4375,1.28125 0.25,0.273438 0.570313,0.40625 0.96875,0.40625 0.257813,0 0.492187,-0.035156 0.703125,-0.109375 C 3.875,-0.804688 4.097656,-0.925781 4.328125,-1.09375 l 0.390625,0.5625 C 4.164062,-0.09375 3.554688,0.125 2.890625,0.125 2.160156,0.125 1.585938,-0.113281 1.171875,-0.59375 0.765625,-1.070312 0.5625,-1.734375 0.5625,-2.578125 c 0,-0.539063 0.085938,-1.019531 0.265625,-1.4375 0.175781,-0.425781 0.425781,-0.757813 0.75,-1 C 1.910156,-5.253906 2.300781,-5.375 2.75,-5.375 c 0.695312,0 1.234375,0.230469 1.609375,0.6875 0.375,0.460938 0.5625,1.09375 0.5625,1.90625 z M 4,-3.046875 c 0,-0.519531 -0.105469,-0.914063 -0.3125,-1.1875 -0.199219,-0.269531 -0.507812,-0.40625 -0.921875,-0.40625 -0.75,0 -1.15625,0.554687 -1.21875,1.65625 H 4 Z m 0,0"
             id="id-a5111139-afe6-4a76-8292-cc61a74a00ff" />
        </g>
        <g
           transform="translate(265.948,134.765)"
           id="g44424">
          <path
             d="m 2.375,-5.375 c 0.351562,0 0.671875,0.054688 0.953125,0.15625 0.289063,0.09375 0.566406,0.242188 0.828125,0.4375 L 3.765625,-4.203125 C 3.523438,-4.347656 3.296875,-4.457031 3.078125,-4.53125 2.867188,-4.601562 2.644531,-4.640625 2.40625,-4.640625 c -0.304688,0 -0.542969,0.0625 -0.71875,0.1875 -0.167969,0.117187 -0.25,0.28125 -0.25,0.5 0,0.210937 0.078125,0.375 0.234375,0.5 0.164063,0.117187 0.460937,0.230469 0.890625,0.34375 0.582031,0.148437 1.019531,0.34375 1.3125,0.59375 0.289062,0.25 0.4375,0.601563 0.4375,1.046875 0,0.511719 -0.203125,0.90625 -0.609375,1.1875 C 3.296875,-0.0078125 2.804688,0.125 2.234375,0.125 1.429688,0.125 0.769531,-0.101562 0.25,-0.5625 L 0.734375,-1.125 c 0.445313,0.335938 0.941406,0.5 1.484375,0.5 0.34375,0 0.613281,-0.066406 0.8125,-0.203125 0.207031,-0.144531 0.3125,-0.34375 0.3125,-0.59375 0,-0.175781 -0.039062,-0.316406 -0.109375,-0.421875 C 3.160156,-1.957031 3.03125,-2.054688 2.84375,-2.140625 2.664062,-2.222656 2.40625,-2.3125 2.0625,-2.40625 1.5,-2.550781 1.09375,-2.742188 0.84375,-2.984375 c -0.242188,-0.25 -0.359375,-0.5625 -0.359375,-0.9375 0,-0.28125 0.078125,-0.53125 0.234375,-0.75 C 0.882812,-4.890625 1.109375,-5.0625 1.390625,-5.1875 1.679688,-5.3125 2.007812,-5.375 2.375,-5.375 Z m 0,0"
             id="id-bb197599-c606-4cb9-8813-d02bf7297c3a" />
        </g>
      </g>
      <g
         fill="#000000"
         fill-opacity="1"
         id="id-55d27cfc-953b-4d09-99de-43d88285b68b"
         transform="translate(-225.16,-126.984)">
        <g
           transform="translate(273.231,134.765)"
           id="g44428">
          <path
             d="M 1.859375,-5.25 V 0 h -0.90625 v -5.25 z m -0.46875,-2.53125 c 0.195313,0 0.351563,0.0625 0.46875,0.1875 0.125,0.117188 0.1875,0.265625 0.1875,0.453125 0,0.179687 -0.0625,0.324219 -0.1875,0.4375 -0.117187,0.117187 -0.273437,0.171875 -0.46875,0.171875 -0.179687,0 -0.328125,-0.054688 -0.453125,-0.171875 -0.117188,-0.113281 -0.171875,-0.257813 -0.171875,-0.4375 0,-0.1875 0.054687,-0.335937 0.171875,-0.453125 0.125,-0.125 0.273438,-0.1875 0.453125,-0.1875 z m 0,0"
             id="id-4460ed07-9901-47be-9c98-bcf6309d2acd" />
        </g>
        <g
           transform="translate(276.04,134.765)"
           id="g44431">
          <path
             d="m 3.421875,-5.375 c 0.476563,0 0.847656,0.148438 1.109375,0.4375 0.269531,0.28125 0.40625,0.671875 0.40625,1.171875 V 0 H 4.03125 v -3.640625 c 0,-0.375 -0.074219,-0.632813 -0.21875,-0.78125 -0.136719,-0.15625 -0.339844,-0.234375 -0.609375,-0.234375 -0.28125,0 -0.53125,0.085938 -0.75,0.25 -0.210937,0.15625 -0.40625,0.382812 -0.59375,0.671875 V 0 h -0.90625 v -5.25 h 0.78125 L 1.8125,-4.46875 C 2,-4.75 2.226562,-4.96875 2.5,-5.125 c 0.28125,-0.164062 0.585938,-0.25 0.921875,-0.25 z m 0,0"
             id="id-9cda2686-0004-4df3-956b-de53f5182daf" />
        </g>
      </g>
      <g
         fill="#000000"
         fill-opacity="1"
         id="id-97a59812-5bea-498e-a8ca-b414f3d66695"
         transform="translate(-225.16,-126.984)">
        <g
           transform="translate(284.518,134.765)"
           id="g44435">
          <path
             d="m 6.21875,-5.375 c 0.4375,0 0.78125,0.148438 1.03125,0.4375 0.257812,0.292969 0.390625,0.683594 0.390625,1.171875 V 0 h -0.90625 v -3.640625 c 0,-0.675781 -0.25,-1.015625 -0.75,-1.015625 -0.25,0 -0.46875,0.078125 -0.65625,0.234375 -0.179687,0.148437 -0.371094,0.375 -0.578125,0.6875 V 0 H 3.84375 v -3.640625 c 0,-0.675781 -0.25,-1.015625 -0.75,-1.015625 -0.261719,0 -0.484375,0.078125 -0.671875,0.234375 -0.179687,0.148437 -0.367187,0.375 -0.5625,0.6875 V 0 h -0.90625 v -5.25 h 0.78125 L 1.8125,-4.484375 C 2.207031,-5.078125 2.710938,-5.375 3.328125,-5.375 c 0.320313,0 0.597656,0.085938 0.828125,0.25 0.226562,0.167969 0.394531,0.402344 0.5,0.703125 0.207031,-0.3125 0.4375,-0.546875 0.6875,-0.703125 0.25,-0.164062 0.539062,-0.25 0.875,-0.25 z m 0,0"
             id="id-b9b87a29-a852-4e57-bc47-7703c950f88e" />
        </g>
        <g
           transform="translate(293.056,134.765)"
           id="g44438">
          <path
             d="m 4.921875,-2.78125 c 0,0.15625 -0.011719,0.3125 -0.03125,0.46875 h -3.34375 c 0.039063,0.574219 0.1875,1 0.4375,1.28125 0.25,0.273438 0.570313,0.40625 0.96875,0.40625 0.257813,0 0.492187,-0.035156 0.703125,-0.109375 C 3.875,-0.804688 4.097656,-0.925781 4.328125,-1.09375 l 0.390625,0.5625 C 4.164062,-0.09375 3.554688,0.125 2.890625,0.125 2.160156,0.125 1.585938,-0.113281 1.171875,-0.59375 0.765625,-1.070312 0.5625,-1.734375 0.5625,-2.578125 c 0,-0.539063 0.085938,-1.019531 0.265625,-1.4375 0.175781,-0.425781 0.425781,-0.757813 0.75,-1 C 1.910156,-5.253906 2.300781,-5.375 2.75,-5.375 c 0.695312,0 1.234375,0.230469 1.609375,0.6875 0.375,0.460938 0.5625,1.09375 0.5625,1.90625 z M 4,-3.046875 c 0,-0.519531 -0.105469,-0.914063 -0.3125,-1.1875 -0.199219,-0.269531 -0.507812,-0.40625 -0.921875,-0.40625 -0.75,0 -1.15625,0.554687 -1.21875,1.65625 H 4 Z m 0,0"
             id="id-c93437fb-f9b9-4340-80ef-d95c5f621b18" />
        </g>
        <g
           transform="translate(298.486,134.765)"
           id="g44441">
          <path
             d="M 3.59375,-0.234375 C 3.25,0.00390625 2.859375,0.125 2.421875,0.125 1.972656,0.125 1.625,0 1.375,-0.25 1.125,-0.507812 1,-0.882812 1,-1.375 V -4.546875 H 0.09375 V -5.25 H 1 V -6.4375 L 1.921875,-6.546875 V -5.25 h 1.25 l -0.09375,0.703125 h -1.15625 v 3.125 c 0,0.28125 0.046875,0.484375 0.140625,0.609375 0.101562,0.117188 0.265625,0.171875 0.484375,0.171875 0.207031,0 0.441406,-0.066406 0.703125,-0.203125 z m 0,0"
             id="id-3c7f01cc-9c22-4f2e-8b01-807625d88ad8" />
        </g>
      </g>
      <g
         fill="#000000"
         fill-opacity="1"
         id="id-274119f2-cab1-4df4-80a6-d223df58f7d9"
         transform="translate(-225.16,-126.984)">
        <g
           transform="translate(302.023,134.765)"
           id="g44445">
          <path
             d="m 4.484375,-1.21875 c 0,0.210938 0.035156,0.367188 0.109375,0.46875 0.070312,0.105469 0.179688,0.183594 0.328125,0.234375 L 4.71875,0.125 C 4.445312,0.0820312 4.226562,0.00390625 4.0625,-0.109375 c -0.167969,-0.125 -0.292969,-0.3125 -0.375,-0.5625 C 3.332031,-0.140625 2.8125,0.125 2.125,0.125 c -0.523438,0 -0.933594,-0.1445312 -1.234375,-0.4375 -0.292969,-0.289062 -0.4375,-0.675781 -0.4375,-1.15625 0,-0.550781 0.195313,-0.976562 0.59375,-1.28125 0.40625,-0.300781 0.976563,-0.453125 1.71875,-0.453125 H 3.5625 V -3.59375 c 0,-0.363281 -0.089844,-0.625 -0.265625,-0.78125 -0.179687,-0.164062 -0.453125,-0.25 -0.828125,-0.25 -0.386719,0 -0.855469,0.09375 -1.40625,0.28125 L 0.828125,-5.015625 c 0.644531,-0.238281 1.25,-0.359375 1.8125,-0.359375 0.613281,0 1.070313,0.152344 1.375,0.453125 0.3125,0.304687 0.46875,0.734375 0.46875,1.296875 z m -2.15625,0.65625 c 0.53125,0 0.941406,-0.273438 1.234375,-0.828125 V -2.59375 H 2.875 c -0.96875,0 -1.453125,0.359375 -1.453125,1.078125 0,0.3125 0.078125,0.554687 0.234375,0.71875 0.15625,0.15625 0.378906,0.234375 0.671875,0.234375 z m 0,0"
             id="id-bb75faf9-9ebd-4bf2-a34b-2bc51f5fa48a" />
        </g>
      </g>
      <g
         fill="#000000"
         fill-opacity="1"
         id="id-0a7081e1-cefe-4031-90ea-d64c28f1f173"
         transform="translate(-225.16,-126.984)">
        <g
           transform="translate(307.343,134.765)"
           id="g44449">
          <path
             d="M 2,0.125 C 1.65625,0.125 1.382812,0.0234375 1.1875,-0.171875 0.988281,-0.378906 0.890625,-0.664062 0.890625,-1.03125 v -6.328125 l 0.921875,-0.125 V -1.0625 c 0,0.148438 0.023438,0.257812 0.078125,0.328125 0.050781,0.0625 0.132813,0.09375 0.25,0.09375 0.125,0 0.238281,-0.019531 0.34375,-0.0625 L 2.71875,-0.0625 C 2.5,0.0625 2.257812,0.125 2,0.125 Z m 0,0"
             id="id-570f88ee-77c2-48c3-8e4c-8e12ef7f2a2c" />
        </g>
      </g>
      <g
         fill="#000000"
         fill-opacity="1"
         id="id-5fa27ca5-c3ac-4125-9745-1d7f97c65093"
         transform="translate(-225.16,-126.984)">
        <g
           transform="translate(312.892,134.765)"
           id="g44453">
          <path
             d="m 4.484375,-1.21875 c 0,0.210938 0.035156,0.367188 0.109375,0.46875 0.070312,0.105469 0.179688,0.183594 0.328125,0.234375 L 4.71875,0.125 C 4.445312,0.0820312 4.226562,0.00390625 4.0625,-0.109375 c -0.167969,-0.125 -0.292969,-0.3125 -0.375,-0.5625 C 3.332031,-0.140625 2.8125,0.125 2.125,0.125 c -0.523438,0 -0.933594,-0.1445312 -1.234375,-0.4375 -0.292969,-0.289062 -0.4375,-0.675781 -0.4375,-1.15625 0,-0.550781 0.195313,-0.976562 0.59375,-1.28125 0.40625,-0.300781 0.976563,-0.453125 1.71875,-0.453125 H 3.5625 V -3.59375 c 0,-0.363281 -0.089844,-0.625 -0.265625,-0.78125 -0.179687,-0.164062 -0.453125,-0.25 -0.828125,-0.25 -0.386719,0 -0.855469,0.09375 -1.40625,0.28125 L 0.828125,-5.015625 c 0.644531,-0.238281 1.25,-0.359375 1.8125,-0.359375 0.613281,0 1.070313,0.152344 1.375,0.453125 0.3125,0.304687 0.46875,0.734375 0.46875,1.296875 z m -2.15625,0.65625 c 0.53125,0 0.941406,-0.273438 1.234375,-0.828125 V -2.59375 H 2.875 c -0.96875,0 -1.453125,0.359375 -1.453125,1.078125 0,0.3125 0.078125,0.554687 0.234375,0.71875 0.15625,0.15625 0.378906,0.234375 0.671875,0.234375 z m 0,0"
             id="id-1efc32dd-9c50-4104-a7a0-6f890e1d41d1" />
        </g>
        <g
           transform="translate(318.311,134.765)"
           id="g44456">
          <path
             d="m 2.859375,-5.375 c 0.3125,0 0.597656,0.046875 0.859375,0.140625 0.257812,0.085937 0.507812,0.226563 0.75,0.421875 l -0.4375,0.578125 c -0.1875,-0.125 -0.371094,-0.21875 -0.546875,-0.28125 -0.179687,-0.0625 -0.371094,-0.09375 -0.578125,-0.09375 -0.429688,0 -0.761719,0.171875 -1,0.515625 -0.230469,0.335938 -0.34375,0.828125 -0.34375,1.484375 0,0.667969 0.113281,1.164063 0.34375,1.484375 0.226562,0.3125 0.5625,0.46875 1,0.46875 0.195312,0 0.382812,-0.03125 0.5625,-0.09375 0.175781,-0.0625 0.367188,-0.164062 0.578125,-0.3125 L 4.46875,-0.453125 C 3.988281,-0.0664062 3.453125,0.125 2.859375,0.125 2.148438,0.125 1.585938,-0.113281 1.171875,-0.59375 0.765625,-1.070312 0.5625,-1.734375 0.5625,-2.578125 c 0,-0.5625 0.09375,-1.050781 0.28125,-1.46875 0.1875,-0.414063 0.453125,-0.738281 0.796875,-0.96875 0.34375,-0.238281 0.75,-0.359375 1.21875,-0.359375 z m 0,0"
             id="id-e230167f-3643-4631-b8e3-a47581f78693" />
        </g>
        <g
           transform="translate(323.074,134.765)"
           id="g44459">
          <path
             d="M 3.59375,-0.234375 C 3.25,0.00390625 2.859375,0.125 2.421875,0.125 1.972656,0.125 1.625,0 1.375,-0.25 1.125,-0.507812 1,-0.882812 1,-1.375 V -4.546875 H 0.09375 V -5.25 H 1 V -6.4375 L 1.921875,-6.546875 V -5.25 h 1.25 l -0.09375,0.703125 h -1.15625 v 3.125 c 0,0.28125 0.046875,0.484375 0.140625,0.609375 0.101562,0.117188 0.265625,0.171875 0.484375,0.171875 0.207031,0 0.441406,-0.066406 0.703125,-0.203125 z m 0,0"
             id="id-bdeefb5d-0704-4927-ab67-9c58c46cc7a7" />
        </g>
      </g>
      <g
         fill="#000000"
         fill-opacity="1"
         id="id-a20c193f-100d-4fb3-9acb-0a8f578b0009"
         transform="translate(-225.16,-126.984)">
        <g
           transform="translate(329.31,134.765)"
           id="g44463">
          <path
             d="m 4.484375,-1.21875 c 0,0.210938 0.035156,0.367188 0.109375,0.46875 0.070312,0.105469 0.179688,0.183594 0.328125,0.234375 L 4.71875,0.125 C 4.445312,0.0820312 4.226562,0.00390625 4.0625,-0.109375 c -0.167969,-0.125 -0.292969,-0.3125 -0.375,-0.5625 C 3.332031,-0.140625 2.8125,0.125 2.125,0.125 c -0.523438,0 -0.933594,-0.1445312 -1.234375,-0.4375 -0.292969,-0.289062 -0.4375,-0.675781 -0.4375,-1.15625 0,-0.550781 0.195313,-0.976562 0.59375,-1.28125 0.40625,-0.300781 0.976563,-0.453125 1.71875,-0.453125 H 3.5625 V -3.59375 c 0,-0.363281 -0.089844,-0.625 -0.265625,-0.78125 -0.179687,-0.164062 -0.453125,-0.25 -0.828125,-0.25 -0.386719,0 -0.855469,0.09375 -1.40625,0.28125 L 0.828125,-5.015625 c 0.644531,-0.238281 1.25,-0.359375 1.8125,-0.359375 0.613281,0 1.070313,0.152344 1.375,0.453125 0.3125,0.304687 0.46875,0.734375 0.46875,1.296875 z m -2.15625,0.65625 c 0.53125,0 0.941406,-0.273438 1.234375,-0.828125 V -2.59375 H 2.875 c -0.96875,0 -1.453125,0.359375 -1.453125,1.078125 0,0.3125 0.078125,0.554687 0.234375,0.71875 0.15625,0.15625 0.378906,0.234375 0.671875,0.234375 z m 0,0"
             id="id-58e0ac2b-41c5-49ef-a354-88604ac2c30f" />
        </g>
      </g>
      <g
         fill="#000000"
         fill-opacity="1"
         id="id-d05bab5b-a390-4fee-b9f7-ae0dc29cdbe9"
         transform="translate(-225.16,-126.984)">
        <g
           transform="translate(334.64,134.765)"
           id="g44467">
          <path
             d="m 2.375,-5.375 c 0.351562,0 0.671875,0.054688 0.953125,0.15625 0.289063,0.09375 0.566406,0.242188 0.828125,0.4375 L 3.765625,-4.203125 C 3.523438,-4.347656 3.296875,-4.457031 3.078125,-4.53125 2.867188,-4.601562 2.644531,-4.640625 2.40625,-4.640625 c -0.304688,0 -0.542969,0.0625 -0.71875,0.1875 -0.167969,0.117187 -0.25,0.28125 -0.25,0.5 0,0.210937 0.078125,0.375 0.234375,0.5 0.164063,0.117187 0.460937,0.230469 0.890625,0.34375 0.582031,0.148437 1.019531,0.34375 1.3125,0.59375 0.289062,0.25 0.4375,0.601563 0.4375,1.046875 0,0.511719 -0.203125,0.90625 -0.609375,1.1875 C 3.296875,-0.0078125 2.804688,0.125 2.234375,0.125 1.429688,0.125 0.769531,-0.101562 0.25,-0.5625 L 0.734375,-1.125 c 0.445313,0.335938 0.941406,0.5 1.484375,0.5 0.34375,0 0.613281,-0.066406 0.8125,-0.203125 0.207031,-0.144531 0.3125,-0.34375 0.3125,-0.59375 0,-0.175781 -0.039062,-0.316406 -0.109375,-0.421875 C 3.160156,-1.957031 3.03125,-2.054688 2.84375,-2.140625 2.664062,-2.222656 2.40625,-2.3125 2.0625,-2.40625 1.5,-2.550781 1.09375,-2.742188 0.84375,-2.984375 c -0.242188,-0.25 -0.359375,-0.5625 -0.359375,-0.9375 0,-0.28125 0.078125,-0.53125 0.234375,-0.75 C 0.882812,-4.890625 1.109375,-5.0625 1.390625,-5.1875 1.679688,-5.3125 2.007812,-5.375 2.375,-5.375 Z m 0,0"
             id="id-0a597cef-61dc-4e3f-9851-b8c93fed873f" />
        </g>
      </g>
      <g
         fill="#000000"
         fill-opacity="1"
         id="id-b6f0738e-ee8f-47a4-b571-e2010c436525"
         transform="translate(-225.16,-126.984)">
        <g
           transform="translate(341.923,134.765)"
           id="g44471">
          <path
             d="m 2.375,-5.375 c 0.351562,0 0.671875,0.054688 0.953125,0.15625 0.289063,0.09375 0.566406,0.242188 0.828125,0.4375 L 3.765625,-4.203125 C 3.523438,-4.347656 3.296875,-4.457031 3.078125,-4.53125 2.867188,-4.601562 2.644531,-4.640625 2.40625,-4.640625 c -0.304688,0 -0.542969,0.0625 -0.71875,0.1875 -0.167969,0.117187 -0.25,0.28125 -0.25,0.5 0,0.210937 0.078125,0.375 0.234375,0.5 0.164063,0.117187 0.460937,0.230469 0.890625,0.34375 0.582031,0.148437 1.019531,0.34375 1.3125,0.59375 0.289062,0.25 0.4375,0.601563 0.4375,1.046875 0,0.511719 -0.203125,0.90625 -0.609375,1.1875 C 3.296875,-0.0078125 2.804688,0.125 2.234375,0.125 1.429688,0.125 0.769531,-0.101562 0.25,-0.5625 L 0.734375,-1.125 c 0.445313,0.335938 0.941406,0.5 1.484375,0.5 0.34375,0 0.613281,-0.066406 0.8125,-0.203125 0.207031,-0.144531 0.3125,-0.34375 0.3125,-0.59375 0,-0.175781 -0.039062,-0.316406 -0.109375,-0.421875 C 3.160156,-1.957031 3.03125,-2.054688 2.84375,-2.140625 2.664062,-2.222656 2.40625,-2.3125 2.0625,-2.40625 1.5,-2.550781 1.09375,-2.742188 0.84375,-2.984375 c -0.242188,-0.25 -0.359375,-0.5625 -0.359375,-0.9375 0,-0.28125 0.078125,-0.53125 0.234375,-0.75 C 0.882812,-4.890625 1.109375,-5.0625 1.390625,-5.1875 1.679688,-5.3125 2.007812,-5.375 2.375,-5.375 Z m 0,0"
             id="id-09b97aaa-1759-4586-a63d-1c0a4fedcee1" />
        </g>
        <g
           transform="translate(346.575,134.765)"
           id="g44474">
          <path
             d="m 2.859375,-5.375 c 0.3125,0 0.597656,0.046875 0.859375,0.140625 0.257812,0.085937 0.507812,0.226563 0.75,0.421875 l -0.4375,0.578125 c -0.1875,-0.125 -0.371094,-0.21875 -0.546875,-0.28125 -0.179687,-0.0625 -0.371094,-0.09375 -0.578125,-0.09375 -0.429688,0 -0.761719,0.171875 -1,0.515625 -0.230469,0.335938 -0.34375,0.828125 -0.34375,1.484375 0,0.667969 0.113281,1.164063 0.34375,1.484375 0.226562,0.3125 0.5625,0.46875 1,0.46875 0.195312,0 0.382812,-0.03125 0.5625,-0.09375 0.175781,-0.0625 0.367188,-0.164062 0.578125,-0.3125 L 4.46875,-0.453125 C 3.988281,-0.0664062 3.453125,0.125 2.859375,0.125 2.148438,0.125 1.585938,-0.113281 1.171875,-0.59375 0.765625,-1.070312 0.5625,-1.734375 0.5625,-2.578125 c 0,-0.5625 0.09375,-1.050781 0.28125,-1.46875 0.1875,-0.414063 0.453125,-0.738281 0.796875,-0.96875 0.34375,-0.238281 0.75,-0.359375 1.21875,-0.359375 z m 0,0"
             id="id-f5e9e791-d114-4a40-974c-6473d41e6149" />
        </g>
      </g>
      <g
         fill="#000000"
         fill-opacity="1"
         id="id-c4d49e42-04de-4050-a3d0-5840b186ebb2"
         transform="translate(-225.16,-126.984)">
        <g
           transform="translate(351.248,134.765)"
           id="g44478">
          <path
             d="m 4.484375,-1.21875 c 0,0.210938 0.035156,0.367188 0.109375,0.46875 0.070312,0.105469 0.179688,0.183594 0.328125,0.234375 L 4.71875,0.125 C 4.445312,0.0820312 4.226562,0.00390625 4.0625,-0.109375 c -0.167969,-0.125 -0.292969,-0.3125 -0.375,-0.5625 C 3.332031,-0.140625 2.8125,0.125 2.125,0.125 c -0.523438,0 -0.933594,-0.1445312 -1.234375,-0.4375 -0.292969,-0.289062 -0.4375,-0.675781 -0.4375,-1.15625 0,-0.550781 0.195313,-0.976562 0.59375,-1.28125 0.40625,-0.300781 0.976563,-0.453125 1.71875,-0.453125 H 3.5625 V -3.59375 c 0,-0.363281 -0.089844,-0.625 -0.265625,-0.78125 -0.179687,-0.164062 -0.453125,-0.25 -0.828125,-0.25 -0.386719,0 -0.855469,0.09375 -1.40625,0.28125 L 0.828125,-5.015625 c 0.644531,-0.238281 1.25,-0.359375 1.8125,-0.359375 0.613281,0 1.070313,0.152344 1.375,0.453125 0.3125,0.304687 0.46875,0.734375 0.46875,1.296875 z m -2.15625,0.65625 c 0.53125,0 0.941406,-0.273438 1.234375,-0.828125 V -2.59375 H 2.875 c -0.96875,0 -1.453125,0.359375 -1.453125,1.078125 0,0.3125 0.078125,0.554687 0.234375,0.71875 0.15625,0.15625 0.378906,0.234375 0.671875,0.234375 z m 0,0"
             id="id-4314e685-bd88-4929-ac74-33b70fb6a139" />
        </g>
        <g
           transform="translate(356.667,134.765)"
           id="g44481">
          <path
             d="M 3.59375,-0.234375 C 3.25,0.00390625 2.859375,0.125 2.421875,0.125 1.972656,0.125 1.625,0 1.375,-0.25 1.125,-0.507812 1,-0.882812 1,-1.375 V -4.546875 H 0.09375 V -5.25 H 1 V -6.4375 L 1.921875,-6.546875 V -5.25 h 1.25 l -0.09375,0.703125 h -1.15625 v 3.125 c 0,0.28125 0.046875,0.484375 0.140625,0.609375 0.101562,0.117188 0.265625,0.171875 0.484375,0.171875 0.207031,0 0.441406,-0.066406 0.703125,-0.203125 z m 0,0"
             id="id-85e4fa82-6aaf-42c4-923b-b5ebb8a8c968" />
        </g>
        <g
           transform="translate(360.264,134.765)"
           id="g44484">
          <path
             d="M 3.59375,-0.234375 C 3.25,0.00390625 2.859375,0.125 2.421875,0.125 1.972656,0.125 1.625,0 1.375,-0.25 1.125,-0.507812 1,-0.882812 1,-1.375 V -4.546875 H 0.09375 V -5.25 H 1 V -6.4375 L 1.921875,-6.546875 V -5.25 h 1.25 l -0.09375,0.703125 h -1.15625 v 3.125 c 0,0.28125 0.046875,0.484375 0.140625,0.609375 0.101562,0.117188 0.265625,0.171875 0.484375,0.171875 0.207031,0 0.441406,-0.066406 0.703125,-0.203125 z m 0,0"
             id="id-2568106e-34d7-4e8c-be38-6972024ca603" />
        </g>
      </g>
      <g
         fill="#000000"
         fill-opacity="1"
         id="id-ce8741d4-0d89-47cd-b153-4dcd5758c894"
         transform="translate(-225.16,-126.984)">
        <g
           transform="translate(363.711,134.765)"
           id="g44488">
          <path
             d="m 4.921875,-2.78125 c 0,0.15625 -0.011719,0.3125 -0.03125,0.46875 h -3.34375 c 0.039063,0.574219 0.1875,1 0.4375,1.28125 0.25,0.273438 0.570313,0.40625 0.96875,0.40625 0.257813,0 0.492187,-0.035156 0.703125,-0.109375 C 3.875,-0.804688 4.097656,-0.925781 4.328125,-1.09375 l 0.390625,0.5625 C 4.164062,-0.09375 3.554688,0.125 2.890625,0.125 2.160156,0.125 1.585938,-0.113281 1.171875,-0.59375 0.765625,-1.070312 0.5625,-1.734375 0.5625,-2.578125 c 0,-0.539063 0.085938,-1.019531 0.265625,-1.4375 0.175781,-0.425781 0.425781,-0.757813 0.75,-1 C 1.910156,-5.253906 2.300781,-5.375 2.75,-5.375 c 0.695312,0 1.234375,0.230469 1.609375,0.6875 0.375,0.460938 0.5625,1.09375 0.5625,1.90625 z M 4,-3.046875 c 0,-0.519531 -0.105469,-0.914063 -0.3125,-1.1875 -0.199219,-0.269531 -0.507812,-0.40625 -0.921875,-0.40625 -0.75,0 -1.15625,0.554687 -1.21875,1.65625 H 4 Z m 0,0"
             id="id-ab35ef41-0cb0-4c28-bf7d-03af263a2380" />
        </g>
        <g
           transform="translate(369.141,134.765)"
           id="g44491">
          <path
             d="m 3.234375,-5.375 c 0.1875,0 0.359375,0.023438 0.515625,0.0625 L 3.578125,-4.421875 C 3.421875,-4.453125 3.269531,-4.46875 3.125,-4.46875 c -0.335938,0 -0.601562,0.121094 -0.796875,0.359375 C 2.128906,-3.878906 1.972656,-3.507812 1.859375,-3 v 3 h -0.90625 v -5.25 h 0.78125 l 0.09375,1.0625 C 1.960938,-4.582031 2.148438,-4.878906 2.390625,-5.078125 2.628906,-5.273438 2.910156,-5.375 3.234375,-5.375 Z m 0,0"
             id="id-fb324fbd-4cf2-4ce4-ae07-8159c3743eb0" />
        </g>
      </g>
      <g
         fill="#000000"
         fill-opacity="1"
         id="id-cd77d413-afba-4365-84bc-d633965da54d"
         transform="translate(-225.16,-126.984)">
        <g
           transform="translate(372.687,134.765)"
           id="g44495">
          <path
             d="m 2.921875,-5.375 c 0.738281,0 1.3125,0.25 1.71875,0.75 0.40625,0.492188 0.609375,1.15625 0.609375,2 0,0.542969 -0.09375,1.023438 -0.28125,1.4375 -0.1875,0.417969 -0.460938,0.742188 -0.8125,0.96875 C 3.8125,0.0078125 3.394531,0.125 2.90625,0.125 2.164062,0.125 1.585938,-0.117188 1.171875,-0.609375 0.765625,-1.109375 0.5625,-1.78125 0.5625,-2.625 c 0,-0.539062 0.09375,-1.019531 0.28125,-1.4375 0.1875,-0.414062 0.457031,-0.738281 0.8125,-0.96875 C 2.007812,-5.257812 2.429688,-5.375 2.921875,-5.375 Z m 0,0.734375 c -0.90625,0 -1.359375,0.671875 -1.359375,2.015625 0,1.335938 0.445312,2 1.34375,2 0.90625,0 1.359375,-0.664062 1.359375,-2 0,-1.34375 -0.449219,-2.015625 -1.34375,-2.015625 z m 0,0"
             id="id-3bf6dc0a-10d8-4cd3-903a-2c55f3f20889" />
        </g>
        <g
           transform="translate(378.505,134.765)"
           id="g44498">
          <path
             d="m 3.234375,-5.375 c 0.1875,0 0.359375,0.023438 0.515625,0.0625 L 3.578125,-4.421875 C 3.421875,-4.453125 3.269531,-4.46875 3.125,-4.46875 c -0.335938,0 -0.601562,0.121094 -0.796875,0.359375 C 2.128906,-3.878906 1.972656,-3.507812 1.859375,-3 v 3 h -0.90625 v -5.25 h 0.78125 l 0.09375,1.0625 C 1.960938,-4.582031 2.148438,-4.878906 2.390625,-5.078125 2.628906,-5.273438 2.910156,-5.375 3.234375,-5.375 Z m 0,0"
             id="id-4fa3a15c-51cf-4104-8dee-a7529b1e7b35" />
        </g>
      </g>
      <g
         fill="#000000"
         fill-opacity="1"
         id="id-60b36b8b-546b-4ea9-945c-f880bf0f1f3c"
         transform="translate(-225.16,-126.984)">
        <g
           transform="translate(382.202,134.765)"
           id="g44502">
          <path
             d="m 2.375,-5.375 c 0.351562,0 0.671875,0.054688 0.953125,0.15625 0.289063,0.09375 0.566406,0.242188 0.828125,0.4375 L 3.765625,-4.203125 C 3.523438,-4.347656 3.296875,-4.457031 3.078125,-4.53125 2.867188,-4.601562 2.644531,-4.640625 2.40625,-4.640625 c -0.304688,0 -0.542969,0.0625 -0.71875,0.1875 -0.167969,0.117187 -0.25,0.28125 -0.25,0.5 0,0.210937 0.078125,0.375 0.234375,0.5 0.164063,0.117187 0.460937,0.230469 0.890625,0.34375 0.582031,0.148437 1.019531,0.34375 1.3125,0.59375 0.289062,0.25 0.4375,0.601563 0.4375,1.046875 0,0.511719 -0.203125,0.90625 -0.609375,1.1875 C 3.296875,-0.0078125 2.804688,0.125 2.234375,0.125 1.429688,0.125 0.769531,-0.101562 0.25,-0.5625 L 0.734375,-1.125 c 0.445313,0.335938 0.941406,0.5 1.484375,0.5 0.34375,0 0.613281,-0.066406 0.8125,-0.203125 0.207031,-0.144531 0.3125,-0.34375 0.3125,-0.59375 0,-0.175781 -0.039062,-0.316406 -0.109375,-0.421875 C 3.160156,-1.957031 3.03125,-2.054688 2.84375,-2.140625 2.664062,-2.222656 2.40625,-2.3125 2.0625,-2.40625 1.5,-2.550781 1.09375,-2.742188 0.84375,-2.984375 c -0.242188,-0.25 -0.359375,-0.5625 -0.359375,-0.9375 0,-0.28125 0.078125,-0.53125 0.234375,-0.75 C 0.882812,-4.890625 1.109375,-5.0625 1.390625,-5.1875 1.679688,-5.3125 2.007812,-5.375 2.375,-5.375 Z m 0,0"
             id="id-f429cbfe-a3f2-41ba-90b4-2a66fb67f7db" />
        </g>
      </g>
    </g>
  </g>
</svg>
