<?xml version="1.0" encoding="UTF-8" standalone="no"?>
<!-- Created with Inkscape (http://www.inkscape.org/) -->

<svg
   width="299.35324mm"
   height="104.12811mm"
   viewBox="0 0 299.35324 104.12811"
   version="1.1"
   id="svg5"
   inkscape:version="1.1.2 (0a00cf5339, 2022-02-04, custom)"
   sodipodi:docname="dos_diff.svg"
   xmlns:inkscape="http://www.inkscape.org/namespaces/inkscape"
   xmlns:sodipodi="http://sodipodi.sourceforge.net/DTD/sodipodi-0.dtd"
   xmlns="http://www.w3.org/2000/svg"
   xmlns:svg="http://www.w3.org/2000/svg"
   xmlns:ns8="http://www.iki.fi/pav/software/textext/">
  <sodipodi:namedview
     id="namedview7"
     pagecolor="#ffffff"
     bordercolor="#666666"
     borderopacity="1.0"
     inkscape:pageshadow="2"
     inkscape:pageopacity="0.0"
     inkscape:pagecheckerboard="0"
     inkscape:document-units="mm"
     showgrid="false"
     inkscape:snap-bbox="true"
     inkscape:snap-object-midpoints="true"
     inkscape:zoom="0.50511364"
     inkscape:cx="610.75366"
     inkscape:cy="508.7964"
     inkscape:window-width="1024"
     inkscape:window-height="736"
     inkscape:window-x="0"
     inkscape:window-y="32"
     inkscape:window-maximized="1"
     inkscape:current-layer="layer1" />
  <defs
     id="defs2">
    <inkscape:path-effect
       effect="spiro"
       id="path-effect2856"
       is_visible="true"
       lpeversion="1" />
    <inkscape:path-effect
       effect="spiro"
       id="path-effect2707"
       is_visible="true"
       lpeversion="1" />
    <marker
       style="overflow:visible"
       id="Arrow2Send"
       refX="0"
       refY="0"
       orient="auto"
       inkscape:stockid="Arrow2Send"
       inkscape:isstock="true">
      <path
         transform="matrix(-0.3,0,0,-0.3,0.69,0)"
         d="M 8.7185878,4.0337352 -2.2072895,0.01601326 8.7185884,-4.0017078 c -1.7454984,2.3720609 -1.7354408,5.6174519 -6e-7,8.035443 z"
         style="fill:context-stroke;fill-rule:evenodd;stroke:context-stroke;stroke-width:0.625;stroke-linejoin:round"
         id="path1875" />
    </marker>
    <marker
       style="overflow:visible"
       id="Arrow2Mend"
       refX="0"
       refY="0"
       orient="auto"
       inkscape:stockid="Arrow2Mend"
       inkscape:isstock="true">
      <path
         transform="scale(-0.6)"
         d="M 8.7185878,4.0337352 -2.2072895,0.01601326 8.7185884,-4.0017078 c -1.7454984,2.3720609 -1.7354408,5.6174519 -6e-7,8.035443 z"
         style="fill:context-stroke;fill-rule:evenodd;stroke:context-stroke;stroke-width:0.625;stroke-linejoin:round"
         id="path1869" />
    </marker>
    <inkscape:path-effect
       effect="spiro"
       id="path-effect1477"
       is_visible="true"
       lpeversion="1" />
    <inkscape:path-effect
       effect="spiro"
       id="path-effect1391"
       is_visible="true"
       lpeversion="1" />
    <inkscape:path-effect
       effect="spiro"
       id="path-effect1391-3"
       is_visible="true"
       lpeversion="1" />
    <marker
       style="overflow:visible"
       id="Arrow2Send-7"
       refX="0"
       refY="0"
       orient="auto"
       inkscape:stockid="Arrow2Send"
       inkscape:isstock="true">
      <path
         transform="matrix(-0.3,0,0,-0.3,0.69,0)"
         d="M 8.7185878,4.0337352 -2.2072895,0.01601326 8.7185884,-4.0017078 c -1.7454984,2.3720609 -1.7354408,5.6174519 -6e-7,8.035443 z"
         style="fill:context-stroke;fill-rule:evenodd;stroke:context-stroke;stroke-width:0.625;stroke-linejoin:round"
         id="path1875-5" />
    </marker>
    <inkscape:path-effect
       effect="spiro"
       id="path-effect1391-35"
       is_visible="true"
       lpeversion="1" />
    <marker
       style="overflow:visible"
       id="Arrow2Send-2"
       refX="0"
       refY="0"
       orient="auto"
       inkscape:stockid="Arrow2Send"
       inkscape:isstock="true">
      <path
         transform="matrix(-0.3,0,0,-0.3,0.69,0)"
         d="M 8.7185878,4.0337352 -2.2072895,0.01601326 8.7185884,-4.0017078 c -1.7454984,2.3720609 -1.7354408,5.6174519 -6e-7,8.035443 z"
         style="fill:context-stroke;fill-rule:evenodd;stroke:context-stroke;stroke-width:0.625;stroke-linejoin:round"
         id="path1875-9" />
    </marker>
    <inkscape:path-effect
       effect="spiro"
       id="path-effect1391-1"
       is_visible="true"
       lpeversion="1" />
    <marker
       style="overflow:visible"
       id="Arrow2Send-7-2"
       refX="0"
       refY="0"
       orient="auto"
       inkscape:stockid="Arrow2Send"
       inkscape:isstock="true">
      <path
         transform="matrix(-0.3,0,0,-0.3,0.69,0)"
         d="M 8.7185878,4.0337352 -2.2072895,0.01601326 8.7185884,-4.0017078 c -1.7454984,2.3720609 -1.7354408,5.6174519 -6e-7,8.035443 z"
         style="fill:context-stroke;fill-rule:evenodd;stroke:context-stroke;stroke-width:0.625;stroke-linejoin:round"
         id="path1875-5-7" />
    </marker>
    <inkscape:path-effect
       effect="spiro"
       id="path-effect1391-35-0"
       is_visible="true"
       lpeversion="1" />
    <inkscape:path-effect
       effect="spiro"
       id="path-effect2707-2"
       is_visible="true"
       lpeversion="1" />
  </defs>
  <g
     inkscape:label="Layer 1"
     inkscape:groupmode="layer"
     id="layer1"
     transform="translate(34.426235,-59.048683)">
    <rect
       style="fill:#909503;fill-opacity:1;stroke:none;stroke-width:5.62805"
       id="rect1058"
       width="127.72636"
       height="28.185841"
       x="-23.826054"
       y="73.151924" />
    <path
       style="fill:none;stroke:#000000;stroke-width:2;stroke-linecap:butt;stroke-linejoin:miter;stroke-miterlimit:4;stroke-dasharray:none;stroke-opacity:1;marker-end:url(#Arrow2Send)"
       d="M 40.037125,142.77595 C 32.765462,141.66571 25.967669,137.70483 21.416213,131.92608 16.30146,125.43214 14.12514,116.71034 15.589439,108.57475 17.053737,100.43916 22.134578,93.023557 29.192637,88.720563"
       id="path1389"
       inkscape:path-effect="#path-effect1391"
       inkscape:original-d="m 40.037125,142.77595 c -6.206707,-3.61636 -12.413678,-7.23298 -18.620912,-10.84987 -6.207235,-3.61689 1.569719,-27.4191 7.776424,-43.205517"
       sodipodi:nodetypes="csc" />
    <path
       style="fill:none;stroke:#000000;stroke-width:2;stroke-linecap:butt;stroke-linejoin:miter;stroke-miterlimit:4;stroke-dasharray:none;stroke-opacity:1;marker-end:url(#Arrow2Send-7)"
       d="m 40.037125,142.77595 c 7.271663,-1.11024 14.069456,-5.07112 18.620912,-10.84987 5.114753,-6.49394 7.291074,-15.21574 5.826775,-23.35133 -1.464299,-8.13559 -6.54514,-15.551195 -13.603199,-19.85419"
       id="path1389-6"
       inkscape:path-effect="#path-effect1391-35"
       inkscape:original-d="m 40.037125,142.77595 c 6.206707,-3.61636 12.413678,-7.23298 18.620912,-10.84987 6.207235,-3.61689 -1.569719,-27.4191 -7.776424,-43.20552"
       sodipodi:nodetypes="csc" />
    <circle
       style="fill:#902d03;fill-opacity:1;stroke:none;stroke-width:5.57737"
       id="path846"
       cx="40.037125"
       cy="142.77596"
       r="7.9390678" />
    <rect
       style="fill:none;fill-opacity:1;stroke:#000000;stroke-width:1;stroke-miterlimit:4;stroke-dasharray:none;stroke-opacity:1"
       id="rect2381"
       width="149.17662"
       height="103.12811"
       x="-33.926235"
       y="59.548683" />
    <path
       style="fill:none;stroke:#000000;stroke-width:2;stroke-linecap:butt;stroke-linejoin:miter;stroke-miterlimit:4;stroke-dasharray:none;stroke-opacity:1;marker-end:url(#Arrow2Send-2)"
       d="m 189.21374,142.77596 c -7.27166,-1.11024 -14.06945,-5.07112 -18.62091,-10.84987 -5.11475,-6.49394 -7.29107,-15.21574 -5.82677,-23.35133 1.4643,-8.13559 6.54514,-15.551201 13.6032,-19.854195"
       id="path1389-3"
       inkscape:path-effect="#path-effect1391-1"
       inkscape:original-d="m 189.21374,142.77596 c -6.2067,-3.61636 -12.41367,-7.23298 -18.62091,-10.84987 -6.20723,-3.61689 1.56972,-27.4191 7.77643,-43.205525"
       sodipodi:nodetypes="csc" />
    <path
       style="fill:none;stroke:#000000;stroke-width:2;stroke-linecap:butt;stroke-linejoin:miter;stroke-miterlimit:4;stroke-dasharray:none;stroke-opacity:1;marker-end:url(#Arrow2Send-7-2)"
       d="m 189.21374,142.77596 c 7.27167,-1.11024 14.06946,-5.07112 18.62092,-10.84987 5.11475,-6.49394 7.29108,-15.21574 5.82678,-23.35133 -1.4643,-8.13559 -6.54515,-15.551201 -13.60321,-19.854195"
       id="path1389-6-6"
       inkscape:path-effect="#path-effect1391-35-0"
       inkscape:original-d="m 189.21374,142.77596 c 6.20671,-3.61636 12.41368,-7.23298 18.62092,-10.84987 6.20723,-3.61689 -1.56972,-27.4191 -7.77643,-43.205525"
       sodipodi:nodetypes="csc" />
    <circle
       style="fill:#902d03;fill-opacity:1;stroke:none;stroke-width:5.57737"
       id="path846-0"
       cx="189.21375"
       cy="142.77596"
       r="7.9390678" />
    <rect
       style="fill:none;fill-opacity:1;stroke:#000000;stroke-width:1;stroke-miterlimit:4;stroke-dasharray:none;stroke-opacity:1"
       id="rect2381-6"
       width="149.17662"
       height="103.12811"
       x="115.25038"
       y="59.548683" />
    <path
       style="fill:#909503;fill-opacity:1;stroke:none;stroke-width:1.05545;stroke-miterlimit:4;stroke-dasharray:none;stroke-opacity:1"
       d="m 125.61691,107.03814 c 1.78649,-0.68519 4.34971,-2.3662 5.9362,-3.89305 2.00456,-1.92921 3.47993,-4.142847 6.14455,-9.219174 2.81481,-5.362457 4.16586,-8.583387 4.75583,-11.337914 0.26224,-1.2244 0.67904,-2.83758 0.92623,-3.58483 1.03201,-3.119837 4.54139,-3.805547 7.38483,-1.442937 2.39443,1.989537 4.24834,5.178257 7.1913,12.369131 2.06491,5.045437 5.6737,11.926224 7.21838,13.763144 1.68363,2.00218 4.87224,2.58448 7.04621,1.28683 3.67086,-2.19118 4.97156,-5.471737 7.587,-19.135471 3.69716,-19.314999 4.3781,-21.604439 6.85449,-23.045919 1.88298,-1.09605 2.74493,-1.19552 4.42542,-0.51069 1.57001,0.63981 2.72661,1.75908 3.49986,3.38687 0.53409,1.12434 3.06396,12.735225 4.88373,22.413869 1.81183,9.636544 3.10745,13.322581 5.50226,15.654201 1.37229,1.33607 2.70931,1.89367 4.53765,1.89243 1.76047,0 3.03205,-0.62965 4.23882,-2.09497 1.39158,-1.68971 4.59885,-7.654887 6.26599,-11.654044 2.84321,-6.820347 3.07801,-7.329557 4.57178,-9.914684 2.94856,-5.102767 6.46834,-7.053407 9.25205,-5.127397 1.18026,0.81661 1.65291,1.81204 2.31157,4.868257 0.32605,1.51288 0.99061,3.742037 1.47681,4.953677 1.36624,3.404767 5.39105,11.117884 6.98744,13.390691 1.87212,2.66533 4.79232,5.18988 7.42978,6.42305 l 2.0843,0.97454 -64.76213,-0.0138 c -57.47668,-0.0122 -64.64832,-0.0574 -63.75035,-0.40185 z"
       id="path3466" />
    <g
       transform="matrix(1.3594146,0,0,1.3594146,15.205622,148.33111)"
       ns8:version="1.3.0"
       ns8:texconverter="pdflatex"
       ns8:pdfconverter="inkscape"
       ns8:text="impurity"
       ns8:preamble="/home/abhirup/textext.tex"
       ns8:scale="5.334602600023957"
       ns8:alignment="middle center"
       ns8:inkscapeversion="1.1.2"
       ns8:jacobian_sqrt="1.88193"
       id="g3906">
      <defs
         id="id-a2281128-87ba-4467-8f56-42c5f429f99b">
        <g
           id="id-d3df6bca-91ee-4cd3-8ae2-342f91ac3b69">
          <symbol
             overflow="visible"
             id="id-fb203237-3f1e-4cc5-bc39-cc5dbfef6621">
            <path
               style="stroke:none;stroke-width:0"
               d="M 5.40625,-10.46875 H 1.21875 V 3.484375 h 4.1875 z M 4.875,-9.953125 V 2.96875 H 1.78125 V -9.953125 Z M 3.234375,-4.5 c -0.390625,0 -0.9375,0.125 -0.9375,0.390625 0,0.125 0.09375,0.234375 0.25,0.234375 0.03125,0 0.078125,-0.015625 0.125,-0.03125 0.171875,-0.078125 0.3125,-0.109375 0.515625,-0.109375 0.5,0 0.609375,0.296875 0.609375,0.6875 0,0.53125 -0.1875,0.71875 -0.90625,0.765625 v 0.84375 c 0,0.140625 0.125,0.234375 0.25,0.234375 0.125,0 0.25,-0.09375 0.25,-0.234375 V -2.171875 C 4.0625,-2.265625 4.34375,-2.65625 4.34375,-3.34375 4.34375,-3.953125 4.09375,-4.5 3.234375,-4.5 Z m -0.09375,3.296875 c -0.203125,0 -0.34375,0.15625 -0.34375,0.359375 0,0.203125 0.140625,0.359375 0.34375,0.359375 0.203125,0 0.34375,-0.15625 0.34375,-0.359375 0,-0.203125 -0.140625,-0.359375 -0.34375,-0.359375 z m 0,0"
               id="id-ab92b216-c705-4611-9b40-92ad1e4e6fb3" />
          </symbol>
          <symbol
             overflow="visible"
             id="id-f0874e87-bc45-49d4-a335-583aaf6ff034">
            <path
               style="stroke:none;stroke-width:0"
               d="m 1.359375,-7.78125 c -0.375,0 -0.625,0.28125 -0.625,0.640625 0,0.34375 0.25,0.609375 0.625,0.609375 0.390625,0 0.65625,-0.265625 0.65625,-0.609375 C 2.015625,-7.5 1.75,-7.78125 1.359375,-7.78125 Z M 1.828125,-5.25 H 0.921875 V 0 h 0.90625 z m 0,0"
               id="id-58f661a9-0fe2-49c8-8299-02fe2c02f492" />
          </symbol>
          <symbol
             overflow="visible"
             id="id-c1e5b780-8a3c-4404-8ea5-cbd01a77481c">
            <path
               style="stroke:none;stroke-width:0"
               d="M 6.1875,-5.375 C 5.484375,-5.375 5,-5 4.625,-4.421875 4.421875,-5.03125 3.953125,-5.375 3.296875,-5.375 c -0.6875,0 -1.15625,0.359375 -1.515625,0.890625 L 1.703125,-5.25 H 0.921875 V 0 h 0.90625 V -3.734375 C 2.1875,-4.28125 2.5,-4.65625 3.078125,-4.65625 c 0.390625,0 0.734375,0.234375 0.734375,1.015625 V 0 h 0.90625 v -3.734375 c 0.359375,-0.546875 0.671875,-0.921875 1.25,-0.921875 0.390625,0 0.734375,0.234375 0.734375,1.015625 V 0 h 0.90625 V -3.765625 C 7.609375,-4.75 7.046875,-5.375 6.1875,-5.375 Z m 0,0"
               id="id-a0a33add-171f-417e-a922-36b42fbb80c7" />
          </symbol>
          <symbol
             overflow="visible"
             id="id-1ae80e13-0aea-47a8-b56f-fa19bfe8d41b">
            <path
               style="stroke:none;stroke-width:0"
               d="m 3.328125,-5.375 c -0.59375,0 -1.171875,0.296875 -1.546875,0.828125 L 1.703125,-5.25 h -0.78125 v 7.375 l 0.90625,-0.109375 v -2.5 c 0.34375,0.421875 0.8125,0.609375 1.375,0.609375 1.359375,0 2.078125,-1.15625 2.078125,-2.75 0,-1.65625 -0.5625,-2.75 -1.953125,-2.75 z m -0.34375,4.75 c -0.46875,0 -0.875,-0.234375 -1.15625,-0.640625 v -2.5625 c 0.28125,-0.421875 0.71875,-0.8125 1.265625,-0.8125 0.796875,0 1.1875,0.640625 1.1875,2.015625 0,1.375 -0.453125,2 -1.296875,2 z m 0,0"
               id="id-5755ef5e-0c53-4b4b-bd42-01a6c356540f" />
          </symbol>
          <symbol
             overflow="visible"
             id="id-325545df-49ba-49c9-a7ce-56ce984ace67">
            <path
               style="stroke:none;stroke-width:0"
               d="M 4.8125,-5.25 H 3.890625 v 3.75 c -0.3125,0.515625 -0.734375,0.90625 -1.3125,0.90625 -0.5625,0 -0.796875,-0.28125 -0.796875,-0.984375 V -5.25 H 0.859375 v 3.765625 c 0,1.03125 0.546875,1.609375 1.46875,1.609375 0.75,0 1.234375,-0.296875 1.625,-0.9375 L 4.03125,0 H 4.8125 Z m 0,0"
               id="id-07b898c9-7d19-411e-aef4-052d6a52fcd7" />
          </symbol>
          <symbol
             overflow="visible"
             id="id-bf5154a2-465b-403b-bf20-6597e52fec21">
            <path
               style="stroke:none;stroke-width:0"
               d="m 3.203125,-5.375 c -0.640625,0 -1.125,0.40625 -1.40625,1.1875 L 1.703125,-5.25 H 0.921875 V 0 h 0.90625 v -3 c 0.21875,-1 0.609375,-1.46875 1.265625,-1.46875 0.1875,0 0.296875,0.015625 0.453125,0.046875 L 3.71875,-5.3125 C 3.5625,-5.359375 3.375,-5.375 3.203125,-5.375 Z m 0,0"
               id="id-f41fe483-978e-454a-b0cd-56769336c59c" />
          </symbol>
          <symbol
             overflow="visible"
             id="id-4af1d7e2-e0b4-44d8-9499-9d8eb4f844ee">
            <path
               style="stroke:none;stroke-width:0"
               d="m 3.25,-0.84375 c -0.265625,0.140625 -0.46875,0.203125 -0.703125,0.203125 -0.453125,0 -0.625,-0.25 -0.625,-0.78125 v -3.125 h 1.15625 L 3.171875,-5.25 h -1.25 V -6.546875 L 1,-6.4375 V -5.25 H 0.09375 v 0.703125 H 1 V -1.375 c 0,0.96875 0.53125,1.5 1.421875,1.5 C 2.875,0.125 3.25,0 3.59375,-0.234375 Z m 0,0"
               id="id-b6121649-a848-445d-b6b3-f53247ee9c67" />
          </symbol>
          <symbol
             overflow="visible"
             id="id-3933f66a-c082-4c5d-89fd-f70d4cbc9d18">
            <path
               style="stroke:none;stroke-width:0"
               d="M 4.8125,-5.25 H 3.859375 l -1.375,4.578125 L 1.078125,-5.25 H 0.09375 L 1.859375,0 h 0.3125 C 1.875,0.8125 1.578125,1.21875 0.515625,1.40625 L 0.609375,2.125 C 2.0625,1.96875 2.6875,1.140625 3.046875,0.03125 Z m 0,0"
               id="id-9ee94e61-7efd-4a6a-b878-503b4035a8a9" />
          </symbol>
        </g>
      </defs>
      <g
         id="id-fba92ef2-2782-4799-92b3-60020e7f16fc"
         transform="translate(-149.446,-126.984)">
        <g
           style="fill:#000000;fill-opacity:1"
           id="id-0ede6d14-dd03-469e-b357-0c36d20ab23b">
          <g
             transform="translate(148.712,134.765)"
             id="g3880">
            <path
               style="stroke:none;stroke-width:0"
               d="m 1.359375,-7.78125 c -0.375,0 -0.625,0.28125 -0.625,0.640625 0,0.34375 0.25,0.609375 0.625,0.609375 0.390625,0 0.65625,-0.265625 0.65625,-0.609375 C 2.015625,-7.5 1.75,-7.78125 1.359375,-7.78125 Z M 1.828125,-5.25 H 0.921875 V 0 h 0.90625 z m 0,0"
               id="id-840ae01a-e95d-4b47-9e25-5ea3acf95b4e" />
          </g>
          <g
             transform="translate(151.462,134.765)"
             id="g3883">
            <path
               style="stroke:none;stroke-width:0"
               d="M 6.1875,-5.375 C 5.484375,-5.375 5,-5 4.625,-4.421875 4.421875,-5.03125 3.953125,-5.375 3.296875,-5.375 c -0.6875,0 -1.15625,0.359375 -1.515625,0.890625 L 1.703125,-5.25 H 0.921875 V 0 h 0.90625 V -3.734375 C 2.1875,-4.28125 2.5,-4.65625 3.078125,-4.65625 c 0.390625,0 0.734375,0.234375 0.734375,1.015625 V 0 h 0.90625 v -3.734375 c 0.359375,-0.546875 0.671875,-0.921875 1.25,-0.921875 0.390625,0 0.734375,0.234375 0.734375,1.015625 V 0 h 0.90625 V -3.765625 C 7.609375,-4.75 7.046875,-5.375 6.1875,-5.375 Z m 0,0"
               id="id-48cba282-33fd-4bd0-8d45-f17a3c28bf83" />
          </g>
          <g
             transform="translate(159.93,134.765)"
             id="g3886">
            <path
               style="stroke:none;stroke-width:0"
               d="m 3.328125,-5.375 c -0.59375,0 -1.171875,0.296875 -1.546875,0.828125 L 1.703125,-5.25 h -0.78125 v 7.375 l 0.90625,-0.109375 v -2.5 c 0.34375,0.421875 0.8125,0.609375 1.375,0.609375 1.359375,0 2.078125,-1.15625 2.078125,-2.75 0,-1.65625 -0.5625,-2.75 -1.953125,-2.75 z m -0.34375,4.75 c -0.46875,0 -0.875,-0.234375 -1.15625,-0.640625 v -2.5625 c 0.28125,-0.421875 0.71875,-0.8125 1.265625,-0.8125 0.796875,0 1.1875,0.640625 1.1875,2.015625 0,1.375 -0.453125,2 -1.296875,2 z m 0,0"
               id="id-c08c0470-57df-4e02-bf20-a016cb471917" />
          </g>
          <g
             transform="translate(165.768,134.765)"
             id="g3889">
            <path
               style="stroke:none;stroke-width:0"
               d="M 4.8125,-5.25 H 3.890625 v 3.75 c -0.3125,0.515625 -0.734375,0.90625 -1.3125,0.90625 -0.5625,0 -0.796875,-0.28125 -0.796875,-0.984375 V -5.25 H 0.859375 v 3.765625 c 0,1.03125 0.546875,1.609375 1.46875,1.609375 0.75,0 1.234375,-0.296875 1.625,-0.9375 L 4.03125,0 H 4.8125 Z m 0,0"
               id="id-e99bef8b-ce6e-4a4c-80b8-80e25a971dbd" />
          </g>
          <g
             transform="translate(171.496,134.765)"
             id="g3892">
            <path
               style="stroke:none;stroke-width:0"
               d="m 3.203125,-5.375 c -0.640625,0 -1.125,0.40625 -1.40625,1.1875 L 1.703125,-5.25 H 0.921875 V 0 h 0.90625 v -3 c 0.21875,-1 0.609375,-1.46875 1.265625,-1.46875 0.1875,0 0.296875,0.015625 0.453125,0.046875 L 3.71875,-5.3125 C 3.5625,-5.359375 3.375,-5.375 3.203125,-5.375 Z m 0,0"
               id="id-ca499b7d-4dce-4c5d-86ae-6b2c8573b823" />
          </g>
          <g
             transform="translate(175.312,134.765)"
             id="g3895">
            <path
               style="stroke:none;stroke-width:0"
               d="m 1.359375,-7.78125 c -0.375,0 -0.625,0.28125 -0.625,0.640625 0,0.34375 0.25,0.609375 0.625,0.609375 0.390625,0 0.65625,-0.265625 0.65625,-0.609375 C 2.015625,-7.5 1.75,-7.78125 1.359375,-7.78125 Z M 1.828125,-5.25 H 0.921875 V 0 h 0.90625 z m 0,0"
               id="id-284f2730-1034-48c9-92da-fae6c9e14079" />
          </g>
          <g
             transform="translate(178.062,134.765)"
             id="g3898">
            <path
               style="stroke:none;stroke-width:0"
               d="m 3.25,-0.84375 c -0.265625,0.140625 -0.46875,0.203125 -0.703125,0.203125 -0.453125,0 -0.625,-0.25 -0.625,-0.78125 v -3.125 h 1.15625 L 3.171875,-5.25 h -1.25 V -6.546875 L 1,-6.4375 V -5.25 H 0.09375 v 0.703125 H 1 V -1.375 c 0,0.96875 0.53125,1.5 1.421875,1.5 C 2.875,0.125 3.25,0 3.59375,-0.234375 Z m 0,0"
               id="id-d8ffdba3-00a9-4d21-826e-a12a7730f1c9" />
          </g>
        </g>
        <g
           style="fill:#000000;fill-opacity:1"
           id="id-689ae1aa-0dd4-4d43-bb1b-b2db5e8f841a">
          <g
             transform="translate(181.609,134.765)"
             id="g3902">
            <path
               style="stroke:none;stroke-width:0"
               d="M 4.8125,-5.25 H 3.859375 l -1.375,4.578125 L 1.078125,-5.25 H 0.09375 L 1.859375,0 h 0.3125 C 1.875,0.8125 1.578125,1.21875 0.515625,1.40625 L 0.609375,2.125 C 2.0625,1.96875 2.6875,1.140625 3.046875,0.03125 Z m 0,0"
               id="id-c43f6378-66c3-4168-9c4b-8b540558f204" />
          </g>
        </g>
      </g>
    </g>
    <g
       transform="matrix(1.3594146,0,0,1.3594146,164.43067,148.33111)"
       ns8:version="1.3.0"
       ns8:texconverter="pdflatex"
       ns8:pdfconverter="inkscape"
       ns8:text="impurity"
       ns8:preamble="/home/abhirup/textext.tex"
       ns8:scale="5.334602600023957"
       ns8:alignment="middle center"
       ns8:inkscapeversion="1.1.2"
       ns8:jacobian_sqrt="1.88193"
       id="g4040">
      <defs
         id="defs4000">
        <g
           id="g3998">
          <symbol
             overflow="visible"
             id="symbol3968">
            <path
               style="stroke:none;stroke-width:0"
               d="M 5.40625,-10.46875 H 1.21875 V 3.484375 h 4.1875 z M 4.875,-9.953125 V 2.96875 H 1.78125 V -9.953125 Z M 3.234375,-4.5 c -0.390625,0 -0.9375,0.125 -0.9375,0.390625 0,0.125 0.09375,0.234375 0.25,0.234375 0.03125,0 0.078125,-0.015625 0.125,-0.03125 0.171875,-0.078125 0.3125,-0.109375 0.515625,-0.109375 0.5,0 0.609375,0.296875 0.609375,0.6875 0,0.53125 -0.1875,0.71875 -0.90625,0.765625 v 0.84375 c 0,0.140625 0.125,0.234375 0.25,0.234375 0.125,0 0.25,-0.09375 0.25,-0.234375 V -2.171875 C 4.0625,-2.265625 4.34375,-2.65625 4.34375,-3.34375 4.34375,-3.953125 4.09375,-4.5 3.234375,-4.5 Z m -0.09375,3.296875 c -0.203125,0 -0.34375,0.15625 -0.34375,0.359375 0,0.203125 0.140625,0.359375 0.34375,0.359375 0.203125,0 0.34375,-0.15625 0.34375,-0.359375 0,-0.203125 -0.140625,-0.359375 -0.34375,-0.359375 z m 0,0"
               id="path3966" />
          </symbol>
          <symbol
             overflow="visible"
             id="symbol3972">
            <path
               style="stroke:none;stroke-width:0"
               d="m 1.359375,-7.78125 c -0.375,0 -0.625,0.28125 -0.625,0.640625 0,0.34375 0.25,0.609375 0.625,0.609375 0.390625,0 0.65625,-0.265625 0.65625,-0.609375 C 2.015625,-7.5 1.75,-7.78125 1.359375,-7.78125 Z M 1.828125,-5.25 H 0.921875 V 0 h 0.90625 z m 0,0"
               id="path3970" />
          </symbol>
          <symbol
             overflow="visible"
             id="symbol3976">
            <path
               style="stroke:none;stroke-width:0"
               d="M 6.1875,-5.375 C 5.484375,-5.375 5,-5 4.625,-4.421875 4.421875,-5.03125 3.953125,-5.375 3.296875,-5.375 c -0.6875,0 -1.15625,0.359375 -1.515625,0.890625 L 1.703125,-5.25 H 0.921875 V 0 h 0.90625 V -3.734375 C 2.1875,-4.28125 2.5,-4.65625 3.078125,-4.65625 c 0.390625,0 0.734375,0.234375 0.734375,1.015625 V 0 h 0.90625 v -3.734375 c 0.359375,-0.546875 0.671875,-0.921875 1.25,-0.921875 0.390625,0 0.734375,0.234375 0.734375,1.015625 V 0 h 0.90625 V -3.765625 C 7.609375,-4.75 7.046875,-5.375 6.1875,-5.375 Z m 0,0"
               id="path3974" />
          </symbol>
          <symbol
             overflow="visible"
             id="symbol3980">
            <path
               style="stroke:none;stroke-width:0"
               d="m 3.328125,-5.375 c -0.59375,0 -1.171875,0.296875 -1.546875,0.828125 L 1.703125,-5.25 h -0.78125 v 7.375 l 0.90625,-0.109375 v -2.5 c 0.34375,0.421875 0.8125,0.609375 1.375,0.609375 1.359375,0 2.078125,-1.15625 2.078125,-2.75 0,-1.65625 -0.5625,-2.75 -1.953125,-2.75 z m -0.34375,4.75 c -0.46875,0 -0.875,-0.234375 -1.15625,-0.640625 v -2.5625 c 0.28125,-0.421875 0.71875,-0.8125 1.265625,-0.8125 0.796875,0 1.1875,0.640625 1.1875,2.015625 0,1.375 -0.453125,2 -1.296875,2 z m 0,0"
               id="path3978" />
          </symbol>
          <symbol
             overflow="visible"
             id="symbol3984">
            <path
               style="stroke:none;stroke-width:0"
               d="M 4.8125,-5.25 H 3.890625 v 3.75 c -0.3125,0.515625 -0.734375,0.90625 -1.3125,0.90625 -0.5625,0 -0.796875,-0.28125 -0.796875,-0.984375 V -5.25 H 0.859375 v 3.765625 c 0,1.03125 0.546875,1.609375 1.46875,1.609375 0.75,0 1.234375,-0.296875 1.625,-0.9375 L 4.03125,0 H 4.8125 Z m 0,0"
               id="path3982" />
          </symbol>
          <symbol
             overflow="visible"
             id="symbol3988">
            <path
               style="stroke:none;stroke-width:0"
               d="m 3.203125,-5.375 c -0.640625,0 -1.125,0.40625 -1.40625,1.1875 L 1.703125,-5.25 H 0.921875 V 0 h 0.90625 v -3 c 0.21875,-1 0.609375,-1.46875 1.265625,-1.46875 0.1875,0 0.296875,0.015625 0.453125,0.046875 L 3.71875,-5.3125 C 3.5625,-5.359375 3.375,-5.375 3.203125,-5.375 Z m 0,0"
               id="path3986" />
          </symbol>
          <symbol
             overflow="visible"
             id="symbol3992">
            <path
               style="stroke:none;stroke-width:0"
               d="m 3.25,-0.84375 c -0.265625,0.140625 -0.46875,0.203125 -0.703125,0.203125 -0.453125,0 -0.625,-0.25 -0.625,-0.78125 v -3.125 h 1.15625 L 3.171875,-5.25 h -1.25 V -6.546875 L 1,-6.4375 V -5.25 H 0.09375 v 0.703125 H 1 V -1.375 c 0,0.96875 0.53125,1.5 1.421875,1.5 C 2.875,0.125 3.25,0 3.59375,-0.234375 Z m 0,0"
               id="path3990" />
          </symbol>
          <symbol
             overflow="visible"
             id="symbol3996">
            <path
               style="stroke:none;stroke-width:0"
               d="M 4.8125,-5.25 H 3.859375 l -1.375,4.578125 L 1.078125,-5.25 H 0.09375 L 1.859375,0 h 0.3125 C 1.875,0.8125 1.578125,1.21875 0.515625,1.40625 L 0.609375,2.125 C 2.0625,1.96875 2.6875,1.140625 3.046875,0.03125 Z m 0,0"
               id="path3994" />
          </symbol>
        </g>
      </defs>
      <g
         id="g4038"
         transform="translate(-149.446,-126.984)">
        <g
           style="fill:#000000;fill-opacity:1"
           id="g4030">
          <g
             transform="translate(148.712,134.765)"
             id="g4004">
            <path
               style="stroke:none;stroke-width:0"
               d="m 1.359375,-7.78125 c -0.375,0 -0.625,0.28125 -0.625,0.640625 0,0.34375 0.25,0.609375 0.625,0.609375 0.390625,0 0.65625,-0.265625 0.65625,-0.609375 C 2.015625,-7.5 1.75,-7.78125 1.359375,-7.78125 Z M 1.828125,-5.25 H 0.921875 V 0 h 0.90625 z m 0,0"
               id="path4002" />
          </g>
          <g
             transform="translate(151.462,134.765)"
             id="g4008">
            <path
               style="stroke:none;stroke-width:0"
               d="M 6.1875,-5.375 C 5.484375,-5.375 5,-5 4.625,-4.421875 4.421875,-5.03125 3.953125,-5.375 3.296875,-5.375 c -0.6875,0 -1.15625,0.359375 -1.515625,0.890625 L 1.703125,-5.25 H 0.921875 V 0 h 0.90625 V -3.734375 C 2.1875,-4.28125 2.5,-4.65625 3.078125,-4.65625 c 0.390625,0 0.734375,0.234375 0.734375,1.015625 V 0 h 0.90625 v -3.734375 c 0.359375,-0.546875 0.671875,-0.921875 1.25,-0.921875 0.390625,0 0.734375,0.234375 0.734375,1.015625 V 0 h 0.90625 V -3.765625 C 7.609375,-4.75 7.046875,-5.375 6.1875,-5.375 Z m 0,0"
               id="path4006" />
          </g>
          <g
             transform="translate(159.93,134.765)"
             id="g4012">
            <path
               style="stroke:none;stroke-width:0"
               d="m 3.328125,-5.375 c -0.59375,0 -1.171875,0.296875 -1.546875,0.828125 L 1.703125,-5.25 h -0.78125 v 7.375 l 0.90625,-0.109375 v -2.5 c 0.34375,0.421875 0.8125,0.609375 1.375,0.609375 1.359375,0 2.078125,-1.15625 2.078125,-2.75 0,-1.65625 -0.5625,-2.75 -1.953125,-2.75 z m -0.34375,4.75 c -0.46875,0 -0.875,-0.234375 -1.15625,-0.640625 v -2.5625 c 0.28125,-0.421875 0.71875,-0.8125 1.265625,-0.8125 0.796875,0 1.1875,0.640625 1.1875,2.015625 0,1.375 -0.453125,2 -1.296875,2 z m 0,0"
               id="path4010" />
          </g>
          <g
             transform="translate(165.768,134.765)"
             id="g4016">
            <path
               style="stroke:none;stroke-width:0"
               d="M 4.8125,-5.25 H 3.890625 v 3.75 c -0.3125,0.515625 -0.734375,0.90625 -1.3125,0.90625 -0.5625,0 -0.796875,-0.28125 -0.796875,-0.984375 V -5.25 H 0.859375 v 3.765625 c 0,1.03125 0.546875,1.609375 1.46875,1.609375 0.75,0 1.234375,-0.296875 1.625,-0.9375 L 4.03125,0 H 4.8125 Z m 0,0"
               id="path4014" />
          </g>
          <g
             transform="translate(171.496,134.765)"
             id="g4020">
            <path
               style="stroke:none;stroke-width:0"
               d="m 3.203125,-5.375 c -0.640625,0 -1.125,0.40625 -1.40625,1.1875 L 1.703125,-5.25 H 0.921875 V 0 h 0.90625 v -3 c 0.21875,-1 0.609375,-1.46875 1.265625,-1.46875 0.1875,0 0.296875,0.015625 0.453125,0.046875 L 3.71875,-5.3125 C 3.5625,-5.359375 3.375,-5.375 3.203125,-5.375 Z m 0,0"
               id="path4018" />
          </g>
          <g
             transform="translate(175.312,134.765)"
             id="g4024">
            <path
               style="stroke:none;stroke-width:0"
               d="m 1.359375,-7.78125 c -0.375,0 -0.625,0.28125 -0.625,0.640625 0,0.34375 0.25,0.609375 0.625,0.609375 0.390625,0 0.65625,-0.265625 0.65625,-0.609375 C 2.015625,-7.5 1.75,-7.78125 1.359375,-7.78125 Z M 1.828125,-5.25 H 0.921875 V 0 h 0.90625 z m 0,0"
               id="path4022" />
          </g>
          <g
             transform="translate(178.062,134.765)"
             id="g4028">
            <path
               style="stroke:none;stroke-width:0"
               d="m 3.25,-0.84375 c -0.265625,0.140625 -0.46875,0.203125 -0.703125,0.203125 -0.453125,0 -0.625,-0.25 -0.625,-0.78125 v -3.125 h 1.15625 L 3.171875,-5.25 h -1.25 V -6.546875 L 1,-6.4375 V -5.25 H 0.09375 v 0.703125 H 1 V -1.375 c 0,0.96875 0.53125,1.5 1.421875,1.5 C 2.875,0.125 3.25,0 3.59375,-0.234375 Z m 0,0"
               id="path4026" />
          </g>
        </g>
        <g
           style="fill:#000000;fill-opacity:1"
           id="g4036">
          <g
             transform="translate(181.609,134.765)"
             id="g4034">
            <path
               style="stroke:none;stroke-width:0"
               d="M 4.8125,-5.25 H 3.859375 l -1.375,4.578125 L 1.078125,-5.25 H 0.09375 L 1.859375,0 h 0.3125 C 1.875,0.8125 1.578125,1.21875 0.515625,1.40625 L 0.609375,2.125 C 2.0625,1.96875 2.6875,1.140625 3.046875,0.03125 Z m 0,0"
               id="path4032" />
          </g>
        </g>
      </g>
    </g>
    <g
       transform="matrix(1.3455034,0,0,1.3455034,72.722897,82.140465)"
       ns8:version="1.3.0"
       ns8:texconverter="pdflatex"
       ns8:pdfconverter="inkscape"
       ns8:text="bath"
       ns8:preamble="/home/abhirup/textext.tex"
       ns8:scale="5.334602600023957"
       ns8:alignment="middle center"
       ns8:inkscapeversion="1.1.2"
       ns8:jacobian_sqrt="1.88193"
       id="g4285">
      <defs
         id="id-e75b0f20-54f1-4fa9-8301-9e0b89013e49">
        <g
           id="id-8028bffe-cba3-4234-a3e2-d39a31b35d2f">
          <symbol
             overflow="visible"
             id="id-7ab606ad-f2d8-41d8-adc9-89930f6c6dc8">
            <path
               style="stroke:none;stroke-width:0"
               d="M 5.40625,-10.46875 H 1.21875 V 3.484375 h 4.1875 z M 4.875,-9.953125 V 2.96875 H 1.78125 V -9.953125 Z M 3.234375,-4.5 c -0.390625,0 -0.9375,0.125 -0.9375,0.390625 0,0.125 0.09375,0.234375 0.25,0.234375 0.03125,0 0.078125,-0.015625 0.125,-0.03125 0.171875,-0.078125 0.3125,-0.109375 0.515625,-0.109375 0.5,0 0.609375,0.296875 0.609375,0.6875 0,0.53125 -0.1875,0.71875 -0.90625,0.765625 v 0.84375 c 0,0.140625 0.125,0.234375 0.25,0.234375 0.125,0 0.25,-0.09375 0.25,-0.234375 V -2.171875 C 4.0625,-2.265625 4.34375,-2.65625 4.34375,-3.34375 4.34375,-3.953125 4.09375,-4.5 3.234375,-4.5 Z m -0.09375,3.296875 c -0.203125,0 -0.34375,0.15625 -0.34375,0.359375 0,0.203125 0.140625,0.359375 0.34375,0.359375 0.203125,0 0.34375,-0.15625 0.34375,-0.359375 0,-0.203125 -0.140625,-0.359375 -0.34375,-0.359375 z m 0,0"
               id="id-2a634b60-f1dc-453f-940b-67847b2ce73c" />
          </symbol>
          <symbol
             overflow="visible"
             id="id-5124599f-1550-492c-b7a8-1e075ca1b806">
            <path
               style="stroke:none;stroke-width:0"
               d="m 3.3125,-5.375 c -0.625,0 -1.125,0.296875 -1.484375,0.78125 v -2.890625 l -0.90625,0.125 V 0 H 1.71875 L 1.8125,-0.578125 C 2.171875,-0.140625 2.625,0.125 3.203125,0.125 c 1.28125,0 2.078125,-1.109375 2.078125,-2.75 0,-1.765625 -0.78125,-2.75 -1.96875,-2.75 z m -0.328125,4.765625 c -0.46875,0 -0.875,-0.28125 -1.15625,-0.703125 v -2.515625 c 0.28125,-0.421875 0.65625,-0.8125 1.234375,-0.8125 0.734375,0 1.21875,0.515625 1.21875,2.015625 0,1.421875 -0.515625,2.015625 -1.296875,2.015625 z m 0,0"
               id="id-9ce12cdc-d6cd-4e70-af67-ec718eb3b9ab" />
          </symbol>
          <symbol
             overflow="visible"
             id="id-9eb9656b-c10e-4183-95d2-bebaa8537593">
            <path
               style="stroke:none;stroke-width:0"
               d="M 4.4375,-1.21875 V -3.625 c 0,-1.09375 -0.578125,-1.75 -1.84375,-1.75 C 2,-5.375 1.421875,-5.25 0.78125,-5.015625 L 1,-4.34375 C 1.546875,-4.53125 2.03125,-4.625 2.421875,-4.625 c 0.734375,0 1.09375,0.28125 1.09375,1.03125 v 0.390625 H 2.71875 c -1.46875,0 -2.3125,0.609375 -2.3125,1.734375 0,0.9375 0.625,1.59375 1.671875,1.59375 0.640625,0 1.1875,-0.25 1.5625,-0.796875 0.15625,0.515625 0.5,0.734375 1.03125,0.796875 L 4.875,-0.515625 C 4.609375,-0.625 4.4375,-0.765625 4.4375,-1.21875 Z M 2.28125,-0.5625 c -0.59375,0 -0.90625,-0.328125 -0.90625,-0.953125 0,-0.71875 0.484375,-1.078125 1.453125,-1.078125 h 0.6875 v 1.203125 C 3.21875,-0.84375 2.828125,-0.5625 2.28125,-0.5625 Z m 0,0"
               id="id-0cc286df-bfed-40b4-bebc-c1aa64140205" />
          </symbol>
          <symbol
             overflow="visible"
             id="id-8695e139-ec28-4c73-a4eb-b2d36f291323">
            <path
               style="stroke:none;stroke-width:0"
               d="m 3.25,-0.84375 c -0.265625,0.140625 -0.46875,0.203125 -0.703125,0.203125 -0.453125,0 -0.625,-0.25 -0.625,-0.78125 v -3.125 h 1.15625 L 3.171875,-5.25 h -1.25 V -6.546875 L 1,-6.4375 V -5.25 H 0.09375 v 0.703125 H 1 V -1.375 c 0,0.96875 0.53125,1.5 1.421875,1.5 C 2.875,0.125 3.25,0 3.59375,-0.234375 Z m 0,0"
               id="id-8c490039-a589-41b2-bcd1-19958dcb287e" />
          </symbol>
          <symbol
             overflow="visible"
             id="id-dcabac6c-abb2-47f3-a2e7-1e71840afc01">
            <path
               style="stroke:none;stroke-width:0"
               d="m 3.390625,-5.375 c -0.65625,0 -1.171875,0.328125 -1.5625,0.84375 v -2.921875 l -0.90625,0.09375 V 0 h 0.90625 V -3.734375 C 2.1875,-4.28125 2.59375,-4.65625 3.15625,-4.65625 3.65625,-4.65625 4,-4.421875 4,-3.640625 V 0 H 4.921875 V -3.765625 C 4.921875,-4.75 4.34375,-5.375 3.390625,-5.375 Z m 0,0"
               id="id-10df06a8-8197-44e3-908d-42cbb8eb83ee" />
          </symbol>
        </g>
      </defs>
      <g
         id="id-e9d44548-2ebb-4cac-bd68-18a517cdd384"
         transform="translate(-149.634,-127.281)">
        <g
           style="fill:#000000;fill-opacity:1"
           id="id-c5cb851b-9e72-4cfa-82fa-ca99a0dbb508">
          <g
             transform="translate(148.712,134.765)"
             id="g4271">
            <path
               style="stroke:none;stroke-width:0"
               d="m 3.3125,-5.375 c -0.625,0 -1.125,0.296875 -1.484375,0.78125 v -2.890625 l -0.90625,0.125 V 0 H 1.71875 L 1.8125,-0.578125 C 2.171875,-0.140625 2.625,0.125 3.203125,0.125 c 1.28125,0 2.078125,-1.109375 2.078125,-2.75 0,-1.765625 -0.78125,-2.75 -1.96875,-2.75 z m -0.328125,4.765625 c -0.46875,0 -0.875,-0.28125 -1.15625,-0.703125 v -2.515625 c 0.28125,-0.421875 0.65625,-0.8125 1.234375,-0.8125 0.734375,0 1.21875,0.515625 1.21875,2.015625 0,1.421875 -0.515625,2.015625 -1.296875,2.015625 z m 0,0"
               id="id-9277e03e-23f7-449a-83e7-ce6d18f846ff" />
          </g>
        </g>
        <g
           style="fill:#000000;fill-opacity:1"
           id="id-5dab5096-d995-4da9-8220-4203ec156df3">
          <g
             transform="translate(154.5,134.765)"
             id="g4275">
            <path
               style="stroke:none;stroke-width:0"
               d="M 4.4375,-1.21875 V -3.625 c 0,-1.09375 -0.578125,-1.75 -1.84375,-1.75 C 2,-5.375 1.421875,-5.25 0.78125,-5.015625 L 1,-4.34375 C 1.546875,-4.53125 2.03125,-4.625 2.421875,-4.625 c 0.734375,0 1.09375,0.28125 1.09375,1.03125 v 0.390625 H 2.71875 c -1.46875,0 -2.3125,0.609375 -2.3125,1.734375 0,0.9375 0.625,1.59375 1.671875,1.59375 0.640625,0 1.1875,-0.25 1.5625,-0.796875 0.15625,0.515625 0.5,0.734375 1.03125,0.796875 L 4.875,-0.515625 C 4.609375,-0.625 4.4375,-0.765625 4.4375,-1.21875 Z M 2.28125,-0.5625 c -0.59375,0 -0.90625,-0.328125 -0.90625,-0.953125 0,-0.71875 0.484375,-1.078125 1.453125,-1.078125 h 0.6875 v 1.203125 C 3.21875,-0.84375 2.828125,-0.5625 2.28125,-0.5625 Z m 0,0"
               id="id-5d0874e7-2637-4a88-a608-8e254d6e060d" />
          </g>
          <g
             transform="translate(159.87,134.765)"
             id="g4278">
            <path
               style="stroke:none;stroke-width:0"
               d="m 3.25,-0.84375 c -0.265625,0.140625 -0.46875,0.203125 -0.703125,0.203125 -0.453125,0 -0.625,-0.25 -0.625,-0.78125 v -3.125 h 1.15625 L 3.171875,-5.25 h -1.25 V -6.546875 L 1,-6.4375 V -5.25 H 0.09375 v 0.703125 H 1 V -1.375 c 0,0.96875 0.53125,1.5 1.421875,1.5 C 2.875,0.125 3.25,0 3.59375,-0.234375 Z m 0,0"
               id="id-d8e905bc-5d0c-4ada-9620-d4a99ef93f84" />
          </g>
          <g
             transform="translate(163.467,134.765)"
             id="g4281">
            <path
               style="stroke:none;stroke-width:0"
               d="m 3.390625,-5.375 c -0.65625,0 -1.171875,0.328125 -1.5625,0.84375 v -2.921875 l -0.90625,0.09375 V 0 h 0.90625 V -3.734375 C 2.1875,-4.28125 2.59375,-4.65625 3.15625,-4.65625 3.65625,-4.65625 4,-4.421875 4,-3.640625 V 0 H 4.921875 V -3.765625 C 4.921875,-4.75 4.34375,-5.375 3.390625,-5.375 Z m 0,0"
               id="id-366f0199-0d55-47f0-8dab-10891532d389" />
          </g>
        </g>
      </g>
    </g>
    <g
       transform="matrix(1.3455034,0,0,1.3455034,176.96877,95.898798)"
       ns8:version="1.3.0"
       ns8:texconverter="pdflatex"
       ns8:pdfconverter="inkscape"
       ns8:text="bath"
       ns8:preamble="/home/abhirup/textext.tex"
       ns8:scale="5.334602600023957"
       ns8:alignment="middle center"
       ns8:inkscapeversion="1.1.2"
       ns8:jacobian_sqrt="1.88193"
       id="g4377">
      <defs
         id="defs4353">
        <g
           id="g4351">
          <symbol
             overflow="visible"
             id="symbol4333">
            <path
               style="stroke:none;stroke-width:0"
               d="M 5.40625,-10.46875 H 1.21875 V 3.484375 h 4.1875 z M 4.875,-9.953125 V 2.96875 H 1.78125 V -9.953125 Z M 3.234375,-4.5 c -0.390625,0 -0.9375,0.125 -0.9375,0.390625 0,0.125 0.09375,0.234375 0.25,0.234375 0.03125,0 0.078125,-0.015625 0.125,-0.03125 0.171875,-0.078125 0.3125,-0.109375 0.515625,-0.109375 0.5,0 0.609375,0.296875 0.609375,0.6875 0,0.53125 -0.1875,0.71875 -0.90625,0.765625 v 0.84375 c 0,0.140625 0.125,0.234375 0.25,0.234375 0.125,0 0.25,-0.09375 0.25,-0.234375 V -2.171875 C 4.0625,-2.265625 4.34375,-2.65625 4.34375,-3.34375 4.34375,-3.953125 4.09375,-4.5 3.234375,-4.5 Z m -0.09375,3.296875 c -0.203125,0 -0.34375,0.15625 -0.34375,0.359375 0,0.203125 0.140625,0.359375 0.34375,0.359375 0.203125,0 0.34375,-0.15625 0.34375,-0.359375 0,-0.203125 -0.140625,-0.359375 -0.34375,-0.359375 z m 0,0"
               id="path4331" />
          </symbol>
          <symbol
             overflow="visible"
             id="symbol4337">
            <path
               style="stroke:none;stroke-width:0"
               d="m 3.3125,-5.375 c -0.625,0 -1.125,0.296875 -1.484375,0.78125 v -2.890625 l -0.90625,0.125 V 0 H 1.71875 L 1.8125,-0.578125 C 2.171875,-0.140625 2.625,0.125 3.203125,0.125 c 1.28125,0 2.078125,-1.109375 2.078125,-2.75 0,-1.765625 -0.78125,-2.75 -1.96875,-2.75 z m -0.328125,4.765625 c -0.46875,0 -0.875,-0.28125 -1.15625,-0.703125 v -2.515625 c 0.28125,-0.421875 0.65625,-0.8125 1.234375,-0.8125 0.734375,0 1.21875,0.515625 1.21875,2.015625 0,1.421875 -0.515625,2.015625 -1.296875,2.015625 z m 0,0"
               id="path4335" />
          </symbol>
          <symbol
             overflow="visible"
             id="symbol4341">
            <path
               style="stroke:none;stroke-width:0"
               d="M 4.4375,-1.21875 V -3.625 c 0,-1.09375 -0.578125,-1.75 -1.84375,-1.75 C 2,-5.375 1.421875,-5.25 0.78125,-5.015625 L 1,-4.34375 C 1.546875,-4.53125 2.03125,-4.625 2.421875,-4.625 c 0.734375,0 1.09375,0.28125 1.09375,1.03125 v 0.390625 H 2.71875 c -1.46875,0 -2.3125,0.609375 -2.3125,1.734375 0,0.9375 0.625,1.59375 1.671875,1.59375 0.640625,0 1.1875,-0.25 1.5625,-0.796875 0.15625,0.515625 0.5,0.734375 1.03125,0.796875 L 4.875,-0.515625 C 4.609375,-0.625 4.4375,-0.765625 4.4375,-1.21875 Z M 2.28125,-0.5625 c -0.59375,0 -0.90625,-0.328125 -0.90625,-0.953125 0,-0.71875 0.484375,-1.078125 1.453125,-1.078125 h 0.6875 v 1.203125 C 3.21875,-0.84375 2.828125,-0.5625 2.28125,-0.5625 Z m 0,0"
               id="path4339" />
          </symbol>
          <symbol
             overflow="visible"
             id="symbol4345">
            <path
               style="stroke:none;stroke-width:0"
               d="m 3.25,-0.84375 c -0.265625,0.140625 -0.46875,0.203125 -0.703125,0.203125 -0.453125,0 -0.625,-0.25 -0.625,-0.78125 v -3.125 h 1.15625 L 3.171875,-5.25 h -1.25 V -6.546875 L 1,-6.4375 V -5.25 H 0.09375 v 0.703125 H 1 V -1.375 c 0,0.96875 0.53125,1.5 1.421875,1.5 C 2.875,0.125 3.25,0 3.59375,-0.234375 Z m 0,0"
               id="path4343" />
          </symbol>
          <symbol
             overflow="visible"
             id="symbol4349">
            <path
               style="stroke:none;stroke-width:0"
               d="m 3.390625,-5.375 c -0.65625,0 -1.171875,0.328125 -1.5625,0.84375 v -2.921875 l -0.90625,0.09375 V 0 h 0.90625 V -3.734375 C 2.1875,-4.28125 2.59375,-4.65625 3.15625,-4.65625 3.65625,-4.65625 4,-4.421875 4,-3.640625 V 0 H 4.921875 V -3.765625 C 4.921875,-4.75 4.34375,-5.375 3.390625,-5.375 Z m 0,0"
               id="path4347" />
          </symbol>
        </g>
      </defs>
      <g
         id="g4375"
         transform="translate(-149.634,-127.281)">
        <g
           style="fill:#000000;fill-opacity:1"
           id="g4359">
          <g
             transform="translate(148.712,134.765)"
             id="g4357">
            <path
               style="stroke:none;stroke-width:0"
               d="m 3.3125,-5.375 c -0.625,0 -1.125,0.296875 -1.484375,0.78125 v -2.890625 l -0.90625,0.125 V 0 H 1.71875 L 1.8125,-0.578125 C 2.171875,-0.140625 2.625,0.125 3.203125,0.125 c 1.28125,0 2.078125,-1.109375 2.078125,-2.75 0,-1.765625 -0.78125,-2.75 -1.96875,-2.75 z m -0.328125,4.765625 c -0.46875,0 -0.875,-0.28125 -1.15625,-0.703125 v -2.515625 c 0.28125,-0.421875 0.65625,-0.8125 1.234375,-0.8125 0.734375,0 1.21875,0.515625 1.21875,2.015625 0,1.421875 -0.515625,2.015625 -1.296875,2.015625 z m 0,0"
               id="path4355" />
          </g>
        </g>
        <g
           style="fill:#000000;fill-opacity:1"
           id="g4373">
          <g
             transform="translate(154.5,134.765)"
             id="g4363">
            <path
               style="stroke:none;stroke-width:0"
               d="M 4.4375,-1.21875 V -3.625 c 0,-1.09375 -0.578125,-1.75 -1.84375,-1.75 C 2,-5.375 1.421875,-5.25 0.78125,-5.015625 L 1,-4.34375 C 1.546875,-4.53125 2.03125,-4.625 2.421875,-4.625 c 0.734375,0 1.09375,0.28125 1.09375,1.03125 v 0.390625 H 2.71875 c -1.46875,0 -2.3125,0.609375 -2.3125,1.734375 0,0.9375 0.625,1.59375 1.671875,1.59375 0.640625,0 1.1875,-0.25 1.5625,-0.796875 0.15625,0.515625 0.5,0.734375 1.03125,0.796875 L 4.875,-0.515625 C 4.609375,-0.625 4.4375,-0.765625 4.4375,-1.21875 Z M 2.28125,-0.5625 c -0.59375,0 -0.90625,-0.328125 -0.90625,-0.953125 0,-0.71875 0.484375,-1.078125 1.453125,-1.078125 h 0.6875 v 1.203125 C 3.21875,-0.84375 2.828125,-0.5625 2.28125,-0.5625 Z m 0,0"
               id="path4361" />
          </g>
          <g
             transform="translate(159.87,134.765)"
             id="g4367">
            <path
               style="stroke:none;stroke-width:0"
               d="m 3.25,-0.84375 c -0.265625,0.140625 -0.46875,0.203125 -0.703125,0.203125 -0.453125,0 -0.625,-0.25 -0.625,-0.78125 v -3.125 h 1.15625 L 3.171875,-5.25 h -1.25 V -6.546875 L 1,-6.4375 V -5.25 H 0.09375 v 0.703125 H 1 V -1.375 c 0,0.96875 0.53125,1.5 1.421875,1.5 C 2.875,0.125 3.25,0 3.59375,-0.234375 Z m 0,0"
               id="path4365" />
          </g>
          <g
             transform="translate(163.467,134.765)"
             id="g4371">
            <path
               style="stroke:none;stroke-width:0"
               d="m 3.390625,-5.375 c -0.65625,0 -1.171875,0.328125 -1.5625,0.84375 v -2.921875 l -0.90625,0.09375 V 0 h 0.90625 V -3.734375 C 2.1875,-4.28125 2.59375,-4.65625 3.15625,-4.65625 3.65625,-4.65625 4,-4.421875 4,-3.640625 V 0 H 4.921875 V -3.765625 C 4.921875,-4.75 4.34375,-5.375 3.390625,-5.375 Z m 0,0"
               id="path4369" />
          </g>
        </g>
      </g>
    </g>
    <g
       transform="matrix(1.88193,0,0,1.88193,0.67664723,113.76581)"
       ns8:version="1.3.0"
       ns8:texconverter="pdflatex"
       ns8:pdfconverter="inkscape"
       ns8:text="$V$"
       ns8:preamble="/home/abhirup/textext.tex"
       ns8:scale="5.334602600023957"
       ns8:alignment="middle center"
       ns8:inkscapeversion="1.1.2"
       ns8:jacobian_sqrt="1.88193"
       id="g5900">
      <defs
         id="id-b1ff3b05-de36-497e-a150-4e7d03a2d487">
        <g
           id="id-3fba8836-55e2-4206-a881-633f2c0dbd6e">
          <symbol
             overflow="visible"
             id="id-4953cda7-fd8c-47a5-b157-30d1da44b7bf">
            <path
               style="stroke:none;stroke-width:0"
               d=""
               id="id-8389cc91-53d9-4960-8e4d-f2bf6d1e07a1" />
          </symbol>
          <symbol
             overflow="visible"
             id="id-eead3a87-6ed6-4aa0-8371-c1e4fece76dd">
            <path
               style="stroke:none;stroke-width:0"
               d="M 6.265625,-5.671875 C 6.75,-6.453125 7.171875,-6.484375 7.53125,-6.5 c 0.125,-0.015625 0.140625,-0.171875 0.140625,-0.1875 0,-0.078125 -0.0625,-0.125 -0.140625,-0.125 -0.25,0 -0.546875,0.03125 -0.8125,0.03125 -0.328125,0 -0.671875,-0.03125 -0.984375,-0.03125 -0.0625,0 -0.1875,0 -0.1875,0.1875 0,0.109375 0.078125,0.125 0.15625,0.125 0.265625,0.015625 0.453125,0.125 0.453125,0.328125 0,0.15625 -0.140625,0.375 -0.140625,0.375 l -3.0625,4.875 -0.6875,-5.28125 C 2.265625,-6.375 2.5,-6.5 2.953125,-6.5 c 0.140625,0 0.25,0 0.25,-0.203125 0,-0.078125 -0.078125,-0.109375 -0.125,-0.109375 -0.40625,0 -0.828125,0.03125 -1.25,0.03125 -0.171875,0 -0.359375,0 -0.546875,0 -0.171875,0 -0.359375,-0.03125 -0.53125,-0.03125 -0.078125,0 -0.1875,0 -0.1875,0.1875 0,0.125 0.078125,0.125 0.25,0.125 0.546875,0 0.5625,0.09375 0.59375,0.34375 L 2.1875,-0.015625 C 2.21875,0.1875 2.265625,0.21875 2.390625,0.21875 c 0.15625,0 0.203125,-0.046875 0.28125,-0.171875 z m 0,0"
               id="id-e312cfc5-bf17-43bc-9f89-f602ac92d3be" />
          </symbol>
        </g>
      </defs>
      <g
         id="id-6600af17-a863-4def-9a2a-ceca975b24b2"
         transform="translate(-149.275,-127.953)">
        <g
           style="fill:#000000;fill-opacity:1"
           id="id-db23ec19-08b0-45b2-ac45-97e2726e813c">
          <g
             transform="translate(148.712,134.765)"
             id="g5896">
            <path
               style="stroke:none;stroke-width:0"
               d="M 6.265625,-5.671875 C 6.75,-6.453125 7.171875,-6.484375 7.53125,-6.5 c 0.125,-0.015625 0.140625,-0.171875 0.140625,-0.1875 0,-0.078125 -0.0625,-0.125 -0.140625,-0.125 -0.25,0 -0.546875,0.03125 -0.8125,0.03125 -0.328125,0 -0.671875,-0.03125 -0.984375,-0.03125 -0.0625,0 -0.1875,0 -0.1875,0.1875 0,0.109375 0.078125,0.125 0.15625,0.125 0.265625,0.015625 0.453125,0.125 0.453125,0.328125 0,0.15625 -0.140625,0.375 -0.140625,0.375 l -3.0625,4.875 -0.6875,-5.28125 C 2.265625,-6.375 2.5,-6.5 2.953125,-6.5 c 0.140625,0 0.25,0 0.25,-0.203125 0,-0.078125 -0.078125,-0.109375 -0.125,-0.109375 -0.40625,0 -0.828125,0.03125 -1.25,0.03125 -0.171875,0 -0.359375,0 -0.546875,0 -0.171875,0 -0.359375,-0.03125 -0.53125,-0.03125 -0.078125,0 -0.1875,0 -0.1875,0.1875 0,0.125 0.078125,0.125 0.25,0.125 0.546875,0 0.5625,0.09375 0.59375,0.34375 L 2.1875,-0.015625 C 2.21875,0.1875 2.265625,0.21875 2.390625,0.21875 c 0.15625,0 0.203125,-0.046875 0.28125,-0.171875 z m 0,0"
               id="id-ec7d5a52-d2a3-4311-9e5d-e1a0d3dfd7ad" />
          </g>
        </g>
      </g>
    </g>
    <g
       transform="matrix(1.88193,0,0,1.88193,148.84335,113.76581)"
       ns8:version="1.3.0"
       ns8:texconverter="pdflatex"
       ns8:pdfconverter="inkscape"
       ns8:text="$V$"
       ns8:preamble="/home/abhirup/textext.tex"
       ns8:scale="5.334602600023957"
       ns8:alignment="middle center"
       ns8:inkscapeversion="1.1.2"
       ns8:jacobian_sqrt="1.88193"
       id="g5953">
      <defs
         id="defs5943">
        <g
           id="g5941">
          <symbol
             overflow="visible"
             id="symbol5935">
            <path
               style="stroke:none;stroke-width:0"
               d=""
               id="path5933" />
          </symbol>
          <symbol
             overflow="visible"
             id="symbol5939">
            <path
               style="stroke:none;stroke-width:0"
               d="M 6.265625,-5.671875 C 6.75,-6.453125 7.171875,-6.484375 7.53125,-6.5 c 0.125,-0.015625 0.140625,-0.171875 0.140625,-0.1875 0,-0.078125 -0.0625,-0.125 -0.140625,-0.125 -0.25,0 -0.546875,0.03125 -0.8125,0.03125 -0.328125,0 -0.671875,-0.03125 -0.984375,-0.03125 -0.0625,0 -0.1875,0 -0.1875,0.1875 0,0.109375 0.078125,0.125 0.15625,0.125 0.265625,0.015625 0.453125,0.125 0.453125,0.328125 0,0.15625 -0.140625,0.375 -0.140625,0.375 l -3.0625,4.875 -0.6875,-5.28125 C 2.265625,-6.375 2.5,-6.5 2.953125,-6.5 c 0.140625,0 0.25,0 0.25,-0.203125 0,-0.078125 -0.078125,-0.109375 -0.125,-0.109375 -0.40625,0 -0.828125,0.03125 -1.25,0.03125 -0.171875,0 -0.359375,0 -0.546875,0 -0.171875,0 -0.359375,-0.03125 -0.53125,-0.03125 -0.078125,0 -0.1875,0 -0.1875,0.1875 0,0.125 0.078125,0.125 0.25,0.125 0.546875,0 0.5625,0.09375 0.59375,0.34375 L 2.1875,-0.015625 C 2.21875,0.1875 2.265625,0.21875 2.390625,0.21875 c 0.15625,0 0.203125,-0.046875 0.28125,-0.171875 z m 0,0"
               id="path5937" />
          </symbol>
        </g>
      </defs>
      <g
         id="g5951"
         transform="translate(-149.275,-127.953)">
        <g
           style="fill:#000000;fill-opacity:1"
           id="g5949">
          <g
             transform="translate(148.712,134.765)"
             id="g5947">
            <path
               style="stroke:none;stroke-width:0"
               d="M 6.265625,-5.671875 C 6.75,-6.453125 7.171875,-6.484375 7.53125,-6.5 c 0.125,-0.015625 0.140625,-0.171875 0.140625,-0.1875 0,-0.078125 -0.0625,-0.125 -0.140625,-0.125 -0.25,0 -0.546875,0.03125 -0.8125,0.03125 -0.328125,0 -0.671875,-0.03125 -0.984375,-0.03125 -0.0625,0 -0.1875,0 -0.1875,0.1875 0,0.109375 0.078125,0.125 0.15625,0.125 0.265625,0.015625 0.453125,0.125 0.453125,0.328125 0,0.15625 -0.140625,0.375 -0.140625,0.375 l -3.0625,4.875 -0.6875,-5.28125 C 2.265625,-6.375 2.5,-6.5 2.953125,-6.5 c 0.140625,0 0.25,0 0.25,-0.203125 0,-0.078125 -0.078125,-0.109375 -0.125,-0.109375 -0.40625,0 -0.828125,0.03125 -1.25,0.03125 -0.171875,0 -0.359375,0 -0.546875,0 -0.171875,0 -0.359375,-0.03125 -0.53125,-0.03125 -0.078125,0 -0.1875,0 -0.1875,0.1875 0,0.125 0.078125,0.125 0.25,0.125 0.546875,0 0.5625,0.09375 0.59375,0.34375 L 2.1875,-0.015625 C 2.21875,0.1875 2.265625,0.21875 2.390625,0.21875 c 0.15625,0 0.203125,-0.046875 0.28125,-0.171875 z m 0,0"
               id="path5945" />
          </g>
        </g>
      </g>
    </g>
  </g>
</svg>
