<?xml version="1.0" encoding="UTF-8" standalone="no"?>
<!-- Created with Inkscape (http://www.inkscape.org/) -->

<svg
   inkscape:version="1.1.1 (3bf5ae0d25, 2021-09-20, custom)"
   sodipodi:docname="kondo_zeromode.svg"
   viewBox="0 0 443.90249 166.91703"
   height="166.91704"
   width="443.9025"
   xml:space="preserve"
   id="svg38345"
   version="1.1"
   xmlns:inkscape="http://www.inkscape.org/namespaces/inkscape"
   xmlns:sodipodi="http://sodipodi.sourceforge.net/DTD/sodipodi-0.dtd"
   xmlns="http://www.w3.org/2000/svg"
   xmlns:svg="http://www.w3.org/2000/svg"
   xmlns:ns11="http://www.iki.fi/pav/software/textext/"><defs
     id="defs38349" /><sodipodi:namedview
     id="namedview38347"
     pagecolor="#ffffff"
     bordercolor="#666666"
     borderopacity="1.0"
     inkscape:pageshadow="2"
     inkscape:pageopacity="0.0"
     inkscape:pagecheckerboard="0"
     showgrid="false"
     inkscape:zoom="0.94036067"
     inkscape:cx="318.49482"
     inkscape:cy="87.732295"
     inkscape:window-width="1024"
     inkscape:window-height="742"
     inkscape:window-x="0"
     inkscape:window-y="26"
     inkscape:window-maximized="1"
     inkscape:current-layer="g38351" /><g
     id="g38351"
     inkscape:groupmode="layer"
     inkscape:label="kondo_zeromode"
     transform="matrix(1.3333333,0,0,1.3333333,-8.2745234,-11.737889)"><path
       d="m 81.466107,74.621 c 0,20.783432 -16.850109,37.63011 -37.630107,37.63011 -20.783432,0 -37.6301073,-16.846678 -37.6301073,-37.63011 0,-20.779998 16.8466753,-37.630107 37.6301073,-37.630107 20.779998,0 37.630107,16.850109 37.630107,37.630107 z"
       style="fill:#202020;fill-opacity:1;fill-rule:nonzero;stroke:none;stroke-width:0.858429"
       id="path38355" /><path
       d="m 337.57394,73.986748 c 0,20.78343 -16.85011,37.630112 -37.63011,37.630112 -20.78343,0 -37.63011,-16.846682 -37.63011,-37.630112 0,-20.78 16.84668,-37.63011 37.63011,-37.63011 20.78,0 37.63011,16.85011 37.63011,37.63011 z"
       style="fill:#202020;fill-opacity:1;fill-rule:nonzero;stroke:none;stroke-width:0.858429"
       id="path38355-8" /><g
       id="g38359"><path
         d="M 28.836,94.422 V 60.406"
         style="fill:none;stroke:#b07920;stroke-width:2.83465;stroke-linecap:butt;stroke-linejoin:miter;stroke-miterlimit:4;stroke-dasharray:none;stroke-opacity:1"
         id="path38361" /></g><g
       id="g38363"
       transform="rotate(90)"><path
         d="m 71.746,-28.836 5.668,-5.668 -19.84,5.668 19.84,5.672 z"
         style="fill:#b07920;fill-opacity:1;fill-rule:evenodd;stroke:#b07920;stroke-width:1.51181;stroke-linecap:butt;stroke-linejoin:miter;stroke-miterlimit:4;stroke-dasharray:none;stroke-opacity:1"
         id="path38365" /></g><g
       id="g38367"><path
         d="M 58.836,54.82 V 88.836"
         style="fill:none;stroke:#b07920;stroke-width:2.83465;stroke-linecap:butt;stroke-linejoin:miter;stroke-miterlimit:4;stroke-dasharray:none;stroke-opacity:1"
         id="path38369" /></g><g
       id="g38371"
       transform="rotate(-90)"><path
         d="m -77.496,58.836 5.668,-5.672 -19.844,5.672 19.844,5.668 z"
         style="fill:#b07920;fill-opacity:1;fill-rule:evenodd;stroke:#b07920;stroke-width:1.51181;stroke-linecap:butt;stroke-linejoin:miter;stroke-miterlimit:4;stroke-dasharray:none;stroke-opacity:1"
         id="path38373" /></g><g
       id="g38375"><path
         d="M 284.508,92.695 V 58.684"
         style="fill:none;stroke:#00a070;stroke-width:2.83465;stroke-linecap:butt;stroke-linejoin:miter;stroke-miterlimit:4;stroke-dasharray:none;stroke-opacity:1"
         id="path38377" /></g><g
       id="g38379"
       transform="rotate(90)"><path
         d="m 70.023,-284.508 5.668,-5.672 -19.843,5.672 19.843,5.668 z"
         style="fill:#00a070;fill-opacity:1;fill-rule:evenodd;stroke:#00a070;stroke-width:1.51181;stroke-linecap:butt;stroke-linejoin:miter;stroke-miterlimit:4;stroke-dasharray:none;stroke-opacity:1"
         id="path38381" /></g><g
       id="g38383"><path
         d="M 314.508,53.098 V 87.109"
         style="fill:none;stroke:#00a070;stroke-width:2.83465;stroke-linecap:butt;stroke-linejoin:miter;stroke-miterlimit:4;stroke-dasharray:none;stroke-opacity:1"
         id="path38385" /></g><g
       id="g38387"
       transform="rotate(-90)"><path
         d="m -75.773,314.508 5.671,-5.668 -19.843,5.668 19.843,5.672 z"
         style="fill:#00a070;fill-opacity:1;fill-rule:evenodd;stroke:#00a070;stroke-width:1.51181;stroke-linecap:butt;stroke-linejoin:miter;stroke-miterlimit:4;stroke-dasharray:none;stroke-opacity:1"
         id="path38389" /></g><g
       id="g38391"><path
         d="m 95.961,49.121 h 141.75"
         style="fill:none;stroke:#000000;stroke-width:2.83465;stroke-linecap:butt;stroke-linejoin:miter;stroke-miterlimit:4;stroke-dasharray:none;stroke-opacity:1"
         id="path38393" /></g><g
       id="g38395"><path
         d="m 244.254,49.121 -9.809,5.672 v -11.34 z"
         style="fill:#000000;fill-opacity:1;fill-rule:evenodd;stroke:#000000;stroke-width:1.51181;stroke-linecap:butt;stroke-linejoin:miter;stroke-miterlimit:4;stroke-dasharray:none;stroke-opacity:1"
         id="path38397" /></g><g
       id="g38399"><path
         d="M 244.262,89.621 H 102.512"
         style="fill:none;stroke:#000000;stroke-width:2.83465;stroke-linecap:butt;stroke-linejoin:miter;stroke-miterlimit:4;stroke-dasharray:none;stroke-opacity:1"
         id="path38401" /></g><g
       id="g38403"
       transform="scale(-1)"><path
         d="m -95.973,-89.621 -9.804,5.668 v -11.34 z"
         style="fill:#000000;fill-opacity:1;fill-rule:evenodd;stroke:#000000;stroke-width:1.51181;stroke-linecap:butt;stroke-linejoin:miter;stroke-miterlimit:4;stroke-dasharray:none;stroke-opacity:1"
         id="path38405" /></g><g
       id="g41587"
       transform="matrix(0.79835173,0,0,0.79835173,9.0332377,13.24689)"><path
         d="m 4.539,128.918 c -0.844,0 -1.406,0.633 -1.406,1.441 0,0.778 0.562,1.375 1.406,1.375 0.883,0 1.481,-0.597 1.481,-1.375 0,-0.808 -0.598,-1.441 -1.481,-1.441 z m 1.059,5.703 H 3.555 v 11.832 h 2.043 z"
         style="fill:#000000;fill-opacity:1;fill-rule:nonzero;stroke:none"
         id="path38437" /><path
         d="m 21.617,134.34 c -1.582,0 -2.676,0.844 -3.519,2.148 -0.457,-1.375 -1.516,-2.148 -2.993,-2.148 -1.55,0 -2.605,0.808 -3.417,2.008 l -0.176,-1.727 H 9.75 v 11.832 h 2.043 v -8.414 c 0.812,-1.234 1.516,-2.078 2.816,-2.078 0.883,0 1.657,0.527 1.657,2.289 v 8.203 h 2.043 v -8.414 c 0.808,-1.234 1.515,-2.078 2.816,-2.078 0.879,0 1.656,0.527 1.656,2.289 v 8.203 h 2.043 v -8.484 c 0,-2.219 -1.269,-3.629 -3.207,-3.629 z"
         style="fill:#000000;fill-opacity:1;fill-rule:nonzero;stroke:none"
         id="path38439" /><path
         d="m 34.258,134.34 c -1.34,0 -2.641,0.668 -3.485,1.867 l -0.175,-1.586 h -1.762 v 16.621 l 2.043,-0.246 v -5.633 c 0.773,0.949 1.828,1.371 3.098,1.371 3.062,0 4.683,-2.605 4.683,-6.195 0,-3.734 -1.269,-6.199 -4.402,-6.199 z m -0.774,10.707 c -1.058,0 -1.972,-0.531 -2.605,-1.445 v -5.774 c 0.633,-0.953 1.617,-1.832 2.851,-1.832 1.797,0 2.676,1.442 2.676,4.543 0,3.098 -1.019,4.508 -2.922,4.508 z"
         style="fill:#000000;fill-opacity:1;fill-rule:nonzero;stroke:none"
         id="path38441" /><path
         d="m 50.762,134.621 h -2.078 v 8.453 c -0.707,1.16 -1.657,2.043 -2.961,2.043 -1.266,0 -1.793,-0.637 -1.793,-2.219 v -8.277 h -2.078 v 8.488 c 0,2.325 1.23,3.625 3.308,3.625 1.692,0 2.781,-0.668 3.664,-2.113 L 49,146.453 h 1.762 z"
         style="fill:#000000;fill-opacity:1;fill-rule:nonzero;stroke:none"
         id="path38443" /><path
         d="m 60.043,134.34 c -1.445,0 -2.535,0.918 -3.172,2.676 l -0.211,-2.395 h -1.758 v 11.832 h 2.039 v -6.762 c 0.497,-2.253 1.375,-3.308 2.856,-3.308 0.422,0 0.668,0.035 1.019,0.105 l 0.387,-2.008 c -0.351,-0.105 -0.773,-0.14 -1.16,-0.14 z"
         style="fill:#000000;fill-opacity:1;fill-rule:nonzero;stroke:none"
         id="path38445" /><path
         d="m 64.488,128.918 c -0.847,0 -1.41,0.633 -1.41,1.441 0,0.778 0.563,1.375 1.41,1.375 0.879,0 1.477,-0.597 1.477,-1.375 0,-0.808 -0.598,-1.441 -1.477,-1.441 z m 1.055,5.703 H 63.5 v 11.832 h 2.043 z"
         style="fill:#000000;fill-opacity:1;fill-rule:nonzero;stroke:none"
         id="path38447" /><path
         d="m 74.945,144.551 c -0.597,0.316 -1.058,0.461 -1.586,0.461 -1.019,0 -1.406,-0.567 -1.406,-1.762 v -7.043 h 2.606 l 0.211,-1.586 h -2.817 v -2.922 l -2.078,0.246 v 2.676 h -2.043 v 1.586 h 2.043 v 7.148 c 0,2.184 1.195,3.379 3.203,3.379 1.02,0 1.867,-0.281 2.641,-0.808 z"
         style="fill:#000000;fill-opacity:1;fill-rule:nonzero;stroke:none"
         id="path38449" /><path
         d="m 86.461,134.621 h -2.149 l -3.101,10.317 -3.168,-10.317 h -2.219 l 3.981,11.832 h 0.703 c -0.668,1.832 -1.336,2.746 -3.731,3.168 l 0.211,1.621 c 3.274,-0.351 4.684,-2.219 5.492,-4.719 z"
         style="fill:#000000;fill-opacity:1;fill-rule:nonzero;stroke:none"
         id="path38451" /></g><g
       id="g41600"
       transform="matrix(0.70756456,0,0,0.70756456,87.723758,25.058537)"><path
         d="m 249.812,133.496 c -3.203,0 -5.175,2.535 -5.175,6.301 0,3.805 2.008,6.094 5.175,6.094 1.376,0 2.571,-0.457 3.629,-1.305 l -0.953,-1.371 c -0.879,0.597 -1.582,0.914 -2.57,0.914 -1.863,0 -3.027,-1.266 -3.027,-4.402 0,-3.063 1.164,-4.508 3.027,-4.508 0.988,0 1.727,0.285 2.535,0.847 l 0.988,-1.304 c -1.093,-0.914 -2.218,-1.266 -3.629,-1.266 z"
         style="fill:#000000;fill-opacity:1;fill-rule:nonzero;stroke:none"
         id="path38453" /><path
         d="m 264.859,139.34 c 0,-3.625 -1.691,-5.844 -4.894,-5.844 -3.067,0 -4.934,2.641 -4.934,6.301 0,3.769 1.938,6.094 5.25,6.094 1.653,0 2.957,-0.563 4.117,-1.481 l -0.878,-1.265 c -1.02,0.738 -1.903,1.054 -3.098,1.054 -1.692,0 -2.961,-1.054 -3.172,-3.801 h 7.535 c 0.039,-0.281 0.074,-0.671 0.074,-1.058 z m -2.078,-0.457 h -5.531 c 0.141,-2.641 1.199,-3.735 2.75,-3.735 1.863,0 2.781,1.27 2.781,3.594 z"
         style="fill:#000000;fill-opacity:1;fill-rule:nonzero;stroke:none"
         id="path38455" /><path
         d="m 273.617,133.496 c -1.547,0 -2.816,0.809 -3.625,2.043 l -0.176,-1.762 h -1.761 v 11.832 h 2.043 v -8.418 c 0.808,-1.23 1.691,-2.078 3.027,-2.078 1.129,0 1.867,0.532 1.867,2.289 v 8.207 h 2.078 v -8.488 c 0,-2.254 -1.269,-3.625 -3.453,-3.625 z"
         style="fill:#000000;fill-opacity:1;fill-rule:nonzero;stroke:none"
         id="path38457" /><path
         d="m 286.305,143.707 c -0.602,0.316 -1.059,0.457 -1.586,0.457 -1.02,0 -1.41,-0.562 -1.41,-1.762 v -7.039 h 2.605 l 0.215,-1.586 h -2.82 v -2.922 l -2.075,0.247 v 2.675 h -2.043 v 1.586 h 2.043 v 7.145 c 0,2.183 1.196,3.383 3.204,3.383 1.019,0 1.867,-0.282 2.64,-0.809 z"
         style="fill:#000000;fill-opacity:1;fill-rule:nonzero;stroke:none"
         id="path38459" /><path
         d="m 294.301,133.496 c -1.442,0 -2.535,0.914 -3.168,2.676 l -0.211,-2.395 h -1.762 v 11.832 h 2.043 v -6.761 c 0.492,-2.254 1.375,-3.309 2.852,-3.309 0.422,0 0.668,0.035 1.023,0.106 l 0.387,-2.008 c -0.352,-0.106 -0.777,-0.141 -1.164,-0.141 z"
         style="fill:#000000;fill-opacity:1;fill-rule:nonzero;stroke:none"
         id="path38461" /><path
         d="m 305.234,142.863 v -5.425 c 0,-2.465 -1.3,-3.942 -4.156,-3.942 -1.336,0 -2.64,0.281 -4.082,0.809 l 0.492,1.515 c 1.231,-0.422 2.324,-0.636 3.203,-0.636 1.657,0 2.465,0.636 2.465,2.324 v 0.883 h -1.793 c -3.312,0 -5.215,1.371 -5.215,3.906 0,2.113 1.411,3.594 3.77,3.594 1.445,0 2.676,-0.563 3.52,-1.797 0.355,1.164 1.128,1.656 2.324,1.797 l 0.461,-1.446 c -0.602,-0.246 -0.989,-0.562 -0.989,-1.582 z m -4.859,1.477 c -1.336,0 -2.043,-0.738 -2.043,-2.149 0,-1.617 1.094,-2.429 3.277,-2.429 h 1.547 v 2.711 c -0.668,1.234 -1.547,1.867 -2.781,1.867 z"
         style="fill:#000000;fill-opacity:1;fill-rule:nonzero;stroke:none"
         id="path38463" /><path
         d="m 311.625,145.891 c 0.598,0 1.199,-0.176 1.656,-0.422 l -0.562,-1.446 c -0.215,0.106 -0.461,0.141 -0.742,0.141 -0.563,0 -0.739,-0.316 -0.739,-0.949 v -14.473 l -2.078,0.281 v 14.262 c 0,1.653 0.949,2.606 2.465,2.606 z"
         style="fill:#000000;fill-opacity:1;fill-rule:nonzero;stroke:none"
         id="path38465" /><path
         d="m 325.125,133.496 c -2.465,0 -4.258,1.371 -4.258,3.274 0,1.656 0.985,2.746 3.555,3.418 2.289,0.597 2.887,1.054 2.887,2.214 0,1.129 -0.985,1.797 -2.536,1.797 -1.3,0 -2.394,-0.422 -3.343,-1.125 l -1.094,1.266 c 1.023,0.883 2.465,1.551 4.473,1.551 2.394,0 4.683,-1.129 4.683,-3.594 0,-2.074 -1.441,-3.063 -3.941,-3.695 -1.903,-0.493 -2.535,-0.954 -2.535,-1.903 0,-0.949 0.808,-1.551 2.179,-1.551 1.094,0 2.008,0.321 3.067,0.989 l 0.879,-1.305 c -1.125,-0.844 -2.36,-1.336 -4.016,-1.336 z"
         style="fill:#000000;fill-opacity:1;fill-rule:nonzero;stroke:none"
         id="path38467" /><path
         d="m 333.32,128.074 c -0.843,0 -1.406,0.633 -1.406,1.442 0,0.773 0.563,1.375 1.406,1.375 0.883,0 1.481,-0.602 1.481,-1.375 0,-0.809 -0.598,-1.442 -1.481,-1.442 z m 1.059,5.703 h -2.043 v 11.832 h 2.043 z"
         style="fill:#000000;fill-opacity:1;fill-rule:nonzero;stroke:none"
         id="path38469" /><path
         d="m 343.781,143.707 c -0.601,0.316 -1.058,0.457 -1.586,0.457 -1.019,0 -1.41,-0.562 -1.41,-1.762 v -7.039 h 2.606 l 0.214,-1.586 h -2.82 v -2.922 l -2.074,0.247 v 2.675 h -2.043 v 1.586 h 2.043 v 7.145 c 0,2.183 1.195,3.383 3.203,3.383 1.02,0 1.867,-0.282 2.641,-0.809 z"
         style="fill:#000000;fill-opacity:1;fill-rule:nonzero;stroke:none"
         id="path38471" /><path
         d="m 355.316,139.34 c 0,-3.625 -1.691,-5.844 -4.894,-5.844 -3.063,0 -4.93,2.641 -4.93,6.301 0,3.769 1.938,6.094 5.246,6.094 1.657,0 2.957,-0.563 4.121,-1.481 l -0.882,-1.265 c -1.02,0.738 -1.899,1.054 -3.098,1.054 -1.691,0 -2.957,-1.054 -3.168,-3.801 h 7.535 c 0.035,-0.281 0.07,-0.671 0.07,-1.058 z m -2.078,-0.457 h -5.527 c 0.141,-2.641 1.195,-3.735 2.746,-3.735 1.867,0 2.781,1.27 2.781,3.594 z"
         style="fill:#000000;fill-opacity:1;fill-rule:nonzero;stroke:none"
         id="path38473" /></g><g
       transform="matrix(1.6511318,0,0,1.6511318,96.675717,93.66302)"
       ns11:version="1.3.0"
       ns11:texconverter="pdflatex"
       ns11:pdfconverter="inkscape"
       ns11:text="$V^*\\sum_\\sigma\\left(c^\\dagger_{d\\sigma} c_{0\\sigma} + \\text{h.c.}\\right)$"
       ns11:preamble="/home/abhirup/textext.tex"
       ns11:scale="3.129597934111538"
       ns11:alignment="middle center"
       ns11:jacobian_sqrt="4.17279"
       id="g38865"><defs
   id="id-5dab1e87-0c8a-4f4d-baf4-790d59fcfc9e">
    <g
   id="id-a819faa9-ca6e-47f7-a2dd-7abc3dd19b42">
      <symbol
   overflow="visible"
   id="id-252e5c7a-a60a-4977-a93f-f45677687f8e">
        <path
   style="stroke:none;stroke-width:0"
   d=""
   id="id-cb184f42-cbea-4051-9538-0318f9c088e2" />
      </symbol>
      <symbol
   overflow="visible"
   id="id-145b4626-47ce-4465-b761-8e5f49d406ba">
        <path
   style="stroke:none;stroke-width:0"
   d="M 6.265625,-5.671875 C 6.75,-6.453125 7.171875,-6.484375 7.53125,-6.5 c 0.125,-0.015625 0.140625,-0.171875 0.140625,-0.1875 0,-0.078125 -0.0625,-0.125 -0.140625,-0.125 -0.25,0 -0.546875,0.03125 -0.8125,0.03125 -0.328125,0 -0.671875,-0.03125 -0.984375,-0.03125 -0.0625,0 -0.1875,0 -0.1875,0.1875 0,0.109375 0.078125,0.125 0.15625,0.125 0.265625,0.015625 0.453125,0.125 0.453125,0.328125 0,0.15625 -0.140625,0.375 -0.140625,0.375 l -3.0625,4.875 -0.6875,-5.28125 C 2.265625,-6.375 2.5,-6.5 2.953125,-6.5 c 0.140625,0 0.25,0 0.25,-0.203125 0,-0.078125 -0.078125,-0.109375 -0.125,-0.109375 -0.40625,0 -0.828125,0.03125 -1.25,0.03125 -0.171875,0 -0.359375,0 -0.546875,0 -0.171875,0 -0.359375,-0.03125 -0.53125,-0.03125 -0.078125,0 -0.1875,0 -0.1875,0.1875 0,0.125 0.078125,0.125 0.25,0.125 0.546875,0 0.5625,0.09375 0.59375,0.34375 L 2.1875,-0.015625 C 2.21875,0.1875 2.265625,0.21875 2.390625,0.21875 c 0.15625,0 0.203125,-0.046875 0.28125,-0.171875 z m 0,0"
   id="id-575843b8-2640-49c5-a1f8-b4d91c7ba443" />
      </symbol>
      <symbol
   overflow="visible"
   id="id-fb31243f-da11-41d1-b0ce-5c42c776a768">
        <path
   style="stroke:none;stroke-width:0"
   d="m 3.953125,-3.78125 c -0.171875,0 -0.296875,0 -0.4375,0.125 -0.171875,0.15625 -0.1875,0.328125 -0.1875,0.390625 0,0.25 0.1875,0.359375 0.375,0.359375 0.28125,0 0.546875,-0.25 0.546875,-0.640625 0,-0.484375 -0.46875,-0.859375 -1.171875,-0.859375 -1.34375,0 -2.671875,1.421875 -2.671875,2.828125 0,0.90625 0.578125,1.6875 1.625,1.6875 1.421875,0 2.25,-1.0625 2.25,-1.171875 0,-0.0625 -0.046875,-0.140625 -0.109375,-0.140625 -0.0625,0 -0.078125,0.03125 -0.140625,0.109375 -0.78125,0.984375 -1.875,0.984375 -1.984375,0.984375 -0.625,0 -0.90625,-0.484375 -0.90625,-1.09375 0,-0.40625 0.203125,-1.375 0.546875,-1.984375 0.3125,-0.578125 0.859375,-1 1.40625,-1 0.328125,0 0.71875,0.125 0.859375,0.40625 z m 0,0"
   id="id-48e96a01-46fc-4a63-8ad0-d730ca95985b" />
      </symbol>
      <symbol
   overflow="visible"
   id="id-fe365176-5ab6-410b-a689-75df953d1141">
        <path
   style="stroke:none;stroke-width:0"
   d=""
   id="id-50c77b33-9f26-4bf4-b88b-d62cdeb7b84e" />
      </symbol>
      <symbol
   overflow="visible"
   id="id-233ee08f-0bed-4184-b09c-42c520cbcbc4">
        <path
   style="stroke:none;stroke-width:0"
   d="m 2.25,-1.734375 c 0.578125,-0.25 0.828125,-0.34375 1,-0.4375 0.140625,-0.046875 0.203125,-0.078125 0.203125,-0.21875 0,-0.109375 -0.09375,-0.21875 -0.21875,-0.21875 -0.046875,0 -0.0625,0 -0.140625,0.0625 L 2.140625,-1.90625 2.25,-2.9375 c 0.015625,-0.125 0,-0.296875 -0.21875,-0.296875 -0.078125,0 -0.21875,0.046875 -0.21875,0.203125 0,0.0625 0.03125,0.265625 0.046875,0.34375 0.015625,0.109375 0.0625,0.625 0.078125,0.78125 L 0.984375,-2.546875 c -0.0625,-0.03125 -0.078125,-0.0625 -0.140625,-0.0625 -0.140625,0 -0.21875,0.109375 -0.21875,0.21875 0,0.140625 0.078125,0.1875 0.140625,0.203125 L 1.8125,-1.734375 c -0.5625,0.25 -0.828125,0.34375 -1,0.421875 -0.125,0.0625 -0.1875,0.09375 -0.1875,0.21875 0,0.125 0.078125,0.21875 0.21875,0.21875 0.046875,0 0.0625,0 0.140625,-0.0625 l 0.953125,-0.625 -0.125,1.109375 c 0,0.15625 0.140625,0.21875 0.21875,0.21875 0.09375,0 0.21875,-0.0625 0.21875,-0.21875 0,-0.0625 -0.03125,-0.265625 -0.03125,-0.328125 -0.015625,-0.125 -0.0625,-0.625 -0.078125,-0.78125 L 2.96875,-1.015625 C 3.15625,-0.875 3.171875,-0.875 3.234375,-0.875 c 0.125,0 0.21875,-0.09375 0.21875,-0.21875 0,-0.140625 -0.09375,-0.171875 -0.15625,-0.203125 z m 0,0"
   id="id-02117e22-4aef-4b7e-bfba-cb8c99cf75d7" />
      </symbol>
      <symbol
   overflow="visible"
   id="id-8c8c18e9-504f-441b-b49f-6cc8a646bec4">
        <path
   style="stroke:none;stroke-width:0"
   d="m 1.90625,-2.90625 c 0.109375,0 0.171875,0.015625 0.390625,0.0625 0.21875,0.0625 0.390625,0.109375 0.515625,0.109375 0.28125,0 0.296875,-0.203125 0.296875,-0.265625 0,-0.0625 -0.015625,-0.28125 -0.296875,-0.28125 -0.125,0 -0.296875,0.046875 -0.515625,0.109375 -0.21875,0.0625 -0.28125,0.0625 -0.390625,0.078125 0.015625,-0.25 0.0625,-0.53125 0.09375,-0.75 0.03125,-0.140625 0.09375,-0.5 0.09375,-0.734375 0,-0.21875 -0.09375,-0.328125 -0.265625,-0.328125 -0.15625,0 -0.28125,0.078125 -0.28125,0.328125 0,0.21875 0.0625,0.578125 0.109375,0.8125 0.015625,0.078125 0.078125,0.40625 0.078125,0.671875 C 1.640625,-3.109375 1.5625,-3.109375 1.359375,-3.171875 1.140625,-3.234375 0.96875,-3.28125 0.84375,-3.28125 c -0.28125,0 -0.3125,0.21875 -0.3125,0.28125 0,0.046875 0.03125,0.265625 0.3125,0.265625 0.125,0 0.296875,-0.046875 0.515625,-0.109375 0.203125,-0.046875 0.28125,-0.0625 0.375,-0.0625 0,0.171875 -0.0625,0.390625 -0.09375,0.53125 -0.09375,0.4375 -0.09375,0.484375 -0.09375,0.84375 0,1.34375 0.140625,2.78125 0.15625,2.921875 0.015625,0.0625 0.03125,0.09375 0.125,0.09375 0.109375,0 0.109375,-0.03125 0.125,-0.125 0,-0.015625 0.046875,-0.625 0.078125,-1.046875 0.03125,-0.609375 0.0625,-1.21875 0.0625,-1.84375 0,-0.359375 0,-0.40625 -0.09375,-0.859375 -0.015625,-0.0625 -0.078125,-0.34375 -0.09375,-0.515625 z m 0,0"
   id="id-c7341ed4-7deb-4584-a1d2-dab9a6356946" />
      </symbol>
      <symbol
   overflow="visible"
   id="id-abbd1ebf-1185-4024-b809-582f0c0e2521">
        <path
   style="stroke:none;stroke-width:0"
   d=""
   id="id-1db2b83a-0005-4c7a-9f8f-377897062e9a" />
      </symbol>
      <symbol
   overflow="visible"
   id="id-fb0b02ed-6ab3-4b7e-a570-546caa07b599">
        <path
   style="stroke:none;stroke-width:0"
   d="m 4.203125,5.328125 -3.546875,4.375 C 0.578125,9.796875 0.5625,9.8125 0.5625,9.859375 c 0,0.109375 0.09375,0.109375 0.28125,0.109375 h 8.25 L 9.953125,7.484375 h -0.25 C 9.453125,8.234375 8.796875,8.84375 7.9375,9.125 7.78125,9.1875 7.09375,9.421875 5.625,9.421875 H 1.390625 l 3.46875,-4.28125 C 4.921875,5.046875 4.9375,5.03125 4.9375,4.984375 4.9375,4.9375 4.9375,4.9375 4.875,4.84375 L 1.640625,0.40625 h 3.9375 c 1.140625,0 3.4375,0.0625 4.125,1.921875 h 0.25 L 9.09375,0 h -8.25 C 0.5625,0 0.5625,0.015625 0.5625,0.3125 Z m 0,0"
   id="id-312c5c98-7e6c-4e81-a45f-14a07ea3d9b5" />
      </symbol>
      <symbol
   overflow="visible"
   id="id-caf27237-a26f-4862-8e31-a462a615b04c">
        <path
   style="stroke:none;stroke-width:0"
   d="M 5.140625,17.421875 C 5.15625,17.4375 5.25,17.53125 5.25,17.53125 h 0.21875 c 0.03125,0 0.109375,0 0.109375,-0.09375 0,-0.04687 -0.015625,-0.0625 -0.03125,-0.09375 -0.359375,-0.359375 -0.90625,-0.90625 -1.515625,-2 -1.078125,-1.921875 -1.484375,-4.375 -1.484375,-6.765625 0,-4.4375 1.265625,-7.03125 3,-8.796875 0.03125,-0.03125 0.03125,-0.0625 0.03125,-0.078125 0,-0.109375 -0.0625,-0.109375 -0.1875,-0.109375 -0.125,0 -0.140625,0 -0.234375,0.09375 C 4.203125,0.5 3.140625,1.890625 2.453125,3.984375 2.03125,5.296875 1.796875,6.90625 1.796875,8.5625 c 0,2.359375 0.421875,5.03125 1.984375,7.34375 0.28125,0.390625 0.640625,0.796875 0.640625,0.8125 C 4.53125,16.84375 4.671875,17 4.75,17.0625 Z m 0,0"
   id="id-e26f120a-128e-4031-86ca-185f5c746a7c" />
      </symbol>
      <symbol
   overflow="visible"
   id="id-f767131a-9393-4187-8ebf-1d5dda0eb2b6">
        <path
   style="stroke:none;stroke-width:0"
   d="m 4.140625,8.5625 c 0,-2.859375 -0.65625,-5.90625 -2.625,-8.140625 C 1.375,0.265625 1,-0.125 0.765625,-0.34375 c -0.0625,-0.0625 -0.09375,-0.0625 -0.21875,-0.0625 -0.09375,0 -0.1875,0 -0.1875,0.109375 0,0.03125 0.046875,0.078125 0.0625,0.09375 0.328125,0.359375 0.875,0.90625 1.484375,2 1.078125,1.90625 1.484375,4.375 1.484375,6.765625 0,4.328125 -1.203125,6.96875 -2.984375,8.796875 C 0.375,17.375 0.359375,17.40625 0.359375,17.4375 c 0,0.09375 0.09375,0.09375 0.1875,0.09375 0.125,0 0.15625,0 0.234375,-0.07813 0.953125,-0.8125 2.015625,-2.203125 2.703125,-4.296875 0.4375,-1.375 0.65625,-2.984375 0.65625,-4.59375 z m 0,0"
   id="id-8c065ff0-384a-4e52-aa2c-ddd9f630c9a4" />
      </symbol>
      <symbol
   overflow="visible"
   id="id-0cd3bb9e-afc3-4e70-87d6-ea2ad54fc145">
        <path
   style="stroke:none;stroke-width:0"
   d=""
   id="id-a4039e79-7154-4e96-ba44-5621ce25dbca" />
      </symbol>
      <symbol
   overflow="visible"
   id="id-6195510f-882e-4541-848e-0c9a42751a70">
        <path
   style="stroke:none;stroke-width:0"
   d="m 4.078125,-2.53125 c 0.109375,0 0.1875,0 0.25,-0.046875 0.09375,-0.078125 0.125,-0.1875 0.125,-0.234375 C 4.453125,-3 4.265625,-3 4.140625,-3 H 2.359375 C 1.25,-3 0.40625,-1.90625 0.40625,-1.0625 c 0,0.640625 0.484375,1.125 1.203125,1.125 0.875,0 1.875,-0.78125 1.875,-1.859375 0,-0.109375 0,-0.421875 -0.203125,-0.734375 z M 1.609375,-0.125 c -0.375,0 -0.6875,-0.25 -0.6875,-0.75 0,-0.203125 0.125,-1.65625 1.328125,-1.65625 0.34375,0 0.71875,0.140625 0.71875,0.65625 0,0.140625 -0.0625,0.765625 -0.40625,1.234375 C 2.265625,-0.265625 1.875,-0.125 1.609375,-0.125 Z m 0,0"
   id="id-eb5440ec-595c-45f9-8a8c-09d84720e614" />
      </symbol>
      <symbol
   overflow="visible"
   id="id-ec661ef1-50fd-4d1d-889c-8c11cc18698d">
        <path
   style="stroke:none;stroke-width:0"
   d="M 3.984375,-4.625 C 3.984375,-4.640625 4,-4.734375 4,-4.734375 4,-4.78125 3.984375,-4.84375 3.890625,-4.84375 3.75,-4.84375 3.171875,-4.78125 3,-4.765625 c -0.046875,0 -0.15625,0.015625 -0.15625,0.15625 0,0.09375 0.109375,0.09375 0.1875,0.09375 0.328125,0 0.328125,0.0625 0.328125,0.109375 0,0.046875 0,0.09375 -0.015625,0.15625 L 2.9375,-2.65625 c -0.140625,-0.234375 -0.375,-0.421875 -0.71875,-0.421875 -0.890625,0 -1.796875,0.984375 -1.796875,1.984375 0,0.6875 0.453125,1.15625 1.0625,1.15625 0.375,0 0.703125,-0.203125 0.984375,-0.484375 C 2.59375,0 3,0.0625 3.1875,0.0625 c 0.25,0 0.421875,-0.140625 0.546875,-0.359375 0.15625,-0.28125 0.25,-0.671875 0.25,-0.703125 0,-0.09375 -0.09375,-0.09375 -0.109375,-0.09375 -0.109375,0 -0.109375,0.03125 -0.15625,0.21875 C 3.625,-0.53125 3.5,-0.125 3.203125,-0.125 3.03125,-0.125 2.96875,-0.28125 2.96875,-0.46875 c 0,-0.125 0.015625,-0.1875 0.046875,-0.28125 z M 2.5,-0.875 C 2.453125,-0.671875 2.296875,-0.53125 2.140625,-0.40625 2.078125,-0.34375 1.796875,-0.125 1.5,-0.125 c -0.265625,0 -0.515625,-0.1875 -0.515625,-0.671875 0,-0.375 0.203125,-1.140625 0.375,-1.421875 0.3125,-0.5625 0.671875,-0.65625 0.859375,-0.65625 0.484375,0 0.625,0.53125 0.625,0.609375 0,0.015625 -0.015625,0.078125 -0.015625,0.09375 z m 0,0"
   id="id-4660e2ed-197f-458e-b25f-624269e49100" />
      </symbol>
      <symbol
   overflow="visible"
   id="id-2e85c30a-6638-4514-ad0b-3e13821b76ba">
        <path
   style="stroke:none;stroke-width:0"
   d=""
   id="id-63131505-1ac0-407c-a8e2-b20711aeff0a" />
      </symbol>
      <symbol
   overflow="visible"
   id="id-082b2c77-b579-4a72-8582-c5a58120c778">
        <path
   style="stroke:none;stroke-width:0"
   d="M 3.59375,-2.21875 C 3.59375,-2.984375 3.5,-3.546875 3.1875,-4.03125 2.96875,-4.34375 2.53125,-4.625 1.984375,-4.625 c -1.625,0 -1.625,1.90625 -1.625,2.40625 0,0.5 0,2.359375 1.625,2.359375 1.609375,0 1.609375,-1.859375 1.609375,-2.359375 z M 1.984375,-0.0625 c -0.328125,0 -0.75,-0.1875 -0.890625,-0.75 C 1,-1.21875 1,-1.796875 1,-2.3125 1,-2.828125 1,-3.359375 1.09375,-3.734375 1.25,-4.28125 1.6875,-4.4375 1.984375,-4.4375 c 0.375,0 0.734375,0.234375 0.859375,0.640625 0.109375,0.375 0.125,0.875 0.125,1.484375 0,0.515625 0,1.03125 -0.09375,1.46875 -0.140625,0.640625 -0.609375,0.78125 -0.890625,0.78125 z m 0,0"
   id="id-65dd7303-f386-4669-aa2f-9872003b9d7a" />
      </symbol>
      <symbol
   overflow="visible"
   id="id-71fcc8a8-8b37-4b69-a788-481f8b306cb8">
        <path
   style="stroke:none;stroke-width:0"
   d=""
   id="id-12c59a3b-dfdf-445c-942e-18a67c2e1e39" />
      </symbol>
      <symbol
   overflow="visible"
   id="id-54baba43-cbe4-4381-8ee9-2b2a369c9431">
        <path
   style="stroke:none;stroke-width:0"
   d="m 4.078125,-2.296875 h 2.78125 C 7,-2.296875 7.1875,-2.296875 7.1875,-2.5 7.1875,-2.6875 7,-2.6875 6.859375,-2.6875 h -2.78125 v -2.796875 c 0,-0.140625 0,-0.328125 -0.203125,-0.328125 -0.203125,0 -0.203125,0.1875 -0.203125,0.328125 V -2.6875 h -2.78125 c -0.140625,0 -0.328125,0 -0.328125,0.1875 0,0.203125 0.1875,0.203125 0.328125,0.203125 h 2.78125 V 0.5 c 0,0.140625 0,0.328125 0.203125,0.328125 0.203125,0 0.203125,-0.1875 0.203125,-0.328125 z m 0,0"
   id="id-87de8968-1d1d-47a4-b92b-8d0bb2a61726" />
      </symbol>
      <symbol
   overflow="visible"
   id="id-ee5d947b-f810-498c-bfd4-09cba150de5b">
        <path
   style="stroke:none;stroke-width:0"
   d="m 1.09375,-0.75 c 0,0.4375 -0.109375,0.4375 -0.78125,0.4375 V 0 c 0.359375,-0.015625 0.859375,-0.03125 1.140625,-0.03125 0.25,0 0.765625,0.015625 1.109375,0.03125 v -0.3125 c -0.671875,0 -0.78125,0 -0.78125,-0.4375 V -2.59375 C 1.78125,-3.625 2.5,-4.1875 3.125,-4.1875 c 0.640625,0 0.75,0.53125 0.75,1.109375 V -0.75 c 0,0.4375 -0.109375,0.4375 -0.78125,0.4375 V 0 c 0.34375,-0.015625 0.859375,-0.03125 1.125,-0.03125 0.25,0 0.78125,0.015625 1.109375,0.03125 v -0.3125 c -0.515625,0 -0.765625,0 -0.765625,-0.296875 v -1.90625 c 0,-0.859375 0,-1.15625 -0.3125,-1.515625 -0.140625,-0.171875 -0.46875,-0.375 -1.046875,-0.375 -0.84375,0 -1.28125,0.59375 -1.453125,0.984375 v -3.5 L 0.3125,-6.8125 V -6.5 c 0.703125,0 0.78125,0.0625 0.78125,0.5625 z m 0,0"
   id="id-c7497ecf-4ba8-43d9-bb21-6503f06ff047" />
      </symbol>
      <symbol
   overflow="visible"
   id="id-e4f5df78-5983-4b83-bdde-2daabb20ba48">
        <path
   style="stroke:none;stroke-width:0"
   d="m 1.90625,-0.53125 c 0,-0.28125 -0.234375,-0.53125 -0.515625,-0.53125 -0.296875,0 -0.53125,0.25 -0.53125,0.53125 C 0.859375,-0.234375 1.09375,0 1.390625,0 1.671875,0 1.90625,-0.234375 1.90625,-0.53125 Z m 0,0"
   id="id-81d25a44-5b91-41a0-adea-99399dca9cc9" />
      </symbol>
      <symbol
   overflow="visible"
   id="id-a2524610-f36e-487d-8a59-01bc55188702">
        <path
   style="stroke:none;stroke-width:0"
   d="m 1.171875,-2.171875 c 0,-1.625 0.8125,-2.046875 1.34375,-2.046875 0.09375,0 0.71875,0.015625 1.0625,0.375 -0.40625,0.03125 -0.46875,0.328125 -0.46875,0.453125 0,0.265625 0.1875,0.453125 0.453125,0.453125 0.265625,0 0.46875,-0.15625 0.46875,-0.46875 0,-0.671875 -0.765625,-1.0625 -1.53125,-1.0625 -1.25,0 -2.15625,1.078125 -2.15625,2.3125 0,1.28125 0.984375,2.265625 2.140625,2.265625 1.328125,0 1.65625,-1.203125 1.65625,-1.296875 0,-0.09375 -0.109375,-0.09375 -0.140625,-0.09375 -0.078125,0 -0.109375,0.03125 -0.125,0.09375 -0.28125,0.921875 -0.9375,1.046875 -1.296875,1.046875 -0.53125,0 -1.40625,-0.421875 -1.40625,-2.03125 z m 0,0"
   id="id-dd97a4ea-1feb-4f52-837a-93471acd484f" />
      </symbol>
    </g>
  </defs>
  <g
   id="id-47307398-e237-4a14-99bd-a01e0336d4c3"
   transform="translate(-149.275,-124.795)">
    <g
   style="fill:#000000;fill-opacity:1"
   id="id-d98c4c61-18db-4a27-a16c-fcad4808e7a4">
      <g
   transform="translate(148.712,136.259)"
   id="g38797"><path
   style="stroke:none;stroke-width:0"
   d="M 6.265625,-5.671875 C 6.75,-6.453125 7.171875,-6.484375 7.53125,-6.5 c 0.125,-0.015625 0.140625,-0.171875 0.140625,-0.1875 0,-0.078125 -0.0625,-0.125 -0.140625,-0.125 -0.25,0 -0.546875,0.03125 -0.8125,0.03125 -0.328125,0 -0.671875,-0.03125 -0.984375,-0.03125 -0.0625,0 -0.1875,0 -0.1875,0.1875 0,0.109375 0.078125,0.125 0.15625,0.125 0.265625,0.015625 0.453125,0.125 0.453125,0.328125 0,0.15625 -0.140625,0.375 -0.140625,0.375 l -3.0625,4.875 -0.6875,-5.28125 C 2.265625,-6.375 2.5,-6.5 2.953125,-6.5 c 0.140625,0 0.25,0 0.25,-0.203125 0,-0.078125 -0.078125,-0.109375 -0.125,-0.109375 -0.40625,0 -0.828125,0.03125 -1.25,0.03125 -0.171875,0 -0.359375,0 -0.546875,0 -0.171875,0 -0.359375,-0.03125 -0.53125,-0.03125 -0.078125,0 -0.1875,0 -0.1875,0.1875 0,0.125 0.078125,0.125 0.25,0.125 0.546875,0 0.5625,0.09375 0.59375,0.34375 L 2.1875,-0.015625 C 2.21875,0.1875 2.265625,0.21875 2.390625,0.21875 c 0.15625,0 0.203125,-0.046875 0.28125,-0.171875 z m 0,0"
   id="id-e6c9d111-321e-4044-b3b6-cfff614ea519" />
      </g></g>
    <g
   style="fill:#000000;fill-opacity:1"
   id="id-001cdd4d-771a-456c-83ef-5f3120d0c0dc">
      <g
   transform="translate(156.738,132.644)"
   id="g38801"><path
   style="stroke:none;stroke-width:0"
   d="m 2.25,-1.734375 c 0.578125,-0.25 0.828125,-0.34375 1,-0.4375 0.140625,-0.046875 0.203125,-0.078125 0.203125,-0.21875 0,-0.109375 -0.09375,-0.21875 -0.21875,-0.21875 -0.046875,0 -0.0625,0 -0.140625,0.0625 L 2.140625,-1.90625 2.25,-2.9375 c 0.015625,-0.125 0,-0.296875 -0.21875,-0.296875 -0.078125,0 -0.21875,0.046875 -0.21875,0.203125 0,0.0625 0.03125,0.265625 0.046875,0.34375 0.015625,0.109375 0.0625,0.625 0.078125,0.78125 L 0.984375,-2.546875 c -0.0625,-0.03125 -0.078125,-0.0625 -0.140625,-0.0625 -0.140625,0 -0.21875,0.109375 -0.21875,0.21875 0,0.140625 0.078125,0.1875 0.140625,0.203125 L 1.8125,-1.734375 c -0.5625,0.25 -0.828125,0.34375 -1,0.421875 -0.125,0.0625 -0.1875,0.09375 -0.1875,0.21875 0,0.125 0.078125,0.21875 0.21875,0.21875 0.046875,0 0.0625,0 0.140625,-0.0625 l 0.953125,-0.625 -0.125,1.109375 c 0,0.15625 0.140625,0.21875 0.21875,0.21875 0.09375,0 0.21875,-0.0625 0.21875,-0.21875 0,-0.0625 -0.03125,-0.265625 -0.03125,-0.328125 -0.015625,-0.125 -0.0625,-0.625 -0.078125,-0.78125 L 2.96875,-1.015625 C 3.15625,-0.875 3.171875,-0.875 3.234375,-0.875 c 0.125,0 0.21875,-0.09375 0.21875,-0.21875 0,-0.140625 -0.09375,-0.171875 -0.15625,-0.203125 z m 0,0"
   id="id-0d2d36f5-a6ee-4181-be5d-394a9a436acb" />
      </g></g>
    <g
   style="fill:#000000;fill-opacity:1"
   id="id-5fe79a54-ee0f-47fd-b960-623258f7fcbd">
      <g
   transform="translate(162.978,128.787)"
   id="g38805"><path
   style="stroke:none;stroke-width:0"
   d="m 4.203125,5.328125 -3.546875,4.375 C 0.578125,9.796875 0.5625,9.8125 0.5625,9.859375 c 0,0.109375 0.09375,0.109375 0.28125,0.109375 h 8.25 L 9.953125,7.484375 h -0.25 C 9.453125,8.234375 8.796875,8.84375 7.9375,9.125 7.78125,9.1875 7.09375,9.421875 5.625,9.421875 H 1.390625 l 3.46875,-4.28125 C 4.921875,5.046875 4.9375,5.03125 4.9375,4.984375 4.9375,4.9375 4.9375,4.9375 4.875,4.84375 L 1.640625,0.40625 h 3.9375 c 1.140625,0 3.4375,0.0625 4.125,1.921875 h 0.25 L 9.09375,0 h -8.25 C 0.5625,0 0.5625,0.015625 0.5625,0.3125 Z m 0,0"
   id="id-7c6a138f-b78f-4e7b-9d81-21dfa512bb9a" />
      </g></g>
    <g
   style="fill:#000000;fill-opacity:1"
   id="id-713232da-50b1-4a9a-b155-7319d7f22c75">
      <g
   transform="translate(173.494,139.248)"
   id="g38809"><path
   style="stroke:none;stroke-width:0"
   d="m 4.078125,-2.53125 c 0.109375,0 0.1875,0 0.25,-0.046875 0.09375,-0.078125 0.125,-0.1875 0.125,-0.234375 C 4.453125,-3 4.265625,-3 4.140625,-3 H 2.359375 C 1.25,-3 0.40625,-1.90625 0.40625,-1.0625 c 0,0.640625 0.484375,1.125 1.203125,1.125 0.875,0 1.875,-0.78125 1.875,-1.859375 0,-0.109375 0,-0.421875 -0.203125,-0.734375 z M 1.609375,-0.125 c -0.375,0 -0.6875,-0.25 -0.6875,-0.75 0,-0.203125 0.125,-1.65625 1.328125,-1.65625 0.34375,0 0.71875,0.140625 0.71875,0.65625 0,0.140625 -0.0625,0.765625 -0.40625,1.234375 C 2.265625,-0.265625 1.875,-0.125 1.609375,-0.125 Z m 0,0"
   id="id-44154d36-ba81-4329-ab3c-4aae491b1f47" />
      </g></g>
    <g
   style="fill:#000000;fill-opacity:1"
   id="id-c61b7f10-5d5b-4fb3-b926-423c97b020d9">
      <g
   transform="translate(180.52,125.201)"
   id="g38813"><path
   style="stroke:none;stroke-width:0"
   d="M 5.140625,17.421875 C 5.15625,17.4375 5.25,17.53125 5.25,17.53125 h 0.21875 c 0.03125,0 0.109375,0 0.109375,-0.09375 0,-0.04687 -0.015625,-0.0625 -0.03125,-0.09375 -0.359375,-0.359375 -0.90625,-0.90625 -1.515625,-2 -1.078125,-1.921875 -1.484375,-4.375 -1.484375,-6.765625 0,-4.4375 1.265625,-7.03125 3,-8.796875 0.03125,-0.03125 0.03125,-0.0625 0.03125,-0.078125 0,-0.109375 -0.0625,-0.109375 -0.1875,-0.109375 -0.125,0 -0.140625,0 -0.234375,0.09375 C 4.203125,0.5 3.140625,1.890625 2.453125,3.984375 2.03125,5.296875 1.796875,6.90625 1.796875,8.5625 c 0,2.359375 0.421875,5.03125 1.984375,7.34375 0.28125,0.390625 0.640625,0.796875 0.640625,0.8125 C 4.53125,16.84375 4.671875,17 4.75,17.0625 Z m 0,0"
   id="id-c0a7dc47-a439-4b6b-a9ea-c3adccc1c06f" />
      </g></g>
    <g
   style="fill:#000000;fill-opacity:1"
   id="id-5b51251b-b68b-4231-8095-5bbbe98f2da6">
      <g
   transform="translate(186.47,136.259)"
   id="g38817"><path
   style="stroke:none;stroke-width:0"
   d="m 3.953125,-3.78125 c -0.171875,0 -0.296875,0 -0.4375,0.125 -0.171875,0.15625 -0.1875,0.328125 -0.1875,0.390625 0,0.25 0.1875,0.359375 0.375,0.359375 0.28125,0 0.546875,-0.25 0.546875,-0.640625 0,-0.484375 -0.46875,-0.859375 -1.171875,-0.859375 -1.34375,0 -2.671875,1.421875 -2.671875,2.828125 0,0.90625 0.578125,1.6875 1.625,1.6875 1.421875,0 2.25,-1.0625 2.25,-1.171875 0,-0.0625 -0.046875,-0.140625 -0.109375,-0.140625 -0.0625,0 -0.078125,0.03125 -0.140625,0.109375 -0.78125,0.984375 -1.875,0.984375 -1.984375,0.984375 -0.625,0 -0.90625,-0.484375 -0.90625,-1.09375 0,-0.40625 0.203125,-1.375 0.546875,-1.984375 0.3125,-0.578125 0.859375,-1 1.40625,-1 0.328125,0 0.71875,0.125 0.859375,0.40625 z m 0,0"
   id="id-6e4ca946-51cd-4ec7-badb-45a0840b6e59" />
      </g></g>
    <g
   style="fill:#000000;fill-opacity:1"
   id="id-7ff4d4ee-0044-45d5-a2eb-2c4f4ff37b87">
      <g
   transform="translate(190.781,131.472)"
   id="g38821"><path
   style="stroke:none;stroke-width:0"
   d="m 1.90625,-2.90625 c 0.109375,0 0.171875,0.015625 0.390625,0.0625 0.21875,0.0625 0.390625,0.109375 0.515625,0.109375 0.28125,0 0.296875,-0.203125 0.296875,-0.265625 0,-0.0625 -0.015625,-0.28125 -0.296875,-0.28125 -0.125,0 -0.296875,0.046875 -0.515625,0.109375 -0.21875,0.0625 -0.28125,0.0625 -0.390625,0.078125 0.015625,-0.25 0.0625,-0.53125 0.09375,-0.75 0.03125,-0.140625 0.09375,-0.5 0.09375,-0.734375 0,-0.21875 -0.09375,-0.328125 -0.265625,-0.328125 -0.15625,0 -0.28125,0.078125 -0.28125,0.328125 0,0.21875 0.0625,0.578125 0.109375,0.8125 0.015625,0.078125 0.078125,0.40625 0.078125,0.671875 C 1.640625,-3.109375 1.5625,-3.109375 1.359375,-3.171875 1.140625,-3.234375 0.96875,-3.28125 0.84375,-3.28125 c -0.28125,0 -0.3125,0.21875 -0.3125,0.28125 0,0.046875 0.03125,0.265625 0.3125,0.265625 0.125,0 0.296875,-0.046875 0.515625,-0.109375 0.203125,-0.046875 0.28125,-0.0625 0.375,-0.0625 0,0.171875 -0.0625,0.390625 -0.09375,0.53125 -0.09375,0.4375 -0.09375,0.484375 -0.09375,0.84375 0,1.34375 0.140625,2.78125 0.15625,2.921875 0.015625,0.0625 0.03125,0.09375 0.125,0.09375 0.109375,0 0.109375,-0.03125 0.125,-0.125 0,-0.015625 0.046875,-0.625 0.078125,-1.046875 0.03125,-0.609375 0.0625,-1.21875 0.0625,-1.84375 0,-0.359375 0,-0.40625 -0.09375,-0.859375 -0.015625,-0.0625 -0.078125,-0.34375 -0.09375,-0.515625 z m 0,0"
   id="id-e00ce6c0-3e3f-4f3b-876e-d06f3824f347" />
      </g></g>
    <g
   style="fill:#000000;fill-opacity:1"
   id="id-c5f5d1fe-e5e4-40e6-af54-1215f709fa02">
      <g
   transform="translate(190.781,139.264)"
   id="g38825"><path
   style="stroke:none;stroke-width:0"
   d="M 3.984375,-4.625 C 3.984375,-4.640625 4,-4.734375 4,-4.734375 4,-4.78125 3.984375,-4.84375 3.890625,-4.84375 3.75,-4.84375 3.171875,-4.78125 3,-4.765625 c -0.046875,0 -0.15625,0.015625 -0.15625,0.15625 0,0.09375 0.109375,0.09375 0.1875,0.09375 0.328125,0 0.328125,0.0625 0.328125,0.109375 0,0.046875 0,0.09375 -0.015625,0.15625 L 2.9375,-2.65625 c -0.140625,-0.234375 -0.375,-0.421875 -0.71875,-0.421875 -0.890625,0 -1.796875,0.984375 -1.796875,1.984375 0,0.6875 0.453125,1.15625 1.0625,1.15625 0.375,0 0.703125,-0.203125 0.984375,-0.484375 C 2.59375,0 3,0.0625 3.1875,0.0625 c 0.25,0 0.421875,-0.140625 0.546875,-0.359375 0.15625,-0.28125 0.25,-0.671875 0.25,-0.703125 0,-0.09375 -0.09375,-0.09375 -0.109375,-0.09375 -0.109375,0 -0.109375,0.03125 -0.15625,0.21875 C 3.625,-0.53125 3.5,-0.125 3.203125,-0.125 3.03125,-0.125 2.96875,-0.28125 2.96875,-0.46875 c 0,-0.125 0.015625,-0.1875 0.046875,-0.28125 z M 2.5,-0.875 C 2.453125,-0.671875 2.296875,-0.53125 2.140625,-0.40625 2.078125,-0.34375 1.796875,-0.125 1.5,-0.125 c -0.265625,0 -0.515625,-0.1875 -0.515625,-0.671875 0,-0.375 0.203125,-1.140625 0.375,-1.421875 0.3125,-0.5625 0.671875,-0.65625 0.859375,-0.65625 0.484375,0 0.625,0.53125 0.625,0.609375 0,0.015625 -0.015625,0.078125 -0.015625,0.09375 z m 0,0"
   id="id-10017cc2-5810-4121-b05f-4f5482d19c35" />
      </g><g
   transform="translate(194.928,139.264)"
   id="g38828"><path
   style="stroke:none;stroke-width:0"
   d="m 4.078125,-2.53125 c 0.109375,0 0.1875,0 0.25,-0.046875 0.09375,-0.078125 0.125,-0.1875 0.125,-0.234375 C 4.453125,-3 4.265625,-3 4.140625,-3 H 2.359375 C 1.25,-3 0.40625,-1.90625 0.40625,-1.0625 c 0,0.640625 0.484375,1.125 1.203125,1.125 0.875,0 1.875,-0.78125 1.875,-1.859375 0,-0.109375 0,-0.421875 -0.203125,-0.734375 z M 1.609375,-0.125 c -0.375,0 -0.6875,-0.25 -0.6875,-0.75 0,-0.203125 0.125,-1.65625 1.328125,-1.65625 0.34375,0 0.71875,0.140625 0.71875,0.65625 0,0.140625 -0.0625,0.765625 -0.40625,1.234375 C 2.265625,-0.265625 1.875,-0.125 1.609375,-0.125 Z m 0,0"
   id="id-4eed5166-bfe2-4903-a879-39269620614c" />
      </g></g>
    <g
   style="fill:#000000;fill-opacity:1"
   id="id-4bd57818-bae5-420c-817b-66b151247c3c">
      <g
   transform="translate(200.293,136.259)"
   id="g38832"><path
   style="stroke:none;stroke-width:0"
   d="m 3.953125,-3.78125 c -0.171875,0 -0.296875,0 -0.4375,0.125 -0.171875,0.15625 -0.1875,0.328125 -0.1875,0.390625 0,0.25 0.1875,0.359375 0.375,0.359375 0.28125,0 0.546875,-0.25 0.546875,-0.640625 0,-0.484375 -0.46875,-0.859375 -1.171875,-0.859375 -1.34375,0 -2.671875,1.421875 -2.671875,2.828125 0,0.90625 0.578125,1.6875 1.625,1.6875 1.421875,0 2.25,-1.0625 2.25,-1.171875 0,-0.0625 -0.046875,-0.140625 -0.109375,-0.140625 -0.0625,0 -0.078125,0.03125 -0.140625,0.109375 -0.78125,0.984375 -1.875,0.984375 -1.984375,0.984375 -0.625,0 -0.90625,-0.484375 -0.90625,-1.09375 0,-0.40625 0.203125,-1.375 0.546875,-1.984375 0.3125,-0.578125 0.859375,-1 1.40625,-1 0.328125,0 0.71875,0.125 0.859375,0.40625 z m 0,0"
   id="id-66cf9efc-2ab5-459f-bbcf-1d0300aa6889" />
      </g></g>
    <g
   style="fill:#000000;fill-opacity:1"
   id="id-208fe3f1-54c1-4e8c-80f9-8c093852232b">
      <g
   transform="translate(204.605,137.754)"
   id="g38836"><path
   style="stroke:none;stroke-width:0"
   d="M 3.59375,-2.21875 C 3.59375,-2.984375 3.5,-3.546875 3.1875,-4.03125 2.96875,-4.34375 2.53125,-4.625 1.984375,-4.625 c -1.625,0 -1.625,1.90625 -1.625,2.40625 0,0.5 0,2.359375 1.625,2.359375 1.609375,0 1.609375,-1.859375 1.609375,-2.359375 z M 1.984375,-0.0625 c -0.328125,0 -0.75,-0.1875 -0.890625,-0.75 C 1,-1.21875 1,-1.796875 1,-2.3125 1,-2.828125 1,-3.359375 1.09375,-3.734375 1.25,-4.28125 1.6875,-4.4375 1.984375,-4.4375 c 0.375,0 0.734375,0.234375 0.859375,0.640625 0.109375,0.375 0.125,0.875 0.125,1.484375 0,0.515625 0,1.03125 -0.09375,1.46875 -0.140625,0.640625 -0.609375,0.78125 -0.890625,0.78125 z m 0,0"
   id="id-2c39a773-7d52-4951-99a8-ba9171965fc9" />
      </g></g>
    <g
   style="fill:#000000;fill-opacity:1"
   id="id-e1354b19-0e3a-4288-80bc-f7a557c74ff6">
      <g
   transform="translate(208.576,137.754)"
   id="g38840"><path
   style="stroke:none;stroke-width:0"
   d="m 4.078125,-2.53125 c 0.109375,0 0.1875,0 0.25,-0.046875 0.09375,-0.078125 0.125,-0.1875 0.125,-0.234375 C 4.453125,-3 4.265625,-3 4.140625,-3 H 2.359375 C 1.25,-3 0.40625,-1.90625 0.40625,-1.0625 c 0,0.640625 0.484375,1.125 1.203125,1.125 0.875,0 1.875,-0.78125 1.875,-1.859375 0,-0.109375 0,-0.421875 -0.203125,-0.734375 z M 1.609375,-0.125 c -0.375,0 -0.6875,-0.25 -0.6875,-0.75 0,-0.203125 0.125,-1.65625 1.328125,-1.65625 0.34375,0 0.71875,0.140625 0.71875,0.65625 0,0.140625 -0.0625,0.765625 -0.40625,1.234375 C 2.265625,-0.265625 1.875,-0.125 1.609375,-0.125 Z m 0,0"
   id="id-ea228a8d-c260-4e30-ad11-a2c3fdecf6dc" />
      </g></g>
    <g
   style="fill:#000000;fill-opacity:1"
   id="id-d9a3d576-2f33-4d6d-8d72-12c6a74f6165">
      <g
   transform="translate(216.155,136.259)"
   id="g38844"><path
   style="stroke:none;stroke-width:0"
   d="m 4.078125,-2.296875 h 2.78125 C 7,-2.296875 7.1875,-2.296875 7.1875,-2.5 7.1875,-2.6875 7,-2.6875 6.859375,-2.6875 h -2.78125 v -2.796875 c 0,-0.140625 0,-0.328125 -0.203125,-0.328125 -0.203125,0 -0.203125,0.1875 -0.203125,0.328125 V -2.6875 h -2.78125 c -0.140625,0 -0.328125,0 -0.328125,0.1875 0,0.203125 0.1875,0.203125 0.328125,0.203125 h 2.78125 V 0.5 c 0,0.140625 0,0.328125 0.203125,0.328125 0.203125,0 0.203125,-0.1875 0.203125,-0.328125 z m 0,0"
   id="id-8c1582aa-a87c-4864-9f2a-1cc4f1bbfae4" />
      </g></g>
    <g
   style="fill:#000000;fill-opacity:1"
   id="id-48feaaaf-826a-4d64-a153-f4984d0d1dba">
      <g
   transform="translate(226.116,136.259)"
   id="g38848"><path
   style="stroke:none;stroke-width:0"
   d="m 1.09375,-0.75 c 0,0.4375 -0.109375,0.4375 -0.78125,0.4375 V 0 c 0.359375,-0.015625 0.859375,-0.03125 1.140625,-0.03125 0.25,0 0.765625,0.015625 1.109375,0.03125 v -0.3125 c -0.671875,0 -0.78125,0 -0.78125,-0.4375 V -2.59375 C 1.78125,-3.625 2.5,-4.1875 3.125,-4.1875 c 0.640625,0 0.75,0.53125 0.75,1.109375 V -0.75 c 0,0.4375 -0.109375,0.4375 -0.78125,0.4375 V 0 c 0.34375,-0.015625 0.859375,-0.03125 1.125,-0.03125 0.25,0 0.78125,0.015625 1.109375,0.03125 v -0.3125 c -0.515625,0 -0.765625,0 -0.765625,-0.296875 v -1.90625 c 0,-0.859375 0,-1.15625 -0.3125,-1.515625 -0.140625,-0.171875 -0.46875,-0.375 -1.046875,-0.375 -0.84375,0 -1.28125,0.59375 -1.453125,0.984375 v -3.5 L 0.3125,-6.8125 V -6.5 c 0.703125,0 0.78125,0.0625 0.78125,0.5625 z m 0,0"
   id="id-ae9cbb44-d251-4b8b-af51-9fec27f41a88" />
      </g><g
   transform="translate(231.651,136.259)"
   id="g38851"><path
   style="stroke:none;stroke-width:0"
   d="m 1.90625,-0.53125 c 0,-0.28125 -0.234375,-0.53125 -0.515625,-0.53125 -0.296875,0 -0.53125,0.25 -0.53125,0.53125 C 0.859375,-0.234375 1.09375,0 1.390625,0 1.671875,0 1.90625,-0.234375 1.90625,-0.53125 Z m 0,0"
   id="id-d31e3960-55dc-4e05-947a-3ed8ee65cf07" />
      </g><g
   transform="translate(234.418,136.259)"
   id="g38854"><path
   style="stroke:none;stroke-width:0"
   d="m 1.171875,-2.171875 c 0,-1.625 0.8125,-2.046875 1.34375,-2.046875 0.09375,0 0.71875,0.015625 1.0625,0.375 -0.40625,0.03125 -0.46875,0.328125 -0.46875,0.453125 0,0.265625 0.1875,0.453125 0.453125,0.453125 0.265625,0 0.46875,-0.15625 0.46875,-0.46875 0,-0.671875 -0.765625,-1.0625 -1.53125,-1.0625 -1.25,0 -2.15625,1.078125 -2.15625,2.3125 0,1.28125 0.984375,2.265625 2.140625,2.265625 1.328125,0 1.65625,-1.203125 1.65625,-1.296875 0,-0.09375 -0.109375,-0.09375 -0.140625,-0.09375 -0.078125,0 -0.109375,0.03125 -0.125,0.09375 -0.28125,0.921875 -0.9375,1.046875 -1.296875,1.046875 -0.53125,0 -1.40625,-0.421875 -1.40625,-2.03125 z m 0,0"
   id="id-38c5a5c2-b644-450a-89d6-d406bf807132" />
      </g><g
   transform="translate(238.846,136.259)"
   id="g38857"><path
   style="stroke:none;stroke-width:0"
   d="m 1.90625,-0.53125 c 0,-0.28125 -0.234375,-0.53125 -0.515625,-0.53125 -0.296875,0 -0.53125,0.25 -0.53125,0.53125 C 0.859375,-0.234375 1.09375,0 1.390625,0 1.671875,0 1.90625,-0.234375 1.90625,-0.53125 Z m 0,0"
   id="id-4e909c26-3c5a-4b53-a70b-b150615e9b8b" />
      </g></g>
    <g
   style="fill:#000000;fill-opacity:1"
   id="id-7c651460-4e68-4231-83bf-b987e2221e94">
      <g
   transform="translate(241.615,125.201)"
   id="g38861"><path
   style="stroke:none;stroke-width:0"
   d="m 4.140625,8.5625 c 0,-2.859375 -0.65625,-5.90625 -2.625,-8.140625 C 1.375,0.265625 1,-0.125 0.765625,-0.34375 c -0.0625,-0.0625 -0.09375,-0.0625 -0.21875,-0.0625 -0.09375,0 -0.1875,0 -0.1875,0.109375 0,0.03125 0.046875,0.078125 0.0625,0.09375 0.328125,0.359375 0.875,0.90625 1.484375,2 1.078125,1.90625 1.484375,4.375 1.484375,6.765625 0,4.328125 -1.203125,6.96875 -2.984375,8.796875 C 0.375,17.375 0.359375,17.40625 0.359375,17.4375 c 0,0.09375 0.09375,0.09375 0.1875,0.09375 0.125,0 0.15625,0 0.234375,-0.07813 0.953125,-0.8125 2.015625,-2.203125 2.703125,-4.296875 0.4375,-1.375 0.65625,-2.984375 0.65625,-4.59375 z m 0,0"
   id="id-b2b49bcf-f45e-4424-91c3-16458c68a3ae" />
      </g></g>
  </g>
</g><g
       transform="matrix(3.3235502,0,0,3.3235502,32.712196,9.9261168)"
       ns11:version="1.3.0"
       ns11:texconverter="pdflatex"
       ns11:pdfconverter="inkscape"
       ns11:text="$U$"
       ns11:preamble="/home/abhirup/textext.tex"
       ns11:scale="3.129597934111538"
       ns11:alignment="middle center"
       ns11:inkscapeversion="1.1.1"
       ns11:jacobian_sqrt="4.17279"
       id="g42238"><defs
   id="id-088f6a17-a40d-4ded-b315-9600edb9c916">
    <g
   id="id-ff30ecf1-12ba-40e5-a053-4dae8f0b0a4e">
      <symbol
   overflow="visible"
   id="id-c3438802-b83f-41f7-9dde-4ec7297c6d67">
        <path
   style="stroke:none;stroke-width:0"
   d=""
   id="id-2342c765-1a43-4108-9d85-3dc0b53a2d09" />
      </symbol>
      <symbol
   overflow="visible"
   id="id-60cbe151-d1bb-411b-9490-3192592d7918">
        <path
   style="stroke:none;stroke-width:0"
   d="M 6.328125,-5.765625 C 6.4375,-6.171875 6.609375,-6.46875 7.40625,-6.5 c 0.046875,0 0.171875,-0.015625 0.171875,-0.203125 0,0 0,-0.109375 -0.125,-0.109375 -0.328125,0 -0.6875,0.03125 -1.015625,0.03125 -0.34375,0 -0.71875,-0.03125 -1.046875,-0.03125 -0.0625,0 -0.171875,0 -0.171875,0.203125 C 5.21875,-6.5 5.3125,-6.5 5.390625,-6.5 c 0.578125,0.015625 0.6875,0.21875 0.6875,0.4375 0,0.03125 -0.03125,0.1875 -0.03125,0.203125 l -0.90625,3.5625 C 4.8125,-0.953125 3.65625,-0.09375 2.65625,-0.09375 c -0.671875,0 -1.203125,-0.4375 -1.203125,-1.296875 0,-0.015625 0,-0.328125 0.109375,-0.765625 L 2.515625,-6.046875 C 2.609375,-6.40625 2.625,-6.5 3.359375,-6.5 c 0.265625,0 0.34375,0 0.34375,-0.203125 0,-0.109375 -0.109375,-0.109375 -0.140625,-0.109375 -0.28125,0 -1,0.03125 -1.28125,0.03125 -0.28125,0 -1,-0.03125 -1.28125,-0.03125 -0.078125,0 -0.1875,0 -0.1875,0.203125 C 0.8125,-6.5 0.890625,-6.5 1.09375,-6.5 c 0.015625,0 0.203125,0 0.375,0.015625 0.171875,0.03125 0.265625,0.03125 0.265625,0.171875 0,0.046875 -0.109375,0.46875 -0.171875,0.703125 l -0.21875,0.875 C 1.25,-4.34375 0.78125,-2.46875 0.734375,-2.265625 0.671875,-2 0.671875,-1.84375 0.671875,-1.6875 c 0,1.203125 0.90625,1.90625 1.953125,1.90625 1.25,0 2.484375,-1.125 2.8125,-2.4375 z m 0,0"
   id="id-c4f2c246-cf01-4302-a0d2-23fc54353dcf" />
      </symbol>
    </g>
  </defs>
  <g
   id="id-2023340a-35f1-44fb-80ea-1cbde5d3949e"
   transform="translate(-149.384,-127.953)">
    <g
   style="fill:#000000;fill-opacity:1"
   id="id-57da4c1d-b780-4d7e-83f8-00cc6dd0d092">
      <g
   transform="translate(148.712,134.765)"
   id="g42234"><path
   style="stroke:none;stroke-width:0"
   d="M 6.328125,-5.765625 C 6.4375,-6.171875 6.609375,-6.46875 7.40625,-6.5 c 0.046875,0 0.171875,-0.015625 0.171875,-0.203125 0,0 0,-0.109375 -0.125,-0.109375 -0.328125,0 -0.6875,0.03125 -1.015625,0.03125 -0.34375,0 -0.71875,-0.03125 -1.046875,-0.03125 -0.0625,0 -0.171875,0 -0.171875,0.203125 C 5.21875,-6.5 5.3125,-6.5 5.390625,-6.5 c 0.578125,0.015625 0.6875,0.21875 0.6875,0.4375 0,0.03125 -0.03125,0.1875 -0.03125,0.203125 l -0.90625,3.5625 C 4.8125,-0.953125 3.65625,-0.09375 2.65625,-0.09375 c -0.671875,0 -1.203125,-0.4375 -1.203125,-1.296875 0,-0.015625 0,-0.328125 0.109375,-0.765625 L 2.515625,-6.046875 C 2.609375,-6.40625 2.625,-6.5 3.359375,-6.5 c 0.265625,0 0.34375,0 0.34375,-0.203125 0,-0.109375 -0.109375,-0.109375 -0.140625,-0.109375 -0.28125,0 -1,0.03125 -1.28125,0.03125 -0.28125,0 -1,-0.03125 -1.28125,-0.03125 -0.078125,0 -0.1875,0 -0.1875,0.203125 C 0.8125,-6.5 0.890625,-6.5 1.09375,-6.5 c 0.015625,0 0.203125,0 0.375,0.015625 0.171875,0.03125 0.265625,0.03125 0.265625,0.171875 0,0.046875 -0.109375,0.46875 -0.171875,0.703125 l -0.21875,0.875 C 1.25,-4.34375 0.78125,-2.46875 0.734375,-2.265625 0.671875,-2 0.671875,-1.84375 0.671875,-1.6875 c 0,1.203125 0.90625,1.90625 1.953125,1.90625 1.25,0 2.484375,-1.125 2.8125,-2.4375 z m 0,0"
   id="id-6b5b9aab-9cb2-4e26-81a0-69e172740dcf" />
      </g></g>
  </g>
</g><g
       transform="matrix(2.5783551,0,0,2.5783551,123.57934,8.8034168)"
       ns11:version="1.3.0"
       ns11:texconverter="pdflatex"
       ns11:pdfconverter="inkscape"
       ns11:text="$J^* \\vec{S}_d \\cdot \\vec{s}_0$"
       ns11:preamble="/home/abhirup/textext.tex"
       ns11:scale="3.129597934111538"
       ns11:alignment="middle center"
       ns11:inkscapeversion="1.1.1"
       ns11:jacobian_sqrt="4.17279"
       id="g43072"><defs
   id="id-40995ed5-1946-4a7d-8f8b-381701888376">
    <g
   id="id-e703767f-f835-478f-807c-08cf6568912b">
      <symbol
   overflow="visible"
   id="id-63ec20c0-effc-4b5b-a51e-d02441f82d98">
        <path
   style="stroke:none"
   d=""
   id="id-10e4f8e1-b152-473e-99b7-f287077ff4f6" />
      </symbol>
      <symbol
   overflow="visible"
   id="id-b682b931-7b60-4adb-8a73-b116518d9426">
        <path
   style="stroke:none"
   d="M 5.390625,-6.078125 C 5.46875,-6.40625 5.5,-6.5 6.046875,-6.5 c 0.15625,0 0.265625,0 0.265625,-0.1875 0,-0.09375 -0.0625,-0.125 -0.140625,-0.125 -0.25,0 -0.859375,0.03125 -1.109375,0.03125 -0.328125,0 -1.140625,-0.03125 -1.46875,-0.03125 -0.078125,0 -0.203125,0 -0.203125,0.203125 C 3.390625,-6.5 3.46875,-6.5 3.734375,-6.5 c 0.21875,0 0.328125,0 0.578125,0.015625 0.234375,0.03125 0.296875,0.0625 0.296875,0.203125 0,0.0625 -0.015625,0.125 -0.03125,0.203125 L 3.421875,-1.5 C 3.1875,-0.53125 2.515625,0 2,0 1.734375,0 1.203125,-0.09375 1.046875,-0.625 c 0.03125,0.015625 0.09375,0.015625 0.125,0.015625 0.390625,0 0.640625,-0.34375 0.640625,-0.640625 0,-0.3125 -0.265625,-0.421875 -0.4375,-0.421875 -0.171875,0 -0.671875,0.125 -0.671875,0.796875 0,0.625 0.53125,1.09375 1.328125,1.09375 0.90625,0 1.953125,-0.65625 2.203125,-1.640625 z m 0,0"
   id="id-17cf46a6-deed-4329-8b4a-0ee84f303d3c" />
      </symbol>
      <symbol
   overflow="visible"
   id="id-b1c94777-ce91-4742-b315-dd1643eccd88">
        <path
   style="stroke:none"
   d="m 5.359375,-5.9375 c -0.140625,0.140625 -0.46875,0.421875 -0.46875,0.59375 0,0.09375 0.09375,0.203125 0.1875,0.203125 0.09375,0 0.140625,-0.078125 0.203125,-0.140625 C 5.390625,-5.421875 5.625,-5.703125 6.0625,-5.921875 6.125,-5.96875 6.234375,-6.015625 6.234375,-6.125 6.234375,-6.234375 6.15625,-6.28125 6.09375,-6.328125 5.875,-6.484375 5.765625,-6.65625 5.6875,-6.890625 5.65625,-6.984375 5.625,-7.125 5.484375,-7.125 c -0.140625,0 -0.203125,0.140625 -0.203125,0.21875 0,0.046875 0.078125,0.359375 0.234375,0.578125 H 2.15625 c -0.15625,0 -0.34375,0 -0.34375,0.203125 0,0.1875 0.1875,0.1875 0.34375,0.1875 z m 0,0"
   id="id-5c15b798-0364-4aef-bcd0-cdde42541abe" />
      </symbol>
      <symbol
   overflow="visible"
   id="id-e43a0d2a-a345-41ac-9efc-ae7db5266878">
        <path
   style="stroke:none"
   d="m 6.4375,-6.921875 c 0,-0.03125 -0.03125,-0.109375 -0.125,-0.109375 -0.046875,0 -0.046875,0.015625 -0.171875,0.15625 L 5.65625,-6.3125 c -0.25,-0.46875 -0.765625,-0.71875 -1.421875,-0.71875 -1.265625,0 -2.453125,1.15625 -2.453125,2.359375 0,0.796875 0.515625,1.265625 1.03125,1.40625 l 1.0625,0.28125 c 0.375,0.09375 0.921875,0.25 0.921875,1.0625 0,0.890625 -0.8125,1.828125 -1.796875,1.828125 -0.640625,0 -1.75,-0.21875 -1.75,-1.453125 0,-0.234375 0.0625,-0.484375 0.0625,-0.53125 0.015625,-0.046875 0.015625,-0.0625 0.015625,-0.078125 0,-0.09375 -0.0625,-0.109375 -0.109375,-0.109375 -0.046875,0 -0.078125,0.015625 -0.109375,0.046875 -0.03125,0.03125 -0.59375,2.3125 -0.59375,2.34375 0,0.046875 0.046875,0.09375 0.109375,0.09375 0.046875,0 0.0625,-0.015625 0.1875,-0.15625 L 1.296875,-0.5 c 0.421875,0.578125 1.109375,0.71875 1.6875,0.71875 1.359375,0 2.53125,-1.328125 2.53125,-2.5625 0,-0.6875 -0.34375,-1.03125 -0.484375,-1.171875 C 4.796875,-3.734375 4.640625,-3.78125 3.765625,-4 3.53125,-4.0625 3.1875,-4.171875 3.09375,-4.1875 2.828125,-4.28125 2.484375,-4.5625 2.484375,-5.09375 c 0,-0.8125 0.796875,-1.65625 1.75,-1.65625 0.8125,0 1.421875,0.4375 1.421875,1.546875 0,0.3125 -0.03125,0.5 -0.03125,0.5625 0,0 0,0.09375 0.109375,0.09375 0.109375,0 0.125,-0.03125 0.15625,-0.203125 z m 0,0"
   id="id-3c756841-3737-4682-aa15-9912b72a250d" />
      </symbol>
      <symbol
   overflow="visible"
   id="id-ec0cd569-de4f-4ad0-9f9b-b576ce8b9dab">
        <path
   style="stroke:none"
   d="M 3.890625,-3.734375 C 3.625,-3.71875 3.421875,-3.5 3.421875,-3.28125 c 0,0.140625 0.09375,0.296875 0.3125,0.296875 0.21875,0 0.453125,-0.171875 0.453125,-0.5625 C 4.1875,-4 3.765625,-4.40625 3,-4.40625 c -1.3125,0 -1.6875,1.015625 -1.6875,1.453125 0,0.78125 0.734375,0.921875 1.03125,0.984375 0.515625,0.109375 1.03125,0.21875 1.03125,0.765625 0,0.25 -0.21875,1.09375 -1.421875,1.09375 -0.140625,0 -0.90625,0 -1.140625,-0.53125 0.390625,0.046875 0.640625,-0.25 0.640625,-0.53125 0,-0.21875 -0.171875,-0.34375 -0.375,-0.34375 -0.265625,0 -0.5625,0.203125 -0.5625,0.65625 0,0.5625 0.578125,0.96875 1.421875,0.96875 1.625,0 2.015625,-1.203125 2.015625,-1.65625 0,-0.359375 -0.1875,-0.609375 -0.3125,-0.71875 -0.265625,-0.28125 -0.5625,-0.34375 -1,-0.421875 -0.359375,-0.078125 -0.75,-0.15625 -0.75,-0.609375 C 1.890625,-3.578125 2.125,-4.1875 3,-4.1875 c 0.25,0 0.75,0.078125 0.890625,0.453125 z m 0,0"
   id="id-31adf66f-4379-4125-b190-f4ea20a5806b" />
      </symbol>
      <symbol
   overflow="visible"
   id="id-48124246-3f0f-43ca-bbf0-e88c18b9cda9">
        <path
   style="stroke:none"
   d=""
   id="id-d840a85c-e231-43cc-bdec-f47b484a5baa" />
      </symbol>
      <symbol
   overflow="visible"
   id="id-21f0dbd8-29cf-4691-be74-f27bed189db0">
        <path
   style="stroke:none"
   d="m 2.25,-1.734375 c 0.578125,-0.25 0.828125,-0.34375 1,-0.4375 0.140625,-0.046875 0.203125,-0.078125 0.203125,-0.21875 0,-0.109375 -0.09375,-0.21875 -0.21875,-0.21875 -0.046875,0 -0.0625,0 -0.140625,0.0625 L 2.140625,-1.90625 2.25,-2.9375 c 0.015625,-0.125 0,-0.296875 -0.21875,-0.296875 -0.078125,0 -0.21875,0.046875 -0.21875,0.203125 0,0.0625 0.03125,0.265625 0.046875,0.34375 0.015625,0.109375 0.0625,0.625 0.078125,0.78125 L 0.984375,-2.546875 c -0.0625,-0.03125 -0.078125,-0.0625 -0.140625,-0.0625 -0.140625,0 -0.21875,0.109375 -0.21875,0.21875 0,0.140625 0.078125,0.1875 0.140625,0.203125 L 1.8125,-1.734375 c -0.5625,0.25 -0.828125,0.34375 -1,0.421875 -0.125,0.0625 -0.1875,0.09375 -0.1875,0.21875 0,0.125 0.078125,0.21875 0.21875,0.21875 0.046875,0 0.0625,0 0.140625,-0.0625 l 0.953125,-0.625 -0.125,1.109375 c 0,0.15625 0.140625,0.21875 0.21875,0.21875 0.09375,0 0.21875,-0.0625 0.21875,-0.21875 0,-0.0625 -0.03125,-0.265625 -0.03125,-0.328125 -0.015625,-0.125 -0.0625,-0.625 -0.078125,-0.78125 L 2.96875,-1.015625 C 3.15625,-0.875 3.171875,-0.875 3.234375,-0.875 c 0.125,0 0.21875,-0.09375 0.21875,-0.21875 0,-0.140625 -0.09375,-0.171875 -0.15625,-0.203125 z m 0,0"
   id="id-aa964b8d-4544-465a-b973-77c01fac4a68" />
      </symbol>
      <symbol
   overflow="visible"
   id="id-d83dc3b7-007b-4632-9b48-d4196f0dfb51">
        <path
   style="stroke:none"
   d=""
   id="id-82f41082-cdc9-4d12-8b54-fb3c3249e97c" />
      </symbol>
      <symbol
   overflow="visible"
   id="id-c99c495a-9f48-4f0c-b196-99236bd6fc30">
        <path
   style="stroke:none"
   d="M 3.984375,-4.625 C 3.984375,-4.640625 4,-4.734375 4,-4.734375 4,-4.78125 3.984375,-4.84375 3.890625,-4.84375 3.75,-4.84375 3.171875,-4.78125 3,-4.765625 c -0.046875,0 -0.15625,0.015625 -0.15625,0.15625 0,0.09375 0.109375,0.09375 0.1875,0.09375 0.328125,0 0.328125,0.0625 0.328125,0.109375 0,0.046875 0,0.09375 -0.015625,0.15625 L 2.9375,-2.65625 c -0.140625,-0.234375 -0.375,-0.421875 -0.71875,-0.421875 -0.890625,0 -1.796875,0.984375 -1.796875,1.984375 0,0.6875 0.453125,1.15625 1.0625,1.15625 0.375,0 0.703125,-0.203125 0.984375,-0.484375 C 2.59375,0 3,0.0625 3.1875,0.0625 c 0.25,0 0.421875,-0.140625 0.546875,-0.359375 0.15625,-0.28125 0.25,-0.671875 0.25,-0.703125 0,-0.09375 -0.09375,-0.09375 -0.109375,-0.09375 -0.109375,0 -0.109375,0.03125 -0.15625,0.21875 C 3.625,-0.53125 3.5,-0.125 3.203125,-0.125 3.03125,-0.125 2.96875,-0.28125 2.96875,-0.46875 c 0,-0.125 0.015625,-0.1875 0.046875,-0.28125 z M 2.5,-0.875 C 2.453125,-0.671875 2.296875,-0.53125 2.140625,-0.40625 2.078125,-0.34375 1.796875,-0.125 1.5,-0.125 c -0.265625,0 -0.515625,-0.1875 -0.515625,-0.671875 0,-0.375 0.203125,-1.140625 0.375,-1.421875 0.3125,-0.5625 0.671875,-0.65625 0.859375,-0.65625 0.484375,0 0.625,0.53125 0.625,0.609375 0,0.015625 -0.015625,0.078125 -0.015625,0.09375 z m 0,0"
   id="id-efa80797-a66f-4e1c-a152-a0b005ce90b9" />
      </symbol>
      <symbol
   overflow="visible"
   id="id-0f39922c-9f75-46a7-82bf-d9d577c93a8d">
        <path
   style="stroke:none"
   d=""
   id="id-d60c4318-79a0-462a-a70c-b8c2a47ec0f2" />
      </symbol>
      <symbol
   overflow="visible"
   id="id-e47fd4b8-6ecf-40cf-ac4d-2389dfad5627">
        <path
   style="stroke:none"
   d="m 1.90625,-2.5 c 0,-0.28125 -0.234375,-0.515625 -0.515625,-0.515625 -0.296875,0 -0.53125,0.234375 -0.53125,0.515625 0,0.296875 0.234375,0.53125 0.53125,0.53125 0.28125,0 0.515625,-0.234375 0.515625,-0.53125 z m 0,0"
   id="id-238ced71-c996-4111-9fa0-a7a4fe0c760e" />
      </symbol>
      <symbol
   overflow="visible"
   id="id-46105436-8e6e-4f8b-88c0-86329ff17d2d">
        <path
   style="stroke:none"
   d=""
   id="id-68e4ef14-8721-4d0a-aa2a-60479233b1d0" />
      </symbol>
      <symbol
   overflow="visible"
   id="id-27009993-4b1d-4041-ab3d-b43057d27e0b">
        <path
   style="stroke:none"
   d="M 3.59375,-2.21875 C 3.59375,-2.984375 3.5,-3.546875 3.1875,-4.03125 2.96875,-4.34375 2.53125,-4.625 1.984375,-4.625 c -1.625,0 -1.625,1.90625 -1.625,2.40625 0,0.5 0,2.359375 1.625,2.359375 1.609375,0 1.609375,-1.859375 1.609375,-2.359375 z M 1.984375,-0.0625 c -0.328125,0 -0.75,-0.1875 -0.890625,-0.75 C 1,-1.21875 1,-1.796875 1,-2.3125 1,-2.828125 1,-3.359375 1.09375,-3.734375 1.25,-4.28125 1.6875,-4.4375 1.984375,-4.4375 c 0.375,0 0.734375,0.234375 0.859375,0.640625 0.109375,0.375 0.125,0.875 0.125,1.484375 0,0.515625 0,1.03125 -0.09375,1.46875 -0.140625,0.640625 -0.609375,0.78125 -0.890625,0.78125 z m 0,0"
   id="id-dbe7839c-b736-465a-bc81-39459aea21f9" />
      </symbol>
    </g>
  </defs>
  <g
   id="id-bca35b3a-81e6-4ba9-b4e5-19203b15fd14"
   transform="translate(-149.415,-125.121)">
    <g
   style="fill:#000000;fill-opacity:1"
   id="id-dfc03d8f-a319-40f9-a1ee-74c318e19e6b">
      <g
   transform="translate(148.712,134.765)"
   id="g43541"><path
   style="stroke:none"
   d="M 5.390625,-6.078125 C 5.46875,-6.40625 5.5,-6.5 6.046875,-6.5 c 0.15625,0 0.265625,0 0.265625,-0.1875 0,-0.09375 -0.0625,-0.125 -0.140625,-0.125 -0.25,0 -0.859375,0.03125 -1.109375,0.03125 -0.328125,0 -1.140625,-0.03125 -1.46875,-0.03125 -0.078125,0 -0.203125,0 -0.203125,0.203125 C 3.390625,-6.5 3.46875,-6.5 3.734375,-6.5 c 0.21875,0 0.328125,0 0.578125,0.015625 0.234375,0.03125 0.296875,0.0625 0.296875,0.203125 0,0.0625 -0.015625,0.125 -0.03125,0.203125 L 3.421875,-1.5 C 3.1875,-0.53125 2.515625,0 2,0 1.734375,0 1.203125,-0.09375 1.046875,-0.625 c 0.03125,0.015625 0.09375,0.015625 0.125,0.015625 0.390625,0 0.640625,-0.34375 0.640625,-0.640625 0,-0.3125 -0.265625,-0.421875 -0.4375,-0.421875 -0.171875,0 -0.671875,0.125 -0.671875,0.796875 0,0.625 0.53125,1.09375 1.328125,1.09375 0.90625,0 1.953125,-0.65625 2.203125,-1.640625 z m 0,0"
   id="id-f663377e-ded5-4512-8851-c119edd136e1" />
      </g></g>
    <g
   style="fill:#000000;fill-opacity:1"
   id="id-c67849c2-2d60-42e1-bb3a-af1c1ea3baa2">
      <g
   transform="translate(155.195,131.149)"
   id="g43545"><path
   style="stroke:none"
   d="m 2.25,-1.734375 c 0.578125,-0.25 0.828125,-0.34375 1,-0.4375 0.140625,-0.046875 0.203125,-0.078125 0.203125,-0.21875 0,-0.109375 -0.09375,-0.21875 -0.21875,-0.21875 -0.046875,0 -0.0625,0 -0.140625,0.0625 L 2.140625,-1.90625 2.25,-2.9375 c 0.015625,-0.125 0,-0.296875 -0.21875,-0.296875 -0.078125,0 -0.21875,0.046875 -0.21875,0.203125 0,0.0625 0.03125,0.265625 0.046875,0.34375 0.015625,0.109375 0.0625,0.625 0.078125,0.78125 L 0.984375,-2.546875 c -0.0625,-0.03125 -0.078125,-0.0625 -0.140625,-0.0625 -0.140625,0 -0.21875,0.109375 -0.21875,0.21875 0,0.140625 0.078125,0.1875 0.140625,0.203125 L 1.8125,-1.734375 c -0.5625,0.25 -0.828125,0.34375 -1,0.421875 -0.125,0.0625 -0.1875,0.09375 -0.1875,0.21875 0,0.125 0.078125,0.21875 0.21875,0.21875 0.046875,0 0.0625,0 0.140625,-0.0625 l 0.953125,-0.625 -0.125,1.109375 c 0,0.15625 0.140625,0.21875 0.21875,0.21875 0.09375,0 0.21875,-0.0625 0.21875,-0.21875 0,-0.0625 -0.03125,-0.265625 -0.03125,-0.328125 -0.015625,-0.125 -0.0625,-0.625 -0.078125,-0.78125 L 2.96875,-1.015625 C 3.15625,-0.875 3.171875,-0.875 3.234375,-0.875 c 0.125,0 0.21875,-0.09375 0.21875,-0.21875 0,-0.140625 -0.09375,-0.171875 -0.15625,-0.203125 z m 0,0"
   id="id-a7f66ea9-9c59-4f80-87f6-3c9c3e69978c" />
      </g></g>
    <g
   style="fill:#000000;fill-opacity:1"
   id="id-e9951912-304c-4c38-9408-0835688df74f">
      <g
   transform="translate(160.69,132.246)"
   id="g43549"><path
   style="stroke:none"
   d="m 5.359375,-5.9375 c -0.140625,0.140625 -0.46875,0.421875 -0.46875,0.59375 0,0.09375 0.09375,0.203125 0.1875,0.203125 0.09375,0 0.140625,-0.078125 0.203125,-0.140625 C 5.390625,-5.421875 5.625,-5.703125 6.0625,-5.921875 6.125,-5.96875 6.234375,-6.015625 6.234375,-6.125 6.234375,-6.234375 6.15625,-6.28125 6.09375,-6.328125 5.875,-6.484375 5.765625,-6.65625 5.6875,-6.890625 5.65625,-6.984375 5.625,-7.125 5.484375,-7.125 c -0.140625,0 -0.203125,0.140625 -0.203125,0.21875 0,0.046875 0.078125,0.359375 0.234375,0.578125 H 2.15625 c -0.15625,0 -0.34375,0 -0.34375,0.203125 0,0.1875 0.1875,0.1875 0.34375,0.1875 z m 0,0"
   id="id-f47577fc-11d6-45cc-b7c5-a7aed57cbe36" />
      </g></g>
    <g
   style="fill:#000000;fill-opacity:1"
   id="id-393c735f-9d23-4646-b2c8-25a64ac6715d">
      <g
   transform="translate(159.775,134.765)"
   id="g43553"><path
   style="stroke:none"
   d="m 6.4375,-6.921875 c 0,-0.03125 -0.03125,-0.109375 -0.125,-0.109375 -0.046875,0 -0.046875,0.015625 -0.171875,0.15625 L 5.65625,-6.3125 c -0.25,-0.46875 -0.765625,-0.71875 -1.421875,-0.71875 -1.265625,0 -2.453125,1.15625 -2.453125,2.359375 0,0.796875 0.515625,1.265625 1.03125,1.40625 l 1.0625,0.28125 c 0.375,0.09375 0.921875,0.25 0.921875,1.0625 0,0.890625 -0.8125,1.828125 -1.796875,1.828125 -0.640625,0 -1.75,-0.21875 -1.75,-1.453125 0,-0.234375 0.0625,-0.484375 0.0625,-0.53125 0.015625,-0.046875 0.015625,-0.0625 0.015625,-0.078125 0,-0.09375 -0.0625,-0.109375 -0.109375,-0.109375 -0.046875,0 -0.078125,0.015625 -0.109375,0.046875 -0.03125,0.03125 -0.59375,2.3125 -0.59375,2.34375 0,0.046875 0.046875,0.09375 0.109375,0.09375 0.046875,0 0.0625,-0.015625 0.1875,-0.15625 L 1.296875,-0.5 c 0.421875,0.578125 1.109375,0.71875 1.6875,0.71875 1.359375,0 2.53125,-1.328125 2.53125,-2.5625 0,-0.6875 -0.34375,-1.03125 -0.484375,-1.171875 C 4.796875,-3.734375 4.640625,-3.78125 3.765625,-4 3.53125,-4.0625 3.1875,-4.171875 3.09375,-4.1875 2.828125,-4.28125 2.484375,-4.5625 2.484375,-5.09375 c 0,-0.8125 0.796875,-1.65625 1.75,-1.65625 0.8125,0 1.421875,0.4375 1.421875,1.546875 0,0.3125 -0.03125,0.5 -0.03125,0.5625 0,0 0,0.09375 0.109375,0.09375 0.109375,0 0.125,-0.03125 0.15625,-0.203125 z m 0,0"
   id="id-94ecbd33-5ee5-4cd6-ab91-0edc0ff4220d" />
      </g></g>
    <g
   style="fill:#000000;fill-opacity:1"
   id="id-9a88eea7-4bbc-434b-bb96-5e9c7d6f6983">
      <g
   transform="translate(165.884,136.259)"
   id="g43557"><path
   style="stroke:none"
   d="M 3.984375,-4.625 C 3.984375,-4.640625 4,-4.734375 4,-4.734375 4,-4.78125 3.984375,-4.84375 3.890625,-4.84375 3.75,-4.84375 3.171875,-4.78125 3,-4.765625 c -0.046875,0 -0.15625,0.015625 -0.15625,0.15625 0,0.09375 0.109375,0.09375 0.1875,0.09375 0.328125,0 0.328125,0.0625 0.328125,0.109375 0,0.046875 0,0.09375 -0.015625,0.15625 L 2.9375,-2.65625 c -0.140625,-0.234375 -0.375,-0.421875 -0.71875,-0.421875 -0.890625,0 -1.796875,0.984375 -1.796875,1.984375 0,0.6875 0.453125,1.15625 1.0625,1.15625 0.375,0 0.703125,-0.203125 0.984375,-0.484375 C 2.59375,0 3,0.0625 3.1875,0.0625 c 0.25,0 0.421875,-0.140625 0.546875,-0.359375 0.15625,-0.28125 0.25,-0.671875 0.25,-0.703125 0,-0.09375 -0.09375,-0.09375 -0.109375,-0.09375 -0.109375,0 -0.109375,0.03125 -0.15625,0.21875 C 3.625,-0.53125 3.5,-0.125 3.203125,-0.125 3.03125,-0.125 2.96875,-0.28125 2.96875,-0.46875 c 0,-0.125 0.015625,-0.1875 0.046875,-0.28125 z M 2.5,-0.875 C 2.453125,-0.671875 2.296875,-0.53125 2.140625,-0.40625 2.078125,-0.34375 1.796875,-0.125 1.5,-0.125 c -0.265625,0 -0.515625,-0.1875 -0.515625,-0.671875 0,-0.375 0.203125,-1.140625 0.375,-1.421875 0.3125,-0.5625 0.671875,-0.65625 0.859375,-0.65625 0.484375,0 0.625,0.53125 0.625,0.609375 0,0.015625 -0.015625,0.078125 -0.015625,0.09375 z m 0,0"
   id="id-eaf320d9-3280-4ba1-b886-ba6a2fd46838" />
      </g></g>
    <g
   style="fill:#000000;fill-opacity:1"
   id="id-8af0dc05-cee3-430b-9c4e-d09d2464e869">
      <g
   transform="translate(172.743,134.765)"
   id="g43561"><path
   style="stroke:none"
   d="m 1.90625,-2.5 c 0,-0.28125 -0.234375,-0.515625 -0.515625,-0.515625 -0.296875,0 -0.53125,0.234375 -0.53125,0.515625 0,0.296875 0.234375,0.53125 0.53125,0.53125 0.28125,0 0.515625,-0.234375 0.515625,-0.53125 z m 0,0"
   id="id-7de5070a-3852-4ede-9a99-205a8ae0a933" />
      </g></g>
    <g
   style="fill:#000000;fill-opacity:1"
   id="id-e0062f30-17d9-4888-a9c5-f938e78b97f8">
      <g
   transform="translate(177.356,134.765)"
   id="g43565"><path
   style="stroke:none"
   d="m 5.359375,-5.9375 c -0.140625,0.140625 -0.46875,0.421875 -0.46875,0.59375 0,0.09375 0.09375,0.203125 0.1875,0.203125 0.09375,0 0.140625,-0.078125 0.203125,-0.140625 C 5.390625,-5.421875 5.625,-5.703125 6.0625,-5.921875 6.125,-5.96875 6.234375,-6.015625 6.234375,-6.125 6.234375,-6.234375 6.15625,-6.28125 6.09375,-6.328125 5.875,-6.484375 5.765625,-6.65625 5.6875,-6.890625 5.65625,-6.984375 5.625,-7.125 5.484375,-7.125 c -0.140625,0 -0.203125,0.140625 -0.203125,0.21875 0,0.046875 0.078125,0.359375 0.234375,0.578125 H 2.15625 c -0.15625,0 -0.34375,0 -0.34375,0.203125 0,0.1875 0.1875,0.1875 0.34375,0.1875 z m 0,0"
   id="id-509fdf6a-ae4a-422a-b93b-29957746ed46" />
      </g></g>
    <g
   style="fill:#000000;fill-opacity:1"
   id="id-46c593f3-4fb5-4e2d-9234-b1a4d38ded49">
      <g
   transform="translate(177.725,134.765)"
   id="g43569"><path
   style="stroke:none"
   d="M 3.890625,-3.734375 C 3.625,-3.71875 3.421875,-3.5 3.421875,-3.28125 c 0,0.140625 0.09375,0.296875 0.3125,0.296875 0.21875,0 0.453125,-0.171875 0.453125,-0.5625 C 4.1875,-4 3.765625,-4.40625 3,-4.40625 c -1.3125,0 -1.6875,1.015625 -1.6875,1.453125 0,0.78125 0.734375,0.921875 1.03125,0.984375 0.515625,0.109375 1.03125,0.21875 1.03125,0.765625 0,0.25 -0.21875,1.09375 -1.421875,1.09375 -0.140625,0 -0.90625,0 -1.140625,-0.53125 0.390625,0.046875 0.640625,-0.25 0.640625,-0.53125 0,-0.21875 -0.171875,-0.34375 -0.375,-0.34375 -0.265625,0 -0.5625,0.203125 -0.5625,0.65625 0,0.5625 0.578125,0.96875 1.421875,0.96875 1.625,0 2.015625,-1.203125 2.015625,-1.65625 0,-0.359375 -0.1875,-0.609375 -0.3125,-0.71875 -0.265625,-0.28125 -0.5625,-0.34375 -1,-0.421875 -0.359375,-0.078125 -0.75,-0.15625 -0.75,-0.609375 C 1.890625,-3.578125 2.125,-4.1875 3,-4.1875 c 0.25,0 0.75,0.078125 0.890625,0.453125 z m 0,0"
   id="id-ba739979-34c8-476a-a338-8f164cb96389" />
      </g></g>
    <g
   style="fill:#000000;fill-opacity:1"
   id="id-3689596a-1e83-42b4-8af7-1e81e240eaa3">
      <g
   transform="translate(182.395,136.259)"
   id="g43573"><path
   style="stroke:none"
   d="M 3.59375,-2.21875 C 3.59375,-2.984375 3.5,-3.546875 3.1875,-4.03125 2.96875,-4.34375 2.53125,-4.625 1.984375,-4.625 c -1.625,0 -1.625,1.90625 -1.625,2.40625 0,0.5 0,2.359375 1.625,2.359375 1.609375,0 1.609375,-1.859375 1.609375,-2.359375 z M 1.984375,-0.0625 c -0.328125,0 -0.75,-0.1875 -0.890625,-0.75 C 1,-1.21875 1,-1.796875 1,-2.3125 1,-2.828125 1,-3.359375 1.09375,-3.734375 1.25,-4.28125 1.6875,-4.4375 1.984375,-4.4375 c 0.375,0 0.734375,0.234375 0.859375,0.640625 0.109375,0.375 0.125,0.875 0.125,1.484375 0,0.515625 0,1.03125 -0.09375,1.46875 -0.140625,0.640625 -0.609375,0.78125 -0.890625,0.78125 z m 0,0"
   id="id-fd90c4ab-c61d-4f15-8574-d72ec02bafa1" />
      </g></g>
  </g>
</g></g></svg>
