<?xml version="1.0" encoding="UTF-8" standalone="no"?>
<!-- Created with Inkscape (http://www.inkscape.org/) -->

<svg
   width="161.99658mm"
   height="78.195427mm"
   viewBox="0 0 161.99657 78.195426"
   version="1.1"
   id="svg5"
   sodipodi:docname="urg-scheme.svg"
   inkscape:version="1.1.2 (0a00cf5339, 2022-02-04, custom)"
   xmlns:inkscape="http://www.inkscape.org/namespaces/inkscape"
   xmlns:sodipodi="http://sodipodi.sourceforge.net/DTD/sodipodi-0.dtd"
   xmlns:xlink="http://www.w3.org/1999/xlink"
   xmlns="http://www.w3.org/2000/svg"
   xmlns:svg="http://www.w3.org/2000/svg"
   xmlns:ns2="http://www.iki.fi/pav/software/textext/">
  <sodipodi:namedview
     id="namedview7"
     pagecolor="#ffffff"
     bordercolor="#666666"
     borderopacity="1.0"
     inkscape:pageshadow="2"
     inkscape:pageopacity="0.0"
     inkscape:pagecheckerboard="0"
     inkscape:document-units="mm"
     showgrid="false"
     inkscape:snap-midpoints="true"
     inkscape:snap-global="true"
     inkscape:zoom="0.50511364"
     inkscape:cx="369.22385"
     inkscape:cy="287.06412"
     inkscape:window-width="1024"
     inkscape:window-height="736"
     inkscape:window-x="0"
     inkscape:window-y="32"
     inkscape:window-maximized="1"
     inkscape:current-layer="layer1" />
  <defs
     id="defs2">
    <linearGradient
       inkscape:collect="always"
       id="linearGradient20321">
      <stop
         style="stop-color:#ff1700;stop-opacity:1;"
         offset="0"
         id="stop20317" />
      <stop
         style="stop-color:#ff1700;stop-opacity:0;"
         offset="1"
         id="stop20319" />
    </linearGradient>
    <inkscape:path-effect
       effect="spiro"
       id="path-effect8129"
       is_visible="true"
       lpeversion="1" />
    <inkscape:path-effect
       effect="spiro"
       id="path-effect8123"
       is_visible="true"
       lpeversion="1" />
    <inkscape:path-effect
       effect="spiro"
       id="path-effect7957"
       is_visible="true"
       lpeversion="1" />
    <inkscape:path-effect
       effect="spiro"
       id="path-effect7951"
       is_visible="true"
       lpeversion="1" />
    <inkscape:path-effect
       effect="spiro"
       id="path-effect7785"
       is_visible="true"
       lpeversion="1" />
    <inkscape:path-effect
       effect="spiro"
       id="path-effect7779"
       is_visible="true"
       lpeversion="1" />
    <marker
       style="overflow:visible"
       id="Arrow2Mend"
       refX="0"
       refY="0"
       orient="auto"
       inkscape:stockid="Arrow2Mend"
       inkscape:isstock="true">
      <path
         transform="scale(-0.6)"
         d="M 8.7185878,4.0337352 -2.2072895,0.01601326 8.7185884,-4.0017078 c -1.7454984,2.3720609 -1.7354408,5.6174519 -6e-7,8.035443 z"
         style="fill:context-stroke;fill-rule:evenodd;stroke:context-stroke;stroke-width:0.625;stroke-linejoin:round"
         id="path7022" />
    </marker>
    <marker
       style="overflow:visible"
       id="Arrow2Lend"
       refX="0"
       refY="0"
       orient="auto"
       inkscape:stockid="Arrow2Lend"
       inkscape:isstock="true">
      <path
         transform="matrix(-1.1,0,0,-1.1,-1.1,0)"
         d="M 8.7185878,4.0337352 -2.2072895,0.01601326 8.7185884,-4.0017078 c -1.7454984,2.3720609 -1.7354408,5.6174519 -6e-7,8.035443 z"
         style="fill:context-stroke;fill-rule:evenodd;stroke:context-stroke;stroke-width:0.625;stroke-linejoin:round"
         id="path7016" />
    </marker>
    <marker
       style="overflow:visible"
       id="Arrow2Lstart"
       refX="0"
       refY="0"
       orient="auto"
       inkscape:stockid="Arrow2Lstart"
       inkscape:isstock="true">
      <path
         transform="matrix(1.1,0,0,1.1,1.1,0)"
         d="M 8.7185878,4.0337352 -2.2072895,0.01601326 8.7185884,-4.0017078 c -1.7454984,2.3720609 -1.7354408,5.6174519 -6e-7,8.035443 z"
         style="fill:context-stroke;fill-rule:evenodd;stroke:context-stroke;stroke-width:0.625;stroke-linejoin:round"
         id="path7013" />
    </marker>
    <inkscape:path-effect
       effect="spiro"
       id="path-effect6913"
       is_visible="true"
       lpeversion="1" />
    <inkscape:path-effect
       effect="spiro"
       id="path-effect2246"
       is_visible="true"
       lpeversion="1" />
    <inkscape:path-effect
       effect="spiro"
       id="path-effect2240"
       is_visible="true"
       lpeversion="1" />
    <inkscape:path-effect
       effect="spiro"
       id="path-effect2234"
       is_visible="true"
       lpeversion="1" />
    <inkscape:path-effect
       effect="spiro"
       id="path-effect2228"
       is_visible="true"
       lpeversion="1" />
    <inkscape:path-effect
       effect="spiro"
       id="path-effect1966"
       is_visible="true"
       lpeversion="1" />
    <inkscape:path-effect
       effect="spiro"
       id="path-effect1736"
       is_visible="true"
       lpeversion="1" />
    <inkscape:path-effect
       effect="spiro"
       id="path-effect1393"
       is_visible="true"
       lpeversion="1" />
    <inkscape:path-effect
       effect="spiro"
       id="path-effect859"
       is_visible="true"
       lpeversion="1" />
    <inkscape:path-effect
       effect="spiro"
       id="path-effect859-3"
       is_visible="true"
       lpeversion="1" />
    <inkscape:path-effect
       effect="spiro"
       id="path-effect859-7"
       is_visible="true"
       lpeversion="1" />
    <linearGradient
       inkscape:collect="always"
       xlink:href="#linearGradient20321"
       id="linearGradient20323"
       x1="-169.89351"
       y1="106.5851"
       x2="-7.9520392"
       y2="106.5851"
       gradientUnits="userSpaceOnUse" />
  </defs>
  <g
     inkscape:label="Layer 1"
     inkscape:groupmode="layer"
     id="layer1"
     transform="translate(-7.8969271,-72.828707)">
    <path
       style="fill:none;stroke:#000000;stroke-width:0.888171;stroke-linecap:butt;stroke-linejoin:miter;stroke-miterlimit:4;stroke-dasharray:1.77634, 0.888171;stroke-dashoffset:0;stroke-opacity:1"
       d="m 15.636638,84.190618 c 5.861971,5.444664 9.324372,13.38608 9.324372,21.386522 0,8.00044 -3.462401,15.94186 -9.324372,21.38652"
       id="path1964"
       inkscape:path-effect="#path-effect1966"
       inkscape:original-d="m 15.636638,84.190618 c 3.108389,7.129049 6.216512,14.25789 9.324372,21.386522 3.107856,7.12863 -6.215983,14.25789 -9.324372,21.38652" />
    <path
       style="fill:none;stroke:#000000;stroke-width:0.888171;stroke-linecap:butt;stroke-linejoin:miter;stroke-miterlimit:4;stroke-dasharray:1.77634, 0.888171;stroke-dashoffset:0;stroke-opacity:1"
       d="m 84.428309,84.190618 c 5.861971,5.444664 9.324372,13.38608 9.324372,21.386522 0,8.00044 -3.462401,15.94186 -9.324372,21.38652"
       id="path2230"
       inkscape:path-effect="#path-effect2234"
       inkscape:original-d="m 84.428309,84.190618 c 3.108389,7.129049 6.216512,14.25789 9.324372,21.386522 3.107856,7.12863 -6.215983,14.25789 -9.324372,21.38652" />
    <path
       style="fill:none;stroke:#000000;stroke-width:0.888171;stroke-linecap:butt;stroke-linejoin:miter;stroke-miterlimit:4;stroke-dasharray:1.77634, 0.888171;stroke-dashoffset:0;stroke-opacity:1"
       d="m 132.05333,84.190618 c 5.86197,5.444665 9.32437,13.38608 9.32437,21.386522 0,8.00044 -3.4624,15.94186 -9.32437,21.38652"
       id="path2236"
       inkscape:path-effect="#path-effect2240"
       inkscape:original-d="m 132.05333,84.190618 c 3.10839,7.129049 6.21651,14.25789 9.32437,21.386522 3.10786,7.12863 -6.21598,14.25789 -9.32437,21.38652" />
    <path
       style="fill:none;stroke:#000000;stroke-width:0.888171;stroke-linecap:butt;stroke-linejoin:miter;stroke-miterlimit:4;stroke-dasharray:1.77634, 0.888171;stroke-dashoffset:0;stroke-opacity:1"
       d="m 153.22001,84.190618 c 5.86197,5.444665 9.32437,13.38608 9.32437,21.386522 0,8.00044 -3.4624,15.94186 -9.32437,21.38652"
       id="path2242"
       inkscape:path-effect="#path-effect2246"
       inkscape:original-d="m 153.22001,84.190618 c 3.10839,7.129049 6.21651,14.25789 9.32437,21.386522 3.10786,7.12863 -6.21598,14.25789 -9.32437,21.38652" />
    <g
       transform="matrix(1.3475261,0,0,1.3475261,9.7520243,102.88936)"
       ns2:version="1.3.0"
       ns2:texconverter="pdflatex"
       ns2:pdfconverter="inkscape"
       ns2:text="$\\epsilon_F$"
       ns2:preamble="/home/abhirup/textext.tex"
       ns2:scale="2.5"
       ns2:alignment="middle center"
       ns2:jacobian_sqrt="0.661458"
       id="g2300">
      <defs
         id="id-6a1871ca-226f-4364-a520-999822156b52">
        <g
           id="id-4433d989-912a-457c-8d72-0706aec2de3a">
          <g
             id="id-2c47d2cb-a5ec-4674-819b-453de2907354" />
          <g
             id="id-f6803fce-3a2d-473c-a70f-0be6c78f8da6">
            <path
               d="m 2.96875,-2.25 c 0.15625,0 0.34375,0 0.34375,-0.171875 C 3.3125,-2.5625 3.1875,-2.5625 3.015625,-2.5625 H 1.40625 c 0.234375,-0.84375 0.796875,-1.421875 1.703125,-1.421875 h 0.3125 c 0.171875,0 0.328125,0 0.328125,-0.171875 0,-0.140625 -0.125,-0.140625 -0.296875,-0.140625 H 3.09375 c -1.296875,0 -2.625,1 -2.625,2.515625 0,1.109375 0.75,1.890625 1.796875,1.890625 0.65625,0 1.296875,-0.40625 1.296875,-0.515625 0,-0.015625 0,-0.125 -0.09375,-0.125 -0.015625,0 -0.046875,0 -0.125,0.046875 -0.3125,0.203125 -0.6875,0.375 -1.046875,0.375 -0.578125,0 -1.078125,-0.421875 -1.078125,-1.296875 0,-0.34375 0.078125,-0.734375 0.109375,-0.84375 z m 0,0"
               id="id-e5205daf-f5fe-4649-b0c7-99054d5fc795" />
          </g>
          <g
             id="id-0a9849e6-1a15-47ea-ac62-9562517a8847" />
          <g
             id="id-994e6f4d-e2ad-4d8e-a8a3-dcb1dfdc8e4f">
            <path
               d="M 2.390625,-2.25 H 3.125 c 0.53125,0 0.625,0.09375 0.625,0.3125 0,0.109375 0,0.125 -0.046875,0.328125 -0.015625,0.03125 -0.03125,0.0625 -0.03125,0.078125 0,0.0625 0.0625,0.109375 0.125,0.109375 0.09375,0 0.09375,-0.046875 0.140625,-0.171875 l 0.375,-1.46875 c 0,-0.03125 0.015625,-0.125 0.015625,-0.140625 0,-0.078125 -0.046875,-0.109375 -0.109375,-0.109375 -0.09375,0 -0.109375,0.046875 -0.140625,0.171875 C 3.9375,-2.59375 3.734375,-2.5 3.140625,-2.5 h -0.6875 l 0.4375,-1.75 c 0.046875,-0.203125 0.0625,-0.234375 0.34375,-0.234375 H 4.3125 c 0.921875,0 1.09375,0.21875 1.09375,0.8125 0,0.21875 -0.03125,0.375 -0.03125,0.421875 0,0.0625 0.03125,0.125 0.125,0.125 0.109375,0 0.109375,-0.0625 0.125,-0.1875 L 5.75,-4.515625 c 0.015625,-0.21875 -0.03125,-0.21875 -0.203125,-0.21875 h -3.71875 c -0.140625,0 -0.21875,0 -0.21875,0.15625 0,0.09375 0.078125,0.09375 0.21875,0.09375 0,0 0.140625,0 0.265625,0.015625 C 2.234375,-4.453125 2.25,-4.4375 2.25,-4.375 c 0,0.046875 -0.015625,0.125 -0.03125,0.15625 L 1.3125,-0.578125 C 1.234375,-0.296875 1.234375,-0.25 0.6875,-0.25 c -0.109375,0 -0.203125,0 -0.203125,0.140625 C 0.484375,-0.03125 0.53125,0 0.59375,0 0.796875,0 1.3125,-0.03125 1.515625,-0.03125 l 0.53125,0.015625 C 2.234375,-0.015625 2.421875,0 2.59375,0 2.640625,0 2.75,0 2.75,-0.15625 2.75,-0.25 2.671875,-0.25 2.515625,-0.25 c -0.015625,0 -0.1875,0 -0.375,-0.015625 C 2,-0.28125 1.9375,-0.28125 1.9375,-0.390625 c 0,-0.015625 0,-0.046875 0.015625,-0.125 z m 0,0"
               id="id-19b9de86-76cc-486f-b7f4-b6d92fa5d362" />
          </g>
        </g>
      </defs>
      <g
         fill="#000000"
         fill-opacity="1"
         id="id-caaee2c4-1e01-4aec-8551-0f3490e18da9"
         transform="translate(-149.181,-130.468)">
        <g
           transform="translate(148.712,134.765)"
           id="g2293">
          <path
             d="m 2.96875,-2.25 c 0.15625,0 0.34375,0 0.34375,-0.171875 C 3.3125,-2.5625 3.1875,-2.5625 3.015625,-2.5625 H 1.40625 c 0.234375,-0.84375 0.796875,-1.421875 1.703125,-1.421875 h 0.3125 c 0.171875,0 0.328125,0 0.328125,-0.171875 0,-0.140625 -0.125,-0.140625 -0.296875,-0.140625 H 3.09375 c -1.296875,0 -2.625,1 -2.625,2.515625 0,1.109375 0.75,1.890625 1.796875,1.890625 0.65625,0 1.296875,-0.40625 1.296875,-0.515625 0,-0.015625 0,-0.125 -0.09375,-0.125 -0.015625,0 -0.046875,0 -0.125,0.046875 -0.3125,0.203125 -0.6875,0.375 -1.046875,0.375 -0.578125,0 -1.078125,-0.421875 -1.078125,-1.296875 0,-0.34375 0.078125,-0.734375 0.109375,-0.84375 z m 0,0"
             id="id-4b11c1e2-c467-4191-949d-e88ee595e0be" />
        </g>
      </g>
      <g
         fill="#000000"
         fill-opacity="1"
         id="id-0a720d43-260d-4c18-839b-a3054b05240c"
         transform="translate(-149.181,-130.468)">
        <g
           transform="translate(152.756,136.259)"
           id="g2297">
          <path
             d="M 2.390625,-2.25 H 3.125 c 0.53125,0 0.625,0.09375 0.625,0.3125 0,0.109375 0,0.125 -0.046875,0.328125 -0.015625,0.03125 -0.03125,0.0625 -0.03125,0.078125 0,0.0625 0.0625,0.109375 0.125,0.109375 0.09375,0 0.09375,-0.046875 0.140625,-0.171875 l 0.375,-1.46875 c 0,-0.03125 0.015625,-0.125 0.015625,-0.140625 0,-0.078125 -0.046875,-0.109375 -0.109375,-0.109375 -0.09375,0 -0.109375,0.046875 -0.140625,0.171875 C 3.9375,-2.59375 3.734375,-2.5 3.140625,-2.5 h -0.6875 l 0.4375,-1.75 c 0.046875,-0.203125 0.0625,-0.234375 0.34375,-0.234375 H 4.3125 c 0.921875,0 1.09375,0.21875 1.09375,0.8125 0,0.21875 -0.03125,0.375 -0.03125,0.421875 0,0.0625 0.03125,0.125 0.125,0.125 0.109375,0 0.109375,-0.0625 0.125,-0.1875 L 5.75,-4.515625 c 0.015625,-0.21875 -0.03125,-0.21875 -0.203125,-0.21875 h -3.71875 c -0.140625,0 -0.21875,0 -0.21875,0.15625 0,0.09375 0.078125,0.09375 0.21875,0.09375 0,0 0.140625,0 0.265625,0.015625 C 2.234375,-4.453125 2.25,-4.4375 2.25,-4.375 c 0,0.046875 -0.015625,0.125 -0.03125,0.15625 L 1.3125,-0.578125 C 1.234375,-0.296875 1.234375,-0.25 0.6875,-0.25 c -0.109375,0 -0.203125,0 -0.203125,0.140625 C 0.484375,-0.03125 0.53125,0 0.59375,0 0.796875,0 1.3125,-0.03125 1.515625,-0.03125 l 0.53125,0.015625 C 2.234375,-0.015625 2.421875,0 2.59375,0 2.640625,0 2.75,0 2.75,-0.15625 2.75,-0.25 2.671875,-0.25 2.515625,-0.25 c -0.015625,0 -0.1875,0 -0.375,-0.015625 C 2,-0.28125 1.9375,-0.28125 1.9375,-0.390625 c 0,-0.015625 0,-0.046875 0.015625,-0.125 z m 0,0"
             id="id-a24b177c-a3dd-420b-8683-29d2feda49f8" />
        </g>
      </g>
    </g>
    <g
       transform="matrix(0.82211465,0,0,0.82211465,9.7171803,128.24196)"
       ns2:version="1.3.0"
       ns2:texconverter="pdflatex"
       ns2:pdfconverter="inkscape"
       ns2:text="IR states"
       ns2:preamble="/home/abhirup/textext.tex"
       ns2:scale="2.5"
       ns2:alignment="middle center"
       ns2:jacobian_sqrt="0.661458"
       id="g2446">
      <defs
         id="id-d16cd1e8-adca-4e9c-94ad-36263e4327fc">
        <g
           id="id-aa11b75f-e50b-42a4-95b9-6f6f088aa734">
          <g
             id="id-358acf12-e821-4eb2-adb4-db0edc422927">
            <path
               d="M 5.40625,-10.46875 H 1.21875 V 3.484375 h 4.1875 z M 4.875,-9.953125 V 2.96875 H 1.78125 V -9.953125 Z M 3.234375,-4.5 c -0.390625,0 -0.9375,0.125 -0.9375,0.390625 0,0.125 0.09375,0.234375 0.25,0.234375 0.03125,0 0.078125,-0.015625 0.125,-0.03125 0.171875,-0.078125 0.3125,-0.109375 0.515625,-0.109375 0.5,0 0.609375,0.296875 0.609375,0.6875 0,0.53125 -0.1875,0.71875 -0.90625,0.765625 v 0.84375 c 0,0.140625 0.125,0.234375 0.25,0.234375 0.125,0 0.25,-0.09375 0.25,-0.234375 V -2.171875 C 4.0625,-2.265625 4.34375,-2.65625 4.34375,-3.34375 4.34375,-3.953125 4.09375,-4.5 3.234375,-4.5 Z m -0.09375,3.296875 c -0.203125,0 -0.34375,0.15625 -0.34375,0.359375 0,0.203125 0.140625,0.359375 0.34375,0.359375 0.203125,0 0.34375,-0.15625 0.34375,-0.359375 0,-0.203125 -0.140625,-0.359375 -0.34375,-0.359375 z m 0,0"
               id="id-636660e3-e98d-4de5-adb1-0ea0f9dd132b" />
          </g>
          <g
             id="id-97a0fd39-f518-43ad-99df-518b52426112">
            <path
               d="M 1.9375,-6.875 H 1 V 0 h 0.9375 z m 0,0"
               id="id-9f097e56-5af9-4fbb-962f-bdb02bd2ec2c" />
          </g>
          <g
             id="id-4a2298d4-74f1-498d-be4c-f0794a98123d">
            <path
               d="m 4.65625,0 h 1.125 L 3.921875,-3.078125 c 1,-0.296875 1.484375,-0.875 1.484375,-1.84375 0,-1.28125 -0.890625,-1.953125 -2.609375,-1.953125 H 1 V 0 H 1.9375 V -2.90625 H 3.015625 Z M 1.9375,-3.640625 V -6.125 h 0.859375 c 1.125,0 1.609375,0.34375 1.609375,1.203125 0,0.921875 -0.546875,1.28125 -1.5,1.28125 z m 0,0"
               id="id-7b78374f-54b9-410e-b5f8-57447724bcf9" />
          </g>
          <g
             id="id-b1f03e82-2eea-4812-b42a-a8a942dfd8cf">
            <path
               d="m 2.375,-5.375 c -1.09375,0 -1.890625,0.609375 -1.890625,1.453125 0,0.734375 0.4375,1.21875 1.578125,1.515625 1.015625,0.265625 1.28125,0.46875 1.28125,0.984375 0,0.5 -0.4375,0.796875 -1.125,0.796875 -0.578125,0 -1.0625,-0.1875 -1.484375,-0.5 L 0.25,-0.5625 c 0.453125,0.390625 1.09375,0.6875 1.984375,0.6875 1.0625,0 2.078125,-0.5 2.078125,-1.59375 0,-0.921875 -0.640625,-1.359375 -1.75,-1.640625 -0.84375,-0.21875 -1.125,-0.421875 -1.125,-0.84375 0,-0.421875 0.359375,-0.6875 0.96875,-0.6875 0.484375,0 0.890625,0.140625 1.359375,0.4375 L 4.15625,-4.78125 C 3.65625,-5.15625 3.109375,-5.375 2.375,-5.375 Z m 0,0"
               id="id-c737fb8b-fa6b-46a3-a9fc-db7791eda2d2" />
          </g>
          <g
             id="id-c7afbecc-8bee-4cb9-916e-95116f99fac8">
            <path
               d="m 3.25,-0.84375 c -0.265625,0.140625 -0.46875,0.203125 -0.703125,0.203125 -0.453125,0 -0.625,-0.25 -0.625,-0.78125 v -3.125 h 1.15625 L 3.171875,-5.25 h -1.25 V -6.546875 L 1,-6.4375 V -5.25 H 0.09375 v 0.703125 H 1 V -1.375 c 0,0.96875 0.53125,1.5 1.421875,1.5 C 2.875,0.125 3.25,0 3.59375,-0.234375 Z m 0,0"
               id="id-23e7a0eb-9de3-4443-8c27-2309be5140b8" />
          </g>
          <g
             id="id-e9a53b8e-5d2b-482e-9353-f855d0eb3d68">
            <path
               d="M 4.4375,-1.21875 V -3.625 c 0,-1.09375 -0.578125,-1.75 -1.84375,-1.75 C 2,-5.375 1.421875,-5.25 0.78125,-5.015625 L 1,-4.34375 C 1.546875,-4.53125 2.03125,-4.625 2.421875,-4.625 c 0.734375,0 1.09375,0.28125 1.09375,1.03125 v 0.390625 H 2.71875 c -1.46875,0 -2.3125,0.609375 -2.3125,1.734375 0,0.9375 0.625,1.59375 1.671875,1.59375 0.640625,0 1.1875,-0.25 1.5625,-0.796875 0.15625,0.515625 0.5,0.734375 1.03125,0.796875 L 4.875,-0.515625 C 4.609375,-0.625 4.4375,-0.765625 4.4375,-1.21875 Z M 2.28125,-0.5625 c -0.59375,0 -0.90625,-0.328125 -0.90625,-0.953125 0,-0.71875 0.484375,-1.078125 1.453125,-1.078125 h 0.6875 v 1.203125 C 3.21875,-0.84375 2.828125,-0.5625 2.28125,-0.5625 Z m 0,0"
               id="id-91672229-e61e-4800-a890-7f7fd5e9d633" />
          </g>
          <g
             id="id-998d2671-d346-40c5-b17d-a9e8353898d6">
            <path
               d="m 4.921875,-2.78125 c 0,-1.609375 -0.75,-2.59375 -2.171875,-2.59375 -1.359375,0 -2.1875,1.171875 -2.1875,2.796875 0,1.671875 0.859375,2.703125 2.328125,2.703125 0.734375,0 1.3125,-0.25 1.828125,-0.65625 L 4.328125,-1.09375 C 3.875,-0.765625 3.484375,-0.625 2.953125,-0.625 c -0.75,0 -1.3125,-0.46875 -1.40625,-1.6875 h 3.34375 c 0.015625,-0.125 0.03125,-0.296875 0.03125,-0.46875 z M 4,-2.984375 H 1.546875 c 0.0625,-1.171875 0.53125,-1.65625 1.21875,-1.65625 0.828125,0 1.234375,0.5625 1.234375,1.59375 z m 0,0"
               id="id-3bb647be-5949-4798-92b9-195b80d8e612" />
          </g>
        </g>
      </defs>
      <g
         fill="#000000"
         fill-opacity="1"
         id="id-fce9e360-654b-4038-8f89-dc8434166dc3"
         transform="translate(-149.712,-127.89)">
        <g
           transform="translate(148.712,134.765)"
           id="g2420">
          <path
             d="M 1.9375,-6.875 H 1 V 0 h 0.9375 z m 0,0"
             id="id-0174b3d7-da18-449d-befd-9390b6eec430" />
        </g>
        <g
           transform="translate(151.651,134.765)"
           id="g2423">
          <path
             d="m 4.65625,0 h 1.125 L 3.921875,-3.078125 c 1,-0.296875 1.484375,-0.875 1.484375,-1.84375 0,-1.28125 -0.890625,-1.953125 -2.609375,-1.953125 H 1 V 0 H 1.9375 V -2.90625 H 3.015625 Z M 1.9375,-3.640625 V -6.125 h 0.859375 c 1.125,0 1.609375,0.34375 1.609375,1.203125 0,0.921875 -0.546875,1.28125 -1.5,1.28125 z m 0,0"
             id="id-e9d98d34-59a4-476a-86b8-8fcbb8fa01a5" />
        </g>
      </g>
      <g
         fill="#000000"
         fill-opacity="1"
         id="id-8c3bd396-d232-4da5-a36d-e983f1e62b07"
         transform="translate(-149.712,-127.89)">
        <g
           transform="translate(160.318,134.765)"
           id="g2427">
          <path
             d="m 2.375,-5.375 c -1.09375,0 -1.890625,0.609375 -1.890625,1.453125 0,0.734375 0.4375,1.21875 1.578125,1.515625 1.015625,0.265625 1.28125,0.46875 1.28125,0.984375 0,0.5 -0.4375,0.796875 -1.125,0.796875 -0.578125,0 -1.0625,-0.1875 -1.484375,-0.5 L 0.25,-0.5625 c 0.453125,0.390625 1.09375,0.6875 1.984375,0.6875 1.0625,0 2.078125,-0.5 2.078125,-1.59375 0,-0.921875 -0.640625,-1.359375 -1.75,-1.640625 -0.84375,-0.21875 -1.125,-0.421875 -1.125,-0.84375 0,-0.421875 0.359375,-0.6875 0.96875,-0.6875 0.484375,0 0.890625,0.140625 1.359375,0.4375 L 4.15625,-4.78125 C 3.65625,-5.15625 3.109375,-5.375 2.375,-5.375 Z m 0,0"
             id="id-7ac4d66e-ce73-49f3-8276-044d04fcbfd0" />
        </g>
        <g
           transform="translate(164.971,134.765)"
           id="g2430">
          <path
             d="m 3.25,-0.84375 c -0.265625,0.140625 -0.46875,0.203125 -0.703125,0.203125 -0.453125,0 -0.625,-0.25 -0.625,-0.78125 v -3.125 h 1.15625 L 3.171875,-5.25 h -1.25 V -6.546875 L 1,-6.4375 V -5.25 H 0.09375 v 0.703125 H 1 V -1.375 c 0,0.96875 0.53125,1.5 1.421875,1.5 C 2.875,0.125 3.25,0 3.59375,-0.234375 Z m 0,0"
             id="id-a0193169-1c7c-4a05-af44-cc1f03ae5774" />
        </g>
        <g
           transform="translate(168.567,134.765)"
           id="g2433">
          <path
             d="M 4.4375,-1.21875 V -3.625 c 0,-1.09375 -0.578125,-1.75 -1.84375,-1.75 C 2,-5.375 1.421875,-5.25 0.78125,-5.015625 L 1,-4.34375 C 1.546875,-4.53125 2.03125,-4.625 2.421875,-4.625 c 0.734375,0 1.09375,0.28125 1.09375,1.03125 v 0.390625 H 2.71875 c -1.46875,0 -2.3125,0.609375 -2.3125,1.734375 0,0.9375 0.625,1.59375 1.671875,1.59375 0.640625,0 1.1875,-0.25 1.5625,-0.796875 0.15625,0.515625 0.5,0.734375 1.03125,0.796875 L 4.875,-0.515625 C 4.609375,-0.625 4.4375,-0.765625 4.4375,-1.21875 Z M 2.28125,-0.5625 c -0.59375,0 -0.90625,-0.328125 -0.90625,-0.953125 0,-0.71875 0.484375,-1.078125 1.453125,-1.078125 h 0.6875 v 1.203125 C 3.21875,-0.84375 2.828125,-0.5625 2.28125,-0.5625 Z m 0,0"
             id="id-c4d95e8b-9430-4e01-a958-bc8564764797" />
        </g>
        <g
           transform="translate(173.937,134.765)"
           id="g2436">
          <path
             d="m 3.25,-0.84375 c -0.265625,0.140625 -0.46875,0.203125 -0.703125,0.203125 -0.453125,0 -0.625,-0.25 -0.625,-0.78125 v -3.125 h 1.15625 L 3.171875,-5.25 h -1.25 V -6.546875 L 1,-6.4375 V -5.25 H 0.09375 v 0.703125 H 1 V -1.375 c 0,0.96875 0.53125,1.5 1.421875,1.5 C 2.875,0.125 3.25,0 3.59375,-0.234375 Z m 0,0"
             id="id-db0c03c2-dddd-4252-a3a4-320fba144991" />
        </g>
      </g>
      <g
         fill="#000000"
         fill-opacity="1"
         id="id-c9f80d26-be73-4e90-ac80-3ec87527cbec"
         transform="translate(-149.712,-127.89)">
        <g
           transform="translate(177.384,134.765)"
           id="g2440">
          <path
             d="m 4.921875,-2.78125 c 0,-1.609375 -0.75,-2.59375 -2.171875,-2.59375 -1.359375,0 -2.1875,1.171875 -2.1875,2.796875 0,1.671875 0.859375,2.703125 2.328125,2.703125 0.734375,0 1.3125,-0.25 1.828125,-0.65625 L 4.328125,-1.09375 C 3.875,-0.765625 3.484375,-0.625 2.953125,-0.625 c -0.75,0 -1.3125,-0.46875 -1.40625,-1.6875 h 3.34375 c 0.015625,-0.125 0.03125,-0.296875 0.03125,-0.46875 z M 4,-2.984375 H 1.546875 c 0.0625,-1.171875 0.53125,-1.65625 1.21875,-1.65625 0.828125,0 1.234375,0.5625 1.234375,1.59375 z m 0,0"
             id="id-bea6dfaf-937a-4670-be38-eb4efb9b0fc4" />
        </g>
        <g
           transform="translate(182.804,134.765)"
           id="g2443">
          <path
             d="m 2.375,-5.375 c -1.09375,0 -1.890625,0.609375 -1.890625,1.453125 0,0.734375 0.4375,1.21875 1.578125,1.515625 1.015625,0.265625 1.28125,0.46875 1.28125,0.984375 0,0.5 -0.4375,0.796875 -1.125,0.796875 -0.578125,0 -1.0625,-0.1875 -1.484375,-0.5 L 0.25,-0.5625 c 0.453125,0.390625 1.09375,0.6875 1.984375,0.6875 1.0625,0 2.078125,-0.5 2.078125,-1.59375 0,-0.921875 -0.640625,-1.359375 -1.75,-1.640625 -0.84375,-0.21875 -1.125,-0.421875 -1.125,-0.84375 0,-0.421875 0.359375,-0.6875 0.96875,-0.6875 0.484375,0 0.890625,0.140625 1.359375,0.4375 L 4.15625,-4.78125 C 3.65625,-5.15625 3.109375,-5.375 2.375,-5.375 Z m 0,0"
             id="id-9d2a087b-0335-4a42-a9f6-a0f321aedc1d" />
        </g>
      </g>
    </g>
    <g
       transform="matrix(0.82211442,0,0,0.82211442,130.81299,127.71297)"
       ns2:version="1.3.0"
       ns2:texconverter="pdflatex"
       ns2:pdfconverter="inkscape"
       ns2:text="UV states"
       ns2:preamble="/home/abhirup/textext.tex"
       ns2:scale="3.4748625763086998"
       ns2:alignment="middle center"
       ns2:jacobian_sqrt="0.91939"
       id="g2574">
      <defs
         id="id-7825a5bc-f1a4-41bf-8b50-965297f76bae">
        <g
           id="id-55bbbc22-ac98-4a9a-986f-570d82a8a150">
          <g
             id="id-5e7e3c5f-f025-4f19-b429-23cd289c6058">
            <path
               d="M 5.40625,-10.46875 H 1.21875 V 3.484375 h 4.1875 z M 4.875,-9.953125 V 2.96875 H 1.78125 V -9.953125 Z M 3.234375,-4.5 c -0.390625,0 -0.9375,0.125 -0.9375,0.390625 0,0.125 0.09375,0.234375 0.25,0.234375 0.03125,0 0.078125,-0.015625 0.125,-0.03125 0.171875,-0.078125 0.3125,-0.109375 0.515625,-0.109375 0.5,0 0.609375,0.296875 0.609375,0.6875 0,0.53125 -0.1875,0.71875 -0.90625,0.765625 v 0.84375 c 0,0.140625 0.125,0.234375 0.25,0.234375 0.125,0 0.25,-0.09375 0.25,-0.234375 V -2.171875 C 4.0625,-2.265625 4.34375,-2.65625 4.34375,-3.34375 4.34375,-3.953125 4.09375,-4.5 3.234375,-4.5 Z m -0.09375,3.296875 c -0.203125,0 -0.34375,0.15625 -0.34375,0.359375 0,0.203125 0.140625,0.359375 0.34375,0.359375 0.203125,0 0.34375,-0.15625 0.34375,-0.359375 0,-0.203125 -0.140625,-0.359375 -0.34375,-0.359375 z m 0,0"
               id="id-ff5dcad9-00bc-49f9-be8e-796a28c70a8a" />
          </g>
          <g
             id="id-9895c8ff-e56c-4b31-8b96-6aa2924f0c08">
            <path
               d="M 5.703125,-6.875 H 4.75 v 4.609375 c 0,1.0625 -0.46875,1.59375 -1.453125,1.59375 -0.984375,0 -1.453125,-0.53125 -1.453125,-1.59375 V -6.875 H 0.890625 v 4.671875 c 0,1.359375 0.828125,2.328125 2.40625,2.328125 1.53125,0 2.40625,-0.96875 2.40625,-2.328125 z m 0,0"
               id="id-6e8ac0dc-b6e2-4a8c-b5da-8fe90596ac7a" />
          </g>
          <g
             id="id-ee9ae954-9dbc-408f-87f3-99877e92ff30">
            <path
               d="M 5.484375,-6.875 H 4.53125 L 2.796875,-1.03125 1.078125,-6.875 H 0.0625 L 2.265625,0 h 1.03125 z m 0,0"
               id="id-55d0c8ff-a99d-429a-87de-e4c99be79d62" />
          </g>
          <g
             id="id-c67fdc08-a14f-42c2-95f5-25df85c5d960">
            <path
               d="m 2.375,-5.375 c -1.09375,0 -1.890625,0.609375 -1.890625,1.453125 0,0.734375 0.4375,1.21875 1.578125,1.515625 1.015625,0.265625 1.28125,0.46875 1.28125,0.984375 0,0.5 -0.4375,0.796875 -1.125,0.796875 -0.578125,0 -1.0625,-0.1875 -1.484375,-0.5 L 0.25,-0.5625 c 0.453125,0.390625 1.09375,0.6875 1.984375,0.6875 1.0625,0 2.078125,-0.5 2.078125,-1.59375 0,-0.921875 -0.640625,-1.359375 -1.75,-1.640625 -0.84375,-0.21875 -1.125,-0.421875 -1.125,-0.84375 0,-0.421875 0.359375,-0.6875 0.96875,-0.6875 0.484375,0 0.890625,0.140625 1.359375,0.4375 L 4.15625,-4.78125 C 3.65625,-5.15625 3.109375,-5.375 2.375,-5.375 Z m 0,0"
               id="id-9bec3a0c-563b-482f-adb6-944bff4668bb" />
          </g>
          <g
             id="id-357603cd-e790-4beb-aaf9-0e8eb855ce9d">
            <path
               d="m 3.25,-0.84375 c -0.265625,0.140625 -0.46875,0.203125 -0.703125,0.203125 -0.453125,0 -0.625,-0.25 -0.625,-0.78125 v -3.125 h 1.15625 L 3.171875,-5.25 h -1.25 V -6.546875 L 1,-6.4375 V -5.25 H 0.09375 v 0.703125 H 1 V -1.375 c 0,0.96875 0.53125,1.5 1.421875,1.5 C 2.875,0.125 3.25,0 3.59375,-0.234375 Z m 0,0"
               id="id-2521775b-c5f9-4a63-97fd-f527198ee9c5" />
          </g>
          <g
             id="id-9c9a824e-1ee6-4096-bd02-76eb31924eb2">
            <path
               d="M 4.4375,-1.21875 V -3.625 c 0,-1.09375 -0.578125,-1.75 -1.84375,-1.75 C 2,-5.375 1.421875,-5.25 0.78125,-5.015625 L 1,-4.34375 C 1.546875,-4.53125 2.03125,-4.625 2.421875,-4.625 c 0.734375,0 1.09375,0.28125 1.09375,1.03125 v 0.390625 H 2.71875 c -1.46875,0 -2.3125,0.609375 -2.3125,1.734375 0,0.9375 0.625,1.59375 1.671875,1.59375 0.640625,0 1.1875,-0.25 1.5625,-0.796875 0.15625,0.515625 0.5,0.734375 1.03125,0.796875 L 4.875,-0.515625 C 4.609375,-0.625 4.4375,-0.765625 4.4375,-1.21875 Z M 2.28125,-0.5625 c -0.59375,0 -0.90625,-0.328125 -0.90625,-0.953125 0,-0.71875 0.484375,-1.078125 1.453125,-1.078125 h 0.6875 v 1.203125 C 3.21875,-0.84375 2.828125,-0.5625 2.28125,-0.5625 Z m 0,0"
               id="id-eeb1f10f-e435-4751-8ac6-71e96c552dd0" />
          </g>
          <g
             id="id-448f6475-f1d8-4b1b-beff-a50e00e2c5f4">
            <path
               d="m 4.921875,-2.78125 c 0,-1.609375 -0.75,-2.59375 -2.171875,-2.59375 -1.359375,0 -2.1875,1.171875 -2.1875,2.796875 0,1.671875 0.859375,2.703125 2.328125,2.703125 0.734375,0 1.3125,-0.25 1.828125,-0.65625 L 4.328125,-1.09375 C 3.875,-0.765625 3.484375,-0.625 2.953125,-0.625 c -0.75,0 -1.3125,-0.46875 -1.40625,-1.6875 h 3.34375 c 0.015625,-0.125 0.03125,-0.296875 0.03125,-0.46875 z M 4,-2.984375 H 1.546875 c 0.0625,-1.171875 0.53125,-1.65625 1.21875,-1.65625 0.828125,0 1.234375,0.5625 1.234375,1.59375 z m 0,0"
               id="id-5cf66cfe-d237-4cd5-9be0-af1762094e45" />
          </g>
        </g>
      </defs>
      <g
         fill="#000000"
         fill-opacity="1"
         id="id-19c67a98-dd8d-4f0c-b34e-dd6da8ef381f"
         transform="translate(-149.603,-127.89)">
        <g
           transform="translate(148.712,134.765)"
           id="g2767">
          <path
             d="M 5.703125,-6.875 H 4.75 v 4.609375 c 0,1.0625 -0.46875,1.59375 -1.453125,1.59375 -0.984375,0 -1.453125,-0.53125 -1.453125,-1.59375 V -6.875 H 0.890625 v 4.671875 c 0,1.359375 0.828125,2.328125 2.40625,2.328125 1.53125,0 2.40625,-0.96875 2.40625,-2.328125 z m 0,0"
             id="id-d6f0964f-8277-4785-b80d-1bbf199fb1bf" />
        </g>
        <g
           transform="translate(155.307,134.765)"
           id="g2770">
          <path
             d="M 5.484375,-6.875 H 4.53125 L 2.796875,-1.03125 1.078125,-6.875 H 0.0625 L 2.265625,0 h 1.03125 z m 0,0"
             id="id-dadbb2de-adbb-4353-a2ce-b7189615c63a" />
        </g>
      </g>
      <g
         fill="#000000"
         fill-opacity="1"
         id="id-f26ed501-e321-4a96-af85-64cd7a13e09d"
         transform="translate(-149.603,-127.89)">
        <g
           transform="translate(163.487,134.765)"
           id="g2774">
          <path
             d="m 2.375,-5.375 c -1.09375,0 -1.890625,0.609375 -1.890625,1.453125 0,0.734375 0.4375,1.21875 1.578125,1.515625 1.015625,0.265625 1.28125,0.46875 1.28125,0.984375 0,0.5 -0.4375,0.796875 -1.125,0.796875 -0.578125,0 -1.0625,-0.1875 -1.484375,-0.5 L 0.25,-0.5625 c 0.453125,0.390625 1.09375,0.6875 1.984375,0.6875 1.0625,0 2.078125,-0.5 2.078125,-1.59375 0,-0.921875 -0.640625,-1.359375 -1.75,-1.640625 -0.84375,-0.21875 -1.125,-0.421875 -1.125,-0.84375 0,-0.421875 0.359375,-0.6875 0.96875,-0.6875 0.484375,0 0.890625,0.140625 1.359375,0.4375 L 4.15625,-4.78125 C 3.65625,-5.15625 3.109375,-5.375 2.375,-5.375 Z m 0,0"
             id="id-bde8d755-f6c4-4162-a267-4f24c6b780d9" />
        </g>
        <g
           transform="translate(168.139,134.765)"
           id="g2777">
          <path
             d="m 3.25,-0.84375 c -0.265625,0.140625 -0.46875,0.203125 -0.703125,0.203125 -0.453125,0 -0.625,-0.25 -0.625,-0.78125 v -3.125 h 1.15625 L 3.171875,-5.25 h -1.25 V -6.546875 L 1,-6.4375 V -5.25 H 0.09375 v 0.703125 H 1 V -1.375 c 0,0.96875 0.53125,1.5 1.421875,1.5 C 2.875,0.125 3.25,0 3.59375,-0.234375 Z m 0,0"
             id="id-3bc65601-6edb-4eca-948d-3eccd2f75806" />
        </g>
        <g
           transform="translate(171.736,134.765)"
           id="g2780">
          <path
             d="M 4.4375,-1.21875 V -3.625 c 0,-1.09375 -0.578125,-1.75 -1.84375,-1.75 C 2,-5.375 1.421875,-5.25 0.78125,-5.015625 L 1,-4.34375 C 1.546875,-4.53125 2.03125,-4.625 2.421875,-4.625 c 0.734375,0 1.09375,0.28125 1.09375,1.03125 v 0.390625 H 2.71875 c -1.46875,0 -2.3125,0.609375 -2.3125,1.734375 0,0.9375 0.625,1.59375 1.671875,1.59375 0.640625,0 1.1875,-0.25 1.5625,-0.796875 0.15625,0.515625 0.5,0.734375 1.03125,0.796875 L 4.875,-0.515625 C 4.609375,-0.625 4.4375,-0.765625 4.4375,-1.21875 Z M 2.28125,-0.5625 c -0.59375,0 -0.90625,-0.328125 -0.90625,-0.953125 0,-0.71875 0.484375,-1.078125 1.453125,-1.078125 h 0.6875 v 1.203125 C 3.21875,-0.84375 2.828125,-0.5625 2.28125,-0.5625 Z m 0,0"
             id="id-411feb04-f5df-4cf3-9306-56c9b0a1566c" />
        </g>
        <g
           transform="translate(177.105,134.765)"
           id="g2783">
          <path
             d="m 3.25,-0.84375 c -0.265625,0.140625 -0.46875,0.203125 -0.703125,0.203125 -0.453125,0 -0.625,-0.25 -0.625,-0.78125 v -3.125 h 1.15625 L 3.171875,-5.25 h -1.25 V -6.546875 L 1,-6.4375 V -5.25 H 0.09375 v 0.703125 H 1 V -1.375 c 0,0.96875 0.53125,1.5 1.421875,1.5 C 2.875,0.125 3.25,0 3.59375,-0.234375 Z m 0,0"
             id="id-f2314e78-9fc9-4cec-a96e-c73d7bfea178" />
        </g>
      </g>
      <g
         fill="#000000"
         fill-opacity="1"
         id="id-90974515-df95-46b3-a16c-6c834d2e1c11"
         transform="translate(-149.603,-127.89)">
        <g
           transform="translate(180.552,134.765)"
           id="g2787">
          <path
             d="m 4.921875,-2.78125 c 0,-1.609375 -0.75,-2.59375 -2.171875,-2.59375 -1.359375,0 -2.1875,1.171875 -2.1875,2.796875 0,1.671875 0.859375,2.703125 2.328125,2.703125 0.734375,0 1.3125,-0.25 1.828125,-0.65625 L 4.328125,-1.09375 C 3.875,-0.765625 3.484375,-0.625 2.953125,-0.625 c -0.75,0 -1.3125,-0.46875 -1.40625,-1.6875 h 3.34375 c 0.015625,-0.125 0.03125,-0.296875 0.03125,-0.46875 z M 4,-2.984375 H 1.546875 c 0.0625,-1.171875 0.53125,-1.65625 1.21875,-1.65625 0.828125,0 1.234375,0.5625 1.234375,1.59375 z m 0,0"
             id="id-16fe4b6a-25b0-4065-8ad5-f3a3b8eb7806" />
        </g>
        <g
           transform="translate(185.972,134.765)"
           id="g2790">
          <path
             d="m 2.375,-5.375 c -1.09375,0 -1.890625,0.609375 -1.890625,1.453125 0,0.734375 0.4375,1.21875 1.578125,1.515625 1.015625,0.265625 1.28125,0.46875 1.28125,0.984375 0,0.5 -0.4375,0.796875 -1.125,0.796875 -0.578125,0 -1.0625,-0.1875 -1.484375,-0.5 L 0.25,-0.5625 c 0.453125,0.390625 1.09375,0.6875 1.984375,0.6875 1.0625,0 2.078125,-0.5 2.078125,-1.59375 0,-0.921875 -0.640625,-1.359375 -1.75,-1.640625 -0.84375,-0.21875 -1.125,-0.421875 -1.125,-0.84375 0,-0.421875 0.359375,-0.6875 0.96875,-0.6875 0.484375,0 0.890625,0.140625 1.359375,0.4375 L 4.15625,-4.78125 C 3.65625,-5.15625 3.109375,-5.375 2.375,-5.375 Z m 0,0"
             id="id-2b428bf1-8c56-465a-b04f-429bed055f27" />
        </g>
      </g>
    </g>
    <g
       transform="matrix(0.91939,0,0,0.91939,7.8966973,72.831167)"
       ns2:version="1.3.0"
       ns2:texconverter="pdflatex"
       ns2:pdfconverter="inkscape"
       ns2:text="$D_{(0)}$"
       ns2:preamble="/home/abhirup/textext.tex"
       ns2:scale="3.4748625763086998"
       ns2:alignment="middle center"
       ns2:jacobian_sqrt="0.91939"
       id="g3082">
      <defs
         id="id-06486aaa-1cf8-40b5-8eaa-11a33433e968">
        <g
           id="id-41a2d74f-db6a-4d83-bf6c-b7bf5a027539">
          <g
             id="id-e68554e6-16ac-4039-ad20-8cf477e119b3" />
          <g
             id="id-df42ac12-0d89-45f8-8e25-8cf768009c6a">
            <path
               d="m 1.578125,-0.78125 c -0.09375,0.390625 -0.109375,0.46875 -0.90625,0.46875 -0.15625,0 -0.265625,0 -0.265625,0.1875 C 0.40625,0 0.484375,0 0.671875,0 h 3.3125 c 2.0625,0 4.03125,-2.109375 4.03125,-4.28125 0,-1.40625 -0.84375,-2.53125 -2.34375,-2.53125 h -3.34375 c -0.1875,0 -0.296875,0 -0.296875,0.1875 0,0.125 0.078125,0.125 0.28125,0.125 0.125,0 0.3125,0.015625 0.421875,0.015625 0.171875,0.03125 0.21875,0.046875 0.21875,0.171875 0,0.03125 0,0.0625 -0.03125,0.1875 z M 3.734375,-6.125 C 3.828125,-6.46875 3.84375,-6.5 4.28125,-6.5 h 1.0625 c 0.96875,0 1.796875,0.53125 1.796875,1.84375 0,0.484375 -0.1875,2.125 -1.046875,3.21875 -0.28125,0.375 -1.0625,1.125 -2.296875,1.125 h -1.125 c -0.140625,0 -0.15625,0 -0.21875,0 -0.09375,-0.015625 -0.125,-0.03125 -0.125,-0.109375 0,-0.03125 0,-0.046875 0.046875,-0.21875 z m 0,0"
               id="id-06728364-4d7e-4643-aa1d-6f8ab5d30805" />
          </g>
          <g
             id="id-e7654079-b8a7-4c3b-8274-7f9beb133ba1" />
          <g
             id="id-8f918bb3-76b6-4e26-a1f3-7535ac3305f3">
            <path
               d="M 2.46875,-5.21875 C 1.15625,-4.296875 0.796875,-2.8125 0.796875,-1.75 c 0,0.984375 0.296875,2.515625 1.671875,3.484375 0.0625,0 0.140625,0 0.140625,-0.078125 0,-0.046875 -0.015625,-0.0625 -0.0625,-0.109375 C 1.609375,0.703125 1.28125,-0.46875 1.28125,-1.734375 1.28125,-3.625 2,-4.546875 2.5625,-5.0625 2.59375,-5.09375 2.609375,-5.109375 2.609375,-5.140625 2.609375,-5.21875 2.53125,-5.21875 2.46875,-5.21875 Z m 0,0"
               id="id-baaeb9ba-8af2-4d9d-b6ca-ec5be3edd499" />
          </g>
          <g
             id="id-e443df69-963e-433a-acfe-8b44930dadc4">
            <path
               d="M 3.59375,-2.21875 C 3.59375,-2.984375 3.5,-3.546875 3.1875,-4.03125 2.96875,-4.34375 2.53125,-4.625 1.984375,-4.625 c -1.625,0 -1.625,1.90625 -1.625,2.40625 0,0.5 0,2.359375 1.625,2.359375 1.609375,0 1.609375,-1.859375 1.609375,-2.359375 z M 1.984375,-0.0625 c -0.328125,0 -0.75,-0.1875 -0.890625,-0.75 C 1,-1.21875 1,-1.796875 1,-2.3125 1,-2.828125 1,-3.359375 1.09375,-3.734375 1.25,-4.28125 1.6875,-4.4375 1.984375,-4.4375 c 0.375,0 0.734375,0.234375 0.859375,0.640625 0.109375,0.375 0.125,0.875 0.125,1.484375 0,0.515625 0,1.03125 -0.09375,1.46875 -0.140625,0.640625 -0.609375,0.78125 -0.890625,0.78125 z m 0,0"
               id="id-5ea15122-bf72-46a9-8a89-35144178d26c" />
          </g>
          <g
             id="id-108beef9-a7dc-4e6f-963c-1c911962718f">
            <path
               d="m 0.625,-5.21875 c -0.046875,0 -0.125,0 -0.125,0.078125 0,0.03125 0.015625,0.046875 0.0625,0.109375 0.59375,0.546875 1.265625,1.484375 1.265625,3.28125 0,1.453125 -0.453125,2.5625 -1.203125,3.234375 -0.125,0.125 -0.125,0.125 -0.125,0.171875 0,0.03125 0.015625,0.078125 0.078125,0.078125 0.09375,0 0.75,-0.453125 1.21875,-1.328125 0.296875,-0.578125 0.5,-1.328125 0.5,-2.140625 C 2.296875,-2.71875 2,-4.25 0.625,-5.21875 Z m 0,0"
               id="id-bbe7da2f-be04-42a4-a26c-49b2ebbe229c" />
          </g>
        </g>
      </defs>
      <g
         fill="#000000"
         fill-opacity="1"
         id="id-3175f2aa-6078-4596-b956-ea25caa7228f"
         transform="translate(-149.118,-127.953)">
        <g
           transform="translate(148.712,134.765)"
           id="g3657">
          <path
             d="m 1.578125,-0.78125 c -0.09375,0.390625 -0.109375,0.46875 -0.90625,0.46875 -0.15625,0 -0.265625,0 -0.265625,0.1875 C 0.40625,0 0.484375,0 0.671875,0 h 3.3125 c 2.0625,0 4.03125,-2.109375 4.03125,-4.28125 0,-1.40625 -0.84375,-2.53125 -2.34375,-2.53125 h -3.34375 c -0.1875,0 -0.296875,0 -0.296875,0.1875 0,0.125 0.078125,0.125 0.28125,0.125 0.125,0 0.3125,0.015625 0.421875,0.015625 0.171875,0.03125 0.21875,0.046875 0.21875,0.171875 0,0.03125 0,0.0625 -0.03125,0.1875 z M 3.734375,-6.125 C 3.828125,-6.46875 3.84375,-6.5 4.28125,-6.5 h 1.0625 c 0.96875,0 1.796875,0.53125 1.796875,1.84375 0,0.484375 -0.1875,2.125 -1.046875,3.21875 -0.28125,0.375 -1.0625,1.125 -2.296875,1.125 h -1.125 c -0.140625,0 -0.15625,0 -0.21875,0 -0.09375,-0.015625 -0.125,-0.03125 -0.125,-0.109375 0,-0.03125 0,-0.046875 0.046875,-0.21875 z m 0,0"
             id="id-994e54fe-196d-44a9-9bee-dc9580e9c62e" />
        </g>
      </g>
      <g
         fill="#000000"
         fill-opacity="1"
         id="id-c33e576e-f3d5-4fe4-8361-6be6a06c627f"
         transform="translate(-149.118,-127.953)">
        <g
           transform="translate(156.961,136.563)"
           id="g3661">
          <path
             d="M 2.46875,-5.21875 C 1.15625,-4.296875 0.796875,-2.8125 0.796875,-1.75 c 0,0.984375 0.296875,2.515625 1.671875,3.484375 0.0625,0 0.140625,0 0.140625,-0.078125 0,-0.046875 -0.015625,-0.0625 -0.0625,-0.109375 C 1.609375,0.703125 1.28125,-0.46875 1.28125,-1.734375 1.28125,-3.625 2,-4.546875 2.5625,-5.0625 2.59375,-5.09375 2.609375,-5.109375 2.609375,-5.140625 2.609375,-5.21875 2.53125,-5.21875 2.46875,-5.21875 Z m 0,0"
             id="id-f2b830af-1a62-4099-89b2-d604c36f4863" />
        </g>
        <g
           transform="translate(160.074,136.563)"
           id="g3664">
          <path
             d="M 3.59375,-2.21875 C 3.59375,-2.984375 3.5,-3.546875 3.1875,-4.03125 2.96875,-4.34375 2.53125,-4.625 1.984375,-4.625 c -1.625,0 -1.625,1.90625 -1.625,2.40625 0,0.5 0,2.359375 1.625,2.359375 1.609375,0 1.609375,-1.859375 1.609375,-2.359375 z M 1.984375,-0.0625 c -0.328125,0 -0.75,-0.1875 -0.890625,-0.75 C 1,-1.21875 1,-1.796875 1,-2.3125 1,-2.828125 1,-3.359375 1.09375,-3.734375 1.25,-4.28125 1.6875,-4.4375 1.984375,-4.4375 c 0.375,0 0.734375,0.234375 0.859375,0.640625 0.109375,0.375 0.125,0.875 0.125,1.484375 0,0.515625 0,1.03125 -0.09375,1.46875 -0.140625,0.640625 -0.609375,0.78125 -0.890625,0.78125 z m 0,0"
             id="id-25a88cde-f1ad-4d1e-bac4-3cb03ff3cc37" />
        </g>
        <g
           transform="translate(164.046,136.563)"
           id="g3667">
          <path
             d="m 0.625,-5.21875 c -0.046875,0 -0.125,0 -0.125,0.078125 0,0.03125 0.015625,0.046875 0.0625,0.109375 0.59375,0.546875 1.265625,1.484375 1.265625,3.28125 0,1.453125 -0.453125,2.5625 -1.203125,3.234375 -0.125,0.125 -0.125,0.125 -0.125,0.171875 0,0.03125 0.015625,0.078125 0.078125,0.078125 0.09375,0 0.75,-0.453125 1.21875,-1.328125 0.296875,-0.578125 0.5,-1.328125 0.5,-2.140625 C 2.296875,-2.71875 2,-4.25 0.625,-5.21875 Z m 0,0"
             id="id-c05282f6-3896-49d8-a35c-11396394d9b7" />
        </g>
      </g>
    </g>
    <g
       transform="matrix(0.91939,0,0,0.91939,34.355266,72.830667)"
       ns2:version="1.3.0"
       ns2:texconverter="pdflatex"
       ns2:pdfconverter="inkscape"
       ns2:text="$D_{(1)}$"
       ns2:preamble="/home/abhirup/textext.tex"
       ns2:scale="3.4748625763086998"
       ns2:alignment="middle center"
       ns2:jacobian_sqrt="0.91939"
       id="g3758">
      <defs
         id="id-1b3c952a-ab7e-418b-8c3b-73bf14e50c72">
        <g
           id="id-44d64320-0cfe-497a-8642-c15b99765ebe">
          <g
             id="id-f03de7f4-4e7f-4c02-9955-821958b91a2a" />
          <g
             id="id-cedae06f-808f-49a2-84e1-57b388dda661">
            <path
               d="m 1.578125,-0.78125 c -0.09375,0.390625 -0.109375,0.46875 -0.90625,0.46875 -0.15625,0 -0.265625,0 -0.265625,0.1875 C 0.40625,0 0.484375,0 0.671875,0 h 3.3125 c 2.0625,0 4.03125,-2.109375 4.03125,-4.28125 0,-1.40625 -0.84375,-2.53125 -2.34375,-2.53125 h -3.34375 c -0.1875,0 -0.296875,0 -0.296875,0.1875 0,0.125 0.078125,0.125 0.28125,0.125 0.125,0 0.3125,0.015625 0.421875,0.015625 0.171875,0.03125 0.21875,0.046875 0.21875,0.171875 0,0.03125 0,0.0625 -0.03125,0.1875 z M 3.734375,-6.125 C 3.828125,-6.46875 3.84375,-6.5 4.28125,-6.5 h 1.0625 c 0.96875,0 1.796875,0.53125 1.796875,1.84375 0,0.484375 -0.1875,2.125 -1.046875,3.21875 -0.28125,0.375 -1.0625,1.125 -2.296875,1.125 h -1.125 c -0.140625,0 -0.15625,0 -0.21875,0 -0.09375,-0.015625 -0.125,-0.03125 -0.125,-0.109375 0,-0.03125 0,-0.046875 0.046875,-0.21875 z m 0,0"
               id="id-e6128e4b-7535-4741-bd75-45ea66519d16" />
          </g>
          <g
             id="id-249dc88c-bc24-42df-b8e4-1152e681a0a9" />
          <g
             id="id-fe651611-82be-43ec-9ab4-cdbf9acc685b">
            <path
               d="M 2.46875,-5.21875 C 1.15625,-4.296875 0.796875,-2.8125 0.796875,-1.75 c 0,0.984375 0.296875,2.515625 1.671875,3.484375 0.0625,0 0.140625,0 0.140625,-0.078125 0,-0.046875 -0.015625,-0.0625 -0.0625,-0.109375 C 1.609375,0.703125 1.28125,-0.46875 1.28125,-1.734375 1.28125,-3.625 2,-4.546875 2.5625,-5.0625 2.59375,-5.09375 2.609375,-5.109375 2.609375,-5.140625 2.609375,-5.21875 2.53125,-5.21875 2.46875,-5.21875 Z m 0,0"
               id="id-c54dc4e5-d6b6-4446-8079-e7af6f59daad" />
          </g>
          <g
             id="id-f5eeb17a-d1e9-433c-b0c0-9e6ff394f842">
            <path
               d="m 2.328125,-4.4375 c 0,-0.1875 0,-0.1875 -0.203125,-0.1875 -0.453125,0.4375 -1.078125,0.4375 -1.359375,0.4375 v 0.25 c 0.15625,0 0.625,0 1,-0.1875 v 3.546875 c 0,0.234375 0,0.328125 -0.6875,0.328125 H 0.8125 V 0 c 0.125,0 0.984375,-0.03125 1.234375,-0.03125 0.21875,0 1.09375,0.03125 1.25,0.03125 V -0.25 H 3.03125 c -0.703125,0 -0.703125,-0.09375 -0.703125,-0.328125 z m 0,0"
               id="id-da27b970-7881-42d8-892e-93f869d107e6" />
          </g>
          <g
             id="id-849b87f3-289a-4202-a55d-e0290091a899">
            <path
               d="m 0.625,-5.21875 c -0.046875,0 -0.125,0 -0.125,0.078125 0,0.03125 0.015625,0.046875 0.0625,0.109375 0.59375,0.546875 1.265625,1.484375 1.265625,3.28125 0,1.453125 -0.453125,2.5625 -1.203125,3.234375 -0.125,0.125 -0.125,0.125 -0.125,0.171875 0,0.03125 0.015625,0.078125 0.078125,0.078125 0.09375,0 0.75,-0.453125 1.21875,-1.328125 0.296875,-0.578125 0.5,-1.328125 0.5,-2.140625 C 2.296875,-2.71875 2,-4.25 0.625,-5.21875 Z m 0,0"
               id="id-8b5dd7f4-5f0d-48e1-af13-75806b1b2a7a" />
          </g>
        </g>
      </defs>
      <g
         fill="#000000"
         fill-opacity="1"
         id="id-e36d8193-2966-49d6-87b6-b5f993a3e77e"
         transform="translate(-149.118,-127.953)">
        <g
           transform="translate(148.712,134.765)"
           id="g4052">
          <path
             d="m 1.578125,-0.78125 c -0.09375,0.390625 -0.109375,0.46875 -0.90625,0.46875 -0.15625,0 -0.265625,0 -0.265625,0.1875 C 0.40625,0 0.484375,0 0.671875,0 h 3.3125 c 2.0625,0 4.03125,-2.109375 4.03125,-4.28125 0,-1.40625 -0.84375,-2.53125 -2.34375,-2.53125 h -3.34375 c -0.1875,0 -0.296875,0 -0.296875,0.1875 0,0.125 0.078125,0.125 0.28125,0.125 0.125,0 0.3125,0.015625 0.421875,0.015625 0.171875,0.03125 0.21875,0.046875 0.21875,0.171875 0,0.03125 0,0.0625 -0.03125,0.1875 z M 3.734375,-6.125 C 3.828125,-6.46875 3.84375,-6.5 4.28125,-6.5 h 1.0625 c 0.96875,0 1.796875,0.53125 1.796875,1.84375 0,0.484375 -0.1875,2.125 -1.046875,3.21875 -0.28125,0.375 -1.0625,1.125 -2.296875,1.125 h -1.125 c -0.140625,0 -0.15625,0 -0.21875,0 -0.09375,-0.015625 -0.125,-0.03125 -0.125,-0.109375 0,-0.03125 0,-0.046875 0.046875,-0.21875 z m 0,0"
             id="id-f846b6fb-e4c3-4e01-8445-c3ef89d374e9" />
        </g>
      </g>
      <g
         fill="#000000"
         fill-opacity="1"
         id="id-43833a07-ea15-4e9f-87cb-af8aef02d6d8"
         transform="translate(-149.118,-127.953)">
        <g
           transform="translate(156.961,136.563)"
           id="g4056">
          <path
             d="M 2.46875,-5.21875 C 1.15625,-4.296875 0.796875,-2.8125 0.796875,-1.75 c 0,0.984375 0.296875,2.515625 1.671875,3.484375 0.0625,0 0.140625,0 0.140625,-0.078125 0,-0.046875 -0.015625,-0.0625 -0.0625,-0.109375 C 1.609375,0.703125 1.28125,-0.46875 1.28125,-1.734375 1.28125,-3.625 2,-4.546875 2.5625,-5.0625 2.59375,-5.09375 2.609375,-5.109375 2.609375,-5.140625 2.609375,-5.21875 2.53125,-5.21875 2.46875,-5.21875 Z m 0,0"
             id="id-9dcecf64-1de7-48f3-a67b-f81d2b60ef06" />
        </g>
        <g
           transform="translate(160.074,136.563)"
           id="g4059">
          <path
             d="m 2.328125,-4.4375 c 0,-0.1875 0,-0.1875 -0.203125,-0.1875 -0.453125,0.4375 -1.078125,0.4375 -1.359375,0.4375 v 0.25 c 0.15625,0 0.625,0 1,-0.1875 v 3.546875 c 0,0.234375 0,0.328125 -0.6875,0.328125 H 0.8125 V 0 c 0.125,0 0.984375,-0.03125 1.234375,-0.03125 0.21875,0 1.09375,0.03125 1.25,0.03125 V -0.25 H 3.03125 c -0.703125,0 -0.703125,-0.09375 -0.703125,-0.328125 z m 0,0"
             id="id-fefe2e6f-8e8e-41eb-b199-88bdc42d33f3" />
        </g>
        <g
           transform="translate(164.046,136.563)"
           id="g4062">
          <path
             d="m 0.625,-5.21875 c -0.046875,0 -0.125,0 -0.125,0.078125 0,0.03125 0.015625,0.046875 0.0625,0.109375 0.59375,0.546875 1.265625,1.484375 1.265625,3.28125 0,1.453125 -0.453125,2.5625 -1.203125,3.234375 -0.125,0.125 -0.125,0.125 -0.125,0.171875 0,0.03125 0.015625,0.078125 0.078125,0.078125 0.09375,0 0.75,-0.453125 1.21875,-1.328125 0.296875,-0.578125 0.5,-1.328125 0.5,-2.140625 C 2.296875,-2.71875 2,-4.25 0.625,-5.21875 Z m 0,0"
             id="id-3bcbd85e-9103-424d-ad08-bf25b0a17e2d" />
        </g>
      </g>
    </g>
    <g
       transform="matrix(0.91939,0,0,0.91939,71.522233,72.830167)"
       ns2:version="1.3.0"
       ns2:texconverter="pdflatex"
       ns2:pdfconverter="inkscape"
       ns2:text="$D_{(j)}$"
       ns2:preamble="/home/abhirup/textext.tex"
       ns2:scale="3.4748625763086998"
       ns2:alignment="middle center"
       ns2:jacobian_sqrt="0.91939"
       id="g4153">
      <defs
         id="id-39aec025-b6aa-4033-b205-631a58437329">
        <g
           id="id-e4d5581d-f338-409a-83b5-837f4430f296">
          <g
             id="id-c9d40fd3-84fe-4121-aed8-5f5653fb50aa" />
          <g
             id="id-4b9130fc-98fd-495a-abf3-c16d70c77d55">
            <path
               d="m 1.578125,-0.78125 c -0.09375,0.390625 -0.109375,0.46875 -0.90625,0.46875 -0.15625,0 -0.265625,0 -0.265625,0.1875 C 0.40625,0 0.484375,0 0.671875,0 h 3.3125 c 2.0625,0 4.03125,-2.109375 4.03125,-4.28125 0,-1.40625 -0.84375,-2.53125 -2.34375,-2.53125 h -3.34375 c -0.1875,0 -0.296875,0 -0.296875,0.1875 0,0.125 0.078125,0.125 0.28125,0.125 0.125,0 0.3125,0.015625 0.421875,0.015625 0.171875,0.03125 0.21875,0.046875 0.21875,0.171875 0,0.03125 0,0.0625 -0.03125,0.1875 z M 3.734375,-6.125 C 3.828125,-6.46875 3.84375,-6.5 4.28125,-6.5 h 1.0625 c 0.96875,0 1.796875,0.53125 1.796875,1.84375 0,0.484375 -0.1875,2.125 -1.046875,3.21875 -0.28125,0.375 -1.0625,1.125 -2.296875,1.125 h -1.125 c -0.140625,0 -0.15625,0 -0.21875,0 -0.09375,-0.015625 -0.125,-0.03125 -0.125,-0.109375 0,-0.03125 0,-0.046875 0.046875,-0.21875 z m 0,0"
               id="id-87e767f0-4043-4456-b042-d070986062b7" />
          </g>
          <g
             id="id-5f091f1f-a17a-4fa9-8287-0c78eca1bc8e" />
          <g
             id="id-6e82e819-b544-4bc3-977a-020d234a3d4a">
            <path
               d="M 2.46875,-5.21875 C 1.15625,-4.296875 0.796875,-2.8125 0.796875,-1.75 c 0,0.984375 0.296875,2.515625 1.671875,3.484375 0.0625,0 0.140625,0 0.140625,-0.078125 0,-0.046875 -0.015625,-0.0625 -0.0625,-0.109375 C 1.609375,0.703125 1.28125,-0.46875 1.28125,-1.734375 1.28125,-3.625 2,-4.546875 2.5625,-5.0625 2.59375,-5.09375 2.609375,-5.109375 2.609375,-5.140625 2.609375,-5.21875 2.53125,-5.21875 2.46875,-5.21875 Z m 0,0"
               id="id-536dca4d-081b-4e57-9f99-6f6c9a0ea884" />
          </g>
          <g
             id="id-b192bc00-024a-444e-87de-9e51c482527a">
            <path
               d="m 0.625,-5.21875 c -0.046875,0 -0.125,0 -0.125,0.078125 0,0.03125 0.015625,0.046875 0.0625,0.109375 0.59375,0.546875 1.265625,1.484375 1.265625,3.28125 0,1.453125 -0.453125,2.5625 -1.203125,3.234375 -0.125,0.125 -0.125,0.125 -0.125,0.171875 0,0.03125 0.015625,0.078125 0.078125,0.078125 0.09375,0 0.75,-0.453125 1.21875,-1.328125 0.296875,-0.578125 0.5,-1.328125 0.5,-2.140625 C 2.296875,-2.71875 2,-4.25 0.625,-5.21875 Z m 0,0"
               id="id-9a4becc0-b77c-42e7-b769-70cb27521754" />
          </g>
          <g
             id="id-2cd0c41b-e816-443f-84f7-2e923d15e83a" />
          <g
             id="id-c2e7dc64-9121-40fd-b4c9-188b833ad94a">
            <path
               d="M 3.0625,-4.359375 C 3.0625,-4.46875 2.96875,-4.625 2.78125,-4.625 c -0.203125,0 -0.390625,0.203125 -0.390625,0.390625 0,0.109375 0.078125,0.265625 0.28125,0.265625 0.1875,0 0.390625,-0.1875 0.390625,-0.390625 z M 1.578125,0.34375 C 1.46875,0.828125 1.09375,1.21875 0.6875,1.21875 c -0.09375,0 -0.171875,0 -0.25,-0.03125 0.171875,-0.09375 0.234375,-0.25 0.234375,-0.359375 0,-0.171875 -0.140625,-0.25 -0.28125,-0.25 C 0.1875,0.578125 0,0.765625 0,0.984375 c 0,0.265625 0.265625,0.4375 0.6875,0.4375 0.421875,0 1.234375,-0.25 1.453125,-1.09375 l 0.625,-2.5 c 0.015625,-0.078125 0.03125,-0.140625 0.03125,-0.25 0,-0.375 -0.328125,-0.65625 -0.734375,-0.65625 -0.78125,0 -1.21875,0.96875 -1.21875,1.078125 0,0.078125 0.09375,0.078125 0.109375,0.078125 0.078125,0 0.09375,-0.015625 0.140625,-0.125 C 1.265625,-2.453125 1.625,-2.875 2.03125,-2.875 c 0.171875,0 0.234375,0.109375 0.234375,0.34375 0,0.078125 0,0.171875 -0.015625,0.203125 z m 0,0"
               id="id-601dc25f-9e15-4a54-b917-d06c0f78374b" />
          </g>
        </g>
      </defs>
      <g
         fill="#000000"
         fill-opacity="1"
         id="id-12f262f9-89e4-439a-a385-9590be9d7ba0"
         transform="translate(-149.118,-127.953)">
        <g
           transform="translate(148.712,134.765)"
           id="g4494">
          <path
             d="m 1.578125,-0.78125 c -0.09375,0.390625 -0.109375,0.46875 -0.90625,0.46875 -0.15625,0 -0.265625,0 -0.265625,0.1875 C 0.40625,0 0.484375,0 0.671875,0 h 3.3125 c 2.0625,0 4.03125,-2.109375 4.03125,-4.28125 0,-1.40625 -0.84375,-2.53125 -2.34375,-2.53125 h -3.34375 c -0.1875,0 -0.296875,0 -0.296875,0.1875 0,0.125 0.078125,0.125 0.28125,0.125 0.125,0 0.3125,0.015625 0.421875,0.015625 0.171875,0.03125 0.21875,0.046875 0.21875,0.171875 0,0.03125 0,0.0625 -0.03125,0.1875 z M 3.734375,-6.125 C 3.828125,-6.46875 3.84375,-6.5 4.28125,-6.5 h 1.0625 c 0.96875,0 1.796875,0.53125 1.796875,1.84375 0,0.484375 -0.1875,2.125 -1.046875,3.21875 -0.28125,0.375 -1.0625,1.125 -2.296875,1.125 h -1.125 c -0.140625,0 -0.15625,0 -0.21875,0 -0.09375,-0.015625 -0.125,-0.03125 -0.125,-0.109375 0,-0.03125 0,-0.046875 0.046875,-0.21875 z m 0,0"
             id="id-3eb68a4c-4c6d-4665-9627-b786485bd34f" />
        </g>
      </g>
      <g
         fill="#000000"
         fill-opacity="1"
         id="id-0aabea65-2441-4614-b96a-bdb412b71be7"
         transform="translate(-149.118,-127.953)">
        <g
           transform="translate(156.961,136.563)"
           id="g4498">
          <path
             d="M 2.46875,-5.21875 C 1.15625,-4.296875 0.796875,-2.8125 0.796875,-1.75 c 0,0.984375 0.296875,2.515625 1.671875,3.484375 0.0625,0 0.140625,0 0.140625,-0.078125 0,-0.046875 -0.015625,-0.0625 -0.0625,-0.109375 C 1.609375,0.703125 1.28125,-0.46875 1.28125,-1.734375 1.28125,-3.625 2,-4.546875 2.5625,-5.0625 2.59375,-5.09375 2.609375,-5.109375 2.609375,-5.140625 2.609375,-5.21875 2.53125,-5.21875 2.46875,-5.21875 Z m 0,0"
             id="id-50ee00da-3f55-4b8d-bae2-f3bcb5945ceb" />
        </g>
      </g>
      <g
         fill="#000000"
         fill-opacity="1"
         id="id-331cee44-1b33-4182-9b44-d88321156fbf"
         transform="translate(-149.118,-127.953)">
        <g
           transform="translate(160.074,136.563)"
           id="g4502">
          <path
             d="M 3.0625,-4.359375 C 3.0625,-4.46875 2.96875,-4.625 2.78125,-4.625 c -0.203125,0 -0.390625,0.203125 -0.390625,0.390625 0,0.109375 0.078125,0.265625 0.28125,0.265625 0.1875,0 0.390625,-0.1875 0.390625,-0.390625 z M 1.578125,0.34375 C 1.46875,0.828125 1.09375,1.21875 0.6875,1.21875 c -0.09375,0 -0.171875,0 -0.25,-0.03125 0.171875,-0.09375 0.234375,-0.25 0.234375,-0.359375 0,-0.171875 -0.140625,-0.25 -0.28125,-0.25 C 0.1875,0.578125 0,0.765625 0,0.984375 c 0,0.265625 0.265625,0.4375 0.6875,0.4375 0.421875,0 1.234375,-0.25 1.453125,-1.09375 l 0.625,-2.5 c 0.015625,-0.078125 0.03125,-0.140625 0.03125,-0.25 0,-0.375 -0.328125,-0.65625 -0.734375,-0.65625 -0.78125,0 -1.21875,0.96875 -1.21875,1.078125 0,0.078125 0.09375,0.078125 0.109375,0.078125 0.078125,0 0.09375,-0.015625 0.140625,-0.125 C 1.265625,-2.453125 1.625,-2.875 2.03125,-2.875 c 0.171875,0 0.234375,0.109375 0.234375,0.34375 0,0.078125 0,0.171875 -0.015625,0.203125 z m 0,0"
             id="id-83fd6e7a-6d75-4771-810f-058db4718d08" />
        </g>
      </g>
      <g
         fill="#000000"
         fill-opacity="1"
         id="id-67f796bf-65c7-4431-9181-3f5bef1ca651"
         transform="translate(-149.118,-127.953)">
        <g
           transform="translate(163.774,136.563)"
           id="g4506">
          <path
             d="m 0.625,-5.21875 c -0.046875,0 -0.125,0 -0.125,0.078125 0,0.03125 0.015625,0.046875 0.0625,0.109375 0.59375,0.546875 1.265625,1.484375 1.265625,3.28125 0,1.453125 -0.453125,2.5625 -1.203125,3.234375 -0.125,0.125 -0.125,0.125 -0.125,0.171875 0,0.03125 0.015625,0.078125 0.078125,0.078125 0.09375,0 0.75,-0.453125 1.21875,-1.328125 0.296875,-0.578125 0.5,-1.328125 0.5,-2.140625 C 2.296875,-2.71875 2,-4.25 0.625,-5.21875 Z m 0,0"
             id="id-914170e9-8618-4cfb-b1fc-9c7f71dc95c2" />
        </g>
      </g>
    </g>
    <g
       transform="matrix(0.91939,0,0,0.91939,149.35435,72.829667)"
       ns2:version="1.3.0"
       ns2:texconverter="pdflatex"
       ns2:pdfconverter="inkscape"
       ns2:text="$D_{(N)}$"
       ns2:preamble="/home/abhirup/textext.tex"
       ns2:scale="3.4748625763086998"
       ns2:alignment="middle center"
       ns2:jacobian_sqrt="0.91939"
       id="g4606">
      <defs
         id="id-198129de-5b6d-479c-827b-41fa6123a430">
        <g
           id="id-e0c80c4d-539f-40fa-b405-f7284cac0a02">
          <g
             id="id-d32fb2a3-1adf-4d5e-9a7c-dd608cb552cc" />
          <g
             id="id-61abef78-42ee-4c3b-a00f-4896bdf730e6">
            <path
               d="m 1.578125,-0.78125 c -0.09375,0.390625 -0.109375,0.46875 -0.90625,0.46875 -0.15625,0 -0.265625,0 -0.265625,0.1875 C 0.40625,0 0.484375,0 0.671875,0 h 3.3125 c 2.0625,0 4.03125,-2.109375 4.03125,-4.28125 0,-1.40625 -0.84375,-2.53125 -2.34375,-2.53125 h -3.34375 c -0.1875,0 -0.296875,0 -0.296875,0.1875 0,0.125 0.078125,0.125 0.28125,0.125 0.125,0 0.3125,0.015625 0.421875,0.015625 0.171875,0.03125 0.21875,0.046875 0.21875,0.171875 0,0.03125 0,0.0625 -0.03125,0.1875 z M 3.734375,-6.125 C 3.828125,-6.46875 3.84375,-6.5 4.28125,-6.5 h 1.0625 c 0.96875,0 1.796875,0.53125 1.796875,1.84375 0,0.484375 -0.1875,2.125 -1.046875,3.21875 -0.28125,0.375 -1.0625,1.125 -2.296875,1.125 h -1.125 c -0.140625,0 -0.15625,0 -0.21875,0 -0.09375,-0.015625 -0.125,-0.03125 -0.125,-0.109375 0,-0.03125 0,-0.046875 0.046875,-0.21875 z m 0,0"
               id="id-57385370-2869-4423-9578-348609c31148" />
          </g>
          <g
             id="id-e5ee4c9b-b701-4224-81e5-0aacfc65221c" />
          <g
             id="id-5b01693a-ec49-4329-8f98-b61797ac5a7f">
            <path
               d="M 2.46875,-5.21875 C 1.15625,-4.296875 0.796875,-2.8125 0.796875,-1.75 c 0,0.984375 0.296875,2.515625 1.671875,3.484375 0.0625,0 0.140625,0 0.140625,-0.078125 0,-0.046875 -0.015625,-0.0625 -0.0625,-0.109375 C 1.609375,0.703125 1.28125,-0.46875 1.28125,-1.734375 1.28125,-3.625 2,-4.546875 2.5625,-5.0625 2.59375,-5.09375 2.609375,-5.109375 2.609375,-5.140625 2.609375,-5.21875 2.53125,-5.21875 2.46875,-5.21875 Z m 0,0"
               id="id-8e34c685-e650-42d3-8280-83b180777fef" />
          </g>
          <g
             id="id-e0dc5cb7-e133-4b0e-8d3f-47e96380a4d2">
            <path
               d="m 0.625,-5.21875 c -0.046875,0 -0.125,0 -0.125,0.078125 0,0.03125 0.015625,0.046875 0.0625,0.109375 0.59375,0.546875 1.265625,1.484375 1.265625,3.28125 0,1.453125 -0.453125,2.5625 -1.203125,3.234375 -0.125,0.125 -0.125,0.125 -0.125,0.171875 0,0.03125 0.015625,0.078125 0.078125,0.078125 0.09375,0 0.75,-0.453125 1.21875,-1.328125 0.296875,-0.578125 0.5,-1.328125 0.5,-2.140625 C 2.296875,-2.71875 2,-4.25 0.625,-5.21875 Z m 0,0"
               id="id-aa498fae-a62b-42a8-8c82-8373ad2d299f" />
          </g>
          <g
             id="id-468a3af7-db06-445b-ab70-aa6d13b443d9" />
          <g
             id="id-845baa4d-9a73-4ba4-ac9c-8f899fe8f24d">
            <path
               d="M 5.8125,-4 C 5.875,-4.265625 6,-4.5 6.546875,-4.515625 c 0.03125,0 0.140625,0 0.140625,-0.140625 0,-0.046875 -0.03125,-0.109375 -0.109375,-0.109375 -0.21875,0 -0.484375,0.03125 -0.71875,0.03125 -0.171875,0 -0.5625,-0.03125 -0.734375,-0.03125 -0.03125,0 -0.140625,0 -0.140625,0.15625 0,0.09375 0.09375,0.09375 0.15625,0.09375 0.328125,0.015625 0.4375,0.125 0.4375,0.296875 0,0.046875 0,0.09375 -0.03125,0.15625 l -0.75,3.046875 -1.765625,-3.625 c -0.0625,-0.125 -0.078125,-0.125 -0.25,-0.125 H 1.828125 c -0.125,0 -0.21875,0 -0.21875,0.15625 0,0.09375 0.078125,0.09375 0.234375,0.09375 0.140625,0 0.296875,0.015625 0.4375,0.046875 L 1.359375,-0.75 c -0.0625,0.265625 -0.1875,0.484375 -0.734375,0.5 -0.046875,0 -0.140625,0 -0.140625,0.140625 C 0.484375,-0.03125 0.53125,0 0.578125,0 0.8125,0 1.078125,-0.03125 1.3125,-0.03125 1.484375,-0.03125 1.875,0 2.046875,0 2.125,0 2.1875,-0.03125 2.1875,-0.140625 2.1875,-0.25 2.109375,-0.25 2.03125,-0.25 c -0.4375,-0.015625 -0.4375,-0.203125 -0.4375,-0.296875 0,-0.03125 0,-0.0625 0.015625,-0.171875 l 0.90625,-3.5625 2.03125,4.15625 C 4.59375,0 4.625,0 4.703125,0 4.8125,0 4.8125,-0.015625 4.84375,-0.140625 Z m 0,0"
               id="id-7e322d0a-ab9c-4292-a8aa-9f569a9f682b" />
          </g>
        </g>
      </defs>
      <g
         fill="#000000"
         fill-opacity="1"
         id="id-80547814-72ab-46d9-95c6-9a988fe81507"
         transform="translate(-149.118,-127.953)">
        <g
           transform="translate(148.712,134.765)"
           id="g5002">
          <path
             d="m 1.578125,-0.78125 c -0.09375,0.390625 -0.109375,0.46875 -0.90625,0.46875 -0.15625,0 -0.265625,0 -0.265625,0.1875 C 0.40625,0 0.484375,0 0.671875,0 h 3.3125 c 2.0625,0 4.03125,-2.109375 4.03125,-4.28125 0,-1.40625 -0.84375,-2.53125 -2.34375,-2.53125 h -3.34375 c -0.1875,0 -0.296875,0 -0.296875,0.1875 0,0.125 0.078125,0.125 0.28125,0.125 0.125,0 0.3125,0.015625 0.421875,0.015625 0.171875,0.03125 0.21875,0.046875 0.21875,0.171875 0,0.03125 0,0.0625 -0.03125,0.1875 z M 3.734375,-6.125 C 3.828125,-6.46875 3.84375,-6.5 4.28125,-6.5 h 1.0625 c 0.96875,0 1.796875,0.53125 1.796875,1.84375 0,0.484375 -0.1875,2.125 -1.046875,3.21875 -0.28125,0.375 -1.0625,1.125 -2.296875,1.125 h -1.125 c -0.140625,0 -0.15625,0 -0.21875,0 -0.09375,-0.015625 -0.125,-0.03125 -0.125,-0.109375 0,-0.03125 0,-0.046875 0.046875,-0.21875 z m 0,0"
             id="id-5a61537e-af6a-4e34-a7d6-f0b3a7a98b33" />
        </g>
      </g>
      <g
         fill="#000000"
         fill-opacity="1"
         id="id-0d8c7bde-70be-4b7a-b369-8ddcbac2fd1a"
         transform="translate(-149.118,-127.953)">
        <g
           transform="translate(156.961,136.563)"
           id="g5006">
          <path
             d="M 2.46875,-5.21875 C 1.15625,-4.296875 0.796875,-2.8125 0.796875,-1.75 c 0,0.984375 0.296875,2.515625 1.671875,3.484375 0.0625,0 0.140625,0 0.140625,-0.078125 0,-0.046875 -0.015625,-0.0625 -0.0625,-0.109375 C 1.609375,0.703125 1.28125,-0.46875 1.28125,-1.734375 1.28125,-3.625 2,-4.546875 2.5625,-5.0625 2.59375,-5.09375 2.609375,-5.109375 2.609375,-5.140625 2.609375,-5.21875 2.53125,-5.21875 2.46875,-5.21875 Z m 0,0"
             id="id-be24fd46-cedb-4ae0-b107-f9083bf78539" />
        </g>
      </g>
      <g
         fill="#000000"
         fill-opacity="1"
         id="id-07e7602f-5a3f-4e6e-b565-f7ee73e386c4"
         transform="translate(-149.118,-127.953)">
        <g
           transform="translate(160.074,136.563)"
           id="g5010">
          <path
             d="M 5.8125,-4 C 5.875,-4.265625 6,-4.5 6.546875,-4.515625 c 0.03125,0 0.140625,0 0.140625,-0.140625 0,-0.046875 -0.03125,-0.109375 -0.109375,-0.109375 -0.21875,0 -0.484375,0.03125 -0.71875,0.03125 -0.171875,0 -0.5625,-0.03125 -0.734375,-0.03125 -0.03125,0 -0.140625,0 -0.140625,0.15625 0,0.09375 0.09375,0.09375 0.15625,0.09375 0.328125,0.015625 0.4375,0.125 0.4375,0.296875 0,0.046875 0,0.09375 -0.03125,0.15625 l -0.75,3.046875 -1.765625,-3.625 c -0.0625,-0.125 -0.078125,-0.125 -0.25,-0.125 H 1.828125 c -0.125,0 -0.21875,0 -0.21875,0.15625 0,0.09375 0.078125,0.09375 0.234375,0.09375 0.140625,0 0.296875,0.015625 0.4375,0.046875 L 1.359375,-0.75 c -0.0625,0.265625 -0.1875,0.484375 -0.734375,0.5 -0.046875,0 -0.140625,0 -0.140625,0.140625 C 0.484375,-0.03125 0.53125,0 0.578125,0 0.8125,0 1.078125,-0.03125 1.3125,-0.03125 1.484375,-0.03125 1.875,0 2.046875,0 2.125,0 2.1875,-0.03125 2.1875,-0.140625 2.1875,-0.25 2.109375,-0.25 2.03125,-0.25 c -0.4375,-0.015625 -0.4375,-0.203125 -0.4375,-0.296875 0,-0.03125 0,-0.0625 0.015625,-0.171875 l 0.90625,-3.5625 2.03125,4.15625 C 4.59375,0 4.625,0 4.703125,0 4.8125,0 4.8125,-0.015625 4.84375,-0.140625 Z m 0,0"
             id="id-4a096eb9-4665-4730-95ae-992b29b20403" />
        </g>
      </g>
      <g
         fill="#000000"
         fill-opacity="1"
         id="id-76aea7ef-ccef-488e-aea2-d05ceb9b6ac6"
         transform="translate(-149.118,-127.953)">
        <g
           transform="translate(167.132,136.563)"
           id="g5014">
          <path
             d="m 0.625,-5.21875 c -0.046875,0 -0.125,0 -0.125,0.078125 0,0.03125 0.015625,0.046875 0.0625,0.109375 0.59375,0.546875 1.265625,1.484375 1.265625,3.28125 0,1.453125 -0.453125,2.5625 -1.203125,3.234375 -0.125,0.125 -0.125,0.125 -0.125,0.171875 0,0.03125 0.015625,0.078125 0.078125,0.078125 0.09375,0 0.75,-0.453125 1.21875,-1.328125 0.296875,-0.578125 0.5,-1.328125 0.5,-2.140625 C 2.296875,-2.71875 2,-4.25 0.625,-5.21875 Z m 0,0"
             id="id-ccef40a6-5f31-47d3-a1f5-959c7269dba0" />
        </g>
      </g>
    </g>
    <g
       transform="matrix(0.91939,0,0,0.91939,118.73664,72.829167)"
       ns2:version="1.3.0"
       ns2:texconverter="pdflatex"
       ns2:pdfconverter="inkscape"
       ns2:text="$D_{(N-1)}$"
       ns2:preamble="/home/abhirup/textext.tex"
       ns2:scale="3.4748625763086998"
       ns2:alignment="middle center"
       ns2:jacobian_sqrt="0.91939"
       id="g5114">
      <defs
         id="id-fc98945d-2b40-4f6c-bc0f-34f182a271bc">
        <g
           id="id-3dbcaeea-162d-495f-95fb-790d79ec616c">
          <g
             id="id-56cc4a19-581e-4250-a010-1132acfd6de0" />
          <g
             id="id-b6e4a5ed-17a5-4c0a-b47a-2269751c3b8d">
            <path
               d="m 1.578125,-0.78125 c -0.09375,0.390625 -0.109375,0.46875 -0.90625,0.46875 -0.15625,0 -0.265625,0 -0.265625,0.1875 C 0.40625,0 0.484375,0 0.671875,0 h 3.3125 c 2.0625,0 4.03125,-2.109375 4.03125,-4.28125 0,-1.40625 -0.84375,-2.53125 -2.34375,-2.53125 h -3.34375 c -0.1875,0 -0.296875,0 -0.296875,0.1875 0,0.125 0.078125,0.125 0.28125,0.125 0.125,0 0.3125,0.015625 0.421875,0.015625 0.171875,0.03125 0.21875,0.046875 0.21875,0.171875 0,0.03125 0,0.0625 -0.03125,0.1875 z M 3.734375,-6.125 C 3.828125,-6.46875 3.84375,-6.5 4.28125,-6.5 h 1.0625 c 0.96875,0 1.796875,0.53125 1.796875,1.84375 0,0.484375 -0.1875,2.125 -1.046875,3.21875 -0.28125,0.375 -1.0625,1.125 -2.296875,1.125 h -1.125 c -0.140625,0 -0.15625,0 -0.21875,0 -0.09375,-0.015625 -0.125,-0.03125 -0.125,-0.109375 0,-0.03125 0,-0.046875 0.046875,-0.21875 z m 0,0"
               id="id-73b1f432-4329-47b7-992e-b0e90c5e8e86" />
          </g>
          <g
             id="id-a0dd49f7-93a5-471d-adb9-48d5c64ff576" />
          <g
             id="id-89ce7378-e988-4187-90a7-242ebed21d26">
            <path
               d="M 2.46875,-5.21875 C 1.15625,-4.296875 0.796875,-2.8125 0.796875,-1.75 c 0,0.984375 0.296875,2.515625 1.671875,3.484375 0.0625,0 0.140625,0 0.140625,-0.078125 0,-0.046875 -0.015625,-0.0625 -0.0625,-0.109375 C 1.609375,0.703125 1.28125,-0.46875 1.28125,-1.734375 1.28125,-3.625 2,-4.546875 2.5625,-5.0625 2.59375,-5.09375 2.609375,-5.109375 2.609375,-5.140625 2.609375,-5.21875 2.53125,-5.21875 2.46875,-5.21875 Z m 0,0"
               id="id-575430ed-8f62-40c2-96d9-039070c62961" />
          </g>
          <g
             id="id-80386b56-f397-4139-a55b-6cd37b978707">
            <path
               d="m 2.328125,-4.4375 c 0,-0.1875 0,-0.1875 -0.203125,-0.1875 -0.453125,0.4375 -1.078125,0.4375 -1.359375,0.4375 v 0.25 c 0.15625,0 0.625,0 1,-0.1875 v 3.546875 c 0,0.234375 0,0.328125 -0.6875,0.328125 H 0.8125 V 0 c 0.125,0 0.984375,-0.03125 1.234375,-0.03125 0.21875,0 1.09375,0.03125 1.25,0.03125 V -0.25 H 3.03125 c -0.703125,0 -0.703125,-0.09375 -0.703125,-0.328125 z m 0,0"
               id="id-707dce7f-dfac-4eac-a7ce-82b36469ba9a" />
          </g>
          <g
             id="id-76c5c2e5-b15a-405f-bd36-746c1758af77">
            <path
               d="m 0.625,-5.21875 c -0.046875,0 -0.125,0 -0.125,0.078125 0,0.03125 0.015625,0.046875 0.0625,0.109375 0.59375,0.546875 1.265625,1.484375 1.265625,3.28125 0,1.453125 -0.453125,2.5625 -1.203125,3.234375 -0.125,0.125 -0.125,0.125 -0.125,0.171875 0,0.03125 0.015625,0.078125 0.078125,0.078125 0.09375,0 0.75,-0.453125 1.21875,-1.328125 0.296875,-0.578125 0.5,-1.328125 0.5,-2.140625 C 2.296875,-2.71875 2,-4.25 0.625,-5.21875 Z m 0,0"
               id="id-06a83ea7-1912-450e-8cdc-0a72a3c71cbf" />
          </g>
          <g
             id="id-17c5f934-2c10-46ab-87fa-8c9382cf7e73" />
          <g
             id="id-6c8217a4-1446-4d5a-bb28-830bc2bf07e2">
            <path
               d="M 5.8125,-4 C 5.875,-4.265625 6,-4.5 6.546875,-4.515625 c 0.03125,0 0.140625,0 0.140625,-0.140625 0,-0.046875 -0.03125,-0.109375 -0.109375,-0.109375 -0.21875,0 -0.484375,0.03125 -0.71875,0.03125 -0.171875,0 -0.5625,-0.03125 -0.734375,-0.03125 -0.03125,0 -0.140625,0 -0.140625,0.15625 0,0.09375 0.09375,0.09375 0.15625,0.09375 0.328125,0.015625 0.4375,0.125 0.4375,0.296875 0,0.046875 0,0.09375 -0.03125,0.15625 l -0.75,3.046875 -1.765625,-3.625 c -0.0625,-0.125 -0.078125,-0.125 -0.25,-0.125 H 1.828125 c -0.125,0 -0.21875,0 -0.21875,0.15625 0,0.09375 0.078125,0.09375 0.234375,0.09375 0.140625,0 0.296875,0.015625 0.4375,0.046875 L 1.359375,-0.75 c -0.0625,0.265625 -0.1875,0.484375 -0.734375,0.5 -0.046875,0 -0.140625,0 -0.140625,0.140625 C 0.484375,-0.03125 0.53125,0 0.578125,0 0.8125,0 1.078125,-0.03125 1.3125,-0.03125 1.484375,-0.03125 1.875,0 2.046875,0 2.125,0 2.1875,-0.03125 2.1875,-0.140625 2.1875,-0.25 2.109375,-0.25 2.03125,-0.25 c -0.4375,-0.015625 -0.4375,-0.203125 -0.4375,-0.296875 0,-0.03125 0,-0.0625 0.015625,-0.171875 l 0.90625,-3.5625 2.03125,4.15625 C 4.59375,0 4.625,0 4.703125,0 4.8125,0 4.8125,-0.015625 4.84375,-0.140625 Z m 0,0"
               id="id-efeff020-0931-450c-8cf5-790f3c3b960c" />
          </g>
          <g
             id="id-582f5e70-f220-46eb-8342-2cd52de80639" />
          <g
             id="id-76f6f3b4-4ecd-4190-9ca8-ef08678dd448">
            <path
               d="m 5.1875,-1.578125 c 0.109375,0 0.28125,0 0.28125,-0.15625 0,-0.1875 -0.171875,-0.1875 -0.28125,-0.1875 H 1.03125 c -0.109375,0 -0.28125,0 -0.28125,0.171875 0,0.171875 0.15625,0.171875 0.28125,0.171875 z m 0,0"
               id="id-25943883-2813-472d-976c-f97587590547" />
          </g>
        </g>
      </defs>
      <g
         fill="#000000"
         fill-opacity="1"
         id="id-57e6f6b6-71e0-4d0d-95cd-77af56dc26f0"
         transform="translate(-149.118,-127.953)">
        <g
           transform="translate(148.712,134.765)"
           id="g5567">
          <path
             d="m 1.578125,-0.78125 c -0.09375,0.390625 -0.109375,0.46875 -0.90625,0.46875 -0.15625,0 -0.265625,0 -0.265625,0.1875 C 0.40625,0 0.484375,0 0.671875,0 h 3.3125 c 2.0625,0 4.03125,-2.109375 4.03125,-4.28125 0,-1.40625 -0.84375,-2.53125 -2.34375,-2.53125 h -3.34375 c -0.1875,0 -0.296875,0 -0.296875,0.1875 0,0.125 0.078125,0.125 0.28125,0.125 0.125,0 0.3125,0.015625 0.421875,0.015625 0.171875,0.03125 0.21875,0.046875 0.21875,0.171875 0,0.03125 0,0.0625 -0.03125,0.1875 z M 3.734375,-6.125 C 3.828125,-6.46875 3.84375,-6.5 4.28125,-6.5 h 1.0625 c 0.96875,0 1.796875,0.53125 1.796875,1.84375 0,0.484375 -0.1875,2.125 -1.046875,3.21875 -0.28125,0.375 -1.0625,1.125 -2.296875,1.125 h -1.125 c -0.140625,0 -0.15625,0 -0.21875,0 -0.09375,-0.015625 -0.125,-0.03125 -0.125,-0.109375 0,-0.03125 0,-0.046875 0.046875,-0.21875 z m 0,0"
             id="id-bed633f7-0233-4000-8fc2-19572bc86527" />
        </g>
      </g>
      <g
         fill="#000000"
         fill-opacity="1"
         id="id-5f1f050d-30f8-46f4-9a92-75ccba901670"
         transform="translate(-149.118,-127.953)">
        <g
           transform="translate(156.961,136.563)"
           id="g5571">
          <path
             d="M 2.46875,-5.21875 C 1.15625,-4.296875 0.796875,-2.8125 0.796875,-1.75 c 0,0.984375 0.296875,2.515625 1.671875,3.484375 0.0625,0 0.140625,0 0.140625,-0.078125 0,-0.046875 -0.015625,-0.0625 -0.0625,-0.109375 C 1.609375,0.703125 1.28125,-0.46875 1.28125,-1.734375 1.28125,-3.625 2,-4.546875 2.5625,-5.0625 2.59375,-5.09375 2.609375,-5.109375 2.609375,-5.140625 2.609375,-5.21875 2.53125,-5.21875 2.46875,-5.21875 Z m 0,0"
             id="id-b6b55cd6-3fa2-4962-82a5-b11743fb79d7" />
        </g>
      </g>
      <g
         fill="#000000"
         fill-opacity="1"
         id="id-b31da74d-36b8-4365-b5b3-b4da2f4f08d3"
         transform="translate(-149.118,-127.953)">
        <g
           transform="translate(160.074,136.563)"
           id="g5575">
          <path
             d="M 5.8125,-4 C 5.875,-4.265625 6,-4.5 6.546875,-4.515625 c 0.03125,0 0.140625,0 0.140625,-0.140625 0,-0.046875 -0.03125,-0.109375 -0.109375,-0.109375 -0.21875,0 -0.484375,0.03125 -0.71875,0.03125 -0.171875,0 -0.5625,-0.03125 -0.734375,-0.03125 -0.03125,0 -0.140625,0 -0.140625,0.15625 0,0.09375 0.09375,0.09375 0.15625,0.09375 0.328125,0.015625 0.4375,0.125 0.4375,0.296875 0,0.046875 0,0.09375 -0.03125,0.15625 l -0.75,3.046875 -1.765625,-3.625 c -0.0625,-0.125 -0.078125,-0.125 -0.25,-0.125 H 1.828125 c -0.125,0 -0.21875,0 -0.21875,0.15625 0,0.09375 0.078125,0.09375 0.234375,0.09375 0.140625,0 0.296875,0.015625 0.4375,0.046875 L 1.359375,-0.75 c -0.0625,0.265625 -0.1875,0.484375 -0.734375,0.5 -0.046875,0 -0.140625,0 -0.140625,0.140625 C 0.484375,-0.03125 0.53125,0 0.578125,0 0.8125,0 1.078125,-0.03125 1.3125,-0.03125 1.484375,-0.03125 1.875,0 2.046875,0 2.125,0 2.1875,-0.03125 2.1875,-0.140625 2.1875,-0.25 2.109375,-0.25 2.03125,-0.25 c -0.4375,-0.015625 -0.4375,-0.203125 -0.4375,-0.296875 0,-0.03125 0,-0.0625 0.015625,-0.171875 l 0.90625,-3.5625 2.03125,4.15625 C 4.59375,0 4.625,0 4.703125,0 4.8125,0 4.8125,-0.015625 4.84375,-0.140625 Z m 0,0"
             id="id-e91cb94b-058d-4f39-abc2-8a6913bdabde" />
        </g>
      </g>
      <g
         fill="#000000"
         fill-opacity="1"
         id="id-8cb87c5f-c3b3-4f2d-a0d3-b50edc043fd5"
         transform="translate(-149.118,-127.953)">
        <g
           transform="translate(167.132,136.563)"
           id="g5579">
          <path
             d="m 5.1875,-1.578125 c 0.109375,0 0.28125,0 0.28125,-0.15625 0,-0.1875 -0.171875,-0.1875 -0.28125,-0.1875 H 1.03125 c -0.109375,0 -0.28125,0 -0.28125,0.171875 0,0.171875 0.15625,0.171875 0.28125,0.171875 z m 0,0"
             id="id-d9134ccf-832b-4d98-b762-964d004b1b51" />
        </g>
      </g>
      <g
         fill="#000000"
         fill-opacity="1"
         id="id-78bf7504-6fd3-4be8-a4d3-2797024516f6"
         transform="translate(-149.118,-127.953)">
        <g
           transform="translate(173.359,136.563)"
           id="g5583">
          <path
             d="m 2.328125,-4.4375 c 0,-0.1875 0,-0.1875 -0.203125,-0.1875 -0.453125,0.4375 -1.078125,0.4375 -1.359375,0.4375 v 0.25 c 0.15625,0 0.625,0 1,-0.1875 v 3.546875 c 0,0.234375 0,0.328125 -0.6875,0.328125 H 0.8125 V 0 c 0.125,0 0.984375,-0.03125 1.234375,-0.03125 0.21875,0 1.09375,0.03125 1.25,0.03125 V -0.25 H 3.03125 c -0.703125,0 -0.703125,-0.09375 -0.703125,-0.328125 z m 0,0"
             id="id-ba05a5eb-17a5-4310-8e59-aadb09bbf6df" />
        </g>
        <g
           transform="translate(177.331,136.563)"
           id="g5586">
          <path
             d="m 0.625,-5.21875 c -0.046875,0 -0.125,0 -0.125,0.078125 0,0.03125 0.015625,0.046875 0.0625,0.109375 0.59375,0.546875 1.265625,1.484375 1.265625,3.28125 0,1.453125 -0.453125,2.5625 -1.203125,3.234375 -0.125,0.125 -0.125,0.125 -0.125,0.171875 0,0.03125 0.015625,0.078125 0.078125,0.078125 0.09375,0 0.75,-0.453125 1.21875,-1.328125 0.296875,-0.578125 0.5,-1.328125 0.5,-2.140625 C 2.296875,-2.71875 2,-4.25 0.625,-5.21875 Z m 0,0"
             id="id-cd60ca32-6ae2-48ea-857a-dd979e0288ee" />
        </g>
      </g>
    </g>
    <path
       style="fill:none;stroke:#000000;stroke-width:1;stroke-linecap:butt;stroke-linejoin:miter;stroke-miterlimit:4;stroke-dasharray:none;stroke-dashoffset:0;stroke-opacity:1;marker-end:url(#Arrow2Mend)"
       d="M 144.58137,138.14767 H 35.322758"
       id="path6911"
       inkscape:path-effect="#path-effect6913"
       inkscape:original-d="m 144.58137,138.14767 c -36.4191,2.7e-4 -72.838638,2.7e-4 -109.258612,0" />
    <path
       style="fill:none;stroke:#000000;stroke-width:0.888171;stroke-linecap:butt;stroke-linejoin:miter;stroke-miterlimit:4;stroke-dasharray:1.77634, 0.888171;stroke-dashoffset:0;stroke-opacity:1"
       d="m 36.803306,84.190618 c 5.861971,5.444664 9.324372,13.38608 9.324372,21.386522 0,8.00044 -3.462401,15.94186 -9.324372,21.38652"
       id="path8125"
       inkscape:path-effect="#path-effect8129"
       inkscape:original-d="m 36.803306,84.190618 c 3.108389,7.129049 6.216512,14.25789 9.324372,21.386522 3.107856,7.12863 -6.215983,14.25789 -9.324372,21.38652" />
    <rect
       style="opacity:1;fill:url(#linearGradient20323);fill-opacity:1;stroke:#ffffff;stroke-width:2.36765;stroke-miterlimit:4;stroke-dasharray:none;stroke-dashoffset:0"
       id="rect10084"
       width="159.57382"
       height="10.166804"
       x="-168.70969"
       y="101.50169"
       transform="scale(-1,1)" />
    <g
       transform="matrix(0.91939,0,0,0.91939,49.864733,143.75544)"
       ns2:version="1.3.0"
       ns2:texconverter="pdflatex"
       ns2:pdfconverter="inkscape"
       ns2:text="URG transformations"
       ns2:preamble="/home/abhirup/textext.tex"
       ns2:scale="3.4748625763086998"
       ns2:alignment="middle center"
       ns2:inkscapeversion="1.1.2"
       ns2:jacobian_sqrt="0.91939"
       id="g9646">
      <defs
         id="id-c90bccca-57cc-49fc-83e5-8be4f2cc6b2b">
        <g
           id="id-eda19ca7-b33f-4dde-adbf-2ad2aba7212f">
          <g
             id="id-31d4bb14-1dab-4eb9-9ed3-b1e2cd6266ad">
            <path
               d="M 5.40625,-10.46875 H 1.21875 V 3.484375 h 4.1875 z M 4.875,-9.953125 V 2.96875 H 1.78125 V -9.953125 Z M 3.234375,-4.5 c -0.390625,0 -0.9375,0.125 -0.9375,0.390625 0,0.125 0.09375,0.234375 0.25,0.234375 0.03125,0 0.078125,-0.015625 0.125,-0.03125 0.171875,-0.078125 0.3125,-0.109375 0.515625,-0.109375 0.5,0 0.609375,0.296875 0.609375,0.6875 0,0.53125 -0.1875,0.71875 -0.90625,0.765625 v 0.84375 c 0,0.140625 0.125,0.234375 0.25,0.234375 0.125,0 0.25,-0.09375 0.25,-0.234375 V -2.171875 C 4.0625,-2.265625 4.34375,-2.65625 4.34375,-3.34375 4.34375,-3.953125 4.09375,-4.5 3.234375,-4.5 Z m -0.09375,3.296875 c -0.203125,0 -0.34375,0.15625 -0.34375,0.359375 0,0.203125 0.140625,0.359375 0.34375,0.359375 0.203125,0 0.34375,-0.15625 0.34375,-0.359375 0,-0.203125 -0.140625,-0.359375 -0.34375,-0.359375 z m 0,0"
               id="id-63a16a2b-fe5c-445f-a83b-23ba73bbb97d" />
          </g>
          <g
             id="id-61cf1032-e2ad-4dc2-8d6e-8fcf84989869">
            <path
               d="M 5.703125,-6.875 H 4.75 v 4.609375 c 0,1.0625 -0.46875,1.59375 -1.453125,1.59375 -0.984375,0 -1.453125,-0.53125 -1.453125,-1.59375 V -6.875 H 0.890625 v 4.671875 c 0,1.359375 0.828125,2.328125 2.40625,2.328125 1.53125,0 2.40625,-0.96875 2.40625,-2.328125 z m 0,0"
               id="id-8de5053f-1fc4-4455-980e-e49145d00894" />
          </g>
          <g
             id="id-0e5f8442-6b8a-49c6-b1cf-c3ef88e9966f">
            <path
               d="m 4.65625,0 h 1.125 L 3.921875,-3.078125 c 1,-0.296875 1.484375,-0.875 1.484375,-1.84375 0,-1.28125 -0.890625,-1.953125 -2.609375,-1.953125 H 1 V 0 H 1.9375 V -2.90625 H 3.015625 Z M 1.9375,-3.640625 V -6.125 h 0.859375 c 1.125,0 1.609375,0.34375 1.609375,1.203125 0,0.921875 -0.546875,1.28125 -1.5,1.28125 z m 0,0"
               id="id-fc0049c5-f712-43dd-b6aa-f778b3d49951" />
          </g>
          <g
             id="id-39f62a45-84bd-4fa3-ae73-25b93ff043c8">
            <path
               d="m 3.53125,-6.984375 c -1.59375,0 -2.984375,1.234375 -2.984375,3.546875 0,2.375 1.109375,3.5625 2.875,3.5625 0.890625,0 1.609375,-0.25 2.25,-0.609375 V -3.8125 H 3.40625 l 0.109375,0.765625 h 1.21875 v 2.078125 c -0.390625,0.21875 -0.84375,0.3125 -1.3125,0.3125 -1.203125,0 -1.859375,-0.8125 -1.859375,-2.78125 0,-2.03125 0.984375,-2.765625 1.96875,-2.765625 0.609375,0 1.03125,0.15625 1.5,0.546875 l 0.5625,-0.578125 C 5,-6.71875 4.4375,-6.984375 3.53125,-6.984375 Z m 0,0"
               id="id-5102e28b-f579-437d-a758-99a4d9778139" />
          </g>
          <g
             id="id-4b066e1d-d927-43f3-99c9-53163e6f2ede">
            <path
               d="m 3.25,-0.84375 c -0.265625,0.140625 -0.46875,0.203125 -0.703125,0.203125 -0.453125,0 -0.625,-0.25 -0.625,-0.78125 v -3.125 h 1.15625 L 3.171875,-5.25 h -1.25 V -6.546875 L 1,-6.4375 V -5.25 H 0.09375 v 0.703125 H 1 V -1.375 c 0,0.96875 0.53125,1.5 1.421875,1.5 C 2.875,0.125 3.25,0 3.59375,-0.234375 Z m 0,0"
               id="id-4a29f7e2-597d-4c94-8c8c-74c7bab8822d" />
          </g>
          <g
             id="id-25f7ccb4-f37e-45e9-a417-486230050aa3">
            <path
               d="m 3.203125,-5.375 c -0.640625,0 -1.125,0.40625 -1.40625,1.1875 L 1.703125,-5.25 H 0.921875 V 0 h 0.90625 v -3 c 0.21875,-1 0.609375,-1.46875 1.265625,-1.46875 0.1875,0 0.296875,0.015625 0.453125,0.046875 L 3.71875,-5.3125 C 3.5625,-5.359375 3.375,-5.375 3.203125,-5.375 Z m 0,0"
               id="id-63e1501d-4c35-43ca-9063-3d3ffc2deeac" />
          </g>
          <g
             id="id-f26fcd3d-ad44-498e-b58d-2947280c1010">
            <path
               d="M 4.4375,-1.21875 V -3.625 c 0,-1.09375 -0.578125,-1.75 -1.84375,-1.75 C 2,-5.375 1.421875,-5.25 0.78125,-5.015625 L 1,-4.34375 C 1.546875,-4.53125 2.03125,-4.625 2.421875,-4.625 c 0.734375,0 1.09375,0.28125 1.09375,1.03125 v 0.390625 H 2.71875 c -1.46875,0 -2.3125,0.609375 -2.3125,1.734375 0,0.9375 0.625,1.59375 1.671875,1.59375 0.640625,0 1.1875,-0.25 1.5625,-0.796875 0.15625,0.515625 0.5,0.734375 1.03125,0.796875 L 4.875,-0.515625 C 4.609375,-0.625 4.4375,-0.765625 4.4375,-1.21875 Z M 2.28125,-0.5625 c -0.59375,0 -0.90625,-0.328125 -0.90625,-0.953125 0,-0.71875 0.484375,-1.078125 1.453125,-1.078125 h 0.6875 v 1.203125 C 3.21875,-0.84375 2.828125,-0.5625 2.28125,-0.5625 Z m 0,0"
               id="id-047be3b6-fc2f-4e10-98b6-9ce86cd11f30" />
          </g>
          <g
             id="id-d8dab11e-d537-4e14-9877-9df40fdad32c">
            <path
               d="m 3.390625,-5.375 c -0.6875,0 -1.25,0.359375 -1.609375,0.90625 L 1.703125,-5.25 H 0.921875 V 0 h 0.90625 V -3.734375 C 2.1875,-4.28125 2.578125,-4.65625 3.171875,-4.65625 3.671875,-4.65625 4,-4.421875 4,-3.640625 V 0 h 0.921875 v -3.765625 c 0,-1 -0.5625,-1.609375 -1.53125,-1.609375 z m 0,0"
               id="id-1d25e11c-b865-46c4-9557-3362c0af4950" />
          </g>
          <g
             id="id-9063ae71-88f0-4caa-b223-bf0954e671db">
            <path
               d="m 2.375,-5.375 c -1.09375,0 -1.890625,0.609375 -1.890625,1.453125 0,0.734375 0.4375,1.21875 1.578125,1.515625 1.015625,0.265625 1.28125,0.46875 1.28125,0.984375 0,0.5 -0.4375,0.796875 -1.125,0.796875 -0.578125,0 -1.0625,-0.1875 -1.484375,-0.5 L 0.25,-0.5625 c 0.453125,0.390625 1.09375,0.6875 1.984375,0.6875 1.0625,0 2.078125,-0.5 2.078125,-1.59375 0,-0.921875 -0.640625,-1.359375 -1.75,-1.640625 -0.84375,-0.21875 -1.125,-0.421875 -1.125,-0.84375 0,-0.421875 0.359375,-0.6875 0.96875,-0.6875 0.484375,0 0.890625,0.140625 1.359375,0.4375 L 4.15625,-4.78125 C 3.65625,-5.15625 3.109375,-5.375 2.375,-5.375 Z m 0,0"
               id="id-f37b3e41-2d2e-43ee-9f3c-4c04cd9d2e61" />
          </g>
          <g
             id="id-66635615-000c-410d-b0c8-e6e424a1888f">
            <path
               d="m 2.734375,-6.734375 c 0.265625,0 0.578125,0.046875 0.921875,0.1875 l 0.28125,-0.65625 c -0.421875,-0.1875 -0.75,-0.28125 -1.25,-0.28125 -1.078125,0 -1.65625,0.640625 -1.65625,1.515625 V -5.25 h -0.9375 v 0.703125 h 0.9375 V 0 H 1.953125 V -4.546875 H 3.125 L 3.234375,-5.25 h -1.28125 v -0.734375 c 0,-0.5 0.203125,-0.75 0.78125,-0.75 z m 0,0"
               id="id-b888e085-d784-4878-8cff-ac84581dbd65" />
          </g>
          <g
             id="id-26a0e1db-e549-4103-8da0-9f7b3f783bbb">
            <path
               d="m 2.921875,-5.375 c -1.5,0 -2.359375,1.125 -2.359375,2.75 0,1.671875 0.859375,2.75 2.34375,2.75 C 4.390625,0.125 5.25,-1 5.25,-2.625 c 0,-1.671875 -0.828125,-2.75 -2.328125,-2.75 z m 0,0.734375 c 0.859375,0 1.34375,0.640625 1.34375,2.015625 0,1.375 -0.484375,2 -1.359375,2 -0.875,0 -1.34375,-0.625 -1.34375,-2 0,-1.375 0.484375,-2.015625 1.359375,-2.015625 z m 0,0"
               id="id-d10b597e-a71a-49ae-9fe2-31c3e82d8944" />
          </g>
          <g
             id="id-b6e47f1d-b943-44ad-ae36-26c5957f58e3">
            <path
               d="M 6.1875,-5.375 C 5.484375,-5.375 5,-5 4.625,-4.421875 4.421875,-5.03125 3.953125,-5.375 3.296875,-5.375 c -0.6875,0 -1.15625,0.359375 -1.515625,0.890625 L 1.703125,-5.25 H 0.921875 V 0 h 0.90625 V -3.734375 C 2.1875,-4.28125 2.5,-4.65625 3.078125,-4.65625 c 0.390625,0 0.734375,0.234375 0.734375,1.015625 V 0 h 0.90625 v -3.734375 c 0.359375,-0.546875 0.671875,-0.921875 1.25,-0.921875 0.390625,0 0.734375,0.234375 0.734375,1.015625 V 0 h 0.90625 V -3.765625 C 7.609375,-4.75 7.046875,-5.375 6.1875,-5.375 Z m 0,0"
               id="id-60237580-3182-42e5-8979-db1fd2fabd9e" />
          </g>
          <g
             id="id-af282957-2345-4f55-a03e-7cb80a83a992">
            <path
               d="m 1.359375,-7.78125 c -0.375,0 -0.625,0.28125 -0.625,0.640625 0,0.34375 0.25,0.609375 0.625,0.609375 0.390625,0 0.65625,-0.265625 0.65625,-0.609375 C 2.015625,-7.5 1.75,-7.78125 1.359375,-7.78125 Z M 1.828125,-5.25 H 0.921875 V 0 h 0.90625 z m 0,0"
               id="id-29ecab8f-7fe7-4dfa-b11d-c5c0eeb77b8e" />
          </g>
        </g>
      </defs>
      <g
         fill="#000000"
         fill-opacity="1"
         id="id-5cc6427c-e441-47a7-ab71-e254bd1bf87f"
         transform="translate(-149.603,-126.984)">
        <g
           transform="translate(148.712,134.765)"
           id="g9588">
          <path
             d="M 5.703125,-6.875 H 4.75 v 4.609375 c 0,1.0625 -0.46875,1.59375 -1.453125,1.59375 -0.984375,0 -1.453125,-0.53125 -1.453125,-1.59375 V -6.875 H 0.890625 v 4.671875 c 0,1.359375 0.828125,2.328125 2.40625,2.328125 1.53125,0 2.40625,-0.96875 2.40625,-2.328125 z m 0,0"
             id="id-dde647b5-c023-40db-844b-c95fec1d6b63" />
        </g>
        <g
           transform="translate(155.307,134.765)"
           id="g9591">
          <path
             d="m 4.65625,0 h 1.125 L 3.921875,-3.078125 c 1,-0.296875 1.484375,-0.875 1.484375,-1.84375 0,-1.28125 -0.890625,-1.953125 -2.609375,-1.953125 H 1 V 0 H 1.9375 V -2.90625 H 3.015625 Z M 1.9375,-3.640625 V -6.125 h 0.859375 c 1.125,0 1.609375,0.34375 1.609375,1.203125 0,0.921875 -0.546875,1.28125 -1.5,1.28125 z m 0,0"
             id="id-b45e071c-c6dd-4b58-9e0f-44145b0c3644" />
        </g>
      </g>
      <g
         fill="#000000"
         fill-opacity="1"
         id="id-f4337002-dca9-476d-a7d5-cb88eb0f08f1"
         transform="translate(-149.603,-126.984)">
        <g
           transform="translate(161.245,134.765)"
           id="g9595">
          <path
             d="m 3.53125,-6.984375 c -1.59375,0 -2.984375,1.234375 -2.984375,3.546875 0,2.375 1.109375,3.5625 2.875,3.5625 0.890625,0 1.609375,-0.25 2.25,-0.609375 V -3.8125 H 3.40625 l 0.109375,0.765625 h 1.21875 v 2.078125 c -0.390625,0.21875 -0.84375,0.3125 -1.3125,0.3125 -1.203125,0 -1.859375,-0.8125 -1.859375,-2.78125 0,-2.03125 0.984375,-2.765625 1.96875,-2.765625 0.609375,0 1.03125,0.15625 1.5,0.546875 l 0.5625,-0.578125 C 5,-6.71875 4.4375,-6.984375 3.53125,-6.984375 Z m 0,0"
             id="id-bef61496-804d-41c4-b3bb-e33a3dfde9fa" />
        </g>
      </g>
      <g
         fill="#000000"
         fill-opacity="1"
         id="id-cc3da3a0-5ade-4973-bbbc-38454dc97c9c"
         transform="translate(-149.603,-126.984)">
        <g
           transform="translate(170.171,134.765)"
           id="g9599">
          <path
             d="m 3.25,-0.84375 c -0.265625,0.140625 -0.46875,0.203125 -0.703125,0.203125 -0.453125,0 -0.625,-0.25 -0.625,-0.78125 v -3.125 h 1.15625 L 3.171875,-5.25 h -1.25 V -6.546875 L 1,-6.4375 V -5.25 H 0.09375 v 0.703125 H 1 V -1.375 c 0,0.96875 0.53125,1.5 1.421875,1.5 C 2.875,0.125 3.25,0 3.59375,-0.234375 Z m 0,0"
             id="id-7fa0fd7e-d7b2-4fe8-9a11-6b7a68716150" />
        </g>
        <g
           transform="translate(173.768,134.765)"
           id="g9602">
          <path
             d="m 3.203125,-5.375 c -0.640625,0 -1.125,0.40625 -1.40625,1.1875 L 1.703125,-5.25 H 0.921875 V 0 h 0.90625 v -3 c 0.21875,-1 0.609375,-1.46875 1.265625,-1.46875 0.1875,0 0.296875,0.015625 0.453125,0.046875 L 3.71875,-5.3125 C 3.5625,-5.359375 3.375,-5.375 3.203125,-5.375 Z m 0,0"
             id="id-c528e901-6b01-4957-9149-25c145e0e806" />
        </g>
      </g>
      <g
         fill="#000000"
         fill-opacity="1"
         id="id-f9c0610d-acd5-49b1-80b4-169bd8ddbcba"
         transform="translate(-149.603,-126.984)">
        <g
           transform="translate(177.384,134.765)"
           id="g9606">
          <path
             d="M 4.4375,-1.21875 V -3.625 c 0,-1.09375 -0.578125,-1.75 -1.84375,-1.75 C 2,-5.375 1.421875,-5.25 0.78125,-5.015625 L 1,-4.34375 C 1.546875,-4.53125 2.03125,-4.625 2.421875,-4.625 c 0.734375,0 1.09375,0.28125 1.09375,1.03125 v 0.390625 H 2.71875 c -1.46875,0 -2.3125,0.609375 -2.3125,1.734375 0,0.9375 0.625,1.59375 1.671875,1.59375 0.640625,0 1.1875,-0.25 1.5625,-0.796875 0.15625,0.515625 0.5,0.734375 1.03125,0.796875 L 4.875,-0.515625 C 4.609375,-0.625 4.4375,-0.765625 4.4375,-1.21875 Z M 2.28125,-0.5625 c -0.59375,0 -0.90625,-0.328125 -0.90625,-0.953125 0,-0.71875 0.484375,-1.078125 1.453125,-1.078125 h 0.6875 v 1.203125 C 3.21875,-0.84375 2.828125,-0.5625 2.28125,-0.5625 Z m 0,0"
             id="id-1a6f2808-1532-4468-a2f5-0e4422ffe029" />
        </g>
        <g
           transform="translate(182.754,134.765)"
           id="g9609">
          <path
             d="m 3.390625,-5.375 c -0.6875,0 -1.25,0.359375 -1.609375,0.90625 L 1.703125,-5.25 H 0.921875 V 0 h 0.90625 V -3.734375 C 2.1875,-4.28125 2.578125,-4.65625 3.171875,-4.65625 3.671875,-4.65625 4,-4.421875 4,-3.640625 V 0 h 0.921875 v -3.765625 c 0,-1 -0.5625,-1.609375 -1.53125,-1.609375 z m 0,0"
             id="id-231017c0-75c6-49c7-9afd-6e670aee34f4" />
        </g>
        <g
           transform="translate(188.523,134.765)"
           id="g9612">
          <path
             d="m 2.375,-5.375 c -1.09375,0 -1.890625,0.609375 -1.890625,1.453125 0,0.734375 0.4375,1.21875 1.578125,1.515625 1.015625,0.265625 1.28125,0.46875 1.28125,0.984375 0,0.5 -0.4375,0.796875 -1.125,0.796875 -0.578125,0 -1.0625,-0.1875 -1.484375,-0.5 L 0.25,-0.5625 c 0.453125,0.390625 1.09375,0.6875 1.984375,0.6875 1.0625,0 2.078125,-0.5 2.078125,-1.59375 0,-0.921875 -0.640625,-1.359375 -1.75,-1.640625 -0.84375,-0.21875 -1.125,-0.421875 -1.125,-0.84375 0,-0.421875 0.359375,-0.6875 0.96875,-0.6875 0.484375,0 0.890625,0.140625 1.359375,0.4375 L 4.15625,-4.78125 C 3.65625,-5.15625 3.109375,-5.375 2.375,-5.375 Z m 0,0"
             id="id-9981dc4a-1492-429d-8e4a-8257279248f2" />
        </g>
        <g
           transform="translate(193.175,134.765)"
           id="g9615">
          <path
             d="m 2.734375,-6.734375 c 0.265625,0 0.578125,0.046875 0.921875,0.1875 l 0.28125,-0.65625 c -0.421875,-0.1875 -0.75,-0.28125 -1.25,-0.28125 -1.078125,0 -1.65625,0.640625 -1.65625,1.515625 V -5.25 h -0.9375 v 0.703125 h 0.9375 V 0 H 1.953125 V -4.546875 H 3.125 L 3.234375,-5.25 h -1.28125 v -0.734375 c 0,-0.5 0.203125,-0.75 0.78125,-0.75 z m 0,0"
             id="id-efe9f282-e039-4d9b-9568-c06862b8953d" />
        </g>
      </g>
      <g
         fill="#000000"
         fill-opacity="1"
         id="id-a8b2c109-7760-4878-9799-c8f6a3af0057"
         transform="translate(-149.603,-126.984)">
        <g
           transform="translate(196.413,134.765)"
           id="g9619">
          <path
             d="m 2.921875,-5.375 c -1.5,0 -2.359375,1.125 -2.359375,2.75 0,1.671875 0.859375,2.75 2.34375,2.75 C 4.390625,0.125 5.25,-1 5.25,-2.625 c 0,-1.671875 -0.828125,-2.75 -2.328125,-2.75 z m 0,0.734375 c 0.859375,0 1.34375,0.640625 1.34375,2.015625 0,1.375 -0.484375,2 -1.359375,2 -0.875,0 -1.34375,-0.625 -1.34375,-2 0,-1.375 0.484375,-2.015625 1.359375,-2.015625 z m 0,0"
             id="id-d8f06536-c7a6-41c0-86c5-c995430c33bd" />
        </g>
        <g
           transform="translate(202.231,134.765)"
           id="g9622">
          <path
             d="m 3.203125,-5.375 c -0.640625,0 -1.125,0.40625 -1.40625,1.1875 L 1.703125,-5.25 H 0.921875 V 0 h 0.90625 v -3 c 0.21875,-1 0.609375,-1.46875 1.265625,-1.46875 0.1875,0 0.296875,0.015625 0.453125,0.046875 L 3.71875,-5.3125 C 3.5625,-5.359375 3.375,-5.375 3.203125,-5.375 Z m 0,0"
             id="id-9fd4d9ac-5a2d-4e0e-9c4c-6c91ae061e10" />
        </g>
        <g
           transform="translate(206.047,134.765)"
           id="g9625">
          <path
             d="M 6.1875,-5.375 C 5.484375,-5.375 5,-5 4.625,-4.421875 4.421875,-5.03125 3.953125,-5.375 3.296875,-5.375 c -0.6875,0 -1.15625,0.359375 -1.515625,0.890625 L 1.703125,-5.25 H 0.921875 V 0 h 0.90625 V -3.734375 C 2.1875,-4.28125 2.5,-4.65625 3.078125,-4.65625 c 0.390625,0 0.734375,0.234375 0.734375,1.015625 V 0 h 0.90625 v -3.734375 c 0.359375,-0.546875 0.671875,-0.921875 1.25,-0.921875 0.390625,0 0.734375,0.234375 0.734375,1.015625 V 0 h 0.90625 V -3.765625 C 7.609375,-4.75 7.046875,-5.375 6.1875,-5.375 Z m 0,0"
             id="id-434c20ca-e7a1-439b-954d-21c88c4d95b0" />
        </g>
        <g
           transform="translate(214.515,134.765)"
           id="g9628">
          <path
             d="M 4.4375,-1.21875 V -3.625 c 0,-1.09375 -0.578125,-1.75 -1.84375,-1.75 C 2,-5.375 1.421875,-5.25 0.78125,-5.015625 L 1,-4.34375 C 1.546875,-4.53125 2.03125,-4.625 2.421875,-4.625 c 0.734375,0 1.09375,0.28125 1.09375,1.03125 v 0.390625 H 2.71875 c -1.46875,0 -2.3125,0.609375 -2.3125,1.734375 0,0.9375 0.625,1.59375 1.671875,1.59375 0.640625,0 1.1875,-0.25 1.5625,-0.796875 0.15625,0.515625 0.5,0.734375 1.03125,0.796875 L 4.875,-0.515625 C 4.609375,-0.625 4.4375,-0.765625 4.4375,-1.21875 Z M 2.28125,-0.5625 c -0.59375,0 -0.90625,-0.328125 -0.90625,-0.953125 0,-0.71875 0.484375,-1.078125 1.453125,-1.078125 h 0.6875 v 1.203125 C 3.21875,-0.84375 2.828125,-0.5625 2.28125,-0.5625 Z m 0,0"
             id="id-6645f3bd-e455-4276-a3a0-38c8646fc3af" />
        </g>
        <g
           transform="translate(219.885,134.765)"
           id="g9631">
          <path
             d="m 3.25,-0.84375 c -0.265625,0.140625 -0.46875,0.203125 -0.703125,0.203125 -0.453125,0 -0.625,-0.25 -0.625,-0.78125 v -3.125 h 1.15625 L 3.171875,-5.25 h -1.25 V -6.546875 L 1,-6.4375 V -5.25 H 0.09375 v 0.703125 H 1 V -1.375 c 0,0.96875 0.53125,1.5 1.421875,1.5 C 2.875,0.125 3.25,0 3.59375,-0.234375 Z m 0,0"
             id="id-0b72b305-3f71-4f6f-80f1-c9e8a813de03" />
        </g>
        <g
           transform="translate(223.481,134.765)"
           id="g9634">
          <path
             d="m 1.359375,-7.78125 c -0.375,0 -0.625,0.28125 -0.625,0.640625 0,0.34375 0.25,0.609375 0.625,0.609375 0.390625,0 0.65625,-0.265625 0.65625,-0.609375 C 2.015625,-7.5 1.75,-7.78125 1.359375,-7.78125 Z M 1.828125,-5.25 H 0.921875 V 0 h 0.90625 z m 0,0"
             id="id-f4256b6f-31f7-4d8d-be52-13cb474e667b" />
        </g>
        <g
           transform="translate(226.231,134.765)"
           id="g9637">
          <path
             d="m 2.921875,-5.375 c -1.5,0 -2.359375,1.125 -2.359375,2.75 0,1.671875 0.859375,2.75 2.34375,2.75 C 4.390625,0.125 5.25,-1 5.25,-2.625 c 0,-1.671875 -0.828125,-2.75 -2.328125,-2.75 z m 0,0.734375 c 0.859375,0 1.34375,0.640625 1.34375,2.015625 0,1.375 -0.484375,2 -1.359375,2 -0.875,0 -1.34375,-0.625 -1.34375,-2 0,-1.375 0.484375,-2.015625 1.359375,-2.015625 z m 0,0"
             id="id-3339b29f-5ae2-42c3-98ff-30a8f9a011b3" />
        </g>
        <g
           transform="translate(232.049,134.765)"
           id="g9640">
          <path
             d="m 3.390625,-5.375 c -0.6875,0 -1.25,0.359375 -1.609375,0.90625 L 1.703125,-5.25 H 0.921875 V 0 h 0.90625 V -3.734375 C 2.1875,-4.28125 2.578125,-4.65625 3.171875,-4.65625 3.671875,-4.65625 4,-4.421875 4,-3.640625 V 0 h 0.921875 v -3.765625 c 0,-1 -0.5625,-1.609375 -1.53125,-1.609375 z m 0,0"
             id="id-45ec36a5-5b73-4736-8f43-4685e6a39adf" />
        </g>
        <g
           transform="translate(237.817,134.765)"
           id="g9643">
          <path
             d="m 2.375,-5.375 c -1.09375,0 -1.890625,0.609375 -1.890625,1.453125 0,0.734375 0.4375,1.21875 1.578125,1.515625 1.015625,0.265625 1.28125,0.46875 1.28125,0.984375 0,0.5 -0.4375,0.796875 -1.125,0.796875 -0.578125,0 -1.0625,-0.1875 -1.484375,-0.5 L 0.25,-0.5625 c 0.453125,0.390625 1.09375,0.6875 1.984375,0.6875 1.0625,0 2.078125,-0.5 2.078125,-1.59375 0,-0.921875 -0.640625,-1.359375 -1.75,-1.640625 -0.84375,-0.21875 -1.125,-0.421875 -1.125,-0.84375 0,-0.421875 0.359375,-0.6875 0.96875,-0.6875 0.484375,0 0.890625,0.140625 1.359375,0.4375 L 4.15625,-4.78125 C 3.65625,-5.15625 3.109375,-5.375 2.375,-5.375 Z m 0,0"
             id="id-d0f712a7-14e0-44ca-9c81-319653fad12e" />
        </g>
      </g>
    </g>
  </g>
</svg>
