<?xml version="1.0" encoding="UTF-8" standalone="no"?>
<!-- Created with Inkscape (http://www.inkscape.org/) -->

<svg
   width="141.231mm"
   height="103.56332mm"
   viewBox="0 0 141.23101 103.56331"
   version="1.1"
   id="svg5"
   inkscape:version="1.1.1 (3bf5ae0d25, 2021-09-20, custom)"
   sodipodi:docname="chi_schematic.svg"
   xmlns:inkscape="http://www.inkscape.org/namespaces/inkscape"
   xmlns:sodipodi="http://sodipodi.sourceforge.net/DTD/sodipodi-0.dtd"
   xmlns="http://www.w3.org/2000/svg"
   xmlns:svg="http://www.w3.org/2000/svg"
   xmlns:ns11="http://www.iki.fi/pav/software/textext/">
  <sodipodi:namedview
     id="namedview7"
     pagecolor="#505050"
     bordercolor="#eeeeee"
     borderopacity="1"
     inkscape:pageshadow="0"
     inkscape:pageopacity="0"
     inkscape:pagecheckerboard="0"
     inkscape:document-units="mm"
     showgrid="false"
     inkscape:snap-bbox="true"
     inkscape:snap-intersection-paths="true"
     inkscape:snap-midpoints="true"
     inkscape:object-paths="true"
     inkscape:snap-object-midpoints="true"
     inkscape:snap-center="true"
     inkscape:snap-text-baseline="true"
     inkscape:zoom="0.63785073"
     inkscape:cx="238.30027"
     inkscape:cy="290.82039"
     inkscape:window-width="1916"
     inkscape:window-height="1051"
     inkscape:window-x="0"
     inkscape:window-y="25"
     inkscape:window-maximized="1"
     inkscape:current-layer="layer1" />
  <defs
     id="defs2">
    <inkscape:path-effect
       effect="spiro"
       id="path-effect16903"
       is_visible="true"
       lpeversion="1" />
    <inkscape:path-effect
       effect="spiro"
       id="path-effect15410"
       is_visible="true"
       lpeversion="1" />
    <inkscape:path-effect
       effect="spiro"
       id="path-effect15372"
       is_visible="true"
       lpeversion="1" />
    <inkscape:path-effect
       effect="spiro"
       id="path-effect15264"
       is_visible="true"
       lpeversion="1" />
    <inkscape:path-effect
       effect="spiro"
       id="path-effect5960"
       is_visible="true"
       lpeversion="1" />
    <inkscape:path-effect
       effect="spiro"
       id="path-effect5823"
       is_visible="true"
       lpeversion="1" />
    <inkscape:path-effect
       effect="spiro"
       id="path-effect5819"
       is_visible="true"
       lpeversion="1" />
    <inkscape:path-effect
       effect="spiro"
       id="path-effect4180"
       is_visible="true"
       lpeversion="1" />
    <inkscape:path-effect
       effect="spiro"
       id="path-effect4176"
       is_visible="true"
       lpeversion="1" />
    <inkscape:path-effect
       effect="spiro"
       id="path-effect4116"
       is_visible="true"
       lpeversion="1" />
    <marker
       style="overflow:visible"
       id="Arrow2Lend"
       refX="0"
       refY="0"
       orient="auto"
       inkscape:stockid="Arrow2Lend"
       inkscape:isstock="true">
      <path
         transform="matrix(-1.1,0,0,-1.1,-1.1,0)"
         d="M 8.7185878,4.0337352 -2.2072895,0.01601326 8.7185884,-4.0017078 c -1.7454984,2.3720609 -1.7354408,5.6174519 -6e-7,8.035443 z"
         style="fill:context-stroke;fill-rule:evenodd;stroke:context-stroke;stroke-width:0.625;stroke-linejoin:round"
         id="path3833" />
    </marker>
    <inkscape:path-effect
       effect="spiro"
       id="path-effect3730"
       is_visible="true"
       lpeversion="1" />
    <inkscape:path-effect
       effect="spiro"
       id="path-effect859"
       is_visible="true"
       lpeversion="1" />
    <marker
       style="overflow:visible"
       id="Arrow2Lend-3"
       refX="0"
       refY="0"
       orient="auto"
       inkscape:stockid="Arrow2Lend"
       inkscape:isstock="true">
      <path
         transform="matrix(-1.1,0,0,-1.1,-1.1,0)"
         d="M 8.7185878,4.0337352 -2.2072895,0.01601326 8.7185884,-4.0017078 c -1.7454984,2.3720609 -1.7354408,5.6174519 -6e-7,8.035443 z"
         style="fill:context-stroke;fill-rule:evenodd;stroke:context-stroke;stroke-width:0.625;stroke-linejoin:round"
         id="path3833-6" />
    </marker>
    <marker
       style="overflow:visible"
       id="Arrow2Lend-5"
       refX="0"
       refY="0"
       orient="auto"
       inkscape:stockid="Arrow2Lend"
       inkscape:isstock="true">
      <path
         transform="matrix(-1.1,0,0,-1.1,-1.1,0)"
         d="M 8.7185878,4.0337352 -2.2072895,0.01601326 8.7185884,-4.0017078 c -1.7454984,2.3720609 -1.7354408,5.6174519 -6e-7,8.035443 z"
         style="fill:context-stroke;fill-rule:evenodd;stroke:context-stroke;stroke-width:0.625;stroke-linejoin:round"
         id="path3833-3" />
    </marker>
    <marker
       style="overflow:visible"
       id="Arrow2Lend-3-5"
       refX="0"
       refY="0"
       orient="auto"
       inkscape:stockid="Arrow2Lend"
       inkscape:isstock="true">
      <path
         transform="matrix(-1.1,0,0,-1.1,-1.1,0)"
         d="M 8.7185878,4.0337352 -2.2072895,0.01601326 8.7185884,-4.0017078 c -1.7454984,2.3720609 -1.7354408,5.6174519 -6e-7,8.035443 z"
         style="fill:context-stroke;fill-rule:evenodd;stroke:context-stroke;stroke-width:0.625;stroke-linejoin:round"
         id="path3833-6-6" />
    </marker>
    <marker
       style="overflow:visible"
       id="Arrow2Lend-1"
       refX="0"
       refY="0"
       orient="auto"
       inkscape:stockid="Arrow2Lend"
       inkscape:isstock="true">
      <path
         transform="matrix(-1.1,0,0,-1.1,-1.1,0)"
         d="M 8.7185878,4.0337352 -2.2072895,0.01601326 8.7185884,-4.0017078 c -1.7454984,2.3720609 -1.7354408,5.6174519 -6e-7,8.035443 z"
         style="fill:context-stroke;fill-rule:evenodd;stroke:context-stroke;stroke-width:0.625;stroke-linejoin:round"
         id="path3833-2" />
    </marker>
    <marker
       style="overflow:visible"
       id="Arrow2Lend-3-7"
       refX="0"
       refY="0"
       orient="auto"
       inkscape:stockid="Arrow2Lend"
       inkscape:isstock="true">
      <path
         transform="matrix(-1.1,0,0,-1.1,-1.1,0)"
         d="M 8.7185878,4.0337352 -2.2072895,0.01601326 8.7185884,-4.0017078 c -1.7454984,2.3720609 -1.7354408,5.6174519 -6e-7,8.035443 z"
         style="fill:context-stroke;fill-rule:evenodd;stroke:context-stroke;stroke-width:0.625;stroke-linejoin:round"
         id="path3833-6-0" />
    </marker>
  </defs>
  <g
     inkscape:label="Layer 1"
     inkscape:groupmode="layer"
     id="layer1"
     transform="translate(-70.150671,-79.312087)">
    <path
       style="fill:none;stroke:#000000;stroke-width:0.913885;stroke-linecap:butt;stroke-linejoin:miter;stroke-miterlimit:4;stroke-dasharray:0.913885, 0.913885;stroke-dashoffset:0;stroke-opacity:1"
       d="M 70.607613,79.312087 V 182.37541"
       id="path15262"
       inkscape:path-effect="#path-effect15264"
       inkscape:original-d="m 70.607613,79.312087 c 2.64e-4,34.354663 2.64e-4,68.709103 0,103.063323" />
    <path
       style="fill:none;stroke:#000000;stroke-width:1;stroke-linecap:butt;stroke-linejoin:miter;stroke-miterlimit:4;stroke-dasharray:1, 1;stroke-dashoffset:0;stroke-opacity:1"
       d="M 204.21137,182.37541 H 70.607613"
       id="path15262-6"
       inkscape:path-effect="#path-effect15372"
       inkscape:original-d="m 204.21137,182.37541 c -44.53488,2.7e-4 -89.06946,2.7e-4 -133.603757,0" />
    <path
       style="fill:none;stroke:#ff4b00;stroke-width:2;stroke-linecap:butt;stroke-linejoin:miter;stroke-miterlimit:4;stroke-dasharray:none;stroke-opacity:1"
       d="m 85.006929,178.43605 c 2.63068,-1.60165 5.298671,-3.14201 8.001077,-4.61943 3.445271,-1.88354 6.955532,-3.67023 10.196494,-5.88694 5.74269,-3.9278 10.51833,-9.12728 14.68236,-14.70105 4.80901,-6.4371 8.85708,-13.40961 12.62412,-20.50695 3.60296,-6.78821 6.98172,-13.74296 11.52391,-19.94213 8.96246,-12.23196 22.1883,-20.988969 36.51654,-25.95364 10.51288,-3.642664 21.69401,-5.346775 32.81472,-5.001275"
       id="path16901"
       inkscape:path-effect="#path-effect16903"
       inkscape:original-d="m 85.006929,178.43605 c 2.66729,-1.53954 5.334317,-3.07935 8.001077,-4.61943 2.666767,-1.54007 6.797927,-3.92436 10.196494,-5.88694 3.39857,-1.96258 9.7885,-9.80044 14.68236,-14.70105 4.89385,-4.90061 8.41634,-13.67103 12.62412,-20.50695 4.20777,-6.83591 7.68287,-13.29449 11.52391,-19.94213 3.84104,-6.64765 24.34463,-17.302163 36.51654,-25.95364 12.17192,-8.651476 21.87674,-3.782379 32.81472,-5.001275"
       sodipodi:nodetypes="cssssssc" />
    <g
       transform="matrix(1.3641208,0,0,1.3641208,75.019957,83.594722)"
       ns11:version="1.6.0"
       ns11:texconverter="pdflatex"
       ns11:pdfconverter="inkscape"
       ns11:text="$\\chi \\times T$"
       ns11:preamble="/home/kirito/textext_preamble.tex"
       ns11:scale="5.0"
       ns11:alignment="middle center"
       ns11:stroke-to-path="0"
       ns11:inkscapeversion="1.1.1"
       ns11:jacobian_sqrt="1.76389"
       id="g17760">
      <defs
         id="id-494a1562-52fe-48a0-992a-062abafa2ce1">
        <g
           id="id-0ac5848b-3a16-40aa-9bcb-c9b02df4cb45">
          <symbol
             overflow="visible"
             id="id-d9be2bd8-b6a8-4818-baec-6b28cc9243d2">
            <path
               style="stroke:none;stroke-width:0"
               d=""
               id="id-ea959782-6855-4f5b-b805-ce20669051b1" />
          </symbol>
          <symbol
             overflow="visible"
             id="id-6f225182-ea6a-41c0-89b0-7be21fa2e26f">
            <path
               style="stroke:none;stroke-width:0"
               d="m 5.8125,-4.015625 c 0.109375,-0.109375 0.109375,-0.125 0.109375,-0.15625 0,-0.0625 -0.046875,-0.125 -0.125,-0.125 -0.0625,0 -0.09375,0.046875 -0.15625,0.125 l -2.28125,2.53125 C 2.953125,-2.90625 2.875,-3.15625 2.65625,-3.671875 2.546875,-3.90625 2.328125,-4.40625 1.453125,-4.40625 c -0.578125,0 -0.84375,0.515625 -0.84375,0.65625 0,0.015625 0,0.09375 0.125,0.09375 0.078125,0 0.109375,-0.046875 0.125,-0.109375 C 1,-4.140625 1.328125,-4.1875 1.390625,-4.1875 c 0.296875,0 0.59375,0.765625 0.765625,1.203125 0.3125,0.78125 0.640625,1.9375 0.640625,1.96875 0,0.015625 0,0.03125 -0.078125,0.109375 L 0.421875,1.65625 C 0.3125,1.765625 0.3125,1.78125 0.3125,1.8125 c 0,0.0625 0.0625,0.125 0.109375,0.125 0.078125,0 0.125,-0.078125 0.171875,-0.109375 L 2.875,-0.734375 C 3.1875,0.296875 3.3125,0.6875 3.546875,1.25 3.671875,1.546875 3.890625,2.046875 4.78125,2.046875 5.359375,2.046875 5.625,1.53125 5.625,1.390625 5.625,1.34375 5.609375,1.28125 5.515625,1.28125 5.40625,1.28125 5.40625,1.328125 5.375,1.421875 c -0.09375,0.25 -0.34375,0.40625 -0.53125,0.40625 -0.5,0 -1.1875,-2.421875 -1.40625,-3.1875 z m 0,0"
               id="id-b4cdbd41-5cea-4df2-9363-c3c5857eb85d" />
          </symbol>
          <symbol
             overflow="visible"
             id="id-68dc8912-1011-4b43-b4c1-2b54346a7eea">
            <path
               style="stroke:none;stroke-width:0"
               d="m 4.25,-6.046875 c 0.078125,-0.28125 0.109375,-0.34375 0.234375,-0.375 0.09375,-0.015625 0.421875,-0.015625 0.625,-0.015625 1.015625,0 1.453125,0.03125 1.453125,0.8125 0,0.15625 -0.03125,0.546875 -0.078125,0.796875 0,0.046875 -0.03125,0.15625 -0.03125,0.1875 0,0.0625 0.03125,0.140625 0.125,0.140625 0.109375,0 0.125,-0.078125 0.15625,-0.234375 L 7,-6.46875 C 7.015625,-6.515625 7.015625,-6.609375 7.015625,-6.640625 7.015625,-6.75 6.921875,-6.75 6.75,-6.75 H 1.21875 c -0.234375,0 -0.25,0.015625 -0.328125,0.203125 l -0.59375,1.75 c 0,0.015625 -0.0625,0.15625 -0.0625,0.1875 0,0.046875 0.0625,0.109375 0.125,0.109375 0.09375,0 0.109375,-0.0625 0.171875,-0.21875 C 1.0625,-6.265625 1.328125,-6.4375 2.796875,-6.4375 H 3.1875 c 0.28125,0 0.28125,0.03125 0.28125,0.125 0,0.046875 -0.03125,0.171875 -0.046875,0.203125 L 2.09375,-0.78125 C 2,-0.421875 1.96875,-0.3125 0.90625,-0.3125 c -0.359375,0 -0.421875,0 -0.421875,0.1875 C 0.484375,0 0.59375,0 0.65625,0 c 0.265625,0 0.546875,-0.015625 0.8125,-0.015625 0.28125,0 0.578125,-0.015625 0.859375,-0.015625 0.28125,0 0.546875,0.015625 0.828125,0.015625 C 3.4375,-0.015625 3.734375,0 4.015625,0 c 0.09375,0 0.21875,0 0.21875,-0.203125 0,-0.109375 -0.078125,-0.109375 -0.34375,-0.109375 -0.234375,0 -0.375,0 -0.625,-0.015625 -0.296875,-0.03125 -0.375,-0.0625 -0.375,-0.21875 0,-0.015625 0,-0.0625 0.046875,-0.203125 z m 0,0"
               id="id-419d6a0d-bead-4ac0-9571-2ec8c0c8d634" />
          </symbol>
          <symbol
             overflow="visible"
             id="id-d82a695e-cdce-43e8-977f-b2e893ca8e60">
            <path
               style="stroke:none;stroke-width:0"
               d=""
               id="id-8da3aa1a-0c44-4a19-889f-b0990b488b59" />
          </symbol>
          <symbol
             overflow="visible"
             id="id-37e2f350-28f1-4afe-90c8-72e55f97cab4">
            <path
               style="stroke:none;stroke-width:0"
               d="M 3.875,-2.765625 1.890625,-4.75 C 1.765625,-4.875 1.75,-4.890625 1.671875,-4.890625 1.5625,-4.890625 1.46875,-4.8125 1.46875,-4.6875 c 0,0.0625 0.015625,0.078125 0.125,0.1875 l 2,2 -2,2.015625 c -0.109375,0.109375 -0.125,0.125 -0.125,0.1875 0,0.125 0.09375,0.203125 0.203125,0.203125 0.078125,0 0.09375,-0.015625 0.21875,-0.140625 L 3.875,-2.21875 l 2.0625,2.0625 c 0.015625,0.015625 0.078125,0.0625 0.140625,0.0625 0.125,0 0.203125,-0.078125 0.203125,-0.203125 0,-0.015625 0,-0.046875 -0.03125,-0.109375 C 6.234375,-0.421875 4.65625,-1.984375 4.15625,-2.5 l 1.828125,-1.8125 c 0.046875,-0.0625 0.203125,-0.1875 0.25,-0.25 0,-0.015625 0.046875,-0.0625 0.046875,-0.125 0,-0.125 -0.078125,-0.203125 -0.203125,-0.203125 C 6,-4.890625 5.96875,-4.859375 5.859375,-4.75 Z m 0,0"
               id="id-a48c8c59-f2fe-4df6-9096-10ae1dc31685" />
          </symbol>
        </g>
      </defs>
      <g
         id="id-892bad85-8d83-4036-8fde-2d46d2bfd70f"
         transform="translate(-149.025,-128.015)">
        <g
           style="fill:#000000;fill-opacity:1"
           id="id-f9345fc5-ebf4-4c6e-bf54-d74c92c64580">
          <g
             transform="translate(148.712,134.765)"
             id="g17748">
            <path
               style="stroke:none;stroke-width:0"
               d="m 5.8125,-4.015625 c 0.109375,-0.109375 0.109375,-0.125 0.109375,-0.15625 0,-0.0625 -0.046875,-0.125 -0.125,-0.125 -0.0625,0 -0.09375,0.046875 -0.15625,0.125 l -2.28125,2.53125 C 2.953125,-2.90625 2.875,-3.15625 2.65625,-3.671875 2.546875,-3.90625 2.328125,-4.40625 1.453125,-4.40625 c -0.578125,0 -0.84375,0.515625 -0.84375,0.65625 0,0.015625 0,0.09375 0.125,0.09375 0.078125,0 0.109375,-0.046875 0.125,-0.109375 C 1,-4.140625 1.328125,-4.1875 1.390625,-4.1875 c 0.296875,0 0.59375,0.765625 0.765625,1.203125 0.3125,0.78125 0.640625,1.9375 0.640625,1.96875 0,0.015625 0,0.03125 -0.078125,0.109375 L 0.421875,1.65625 C 0.3125,1.765625 0.3125,1.78125 0.3125,1.8125 c 0,0.0625 0.0625,0.125 0.109375,0.125 0.078125,0 0.125,-0.078125 0.171875,-0.109375 L 2.875,-0.734375 C 3.1875,0.296875 3.3125,0.6875 3.546875,1.25 3.671875,1.546875 3.890625,2.046875 4.78125,2.046875 5.359375,2.046875 5.625,1.53125 5.625,1.390625 5.625,1.34375 5.609375,1.28125 5.515625,1.28125 5.40625,1.28125 5.40625,1.328125 5.375,1.421875 c -0.09375,0.25 -0.34375,0.40625 -0.53125,0.40625 -0.5,0 -1.1875,-2.421875 -1.40625,-3.1875 z m 0,0"
               id="id-44746fd5-c981-4d97-a194-0d5f69337eba" />
          </g>
        </g>
        <g
           style="fill:#000000;fill-opacity:1"
           id="id-970bca07-1a2e-44f0-88d8-d7e8aec7554b">
          <g
             transform="translate(157.16,134.765)"
             id="g17752">
            <path
               style="stroke:none;stroke-width:0"
               d="M 3.875,-2.765625 1.890625,-4.75 C 1.765625,-4.875 1.75,-4.890625 1.671875,-4.890625 1.5625,-4.890625 1.46875,-4.8125 1.46875,-4.6875 c 0,0.0625 0.015625,0.078125 0.125,0.1875 l 2,2 -2,2.015625 c -0.109375,0.109375 -0.125,0.125 -0.125,0.1875 0,0.125 0.09375,0.203125 0.203125,0.203125 0.078125,0 0.09375,-0.015625 0.21875,-0.140625 L 3.875,-2.21875 l 2.0625,2.0625 c 0.015625,0.015625 0.078125,0.0625 0.140625,0.0625 0.125,0 0.203125,-0.078125 0.203125,-0.203125 0,-0.015625 0,-0.046875 -0.03125,-0.109375 C 6.234375,-0.421875 4.65625,-1.984375 4.15625,-2.5 l 1.828125,-1.8125 c 0.046875,-0.0625 0.203125,-0.1875 0.25,-0.25 0,-0.015625 0.046875,-0.0625 0.046875,-0.125 0,-0.125 -0.078125,-0.203125 -0.203125,-0.203125 C 6,-4.890625 5.96875,-4.859375 5.859375,-4.75 Z m 0,0"
               id="id-54148619-b3d0-4e0b-8308-2291e77c4753" />
          </g>
        </g>
        <g
           style="fill:#000000;fill-opacity:1"
           id="id-7c48d007-b372-4ab8-adeb-37e05d700dce">
          <g
             transform="translate(167.122,134.765)"
             id="g17756">
            <path
               style="stroke:none;stroke-width:0"
               d="m 4.25,-6.046875 c 0.078125,-0.28125 0.109375,-0.34375 0.234375,-0.375 0.09375,-0.015625 0.421875,-0.015625 0.625,-0.015625 1.015625,0 1.453125,0.03125 1.453125,0.8125 0,0.15625 -0.03125,0.546875 -0.078125,0.796875 0,0.046875 -0.03125,0.15625 -0.03125,0.1875 0,0.0625 0.03125,0.140625 0.125,0.140625 0.109375,0 0.125,-0.078125 0.15625,-0.234375 L 7,-6.46875 C 7.015625,-6.515625 7.015625,-6.609375 7.015625,-6.640625 7.015625,-6.75 6.921875,-6.75 6.75,-6.75 H 1.21875 c -0.234375,0 -0.25,0.015625 -0.328125,0.203125 l -0.59375,1.75 c 0,0.015625 -0.0625,0.15625 -0.0625,0.1875 0,0.046875 0.0625,0.109375 0.125,0.109375 0.09375,0 0.109375,-0.0625 0.171875,-0.21875 C 1.0625,-6.265625 1.328125,-6.4375 2.796875,-6.4375 H 3.1875 c 0.28125,0 0.28125,0.03125 0.28125,0.125 0,0.046875 -0.03125,0.171875 -0.046875,0.203125 L 2.09375,-0.78125 C 2,-0.421875 1.96875,-0.3125 0.90625,-0.3125 c -0.359375,0 -0.421875,0 -0.421875,0.1875 C 0.484375,0 0.59375,0 0.65625,0 c 0.265625,0 0.546875,-0.015625 0.8125,-0.015625 0.28125,0 0.578125,-0.015625 0.859375,-0.015625 0.28125,0 0.546875,0.015625 0.828125,0.015625 C 3.4375,-0.015625 3.734375,0 4.015625,0 c 0.09375,0 0.21875,0 0.21875,-0.203125 0,-0.109375 -0.078125,-0.109375 -0.34375,-0.109375 -0.234375,0 -0.375,0 -0.625,-0.015625 -0.296875,-0.03125 -0.375,-0.0625 -0.375,-0.21875 0,-0.015625 0,-0.0625 0.046875,-0.203125 z m 0,0"
               id="id-502a2f9a-8ecb-4ca8-b436-809e15460eb1" />
          </g>
        </g>
      </g>
    </g>
    <g
       transform="matrix(1.2301563,0,0,1.2301563,190.02933,165.06515)"
       ns11:version="1.6.0"
       ns11:texconverter="pdflatex"
       ns11:pdfconverter="inkscape"
       ns11:text="$T$"
       ns11:preamble="/home/kirito/textext_preamble.tex"
       ns11:scale="5.0"
       ns11:alignment="middle center"
       ns11:stroke-to-path="0"
       ns11:inkscapeversion="1.1.1"
       ns11:jacobian_sqrt="1.76389"
       id="g17926">
      <defs
         id="id-47f88b2f-5e54-4a84-93b3-d462bb778493">
        <g
           id="id-bf7b23c7-adc9-42d3-877e-1d78b6a8be54">
          <symbol
             overflow="visible"
             id="id-ae35226c-3ce6-467c-90ab-cfc04ecca2af">
            <path
               style="stroke:none;stroke-width:0"
               d=""
               id="id-0efbb9d4-cc05-4939-bef0-7e2f6a0a1a6b" />
          </symbol>
          <symbol
             overflow="visible"
             id="id-d41447c6-a189-4c5b-937a-97a3810c6d6b">
            <path
               style="stroke:none;stroke-width:0"
               d="m 4.25,-6.046875 c 0.078125,-0.28125 0.109375,-0.34375 0.234375,-0.375 0.09375,-0.015625 0.421875,-0.015625 0.625,-0.015625 1.015625,0 1.453125,0.03125 1.453125,0.8125 0,0.15625 -0.03125,0.546875 -0.078125,0.796875 0,0.046875 -0.03125,0.15625 -0.03125,0.1875 0,0.0625 0.03125,0.140625 0.125,0.140625 0.109375,0 0.125,-0.078125 0.15625,-0.234375 L 7,-6.46875 C 7.015625,-6.515625 7.015625,-6.609375 7.015625,-6.640625 7.015625,-6.75 6.921875,-6.75 6.75,-6.75 H 1.21875 c -0.234375,0 -0.25,0.015625 -0.328125,0.203125 l -0.59375,1.75 c 0,0.015625 -0.0625,0.15625 -0.0625,0.1875 0,0.046875 0.0625,0.109375 0.125,0.109375 0.09375,0 0.109375,-0.0625 0.171875,-0.21875 C 1.0625,-6.265625 1.328125,-6.4375 2.796875,-6.4375 H 3.1875 c 0.28125,0 0.28125,0.03125 0.28125,0.125 0,0.046875 -0.03125,0.171875 -0.046875,0.203125 L 2.09375,-0.78125 C 2,-0.421875 1.96875,-0.3125 0.90625,-0.3125 c -0.359375,0 -0.421875,0 -0.421875,0.1875 C 0.484375,0 0.59375,0 0.65625,0 c 0.265625,0 0.546875,-0.015625 0.8125,-0.015625 0.28125,0 0.578125,-0.015625 0.859375,-0.015625 0.28125,0 0.546875,0.015625 0.828125,0.015625 C 3.4375,-0.015625 3.734375,0 4.015625,0 c 0.09375,0 0.21875,0 0.21875,-0.203125 0,-0.109375 -0.078125,-0.109375 -0.34375,-0.109375 -0.234375,0 -0.375,0 -0.625,-0.015625 -0.296875,-0.03125 -0.375,-0.0625 -0.375,-0.21875 0,-0.015625 0,-0.0625 0.046875,-0.203125 z m 0,0"
               id="id-f746fb9f-9507-4abc-a236-b8c1a3817ecb" />
          </symbol>
        </g>
      </defs>
      <g
         id="id-6dc964e4-9ae0-44c7-8319-6622051d0f9c"
         transform="translate(-148.946,-128.015)">
        <g
           style="fill:#000000;fill-opacity:1"
           id="id-7589abd2-4b4b-4bb7-8307-997bb41c117d">
          <g
             transform="translate(148.712,134.765)"
             id="g17922">
            <path
               style="stroke:none;stroke-width:0"
               d="m 4.25,-6.046875 c 0.078125,-0.28125 0.109375,-0.34375 0.234375,-0.375 0.09375,-0.015625 0.421875,-0.015625 0.625,-0.015625 1.015625,0 1.453125,0.03125 1.453125,0.8125 0,0.15625 -0.03125,0.546875 -0.078125,0.796875 0,0.046875 -0.03125,0.15625 -0.03125,0.1875 0,0.0625 0.03125,0.140625 0.125,0.140625 0.109375,0 0.125,-0.078125 0.15625,-0.234375 L 7,-6.46875 C 7.015625,-6.515625 7.015625,-6.609375 7.015625,-6.640625 7.015625,-6.75 6.921875,-6.75 6.75,-6.75 H 1.21875 c -0.234375,0 -0.25,0.015625 -0.328125,0.203125 l -0.59375,1.75 c 0,0.015625 -0.0625,0.15625 -0.0625,0.1875 0,0.046875 0.0625,0.109375 0.125,0.109375 0.09375,0 0.109375,-0.0625 0.171875,-0.21875 C 1.0625,-6.265625 1.328125,-6.4375 2.796875,-6.4375 H 3.1875 c 0.28125,0 0.28125,0.03125 0.28125,0.125 0,0.046875 -0.03125,0.171875 -0.046875,0.203125 L 2.09375,-0.78125 C 2,-0.421875 1.96875,-0.3125 0.90625,-0.3125 c -0.359375,0 -0.421875,0 -0.421875,0.1875 C 0.484375,0 0.59375,0 0.65625,0 c 0.265625,0 0.546875,-0.015625 0.8125,-0.015625 0.28125,0 0.578125,-0.015625 0.859375,-0.015625 0.28125,0 0.546875,0.015625 0.828125,0.015625 C 3.4375,-0.015625 3.734375,0 4.015625,0 c 0.09375,0 0.21875,0 0.21875,-0.203125 0,-0.109375 -0.078125,-0.109375 -0.34375,-0.109375 -0.234375,0 -0.375,0 -0.625,-0.015625 -0.296875,-0.03125 -0.375,-0.0625 -0.375,-0.21875 0,-0.015625 0,-0.0625 0.046875,-0.203125 z m 0,0"
               id="id-f50e9302-cbf5-4ed1-87fd-4d5d6474b841" />
          </g>
        </g>
      </g>
    </g>
  </g>
</svg>
