<?xml version="1.0" encoding="UTF-8" standalone="no"?>
<!-- Created with Inkscape (http://www.inkscape.org/) -->

<svg
   width="124.57565mm"
   height="73.874329mm"
   viewBox="0 0 124.57565 73.874329"
   version="1.1"
   id="svg30020"
   sodipodi:docname="contours.svg"
   inkscape:export-filename="/home/kirito/storage/IPhD-Project-II/figures/contours.png"
   inkscape:export-xdpi="96"
   inkscape:export-ydpi="96"
   inkscape:version="1.1 (c4e8f9ed74, 2021-05-24)"
   xmlns:inkscape="http://www.inkscape.org/namespaces/inkscape"
   xmlns:sodipodi="http://sodipodi.sourceforge.net/DTD/sodipodi-0.dtd"
   xmlns:xlink="http://www.w3.org/1999/xlink"
   xmlns="http://www.w3.org/2000/svg"
   xmlns:svg="http://www.w3.org/2000/svg">
  <sodipodi:namedview
     id="namedview30022"
     pagecolor="#505050"
     bordercolor="#ffffff"
     borderopacity="1"
     inkscape:pageshadow="0"
     inkscape:pageopacity="0"
     inkscape:pagecheckerboard="1"
     inkscape:document-units="mm"
     showgrid="false"
     inkscape:snap-object-midpoints="true"
     inkscape:zoom="0.74029882"
     inkscape:cx="680.80616"
     inkscape:cy="307.30834"
     inkscape:window-width="1916"
     inkscape:window-height="1051"
     inkscape:window-x="0"
     inkscape:window-y="25"
     inkscape:window-maximized="1"
     inkscape:current-layer="layer1"
     inkscape:snap-center="true" />
  <defs
     id="defs30017">
    <inkscape:path-effect
       effect="spiro"
       id="path-effect33589"
       is_visible="true"
       lpeversion="1" />
    <inkscape:path-effect
       effect="spiro"
       id="path-effect33551"
       is_visible="true"
       lpeversion="1" />
    <inkscape:path-effect
       effect="spiro"
       id="path-effect33532"
       is_visible="true"
       lpeversion="1" />
    <inkscape:path-effect
       effect="spiro"
       id="path-effect31000"
       is_visible="true"
       lpeversion="1" />
    <inkscape:path-effect
       effect="spiro"
       id="path-effect30891"
       is_visible="true"
       lpeversion="1" />
    <inkscape:path-effect
       effect="spiro"
       id="path-effect30659"
       is_visible="true"
       lpeversion="1" />
    <inkscape:path-effect
       effect="spiro"
       id="path-effect30251"
       is_visible="true"
       lpeversion="1" />
    <inkscape:path-effect
       effect="spiro"
       id="path-effect30143"
       is_visible="true"
       lpeversion="1" />
    <inkscape:path-effect
       effect="spiro"
       id="path-effect30139"
       is_visible="true"
       lpeversion="1" />
    <g
       id="g9429">
      <symbol
         overflow="visible"
         id="symbol9207">
        <path
           style="stroke:none"
           d=""
           id="path2788" />
      </symbol>
      <symbol
         overflow="visible"
         id="symbol4874">
        <path
           style="stroke:none"
           d="m 6.03125,-3.703125 c 0,-0.453125 -0.171875,-0.703125 -0.40625,-0.703125 -0.25,0 -0.515625,0.234375 -0.515625,0.46875 0,0.09375 0.046875,0.203125 0.140625,0.296875 0.171875,0.15625 0.359375,0.421875 0.359375,0.84375 0,0.390625 -0.203125,0.96875 -0.5,1.421875 C 4.8125,-0.953125 4.4375,-0.609375 3.96875,-0.609375 3.40625,-0.609375 3.09375,-0.96875 3,-1.5 c 0.109375,-0.265625 0.34375,-0.90625 0.34375,-1.1875 0,-0.109375 -0.046875,-0.21875 -0.1875,-0.21875 -0.078125,0 -0.1875,0.03125 -0.265625,0.171875 C 2.78125,-2.53125 2.65625,-1.890625 2.65625,-1.53125 2.328125,-1.0625 1.9375,-0.609375 1.3125,-0.609375 c -0.671875,0 -0.875,-0.59375 -0.875,-1.140625 0,-1.25 1.015625,-2.296875 1.015625,-2.421875 0,-0.109375 -0.078125,-0.1875 -0.1875,-0.1875 -0.125,0 -0.203125,0.125 -0.265625,0.21875 -0.5,0.734375 -0.875,1.921875 -0.875,2.828125 0,0.6875 0.21875,1.421875 1.046875,1.421875 0.703125,0 1.171875,-0.5 1.53125,-1.046875 0.09375,0.578125 0.484375,1.046875 1.09375,1.046875 0.78125,0 1.25,-0.609375 1.609375,-1.359375 0.25,-0.484375 0.625,-1.84375 0.625,-2.453125 z m 0,0"
           id="path6918" />
      </symbol>
    </g>
    <g
       id="g4015">
      <symbol
         overflow="visible"
         id="symbol3637">
        <path
           style="stroke:none"
           d=""
           id="path990" />
      </symbol>
      <symbol
         overflow="visible"
         id="symbol4206">
        <path
           style="stroke:none"
           d="M 0.40625,-2.53125 C 0.796875,-3.671875 1.890625,-3.6875 2,-3.6875 c 1.5,0 1.609375,1.75 1.609375,2.53125 0,0.609375 -0.046875,0.78125 -0.125,0.984375 -0.21875,0.71875 -0.515625,1.875 -0.515625,2.140625 0,0.109375 0.046875,0.171875 0.125,0.171875 0.140625,0 0.21875,-0.21875 0.328125,-0.59375 C 3.65625,0.703125 3.75,0.140625 3.78125,-0.171875 c 0.03125,-0.125 0.046875,-0.25 0.09375,-0.390625 0.3125,-0.984375 0.953125,-2.46875 1.34375,-3.25 0.078125,-0.125 0.1875,-0.34375 0.1875,-0.390625 0,-0.09375 -0.09375,-0.09375 -0.109375,-0.09375 -0.03125,0 -0.09375,0 -0.125,0.0625 C 4.65625,-3.28125 4.25,-2.28125 3.859375,-1.28125 3.84375,-1.578125 3.84375,-2.34375 3.453125,-3.3125 3.203125,-3.921875 2.8125,-4.40625 2.125,-4.40625 c -1.25,0 -1.953125,1.515625 -1.953125,1.828125 0,0.09375 0.09375,0.09375 0.203125,0.09375 z m 0,0"
           id="path2386" />
      </symbol>
      <symbol
         overflow="visible"
         id="symbol8086">
        <path
           style="stroke:none"
           d=""
           id="path3010" />
      </symbol>
      <symbol
         overflow="visible"
         id="symbol6621">
        <path
           style="stroke:none"
           d="M 3.59375,-2.21875 C 3.59375,-2.984375 3.5,-3.546875 3.1875,-4.03125 2.96875,-4.34375 2.53125,-4.625 1.984375,-4.625 c -1.625,0 -1.625,1.90625 -1.625,2.40625 0,0.5 0,2.359375 1.625,2.359375 1.609375,0 1.609375,-1.859375 1.609375,-2.359375 z M 1.984375,-0.0625 c -0.328125,0 -0.75,-0.1875 -0.890625,-0.75 C 1,-1.21875 1,-1.796875 1,-2.3125 1,-2.828125 1,-3.359375 1.09375,-3.734375 1.25,-4.28125 1.6875,-4.4375 1.984375,-4.4375 c 0.375,0 0.734375,0.234375 0.859375,0.640625 0.109375,0.375 0.125,0.875 0.125,1.484375 0,0.515625 0,1.03125 -0.09375,1.46875 -0.140625,0.640625 -0.609375,0.78125 -0.890625,0.78125 z m 0,0"
           id="path9254" />
      </symbol>
    </g>
    <g
       id="g5500">
      <symbol
         overflow="visible"
         id="symbol1614">
        <path
           style="stroke:none"
           d=""
           id="path6623" />
      </symbol>
      <symbol
         overflow="visible"
         id="symbol6449">
        <path
           style="stroke:none"
           d="M 0.40625,-2.53125 C 0.796875,-3.671875 1.890625,-3.6875 2,-3.6875 c 1.5,0 1.609375,1.75 1.609375,2.53125 0,0.609375 -0.046875,0.78125 -0.125,0.984375 -0.21875,0.71875 -0.515625,1.875 -0.515625,2.140625 0,0.109375 0.046875,0.171875 0.125,0.171875 0.140625,0 0.21875,-0.21875 0.328125,-0.59375 C 3.65625,0.703125 3.75,0.140625 3.78125,-0.171875 c 0.03125,-0.125 0.046875,-0.25 0.09375,-0.390625 0.3125,-0.984375 0.953125,-2.46875 1.34375,-3.25 0.078125,-0.125 0.1875,-0.34375 0.1875,-0.390625 0,-0.09375 -0.09375,-0.09375 -0.109375,-0.09375 -0.03125,0 -0.09375,0 -0.125,0.0625 C 4.65625,-3.28125 4.25,-2.28125 3.859375,-1.28125 3.84375,-1.578125 3.84375,-2.34375 3.453125,-3.3125 3.203125,-3.921875 2.8125,-4.40625 2.125,-4.40625 c -1.25,0 -1.953125,1.515625 -1.953125,1.828125 0,0.09375 0.09375,0.09375 0.203125,0.09375 z m 0,0"
           id="path5007" />
      </symbol>
      <symbol
         overflow="visible"
         id="symbol8933">
        <path
           style="stroke:none"
           d=""
           id="path5186" />
      </symbol>
      <symbol
         overflow="visible"
         id="symbol2799">
        <path
           style="stroke:none"
           d="M 5.3125,-3.671875 C 5.390625,-3.703125 5.46875,-3.75 5.46875,-3.84375 c 0,-0.09375 -0.078125,-0.171875 -0.171875,-0.171875 -0.015625,0 -0.046875,0 -0.140625,0.03125 l -4.25,2.046875 C 0.828125,-1.890625 0.75,-1.84375 0.75,-1.75 c 0,0.109375 0.078125,0.140625 0.15625,0.1875 l 4.25,2.046875 C 5.25,0.53125 5.28125,0.53125 5.296875,0.53125 5.390625,0.53125 5.46875,0.453125 5.46875,0.359375 5.46875,0.25 5.375,0.203125 5.3125,0.1875 l -4,-1.921875 z m 0,0"
           id="path1153" />
      </symbol>
    </g>
    <g
       id="g14">
      <symbol
         overflow="visible"
         id="symbol8855">
        <path
           style="stroke:none;"
           d=""
           id="path9481" />
      </symbol>
      <symbol
         overflow="visible"
         id="symbol6805">
        <path
           style="stroke:none;"
           d="M 7.578125 -6.921875 C 7.578125 -6.953125 7.5625 -7.03125 7.46875 -7.03125 C 7.4375 -7.03125 7.421875 -7.015625 7.3125 -6.90625 L 6.625 -6.140625 C 6.53125 -6.28125 6.078125 -7.03125 4.96875 -7.03125 C 2.734375 -7.03125 0.5 -4.828125 0.5 -2.515625 C 0.5 -0.875 1.671875 0.21875 3.203125 0.21875 C 4.0625 0.21875 4.828125 -0.171875 5.359375 -0.640625 C 6.28125 -1.453125 6.453125 -2.359375 6.453125 -2.390625 C 6.453125 -2.5 6.34375 -2.5 6.328125 -2.5 C 6.265625 -2.5 6.21875 -2.46875 6.203125 -2.390625 C 6.109375 -2.109375 5.875 -1.390625 5.1875 -0.8125 C 4.5 -0.265625 3.875 -0.09375 3.359375 -0.09375 C 2.46875 -0.09375 1.40625 -0.609375 1.40625 -2.15625 C 1.40625 -2.734375 1.609375 -4.34375 2.609375 -5.515625 C 3.21875 -6.21875 4.15625 -6.71875 5.046875 -6.71875 C 6.0625 -6.71875 6.65625 -5.953125 6.65625 -4.796875 C 6.65625 -4.390625 6.625 -4.390625 6.625 -4.28125 C 6.625 -4.1875 6.734375 -4.1875 6.765625 -4.1875 C 6.890625 -4.1875 6.890625 -4.203125 6.953125 -4.390625 Z M 7.578125 -6.921875 "
           id="path4550" />
      </symbol>
      <symbol
         overflow="visible"
         id="symbol1768">
        <path
           style="stroke:none;"
           d="M 4.828125 -4.09375 L 4 -6.078125 C 3.96875 -6.15625 3.953125 -6.203125 3.953125 -6.203125 C 3.953125 -6.265625 4.109375 -6.453125 4.53125 -6.5 C 4.640625 -6.515625 4.734375 -6.515625 4.734375 -6.6875 C 4.734375 -6.8125 4.609375 -6.8125 4.578125 -6.8125 C 4.171875 -6.8125 3.75 -6.78125 3.328125 -6.78125 C 3.078125 -6.78125 2.46875 -6.8125 2.21875 -6.8125 C 2.15625 -6.8125 2.03125 -6.8125 2.03125 -6.609375 C 2.03125 -6.5 2.140625 -6.5 2.265625 -6.5 C 2.859375 -6.5 2.921875 -6.40625 3.015625 -6.1875 L 4.1875 -3.40625 L 2.078125 -1.140625 L 1.953125 -1.03125 C 1.46875 -0.5 1 -0.34375 0.484375 -0.3125 C 0.359375 -0.296875 0.265625 -0.296875 0.265625 -0.109375 C 0.265625 -0.09375 0.265625 0 0.40625 0 C 0.703125 0 1.03125 -0.03125 1.328125 -0.03125 C 1.703125 -0.03125 2.09375 0 2.453125 0 C 2.515625 0 2.625 0 2.625 -0.203125 C 2.625 -0.296875 2.53125 -0.3125 2.515625 -0.3125 C 2.421875 -0.3125 2.109375 -0.34375 2.109375 -0.625 C 2.109375 -0.78125 2.265625 -0.9375 2.375 -1.0625 L 3.40625 -2.140625 L 4.296875 -3.125 L 5.296875 -0.734375 C 5.34375 -0.625 5.359375 -0.625 5.359375 -0.59375 C 5.359375 -0.515625 5.15625 -0.34375 4.78125 -0.3125 C 4.671875 -0.296875 4.578125 -0.296875 4.578125 -0.125 C 4.578125 0 4.6875 0 4.71875 0 C 5 0 5.703125 -0.03125 5.984375 -0.03125 C 6.234375 -0.03125 6.84375 0 7.09375 0 C 7.15625 0 7.28125 0 7.28125 -0.1875 C 7.28125 -0.3125 7.171875 -0.3125 7.09375 -0.3125 C 6.4375 -0.3125 6.40625 -0.34375 6.234375 -0.75 C 5.859375 -1.671875 5.1875 -3.234375 4.953125 -3.828125 C 5.625 -4.53125 6.671875 -5.71875 7 -5.984375 C 7.28125 -6.234375 7.671875 -6.46875 8.265625 -6.5 C 8.390625 -6.515625 8.484375 -6.515625 8.484375 -6.703125 C 8.484375 -6.703125 8.484375 -6.8125 8.359375 -6.8125 C 8.0625 -6.8125 7.71875 -6.78125 7.421875 -6.78125 C 7.046875 -6.78125 6.671875 -6.8125 6.3125 -6.8125 C 6.25 -6.8125 6.125 -6.8125 6.125 -6.609375 C 6.125 -6.546875 6.171875 -6.515625 6.234375 -6.5 C 6.328125 -6.484375 6.640625 -6.46875 6.640625 -6.1875 C 6.640625 -6.046875 6.53125 -5.921875 6.453125 -5.828125 Z M 4.828125 -4.09375 "
           id="path2059" />
      </symbol>
      <symbol
         overflow="visible"
         id="symbol1464">
        <path
           style="stroke:none;"
           d=""
           id="path7755" />
      </symbol>
      <symbol
         overflow="visible"
         id="symbol9162">
        <path
           style="stroke:none;"
           d="M 3.296875 2.390625 C 3.296875 2.359375 3.296875 2.34375 3.125 2.171875 C 1.890625 0.921875 1.5625 -0.96875 1.5625 -2.5 C 1.5625 -4.234375 1.9375 -5.96875 3.171875 -7.203125 C 3.296875 -7.328125 3.296875 -7.34375 3.296875 -7.375 C 3.296875 -7.453125 3.265625 -7.484375 3.203125 -7.484375 C 3.09375 -7.484375 2.203125 -6.796875 1.609375 -5.53125 C 1.109375 -4.4375 0.984375 -3.328125 0.984375 -2.5 C 0.984375 -1.71875 1.09375 -0.515625 1.640625 0.625 C 2.25 1.84375 3.09375 2.5 3.203125 2.5 C 3.265625 2.5 3.296875 2.46875 3.296875 2.390625 Z M 3.296875 2.390625 "
           id="path4554" />
      </symbol>
      <symbol
         overflow="visible"
         id="symbol7953">
        <path
           style="stroke:none;"
           d="M 2.875 -2.5 C 2.875 -3.265625 2.765625 -4.46875 2.21875 -5.609375 C 1.625 -6.828125 0.765625 -7.484375 0.671875 -7.484375 C 0.609375 -7.484375 0.5625 -7.4375 0.5625 -7.375 C 0.5625 -7.34375 0.5625 -7.328125 0.75 -7.140625 C 1.734375 -6.15625 2.296875 -4.578125 2.296875 -2.5 C 2.296875 -0.78125 1.9375 0.96875 0.703125 2.21875 C 0.5625 2.34375 0.5625 2.359375 0.5625 2.390625 C 0.5625 2.453125 0.609375 2.5 0.671875 2.5 C 0.765625 2.5 1.671875 1.8125 2.25 0.546875 C 2.765625 -0.546875 2.875 -1.65625 2.875 -2.5 Z M 2.875 -2.5 "
           id="path4031" />
      </symbol>
    </g>
    <g
       id="g4795">
      <symbol
         overflow="visible"
         id="symbol6734">
        <path
           style="stroke:none;"
           d=""
           id="path1326" />
      </symbol>
      <symbol
         overflow="visible"
         id="symbol883">
        <path
           style="stroke:none;"
           d="M 1.671875 -3.3125 L 1.671875 -4.40625 L 0.28125 -4.296875 L 0.28125 -3.984375 C 0.984375 -3.984375 1.0625 -3.921875 1.0625 -3.421875 L 1.0625 -0.75 C 1.0625 -0.3125 0.953125 -0.3125 0.28125 -0.3125 L 0.28125 0 C 0.671875 -0.015625 1.140625 -0.03125 1.421875 -0.03125 C 1.8125 -0.03125 2.28125 -0.03125 2.6875 0 L 2.6875 -0.3125 L 2.46875 -0.3125 C 1.734375 -0.3125 1.71875 -0.421875 1.71875 -0.78125 L 1.71875 -2.3125 C 1.71875 -3.296875 2.140625 -4.1875 2.890625 -4.1875 C 2.953125 -4.1875 2.984375 -4.1875 3 -4.171875 C 2.96875 -4.171875 2.765625 -4.046875 2.765625 -3.78125 C 2.765625 -3.515625 2.984375 -3.359375 3.203125 -3.359375 C 3.375 -3.359375 3.625 -3.484375 3.625 -3.796875 C 3.625 -4.109375 3.3125 -4.40625 2.890625 -4.40625 C 2.15625 -4.40625 1.796875 -3.734375 1.671875 -3.3125 Z M 1.671875 -3.3125 "
           id="path4433" />
      </symbol>
      <symbol
         overflow="visible"
         id="symbol5949">
        <path
           style="stroke:none;"
           d="M 1.109375 -2.515625 C 1.171875 -4 2.015625 -4.25 2.359375 -4.25 C 3.375 -4.25 3.484375 -2.90625 3.484375 -2.515625 Z M 1.109375 -2.296875 L 3.890625 -2.296875 C 4.109375 -2.296875 4.140625 -2.296875 4.140625 -2.515625 C 4.140625 -3.5 3.59375 -4.46875 2.359375 -4.46875 C 1.203125 -4.46875 0.28125 -3.4375 0.28125 -2.1875 C 0.28125 -0.859375 1.328125 0.109375 2.46875 0.109375 C 3.6875 0.109375 4.140625 -1 4.140625 -1.1875 C 4.140625 -1.28125 4.0625 -1.3125 4 -1.3125 C 3.921875 -1.3125 3.890625 -1.25 3.875 -1.171875 C 3.53125 -0.140625 2.625 -0.140625 2.53125 -0.140625 C 2.03125 -0.140625 1.640625 -0.4375 1.40625 -0.8125 C 1.109375 -1.28125 1.109375 -1.9375 1.109375 -2.296875 Z M 1.109375 -2.296875 "
           id="path9381" />
      </symbol>
      <symbol
         overflow="visible"
         id="symbol4712">
        <path
           style="stroke:none;"
           d="M 3.3125 -0.75 C 3.359375 -0.359375 3.625 0.0625 4.09375 0.0625 C 4.3125 0.0625 4.921875 -0.078125 4.921875 -0.890625 L 4.921875 -1.453125 L 4.671875 -1.453125 L 4.671875 -0.890625 C 4.671875 -0.3125 4.421875 -0.25 4.3125 -0.25 C 3.984375 -0.25 3.9375 -0.703125 3.9375 -0.75 L 3.9375 -2.734375 C 3.9375 -3.15625 3.9375 -3.546875 3.578125 -3.921875 C 3.1875 -4.3125 2.6875 -4.46875 2.21875 -4.46875 C 1.390625 -4.46875 0.703125 -4 0.703125 -3.34375 C 0.703125 -3.046875 0.90625 -2.875 1.171875 -2.875 C 1.453125 -2.875 1.625 -3.078125 1.625 -3.328125 C 1.625 -3.453125 1.578125 -3.78125 1.109375 -3.78125 C 1.390625 -4.140625 1.875 -4.25 2.1875 -4.25 C 2.6875 -4.25 3.25 -3.859375 3.25 -2.96875 L 3.25 -2.609375 C 2.734375 -2.578125 2.046875 -2.546875 1.421875 -2.25 C 0.671875 -1.90625 0.421875 -1.390625 0.421875 -0.953125 C 0.421875 -0.140625 1.390625 0.109375 2.015625 0.109375 C 2.671875 0.109375 3.125 -0.296875 3.3125 -0.75 Z M 3.25 -2.390625 L 3.25 -1.390625 C 3.25 -0.453125 2.53125 -0.109375 2.078125 -0.109375 C 1.59375 -0.109375 1.1875 -0.453125 1.1875 -0.953125 C 1.1875 -1.5 1.609375 -2.328125 3.25 -2.390625 Z M 3.25 -2.390625 "
           id="path3620" />
      </symbol>
      <symbol
         overflow="visible"
         id="symbol4415">
        <path
           style="stroke:none;"
           d="M 1.765625 -6.921875 L 0.328125 -6.8125 L 0.328125 -6.5 C 1.03125 -6.5 1.109375 -6.4375 1.109375 -5.9375 L 1.109375 -0.75 C 1.109375 -0.3125 1 -0.3125 0.328125 -0.3125 L 0.328125 0 C 0.65625 -0.015625 1.1875 -0.03125 1.4375 -0.03125 C 1.6875 -0.03125 2.171875 -0.015625 2.546875 0 L 2.546875 -0.3125 C 1.875 -0.3125 1.765625 -0.3125 1.765625 -0.75 Z M 1.765625 -6.921875 "
           id="path829" />
      </symbol>
      <symbol
         overflow="visible"
         id="symbol8404">
        <path
           style="stroke:none;"
           d="M 3.296875 2.390625 C 3.296875 2.359375 3.296875 2.34375 3.125 2.171875 C 1.890625 0.921875 1.5625 -0.96875 1.5625 -2.5 C 1.5625 -4.234375 1.9375 -5.96875 3.171875 -7.203125 C 3.296875 -7.328125 3.296875 -7.34375 3.296875 -7.375 C 3.296875 -7.453125 3.265625 -7.484375 3.203125 -7.484375 C 3.09375 -7.484375 2.203125 -6.796875 1.609375 -5.53125 C 1.109375 -4.4375 0.984375 -3.328125 0.984375 -2.5 C 0.984375 -1.71875 1.09375 -0.515625 1.640625 0.625 C 2.25 1.84375 3.09375 2.5 3.203125 2.5 C 3.265625 2.5 3.296875 2.46875 3.296875 2.390625 Z M 3.296875 2.390625 "
           id="path9062" />
      </symbol>
      <symbol
         overflow="visible"
         id="symbol8070">
        <path
           style="stroke:none;"
           d="M 2.875 -2.5 C 2.875 -3.265625 2.765625 -4.46875 2.21875 -5.609375 C 1.625 -6.828125 0.765625 -7.484375 0.671875 -7.484375 C 0.609375 -7.484375 0.5625 -7.4375 0.5625 -7.375 C 0.5625 -7.34375 0.5625 -7.328125 0.75 -7.140625 C 1.734375 -6.15625 2.296875 -4.578125 2.296875 -2.5 C 2.296875 -0.78125 1.9375 0.96875 0.703125 2.21875 C 0.5625 2.34375 0.5625 2.359375 0.5625 2.390625 C 0.5625 2.453125 0.609375 2.5 0.671875 2.5 C 0.765625 2.5 1.671875 1.8125 2.25 0.546875 C 2.765625 -0.546875 2.875 -1.65625 2.875 -2.5 Z M 2.875 -2.5 "
           id="path5105" />
      </symbol>
      <symbol
         overflow="visible"
         id="symbol9368">
        <path
           style="stroke:none;"
           d=""
           id="path860" />
      </symbol>
      <symbol
         overflow="visible"
         id="symbol2113">
        <path
           style="stroke:none;"
           d="M 4.828125 -4.09375 L 4 -6.078125 C 3.96875 -6.15625 3.953125 -6.203125 3.953125 -6.203125 C 3.953125 -6.265625 4.109375 -6.453125 4.53125 -6.5 C 4.640625 -6.515625 4.734375 -6.515625 4.734375 -6.6875 C 4.734375 -6.8125 4.609375 -6.8125 4.578125 -6.8125 C 4.171875 -6.8125 3.75 -6.78125 3.328125 -6.78125 C 3.078125 -6.78125 2.46875 -6.8125 2.21875 -6.8125 C 2.15625 -6.8125 2.03125 -6.8125 2.03125 -6.609375 C 2.03125 -6.5 2.140625 -6.5 2.265625 -6.5 C 2.859375 -6.5 2.921875 -6.40625 3.015625 -6.1875 L 4.1875 -3.40625 L 2.078125 -1.140625 L 1.953125 -1.03125 C 1.46875 -0.5 1 -0.34375 0.484375 -0.3125 C 0.359375 -0.296875 0.265625 -0.296875 0.265625 -0.109375 C 0.265625 -0.09375 0.265625 0 0.40625 0 C 0.703125 0 1.03125 -0.03125 1.328125 -0.03125 C 1.703125 -0.03125 2.09375 0 2.453125 0 C 2.515625 0 2.625 0 2.625 -0.203125 C 2.625 -0.296875 2.53125 -0.3125 2.515625 -0.3125 C 2.421875 -0.3125 2.109375 -0.34375 2.109375 -0.625 C 2.109375 -0.78125 2.265625 -0.9375 2.375 -1.0625 L 3.40625 -2.140625 L 4.296875 -3.125 L 5.296875 -0.734375 C 5.34375 -0.625 5.359375 -0.625 5.359375 -0.59375 C 5.359375 -0.515625 5.15625 -0.34375 4.78125 -0.3125 C 4.671875 -0.296875 4.578125 -0.296875 4.578125 -0.125 C 4.578125 0 4.6875 0 4.71875 0 C 5 0 5.703125 -0.03125 5.984375 -0.03125 C 6.234375 -0.03125 6.84375 0 7.09375 0 C 7.15625 0 7.28125 0 7.28125 -0.1875 C 7.28125 -0.3125 7.171875 -0.3125 7.09375 -0.3125 C 6.4375 -0.3125 6.40625 -0.34375 6.234375 -0.75 C 5.859375 -1.671875 5.1875 -3.234375 4.953125 -3.828125 C 5.625 -4.53125 6.671875 -5.71875 7 -5.984375 C 7.28125 -6.234375 7.671875 -6.46875 8.265625 -6.5 C 8.390625 -6.515625 8.484375 -6.515625 8.484375 -6.703125 C 8.484375 -6.703125 8.484375 -6.8125 8.359375 -6.8125 C 8.0625 -6.8125 7.71875 -6.78125 7.421875 -6.78125 C 7.046875 -6.78125 6.671875 -6.8125 6.3125 -6.8125 C 6.25 -6.8125 6.125 -6.8125 6.125 -6.609375 C 6.125 -6.546875 6.171875 -6.515625 6.234375 -6.5 C 6.328125 -6.484375 6.640625 -6.46875 6.640625 -6.1875 C 6.640625 -6.046875 6.53125 -5.921875 6.453125 -5.828125 Z M 4.828125 -4.09375 "
           id="path1148" />
      </symbol>
    </g>
    <g
       id="g6588">
      <symbol
         overflow="visible"
         id="symbol1584">
        <path
           style="stroke:none;"
           d=""
           id="path3353" />
      </symbol>
      <symbol
         overflow="visible"
         id="symbol7273">
        <path
           style="stroke:none;"
           d="M 1.765625 -4.40625 L 0.375 -4.296875 L 0.375 -3.984375 C 1.015625 -3.984375 1.109375 -3.921875 1.109375 -3.4375 L 1.109375 -0.75 C 1.109375 -0.3125 1 -0.3125 0.328125 -0.3125 L 0.328125 0 C 0.640625 -0.015625 1.1875 -0.03125 1.421875 -0.03125 C 1.78125 -0.03125 2.125 -0.015625 2.46875 0 L 2.46875 -0.3125 C 1.796875 -0.3125 1.765625 -0.359375 1.765625 -0.75 Z M 1.796875 -6.140625 C 1.796875 -6.453125 1.5625 -6.671875 1.28125 -6.671875 C 0.96875 -6.671875 0.75 -6.40625 0.75 -6.140625 C 0.75 -5.875 0.96875 -5.609375 1.28125 -5.609375 C 1.5625 -5.609375 1.796875 -5.828125 1.796875 -6.140625 Z M 1.796875 -6.140625 "
           id="path8068" />
      </symbol>
      <symbol
         overflow="visible"
         id="symbol7469">
        <path
           style="stroke:none;"
           d="M 1.09375 -3.421875 L 1.09375 -0.75 C 1.09375 -0.3125 0.984375 -0.3125 0.3125 -0.3125 L 0.3125 0 C 0.671875 -0.015625 1.171875 -0.03125 1.453125 -0.03125 C 1.703125 -0.03125 2.21875 -0.015625 2.5625 0 L 2.5625 -0.3125 C 1.890625 -0.3125 1.78125 -0.3125 1.78125 -0.75 L 1.78125 -2.59375 C 1.78125 -3.625 2.5 -4.1875 3.125 -4.1875 C 3.765625 -4.1875 3.875 -3.65625 3.875 -3.078125 L 3.875 -0.75 C 3.875 -0.3125 3.765625 -0.3125 3.09375 -0.3125 L 3.09375 0 C 3.4375 -0.015625 3.953125 -0.03125 4.21875 -0.03125 C 4.46875 -0.03125 5 -0.015625 5.328125 0 L 5.328125 -0.3125 C 4.671875 -0.3125 4.5625 -0.3125 4.5625 -0.75 L 4.5625 -2.59375 C 4.5625 -3.625 5.265625 -4.1875 5.90625 -4.1875 C 6.53125 -4.1875 6.640625 -3.65625 6.640625 -3.078125 L 6.640625 -0.75 C 6.640625 -0.3125 6.53125 -0.3125 5.859375 -0.3125 L 5.859375 0 C 6.203125 -0.015625 6.71875 -0.03125 6.984375 -0.03125 C 7.25 -0.03125 7.765625 -0.015625 8.109375 0 L 8.109375 -0.3125 C 7.59375 -0.3125 7.34375 -0.3125 7.328125 -0.609375 L 7.328125 -2.515625 C 7.328125 -3.375 7.328125 -3.671875 7.015625 -4.03125 C 6.875 -4.203125 6.546875 -4.40625 5.96875 -4.40625 C 5.140625 -4.40625 4.6875 -3.8125 4.53125 -3.421875 C 4.390625 -4.296875 3.65625 -4.40625 3.203125 -4.40625 C 2.46875 -4.40625 2 -3.984375 1.71875 -3.359375 L 1.71875 -4.40625 L 0.3125 -4.296875 L 0.3125 -3.984375 C 1.015625 -3.984375 1.09375 -3.921875 1.09375 -3.421875 Z M 1.09375 -3.421875 "
           id="path6584" />
      </symbol>
      <symbol
         overflow="visible"
         id="symbol6626">
        <path
           style="stroke:none;"
           d="M 3.3125 -0.75 C 3.359375 -0.359375 3.625 0.0625 4.09375 0.0625 C 4.3125 0.0625 4.921875 -0.078125 4.921875 -0.890625 L 4.921875 -1.453125 L 4.671875 -1.453125 L 4.671875 -0.890625 C 4.671875 -0.3125 4.421875 -0.25 4.3125 -0.25 C 3.984375 -0.25 3.9375 -0.703125 3.9375 -0.75 L 3.9375 -2.734375 C 3.9375 -3.15625 3.9375 -3.546875 3.578125 -3.921875 C 3.1875 -4.3125 2.6875 -4.46875 2.21875 -4.46875 C 1.390625 -4.46875 0.703125 -4 0.703125 -3.34375 C 0.703125 -3.046875 0.90625 -2.875 1.171875 -2.875 C 1.453125 -2.875 1.625 -3.078125 1.625 -3.328125 C 1.625 -3.453125 1.578125 -3.78125 1.109375 -3.78125 C 1.390625 -4.140625 1.875 -4.25 2.1875 -4.25 C 2.6875 -4.25 3.25 -3.859375 3.25 -2.96875 L 3.25 -2.609375 C 2.734375 -2.578125 2.046875 -2.546875 1.421875 -2.25 C 0.671875 -1.90625 0.421875 -1.390625 0.421875 -0.953125 C 0.421875 -0.140625 1.390625 0.109375 2.015625 0.109375 C 2.671875 0.109375 3.125 -0.296875 3.3125 -0.75 Z M 3.25 -2.390625 L 3.25 -1.390625 C 3.25 -0.453125 2.53125 -0.109375 2.078125 -0.109375 C 1.59375 -0.109375 1.1875 -0.453125 1.1875 -0.953125 C 1.1875 -1.5 1.609375 -2.328125 3.25 -2.390625 Z M 3.25 -2.390625 "
           id="path3051" />
      </symbol>
      <symbol
         overflow="visible"
         id="symbol9134">
        <path
           style="stroke:none;"
           d="M 2.21875 -1.71875 C 1.34375 -1.71875 1.34375 -2.71875 1.34375 -2.9375 C 1.34375 -3.203125 1.359375 -3.53125 1.5 -3.78125 C 1.578125 -3.890625 1.8125 -4.171875 2.21875 -4.171875 C 3.078125 -4.171875 3.078125 -3.1875 3.078125 -2.953125 C 3.078125 -2.6875 3.078125 -2.359375 2.921875 -2.109375 C 2.84375 -2 2.609375 -1.71875 2.21875 -1.71875 Z M 1.0625 -1.328125 C 1.0625 -1.359375 1.0625 -1.59375 1.21875 -1.796875 C 1.609375 -1.515625 2.03125 -1.484375 2.21875 -1.484375 C 3.140625 -1.484375 3.828125 -2.171875 3.828125 -2.9375 C 3.828125 -3.3125 3.671875 -3.671875 3.421875 -3.90625 C 3.78125 -4.25 4.140625 -4.296875 4.3125 -4.296875 C 4.34375 -4.296875 4.390625 -4.296875 4.421875 -4.28125 C 4.3125 -4.25 4.25 -4.140625 4.25 -4.015625 C 4.25 -3.84375 4.390625 -3.734375 4.546875 -3.734375 C 4.640625 -3.734375 4.828125 -3.796875 4.828125 -4.03125 C 4.828125 -4.203125 4.71875 -4.515625 4.328125 -4.515625 C 4.125 -4.515625 3.6875 -4.453125 3.265625 -4.046875 C 2.84375 -4.375 2.4375 -4.40625 2.21875 -4.40625 C 1.28125 -4.40625 0.59375 -3.71875 0.59375 -2.953125 C 0.59375 -2.515625 0.8125 -2.140625 1.0625 -1.921875 C 0.9375 -1.78125 0.75 -1.453125 0.75 -1.09375 C 0.75 -0.78125 0.890625 -0.40625 1.203125 -0.203125 C 0.59375 -0.046875 0.28125 0.390625 0.28125 0.78125 C 0.28125 1.5 1.265625 2.046875 2.484375 2.046875 C 3.65625 2.046875 4.6875 1.546875 4.6875 0.765625 C 4.6875 0.421875 4.5625 -0.09375 4.046875 -0.375 C 3.515625 -0.640625 2.9375 -0.640625 2.328125 -0.640625 C 2.078125 -0.640625 1.65625 -0.640625 1.578125 -0.65625 C 1.265625 -0.703125 1.0625 -1 1.0625 -1.328125 Z M 2.5 1.828125 C 1.484375 1.828125 0.796875 1.3125 0.796875 0.78125 C 0.796875 0.328125 1.171875 -0.046875 1.609375 -0.0625 L 2.203125 -0.0625 C 3.0625 -0.0625 4.171875 -0.0625 4.171875 0.78125 C 4.171875 1.328125 3.46875 1.828125 2.5 1.828125 Z M 2.5 1.828125 "
           id="path7627" />
      </symbol>
      <symbol
         overflow="visible"
         id="symbol9821">
        <path
           style="stroke:none;"
           d="M 3.296875 2.390625 C 3.296875 2.359375 3.296875 2.34375 3.125 2.171875 C 1.890625 0.921875 1.5625 -0.96875 1.5625 -2.5 C 1.5625 -4.234375 1.9375 -5.96875 3.171875 -7.203125 C 3.296875 -7.328125 3.296875 -7.34375 3.296875 -7.375 C 3.296875 -7.453125 3.265625 -7.484375 3.203125 -7.484375 C 3.09375 -7.484375 2.203125 -6.796875 1.609375 -5.53125 C 1.109375 -4.4375 0.984375 -3.328125 0.984375 -2.5 C 0.984375 -1.71875 1.09375 -0.515625 1.640625 0.625 C 2.25 1.84375 3.09375 2.5 3.203125 2.5 C 3.265625 2.5 3.296875 2.46875 3.296875 2.390625 Z M 3.296875 2.390625 "
           id="path9776" />
      </symbol>
      <symbol
         overflow="visible"
         id="symbol6739">
        <path
           style="stroke:none;"
           d="M 2.875 -2.5 C 2.875 -3.265625 2.765625 -4.46875 2.21875 -5.609375 C 1.625 -6.828125 0.765625 -7.484375 0.671875 -7.484375 C 0.609375 -7.484375 0.5625 -7.4375 0.5625 -7.375 C 0.5625 -7.34375 0.5625 -7.328125 0.75 -7.140625 C 1.734375 -6.15625 2.296875 -4.578125 2.296875 -2.5 C 2.296875 -0.78125 1.9375 0.96875 0.703125 2.21875 C 0.5625 2.34375 0.5625 2.359375 0.5625 2.390625 C 0.5625 2.453125 0.609375 2.5 0.671875 2.5 C 0.765625 2.5 1.671875 1.8125 2.25 0.546875 C 2.765625 -0.546875 2.875 -1.65625 2.875 -2.5 Z M 2.875 -2.5 "
           id="path1063" />
      </symbol>
      <symbol
         overflow="visible"
         id="symbol5678">
        <path
           style="stroke:none;"
           d=""
           id="path9042" />
      </symbol>
      <symbol
         overflow="visible"
         id="symbol4803">
        <path
           style="stroke:none;"
           d="M 4.828125 -4.09375 L 4 -6.078125 C 3.96875 -6.15625 3.953125 -6.203125 3.953125 -6.203125 C 3.953125 -6.265625 4.109375 -6.453125 4.53125 -6.5 C 4.640625 -6.515625 4.734375 -6.515625 4.734375 -6.6875 C 4.734375 -6.8125 4.609375 -6.8125 4.578125 -6.8125 C 4.171875 -6.8125 3.75 -6.78125 3.328125 -6.78125 C 3.078125 -6.78125 2.46875 -6.8125 2.21875 -6.8125 C 2.15625 -6.8125 2.03125 -6.8125 2.03125 -6.609375 C 2.03125 -6.5 2.140625 -6.5 2.265625 -6.5 C 2.859375 -6.5 2.921875 -6.40625 3.015625 -6.1875 L 4.1875 -3.40625 L 2.078125 -1.140625 L 1.953125 -1.03125 C 1.46875 -0.5 1 -0.34375 0.484375 -0.3125 C 0.359375 -0.296875 0.265625 -0.296875 0.265625 -0.109375 C 0.265625 -0.09375 0.265625 0 0.40625 0 C 0.703125 0 1.03125 -0.03125 1.328125 -0.03125 C 1.703125 -0.03125 2.09375 0 2.453125 0 C 2.515625 0 2.625 0 2.625 -0.203125 C 2.625 -0.296875 2.53125 -0.3125 2.515625 -0.3125 C 2.421875 -0.3125 2.109375 -0.34375 2.109375 -0.625 C 2.109375 -0.78125 2.265625 -0.9375 2.375 -1.0625 L 3.40625 -2.140625 L 4.296875 -3.125 L 5.296875 -0.734375 C 5.34375 -0.625 5.359375 -0.625 5.359375 -0.59375 C 5.359375 -0.515625 5.15625 -0.34375 4.78125 -0.3125 C 4.671875 -0.296875 4.578125 -0.296875 4.578125 -0.125 C 4.578125 0 4.6875 0 4.71875 0 C 5 0 5.703125 -0.03125 5.984375 -0.03125 C 6.234375 -0.03125 6.84375 0 7.09375 0 C 7.15625 0 7.28125 0 7.28125 -0.1875 C 7.28125 -0.3125 7.171875 -0.3125 7.09375 -0.3125 C 6.4375 -0.3125 6.40625 -0.34375 6.234375 -0.75 C 5.859375 -1.671875 5.1875 -3.234375 4.953125 -3.828125 C 5.625 -4.53125 6.671875 -5.71875 7 -5.984375 C 7.28125 -6.234375 7.671875 -6.46875 8.265625 -6.5 C 8.390625 -6.515625 8.484375 -6.515625 8.484375 -6.703125 C 8.484375 -6.703125 8.484375 -6.8125 8.359375 -6.8125 C 8.0625 -6.8125 7.71875 -6.78125 7.421875 -6.78125 C 7.046875 -6.78125 6.671875 -6.8125 6.3125 -6.8125 C 6.25 -6.8125 6.125 -6.8125 6.125 -6.609375 C 6.125 -6.546875 6.171875 -6.515625 6.234375 -6.5 C 6.328125 -6.484375 6.640625 -6.46875 6.640625 -6.1875 C 6.640625 -6.046875 6.53125 -5.921875 6.453125 -5.828125 Z M 4.828125 -4.09375 "
           id="path1777" />
      </symbol>
    </g>
    <g
       id="g1424">
      <symbol
         overflow="visible"
         id="symbol2061">
        <path
           style="stroke:none;"
           d=""
           id="path9998" />
      </symbol>
      <symbol
         overflow="visible"
         id="symbol8460">
        <path
           style="stroke:none;"
           d="M 0.453125 1.21875 C 0.375 1.5625 0.34375 1.625 -0.09375 1.625 C -0.203125 1.625 -0.3125 1.625 -0.3125 1.8125 C -0.3125 1.890625 -0.265625 1.9375 -0.1875 1.9375 C 0.078125 1.9375 0.375 1.90625 0.640625 1.90625 C 0.984375 1.90625 1.3125 1.9375 1.640625 1.9375 C 1.6875 1.9375 1.8125 1.9375 1.8125 1.734375 C 1.8125 1.625 1.71875 1.625 1.578125 1.625 C 1.078125 1.625 1.078125 1.5625 1.078125 1.46875 C 1.078125 1.34375 1.5 -0.28125 1.5625 -0.53125 C 1.6875 -0.234375 1.96875 0.109375 2.484375 0.109375 C 3.640625 0.109375 4.890625 -1.34375 4.890625 -2.8125 C 4.890625 -3.75 4.3125 -4.40625 3.5625 -4.40625 C 3.0625 -4.40625 2.578125 -4.046875 2.25 -3.65625 C 2.15625 -4.203125 1.71875 -4.40625 1.359375 -4.40625 C 0.890625 -4.40625 0.703125 -4.015625 0.625 -3.84375 C 0.4375 -3.5 0.3125 -2.90625 0.3125 -2.875 C 0.3125 -2.765625 0.40625 -2.765625 0.421875 -2.765625 C 0.53125 -2.765625 0.53125 -2.78125 0.59375 -3 C 0.765625 -3.703125 0.96875 -4.1875 1.328125 -4.1875 C 1.5 -4.1875 1.640625 -4.109375 1.640625 -3.734375 C 1.640625 -3.5 1.609375 -3.390625 1.5625 -3.21875 Z M 2.203125 -3.109375 C 2.265625 -3.375 2.546875 -3.65625 2.71875 -3.8125 C 3.078125 -4.109375 3.359375 -4.1875 3.53125 -4.1875 C 3.921875 -4.1875 4.171875 -3.84375 4.171875 -3.25 C 4.171875 -2.65625 3.84375 -1.515625 3.65625 -1.140625 C 3.3125 -0.4375 2.84375 -0.109375 2.46875 -0.109375 C 1.8125 -0.109375 1.6875 -0.9375 1.6875 -1 C 1.6875 -1.015625 1.6875 -1.03125 1.71875 -1.15625 Z M 2.203125 -3.109375 "
           id="path478" />
      </symbol>
      <symbol
         overflow="visible"
         id="symbol2359">
        <path
           style="stroke:none;"
           d="M 7.578125 -6.921875 C 7.578125 -6.953125 7.5625 -7.03125 7.46875 -7.03125 C 7.4375 -7.03125 7.421875 -7.015625 7.3125 -6.90625 L 6.625 -6.140625 C 6.53125 -6.28125 6.078125 -7.03125 4.96875 -7.03125 C 2.734375 -7.03125 0.5 -4.828125 0.5 -2.515625 C 0.5 -0.875 1.671875 0.21875 3.203125 0.21875 C 4.0625 0.21875 4.828125 -0.171875 5.359375 -0.640625 C 6.28125 -1.453125 6.453125 -2.359375 6.453125 -2.390625 C 6.453125 -2.5 6.34375 -2.5 6.328125 -2.5 C 6.265625 -2.5 6.21875 -2.46875 6.203125 -2.390625 C 6.109375 -2.109375 5.875 -1.390625 5.1875 -0.8125 C 4.5 -0.265625 3.875 -0.09375 3.359375 -0.09375 C 2.46875 -0.09375 1.40625 -0.609375 1.40625 -2.15625 C 1.40625 -2.734375 1.609375 -4.34375 2.609375 -5.515625 C 3.21875 -6.21875 4.15625 -6.71875 5.046875 -6.71875 C 6.0625 -6.71875 6.65625 -5.953125 6.65625 -4.796875 C 6.65625 -4.390625 6.625 -4.390625 6.625 -4.28125 C 6.625 -4.1875 6.734375 -4.1875 6.765625 -4.1875 C 6.890625 -4.1875 6.890625 -4.203125 6.953125 -4.390625 Z M 7.578125 -6.921875 "
           id="path3099" />
      </symbol>
      <symbol
         overflow="visible"
         id="symbol7972">
        <path
           style="stroke:none;"
           d=""
           id="path1864" />
      </symbol>
      <symbol
         overflow="visible"
         id="symbol1563">
        <path
           style="stroke:none;"
           d="M 3.875 -2.65625 L 4.53125 -3.328125 C 5.421875 -4.203125 5.703125 -4.46875 6.328125 -4.515625 C 6.421875 -4.515625 6.5 -4.515625 6.5 -4.65625 C 6.5 -4.734375 6.421875 -4.765625 6.40625 -4.765625 C 6.203125 -4.765625 5.953125 -4.734375 5.75 -4.734375 C 5.5625 -4.734375 5.125 -4.765625 4.9375 -4.765625 C 4.890625 -4.765625 4.796875 -4.734375 4.796875 -4.609375 C 4.796875 -4.59375 4.796875 -4.515625 4.90625 -4.515625 C 4.96875 -4.5 5.140625 -4.484375 5.140625 -4.328125 C 5.140625 -4.234375 5.03125 -4.125 4.96875 -4.046875 C 4.90625 -4 4.03125 -3.140625 3.765625 -2.875 L 3.0625 -4.234375 C 3.046875 -4.265625 3.03125 -4.3125 3.03125 -4.328125 C 3.03125 -4.390625 3.15625 -4.5 3.40625 -4.515625 C 3.453125 -4.515625 3.546875 -4.515625 3.546875 -4.65625 C 3.546875 -4.671875 3.546875 -4.765625 3.421875 -4.765625 C 3.28125 -4.765625 3.109375 -4.734375 2.96875 -4.734375 C 2.8125 -4.734375 2.65625 -4.734375 2.515625 -4.734375 C 2.390625 -4.734375 2.21875 -4.734375 2.09375 -4.734375 C 1.984375 -4.75 1.828125 -4.765625 1.71875 -4.765625 C 1.6875 -4.765625 1.578125 -4.765625 1.578125 -4.609375 C 1.578125 -4.515625 1.671875 -4.515625 1.78125 -4.515625 C 2.1875 -4.515625 2.21875 -4.4375 2.28125 -4.296875 L 3.265625 -2.375 L 2.875 -1.984375 C 2.734375 -1.859375 2.40625 -1.546875 2.28125 -1.421875 C 1.4375 -0.578125 1.15625 -0.28125 0.515625 -0.25 C 0.421875 -0.25 0.34375 -0.25 0.34375 -0.09375 C 0.34375 -0.0625 0.375 0 0.453125 0 C 0.640625 0 0.890625 -0.03125 1.09375 -0.03125 C 1.21875 -0.03125 1.390625 -0.03125 1.5 -0.015625 C 1.625 -0.015625 1.78125 0 1.90625 0 C 1.9375 0 2.046875 0 2.046875 -0.140625 C 2.046875 -0.25 1.96875 -0.25 1.921875 -0.25 C 1.859375 -0.265625 1.703125 -0.28125 1.703125 -0.421875 C 1.703125 -0.53125 1.796875 -0.625 1.953125 -0.78125 L 3.359375 -2.171875 L 4.203125 -0.515625 C 4.25 -0.453125 4.25 -0.4375 4.25 -0.421875 C 4.25 -0.390625 4.125 -0.265625 3.875 -0.25 C 3.8125 -0.25 3.734375 -0.25 3.734375 -0.09375 C 3.734375 -0.09375 3.734375 0 3.84375 0 C 4 0 4.171875 -0.015625 4.3125 -0.015625 C 4.453125 -0.015625 4.625 -0.03125 4.765625 -0.03125 C 4.890625 -0.03125 5.046875 -0.03125 5.171875 -0.015625 C 5.296875 -0.015625 5.4375 0 5.546875 0 C 5.59375 0 5.703125 0 5.703125 -0.15625 C 5.703125 -0.25 5.609375 -0.25 5.5 -0.25 C 5.09375 -0.25 5.0625 -0.328125 5 -0.453125 Z M 3.875 -2.65625 "
           id="path3501" />
      </symbol>
      <symbol
         overflow="visible"
         id="symbol1253">
        <path
           style="stroke:none;"
           d=""
           id="path9367" />
      </symbol>
      <symbol
         overflow="visible"
         id="symbol504">
        <path
           style="stroke:none;"
           d="M 3.296875 2.390625 C 3.296875 2.359375 3.296875 2.34375 3.125 2.171875 C 1.890625 0.921875 1.5625 -0.96875 1.5625 -2.5 C 1.5625 -4.234375 1.9375 -5.96875 3.171875 -7.203125 C 3.296875 -7.328125 3.296875 -7.34375 3.296875 -7.375 C 3.296875 -7.453125 3.265625 -7.484375 3.203125 -7.484375 C 3.09375 -7.484375 2.203125 -6.796875 1.609375 -5.53125 C 1.109375 -4.4375 0.984375 -3.328125 0.984375 -2.5 C 0.984375 -1.71875 1.09375 -0.515625 1.640625 0.625 C 2.25 1.84375 3.09375 2.5 3.203125 2.5 C 3.265625 2.5 3.296875 2.46875 3.296875 2.390625 Z M 3.296875 2.390625 "
           id="path148" />
      </symbol>
      <symbol
         overflow="visible"
         id="symbol5320">
        <path
           style="stroke:none;"
           d="M 2.875 -2.5 C 2.875 -3.265625 2.765625 -4.46875 2.21875 -5.609375 C 1.625 -6.828125 0.765625 -7.484375 0.671875 -7.484375 C 0.609375 -7.484375 0.5625 -7.4375 0.5625 -7.375 C 0.5625 -7.34375 0.5625 -7.328125 0.75 -7.140625 C 1.734375 -6.15625 2.296875 -4.578125 2.296875 -2.5 C 2.296875 -0.78125 1.9375 0.96875 0.703125 2.21875 C 0.5625 2.34375 0.5625 2.359375 0.5625 2.390625 C 0.5625 2.453125 0.609375 2.5 0.671875 2.5 C 0.765625 2.5 1.671875 1.8125 2.25 0.546875 C 2.765625 -0.546875 2.875 -1.65625 2.875 -2.5 Z M 2.875 -2.5 "
           id="path3414" />
      </symbol>
      <symbol
         overflow="visible"
         id="symbol1322">
        <path
           style="stroke:none;"
           d="M 6.84375 -3.265625 C 7 -3.265625 7.1875 -3.265625 7.1875 -3.453125 C 7.1875 -3.65625 7 -3.65625 6.859375 -3.65625 L 0.890625 -3.65625 C 0.75 -3.65625 0.5625 -3.65625 0.5625 -3.453125 C 0.5625 -3.265625 0.75 -3.265625 0.890625 -3.265625 Z M 6.859375 -1.328125 C 7 -1.328125 7.1875 -1.328125 7.1875 -1.53125 C 7.1875 -1.71875 7 -1.71875 6.84375 -1.71875 L 0.890625 -1.71875 C 0.75 -1.71875 0.5625 -1.71875 0.5625 -1.53125 C 0.5625 -1.328125 0.75 -1.328125 0.890625 -1.328125 Z M 6.859375 -1.328125 "
           id="path2000" />
      </symbol>
      <symbol
         overflow="visible"
         id="symbol5581">
        <path
           style="stroke:none;"
           d="M 1.265625 -0.765625 L 2.328125 -1.796875 C 3.875 -3.171875 4.46875 -3.703125 4.46875 -4.703125 C 4.46875 -5.84375 3.578125 -6.640625 2.359375 -6.640625 C 1.234375 -6.640625 0.5 -5.71875 0.5 -4.828125 C 0.5 -4.28125 1 -4.28125 1.03125 -4.28125 C 1.203125 -4.28125 1.546875 -4.390625 1.546875 -4.8125 C 1.546875 -5.0625 1.359375 -5.328125 1.015625 -5.328125 C 0.9375 -5.328125 0.921875 -5.328125 0.890625 -5.3125 C 1.109375 -5.96875 1.65625 -6.328125 2.234375 -6.328125 C 3.140625 -6.328125 3.5625 -5.515625 3.5625 -4.703125 C 3.5625 -3.90625 3.078125 -3.125 2.515625 -2.5 L 0.609375 -0.375 C 0.5 -0.265625 0.5 -0.234375 0.5 0 L 4.203125 0 L 4.46875 -1.734375 L 4.234375 -1.734375 C 4.171875 -1.4375 4.109375 -1 4 -0.84375 C 3.9375 -0.765625 3.28125 -0.765625 3.0625 -0.765625 Z M 1.265625 -0.765625 "
           id="path1708" />
      </symbol>
    </g>
    <g
       id="g7875">
      <symbol
         overflow="visible"
         id="symbol6250">
        <path
           style="stroke:none;"
           d=""
           id="path5026" />
      </symbol>
      <symbol
         overflow="visible"
         id="symbol6609">
        <path
           style="stroke:none;"
           d="M 3.015625 -3.15625 L 4.71875 -3.15625 C 6.125 -3.15625 7.515625 -4.1875 7.515625 -5.296875 C 7.515625 -6.078125 6.859375 -6.8125 5.546875 -6.8125 L 2.328125 -6.8125 C 2.140625 -6.8125 2.03125 -6.8125 2.03125 -6.625 C 2.03125 -6.5 2.109375 -6.5 2.3125 -6.5 C 2.4375 -6.5 2.625 -6.484375 2.734375 -6.484375 C 2.90625 -6.453125 2.953125 -6.4375 2.953125 -6.3125 C 2.953125 -6.28125 2.953125 -6.25 2.921875 -6.125 L 1.578125 -0.78125 C 1.484375 -0.390625 1.46875 -0.3125 0.671875 -0.3125 C 0.515625 -0.3125 0.40625 -0.3125 0.40625 -0.125 C 0.40625 0 0.515625 0 0.546875 0 C 0.828125 0 1.53125 -0.03125 1.8125 -0.03125 C 2.03125 -0.03125 2.25 -0.015625 2.453125 -0.015625 C 2.671875 -0.015625 2.890625 0 3.09375 0 C 3.171875 0 3.296875 0 3.296875 -0.203125 C 3.296875 -0.3125 3.203125 -0.3125 3.015625 -0.3125 C 2.65625 -0.3125 2.375 -0.3125 2.375 -0.484375 C 2.375 -0.546875 2.390625 -0.59375 2.40625 -0.65625 Z M 3.734375 -6.125 C 3.828125 -6.46875 3.84375 -6.5 4.28125 -6.5 L 5.234375 -6.5 C 6.0625 -6.5 6.59375 -6.234375 6.59375 -5.546875 C 6.59375 -5.15625 6.390625 -4.296875 6 -3.9375 C 5.5 -3.484375 4.90625 -3.40625 4.46875 -3.40625 L 3.0625 -3.40625 Z M 3.734375 -6.125 "
           id="path7528" />
      </symbol>
      <symbol
         overflow="visible"
         id="symbol4305">
        <path
           style="stroke:none;"
           d="M 7.578125 -6.921875 C 7.578125 -6.953125 7.5625 -7.03125 7.46875 -7.03125 C 7.4375 -7.03125 7.421875 -7.015625 7.3125 -6.90625 L 6.625 -6.140625 C 6.53125 -6.28125 6.078125 -7.03125 4.96875 -7.03125 C 2.734375 -7.03125 0.5 -4.828125 0.5 -2.515625 C 0.5 -0.875 1.671875 0.21875 3.203125 0.21875 C 4.0625 0.21875 4.828125 -0.171875 5.359375 -0.640625 C 6.28125 -1.453125 6.453125 -2.359375 6.453125 -2.390625 C 6.453125 -2.5 6.34375 -2.5 6.328125 -2.5 C 6.265625 -2.5 6.21875 -2.46875 6.203125 -2.390625 C 6.109375 -2.109375 5.875 -1.390625 5.1875 -0.8125 C 4.5 -0.265625 3.875 -0.09375 3.359375 -0.09375 C 2.46875 -0.09375 1.40625 -0.609375 1.40625 -2.15625 C 1.40625 -2.734375 1.609375 -4.34375 2.609375 -5.515625 C 3.21875 -6.21875 4.15625 -6.71875 5.046875 -6.71875 C 6.0625 -6.71875 6.65625 -5.953125 6.65625 -4.796875 C 6.65625 -4.390625 6.625 -4.390625 6.625 -4.28125 C 6.625 -4.1875 6.734375 -4.1875 6.765625 -4.1875 C 6.890625 -4.1875 6.890625 -4.203125 6.953125 -4.390625 Z M 7.578125 -6.921875 "
           id="path6327" />
      </symbol>
      <symbol
         overflow="visible"
         id="symbol3034">
        <path
           style="stroke:none;"
           d=""
           id="path5607" />
      </symbol>
      <symbol
         overflow="visible"
         id="symbol3992">
        <path
           style="stroke:none;"
           d="M 3.875 -2.65625 L 4.53125 -3.328125 C 5.421875 -4.203125 5.703125 -4.46875 6.328125 -4.515625 C 6.421875 -4.515625 6.5 -4.515625 6.5 -4.65625 C 6.5 -4.734375 6.421875 -4.765625 6.40625 -4.765625 C 6.203125 -4.765625 5.953125 -4.734375 5.75 -4.734375 C 5.5625 -4.734375 5.125 -4.765625 4.9375 -4.765625 C 4.890625 -4.765625 4.796875 -4.734375 4.796875 -4.609375 C 4.796875 -4.59375 4.796875 -4.515625 4.90625 -4.515625 C 4.96875 -4.5 5.140625 -4.484375 5.140625 -4.328125 C 5.140625 -4.234375 5.03125 -4.125 4.96875 -4.046875 C 4.90625 -4 4.03125 -3.140625 3.765625 -2.875 L 3.0625 -4.234375 C 3.046875 -4.265625 3.03125 -4.3125 3.03125 -4.328125 C 3.03125 -4.390625 3.15625 -4.5 3.40625 -4.515625 C 3.453125 -4.515625 3.546875 -4.515625 3.546875 -4.65625 C 3.546875 -4.671875 3.546875 -4.765625 3.421875 -4.765625 C 3.28125 -4.765625 3.109375 -4.734375 2.96875 -4.734375 C 2.8125 -4.734375 2.65625 -4.734375 2.515625 -4.734375 C 2.390625 -4.734375 2.21875 -4.734375 2.09375 -4.734375 C 1.984375 -4.75 1.828125 -4.765625 1.71875 -4.765625 C 1.6875 -4.765625 1.578125 -4.765625 1.578125 -4.609375 C 1.578125 -4.515625 1.671875 -4.515625 1.78125 -4.515625 C 2.1875 -4.515625 2.21875 -4.4375 2.28125 -4.296875 L 3.265625 -2.375 L 2.875 -1.984375 C 2.734375 -1.859375 2.40625 -1.546875 2.28125 -1.421875 C 1.4375 -0.578125 1.15625 -0.28125 0.515625 -0.25 C 0.421875 -0.25 0.34375 -0.25 0.34375 -0.09375 C 0.34375 -0.0625 0.375 0 0.453125 0 C 0.640625 0 0.890625 -0.03125 1.09375 -0.03125 C 1.21875 -0.03125 1.390625 -0.03125 1.5 -0.015625 C 1.625 -0.015625 1.78125 0 1.90625 0 C 1.9375 0 2.046875 0 2.046875 -0.140625 C 2.046875 -0.25 1.96875 -0.25 1.921875 -0.25 C 1.859375 -0.265625 1.703125 -0.28125 1.703125 -0.421875 C 1.703125 -0.53125 1.796875 -0.625 1.953125 -0.78125 L 3.359375 -2.171875 L 4.203125 -0.515625 C 4.25 -0.453125 4.25 -0.4375 4.25 -0.421875 C 4.25 -0.390625 4.125 -0.265625 3.875 -0.25 C 3.8125 -0.25 3.734375 -0.25 3.734375 -0.09375 C 3.734375 -0.09375 3.734375 0 3.84375 0 C 4 0 4.171875 -0.015625 4.3125 -0.015625 C 4.453125 -0.015625 4.625 -0.03125 4.765625 -0.03125 C 4.890625 -0.03125 5.046875 -0.03125 5.171875 -0.015625 C 5.296875 -0.015625 5.4375 0 5.546875 0 C 5.59375 0 5.703125 0 5.703125 -0.15625 C 5.703125 -0.25 5.609375 -0.25 5.5 -0.25 C 5.09375 -0.25 5.0625 -0.328125 5 -0.453125 Z M 3.875 -2.65625 "
           id="path4755" />
      </symbol>
      <symbol
         overflow="visible"
         id="symbol3721">
        <path
           style="stroke:none;"
           d=""
           id="path8393" />
      </symbol>
      <symbol
         overflow="visible"
         id="symbol7465">
        <path
           style="stroke:none;"
           d="M 3.296875 2.390625 C 3.296875 2.359375 3.296875 2.34375 3.125 2.171875 C 1.890625 0.921875 1.5625 -0.96875 1.5625 -2.5 C 1.5625 -4.234375 1.9375 -5.96875 3.171875 -7.203125 C 3.296875 -7.328125 3.296875 -7.34375 3.296875 -7.375 C 3.296875 -7.453125 3.265625 -7.484375 3.203125 -7.484375 C 3.09375 -7.484375 2.203125 -6.796875 1.609375 -5.53125 C 1.109375 -4.4375 0.984375 -3.328125 0.984375 -2.5 C 0.984375 -1.71875 1.09375 -0.515625 1.640625 0.625 C 2.25 1.84375 3.09375 2.5 3.203125 2.5 C 3.265625 2.5 3.296875 2.46875 3.296875 2.390625 Z M 3.296875 2.390625 "
           id="path7826" />
      </symbol>
      <symbol
         overflow="visible"
         id="symbol1729">
        <path
           style="stroke:none;"
           d="M 2.875 -2.5 C 2.875 -3.265625 2.765625 -4.46875 2.21875 -5.609375 C 1.625 -6.828125 0.765625 -7.484375 0.671875 -7.484375 C 0.609375 -7.484375 0.5625 -7.4375 0.5625 -7.375 C 0.5625 -7.34375 0.5625 -7.328125 0.75 -7.140625 C 1.734375 -6.15625 2.296875 -4.578125 2.296875 -2.5 C 2.296875 -0.78125 1.9375 0.96875 0.703125 2.21875 C 0.5625 2.34375 0.5625 2.359375 0.5625 2.390625 C 0.5625 2.453125 0.609375 2.5 0.671875 2.5 C 0.765625 2.5 1.671875 1.8125 2.25 0.546875 C 2.765625 -0.546875 2.875 -1.65625 2.875 -2.5 Z M 2.875 -2.5 "
           id="path6317" />
      </symbol>
      <symbol
         overflow="visible"
         id="symbol6148">
        <path
           style="stroke:none;"
           d="M 6.84375 -3.265625 C 7 -3.265625 7.1875 -3.265625 7.1875 -3.453125 C 7.1875 -3.65625 7 -3.65625 6.859375 -3.65625 L 0.890625 -3.65625 C 0.75 -3.65625 0.5625 -3.65625 0.5625 -3.453125 C 0.5625 -3.265625 0.75 -3.265625 0.890625 -3.265625 Z M 6.859375 -1.328125 C 7 -1.328125 7.1875 -1.328125 7.1875 -1.53125 C 7.1875 -1.71875 7 -1.71875 6.84375 -1.71875 L 0.890625 -1.71875 C 0.75 -1.71875 0.5625 -1.71875 0.5625 -1.53125 C 0.5625 -1.328125 0.75 -1.328125 0.890625 -1.328125 Z M 6.859375 -1.328125 "
           id="path1336" />
      </symbol>
      <symbol
         overflow="visible"
         id="symbol4433">
        <path
           style="stroke:none;"
           d="M 1.265625 -0.765625 L 2.328125 -1.796875 C 3.875 -3.171875 4.46875 -3.703125 4.46875 -4.703125 C 4.46875 -5.84375 3.578125 -6.640625 2.359375 -6.640625 C 1.234375 -6.640625 0.5 -5.71875 0.5 -4.828125 C 0.5 -4.28125 1 -4.28125 1.03125 -4.28125 C 1.203125 -4.28125 1.546875 -4.390625 1.546875 -4.8125 C 1.546875 -5.0625 1.359375 -5.328125 1.015625 -5.328125 C 0.9375 -5.328125 0.921875 -5.328125 0.890625 -5.3125 C 1.109375 -5.96875 1.65625 -6.328125 2.234375 -6.328125 C 3.140625 -6.328125 3.5625 -5.515625 3.5625 -4.703125 C 3.5625 -3.90625 3.078125 -3.125 2.515625 -2.5 L 0.609375 -0.375 C 0.5 -0.265625 0.5 -0.234375 0.5 0 L 4.203125 0 L 4.46875 -1.734375 L 4.234375 -1.734375 C 4.171875 -1.4375 4.109375 -1 4 -0.84375 C 3.9375 -0.765625 3.28125 -0.765625 3.0625 -0.765625 Z M 1.265625 -0.765625 "
           id="path6157" />
      </symbol>
    </g>
    <g
       id="g8894">
      <symbol
         overflow="visible"
         id="symbol2834">
        <path
           style="stroke:none;"
           d=""
           id="path504" />
      </symbol>
      <symbol
         overflow="visible"
         id="symbol9105">
        <path
           style="stroke:none;"
           d="M 4.828125 -4.09375 L 4 -6.078125 C 3.96875 -6.15625 3.953125 -6.203125 3.953125 -6.203125 C 3.953125 -6.265625 4.109375 -6.453125 4.53125 -6.5 C 4.640625 -6.515625 4.734375 -6.515625 4.734375 -6.6875 C 4.734375 -6.8125 4.609375 -6.8125 4.578125 -6.8125 C 4.171875 -6.8125 3.75 -6.78125 3.328125 -6.78125 C 3.078125 -6.78125 2.46875 -6.8125 2.21875 -6.8125 C 2.15625 -6.8125 2.03125 -6.8125 2.03125 -6.609375 C 2.03125 -6.5 2.140625 -6.5 2.265625 -6.5 C 2.859375 -6.5 2.921875 -6.40625 3.015625 -6.1875 L 4.1875 -3.40625 L 2.078125 -1.140625 L 1.953125 -1.03125 C 1.46875 -0.5 1 -0.34375 0.484375 -0.3125 C 0.359375 -0.296875 0.265625 -0.296875 0.265625 -0.109375 C 0.265625 -0.09375 0.265625 0 0.40625 0 C 0.703125 0 1.03125 -0.03125 1.328125 -0.03125 C 1.703125 -0.03125 2.09375 0 2.453125 0 C 2.515625 0 2.625 0 2.625 -0.203125 C 2.625 -0.296875 2.53125 -0.3125 2.515625 -0.3125 C 2.421875 -0.3125 2.109375 -0.34375 2.109375 -0.625 C 2.109375 -0.78125 2.265625 -0.9375 2.375 -1.0625 L 3.40625 -2.140625 L 4.296875 -3.125 L 5.296875 -0.734375 C 5.34375 -0.625 5.359375 -0.625 5.359375 -0.59375 C 5.359375 -0.515625 5.15625 -0.34375 4.78125 -0.3125 C 4.671875 -0.296875 4.578125 -0.296875 4.578125 -0.125 C 4.578125 0 4.6875 0 4.71875 0 C 5 0 5.703125 -0.03125 5.984375 -0.03125 C 6.234375 -0.03125 6.84375 0 7.09375 0 C 7.15625 0 7.28125 0 7.28125 -0.1875 C 7.28125 -0.3125 7.171875 -0.3125 7.09375 -0.3125 C 6.4375 -0.3125 6.40625 -0.34375 6.234375 -0.75 C 5.859375 -1.671875 5.1875 -3.234375 4.953125 -3.828125 C 5.625 -4.53125 6.671875 -5.71875 7 -5.984375 C 7.28125 -6.234375 7.671875 -6.46875 8.265625 -6.5 C 8.390625 -6.515625 8.484375 -6.515625 8.484375 -6.703125 C 8.484375 -6.703125 8.484375 -6.8125 8.359375 -6.8125 C 8.0625 -6.8125 7.71875 -6.78125 7.421875 -6.78125 C 7.046875 -6.78125 6.671875 -6.8125 6.3125 -6.8125 C 6.25 -6.8125 6.125 -6.8125 6.125 -6.609375 C 6.125 -6.546875 6.171875 -6.515625 6.234375 -6.5 C 6.328125 -6.484375 6.640625 -6.46875 6.640625 -6.1875 C 6.640625 -6.046875 6.53125 -5.921875 6.453125 -5.828125 Z M 4.828125 -4.09375 "
           id="path9475" />
      </symbol>
      <symbol
         overflow="visible"
         id="symbol3901">
        <path
           style="stroke:none;"
           d="M 7.578125 -6.921875 C 7.578125 -6.953125 7.5625 -7.03125 7.46875 -7.03125 C 7.4375 -7.03125 7.421875 -7.015625 7.3125 -6.90625 L 6.625 -6.140625 C 6.53125 -6.28125 6.078125 -7.03125 4.96875 -7.03125 C 2.734375 -7.03125 0.5 -4.828125 0.5 -2.515625 C 0.5 -0.875 1.671875 0.21875 3.203125 0.21875 C 4.0625 0.21875 4.828125 -0.171875 5.359375 -0.640625 C 6.28125 -1.453125 6.453125 -2.359375 6.453125 -2.390625 C 6.453125 -2.5 6.34375 -2.5 6.328125 -2.5 C 6.265625 -2.5 6.21875 -2.46875 6.203125 -2.390625 C 6.109375 -2.109375 5.875 -1.390625 5.1875 -0.8125 C 4.5 -0.265625 3.875 -0.09375 3.359375 -0.09375 C 2.46875 -0.09375 1.40625 -0.609375 1.40625 -2.15625 C 1.40625 -2.734375 1.609375 -4.34375 2.609375 -5.515625 C 3.21875 -6.21875 4.15625 -6.71875 5.046875 -6.71875 C 6.0625 -6.71875 6.65625 -5.953125 6.65625 -4.796875 C 6.65625 -4.390625 6.625 -4.390625 6.625 -4.28125 C 6.625 -4.1875 6.734375 -4.1875 6.765625 -4.1875 C 6.890625 -4.1875 6.890625 -4.203125 6.953125 -4.390625 Z M 7.578125 -6.921875 "
           id="path7341" />
      </symbol>
      <symbol
         overflow="visible"
         id="symbol7501">
        <path
           style="stroke:none;"
           d=""
           id="path8198" />
      </symbol>
      <symbol
         overflow="visible"
         id="symbol8823">
        <path
           style="stroke:none;"
           d="M 3.296875 2.390625 C 3.296875 2.359375 3.296875 2.34375 3.125 2.171875 C 1.890625 0.921875 1.5625 -0.96875 1.5625 -2.5 C 1.5625 -4.234375 1.9375 -5.96875 3.171875 -7.203125 C 3.296875 -7.328125 3.296875 -7.34375 3.296875 -7.375 C 3.296875 -7.453125 3.265625 -7.484375 3.203125 -7.484375 C 3.09375 -7.484375 2.203125 -6.796875 1.609375 -5.53125 C 1.109375 -4.4375 0.984375 -3.328125 0.984375 -2.5 C 0.984375 -1.71875 1.09375 -0.515625 1.640625 0.625 C 2.25 1.84375 3.09375 2.5 3.203125 2.5 C 3.265625 2.5 3.296875 2.46875 3.296875 2.390625 Z M 3.296875 2.390625 "
           id="path8684" />
      </symbol>
      <symbol
         overflow="visible"
         id="symbol4290">
        <path
           style="stroke:none;"
           d="M 2.875 -2.5 C 2.875 -3.265625 2.765625 -4.46875 2.21875 -5.609375 C 1.625 -6.828125 0.765625 -7.484375 0.671875 -7.484375 C 0.609375 -7.484375 0.5625 -7.4375 0.5625 -7.375 C 0.5625 -7.34375 0.5625 -7.328125 0.75 -7.140625 C 1.734375 -6.15625 2.296875 -4.578125 2.296875 -2.5 C 2.296875 -0.78125 1.9375 0.96875 0.703125 2.21875 C 0.5625 2.34375 0.5625 2.359375 0.5625 2.390625 C 0.5625 2.453125 0.609375 2.5 0.671875 2.5 C 0.765625 2.5 1.671875 1.8125 2.25 0.546875 C 2.765625 -0.546875 2.875 -1.65625 2.875 -2.5 Z M 2.875 -2.5 "
           id="path2723" />
      </symbol>
    </g>
  </defs>
  <g
     inkscape:label="Layer 1"
     inkscape:groupmode="layer"
     id="layer1"
     transform="translate(-1.96923, -82.167)">
    <path
       style="fill:none;stroke:#000000;stroke-width:1;stroke-linecap:butt;stroke-linejoin:miter;stroke-miterlimit:4;stroke-dasharray:none;stroke-dashoffset:0;stroke-opacity:1"
       d="M 92.417076,82.166991 V 156.04132"
       id="path30137"
       inkscape:path-effect="#path-effect30139"
       inkscape:original-d="m 92.417076,82.166991 c 2.65e-4,24.625199 2.65e-4,49.249979 0,73.874329" />
    <path
       style="fill:none;stroke:#000000;stroke-width:1;stroke-linecap:butt;stroke-linejoin:miter;stroke-miterlimit:4;stroke-dasharray:none;stroke-dashoffset:0;stroke-opacity:1"
       d="m 202.82844,143.15762 v 73.87433"
       id="path30137-7"
       inkscape:path-effect="#path-effect33532"
       inkscape:original-d="m 202.82844,143.15762 c 2.6e-4,24.6252 2.6e-4,49.24998 0,73.87433"
       inkscape:export-filename="/home/kirito/storage/IPhD-Project-II/figures/wind_num.png"
       inkscape:export-xdpi="96"
       inkscape:export-ydpi="96" />
    <path
       style="fill:none;stroke:#000000;stroke-width:1;stroke-linecap:butt;stroke-linejoin:miter;stroke-miterlimit:4;stroke-dasharray:none;stroke-dashoffset:0;stroke-opacity:1"
       d="M 249.73718,180.09478 H 155.91969"
       id="path30137-5"
       inkscape:path-effect="#path-effect33551"
       inkscape:original-d="m 249.73718,180.09478 c -31.27304,-2.7e-4 -62.54552,-2.7e-4 -93.81749,0"
       inkscape:export-filename="/home/kirito/storage/IPhD-Project-II/figures/wind_num.png"
       inkscape:export-xdpi="96"
       inkscape:export-ydpi="96" />
    <path
       style="fill:none;stroke:#000000;stroke-width:1;stroke-linecap:butt;stroke-linejoin:miter;stroke-miterlimit:4;stroke-dasharray:none;stroke-dashoffset:0;stroke-opacity:1"
       d="M 126.54488,119.10415 H 1.9692263"
       id="path30141"
       inkscape:path-effect="#path-effect30143"
       inkscape:original-d="m 126.54488,119.10415 c -41.524797,2.7e-4 -83.050015,2.7e-4 -124.5756537,0" />
    <g
       inkscape:label=""
       transform="translate(17.145737,46.196705)"
       id="g30489">
      <g
         id="g7677">
        <g
           style="fill:#000000;fill-opacity:1"
           id="g8022">
          <use
             xlink:href="#symbol4874"
             x="91.925003"
             y="81.962997"
             id="use1407"
             width="100%"
             height="100%" />
        </g>
      </g>
    </g>
    <path
       style="fill:none;stroke:#2c00ff;stroke-width:1.5;stroke-linejoin:round;stroke-miterlimit:4;stroke-dasharray:none;stroke-opacity:1;paint-order:fill markers stroke"
       id="path30542"
       sodipodi:type="arc"
       sodipodi:cx="92.417076"
       sodipodi:cy="119.10416"
       sodipodi:rx="9.5154324"
       sodipodi:ry="9.5154324"
       sodipodi:start="0"
       sodipodi:end="6.2737954"
       sodipodi:open="true"
       sodipodi:arc-type="chord"
       d="m 101.93251,119.10416 a 9.5154324,9.5154324 0 0 1 -9.493097,9.5154 9.5154324,9.5154324 0 0 1 -9.537664,-9.47073 9.5154324,9.5154324 0 0 1 9.448316,-9.55987 9.5154324,9.5154324 0 0 1 9.582025,9.42585 z" />
    <g
       id="g33058"
       transform="translate(-5.2916667)">
      <path
         style="fill:none;stroke:#0f7c00;stroke-width:1.5;stroke-linejoin:round;stroke-miterlimit:4;stroke-dasharray:none;stroke-opacity:1;paint-order:fill markers stroke"
         id="path30542-9"
         sodipodi:type="arc"
         sodipodi:cx="-119.10416"
         sodipodi:cy="71.25042"
         sodipodi:rx="9.5154324"
         sodipodi:ry="9.5154324"
         sodipodi:start="0"
         sodipodi:end="3.1415927"
         sodipodi:arc-type="arc"
         d="m -109.58872,71.25042 a 9.5154324,9.5154324 0 0 1 -4.75772,8.240606 9.5154324,9.5154324 0 0 1 -9.51543,0 9.5154324,9.5154324 0 0 1 -4.75772,-8.240606"
         sodipodi:open="true"
         transform="rotate(-90)" />
      <path
         style="fill:none;stroke:#0f7c00;stroke-width:1.5;stroke-linecap:butt;stroke-linejoin:miter;stroke-miterlimit:4;stroke-dasharray:none;stroke-opacity:1"
         d="m 12.511021,109.61504 h 9.076154 25.678722 24.177794"
         id="path30657"
         inkscape:path-effect="#path-effect30659"
         inkscape:original-d="m 12.511021,109.61504 c 3.025649,2.7e-4 6.051034,2.7e-4 9.076154,0 3.025121,-2.6e-4 17.119411,2.7e-4 25.678722,0 8.559307,-2.6e-4 16.118795,2.7e-4 24.177794,0" />
      <path
         style="fill:none;stroke:#0f7c00;stroke-width:1.5;stroke-linecap:butt;stroke-linejoin:miter;stroke-miterlimit:4;stroke-dasharray:none;stroke-opacity:1"
         d="m 12.511021,128.66504 h 9.076154 25.678722 24.177794"
         id="path30657-0"
         inkscape:path-effect="#path-effect31000"
         inkscape:original-d="m 12.511021,128.66504 c 3.025649,2.7e-4 6.051034,2.7e-4 9.076154,0 3.025121,-2.6e-4 17.119411,2.7e-4 25.678722,0 8.559307,-2.6e-4 16.118795,2.7e-4 24.177794,0" />
    </g>
    <g
       inkscape:label=""
       transform="translate(7.2441333,25.496321)"
       id="g33124">
      <g
         id="g303">
        <g
           style="fill:#000000;fill-opacity:1"
           id="g2258">
          <use
             xlink:href="#symbol4206"
             x="91.925003"
             y="81.962997"
             id="use6712"
             width="100%"
             height="100%" />
        </g>
        <g
           style="fill:#000000;fill-opacity:1"
           id="g2706">
          <use
             xlink:href="#symbol6621"
             x="97.083"
             y="83.457001"
             id="use962"
             width="100%"
             height="100%" />
        </g>
      </g>
    </g>
    <g
       inkscape:label=""
       transform="translate(-39.509178,21.845441)"
       id="g33267">
      <g
         id="g616">
        <g
           style="fill:#000000;fill-opacity:1"
           id="g4858">
          <use
             xlink:href="#symbol6449"
             x="91.925003"
             y="81.962997"
             id="use9565"
             width="100%"
             height="100%" />
        </g>
        <g
           style="fill:#000000;fill-opacity:1"
           id="g3860">
          <use
             xlink:href="#symbol2799"
             x="97.083"
             y="83.457001"
             id="use2067"
             width="100%"
             height="100%" />
        </g>
      </g>
    </g>
    <path
       style="fill:none;stroke:#ff0000;stroke-width:1.5;stroke-linecap:butt;stroke-linejoin:miter;stroke-opacity:1;stroke-miterlimit:4;stroke-dasharray:none"
       d="m 188.87857,179.86018 c -0.46862,-3.02779 -0.3869,-6.18478 0.61736,-9.07936 1.37208,-3.95477 4.47567,-7.24442 8.28486,-8.9802 3.80919,-1.73579 8.26695,-1.93131 12.26119,-0.67875 3.99424,1.25256 7.50549,3.91616 9.91483,7.33931 2.40933,3.42315 3.72584,7.57782 3.88279,11.76091 0.21798,5.80954 -1.83026,11.68172 -5.6449,16.06884 -3.81465,4.38712 -9.3615,7.23531 -15.1533,7.73867 -6.43886,0.55959 -13.04693,-1.80342 -17.77468,-6.21028 -4.72776,-4.40686 -7.5373,-10.767 -7.76309,-17.22619 -0.27575,-7.88847 3.31942,-15.78 9.32041,-20.90758 6.00098,-5.12759 14.25707,-7.44657 22.08077,-6.40077 6.42965,0.85946 12.58942,3.97211 16.85878,8.85593 4.26935,4.88383 6.54376,11.53643 5.845,17.98553 -0.70116,6.47124 -4.44019,12.56754 -9.94208,16.04573 -5.50189,3.4782 -12.6604,4.23281 -18.73318,1.88975 -3.74532,-1.44506 -7.03772,-4.00043 -9.46032,-7.20146 -2.42261,-3.20103 -3.98043,-7.03289 -4.59444,-11.00008 z"
       id="path33587"
       inkscape:path-effect="#path-effect33589"
       inkscape:original-d="m 188.87857,179.86018 c -4.68519,-6.06745 0.41183,-6.05264 0.61736,-9.07936 0.20552,-3.02672 22.89604,6.29445 34.34367,9.44127 11.44762,3.14683 -13.8652,15.87194 -20.7982,23.80751 -6.933,7.93557 -17.02491,-15.62405 -25.53777,-23.43647 -8.51285,-7.81242 20.93438,-18.2053 31.40118,-27.30835 10.46679,-9.10304 15.13612,17.89457 22.70378,26.84146 7.56766,8.94689 -19.11657,11.95725 -28.67526,17.93548 -9.55868,5.97823 -9.36958,-12.1341 -14.05476,-18.20154 z"
       inkscape:export-filename="/home/kirito/storage/IPhD-Project-II/figures/wind_num.png"
       inkscape:export-xdpi="96"
       inkscape:export-ydpi="96" />
    <g
       inkscape:label=""
       transform="translate(48.022179,92.3836)"
       id="g34265"
       inkscape:export-filename="/home/kirito/storage/IPhD-Project-II/figures/wind_num.png"
       inkscape:export-xdpi="96"
       inkscape:export-ydpi="96">
      <g
         id="g1731">
        <g
           style="fill:#000000;fill-opacity:1"
           id="g1832">
          <use
             xlink:href="#symbol883"
             x="91.925003"
             y="81.962997"
             id="use7992"
             width="100%"
             height="100%" />
          <use
             xlink:href="#symbol5949"
             x="95.827347"
             y="81.962997"
             id="use623"
             width="100%"
             height="100%" />
          <use
             xlink:href="#symbol4712"
             x="100.25473"
             y="81.962997"
             id="use5703"
             width="100%"
             height="100%" />
          <use
             xlink:href="#symbol4415"
             x="105.23603"
             y="81.962997"
             id="use6293"
             width="100%"
             height="100%" />
          <use
             xlink:href="#symbol8404"
             x="108.00364"
             y="81.962997"
             id="use9397"
             width="100%"
             height="100%" />
        </g>
        <g
           style="fill:#000000;fill-opacity:1"
           id="g8907">
          <use
             xlink:href="#symbol2113"
             x="111.878"
             y="81.962997"
             id="use2254"
             width="100%"
             height="100%" />
        </g>
        <g
           style="fill:#000000;fill-opacity:1"
           id="g4840">
          <use
             xlink:href="#symbol8070"
             x="120.914"
             y="81.962997"
             id="use8449"
             width="100%"
             height="100%" />
        </g>
      </g>
    </g>
    <g
       inkscape:label=""
       transform="translate(92.330878,58.395143)"
       id="g34578"
       inkscape:export-filename="/home/kirito/storage/IPhD-Project-II/figures/wind_num.png"
       inkscape:export-xdpi="96"
       inkscape:export-ydpi="96">
      <g
         id="g1646">
        <g
           style="fill:#000000;fill-opacity:1"
           id="g5006">
          <use
             xlink:href="#symbol7273"
             x="91.925003"
             y="81.962997"
             id="use4902"
             width="100%"
             height="100%" />
          <use
             xlink:href="#symbol7469"
             x="94.692612"
             y="81.962997"
             id="use4204"
             width="100%"
             height="100%" />
          <use
             xlink:href="#symbol6626"
             x="102.99445"
             y="81.962997"
             id="use5056"
             width="100%"
             height="100%" />
          <use
             xlink:href="#symbol9134"
             x="107.97575"
             y="81.962997"
             id="use1579"
             width="100%"
             height="100%" />
          <use
             xlink:href="#symbol9821"
             x="112.95705"
             y="81.962997"
             id="use6792"
             width="100%"
             height="100%" />
        </g>
        <g
           style="fill:#000000;fill-opacity:1"
           id="g7377">
          <use
             xlink:href="#symbol4803"
             x="116.832"
             y="81.962997"
             id="use4455"
             width="100%"
             height="100%" />
        </g>
        <g
           style="fill:#000000;fill-opacity:1"
           id="g1420">
          <use
             xlink:href="#symbol6739"
             x="125.867"
             y="81.962997"
             id="use7637"
             width="100%"
             height="100%" />
        </g>
      </g>
    </g>
    <g
       inkscape:label=""
       transform="translate(162.08386,100.17676)"
       id="g35420"
       inkscape:export-filename="/home/kirito/storage/IPhD-Project-II/figures/wind_num.png"
       inkscape:export-xdpi="96"
       inkscape:export-ydpi="96">
      <g
         id="g1707">
        <g
           style="fill:#000000;fill-opacity:1"
           id="g7277">
          <use
             xlink:href="#symbol6609"
             x="91.925003"
             y="81.962997"
             id="use4762"
             width="100%"
             height="100%" />
        </g>
        <g
           style="fill:#000000;fill-opacity:1"
           id="g7770">
          <use
             xlink:href="#symbol3992"
             x="98.320999"
             y="83.457001"
             id="use6723"
             width="100%"
             height="100%" />
        </g>
        <g
           style="fill:#000000;fill-opacity:1"
           id="g3540">
          <use
             xlink:href="#symbol7465"
             x="105.895"
             y="81.962997"
             id="use5003"
             width="100%"
             height="100%" />
        </g>
        <g
           style="fill:#000000;fill-opacity:1"
           id="g4820">
          <use
             xlink:href="#symbol4305"
             x="109.769"
             y="81.962997"
             id="use9608"
             width="100%"
             height="100%" />
        </g>
        <g
           style="fill:#000000;fill-opacity:1"
           id="g1941">
          <use
             xlink:href="#symbol1729"
             x="117.603"
             y="81.962997"
             id="use1585"
             width="100%"
             height="100%" />
        </g>
        <g
           style="fill:#000000;fill-opacity:1"
           id="g6724">
          <use
             xlink:href="#symbol6148"
             x="124.24706"
             y="81.962997"
             id="use6013"
             width="100%"
             height="100%" />
        </g>
        <g
           style="fill:#000000;fill-opacity:1"
           id="g8347">
          <use
             xlink:href="#symbol4433"
             x="134.75562"
             y="81.962997"
             id="use7552"
             width="100%"
             height="100%" />
        </g>
      </g>
    </g>
    <g
       inkscape:label=""
       transform="translate(133.92354,74.669484)"
       id="g1599"
       inkscape:export-filename="/home/kirito/storage/IPhD-Project-II/figures/wind_num.png"
       inkscape:export-xdpi="96"
       inkscape:export-ydpi="96">
      <g
         id="g368">
        <g
           style="fill:#000000;fill-opacity:1"
           id="g22">
          <use
             xlink:href="#symbol9105"
             x="91.925003"
             y="81.962997"
             id="use2974"
             width="100%"
             height="100%" />
        </g>
        <g
           style="fill:#000000;fill-opacity:1"
           id="g7929">
          <use
             xlink:href="#symbol8823"
             x="100.961"
             y="81.962997"
             id="use7287"
             width="100%"
             height="100%" />
        </g>
        <g
           style="fill:#000000;fill-opacity:1"
           id="g9592">
          <use
             xlink:href="#symbol3901"
             x="104.835"
             y="81.962997"
             id="use2297"
             width="100%"
             height="100%" />
        </g>
        <g
           style="fill:#000000;fill-opacity:1"
           id="g9051">
          <use
             xlink:href="#symbol4290"
             x="112.668"
             y="81.962997"
             id="use8728"
             width="100%"
             height="100%" />
        </g>
      </g>
    </g>
  </g>
</svg>
