<?xml version="1.0" encoding="UTF-8" standalone="no"?>
<svg
   version="1.1"
   id="Layer_2"
   x="0px"
   y="0px"
   viewBox="0 0 85.358681 113.68152"
   xml:space="preserve"
   sodipodi:docname="jncasr_logo.svg"
   width="85.358681"
   height="113.68153"
   inkscape:version="1.1.1 (3bf5ae0d25, 2021-09-20, custom)"
   xmlns:inkscape="http://www.inkscape.org/namespaces/inkscape"
   xmlns:sodipodi="http://sodipodi.sourceforge.net/DTD/sodipodi-0.dtd"
   xmlns="http://www.w3.org/2000/svg"
   xmlns:svg="http://www.w3.org/2000/svg"
   xmlns:rdf="http://www.w3.org/1999/02/22-rdf-syntax-ns#"
   xmlns:cc="http://creativecommons.org/ns#"
   xmlns:dc="http://purl.org/dc/elements/1.1/"><metadata
   id="metadata806"><rdf:RDF><cc:Work
       rdf:about=""><dc:format>image/svg+xml</dc:format><dc:type
         rdf:resource="http://purl.org/dc/dcmitype/StillImage" /></cc:Work></rdf:RDF></metadata><defs
   id="defs804" /><sodipodi:namedview
   pagecolor="#ffffff"
   bordercolor="#666666"
   borderopacity="1"
   objecttolerance="10"
   gridtolerance="10"
   guidetolerance="10"
   inkscape:pageopacity="0"
   inkscape:pageshadow="2"
   inkscape:window-width="1916"
   inkscape:window-height="1051"
   id="namedview802"
   showgrid="false"
   inkscape:zoom="1.9702784"
   inkscape:cx="-16.748902"
   inkscape:cy="55.575902"
   inkscape:window-x="0"
   inkscape:window-y="25"
   inkscape:window-maximized="1"
   inkscape:current-layer="Layer_2"
   inkscape:document-rotation="0"
   units="px"
   width="1024mm"
   lock-margins="true"
   inkscape:pagecheckerboard="0" />
<style
   type="text/css"
   id="style2">
	.st0{fill:#002F43;}
	.st1{fill:#002F43;stroke:#002F43;stroke-width:0.8952;stroke-miterlimit:10;}
	.st2{fill:#606060;stroke:#606060;stroke-width:0.5753;stroke-miterlimit:10;}
	.st3{fill:#606060;}
	.st4{fill:url(#SVGID_1_);stroke:#231F20;stroke-width:1.3424;stroke-miterlimit:10;}
	.st5{fill:url(#SVGID_2_);stroke:#231F20;stroke-width:1.3424;stroke-miterlimit:10;}
	.st6{fill:url(#SVGID_3_);stroke:#231F20;stroke-width:1.3424;stroke-miterlimit:10;}
	.st7{fill:url(#SVGID_4_);stroke:#231F20;stroke-width:1.3424;stroke-miterlimit:10;}
	.st8{fill:url(#SVGID_5_);stroke:#231F20;stroke-width:1.3424;stroke-miterlimit:10;}
	.st9{fill:url(#SVGID_6_);stroke:#231F20;stroke-width:1.3424;stroke-miterlimit:10;}
	.st10{fill:url(#SVGID_7_);stroke:#231F20;stroke-width:1.3424;stroke-miterlimit:10;}
	.st11{fill:url(#SVGID_8_);}
	.st12{fill:url(#SVGID_9_);stroke:#231F20;stroke-width:1.3424;stroke-miterlimit:10;}
	.st13{fill:none;stroke:#231F20;stroke-width:3.0705;stroke-linecap:round;stroke-linejoin:round;stroke-miterlimit:10;}
	.st14{fill:#005494;}
</style>




<g
   id="g799"
   transform="matrix(0.26008129,0,0,0.26008129,-3.4850893,-54.409006)">
	<g
   id="g781">
		<linearGradient
   id="SVGID_1_"
   gradientUnits="userSpaceOnUse"
   x1="118.3985"
   y1="573.35327"
   x2="240.3042"
   y2="573.35327">
			<stop
   offset="0"
   style="stop-color:#6F6452"
   id="stop546" />
			<stop
   offset="3.007522e-02"
   style="stop-color:#807666"
   id="stop548" />
			<stop
   offset="8.709484e-02"
   style="stop-color:#9B9487"
   id="stop550" />
			<stop
   offset="0.1418"
   style="stop-color:#AFA99F"
   id="stop552" />
			<stop
   offset="0.1927"
   style="stop-color:#BBB6AD"
   id="stop554" />
			<stop
   offset="0.236"
   style="stop-color:#BFBAB2"
   id="stop556" />
			<stop
   offset="0.278"
   style="stop-color:#C2BDB5"
   id="stop558" />
			<stop
   offset="0.3117"
   style="stop-color:#CBC7BF"
   id="stop560" />
			<stop
   offset="0.3425"
   style="stop-color:#DBD8D0"
   id="stop562" />
			<stop
   offset="0.3708"
   style="stop-color:#F1EFE7"
   id="stop564" />
			<stop
   offset="0.5618"
   style="stop-color:#CFD0C6"
   id="stop566" />
			<stop
   offset="0.9888"
   style="stop-color:#F1EFE7"
   id="stop568" />
		</linearGradient>
		<path
   class="st4"
   d="M 240.1,582.3 H 118.6 c -0.1,0 -0.2,-0.1 -0.2,-0.2 v -17.3 c 0,-0.1 0.1,-0.3 0.3,-0.3 h 121.4 c 0.1,0 0.2,0.1 0.2,0.2 V 582 c 0,0.1 -0.1,0.3 -0.2,0.3 z"
   id="path571"
   style="fill:url(#SVGID_1_)" />
		<linearGradient
   id="SVGID_2_"
   gradientUnits="userSpaceOnUse"
   x1="123.3651"
   y1="589.79218"
   x2="235.33749"
   y2="589.79218">
			<stop
   offset="0"
   style="stop-color:#6F6452"
   id="stop573" />
			<stop
   offset="3.007522e-02"
   style="stop-color:#807666"
   id="stop575" />
			<stop
   offset="8.709484e-02"
   style="stop-color:#9B9487"
   id="stop577" />
			<stop
   offset="0.1418"
   style="stop-color:#AFA99F"
   id="stop579" />
			<stop
   offset="0.1927"
   style="stop-color:#BBB6AD"
   id="stop581" />
			<stop
   offset="0.236"
   style="stop-color:#BFBAB2"
   id="stop583" />
			<stop
   offset="0.278"
   style="stop-color:#C2BDB5"
   id="stop585" />
			<stop
   offset="0.3117"
   style="stop-color:#CBC7BF"
   id="stop587" />
			<stop
   offset="0.3425"
   style="stop-color:#DBD8D0"
   id="stop589" />
			<stop
   offset="0.3708"
   style="stop-color:#F1EFE7"
   id="stop591" />
			<stop
   offset="0.5618"
   style="stop-color:#CFD0C6"
   id="stop593" />
			<stop
   offset="0.9888"
   style="stop-color:#F1EFE7"
   id="stop595" />
		</linearGradient>
		<path
   class="st5"
   d="M 235.1,597.4 H 123.6 c -0.1,0 -0.2,-0.1 -0.2,-0.2 v -14.7 c 0,-0.1 0.1,-0.2 0.2,-0.2 h 111.5 c 0.1,0 0.2,0.1 0.2,0.2 v 14.7 c 0,0.1 -0.1,0.2 -0.2,0.2 z"
   id="path598"
   style="fill:url(#SVGID_2_)" />
		<linearGradient
   id="SVGID_3_"
   gradientUnits="userSpaceOnUse"
   x1="152.67509"
   y1="328.9686"
   x2="230.80341"
   y2="328.9686">
			<stop
   offset="0"
   style="stop-color:#6F6452"
   id="stop600" />
			<stop
   offset="3.007522e-02"
   style="stop-color:#807666"
   id="stop602" />
			<stop
   offset="8.709484e-02"
   style="stop-color:#9B9487"
   id="stop604" />
			<stop
   offset="0.1418"
   style="stop-color:#AFA99F"
   id="stop606" />
			<stop
   offset="0.1927"
   style="stop-color:#BBB6AD"
   id="stop608" />
			<stop
   offset="0.236"
   style="stop-color:#BFBAB2"
   id="stop610" />
			<stop
   offset="0.3137"
   style="stop-color:#C2BDB5"
   id="stop612" />
			<stop
   offset="0.3761"
   style="stop-color:#CBC7BF"
   id="stop614" />
			<stop
   offset="0.433"
   style="stop-color:#DBD8D0"
   id="stop616" />
			<stop
   offset="0.4855"
   style="stop-color:#F1EFE7"
   id="stop618" />
			<stop
   offset="0.7537"
   style="stop-color:#CFD0C6"
   id="stop620" />
			<stop
   offset="0.9888"
   style="stop-color:#F1EFE7"
   id="stop622" />
		</linearGradient>
		<path
   class="st6"
   d="m 205.6,336.3 h -52.4 c -0.1,0 -0.2,-0.1 -0.2,-0.2 v -14.2 c 0,-0.1 0.1,-0.2 0.2,-0.2 h 52.4 c 0.1,0 0.2,0.1 0.2,0.2 v 14.2 c 0,0.1 -0.1,0.2 -0.2,0.2 z"
   id="path625"
   style="fill:url(#SVGID_3_)" />
		<linearGradient
   id="SVGID_4_"
   gradientUnits="userSpaceOnUse"
   x1="158.0936"
   y1="317.3187"
   x2="232.5645"
   y2="317.3187">
			<stop
   offset="0"
   style="stop-color:#6F6452"
   id="stop627" />
			<stop
   offset="3.007522e-02"
   style="stop-color:#807666"
   id="stop629" />
			<stop
   offset="8.709484e-02"
   style="stop-color:#9B9487"
   id="stop631" />
			<stop
   offset="0.1418"
   style="stop-color:#AFA99F"
   id="stop633" />
			<stop
   offset="0.1927"
   style="stop-color:#BBB6AD"
   id="stop635" />
			<stop
   offset="0.236"
   style="stop-color:#BFBAB2"
   id="stop637" />
			<stop
   offset="0.278"
   style="stop-color:#C2BDB5"
   id="stop639" />
			<stop
   offset="0.3117"
   style="stop-color:#CBC7BF"
   id="stop641" />
			<stop
   offset="0.3425"
   style="stop-color:#DBD8D0"
   id="stop643" />
			<stop
   offset="0.3708"
   style="stop-color:#F1EFE7"
   id="stop645" />
			<stop
   offset="0.5618"
   style="stop-color:#CFD0C6"
   id="stop647" />
			<stop
   offset="0.9888"
   style="stop-color:#F1EFE7"
   id="stop649" />
		</linearGradient>
		<path
   class="st7"
   d="m 201.3,321.7 h -43.9 c -0.1,0 -0.1,0 -0.1,-0.1 v -8.4 c 0,-0.1 0,-0.1 0.1,-0.1 h 43.9 c 0.1,0 0.1,0 0.1,0.1 v 8.4 c 0,0 0,0.1 -0.1,0.1 z"
   id="path652"
   style="fill:url(#SVGID_4_)" />
		<linearGradient
   id="SVGID_5_"
   gradientUnits="userSpaceOnUse"
   x1="149.0627"
   y1="303.13461"
   x2="232.17551"
   y2="303.13461">
			<stop
   offset="0"
   style="stop-color:#6F6452"
   id="stop654" />
			<stop
   offset="3.007522e-02"
   style="stop-color:#807666"
   id="stop656" />
			<stop
   offset="8.709484e-02"
   style="stop-color:#9B9487"
   id="stop658" />
			<stop
   offset="0.1418"
   style="stop-color:#AFA99F"
   id="stop660" />
			<stop
   offset="0.1927"
   style="stop-color:#BBB6AD"
   id="stop662" />
			<stop
   offset="0.236"
   style="stop-color:#BFBAB2"
   id="stop664" />
			<stop
   offset="0.2843"
   style="stop-color:#C2BDB5"
   id="stop666" />
			<stop
   offset="0.3231"
   style="stop-color:#CBC7BF"
   id="stop668" />
			<stop
   offset="0.3585"
   style="stop-color:#DBD8D0"
   id="stop670" />
			<stop
   offset="0.3912"
   style="stop-color:#F1EFE7"
   id="stop672" />
			<stop
   offset="0.5618"
   style="stop-color:#CFD0C6"
   id="stop674" />
			<stop
   offset="0.9888"
   style="stop-color:#F1EFE7"
   id="stop676" />
		</linearGradient>
		<path
   class="st8"
   d="m 201.2,313 h -43.8 c -4.2,0 -8,-2.7 -9.3,-6.7 v 0 c -2.1,-6.4 -3.5,-12.9 3.2,-12.9 h 56 c 6.7,0 5.3,6.6 3.2,12.9 v 0 c -1.3,3.9 -5,6.7 -9.3,6.7 z"
   id="path679"
   style="fill:url(#SVGID_5_)" />
		<linearGradient
   id="SVGID_6_"
   gradientUnits="userSpaceOnUse"
   x1="150.5076"
   y1="287.2001"
   x2="257.44901"
   y2="287.2001">
			<stop
   offset="0"
   style="stop-color:#6F6452"
   id="stop681" />
			<stop
   offset="3.007522e-02"
   style="stop-color:#807666"
   id="stop683" />
			<stop
   offset="8.709484e-02"
   style="stop-color:#9B9487"
   id="stop685" />
			<stop
   offset="0.1418"
   style="stop-color:#AFA99F"
   id="stop687" />
			<stop
   offset="0.1927"
   style="stop-color:#BBB6AD"
   id="stop689" />
			<stop
   offset="0.236"
   style="stop-color:#BFBAB2"
   id="stop691" />
			<stop
   offset="0.278"
   style="stop-color:#C2BDB5"
   id="stop693" />
			<stop
   offset="0.3117"
   style="stop-color:#CBC7BF"
   id="stop695" />
			<stop
   offset="0.3425"
   style="stop-color:#DBD8D0"
   id="stop697" />
			<stop
   offset="0.3708"
   style="stop-color:#F1EFE7"
   id="stop699" />
			<stop
   offset="0.5618"
   style="stop-color:#CFD0C6"
   id="stop701" />
			<stop
   offset="0.9888"
   style="stop-color:#F1EFE7"
   id="stop703" />
		</linearGradient>
		<path
   class="st9"
   d="m 158.9,281.1 h 40.8 c 3.9,0 7.4,2.5 8.7,6.3 v 0 c 2,5.9 1,5.9 -3,5.9 h -52.2 c -3.4,0 -5,0.1 -3,-5.9 v 0 c 1.3,-3.7 4.8,-6.3 8.7,-6.3 z"
   id="path706"
   style="fill:url(#SVGID_6_)" />
		<linearGradient
   id="SVGID_7_"
   gradientUnits="userSpaceOnUse"
   x1="125.0137"
   y1="450.36691"
   x2="233.689"
   y2="450.36691">
			<stop
   offset="0"
   style="stop-color:#6F6452"
   id="stop708" />
			<stop
   offset="3.007522e-02"
   style="stop-color:#807666"
   id="stop710" />
			<stop
   offset="8.709484e-02"
   style="stop-color:#9B9487"
   id="stop712" />
			<stop
   offset="0.1418"
   style="stop-color:#AFA99F"
   id="stop714" />
			<stop
   offset="0.1927"
   style="stop-color:#BBB6AD"
   id="stop716" />
			<stop
   offset="0.236"
   style="stop-color:#BFBAB2"
   id="stop718" />
			<stop
   offset="0.278"
   style="stop-color:#C2BDB5"
   id="stop720" />
			<stop
   offset="0.3117"
   style="stop-color:#CBC7BF"
   id="stop722" />
			<stop
   offset="0.3425"
   style="stop-color:#DBD8D0"
   id="stop724" />
			<stop
   offset="0.3708"
   style="stop-color:#F1EFE7"
   id="stop726" />
			<stop
   offset="0.5618"
   style="stop-color:#CFD0C6"
   id="stop728" />
			<stop
   offset="0.9888"
   style="stop-color:#F1EFE7"
   id="stop730" />
		</linearGradient>
		<path
   class="st10"
   d="m 139.4,564.5 c -24.6,0 -10.1,-15.8 -10.1,-15.8 41.2,-45.5 31.8,-212.4 31.8,-212.4 h 36.7 c 0,0 -9.4,166.9 31.8,212.4 0,0 14.4,15.8 -10.1,15.8 z"
   id="path733"
   style="fill:url(#SVGID_7_)" />
		<radialGradient
   id="SVGID_8_"
   cx="177.6004"
   cy="279.35971"
   r="49.556702"
   gradientUnits="userSpaceOnUse">
			<stop
   offset="0"
   style="stop-color:#FFF13A"
   id="stop735" />
			<stop
   offset="4.010540e-02"
   style="stop-color:#FEE52D"
   id="stop737" />
			<stop
   offset="0.1171"
   style="stop-color:#FDD31A"
   id="stop739" />
			<stop
   offset="0.1964"
   style="stop-color:#FCC80F"
   id="stop741" />
			<stop
   offset="0.2809"
   style="stop-color:#FCC50B"
   id="stop743" />
			<stop
   offset="0.6685"
   style="stop-color:#F18E3F"
   id="stop745" />
			<stop
   offset="0.8876"
   style="stop-color:#EC693C"
   id="stop747" />
			<stop
   offset="1"
   style="stop-color:#E73E39"
   id="stop749" />
		</radialGradient>
		<path
   class="st11"
   d="m 192,224 c 0,0 0.8,6.3 -2.4,11.1 -2.4,3.8 -4.3,2.6 -4.6,1.5 -0.2,-21.6 -14.5,-27.4 -14.5,-27.4 0,0 0.4,10.1 -2.1,16.8 -3.4,9.1 -13.4,13.6 -14.3,27 -1.1,15.2 19.9,26.6 19.9,26.6 h 2.1 c -1.9,-1.3 -8.3,-6 -7.9,-12 0.4,-6.2 4.7,-8.3 6.1,-12.5 1.1,-3.1 0.9,-7.8 0.9,-7.8 0,0 6.1,2.7 6.1,12.7 0.1,0.5 0.9,1.1 1.9,-0.7 1.3,-2.3 1,-5.1 1,-5.1 0,0 3,3.6 2.5,11.9 -0.4,7.1 -4.8,12.2 -6.1,13.4 h 2 c 0,0 14.3,-11.8 15.2,-29.8 C 198.9,231.8 192,224 192,224 Z"
   id="path752"
   style="fill:url(#SVGID_8_)" />
		<linearGradient
   id="SVGID_9_"
   gradientUnits="userSpaceOnUse"
   x1="157.3712"
   y1="459.0365"
   x2="215.57069"
   y2="459.0365">
			<stop
   offset="0"
   style="stop-color:#6F6452"
   id="stop754" />
			<stop
   offset="3.007522e-02"
   style="stop-color:#807666"
   id="stop756" />
			<stop
   offset="8.709484e-02"
   style="stop-color:#9B9487"
   id="stop758" />
			<stop
   offset="0.1418"
   style="stop-color:#AFA99F"
   id="stop760" />
			<stop
   offset="0.1927"
   style="stop-color:#BBB6AD"
   id="stop762" />
			<stop
   offset="0.236"
   style="stop-color:#BFBAB2"
   id="stop764" />
			<stop
   offset="0.278"
   style="stop-color:#C2BDB5"
   id="stop766" />
			<stop
   offset="0.3117"
   style="stop-color:#CBC7BF"
   id="stop768" />
			<stop
   offset="0.3425"
   style="stop-color:#DBD8D0"
   id="stop770" />
			<stop
   offset="0.3708"
   style="stop-color:#F1EFE7"
   id="stop772" />
			<stop
   offset="0.5618"
   style="stop-color:#CFD0C6"
   id="stop774" />
			<stop
   offset="0.9888"
   style="stop-color:#F1EFE7"
   id="stop776" />
		</linearGradient>
		<path
   class="st12"
   d="m 200.6,564.5 c -18.1,-13.1 -13,-210.8 -13,-210.8 h -16.4 c 0,0 5.1,197.7 -13,210.8 z"
   id="path779"
   style="fill:url(#SVGID_9_)" />
	</g>
	<path
   class="st13"
   d="m 139.9,501.2 c -6.4,3.8 -13.9,0 -4,-7.4 0,0 106.5,-85.7 107.8,-92.7 0,0 -35.6,49.4 -57.1,-9 0,0 -4,16.3 -14.4,31.1 0,0 -25.7,32.4 9.3,-56.8 0,0 -9.7,24.1 -27,26.2 -6,0.7 -13,-1.3 -20.8,-7.9 -1.6,-1.4 -7.1,-7.6 -9,-11.6 -3.9,-8.1 -7.1,-21 9.1,-24.3 0,0 12,-2.2 17.6,16.9 3.3,11.4 8.9,28 6.7,55.5 -0.2,2.6 -1.4,10.3 -2.7,13.4 -3,7.4 -10,20 -22,21.6 -9.7,1.3 -18.8,-2.8 -18.1,-29.8"
   id="path783" />
	<g
   id="g797">
		<path
   class="st14"
   d="m 18.8,644.7 c -2.2,-1 -4,-2.4 -5.4,-4.2 l 5,-6 c 2.1,2.8 4.5,4.3 7.2,4.3 3.6,0 5.5,-2.1 5.5,-6.4 V 614 H 17.5 v -7.2 H 40 v 25.1 c 0,4.8 -1.2,8.3 -3.5,10.7 -2.4,2.4 -5.8,3.6 -10.4,3.6 -2.7,-0.1 -5.1,-0.6 -7.3,-1.5 z"
   id="path785" />
		<path
   class="st14"
   d="m 103.6,606.8 v 38.7 H 96.2 L 77,622 v 23.5 h -8.8 v -38.7 h 7.4 l 19.2,23.5 v -23.5 z"
   id="path787" />
		<path
   class="st14"
   d="m 140,643.6 c -3.2,-1.7 -5.7,-4.1 -7.5,-7.1 -1.8,-3 -2.7,-6.5 -2.7,-10.3 0,-3.8 0.9,-7.3 2.7,-10.3 1.8,-3 4.3,-5.4 7.5,-7.1 3.2,-1.7 6.8,-2.6 10.7,-2.6 3.4,0 6.4,0.6 9.1,1.8 2.7,1.2 5,2.9 6.8,5.1 l -5.7,5.3 c -2.6,-3 -5.9,-4.5 -9.7,-4.5 -2.4,0 -4.5,0.5 -6.4,1.6 -1.9,1.1 -3.3,2.5 -4.4,4.4 -1.1,1.9 -1.6,4 -1.6,6.4 0,2.4 0.5,4.5 1.6,6.4 1.1,1.9 2.5,3.3 4.4,4.4 1.9,1.1 4,1.6 6.4,1.6 3.9,0 7.1,-1.5 9.7,-4.6 l 5.7,5.3 c -1.8,2.2 -4.1,4 -6.9,5.1 -2.7,1.2 -5.8,1.8 -9.1,1.8 -3.9,-0.2 -7.5,-1 -10.6,-2.7 z"
   id="path789" />
		<path
   class="st14"
   d="m 216.7,637.2 h -18 l -3.4,8.3 h -9.2 l 17.2,-38.7 h 8.8 l 17.3,38.7 H 220 Z m -2.8,-6.8 -6.1,-14.8 -6.1,14.8 z"
   id="path791" />
		<path
   class="st14"
   d="m 256.7,644.9 c -2.9,-0.8 -5.1,-1.9 -6.9,-3.2 l 3,-6.7 c 1.7,1.2 3.6,2.2 5.9,2.9 2.3,0.7 4.6,1.1 6.9,1.1 2.5,0 4.4,-0.4 5.6,-1.1 1.2,-0.8 1.8,-1.8 1.8,-3 0,-0.9 -0.4,-1.7 -1.1,-2.3 -0.7,-0.6 -1.6,-1.1 -2.8,-1.5 -1.1,-0.4 -2.6,-0.8 -4.6,-1.2 -2.9,-0.7 -5.4,-1.4 -7.2,-2.1 -1.9,-0.7 -3.5,-1.8 -4.8,-3.4 -1.3,-1.5 -2,-3.6 -2,-6.2 0,-2.2 0.6,-4.3 1.8,-6.1 1.2,-1.8 3,-3.3 5.5,-4.3 2.5,-1.1 5.4,-1.6 9,-1.6 2.5,0 4.9,0.3 7.2,0.9 2.4,0.6 4.4,1.4 6.2,2.5 l -2.8,6.8 c -3.6,-2 -7.1,-3 -10.7,-3 -2.5,0 -4.4,0.4 -5.6,1.2 -1.2,0.8 -1.8,1.9 -1.8,3.2 0,1.3 0.7,2.3 2.1,3 1.4,0.6 3.5,1.3 6.3,1.9 2.9,0.7 5.4,1.4 7.2,2.1 1.9,0.7 3.5,1.8 4.8,3.3 1.3,1.5 2,3.6 2,6.1 0,2.2 -0.6,4.2 -1.9,6.1 -1.2,1.8 -3.1,3.3 -5.6,4.3 -2.5,1.1 -5.5,1.6 -9,1.6 -2.6,-0.1 -5.6,-0.5 -8.5,-1.3 z"
   id="path793" />
		<path
   class="st14"
   d="m 332.2,645.5 -7.5,-10.8 h -0.4 -7.8 v 10.8 h -9 v -38.7 h 16.7 c 3.4,0 6.4,0.6 8.9,1.7 2.5,1.1 4.5,2.8 5.8,4.9 1.4,2.1 2,4.6 2,7.5 0,2.9 -0.7,5.4 -2.1,7.4 -1.4,2.1 -3.3,3.7 -5.9,4.8 l 8.7,12.4 z m -2.3,-29.7 c -1.4,-1.2 -3.4,-1.7 -6.1,-1.7 h -7.3 v 13.5 h 7.3 c 2.7,0 4.7,-0.6 6.1,-1.8 1.4,-1.2 2.1,-2.8 2.1,-5 0,-2.1 -0.7,-3.8 -2.1,-5 z"
   id="path795" />
	</g>
</g>
<text
   xml:space="preserve"
   style="font-weight:600;font-size:40px;line-height:1.25;font-family:'Open Sans';-inkscape-font-specification:'Open Sans Semi-Bold'"
   x="433.55835"
   y="-461.64493"
   id="text1227"><tspan
     sodipodi:role="line"
     id="tspan1225"
     x="433.55835"
     y="-461.64493" /></text></svg>
