<?xml version="1.0" encoding="UTF-8" standalone="no"?>
<svg
   xmlns:dc="http://purl.org/dc/elements/1.1/"
   xmlns:cc="http://creativecommons.org/ns#"
   xmlns:rdf="http://www.w3.org/1999/02/22-rdf-syntax-ns#"
   xmlns:svg="http://www.w3.org/2000/svg"
   xmlns="http://www.w3.org/2000/svg"
   xmlns:xlink="http://www.w3.org/1999/xlink"
   xmlns:sodipodi="http://sodipodi.sourceforge.net/DTD/sodipodi-0.dtd"
   xmlns:inkscape="http://www.inkscape.org/namespaces/inkscape"
   width="186.84573mm"
   height="184.37692mm"
   viewBox="0 0 186.84573 184.37692"
   version="1.1"
   id="svg8"
   sodipodi:docname="sc-2.svg"
   inkscape:version="1.0.1 (3bc2e813f5, 2020-09-07)"
   inkscape:export-filename="/home/kirito/storage/IPhD-Project-II/figures/sc-2.png"
   inkscape:export-xdpi="248.64"
   inkscape:export-ydpi="248.64">
  <defs
     id="defs2">
    <marker
       style="overflow:visible"
       id="TriangleOutL"
       refX="0"
       refY="0"
       orient="auto"
       inkscape:stockid="TriangleOutL"
       inkscape:isstock="true">
      <path
         transform="scale(0.8)"
         style="fill:#000000;fill-opacity:1;fill-rule:evenodd;stroke:#000000;stroke-width:1pt;stroke-opacity:1"
         d="M 5.77,0 -2.88,5 V -5 Z"
         id="path1073" />
    </marker>
    <inkscape:path-effect
       effect="spiro"
       id="path-effect929"
       is_visible="true"
       lpeversion="1" />
    <g
       id="g261">
      <symbol
         overflow="visible"
         id="symbol6969">
        <path
           style="stroke:none"
           d=""
           id="path6204" />
      </symbol>
      <symbol
         overflow="visible"
         id="symbol8070">
        <path
           style="stroke:none"
           d="m 2.6875,-5.53125 c 0.25,0.375 0.515625,0.65625 0.765625,0.84375 0.609375,0.453125 1.21875,0.5625 1.234375,0.5625 0.125,0 0.125,-0.109375 0.125,-0.1875 0,-0.15625 0,-0.171875 -0.234375,-0.25 C 3.90625,-4.75 3.515625,-5.109375 3.296875,-5.359375 2.78125,-5.90625 2.65625,-6.5 2.609375,-6.8125 2.59375,-6.875 2.546875,-6.90625 2.5,-6.90625 c -0.09375,0 -0.109375,0.0625 -0.125,0.171875 C 2.140625,-5.625 1.4375,-4.84375 0.34375,-4.53125 0.1875,-4.484375 0.171875,-4.484375 0.171875,-4.3125 c 0,0.078125 0,0.1875 0.125,0.1875 0.015625,0 0.609375,-0.109375 1.171875,-0.515625 0.328125,-0.25 0.609375,-0.546875 0.828125,-0.890625 v 7.109375 c 0,0.171875 0,0.359375 0.203125,0.359375 0.1875,0 0.1875,-0.1875 0.1875,-0.359375 z m 0,0"
           id="path7102" />
      </symbol>
    </g>
    <g
       id="g4693">
      <symbol
         overflow="visible"
         id="symbol1740">
        <path
           style="stroke:none"
           d=""
           id="path1078" />
      </symbol>
      <symbol
         overflow="visible"
         id="symbol7528">
        <path
           style="stroke:none"
           d="m 2.6875,-6.5625 c 0,-0.171875 0,-0.359375 -0.1875,-0.359375 -0.203125,0 -0.203125,0.1875 -0.203125,0.359375 v 7.109375 c -0.25,-0.375 -0.515625,-0.65625 -0.765625,-0.84375 -0.609375,-0.453125 -1.21875,-0.5625 -1.234375,-0.5625 -0.125,0 -0.125,0.109375 -0.125,0.1875 0,0.15625 0,0.171875 0.234375,0.25 C 1.078125,-0.234375 1.46875,0.125 1.6875,0.375 2.203125,0.921875 2.328125,1.515625 2.375,1.828125 2.390625,1.875 2.421875,1.921875 2.5,1.921875 c 0.078125,0 0.09375,-0.0625 0.109375,-0.15625 0.21875,-1.125 0.9375,-1.90625 2.03125,-2.21875 C 4.796875,-0.5 4.8125,-0.5 4.8125,-0.671875 c 0,-0.078125 0,-0.1875 -0.125,-0.1875 -0.015625,0 -0.609375,0.109375 -1.171875,0.515625 C 3.1875,-0.09375 2.90625,0.203125 2.6875,0.546875 Z m 0,0"
           id="path3681" />
      </symbol>
    </g>
    <g
       id="g1886">
      <symbol
         overflow="visible"
         id="symbol1184">
        <path
           style="stroke:none"
           d=""
           id="path7726" />
      </symbol>
      <symbol
         overflow="visible"
         id="symbol1944">
        <path
           style="stroke:none"
           d="m 4.5,-4.296875 c 0,-0.046875 -0.03125,-0.09375 -0.09375,-0.09375 -0.109375,0 -0.515625,0.390625 -0.671875,0.6875 C 3.515625,-4.25 3.125,-4.40625 2.796875,-4.40625 c -1.171875,0 -2.390625,1.46875 -2.390625,2.921875 0,0.96875 0.578125,1.59375 1.3125,1.59375 0.421875,0 0.8125,-0.234375 1.171875,-0.59375 -0.09375,0.34375 -0.421875,1.6875 -0.453125,1.78125 -0.078125,0.28125 -0.15625,0.3125 -0.71875,0.328125 -0.125,0 -0.21875,0 -0.21875,0.203125 0,0 0,0.109375 0.125,0.109375 0.3125,0 0.671875,-0.03125 1,-0.03125 0.328125,0 0.6875,0.03125 1.03125,0.03125 0.046875,0 0.171875,0 0.171875,-0.203125 C 3.828125,1.625 3.734375,1.625 3.5625,1.625 3.09375,1.625 3.09375,1.5625 3.09375,1.46875 3.09375,1.390625 3.109375,1.328125 3.125,1.25 Z m -2.75,4.1875 c -0.609375,0 -0.640625,-0.765625 -0.640625,-0.9375 0,-0.484375 0.28125,-1.5625 0.453125,-1.984375 0.3125,-0.734375 0.828125,-1.15625 1.234375,-1.15625 0.65625,0 0.796875,0.8125 0.796875,0.875 0,0.0625 -0.546875,2.25 -0.578125,2.28125 C 2.859375,-0.75 2.296875,-0.109375 1.75,-0.109375 Z m 0,0"
           id="path9504" />
      </symbol>
      <symbol
         overflow="visible"
         id="symbol3941">
        <path
           style="stroke:none"
           d="m 5.734375,-5.671875 c 0,-0.75 -0.546875,-1.359375 -1.359375,-1.359375 -0.578125,0 -0.859375,0.15625 -1.203125,0.40625 C 2.625,-6.21875 2.078125,-5.25 1.890625,-4.5 L 0.296875,1.828125 C 0.296875,1.875 0.34375,1.9375 0.421875,1.9375 0.5,1.9375 0.53125,1.90625 0.53125,1.890625 L 1.234375,-0.875 c 0.1875,0.609375 0.625,0.96875 1.359375,0.96875 C 3.3125,0.09375 4.0625,-0.25 4.515625,-0.6875 5,-1.140625 5.3125,-1.78125 5.3125,-2.515625 c 0,-0.71875 -0.375,-1.25 -0.734375,-1.484375 0.578125,-0.34375 1.15625,-0.953125 1.15625,-1.671875 z M 3.9375,-4.015625 c -0.125,0.046875 -0.234375,0.0625 -0.484375,0.0625 -0.140625,0 -0.328125,0.015625 -0.4375,-0.03125 0.03125,-0.109375 0.390625,-0.078125 0.5,-0.078125 0.203125,0 0.296875,0 0.421875,0.046875 z M 5.171875,-5.90625 c 0,0.703125 -0.375,1.421875 -0.890625,1.734375 C 4,-4.28125 3.8125,-4.296875 3.515625,-4.296875 c -0.21875,0 -0.78125,-0.015625 -0.78125,0.3125 0,0.28125 0.515625,0.25 0.6875,0.25 0.375,0 0.53125,0 0.828125,-0.125 0.375,0.359375 0.421875,0.671875 0.4375,1.125 0.015625,0.578125 -0.21875,1.328125 -0.5,1.71875 C 3.796875,-0.484375 3.125,-0.125 2.5625,-0.125 c -0.765625,0 -1.140625,-0.578125 -1.140625,-1.28125 0,-0.09375 0,-0.25 0.046875,-0.4375 L 2.109375,-4.359375 C 2.328125,-5.21875 3.046875,-6.8125 4.25,-6.8125 c 0.578125,0 0.921875,0.3125 0.921875,0.90625 z m 0,0"
           id="path5221" />
      </symbol>
    </g>
    <g
       id="g4207">
      <symbol
         overflow="visible"
         id="symbol2981">
        <path
           style="stroke:none"
           d=""
           id="path2217" />
      </symbol>
      <symbol
         overflow="visible"
         id="symbol9815">
        <path
           style="stroke:none"
           d="m 5.140625,-6.8125 c 0,0 0,-0.109375 -0.125,-0.109375 -0.15625,0 -1.09375,0.09375 -1.265625,0.109375 -0.078125,0.015625 -0.140625,0.0625 -0.140625,0.1875 0,0.125 0.09375,0.125 0.234375,0.125 0.484375,0 0.5,0.0625 0.5,0.171875 L 4.3125,-6.125 3.71875,-3.765625 C 3.53125,-4.140625 3.25,-4.40625 2.796875,-4.40625 c -1.15625,0 -2.390625,1.46875 -2.390625,2.921875 0,0.9375 0.546875,1.59375 1.3125,1.59375 0.203125,0 0.703125,-0.046875 1.296875,-0.75 0.078125,0.421875 0.4375,0.75 0.90625,0.75 0.359375,0 0.578125,-0.234375 0.75,-0.546875 0.15625,-0.359375 0.296875,-0.96875 0.296875,-0.984375 0,-0.109375 -0.09375,-0.109375 -0.125,-0.109375 -0.09375,0 -0.109375,0.046875 -0.140625,0.1875 -0.171875,0.640625 -0.34375,1.234375 -0.75,1.234375 -0.28125,0 -0.296875,-0.265625 -0.296875,-0.453125 0,-0.25 0.015625,-0.3125 0.046875,-0.484375 z m -2.0625,5.625 C 3.015625,-1 3.015625,-0.984375 2.875,-0.8125 2.4375,-0.265625 2.03125,-0.109375 1.75,-0.109375 c -0.5,0 -0.640625,-0.546875 -0.640625,-0.9375 0,-0.5 0.3125,-1.71875 0.546875,-2.1875 0.3125,-0.578125 0.75,-0.953125 1.15625,-0.953125 0.640625,0 0.78125,0.8125 0.78125,0.875 0,0.0625 -0.015625,0.125 -0.03125,0.171875 z m 0,0"
           id="path6781" />
      </symbol>
      <symbol
         overflow="visible"
         id="symbol8436">
        <path
           style="stroke:none"
           d="m 5.734375,-5.671875 c 0,-0.75 -0.546875,-1.359375 -1.359375,-1.359375 -0.578125,0 -0.859375,0.15625 -1.203125,0.40625 C 2.625,-6.21875 2.078125,-5.25 1.890625,-4.5 L 0.296875,1.828125 C 0.296875,1.875 0.34375,1.9375 0.421875,1.9375 0.5,1.9375 0.53125,1.90625 0.53125,1.890625 L 1.234375,-0.875 c 0.1875,0.609375 0.625,0.96875 1.359375,0.96875 C 3.3125,0.09375 4.0625,-0.25 4.515625,-0.6875 5,-1.140625 5.3125,-1.78125 5.3125,-2.515625 c 0,-0.71875 -0.375,-1.25 -0.734375,-1.484375 0.578125,-0.34375 1.15625,-0.953125 1.15625,-1.671875 z M 3.9375,-4.015625 c -0.125,0.046875 -0.234375,0.0625 -0.484375,0.0625 -0.140625,0 -0.328125,0.015625 -0.4375,-0.03125 0.03125,-0.109375 0.390625,-0.078125 0.5,-0.078125 0.203125,0 0.296875,0 0.421875,0.046875 z M 5.171875,-5.90625 c 0,0.703125 -0.375,1.421875 -0.890625,1.734375 C 4,-4.28125 3.8125,-4.296875 3.515625,-4.296875 c -0.21875,0 -0.78125,-0.015625 -0.78125,0.3125 0,0.28125 0.515625,0.25 0.6875,0.25 0.375,0 0.53125,0 0.828125,-0.125 0.375,0.359375 0.421875,0.671875 0.4375,1.125 0.015625,0.578125 -0.21875,1.328125 -0.5,1.71875 C 3.796875,-0.484375 3.125,-0.125 2.5625,-0.125 c -0.765625,0 -1.140625,-0.578125 -1.140625,-1.28125 0,-0.09375 0,-0.25 0.046875,-0.4375 L 2.109375,-4.359375 C 2.328125,-5.21875 3.046875,-6.8125 4.25,-6.8125 c 0.578125,0 0.921875,0.3125 0.921875,0.90625 z m 0,0"
           id="path8610" />
      </symbol>
    </g>
    <g
       id="g9240">
      <symbol
         overflow="visible"
         id="symbol1225">
        <path
           style="stroke:none"
           d=""
           id="path2653" />
      </symbol>
      <symbol
         overflow="visible"
         id="symbol5344">
        <path
           style="stroke:none"
           d="m 5.140625,-6.8125 c 0,0 0,-0.109375 -0.125,-0.109375 -0.15625,0 -1.09375,0.09375 -1.265625,0.109375 -0.078125,0.015625 -0.140625,0.0625 -0.140625,0.1875 0,0.125 0.09375,0.125 0.234375,0.125 0.484375,0 0.5,0.0625 0.5,0.171875 L 4.3125,-6.125 3.71875,-3.765625 C 3.53125,-4.140625 3.25,-4.40625 2.796875,-4.40625 c -1.15625,0 -2.390625,1.46875 -2.390625,2.921875 0,0.9375 0.546875,1.59375 1.3125,1.59375 0.203125,0 0.703125,-0.046875 1.296875,-0.75 0.078125,0.421875 0.4375,0.75 0.90625,0.75 0.359375,0 0.578125,-0.234375 0.75,-0.546875 0.15625,-0.359375 0.296875,-0.96875 0.296875,-0.984375 0,-0.109375 -0.09375,-0.109375 -0.125,-0.109375 -0.09375,0 -0.109375,0.046875 -0.140625,0.1875 -0.171875,0.640625 -0.34375,1.234375 -0.75,1.234375 -0.28125,0 -0.296875,-0.265625 -0.296875,-0.453125 0,-0.25 0.015625,-0.3125 0.046875,-0.484375 z m -2.0625,5.625 C 3.015625,-1 3.015625,-0.984375 2.875,-0.8125 2.4375,-0.265625 2.03125,-0.109375 1.75,-0.109375 c -0.5,0 -0.640625,-0.546875 -0.640625,-0.9375 0,-0.5 0.3125,-1.71875 0.546875,-2.1875 0.3125,-0.578125 0.75,-0.953125 1.15625,-0.953125 0.640625,0 0.78125,0.8125 0.78125,0.875 0,0.0625 -0.015625,0.125 -0.03125,0.171875 z m 0,0"
           id="path8558" />
      </symbol>
      <symbol
         overflow="visible"
         id="symbol6450">
        <path
           style="stroke:none"
           d="m 5.734375,-5.671875 c 0,-0.75 -0.546875,-1.359375 -1.359375,-1.359375 -0.578125,0 -0.859375,0.15625 -1.203125,0.40625 C 2.625,-6.21875 2.078125,-5.25 1.890625,-4.5 L 0.296875,1.828125 C 0.296875,1.875 0.34375,1.9375 0.421875,1.9375 0.5,1.9375 0.53125,1.90625 0.53125,1.890625 L 1.234375,-0.875 c 0.1875,0.609375 0.625,0.96875 1.359375,0.96875 C 3.3125,0.09375 4.0625,-0.25 4.515625,-0.6875 5,-1.140625 5.3125,-1.78125 5.3125,-2.515625 c 0,-0.71875 -0.375,-1.25 -0.734375,-1.484375 0.578125,-0.34375 1.15625,-0.953125 1.15625,-1.671875 z M 3.9375,-4.015625 c -0.125,0.046875 -0.234375,0.0625 -0.484375,0.0625 -0.140625,0 -0.328125,0.015625 -0.4375,-0.03125 0.03125,-0.109375 0.390625,-0.078125 0.5,-0.078125 0.203125,0 0.296875,0 0.421875,0.046875 z M 5.171875,-5.90625 c 0,0.703125 -0.375,1.421875 -0.890625,1.734375 C 4,-4.28125 3.8125,-4.296875 3.515625,-4.296875 c -0.21875,0 -0.78125,-0.015625 -0.78125,0.3125 0,0.28125 0.515625,0.25 0.6875,0.25 0.375,0 0.53125,0 0.828125,-0.125 0.375,0.359375 0.421875,0.671875 0.4375,1.125 0.015625,0.578125 -0.21875,1.328125 -0.5,1.71875 C 3.796875,-0.484375 3.125,-0.125 2.5625,-0.125 c -0.765625,0 -1.140625,-0.578125 -1.140625,-1.28125 0,-0.09375 0,-0.25 0.046875,-0.4375 L 2.109375,-4.359375 C 2.328125,-5.21875 3.046875,-6.8125 4.25,-6.8125 c 0.578125,0 0.921875,0.3125 0.921875,0.90625 z m 0,0"
           id="path5955" />
      </symbol>
    </g>
    <g
       id="g7543">
      <symbol
         overflow="visible"
         id="symbol2760">
        <path
           style="stroke:none"
           d=""
           id="path9331" />
      </symbol>
      <symbol
         overflow="visible"
         id="symbol8270">
        <path
           style="stroke:none"
           d="M 3.6875,-6.921875 C 3.625,-7.125 3.5625,-7.140625 3.453125,-7.140625 c -0.15625,0 -0.171875,0.046875 -0.21875,0.21875 L 1.3125,-1 c -0.09375,0.296875 -0.296875,0.6875 -1,0.6875 V 0 c 0.328125,-0.015625 0.84375,-0.03125 0.9375,-0.03125 0.28125,0 0.8125,0.015625 1.125,0.03125 v -0.3125 c -0.546875,0 -0.765625,-0.28125 -0.765625,-0.515625 0,-0.046875 0,-0.078125 0.046875,-0.21875 l 1.5,-4.640625 1.5625,4.90625 c 0.0625,0.140625 0.0625,0.15625 0.0625,0.171875 0,0.296875 -0.59375,0.296875 -0.859375,0.296875 V 0 c 0.359375,-0.03125 1.0625,-0.03125 1.4375,-0.03125 0.390625,0 0.84375,0.015625 1.234375,0.03125 v -0.3125 c -0.765625,0 -0.796875,-0.0625 -0.90625,-0.421875 z m 0,0"
           id="path2639" />
      </symbol>
      <symbol
         overflow="visible"
         id="symbol5646">
        <path
           style="stroke:none"
           d=""
           id="path8290" />
      </symbol>
      <symbol
         overflow="visible"
         id="symbol5323">
        <path
           style="stroke:none"
           d="M 5.8125,-4 C 5.875,-4.265625 6,-4.5 6.546875,-4.515625 c 0.03125,0 0.140625,0 0.140625,-0.140625 0,-0.046875 -0.03125,-0.109375 -0.109375,-0.109375 -0.21875,0 -0.484375,0.03125 -0.71875,0.03125 -0.171875,0 -0.5625,-0.03125 -0.734375,-0.03125 -0.03125,0 -0.140625,0 -0.140625,0.15625 0,0.09375 0.09375,0.09375 0.15625,0.09375 0.328125,0.015625 0.4375,0.125 0.4375,0.296875 0,0.046875 0,0.09375 -0.03125,0.15625 l -0.75,3.046875 -1.765625,-3.625 c -0.0625,-0.125 -0.078125,-0.125 -0.25,-0.125 H 1.828125 c -0.125,0 -0.21875,0 -0.21875,0.15625 0,0.09375 0.078125,0.09375 0.234375,0.09375 0.140625,0 0.296875,0.015625 0.4375,0.046875 L 1.359375,-0.75 c -0.0625,0.265625 -0.1875,0.484375 -0.734375,0.5 -0.046875,0 -0.140625,0 -0.140625,0.140625 C 0.484375,-0.03125 0.53125,0 0.578125,0 0.8125,0 1.078125,-0.03125 1.3125,-0.03125 1.484375,-0.03125 1.875,0 2.046875,0 2.125,0 2.1875,-0.03125 2.1875,-0.140625 2.1875,-0.25 2.109375,-0.25 2.03125,-0.25 c -0.4375,-0.015625 -0.4375,-0.203125 -0.4375,-0.296875 0,-0.03125 0,-0.0625 0.015625,-0.171875 l 0.90625,-3.5625 2.03125,4.15625 C 4.59375,0 4.625,0 4.703125,0 4.8125,0 4.8125,-0.015625 4.84375,-0.140625 Z m 0,0"
           id="path152" />
      </symbol>
    </g>
    <g
       id="g9835">
      <symbol
         overflow="visible"
         id="symbol7509">
        <path
           style="stroke:none"
           d=""
           id="path5504" />
      </symbol>
      <symbol
         overflow="visible"
         id="symbol6941">
        <path
           style="stroke:none"
           d="M 3.6875,-6.921875 C 3.625,-7.125 3.5625,-7.140625 3.453125,-7.140625 c -0.15625,0 -0.171875,0.046875 -0.21875,0.21875 L 1.3125,-1 c -0.09375,0.296875 -0.296875,0.6875 -1,0.6875 V 0 c 0.328125,-0.015625 0.84375,-0.03125 0.9375,-0.03125 0.28125,0 0.8125,0.015625 1.125,0.03125 v -0.3125 c -0.546875,0 -0.765625,-0.28125 -0.765625,-0.515625 0,-0.046875 0,-0.078125 0.046875,-0.21875 l 1.5,-4.640625 1.5625,4.90625 c 0.0625,0.140625 0.0625,0.15625 0.0625,0.171875 0,0.296875 -0.59375,0.296875 -0.859375,0.296875 V 0 c 0.359375,-0.03125 1.0625,-0.03125 1.4375,-0.03125 0.390625,0 0.84375,0.015625 1.234375,0.03125 v -0.3125 c -0.765625,0 -0.796875,-0.0625 -0.90625,-0.421875 z m 0,0"
           id="path2416" />
      </symbol>
      <symbol
         overflow="visible"
         id="symbol8269">
        <path
           style="stroke:none"
           d=""
           id="path4234" />
      </symbol>
      <symbol
         overflow="visible"
         id="symbol2591">
        <path
           style="stroke:none"
           d="m 7.109375,-4.1875 c 0.0625,-0.265625 0.078125,-0.328125 0.59375,-0.328125 0.15625,0 0.234375,0 0.234375,-0.140625 0,-0.109375 -0.078125,-0.109375 -0.203125,-0.109375 H 6.78125 c -0.203125,0 -0.203125,0.015625 -0.296875,0.140625 l -2.6875,3.984375 -0.6875,-3.9375 c -0.03125,-0.171875 -0.03125,-0.1875 -0.25,-0.1875 H 1.875 c -0.140625,0 -0.234375,0 -0.234375,0.15625 0,0.09375 0.078125,0.09375 0.234375,0.09375 0.109375,0 0.140625,0 0.265625,0.015625 0.140625,0.015625 0.15625,0.03125 0.15625,0.109375 0,0 0,0.046875 -0.03125,0.140625 l -0.875,3.5 c -0.0625,0.234375 -0.171875,0.484375 -0.734375,0.5 -0.046875,0 -0.140625,0 -0.140625,0.15625 0,0 0,0.09375 0.109375,0.09375 0.203125,0 0.5,-0.03125 0.71875,-0.03125 C 1.515625,-0.03125 1.921875,0 2.078125,0 2.125,0 2.21875,0 2.21875,-0.15625 2.21875,-0.25 2.125,-0.25 2.0625,-0.25 1.625,-0.265625 1.625,-0.453125 1.625,-0.546875 c 0,-0.03125 0,-0.0625 0.03125,-0.171875 l 0.921875,-3.703125 0.75,4.234375 C 3.359375,-0.0625 3.359375,0 3.46875,0 3.5625,0 3.625,-0.078125 3.671875,-0.15625 L 6.59375,-4.5 6.609375,-4.484375 5.625,-0.546875 C 5.5625,-0.3125 5.546875,-0.25 5.015625,-0.25 c -0.125,0 -0.21875,0 -0.21875,0.15625 0,0 0,0.09375 0.109375,0.09375 0.140625,0 0.296875,-0.015625 0.4375,-0.015625 0.140625,0 0.296875,-0.015625 0.4375,-0.015625 C 5.984375,-0.03125 6.46875,0 6.671875,0 6.703125,0 6.8125,0 6.8125,-0.15625 6.8125,-0.25 6.734375,-0.25 6.59375,-0.25 c -0.015625,0 -0.140625,0 -0.265625,-0.015625 -0.15625,-0.015625 -0.15625,-0.03125 -0.15625,-0.109375 0,-0.03125 0.015625,-0.109375 0.015625,-0.140625 z m 0,0"
           id="path2142" />
      </symbol>
    </g>
    <g
       id="g3221">
      <symbol
         overflow="visible"
         id="symbol8962">
        <path
           style="stroke:none"
           d=""
           id="path7430" />
      </symbol>
      <symbol
         overflow="visible"
         id="symbol6782">
        <path
           style="stroke:none"
           d="m 2.859375,-6.8125 c 0,0 0,-0.109375 -0.125,-0.109375 -0.234375,0 -0.953125,0.078125 -1.21875,0.109375 -0.078125,0 -0.1875,0.015625 -0.1875,0.1875 0,0.125 0.09375,0.125 0.234375,0.125 0.484375,0 0.5,0.0625 0.5,0.171875 L 2.03125,-6.125 0.59375,-0.390625 c -0.046875,0.140625 -0.046875,0.15625 -0.046875,0.21875 0,0.234375 0.203125,0.28125 0.296875,0.28125 0.125,0 0.265625,-0.09375 0.328125,-0.203125 0.046875,-0.09375 0.5,-1.9375 0.5625,-2.1875 0.34375,0.03125 1.15625,0.1875 1.15625,0.84375 0,0.078125 0,0.109375 -0.03125,0.21875 -0.015625,0.109375 -0.03125,0.234375 -0.03125,0.34375 0,0.578125 0.390625,0.984375 0.90625,0.984375 0.296875,0 0.578125,-0.15625 0.796875,-0.53125 0.25,-0.4375 0.359375,-0.984375 0.359375,-1 0,-0.109375 -0.09375,-0.109375 -0.125,-0.109375 -0.09375,0 -0.109375,0.046875 -0.140625,0.1875 -0.203125,0.71875 -0.421875,1.234375 -0.859375,1.234375 -0.203125,0 -0.328125,-0.109375 -0.328125,-0.46875 0,-0.171875 0.046875,-0.40625 0.078125,-0.5625 C 3.5625,-1.3125 3.5625,-1.34375 3.5625,-1.453125 3.5625,-2.09375 2.9375,-2.375 2.078125,-2.5 2.390625,-2.671875 2.71875,-2.984375 2.9375,-3.234375 3.421875,-3.765625 3.875,-4.1875 4.359375,-4.1875 c 0.0625,0 0.078125,0 0.09375,0.015625 0.125,0.015625 0.125,0.015625 0.21875,0.078125 0.015625,0 0.015625,0.015625 0.03125,0.03125 -0.46875,0.03125 -0.5625,0.421875 -0.5625,0.546875 0,0.15625 0.109375,0.34375 0.375,0.34375 0.265625,0 0.546875,-0.21875 0.546875,-0.609375 0,-0.296875 -0.234375,-0.625 -0.671875,-0.625 -0.28125,0 -0.734375,0.078125 -1.453125,0.875 -0.34375,0.375 -0.734375,0.78125 -1.109375,0.921875 z m 0,0"
           id="path7093" />
      </symbol>
      <symbol
         overflow="visible"
         id="symbol8837">
        <path
           style="stroke:none"
           d="m 5.734375,-5.671875 c 0,-0.75 -0.546875,-1.359375 -1.359375,-1.359375 -0.578125,0 -0.859375,0.15625 -1.203125,0.40625 C 2.625,-6.21875 2.078125,-5.25 1.890625,-4.5 L 0.296875,1.828125 C 0.296875,1.875 0.34375,1.9375 0.421875,1.9375 0.5,1.9375 0.53125,1.90625 0.53125,1.890625 L 1.234375,-0.875 c 0.1875,0.609375 0.625,0.96875 1.359375,0.96875 C 3.3125,0.09375 4.0625,-0.25 4.515625,-0.6875 5,-1.140625 5.3125,-1.78125 5.3125,-2.515625 c 0,-0.71875 -0.375,-1.25 -0.734375,-1.484375 0.578125,-0.34375 1.15625,-0.953125 1.15625,-1.671875 z M 3.9375,-4.015625 c -0.125,0.046875 -0.234375,0.0625 -0.484375,0.0625 -0.140625,0 -0.328125,0.015625 -0.4375,-0.03125 0.03125,-0.109375 0.390625,-0.078125 0.5,-0.078125 0.203125,0 0.296875,0 0.421875,0.046875 z M 5.171875,-5.90625 c 0,0.703125 -0.375,1.421875 -0.890625,1.734375 C 4,-4.28125 3.8125,-4.296875 3.515625,-4.296875 c -0.21875,0 -0.78125,-0.015625 -0.78125,0.3125 0,0.28125 0.515625,0.25 0.6875,0.25 0.375,0 0.53125,0 0.828125,-0.125 0.375,0.359375 0.421875,0.671875 0.4375,1.125 0.015625,0.578125 -0.21875,1.328125 -0.5,1.71875 C 3.796875,-0.484375 3.125,-0.125 2.5625,-0.125 c -0.765625,0 -1.140625,-0.578125 -1.140625,-1.28125 0,-0.09375 0,-0.25 0.046875,-0.4375 L 2.109375,-4.359375 C 2.328125,-5.21875 3.046875,-6.8125 4.25,-6.8125 c 0.578125,0 0.921875,0.3125 0.921875,0.90625 z m 0,0"
           id="path9904" />
      </symbol>
    </g>
  </defs>
  <sodipodi:namedview
     id="base"
     pagecolor="#ffffff"
     bordercolor="#666666"
     borderopacity="1.0"
     inkscape:pageopacity="0.0"
     inkscape:pageshadow="2"
     inkscape:zoom="0.31850394"
     inkscape:cx="1281.046"
     inkscape:cy="800.96165"
     inkscape:document-units="mm"
     inkscape:current-layer="layer1"
     inkscape:document-rotation="0"
     showgrid="false"
     inkscape:snap-object-midpoints="true"
     inkscape:snap-global="true" />
  <metadata
     id="metadata5">
    <rdf:RDF>
      <cc:Work
         rdf:about="">
        <dc:format>image/svg+xml</dc:format>
        <dc:type
           rdf:resource="http://purl.org/dc/dcmitype/StillImage" />
        <dc:title />
      </cc:Work>
    </rdf:RDF>
  </metadata>
  <g
     inkscape:label="Layer 1"
     inkscape:groupmode="layer"
     id="layer1"
     transform="translate(265.97011,108.63002)">
    <path
       style="fill:none;stroke:#000000;stroke-width:1.25153;stroke-linecap:butt;stroke-linejoin:miter;stroke-miterlimit:4;stroke-dasharray:1.25153, 1.25153;stroke-dashoffset:0;stroke-opacity:1;marker-end:url(#TriangleOutL)"
       d="m -233.2281,-30.560638 c 1.43114,-10.787348 5.30452,-21.243534 11.24648,-30.359901 2.37488,-3.643627 5.12334,-7.122083 8.64675,-9.671913 5.89493,-4.266054 13.5281,-5.575435 20.78305,-5.01409 7.25495,0.561345 14.25444,2.842674 21.13814,5.201522 26.67481,9.1407 52.86145,19.705825 78.411097,31.635336"
       id="path927"
       inkscape:path-effect="#path-effect929"
       inkscape:original-d="m -233.2281,-30.560638 c 4.89785,-7.296713 6.34914,-23.062752 11.24648,-30.359901 4.89735,-7.297148 1.24887,-6.113355 8.64675,-9.671913 7.39787,-3.558559 23.87469,0.501705 41.92119,0.187432 18.0465,-0.314271 52.27432,21.090442 78.411097,31.635336"
       sodipodi:nodetypes="csssc"
       inkscape:export-xdpi="248.64"
       inkscape:export-ydpi="248.64" />
    <g
       inkscape:label=""
       transform="matrix(2.350491,0,0,2.2243518,-327.41684,-201.17703)"
       id="g1278"
       inkscape:export-xdpi="248.64"
       inkscape:export-ydpi="248.64">
      <g
         id="g8108">
        <g
           style="fill:#000000;fill-opacity:1"
           id="g587">
          <use
             xlink:href="#symbol1944"
             x="91.925003"
             y="81.962997"
             id="use3587"
             width="100%"
             height="100%" />
        </g>
        <g
           style="fill:#000000;fill-opacity:1"
           id="g6516">
          <use
             xlink:href="#symbol3941"
             x="96.730957"
             y="81.962997"
             id="use7529"
             width="100%"
             height="100%" />
        </g>
      </g>
    </g>
    <path
       style="fill:none;stroke:#000000;stroke-width:1.26165;stroke-linecap:butt;stroke-linejoin:miter;stroke-miterlimit:4;stroke-dasharray:none;stroke-opacity:1"
       d="m -79.755193,-103.37299 c 0,174.498791 0,174.498791 0,174.498791"
       id="path1449"
       inkscape:export-xdpi="248.64"
       inkscape:export-ydpi="248.64" />
    <g
       inkscape:label=""
       transform="matrix(2.3375753,0,0,2.2121291,-328.5163,-114.83439)"
       id="g1557"
       inkscape:export-xdpi="248.64"
       inkscape:export-ydpi="248.64">
      <g
         id="g4618">
        <g
           style="fill:#000000;fill-opacity:1"
           id="g5396">
          <use
             xlink:href="#symbol8270"
             x="91.925003"
             y="81.962997"
             id="use3350"
             width="100%"
             height="100%" />
        </g>
        <g
           style="fill:#000000;fill-opacity:1"
           id="g3276">
          <use
             xlink:href="#symbol5323"
             x="98.844002"
             y="83.457001"
             id="use6233"
             width="100%"
             height="100%" />
        </g>
      </g>
    </g>
    <path
       style="fill:none;stroke:#000000;stroke-width:1.25911;stroke-linecap:butt;stroke-linejoin:miter;stroke-miterlimit:4;stroke-dasharray:none;stroke-opacity:1"
       d="m -233.2281,-102.671 c 0,173.796801 0,173.796801 0,173.796801"
       id="path1449-6"
       inkscape:export-xdpi="248.64"
       inkscape:export-ydpi="248.64" />
    <g
       inkscape:label=""
       transform="matrix(2.075659,0,0,1.9642686,-457.42371,-94.170126)"
       id="g2080"
       inkscape:export-xdpi="248.64"
       inkscape:export-ydpi="248.64">
      <g
         id="g4330">
        <g
           style="fill:#000000;fill-opacity:1"
           id="g7">
          <use
             xlink:href="#symbol6941"
             x="91.925003"
             y="81.962997"
             id="use6423"
             width="100%"
             height="100%" />
        </g>
        <g
           style="fill:#000000;fill-opacity:1"
           id="g5540">
          <use
             xlink:href="#symbol2591"
             x="98.844002"
             y="83.457001"
             id="use6320"
             width="100%"
             height="100%" />
        </g>
      </g>
    </g>
    <ellipse
       style="fill:#000000;stroke:#000000;stroke-width:1.36204;stroke-linecap:round;stroke-linejoin:round;stroke-miterlimit:4;stroke-dasharray:none;stroke-dashoffset:0;paint-order:markers stroke fill"
       id="path2111"
       cx="-233.2281"
       cy="-30.560638"
       inkscape:export-xdpi="248.64"
       inkscape:export-ydpi="248.64"
       rx="5.4269295"
       ry="5.1356931" />
    <g
       inkscape:label=""
       transform="matrix(1.8164585,0,0,1.7189781,-427.97914,-154.87434)"
       id="g2202"
       inkscape:export-xdpi="248.64"
       inkscape:export-ydpi="248.64">
      <g
         id="g3748">
        <g
           style="fill:#000000;fill-opacity:1"
           id="g4768">
          <use
             xlink:href="#symbol6782"
             x="91.925003"
             y="81.962997"
             id="use6608"
             width="100%"
             height="100%" />
        </g>
        <g
           style="fill:#000000;fill-opacity:1"
           id="g5942">
          <use
             xlink:href="#symbol8837"
             x="97.430336"
             y="81.962997"
             id="use5475"
             width="100%"
             height="100%" />
        </g>
      </g>
    </g>
  </g>
</svg>
