<?xml version="1.0" encoding="UTF-8" standalone="no"?>
<svg
   xmlns:dc="http://purl.org/dc/elements/1.1/"
   xmlns:cc="http://creativecommons.org/ns#"
   xmlns:rdf="http://www.w3.org/1999/02/22-rdf-syntax-ns#"
   xmlns:svg="http://www.w3.org/2000/svg"
   xmlns="http://www.w3.org/2000/svg"
   xmlns:xlink="http://www.w3.org/1999/xlink"
   xmlns:sodipodi="http://sodipodi.sourceforge.net/DTD/sodipodi-0.dtd"
   xmlns:inkscape="http://www.inkscape.org/namespaces/inkscape"
   width="171.21562mm"
   height="173.46687mm"
   viewBox="0 0 171.21562 173.46687"
   version="1.1"
   id="svg8"
   sodipodi:docname="siam-kondo-phases.svg"
   inkscape:version="1.0.2 (e86c870879, 2021-01-15)">
  <defs
     id="defs2">
    <g
       id="g8833">
      <symbol
         overflow="visible"
         id="symbol6769">
        <path
           style="stroke:none"
           d=""
           id="path6424" />
      </symbol>
      <symbol
         overflow="visible"
         id="symbol3699">
        <path
           style="stroke:none"
           d="M 1.3125,-0.546875 C 1.265625,-0.3125 1.25,-0.25 0.703125,-0.25 0.578125,-0.25 0.5,-0.25 0.5,-0.09375 0.5,0 0.578125,0 0.703125,0 H 3.1875 c 1.546875,0 3.03125,-1.421875 3.03125,-2.9375 0,-1.015625 -0.703125,-1.828125 -1.828125,-1.828125 H 1.84375 c -0.140625,0 -0.21875,0 -0.21875,0.15625 0,0.09375 0.078125,0.09375 0.234375,0.09375 0.109375,0 0.140625,0 0.265625,0.015625 0.140625,0.015625 0.140625,0.03125 0.140625,0.109375 0,0 0,0.046875 -0.015625,0.140625 z m 1.5625,-3.71875 c 0.0625,-0.21875 0.0625,-0.25 0.359375,-0.25 H 4.125 c 0.78125,0 1.4375,0.390625 1.4375,1.34375 0,0.15625 -0.078125,1.359375 -0.765625,2.15625 C 4.515625,-0.703125 3.921875,-0.25 3.0625,-0.25 H 2.125 c -0.21875,0 -0.234375,-0.015625 -0.234375,-0.078125 0,0 0,-0.03125 0.03125,-0.140625 z m 0,0"
           id="path9206" />
      </symbol>
      <symbol
         overflow="visible"
         id="symbol4831">
        <path
           style="stroke:none"
           d=""
           id="path3499" />
      </symbol>
      <symbol
         overflow="visible"
         id="symbol9859">
        <path
           style="stroke:none"
           d="M 3.515625,-1.265625 H 3.28125 c -0.015625,0.15625 -0.09375,0.5625 -0.1875,0.625 C 3.046875,-0.59375 2.515625,-0.59375 2.40625,-0.59375 H 1.125 c 0.734375,-0.640625 0.984375,-0.84375 1.390625,-1.171875 0.515625,-0.40625 1,-0.84375 1,-1.5 0,-0.84375 -0.734375,-1.359375 -1.625,-1.359375 -0.859375,0 -1.453125,0.609375 -1.453125,1.25 0,0.34375 0.296875,0.390625 0.375,0.390625 0.15625,0 0.359375,-0.125 0.359375,-0.375 0,-0.125 -0.046875,-0.375 -0.40625,-0.375 C 0.984375,-4.21875 1.453125,-4.375 1.78125,-4.375 c 0.703125,0 1.0625,0.546875 1.0625,1.109375 0,0.609375 -0.4375,1.078125 -0.65625,1.328125 L 0.515625,-0.265625 C 0.4375,-0.203125 0.4375,-0.1875 0.4375,0 h 2.875 z m 0,0"
           id="path1987" />
      </symbol>
      <symbol
         overflow="visible"
         id="symbol496">
        <path
           style="stroke:none"
           d=""
           id="path731" />
      </symbol>
      <symbol
         overflow="visible"
         id="symbol4216">
        <path
           style="stroke:none"
           d="m 6.5625,-2.296875 c 0.171875,0 0.359375,0 0.359375,-0.203125 0,-0.1875 -0.1875,-0.1875 -0.359375,-0.1875 H 1.171875 c -0.171875,0 -0.34375,0 -0.34375,0.1875 0,0.203125 0.171875,0.203125 0.34375,0.203125 z m 0,0"
           id="path2904" />
      </symbol>
      <symbol
         overflow="visible"
         id="symbol9541">
        <path
           style="stroke:none"
           d=""
           id="path4293" />
      </symbol>
      <symbol
         overflow="visible"
         id="symbol5878">
        <path
           style="stroke:none"
           d="m 6.03125,-3.703125 c 0,-0.453125 -0.171875,-0.703125 -0.40625,-0.703125 -0.25,0 -0.515625,0.234375 -0.515625,0.46875 0,0.09375 0.046875,0.203125 0.140625,0.296875 0.171875,0.15625 0.359375,0.421875 0.359375,0.84375 0,0.390625 -0.203125,0.96875 -0.5,1.421875 C 4.8125,-0.953125 4.4375,-0.609375 3.96875,-0.609375 3.40625,-0.609375 3.09375,-0.96875 3,-1.5 c 0.109375,-0.265625 0.34375,-0.90625 0.34375,-1.1875 0,-0.109375 -0.046875,-0.21875 -0.1875,-0.21875 -0.078125,0 -0.1875,0.03125 -0.265625,0.171875 C 2.78125,-2.53125 2.65625,-1.890625 2.65625,-1.53125 2.328125,-1.0625 1.9375,-0.609375 1.3125,-0.609375 c -0.671875,0 -0.875,-0.59375 -0.875,-1.140625 0,-1.25 1.015625,-2.296875 1.015625,-2.421875 0,-0.109375 -0.078125,-0.1875 -0.1875,-0.1875 -0.125,0 -0.203125,0.125 -0.265625,0.21875 -0.5,0.734375 -0.875,1.921875 -0.875,2.828125 0,0.6875 0.21875,1.421875 1.046875,1.421875 0.703125,0 1.171875,-0.5 1.53125,-1.046875 0.09375,0.578125 0.484375,1.046875 1.09375,1.046875 0.78125,0 1.25,-0.609375 1.609375,-1.359375 0.25,-0.484375 0.625,-1.84375 0.625,-2.453125 z m 0,0"
           id="path4135" />
      </symbol>
    </g>
    <g
       id="g236">
      <symbol
         overflow="visible"
         id="symbol7873">
        <path
           style="stroke:none"
           d=""
           id="path9321" />
      </symbol>
      <symbol
         overflow="visible"
         id="symbol2310">
        <path
           style="stroke:none"
           d="M 5.390625,-6.078125 C 5.46875,-6.40625 5.5,-6.5 6.046875,-6.5 c 0.15625,0 0.265625,0 0.265625,-0.1875 0,-0.09375 -0.0625,-0.125 -0.140625,-0.125 -0.25,0 -0.859375,0.03125 -1.109375,0.03125 -0.328125,0 -1.140625,-0.03125 -1.46875,-0.03125 -0.078125,0 -0.203125,0 -0.203125,0.203125 C 3.390625,-6.5 3.46875,-6.5 3.734375,-6.5 c 0.21875,0 0.328125,0 0.578125,0.015625 0.234375,0.03125 0.296875,0.0625 0.296875,0.203125 0,0.0625 -0.015625,0.125 -0.03125,0.203125 L 3.421875,-1.5 C 3.1875,-0.53125 2.515625,0 2,0 1.734375,0 1.203125,-0.09375 1.046875,-0.625 c 0.03125,0.015625 0.09375,0.015625 0.125,0.015625 0.390625,0 0.640625,-0.34375 0.640625,-0.640625 0,-0.3125 -0.265625,-0.421875 -0.4375,-0.421875 -0.171875,0 -0.671875,0.125 -0.671875,0.796875 0,0.625 0.53125,1.09375 1.328125,1.09375 0.90625,0 1.953125,-0.65625 2.203125,-1.640625 z m 0,0"
           id="path6224" />
      </symbol>
    </g>
    <g
       id="g6994">
      <symbol
         overflow="visible"
         id="symbol6930">
        <path
           style="stroke:none"
           d=""
           id="path7004" />
      </symbol>
      <symbol
         overflow="visible"
         id="symbol5288">
        <path
           style="stroke:none"
           d="M 1.3125,-0.546875 C 1.265625,-0.3125 1.25,-0.25 0.703125,-0.25 0.578125,-0.25 0.5,-0.25 0.5,-0.09375 0.5,0 0.578125,0 0.703125,0 H 3.1875 c 1.546875,0 3.03125,-1.421875 3.03125,-2.9375 0,-1.015625 -0.703125,-1.828125 -1.828125,-1.828125 H 1.84375 c -0.140625,0 -0.21875,0 -0.21875,0.15625 0,0.09375 0.078125,0.09375 0.234375,0.09375 0.109375,0 0.140625,0 0.265625,0.015625 0.140625,0.015625 0.140625,0.03125 0.140625,0.109375 0,0 0,0.046875 -0.015625,0.140625 z m 1.5625,-3.71875 c 0.0625,-0.21875 0.0625,-0.25 0.359375,-0.25 H 4.125 c 0.78125,0 1.4375,0.390625 1.4375,1.34375 0,0.15625 -0.078125,1.359375 -0.765625,2.15625 C 4.515625,-0.703125 3.921875,-0.25 3.0625,-0.25 H 2.125 c -0.21875,0 -0.234375,-0.015625 -0.234375,-0.078125 0,0 0,-0.03125 0.03125,-0.140625 z m 0,0"
           id="path2466" />
      </symbol>
      <symbol
         overflow="visible"
         id="symbol1309">
        <path
           style="stroke:none"
           d="m 4.15625,-4.21875 c 0.0625,-0.25 0.078125,-0.296875 0.46875,-0.296875 0.078125,0 0.171875,0 0.171875,-0.140625 0,-0.078125 -0.046875,-0.109375 -0.09375,-0.109375 -0.171875,0 -0.59375,0.03125 -0.765625,0.03125 -0.140625,0 -0.375,0 -0.53125,0 -0.171875,-0.015625 -0.375,-0.03125 -0.546875,-0.03125 -0.046875,0 -0.15625,0 -0.15625,0.15625 0,0.09375 0.0625,0.09375 0.265625,0.09375 0.171875,0 0.1875,0 0.375,0.015625 0.203125,0.03125 0.21875,0.046875 0.21875,0.125 0,0.046875 0,0.0625 -0.03125,0.171875 l -0.796875,3.1875 C 2.59375,-0.5 2.15625,-0.0625 1.703125,-0.0625 1.609375,-0.0625 1.15625,-0.078125 1,-0.421875 c 0.40625,0 0.5,-0.328125 0.5,-0.453125 0,-0.1875 -0.171875,-0.296875 -0.328125,-0.296875 -0.1875,0 -0.46875,0.15625 -0.46875,0.546875 0,0.453125 0.4375,0.765625 1.015625,0.765625 0.6875,0 1.453125,-0.4375 1.640625,-1.140625 z m 0,0"
           id="path4736" />
      </symbol>
      <symbol
         overflow="visible"
         id="symbol5403">
        <path
           style="stroke:none"
           d=""
           id="path9841" />
      </symbol>
      <symbol
         overflow="visible"
         id="symbol5655">
        <path
           style="stroke:none"
           d="M 3.515625,-1.265625 H 3.28125 c -0.015625,0.15625 -0.09375,0.5625 -0.1875,0.625 C 3.046875,-0.59375 2.515625,-0.59375 2.40625,-0.59375 H 1.125 c 0.734375,-0.640625 0.984375,-0.84375 1.390625,-1.171875 0.515625,-0.40625 1,-0.84375 1,-1.5 0,-0.84375 -0.734375,-1.359375 -1.625,-1.359375 -0.859375,0 -1.453125,0.609375 -1.453125,1.25 0,0.34375 0.296875,0.390625 0.375,0.390625 0.15625,0 0.359375,-0.125 0.359375,-0.375 0,-0.125 -0.046875,-0.375 -0.40625,-0.375 C 0.984375,-4.21875 1.453125,-4.375 1.78125,-4.375 c 0.703125,0 1.0625,0.546875 1.0625,1.109375 0,0.609375 -0.4375,1.078125 -0.65625,1.328125 L 0.515625,-0.265625 C 0.4375,-0.203125 0.4375,-0.1875 0.4375,0 h 2.875 z m 0,0"
           id="path1282" />
      </symbol>
      <symbol
         overflow="visible"
         id="symbol8202">
        <path
           style="stroke:none"
           d="m 3.6875,-1.140625 v -0.25 H 2.90625 V -4.5 c 0,-0.140625 0,-0.203125 -0.140625,-0.203125 -0.09375,0 -0.125,0 -0.1875,0.109375 l -2.3125,3.203125 v 0.25 h 2.0625 v 0.5625 c 0,0.25 0,0.328125 -0.578125,0.328125 H 1.5625 V 0 C 1.921875,-0.015625 2.359375,-0.03125 2.609375,-0.03125 2.875,-0.03125 3.3125,-0.015625 3.671875,0 v -0.25 h -0.1875 C 2.90625,-0.25 2.90625,-0.328125 2.90625,-0.578125 v -0.5625 z M 2.375,-3.9375 v 2.546875 H 0.53125 Z m 0,0"
           id="path4296" />
      </symbol>
      <symbol
         overflow="visible"
         id="symbol7856">
        <path
           style="stroke:none"
           d=""
           id="path9310" />
      </symbol>
      <symbol
         overflow="visible"
         id="symbol1110">
        <path
           style="stroke:none"
           d="m 6.5625,-2.296875 c 0.171875,0 0.359375,0 0.359375,-0.203125 0,-0.1875 -0.1875,-0.1875 -0.359375,-0.1875 H 1.171875 c -0.171875,0 -0.34375,0 -0.34375,0.1875 0,0.203125 0.171875,0.203125 0.34375,0.203125 z m 0,0"
           id="path4539" />
      </symbol>
      <symbol
         overflow="visible"
         id="symbol9738">
        <path
           style="stroke:none"
           d=""
           id="path5786" />
      </symbol>
      <symbol
         overflow="visible"
         id="symbol3526">
        <path
           style="stroke:none"
           d="m 6.03125,-3.703125 c 0,-0.453125 -0.171875,-0.703125 -0.40625,-0.703125 -0.25,0 -0.515625,0.234375 -0.515625,0.46875 0,0.09375 0.046875,0.203125 0.140625,0.296875 0.171875,0.15625 0.359375,0.421875 0.359375,0.84375 0,0.390625 -0.203125,0.96875 -0.5,1.421875 C 4.8125,-0.953125 4.4375,-0.609375 3.96875,-0.609375 3.40625,-0.609375 3.09375,-0.96875 3,-1.5 c 0.109375,-0.265625 0.34375,-0.90625 0.34375,-1.1875 0,-0.109375 -0.046875,-0.21875 -0.1875,-0.21875 -0.078125,0 -0.1875,0.03125 -0.265625,0.171875 C 2.78125,-2.53125 2.65625,-1.890625 2.65625,-1.53125 2.328125,-1.0625 1.9375,-0.609375 1.3125,-0.609375 c -0.671875,0 -0.875,-0.59375 -0.875,-1.140625 0,-1.25 1.015625,-2.296875 1.015625,-2.421875 0,-0.109375 -0.078125,-0.1875 -0.1875,-0.1875 -0.125,0 -0.203125,0.125 -0.265625,0.21875 -0.5,0.734375 -0.875,1.921875 -0.875,2.828125 0,0.6875 0.21875,1.421875 1.046875,1.421875 0.703125,0 1.171875,-0.5 1.53125,-1.046875 0.09375,0.578125 0.484375,1.046875 1.09375,1.046875 0.78125,0 1.25,-0.609375 1.609375,-1.359375 0.25,-0.484375 0.625,-1.84375 0.625,-2.453125 z m 0,0"
           id="path2199" />
      </symbol>
      <symbol
         overflow="visible"
         id="symbol4583">
        <path
           style="stroke:none"
           d=""
           id="path4324" />
      </symbol>
      <symbol
         overflow="visible"
         id="symbol870">
        <path
           style="stroke:none"
           d="m 6.84375,-3.265625 c 0.15625,0 0.34375,0 0.34375,-0.1875 C 7.1875,-3.65625 7,-3.65625 6.859375,-3.65625 h -5.96875 c -0.140625,0 -0.328125,0 -0.328125,0.203125 0,0.1875 0.1875,0.1875 0.328125,0.1875 z m 0.015625,1.9375 c 0.140625,0 0.328125,0 0.328125,-0.203125 0,-0.1875 -0.1875,-0.1875 -0.34375,-0.1875 H 0.890625 c -0.140625,0 -0.328125,0 -0.328125,0.1875 0,0.203125 0.1875,0.203125 0.328125,0.203125 z m 0,0"
           id="path6664" />
      </symbol>
      <symbol
         overflow="visible"
         id="symbol7994">
        <path
           style="stroke:none"
           d="m 4.578125,-3.1875 c 0,-0.796875 -0.046875,-1.59375 -0.390625,-2.328125 -0.453125,-0.96875 -1.28125,-1.125 -1.6875,-1.125 -0.609375,0 -1.328125,0.265625 -1.75,1.1875 -0.3125,0.6875 -0.359375,1.46875 -0.359375,2.265625 0,0.75 0.03125,1.640625 0.453125,2.40625 0.421875,0.796875 1.15625,1 1.640625,1 0.53125,0 1.296875,-0.203125 1.734375,-1.15625 0.3125,-0.6875 0.359375,-1.46875 0.359375,-2.25 z M 2.484375,0 C 2.09375,0 1.5,-0.25 1.328125,-1.203125 1.21875,-1.796875 1.21875,-2.71875 1.21875,-3.3125 c 0,-0.640625 0,-1.296875 0.078125,-1.828125 0.1875,-1.1875 0.9375,-1.28125 1.1875,-1.28125 0.328125,0 0.984375,0.1875 1.171875,1.171875 0.109375,0.5625 0.109375,1.3125 0.109375,1.9375 0,0.75 0,1.421875 -0.109375,2.0625 C 3.5,-0.296875 2.9375,0 2.484375,0 Z m 0,0"
           id="path4156" />
      </symbol>
    </g>
    <g
       id="g5676">
      <symbol
         overflow="visible"
         id="symbol2090">
        <path
           style="stroke:none"
           d=""
           id="path7371" />
      </symbol>
      <symbol
         overflow="visible"
         id="symbol604">
        <path
           style="stroke:none"
           d="m 4.15625,-4.21875 c 0.0625,-0.25 0.078125,-0.296875 0.46875,-0.296875 0.078125,0 0.171875,0 0.171875,-0.140625 0,-0.078125 -0.046875,-0.109375 -0.09375,-0.109375 -0.171875,0 -0.59375,0.03125 -0.765625,0.03125 -0.140625,0 -0.375,0 -0.53125,0 -0.171875,-0.015625 -0.375,-0.03125 -0.546875,-0.03125 -0.046875,0 -0.15625,0 -0.15625,0.15625 0,0.09375 0.0625,0.09375 0.265625,0.09375 0.171875,0 0.1875,0 0.375,0.015625 0.203125,0.03125 0.21875,0.046875 0.21875,0.125 0,0.046875 0,0.0625 -0.03125,0.171875 l -0.796875,3.1875 C 2.59375,-0.5 2.15625,-0.0625 1.703125,-0.0625 1.609375,-0.0625 1.15625,-0.078125 1,-0.421875 c 0.40625,0 0.5,-0.328125 0.5,-0.453125 0,-0.1875 -0.171875,-0.296875 -0.328125,-0.296875 -0.1875,0 -0.46875,0.15625 -0.46875,0.546875 0,0.453125 0.4375,0.765625 1.015625,0.765625 0.6875,0 1.453125,-0.4375 1.640625,-1.140625 z m 0,0"
           id="path3535" />
      </symbol>
      <symbol
         overflow="visible"
         id="symbol4665">
        <path
           style="stroke:none"
           d=""
           id="path9094" />
      </symbol>
      <symbol
         overflow="visible"
         id="symbol5292">
        <path
           style="stroke:none"
           d="m 3.6875,-1.140625 v -0.25 H 2.90625 V -4.5 c 0,-0.140625 0,-0.203125 -0.140625,-0.203125 -0.09375,0 -0.125,0 -0.1875,0.109375 l -2.3125,3.203125 v 0.25 h 2.0625 v 0.5625 c 0,0.25 0,0.328125 -0.578125,0.328125 H 1.5625 V 0 C 1.921875,-0.015625 2.359375,-0.03125 2.609375,-0.03125 2.875,-0.03125 3.3125,-0.015625 3.671875,0 v -0.25 h -0.1875 C 2.90625,-0.25 2.90625,-0.328125 2.90625,-0.578125 v -0.5625 z M 2.375,-3.9375 v 2.546875 H 0.53125 Z m 0,0"
           id="path8494" />
      </symbol>
    </g>
    <g
       id="g2387">
      <symbol
         overflow="visible"
         id="symbol5776">
        <path
           style="stroke:none"
           d=""
           id="path6335" />
      </symbol>
      <symbol
         overflow="visible"
         id="symbol3933">
        <path
           style="stroke:none"
           d="M 5.390625,-6.078125 C 5.46875,-6.40625 5.5,-6.5 6.046875,-6.5 c 0.15625,0 0.265625,0 0.265625,-0.1875 0,-0.09375 -0.0625,-0.125 -0.140625,-0.125 -0.25,0 -0.859375,0.03125 -1.109375,0.03125 -0.328125,0 -1.140625,-0.03125 -1.46875,-0.03125 -0.078125,0 -0.203125,0 -0.203125,0.203125 C 3.390625,-6.5 3.46875,-6.5 3.734375,-6.5 c 0.21875,0 0.328125,0 0.578125,0.015625 0.234375,0.03125 0.296875,0.0625 0.296875,0.203125 0,0.0625 -0.015625,0.125 -0.03125,0.203125 L 3.421875,-1.5 C 3.1875,-0.53125 2.515625,0 2,0 1.734375,0 1.203125,-0.09375 1.046875,-0.625 c 0.03125,0.015625 0.09375,0.015625 0.125,0.015625 0.390625,0 0.640625,-0.34375 0.640625,-0.640625 0,-0.3125 -0.265625,-0.421875 -0.4375,-0.421875 -0.171875,0 -0.671875,0.125 -0.671875,0.796875 0,0.625 0.53125,1.09375 1.328125,1.09375 0.90625,0 1.953125,-0.65625 2.203125,-1.640625 z m 0,0"
           id="path191" />
      </symbol>
      <symbol
         overflow="visible"
         id="symbol5506">
        <path
           style="stroke:none"
           d="M 6.734375,-2.265625 C 6.84375,-2.328125 6.921875,-2.375 6.921875,-2.5 c 0,-0.109375 -0.078125,-0.15625 -0.1875,-0.21875 L 1.203125,-5.3125 C 1.078125,-5.390625 1.0625,-5.390625 1.03125,-5.390625 c -0.109375,0 -0.203125,0.09375 -0.203125,0.203125 0,0.09375 0.046875,0.15625 0.1875,0.21875 L 6.25,-2.5 1.015625,-0.015625 c -0.140625,0.0625 -0.1875,0.125 -0.1875,0.21875 0,0.109375 0.09375,0.203125 0.203125,0.203125 0.03125,0 0.046875,0 0.171875,-0.078125 z m 0,0"
           id="path5021" />
      </symbol>
      <symbol
         overflow="visible"
         id="symbol7953">
        <path
           style="stroke:none"
           d=""
           id="path7179" />
      </symbol>
      <symbol
         overflow="visible"
         id="symbol842">
        <path
           style="stroke:none"
           d="m 2.25,-1.734375 c 0.578125,-0.25 0.828125,-0.34375 1,-0.4375 0.140625,-0.046875 0.203125,-0.078125 0.203125,-0.21875 0,-0.109375 -0.09375,-0.21875 -0.21875,-0.21875 -0.046875,0 -0.0625,0 -0.140625,0.0625 L 2.140625,-1.90625 2.25,-2.9375 c 0.015625,-0.125 0,-0.296875 -0.21875,-0.296875 -0.078125,0 -0.21875,0.046875 -0.21875,0.203125 0,0.0625 0.03125,0.265625 0.046875,0.34375 0.015625,0.109375 0.0625,0.625 0.078125,0.78125 L 0.984375,-2.546875 c -0.0625,-0.03125 -0.078125,-0.0625 -0.140625,-0.0625 -0.140625,0 -0.21875,0.109375 -0.21875,0.21875 0,0.140625 0.078125,0.1875 0.140625,0.203125 L 1.8125,-1.734375 c -0.5625,0.25 -0.828125,0.34375 -1,0.421875 -0.125,0.0625 -0.1875,0.09375 -0.1875,0.21875 0,0.125 0.078125,0.21875 0.21875,0.21875 0.046875,0 0.0625,0 0.140625,-0.0625 l 0.953125,-0.625 -0.125,1.109375 c 0,0.15625 0.140625,0.21875 0.21875,0.21875 0.09375,0 0.21875,-0.0625 0.21875,-0.21875 0,-0.0625 -0.03125,-0.265625 -0.03125,-0.328125 -0.015625,-0.125 -0.0625,-0.625 -0.078125,-0.78125 L 2.96875,-1.015625 C 3.15625,-0.875 3.171875,-0.875 3.234375,-0.875 c 0.125,0 0.21875,-0.09375 0.21875,-0.21875 0,-0.140625 -0.09375,-0.171875 -0.15625,-0.203125 z m 0,0"
           id="path306" />
      </symbol>
      <symbol
         overflow="visible"
         id="symbol7717">
        <path
           style="stroke:none"
           d=""
           id="path5032" />
      </symbol>
      <symbol
         overflow="visible"
         id="symbol8914">
        <path
           style="stroke:none"
           d="m 4.578125,-3.1875 c 0,-0.796875 -0.046875,-1.59375 -0.390625,-2.328125 -0.453125,-0.96875 -1.28125,-1.125 -1.6875,-1.125 -0.609375,0 -1.328125,0.265625 -1.75,1.1875 -0.3125,0.6875 -0.359375,1.46875 -0.359375,2.265625 0,0.75 0.03125,1.640625 0.453125,2.40625 0.421875,0.796875 1.15625,1 1.640625,1 0.53125,0 1.296875,-0.203125 1.734375,-1.15625 0.3125,-0.6875 0.359375,-1.46875 0.359375,-2.25 z M 2.484375,0 C 2.09375,0 1.5,-0.25 1.328125,-1.203125 1.21875,-1.796875 1.21875,-2.71875 1.21875,-3.3125 c 0,-0.640625 0,-1.296875 0.078125,-1.828125 0.1875,-1.1875 0.9375,-1.28125 1.1875,-1.28125 0.328125,0 0.984375,0.1875 1.171875,1.171875 0.109375,0.5625 0.109375,1.3125 0.109375,1.9375 0,0.75 0,1.421875 -0.109375,2.0625 C 3.5,-0.296875 2.9375,0 2.484375,0 Z m 0,0"
           id="path7992" />
      </symbol>
    </g>
    <g
       id="g1843">
      <symbol
         overflow="visible"
         id="symbol3704">
        <path
           style="stroke:none"
           d=""
           id="path2757" />
      </symbol>
      <symbol
         overflow="visible"
         id="symbol2672">
        <path
           style="stroke:none"
           d="M 5.390625,-6.078125 C 5.46875,-6.40625 5.5,-6.5 6.046875,-6.5 c 0.15625,0 0.265625,0 0.265625,-0.1875 0,-0.09375 -0.0625,-0.125 -0.140625,-0.125 -0.25,0 -0.859375,0.03125 -1.109375,0.03125 -0.328125,0 -1.140625,-0.03125 -1.46875,-0.03125 -0.078125,0 -0.203125,0 -0.203125,0.203125 C 3.390625,-6.5 3.46875,-6.5 3.734375,-6.5 c 0.21875,0 0.328125,0 0.578125,0.015625 0.234375,0.03125 0.296875,0.0625 0.296875,0.203125 0,0.0625 -0.015625,0.125 -0.03125,0.203125 L 3.421875,-1.5 C 3.1875,-0.53125 2.515625,0 2,0 1.734375,0 1.203125,-0.09375 1.046875,-0.625 c 0.03125,0.015625 0.09375,0.015625 0.125,0.015625 0.390625,0 0.640625,-0.34375 0.640625,-0.640625 0,-0.3125 -0.265625,-0.421875 -0.4375,-0.421875 -0.171875,0 -0.671875,0.125 -0.671875,0.796875 0,0.625 0.53125,1.09375 1.328125,1.09375 0.90625,0 1.953125,-0.65625 2.203125,-1.640625 z m 0,0"
           id="path7694" />
      </symbol>
      <symbol
         overflow="visible"
         id="symbol4984">
        <path
           style="stroke:none"
           d=""
           id="path60" />
      </symbol>
      <symbol
         overflow="visible"
         id="symbol9603">
        <path
           style="stroke:none"
           d="m 2.25,-1.734375 c 0.578125,-0.25 0.828125,-0.34375 1,-0.4375 0.140625,-0.046875 0.203125,-0.078125 0.203125,-0.21875 0,-0.109375 -0.09375,-0.21875 -0.21875,-0.21875 -0.046875,0 -0.0625,0 -0.140625,0.0625 L 2.140625,-1.90625 2.25,-2.9375 c 0.015625,-0.125 0,-0.296875 -0.21875,-0.296875 -0.078125,0 -0.21875,0.046875 -0.21875,0.203125 0,0.0625 0.03125,0.265625 0.046875,0.34375 0.015625,0.109375 0.0625,0.625 0.078125,0.78125 L 0.984375,-2.546875 c -0.0625,-0.03125 -0.078125,-0.0625 -0.140625,-0.0625 -0.140625,0 -0.21875,0.109375 -0.21875,0.21875 0,0.140625 0.078125,0.1875 0.140625,0.203125 L 1.8125,-1.734375 c -0.5625,0.25 -0.828125,0.34375 -1,0.421875 -0.125,0.0625 -0.1875,0.09375 -0.1875,0.21875 0,0.125 0.078125,0.21875 0.21875,0.21875 0.046875,0 0.0625,0 0.140625,-0.0625 l 0.953125,-0.625 -0.125,1.109375 c 0,0.15625 0.140625,0.21875 0.21875,0.21875 0.09375,0 0.21875,-0.0625 0.21875,-0.21875 0,-0.0625 -0.03125,-0.265625 -0.03125,-0.328125 -0.015625,-0.125 -0.0625,-0.625 -0.078125,-0.78125 L 2.96875,-1.015625 C 3.15625,-0.875 3.171875,-0.875 3.234375,-0.875 c 0.125,0 0.21875,-0.09375 0.21875,-0.21875 0,-0.140625 -0.09375,-0.171875 -0.15625,-0.203125 z m 0,0"
           id="path2581" />
      </symbol>
      <symbol
         overflow="visible"
         id="symbol8159">
        <path
           style="stroke:none"
           d=""
           id="path2881" />
      </symbol>
      <symbol
         overflow="visible"
         id="symbol4482">
        <path
           style="stroke:none"
           d="m 6.84375,-3.265625 c 0.15625,0 0.34375,0 0.34375,-0.1875 C 7.1875,-3.65625 7,-3.65625 6.859375,-3.65625 h -5.96875 c -0.140625,0 -0.328125,0 -0.328125,0.203125 0,0.1875 0.1875,0.1875 0.328125,0.1875 z m 0.015625,1.9375 c 0.140625,0 0.328125,0 0.328125,-0.203125 0,-0.1875 -0.1875,-0.1875 -0.34375,-0.1875 H 0.890625 c -0.140625,0 -0.328125,0 -0.328125,0.1875 0,0.203125 0.1875,0.203125 0.328125,0.203125 z m 0,0"
           id="path9622" />
      </symbol>
      <symbol
         overflow="visible"
         id="symbol5784">
        <path
           style="stroke:none"
           d="m 4.578125,-3.1875 c 0,-0.796875 -0.046875,-1.59375 -0.390625,-2.328125 -0.453125,-0.96875 -1.28125,-1.125 -1.6875,-1.125 -0.609375,0 -1.328125,0.265625 -1.75,1.1875 -0.3125,0.6875 -0.359375,1.46875 -0.359375,2.265625 0,0.75 0.03125,1.640625 0.453125,2.40625 0.421875,0.796875 1.15625,1 1.640625,1 0.53125,0 1.296875,-0.203125 1.734375,-1.15625 0.3125,-0.6875 0.359375,-1.46875 0.359375,-2.25 z M 2.484375,0 C 2.09375,0 1.5,-0.25 1.328125,-1.203125 1.21875,-1.796875 1.21875,-2.71875 1.21875,-3.3125 c 0,-0.640625 0,-1.296875 0.078125,-1.828125 0.1875,-1.1875 0.9375,-1.28125 1.1875,-1.28125 0.328125,0 0.984375,0.1875 1.171875,1.171875 0.109375,0.5625 0.109375,1.3125 0.109375,1.9375 0,0.75 0,1.421875 -0.109375,2.0625 C 3.5,-0.296875 2.9375,0 2.484375,0 Z m 0,0"
           id="path3888" />
      </symbol>
    </g>
  </defs>
  <sodipodi:namedview
     id="base"
     pagecolor="#ffffff"
     bordercolor="#666666"
     borderopacity="1.0"
     inkscape:pageopacity="0.0"
     inkscape:pageshadow="2"
     inkscape:zoom="0.35"
     inkscape:cx="434.59115"
     inkscape:cy="417.53823"
     inkscape:document-units="mm"
     inkscape:current-layer="layer1"
     inkscape:document-rotation="0"
     showgrid="false"
     inkscape:snap-global="false" />
  <metadata
     id="metadata5">
    <rdf:RDF>
      <cc:Work
         rdf:about="">
        <dc:format>image/svg+xml</dc:format>
        <dc:type
           rdf:resource="http://purl.org/dc/dcmitype/StillImage" />
        <dc:title></dc:title>
      </cc:Work>
    </rdf:RDF>
  </metadata>
  <g
     inkscape:label="Layer 1"
     inkscape:groupmode="layer"
     id="layer1"
     transform="translate(-0.51548355,-37.69301)">
    <path
       style="fill:none;stroke:#000000;stroke-width:1;stroke-linecap:butt;stroke-linejoin:miter;stroke-miterlimit:4;stroke-dasharray:none;stroke-opacity:1"
       d="m 17.945679,37.69301 c 0,150.58868 0,153.78542 0,153.78542"
       id="path10"
       inkscape:export-xdpi="248.64"
       inkscape:export-ydpi="248.64" />
    <path
       style="fill:none;stroke:#000000;stroke-width:1;stroke-linecap:butt;stroke-linejoin:miter;stroke-miterlimit:4;stroke-dasharray:none;stroke-opacity:1"
       d="m 171.7311,191.47843 c -150.588681,0 -153.785421,0 -153.785421,0"
       id="path10-3"
       inkscape:export-xdpi="248.64"
       inkscape:export-ydpi="248.64" />
    <path
       style="fill:none;stroke:#ff0000;stroke-width:1;stroke-linecap:butt;stroke-linejoin:miter;stroke-miterlimit:4;stroke-dasharray:2, 2;stroke-dashoffset:0;stroke-opacity:1"
       d="M 17.891983,191.53213 C 139.94082,69.483284 139.94082,69.483284 139.94082,69.483284"
       id="path855"
       inkscape:export-xdpi="248.64"
       inkscape:export-ydpi="248.64" />
    <g
       inkscape:label=""
       transform="matrix(0,-1.2706139,1.2706139,0,-92.587957,249.18303)"
       id="g890"
       inkscape:export-xdpi="248.64"
       inkscape:export-ydpi="248.64">
      <g
         id="g176">
        <g
           style="fill:#000000;fill-opacity:1"
           id="g1044">
          <use
             xlink:href="#symbol3699"
             x="93.121002"
             y="78.040001"
             id="use5784"
             width="100%"
             height="100%" />
        </g>
        <path
           style="fill:none;stroke:#000000;stroke-width:0.398;stroke-linecap:butt;stroke-linejoin:miter;stroke-miterlimit:10;stroke-opacity:1"
           d="M 9.375e-5,-6.5625e-4 H 6.730563"
           transform="matrix(1,0,0,-1,93.121,79.472)"
           id="path9558" />
        <g
           style="fill:#000000;fill-opacity:1"
           id="g5920">
          <use
             xlink:href="#symbol9859"
             x="94.499001"
             y="85.398003"
             id="use2582"
             width="100%"
             height="100%" />
        </g>
        <g
           style="fill:#000000;fill-opacity:1"
           id="g5713">
          <use
             xlink:href="#symbol4216"
             x="103.259"
             y="81.962997"
             id="use3145"
             width="100%"
             height="100%" />
        </g>
        <g
           style="fill:#000000;fill-opacity:1"
           id="g1731">
          <use
             xlink:href="#symbol5878"
             x="113.221"
             y="81.962997"
             id="use4736"
             width="100%"
             height="100%" />
        </g>
      </g>
    </g>
    <g
       inkscape:label=""
       transform="matrix(0.8984597,-0.8984597,0.8984597,0.8984597,-60.009206,110.49049)"
       id="g1068"
       style="stroke:none;stroke-opacity:1"
       inkscape:export-xdpi="248.64"
       inkscape:export-ydpi="248.64">
      <g
         id="g9561"
         style="stroke:none;stroke-opacity:1">
        <g
           style="fill:#000000;fill-opacity:1;stroke:none;stroke-opacity:1"
           id="g9401">
          <use
             xlink:href="#symbol5288"
             x="93.121002"
             y="78.040001"
             id="use3969"
             width="100%"
             height="100%"
             style="stroke:none;stroke-opacity:1" />
        </g>
        <path
           style="fill:none;stroke:none;stroke-width:0.398;stroke-linecap:butt;stroke-linejoin:miter;stroke-miterlimit:10;stroke-opacity:1"
           d="M 9.375e-5,-6.5625e-4 H 6.730563"
           transform="matrix(1,0,0,-1,93.121,79.472)"
           id="path2588" />
        <g
           style="fill:#000000;fill-opacity:1;stroke:none;stroke-opacity:1"
           id="g9759">
          <use
             xlink:href="#symbol5655"
             x="94.499001"
             y="85.398003"
             id="use2240"
             width="100%"
             height="100%"
             style="stroke:none;stroke-opacity:1" />
        </g>
        <g
           style="fill:#000000;fill-opacity:1;stroke:none;stroke-opacity:1"
           id="g8552">
          <use
             xlink:href="#symbol1110"
             x="103.259"
             y="81.962997"
             id="use9159"
             width="100%"
             height="100%"
             style="stroke:none;stroke-opacity:1" />
        </g>
        <g
           style="fill:#000000;fill-opacity:1;stroke:none;stroke-opacity:1"
           id="g4006">
          <use
             xlink:href="#symbol3526"
             x="113.221"
             y="81.962997"
             id="use7239"
             width="100%"
             height="100%"
             style="stroke:none;stroke-opacity:1" />
        </g>
        <g
           style="fill:#000000;fill-opacity:1;stroke:none;stroke-opacity:1"
           id="g6866">
          <use
             xlink:href="#symbol1110"
             x="121.994"
             y="81.962997"
             id="use6343"
             width="100%"
             height="100%"
             style="stroke:none;stroke-opacity:1" />
        </g>
        <g
           style="fill:#000000;fill-opacity:1;stroke:none;stroke-opacity:1"
           id="g1300">
          <use
             xlink:href="#symbol1309"
             x="133.15199"
             y="78.040001"
             id="use6161"
             width="100%"
             height="100%"
             style="stroke:none;stroke-opacity:1" />
        </g>
        <path
           style="fill:none;stroke:none;stroke-width:0.398;stroke-linecap:butt;stroke-linejoin:miter;stroke-miterlimit:10;stroke-opacity:1"
           d="M 3.4375e-4,-6.5625e-4 H 5.06675"
           transform="matrix(1,0,0,-1,133.152,79.472)"
           id="path7075" />
        <g
           style="fill:#000000;fill-opacity:1;stroke:none;stroke-opacity:1"
           id="g6069">
          <use
             xlink:href="#symbol8202"
             x="133.69901"
             y="85.398003"
             id="use8031"
             width="100%"
             height="100%"
             style="stroke:none;stroke-opacity:1" />
        </g>
        <g
           style="fill:#000000;fill-opacity:1;stroke:none;stroke-opacity:1"
           id="g8052">
          <use
             xlink:href="#symbol870"
             x="142.181"
             y="81.962997"
             id="use9672"
             width="100%"
             height="100%"
             style="stroke:none;stroke-opacity:1" />
        </g>
        <g
           style="fill:#000000;fill-opacity:1;stroke:none;stroke-opacity:1"
           id="g215">
          <use
             xlink:href="#symbol7994"
             x="152.69951"
             y="81.962997"
             id="use7533"
             width="100%"
             height="100%"
             style="stroke:none;stroke-opacity:1" />
        </g>
      </g>
    </g>
    <g
       inkscape:label=""
       transform="matrix(1.2706139,0,0,1.2706139,38.635413,102.652)"
       id="g1228"
       inkscape:export-xdpi="248.64"
       inkscape:export-ydpi="248.64">
      <g
         id="g289">
        <g
           style="fill:#000000;fill-opacity:1"
           id="g688">
          <use
             xlink:href="#symbol604"
             x="93.121002"
             y="78.040001"
             id="use7280"
             width="100%"
             height="100%" />
        </g>
        <path
           style="fill:none;stroke:#000000;stroke-width:0.398;stroke-linecap:butt;stroke-linejoin:miter;stroke-miterlimit:10;stroke-opacity:1"
           d="M 9.375e-5,-6.5625e-4 H 5.0665"
           transform="matrix(1,0,0,-1,93.121,79.472)"
           id="path9387" />
        <g
           style="fill:#000000;fill-opacity:1"
           id="g9270">
          <use
             xlink:href="#symbol5292"
             x="93.667999"
             y="85.398003"
             id="use4435"
             width="100%"
             height="100%" />
        </g>
      </g>
    </g>
    <g
       inkscape:label=""
       transform="matrix(1.3691319,0,0,1.3691319,-97.363178,-36.829081)"
       id="g1376"
       inkscape:export-xdpi="248.64"
       inkscape:export-ydpi="248.64">
      <g
         id="g7786">
        <g
           style="fill:#000000;fill-opacity:1"
           id="g5607">
          <use
             xlink:href="#symbol3933"
             x="91.925003"
             y="81.962997"
             id="use2900"
             width="100%"
             height="100%" />
        </g>
        <g
           style="fill:#000000;fill-opacity:1"
           id="g403">
          <use
             xlink:href="#symbol842"
             x="98.407997"
             y="78.348"
             id="use9258"
             width="100%"
             height="100%" />
        </g>
        <g
           style="fill:#000000;fill-opacity:1"
           id="g5259">
          <use
             xlink:href="#symbol5506"
             x="105.755"
             y="81.962997"
             id="use7431"
             width="100%"
             height="100%" />
        </g>
        <g
           style="fill:#000000;fill-opacity:1"
           id="g4152">
          <use
             xlink:href="#symbol8914"
             x="116.271"
             y="81.962997"
             id="use3139"
             width="100%"
             height="100%" />
        </g>
      </g>
    </g>
    <g
       inkscape:label=""
       transform="matrix(1.3691319,0,0,1.3691319,-9.9004011,63.051312)"
       id="g1558"
       inkscape:export-xdpi="248.64"
       inkscape:export-ydpi="248.64">
      <g
         id="g3934">
        <g
           style="fill:#000000;fill-opacity:1"
           id="g8273">
          <use
             xlink:href="#symbol2672"
             x="91.925003"
             y="81.962997"
             id="use6615"
             width="100%"
             height="100%" />
        </g>
        <g
           style="fill:#000000;fill-opacity:1"
           id="g4153">
          <use
             xlink:href="#symbol9603"
             x="98.407997"
             y="78.348"
             id="use8452"
             width="100%"
             height="100%" />
        </g>
        <g
           style="fill:#000000;fill-opacity:1"
           id="g2679">
          <use
             xlink:href="#symbol4482"
             x="105.755"
             y="81.962997"
             id="use5388"
             width="100%"
             height="100%" />
        </g>
        <g
           style="fill:#000000;fill-opacity:1"
           id="g8201">
          <use
             xlink:href="#symbol5784"
             x="116.27351"
             y="81.962997"
             id="use654"
             width="100%"
             height="100%" />
        </g>
      </g>
    </g>
  </g>
</svg>
