<?xml version="1.0" encoding="UTF-8" standalone="no"?>
<!-- Created with Inkscape (http://www.inkscape.org/) -->

<svg
   width="185.71823mm"
   height="64.572586mm"
   viewBox="0 0 185.71823 64.572588"
   version="1.1"
   id="svg881"
   sodipodi:docname="hubbard_bands.svg"
   inkscape:version="1.1.2 (0a00cf5339, 2022-02-04, custom)"
   xmlns:inkscape="http://www.inkscape.org/namespaces/inkscape"
   xmlns:sodipodi="http://sodipodi.sourceforge.net/DTD/sodipodi-0.dtd"
   xmlns="http://www.w3.org/2000/svg"
   xmlns:svg="http://www.w3.org/2000/svg"
   xmlns:ns4="http://www.iki.fi/pav/software/textext/">
  <sodipodi:namedview
     id="namedview883"
     pagecolor="#505050"
     bordercolor="#eeeeee"
     borderopacity="1"
     inkscape:pageshadow="0"
     inkscape:pageopacity="0"
     inkscape:pagecheckerboard="0"
     inkscape:document-units="mm"
     showgrid="false"
     inkscape:snap-intersection-paths="true"
     inkscape:object-paths="true"
     inkscape:snap-midpoints="true"
     inkscape:snap-object-midpoints="true"
     inkscape:snap-center="true"
     inkscape:zoom="0.81334877"
     inkscape:cx="390.97619"
     inkscape:cy="418.6396"
     inkscape:window-width="1916"
     inkscape:window-height="1051"
     inkscape:window-x="0"
     inkscape:window-y="25"
     inkscape:window-maximized="1"
     inkscape:current-layer="layer1" />
  <defs
     id="defs878">
    <inkscape:path-effect
       effect="spiro"
       id="path-effect1288"
       is_visible="true"
       lpeversion="1" />
    <inkscape:path-effect
       effect="spiro"
       id="path-effect1000"
       is_visible="true"
       lpeversion="1" />
    <inkscape:path-effect
       effect="spiro"
       id="path-effect1000-3"
       is_visible="true"
       lpeversion="1" />
    <inkscape:path-effect
       effect="spiro"
       id="path-effect1000-7"
       is_visible="true"
       lpeversion="1" />
    <inkscape:path-effect
       effect="spiro"
       id="path-effect1000-35"
       is_visible="true"
       lpeversion="1" />
    <inkscape:path-effect
       effect="spiro"
       id="path-effect1288-9"
       is_visible="true"
       lpeversion="1" />
    <inkscape:path-effect
       effect="spiro"
       id="path-effect1288-2"
       is_visible="true"
       lpeversion="1" />
  </defs>
  <g
     inkscape:label="Layer 1"
     inkscape:groupmode="layer"
     id="layer1"
     transform="translate(-1.6751924,-81.223587)">
    <path
       style="fill:none;stroke:#000000;stroke-width:1;stroke-linecap:butt;stroke-linejoin:miter;stroke-miterlimit:4;stroke-dasharray:none;stroke-opacity:1"
       d="M 6.7299455,127.14186 H 50.547489"
       id="path998"
       inkscape:path-effect="#path-effect1000"
       inkscape:original-d="m 6.7299455,127.14186 c 14.6059195,2.7e-4 29.2117685,2.7e-4 43.8175435,0" />
    <path
       style="fill:none;stroke:#000000;stroke-width:1;stroke-linecap:butt;stroke-linejoin:miter;stroke-miterlimit:4;stroke-dasharray:none;stroke-opacity:1"
       d="M 50.547489,127.14186 H 94.365035"
       id="path998-6"
       inkscape:path-effect="#path-effect1000-3"
       inkscape:original-d="m 50.547489,127.14186 c 14.60592,2.7e-4 29.211766,2.7e-4 43.817546,0" />
    <path
       style="fill:none;stroke:#000000;stroke-width:1;stroke-linecap:butt;stroke-linejoin:miter;stroke-miterlimit:4;stroke-dasharray:none;stroke-opacity:1"
       d="M 94.365035,127.14186 H 138.18258"
       id="path998-5"
       inkscape:path-effect="#path-effect1000-7"
       inkscape:original-d="m 94.365035,127.14186 c 14.605925,2.7e-4 29.211765,2.7e-4 43.817545,0" />
    <path
       style="fill:none;stroke:#000000;stroke-width:1;stroke-linecap:butt;stroke-linejoin:miter;stroke-miterlimit:4;stroke-dasharray:none;stroke-opacity:1"
       d="m 138.18258,127.14186 h 43.81754"
       id="path998-62"
       inkscape:path-effect="#path-effect1000-35"
       inkscape:original-d="m 138.18258,127.14186 c 14.60592,2.7e-4 29.21176,2.7e-4 43.81754,0" />
    <path
       style="fill:none;stroke:#000000;stroke-width:1;stroke-linecap:butt;stroke-linejoin:miter;stroke-miterlimit:4;stroke-dasharray:none;stroke-opacity:1"
       d="m 50.547489,93.27249 v 33.86937"
       id="path1286"
       inkscape:path-effect="#path-effect1288"
       inkscape:original-d="m 50.547489,93.27249 c 2.65e-4,11.28992 2.65e-4,22.57971 0,33.86937" />
    <path
       style="fill:none;stroke:#000000;stroke-width:1;stroke-linecap:butt;stroke-linejoin:miter;stroke-miterlimit:4;stroke-dasharray:1, 1;stroke-dashoffset:0;stroke-opacity:1"
       d="m 94.365035,93.27249 v 33.86937"
       id="path1286-7"
       inkscape:path-effect="#path-effect1288-2"
       inkscape:original-d="m 94.365035,93.27249 c 2.65e-4,11.28992 2.65e-4,22.57971 0,33.86937" />
    <path
       style="fill:none;stroke:#000000;stroke-width:1;stroke-linecap:butt;stroke-linejoin:miter;stroke-miterlimit:4;stroke-dasharray:none;stroke-opacity:1"
       d="m 138.18258,93.27249 v 33.86937"
       id="path1286-1"
       inkscape:path-effect="#path-effect1288-9"
       inkscape:original-d="m 138.18258,93.27249 c 2.7e-4,11.28992 2.7e-4,22.57971 0,33.86937" />
    <g
       transform="matrix(0.881945,0,0,0.881945,141.172,114.949)"
       ns4:version="1.6.0"
       ns4:texconverter="pdflatex"
       ns4:pdfconverter="inkscape"
       ns4:text="$\\omega = \\frac{U}{2}$"
       ns4:preamble="/home/kirito/.config/inkscape/textext.tex"
       ns4:scale="2.5"
       ns4:alignment="middle center"
       ns4:stroke-to-path="0"
       ns4:jacobian_sqrt="0.881945"
       id="g1730">
      <defs
         id="defs1700">
        <g
           id="g1698">
          <symbol
             overflow="visible"
             id="symbol1668">
            <path
               style="stroke:none;stroke-width:0"
               d=""
               id="path1666" />
          </symbol>
          <symbol
             overflow="visible"
             id="symbol1672">
            <path
               style="stroke:none;stroke-width:0"
               d="m 6.03125,-3.703125 c 0,-0.453125 -0.171875,-0.703125 -0.40625,-0.703125 -0.25,0 -0.515625,0.234375 -0.515625,0.46875 0,0.09375 0.046875,0.203125 0.140625,0.296875 0.171875,0.15625 0.359375,0.421875 0.359375,0.84375 0,0.390625 -0.203125,0.96875 -0.5,1.421875 C 4.8125,-0.953125 4.4375,-0.609375 3.96875,-0.609375 3.40625,-0.609375 3.09375,-0.96875 3,-1.5 c 0.109375,-0.265625 0.34375,-0.90625 0.34375,-1.1875 0,-0.109375 -0.046875,-0.21875 -0.1875,-0.21875 -0.078125,0 -0.1875,0.03125 -0.265625,0.171875 C 2.78125,-2.53125 2.65625,-1.890625 2.65625,-1.53125 2.328125,-1.0625 1.9375,-0.609375 1.3125,-0.609375 c -0.671875,0 -0.875,-0.59375 -0.875,-1.140625 0,-1.25 1.015625,-2.296875 1.015625,-2.421875 0,-0.109375 -0.078125,-0.1875 -0.1875,-0.1875 -0.125,0 -0.203125,0.125 -0.265625,0.21875 -0.5,0.734375 -0.875,1.921875 -0.875,2.828125 0,0.6875 0.21875,1.421875 1.046875,1.421875 0.703125,0 1.171875,-0.5 1.53125,-1.046875 0.09375,0.578125 0.484375,1.046875 1.09375,1.046875 0.78125,0 1.25,-0.609375 1.609375,-1.359375 0.25,-0.484375 0.625,-1.84375 0.625,-2.453125 z m 0,0"
               id="path1670" />
          </symbol>
          <symbol
             overflow="visible"
             id="symbol1676">
            <path
               style="stroke:none;stroke-width:0"
               d=""
               id="path1674" />
          </symbol>
          <symbol
             overflow="visible"
             id="symbol1680">
            <path
               style="stroke:none;stroke-width:0"
               d="m 6.84375,-3.265625 c 0.15625,0 0.34375,0 0.34375,-0.1875 C 7.1875,-3.65625 7,-3.65625 6.859375,-3.65625 h -5.96875 c -0.140625,0 -0.328125,0 -0.328125,0.203125 0,0.1875 0.1875,0.1875 0.328125,0.1875 z m 0.015625,1.9375 c 0.140625,0 0.328125,0 0.328125,-0.203125 0,-0.1875 -0.1875,-0.1875 -0.34375,-0.1875 H 0.890625 c -0.140625,0 -0.328125,0 -0.328125,0.1875 0,0.203125 0.1875,0.203125 0.328125,0.203125 z m 0,0"
               id="path1678" />
          </symbol>
          <symbol
             overflow="visible"
             id="symbol1684">
            <path
               style="stroke:none;stroke-width:0"
               d=""
               id="path1682" />
          </symbol>
          <symbol
             overflow="visible"
             id="symbol1688">
            <path
               style="stroke:none;stroke-width:0"
               d="m 4.921875,-4 c 0.078125,-0.265625 0.1875,-0.5 0.75,-0.515625 0.03125,0 0.140625,0 0.140625,-0.140625 0,-0.046875 -0.046875,-0.109375 -0.109375,-0.109375 -0.21875,0 -0.484375,0.03125 -0.71875,0.03125 -0.234375,0 -0.53125,-0.03125 -0.734375,-0.03125 -0.03125,0 -0.140625,0 -0.140625,0.15625 0,0.09375 0.09375,0.09375 0.15625,0.09375 0.328125,0.015625 0.4375,0.125 0.4375,0.296875 0,0.03125 0,0.0625 0,0.09375 C 4.59375,-3.671875 4.078125,-1.578125 4,-1.359375 c -0.390625,0.890625 -1.21875,1.25 -1.78125,1.25 C 1.75,-0.109375 1.25,-0.34375 1.25,-1.03125 c 0,-0.171875 0.03125,-0.34375 0.0625,-0.5 L 2,-4.21875 c 0.0625,-0.234375 0.0625,-0.296875 0.609375,-0.296875 0.109375,0 0.203125,0 0.203125,-0.140625 0,-0.03125 -0.015625,-0.109375 -0.109375,-0.109375 -0.203125,0 -0.703125,0.03125 -0.90625,0.03125 -0.125,0 -0.375,0 -0.484375,0 C 1.171875,-4.75 1,-4.765625 0.875,-4.765625 c -0.046875,0 -0.15625,0 -0.15625,0.15625 0,0.09375 0.09375,0.09375 0.234375,0.09375 0,0 0.140625,0 0.265625,0.015625 0.140625,0.015625 0.15625,0.03125 0.15625,0.109375 0,0.03125 -0.078125,0.3125 -0.109375,0.453125 l -0.15625,0.625 -0.40625,1.59375 c -0.0625,0.28125 -0.0625,0.34375 -0.0625,0.484375 0,0.859375 0.71875,1.375 1.546875,1.375 0.96875,0 1.890625,-0.78125 2.125,-1.6875 z m 0,0"
               id="path1686" />
          </symbol>
          <symbol
             overflow="visible"
             id="symbol1692">
            <path
               style="stroke:none;stroke-width:0"
               d=""
               id="path1690" />
          </symbol>
          <symbol
             overflow="visible"
             id="symbol1696">
            <path
               style="stroke:none;stroke-width:0"
               d="M 3.515625,-1.265625 H 3.28125 c -0.015625,0.15625 -0.09375,0.5625 -0.1875,0.625 C 3.046875,-0.59375 2.515625,-0.59375 2.40625,-0.59375 H 1.125 c 0.734375,-0.640625 0.984375,-0.84375 1.390625,-1.171875 0.515625,-0.40625 1,-0.84375 1,-1.5 0,-0.84375 -0.734375,-1.359375 -1.625,-1.359375 -0.859375,0 -1.453125,0.609375 -1.453125,1.25 0,0.34375 0.296875,0.390625 0.375,0.390625 0.15625,0 0.359375,-0.125 0.359375,-0.375 0,-0.125 -0.046875,-0.375 -0.40625,-0.375 C 0.984375,-4.21875 1.453125,-4.375 1.78125,-4.375 c 0.703125,0 1.0625,0.546875 1.0625,1.109375 0,0.609375 -0.4375,1.078125 -0.65625,1.328125 L 0.515625,-0.265625 C 0.4375,-0.203125 0.4375,-0.1875 0.4375,0 h 2.875 z m 0,0"
               id="path1694" />
          </symbol>
        </g>
      </defs>
      <g
         id="g1728"
         transform="translate(-148.837,-126.076)">
        <g
           style="fill:#000000;fill-opacity:1"
           id="g1706">
          <g
             transform="translate(148.712,134.765)"
             id="g1704">
            <path
               style="stroke:none;stroke-width:0"
               d="m 6.03125,-3.703125 c 0,-0.453125 -0.171875,-0.703125 -0.40625,-0.703125 -0.25,0 -0.515625,0.234375 -0.515625,0.46875 0,0.09375 0.046875,0.203125 0.140625,0.296875 0.171875,0.15625 0.359375,0.421875 0.359375,0.84375 0,0.390625 -0.203125,0.96875 -0.5,1.421875 C 4.8125,-0.953125 4.4375,-0.609375 3.96875,-0.609375 3.40625,-0.609375 3.09375,-0.96875 3,-1.5 c 0.109375,-0.265625 0.34375,-0.90625 0.34375,-1.1875 0,-0.109375 -0.046875,-0.21875 -0.1875,-0.21875 -0.078125,0 -0.1875,0.03125 -0.265625,0.171875 C 2.78125,-2.53125 2.65625,-1.890625 2.65625,-1.53125 2.328125,-1.0625 1.9375,-0.609375 1.3125,-0.609375 c -0.671875,0 -0.875,-0.59375 -0.875,-1.140625 0,-1.25 1.015625,-2.296875 1.015625,-2.421875 0,-0.109375 -0.078125,-0.1875 -0.1875,-0.1875 -0.125,0 -0.203125,0.125 -0.265625,0.21875 -0.5,0.734375 -0.875,1.921875 -0.875,2.828125 0,0.6875 0.21875,1.421875 1.046875,1.421875 0.703125,0 1.171875,-0.5 1.53125,-1.046875 0.09375,0.578125 0.484375,1.046875 1.09375,1.046875 0.78125,0 1.25,-0.609375 1.609375,-1.359375 0.25,-0.484375 0.625,-1.84375 0.625,-2.453125 z m 0,0"
               id="path1702" />
          </g>
        </g>
        <g
           style="fill:#000000;fill-opacity:1"
           id="g1712">
          <g
             transform="translate(158.038,134.765)"
             id="g1710">
            <path
               style="stroke:none;stroke-width:0"
               d="m 6.84375,-3.265625 c 0.15625,0 0.34375,0 0.34375,-0.1875 C 7.1875,-3.65625 7,-3.65625 6.859375,-3.65625 h -5.96875 c -0.140625,0 -0.328125,0 -0.328125,0.203125 0,0.1875 0.1875,0.1875 0.328125,0.1875 z m 0.015625,1.9375 c 0.140625,0 0.328125,0 0.328125,-0.203125 0,-0.1875 -0.1875,-0.1875 -0.34375,-0.1875 H 0.890625 c -0.140625,0 -0.328125,0 -0.328125,0.1875 0,0.203125 0.1875,0.203125 0.328125,0.203125 z m 0,0"
               id="path1708" />
          </g>
        </g>
        <g
           style="fill:#000000;fill-opacity:1"
           id="g1718">
          <g
             transform="translate(169.75,130.842)"
             id="g1716">
            <path
               style="stroke:none;stroke-width:0"
               d="m 4.921875,-4 c 0.078125,-0.265625 0.1875,-0.5 0.75,-0.515625 0.03125,0 0.140625,0 0.140625,-0.140625 0,-0.046875 -0.046875,-0.109375 -0.109375,-0.109375 -0.21875,0 -0.484375,0.03125 -0.71875,0.03125 -0.234375,0 -0.53125,-0.03125 -0.734375,-0.03125 -0.03125,0 -0.140625,0 -0.140625,0.15625 0,0.09375 0.09375,0.09375 0.15625,0.09375 0.328125,0.015625 0.4375,0.125 0.4375,0.296875 0,0.03125 0,0.0625 0,0.09375 C 4.59375,-3.671875 4.078125,-1.578125 4,-1.359375 c -0.390625,0.890625 -1.21875,1.25 -1.78125,1.25 C 1.75,-0.109375 1.25,-0.34375 1.25,-1.03125 c 0,-0.171875 0.03125,-0.34375 0.0625,-0.5 L 2,-4.21875 c 0.0625,-0.234375 0.0625,-0.296875 0.609375,-0.296875 0.109375,0 0.203125,0 0.203125,-0.140625 0,-0.03125 -0.015625,-0.109375 -0.109375,-0.109375 -0.203125,0 -0.703125,0.03125 -0.90625,0.03125 -0.125,0 -0.375,0 -0.484375,0 C 1.171875,-4.75 1,-4.765625 0.875,-4.765625 c -0.046875,0 -0.15625,0 -0.15625,0.15625 0,0.09375 0.09375,0.09375 0.234375,0.09375 0,0 0.140625,0 0.265625,0.015625 0.140625,0.015625 0.15625,0.03125 0.15625,0.109375 0,0.03125 -0.078125,0.3125 -0.109375,0.453125 l -0.15625,0.625 -0.40625,1.59375 c -0.0625,0.28125 -0.0625,0.34375 -0.0625,0.484375 0,0.859375 0.71875,1.375 1.546875,1.375 0.96875,0 1.890625,-0.78125 2.125,-1.6875 z m 0,0"
               id="path1714" />
          </g>
        </g>
        <path
           style="fill:none;stroke:#000000;stroke-width:0.398;stroke-linecap:butt;stroke-linejoin:miter;stroke-miterlimit:10;stroke-opacity:1"
           d="M 0,5.625e-4 H 6.175781"
           transform="matrix(1,0,0,-1,169.75,132.274)"
           id="path1720" />
        <g
           style="fill:#000000;fill-opacity:1"
           id="g1726">
          <g
             transform="translate(170.852,138.2)"
             id="g1724">
            <path
               style="stroke:none;stroke-width:0"
               d="M 3.515625,-1.265625 H 3.28125 c -0.015625,0.15625 -0.09375,0.5625 -0.1875,0.625 C 3.046875,-0.59375 2.515625,-0.59375 2.40625,-0.59375 H 1.125 c 0.734375,-0.640625 0.984375,-0.84375 1.390625,-1.171875 0.515625,-0.40625 1,-0.84375 1,-1.5 0,-0.84375 -0.734375,-1.359375 -1.625,-1.359375 -0.859375,0 -1.453125,0.609375 -1.453125,1.25 0,0.34375 0.296875,0.390625 0.375,0.390625 0.15625,0 0.359375,-0.125 0.359375,-0.375 0,-0.125 -0.046875,-0.375 -0.40625,-0.375 C 0.984375,-4.21875 1.453125,-4.375 1.78125,-4.375 c 0.703125,0 1.0625,0.546875 1.0625,1.109375 0,0.609375 -0.4375,1.078125 -0.65625,1.328125 L 0.515625,-0.265625 C 0.4375,-0.203125 0.4375,-0.1875 0.4375,0 h 2.875 z m 0,0"
               id="path1722" />
          </g>
        </g>
      </g>
    </g>
    <g
       transform="matrix(0.881945,0,0,0.881945,17.104433,114.949)"
       ns4:version="1.6.0"
       ns4:texconverter="pdflatex"
       ns4:pdfconverter="inkscape"
       ns4:text="$\\omega = -\\frac{U}{2}$"
       ns4:preamble="/home/kirito/.config/inkscape/textext.tex"
       ns4:scale="2.5"
       ns4:alignment="middle center"
       ns4:stroke-to-path="0"
       ns4:jacobian_sqrt="0.881945"
       id="g1611">
      <defs
         id="id-2ffffb79-7905-4e4e-b670-08ff54c4167d">
        <g
           id="id-d3989711-4e8b-49d8-94fd-0466b8e03c1b">
          <symbol
             overflow="visible"
             id="id-d9bf8e68-659c-40a0-98f8-4a1c43e3719d">
            <path
               style="stroke:none"
               d=""
               id="id-225a4acc-6db4-4f71-810f-abca41831f82" />
          </symbol>
          <symbol
             overflow="visible"
             id="id-44b21e79-e175-4793-aba9-672b54bb5544">
            <path
               style="stroke:none"
               d="m 6.03125,-3.703125 c 0,-0.453125 -0.171875,-0.703125 -0.40625,-0.703125 -0.25,0 -0.515625,0.234375 -0.515625,0.46875 0,0.09375 0.046875,0.203125 0.140625,0.296875 0.171875,0.15625 0.359375,0.421875 0.359375,0.84375 0,0.390625 -0.203125,0.96875 -0.5,1.421875 C 4.8125,-0.953125 4.4375,-0.609375 3.96875,-0.609375 3.40625,-0.609375 3.09375,-0.96875 3,-1.5 c 0.109375,-0.265625 0.34375,-0.90625 0.34375,-1.1875 0,-0.109375 -0.046875,-0.21875 -0.1875,-0.21875 -0.078125,0 -0.1875,0.03125 -0.265625,0.171875 C 2.78125,-2.53125 2.65625,-1.890625 2.65625,-1.53125 2.328125,-1.0625 1.9375,-0.609375 1.3125,-0.609375 c -0.671875,0 -0.875,-0.59375 -0.875,-1.140625 0,-1.25 1.015625,-2.296875 1.015625,-2.421875 0,-0.109375 -0.078125,-0.1875 -0.1875,-0.1875 -0.125,0 -0.203125,0.125 -0.265625,0.21875 -0.5,0.734375 -0.875,1.921875 -0.875,2.828125 0,0.6875 0.21875,1.421875 1.046875,1.421875 0.703125,0 1.171875,-0.5 1.53125,-1.046875 0.09375,0.578125 0.484375,1.046875 1.09375,1.046875 0.78125,0 1.25,-0.609375 1.609375,-1.359375 0.25,-0.484375 0.625,-1.84375 0.625,-2.453125 z m 0,0"
               id="id-688b1551-37c8-42e6-b788-7f437fbb808c" />
          </symbol>
          <symbol
             overflow="visible"
             id="id-ea73a02c-5e99-46ea-8f0d-0265568a8c4d">
            <path
               style="stroke:none"
               d=""
               id="id-4bf6c706-de24-41a6-b344-1f640c89fc5f" />
          </symbol>
          <symbol
             overflow="visible"
             id="id-92a91aee-a2b9-4bf4-ba56-8cf2d7bf7548">
            <path
               style="stroke:none"
               d="m 6.84375,-3.265625 c 0.15625,0 0.34375,0 0.34375,-0.1875 C 7.1875,-3.65625 7,-3.65625 6.859375,-3.65625 h -5.96875 c -0.140625,0 -0.328125,0 -0.328125,0.203125 0,0.1875 0.1875,0.1875 0.328125,0.1875 z m 0.015625,1.9375 c 0.140625,0 0.328125,0 0.328125,-0.203125 0,-0.1875 -0.1875,-0.1875 -0.34375,-0.1875 H 0.890625 c -0.140625,0 -0.328125,0 -0.328125,0.1875 0,0.203125 0.1875,0.203125 0.328125,0.203125 z m 0,0"
               id="id-71e51a52-bcf6-43b8-aaf7-464ae559870e" />
          </symbol>
          <symbol
             overflow="visible"
             id="id-b8e00ad4-90a3-46f8-99e8-47132fe02545">
            <path
               style="stroke:none"
               d=""
               id="id-bbf49110-7de2-4e96-a476-09714c5de06c" />
          </symbol>
          <symbol
             overflow="visible"
             id="id-6f401aa8-08c4-4a64-92c4-78fddbf53845">
            <path
               style="stroke:none"
               d="m 6.5625,-2.296875 c 0.171875,0 0.359375,0 0.359375,-0.203125 0,-0.1875 -0.1875,-0.1875 -0.359375,-0.1875 H 1.171875 c -0.171875,0 -0.34375,0 -0.34375,0.1875 0,0.203125 0.171875,0.203125 0.34375,0.203125 z m 0,0"
               id="id-28013a6e-df86-4759-8a9a-809f227fe2c7" />
          </symbol>
          <symbol
             overflow="visible"
             id="id-e3390fdf-a467-4c25-92b0-89f1944ffd62">
            <path
               style="stroke:none"
               d=""
               id="id-35eb1dfa-e1b8-4e54-bafd-52c807b96440" />
          </symbol>
          <symbol
             overflow="visible"
             id="id-2ab388d7-cc7b-46a1-be71-949372e65d9e">
            <path
               style="stroke:none"
               d="m 4.921875,-4 c 0.078125,-0.265625 0.1875,-0.5 0.75,-0.515625 0.03125,0 0.140625,0 0.140625,-0.140625 0,-0.046875 -0.046875,-0.109375 -0.109375,-0.109375 -0.21875,0 -0.484375,0.03125 -0.71875,0.03125 -0.234375,0 -0.53125,-0.03125 -0.734375,-0.03125 -0.03125,0 -0.140625,0 -0.140625,0.15625 0,0.09375 0.09375,0.09375 0.15625,0.09375 0.328125,0.015625 0.4375,0.125 0.4375,0.296875 0,0.03125 0,0.0625 0,0.09375 C 4.59375,-3.671875 4.078125,-1.578125 4,-1.359375 c -0.390625,0.890625 -1.21875,1.25 -1.78125,1.25 C 1.75,-0.109375 1.25,-0.34375 1.25,-1.03125 c 0,-0.171875 0.03125,-0.34375 0.0625,-0.5 L 2,-4.21875 c 0.0625,-0.234375 0.0625,-0.296875 0.609375,-0.296875 0.109375,0 0.203125,0 0.203125,-0.140625 0,-0.03125 -0.015625,-0.109375 -0.109375,-0.109375 -0.203125,0 -0.703125,0.03125 -0.90625,0.03125 -0.125,0 -0.375,0 -0.484375,0 C 1.171875,-4.75 1,-4.765625 0.875,-4.765625 c -0.046875,0 -0.15625,0 -0.15625,0.15625 0,0.09375 0.09375,0.09375 0.234375,0.09375 0,0 0.140625,0 0.265625,0.015625 0.140625,0.015625 0.15625,0.03125 0.15625,0.109375 0,0.03125 -0.078125,0.3125 -0.109375,0.453125 l -0.15625,0.625 -0.40625,1.59375 c -0.0625,0.28125 -0.0625,0.34375 -0.0625,0.484375 0,0.859375 0.71875,1.375 1.546875,1.375 0.96875,0 1.890625,-0.78125 2.125,-1.6875 z m 0,0"
               id="id-2cd88ad5-ceee-4304-8ae3-d9a1da6fabd7" />
          </symbol>
          <symbol
             overflow="visible"
             id="id-e2b13cb5-d049-432f-a936-f10405872d1d">
            <path
               style="stroke:none"
               d=""
               id="id-25080742-84dc-46d1-9e78-3db166906383" />
          </symbol>
          <symbol
             overflow="visible"
             id="id-ce03084d-fe9d-4580-bd1d-4acb3f4d5039">
            <path
               style="stroke:none"
               d="M 3.515625,-1.265625 H 3.28125 c -0.015625,0.15625 -0.09375,0.5625 -0.1875,0.625 C 3.046875,-0.59375 2.515625,-0.59375 2.40625,-0.59375 H 1.125 c 0.734375,-0.640625 0.984375,-0.84375 1.390625,-1.171875 0.515625,-0.40625 1,-0.84375 1,-1.5 0,-0.84375 -0.734375,-1.359375 -1.625,-1.359375 -0.859375,0 -1.453125,0.609375 -1.453125,1.25 0,0.34375 0.296875,0.390625 0.375,0.390625 0.15625,0 0.359375,-0.125 0.359375,-0.375 0,-0.125 -0.046875,-0.375 -0.40625,-0.375 C 0.984375,-4.21875 1.453125,-4.375 1.78125,-4.375 c 0.703125,0 1.0625,0.546875 1.0625,1.109375 0,0.609375 -0.4375,1.078125 -0.65625,1.328125 L 0.515625,-0.265625 C 0.4375,-0.203125 0.4375,-0.1875 0.4375,0 h 2.875 z m 0,0"
               id="id-93c004af-acf3-47bc-92f6-cf080f3c2da9" />
          </symbol>
        </g>
      </defs>
      <g
         id="id-43adeb7a-3088-425f-850d-39f7e7e5085b"
         transform="translate(-148.837,-126.076)">
        <g
           style="fill:#000000;fill-opacity:1"
           id="id-42053a99-fad3-4147-bc14-3c7fe0cdb3b1">
          <g
             transform="translate(148.712,134.765)"
             id="g2099">
            <path
               style="stroke:none"
               d="m 6.03125,-3.703125 c 0,-0.453125 -0.171875,-0.703125 -0.40625,-0.703125 -0.25,0 -0.515625,0.234375 -0.515625,0.46875 0,0.09375 0.046875,0.203125 0.140625,0.296875 0.171875,0.15625 0.359375,0.421875 0.359375,0.84375 0,0.390625 -0.203125,0.96875 -0.5,1.421875 C 4.8125,-0.953125 4.4375,-0.609375 3.96875,-0.609375 3.40625,-0.609375 3.09375,-0.96875 3,-1.5 c 0.109375,-0.265625 0.34375,-0.90625 0.34375,-1.1875 0,-0.109375 -0.046875,-0.21875 -0.1875,-0.21875 -0.078125,0 -0.1875,0.03125 -0.265625,0.171875 C 2.78125,-2.53125 2.65625,-1.890625 2.65625,-1.53125 2.328125,-1.0625 1.9375,-0.609375 1.3125,-0.609375 c -0.671875,0 -0.875,-0.59375 -0.875,-1.140625 0,-1.25 1.015625,-2.296875 1.015625,-2.421875 0,-0.109375 -0.078125,-0.1875 -0.1875,-0.1875 -0.125,0 -0.203125,0.125 -0.265625,0.21875 -0.5,0.734375 -0.875,1.921875 -0.875,2.828125 0,0.6875 0.21875,1.421875 1.046875,1.421875 0.703125,0 1.171875,-0.5 1.53125,-1.046875 0.09375,0.578125 0.484375,1.046875 1.09375,1.046875 0.78125,0 1.25,-0.609375 1.609375,-1.359375 0.25,-0.484375 0.625,-1.84375 0.625,-2.453125 z m 0,0"
               id="id-c3098ab5-77a0-4d14-ae0f-5c7309c375bd" />
          </g>
        </g>
        <g
           style="fill:#000000;fill-opacity:1"
           id="id-2c32d1f9-91fc-42c7-a231-d2c194c349a4">
          <g
             transform="translate(158.038,134.765)"
             id="g2103">
            <path
               style="stroke:none"
               d="m 6.84375,-3.265625 c 0.15625,0 0.34375,0 0.34375,-0.1875 C 7.1875,-3.65625 7,-3.65625 6.859375,-3.65625 h -5.96875 c -0.140625,0 -0.328125,0 -0.328125,0.203125 0,0.1875 0.1875,0.1875 0.328125,0.1875 z m 0.015625,1.9375 c 0.140625,0 0.328125,0 0.328125,-0.203125 0,-0.1875 -0.1875,-0.1875 -0.34375,-0.1875 H 0.890625 c -0.140625,0 -0.328125,0 -0.328125,0.1875 0,0.203125 0.1875,0.203125 0.328125,0.203125 z m 0,0"
               id="id-3ea18d7e-0aae-4f2c-b807-d0780de46f2c" />
          </g>
        </g>
        <g
           style="fill:#000000;fill-opacity:1"
           id="id-05ee4fc4-f64a-42e6-8ce2-daa0a4523877">
          <g
             transform="translate(168.554,134.765)"
             id="g2107">
            <path
               style="stroke:none"
               d="m 6.5625,-2.296875 c 0.171875,0 0.359375,0 0.359375,-0.203125 0,-0.1875 -0.1875,-0.1875 -0.359375,-0.1875 H 1.171875 c -0.171875,0 -0.34375,0 -0.34375,0.1875 0,0.203125 0.171875,0.203125 0.34375,0.203125 z m 0,0"
               id="id-d34ec30e-3e98-4949-8024-e31e5fb40d83" />
          </g>
        </g>
        <g
           style="fill:#000000;fill-opacity:1"
           id="id-f4060733-1123-4785-9a72-651e439825a5">
          <g
             transform="translate(177.499,130.842)"
             id="g2111">
            <path
               style="stroke:none"
               d="m 4.921875,-4 c 0.078125,-0.265625 0.1875,-0.5 0.75,-0.515625 0.03125,0 0.140625,0 0.140625,-0.140625 0,-0.046875 -0.046875,-0.109375 -0.109375,-0.109375 -0.21875,0 -0.484375,0.03125 -0.71875,0.03125 -0.234375,0 -0.53125,-0.03125 -0.734375,-0.03125 -0.03125,0 -0.140625,0 -0.140625,0.15625 0,0.09375 0.09375,0.09375 0.15625,0.09375 0.328125,0.015625 0.4375,0.125 0.4375,0.296875 0,0.03125 0,0.0625 0,0.09375 C 4.59375,-3.671875 4.078125,-1.578125 4,-1.359375 c -0.390625,0.890625 -1.21875,1.25 -1.78125,1.25 C 1.75,-0.109375 1.25,-0.34375 1.25,-1.03125 c 0,-0.171875 0.03125,-0.34375 0.0625,-0.5 L 2,-4.21875 c 0.0625,-0.234375 0.0625,-0.296875 0.609375,-0.296875 0.109375,0 0.203125,0 0.203125,-0.140625 0,-0.03125 -0.015625,-0.109375 -0.109375,-0.109375 -0.203125,0 -0.703125,0.03125 -0.90625,0.03125 -0.125,0 -0.375,0 -0.484375,0 C 1.171875,-4.75 1,-4.765625 0.875,-4.765625 c -0.046875,0 -0.15625,0 -0.15625,0.15625 0,0.09375 0.09375,0.09375 0.234375,0.09375 0,0 0.140625,0 0.265625,0.015625 0.140625,0.015625 0.15625,0.03125 0.15625,0.109375 0,0.03125 -0.078125,0.3125 -0.109375,0.453125 l -0.15625,0.625 -0.40625,1.59375 c -0.0625,0.28125 -0.0625,0.34375 -0.0625,0.484375 0,0.859375 0.71875,1.375 1.546875,1.375 0.96875,0 1.890625,-0.78125 2.125,-1.6875 z m 0,0"
               id="id-3d31de1f-8f3c-4321-8294-64dc126da86e" />
          </g>
        </g>
        <path
           style="fill:none;stroke:#000000;stroke-width:0.398;stroke-linecap:butt;stroke-linejoin:miter;stroke-miterlimit:10;stroke-opacity:1"
           d="M 0.001,5.625e-4 H 6.176781"
           transform="matrix(1,0,0,-1,177.499,132.274)"
           id="id-936acdc5-a632-482d-bb32-6d594dd6a6fc" />
        <g
           style="fill:#000000;fill-opacity:1"
           id="id-29719cea-4436-45b6-9ea4-b95fd829d4d9">
          <g
             transform="translate(178.601,138.2)"
             id="g2116">
            <path
               style="stroke:none"
               d="M 3.515625,-1.265625 H 3.28125 c -0.015625,0.15625 -0.09375,0.5625 -0.1875,0.625 C 3.046875,-0.59375 2.515625,-0.59375 2.40625,-0.59375 H 1.125 c 0.734375,-0.640625 0.984375,-0.84375 1.390625,-1.171875 0.515625,-0.40625 1,-0.84375 1,-1.5 0,-0.84375 -0.734375,-1.359375 -1.625,-1.359375 -0.859375,0 -1.453125,0.609375 -1.453125,1.25 0,0.34375 0.296875,0.390625 0.375,0.390625 0.15625,0 0.359375,-0.125 0.359375,-0.375 0,-0.125 -0.046875,-0.375 -0.40625,-0.375 C 0.984375,-4.21875 1.453125,-4.375 1.78125,-4.375 c 0.703125,0 1.0625,0.546875 1.0625,1.109375 0,0.609375 -0.4375,1.078125 -0.65625,1.328125 L 0.515625,-0.265625 C 0.4375,-0.203125 0.4375,-0.1875 0.4375,0 h 2.875 z m 0,0"
               id="id-e3fe40b3-926b-4c74-b4ac-f76e522d7337" />
          </g>
        </g>
      </g>
    </g>
    <g
       transform="matrix(0.881945,0,0,0.881945,41.75108,85.727398)"
       ns4:version="1.6.0"
       ns4:texconverter="pdflatex"
       ns4:pdfconverter="inkscape"
       ns4:text="$1+x$"
       ns4:preamble="/home/kirito/.config/inkscape/textext.tex"
       ns4:scale="2.5"
       ns4:alignment="middle center"
       ns4:stroke-to-path="0"
       ns4:jacobian_sqrt="0.881945"
       id="g2382">
      <defs
         id="id-894e4522-08c5-4674-a8f3-3e3da9f042c0">
        <g
           id="id-1a146a61-8377-41ed-a2e9-dd32265bb5fa">
          <symbol
             overflow="visible"
             id="id-6161ffcc-dd27-410c-9fbf-bb804d08a66e">
            <path
               style="stroke:none;stroke-width:0"
               d=""
               id="id-b7d4b1e1-dcab-4b36-9a57-9ed5eb72bab6" />
          </symbol>
          <symbol
             overflow="visible"
             id="id-4f429f59-74f5-43ba-94c1-139b1eea3fd9">
            <path
               style="stroke:none;stroke-width:0"
               d="m 2.9375,-6.375 c 0,-0.25 0,-0.265625 -0.234375,-0.265625 C 2.078125,-6 1.203125,-6 0.890625,-6 v 0.3125 c 0.203125,0 0.78125,0 1.296875,-0.265625 v 5.171875 c 0,0.359375 -0.03125,0.46875 -0.921875,0.46875 h -0.3125 V 0 c 0.34375,-0.03125 1.203125,-0.03125 1.609375,-0.03125 0.390625,0 1.265625,0 1.609375,0.03125 v -0.3125 h -0.3125 c -0.90625,0 -0.921875,-0.109375 -0.921875,-0.46875 z m 0,0"
               id="id-67b3bf32-da30-4700-ab3c-35382722a4f7" />
          </symbol>
          <symbol
             overflow="visible"
             id="id-544396e5-45fd-4f93-b50e-47836081735f">
            <path
               style="stroke:none;stroke-width:0"
               d="m 4.078125,-2.296875 h 2.78125 C 7,-2.296875 7.1875,-2.296875 7.1875,-2.5 7.1875,-2.6875 7,-2.6875 6.859375,-2.6875 h -2.78125 v -2.796875 c 0,-0.140625 0,-0.328125 -0.203125,-0.328125 -0.203125,0 -0.203125,0.1875 -0.203125,0.328125 V -2.6875 h -2.78125 c -0.140625,0 -0.328125,0 -0.328125,0.1875 0,0.203125 0.1875,0.203125 0.328125,0.203125 h 2.78125 V 0.5 c 0,0.140625 0,0.328125 0.203125,0.328125 0.203125,0 0.203125,-0.1875 0.203125,-0.328125 z m 0,0"
               id="id-d25e8f51-86a3-43f0-b286-8a83e42bcf5f" />
          </symbol>
          <symbol
             overflow="visible"
             id="id-798e8f0e-3d81-4b53-9482-8f9b0d8e369d">
            <path
               style="stroke:none;stroke-width:0"
               d=""
               id="id-70aca28c-fc50-42ca-bd93-591035de9983" />
          </symbol>
          <symbol
             overflow="visible"
             id="id-dd2c7fa1-47bf-4865-bf95-8a376e8e8e44">
            <path
               style="stroke:none;stroke-width:0"
               d="M 3.328125,-3.015625 C 3.390625,-3.265625 3.625,-4.1875 4.3125,-4.1875 c 0.046875,0 0.296875,0 0.5,0.125 C 4.53125,-4 4.34375,-3.765625 4.34375,-3.515625 c 0,0.15625 0.109375,0.34375 0.375,0.34375 0.21875,0 0.53125,-0.171875 0.53125,-0.578125 0,-0.515625 -0.578125,-0.65625 -0.921875,-0.65625 -0.578125,0 -0.921875,0.53125 -1.046875,0.75 -0.25,-0.65625 -0.78125,-0.75 -1.078125,-0.75 -1.03125,0 -1.609375,1.28125 -1.609375,1.53125 0,0.109375 0.109375,0.109375 0.125,0.109375 0.078125,0 0.109375,-0.03125 0.125,-0.109375 0.34375,-1.0625 1,-1.3125 1.34375,-1.3125 0.1875,0 0.53125,0.09375 0.53125,0.671875 0,0.3125 -0.171875,0.96875 -0.53125,2.375 -0.15625,0.609375 -0.515625,1.03125 -0.953125,1.03125 -0.0625,0 -0.28125,0 -0.5,-0.125 0.25,-0.0625 0.46875,-0.265625 0.46875,-0.546875 0,-0.265625 -0.21875,-0.34375 -0.359375,-0.34375 -0.3125,0 -0.546875,0.25 -0.546875,0.578125 0,0.453125 0.484375,0.65625 0.921875,0.65625 0.671875,0 1.03125,-0.703125 1.046875,-0.75 0.125,0.359375 0.484375,0.75 1.078125,0.75 1.03125,0 1.59375,-1.28125 1.59375,-1.53125 0,-0.109375 -0.078125,-0.109375 -0.109375,-0.109375 -0.09375,0 -0.109375,0.046875 -0.140625,0.109375 -0.328125,1.078125 -1,1.3125 -1.3125,1.3125 -0.390625,0 -0.546875,-0.3125 -0.546875,-0.65625 0,-0.21875 0.046875,-0.4375 0.15625,-0.875 z m 0,0"
               id="id-371ca8e3-a34c-4176-a076-a3e744eda89b" />
          </symbol>
        </g>
      </defs>
      <g
         id="id-cc9e9fb4-1f2e-46fd-b655-a33bc07694fa"
         transform="translate(-149.603,-128.124)">
        <g
           style="fill:#000000;fill-opacity:1"
           id="id-7dea54d4-ffb0-4b7e-bcd9-1640567db4b8">
          <g
             transform="translate(148.712,134.765)"
             id="g2370">
            <path
               style="stroke:none;stroke-width:0"
               d="m 2.9375,-6.375 c 0,-0.25 0,-0.265625 -0.234375,-0.265625 C 2.078125,-6 1.203125,-6 0.890625,-6 v 0.3125 c 0.203125,0 0.78125,0 1.296875,-0.265625 v 5.171875 c 0,0.359375 -0.03125,0.46875 -0.921875,0.46875 h -0.3125 V 0 c 0.34375,-0.03125 1.203125,-0.03125 1.609375,-0.03125 0.390625,0 1.265625,0 1.609375,0.03125 v -0.3125 h -0.3125 c -0.90625,0 -0.921875,-0.109375 -0.921875,-0.46875 z m 0,0"
               id="id-95ac2dde-8a5b-4fc3-8699-03c651ce9967" />
          </g>
        </g>
        <g
           style="fill:#000000;fill-opacity:1"
           id="id-a4ab2d7c-53c8-47d5-8dba-5b6d4eee950d">
          <g
             transform="translate(155.905,134.765)"
             id="g2374">
            <path
               style="stroke:none;stroke-width:0"
               d="m 4.078125,-2.296875 h 2.78125 C 7,-2.296875 7.1875,-2.296875 7.1875,-2.5 7.1875,-2.6875 7,-2.6875 6.859375,-2.6875 h -2.78125 v -2.796875 c 0,-0.140625 0,-0.328125 -0.203125,-0.328125 -0.203125,0 -0.203125,0.1875 -0.203125,0.328125 V -2.6875 h -2.78125 c -0.140625,0 -0.328125,0 -0.328125,0.1875 0,0.203125 0.1875,0.203125 0.328125,0.203125 h 2.78125 V 0.5 c 0,0.140625 0,0.328125 0.203125,0.328125 0.203125,0 0.203125,-0.1875 0.203125,-0.328125 z m 0,0"
               id="id-85259f4a-b7cb-445b-b1b6-5075a0429e00" />
          </g>
        </g>
        <g
           style="fill:#000000;fill-opacity:1"
           id="id-1a320461-6a82-4ff8-a931-657a9d67dec1">
          <g
             transform="translate(165.87,134.765)"
             id="g2378">
            <path
               style="stroke:none;stroke-width:0"
               d="M 3.328125,-3.015625 C 3.390625,-3.265625 3.625,-4.1875 4.3125,-4.1875 c 0.046875,0 0.296875,0 0.5,0.125 C 4.53125,-4 4.34375,-3.765625 4.34375,-3.515625 c 0,0.15625 0.109375,0.34375 0.375,0.34375 0.21875,0 0.53125,-0.171875 0.53125,-0.578125 0,-0.515625 -0.578125,-0.65625 -0.921875,-0.65625 -0.578125,0 -0.921875,0.53125 -1.046875,0.75 -0.25,-0.65625 -0.78125,-0.75 -1.078125,-0.75 -1.03125,0 -1.609375,1.28125 -1.609375,1.53125 0,0.109375 0.109375,0.109375 0.125,0.109375 0.078125,0 0.109375,-0.03125 0.125,-0.109375 0.34375,-1.0625 1,-1.3125 1.34375,-1.3125 0.1875,0 0.53125,0.09375 0.53125,0.671875 0,0.3125 -0.171875,0.96875 -0.53125,2.375 -0.15625,0.609375 -0.515625,1.03125 -0.953125,1.03125 -0.0625,0 -0.28125,0 -0.5,-0.125 0.25,-0.0625 0.46875,-0.265625 0.46875,-0.546875 0,-0.265625 -0.21875,-0.34375 -0.359375,-0.34375 -0.3125,0 -0.546875,0.25 -0.546875,0.578125 0,0.453125 0.484375,0.65625 0.921875,0.65625 0.671875,0 1.03125,-0.703125 1.046875,-0.75 0.125,0.359375 0.484375,0.75 1.078125,0.75 1.03125,0 1.59375,-1.28125 1.59375,-1.53125 0,-0.109375 -0.078125,-0.109375 -0.109375,-0.109375 -0.09375,0 -0.109375,0.046875 -0.140625,0.109375 -0.328125,1.078125 -1,1.3125 -1.3125,1.3125 -0.390625,0 -0.546875,-0.3125 -0.546875,-0.65625 0,-0.21875 0.046875,-0.4375 0.15625,-0.875 z m 0,0"
               id="id-aac13203-e9c5-40bc-a567-5d600e3f0b98" />
          </g>
        </g>
      </g>
    </g>
    <g
       transform="matrix(0.881945,0,0,0.881945,129.064,86.0447)"
       ns4:version="1.6.0"
       ns4:texconverter="pdflatex"
       ns4:pdfconverter="inkscape"
       ns4:text="$1-x$"
       ns4:preamble="/home/kirito/.config/inkscape/textext.tex"
       ns4:scale="2.5"
       ns4:alignment="middle center"
       ns4:stroke-to-path="0"
       ns4:jacobian_sqrt="0.881945"
       id="g2551">
      <defs
         id="id-78b483d5-6d55-4e75-a301-65389a062c66">
        <g
           id="id-b132befc-5ee7-4789-b460-cab30fbdcddc">
          <symbol
             overflow="visible"
             id="id-d9b5eb71-10b8-4043-99d6-18471c49a8dd">
            <path
               style="stroke:none"
               d=""
               id="id-da376f4e-49ae-4bc4-b100-33376a821b93" />
          </symbol>
          <symbol
             overflow="visible"
             id="id-d4c1190e-273c-460b-b14c-0306b5f9121f">
            <path
               style="stroke:none"
               d="m 2.9375,-6.375 c 0,-0.25 0,-0.265625 -0.234375,-0.265625 C 2.078125,-6 1.203125,-6 0.890625,-6 v 0.3125 c 0.203125,0 0.78125,0 1.296875,-0.265625 v 5.171875 c 0,0.359375 -0.03125,0.46875 -0.921875,0.46875 h -0.3125 V 0 c 0.34375,-0.03125 1.203125,-0.03125 1.609375,-0.03125 0.390625,0 1.265625,0 1.609375,0.03125 v -0.3125 h -0.3125 c -0.90625,0 -0.921875,-0.109375 -0.921875,-0.46875 z m 0,0"
               id="id-93102d91-cc9a-4599-9746-a977dd5420b1" />
          </symbol>
          <symbol
             overflow="visible"
             id="id-f6380825-4a34-4b0b-9ed4-09cd2614b677">
            <path
               style="stroke:none"
               d=""
               id="id-3f0cfb1b-9ef8-4924-98bb-eb0232e0b5c8" />
          </symbol>
          <symbol
             overflow="visible"
             id="id-adc5dbb1-3ccf-4f1d-90a4-67e8d1d3831b">
            <path
               style="stroke:none"
               d="m 6.5625,-2.296875 c 0.171875,0 0.359375,0 0.359375,-0.203125 0,-0.1875 -0.1875,-0.1875 -0.359375,-0.1875 H 1.171875 c -0.171875,0 -0.34375,0 -0.34375,0.1875 0,0.203125 0.171875,0.203125 0.34375,0.203125 z m 0,0"
               id="id-a5149207-cde8-45b8-a9a7-2424f21810c8" />
          </symbol>
          <symbol
             overflow="visible"
             id="id-ad161ccd-e287-47a9-9df1-edb37d467c55">
            <path
               style="stroke:none"
               d=""
               id="id-5527bc1c-9e42-4d43-9623-5b0fcf8f1bc6" />
          </symbol>
          <symbol
             overflow="visible"
             id="id-e1cfeb35-5644-40bb-8737-86136b082971">
            <path
               style="stroke:none"
               d="M 3.328125,-3.015625 C 3.390625,-3.265625 3.625,-4.1875 4.3125,-4.1875 c 0.046875,0 0.296875,0 0.5,0.125 C 4.53125,-4 4.34375,-3.765625 4.34375,-3.515625 c 0,0.15625 0.109375,0.34375 0.375,0.34375 0.21875,0 0.53125,-0.171875 0.53125,-0.578125 0,-0.515625 -0.578125,-0.65625 -0.921875,-0.65625 -0.578125,0 -0.921875,0.53125 -1.046875,0.75 -0.25,-0.65625 -0.78125,-0.75 -1.078125,-0.75 -1.03125,0 -1.609375,1.28125 -1.609375,1.53125 0,0.109375 0.109375,0.109375 0.125,0.109375 0.078125,0 0.109375,-0.03125 0.125,-0.109375 0.34375,-1.0625 1,-1.3125 1.34375,-1.3125 0.1875,0 0.53125,0.09375 0.53125,0.671875 0,0.3125 -0.171875,0.96875 -0.53125,2.375 -0.15625,0.609375 -0.515625,1.03125 -0.953125,1.03125 -0.0625,0 -0.28125,0 -0.5,-0.125 0.25,-0.0625 0.46875,-0.265625 0.46875,-0.546875 0,-0.265625 -0.21875,-0.34375 -0.359375,-0.34375 -0.3125,0 -0.546875,0.25 -0.546875,0.578125 0,0.453125 0.484375,0.65625 0.921875,0.65625 0.671875,0 1.03125,-0.703125 1.046875,-0.75 0.125,0.359375 0.484375,0.75 1.078125,0.75 1.03125,0 1.59375,-1.28125 1.59375,-1.53125 0,-0.109375 -0.078125,-0.109375 -0.109375,-0.109375 -0.09375,0 -0.109375,0.046875 -0.140625,0.109375 -0.328125,1.078125 -1,1.3125 -1.3125,1.3125 -0.390625,0 -0.546875,-0.3125 -0.546875,-0.65625 0,-0.21875 0.046875,-0.4375 0.15625,-0.875 z m 0,0"
               id="id-afed32dd-2432-4815-af9d-8733124317d1" />
          </symbol>
        </g>
      </defs>
      <g
         id="id-66b6932c-dd41-4287-bc52-fec1f275fcaf"
         transform="translate(-149.603,-128.124)">
        <g
           style="fill:#000000;fill-opacity:1"
           id="id-1aa5b1cd-cf98-4cf5-b456-d9aeb6d8a36c">
          <g
             transform="translate(148.712,134.765)"
             id="g2813">
            <path
               style="stroke:none"
               d="m 2.9375,-6.375 c 0,-0.25 0,-0.265625 -0.234375,-0.265625 C 2.078125,-6 1.203125,-6 0.890625,-6 v 0.3125 c 0.203125,0 0.78125,0 1.296875,-0.265625 v 5.171875 c 0,0.359375 -0.03125,0.46875 -0.921875,0.46875 h -0.3125 V 0 c 0.34375,-0.03125 1.203125,-0.03125 1.609375,-0.03125 0.390625,0 1.265625,0 1.609375,0.03125 v -0.3125 h -0.3125 c -0.90625,0 -0.921875,-0.109375 -0.921875,-0.46875 z m 0,0"
               id="id-1188d45f-eb88-4340-bf79-a47586359651" />
          </g>
        </g>
        <g
           style="fill:#000000;fill-opacity:1"
           id="id-04181a24-60c7-49d7-bbce-ea78e3eb3445">
          <g
             transform="translate(155.908,134.765)"
             id="g2817">
            <path
               style="stroke:none"
               d="m 6.5625,-2.296875 c 0.171875,0 0.359375,0 0.359375,-0.203125 0,-0.1875 -0.1875,-0.1875 -0.359375,-0.1875 H 1.171875 c -0.171875,0 -0.34375,0 -0.34375,0.1875 0,0.203125 0.171875,0.203125 0.34375,0.203125 z m 0,0"
               id="id-7df908b0-8636-40f1-a29c-b95a7ce1108c" />
          </g>
        </g>
        <g
           style="fill:#000000;fill-opacity:1"
           id="id-94587364-f7b8-470b-a9fc-a050257a1ab5">
          <g
             transform="translate(165.87,134.765)"
             id="g2821">
            <path
               style="stroke:none"
               d="M 3.328125,-3.015625 C 3.390625,-3.265625 3.625,-4.1875 4.3125,-4.1875 c 0.046875,0 0.296875,0 0.5,0.125 C 4.53125,-4 4.34375,-3.765625 4.34375,-3.515625 c 0,0.15625 0.109375,0.34375 0.375,0.34375 0.21875,0 0.53125,-0.171875 0.53125,-0.578125 0,-0.515625 -0.578125,-0.65625 -0.921875,-0.65625 -0.578125,0 -0.921875,0.53125 -1.046875,0.75 -0.25,-0.65625 -0.78125,-0.75 -1.078125,-0.75 -1.03125,0 -1.609375,1.28125 -1.609375,1.53125 0,0.109375 0.109375,0.109375 0.125,0.109375 0.078125,0 0.109375,-0.03125 0.125,-0.109375 0.34375,-1.0625 1,-1.3125 1.34375,-1.3125 0.1875,0 0.53125,0.09375 0.53125,0.671875 0,0.3125 -0.171875,0.96875 -0.53125,2.375 -0.15625,0.609375 -0.515625,1.03125 -0.953125,1.03125 -0.0625,0 -0.28125,0 -0.5,-0.125 0.25,-0.0625 0.46875,-0.265625 0.46875,-0.546875 0,-0.265625 -0.21875,-0.34375 -0.359375,-0.34375 -0.3125,0 -0.546875,0.25 -0.546875,0.578125 0,0.453125 0.484375,0.65625 0.921875,0.65625 0.671875,0 1.03125,-0.703125 1.046875,-0.75 0.125,0.359375 0.484375,0.75 1.078125,0.75 1.03125,0 1.59375,-1.28125 1.59375,-1.53125 0,-0.109375 -0.078125,-0.109375 -0.109375,-0.109375 -0.09375,0 -0.109375,0.046875 -0.140625,0.109375 -0.328125,1.078125 -1,1.3125 -1.3125,1.3125 -0.390625,0 -0.546875,-0.3125 -0.546875,-0.65625 0,-0.21875 0.046875,-0.4375 0.15625,-0.875 z m 0,0"
               id="id-d4f24936-f57a-43d7-876c-8a8fe295d926" />
          </g>
        </g>
      </g>
    </g>
    <g
       transform="matrix(0.881945,0,0,0.881945,131.86069,130.57351)"
       ns4:version="1.6.0"
       ns4:texconverter="pdflatex"
       ns4:pdfconverter="inkscape"
       ns4:text="upper band"
       ns4:preamble="/home/kirito/.config/inkscape/textext.tex"
       ns4:scale="2.5"
       ns4:alignment="middle center"
       ns4:stroke-to-path="0"
       ns4:jacobian_sqrt="0.881945"
       id="g3194">
      <defs
         id="id-143d0ead-5cae-40d3-b79b-c739d51e9106">
        <g
           id="id-902f2146-8588-4662-b7a0-3c8ca0b4989f">
          <symbol
             overflow="visible"
             id="id-ccd444ec-ebcd-4596-b7ea-3fc8be302c80">
            <path
               style="stroke:none;stroke-width:0"
               d="M 5.40625,-10.46875 H 1.21875 V 3.484375 h 4.1875 z M 4.875,-9.953125 V 2.96875 H 1.78125 V -9.953125 Z M 3.234375,-4.5 c -0.390625,0 -0.9375,0.125 -0.9375,0.390625 0,0.125 0.09375,0.234375 0.25,0.234375 0.03125,0 0.078125,-0.015625 0.125,-0.03125 0.171875,-0.078125 0.3125,-0.109375 0.515625,-0.109375 0.5,0 0.609375,0.296875 0.609375,0.6875 0,0.53125 -0.1875,0.71875 -0.90625,0.765625 v 0.84375 c 0,0.140625 0.125,0.234375 0.25,0.234375 0.125,0 0.25,-0.09375 0.25,-0.234375 V -2.171875 C 4.0625,-2.265625 4.34375,-2.65625 4.34375,-3.34375 4.34375,-3.953125 4.09375,-4.5 3.234375,-4.5 Z m -0.09375,3.296875 c -0.203125,0 -0.34375,0.15625 -0.34375,0.359375 0,0.203125 0.140625,0.359375 0.34375,0.359375 0.203125,0 0.34375,-0.15625 0.34375,-0.359375 0,-0.203125 -0.140625,-0.359375 -0.34375,-0.359375 z m 0,0"
               id="id-5799e365-4682-434c-8693-9d0b07547843" />
          </symbol>
          <symbol
             overflow="visible"
             id="id-5d3b81b7-e2f5-4ed1-b81f-fee93dc0db69">
            <path
               style="stroke:none;stroke-width:0"
               d="M 4.8125,-5.25 H 3.890625 v 3.75 c -0.3125,0.515625 -0.734375,0.90625 -1.3125,0.90625 -0.5625,0 -0.796875,-0.28125 -0.796875,-0.984375 V -5.25 H 0.859375 v 3.765625 c 0,1.03125 0.546875,1.609375 1.46875,1.609375 0.75,0 1.234375,-0.296875 1.625,-0.9375 L 4.03125,0 H 4.8125 Z m 0,0"
               id="id-181968a2-32db-4bbb-ba4f-cdec15538290" />
          </symbol>
          <symbol
             overflow="visible"
             id="id-69c81304-cdf9-4ce6-a00b-1126be9c745c">
            <path
               style="stroke:none;stroke-width:0"
               d="m 3.328125,-5.375 c -0.59375,0 -1.171875,0.296875 -1.546875,0.828125 L 1.703125,-5.25 h -0.78125 v 7.375 l 0.90625,-0.109375 v -2.5 c 0.34375,0.421875 0.8125,0.609375 1.375,0.609375 1.359375,0 2.078125,-1.15625 2.078125,-2.75 0,-1.65625 -0.5625,-2.75 -1.953125,-2.75 z m -0.34375,4.75 c -0.46875,0 -0.875,-0.234375 -1.15625,-0.640625 v -2.5625 c 0.28125,-0.421875 0.71875,-0.8125 1.265625,-0.8125 0.796875,0 1.1875,0.640625 1.1875,2.015625 0,1.375 -0.453125,2 -1.296875,2 z m 0,0"
               id="id-7a8fe8ea-6cb1-4e8a-8357-ac3a72a2e052" />
          </symbol>
          <symbol
             overflow="visible"
             id="id-1f9ebec1-8497-4212-9523-83fa5c3ba67c">
            <path
               style="stroke:none;stroke-width:0"
               d="m 4.921875,-2.78125 c 0,-1.609375 -0.75,-2.59375 -2.171875,-2.59375 -1.359375,0 -2.1875,1.171875 -2.1875,2.796875 0,1.671875 0.859375,2.703125 2.328125,2.703125 0.734375,0 1.3125,-0.25 1.828125,-0.65625 L 4.328125,-1.09375 C 3.875,-0.765625 3.484375,-0.625 2.953125,-0.625 c -0.75,0 -1.3125,-0.46875 -1.40625,-1.6875 h 3.34375 c 0.015625,-0.125 0.03125,-0.296875 0.03125,-0.46875 z M 4,-2.984375 H 1.546875 c 0.0625,-1.171875 0.53125,-1.65625 1.21875,-1.65625 0.828125,0 1.234375,0.5625 1.234375,1.59375 z m 0,0"
               id="id-bcfec47b-3a31-4277-8dce-3aa5da3b5aaf" />
          </symbol>
          <symbol
             overflow="visible"
             id="id-cd15a293-c6de-4ace-a16a-df1019bd1f8a">
            <path
               style="stroke:none;stroke-width:0"
               d="m 3.203125,-5.375 c -0.640625,0 -1.125,0.40625 -1.40625,1.1875 L 1.703125,-5.25 H 0.921875 V 0 h 0.90625 v -3 c 0.21875,-1 0.609375,-1.46875 1.265625,-1.46875 0.1875,0 0.296875,0.015625 0.453125,0.046875 L 3.71875,-5.3125 C 3.5625,-5.359375 3.375,-5.375 3.203125,-5.375 Z m 0,0"
               id="id-d876b50e-a0de-482e-a7ad-80b89936feb5" />
          </symbol>
          <symbol
             overflow="visible"
             id="id-1ed45ce8-7695-4129-8ced-bd6589f1bece">
            <path
               style="stroke:none;stroke-width:0"
               d="m 3.3125,-5.375 c -0.625,0 -1.125,0.296875 -1.484375,0.78125 v -2.890625 l -0.90625,0.125 V 0 H 1.71875 L 1.8125,-0.578125 C 2.171875,-0.140625 2.625,0.125 3.203125,0.125 c 1.28125,0 2.078125,-1.109375 2.078125,-2.75 0,-1.765625 -0.78125,-2.75 -1.96875,-2.75 z m -0.328125,4.765625 c -0.46875,0 -0.875,-0.28125 -1.15625,-0.703125 v -2.515625 c 0.28125,-0.421875 0.65625,-0.8125 1.234375,-0.8125 0.734375,0 1.21875,0.515625 1.21875,2.015625 0,1.421875 -0.515625,2.015625 -1.296875,2.015625 z m 0,0"
               id="id-3a93204e-a660-457b-8620-79bd1701e78e" />
          </symbol>
          <symbol
             overflow="visible"
             id="id-1bd69776-d048-4642-b313-ac5a025b8478">
            <path
               style="stroke:none;stroke-width:0"
               d="M 4.4375,-1.21875 V -3.625 c 0,-1.09375 -0.578125,-1.75 -1.84375,-1.75 C 2,-5.375 1.421875,-5.25 0.78125,-5.015625 L 1,-4.34375 C 1.546875,-4.53125 2.03125,-4.625 2.421875,-4.625 c 0.734375,0 1.09375,0.28125 1.09375,1.03125 v 0.390625 H 2.71875 c -1.46875,0 -2.3125,0.609375 -2.3125,1.734375 0,0.9375 0.625,1.59375 1.671875,1.59375 0.640625,0 1.1875,-0.25 1.5625,-0.796875 0.15625,0.515625 0.5,0.734375 1.03125,0.796875 L 4.875,-0.515625 C 4.609375,-0.625 4.4375,-0.765625 4.4375,-1.21875 Z M 2.28125,-0.5625 c -0.59375,0 -0.90625,-0.328125 -0.90625,-0.953125 0,-0.71875 0.484375,-1.078125 1.453125,-1.078125 h 0.6875 v 1.203125 C 3.21875,-0.84375 2.828125,-0.5625 2.28125,-0.5625 Z m 0,0"
               id="id-1055687c-0002-4692-a447-4d4c136d7168" />
          </symbol>
          <symbol
             overflow="visible"
             id="id-5ef3c465-560c-4983-8466-538e54f35303">
            <path
               style="stroke:none;stroke-width:0"
               d="m 3.390625,-5.375 c -0.6875,0 -1.25,0.359375 -1.609375,0.90625 L 1.703125,-5.25 H 0.921875 V 0 h 0.90625 V -3.734375 C 2.1875,-4.28125 2.578125,-4.65625 3.171875,-4.65625 3.671875,-4.65625 4,-4.421875 4,-3.640625 V 0 h 0.921875 v -3.765625 c 0,-1 -0.5625,-1.609375 -1.53125,-1.609375 z m 0,0"
               id="id-e220a5a4-3439-423d-8c44-cc43d52eb8db" />
          </symbol>
          <symbol
             overflow="visible"
             id="id-af9dd932-2d31-4d2c-b0a4-a00abc6bbeed">
            <path
               style="stroke:none;stroke-width:0"
               d="M 4.046875,-7.484375 V -4.71875 C 3.703125,-5.09375 3.25,-5.375 2.625,-5.375 c -1.28125,0 -2.0625,1.171875 -2.0625,2.765625 0,1.640625 0.71875,2.734375 1.984375,2.734375 0.65625,0 1.1875,-0.328125 1.515625,-0.859375 L 4.15625,0 h 0.8125 V -7.359375 Z M 2.75,-0.609375 c -0.75,0 -1.1875,-0.625 -1.1875,-2.015625 0,-1.359375 0.484375,-2.015625 1.265625,-2.015625 0.515625,0 0.890625,0.265625 1.21875,0.6875 v 2.5625 c -0.34375,0.5 -0.703125,0.78125 -1.296875,0.78125 z m 0,0"
               id="id-5aaf7dcd-d5b5-4d6c-b9f0-bae2457386bd" />
          </symbol>
        </g>
      </defs>
      <g
         id="id-91aa930f-b7bf-4466-8436-8f91f061d5d0"
         transform="translate(-149.571,-127.281)">
        <g
           style="fill:#000000;fill-opacity:1"
           id="id-43ba4cc3-2a82-4e2e-a43c-2311aa6d6ce4">
          <g
             transform="translate(148.712,134.765)"
             id="g3164">
            <path
               style="stroke:none;stroke-width:0"
               d="M 4.8125,-5.25 H 3.890625 v 3.75 c -0.3125,0.515625 -0.734375,0.90625 -1.3125,0.90625 -0.5625,0 -0.796875,-0.28125 -0.796875,-0.984375 V -5.25 H 0.859375 v 3.765625 c 0,1.03125 0.546875,1.609375 1.46875,1.609375 0.75,0 1.234375,-0.296875 1.625,-0.9375 L 4.03125,0 H 4.8125 Z m 0,0"
               id="id-3523a077-fb34-4604-80da-01dbc9165bf6" />
          </g>
          <g
             transform="translate(154.44,134.765)"
             id="g3167">
            <path
               style="stroke:none;stroke-width:0"
               d="m 3.328125,-5.375 c -0.59375,0 -1.171875,0.296875 -1.546875,0.828125 L 1.703125,-5.25 h -0.78125 v 7.375 l 0.90625,-0.109375 v -2.5 c 0.34375,0.421875 0.8125,0.609375 1.375,0.609375 1.359375,0 2.078125,-1.15625 2.078125,-2.75 0,-1.65625 -0.5625,-2.75 -1.953125,-2.75 z m -0.34375,4.75 c -0.46875,0 -0.875,-0.234375 -1.15625,-0.640625 v -2.5625 c 0.28125,-0.421875 0.71875,-0.8125 1.265625,-0.8125 0.796875,0 1.1875,0.640625 1.1875,2.015625 0,1.375 -0.453125,2 -1.296875,2 z m 0,0"
               id="id-9681ea86-2d5d-46b4-a964-3925c5efa5a1" />
          </g>
          <g
             transform="translate(160.279,134.765)"
             id="g3170">
            <path
               style="stroke:none;stroke-width:0"
               d="m 3.328125,-5.375 c -0.59375,0 -1.171875,0.296875 -1.546875,0.828125 L 1.703125,-5.25 h -0.78125 v 7.375 l 0.90625,-0.109375 v -2.5 c 0.34375,0.421875 0.8125,0.609375 1.375,0.609375 1.359375,0 2.078125,-1.15625 2.078125,-2.75 0,-1.65625 -0.5625,-2.75 -1.953125,-2.75 z m -0.34375,4.75 c -0.46875,0 -0.875,-0.234375 -1.15625,-0.640625 v -2.5625 c 0.28125,-0.421875 0.71875,-0.8125 1.265625,-0.8125 0.796875,0 1.1875,0.640625 1.1875,2.015625 0,1.375 -0.453125,2 -1.296875,2 z m 0,0"
               id="id-a3d64143-af09-4eb0-a76a-9a400e99b556" />
          </g>
          <g
             transform="translate(166.117,134.765)"
             id="g3173">
            <path
               style="stroke:none;stroke-width:0"
               d="m 4.921875,-2.78125 c 0,-1.609375 -0.75,-2.59375 -2.171875,-2.59375 -1.359375,0 -2.1875,1.171875 -2.1875,2.796875 0,1.671875 0.859375,2.703125 2.328125,2.703125 0.734375,0 1.3125,-0.25 1.828125,-0.65625 L 4.328125,-1.09375 C 3.875,-0.765625 3.484375,-0.625 2.953125,-0.625 c -0.75,0 -1.3125,-0.46875 -1.40625,-1.6875 h 3.34375 c 0.015625,-0.125 0.03125,-0.296875 0.03125,-0.46875 z M 4,-2.984375 H 1.546875 c 0.0625,-1.171875 0.53125,-1.65625 1.21875,-1.65625 0.828125,0 1.234375,0.5625 1.234375,1.59375 z m 0,0"
               id="id-ff85eb49-0ce3-472b-a05f-5339fa4564ab" />
          </g>
          <g
             transform="translate(171.536,134.765)"
             id="g3176">
            <path
               style="stroke:none;stroke-width:0"
               d="m 3.203125,-5.375 c -0.640625,0 -1.125,0.40625 -1.40625,1.1875 L 1.703125,-5.25 H 0.921875 V 0 h 0.90625 v -3 c 0.21875,-1 0.609375,-1.46875 1.265625,-1.46875 0.1875,0 0.296875,0.015625 0.453125,0.046875 L 3.71875,-5.3125 C 3.5625,-5.359375 3.375,-5.375 3.203125,-5.375 Z m 0,0"
               id="id-578af71e-4f5f-413f-aaef-1688abb6c7f1" />
          </g>
        </g>
        <g
           style="fill:#000000;fill-opacity:1"
           id="id-b3526c99-0ecc-4a0a-8719-1c1ae1c97e85">
          <g
             transform="translate(177.992,134.765)"
             id="g3180">
            <path
               style="stroke:none;stroke-width:0"
               d="m 3.3125,-5.375 c -0.625,0 -1.125,0.296875 -1.484375,0.78125 v -2.890625 l -0.90625,0.125 V 0 H 1.71875 L 1.8125,-0.578125 C 2.171875,-0.140625 2.625,0.125 3.203125,0.125 c 1.28125,0 2.078125,-1.109375 2.078125,-2.75 0,-1.765625 -0.78125,-2.75 -1.96875,-2.75 z m -0.328125,4.765625 c -0.46875,0 -0.875,-0.28125 -1.15625,-0.703125 v -2.515625 c 0.28125,-0.421875 0.65625,-0.8125 1.234375,-0.8125 0.734375,0 1.21875,0.515625 1.21875,2.015625 0,1.421875 -0.515625,2.015625 -1.296875,2.015625 z m 0,0"
               id="id-69c92c3a-b26e-444a-a380-248f81ab5049" />
          </g>
        </g>
        <g
           style="fill:#000000;fill-opacity:1"
           id="id-49f2cceb-1d38-4a7f-9168-690923cf77bd">
          <g
             transform="translate(183.78,134.765)"
             id="g3184">
            <path
               style="stroke:none;stroke-width:0"
               d="M 4.4375,-1.21875 V -3.625 c 0,-1.09375 -0.578125,-1.75 -1.84375,-1.75 C 2,-5.375 1.421875,-5.25 0.78125,-5.015625 L 1,-4.34375 C 1.546875,-4.53125 2.03125,-4.625 2.421875,-4.625 c 0.734375,0 1.09375,0.28125 1.09375,1.03125 v 0.390625 H 2.71875 c -1.46875,0 -2.3125,0.609375 -2.3125,1.734375 0,0.9375 0.625,1.59375 1.671875,1.59375 0.640625,0 1.1875,-0.25 1.5625,-0.796875 0.15625,0.515625 0.5,0.734375 1.03125,0.796875 L 4.875,-0.515625 C 4.609375,-0.625 4.4375,-0.765625 4.4375,-1.21875 Z M 2.28125,-0.5625 c -0.59375,0 -0.90625,-0.328125 -0.90625,-0.953125 0,-0.71875 0.484375,-1.078125 1.453125,-1.078125 h 0.6875 v 1.203125 C 3.21875,-0.84375 2.828125,-0.5625 2.28125,-0.5625 Z m 0,0"
               id="id-e4833808-1bf4-43c4-b89a-1f166f45a5db" />
          </g>
          <g
             transform="translate(189.15,134.765)"
             id="g3187">
            <path
               style="stroke:none;stroke-width:0"
               d="m 3.390625,-5.375 c -0.6875,0 -1.25,0.359375 -1.609375,0.90625 L 1.703125,-5.25 H 0.921875 V 0 h 0.90625 V -3.734375 C 2.1875,-4.28125 2.578125,-4.65625 3.171875,-4.65625 3.671875,-4.65625 4,-4.421875 4,-3.640625 V 0 h 0.921875 v -3.765625 c 0,-1 -0.5625,-1.609375 -1.53125,-1.609375 z m 0,0"
               id="id-0675a0cc-6043-4907-a1b1-2e69ec3a524b" />
          </g>
          <g
             transform="translate(194.919,134.765)"
             id="g3190">
            <path
               style="stroke:none;stroke-width:0"
               d="M 4.046875,-7.484375 V -4.71875 C 3.703125,-5.09375 3.25,-5.375 2.625,-5.375 c -1.28125,0 -2.0625,1.171875 -2.0625,2.765625 0,1.640625 0.71875,2.734375 1.984375,2.734375 0.65625,0 1.1875,-0.328125 1.515625,-0.859375 L 4.15625,0 h 0.8125 V -7.359375 Z M 2.75,-0.609375 c -0.75,0 -1.1875,-0.625 -1.1875,-2.015625 0,-1.359375 0.484375,-2.015625 1.265625,-2.015625 0.515625,0 0.890625,0.265625 1.21875,0.6875 v 2.5625 c -0.34375,0.5 -0.703125,0.78125 -1.296875,0.78125 z m 0,0"
               id="id-38e6075e-dc20-4d3e-b175-4b77358b9006" />
          </g>
        </g>
      </g>
    </g>
    <g
       transform="matrix(0.881945,0,0,0.881945,16.134466,131.456)"
       ns4:version="1.6.0"
       ns4:texconverter="pdflatex"
       ns4:pdfconverter="inkscape"
       ns4:text="lower band"
       ns4:preamble="/home/kirito/.config/inkscape/textext.tex"
       ns4:scale="2.5"
       ns4:alignment="middle center"
       ns4:stroke-to-path="0"
       ns4:jacobian_sqrt="0.881945"
       id="g3471">
      <defs
         id="id-0dd6fd7f-f0f8-4beb-bcb1-a0a158932d0b">
        <g
           id="id-4f0dd440-88de-4536-b328-7dc7b26a7d75">
          <symbol
             overflow="visible"
             id="id-5a220ab8-3ca4-4e9b-94fd-d73a4bdba9a3">
            <path
               style="stroke:none"
               d="M 5.40625,-10.46875 H 1.21875 V 3.484375 h 4.1875 z M 4.875,-9.953125 V 2.96875 H 1.78125 V -9.953125 Z M 3.234375,-4.5 c -0.390625,0 -0.9375,0.125 -0.9375,0.390625 0,0.125 0.09375,0.234375 0.25,0.234375 0.03125,0 0.078125,-0.015625 0.125,-0.03125 0.171875,-0.078125 0.3125,-0.109375 0.515625,-0.109375 0.5,0 0.609375,0.296875 0.609375,0.6875 0,0.53125 -0.1875,0.71875 -0.90625,0.765625 v 0.84375 c 0,0.140625 0.125,0.234375 0.25,0.234375 0.125,0 0.25,-0.09375 0.25,-0.234375 V -2.171875 C 4.0625,-2.265625 4.34375,-2.65625 4.34375,-3.34375 4.34375,-3.953125 4.09375,-4.5 3.234375,-4.5 Z m -0.09375,3.296875 c -0.203125,0 -0.34375,0.15625 -0.34375,0.359375 0,0.203125 0.140625,0.359375 0.34375,0.359375 0.203125,0 0.34375,-0.15625 0.34375,-0.359375 0,-0.203125 -0.140625,-0.359375 -0.34375,-0.359375 z m 0,0"
               id="id-86605593-4826-4b2a-adf2-abe8227ae2b6" />
          </symbol>
          <symbol
             overflow="visible"
             id="id-f8775000-4718-4625-8ef8-1a423384cad5">
            <path
               style="stroke:none"
               d="m 1.953125,0.125 c 0.265625,0 0.53125,-0.078125 0.734375,-0.1875 l -0.25,-0.640625 c -0.09375,0.046875 -0.203125,0.0625 -0.328125,0.0625 -0.25,0 -0.328125,-0.140625 -0.328125,-0.421875 v -6.421875 l -0.921875,0.125 v 6.328125 c 0,0.734375 0.421875,1.15625 1.09375,1.15625 z m 0,0"
               id="id-d47bb6c9-730b-4ff3-b64a-63b4b4906d1a" />
          </symbol>
          <symbol
             overflow="visible"
             id="id-6e4bae2b-80b2-42aa-bbb9-2ae90c172210">
            <path
               style="stroke:none"
               d="m 2.921875,-5.375 c -1.5,0 -2.359375,1.125 -2.359375,2.75 0,1.671875 0.859375,2.75 2.34375,2.75 C 4.390625,0.125 5.25,-1 5.25,-2.625 c 0,-1.671875 -0.828125,-2.75 -2.328125,-2.75 z m 0,0.734375 c 0.859375,0 1.34375,0.640625 1.34375,2.015625 0,1.375 -0.484375,2 -1.359375,2 -0.875,0 -1.34375,-0.625 -1.34375,-2 0,-1.375 0.484375,-2.015625 1.359375,-2.015625 z m 0,0"
               id="id-d75eb1d4-4ac4-46ed-8f3b-c0f9cf031435" />
          </symbol>
          <symbol
             overflow="visible"
             id="id-17400768-0b90-4c47-9338-4ef40a38e093">
            <path
               style="stroke:none"
               d="m 6.953125,-5.25 h -0.875 L 5.109375,-0.640625 4.125,-5.25 H 3.09375 L 2.0625,-0.640625 1.109375,-5.25 H 0.203125 L 1.421875,0 h 1.21875 L 3.59375,-4.421875 4.5,0 h 1.25 z m 0,0"
               id="id-def07019-a17b-4ef9-92a4-0e64bff9e189" />
          </symbol>
          <symbol
             overflow="visible"
             id="id-74c5213d-e5b4-44e2-8b43-3d4858c7c405">
            <path
               style="stroke:none"
               d="m 4.921875,-2.78125 c 0,-1.609375 -0.75,-2.59375 -2.171875,-2.59375 -1.359375,0 -2.1875,1.171875 -2.1875,2.796875 0,1.671875 0.859375,2.703125 2.328125,2.703125 0.734375,0 1.3125,-0.25 1.828125,-0.65625 L 4.328125,-1.09375 C 3.875,-0.765625 3.484375,-0.625 2.953125,-0.625 c -0.75,0 -1.3125,-0.46875 -1.40625,-1.6875 h 3.34375 c 0.015625,-0.125 0.03125,-0.296875 0.03125,-0.46875 z M 4,-2.984375 H 1.546875 c 0.0625,-1.171875 0.53125,-1.65625 1.21875,-1.65625 0.828125,0 1.234375,0.5625 1.234375,1.59375 z m 0,0"
               id="id-81e7a80b-2b69-41da-ad77-f052a24dbccb" />
          </symbol>
          <symbol
             overflow="visible"
             id="id-b77d5b4e-e127-47ac-bd21-750ae3e9f466">
            <path
               style="stroke:none"
               d="m 3.203125,-5.375 c -0.640625,0 -1.125,0.40625 -1.40625,1.1875 L 1.703125,-5.25 H 0.921875 V 0 h 0.90625 v -3 c 0.21875,-1 0.609375,-1.46875 1.265625,-1.46875 0.1875,0 0.296875,0.015625 0.453125,0.046875 L 3.71875,-5.3125 C 3.5625,-5.359375 3.375,-5.375 3.203125,-5.375 Z m 0,0"
               id="id-3fac6980-a76d-4a39-9421-17df5ed97839" />
          </symbol>
          <symbol
             overflow="visible"
             id="id-72f9f843-f68f-45c4-9211-44bb6a620be5">
            <path
               style="stroke:none"
               d="m 3.3125,-5.375 c -0.625,0 -1.125,0.296875 -1.484375,0.78125 v -2.890625 l -0.90625,0.125 V 0 H 1.71875 L 1.8125,-0.578125 C 2.171875,-0.140625 2.625,0.125 3.203125,0.125 c 1.28125,0 2.078125,-1.109375 2.078125,-2.75 0,-1.765625 -0.78125,-2.75 -1.96875,-2.75 z m -0.328125,4.765625 c -0.46875,0 -0.875,-0.28125 -1.15625,-0.703125 v -2.515625 c 0.28125,-0.421875 0.65625,-0.8125 1.234375,-0.8125 0.734375,0 1.21875,0.515625 1.21875,2.015625 0,1.421875 -0.515625,2.015625 -1.296875,2.015625 z m 0,0"
               id="id-b343bea6-e8da-473c-ac67-83a81bbeb988" />
          </symbol>
          <symbol
             overflow="visible"
             id="id-48ccd04e-1d31-4e9d-a83c-6e1b68a11847">
            <path
               style="stroke:none"
               d="M 4.4375,-1.21875 V -3.625 c 0,-1.09375 -0.578125,-1.75 -1.84375,-1.75 C 2,-5.375 1.421875,-5.25 0.78125,-5.015625 L 1,-4.34375 C 1.546875,-4.53125 2.03125,-4.625 2.421875,-4.625 c 0.734375,0 1.09375,0.28125 1.09375,1.03125 v 0.390625 H 2.71875 c -1.46875,0 -2.3125,0.609375 -2.3125,1.734375 0,0.9375 0.625,1.59375 1.671875,1.59375 0.640625,0 1.1875,-0.25 1.5625,-0.796875 0.15625,0.515625 0.5,0.734375 1.03125,0.796875 L 4.875,-0.515625 C 4.609375,-0.625 4.4375,-0.765625 4.4375,-1.21875 Z M 2.28125,-0.5625 c -0.59375,0 -0.90625,-0.328125 -0.90625,-0.953125 0,-0.71875 0.484375,-1.078125 1.453125,-1.078125 h 0.6875 v 1.203125 C 3.21875,-0.84375 2.828125,-0.5625 2.28125,-0.5625 Z m 0,0"
               id="id-90c132d0-7b5c-44b1-b40f-269bd599c70e" />
          </symbol>
          <symbol
             overflow="visible"
             id="id-2b6913dc-f06b-4aff-8869-0b264fc4d311">
            <path
               style="stroke:none"
               d="m 3.390625,-5.375 c -0.6875,0 -1.25,0.359375 -1.609375,0.90625 L 1.703125,-5.25 H 0.921875 V 0 h 0.90625 V -3.734375 C 2.1875,-4.28125 2.578125,-4.65625 3.171875,-4.65625 3.671875,-4.65625 4,-4.421875 4,-3.640625 V 0 h 0.921875 v -3.765625 c 0,-1 -0.5625,-1.609375 -1.53125,-1.609375 z m 0,0"
               id="id-3e710b54-5ba5-471d-8a3b-3ea89ef1018a" />
          </symbol>
          <symbol
             overflow="visible"
             id="id-95c7a5fa-dd11-4721-91bb-926940429d3b">
            <path
               style="stroke:none"
               d="M 4.046875,-7.484375 V -4.71875 C 3.703125,-5.09375 3.25,-5.375 2.625,-5.375 c -1.28125,0 -2.0625,1.171875 -2.0625,2.765625 0,1.640625 0.71875,2.734375 1.984375,2.734375 0.65625,0 1.1875,-0.328125 1.515625,-0.859375 L 4.15625,0 h 0.8125 V -7.359375 Z M 2.75,-0.609375 c -0.75,0 -1.1875,-0.625 -1.1875,-2.015625 0,-1.359375 0.484375,-2.015625 1.265625,-2.015625 0.515625,0 0.890625,0.265625 1.21875,0.6875 v 2.5625 c -0.34375,0.5 -0.703125,0.78125 -1.296875,0.78125 z m 0,0"
               id="id-bc29bc74-a702-4a94-b094-5ee3c5d240ce" />
          </symbol>
        </g>
      </defs>
      <g
         id="id-fd055938-6edf-4260-b97e-0afef2fd2a0d"
         transform="translate(-149.571,-127.281)">
        <g
           style="fill:#000000;fill-opacity:1"
           id="id-76c935e6-6259-42ba-8bd8-bdb1da2485e2">
          <g
             transform="translate(148.712,134.765)"
             id="g3897">
            <path
               style="stroke:none"
               d="m 1.953125,0.125 c 0.265625,0 0.53125,-0.078125 0.734375,-0.1875 l -0.25,-0.640625 c -0.09375,0.046875 -0.203125,0.0625 -0.328125,0.0625 -0.25,0 -0.328125,-0.140625 -0.328125,-0.421875 v -6.421875 l -0.921875,0.125 v 6.328125 c 0,0.734375 0.421875,1.15625 1.09375,1.15625 z m 0,0"
               id="id-a816fadc-8e93-4132-9777-a83f04cb6b7f" />
          </g>
        </g>
        <g
           style="fill:#000000;fill-opacity:1"
           id="id-0eb5bf4f-6484-4e8e-bc48-25cda283e7f2">
          <g
             transform="translate(151.591,134.765)"
             id="g3901">
            <path
               style="stroke:none"
               d="m 2.921875,-5.375 c -1.5,0 -2.359375,1.125 -2.359375,2.75 0,1.671875 0.859375,2.75 2.34375,2.75 C 4.390625,0.125 5.25,-1 5.25,-2.625 c 0,-1.671875 -0.828125,-2.75 -2.328125,-2.75 z m 0,0.734375 c 0.859375,0 1.34375,0.640625 1.34375,2.015625 0,1.375 -0.484375,2 -1.359375,2 -0.875,0 -1.34375,-0.625 -1.34375,-2 0,-1.375 0.484375,-2.015625 1.359375,-2.015625 z m 0,0"
               id="id-32cbf948-f47c-4acf-83c7-33c126a1255b" />
          </g>
          <g
             transform="translate(157.409,134.765)"
             id="g3904">
            <path
               style="stroke:none"
               d="m 6.953125,-5.25 h -0.875 L 5.109375,-0.640625 4.125,-5.25 H 3.09375 L 2.0625,-0.640625 1.109375,-5.25 H 0.203125 L 1.421875,0 h 1.21875 L 3.59375,-4.421875 4.5,0 h 1.25 z m 0,0"
               id="id-792afe69-aad7-45c9-b006-d72f5783a672" />
          </g>
          <g
             transform="translate(164.553,134.765)"
             id="g3907">
            <path
               style="stroke:none"
               d="m 4.921875,-2.78125 c 0,-1.609375 -0.75,-2.59375 -2.171875,-2.59375 -1.359375,0 -2.1875,1.171875 -2.1875,2.796875 0,1.671875 0.859375,2.703125 2.328125,2.703125 0.734375,0 1.3125,-0.25 1.828125,-0.65625 L 4.328125,-1.09375 C 3.875,-0.765625 3.484375,-0.625 2.953125,-0.625 c -0.75,0 -1.3125,-0.46875 -1.40625,-1.6875 h 3.34375 c 0.015625,-0.125 0.03125,-0.296875 0.03125,-0.46875 z M 4,-2.984375 H 1.546875 c 0.0625,-1.171875 0.53125,-1.65625 1.21875,-1.65625 0.828125,0 1.234375,0.5625 1.234375,1.59375 z m 0,0"
               id="id-93df9e0c-d0ed-407e-a37d-83555d8f0f82" />
          </g>
          <g
             transform="translate(169.972,134.765)"
             id="g3910">
            <path
               style="stroke:none"
               d="m 3.203125,-5.375 c -0.640625,0 -1.125,0.40625 -1.40625,1.1875 L 1.703125,-5.25 H 0.921875 V 0 h 0.90625 v -3 c 0.21875,-1 0.609375,-1.46875 1.265625,-1.46875 0.1875,0 0.296875,0.015625 0.453125,0.046875 L 3.71875,-5.3125 C 3.5625,-5.359375 3.375,-5.375 3.203125,-5.375 Z m 0,0"
               id="id-41d27b6e-0a44-47b3-b481-eb69e45e4337" />
          </g>
        </g>
        <g
           style="fill:#000000;fill-opacity:1"
           id="id-bfd1c265-ace6-4b8f-9224-287d0953473d">
          <g
             transform="translate(176.428,134.765)"
             id="g3914">
            <path
               style="stroke:none"
               d="m 3.3125,-5.375 c -0.625,0 -1.125,0.296875 -1.484375,0.78125 v -2.890625 l -0.90625,0.125 V 0 H 1.71875 L 1.8125,-0.578125 C 2.171875,-0.140625 2.625,0.125 3.203125,0.125 c 1.28125,0 2.078125,-1.109375 2.078125,-2.75 0,-1.765625 -0.78125,-2.75 -1.96875,-2.75 z m -0.328125,4.765625 c -0.46875,0 -0.875,-0.28125 -1.15625,-0.703125 v -2.515625 c 0.28125,-0.421875 0.65625,-0.8125 1.234375,-0.8125 0.734375,0 1.21875,0.515625 1.21875,2.015625 0,1.421875 -0.515625,2.015625 -1.296875,2.015625 z m 0,0"
               id="id-7fd474e8-cd77-4acb-9258-33932e5d1140" />
          </g>
        </g>
        <g
           style="fill:#000000;fill-opacity:1"
           id="id-76837d56-d7d0-4dbf-9822-696a4b21906f">
          <g
             transform="translate(182.216,134.765)"
             id="g3918">
            <path
               style="stroke:none"
               d="M 4.4375,-1.21875 V -3.625 c 0,-1.09375 -0.578125,-1.75 -1.84375,-1.75 C 2,-5.375 1.421875,-5.25 0.78125,-5.015625 L 1,-4.34375 C 1.546875,-4.53125 2.03125,-4.625 2.421875,-4.625 c 0.734375,0 1.09375,0.28125 1.09375,1.03125 v 0.390625 H 2.71875 c -1.46875,0 -2.3125,0.609375 -2.3125,1.734375 0,0.9375 0.625,1.59375 1.671875,1.59375 0.640625,0 1.1875,-0.25 1.5625,-0.796875 0.15625,0.515625 0.5,0.734375 1.03125,0.796875 L 4.875,-0.515625 C 4.609375,-0.625 4.4375,-0.765625 4.4375,-1.21875 Z M 2.28125,-0.5625 c -0.59375,0 -0.90625,-0.328125 -0.90625,-0.953125 0,-0.71875 0.484375,-1.078125 1.453125,-1.078125 h 0.6875 v 1.203125 C 3.21875,-0.84375 2.828125,-0.5625 2.28125,-0.5625 Z m 0,0"
               id="id-482d0acf-92c4-403e-9377-6e536a6b5934" />
          </g>
          <g
             transform="translate(187.586,134.765)"
             id="g3921">
            <path
               style="stroke:none"
               d="m 3.390625,-5.375 c -0.6875,0 -1.25,0.359375 -1.609375,0.90625 L 1.703125,-5.25 H 0.921875 V 0 h 0.90625 V -3.734375 C 2.1875,-4.28125 2.578125,-4.65625 3.171875,-4.65625 3.671875,-4.65625 4,-4.421875 4,-3.640625 V 0 h 0.921875 v -3.765625 c 0,-1 -0.5625,-1.609375 -1.53125,-1.609375 z m 0,0"
               id="id-2f357d57-04c4-4b38-a01a-f9445892296b" />
          </g>
          <g
             transform="translate(193.354,134.765)"
             id="g3924">
            <path
               style="stroke:none"
               d="M 4.046875,-7.484375 V -4.71875 C 3.703125,-5.09375 3.25,-5.375 2.625,-5.375 c -1.28125,0 -2.0625,1.171875 -2.0625,2.765625 0,1.640625 0.71875,2.734375 1.984375,2.734375 0.65625,0 1.1875,-0.328125 1.515625,-0.859375 L 4.15625,0 h 0.8125 V -7.359375 Z M 2.75,-0.609375 c -0.75,0 -1.1875,-0.625 -1.1875,-2.015625 0,-1.359375 0.484375,-2.015625 1.265625,-2.015625 0.515625,0 0.890625,0.265625 1.21875,0.6875 v 2.5625 c -0.34375,0.5 -0.703125,0.78125 -1.296875,0.78125 z m 0,0"
               id="id-2517cd17-9628-40eb-bb72-daf91c06bf17" />
          </g>
        </g>
      </g>
    </g>
    <g
       transform="matrix(0.881945,0,0,0.881945,82.832722,129.80114)"
       ns4:version="1.6.0"
       ns4:texconverter="pdflatex"
       ns4:pdfconverter="inkscape"
       ns4:text="$\\omega=0$"
       ns4:preamble="/home/kirito/.config/inkscape/textext.tex"
       ns4:scale="2.5"
       ns4:alignment="middle center"
       ns4:stroke-to-path="0"
       ns4:jacobian_sqrt="0.881945"
       id="g4516">
      <defs
         id="id-9398cecf-9271-4713-9b65-cf080af20bd0">
        <g
           id="id-5cca1b43-b567-45b3-a282-c0ade16d76d8">
          <symbol
             overflow="visible"
             id="id-c4345dbb-ccf7-4ea2-b2da-2d18726538b3">
            <path
               style="stroke:none;stroke-width:0"
               d=""
               id="id-0d813456-8301-4050-ab60-c7d762c62eb3" />
          </symbol>
          <symbol
             overflow="visible"
             id="id-05079a3b-f762-41bb-8f19-020d00bf7a2a">
            <path
               style="stroke:none;stroke-width:0"
               d="m 6.03125,-3.703125 c 0,-0.453125 -0.171875,-0.703125 -0.40625,-0.703125 -0.25,0 -0.515625,0.234375 -0.515625,0.46875 0,0.09375 0.046875,0.203125 0.140625,0.296875 0.171875,0.15625 0.359375,0.421875 0.359375,0.84375 0,0.390625 -0.203125,0.96875 -0.5,1.421875 C 4.8125,-0.953125 4.4375,-0.609375 3.96875,-0.609375 3.40625,-0.609375 3.09375,-0.96875 3,-1.5 c 0.109375,-0.265625 0.34375,-0.90625 0.34375,-1.1875 0,-0.109375 -0.046875,-0.21875 -0.1875,-0.21875 -0.078125,0 -0.1875,0.03125 -0.265625,0.171875 C 2.78125,-2.53125 2.65625,-1.890625 2.65625,-1.53125 2.328125,-1.0625 1.9375,-0.609375 1.3125,-0.609375 c -0.671875,0 -0.875,-0.59375 -0.875,-1.140625 0,-1.25 1.015625,-2.296875 1.015625,-2.421875 0,-0.109375 -0.078125,-0.1875 -0.1875,-0.1875 -0.125,0 -0.203125,0.125 -0.265625,0.21875 -0.5,0.734375 -0.875,1.921875 -0.875,2.828125 0,0.6875 0.21875,1.421875 1.046875,1.421875 0.703125,0 1.171875,-0.5 1.53125,-1.046875 0.09375,0.578125 0.484375,1.046875 1.09375,1.046875 0.78125,0 1.25,-0.609375 1.609375,-1.359375 0.25,-0.484375 0.625,-1.84375 0.625,-2.453125 z m 0,0"
               id="id-8b65a4ee-45b6-451a-8175-da432ad1b093" />
          </symbol>
          <symbol
             overflow="visible"
             id="id-5f632287-286b-4f3d-9e44-21a28200cd23">
            <path
               style="stroke:none;stroke-width:0"
               d=""
               id="id-8d5aa738-cc9a-4a42-abad-741aaa76e0d9" />
          </symbol>
          <symbol
             overflow="visible"
             id="id-5213ade9-4d09-45f1-b932-2903772f4d5d">
            <path
               style="stroke:none;stroke-width:0"
               d="m 6.84375,-3.265625 c 0.15625,0 0.34375,0 0.34375,-0.1875 C 7.1875,-3.65625 7,-3.65625 6.859375,-3.65625 h -5.96875 c -0.140625,0 -0.328125,0 -0.328125,0.203125 0,0.1875 0.1875,0.1875 0.328125,0.1875 z m 0.015625,1.9375 c 0.140625,0 0.328125,0 0.328125,-0.203125 0,-0.1875 -0.1875,-0.1875 -0.34375,-0.1875 H 0.890625 c -0.140625,0 -0.328125,0 -0.328125,0.1875 0,0.203125 0.1875,0.203125 0.328125,0.203125 z m 0,0"
               id="id-f1098812-9826-42df-af52-33dbee35db9e" />
          </symbol>
          <symbol
             overflow="visible"
             id="id-6ad7a696-4eb3-470f-8412-d4829897d645">
            <path
               style="stroke:none;stroke-width:0"
               d="m 4.578125,-3.1875 c 0,-0.796875 -0.046875,-1.59375 -0.390625,-2.328125 -0.453125,-0.96875 -1.28125,-1.125 -1.6875,-1.125 -0.609375,0 -1.328125,0.265625 -1.75,1.1875 -0.3125,0.6875 -0.359375,1.46875 -0.359375,2.265625 0,0.75 0.03125,1.640625 0.453125,2.40625 0.421875,0.796875 1.15625,1 1.640625,1 0.53125,0 1.296875,-0.203125 1.734375,-1.15625 0.3125,-0.6875 0.359375,-1.46875 0.359375,-2.25 z M 2.484375,0 C 2.09375,0 1.5,-0.25 1.328125,-1.203125 1.21875,-1.796875 1.21875,-2.71875 1.21875,-3.3125 c 0,-0.640625 0,-1.296875 0.078125,-1.828125 0.1875,-1.1875 0.9375,-1.28125 1.1875,-1.28125 0.328125,0 0.984375,0.1875 1.171875,1.171875 0.109375,0.5625 0.109375,1.3125 0.109375,1.9375 0,0.75 0,1.421875 -0.109375,2.0625 C 3.5,-0.296875 2.9375,0 2.484375,0 Z m 0,0"
               id="id-71c36ebc-2839-4e6f-a211-7b50acf8ccab" />
          </symbol>
        </g>
      </defs>
      <g
         id="id-33d02d9c-85ce-4d39-8302-3c450084ec61"
         transform="translate(-148.837,-128.124)">
        <g
           style="fill:#000000;fill-opacity:1"
           id="id-4a6e5b2f-a677-4091-b3c2-50552d5bf3f1">
          <g
             transform="translate(148.712,134.765)"
             id="g4504">
            <path
               style="stroke:none;stroke-width:0"
               d="m 6.03125,-3.703125 c 0,-0.453125 -0.171875,-0.703125 -0.40625,-0.703125 -0.25,0 -0.515625,0.234375 -0.515625,0.46875 0,0.09375 0.046875,0.203125 0.140625,0.296875 0.171875,0.15625 0.359375,0.421875 0.359375,0.84375 0,0.390625 -0.203125,0.96875 -0.5,1.421875 C 4.8125,-0.953125 4.4375,-0.609375 3.96875,-0.609375 3.40625,-0.609375 3.09375,-0.96875 3,-1.5 c 0.109375,-0.265625 0.34375,-0.90625 0.34375,-1.1875 0,-0.109375 -0.046875,-0.21875 -0.1875,-0.21875 -0.078125,0 -0.1875,0.03125 -0.265625,0.171875 C 2.78125,-2.53125 2.65625,-1.890625 2.65625,-1.53125 2.328125,-1.0625 1.9375,-0.609375 1.3125,-0.609375 c -0.671875,0 -0.875,-0.59375 -0.875,-1.140625 0,-1.25 1.015625,-2.296875 1.015625,-2.421875 0,-0.109375 -0.078125,-0.1875 -0.1875,-0.1875 -0.125,0 -0.203125,0.125 -0.265625,0.21875 -0.5,0.734375 -0.875,1.921875 -0.875,2.828125 0,0.6875 0.21875,1.421875 1.046875,1.421875 0.703125,0 1.171875,-0.5 1.53125,-1.046875 0.09375,0.578125 0.484375,1.046875 1.09375,1.046875 0.78125,0 1.25,-0.609375 1.609375,-1.359375 0.25,-0.484375 0.625,-1.84375 0.625,-2.453125 z m 0,0"
               id="id-d9bf95bc-bf41-477b-be45-63ac76ae768d" />
          </g>
        </g>
        <g
           style="fill:#000000;fill-opacity:1"
           id="id-515d29b4-0384-403b-b16f-550c31b7de17">
          <g
             transform="translate(158.038,134.765)"
             id="g4508">
            <path
               style="stroke:none;stroke-width:0"
               d="m 6.84375,-3.265625 c 0.15625,0 0.34375,0 0.34375,-0.1875 C 7.1875,-3.65625 7,-3.65625 6.859375,-3.65625 h -5.96875 c -0.140625,0 -0.328125,0 -0.328125,0.203125 0,0.1875 0.1875,0.1875 0.328125,0.1875 z m 0.015625,1.9375 c 0.140625,0 0.328125,0 0.328125,-0.203125 0,-0.1875 -0.1875,-0.1875 -0.34375,-0.1875 H 0.890625 c -0.140625,0 -0.328125,0 -0.328125,0.1875 0,0.203125 0.1875,0.203125 0.328125,0.203125 z m 0,0"
               id="id-44699146-5b72-4dc0-99f7-3fd4ebfee7dc" />
          </g>
        </g>
        <g
           style="fill:#000000;fill-opacity:1"
           id="id-1bf3656f-abc5-4b25-8e97-e3cbffb4dec5">
          <g
             transform="translate(168.557,134.765)"
             id="g4512">
            <path
               style="stroke:none;stroke-width:0"
               d="m 4.578125,-3.1875 c 0,-0.796875 -0.046875,-1.59375 -0.390625,-2.328125 -0.453125,-0.96875 -1.28125,-1.125 -1.6875,-1.125 -0.609375,0 -1.328125,0.265625 -1.75,1.1875 -0.3125,0.6875 -0.359375,1.46875 -0.359375,2.265625 0,0.75 0.03125,1.640625 0.453125,2.40625 0.421875,0.796875 1.15625,1 1.640625,1 0.53125,0 1.296875,-0.203125 1.734375,-1.15625 0.3125,-0.6875 0.359375,-1.46875 0.359375,-2.25 z M 2.484375,0 C 2.09375,0 1.5,-0.25 1.328125,-1.203125 1.21875,-1.796875 1.21875,-2.71875 1.21875,-3.3125 c 0,-0.640625 0,-1.296875 0.078125,-1.828125 0.1875,-1.1875 0.9375,-1.28125 1.1875,-1.28125 0.328125,0 0.984375,0.1875 1.171875,1.171875 0.109375,0.5625 0.109375,1.3125 0.109375,1.9375 0,0.75 0,1.421875 -0.109375,2.0625 C 3.5,-0.296875 2.9375,0 2.484375,0 Z m 0,0"
               id="id-5fa59e2d-a3a1-4b3c-bda1-0525cc42cbec" />
          </g>
        </g>
      </g>
    </g>
    <rect
       style="opacity:0.6;fill:none;stroke:#ffffff;stroke-width:1;stroke-miterlimit:4;stroke-dasharray:1, 1;stroke-dashoffset:0;stroke-opacity:0"
       id="rect6654"
       width="184.71823"
       height="63.572586"
       x="2.1751924"
       y="81.723587" />
  </g>
</svg>
