<?xml version="1.0" encoding="UTF-8" standalone="no"?>
<!-- Created with Inkscape (http://www.inkscape.org/) -->

<svg
   width="167.5524mm"
   height="165.98726mm"
   viewBox="0 0 167.55239 165.98726"
   version="1.1"
   id="svg5"
   sodipodi:docname="phase_diagram_zero.svg"
   inkscape:version="1.1.2 (0a00cf5339, 2022-02-04, custom)"
   xmlns:inkscape="http://www.inkscape.org/namespaces/inkscape"
   xmlns:sodipodi="http://sodipodi.sourceforge.net/DTD/sodipodi-0.dtd"
   xmlns="http://www.w3.org/2000/svg"
   xmlns:svg="http://www.w3.org/2000/svg"
   xmlns:ns1="http://www.iki.fi/pav/software/textext/">
  <sodipodi:namedview
     id="namedview7"
     pagecolor="#ffffff"
     bordercolor="#666666"
     borderopacity="1.0"
     inkscape:pageshadow="2"
     inkscape:pageopacity="0.0"
     inkscape:pagecheckerboard="0"
     inkscape:document-units="mm"
     showgrid="false"
     inkscape:snap-object-midpoints="true"
     inkscape:snap-smooth-nodes="true"
     inkscape:snap-intersection-paths="true"
     inkscape:zoom="0.50511364"
     inkscape:cx="301.91226"
     inkscape:cy="425.64679"
     inkscape:window-width="1024"
     inkscape:window-height="736"
     inkscape:window-x="0"
     inkscape:window-y="32"
     inkscape:window-maximized="1"
     inkscape:current-layer="layer1"
     inkscape:snap-global="true" />
  <defs
     id="defs2">
    <marker
       style="overflow:visible"
       id="EmptyTriangleInL"
       refX="0"
       refY="0"
       orient="auto"
       inkscape:stockid="EmptyTriangleInL"
       inkscape:isstock="true">
      <path
         transform="matrix(-0.8,0,0,-0.8,4.8,0)"
         style="fill:context-fill;fill-rule:evenodd;stroke:context-stroke;stroke-width:1pt"
         d="M 5.77,0 -2.88,5 V -5 Z"
         id="path1965" />
    </marker>
    <marker
       style="overflow:visible"
       id="EmptyTriangleOutL"
       refX="0"
       refY="0"
       orient="auto"
       inkscape:stockid="EmptyTriangleOutL"
       inkscape:isstock="true">
      <path
         transform="matrix(0.8,0,0,0.8,-4.8,0)"
         style="fill:context-fill;fill-rule:evenodd;stroke:context-stroke;stroke-width:1pt"
         d="M 5.77,0 -2.88,5 V -5 Z"
         id="path1974" />
    </marker>
    <marker
       style="overflow:visible"
       id="Arrow2Mend"
       refX="0"
       refY="0"
       orient="auto"
       inkscape:stockid="Arrow2Mend"
       inkscape:isstock="true">
      <path
         transform="scale(-0.6)"
         d="M 8.7185878,4.0337352 -2.2072895,0.01601326 8.7185884,-4.0017078 c -1.7454984,2.3720609 -1.7354408,5.6174519 -6e-7,8.035443 z"
         style="fill:context-stroke;fill-rule:evenodd;stroke:context-stroke;stroke-width:0.625;stroke-linejoin:round"
         id="path1841" />
    </marker>
    <marker
       style="overflow:visible"
       id="Arrow1Lstart"
       refX="0"
       refY="0"
       orient="auto"
       inkscape:stockid="Arrow1Lstart"
       inkscape:isstock="true">
      <path
         transform="matrix(0.8,0,0,0.8,10,0)"
         style="fill:context-stroke;fill-rule:evenodd;stroke:context-stroke;stroke-width:1pt"
         d="M 0,0 5,-5 -12.5,0 5,5 Z"
         id="path1814" />
    </marker>
    <inkscape:path-effect
       effect="spiro"
       id="path-effect1732"
       is_visible="true"
       lpeversion="1" />
    <inkscape:path-effect
       effect="spiro"
       id="path-effect1728"
       is_visible="true"
       lpeversion="1" />
    <inkscape:path-effect
       effect="spiro"
       id="path-effect859"
       is_visible="true"
       lpeversion="1" />
    <inkscape:path-effect
       effect="spiro"
       id="path-effect859-3"
       is_visible="true"
       lpeversion="1" />
    <inkscape:path-effect
       effect="spiro"
       id="path-effect859-3-7"
       is_visible="true"
       lpeversion="1" />
    <inkscape:path-effect
       effect="spiro"
       id="path-effect859-35"
       is_visible="true"
       lpeversion="1" />
    <marker
       style="overflow:visible"
       id="EmptyTriangleInL-1"
       refX="0"
       refY="0"
       orient="auto"
       inkscape:stockid="EmptyTriangleInL"
       inkscape:isstock="true">
      <path
         transform="matrix(-0.8,0,0,-0.8,4.8,0)"
         style="fill:context-fill;fill-rule:evenodd;stroke:context-stroke;stroke-width:1pt"
         d="M 5.77,0 -2.88,5 V -5 Z"
         id="path1965-2" />
    </marker>
    <inkscape:path-effect
       effect="spiro"
       id="path-effect859-7"
       is_visible="true"
       lpeversion="1" />
  </defs>
  <g
     inkscape:label="Layer 1"
     inkscape:groupmode="layer"
     id="layer1"
     transform="translate(-67.100839,-36.321768)">
    <path
       style="fill:none;stroke:#000000;stroke-width:1;stroke-linecap:butt;stroke-linejoin:miter;stroke-miterlimit:4;stroke-dasharray:1, 1;stroke-dashoffset:0;stroke-opacity:1;marker-start:url(#EmptyTriangleInL)"
       d="M 79.016126,37.203488 V 183.48075"
       id="path857"
       inkscape:path-effect="#path-effect859"
       inkscape:original-d="m 79.016126,37.203488 c 2.65e-4,48.759412 2.65e-4,97.518502 0,146.277262" />
    <path
       style="fill:none;stroke:#000000;stroke-width:1;stroke-linecap:butt;stroke-linejoin:miter;stroke-miterlimit:4;stroke-dasharray:1, 1;stroke-dashoffset:0;stroke-opacity:1;marker-start:url(#EmptyTriangleInL-1)"
       d="M 225.29339,183.48075 H 79.016126"
       id="path857-0"
       inkscape:path-effect="#path-effect859-7"
       inkscape:original-d="m 225.29339,183.48075 c -48.75941,2.7e-4 -97.5185,2.7e-4 -146.277264,0" />
    <circle
       style="fill:#6067ff;fill-opacity:1;stroke-width:1;stroke-miterlimit:4;stroke-dasharray:none"
       id="path995"
       cx="195.42227"
       cy="67.074608"
       r="5.8900194" />
    <circle
       style="fill:#60001a;fill-opacity:1;stroke-width:1;stroke-miterlimit:4;stroke-dasharray:none"
       id="path995-9"
       cx="79.016129"
       cy="183.48074"
       r="5.8900194" />
    <path
       style="fill:none;stroke:#000000;stroke-width:2;stroke-linecap:butt;stroke-linejoin:miter;stroke-miterlimit:4;stroke-dasharray:none;stroke-opacity:1;marker-end:url(#Arrow2Mend)"
       d="m 79.424672,166.2221 c 2.778831,-8.63374 5.891951,-17.15989 9.330044,-25.55292 7.481112,-18.2628 16.755714,-36.24284 30.899564,-50.00686 17.39252,-16.925449 41.79474,-26.415317 66.05254,-25.687411"
       id="path1726"
       inkscape:path-effect="#path-effect1728"
       inkscape:original-d="m 79.424672,166.2221 c 3.11028,-8.51738 6.220296,-17.03501 9.330044,-25.55292 3.109751,-8.5179 20.599974,-33.33764 30.899564,-50.00686 10.2996,-16.669221 42.76015,-17.824576 66.05254,-25.687411"
       sodipodi:nodetypes="cssc" />
    <path
       style="fill:none;stroke:#000000;stroke-width:2;stroke-linecap:butt;stroke-linejoin:miter;stroke-miterlimit:4;stroke-dasharray:none;stroke-opacity:1;marker-end:url(#Arrow2Mend)"
       d="m 97.877248,183.50791 c 4.698092,-3.03401 9.721462,-5.56396 14.956182,-7.53247 19.47055,-7.32187 41.48605,-6.79559 60.16617,-15.94792 14.59144,-7.14908 26.21595,-20.14258 31.70311,-35.43671 5.48716,-15.29413 4.77424,-32.714003 -1.94434,-47.5086"
       id="path1730"
       inkscape:path-effect="#path-effect1732"
       inkscape:original-d="m 97.877248,183.50791 c 4.985662,-2.51056 9.971052,-5.02138 14.956182,-7.53247 4.98514,-2.51108 40.11105,-10.63168 60.16617,-15.94792 20.05513,-5.31624 22.28481,-53.92409 29.75877,-82.94531"
       sodipodi:nodetypes="cssc" />
    <g
       transform="matrix(1.8819311,0,0,1.8819311,82.80663,41.878587)"
       ns1:version="1.3.0"
       ns1:texconverter="pdflatex"
       ns1:pdfconverter="inkscape"
       ns1:text="$J$"
       ns1:preamble="/home/abhirup/textext.tex"
       ns1:scale="2.653424149566491"
       ns1:alignment="middle center"
       ns1:jacobian_sqrt="0.93607"
       id="g2297">
      <defs
         id="id-77dd8c42-4275-4d6d-b76f-bc14698da9d6">
        <g
           id="id-e5c86b99-b15f-4b5f-b6ba-42d4e79df73d">
          <symbol
             overflow="visible"
             id="id-0a921488-48ae-4bb7-a735-2aceef3a98b2">
            <path
               style="stroke:none;stroke-width:0"
               d=""
               id="id-fdd9e4f2-834d-4f11-aea5-37b7d8cfdfe8" />
          </symbol>
          <symbol
             overflow="visible"
             id="id-c8ac6404-091f-43b1-895b-b50edcc1b33c">
            <path
               style="stroke:none;stroke-width:0"
               d="M 5.390625,-6.078125 C 5.46875,-6.40625 5.5,-6.5 6.046875,-6.5 c 0.15625,0 0.265625,0 0.265625,-0.1875 0,-0.09375 -0.0625,-0.125 -0.140625,-0.125 -0.25,0 -0.859375,0.03125 -1.109375,0.03125 -0.328125,0 -1.140625,-0.03125 -1.46875,-0.03125 -0.078125,0 -0.203125,0 -0.203125,0.203125 C 3.390625,-6.5 3.46875,-6.5 3.734375,-6.5 c 0.21875,0 0.328125,0 0.578125,0.015625 0.234375,0.03125 0.296875,0.0625 0.296875,0.203125 0,0.0625 -0.015625,0.125 -0.03125,0.203125 L 3.421875,-1.5 C 3.1875,-0.53125 2.515625,0 2,0 1.734375,0 1.203125,-0.09375 1.046875,-0.625 c 0.03125,0.015625 0.09375,0.015625 0.125,0.015625 0.390625,0 0.640625,-0.34375 0.640625,-0.640625 0,-0.3125 -0.265625,-0.421875 -0.4375,-0.421875 -0.171875,0 -0.671875,0.125 -0.671875,0.796875 0,0.625 0.53125,1.09375 1.328125,1.09375 0.90625,0 1.953125,-0.65625 2.203125,-1.640625 z m 0,0"
               id="id-77735a2b-05c5-4a81-a87c-5c65bd0a8c52" />
          </symbol>
        </g>
      </defs>
      <g
         id="id-faf70657-5dd1-4029-8d0d-6c8e8a47be69"
         transform="translate(-149.415,-127.953)">
        <g
           style="fill:#000000;fill-opacity:1"
           id="id-6746e1e8-6961-48b1-8ef9-12c6129bb306">
          <g
             transform="translate(148.712,134.765)"
             id="g2293">
            <path
               style="stroke:none;stroke-width:0"
               d="M 5.390625,-6.078125 C 5.46875,-6.40625 5.5,-6.5 6.046875,-6.5 c 0.15625,0 0.265625,0 0.265625,-0.1875 0,-0.09375 -0.0625,-0.125 -0.140625,-0.125 -0.25,0 -0.859375,0.03125 -1.109375,0.03125 -0.328125,0 -1.140625,-0.03125 -1.46875,-0.03125 -0.078125,0 -0.203125,0 -0.203125,0.203125 C 3.390625,-6.5 3.46875,-6.5 3.734375,-6.5 c 0.21875,0 0.328125,0 0.578125,0.015625 0.234375,0.03125 0.296875,0.0625 0.296875,0.203125 0,0.0625 -0.015625,0.125 -0.03125,0.203125 L 3.421875,-1.5 C 3.1875,-0.53125 2.515625,0 2,0 1.734375,0 1.203125,-0.09375 1.046875,-0.625 c 0.03125,0.015625 0.09375,0.015625 0.125,0.015625 0.390625,0 0.640625,-0.34375 0.640625,-0.640625 0,-0.3125 -0.265625,-0.421875 -0.4375,-0.421875 -0.171875,0 -0.671875,0.125 -0.671875,0.796875 0,0.625 0.53125,1.09375 1.328125,1.09375 0.90625,0 1.953125,-0.65625 2.203125,-1.640625 z m 0,0"
               id="id-162e6e81-e6fa-439c-9429-193d3ea68a1b" />
          </g>
        </g>
      </g>
    </g>
    <g
       transform="matrix(1.88193,0,0,1.88193,210.85763,165.2855)"
       ns1:version="1.3.0"
       ns1:texconverter="pdflatex"
       ns1:pdfconverter="inkscape"
       ns1:text="$V$"
       ns1:preamble="/home/abhirup/textext.tex"
       ns1:scale="5.334602570919088"
       ns1:alignment="middle center"
       ns1:jacobian_sqrt="1.88193"
       id="g2350">
      <defs
         id="id-62ec73c5-0330-42de-802b-047ea810f367">
        <g
           id="id-ed9d2b92-f96b-4629-ab11-7eaf3c2efe23">
          <symbol
             overflow="visible"
             id="id-663ce01e-4dc0-4af2-905f-6b54b13c1329">
            <path
               style="stroke:none"
               d=""
               id="id-7d995a5b-7789-4de2-b96e-8b44bc18805b" />
          </symbol>
          <symbol
             overflow="visible"
             id="id-9b153578-9bd5-4d7a-80a7-7f968ce9896b">
            <path
               style="stroke:none"
               d="M 6.265625,-5.671875 C 6.75,-6.453125 7.171875,-6.484375 7.53125,-6.5 c 0.125,-0.015625 0.140625,-0.171875 0.140625,-0.1875 0,-0.078125 -0.0625,-0.125 -0.140625,-0.125 -0.25,0 -0.546875,0.03125 -0.8125,0.03125 -0.328125,0 -0.671875,-0.03125 -0.984375,-0.03125 -0.0625,0 -0.1875,0 -0.1875,0.1875 0,0.109375 0.078125,0.125 0.15625,0.125 0.265625,0.015625 0.453125,0.125 0.453125,0.328125 0,0.15625 -0.140625,0.375 -0.140625,0.375 l -3.0625,4.875 -0.6875,-5.28125 C 2.265625,-6.375 2.5,-6.5 2.953125,-6.5 c 0.140625,0 0.25,0 0.25,-0.203125 0,-0.078125 -0.078125,-0.109375 -0.125,-0.109375 -0.40625,0 -0.828125,0.03125 -1.25,0.03125 -0.171875,0 -0.359375,0 -0.546875,0 -0.171875,0 -0.359375,-0.03125 -0.53125,-0.03125 -0.078125,0 -0.1875,0 -0.1875,0.1875 0,0.125 0.078125,0.125 0.25,0.125 0.546875,0 0.5625,0.09375 0.59375,0.34375 L 2.1875,-0.015625 C 2.21875,0.1875 2.265625,0.21875 2.390625,0.21875 c 0.15625,0 0.203125,-0.046875 0.28125,-0.171875 z m 0,0"
               id="id-26d11064-7737-4b91-a5f3-923b722fb316" />
          </symbol>
        </g>
      </defs>
      <g
         id="id-256c0169-7435-4d23-b08d-c38b6062fe7a"
         transform="translate(-149.275,-127.953)">
        <g
           style="fill:#000000;fill-opacity:1"
           id="id-59b74b91-bcab-40d2-8135-bb9360d892d7">
          <g
             transform="translate(148.712,134.765)"
             id="g2444">
            <path
               style="stroke:none"
               d="M 6.265625,-5.671875 C 6.75,-6.453125 7.171875,-6.484375 7.53125,-6.5 c 0.125,-0.015625 0.140625,-0.171875 0.140625,-0.1875 0,-0.078125 -0.0625,-0.125 -0.140625,-0.125 -0.25,0 -0.546875,0.03125 -0.8125,0.03125 -0.328125,0 -0.671875,-0.03125 -0.984375,-0.03125 -0.0625,0 -0.1875,0 -0.1875,0.1875 0,0.109375 0.078125,0.125 0.15625,0.125 0.265625,0.015625 0.453125,0.125 0.453125,0.328125 0,0.15625 -0.140625,0.375 -0.140625,0.375 l -3.0625,4.875 -0.6875,-5.28125 C 2.265625,-6.375 2.5,-6.5 2.953125,-6.5 c 0.140625,0 0.25,0 0.25,-0.203125 0,-0.078125 -0.078125,-0.109375 -0.125,-0.109375 -0.40625,0 -0.828125,0.03125 -1.25,0.03125 -0.171875,0 -0.359375,0 -0.546875,0 -0.171875,0 -0.359375,-0.03125 -0.53125,-0.03125 -0.078125,0 -0.1875,0 -0.1875,0.1875 0,0.125 0.078125,0.125 0.25,0.125 0.546875,0 0.5625,0.09375 0.59375,0.34375 L 2.1875,-0.015625 C 2.21875,0.1875 2.265625,0.21875 2.390625,0.21875 c 0.15625,0 0.203125,-0.046875 0.28125,-0.171875 z m 0,0"
               id="id-9fab53b7-4c5e-41b3-99f8-3185f7fa16d0" />
          </g>
        </g>
      </g>
    </g>
    <g
       transform="matrix(1.88193,0,0,1.88193,67.100839,189.37076)"
       ns1:version="1.3.0"
       ns1:texconverter="pdflatex"
       ns1:pdfconverter="inkscape"
       ns1:text="LM"
       ns1:preamble="/home/abhirup/textext.tex"
       ns1:scale="5.334602570919088"
       ns1:alignment="middle center"
       ns1:jacobian_sqrt="1.88193"
       id="g2593">
      <defs
         id="id-09e712c6-d0e2-47ed-a566-aabb48de51c4">
        <g
           id="id-a43f1fa1-cbb0-40af-9b6a-5ae0731b2329">
          <symbol
             overflow="visible"
             id="id-9adc0bc4-b9a4-4cc0-bd7b-a9965ac12130">
            <path
               style="stroke:none;stroke-width:0"
               d="M 5.40625,-10.46875 H 1.21875 V 3.484375 h 4.1875 z M 4.875,-9.953125 V 2.96875 H 1.78125 V -9.953125 Z M 3.234375,-4.5 c -0.390625,0 -0.9375,0.125 -0.9375,0.390625 0,0.125 0.09375,0.234375 0.25,0.234375 0.03125,0 0.078125,-0.015625 0.125,-0.03125 0.171875,-0.078125 0.3125,-0.109375 0.515625,-0.109375 0.5,0 0.609375,0.296875 0.609375,0.6875 0,0.53125 -0.1875,0.71875 -0.90625,0.765625 v 0.84375 c 0,0.140625 0.125,0.234375 0.25,0.234375 0.125,0 0.25,-0.09375 0.25,-0.234375 V -2.171875 C 4.0625,-2.265625 4.34375,-2.65625 4.34375,-3.34375 4.34375,-3.953125 4.09375,-4.5 3.234375,-4.5 Z m -0.09375,3.296875 c -0.203125,0 -0.34375,0.15625 -0.34375,0.359375 0,0.203125 0.140625,0.359375 0.34375,0.359375 0.203125,0 0.34375,-0.15625 0.34375,-0.359375 0,-0.203125 -0.140625,-0.359375 -0.34375,-0.359375 z m 0,0"
               id="id-bfed3454-c737-43bd-bb71-19f766ca5830" />
          </symbol>
          <symbol
             overflow="visible"
             id="id-0f3b5e31-c84f-4984-beb5-befa010f7ce3">
            <path
               style="stroke:none;stroke-width:0"
               d="M 1.9375,-6.875 H 1 V 0 H 4.65625 L 4.765625,-0.828125 H 1.9375 Z m 0,0"
               id="id-2805e1f5-307c-482d-9ce4-ca53231f6e56" />
          </symbol>
          <symbol
             overflow="visible"
             id="id-a46c2480-a3d8-4d46-87c0-40fe2fc7d844">
            <path
               style="stroke:none;stroke-width:0"
               d="M 6.5625,-6.875 H 5.28125 l -1.375,5 -1.4375,-5 H 1.1875 L 0.625,0 H 1.515625 L 1.75,-3.03125 c 0.078125,-1 0.125,-2.078125 0.125,-2.875 l 1.5625,5.125 h 0.890625 l 1.484375,-5.125 c 0.015625,0.578125 0.078125,1.734375 0.171875,2.8125 L 6.21875,0 h 0.921875 z m 0,0"
               id="id-1f57b48a-0791-44f8-9e50-53c4e7f56c75" />
          </symbol>
        </g>
      </defs>
      <g
         id="id-6a1dca45-3836-4087-aba2-a95b8033896f"
         transform="translate(-149.712,-127.89)">
        <g
           style="fill:#000000;fill-opacity:1"
           id="id-1a169640-77cf-483e-a657-b245b4bfeb87">
          <g
             transform="translate(148.712,134.765)"
             id="g2585">
            <path
               style="stroke:none;stroke-width:0"
               d="M 1.9375,-6.875 H 1 V 0 H 4.65625 L 4.765625,-0.828125 H 1.9375 Z m 0,0"
               id="id-3ebae047-abe0-4787-9820-040c7110367c" />
          </g>
        </g>
        <g
           style="fill:#000000;fill-opacity:1"
           id="id-0d517aad-e7b0-4901-8046-11278c1ed6ad">
          <g
             transform="translate(153.574,134.765)"
             id="g2589">
            <path
               style="stroke:none;stroke-width:0"
               d="M 6.5625,-6.875 H 5.28125 l -1.375,5 -1.4375,-5 H 1.1875 L 0.625,0 H 1.515625 L 1.75,-3.03125 c 0.078125,-1 0.125,-2.078125 0.125,-2.875 l 1.5625,5.125 h 0.890625 l 1.484375,-5.125 c 0.015625,0.578125 0.078125,1.734375 0.171875,2.8125 L 6.21875,0 h 0.921875 z m 0,0"
               id="id-171a8de5-7be2-449b-9238-44e43217162c" />
          </g>
        </g>
      </g>
    </g>
    <g
       transform="matrix(1.88193,0,0,1.88193,196.93092,48.4043)"
       ns1:version="1.3.0"
       ns1:texconverter="pdflatex"
       ns1:pdfconverter="inkscape"
       ns1:text="SC"
       ns1:preamble="/home/abhirup/textext.tex"
       ns1:scale="5.334602570919088"
       ns1:alignment="middle center"
       ns1:jacobian_sqrt="1.88193"
       id="g2775">
      <defs
         id="id-68dabf35-42f8-445c-b29a-cbf2603ac87a">
        <g
           id="id-5dbf7f75-a428-4d22-9537-655a7400d67f">
          <symbol
             overflow="visible"
             id="id-00d30d32-1ba2-4cca-a8e9-1cb0e3a533ba">
            <path
               style="stroke:none;stroke-width:0"
               d="M 5.40625,-10.46875 H 1.21875 V 3.484375 h 4.1875 z M 4.875,-9.953125 V 2.96875 H 1.78125 V -9.953125 Z M 3.234375,-4.5 c -0.390625,0 -0.9375,0.125 -0.9375,0.390625 0,0.125 0.09375,0.234375 0.25,0.234375 0.03125,0 0.078125,-0.015625 0.125,-0.03125 0.171875,-0.078125 0.3125,-0.109375 0.515625,-0.109375 0.5,0 0.609375,0.296875 0.609375,0.6875 0,0.53125 -0.1875,0.71875 -0.90625,0.765625 v 0.84375 c 0,0.140625 0.125,0.234375 0.25,0.234375 0.125,0 0.25,-0.09375 0.25,-0.234375 V -2.171875 C 4.0625,-2.265625 4.34375,-2.65625 4.34375,-3.34375 4.34375,-3.953125 4.09375,-4.5 3.234375,-4.5 Z m -0.09375,3.296875 c -0.203125,0 -0.34375,0.15625 -0.34375,0.359375 0,0.203125 0.140625,0.359375 0.34375,0.359375 0.203125,0 0.34375,-0.15625 0.34375,-0.359375 0,-0.203125 -0.140625,-0.359375 -0.34375,-0.359375 z m 0,0"
               id="id-91ea971c-68e7-4f86-bed3-2c62c0201309" />
          </symbol>
          <symbol
             overflow="visible"
             id="id-8d3c06e4-817b-498d-8675-cb261e967f39">
            <path
               style="stroke:none;stroke-width:0"
               d="m 2.6875,-6.984375 c -1.265625,0 -2.15625,0.734375 -2.15625,1.796875 0,1.0625 0.6875,1.5625 2.03125,1.984375 1.171875,0.359375 1.484375,0.65625 1.484375,1.3125 0,0.828125 -0.671875,1.234375 -1.46875,1.234375 -0.75,0 -1.296875,-0.265625 -1.8125,-0.6875 L 0.25,-0.765625 C 0.8125,-0.203125 1.59375,0.125 2.578125,0.125 4.125,0.125 5.03125,-0.71875 5.03125,-1.90625 5.03125,-3.234375 4.09375,-3.65625 3,-4 1.765625,-4.375 1.5,-4.65625 1.5,-5.234375 c 0,-0.65625 0.546875,-0.96875 1.234375,-0.96875 0.5625,0 1.046875,0.171875 1.5625,0.59375 L 4.8125,-6.1875 C 4.234375,-6.703125 3.640625,-6.984375 2.6875,-6.984375 Z m 0,0"
               id="id-7857d2cd-fb23-4d5b-a69f-2fe7bceb50be" />
          </symbol>
          <symbol
             overflow="visible"
             id="id-efd5ef59-6ed1-4f0e-b125-362179fcfe75">
            <path
               style="stroke:none;stroke-width:0"
               d="m 3.40625,-6.984375 c -1.5625,0 -2.859375,1.21875 -2.859375,3.546875 0,2.3125 1.203125,3.5625 2.875,3.5625 C 4.34375,0.125 5,-0.265625 5.390625,-0.640625 L 4.921875,-1.25 C 4.53125,-0.953125 4.09375,-0.671875 3.453125,-0.671875 2.375,-0.671875 1.5625,-1.453125 1.5625,-3.4375 c 0,-2.078125 0.859375,-2.765625 1.890625,-2.765625 0.484375,0 0.90625,0.15625 1.328125,0.5 L 5.296875,-6.3125 C 4.75,-6.75 4.265625,-6.984375 3.40625,-6.984375 Z m 0,0"
               id="id-f74c9eab-faae-4e3c-a1a2-df7bc720929d" />
          </symbol>
        </g>
      </defs>
      <g
         id="id-6f568b3c-7a34-4e88-a056-d443f313cb10"
         transform="translate(-148.962,-127.781)">
        <g
           style="fill:#000000;fill-opacity:1"
           id="id-106e5906-fe96-4851-9233-7b5e79be1ce5">
          <g
             transform="translate(148.712,134.765)"
             id="g2768">
            <path
               style="stroke:none;stroke-width:0"
               d="m 2.6875,-6.984375 c -1.265625,0 -2.15625,0.734375 -2.15625,1.796875 0,1.0625 0.6875,1.5625 2.03125,1.984375 1.171875,0.359375 1.484375,0.65625 1.484375,1.3125 0,0.828125 -0.671875,1.234375 -1.46875,1.234375 -0.75,0 -1.296875,-0.265625 -1.8125,-0.6875 L 0.25,-0.765625 C 0.8125,-0.203125 1.59375,0.125 2.578125,0.125 4.125,0.125 5.03125,-0.71875 5.03125,-1.90625 5.03125,-3.234375 4.09375,-3.65625 3,-4 1.765625,-4.375 1.5,-4.65625 1.5,-5.234375 c 0,-0.65625 0.546875,-0.96875 1.234375,-0.96875 0.5625,0 1.046875,0.171875 1.5625,0.59375 L 4.8125,-6.1875 C 4.234375,-6.703125 3.640625,-6.984375 2.6875,-6.984375 Z m 0,0"
               id="id-df15e7a2-2f10-481e-95e7-e0a27061ff59" />
          </g>
          <g
             transform="translate(154.142,134.765)"
             id="g2771">
            <path
               style="stroke:none;stroke-width:0"
               d="m 3.40625,-6.984375 c -1.5625,0 -2.859375,1.21875 -2.859375,3.546875 0,2.3125 1.203125,3.5625 2.875,3.5625 C 4.34375,0.125 5,-0.265625 5.390625,-0.640625 L 4.921875,-1.25 C 4.53125,-0.953125 4.09375,-0.671875 3.453125,-0.671875 2.375,-0.671875 1.5625,-1.453125 1.5625,-3.4375 c 0,-2.078125 0.859375,-2.765625 1.890625,-2.765625 0.484375,0 0.90625,0.15625 1.328125,0.5 L 5.296875,-6.3125 C 4.75,-6.75 4.265625,-6.984375 3.40625,-6.984375 Z m 0,0"
               id="id-a80911b7-2b75-44f7-8b1e-cfbdb1e557a4" />
          </g>
        </g>
      </g>
    </g>
    <g
       transform="matrix(1.3307255,-1.3307255,1.3307255,1.3307255,120.08895,149.18199)"
       ns1:version="1.3.0"
       ns1:texconverter="pdflatex"
       ns1:pdfconverter="inkscape"
       ns1:text="crossover"
       ns1:preamble="/home/abhirup/textext.tex"
       ns1:scale="5.334602570919088"
       ns1:alignment="middle center"
       ns1:jacobian_sqrt="1.88193"
       id="g3232">
      <defs
         id="id-17dfaa51-48d7-4d67-8a70-dab5d18cbb7f">
        <g
           id="id-46f5926a-9035-488e-b857-7b06c12d14a5">
          <symbol
             overflow="visible"
             id="id-aa9099ed-7d38-44b2-b82d-3e8e84932c0c">
            <path
               style="stroke:none;stroke-width:0"
               d="M 5.40625,-10.46875 H 1.21875 V 3.484375 h 4.1875 z M 4.875,-9.953125 V 2.96875 H 1.78125 V -9.953125 Z M 3.234375,-4.5 c -0.390625,0 -0.9375,0.125 -0.9375,0.390625 0,0.125 0.09375,0.234375 0.25,0.234375 0.03125,0 0.078125,-0.015625 0.125,-0.03125 0.171875,-0.078125 0.3125,-0.109375 0.515625,-0.109375 0.5,0 0.609375,0.296875 0.609375,0.6875 0,0.53125 -0.1875,0.71875 -0.90625,0.765625 v 0.84375 c 0,0.140625 0.125,0.234375 0.25,0.234375 0.125,0 0.25,-0.09375 0.25,-0.234375 V -2.171875 C 4.0625,-2.265625 4.34375,-2.65625 4.34375,-3.34375 4.34375,-3.953125 4.09375,-4.5 3.234375,-4.5 Z m -0.09375,3.296875 c -0.203125,0 -0.34375,0.15625 -0.34375,0.359375 0,0.203125 0.140625,0.359375 0.34375,0.359375 0.203125,0 0.34375,-0.15625 0.34375,-0.359375 0,-0.203125 -0.140625,-0.359375 -0.34375,-0.359375 z m 0,0"
               id="id-670bb6b0-4ffd-4fcc-8591-54fb0d8d3f4f" />
          </symbol>
          <symbol
             overflow="visible"
             id="id-f3660a10-85d2-4076-9dcc-ffae9614cd16">
            <path
               style="stroke:none;stroke-width:0"
               d="M 2.859375,-5.375 C 1.4375,-5.375 0.5625,-4.25 0.5625,-2.578125 0.5625,-0.890625 1.453125,0.125 2.859375,0.125 3.46875,0.125 4,-0.078125 4.46875,-0.453125 L 4.046875,-1.0625 C 3.65625,-0.796875 3.34375,-0.65625 2.90625,-0.65625 c -0.828125,0 -1.34375,-0.5625 -1.34375,-1.953125 0,-1.359375 0.515625,-2 1.34375,-2 0.4375,0 0.765625,0.125 1.125,0.375 L 4.46875,-4.8125 C 3.984375,-5.21875 3.484375,-5.375 2.859375,-5.375 Z m 0,0"
               id="id-0c4c09d5-31fc-4daf-9c2a-d086a8d28186" />
          </symbol>
          <symbol
             overflow="visible"
             id="id-2ee764cc-0340-4be1-8ea5-cabf4dac1cdc">
            <path
               style="stroke:none;stroke-width:0"
               d="m 3.203125,-5.375 c -0.640625,0 -1.125,0.40625 -1.40625,1.1875 L 1.703125,-5.25 H 0.921875 V 0 h 0.90625 v -3 c 0.21875,-1 0.609375,-1.46875 1.265625,-1.46875 0.1875,0 0.296875,0.015625 0.453125,0.046875 L 3.71875,-5.3125 C 3.5625,-5.359375 3.375,-5.375 3.203125,-5.375 Z m 0,0"
               id="id-d4ed18ac-0d9c-441e-861c-644dc7ff82f8" />
          </symbol>
          <symbol
             overflow="visible"
             id="id-0e023e7d-5512-4d70-a4e8-0044a0898a4e">
            <path
               style="stroke:none;stroke-width:0"
               d="m 2.921875,-5.375 c -1.5,0 -2.359375,1.125 -2.359375,2.75 0,1.671875 0.859375,2.75 2.34375,2.75 C 4.390625,0.125 5.25,-1 5.25,-2.625 c 0,-1.671875 -0.828125,-2.75 -2.328125,-2.75 z m 0,0.734375 c 0.859375,0 1.34375,0.640625 1.34375,2.015625 0,1.375 -0.484375,2 -1.359375,2 -0.875,0 -1.34375,-0.625 -1.34375,-2 0,-1.375 0.484375,-2.015625 1.359375,-2.015625 z m 0,0"
               id="id-cf297432-e120-4cb2-a178-58a0576327fc" />
          </symbol>
          <symbol
             overflow="visible"
             id="id-ae912cdb-7d4b-43e5-ba66-b6d1a0b8c879">
            <path
               style="stroke:none;stroke-width:0"
               d="m 2.375,-5.375 c -1.09375,0 -1.890625,0.609375 -1.890625,1.453125 0,0.734375 0.4375,1.21875 1.578125,1.515625 1.015625,0.265625 1.28125,0.46875 1.28125,0.984375 0,0.5 -0.4375,0.796875 -1.125,0.796875 -0.578125,0 -1.0625,-0.1875 -1.484375,-0.5 L 0.25,-0.5625 c 0.453125,0.390625 1.09375,0.6875 1.984375,0.6875 1.0625,0 2.078125,-0.5 2.078125,-1.59375 0,-0.921875 -0.640625,-1.359375 -1.75,-1.640625 -0.84375,-0.21875 -1.125,-0.421875 -1.125,-0.84375 0,-0.421875 0.359375,-0.6875 0.96875,-0.6875 0.484375,0 0.890625,0.140625 1.359375,0.4375 L 4.15625,-4.78125 C 3.65625,-5.15625 3.109375,-5.375 2.375,-5.375 Z m 0,0"
               id="id-86b25ae2-9034-41e4-87e3-9818048b2d76" />
          </symbol>
          <symbol
             overflow="visible"
             id="id-c2912a46-6ac1-4c8e-94b0-65a2ecf520ed">
            <path
               style="stroke:none;stroke-width:0"
               d="M 4.8125,-5.25 H 3.84375 l -1.375,4.4375 -1.375,-4.4375 h -1 L 1.90625,0 h 1.109375 z m 0,0"
               id="id-4cc72f95-531f-4768-8e24-b4eaa3b54794" />
          </symbol>
          <symbol
             overflow="visible"
             id="id-1452aa34-3f41-48d2-9fe9-e9af74652ae7">
            <path
               style="stroke:none;stroke-width:0"
               d="m 4.921875,-2.78125 c 0,-1.609375 -0.75,-2.59375 -2.171875,-2.59375 -1.359375,0 -2.1875,1.171875 -2.1875,2.796875 0,1.671875 0.859375,2.703125 2.328125,2.703125 0.734375,0 1.3125,-0.25 1.828125,-0.65625 L 4.328125,-1.09375 C 3.875,-0.765625 3.484375,-0.625 2.953125,-0.625 c -0.75,0 -1.3125,-0.46875 -1.40625,-1.6875 h 3.34375 c 0.015625,-0.125 0.03125,-0.296875 0.03125,-0.46875 z M 4,-2.984375 H 1.546875 c 0.0625,-1.171875 0.53125,-1.65625 1.21875,-1.65625 0.828125,0 1.234375,0.5625 1.234375,1.59375 z m 0,0"
               id="id-41359982-ab26-45df-b440-f7af0e29133c" />
          </symbol>
        </g>
      </defs>
      <g
         id="id-e6f917a6-c0ff-461c-bb1c-14b30abecd9a"
         transform="translate(-149.275,-129.39)">
        <g
           style="fill:#000000;fill-opacity:1"
           id="id-82bf305d-048a-46e9-af33-1cac4d6b8183">
          <g
             transform="translate(148.712,134.765)"
             id="g3200">
            <path
               style="stroke:none;stroke-width:0"
               d="M 2.859375,-5.375 C 1.4375,-5.375 0.5625,-4.25 0.5625,-2.578125 0.5625,-0.890625 1.453125,0.125 2.859375,0.125 3.46875,0.125 4,-0.078125 4.46875,-0.453125 L 4.046875,-1.0625 C 3.65625,-0.796875 3.34375,-0.65625 2.90625,-0.65625 c -0.828125,0 -1.34375,-0.5625 -1.34375,-1.953125 0,-1.359375 0.515625,-2 1.34375,-2 0.4375,0 0.765625,0.125 1.125,0.375 L 4.46875,-4.8125 C 3.984375,-5.21875 3.484375,-5.375 2.859375,-5.375 Z m 0,0"
               id="id-fb81c857-eee4-4cd1-a984-3c8866b71cae" />
          </g>
          <g
             transform="translate(153.474,134.765)"
             id="g3203">
            <path
               style="stroke:none;stroke-width:0"
               d="m 3.203125,-5.375 c -0.640625,0 -1.125,0.40625 -1.40625,1.1875 L 1.703125,-5.25 H 0.921875 V 0 h 0.90625 v -3 c 0.21875,-1 0.609375,-1.46875 1.265625,-1.46875 0.1875,0 0.296875,0.015625 0.453125,0.046875 L 3.71875,-5.3125 C 3.5625,-5.359375 3.375,-5.375 3.203125,-5.375 Z m 0,0"
               id="id-170a2f84-ba64-4b67-8bcd-99f0c5ca8b42" />
          </g>
        </g>
        <g
           style="fill:#000000;fill-opacity:1"
           id="id-885772fe-b6c6-423c-91c9-813a4b270b90">
          <g
             transform="translate(157.091,134.765)"
             id="g3207">
            <path
               style="stroke:none;stroke-width:0"
               d="m 2.921875,-5.375 c -1.5,0 -2.359375,1.125 -2.359375,2.75 0,1.671875 0.859375,2.75 2.34375,2.75 C 4.390625,0.125 5.25,-1 5.25,-2.625 c 0,-1.671875 -0.828125,-2.75 -2.328125,-2.75 z m 0,0.734375 c 0.859375,0 1.34375,0.640625 1.34375,2.015625 0,1.375 -0.484375,2 -1.359375,2 -0.875,0 -1.34375,-0.625 -1.34375,-2 0,-1.375 0.484375,-2.015625 1.359375,-2.015625 z m 0,0"
               id="id-51c50954-2a27-432b-8b5d-86bb090d0bc7" />
          </g>
          <g
             transform="translate(162.909,134.765)"
             id="g3210">
            <path
               style="stroke:none;stroke-width:0"
               d="m 2.375,-5.375 c -1.09375,0 -1.890625,0.609375 -1.890625,1.453125 0,0.734375 0.4375,1.21875 1.578125,1.515625 1.015625,0.265625 1.28125,0.46875 1.28125,0.984375 0,0.5 -0.4375,0.796875 -1.125,0.796875 -0.578125,0 -1.0625,-0.1875 -1.484375,-0.5 L 0.25,-0.5625 c 0.453125,0.390625 1.09375,0.6875 1.984375,0.6875 1.0625,0 2.078125,-0.5 2.078125,-1.59375 0,-0.921875 -0.640625,-1.359375 -1.75,-1.640625 -0.84375,-0.21875 -1.125,-0.421875 -1.125,-0.84375 0,-0.421875 0.359375,-0.6875 0.96875,-0.6875 0.484375,0 0.890625,0.140625 1.359375,0.4375 L 4.15625,-4.78125 C 3.65625,-5.15625 3.109375,-5.375 2.375,-5.375 Z m 0,0"
               id="id-2cc80db0-47c7-4508-8827-35a8ba4849e2" />
          </g>
        </g>
        <g
           style="fill:#000000;fill-opacity:1"
           id="id-9b353c3f-f6e4-4110-b197-825014869898">
          <g
             transform="translate(167.462,134.765)"
             id="g3214">
            <path
               style="stroke:none;stroke-width:0"
               d="m 2.375,-5.375 c -1.09375,0 -1.890625,0.609375 -1.890625,1.453125 0,0.734375 0.4375,1.21875 1.578125,1.515625 1.015625,0.265625 1.28125,0.46875 1.28125,0.984375 0,0.5 -0.4375,0.796875 -1.125,0.796875 -0.578125,0 -1.0625,-0.1875 -1.484375,-0.5 L 0.25,-0.5625 c 0.453125,0.390625 1.09375,0.6875 1.984375,0.6875 1.0625,0 2.078125,-0.5 2.078125,-1.59375 0,-0.921875 -0.640625,-1.359375 -1.75,-1.640625 -0.84375,-0.21875 -1.125,-0.421875 -1.125,-0.84375 0,-0.421875 0.359375,-0.6875 0.96875,-0.6875 0.484375,0 0.890625,0.140625 1.359375,0.4375 L 4.15625,-4.78125 C 3.65625,-5.15625 3.109375,-5.375 2.375,-5.375 Z m 0,0"
               id="id-81cbe4be-1c1b-4c68-887c-35089d05fa40" />
          </g>
          <g
             transform="translate(172.114,134.765)"
             id="g3217">
            <path
               style="stroke:none;stroke-width:0"
               d="m 2.921875,-5.375 c -1.5,0 -2.359375,1.125 -2.359375,2.75 0,1.671875 0.859375,2.75 2.34375,2.75 C 4.390625,0.125 5.25,-1 5.25,-2.625 c 0,-1.671875 -0.828125,-2.75 -2.328125,-2.75 z m 0,0.734375 c 0.859375,0 1.34375,0.640625 1.34375,2.015625 0,1.375 -0.484375,2 -1.359375,2 -0.875,0 -1.34375,-0.625 -1.34375,-2 0,-1.375 0.484375,-2.015625 1.359375,-2.015625 z m 0,0"
               id="id-a7e4d763-a71b-46d4-853f-1fa8f0380353" />
          </g>
        </g>
        <g
           style="fill:#000000;fill-opacity:1"
           id="id-696cf7d5-4f01-4471-b1cd-6b7adb359305">
          <g
             transform="translate(177.882,134.765)"
             id="g3221">
            <path
               style="stroke:none;stroke-width:0"
               d="M 4.8125,-5.25 H 3.84375 l -1.375,4.4375 -1.375,-4.4375 h -1 L 1.90625,0 h 1.109375 z m 0,0"
               id="id-4f7ed686-468a-463d-bbc1-8047aca076a2" />
          </g>
        </g>
        <g
           style="fill:#000000;fill-opacity:1"
           id="id-15f96f2e-14c1-46c7-b363-97bebe3ff8d0">
          <g
             transform="translate(182.744,134.765)"
             id="g3225">
            <path
               style="stroke:none;stroke-width:0"
               d="m 4.921875,-2.78125 c 0,-1.609375 -0.75,-2.59375 -2.171875,-2.59375 -1.359375,0 -2.1875,1.171875 -2.1875,2.796875 0,1.671875 0.859375,2.703125 2.328125,2.703125 0.734375,0 1.3125,-0.25 1.828125,-0.65625 L 4.328125,-1.09375 C 3.875,-0.765625 3.484375,-0.625 2.953125,-0.625 c -0.75,0 -1.3125,-0.46875 -1.40625,-1.6875 h 3.34375 c 0.015625,-0.125 0.03125,-0.296875 0.03125,-0.46875 z M 4,-2.984375 H 1.546875 c 0.0625,-1.171875 0.53125,-1.65625 1.21875,-1.65625 0.828125,0 1.234375,0.5625 1.234375,1.59375 z m 0,0"
               id="id-c1196222-9c7c-4fed-b328-1b34d7335cbc" />
          </g>
          <g
             transform="translate(188.164,134.765)"
             id="g3228">
            <path
               style="stroke:none;stroke-width:0"
               d="m 3.203125,-5.375 c -0.640625,0 -1.125,0.40625 -1.40625,1.1875 L 1.703125,-5.25 H 0.921875 V 0 h 0.90625 v -3 c 0.21875,-1 0.609375,-1.46875 1.265625,-1.46875 0.1875,0 0.296875,0.015625 0.453125,0.046875 L 3.71875,-5.3125 C 3.5625,-5.359375 3.375,-5.375 3.203125,-5.375 Z m 0,0"
               id="id-7b9db816-3a67-4dff-8a50-dad8eec8c4e3" />
          </g>
        </g>
      </g>
    </g>
    <g
       transform="matrix(1.6297992,-0.94096502,0.94096502,1.6297992,91.166185,80.943787)"
       ns1:version="1.3.0"
       ns1:texconverter="pdflatex"
       ns1:pdfconverter="inkscape"
       ns1:text="$J_0 \\to J^*$"
       ns1:preamble="/home/abhirup/textext.tex"
       ns1:scale="5.334602570919088"
       ns1:alignment="middle center"
       ns1:jacobian_sqrt="1.88193"
       id="g3574">
      <defs
         id="id-72e9a30e-2dee-4040-906c-e96f88523218">
        <g
           id="id-048d8a47-7111-406f-9906-c16457aed1c6">
          <symbol
             overflow="visible"
             id="id-995556db-3ae7-46d3-9f6f-480d471d5b1e">
            <path
               style="stroke:none;stroke-width:0"
               d=""
               id="id-f3c713a5-493e-4b6a-8534-902ec13e9e43" />
          </symbol>
          <symbol
             overflow="visible"
             id="id-e443b78d-c763-4fb7-99d3-4b6aafe4a429">
            <path
               style="stroke:none;stroke-width:0"
               d="M 5.390625,-6.078125 C 5.46875,-6.40625 5.5,-6.5 6.046875,-6.5 c 0.15625,0 0.265625,0 0.265625,-0.1875 0,-0.09375 -0.0625,-0.125 -0.140625,-0.125 -0.25,0 -0.859375,0.03125 -1.109375,0.03125 -0.328125,0 -1.140625,-0.03125 -1.46875,-0.03125 -0.078125,0 -0.203125,0 -0.203125,0.203125 C 3.390625,-6.5 3.46875,-6.5 3.734375,-6.5 c 0.21875,0 0.328125,0 0.578125,0.015625 0.234375,0.03125 0.296875,0.0625 0.296875,0.203125 0,0.0625 -0.015625,0.125 -0.03125,0.203125 L 3.421875,-1.5 C 3.1875,-0.53125 2.515625,0 2,0 1.734375,0 1.203125,-0.09375 1.046875,-0.625 c 0.03125,0.015625 0.09375,0.015625 0.125,0.015625 0.390625,0 0.640625,-0.34375 0.640625,-0.640625 0,-0.3125 -0.265625,-0.421875 -0.4375,-0.421875 -0.171875,0 -0.671875,0.125 -0.671875,0.796875 0,0.625 0.53125,1.09375 1.328125,1.09375 0.90625,0 1.953125,-0.65625 2.203125,-1.640625 z m 0,0"
               id="id-e26d2de9-9beb-48e5-a1f5-2678c67d7ed5" />
          </symbol>
          <symbol
             overflow="visible"
             id="id-ce7b8995-01e3-4c1b-913b-7a16e674b6c4">
            <path
               style="stroke:none;stroke-width:0"
               d=""
               id="id-fe356410-8738-494b-8a37-bcef094bfb4a" />
          </symbol>
          <symbol
             overflow="visible"
             id="id-fd195c29-1534-4ce8-96e3-c251c55a0815">
            <path
               style="stroke:none;stroke-width:0"
               d="M 3.59375,-2.21875 C 3.59375,-2.984375 3.5,-3.546875 3.1875,-4.03125 2.96875,-4.34375 2.53125,-4.625 1.984375,-4.625 c -1.625,0 -1.625,1.90625 -1.625,2.40625 0,0.5 0,2.359375 1.625,2.359375 1.609375,0 1.609375,-1.859375 1.609375,-2.359375 z M 1.984375,-0.0625 c -0.328125,0 -0.75,-0.1875 -0.890625,-0.75 C 1,-1.21875 1,-1.796875 1,-2.3125 1,-2.828125 1,-3.359375 1.09375,-3.734375 1.25,-4.28125 1.6875,-4.4375 1.984375,-4.4375 c 0.375,0 0.734375,0.234375 0.859375,0.640625 0.109375,0.375 0.125,0.875 0.125,1.484375 0,0.515625 0,1.03125 -0.09375,1.46875 -0.140625,0.640625 -0.609375,0.78125 -0.890625,0.78125 z m 0,0"
               id="id-1742451b-9d78-4221-8323-e2116eb2561e" />
          </symbol>
          <symbol
             overflow="visible"
             id="id-c50bb28e-5ef3-4cec-bcad-fe26aa8de4d7">
            <path
               style="stroke:none;stroke-width:0"
               d=""
               id="id-86ba23a0-e88f-4439-822f-eca979572a97" />
          </symbol>
          <symbol
             overflow="visible"
             id="id-26457724-d0e1-4495-b5f6-f1f72f18dfc2">
            <path
               style="stroke:none;stroke-width:0"
               d="M 8.3125,-2.296875 C 7.765625,-1.875 7.5,-1.46875 7.421875,-1.328125 c -0.453125,0.6875 -0.53125,1.3125 -0.53125,1.3125 0,0.125 0.125,0.125 0.203125,0.125 C 7.25,0.109375 7.265625,0.09375 7.3125,-0.09375 7.53125,-1.0625 8.125,-1.90625 9.25,-2.359375 9.375,-2.40625 9.40625,-2.421875 9.40625,-2.5 c 0,-0.0625 -0.0625,-0.09375 -0.078125,-0.109375 C 8.875,-2.765625 7.671875,-3.265625 7.296875,-4.9375 7.265625,-5.0625 7.25,-5.09375 7.09375,-5.09375 c -0.078125,0 -0.203125,0 -0.203125,0.125 0,0.015625 0.09375,0.640625 0.5,1.3125 0.203125,0.296875 0.5,0.640625 0.921875,0.96875 H 0.90625 c -0.171875,0 -0.359375,0 -0.359375,0.1875 0,0.203125 0.1875,0.203125 0.359375,0.203125 z m 0,0"
               id="id-84b2b7d5-3323-4836-8669-43da767dc47c" />
          </symbol>
          <symbol
             overflow="visible"
             id="id-ed2b9438-a81f-4546-a5a6-df4491c270d6">
            <path
               style="stroke:none;stroke-width:0"
               d=""
               id="id-926cc0d2-90a7-421f-87a3-c6006780bb65" />
          </symbol>
          <symbol
             overflow="visible"
             id="id-fe183edf-b16d-4a12-b43c-799bd21d313d">
            <path
               style="stroke:none;stroke-width:0"
               d="m 2.25,-1.734375 c 0.578125,-0.25 0.828125,-0.34375 1,-0.4375 0.140625,-0.046875 0.203125,-0.078125 0.203125,-0.21875 0,-0.109375 -0.09375,-0.21875 -0.21875,-0.21875 -0.046875,0 -0.0625,0 -0.140625,0.0625 L 2.140625,-1.90625 2.25,-2.9375 c 0.015625,-0.125 0,-0.296875 -0.21875,-0.296875 -0.078125,0 -0.21875,0.046875 -0.21875,0.203125 0,0.0625 0.03125,0.265625 0.046875,0.34375 0.015625,0.109375 0.0625,0.625 0.078125,0.78125 L 0.984375,-2.546875 c -0.0625,-0.03125 -0.078125,-0.0625 -0.140625,-0.0625 -0.140625,0 -0.21875,0.109375 -0.21875,0.21875 0,0.140625 0.078125,0.1875 0.140625,0.203125 L 1.8125,-1.734375 c -0.5625,0.25 -0.828125,0.34375 -1,0.421875 -0.125,0.0625 -0.1875,0.09375 -0.1875,0.21875 0,0.125 0.078125,0.21875 0.21875,0.21875 0.046875,0 0.0625,0 0.140625,-0.0625 l 0.953125,-0.625 -0.125,1.109375 c 0,0.15625 0.140625,0.21875 0.21875,0.21875 0.09375,0 0.21875,-0.0625 0.21875,-0.21875 0,-0.0625 -0.03125,-0.265625 -0.03125,-0.328125 -0.015625,-0.125 -0.0625,-0.625 -0.078125,-0.78125 L 2.96875,-1.015625 C 3.15625,-0.875 3.171875,-0.875 3.234375,-0.875 c 0.125,0 0.21875,-0.09375 0.21875,-0.21875 0,-0.140625 -0.09375,-0.171875 -0.15625,-0.203125 z m 0,0"
               id="id-096d8165-3709-40c1-8980-0787b2c51bba" />
          </symbol>
        </g>
      </defs>
      <g
         id="id-f5213421-5cfc-4494-8a01-a6c985deb1f5"
         transform="translate(-149.415,-127.915)">
        <g
           style="fill:#000000;fill-opacity:1"
           id="id-870fdc5a-8810-48c2-8aa1-9032b7090fce">
          <g
             transform="translate(148.712,134.765)"
             id="g3554">
            <path
               style="stroke:none;stroke-width:0"
               d="M 5.390625,-6.078125 C 5.46875,-6.40625 5.5,-6.5 6.046875,-6.5 c 0.15625,0 0.265625,0 0.265625,-0.1875 0,-0.09375 -0.0625,-0.125 -0.140625,-0.125 -0.25,0 -0.859375,0.03125 -1.109375,0.03125 -0.328125,0 -1.140625,-0.03125 -1.46875,-0.03125 -0.078125,0 -0.203125,0 -0.203125,0.203125 C 3.390625,-6.5 3.46875,-6.5 3.734375,-6.5 c 0.21875,0 0.328125,0 0.578125,0.015625 0.234375,0.03125 0.296875,0.0625 0.296875,0.203125 0,0.0625 -0.015625,0.125 -0.03125,0.203125 L 3.421875,-1.5 C 3.1875,-0.53125 2.515625,0 2,0 1.734375,0 1.203125,-0.09375 1.046875,-0.625 c 0.03125,0.015625 0.09375,0.015625 0.125,0.015625 0.390625,0 0.640625,-0.34375 0.640625,-0.640625 0,-0.3125 -0.265625,-0.421875 -0.4375,-0.421875 -0.171875,0 -0.671875,0.125 -0.671875,0.796875 0,0.625 0.53125,1.09375 1.328125,1.09375 0.90625,0 1.953125,-0.65625 2.203125,-1.640625 z m 0,0"
               id="id-f74636b8-8122-4940-9124-ed51f97e4e2d" />
          </g>
        </g>
        <g
           style="fill:#000000;fill-opacity:1"
           id="id-813485a5-44f9-4643-94ed-b2cc357be437">
          <g
             transform="translate(154.237,136.259)"
             id="g3558">
            <path
               style="stroke:none;stroke-width:0"
               d="M 3.59375,-2.21875 C 3.59375,-2.984375 3.5,-3.546875 3.1875,-4.03125 2.96875,-4.34375 2.53125,-4.625 1.984375,-4.625 c -1.625,0 -1.625,1.90625 -1.625,2.40625 0,0.5 0,2.359375 1.625,2.359375 1.609375,0 1.609375,-1.859375 1.609375,-2.359375 z M 1.984375,-0.0625 c -0.328125,0 -0.75,-0.1875 -0.890625,-0.75 C 1,-1.21875 1,-1.796875 1,-2.3125 1,-2.828125 1,-3.359375 1.09375,-3.734375 1.25,-4.28125 1.6875,-4.4375 1.984375,-4.4375 c 0.375,0 0.734375,0.234375 0.859375,0.640625 0.109375,0.375 0.125,0.875 0.125,1.484375 0,0.515625 0,1.03125 -0.09375,1.46875 -0.140625,0.640625 -0.609375,0.78125 -0.890625,0.78125 z m 0,0"
               id="id-f1261994-38d3-4354-9c00-db44d69aa2bc" />
          </g>
        </g>
        <g
           style="fill:#000000;fill-opacity:1"
           id="id-d161d2e6-40f9-4a78-8f6b-9a35ee9301c8">
          <g
             transform="translate(161.473,134.765)"
             id="g3562">
            <path
               style="stroke:none;stroke-width:0"
               d="M 8.3125,-2.296875 C 7.765625,-1.875 7.5,-1.46875 7.421875,-1.328125 c -0.453125,0.6875 -0.53125,1.3125 -0.53125,1.3125 0,0.125 0.125,0.125 0.203125,0.125 C 7.25,0.109375 7.265625,0.09375 7.3125,-0.09375 7.53125,-1.0625 8.125,-1.90625 9.25,-2.359375 9.375,-2.40625 9.40625,-2.421875 9.40625,-2.5 c 0,-0.0625 -0.0625,-0.09375 -0.078125,-0.109375 C 8.875,-2.765625 7.671875,-3.265625 7.296875,-4.9375 7.265625,-5.0625 7.25,-5.09375 7.09375,-5.09375 c -0.078125,0 -0.203125,0 -0.203125,0.125 0,0.015625 0.09375,0.640625 0.5,1.3125 0.203125,0.296875 0.5,0.640625 0.921875,0.96875 H 0.90625 c -0.171875,0 -0.359375,0 -0.359375,0.1875 0,0.203125 0.1875,0.203125 0.359375,0.203125 z m 0,0"
               id="id-63bfaab8-62f4-420e-b2fa-ae4c9b7c87d1" />
          </g>
        </g>
        <g
           style="fill:#000000;fill-opacity:1"
           id="id-f7f6a7af-c809-41d8-a636-bb3868a638f6">
          <g
             transform="translate(174.203,134.765)"
             id="g3566">
            <path
               style="stroke:none;stroke-width:0"
               d="M 5.390625,-6.078125 C 5.46875,-6.40625 5.5,-6.5 6.046875,-6.5 c 0.15625,0 0.265625,0 0.265625,-0.1875 0,-0.09375 -0.0625,-0.125 -0.140625,-0.125 -0.25,0 -0.859375,0.03125 -1.109375,0.03125 -0.328125,0 -1.140625,-0.03125 -1.46875,-0.03125 -0.078125,0 -0.203125,0 -0.203125,0.203125 C 3.390625,-6.5 3.46875,-6.5 3.734375,-6.5 c 0.21875,0 0.328125,0 0.578125,0.015625 0.234375,0.03125 0.296875,0.0625 0.296875,0.203125 0,0.0625 -0.015625,0.125 -0.03125,0.203125 L 3.421875,-1.5 C 3.1875,-0.53125 2.515625,0 2,0 1.734375,0 1.203125,-0.09375 1.046875,-0.625 c 0.03125,0.015625 0.09375,0.015625 0.125,0.015625 0.390625,0 0.640625,-0.34375 0.640625,-0.640625 0,-0.3125 -0.265625,-0.421875 -0.4375,-0.421875 -0.171875,0 -0.671875,0.125 -0.671875,0.796875 0,0.625 0.53125,1.09375 1.328125,1.09375 0.90625,0 1.953125,-0.65625 2.203125,-1.640625 z m 0,0"
               id="id-1c6e9bf2-b6dd-4244-b26c-1cd51757faca" />
          </g>
        </g>
        <g
           style="fill:#000000;fill-opacity:1"
           id="id-f4d04e28-c880-46d2-952f-e8db5bdce9b5">
          <g
             transform="translate(180.686,131.149)"
             id="g3570">
            <path
               style="stroke:none;stroke-width:0"
               d="m 2.25,-1.734375 c 0.578125,-0.25 0.828125,-0.34375 1,-0.4375 0.140625,-0.046875 0.203125,-0.078125 0.203125,-0.21875 0,-0.109375 -0.09375,-0.21875 -0.21875,-0.21875 -0.046875,0 -0.0625,0 -0.140625,0.0625 L 2.140625,-1.90625 2.25,-2.9375 c 0.015625,-0.125 0,-0.296875 -0.21875,-0.296875 -0.078125,0 -0.21875,0.046875 -0.21875,0.203125 0,0.0625 0.03125,0.265625 0.046875,0.34375 0.015625,0.109375 0.0625,0.625 0.078125,0.78125 L 0.984375,-2.546875 c -0.0625,-0.03125 -0.078125,-0.0625 -0.140625,-0.0625 -0.140625,0 -0.21875,0.109375 -0.21875,0.21875 0,0.140625 0.078125,0.1875 0.140625,0.203125 L 1.8125,-1.734375 c -0.5625,0.25 -0.828125,0.34375 -1,0.421875 -0.125,0.0625 -0.1875,0.09375 -0.1875,0.21875 0,0.125 0.078125,0.21875 0.21875,0.21875 0.046875,0 0.0625,0 0.140625,-0.0625 l 0.953125,-0.625 -0.125,1.109375 c 0,0.15625 0.140625,0.21875 0.21875,0.21875 0.09375,0 0.21875,-0.0625 0.21875,-0.21875 0,-0.0625 -0.03125,-0.265625 -0.03125,-0.328125 -0.015625,-0.125 -0.0625,-0.625 -0.078125,-0.78125 L 2.96875,-1.015625 C 3.15625,-0.875 3.171875,-0.875 3.234375,-0.875 c 0.125,0 0.21875,-0.09375 0.21875,-0.21875 0,-0.140625 -0.09375,-0.171875 -0.15625,-0.203125 z m 0,0"
               id="id-fd0ee775-88e5-4efe-a229-1be253794665" />
          </g>
        </g>
      </g>
    </g>
    <g
       transform="matrix(0.940965,-1.6298,1.6298,0.940965,196.428,149.093)"
       ns1:version="1.3.0"
       ns1:texconverter="pdflatex"
       ns1:pdfconverter="inkscape"
       ns1:text="$V_0 \\to V^*$"
       ns1:preamble="/home/abhirup/textext.tex"
       ns1:scale="5.334602600023957"
       ns1:alignment="middle center"
       ns1:jacobian_sqrt="1.881930703087922"
       id="g3699">
      <defs
         id="id-402b1857-df07-4379-a627-37f5813d2c3f">
        <g
           id="id-5180078b-08d9-4791-85f0-57f315faca4d">
          <symbol
             overflow="visible"
             id="id-c5ee83f5-a630-46e0-8942-87e46cc1cccd">
            <path
               style="stroke:none"
               d=""
               id="id-5971839b-f882-4626-b104-e6f257c359d2" />
          </symbol>
          <symbol
             overflow="visible"
             id="id-6d665eb5-2ab7-4a5e-a86a-f531e04eb2a3">
            <path
               style="stroke:none"
               d="M 6.265625,-5.671875 C 6.75,-6.453125 7.171875,-6.484375 7.53125,-6.5 c 0.125,-0.015625 0.140625,-0.171875 0.140625,-0.1875 0,-0.078125 -0.0625,-0.125 -0.140625,-0.125 -0.25,0 -0.546875,0.03125 -0.8125,0.03125 -0.328125,0 -0.671875,-0.03125 -0.984375,-0.03125 -0.0625,0 -0.1875,0 -0.1875,0.1875 0,0.109375 0.078125,0.125 0.15625,0.125 0.265625,0.015625 0.453125,0.125 0.453125,0.328125 0,0.15625 -0.140625,0.375 -0.140625,0.375 l -3.0625,4.875 -0.6875,-5.28125 C 2.265625,-6.375 2.5,-6.5 2.953125,-6.5 c 0.140625,0 0.25,0 0.25,-0.203125 0,-0.078125 -0.078125,-0.109375 -0.125,-0.109375 -0.40625,0 -0.828125,0.03125 -1.25,0.03125 -0.171875,0 -0.359375,0 -0.546875,0 -0.171875,0 -0.359375,-0.03125 -0.53125,-0.03125 -0.078125,0 -0.1875,0 -0.1875,0.1875 0,0.125 0.078125,0.125 0.25,0.125 0.546875,0 0.5625,0.09375 0.59375,0.34375 L 2.1875,-0.015625 C 2.21875,0.1875 2.265625,0.21875 2.390625,0.21875 c 0.15625,0 0.203125,-0.046875 0.28125,-0.171875 z m 0,0"
               id="id-6051e4d2-261b-4dda-80fd-9aa4bc4dbc3b" />
          </symbol>
          <symbol
             overflow="visible"
             id="id-021579c2-17be-4563-b55c-a78b6cb980c4">
            <path
               style="stroke:none"
               d=""
               id="id-f2b9e5ec-a7b3-493f-9a4c-d9acd1644d66" />
          </symbol>
          <symbol
             overflow="visible"
             id="id-bd520c50-7e2a-4589-bb01-ae0cbc4d52bb">
            <path
               style="stroke:none"
               d="M 3.59375,-2.21875 C 3.59375,-2.984375 3.5,-3.546875 3.1875,-4.03125 2.96875,-4.34375 2.53125,-4.625 1.984375,-4.625 c -1.625,0 -1.625,1.90625 -1.625,2.40625 0,0.5 0,2.359375 1.625,2.359375 1.609375,0 1.609375,-1.859375 1.609375,-2.359375 z M 1.984375,-0.0625 c -0.328125,0 -0.75,-0.1875 -0.890625,-0.75 C 1,-1.21875 1,-1.796875 1,-2.3125 1,-2.828125 1,-3.359375 1.09375,-3.734375 1.25,-4.28125 1.6875,-4.4375 1.984375,-4.4375 c 0.375,0 0.734375,0.234375 0.859375,0.640625 0.109375,0.375 0.125,0.875 0.125,1.484375 0,0.515625 0,1.03125 -0.09375,1.46875 -0.140625,0.640625 -0.609375,0.78125 -0.890625,0.78125 z m 0,0"
               id="id-96f8f199-cdbb-4e3a-96b5-4d9775a1773b" />
          </symbol>
          <symbol
             overflow="visible"
             id="id-f4b52c37-551e-4632-9e8a-8c500328d27b">
            <path
               style="stroke:none"
               d=""
               id="id-1c8f84d9-8414-4b49-8541-a29830d68336" />
          </symbol>
          <symbol
             overflow="visible"
             id="id-6842a94b-a559-4c79-9780-39f58876dd62">
            <path
               style="stroke:none"
               d="M 8.3125,-2.296875 C 7.765625,-1.875 7.5,-1.46875 7.421875,-1.328125 c -0.453125,0.6875 -0.53125,1.3125 -0.53125,1.3125 0,0.125 0.125,0.125 0.203125,0.125 C 7.25,0.109375 7.265625,0.09375 7.3125,-0.09375 7.53125,-1.0625 8.125,-1.90625 9.25,-2.359375 9.375,-2.40625 9.40625,-2.421875 9.40625,-2.5 c 0,-0.0625 -0.0625,-0.09375 -0.078125,-0.109375 C 8.875,-2.765625 7.671875,-3.265625 7.296875,-4.9375 7.265625,-5.0625 7.25,-5.09375 7.09375,-5.09375 c -0.078125,0 -0.203125,0 -0.203125,0.125 0,0.015625 0.09375,0.640625 0.5,1.3125 0.203125,0.296875 0.5,0.640625 0.921875,0.96875 H 0.90625 c -0.171875,0 -0.359375,0 -0.359375,0.1875 0,0.203125 0.1875,0.203125 0.359375,0.203125 z m 0,0"
               id="id-7fef50c2-d72d-4a0e-b694-0d9b24d4514c" />
          </symbol>
          <symbol
             overflow="visible"
             id="id-452f075b-d03c-475d-9cad-2bfa91113d27">
            <path
               style="stroke:none"
               d=""
               id="id-928d88c3-dfd3-44f3-9a8f-6e99c2db9da0" />
          </symbol>
          <symbol
             overflow="visible"
             id="id-ae4e98fb-4392-4907-85c0-ba75258af3d8">
            <path
               style="stroke:none"
               d="m 2.25,-1.734375 c 0.578125,-0.25 0.828125,-0.34375 1,-0.4375 0.140625,-0.046875 0.203125,-0.078125 0.203125,-0.21875 0,-0.109375 -0.09375,-0.21875 -0.21875,-0.21875 -0.046875,0 -0.0625,0 -0.140625,0.0625 L 2.140625,-1.90625 2.25,-2.9375 c 0.015625,-0.125 0,-0.296875 -0.21875,-0.296875 -0.078125,0 -0.21875,0.046875 -0.21875,0.203125 0,0.0625 0.03125,0.265625 0.046875,0.34375 0.015625,0.109375 0.0625,0.625 0.078125,0.78125 L 0.984375,-2.546875 c -0.0625,-0.03125 -0.078125,-0.0625 -0.140625,-0.0625 -0.140625,0 -0.21875,0.109375 -0.21875,0.21875 0,0.140625 0.078125,0.1875 0.140625,0.203125 L 1.8125,-1.734375 c -0.5625,0.25 -0.828125,0.34375 -1,0.421875 -0.125,0.0625 -0.1875,0.09375 -0.1875,0.21875 0,0.125 0.078125,0.21875 0.21875,0.21875 0.046875,0 0.0625,0 0.140625,-0.0625 l 0.953125,-0.625 -0.125,1.109375 c 0,0.15625 0.140625,0.21875 0.21875,0.21875 0.09375,0 0.21875,-0.0625 0.21875,-0.21875 0,-0.0625 -0.03125,-0.265625 -0.03125,-0.328125 -0.015625,-0.125 -0.0625,-0.625 -0.078125,-0.78125 L 2.96875,-1.015625 C 3.15625,-0.875 3.171875,-0.875 3.234375,-0.875 c 0.125,0 0.21875,-0.09375 0.21875,-0.21875 0,-0.140625 -0.09375,-0.171875 -0.15625,-0.203125 z m 0,0"
               id="id-61fdad7a-3e9e-472d-98cc-32134d5b0e13" />
          </symbol>
        </g>
      </defs>
      <g
         id="id-b9c9d46e-6497-4561-bc7b-daaedcc38d88"
         transform="translate(-149.275,-127.915)">
        <g
           style="fill:#000000;fill-opacity:1"
           id="id-e9427891-63e5-4d00-95d9-6c95e1ed3e39">
          <g
             transform="translate(148.712,134.765)"
             id="g4065">
            <path
               style="stroke:none"
               d="M 6.265625,-5.671875 C 6.75,-6.453125 7.171875,-6.484375 7.53125,-6.5 c 0.125,-0.015625 0.140625,-0.171875 0.140625,-0.1875 0,-0.078125 -0.0625,-0.125 -0.140625,-0.125 -0.25,0 -0.546875,0.03125 -0.8125,0.03125 -0.328125,0 -0.671875,-0.03125 -0.984375,-0.03125 -0.0625,0 -0.1875,0 -0.1875,0.1875 0,0.109375 0.078125,0.125 0.15625,0.125 0.265625,0.015625 0.453125,0.125 0.453125,0.328125 0,0.15625 -0.140625,0.375 -0.140625,0.375 l -3.0625,4.875 -0.6875,-5.28125 C 2.265625,-6.375 2.5,-6.5 2.953125,-6.5 c 0.140625,0 0.25,0 0.25,-0.203125 0,-0.078125 -0.078125,-0.109375 -0.125,-0.109375 -0.40625,0 -0.828125,0.03125 -1.25,0.03125 -0.171875,0 -0.359375,0 -0.546875,0 -0.171875,0 -0.359375,-0.03125 -0.53125,-0.03125 -0.078125,0 -0.1875,0 -0.1875,0.1875 0,0.125 0.078125,0.125 0.25,0.125 0.546875,0 0.5625,0.09375 0.59375,0.34375 L 2.1875,-0.015625 C 2.21875,0.1875 2.265625,0.21875 2.390625,0.21875 c 0.15625,0 0.203125,-0.046875 0.28125,-0.171875 z m 0,0"
               id="id-44482e07-8348-49c5-b615-aaa7654ab1b5" />
          </g>
        </g>
        <g
           style="fill:#000000;fill-opacity:1"
           id="id-4c87b3db-2916-400a-8a33-e2e2f5ccf7d9">
          <g
             transform="translate(154.524,136.259)"
             id="g4069">
            <path
               style="stroke:none"
               d="M 3.59375,-2.21875 C 3.59375,-2.984375 3.5,-3.546875 3.1875,-4.03125 2.96875,-4.34375 2.53125,-4.625 1.984375,-4.625 c -1.625,0 -1.625,1.90625 -1.625,2.40625 0,0.5 0,2.359375 1.625,2.359375 1.609375,0 1.609375,-1.859375 1.609375,-2.359375 z M 1.984375,-0.0625 c -0.328125,0 -0.75,-0.1875 -0.890625,-0.75 C 1,-1.21875 1,-1.796875 1,-2.3125 1,-2.828125 1,-3.359375 1.09375,-3.734375 1.25,-4.28125 1.6875,-4.4375 1.984375,-4.4375 c 0.375,0 0.734375,0.234375 0.859375,0.640625 0.109375,0.375 0.125,0.875 0.125,1.484375 0,0.515625 0,1.03125 -0.09375,1.46875 -0.140625,0.640625 -0.609375,0.78125 -0.890625,0.78125 z m 0,0"
               id="id-1aa71a5c-ae4a-4ca0-ab00-c1483193d6b3" />
          </g>
        </g>
        <g
           style="fill:#000000;fill-opacity:1"
           id="id-08f04a36-fffe-4ffc-b372-c6df1cc6232b">
          <g
             transform="translate(161.761,134.765)"
             id="g4073">
            <path
               style="stroke:none"
               d="M 8.3125,-2.296875 C 7.765625,-1.875 7.5,-1.46875 7.421875,-1.328125 c -0.453125,0.6875 -0.53125,1.3125 -0.53125,1.3125 0,0.125 0.125,0.125 0.203125,0.125 C 7.25,0.109375 7.265625,0.09375 7.3125,-0.09375 7.53125,-1.0625 8.125,-1.90625 9.25,-2.359375 9.375,-2.40625 9.40625,-2.421875 9.40625,-2.5 c 0,-0.0625 -0.0625,-0.09375 -0.078125,-0.109375 C 8.875,-2.765625 7.671875,-3.265625 7.296875,-4.9375 7.265625,-5.0625 7.25,-5.09375 7.09375,-5.09375 c -0.078125,0 -0.203125,0 -0.203125,0.125 0,0.015625 0.09375,0.640625 0.5,1.3125 0.203125,0.296875 0.5,0.640625 0.921875,0.96875 H 0.90625 c -0.171875,0 -0.359375,0 -0.359375,0.1875 0,0.203125 0.1875,0.203125 0.359375,0.203125 z m 0,0"
               id="id-ab490935-7207-4352-b449-959428007907" />
          </g>
        </g>
        <g
           style="fill:#000000;fill-opacity:1"
           id="id-1d0e94de-44a8-48c1-8c19-e9687d004abd">
          <g
             transform="translate(174.491,134.765)"
             id="g4077">
            <path
               style="stroke:none"
               d="M 6.265625,-5.671875 C 6.75,-6.453125 7.171875,-6.484375 7.53125,-6.5 c 0.125,-0.015625 0.140625,-0.171875 0.140625,-0.1875 0,-0.078125 -0.0625,-0.125 -0.140625,-0.125 -0.25,0 -0.546875,0.03125 -0.8125,0.03125 -0.328125,0 -0.671875,-0.03125 -0.984375,-0.03125 -0.0625,0 -0.1875,0 -0.1875,0.1875 0,0.109375 0.078125,0.125 0.15625,0.125 0.265625,0.015625 0.453125,0.125 0.453125,0.328125 0,0.15625 -0.140625,0.375 -0.140625,0.375 l -3.0625,4.875 -0.6875,-5.28125 C 2.265625,-6.375 2.5,-6.5 2.953125,-6.5 c 0.140625,0 0.25,0 0.25,-0.203125 0,-0.078125 -0.078125,-0.109375 -0.125,-0.109375 -0.40625,0 -0.828125,0.03125 -1.25,0.03125 -0.171875,0 -0.359375,0 -0.546875,0 -0.171875,0 -0.359375,-0.03125 -0.53125,-0.03125 -0.078125,0 -0.1875,0 -0.1875,0.1875 0,0.125 0.078125,0.125 0.25,0.125 0.546875,0 0.5625,0.09375 0.59375,0.34375 L 2.1875,-0.015625 C 2.21875,0.1875 2.265625,0.21875 2.390625,0.21875 c 0.15625,0 0.203125,-0.046875 0.28125,-0.171875 z m 0,0"
               id="id-e9297025-3053-47b2-9096-ef747a615106" />
          </g>
        </g>
        <g
           style="fill:#000000;fill-opacity:1"
           id="id-121e12b1-b1c4-4f5b-b997-9fddef846850">
          <g
             transform="translate(182.516,131.149)"
             id="g4081">
            <path
               style="stroke:none"
               d="m 2.25,-1.734375 c 0.578125,-0.25 0.828125,-0.34375 1,-0.4375 0.140625,-0.046875 0.203125,-0.078125 0.203125,-0.21875 0,-0.109375 -0.09375,-0.21875 -0.21875,-0.21875 -0.046875,0 -0.0625,0 -0.140625,0.0625 L 2.140625,-1.90625 2.25,-2.9375 c 0.015625,-0.125 0,-0.296875 -0.21875,-0.296875 -0.078125,0 -0.21875,0.046875 -0.21875,0.203125 0,0.0625 0.03125,0.265625 0.046875,0.34375 0.015625,0.109375 0.0625,0.625 0.078125,0.78125 L 0.984375,-2.546875 c -0.0625,-0.03125 -0.078125,-0.0625 -0.140625,-0.0625 -0.140625,0 -0.21875,0.109375 -0.21875,0.21875 0,0.140625 0.078125,0.1875 0.140625,0.203125 L 1.8125,-1.734375 c -0.5625,0.25 -0.828125,0.34375 -1,0.421875 -0.125,0.0625 -0.1875,0.09375 -0.1875,0.21875 0,0.125 0.078125,0.21875 0.21875,0.21875 0.046875,0 0.0625,0 0.140625,-0.0625 l 0.953125,-0.625 -0.125,1.109375 c 0,0.15625 0.140625,0.21875 0.21875,0.21875 0.09375,0 0.21875,-0.0625 0.21875,-0.21875 0,-0.0625 -0.03125,-0.265625 -0.03125,-0.328125 -0.015625,-0.125 -0.0625,-0.625 -0.078125,-0.78125 L 2.96875,-1.015625 C 3.15625,-0.875 3.171875,-0.875 3.234375,-0.875 c 0.125,0 0.21875,-0.09375 0.21875,-0.21875 0,-0.140625 -0.09375,-0.171875 -0.15625,-0.203125 z m 0,0"
               id="id-2a64291a-a264-40d6-82a7-6014a21a7da8" />
          </g>
        </g>
      </g>
    </g>
  </g>
</svg>
