<?xml version="1.0" encoding="UTF-8" standalone="no"?>
<svg
   width="347.125pt"
   height="181.24219pt"
   viewBox="0 0 347.125 181.24219"
   version="1.2"
   id="svg32714"
   sodipodi:docname="zeromode.svg"
   inkscape:version="1.1.2 (0a00cf5339, 2022-02-04, custom)"
   xmlns:inkscape="http://www.inkscape.org/namespaces/inkscape"
   xmlns:sodipodi="http://sodipodi.sourceforge.net/DTD/sodipodi-0.dtd"
   xmlns="http://www.w3.org/2000/svg"
   xmlns:svg="http://www.w3.org/2000/svg"
   xmlns:ns11="http://www.iki.fi/pav/software/textext/">
  <sodipodi:namedview
     id="namedview32716"
     pagecolor="#505050"
     bordercolor="#eeeeee"
     borderopacity="1"
     inkscape:pageshadow="0"
     inkscape:pageopacity="0"
     inkscape:pagecheckerboard="0"
     inkscape:document-units="pt"
     showgrid="false"
     inkscape:zoom="1.4581968"
     inkscape:cx="196.81843"
     inkscape:cy="74.406968"
     inkscape:window-width="1916"
     inkscape:window-height="1051"
     inkscape:window-x="0"
     inkscape:window-y="25"
     inkscape:window-maximized="1"
     inkscape:current-layer="svg32714"
     inkscape:snap-bbox="true"
     inkscape:object-paths="true"
     inkscape:snap-intersection-paths="true" />
  <defs
     id="defs32609">
    <clipPath
       id="clip1">
      <path
         d="m 28,134 h 11 v 17.24219 H 28 Z m 0,0"
         id="path32600" />
    </clipPath>
    <clipPath
       id="clip2">
      <path
         d="m 75,134 h 12 v 17.24219 H 75 Z m 0,0"
         id="path32603" />
    </clipPath>
    <clipPath
       id="clip3">
      <path
         d="m 345,133 h 10.31641 v 13 H 345 Z m 0,0"
         id="path32606" />
    </clipPath>
  </defs>
  <path
     style="fill:#1e1e1e;fill-opacity:1;fill-rule:nonzero;stroke:none"
     d="m 87.671875,74.621094 c 0,24.210937 -19.628906,43.835936 -43.835937,43.835936 C 19.625,118.45703 0,98.832031 0,74.621094 0,50.414062 19.625,30.785156 43.835938,30.785156 c 24.207031,0 43.835937,19.628906 43.835937,43.835938 z m 0,0"
     id="path32611" />
  <path
     style="fill:#1e1e1e;fill-opacity:1;fill-rule:nonzero;stroke:none"
     d="m 347.125,74.621094 c 0,26.671876 -21.62109,48.289066 -48.28906,48.289066 -26.67188,0 -48.28907,-21.61719 -48.28907,-48.289066 0,-26.667969 21.61719,-48.289063 48.28907,-48.289063 26.66797,0 48.28906,21.621094 48.28906,48.289063 z m 0,0"
     id="path32613" />
  <path
     style="fill:none;stroke:#b0781e;stroke-width:2.83465;stroke-linecap:butt;stroke-linejoin:miter;stroke-miterlimit:4;stroke-opacity:1"
     d="M 28.835938,94.421875 V 60.40625"
     id="path32615" />
  <path
     style="fill:#b0781e;fill-opacity:1;fill-rule:evenodd;stroke:#b0781e;stroke-width:1.51181;stroke-linecap:butt;stroke-linejoin:miter;stroke-miterlimit:4;stroke-opacity:1"
     d="m 28.835938,71.746094 5.667968,5.667968 -5.667968,-19.839843 -5.671876,19.839843 z m 0,0"
     id="path32617" />
  <path
     style="fill:none;stroke:#b0781e;stroke-width:2.83465;stroke-linecap:butt;stroke-linejoin:miter;stroke-miterlimit:4;stroke-opacity:1"
     d="M 58.835938,54.820312 V 88.835938"
     id="path32619" />
  <path
     style="fill:#b0781e;fill-opacity:1;fill-rule:evenodd;stroke:#b0781e;stroke-width:1.51181;stroke-linecap:butt;stroke-linejoin:miter;stroke-miterlimit:4;stroke-opacity:1"
     d="m 58.835938,77.496094 -5.671876,-5.667969 5.671876,19.84375 5.667968,-19.84375 z m 0,0"
     id="path32621" />
  <path
     style="fill:none;stroke:#009e6e;stroke-width:2.83465;stroke-linecap:butt;stroke-linejoin:miter;stroke-miterlimit:4;stroke-opacity:1"
     d="M 284.50781,92.695312 V 58.683594"
     id="path32623" />
  <path
     style="fill:#009e6e;fill-opacity:1;fill-rule:evenodd;stroke:#009e6e;stroke-width:1.51181;stroke-linecap:butt;stroke-linejoin:miter;stroke-miterlimit:4;stroke-opacity:1"
     d="m 284.50781,70.023438 5.67188,5.667968 -5.67188,-19.84375 -5.66797,19.84375 z m 0,0"
     id="path32625" />
  <path
     style="fill:none;stroke:#009e6e;stroke-width:2.83465;stroke-linecap:butt;stroke-linejoin:miter;stroke-miterlimit:4;stroke-opacity:1"
     d="M 314.50781,53.097656 V 87.109375"
     id="path32627" />
  <path
     style="fill:#009e6e;fill-opacity:1;fill-rule:evenodd;stroke:#009e6e;stroke-width:1.51181;stroke-linecap:butt;stroke-linejoin:miter;stroke-miterlimit:4;stroke-opacity:1"
     d="m 314.50781,75.773438 -5.66797,-5.671876 5.66797,19.84375 5.67188,-19.84375 z m 0,0"
     id="path32629" />
  <path
     style="fill:none;stroke:#000000;stroke-width:2.83465;stroke-linecap:butt;stroke-linejoin:miter;stroke-miterlimit:4;stroke-opacity:1"
     d="M 95.960938,49.121094 H 237.71094"
     id="path32631" />
  <path
     style="fill:#000000;fill-opacity:1;fill-rule:evenodd;stroke:#000000;stroke-width:1.51181;stroke-linecap:butt;stroke-linejoin:miter;stroke-miterlimit:4;stroke-opacity:1"
     d="m 244.25391,49.121094 -9.8086,5.671875 V 43.453125 Z m 0,0"
     id="path32633" />
  <path
     style="fill:none;stroke:#000000;stroke-width:2.83465;stroke-linecap:butt;stroke-linejoin:miter;stroke-miterlimit:4;stroke-opacity:1"
     d="m 244.26172,89.621094 h -141.75"
     id="path32635" />
  <path
     style="fill:#000000;fill-opacity:1;fill-rule:evenodd;stroke:#000000;stroke-width:1.51181;stroke-linecap:butt;stroke-linejoin:miter;stroke-miterlimit:4;stroke-opacity:1"
     d="m 95.972656,89.621094 9.804684,-5.667969 v 11.339844 z m 0,0"
     id="path32637" />
  <g
     id="g32858"
     transform="translate(0.54139417,37.847656)">
    <path
       style="fill:#000000;fill-opacity:1;fill-rule:nonzero;stroke:none"
       d="m 142.35156,63.445312 c 0.17969,-0.738281 0.25,-0.949218 1.48047,-0.949218 0.35156,0 0.59766,0 0.59766,-0.421875 0,-0.210938 -0.14063,-0.28125 -0.31641,-0.28125 -0.5625,0 -1.9375,0.07031 -2.5,0.07031 -0.73828,0 -2.57031,-0.07031 -3.30859,-0.07031 -0.17578,0 -0.45703,0 -0.45703,0.457031 0,0.246094 0.17578,0.246094 0.77343,0.246094 0.49219,0 0.73828,0 1.30078,0.03516 0.53125,0.07031 0.67188,0.140625 0.67188,0.457031 0,0.140625 -0.0352,0.28125 -0.0703,0.457031 l -2.60547,10.320313 c -0.53125,2.183594 -2.04297,3.378906 -3.20703,3.378906 -0.59766,0 -1.79297,-0.210937 -2.14844,-1.410156 0.0703,0.03516 0.21484,0.03516 0.28516,0.03516 0.8789,0 1.4414,-0.773437 1.4414,-1.441406 0,-0.703125 -0.59765,-0.953125 -0.98437,-0.953125 -0.38672,0 -1.51563,0.285156 -1.51563,1.796875 0,1.410156 1.19922,2.464844 2.99219,2.464844 2.04297,0 4.40234,-1.476563 4.96484,-3.695313 z m 0,0"
       id="path32639" />
    <path
       style="fill:#000000;fill-opacity:1;fill-rule:nonzero;stroke:none"
       d="m 149.88672,65.085938 c 1.30078,-0.5625 1.86719,-0.773438 2.2539,-0.984376 0.31641,-0.105468 0.45704,-0.175781 0.45704,-0.492187 0,-0.246094 -0.21094,-0.496094 -0.49219,-0.496094 -0.10547,0 -0.14063,0 -0.31641,0.140625 l -2.14844,1.445313 0.2461,-2.324219 c 0.0352,-0.28125 0,-0.667969 -0.49219,-0.667969 -0.17578,0 -0.49609,0.105469 -0.49609,0.457031 0,0.140626 0.0703,0.597657 0.10547,0.773438 0.0352,0.246094 0.14062,1.410156 0.17968,1.761719 l -2.14843,-1.445313 c -0.14063,-0.07031 -0.17579,-0.140625 -0.32032,-0.140625 -0.3164,0 -0.49218,0.25 -0.49218,0.496094 0,0.316406 0.17578,0.421875 0.3164,0.457031 l 2.35938,1.019532 c -1.26563,0.5625 -1.86328,0.777343 -2.25391,0.953124 -0.28125,0.140626 -0.42187,0.210938 -0.42187,0.492188 0,0.28125 0.17578,0.492188 0.49218,0.492188 0.10938,0 0.14453,0 0.32032,-0.140626 l 2.14843,-1.410156 -0.28515,2.5 c 0,0.355469 0.32031,0.496094 0.49609,0.496094 0.21094,0 0.49219,-0.140625 0.49219,-0.496094 0,-0.140625 -0.0703,-0.597656 -0.0703,-0.738281 -0.0352,-0.28125 -0.14063,-1.40625 -0.17579,-1.761719 l 1.86329,1.234375 c 0.42578,0.316407 0.46093,0.316407 0.60156,0.316407 0.28125,0 0.49219,-0.210938 0.49219,-0.492188 0,-0.316406 -0.21094,-0.386719 -0.35157,-0.457031 z m 0,0"
       id="path32641" />
    <path
       style="fill:#000000;fill-opacity:1;fill-rule:nonzero;stroke:none"
       d="m 169.27734,58.085938 c -0.3164,0.316406 -1.05859,0.953124 -1.05859,1.339843 0,0.210938 0.21484,0.457031 0.42578,0.457031 0.21094,0 0.31641,-0.175781 0.45703,-0.316406 0.2461,-0.316406 0.77344,-0.953125 1.76172,-1.445312 0.14063,-0.105469 0.38672,-0.210938 0.38672,-0.457032 0,-0.246093 -0.17578,-0.351562 -0.31641,-0.457031 -0.49609,-0.351562 -0.74218,-0.738281 -0.91797,-1.269531 -0.0703,-0.210938 -0.14062,-0.527344 -0.45703,-0.527344 -0.3164,0 -0.45703,0.316406 -0.45703,0.492188 0,0.105468 0.17578,0.8125 0.52735,1.304687 h -7.57032 c -0.35156,0 -0.77343,0 -0.77343,0.457031 0,0.421876 0.42187,0.421876 0.77343,0.421876 z m 0,0"
       id="path32643" />
    <path
       style="fill:#000000;fill-opacity:1;fill-rule:nonzero;stroke:none"
       d="m 169.64453,61.546875 c 0,-0.07031 -0.0703,-0.25 -0.28125,-0.25 -0.10547,0 -0.10547,0.03906 -0.38672,0.355469 l -1.09375,1.265625 c -0.5625,-1.054688 -1.72265,-1.621094 -3.20312,-1.621094 -2.85157,0 -5.52735,2.609375 -5.52735,5.320313 0,1.792968 1.16016,2.851562 2.32422,3.167968 l 2.39453,0.632813 c 0.84375,0.210937 2.07422,0.5625 2.07422,2.394531 0,2.007812 -1.82812,4.121094 -4.04687,4.121094 -1.44532,0 -3.94532,-0.492188 -3.94532,-3.273438 0,-0.53125 0.14063,-1.09375 0.14063,-1.199218 0.0352,-0.105469 0.0352,-0.140626 0.0352,-0.175782 0,-0.210937 -0.14063,-0.246094 -0.2461,-0.246094 -0.10547,0 -0.17578,0.03516 -0.24609,0.105469 -0.0703,0.07031 -1.33594,5.210938 -1.33594,5.28125 0,0.105469 0.10547,0.210938 0.24609,0.210938 0.10547,0 0.14063,-0.03516 0.42188,-0.351563 l 1.08984,-1.265625 c 0.95313,1.300781 2.5,1.617188 3.80469,1.617188 3.0625,0 5.70313,-2.992188 5.70313,-5.773438 0,-1.550781 -0.77344,-2.324219 -1.08985,-2.640625 -0.53125,-0.492187 -0.88281,-0.597656 -2.85156,-1.09375 -0.53125,-0.140625 -1.30469,-0.386718 -1.51563,-0.421875 -0.59765,-0.210937 -1.375,-0.84375 -1.375,-2.042969 0,-1.828124 1.79688,-3.730468 3.94532,-3.730468 1.83203,0 3.20312,0.984375 3.20312,3.484375 0,0.703125 -0.0703,1.128906 -0.0703,1.269531 0,0 0,0.210938 0.24609,0.210938 0.2461,0 0.28125,-0.07031 0.35547,-0.457032 z m 0,0"
       id="path32645" />
    <path
       style="fill:#000000;fill-opacity:1;fill-rule:nonzero;stroke:none"
       d="m 177.88281,70.089844 c 0,-0.03516 0.0352,-0.246094 0.0352,-0.246094 0,-0.105469 -0.0352,-0.25 -0.2461,-0.25 -0.3164,0 -1.62109,0.144531 -2.00781,0.179688 -0.10547,0 -0.35156,0.03516 -0.35156,0.351562 0,0.210938 0.24609,0.210938 0.42187,0.210938 0.74219,0 0.74219,0.140624 0.74219,0.246093 0,0.105469 0,0.210938 -0.0352,0.351563 l -0.91797,3.589844 c -0.31641,-0.527344 -0.84375,-0.949219 -1.61719,-0.949219 -2.00781,0 -4.05078,2.21875 -4.05078,4.472656 0,1.550781 1.01953,2.605469 2.39453,2.605469 0.84375,0 1.58594,-0.457032 2.21875,-1.089844 0.28125,0.949219 1.19531,1.089844 1.61719,1.089844 0.5664,0 0.95312,-0.316406 1.23437,-0.808594 0.35156,-0.636719 0.5625,-1.515625 0.5625,-1.585938 0,-0.210937 -0.21094,-0.210937 -0.24609,-0.210937 -0.2461,0 -0.2461,0.07031 -0.35156,0.492187 -0.21094,0.773438 -0.49219,1.691407 -1.16407,1.691407 -0.38672,0 -0.52734,-0.351563 -0.52734,-0.773438 0,-0.285156 0.0352,-0.425781 0.10547,-0.636719 z m -3.34375,8.449218 c -0.10547,0.457032 -0.45703,0.773438 -0.8125,1.058594 -0.14062,0.140625 -0.77344,0.632813 -1.4414,0.632813 -0.59766,0 -1.16407,-0.421875 -1.16407,-1.515625 0,-0.84375 0.46094,-2.570313 0.84766,-3.203125 0.70312,-1.269531 1.51172,-1.480469 1.9375,-1.480469 1.08984,0 1.40625,1.199219 1.40625,1.375 0,0.03516 -0.0352,0.175781 -0.0352,0.210938 z m 0,0"
       id="path32647" />
    <path
       style="fill:#000000;fill-opacity:1;fill-rule:nonzero;stroke:none"
       d="m 188.65625,71.511719 c 0,-0.636719 -0.52734,-1.164063 -1.16016,-1.164063 -0.66797,0 -1.19922,0.527344 -1.19922,1.164063 0,0.667969 0.53125,1.195312 1.19922,1.195312 0.63282,0 1.16016,-0.527343 1.16016,-1.195312 z m 0,0"
       id="path32649" />
    <path
       style="fill:#000000;fill-opacity:1;fill-rule:nonzero;stroke:none"
       d="m 206.83594,63.765625 c -0.31641,0.316406 -1.05469,0.949219 -1.05469,1.335937 0,0.210938 0.21094,0.457032 0.42187,0.457032 0.21094,0 0.31641,-0.175782 0.45704,-0.316406 0.24609,-0.316407 0.77343,-0.949219 1.76171,-1.441407 0.14063,-0.109375 0.38672,-0.214843 0.38672,-0.460937 0,-0.246094 -0.17578,-0.351563 -0.3164,-0.457032 -0.4961,-0.351562 -0.74219,-0.738281 -0.91797,-1.265624 -0.0703,-0.210938 -0.14063,-0.53125 -0.45703,-0.53125 -0.31641,0 -0.45703,0.320312 -0.45703,0.496093 0,0.105469 0.17578,0.808594 0.52734,1.300781 h -7.57031 c -0.35157,0 -0.77344,0 -0.77344,0.457032 0,0.425781 0.42187,0.425781 0.77344,0.425781 z m 0,0"
       id="path32651" />
    <path
       style="fill:#000000;fill-opacity:1;fill-rule:nonzero;stroke:none"
       d="m 204.35937,68.730469 c -0.60156,0.03516 -1.05859,0.527343 -1.05859,1.019531 0,0.316406 0.21094,0.667969 0.70313,0.667969 0.49609,0 1.02343,-0.386719 1.02343,-1.265625 0,-1.023438 -0.95312,-1.9375 -2.67578,-1.9375 -2.96094,0 -3.80469,2.289062 -3.80469,3.273437 0,1.761719 1.65625,2.078125 2.32422,2.21875 1.16407,0.246094 2.32422,0.492188 2.32422,1.726563 0,0.5625 -0.49219,2.464844 -3.20312,2.464844 -0.31641,0 -2.04297,0 -2.57032,-1.199219 0.87891,0.105469 1.44141,-0.5625 1.44141,-1.195313 0,-0.492187 -0.38672,-0.773437 -0.84375,-0.773437 -0.59766,0 -1.26953,0.457031 -1.26953,1.476562 0,1.269531 1.30469,2.183594 3.20703,2.183594 3.66016,0 4.54297,-2.710937 4.54297,-3.730469 0,-0.8125 -0.42578,-1.375 -0.70703,-1.621094 -0.59766,-0.632812 -1.26563,-0.773437 -2.25391,-0.949218 -0.80859,-0.179688 -1.6875,-0.355469 -1.6875,-1.375 0,-0.632813 0.52735,-2.007813 2.5,-2.007813 0.5625,0 1.6875,0.175781 2.00781,1.023438 z m 0,0"
       id="path32653" />
    <path
       style="fill:#000000;fill-opacity:1;fill-rule:nonzero;stroke:none"
       d="m 218.08594,72.238281 c 0.17578,-0.07031 0.35156,-0.179687 0.35156,-0.390625 0,-0.210937 -0.17578,-0.386718 -0.38672,-0.386718 -0.0352,0 -0.10547,0 -0.31641,0.07031 l -9.57812,4.613281 c -0.17578,0.105469 -0.35156,0.210938 -0.35156,0.421875 0,0.246094 0.17578,0.316406 0.35156,0.425782 l 9.57812,4.609374 c 0.21094,0.105469 0.28125,0.105469 0.31641,0.105469 0.21094,0 0.38672,-0.175781 0.38672,-0.386719 0,-0.246093 -0.21094,-0.351562 -0.35156,-0.386718 l -9.01563,-4.332032 z m 0,0"
       id="path32655" />
  </g>
  <path
     style="fill:#000000;fill-opacity:1;fill-rule:nonzero;stroke:none"
     d="M 46.125,2.675781 C 45.804688,2.992188 45.066406,3.625 45.066406,4.015625 c 0,0.210937 0.210938,0.457031 0.421875,0.457031 0.210938,0 0.316407,-0.175781 0.457031,-0.316406 0.25,-0.316406 0.777344,-0.953125 1.761719,-1.445312 C 47.847656,2.605469 48.09375,2.5 48.09375,2.253906 48.09375,2.007812 47.917969,1.902344 47.777344,1.796875 47.285156,1.445312 47.039062,1.054688 46.863281,0.527344 46.792969,0.316406 46.722656,0 46.40625,0 c -0.316406,0 -0.460938,0.316406 -0.460938,0.492188 0,0.105468 0.179688,0.8125 0.53125,1.304687 H 38.90625 c -0.355469,0 -0.777344,0 -0.777344,0.457031 0,0.421875 0.421875,0.421875 0.777344,0.421875 z m 0,0"
     id="path32657" />
  <path
     style="fill:#000000;fill-opacity:1;fill-rule:nonzero;stroke:none"
     d="m 46.492188,6.132812 c 0,-0.070312 -0.07031,-0.246093 -0.28125,-0.246093 -0.105469,0 -0.105469,0.035156 -0.390626,0.355469 l -1.089843,1.265624 c -0.5625,-1.054687 -1.726563,-1.621093 -3.203125,-1.621093 -2.855469,0 -5.53125,2.605469 -5.53125,5.320312 0,1.792969 1.164062,2.851563 2.324218,3.167969 l 2.394532,0.632812 c 0.847656,0.210938 2.078125,0.5625 2.078125,2.394532 0,2.007812 -1.832031,4.121094 -4.050781,4.121094 -1.441407,0 -3.941407,-0.492188 -3.941407,-3.277344 0,-0.527344 0.140625,-1.089844 0.140625,-1.195313 0.03516,-0.105469 0.03516,-0.140625 0.03516,-0.175781 0,-0.210938 -0.140624,-0.246094 -0.246093,-0.246094 -0.105469,0 -0.175781,0.03516 -0.246094,0.105469 -0.07031,0.07031 -1.339844,5.210937 -1.339844,5.28125 0,0.105469 0.105469,0.210937 0.246094,0.210937 0.105469,0 0.140625,-0.03516 0.421875,-0.351562 l 1.09375,-1.269531 c 0.949219,1.304687 2.5,1.621093 3.800781,1.621093 3.066407,0 5.707031,-2.992187 5.707031,-5.773437 0,-1.550781 -0.777343,-2.324219 -1.09375,-2.640625 -0.527343,-0.496094 -0.878906,-0.601562 -2.851562,-1.09375 -0.527344,-0.140625 -1.300781,-0.386719 -1.511719,-0.421875 -0.601562,-0.210937 -1.375,-0.84375 -1.375,-2.042969 0,-1.832031 1.796875,-3.730468 3.945313,-3.730468 1.828125,0 3.203125,0.984374 3.203125,3.484374 0,0.703126 -0.07031,1.128907 -0.07031,1.269532 0,0 0,0.210937 0.246094,0.210937 0.246094,0 0.28125,-0.07031 0.351562,-0.460937 z m 0,0"
     id="path32659" />
  <path
     style="fill:#000000;fill-opacity:1;fill-rule:nonzero;stroke:none"
     d="m 54.730469,14.679688 c 0,-0.03516 0.03516,-0.25 0.03516,-0.25 0,-0.105469 -0.03516,-0.246094 -0.246094,-0.246094 -0.316406,0 -1.621093,0.140625 -2.007812,0.175781 -0.105469,0 -0.351563,0.03516 -0.351563,0.355469 0,0.210937 0.246094,0.210937 0.421875,0.210937 0.738281,0 0.738281,0.140625 0.738281,0.246094 0,0.105469 0,0.210937 -0.03516,0.351563 l -0.914062,3.589843 C 52.054688,18.585938 51.527344,18.164062 50.75,18.164062 c -2.007812,0 -4.046875,2.21875 -4.046875,4.472657 0,1.546875 1.019531,2.605469 2.394531,2.605469 0.84375,0 1.582032,-0.457032 2.214844,-1.09375 0.285156,0.953124 1.199219,1.09375 1.621094,1.09375 0.5625,0 0.949218,-0.316407 1.234375,-0.808594 0.351562,-0.636719 0.5625,-1.515625 0.5625,-1.585938 0,-0.210937 -0.210938,-0.210937 -0.246094,-0.210937 -0.246094,0 -0.246094,0.07031 -0.351563,0.492187 -0.210937,0.773438 -0.496093,1.691406 -1.164062,1.691406 -0.386719,0 -0.527344,-0.351562 -0.527344,-0.777343 0,-0.28125 0.03516,-0.421875 0.105469,-0.632813 z m -3.347657,8.449218 c -0.105468,0.457032 -0.457031,0.773438 -0.808593,1.054688 -0.140625,0.144531 -0.773438,0.636718 -1.441407,0.636718 -0.601562,0 -1.164062,-0.421874 -1.164062,-1.515624 0,-0.84375 0.457031,-2.570313 0.84375,-3.203126 0.707031,-1.269531 1.515625,-1.480468 1.9375,-1.480468 1.09375,0 1.410156,1.199218 1.410156,1.375 0,0.03516 -0.03516,0.175781 -0.03516,0.210937 z m 0,0"
     id="path32661" />
  <path
     style="fill:#000000;fill-opacity:1;fill-rule:nonzero;stroke:none"
     d="m 296.97656,5.121094 c -0.3164,0.316406 -1.05469,0.949218 -1.05469,1.335937 0,0.214844 0.21094,0.460938 0.42188,0.460938 0.21094,0 0.31641,-0.175781 0.45703,-0.320313 0.24609,-0.316406 0.77344,-0.949218 1.76172,-1.441406 0.14062,-0.105469 0.38672,-0.210938 0.38672,-0.457031 0,-0.246094 -0.17578,-0.351563 -0.31641,-0.457031 C 298.14062,3.886719 297.89453,3.5 297.71875,2.972656 c -0.0703,-0.210937 -0.14453,-0.527344 -0.46094,-0.527344 -0.3164,0 -0.45703,0.316407 -0.45703,0.492188 0,0.105469 0.17578,0.808594 0.52734,1.304688 h -7.57031 c -0.35156,0 -0.77344,0 -0.77344,0.457031 0,0.421875 0.42188,0.421875 0.77344,0.421875 z m 0,0"
     id="path32663" />
  <path
     style="fill:#000000;fill-opacity:1;fill-rule:nonzero;stroke:none"
     d="m 294.5,10.085938 c -0.59766,0.03516 -1.05859,0.527343 -1.05859,1.019531 0,0.316406 0.21093,0.671875 0.70703,0.671875 0.49218,0 1.01953,-0.390625 1.01953,-1.269532 0,-1.019531 -0.94922,-1.9375 -2.67578,-1.9375 -2.95703,0 -3.80469,2.289063 -3.80469,3.277344 0,1.757813 1.65625,2.074219 2.32422,2.21875 1.16406,0.246094 2.32422,0.492188 2.32422,1.722656 0,0.5625 -0.49219,2.464844 -3.20313,2.464844 -0.3164,0 -2.04297,0 -2.57031,-1.195312 0.87891,0.105468 1.44141,-0.5625 1.44141,-1.199219 0,-0.492187 -0.38672,-0.773437 -0.84375,-0.773437 -0.59766,0 -1.26563,0.457031 -1.26563,1.480468 0,1.265625 1.30078,2.179688 3.20313,2.179688 3.66015,0 4.54296,-2.710938 4.54296,-3.730469 0,-0.808594 -0.42187,-1.375 -0.70312,-1.621094 -0.60156,-0.632812 -1.26953,-0.773437 -2.25391,-0.949219 -0.8125,-0.175781 -1.6914,-0.351562 -1.6914,-1.375 0,-0.632812 0.52734,-2.007812 2.5,-2.007812 0.5625,0 1.6914,0.179688 2.00781,1.023438 z m 0,0"
     id="path32665" />
  <path
     style="fill:#000000;fill-opacity:1;fill-rule:nonzero;stroke:none"
     d="m 308.22656,13.59375 c 0.17578,-0.07031 0.35156,-0.175781 0.35156,-0.386719 0,-0.210937 -0.17578,-0.386719 -0.38671,-0.386719 -0.0352,0 -0.10547,0 -0.31641,0.07031 l -9.57813,4.613281 c -0.17578,0.105469 -0.35156,0.210938 -0.35156,0.421875 0,0.246094 0.17578,0.316407 0.35156,0.421875 l 9.57813,4.613282 c 0.21094,0.105468 0.28125,0.105468 0.31641,0.105468 0.21093,0 0.38671,-0.175781 0.38671,-0.386718 0,-0.246094 -0.21093,-0.355469 -0.35156,-0.390626 l -9.01562,-4.328124 z m 0,0"
     id="path32667" />
  <g
     id="g33888">
    <path
       style="fill:#000000;fill-opacity:1;fill-rule:nonzero;stroke:none"
       d="m 4.539062,158.91797 c -0.84375,0 -1.40625,0.63281 -1.40625,1.4414 0,0.77735 0.5625,1.375 1.40625,1.375 0.882813,0 1.480469,-0.59765 1.480469,-1.375 0,-0.80859 -0.597656,-1.4414 -1.480469,-1.4414 z m 1.058594,5.70312 H 3.554688 v 11.83203 h 2.042968 z m 0,0"
       id="path32669" />
    <path
       style="fill:#000000;fill-opacity:1;fill-rule:nonzero;stroke:none"
       d="m 21.617188,164.33984 c -1.582032,0 -2.675782,0.84375 -3.519532,2.14844 -0.457031,-1.375 -1.515625,-2.14844 -2.992187,-2.14844 -1.550781,0 -2.605469,0.8086 -3.417969,2.00782 l -0.175781,-1.72657 H 9.75 v 11.83203 h 2.042969 v -8.41406 c 0.8125,-1.23437 1.515625,-2.07812 2.816406,-2.07812 0.882813,0 1.65625,0.52734 1.65625,2.28906 v 8.20312 h 2.042969 v -8.41406 c 0.808594,-1.23437 1.515625,-2.07812 2.816406,-2.07812 0.878906,0 1.65625,0.52734 1.65625,2.28906 v 8.20312 h 2.042969 v -8.48437 c 0,-2.21875 -1.269531,-3.62891 -3.207031,-3.62891 z m 0,0"
       id="path32671" />
    <g
       clip-path="url(#clip1)"
       clip-rule="nonzero"
       id="g32675"
       transform="translate(0,30)">
      <path
         style="fill:#000000;fill-opacity:1;fill-rule:nonzero;stroke:none"
         d="m 34.257812,134.33984 c -1.339843,0 -2.640624,0.66797 -3.484374,1.86719 l -0.175782,-1.58594 h -1.761718 v 16.6211 l 2.042968,-0.2461 v -5.63281 c 0.773438,0.94922 1.828125,1.37109 3.097656,1.37109 3.0625,0 4.683594,-2.60546 4.683594,-6.19531 0,-3.73437 -1.269531,-6.19922 -4.402344,-6.19922 z m -0.773437,10.70703 c -1.058594,0 -1.972656,-0.53125 -2.605469,-1.44531 v -5.77344 c 0.632813,-0.95312 1.617188,-1.83203 2.851563,-1.83203 1.796875,0 2.675781,1.44141 2.675781,4.54297 0,3.09766 -1.019531,4.50781 -2.921875,4.50781 z m 0,0"
         id="path32673" />
    </g>
    <path
       style="fill:#000000;fill-opacity:1;fill-rule:nonzero;stroke:none"
       d="m 50.761719,164.62109 h -2.078125 v 8.45313 c -0.707032,1.16015 -1.65625,2.04297 -2.960938,2.04297 -1.265625,0 -1.792968,-0.63672 -1.792968,-2.21875 v -8.27735 h -2.078126 v 8.48828 c 0,2.32422 1.230469,3.625 3.308594,3.625 1.691406,0 2.78125,-0.66796 3.664063,-2.11328 L 49,176.45312 h 1.761719 z m 0,0"
       id="path32677" />
    <path
       style="fill:#000000;fill-opacity:1;fill-rule:nonzero;stroke:none"
       d="m 60.042969,164.33984 c -1.445313,0 -2.535157,0.91797 -3.171875,2.67578 l -0.210938,-2.39453 h -1.757812 v 11.83203 h 2.039062 v -6.76171 c 0.496094,-2.25391 1.375,-3.3086 2.855469,-3.3086 0.421875,0 0.667969,0.0352 1.019531,0.10547 l 0.386719,-2.00781 c -0.351563,-0.10547 -0.773437,-0.14063 -1.160156,-0.14063 z m 0,0"
       id="path32679" />
    <path
       style="fill:#000000;fill-opacity:1;fill-rule:nonzero;stroke:none"
       d="m 64.488281,158.91797 c -0.847656,0 -1.410156,0.63281 -1.410156,1.4414 0,0.77735 0.5625,1.375 1.410156,1.375 0.878907,0 1.476563,-0.59765 1.476563,-1.375 0,-0.80859 -0.597656,-1.4414 -1.476563,-1.4414 z m 1.054688,5.70312 H 63.5 v 11.83203 h 2.042969 z m 0,0"
       id="path32681" />
    <path
       style="fill:#000000;fill-opacity:1;fill-rule:nonzero;stroke:none"
       d="m 74.945312,174.55078 c -0.597656,0.31641 -1.058593,0.46094 -1.585937,0.46094 -1.019531,0 -1.40625,-0.56641 -1.40625,-1.76172 v -7.04297 h 2.605469 l 0.210937,-1.58594 h -2.816406 v -2.92187 L 69.875,161.94531 v 2.67578 h -2.042969 v 1.58594 H 69.875 v 7.14844 c 0,2.18359 1.195312,3.3789 3.203125,3.3789 1.019531,0 1.867187,-0.28125 2.640625,-0.80859 z m 0,0"
       id="path32683" />
    <g
       clip-path="url(#clip2)"
       clip-rule="nonzero"
       id="g32687"
       transform="translate(0,30)">
      <path
         style="fill:#000000;fill-opacity:1;fill-rule:nonzero;stroke:none"
         d="M 86.460938,134.62109 H 84.3125 l -3.101562,10.31641 -3.167969,-10.31641 h -2.21875 l 3.980469,11.83203 h 0.703124 c -0.667968,1.83204 -1.335937,2.7461 -3.730468,3.16797 l 0.210937,1.6211 c 3.273438,-0.35157 4.683594,-2.21875 5.492188,-4.71875 z m 0,0"
         id="path32685" />
    </g>
  </g>
  <g
     id="g33902"
     transform="translate(-9,30)">
    <path
       style="fill:#000000;fill-opacity:1;fill-rule:nonzero;stroke:none"
       d="m 249.8125,133.49609 c -3.20313,0 -5.17578,2.53516 -5.17578,6.30078 0,3.80469 2.00781,6.09375 5.17578,6.09375 1.375,0 2.57031,-0.45703 3.62891,-1.30468 l -0.95313,-1.3711 c -0.87891,0.59766 -1.58203,0.91407 -2.57031,0.91407 -1.86328,0 -3.02735,-1.26563 -3.02735,-4.40235 0,-3.0625 1.16407,-4.50781 3.02735,-4.50781 0.98828,0 1.72656,0.28516 2.53515,0.84766 l 0.98829,-1.30469 c -1.09375,-0.91406 -2.21875,-1.26563 -3.62891,-1.26563 z m 0,0"
       id="path32689" />
    <path
       style="fill:#000000;fill-opacity:1;fill-rule:nonzero;stroke:none"
       d="m 264.85937,139.33984 c 0,-3.625 -1.6914,-5.84375 -4.89453,-5.84375 -3.0664,0 -4.93359,2.64063 -4.93359,6.30078 0,3.76954 1.9375,6.09375 5.25,6.09375 1.65234,0 2.95703,-0.5625 4.11719,-1.48046 l -0.87891,-1.26563 c -1.01953,0.73828 -1.90234,1.05469 -3.09766,1.05469 -1.6914,0 -2.96093,-1.05469 -3.17187,-3.80078 h 7.53516 c 0.0391,-0.28125 0.0742,-0.67188 0.0742,-1.0586 z m -2.07812,-0.45703 H 257.25 c 0.14062,-2.64062 1.19922,-3.73437 2.75,-3.73437 1.86328,0 2.78125,1.26953 2.78125,3.59375 z m 0,0"
       id="path32691" />
    <path
       style="fill:#000000;fill-opacity:1;fill-rule:nonzero;stroke:none"
       d="m 273.61719,133.49609 c -1.54688,0 -2.81641,0.8086 -3.625,2.04297 l -0.17578,-1.76172 h -1.76172 v 11.83203 h 2.04297 v -8.41796 c 0.80859,-1.23047 1.6914,-2.07813 3.02734,-2.07813 1.12891,0 1.86719,0.53125 1.86719,2.28906 v 8.20703 h 2.07812 v -8.48828 c 0,-2.2539 -1.26953,-3.625 -3.45312,-3.625 z m 0,0"
       id="path32693" />
    <path
       style="fill:#000000;fill-opacity:1;fill-rule:nonzero;stroke:none"
       d="m 286.30469,143.70703 c -0.60157,0.31641 -1.0586,0.45703 -1.58594,0.45703 -1.01953,0 -1.41016,-0.5625 -1.41016,-1.76172 v -7.03906 h 2.60547 l 0.21485,-1.58594 h -2.82032 v -2.92187 l -2.07422,0.24609 v 2.67578 h -2.04296 v 1.58594 h 2.04296 v 7.14453 c 0,2.1836 1.19532,3.38281 3.20313,3.38281 1.01953,0 1.86719,-0.28125 2.64062,-0.80859 z m 0,0"
       id="path32695" />
    <path
       style="fill:#000000;fill-opacity:1;fill-rule:nonzero;stroke:none"
       d="m 294.30078,133.49609 c -1.44141,0 -2.53516,0.91407 -3.16797,2.67578 l -0.21094,-2.39453 h -1.76171 v 11.83203 h 2.04296 v -6.76171 c 0.49219,-2.25391 1.375,-3.3086 2.85157,-3.3086 0.42187,0 0.66797,0.0352 1.02343,0.10547 l 0.38672,-2.00781 c -0.35156,-0.10547 -0.77734,-0.14063 -1.16406,-0.14063 z m 0,0"
       id="path32697" />
    <path
       style="fill:#000000;fill-opacity:1;fill-rule:nonzero;stroke:none"
       d="m 305.23437,142.86328 v -5.42578 c 0,-2.46484 -1.30078,-3.94141 -4.15625,-3.94141 -1.33593,0 -2.64062,0.28125 -4.08203,0.8086 l 0.49219,1.51562 c 1.23047,-0.42187 2.32422,-0.63672 3.20313,-0.63672 1.65625,0 2.46484,0.63672 2.46484,2.32422 v 0.88281 h -1.79297 c -3.3125,0 -5.21484,1.3711 -5.21484,3.90625 0,2.11329 1.41015,3.59375 3.76953,3.59375 1.44531,0 2.67578,-0.5625 3.51953,-1.79687 0.35547,1.16406 1.12891,1.65625 2.32422,1.79687 l 0.46094,-1.44531 c -0.60157,-0.24609 -0.98829,-0.5625 -0.98829,-1.58203 z m -4.85937,1.47656 c -1.33594,0 -2.04297,-0.73828 -2.04297,-2.14843 0,-1.61719 1.09375,-2.42969 3.27734,-2.42969 h 1.54688 v 2.71094 c -0.66797,1.23437 -1.54688,1.86718 -2.78125,1.86718 z m 0,0"
       id="path32699" />
    <path
       style="fill:#000000;fill-opacity:1;fill-rule:nonzero;stroke:none"
       d="m 311.625,145.89062 c 0.59766,0 1.19922,-0.17578 1.65625,-0.42187 l -0.5625,-1.44531 c -0.21484,0.10547 -0.46094,0.14062 -0.74219,0.14062 -0.5625,0 -0.73828,-0.3164 -0.73828,-0.94922 v -14.47265 l -2.07812,0.28125 v 14.26172 c 0,1.65234 0.94921,2.60546 2.46484,2.60546 z m 0,0"
       id="path32701" />
    <path
       style="fill:#000000;fill-opacity:1;fill-rule:nonzero;stroke:none"
       d="m 325.125,133.49609 c -2.46484,0 -4.25781,1.3711 -4.25781,3.27344 0,1.65625 0.98437,2.74609 3.55468,3.41797 2.28907,0.59766 2.88672,1.05469 2.88672,2.21484 0,1.12891 -0.98437,1.79688 -2.53515,1.79688 -1.30078,0 -2.39453,-0.42188 -3.34375,-1.125 l -1.09375,1.26562 c 1.02343,0.88282 2.46484,1.55078 4.47265,1.55078 2.39453,0 4.6836,-1.1289 4.6836,-3.59375 0,-2.07421 -1.44141,-3.0625 -3.94141,-3.69531 -1.90234,-0.49219 -2.53516,-0.95312 -2.53516,-1.90234 0,-0.94922 0.8086,-1.55078 2.17969,-1.55078 1.09375,0 2.00781,0.32031 3.06641,0.98828 l 0.8789,-1.30469 c -1.125,-0.84375 -2.35937,-1.33594 -4.01562,-1.33594 z m 0,0"
       id="path32703" />
    <path
       style="fill:#000000;fill-opacity:1;fill-rule:nonzero;stroke:none"
       d="m 333.32031,128.07422 c -0.84375,0 -1.40625,0.63281 -1.40625,1.4414 0,0.77344 0.5625,1.375 1.40625,1.375 0.88281,0 1.48047,-0.60156 1.48047,-1.375 0,-0.80859 -0.59766,-1.4414 -1.48047,-1.4414 z m 1.0586,5.70312 h -2.04297 v 11.83203 h 2.04297 z m 0,0"
       id="path32705" />
    <path
       style="fill:#000000;fill-opacity:1;fill-rule:nonzero;stroke:none"
       d="m 343.78125,143.70703 c -0.60156,0.31641 -1.05859,0.45703 -1.58594,0.45703 -1.01953,0 -1.41015,-0.5625 -1.41015,-1.76172 v -7.03906 h 2.60546 l 0.21485,-1.58594 h -2.82031 v -2.92187 l -2.07422,0.24609 v 2.67578 h -2.04297 v 1.58594 h 2.04297 v 7.14453 c 0,2.1836 1.19531,3.38281 3.20312,3.38281 1.01953,0 1.86719,-0.28125 2.64063,-0.80859 z m 0,0"
       id="path32707" />
    <g
       clip-path="url(#clip3)"
       clip-rule="nonzero"
       id="g32711">
      <path
         style="fill:#000000;fill-opacity:1;fill-rule:nonzero;stroke:none"
         d="m 355.31641,139.33984 c 0,-3.625 -1.69141,-5.84375 -4.89454,-5.84375 -3.0625,0 -4.92968,2.64063 -4.92968,6.30078 0,3.76954 1.9375,6.09375 5.24609,6.09375 1.65625,0 2.95703,-0.5625 4.12109,-1.48046 l -0.88281,-1.26563 c -1.01953,0.73828 -1.89844,1.05469 -3.09765,1.05469 -1.69141,0 -2.95704,-1.05469 -3.16797,-3.80078 h 7.53515 c 0.0352,-0.28125 0.0703,-0.67188 0.0703,-1.0586 z m -2.07813,-0.45703 h -5.52734 c 0.14062,-2.64062 1.19531,-3.73437 2.74609,-3.73437 1.86719,0 2.78125,1.26953 2.78125,3.59375 z m 0,0"
         id="path32709" />
    </g>
  </g>
  <g
     ns11:version="1.6.0"
     ns11:texconverter="pdflatex"
     ns11:pdfconverter="inkscape"
     ns11:text="$U^*$"
     ns11:preamble="/home/kirito/.config/inkscape/textext.tex"
     ns11:scale="2.5"
     ns11:alignment="middle center"
     ns11:stroke-to-path="0"
     transform="matrix(2.5,0,0,2.5,36.295474,123.19519)"
     ns11:jacobian_sqrt="2.5"
     id="g34144">
    <defs
       id="id-f683e973-33c6-4c52-957c-5b6fe1e747ef">
      <g
         id="id-ecdd6c98-f8c5-4b6e-bad4-4b400a989b19">
        <symbol
           overflow="visible"
           id="id-e673079f-8c3b-4d20-a2d4-0c7fddc294e5">
          <path
             style="stroke:none;stroke-width:0"
             d=""
             id="id-416a9e61-954d-4a74-83c8-80f36ae81177" />
        </symbol>
        <symbol
           overflow="visible"
           id="id-69cf5210-4e64-4a14-b400-aa1c2e126491">
          <path
             style="stroke:none;stroke-width:0"
             d="M 6.328125,-5.765625 C 6.4375,-6.171875 6.609375,-6.46875 7.40625,-6.5 c 0.046875,0 0.171875,-0.015625 0.171875,-0.203125 0,0 0,-0.109375 -0.125,-0.109375 -0.328125,0 -0.6875,0.03125 -1.015625,0.03125 -0.34375,0 -0.71875,-0.03125 -1.046875,-0.03125 -0.0625,0 -0.171875,0 -0.171875,0.203125 C 5.21875,-6.5 5.3125,-6.5 5.390625,-6.5 c 0.578125,0.015625 0.6875,0.21875 0.6875,0.4375 0,0.03125 -0.03125,0.1875 -0.03125,0.203125 l -0.90625,3.5625 C 4.8125,-0.953125 3.65625,-0.09375 2.65625,-0.09375 c -0.671875,0 -1.203125,-0.4375 -1.203125,-1.296875 0,-0.015625 0,-0.328125 0.109375,-0.765625 L 2.515625,-6.046875 C 2.609375,-6.40625 2.625,-6.5 3.359375,-6.5 c 0.265625,0 0.34375,0 0.34375,-0.203125 0,-0.109375 -0.109375,-0.109375 -0.140625,-0.109375 -0.28125,0 -1,0.03125 -1.28125,0.03125 -0.28125,0 -1,-0.03125 -1.28125,-0.03125 -0.078125,0 -0.1875,0 -0.1875,0.203125 C 0.8125,-6.5 0.890625,-6.5 1.09375,-6.5 c 0.015625,0 0.203125,0 0.375,0.015625 0.171875,0.03125 0.265625,0.03125 0.265625,0.171875 0,0.046875 -0.109375,0.46875 -0.171875,0.703125 l -0.21875,0.875 C 1.25,-4.34375 0.78125,-2.46875 0.734375,-2.265625 0.671875,-2 0.671875,-1.84375 0.671875,-1.6875 c 0,1.203125 0.90625,1.90625 1.953125,1.90625 1.25,0 2.484375,-1.125 2.8125,-2.4375 z m 0,0"
             id="id-08dfcc9d-f438-424b-a583-54cc625eaffc" />
        </symbol>
        <symbol
           overflow="visible"
           id="id-ac60e1f6-9a29-420a-9a78-6cfd5390faf4">
          <path
             style="stroke:none;stroke-width:0"
             d=""
             id="id-3913c429-4b64-4229-9b32-648f47a6459b" />
        </symbol>
        <symbol
           overflow="visible"
           id="id-b51f7f0c-ecec-45ce-a89b-c05abd6ae37e">
          <path
             style="stroke:none;stroke-width:0"
             d="m 2.25,-1.734375 c 0.578125,-0.25 0.828125,-0.34375 1,-0.4375 0.140625,-0.046875 0.203125,-0.078125 0.203125,-0.21875 0,-0.109375 -0.09375,-0.21875 -0.21875,-0.21875 -0.046875,0 -0.0625,0 -0.140625,0.0625 L 2.140625,-1.90625 2.25,-2.9375 c 0.015625,-0.125 0,-0.296875 -0.21875,-0.296875 -0.078125,0 -0.21875,0.046875 -0.21875,0.203125 0,0.0625 0.03125,0.265625 0.046875,0.34375 0.015625,0.109375 0.0625,0.625 0.078125,0.78125 L 0.984375,-2.546875 c -0.0625,-0.03125 -0.078125,-0.0625 -0.140625,-0.0625 -0.140625,0 -0.21875,0.109375 -0.21875,0.21875 0,0.140625 0.078125,0.1875 0.140625,0.203125 L 1.8125,-1.734375 c -0.5625,0.25 -0.828125,0.34375 -1,0.421875 -0.125,0.0625 -0.1875,0.09375 -0.1875,0.21875 0,0.125 0.078125,0.21875 0.21875,0.21875 0.046875,0 0.0625,0 0.140625,-0.0625 l 0.953125,-0.625 -0.125,1.109375 c 0,0.15625 0.140625,0.21875 0.21875,0.21875 0.09375,0 0.21875,-0.0625 0.21875,-0.21875 0,-0.0625 -0.03125,-0.265625 -0.03125,-0.328125 -0.015625,-0.125 -0.0625,-0.625 -0.078125,-0.78125 L 2.96875,-1.015625 C 3.15625,-0.875 3.171875,-0.875 3.234375,-0.875 c 0.125,0 0.21875,-0.09375 0.21875,-0.21875 0,-0.140625 -0.09375,-0.171875 -0.15625,-0.203125 z m 0,0"
             id="id-f7b3d454-de5e-40ee-b79d-70f868903a1a" />
        </symbol>
      </g>
    </defs>
    <g
       id="id-39824fd9-c6c9-4ae3-b394-fc1c3300efa5"
       transform="translate(-149.384,-127.915)">
      <g
         style="fill:#000000;fill-opacity:1"
         id="id-d5f4382b-7650-4441-a0d8-499d0fcbf02a">
        <g
           transform="translate(148.712,134.765)"
           id="g34136">
          <path
             style="stroke:none;stroke-width:0"
             d="M 6.328125,-5.765625 C 6.4375,-6.171875 6.609375,-6.46875 7.40625,-6.5 c 0.046875,0 0.171875,-0.015625 0.171875,-0.203125 0,0 0,-0.109375 -0.125,-0.109375 -0.328125,0 -0.6875,0.03125 -1.015625,0.03125 -0.34375,0 -0.71875,-0.03125 -1.046875,-0.03125 -0.0625,0 -0.171875,0 -0.171875,0.203125 C 5.21875,-6.5 5.3125,-6.5 5.390625,-6.5 c 0.578125,0.015625 0.6875,0.21875 0.6875,0.4375 0,0.03125 -0.03125,0.1875 -0.03125,0.203125 l -0.90625,3.5625 C 4.8125,-0.953125 3.65625,-0.09375 2.65625,-0.09375 c -0.671875,0 -1.203125,-0.4375 -1.203125,-1.296875 0,-0.015625 0,-0.328125 0.109375,-0.765625 L 2.515625,-6.046875 C 2.609375,-6.40625 2.625,-6.5 3.359375,-6.5 c 0.265625,0 0.34375,0 0.34375,-0.203125 0,-0.109375 -0.109375,-0.109375 -0.140625,-0.109375 -0.28125,0 -1,0.03125 -1.28125,0.03125 -0.28125,0 -1,-0.03125 -1.28125,-0.03125 -0.078125,0 -0.1875,0 -0.1875,0.203125 C 0.8125,-6.5 0.890625,-6.5 1.09375,-6.5 c 0.015625,0 0.203125,0 0.375,0.015625 0.171875,0.03125 0.265625,0.03125 0.265625,0.171875 0,0.046875 -0.109375,0.46875 -0.171875,0.703125 l -0.21875,0.875 C 1.25,-4.34375 0.78125,-2.46875 0.734375,-2.265625 0.671875,-2 0.671875,-1.84375 0.671875,-1.6875 c 0,1.203125 0.90625,1.90625 1.953125,1.90625 1.25,0 2.484375,-1.125 2.8125,-2.4375 z m 0,0"
             id="id-d8d1bb7c-8341-4844-87ea-470dd9d25ed3" />
        </g>
      </g>
      <g
         style="fill:#000000;fill-opacity:1"
         id="id-01c03a78-b836-4dbe-ba44-864b3f11a054">
        <g
           transform="translate(156.601,131.149)"
           id="g34140">
          <path
             style="stroke:none;stroke-width:0"
             d="m 2.25,-1.734375 c 0.578125,-0.25 0.828125,-0.34375 1,-0.4375 0.140625,-0.046875 0.203125,-0.078125 0.203125,-0.21875 0,-0.109375 -0.09375,-0.21875 -0.21875,-0.21875 -0.046875,0 -0.0625,0 -0.140625,0.0625 L 2.140625,-1.90625 2.25,-2.9375 c 0.015625,-0.125 0,-0.296875 -0.21875,-0.296875 -0.078125,0 -0.21875,0.046875 -0.21875,0.203125 0,0.0625 0.03125,0.265625 0.046875,0.34375 0.015625,0.109375 0.0625,0.625 0.078125,0.78125 L 0.984375,-2.546875 c -0.0625,-0.03125 -0.078125,-0.0625 -0.140625,-0.0625 -0.140625,0 -0.21875,0.109375 -0.21875,0.21875 0,0.140625 0.078125,0.1875 0.140625,0.203125 L 1.8125,-1.734375 c -0.5625,0.25 -0.828125,0.34375 -1,0.421875 -0.125,0.0625 -0.1875,0.09375 -0.1875,0.21875 0,0.125 0.078125,0.21875 0.21875,0.21875 0.046875,0 0.0625,0 0.140625,-0.0625 l 0.953125,-0.625 -0.125,1.109375 c 0,0.15625 0.140625,0.21875 0.21875,0.21875 0.09375,0 0.21875,-0.0625 0.21875,-0.21875 0,-0.0625 -0.03125,-0.265625 -0.03125,-0.328125 -0.015625,-0.125 -0.0625,-0.625 -0.078125,-0.78125 L 2.96875,-1.015625 C 3.15625,-0.875 3.171875,-0.875 3.234375,-0.875 c 0.125,0 0.21875,-0.09375 0.21875,-0.21875 0,-0.140625 -0.09375,-0.171875 -0.15625,-0.203125 z m 0,0"
             id="id-1dd6b409-25b5-4f0a-bc3d-22c04931ecc8" />
        </g>
      </g>
    </g>
  </g>
  <g
     ns11:version="1.6.0"
     ns11:texconverter="pdflatex"
     ns11:pdfconverter="inkscape"
     ns11:text="$U_b$"
     ns11:preamble="/home/kirito/.config/inkscape/textext.tex"
     ns11:scale="2.5"
     ns11:alignment="middle center"
     ns11:stroke-to-path="0"
     transform="matrix(2.5,0,0,2.5,292.867,124.569)"
     ns11:jacobian_sqrt="2.5"
     id="g34217">
    <defs
       id="id-8ab35b15-088f-4598-b37e-567cdc66d2aa">
      <g
         id="id-b661bff2-d558-4e91-be1b-9e56c87d042c">
        <symbol
           overflow="visible"
           id="id-3e0a2efb-3a0a-4af4-8feb-a7db67fe96cb">
          <path
             style="stroke:none"
             d=""
             id="id-fef532e4-4de6-4402-903b-f783ae0251e3" />
        </symbol>
        <symbol
           overflow="visible"
           id="id-3c2c67e8-fd0a-44f2-9f5f-3f955b5882ee">
          <path
             style="stroke:none"
             d="M 6.328125,-5.765625 C 6.4375,-6.171875 6.609375,-6.46875 7.40625,-6.5 c 0.046875,0 0.171875,-0.015625 0.171875,-0.203125 0,0 0,-0.109375 -0.125,-0.109375 -0.328125,0 -0.6875,0.03125 -1.015625,0.03125 -0.34375,0 -0.71875,-0.03125 -1.046875,-0.03125 -0.0625,0 -0.171875,0 -0.171875,0.203125 C 5.21875,-6.5 5.3125,-6.5 5.390625,-6.5 c 0.578125,0.015625 0.6875,0.21875 0.6875,0.4375 0,0.03125 -0.03125,0.1875 -0.03125,0.203125 l -0.90625,3.5625 C 4.8125,-0.953125 3.65625,-0.09375 2.65625,-0.09375 c -0.671875,0 -1.203125,-0.4375 -1.203125,-1.296875 0,-0.015625 0,-0.328125 0.109375,-0.765625 L 2.515625,-6.046875 C 2.609375,-6.40625 2.625,-6.5 3.359375,-6.5 c 0.265625,0 0.34375,0 0.34375,-0.203125 0,-0.109375 -0.109375,-0.109375 -0.140625,-0.109375 -0.28125,0 -1,0.03125 -1.28125,0.03125 -0.28125,0 -1,-0.03125 -1.28125,-0.03125 -0.078125,0 -0.1875,0 -0.1875,0.203125 C 0.8125,-6.5 0.890625,-6.5 1.09375,-6.5 c 0.015625,0 0.203125,0 0.375,0.015625 0.171875,0.03125 0.265625,0.03125 0.265625,0.171875 0,0.046875 -0.109375,0.46875 -0.171875,0.703125 l -0.21875,0.875 C 1.25,-4.34375 0.78125,-2.46875 0.734375,-2.265625 0.671875,-2 0.671875,-1.84375 0.671875,-1.6875 c 0,1.203125 0.90625,1.90625 1.953125,1.90625 1.25,0 2.484375,-1.125 2.8125,-2.4375 z m 0,0"
             id="id-5ce49387-8134-426d-953d-0dfd52b13709" />
        </symbol>
        <symbol
           overflow="visible"
           id="id-75d0fc9b-62d5-4c88-9af6-48ef845bf78e">
          <path
             style="stroke:none"
             d=""
             id="id-e56b9e0d-959d-4e14-92ac-18bb0784147a" />
        </symbol>
        <symbol
           overflow="visible"
           id="id-2f938b14-7be3-4978-8589-01cc7ca454db">
          <path
             style="stroke:none"
             d="m 1.84375,-4.625 c 0,-0.015625 0.03125,-0.109375 0.03125,-0.109375 0,-0.046875 -0.03125,-0.109375 -0.125,-0.109375 -0.140625,0 -0.71875,0.0625 -0.890625,0.078125 -0.046875,0 -0.15625,0.015625 -0.15625,0.15625 0,0.09375 0.109375,0.09375 0.1875,0.09375 0.328125,0 0.328125,0.0625 0.328125,0.109375 0,0.046875 -0.0625,0.328125 -0.109375,0.484375 l -0.15625,0.640625 c -0.0625,0.25 -0.4375,1.765625 -0.453125,1.859375 -0.046875,0.171875 -0.046875,0.265625 -0.046875,0.34375 0,0.703125 0.453125,1.140625 1.03125,1.140625 0.875,0 1.796875,-0.9375 1.796875,-1.96875 0,-0.8125 -0.5625,-1.171875 -1.046875,-1.171875 -0.359375,0 -0.671875,0.203125 -0.875,0.390625 z m -0.359375,4.5 c -0.328125,0 -0.53125,-0.296875 -0.53125,-0.71875 0,-0.25 0.0625,-0.484375 0.265625,-1.28125 C 1.25,-2.25 1.25,-2.265625 1.390625,-2.421875 1.65625,-2.71875 1.96875,-2.875 2.21875,-2.875 c 0.265625,0 0.5,0.203125 0.5,0.671875 0,0.28125 -0.140625,1 -0.359375,1.40625 C 2.1875,-0.453125 1.84375,-0.125 1.484375,-0.125 Z m 0,0"
             id="id-77ca1573-47f1-4e67-8f9d-be2c1cbc7faf" />
        </symbol>
      </g>
    </defs>
    <g
       id="id-851908ad-786c-4c70-866b-c98693404ed5"
       transform="translate(-149.384,-127.953)">
      <g
         style="fill:#000000;fill-opacity:1"
         id="id-711da59a-6c9b-43f1-b1b5-8d18b0811f92">
        <g
           transform="translate(148.712,134.765)"
           id="g34505">
          <path
             style="stroke:none"
             d="M 6.328125,-5.765625 C 6.4375,-6.171875 6.609375,-6.46875 7.40625,-6.5 c 0.046875,0 0.171875,-0.015625 0.171875,-0.203125 0,0 0,-0.109375 -0.125,-0.109375 -0.328125,0 -0.6875,0.03125 -1.015625,0.03125 -0.34375,0 -0.71875,-0.03125 -1.046875,-0.03125 -0.0625,0 -0.171875,0 -0.171875,0.203125 C 5.21875,-6.5 5.3125,-6.5 5.390625,-6.5 c 0.578125,0.015625 0.6875,0.21875 0.6875,0.4375 0,0.03125 -0.03125,0.1875 -0.03125,0.203125 l -0.90625,3.5625 C 4.8125,-0.953125 3.65625,-0.09375 2.65625,-0.09375 c -0.671875,0 -1.203125,-0.4375 -1.203125,-1.296875 0,-0.015625 0,-0.328125 0.109375,-0.765625 L 2.515625,-6.046875 C 2.609375,-6.40625 2.625,-6.5 3.359375,-6.5 c 0.265625,0 0.34375,0 0.34375,-0.203125 0,-0.109375 -0.109375,-0.109375 -0.140625,-0.109375 -0.28125,0 -1,0.03125 -1.28125,0.03125 -0.28125,0 -1,-0.03125 -1.28125,-0.03125 -0.078125,0 -0.1875,0 -0.1875,0.203125 C 0.8125,-6.5 0.890625,-6.5 1.09375,-6.5 c 0.015625,0 0.203125,0 0.375,0.015625 0.171875,0.03125 0.265625,0.03125 0.265625,0.171875 0,0.046875 -0.109375,0.46875 -0.171875,0.703125 l -0.21875,0.875 C 1.25,-4.34375 0.78125,-2.46875 0.734375,-2.265625 0.671875,-2 0.671875,-1.84375 0.671875,-1.6875 c 0,1.203125 0.90625,1.90625 1.953125,1.90625 1.25,0 2.484375,-1.125 2.8125,-2.4375 z m 0,0"
             id="id-688ba641-a704-4723-91e6-89fde031d7b6" />
        </g>
      </g>
      <g
         style="fill:#000000;fill-opacity:1"
         id="id-2c19dde1-5f67-44e2-8675-f05e9e9ef39d">
        <g
           transform="translate(155.515,136.259)"
           id="g34509">
          <path
             style="stroke:none"
             d="m 1.84375,-4.625 c 0,-0.015625 0.03125,-0.109375 0.03125,-0.109375 0,-0.046875 -0.03125,-0.109375 -0.125,-0.109375 -0.140625,0 -0.71875,0.0625 -0.890625,0.078125 -0.046875,0 -0.15625,0.015625 -0.15625,0.15625 0,0.09375 0.109375,0.09375 0.1875,0.09375 0.328125,0 0.328125,0.0625 0.328125,0.109375 0,0.046875 -0.0625,0.328125 -0.109375,0.484375 l -0.15625,0.640625 c -0.0625,0.25 -0.4375,1.765625 -0.453125,1.859375 -0.046875,0.171875 -0.046875,0.265625 -0.046875,0.34375 0,0.703125 0.453125,1.140625 1.03125,1.140625 0.875,0 1.796875,-0.9375 1.796875,-1.96875 0,-0.8125 -0.5625,-1.171875 -1.046875,-1.171875 -0.359375,0 -0.671875,0.203125 -0.875,0.390625 z m -0.359375,4.5 c -0.328125,0 -0.53125,-0.296875 -0.53125,-0.71875 0,-0.25 0.0625,-0.484375 0.265625,-1.28125 C 1.25,-2.25 1.25,-2.265625 1.390625,-2.421875 1.65625,-2.71875 1.96875,-2.875 2.21875,-2.875 c 0.265625,0 0.5,0.203125 0.5,0.671875 0,0.28125 -0.140625,1 -0.359375,1.40625 C 2.1875,-0.453125 1.84375,-0.125 1.484375,-0.125 Z m 0,0"
             id="id-c165ccb8-45b8-40e5-8ed0-3a8fe86ca22c" />
        </g>
      </g>
    </g>
  </g>
  <g
     ns11:version="1.6.0"
     ns11:texconverter="pdflatex"
     ns11:pdfconverter="inkscape"
     ns11:text="$V^* \\vec{S}_d \\cdot \\vec{s}_&lt;$"
     ns11:preamble="/home/kirito/.config/inkscape/textext.tex"
     ns11:scale="2.5"
     ns11:alignment="middle center"
     ns11:stroke-to-path="0"
     transform="matrix(2.5,0,0,2.5,120.548,15.1902)"
     ns11:jacobian_sqrt="2.5"
     id="g33225">
    <defs
       id="id-954b3fb9-a0d1-4011-86d9-8fc5d85b7ef3">
      <g
         id="id-98a80d24-7b02-48ce-af04-93bbb7649d99">
        <symbol
           overflow="visible"
           id="id-f564d050-14e0-4f1f-a273-ffe590a37d6e">
          <path
             style="stroke:none"
             d=""
             id="id-57c495d3-484c-452f-a866-537f812f2246" />
        </symbol>
        <symbol
           overflow="visible"
           id="id-cea241e3-21bf-4875-922c-4a08e1add7a2">
          <path
             style="stroke:none"
             d="M 6.265625,-5.671875 C 6.75,-6.453125 7.171875,-6.484375 7.53125,-6.5 c 0.125,-0.015625 0.140625,-0.171875 0.140625,-0.1875 0,-0.078125 -0.0625,-0.125 -0.140625,-0.125 -0.25,0 -0.546875,0.03125 -0.8125,0.03125 -0.328125,0 -0.671875,-0.03125 -0.984375,-0.03125 -0.0625,0 -0.1875,0 -0.1875,0.1875 0,0.109375 0.078125,0.125 0.15625,0.125 0.265625,0.015625 0.453125,0.125 0.453125,0.328125 0,0.15625 -0.140625,0.375 -0.140625,0.375 l -3.0625,4.875 -0.6875,-5.28125 C 2.265625,-6.375 2.5,-6.5 2.953125,-6.5 c 0.140625,0 0.25,0 0.25,-0.203125 0,-0.078125 -0.078125,-0.109375 -0.125,-0.109375 -0.40625,0 -0.828125,0.03125 -1.25,0.03125 -0.171875,0 -0.359375,0 -0.546875,0 -0.171875,0 -0.359375,-0.03125 -0.53125,-0.03125 -0.078125,0 -0.1875,0 -0.1875,0.1875 0,0.125 0.078125,0.125 0.25,0.125 0.546875,0 0.5625,0.09375 0.59375,0.34375 L 2.1875,-0.015625 C 2.21875,0.1875 2.265625,0.21875 2.390625,0.21875 c 0.15625,0 0.203125,-0.046875 0.28125,-0.171875 z m 0,0"
             id="id-df63fe8f-8f45-4055-8d97-09c569bc58b0" />
        </symbol>
        <symbol
           overflow="visible"
           id="id-16c278e2-89e6-4274-9875-9d5caf1c59ec">
          <path
             style="stroke:none"
             d="m 5.359375,-5.9375 c -0.140625,0.140625 -0.46875,0.421875 -0.46875,0.59375 0,0.09375 0.09375,0.203125 0.1875,0.203125 0.09375,0 0.140625,-0.078125 0.203125,-0.140625 C 5.390625,-5.421875 5.625,-5.703125 6.0625,-5.921875 6.125,-5.96875 6.234375,-6.015625 6.234375,-6.125 6.234375,-6.234375 6.15625,-6.28125 6.09375,-6.328125 5.875,-6.484375 5.765625,-6.65625 5.6875,-6.890625 5.65625,-6.984375 5.625,-7.125 5.484375,-7.125 c -0.140625,0 -0.203125,0.140625 -0.203125,0.21875 0,0.046875 0.078125,0.359375 0.234375,0.578125 H 2.15625 c -0.15625,0 -0.34375,0 -0.34375,0.203125 0,0.1875 0.1875,0.1875 0.34375,0.1875 z m 0,0"
             id="id-8010fbf3-c13e-4ecd-8f3b-023cc59d6eda" />
        </symbol>
        <symbol
           overflow="visible"
           id="id-d964dd69-210b-4c1b-a2f8-f9acb9648dd3">
          <path
             style="stroke:none"
             d="m 6.4375,-6.921875 c 0,-0.03125 -0.03125,-0.109375 -0.125,-0.109375 -0.046875,0 -0.046875,0.015625 -0.171875,0.15625 L 5.65625,-6.3125 c -0.25,-0.46875 -0.765625,-0.71875 -1.421875,-0.71875 -1.265625,0 -2.453125,1.15625 -2.453125,2.359375 0,0.796875 0.515625,1.265625 1.03125,1.40625 l 1.0625,0.28125 c 0.375,0.09375 0.921875,0.25 0.921875,1.0625 0,0.890625 -0.8125,1.828125 -1.796875,1.828125 -0.640625,0 -1.75,-0.21875 -1.75,-1.453125 0,-0.234375 0.0625,-0.484375 0.0625,-0.53125 0.015625,-0.046875 0.015625,-0.0625 0.015625,-0.078125 0,-0.09375 -0.0625,-0.109375 -0.109375,-0.109375 -0.046875,0 -0.078125,0.015625 -0.109375,0.046875 -0.03125,0.03125 -0.59375,2.3125 -0.59375,2.34375 0,0.046875 0.046875,0.09375 0.109375,0.09375 0.046875,0 0.0625,-0.015625 0.1875,-0.15625 L 1.296875,-0.5 c 0.421875,0.578125 1.109375,0.71875 1.6875,0.71875 1.359375,0 2.53125,-1.328125 2.53125,-2.5625 0,-0.6875 -0.34375,-1.03125 -0.484375,-1.171875 C 4.796875,-3.734375 4.640625,-3.78125 3.765625,-4 3.53125,-4.0625 3.1875,-4.171875 3.09375,-4.1875 2.828125,-4.28125 2.484375,-4.5625 2.484375,-5.09375 c 0,-0.8125 0.796875,-1.65625 1.75,-1.65625 0.8125,0 1.421875,0.4375 1.421875,1.546875 0,0.3125 -0.03125,0.5 -0.03125,0.5625 0,0 0,0.09375 0.109375,0.09375 0.109375,0 0.125,-0.03125 0.15625,-0.203125 z m 0,0"
             id="id-8f247593-d358-4690-9545-7037f07da24a" />
        </symbol>
        <symbol
           overflow="visible"
           id="id-c0f09cfa-f687-4566-a696-d8412cc39f0b">
          <path
             style="stroke:none"
             d="M 3.890625,-3.734375 C 3.625,-3.71875 3.421875,-3.5 3.421875,-3.28125 c 0,0.140625 0.09375,0.296875 0.3125,0.296875 0.21875,0 0.453125,-0.171875 0.453125,-0.5625 C 4.1875,-4 3.765625,-4.40625 3,-4.40625 c -1.3125,0 -1.6875,1.015625 -1.6875,1.453125 0,0.78125 0.734375,0.921875 1.03125,0.984375 0.515625,0.109375 1.03125,0.21875 1.03125,0.765625 0,0.25 -0.21875,1.09375 -1.421875,1.09375 -0.140625,0 -0.90625,0 -1.140625,-0.53125 0.390625,0.046875 0.640625,-0.25 0.640625,-0.53125 0,-0.21875 -0.171875,-0.34375 -0.375,-0.34375 -0.265625,0 -0.5625,0.203125 -0.5625,0.65625 0,0.5625 0.578125,0.96875 1.421875,0.96875 1.625,0 2.015625,-1.203125 2.015625,-1.65625 0,-0.359375 -0.1875,-0.609375 -0.3125,-0.71875 -0.265625,-0.28125 -0.5625,-0.34375 -1,-0.421875 -0.359375,-0.078125 -0.75,-0.15625 -0.75,-0.609375 C 1.890625,-3.578125 2.125,-4.1875 3,-4.1875 c 0.25,0 0.75,0.078125 0.890625,0.453125 z m 0,0"
             id="id-6b991a39-25bd-45b9-aa79-470b95a5945e" />
        </symbol>
        <symbol
           overflow="visible"
           id="id-498a76c3-9c89-43ad-8b32-99fbaa94d5c4">
          <path
             style="stroke:none"
             d=""
             id="id-4cc67198-ac2e-44a4-9174-c4dad6305915" />
        </symbol>
        <symbol
           overflow="visible"
           id="id-d105c016-5f21-4a89-abb6-307c45a53aab">
          <path
             style="stroke:none"
             d="m 2.25,-1.734375 c 0.578125,-0.25 0.828125,-0.34375 1,-0.4375 0.140625,-0.046875 0.203125,-0.078125 0.203125,-0.21875 0,-0.109375 -0.09375,-0.21875 -0.21875,-0.21875 -0.046875,0 -0.0625,0 -0.140625,0.0625 L 2.140625,-1.90625 2.25,-2.9375 c 0.015625,-0.125 0,-0.296875 -0.21875,-0.296875 -0.078125,0 -0.21875,0.046875 -0.21875,0.203125 0,0.0625 0.03125,0.265625 0.046875,0.34375 0.015625,0.109375 0.0625,0.625 0.078125,0.78125 L 0.984375,-2.546875 c -0.0625,-0.03125 -0.078125,-0.0625 -0.140625,-0.0625 -0.140625,0 -0.21875,0.109375 -0.21875,0.21875 0,0.140625 0.078125,0.1875 0.140625,0.203125 L 1.8125,-1.734375 c -0.5625,0.25 -0.828125,0.34375 -1,0.421875 -0.125,0.0625 -0.1875,0.09375 -0.1875,0.21875 0,0.125 0.078125,0.21875 0.21875,0.21875 0.046875,0 0.0625,0 0.140625,-0.0625 l 0.953125,-0.625 -0.125,1.109375 c 0,0.15625 0.140625,0.21875 0.21875,0.21875 0.09375,0 0.21875,-0.0625 0.21875,-0.21875 0,-0.0625 -0.03125,-0.265625 -0.03125,-0.328125 -0.015625,-0.125 -0.0625,-0.625 -0.078125,-0.78125 L 2.96875,-1.015625 C 3.15625,-0.875 3.171875,-0.875 3.234375,-0.875 c 0.125,0 0.21875,-0.09375 0.21875,-0.21875 0,-0.140625 -0.09375,-0.171875 -0.15625,-0.203125 z m 0,0"
             id="id-74793781-4471-42b7-ae21-1048640253c5" />
        </symbol>
        <symbol
           overflow="visible"
           id="id-9add9d2b-e957-49b3-b820-4802489a7b40">
          <path
             style="stroke:none"
             d=""
             id="id-f8cc3a49-fec2-461a-af1d-7ea56a35b757" />
        </symbol>
        <symbol
           overflow="visible"
           id="id-1622da2a-4a3f-46ed-8c33-5288fd2af37f">
          <path
             style="stroke:none"
             d="M 3.984375,-4.625 C 3.984375,-4.640625 4,-4.734375 4,-4.734375 4,-4.78125 3.984375,-4.84375 3.890625,-4.84375 3.75,-4.84375 3.171875,-4.78125 3,-4.765625 c -0.046875,0 -0.15625,0.015625 -0.15625,0.15625 0,0.09375 0.109375,0.09375 0.1875,0.09375 0.328125,0 0.328125,0.0625 0.328125,0.109375 0,0.046875 0,0.09375 -0.015625,0.15625 L 2.9375,-2.65625 c -0.140625,-0.234375 -0.375,-0.421875 -0.71875,-0.421875 -0.890625,0 -1.796875,0.984375 -1.796875,1.984375 0,0.6875 0.453125,1.15625 1.0625,1.15625 0.375,0 0.703125,-0.203125 0.984375,-0.484375 C 2.59375,0 3,0.0625 3.1875,0.0625 c 0.25,0 0.421875,-0.140625 0.546875,-0.359375 0.15625,-0.28125 0.25,-0.671875 0.25,-0.703125 0,-0.09375 -0.09375,-0.09375 -0.109375,-0.09375 -0.109375,0 -0.109375,0.03125 -0.15625,0.21875 C 3.625,-0.53125 3.5,-0.125 3.203125,-0.125 3.03125,-0.125 2.96875,-0.28125 2.96875,-0.46875 c 0,-0.125 0.015625,-0.1875 0.046875,-0.28125 z M 2.5,-0.875 C 2.453125,-0.671875 2.296875,-0.53125 2.140625,-0.40625 2.078125,-0.34375 1.796875,-0.125 1.5,-0.125 c -0.265625,0 -0.515625,-0.1875 -0.515625,-0.671875 0,-0.375 0.203125,-1.140625 0.375,-1.421875 0.3125,-0.5625 0.671875,-0.65625 0.859375,-0.65625 0.484375,0 0.625,0.53125 0.625,0.609375 0,0.015625 -0.015625,0.078125 -0.015625,0.09375 z m 0,0"
             id="id-54cb4cbd-ce5a-4e2e-abad-fdf97dcc313f" />
        </symbol>
        <symbol
           overflow="visible"
           id="id-dff0f3fe-4669-4d1d-8ea6-cae9a0022837">
          <path
             style="stroke:none"
             d="M 5.3125,-3.671875 C 5.390625,-3.703125 5.46875,-3.75 5.46875,-3.84375 c 0,-0.09375 -0.078125,-0.171875 -0.171875,-0.171875 -0.015625,0 -0.046875,0 -0.140625,0.03125 l -4.25,2.046875 C 0.828125,-1.890625 0.75,-1.84375 0.75,-1.75 c 0,0.109375 0.078125,0.140625 0.15625,0.1875 l 4.25,2.046875 C 5.25,0.53125 5.28125,0.53125 5.296875,0.53125 5.390625,0.53125 5.46875,0.453125 5.46875,0.359375 5.46875,0.25 5.375,0.203125 5.3125,0.1875 l -4,-1.921875 z m 0,0"
             id="id-4a7515b8-61b0-4a44-bf9a-b3f97c74da11" />
        </symbol>
        <symbol
           overflow="visible"
           id="id-e563ceb8-17a1-48d1-9cec-f86e99dffad5">
          <path
             style="stroke:none"
             d=""
             id="id-d15e16c8-36c0-4997-ae6e-25c02a4466c2" />
        </symbol>
        <symbol
           overflow="visible"
           id="id-f5f801b1-dfc6-424e-b7f9-99178d2a002b">
          <path
             style="stroke:none"
             d="m 1.90625,-2.5 c 0,-0.28125 -0.234375,-0.515625 -0.515625,-0.515625 -0.296875,0 -0.53125,0.234375 -0.53125,0.515625 0,0.296875 0.234375,0.53125 0.53125,0.53125 0.28125,0 0.515625,-0.234375 0.515625,-0.53125 z m 0,0"
             id="id-54f15f4d-25cc-480e-8ced-9d892f38c31e" />
        </symbol>
      </g>
    </defs>
    <g
       id="id-b461b4e7-d292-4470-a8da-79c33c89a2e5"
       transform="translate(-149.275,-125.121)">
      <g
         style="fill:#000000;fill-opacity:1"
         id="id-df54631d-f0d1-4c1b-b342-bbb3e0b8cb3b">
        <g
           transform="translate(148.712,134.765)"
           id="g34823">
          <path
             style="stroke:none"
             d="M 6.265625,-5.671875 C 6.75,-6.453125 7.171875,-6.484375 7.53125,-6.5 c 0.125,-0.015625 0.140625,-0.171875 0.140625,-0.1875 0,-0.078125 -0.0625,-0.125 -0.140625,-0.125 -0.25,0 -0.546875,0.03125 -0.8125,0.03125 -0.328125,0 -0.671875,-0.03125 -0.984375,-0.03125 -0.0625,0 -0.1875,0 -0.1875,0.1875 0,0.109375 0.078125,0.125 0.15625,0.125 0.265625,0.015625 0.453125,0.125 0.453125,0.328125 0,0.15625 -0.140625,0.375 -0.140625,0.375 l -3.0625,4.875 -0.6875,-5.28125 C 2.265625,-6.375 2.5,-6.5 2.953125,-6.5 c 0.140625,0 0.25,0 0.25,-0.203125 0,-0.078125 -0.078125,-0.109375 -0.125,-0.109375 -0.40625,0 -0.828125,0.03125 -1.25,0.03125 -0.171875,0 -0.359375,0 -0.546875,0 -0.171875,0 -0.359375,-0.03125 -0.53125,-0.03125 -0.078125,0 -0.1875,0 -0.1875,0.1875 0,0.125 0.078125,0.125 0.25,0.125 0.546875,0 0.5625,0.09375 0.59375,0.34375 L 2.1875,-0.015625 C 2.21875,0.1875 2.265625,0.21875 2.390625,0.21875 c 0.15625,0 0.203125,-0.046875 0.28125,-0.171875 z m 0,0"
             id="id-78f85337-6626-4db3-a396-e0f390bf2962" />
        </g>
      </g>
      <g
         style="fill:#000000;fill-opacity:1"
         id="id-4b8dc044-cf99-46f2-a64a-6c0e7dc8229a">
        <g
           transform="translate(156.738,131.149)"
           id="g34827">
          <path
             style="stroke:none"
             d="m 2.25,-1.734375 c 0.578125,-0.25 0.828125,-0.34375 1,-0.4375 0.140625,-0.046875 0.203125,-0.078125 0.203125,-0.21875 0,-0.109375 -0.09375,-0.21875 -0.21875,-0.21875 -0.046875,0 -0.0625,0 -0.140625,0.0625 L 2.140625,-1.90625 2.25,-2.9375 c 0.015625,-0.125 0,-0.296875 -0.21875,-0.296875 -0.078125,0 -0.21875,0.046875 -0.21875,0.203125 0,0.0625 0.03125,0.265625 0.046875,0.34375 0.015625,0.109375 0.0625,0.625 0.078125,0.78125 L 0.984375,-2.546875 c -0.0625,-0.03125 -0.078125,-0.0625 -0.140625,-0.0625 -0.140625,0 -0.21875,0.109375 -0.21875,0.21875 0,0.140625 0.078125,0.1875 0.140625,0.203125 L 1.8125,-1.734375 c -0.5625,0.25 -0.828125,0.34375 -1,0.421875 -0.125,0.0625 -0.1875,0.09375 -0.1875,0.21875 0,0.125 0.078125,0.21875 0.21875,0.21875 0.046875,0 0.0625,0 0.140625,-0.0625 l 0.953125,-0.625 -0.125,1.109375 c 0,0.15625 0.140625,0.21875 0.21875,0.21875 0.09375,0 0.21875,-0.0625 0.21875,-0.21875 0,-0.0625 -0.03125,-0.265625 -0.03125,-0.328125 -0.015625,-0.125 -0.0625,-0.625 -0.078125,-0.78125 L 2.96875,-1.015625 C 3.15625,-0.875 3.171875,-0.875 3.234375,-0.875 c 0.125,0 0.21875,-0.09375 0.21875,-0.21875 0,-0.140625 -0.09375,-0.171875 -0.15625,-0.203125 z m 0,0"
             id="id-7d7f0565-6487-4793-bf0b-642723b6c954" />
        </g>
      </g>
      <g
         style="fill:#000000;fill-opacity:1"
         id="id-dd73e310-f97a-44fd-a4cf-4c4808a53a6f">
        <g
           transform="translate(162.233,132.246)"
           id="g34831">
          <path
             style="stroke:none"
             d="m 5.359375,-5.9375 c -0.140625,0.140625 -0.46875,0.421875 -0.46875,0.59375 0,0.09375 0.09375,0.203125 0.1875,0.203125 0.09375,0 0.140625,-0.078125 0.203125,-0.140625 C 5.390625,-5.421875 5.625,-5.703125 6.0625,-5.921875 6.125,-5.96875 6.234375,-6.015625 6.234375,-6.125 6.234375,-6.234375 6.15625,-6.28125 6.09375,-6.328125 5.875,-6.484375 5.765625,-6.65625 5.6875,-6.890625 5.65625,-6.984375 5.625,-7.125 5.484375,-7.125 c -0.140625,0 -0.203125,0.140625 -0.203125,0.21875 0,0.046875 0.078125,0.359375 0.234375,0.578125 H 2.15625 c -0.15625,0 -0.34375,0 -0.34375,0.203125 0,0.1875 0.1875,0.1875 0.34375,0.1875 z m 0,0"
             id="id-5f6dd6a9-2562-4d8d-a131-a61ddf7fc36b" />
        </g>
      </g>
      <g
         style="fill:#000000;fill-opacity:1"
         id="id-9ca417e3-37f5-4a6b-b81e-49cf52008ce1">
        <g
           transform="translate(161.318,134.765)"
           id="g34835">
          <path
             style="stroke:none"
             d="m 6.4375,-6.921875 c 0,-0.03125 -0.03125,-0.109375 -0.125,-0.109375 -0.046875,0 -0.046875,0.015625 -0.171875,0.15625 L 5.65625,-6.3125 c -0.25,-0.46875 -0.765625,-0.71875 -1.421875,-0.71875 -1.265625,0 -2.453125,1.15625 -2.453125,2.359375 0,0.796875 0.515625,1.265625 1.03125,1.40625 l 1.0625,0.28125 c 0.375,0.09375 0.921875,0.25 0.921875,1.0625 0,0.890625 -0.8125,1.828125 -1.796875,1.828125 -0.640625,0 -1.75,-0.21875 -1.75,-1.453125 0,-0.234375 0.0625,-0.484375 0.0625,-0.53125 0.015625,-0.046875 0.015625,-0.0625 0.015625,-0.078125 0,-0.09375 -0.0625,-0.109375 -0.109375,-0.109375 -0.046875,0 -0.078125,0.015625 -0.109375,0.046875 -0.03125,0.03125 -0.59375,2.3125 -0.59375,2.34375 0,0.046875 0.046875,0.09375 0.109375,0.09375 0.046875,0 0.0625,-0.015625 0.1875,-0.15625 L 1.296875,-0.5 c 0.421875,0.578125 1.109375,0.71875 1.6875,0.71875 1.359375,0 2.53125,-1.328125 2.53125,-2.5625 0,-0.6875 -0.34375,-1.03125 -0.484375,-1.171875 C 4.796875,-3.734375 4.640625,-3.78125 3.765625,-4 3.53125,-4.0625 3.1875,-4.171875 3.09375,-4.1875 2.828125,-4.28125 2.484375,-4.5625 2.484375,-5.09375 c 0,-0.8125 0.796875,-1.65625 1.75,-1.65625 0.8125,0 1.421875,0.4375 1.421875,1.546875 0,0.3125 -0.03125,0.5 -0.03125,0.5625 0,0 0,0.09375 0.109375,0.09375 0.109375,0 0.125,-0.03125 0.15625,-0.203125 z m 0,0"
             id="id-44bc37e1-a7cf-4192-a60f-6f05576ccbe9" />
        </g>
      </g>
      <g
         style="fill:#000000;fill-opacity:1"
         id="id-e3f4fbdf-8743-4fac-b61b-2d10495b76fe">
        <g
           transform="translate(167.427,136.259)"
           id="g34839">
          <path
             style="stroke:none"
             d="M 3.984375,-4.625 C 3.984375,-4.640625 4,-4.734375 4,-4.734375 4,-4.78125 3.984375,-4.84375 3.890625,-4.84375 3.75,-4.84375 3.171875,-4.78125 3,-4.765625 c -0.046875,0 -0.15625,0.015625 -0.15625,0.15625 0,0.09375 0.109375,0.09375 0.1875,0.09375 0.328125,0 0.328125,0.0625 0.328125,0.109375 0,0.046875 0,0.09375 -0.015625,0.15625 L 2.9375,-2.65625 c -0.140625,-0.234375 -0.375,-0.421875 -0.71875,-0.421875 -0.890625,0 -1.796875,0.984375 -1.796875,1.984375 0,0.6875 0.453125,1.15625 1.0625,1.15625 0.375,0 0.703125,-0.203125 0.984375,-0.484375 C 2.59375,0 3,0.0625 3.1875,0.0625 c 0.25,0 0.421875,-0.140625 0.546875,-0.359375 0.15625,-0.28125 0.25,-0.671875 0.25,-0.703125 0,-0.09375 -0.09375,-0.09375 -0.109375,-0.09375 -0.109375,0 -0.109375,0.03125 -0.15625,0.21875 C 3.625,-0.53125 3.5,-0.125 3.203125,-0.125 3.03125,-0.125 2.96875,-0.28125 2.96875,-0.46875 c 0,-0.125 0.015625,-0.1875 0.046875,-0.28125 z M 2.5,-0.875 C 2.453125,-0.671875 2.296875,-0.53125 2.140625,-0.40625 2.078125,-0.34375 1.796875,-0.125 1.5,-0.125 c -0.265625,0 -0.515625,-0.1875 -0.515625,-0.671875 0,-0.375 0.203125,-1.140625 0.375,-1.421875 0.3125,-0.5625 0.671875,-0.65625 0.859375,-0.65625 0.484375,0 0.625,0.53125 0.625,0.609375 0,0.015625 -0.015625,0.078125 -0.015625,0.09375 z m 0,0"
             id="id-54293e72-7149-4778-9814-cd9bf47c8220" />
        </g>
      </g>
      <g
         style="fill:#000000;fill-opacity:1"
         id="id-78b99520-643b-4edc-96aa-a3d3132c1939">
        <g
           transform="translate(174.286,134.765)"
           id="g34843">
          <path
             style="stroke:none"
             d="m 1.90625,-2.5 c 0,-0.28125 -0.234375,-0.515625 -0.515625,-0.515625 -0.296875,0 -0.53125,0.234375 -0.53125,0.515625 0,0.296875 0.234375,0.53125 0.53125,0.53125 0.28125,0 0.515625,-0.234375 0.515625,-0.53125 z m 0,0"
             id="id-be142388-a169-4098-9db5-dbf39de4b449" />
        </g>
      </g>
      <g
         style="fill:#000000;fill-opacity:1"
         id="id-563cab2e-8268-4bcf-9049-11c9f69b1c36">
        <g
           transform="translate(178.899,134.765)"
           id="g34847">
          <path
             style="stroke:none"
             d="m 5.359375,-5.9375 c -0.140625,0.140625 -0.46875,0.421875 -0.46875,0.59375 0,0.09375 0.09375,0.203125 0.1875,0.203125 0.09375,0 0.140625,-0.078125 0.203125,-0.140625 C 5.390625,-5.421875 5.625,-5.703125 6.0625,-5.921875 6.125,-5.96875 6.234375,-6.015625 6.234375,-6.125 6.234375,-6.234375 6.15625,-6.28125 6.09375,-6.328125 5.875,-6.484375 5.765625,-6.65625 5.6875,-6.890625 5.65625,-6.984375 5.625,-7.125 5.484375,-7.125 c -0.140625,0 -0.203125,0.140625 -0.203125,0.21875 0,0.046875 0.078125,0.359375 0.234375,0.578125 H 2.15625 c -0.15625,0 -0.34375,0 -0.34375,0.203125 0,0.1875 0.1875,0.1875 0.34375,0.1875 z m 0,0"
             id="id-fbec33fa-ef3d-4323-9b9d-d8e7f7dd5dbe" />
        </g>
      </g>
      <g
         style="fill:#000000;fill-opacity:1"
         id="id-8151efac-ad73-4c6c-a121-ea799d783fef">
        <g
           transform="translate(179.268,134.765)"
           id="g34851">
          <path
             style="stroke:none"
             d="M 3.890625,-3.734375 C 3.625,-3.71875 3.421875,-3.5 3.421875,-3.28125 c 0,0.140625 0.09375,0.296875 0.3125,0.296875 0.21875,0 0.453125,-0.171875 0.453125,-0.5625 C 4.1875,-4 3.765625,-4.40625 3,-4.40625 c -1.3125,0 -1.6875,1.015625 -1.6875,1.453125 0,0.78125 0.734375,0.921875 1.03125,0.984375 0.515625,0.109375 1.03125,0.21875 1.03125,0.765625 0,0.25 -0.21875,1.09375 -1.421875,1.09375 -0.140625,0 -0.90625,0 -1.140625,-0.53125 0.390625,0.046875 0.640625,-0.25 0.640625,-0.53125 0,-0.21875 -0.171875,-0.34375 -0.375,-0.34375 -0.265625,0 -0.5625,0.203125 -0.5625,0.65625 0,0.5625 0.578125,0.96875 1.421875,0.96875 1.625,0 2.015625,-1.203125 2.015625,-1.65625 0,-0.359375 -0.1875,-0.609375 -0.3125,-0.71875 -0.265625,-0.28125 -0.5625,-0.34375 -1,-0.421875 -0.359375,-0.078125 -0.75,-0.15625 -0.75,-0.609375 C 1.890625,-3.578125 2.125,-4.1875 3,-4.1875 c 0.25,0 0.75,0.078125 0.890625,0.453125 z m 0,0"
             id="id-90daa715-2653-4f69-8e48-315d183cbcd3" />
        </g>
      </g>
      <g
         style="fill:#000000;fill-opacity:1"
         id="id-f0d8a8d7-746e-48ae-8460-48f91fdbf183">
        <g
           transform="translate(183.937,136.259)"
           id="g34855">
          <path
             style="stroke:none"
             d="M 5.3125,-3.671875 C 5.390625,-3.703125 5.46875,-3.75 5.46875,-3.84375 c 0,-0.09375 -0.078125,-0.171875 -0.171875,-0.171875 -0.015625,0 -0.046875,0 -0.140625,0.03125 l -4.25,2.046875 C 0.828125,-1.890625 0.75,-1.84375 0.75,-1.75 c 0,0.109375 0.078125,0.140625 0.15625,0.1875 l 4.25,2.046875 C 5.25,0.53125 5.28125,0.53125 5.296875,0.53125 5.390625,0.53125 5.46875,0.453125 5.46875,0.359375 5.46875,0.25 5.375,0.203125 5.3125,0.1875 l -4,-1.921875 z m 0,0"
             id="id-b3bd5e1c-8a91-4b43-ac92-27d8ac3d1a7c" />
        </g>
      </g>
    </g>
  </g>
</svg>
