<?xml version="1.0" encoding="UTF-8" standalone="no"?>
<!-- Created with Inkscape (http://www.inkscape.org/) -->

<svg
   width="238.88698mm"
   height="44.591mm"
   viewBox="0 0 238.88698 44.590999"
   version="1.1"
   id="svg1"
   xml:space="preserve"
   inkscape:version="1.3.2 (091e20ef0f, 2023-11-25, custom)"
   sodipodi:docname="greensFunc.svg"
   xmlns:inkscape="http://www.inkscape.org/namespaces/inkscape"
   xmlns:sodipodi="http://sodipodi.sourceforge.net/DTD/sodipodi-0.dtd"
   xmlns="http://www.w3.org/2000/svg"
   xmlns:svg="http://www.w3.org/2000/svg"
   xmlns:ns4="http://www.iki.fi/pav/software/textext/"><sodipodi:namedview
     id="namedview1"
     pagecolor="#ffffff"
     bordercolor="#cccccc"
     borderopacity="1"
     inkscape:showpageshadow="0"
     inkscape:pageopacity="1"
     inkscape:pagecheckerboard="0"
     inkscape:deskcolor="#d1d1d1"
     inkscape:document-units="mm"
     showgrid="false"
     inkscape:zoom="1.3523148"
     inkscape:cx="430.7429"
     inkscape:cy="21.814447"
     inkscape:window-width="1920"
     inkscape:window-height="1004"
     inkscape:window-x="0"
     inkscape:window-y="0"
     inkscape:window-maximized="1"
     inkscape:current-layer="layer1"
     showguides="false" /><defs
     id="defs1"><marker
       style="overflow:visible"
       id="marker45"
       refX="0"
       refY="0"
       orient="auto-start-reverse"
       inkscape:stockid="Rounded arrow"
       markerWidth="0.5"
       markerHeight="0.5"
       viewBox="0 0 1 1"
       inkscape:isstock="true"
       inkscape:collect="always"
       preserveAspectRatio="xMidYMid"><path
         transform="scale(0.7)"
         d="m -0.21114562,-4.1055728 6.42229122,3.21114561 a 1,1 90 0 1 0,1.78885438 L -0.21114562,4.1055728 A 1.236068,1.236068 31.717474 0 1 -2,3 v -6 a 1.236068,1.236068 148.28253 0 1 1.78885438,-1.1055728 z"
         style="fill:context-stroke;fill-rule:evenodd;stroke:none"
         id="path45" /></marker><inkscape:path-effect
       effect="spiro"
       id="path-effect45"
       is_visible="true"
       lpeversion="1" /><marker
       style="overflow:visible"
       id="marker43"
       refX="0"
       refY="0"
       orient="auto-start-reverse"
       inkscape:stockid="Rounded arrow"
       markerWidth="0.5"
       markerHeight="0.5"
       viewBox="0 0 1 1"
       inkscape:isstock="true"
       inkscape:collect="always"
       preserveAspectRatio="xMidYMid"><path
         transform="scale(0.7)"
         d="m -0.21114562,-4.1055728 6.42229122,3.21114561 a 1,1 90 0 1 0,1.78885438 L -0.21114562,4.1055728 A 1.236068,1.236068 31.717474 0 1 -2,3 v -6 a 1.236068,1.236068 148.28253 0 1 1.78885438,-1.1055728 z"
         style="fill:context-stroke;fill-rule:evenodd;stroke:none"
         id="path43" /></marker><inkscape:path-effect
       effect="spiro"
       id="path-effect43"
       is_visible="true"
       lpeversion="1" /><inkscape:path-effect
       effect="spiro"
       id="path-effect21"
       is_visible="true"
       lpeversion="1" /><marker
       style="overflow:visible"
       id="RoundedArrow"
       refX="0"
       refY="0"
       orient="auto-start-reverse"
       inkscape:stockid="Rounded arrow"
       markerWidth="0.5"
       markerHeight="0.5"
       viewBox="0 0 1 1"
       inkscape:isstock="true"
       inkscape:collect="always"
       preserveAspectRatio="xMidYMid"><path
         transform="scale(0.7)"
         d="m -0.21114562,-4.1055728 6.42229122,3.21114561 a 1,1 90 0 1 0,1.78885438 L -0.21114562,4.1055728 A 1.236068,1.236068 31.717474 0 1 -2,3 v -6 a 1.236068,1.236068 148.28253 0 1 1.78885438,-1.1055728 z"
         style="fill:context-stroke;fill-rule:evenodd;stroke:none"
         id="path8" /></marker><inkscape:path-effect
       effect="spiro"
       id="path-effect19"
       is_visible="true"
       lpeversion="1" /><inkscape:path-effect
       effect="spiro"
       id="path-effect12"
       is_visible="true"
       lpeversion="1" /><inkscape:path-effect
       effect="spiro"
       id="path-effect88"
       is_visible="true"
       lpeversion="1" /><inkscape:path-effect
       effect="spiro"
       id="path-effect86"
       is_visible="true"
       lpeversion="1" /><inkscape:path-effect
       effect="spiro"
       id="path-effect84"
       is_visible="true"
       lpeversion="1" /><inkscape:path-effect
       effect="spiro"
       id="path-effect81"
       is_visible="true"
       lpeversion="1" /><inkscape:path-effect
       effect="spiro"
       id="path-effect79"
       is_visible="true"
       lpeversion="1" /><inkscape:path-effect
       effect="spiro"
       id="path-effect77"
       is_visible="true"
       lpeversion="1" /><inkscape:path-effect
       effect="spiro"
       id="path-effect76"
       is_visible="true"
       lpeversion="1" /><inkscape:path-effect
       effect="spiro"
       id="path-effect74"
       is_visible="true"
       lpeversion="1" /><inkscape:path-effect
       effect="spiro"
       id="path-effect72"
       is_visible="true"
       lpeversion="1" /><inkscape:path-effect
       effect="spiro"
       id="path-effect70"
       is_visible="true"
       lpeversion="1" /><inkscape:path-effect
       effect="spiro"
       id="path-effect68"
       is_visible="true"
       lpeversion="1" /><inkscape:path-effect
       effect="spiro"
       id="path-effect66"
       is_visible="true"
       lpeversion="1" /><inkscape:path-effect
       effect="spiro"
       id="path-effect52"
       is_visible="true"
       lpeversion="1" /><inkscape:path-effect
       effect="spiro"
       id="path-effect50"
       is_visible="true"
       lpeversion="1" /><inkscape:path-effect
       effect="spiro"
       id="path-effect48"
       is_visible="true"
       lpeversion="1" /><inkscape:path-effect
       effect="spiro"
       id="path-effect46"
       is_visible="true"
       lpeversion="1" /><inkscape:path-effect
       effect="spiro"
       id="path-effect44"
       is_visible="true"
       lpeversion="1" /><inkscape:path-effect
       effect="spiro"
       id="path-effect42"
       is_visible="true"
       lpeversion="1" /><inkscape:path-effect
       effect="spiro"
       id="path-effect28"
       is_visible="true"
       lpeversion="1" /><inkscape:path-effect
       effect="spiro"
       id="path-effect26"
       is_visible="true"
       lpeversion="1" /><inkscape:path-effect
       effect="spiro"
       id="path-effect24"
       is_visible="true"
       lpeversion="1" /><inkscape:path-effect
       effect="spiro"
       id="path-effect22"
       is_visible="true"
       lpeversion="1" /><inkscape:path-effect
       effect="spiro"
       id="path-effect20"
       is_visible="true"
       lpeversion="1" /><inkscape:path-effect
       effect="spiro"
       id="path-effect17"
       is_visible="true"
       lpeversion="1" /><inkscape:path-effect
       effect="spiro"
       id="path-effect18"
       is_visible="true"
       lpeversion="1" /><inkscape:path-effect
       effect="spiro"
       id="path-effect15"
       is_visible="true"
       lpeversion="1" /><inkscape:path-effect
       effect="spiro"
       id="path-effect6"
       is_visible="true"
       lpeversion="1" /><inkscape:path-effect
       effect="spiro"
       id="path-effect14"
       is_visible="true"
       lpeversion="1" /><inkscape:path-effect
       effect="spiro"
       id="path-effect13"
       is_visible="true"
       lpeversion="1" /><inkscape:path-effect
       effect="spiro"
       id="path-effect11"
       is_visible="true"
       lpeversion="1" /><inkscape:path-effect
       effect="spiro"
       id="path-effect2"
       is_visible="true"
       lpeversion="1" /><inkscape:path-effect
       effect="spiro"
       id="path-effect7"
       is_visible="true"
       lpeversion="1" /><inkscape:path-effect
       effect="spiro"
       id="path-effect5"
       is_visible="true"
       lpeversion="1" /><inkscape:path-effect
       effect="spiro"
       id="path-effect3"
       is_visible="true"
       lpeversion="1" /><inkscape:path-effect
       effect="spiro"
       id="path-effect1"
       is_visible="true"
       lpeversion="1" /><inkscape:path-effect
       effect="spiro"
       id="path-effect1-3"
       is_visible="true"
       lpeversion="1" /><inkscape:path-effect
       effect="spiro"
       id="path-effect1-6"
       is_visible="true"
       lpeversion="1" /><inkscape:path-effect
       effect="spiro"
       id="path-effect1-3-1"
       is_visible="true"
       lpeversion="1" /><inkscape:path-effect
       effect="spiro"
       id="path-effect3-8"
       is_visible="true"
       lpeversion="1" /><inkscape:path-effect
       effect="spiro"
       id="path-effect5-7"
       is_visible="true"
       lpeversion="1" /><inkscape:path-effect
       effect="spiro"
       id="path-effect7-9"
       is_visible="true"
       lpeversion="1" /><inkscape:path-effect
       effect="spiro"
       id="path-effect1-2"
       is_visible="true"
       lpeversion="1" /><inkscape:path-effect
       effect="spiro"
       id="path-effect1-3-9"
       is_visible="true"
       lpeversion="1" /><inkscape:path-effect
       effect="spiro"
       id="path-effect3-3"
       is_visible="true"
       lpeversion="1" /><inkscape:path-effect
       effect="spiro"
       id="path-effect5-1"
       is_visible="true"
       lpeversion="1" /><inkscape:path-effect
       effect="spiro"
       id="path-effect7-94"
       is_visible="true"
       lpeversion="1" /><inkscape:path-effect
       effect="spiro"
       id="path-effect1-6-7"
       is_visible="true"
       lpeversion="1" /><inkscape:path-effect
       effect="spiro"
       id="path-effect1-3-1-8"
       is_visible="true"
       lpeversion="1" /><inkscape:path-effect
       effect="spiro"
       id="path-effect3-8-4"
       is_visible="true"
       lpeversion="1" /><inkscape:path-effect
       effect="spiro"
       id="path-effect5-7-5"
       is_visible="true"
       lpeversion="1" /><inkscape:path-effect
       effect="spiro"
       id="path-effect7-9-0"
       is_visible="true"
       lpeversion="1" /><inkscape:path-effect
       effect="spiro"
       id="path-effect1-68"
       is_visible="true"
       lpeversion="1" /><inkscape:path-effect
       effect="spiro"
       id="path-effect1-3-92"
       is_visible="true"
       lpeversion="1" /><inkscape:path-effect
       effect="spiro"
       id="path-effect3-6"
       is_visible="true"
       lpeversion="1" /><inkscape:path-effect
       effect="spiro"
       id="path-effect5-6"
       is_visible="true"
       lpeversion="1" /><inkscape:path-effect
       effect="spiro"
       id="path-effect7-4"
       is_visible="true"
       lpeversion="1" /><inkscape:path-effect
       effect="spiro"
       id="path-effect1-6-9"
       is_visible="true"
       lpeversion="1" /><inkscape:path-effect
       effect="spiro"
       id="path-effect1-3-1-5"
       is_visible="true"
       lpeversion="1" /><inkscape:path-effect
       effect="spiro"
       id="path-effect3-8-0"
       is_visible="true"
       lpeversion="1" /><inkscape:path-effect
       effect="spiro"
       id="path-effect5-7-4"
       is_visible="true"
       lpeversion="1" /><inkscape:path-effect
       effect="spiro"
       id="path-effect7-9-8"
       is_visible="true"
       lpeversion="1" /><inkscape:path-effect
       effect="spiro"
       id="path-effect1-2-7"
       is_visible="true"
       lpeversion="1" /><inkscape:path-effect
       effect="spiro"
       id="path-effect1-3-9-1"
       is_visible="true"
       lpeversion="1" /><inkscape:path-effect
       effect="spiro"
       id="path-effect3-3-7"
       is_visible="true"
       lpeversion="1" /><inkscape:path-effect
       effect="spiro"
       id="path-effect5-1-2"
       is_visible="true"
       lpeversion="1" /><inkscape:path-effect
       effect="spiro"
       id="path-effect7-94-7"
       is_visible="true"
       lpeversion="1" /><inkscape:path-effect
       effect="spiro"
       id="path-effect1-6-7-2"
       is_visible="true"
       lpeversion="1" /><inkscape:path-effect
       effect="spiro"
       id="path-effect1-3-1-8-2"
       is_visible="true"
       lpeversion="1" /><inkscape:path-effect
       effect="spiro"
       id="path-effect3-8-4-6"
       is_visible="true"
       lpeversion="1" /><inkscape:path-effect
       effect="spiro"
       id="path-effect5-7-5-1"
       is_visible="true"
       lpeversion="1" /><inkscape:path-effect
       effect="spiro"
       id="path-effect7-9-0-0"
       is_visible="true"
       lpeversion="1" /><inkscape:path-effect
       effect="spiro"
       id="path-effect2-3"
       is_visible="true"
       lpeversion="1" /><inkscape:path-effect
       effect="spiro"
       id="path-effect2-3-7"
       is_visible="true"
       lpeversion="1" /><inkscape:path-effect
       effect="spiro"
       id="path-effect2-2"
       is_visible="true"
       lpeversion="1" /><inkscape:path-effect
       effect="spiro"
       id="path-effect2-3-0"
       is_visible="true"
       lpeversion="1" /><inkscape:path-effect
       effect="spiro"
       id="path-effect2-28"
       is_visible="true"
       lpeversion="1" /><inkscape:path-effect
       effect="spiro"
       id="path-effect2-28-9"
       is_visible="true"
       lpeversion="1" /><inkscape:path-effect
       effect="spiro"
       id="path-effect2-28-9-4"
       is_visible="true"
       lpeversion="1" /><inkscape:path-effect
       effect="spiro"
       id="path-effect2-28-3"
       is_visible="true"
       lpeversion="1" /><inkscape:path-effect
       effect="spiro"
       id="path-effect2-28-9-47"
       is_visible="true"
       lpeversion="1" /><g
       id="id-f83a9160-6730-4e1a-b9d3-f026adb54697-5"><g
         id="id-d4f1c1fd-5d7e-4cc2-98f2-243a43401039-2"><path
           d="M 6.25,-6.875 H 5.3125 l -0.640625,4.578125 c -0.15625,1.0625 -0.71875,1.625 -1.71875,1.625 C 2,-0.671875 1.625,-1.171875 1.78125,-2.25 l 0.640625,-4.625 h -0.9375 l -0.65625,4.640625 C 0.640625,-0.875 1.34375,0.125 2.90625,0.125 c 1.515625,0 2.5,-0.9375 2.6875,-2.296875 z m 0,0"
           id="id-794839ec-723a-4315-80cb-2ff75269337b-5" /></g><g
         id="id-762b0ead-5bcf-4ffc-a9d4-650f41334f29-4"><path
           d="m 2.453125,-3.34375 c 0.375,0 0.65625,0.234375 0.65625,0.90625 0,0.859375 -0.359375,2 -1.296875,2 -0.265625,0 -0.421875,-0.03125 -0.671875,-0.109375 l 0.3125,-2.25 c 0.28125,-0.28125 0.578125,-0.546875 1,-0.546875 z M 2.625,-3.859375 c -0.40625,0 -0.75,0.15625 -1.078125,0.453125 L 1.8125,-5.375 1.15625,-5.296875 0.4375,-0.171875 C 0.96875,0.015625 1.328125,0.09375 1.765625,0.09375 3.25,0.09375 3.78125,-1.3125 3.78125,-2.375 c 0,-0.953125 -0.453125,-1.484375 -1.15625,-1.484375 z m 0,0"
           id="id-08ca60ef-a63a-4a79-8dde-f37a9d4a8d09-7" /></g></g><g
       id="id-f83a9160-6730-4e1a-b9d3-f026adb54697-1"><g
         id="id-d4f1c1fd-5d7e-4cc2-98f2-243a43401039-4"><path
           d="M 6.25,-6.875 H 5.3125 l -0.640625,4.578125 c -0.15625,1.0625 -0.71875,1.625 -1.71875,1.625 C 2,-0.671875 1.625,-1.171875 1.78125,-2.25 l 0.640625,-4.625 h -0.9375 l -0.65625,4.640625 C 0.640625,-0.875 1.34375,0.125 2.90625,0.125 c 1.515625,0 2.5,-0.9375 2.6875,-2.296875 z m 0,0"
           id="id-794839ec-723a-4315-80cb-2ff75269337b-9" /></g><g
         id="id-762b0ead-5bcf-4ffc-a9d4-650f41334f29-2"><path
           d="m 2.453125,-3.34375 c 0.375,0 0.65625,0.234375 0.65625,0.90625 0,0.859375 -0.359375,2 -1.296875,2 -0.265625,0 -0.421875,-0.03125 -0.671875,-0.109375 l 0.3125,-2.25 c 0.28125,-0.28125 0.578125,-0.546875 1,-0.546875 z M 2.625,-3.859375 c -0.40625,0 -0.75,0.15625 -1.078125,0.453125 L 1.8125,-5.375 1.15625,-5.296875 0.4375,-0.171875 C 0.96875,0.015625 1.328125,0.09375 1.765625,0.09375 3.25,0.09375 3.78125,-1.3125 3.78125,-2.375 c 0,-0.953125 -0.453125,-1.484375 -1.15625,-1.484375 z m 0,0"
           id="id-08ca60ef-a63a-4a79-8dde-f37a9d4a8d09-0" /></g></g><g
       id="id-f83a9160-6730-4e1a-b9d3-f026adb54697-7"><g
         id="id-d4f1c1fd-5d7e-4cc2-98f2-243a43401039-1"><path
           d="M 6.25,-6.875 H 5.3125 l -0.640625,4.578125 c -0.15625,1.0625 -0.71875,1.625 -1.71875,1.625 C 2,-0.671875 1.625,-1.171875 1.78125,-2.25 l 0.640625,-4.625 h -0.9375 l -0.65625,4.640625 C 0.640625,-0.875 1.34375,0.125 2.90625,0.125 c 1.515625,0 2.5,-0.9375 2.6875,-2.296875 z m 0,0"
           id="id-794839ec-723a-4315-80cb-2ff75269337b-7" /></g><g
         id="id-762b0ead-5bcf-4ffc-a9d4-650f41334f29-27"><path
           d="m 2.453125,-3.34375 c 0.375,0 0.65625,0.234375 0.65625,0.90625 0,0.859375 -0.359375,2 -1.296875,2 -0.265625,0 -0.421875,-0.03125 -0.671875,-0.109375 l 0.3125,-2.25 c 0.28125,-0.28125 0.578125,-0.546875 1,-0.546875 z M 2.625,-3.859375 c -0.40625,0 -0.75,0.15625 -1.078125,0.453125 L 1.8125,-5.375 1.15625,-5.296875 0.4375,-0.171875 C 0.96875,0.015625 1.328125,0.09375 1.765625,0.09375 3.25,0.09375 3.78125,-1.3125 3.78125,-2.375 c 0,-0.953125 -0.453125,-1.484375 -1.15625,-1.484375 z m 0,0"
           id="id-08ca60ef-a63a-4a79-8dde-f37a9d4a8d09-2" /></g></g><inkscape:path-effect
       effect="spiro"
       id="path-effect14-7"
       is_visible="true"
       lpeversion="1" /><g
       id="id-6695c8bc-d4fb-408d-af10-16e63854ae55-9"><g
         id="id-0a61603c-02a1-4c32-b915-3b84f2905897-7"><path
           d="M 2.15625,-4.546875 H 3.296875 L 3.5,-5.25 H 2.265625 L 2.4375,-6.546875 1.71875,-6.46875 1.390625,-5.25 h -0.9375 L 0.34375,-4.546875 H 1.25 L 0.8125,-1.40625 c -0.140625,0.984375 0.34375,1.53125 1.25,1.53125 0.40625,0 0.78125,-0.109375 1.171875,-0.359375 L 2.9375,-0.875 c -0.28125,0.140625 -0.5,0.234375 -0.765625,0.234375 -0.390625,0 -0.53125,-0.21875 -0.453125,-0.75 z m 0,0"
           id="id-cf346f64-ce42-4651-93c5-bab93ca876f1-7" /></g></g><inkscape:path-effect
       effect="spiro"
       id="path-effect6-7"
       is_visible="true"
       lpeversion="1" /><inkscape:path-effect
       effect="spiro"
       id="path-effect6-7-2"
       is_visible="true"
       lpeversion="1" /><inkscape:path-effect
       effect="spiro"
       id="path-effect6-7-2-0"
       is_visible="true"
       lpeversion="1" /><inkscape:path-effect
       effect="spiro"
       id="path-effect6-7-2-0-6"
       is_visible="true"
       lpeversion="1" /><inkscape:path-effect
       effect="spiro"
       id="path-effect15-6"
       is_visible="true"
       lpeversion="1" /><inkscape:path-effect
       effect="spiro"
       id="path-effect18-5"
       is_visible="true"
       lpeversion="1" /><inkscape:path-effect
       effect="spiro"
       id="path-effect6-9"
       is_visible="true"
       lpeversion="1" /><inkscape:path-effect
       effect="spiro"
       id="path-effect6-7-6"
       is_visible="true"
       lpeversion="1" /><inkscape:path-effect
       effect="spiro"
       id="path-effect6-7-2-2"
       is_visible="true"
       lpeversion="1" /><inkscape:path-effect
       effect="spiro"
       id="path-effect77-1"
       is_visible="true"
       lpeversion="1" /><inkscape:path-effect
       effect="spiro"
       id="path-effect77-9"
       is_visible="true"
       lpeversion="1" /><inkscape:path-effect
       effect="spiro"
       id="path-effect77-9-3"
       is_visible="true"
       lpeversion="1" /><inkscape:path-effect
       effect="spiro"
       id="path-effect77-9-3-6"
       is_visible="true"
       lpeversion="1" /><g
       id="id-692f79a2-da2e-4d81-9440-e2aadec12bd0-7"><g
         id="id-b918c01f-4261-4e6c-8e84-cef00608cfbc-7"><path
           d="m 3.484375,-5.4375 c 0.195313,0 0.375,0.023438 0.53125,0.0625 l -0.25,1.53125 c -0.199219,-0.050781 -0.355469,-0.078125 -0.46875,-0.078125 -0.3125,0 -0.554687,0.109375 -0.71875,0.328125 C 2.410156,-3.375 2.28125,-3.050781 2.1875,-2.625 V 0 H 0.625 V -5.296875 H 2 l 0.125,1.03125 C 2.238281,-4.628906 2.414062,-4.914062 2.65625,-5.125 c 0.25,-0.207031 0.523438,-0.3125 0.828125,-0.3125 z m 0,0"
           id="id-8be7963a-5d89-4a58-817a-ea86828b5e86-3" /></g><g
         id="id-52a2f1fe-4e57-45f5-818d-13cfea13233f-3"><path
           d="M 3.859375,-5.328125 V 0 h -1 l -0.0625,-0.4375 C 2.523438,-0.0625 2.164062,0.125 1.71875,0.125 1.238281,0.125 0.875,-0.0546875 0.625,-0.421875 c -0.242188,-0.363281 -0.359375,-0.863281 -0.359375,-1.5 0,-0.382813 0.0625,-0.726563 0.1875,-1.03125 C 0.585938,-3.253906 0.769531,-3.492188 1,-3.671875 1.238281,-3.847656 1.515625,-3.9375 1.828125,-3.9375 c 0.351563,0 0.648437,0.121094 0.890625,0.359375 V -5.4375 Z m -1.796875,4.625 c 0.257812,0 0.476562,-0.144531 0.65625,-0.4375 V -2.78125 C 2.632812,-2.894531 2.546875,-2.976562 2.453125,-3.03125 2.359375,-3.082031 2.25,-3.109375 2.125,-3.109375 c -0.210938,0 -0.375,0.101563 -0.5,0.296875 -0.125,0.199219 -0.1875,0.5 -0.1875,0.90625 0,0.449219 0.050781,0.761719 0.15625,0.9375 0.113281,0.179688 0.269531,0.265625 0.46875,0.265625 z m 0,0"
           id="id-05717a7d-03ca-406d-a1b0-af4f0d7a6d06-2" /></g></g><g
       id="id-692f79a2-da2e-4d81-9440-e2aadec12bd0-70"><g
         id="id-b918c01f-4261-4e6c-8e84-cef00608cfbc-6"><path
           d="m 3.484375,-5.4375 c 0.195313,0 0.375,0.023438 0.53125,0.0625 l -0.25,1.53125 c -0.199219,-0.050781 -0.355469,-0.078125 -0.46875,-0.078125 -0.3125,0 -0.554687,0.109375 -0.71875,0.328125 C 2.410156,-3.375 2.28125,-3.050781 2.1875,-2.625 V 0 H 0.625 V -5.296875 H 2 l 0.125,1.03125 C 2.238281,-4.628906 2.414062,-4.914062 2.65625,-5.125 c 0.25,-0.207031 0.523438,-0.3125 0.828125,-0.3125 z m 0,0"
           id="id-8be7963a-5d89-4a58-817a-ea86828b5e86-4" /></g><g
         id="id-52a2f1fe-4e57-45f5-818d-13cfea13233f-7"><path
           d="M 3.859375,-5.328125 V 0 h -1 l -0.0625,-0.4375 C 2.523438,-0.0625 2.164062,0.125 1.71875,0.125 1.238281,0.125 0.875,-0.0546875 0.625,-0.421875 c -0.242188,-0.363281 -0.359375,-0.863281 -0.359375,-1.5 0,-0.382813 0.0625,-0.726563 0.1875,-1.03125 C 0.585938,-3.253906 0.769531,-3.492188 1,-3.671875 1.238281,-3.847656 1.515625,-3.9375 1.828125,-3.9375 c 0.351563,0 0.648437,0.121094 0.890625,0.359375 V -5.4375 Z m -1.796875,4.625 c 0.257812,0 0.476562,-0.144531 0.65625,-0.4375 V -2.78125 C 2.632812,-2.894531 2.546875,-2.976562 2.453125,-3.03125 2.359375,-3.082031 2.25,-3.109375 2.125,-3.109375 c -0.210938,0 -0.375,0.101563 -0.5,0.296875 -0.125,0.199219 -0.1875,0.5 -0.1875,0.90625 0,0.449219 0.050781,0.761719 0.15625,0.9375 0.113281,0.179688 0.269531,0.265625 0.46875,0.265625 z m 0,0"
           id="id-05717a7d-03ca-406d-a1b0-af4f0d7a6d06-0" /></g></g><g
       id="id-692f79a2-da2e-4d81-9440-e2aadec12bd0"><g
         id="id-b918c01f-4261-4e6c-8e84-cef00608cfbc"><path
           d="m 3.484375,-5.4375 c 0.195313,0 0.375,0.023438 0.53125,0.0625 l -0.25,1.53125 c -0.199219,-0.050781 -0.355469,-0.078125 -0.46875,-0.078125 -0.3125,0 -0.554687,0.109375 -0.71875,0.328125 C 2.410156,-3.375 2.28125,-3.050781 2.1875,-2.625 V 0 H 0.625 V -5.296875 H 2 l 0.125,1.03125 C 2.238281,-4.628906 2.414062,-4.914062 2.65625,-5.125 c 0.25,-0.207031 0.523438,-0.3125 0.828125,-0.3125 z m 0,0"
           id="id-8be7963a-5d89-4a58-817a-ea86828b5e86" /></g><g
         id="id-52a2f1fe-4e57-45f5-818d-13cfea13233f"><path
           d="M 3.859375,-5.328125 V 0 h -1 l -0.0625,-0.4375 C 2.523438,-0.0625 2.164062,0.125 1.71875,0.125 1.238281,0.125 0.875,-0.0546875 0.625,-0.421875 c -0.242188,-0.363281 -0.359375,-0.863281 -0.359375,-1.5 0,-0.382813 0.0625,-0.726563 0.1875,-1.03125 C 0.585938,-3.253906 0.769531,-3.492188 1,-3.671875 1.238281,-3.847656 1.515625,-3.9375 1.828125,-3.9375 c 0.351563,0 0.648437,0.121094 0.890625,0.359375 V -5.4375 Z m -1.796875,4.625 c 0.257812,0 0.476562,-0.144531 0.65625,-0.4375 V -2.78125 C 2.632812,-2.894531 2.546875,-2.976562 2.453125,-3.03125 2.359375,-3.082031 2.25,-3.109375 2.125,-3.109375 c -0.210938,0 -0.375,0.101563 -0.5,0.296875 -0.125,0.199219 -0.1875,0.5 -0.1875,0.90625 0,0.449219 0.050781,0.761719 0.15625,0.9375 0.113281,0.179688 0.269531,0.265625 0.46875,0.265625 z m 0,0"
           id="id-05717a7d-03ca-406d-a1b0-af4f0d7a6d06" /></g></g><g
       id="g90"><g
         id="g88"><path
           d="m 3.484375,-5.4375 c 0.195313,0 0.375,0.023438 0.53125,0.0625 l -0.25,1.53125 c -0.199219,-0.050781 -0.355469,-0.078125 -0.46875,-0.078125 -0.3125,0 -0.554687,0.109375 -0.71875,0.328125 C 2.410156,-3.375 2.28125,-3.050781 2.1875,-2.625 V 0 H 0.625 V -5.296875 H 2 l 0.125,1.03125 C 2.238281,-4.628906 2.414062,-4.914062 2.65625,-5.125 c 0.25,-0.207031 0.523438,-0.3125 0.828125,-0.3125 z m 0,0"
           id="path88" /></g><g
         id="g89"><path
           d="M 3.859375,-5.328125 V 0 h -1 l -0.0625,-0.4375 C 2.523438,-0.0625 2.164062,0.125 1.71875,0.125 1.238281,0.125 0.875,-0.0546875 0.625,-0.421875 c -0.242188,-0.363281 -0.359375,-0.863281 -0.359375,-1.5 0,-0.382813 0.0625,-0.726563 0.1875,-1.03125 C 0.585938,-3.253906 0.769531,-3.492188 1,-3.671875 1.238281,-3.847656 1.515625,-3.9375 1.828125,-3.9375 c 0.351563,0 0.648437,0.121094 0.890625,0.359375 V -5.4375 Z m -1.796875,4.625 c 0.257812,0 0.476562,-0.144531 0.65625,-0.4375 V -2.78125 C 2.632812,-2.894531 2.546875,-2.976562 2.453125,-3.03125 2.359375,-3.082031 2.25,-3.109375 2.125,-3.109375 c -0.210938,0 -0.375,0.101563 -0.5,0.296875 -0.125,0.199219 -0.1875,0.5 -0.1875,0.90625 0,0.449219 0.050781,0.761719 0.15625,0.9375 0.113281,0.179688 0.269531,0.265625 0.46875,0.265625 z m 0,0"
           id="path89" /></g></g><g
       id="g93"><g
         id="g91"><path
           d="m 3.484375,-5.4375 c 0.195313,0 0.375,0.023438 0.53125,0.0625 l -0.25,1.53125 c -0.199219,-0.050781 -0.355469,-0.078125 -0.46875,-0.078125 -0.3125,0 -0.554687,0.109375 -0.71875,0.328125 C 2.410156,-3.375 2.28125,-3.050781 2.1875,-2.625 V 0 H 0.625 V -5.296875 H 2 l 0.125,1.03125 C 2.238281,-4.628906 2.414062,-4.914062 2.65625,-5.125 c 0.25,-0.207031 0.523438,-0.3125 0.828125,-0.3125 z m 0,0"
           id="path90" /></g><g
         id="g92"><path
           d="M 3.859375,-5.328125 V 0 h -1 l -0.0625,-0.4375 C 2.523438,-0.0625 2.164062,0.125 1.71875,0.125 1.238281,0.125 0.875,-0.0546875 0.625,-0.421875 c -0.242188,-0.363281 -0.359375,-0.863281 -0.359375,-1.5 0,-0.382813 0.0625,-0.726563 0.1875,-1.03125 C 0.585938,-3.253906 0.769531,-3.492188 1,-3.671875 1.238281,-3.847656 1.515625,-3.9375 1.828125,-3.9375 c 0.351563,0 0.648437,0.121094 0.890625,0.359375 V -5.4375 Z m -1.796875,4.625 c 0.257812,0 0.476562,-0.144531 0.65625,-0.4375 V -2.78125 C 2.632812,-2.894531 2.546875,-2.976562 2.453125,-3.03125 2.359375,-3.082031 2.25,-3.109375 2.125,-3.109375 c -0.210938,0 -0.375,0.101563 -0.5,0.296875 -0.125,0.199219 -0.1875,0.5 -0.1875,0.90625 0,0.449219 0.050781,0.761719 0.15625,0.9375 0.113281,0.179688 0.269531,0.265625 0.46875,0.265625 z m 0,0"
           id="path91" /></g></g><g
       id="id-e2f1343b-f73a-43c6-92f7-1d2d1c543555-0">
      <g
   id="id-081d4ed4-e3b0-4c85-9009-98fd29faec62-5">
        <path
   d="m 3.484375,-5.4375 c 0.195313,0 0.375,0.023438 0.53125,0.0625 l -0.25,1.53125 c -0.199219,-0.050781 -0.355469,-0.078125 -0.46875,-0.078125 -0.3125,0 -0.554687,0.109375 -0.71875,0.328125 C 2.410156,-3.375 2.28125,-3.050781 2.1875,-2.625 V 0 H 0.625 V -5.296875 H 2 l 0.125,1.03125 C 2.238281,-4.628906 2.414062,-4.914062 2.65625,-5.125 c 0.25,-0.207031 0.523438,-0.3125 0.828125,-0.3125 z m 0,0"
   id="id-43222754-96a5-4241-aeb7-195103bf9915-1" />
      </g>
      <g
   id="id-4a3253f4-dd06-4e71-af62-70c17bea31e1-8">
        <path
   d="m 2.25,-3.34375 c 0.34375,0 0.578125,0.171875 0.78125,0.453125 L 2.796875,-1.3125 c -0.328125,0.53125 -0.640625,0.875 -1.109375,0.875 -0.390625,0 -0.625,-0.28125 -0.625,-0.921875 0,-0.75 0.265625,-1.984375 1.1875,-1.984375 z m 1.125,-2.015625 -0.28125,1.96875 C 2.890625,-3.65625 2.5625,-3.859375 2.125,-3.859375 c -1.296875,0 -1.765625,1.46875 -1.765625,2.453125 0,0.90625 0.421875,1.5 1.203125,1.5 0.484375,0 0.875,-0.28125 1.140625,-0.71875 V 0 h 0.5625 l 0.75,-5.296875 z m 0,0"
   id="id-61210554-bcc5-47f4-9f13-8d90fa24e994-9" />
      </g>
    </g><inkscape:path-effect
       effect="spiro"
       id="path-effect19-5"
       is_visible="true"
       lpeversion="1" /><marker
       style="overflow:visible"
       id="RoundedArrow-5"
       refX="0"
       refY="0"
       orient="auto-start-reverse"
       inkscape:stockid="Rounded arrow"
       markerWidth="0.5"
       markerHeight="0.5"
       viewBox="0 0 1 1"
       inkscape:isstock="true"
       inkscape:collect="always"
       preserveAspectRatio="xMidYMid"><path
         transform="scale(0.7)"
         d="m -0.21114562,-4.1055728 6.42229122,3.21114561 a 1,1 90 0 1 0,1.78885438 L -0.21114562,4.1055728 A 1.236068,1.236068 31.717474 0 1 -2,3 v -6 a 1.236068,1.236068 148.28253 0 1 1.78885438,-1.1055728 z"
         style="fill:context-stroke;fill-rule:evenodd;stroke:none"
         id="path8-4" /></marker><inkscape:path-effect
       effect="spiro"
       id="path-effect19-3"
       is_visible="true"
       lpeversion="1" /><g
       id="id-9f6a6e39-b13c-471c-8f21-3efa7dc21d26-8"
       style="fill:#505050;fill-opacity:1;stroke-width:0">
      <g
   id="id-9d12a9d9-0e21-4230-865f-4e30d94e0ffd-3"
   style="fill:#505050;fill-opacity:1;stroke-width:0">
        <path
   d="m 4.03125,-6.984375 c -2.40625,0 -3.4375,2.421875 -3.4375,4.40625 0,1.796875 0.9375,2.703125 2.421875,2.703125 0.9375,0 1.65625,-0.234375 2.3125,-0.65625 L 5.78125,-3.8125 H 3.546875 v 0.765625 H 4.75 L 4.453125,-1 c -0.421875,0.25 -0.875,0.34375 -1.3125,0.34375 -1.015625,0 -1.5625,-0.53125 -1.5625,-1.8125 0,-1.640625 0.6875,-3.734375 2.46875,-3.734375 0.59375,0 0.953125,0.140625 1.421875,0.515625 l 0.578125,-0.515625 c -0.515625,-0.5 -1.125,-0.78125 -2.015625,-0.78125 z m 0,0"
   id="id-4a57ddea-4e45-4294-8185-5fdf1939d3ca-3"
   style="fill:#505050;fill-opacity:1;stroke-width:0" />
      </g>
      <g
   id="id-f0b226e6-e76f-43e7-9fa6-4a0b3d8da735-1"
   style="fill:#505050;fill-opacity:1;stroke-width:0">
        <path
   d="m 2.25,-7.71875 c -0.96875,1.375 -1.84375,2.5625 -1.84375,4.921875 0,2.375 0.875,3.546875 1.84375,4.9375 L 2.828125,1.75 C 1.9375,0.421875 1.359375,-0.65625 1.359375,-2.796875 1.359375,-4.9375 1.9375,-6 2.828125,-7.328125 Z m 0,0"
   id="id-56409bb4-b2f9-46d1-a90e-7ed15fbe1aac-9"
   style="fill:#505050;fill-opacity:1;stroke-width:0" />
      </g>
      <g
   id="id-fe7676dc-fff9-48eb-a7e5-f206f8183888-9"
   style="fill:#505050;fill-opacity:1;stroke-width:0">
        <path
   d="m 2.0625,0.125 c 0.78125,0 1.28125,-0.375 1.578125,-1.21875 0.015625,0.796875 0.46875,1.21875 1.21875,1.21875 1.625,0 2.203125,-1.765625 2.203125,-3.390625 C 7.0625,-4.0625 6.921875,-4.71875 6.78125,-5.25 H 5.890625 c 0.1875,0.734375 0.265625,1.3125 0.265625,1.90625 0,1.09375 -0.25,2.71875 -1.375,2.71875 -0.609375,0 -0.71875,-0.46875 -0.625,-1.15625 l 0.265625,-1.875 -0.890625,0.125 -0.234375,1.703125 C 3.15625,-0.84375 2.734375,-0.625 2.21875,-0.625 c -0.484375,0 -0.75,-0.296875 -0.75,-1.0625 0,-0.96875 0.265625,-2.015625 1.046875,-3.5625 H 1.59375 c -0.609375,1.109375 -1.03125,2.375 -1.03125,3.5 0,1.328125 0.65625,1.875 1.5,1.875 z m 0,0"
   id="id-9c03adbe-b550-4a7b-a09a-2906c86adf7b-6"
   style="fill:#505050;fill-opacity:1;stroke-width:0" />
      </g>
      <g
   id="id-45a2f4f6-0e71-48c3-8893-bdeac0407d50-1"
   style="fill:#505050;fill-opacity:1;stroke-width:0">
        <path
   d="M 2.90625,-4.671875 H 2.078125 v 1.5 H 0.625 v 0.765625 h 1.453125 v 1.484375 H 2.90625 V -2.40625 H 4.359375 V -3.171875 H 2.90625 Z m 0,0"
   id="id-f8e87118-b79a-4a11-96ea-01c7a00ad02a-7"
   style="fill:#505050;fill-opacity:1;stroke-width:0" />
      </g>
      <g
   id="id-b1414f7e-d125-4af8-a25c-1d706efcca69-1"
   style="fill:#505050;fill-opacity:1;stroke-width:0">
        <path
   d="m 2.3125,0.125 c 0.734375,0 1.390625,-0.25 1.9375,-0.640625 L 3.859375,-1.109375 C 3.328125,-0.78125 2.921875,-0.625 2.390625,-0.625 c -0.703125,0 -1.03125,-0.28125 -1.03125,-0.75 0,-0.515625 0.28125,-1 1.328125,-1 h 0.515625 l 0.21875,-0.71875 h -0.625 c -0.578125,0 -0.90625,-0.25 -0.90625,-0.75 0,-0.4375 0.328125,-0.8125 1.0625,-0.8125 0.53125,0 0.84375,0.140625 1.15625,0.359375 L 4.59375,-4.828125 C 4.203125,-5.140625 3.671875,-5.375 2.953125,-5.375 c -1.40625,0 -1.96875,0.8125 -1.96875,1.515625 0,0.5625 0.359375,0.890625 0.921875,1.046875 -1.125,0.15625 -1.5,0.78125 -1.5,1.453125 C 0.40625,-0.5 1.140625,0.125 2.3125,0.125 Z m 0,0"
   id="id-bac84e64-6f9c-4121-ad5d-3048eaebac42-4"
   style="fill:#505050;fill-opacity:1;stroke-width:0" />
      </g>
      <g
   id="id-0d6bd5da-46df-489c-b36c-45bac65c454d-0"
   style="fill:#505050;fill-opacity:1;stroke-width:0">
        <path
   d="M 0.984375,-7.71875 0.40625,-7.328125 C 1.296875,-6 1.875,-4.9375 1.875,-2.796875 1.875,-0.65625 1.296875,0.421875 0.40625,1.75 l 0.578125,0.390625 c 0.96875,-1.390625 1.84375,-2.5625 1.84375,-4.9375 0,-2.359375 -0.875,-3.546875 -1.84375,-4.921875 z m 0,0"
   id="id-0d560150-aab1-4373-9e0d-f4dc4fc2e36a-2"
   style="fill:#505050;fill-opacity:1;stroke-width:0" />
      </g>
      <g
   id="id-23a1bed7-eb86-4140-859b-6e37799b2e35-5"
   style="fill:#505050;fill-opacity:1;stroke-width:0">
        <path
   d="M 1.8125,-5.375 1.15625,-5.296875 0.40625,0 H 1.0625 L 1.375,-2.265625 C 1.703125,-3 2.203125,-3.34375 2.609375,-3.34375 c 0.25,0 0.40625,0.140625 0.40625,0.40625 0,0.53125 -0.375,0.84375 -1.265625,1.09375 L 2.65625,0 H 3.390625 L 2.53125,-1.671875 C 3.328125,-1.921875 3.703125,-2.40625 3.703125,-3 c 0,-0.5 -0.375,-0.859375 -0.90625,-0.859375 C 2.3125,-3.859375 1.859375,-3.625 1.5,-3.125 Z m 0,0"
   id="id-519ff2d4-4a9e-4b0b-9b7a-3cb041f5f787-8"
   style="fill:#505050;fill-opacity:1;stroke-width:0" />
      </g>
      <g
   id="id-fba13ce5-31d1-4f8d-950c-626bc01ddd1c-0"
   style="fill:#505050;fill-opacity:1;stroke-width:0">
        <path
   d="M 1.59375,0 H 2.125 V -3.984375 H 1.65625 L 0.46875,-3.25 0.6875,-2.875 1.59375,-3.421875 Z m 0,0"
   id="id-9e8bf4bb-9ccf-4eeb-a3ec-2da85cbcb38c-1"
   style="fill:#505050;fill-opacity:1;stroke-width:0" />
      </g>
    </g></defs><g
     inkscape:label="Layer 1"
     inkscape:groupmode="layer"
     id="layer1"
     transform="translate(43.562056,-73.38019)"><path
       style="fill:#d2473f;fill-opacity:1;stroke:#404040;stroke-width:2;stroke-linejoin:bevel;stroke-dasharray:none;stroke-opacity:1;paint-order:markers stroke fill"
       d="M -23.14504,94.8057 H 185.80384"
       id="path12"
       inkscape:path-effect="#path-effect12"
       inkscape:original-d="m -23.14504,94.8057 c 69.649624,0 208.94888,0 208.94888,0"
       transform="matrix(0.66614539,0,0,1,-8.5322423,0)" /><circle
       style="fill:#d2473f;fill-opacity:1;stroke:none;stroke-width:1.16769;stroke-linejoin:bevel;stroke-dasharray:none;stroke-opacity:1;paint-order:markers stroke fill"
       id="path1"
       cx="-33.728374"
       cy="94.805702"
       r="9.8336811" /><circle
       style="fill:#226ba8;fill-opacity:1;stroke:none;stroke-width:0.1;stroke-dasharray:none;stroke-dashoffset:0;stroke-opacity:1"
       id="path7-9-09-5"
       cx="10.583333"
       cy="94.805702"
       r="6.7877083" /><circle
       style="fill:#226ba8;fill-opacity:1;stroke:none;stroke-width:0.1;stroke-dasharray:none;stroke-dashoffset:0;stroke-opacity:1"
       id="circle12"
       cx="95.249992"
       cy="94.805702"
       r="6.7877083" /><circle
       style="fill:#226ba8;fill-opacity:1;stroke:none;stroke-width:0.1;stroke-dasharray:none;stroke-dashoffset:0;stroke-opacity:1"
       id="circle13"
       cx="52.916668"
       cy="94.805702"
       r="6.7877083" /><g
       transform="matrix(1.3120511,0,0,1.3120511,-31.445421,74.002493)"
       ns4:version="1.10.2"
       ns4:texconverter="xelatex"
       ns4:pdfconverter="inkscape"
       ns4:text="$\\mathbf{r}_d$"
       ns4:preamble="/home/kirito/.config/textext/beamer_preamble.tex"
       ns4:scale="5.5089072644962425"
       ns4:alignment="middle center"
       ns4:stroke-to-path="0"
       id="g3245"
       ns4:jacobian_sqrt="1.94342"
       style="fill:#505050;fill-opacity:1"><defs
   id="id-fff9c958-3228-4f6f-b9fe-f494c283e16f">
    <g
   id="id-e2f1343b-f73a-43c6-92f7-1d2d1c543555">
      <g
   id="id-081d4ed4-e3b0-4c85-9009-98fd29faec62">
        <path
   d="m 3.484375,-5.4375 c 0.195313,0 0.375,0.023438 0.53125,0.0625 l -0.25,1.53125 c -0.199219,-0.050781 -0.355469,-0.078125 -0.46875,-0.078125 -0.3125,0 -0.554687,0.109375 -0.71875,0.328125 C 2.410156,-3.375 2.28125,-3.050781 2.1875,-2.625 V 0 H 0.625 V -5.296875 H 2 l 0.125,1.03125 C 2.238281,-4.628906 2.414062,-4.914062 2.65625,-5.125 c 0.25,-0.207031 0.523438,-0.3125 0.828125,-0.3125 z m 0,0"
   id="id-43222754-96a5-4241-aeb7-195103bf9915" />
      </g>
      <g
   id="id-4a3253f4-dd06-4e71-af62-70c17bea31e1">
        <path
   d="m 2.25,-3.34375 c 0.34375,0 0.578125,0.171875 0.78125,0.453125 L 2.796875,-1.3125 c -0.328125,0.53125 -0.640625,0.875 -1.109375,0.875 -0.390625,0 -0.625,-0.28125 -0.625,-0.921875 0,-0.75 0.265625,-1.984375 1.1875,-1.984375 z m 1.125,-2.015625 -0.28125,1.96875 C 2.890625,-3.65625 2.5625,-3.859375 2.125,-3.859375 c -1.296875,0 -1.765625,1.46875 -1.765625,2.453125 0,0.90625 0.421875,1.5 1.203125,1.5 0.484375,0 0.875,-0.28125 1.140625,-0.71875 V 0 h 0.5625 l 0.75,-5.296875 z m 0,0"
   id="id-61210554-bcc5-47f4-9f13-8d90fa24e994" />
      </g>
    </g>
  </defs>
  <g
   fill="#000000"
   fill-opacity="1"
   id="id-a0397f3e-b577-4801-af08-d2f93705cdf2"
   transform="translate(-149.337,-129.327)"
   style="fill:#505050;fill-opacity:1">
    <g
   transform="translate(148.712,134.765)"
   id="g7414"
   style="fill:#505050;fill-opacity:1"><path
   d="m 3.484375,-5.4375 c 0.195313,0 0.375,0.023438 0.53125,0.0625 l -0.25,1.53125 c -0.199219,-0.050781 -0.355469,-0.078125 -0.46875,-0.078125 -0.3125,0 -0.554687,0.109375 -0.71875,0.328125 C 2.410156,-3.375 2.28125,-3.050781 2.1875,-2.625 V 0 H 0.625 V -5.296875 H 2 l 0.125,1.03125 C 2.238281,-4.628906 2.414062,-4.914062 2.65625,-5.125 c 0.25,-0.207031 0.523438,-0.3125 0.828125,-0.3125 z m 0,0"
   id="id-e234667a-9dce-4c9b-96b3-5ccbfd3b85dc"
   style="fill:#505050;fill-opacity:1" />
      </g></g>
  <g
   fill="#000000"
   fill-opacity="1"
   id="id-51a3b753-47ee-4831-ab07-a80872d79566"
   transform="translate(-149.337,-129.327)"
   style="fill:#505050;fill-opacity:1">
    <g
   transform="translate(152.707,138.252)"
   id="g297"
   style="fill:#505050;fill-opacity:1"><path
   d="m 2.25,-3.34375 c 0.34375,0 0.578125,0.171875 0.78125,0.453125 L 2.796875,-1.3125 c -0.328125,0.53125 -0.640625,0.875 -1.109375,0.875 -0.390625,0 -0.625,-0.28125 -0.625,-0.921875 0,-0.75 0.265625,-1.984375 1.1875,-1.984375 z m 1.125,-2.015625 -0.28125,1.96875 C 2.890625,-3.65625 2.5625,-3.859375 2.125,-3.859375 c -1.296875,0 -1.765625,1.46875 -1.765625,2.453125 0,0.90625 0.421875,1.5 1.203125,1.5 0.484375,0 0.875,-0.28125 1.140625,-0.71875 V 0 h 0.5625 l 0.75,-5.296875 z m 0,0"
   id="id-1122ed0a-fc13-453d-b66d-63d9d10a892a"
   style="fill:#505050;fill-opacity:1" />
      </g></g>
</g><path
       style="fill:none;fill-opacity:1;stroke:#4d8089;stroke-width:1.88876;stroke-linejoin:bevel;stroke-dasharray:none;stroke-opacity:1;paint-order:markers stroke fill"
       d="m 36.759948,92.178662 c 1.453308,-0.0039 2.906516,0.04279 4.359824,-0.18148 1.453307,-0.224622 2.906615,-0.739112 4.359923,-3.286962 1.453308,-2.547493 2.906616,-7.917373 4.359823,-11.613646 1.453308,-3.696628 2.906616,-3.691636 4.359924,0 1.453308,3.691637 2.906621,9.062231 4.359421,11.613646 1.45381,2.551771 2.90662,3.061627 4.360427,3.286962 1.45281,0.224977 2.90661,0.177557 4.35942,0.18148"
       title="exp(-x**2)"
       id="path18" /><path
       style="fill:none;fill-opacity:1;stroke:#4d8089;stroke-width:1.88876;stroke-linejoin:bevel;stroke-dasharray:none;stroke-opacity:1;paint-order:markers stroke fill"
       d="m 79.99064,98.023375 c 1.4533,0.004 2.90651,-0.0428 4.359817,0.18148 1.45331,0.22462 2.90661,0.739106 4.35992,3.286955 1.453307,2.5475 2.906617,7.91738 4.359827,11.61365 1.453301,3.69663 2.906611,3.69164 4.359921,0 1.45331,-3.69164 2.906625,-9.06223 4.359425,-11.61365 1.45381,-2.551769 2.90662,-3.061615 4.36043,-3.286955 1.45281,-0.22498 2.90661,-0.17756 4.35942,-0.18148"
       title="exp(-x**2)"
       id="path18-2" /><path
       style="fill:none;fill-opacity:1;stroke:#404040;stroke-width:2.2641;stroke-linejoin:bevel;stroke-dasharray:none;stroke-opacity:1;marker-end:url(#RoundedArrow);paint-order:markers stroke fill"
       d="M 79.98808,81.095942 H 44.622253"
       id="path19"
       inkscape:path-effect="#path-effect19"
       inkscape:original-d="m 79.98808,81.095942 c -11.788611,0 -23.577219,0 -35.365827,0"
       transform="matrix(0.78031025,0,0,1,-21.585775,0)" /><path
       style="fill:none;fill-opacity:1;stroke:#404040;stroke-width:2.2641;stroke-linejoin:bevel;stroke-dasharray:none;stroke-opacity:1;marker-end:url(#RoundedArrow-5);paint-order:markers stroke fill"
       d="M 79.98808,81.095942 H 44.622253"
       id="path19-7"
       inkscape:path-effect="#path-effect19-3"
       inkscape:original-d="m 79.98808,81.095942 c -11.788611,0 -23.577219,0 -35.365827,0"
       transform="matrix(0.78031025,0,0,1,25.952753,31.276628)" /><path
       style="fill:none;fill-opacity:1;stroke:#4d8089;stroke-width:1;stroke-linejoin:bevel;stroke-dasharray:none;stroke-dashoffset:0;stroke-opacity:1;paint-order:markers stroke fill"
       d="m 123.80051,83.583672 c 1.31258,-1.312583 2.62517,-2.611026 3.93775,-3.429869 1.31254,-0.818805 2.62513,-1.138577 3.93771,-0.847085 1.31258,0.291492 2.62517,1.191196 3.93771,2.373544 1.31258,1.182311 2.62517,2.624008 3.93774,3.806859 1.31257,1.182851 2.62515,2.080893 3.93772,2.373544 1.31258,0.292651 2.62516,-0.02921 3.93771,-0.847123 1.31258,-0.817916 2.62517,-2.117287 3.93775,-3.42987"
       title="sin(1*x)"
       id="path23" /><path
       style="fill:none;fill-opacity:1;stroke:#4d8089;stroke-width:1;stroke-linejoin:bevel;stroke-dasharray:none;stroke-dashoffset:0;stroke-opacity:1;paint-order:markers stroke fill"
       d="m 123.7339,93.805525 c 0.65947,-1.339783 1.31893,-2.665133 1.97839,-3.500944 0.65945,-0.835773 1.31891,-1.162171 1.97837,-0.864639 0.65947,0.297533 1.31893,1.215881 1.97837,2.42273 0.65947,1.206811 1.31893,2.678384 1.97839,3.885746 0.65946,1.207362 1.31892,2.124014 1.97838,2.42273 0.65946,0.298715 1.31892,-0.02981 1.97837,-0.864678 0.65946,-0.834865 1.31892,-2.161161 1.97839,-3.500945"
       title="sin(1*x)"
       id="path24" /><path
       style="fill:none;fill-opacity:1;stroke:#4d8089;stroke-width:1;stroke-linejoin:bevel;stroke-dasharray:none;stroke-dashoffset:0;stroke-opacity:1;paint-order:markers stroke fill"
       d="m 137.58256,93.805525 c 0.65946,-1.339783 1.31892,-2.665133 1.97839,-3.500944 0.65944,-0.835773 1.3189,-1.162171 1.97837,-0.864639 0.65946,0.297533 1.31892,1.215881 1.97837,2.42273 0.65946,1.206811 1.31892,2.678384 1.97838,3.885746 0.65946,1.207362 1.31892,2.124014 1.97838,2.42273 0.65946,0.298715 1.31892,-0.02981 1.97837,-0.864678 0.65946,-0.834865 1.31893,-2.161161 1.97839,-3.500945"
       title="sin(1*x)"
       id="path24-7" /><path
       style="fill:none;fill-opacity:1;stroke:#4d8089;stroke-width:1;stroke-linejoin:bevel;stroke-dasharray:none;stroke-dashoffset:0;stroke-opacity:1;paint-order:markers stroke fill"
       d="m 123.6933,106.07176 c 0.44881,-1.35309 0.89762,-2.6916 1.34643,-3.5357 0.4488,-0.84407 0.89761,-1.17372 1.34643,-0.87323 0.44881,0.30049 0.89762,1.22795 1.34642,2.44679 0.44881,1.21879 0.89762,2.70497 1.34643,3.92432 0.44881,1.21935 0.89762,2.1451 1.34642,2.44678 0.44881,0.30168 0.89762,-0.0301 1.34642,-0.87326 0.44881,-0.84316 0.89763,-2.18262 1.34644,-3.5357"
       title="sin(1*x)"
       id="path25" /><path
       style="fill:none;fill-opacity:1;stroke:#4d8089;stroke-width:1;stroke-linejoin:bevel;stroke-dasharray:none;stroke-dashoffset:0;stroke-opacity:1;paint-order:markers stroke fill"
       d="m 133.11829,106.07176 c 0.44881,-1.35309 0.89762,-2.6916 1.34643,-3.5357 0.4488,-0.84407 0.89761,-1.17372 1.34642,-0.87323 0.44881,0.30049 0.89763,1.22795 1.34642,2.44679 0.44882,1.21879 0.89763,2.70497 1.34644,3.92432 0.4488,1.21935 0.89761,2.1451 1.34642,2.44678 0.44881,0.30168 0.89762,-0.0301 1.34642,-0.87326 0.44881,-0.84316 0.89762,-2.18262 1.34643,-3.5357"
       title="sin(1*x)"
       id="path26" /><path
       style="fill:none;fill-opacity:1;stroke:#4d8089;stroke-width:1;stroke-linejoin:bevel;stroke-dasharray:none;stroke-dashoffset:0;stroke-opacity:1;paint-order:markers stroke fill"
       d="m 142.54327,106.07176 c 0.44882,-1.35309 0.89763,-2.6916 1.34644,-3.5357 0.4488,-0.84407 0.89761,-1.17372 1.34642,-0.87323 0.44881,0.30049 0.89762,1.22795 1.34642,2.44679 0.44881,1.21879 0.89762,2.70497 1.34643,3.92432 0.44881,1.21935 0.89762,2.1451 1.34643,2.44678 0.44881,0.30168 0.89762,-0.0301 1.34642,-0.87326 0.44881,-0.84316 0.89762,-2.18262 1.34643,-3.5357"
       title="sin(1*x)"
       id="path26-7" /><path
       style="fill:none;fill-opacity:1;stroke:#404040;stroke-width:1;stroke-linejoin:bevel;stroke-dasharray:2, 1;stroke-dashoffset:0;stroke-opacity:1;marker-end:url(#marker43);paint-order:markers stroke fill"
       d="m 101.39977,114.06786 c 1.7526,-1.69375 3.55714,-3.33374 5.41024,-4.91691 4.44716,-3.79937 9.17434,-7.27091 14.13052,-10.377156"
       id="path42"
       inkscape:path-effect="#path-effect43"
       inkscape:original-d="m 101.39977,114.06786 c 1.80341,-1.63897 3.60683,-3.27794 5.41024,-4.91691 1.80342,-1.63897 9.42035,-6.9181 14.13052,-10.377156" /><path
       style="fill:none;fill-opacity:1;stroke:#404040;stroke-width:1;stroke-linejoin:bevel;stroke-dasharray:2, 1;stroke-dashoffset:0;stroke-opacity:1;marker-end:url(#marker45);paint-order:markers stroke fill"
       d="m 59.704376,83.2536 c 5.812611,-2.388176 11.973559,-3.926578 18.226532,-4.551206 14.539137,-1.452357 29.536962,2.184507 41.795922,10.135211"
       id="path44"
       inkscape:path-effect="#path-effect45"
       inkscape:original-d="m 59.704376,83.2536 c 6.07551,-1.517067 12.151021,-3.034138 18.226532,-4.551206 6.075513,-1.51707 27.863952,6.756808 41.795922,10.135211" /><g
       transform="matrix(0.93401,0,0,0.93401,156.02914,73.379956)"
       ns4:version="1.10.2"
       ns4:texconverter="xelatex"
       ns4:pdfconverter="inkscape"
       ns4:text="$G(\\omega+\\varepsilon_{k_1})$"
       ns4:preamble="/home/kirito/.config/textext/beamer_preamble.tex"
       ns4:scale="2.6475878272226323"
       ns4:alignment="middle center"
       ns4:stroke-to-path="0"
       ns4:inkscapeversion="1.3.2"
       id="g7145"
       ns4:jacobian_sqrt="0.93401"
       style="fill:#505050;fill-opacity:1;stroke-width:0"><defs
   id="id-e9653083-75ec-446c-9e19-dcd0ab232281"
   style="fill:#505050;fill-opacity:1;stroke-width:0">
    <g
   id="id-9f6a6e39-b13c-471c-8f21-3efa7dc21d26"
   style="fill:#505050;fill-opacity:1;stroke-width:0">
      <g
   id="id-9d12a9d9-0e21-4230-865f-4e30d94e0ffd"
   style="fill:#505050;fill-opacity:1;stroke-width:0">
        <path
   d="m 4.03125,-6.984375 c -2.40625,0 -3.4375,2.421875 -3.4375,4.40625 0,1.796875 0.9375,2.703125 2.421875,2.703125 0.9375,0 1.65625,-0.234375 2.3125,-0.65625 L 5.78125,-3.8125 H 3.546875 v 0.765625 H 4.75 L 4.453125,-1 c -0.421875,0.25 -0.875,0.34375 -1.3125,0.34375 -1.015625,0 -1.5625,-0.53125 -1.5625,-1.8125 0,-1.640625 0.6875,-3.734375 2.46875,-3.734375 0.59375,0 0.953125,0.140625 1.421875,0.515625 l 0.578125,-0.515625 c -0.515625,-0.5 -1.125,-0.78125 -2.015625,-0.78125 z m 0,0"
   id="id-4a57ddea-4e45-4294-8185-5fdf1939d3ca"
   style="fill:#505050;fill-opacity:1;stroke-width:0" />
      </g>
      <g
   id="id-f0b226e6-e76f-43e7-9fa6-4a0b3d8da735"
   style="fill:#505050;fill-opacity:1;stroke-width:0">
        <path
   d="m 2.25,-7.71875 c -0.96875,1.375 -1.84375,2.5625 -1.84375,4.921875 0,2.375 0.875,3.546875 1.84375,4.9375 L 2.828125,1.75 C 1.9375,0.421875 1.359375,-0.65625 1.359375,-2.796875 1.359375,-4.9375 1.9375,-6 2.828125,-7.328125 Z m 0,0"
   id="id-56409bb4-b2f9-46d1-a90e-7ed15fbe1aac"
   style="fill:#505050;fill-opacity:1;stroke-width:0" />
      </g>
      <g
   id="id-fe7676dc-fff9-48eb-a7e5-f206f8183888"
   style="fill:#505050;fill-opacity:1;stroke-width:0">
        <path
   d="m 2.0625,0.125 c 0.78125,0 1.28125,-0.375 1.578125,-1.21875 0.015625,0.796875 0.46875,1.21875 1.21875,1.21875 1.625,0 2.203125,-1.765625 2.203125,-3.390625 C 7.0625,-4.0625 6.921875,-4.71875 6.78125,-5.25 H 5.890625 c 0.1875,0.734375 0.265625,1.3125 0.265625,1.90625 0,1.09375 -0.25,2.71875 -1.375,2.71875 -0.609375,0 -0.71875,-0.46875 -0.625,-1.15625 l 0.265625,-1.875 -0.890625,0.125 -0.234375,1.703125 C 3.15625,-0.84375 2.734375,-0.625 2.21875,-0.625 c -0.484375,0 -0.75,-0.296875 -0.75,-1.0625 0,-0.96875 0.265625,-2.015625 1.046875,-3.5625 H 1.59375 c -0.609375,1.109375 -1.03125,2.375 -1.03125,3.5 0,1.328125 0.65625,1.875 1.5,1.875 z m 0,0"
   id="id-9c03adbe-b550-4a7b-a09a-2906c86adf7b"
   style="fill:#505050;fill-opacity:1;stroke-width:0" />
      </g>
      <g
   id="id-45a2f4f6-0e71-48c3-8893-bdeac0407d50"
   style="fill:#505050;fill-opacity:1;stroke-width:0">
        <path
   d="M 2.90625,-4.671875 H 2.078125 v 1.5 H 0.625 v 0.765625 h 1.453125 v 1.484375 H 2.90625 V -2.40625 H 4.359375 V -3.171875 H 2.90625 Z m 0,0"
   id="id-f8e87118-b79a-4a11-96ea-01c7a00ad02a"
   style="fill:#505050;fill-opacity:1;stroke-width:0" />
      </g>
      <g
   id="id-b1414f7e-d125-4af8-a25c-1d706efcca69"
   style="fill:#505050;fill-opacity:1;stroke-width:0">
        <path
   d="m 2.3125,0.125 c 0.734375,0 1.390625,-0.25 1.9375,-0.640625 L 3.859375,-1.109375 C 3.328125,-0.78125 2.921875,-0.625 2.390625,-0.625 c -0.703125,0 -1.03125,-0.28125 -1.03125,-0.75 0,-0.515625 0.28125,-1 1.328125,-1 h 0.515625 l 0.21875,-0.71875 h -0.625 c -0.578125,0 -0.90625,-0.25 -0.90625,-0.75 0,-0.4375 0.328125,-0.8125 1.0625,-0.8125 0.53125,0 0.84375,0.140625 1.15625,0.359375 L 4.59375,-4.828125 C 4.203125,-5.140625 3.671875,-5.375 2.953125,-5.375 c -1.40625,0 -1.96875,0.8125 -1.96875,1.515625 0,0.5625 0.359375,0.890625 0.921875,1.046875 -1.125,0.15625 -1.5,0.78125 -1.5,1.453125 C 0.40625,-0.5 1.140625,0.125 2.3125,0.125 Z m 0,0"
   id="id-bac84e64-6f9c-4121-ad5d-3048eaebac42"
   style="fill:#505050;fill-opacity:1;stroke-width:0" />
      </g>
      <g
   id="id-0d6bd5da-46df-489c-b36c-45bac65c454d"
   style="fill:#505050;fill-opacity:1;stroke-width:0">
        <path
   d="M 0.984375,-7.71875 0.40625,-7.328125 C 1.296875,-6 1.875,-4.9375 1.875,-2.796875 1.875,-0.65625 1.296875,0.421875 0.40625,1.75 l 0.578125,0.390625 c 0.96875,-1.390625 1.84375,-2.5625 1.84375,-4.9375 0,-2.359375 -0.875,-3.546875 -1.84375,-4.921875 z m 0,0"
   id="id-0d560150-aab1-4373-9e0d-f4dc4fc2e36a"
   style="fill:#505050;fill-opacity:1;stroke-width:0" />
      </g>
      <g
   id="id-23a1bed7-eb86-4140-859b-6e37799b2e35"
   style="fill:#505050;fill-opacity:1;stroke-width:0">
        <path
   d="M 1.8125,-5.375 1.15625,-5.296875 0.40625,0 H 1.0625 L 1.375,-2.265625 C 1.703125,-3 2.203125,-3.34375 2.609375,-3.34375 c 0.25,0 0.40625,0.140625 0.40625,0.40625 0,0.53125 -0.375,0.84375 -1.265625,1.09375 L 2.65625,0 H 3.390625 L 2.53125,-1.671875 C 3.328125,-1.921875 3.703125,-2.40625 3.703125,-3 c 0,-0.5 -0.375,-0.859375 -0.90625,-0.859375 C 2.3125,-3.859375 1.859375,-3.625 1.5,-3.125 Z m 0,0"
   id="id-519ff2d4-4a9e-4b0b-9b7a-3cb041f5f787"
   style="fill:#505050;fill-opacity:1;stroke-width:0" />
      </g>
      <g
   id="id-fba13ce5-31d1-4f8d-950c-626bc01ddd1c"
   style="fill:#505050;fill-opacity:1;stroke-width:0">
        <path
   d="M 1.59375,0 H 2.125 V -3.984375 H 1.65625 L 0.46875,-3.25 0.6875,-2.875 1.59375,-3.421875 Z m 0,0"
   id="id-9e8bf4bb-9ccf-4eeb-a3ec-2da85cbcb38c"
   style="fill:#505050;fill-opacity:1;stroke-width:0" />
      </g>
    </g>
  </defs>
  <g
   fill-opacity="1"
   id="id-5e29e118-d1dc-41ae-bbc5-1288b5515ff0"
   transform="translate(-149.306,-127.046)"
   style="fill:#505050;fill-opacity:1;stroke-width:0">
    <g
   transform="translate(148.712,134.765)"
   id="g6798"
   style="fill:#505050;fill-opacity:1;stroke-width:0"><path
   d="m 4.03125,-6.984375 c -2.40625,0 -3.4375,2.421875 -3.4375,4.40625 0,1.796875 0.9375,2.703125 2.421875,2.703125 0.9375,0 1.65625,-0.234375 2.3125,-0.65625 L 5.78125,-3.8125 H 3.546875 v 0.765625 H 4.75 L 4.453125,-1 c -0.421875,0.25 -0.875,0.34375 -1.3125,0.34375 -1.015625,0 -1.5625,-0.53125 -1.5625,-1.8125 0,-1.640625 0.6875,-3.734375 2.46875,-3.734375 0.59375,0 0.953125,0.140625 1.421875,0.515625 l 0.578125,-0.515625 c -0.515625,-0.5 -1.125,-0.78125 -2.015625,-0.78125 z m 0,0"
   id="id-2a576c86-f876-4931-9115-f8034aa9624e"
   style="fill:#505050;fill-opacity:1;stroke-width:0" />
      </g></g>
  <g
   fill-opacity="1"
   id="id-bd94275f-8a58-4ecd-8bdf-d5dff3933b4c"
   transform="translate(-149.306,-127.046)"
   style="fill:#505050;fill-opacity:1;stroke-width:0">
    <g
   transform="translate(155.138,134.765)"
   id="g4055"
   style="fill:#505050;fill-opacity:1;stroke-width:0"><path
   d="m 2.25,-7.71875 c -0.96875,1.375 -1.84375,2.5625 -1.84375,4.921875 0,2.375 0.875,3.546875 1.84375,4.9375 L 2.828125,1.75 C 1.9375,0.421875 1.359375,-0.65625 1.359375,-2.796875 1.359375,-4.9375 1.9375,-6 2.828125,-7.328125 Z m 0,0"
   id="id-75d120b1-787c-45aa-a339-5332a33959ba"
   style="fill:#505050;fill-opacity:1;stroke-width:0" />
      </g><g
   transform="translate(158.366,134.765)"
   id="g9174"
   style="fill:#505050;fill-opacity:1;stroke-width:0"><path
   d="m 2.0625,0.125 c 0.78125,0 1.28125,-0.375 1.578125,-1.21875 0.015625,0.796875 0.46875,1.21875 1.21875,1.21875 1.625,0 2.203125,-1.765625 2.203125,-3.390625 C 7.0625,-4.0625 6.921875,-4.71875 6.78125,-5.25 H 5.890625 c 0.1875,0.734375 0.265625,1.3125 0.265625,1.90625 0,1.09375 -0.25,2.71875 -1.375,2.71875 -0.609375,0 -0.71875,-0.46875 -0.625,-1.15625 l 0.265625,-1.875 -0.890625,0.125 -0.234375,1.703125 C 3.15625,-0.84375 2.734375,-0.625 2.21875,-0.625 c -0.484375,0 -0.75,-0.296875 -0.75,-1.0625 0,-0.96875 0.265625,-2.015625 1.046875,-3.5625 H 1.59375 c -0.609375,1.109375 -1.03125,2.375 -1.03125,3.5 0,1.328125 0.65625,1.875 1.5,1.875 z m 0,0"
   id="id-0343b376-a621-4566-b5a6-769d054579f6"
   style="fill:#505050;fill-opacity:1;stroke-width:0" />
      </g></g>
  <g
   fill-opacity="1"
   id="id-f2aa1278-a8fa-4012-86cf-4f8faf4ab32c"
   transform="translate(-149.306,-127.046)"
   style="fill:#505050;fill-opacity:1;stroke-width:0">
    <g
   transform="translate(168.398,134.765)"
   id="g1884"
   style="fill:#505050;fill-opacity:1;stroke-width:0"><path
   d="M 2.90625,-4.671875 H 2.078125 v 1.5 H 0.625 v 0.765625 h 1.453125 v 1.484375 H 2.90625 V -2.40625 H 4.359375 V -3.171875 H 2.90625 Z m 0,0"
   id="id-5b468046-84b8-4bac-b1f9-fdf70e0b5c65"
   style="fill:#505050;fill-opacity:1;stroke-width:0" />
      </g></g>
  <g
   fill-opacity="1"
   id="id-38bfbda9-8133-487c-9f0e-0958bf6430c9"
   transform="translate(-149.306,-127.046)"
   style="fill:#505050;fill-opacity:1;stroke-width:0">
    <g
   transform="translate(175.591,134.765)"
   id="g4136"
   style="fill:#505050;fill-opacity:1;stroke-width:0"><path
   d="m 2.3125,0.125 c 0.734375,0 1.390625,-0.25 1.9375,-0.640625 L 3.859375,-1.109375 C 3.328125,-0.78125 2.921875,-0.625 2.390625,-0.625 c -0.703125,0 -1.03125,-0.28125 -1.03125,-0.75 0,-0.515625 0.28125,-1 1.328125,-1 h 0.515625 l 0.21875,-0.71875 h -0.625 c -0.578125,0 -0.90625,-0.25 -0.90625,-0.75 0,-0.4375 0.328125,-0.8125 1.0625,-0.8125 0.53125,0 0.84375,0.140625 1.15625,0.359375 L 4.59375,-4.828125 C 4.203125,-5.140625 3.671875,-5.375 2.953125,-5.375 c -1.40625,0 -1.96875,0.8125 -1.96875,1.515625 0,0.5625 0.359375,0.890625 0.921875,1.046875 -1.125,0.15625 -1.5,0.78125 -1.5,1.453125 C 0.40625,-0.5 1.140625,0.125 2.3125,0.125 Z m 0,0"
   id="id-0e408170-9907-4c77-ac84-a35ef0884569"
   style="fill:#505050;fill-opacity:1;stroke-width:0" />
      </g></g>
  <g
   fill-opacity="1"
   id="id-14e48f34-2a2d-4791-b4fd-853338d4e9eb"
   transform="translate(-149.306,-127.046)"
   style="fill:#505050;fill-opacity:1;stroke-width:0">
    <g
   transform="translate(180.408,138.252)"
   id="g8297"
   style="fill:#505050;fill-opacity:1;stroke-width:0"><path
   d="M 1.8125,-5.375 1.15625,-5.296875 0.40625,0 H 1.0625 L 1.375,-2.265625 C 1.703125,-3 2.203125,-3.34375 2.609375,-3.34375 c 0.25,0 0.40625,0.140625 0.40625,0.40625 0,0.53125 -0.375,0.84375 -1.265625,1.09375 L 2.65625,0 H 3.390625 L 2.53125,-1.671875 C 3.328125,-1.921875 3.703125,-2.40625 3.703125,-3 c 0,-0.5 -0.375,-0.859375 -0.90625,-0.859375 C 2.3125,-3.859375 1.859375,-3.625 1.5,-3.125 Z m 0,0"
   id="id-f3172584-0ea1-4809-8981-aad648a45178"
   style="fill:#505050;fill-opacity:1;stroke-width:0" />
      </g></g>
  <g
   fill-opacity="1"
   id="id-478532a5-d36e-4599-8f5d-69714fa9fba3"
   transform="translate(-149.306,-127.046)"
   style="fill:#505050;fill-opacity:1;stroke-width:0">
    <g
   transform="translate(184.318,140.763)"
   id="g3744"
   style="fill:#505050;fill-opacity:1;stroke-width:0"><path
   d="M 1.59375,0 H 2.125 V -3.984375 H 1.65625 L 0.46875,-3.25 0.6875,-2.875 1.59375,-3.421875 Z m 0,0"
   id="id-d8ef47a8-4111-4b51-9b0c-6c1aabe0aadc"
   style="fill:#505050;fill-opacity:1;stroke-width:0" />
      </g></g>
  <g
   fill-opacity="1"
   id="id-4671cccf-8b1b-4b33-845e-3100c5f1ffdd"
   transform="translate(-149.306,-127.046)"
   style="fill:#505050;fill-opacity:1;stroke-width:0">
    <g
   transform="translate(188.55,134.765)"
   id="g8017"
   style="fill:#505050;fill-opacity:1;stroke-width:0"><path
   d="M 0.984375,-7.71875 0.40625,-7.328125 C 1.296875,-6 1.875,-4.9375 1.875,-2.796875 1.875,-0.65625 1.296875,0.421875 0.40625,1.75 l 0.578125,0.390625 c 0.96875,-1.390625 1.84375,-2.5625 1.84375,-4.9375 0,-2.359375 -0.875,-3.546875 -1.84375,-4.921875 z m 0,0"
   id="id-503cd4a9-0107-4a7c-8c5e-edc9c70dd96a"
   style="fill:#505050;fill-opacity:1;stroke-width:0" />
      </g></g>
</g><g
       transform="matrix(0.93401,0,0,0.93401,156.029,89.2552)"
       ns4:version="1.10.2"
       ns4:texconverter="xelatex"
       ns4:pdfconverter="inkscape"
       ns4:text="$G(\\omega+\\varepsilon_{k_2})$"
       ns4:preamble="/home/kirito/.config/textext/beamer_preamble.tex"
       ns4:scale="2.6475878272226323"
       ns4:alignment="middle center"
       ns4:stroke-to-path="0"
       ns4:inkscapeversion="1.3.2"
       id="g78"
       ns4:jacobian_sqrt="0.93401"
       style="fill:#505050;fill-opacity:1;stroke-width:0"><defs
   id="id-07526144-c6ac-49d1-8787-a6097bd176d9"
   style="fill:#505050;fill-opacity:1;stroke-width:0">
    <g
   id="id-de83c709-d247-4718-9116-00670b6c94d8"
   style="fill:#505050;fill-opacity:1;stroke-width:0">
      <g
   id="id-3ad7ff32-b0e1-4a5d-bc98-c8294acf8acb"
   style="fill:#505050;fill-opacity:1;stroke-width:0">
        <path
   d="m 4.03125,-6.984375 c -2.40625,0 -3.4375,2.421875 -3.4375,4.40625 0,1.796875 0.9375,2.703125 2.421875,2.703125 0.9375,0 1.65625,-0.234375 2.3125,-0.65625 L 5.78125,-3.8125 H 3.546875 v 0.765625 H 4.75 L 4.453125,-1 c -0.421875,0.25 -0.875,0.34375 -1.3125,0.34375 -1.015625,0 -1.5625,-0.53125 -1.5625,-1.8125 0,-1.640625 0.6875,-3.734375 2.46875,-3.734375 0.59375,0 0.953125,0.140625 1.421875,0.515625 l 0.578125,-0.515625 c -0.515625,-0.5 -1.125,-0.78125 -2.015625,-0.78125 z m 0,0"
   id="id-b343ff77-3f2e-413a-8826-b2007e1b7496"
   style="fill:#505050;fill-opacity:1;stroke-width:0" />
      </g>
      <g
   id="id-8be52131-72d6-419b-9fd1-b218a03a5131"
   style="fill:#505050;fill-opacity:1;stroke-width:0">
        <path
   d="m 2.25,-7.71875 c -0.96875,1.375 -1.84375,2.5625 -1.84375,4.921875 0,2.375 0.875,3.546875 1.84375,4.9375 L 2.828125,1.75 C 1.9375,0.421875 1.359375,-0.65625 1.359375,-2.796875 1.359375,-4.9375 1.9375,-6 2.828125,-7.328125 Z m 0,0"
   id="id-501f42d4-220f-4fb4-9caa-b3c7e123fdde"
   style="fill:#505050;fill-opacity:1;stroke-width:0" />
      </g>
      <g
   id="id-f9e39c45-693f-47cd-a0d9-c2de94cfdda3"
   style="fill:#505050;fill-opacity:1;stroke-width:0">
        <path
   d="m 2.0625,0.125 c 0.78125,0 1.28125,-0.375 1.578125,-1.21875 0.015625,0.796875 0.46875,1.21875 1.21875,1.21875 1.625,0 2.203125,-1.765625 2.203125,-3.390625 C 7.0625,-4.0625 6.921875,-4.71875 6.78125,-5.25 H 5.890625 c 0.1875,0.734375 0.265625,1.3125 0.265625,1.90625 0,1.09375 -0.25,2.71875 -1.375,2.71875 -0.609375,0 -0.71875,-0.46875 -0.625,-1.15625 l 0.265625,-1.875 -0.890625,0.125 -0.234375,1.703125 C 3.15625,-0.84375 2.734375,-0.625 2.21875,-0.625 c -0.484375,0 -0.75,-0.296875 -0.75,-1.0625 0,-0.96875 0.265625,-2.015625 1.046875,-3.5625 H 1.59375 c -0.609375,1.109375 -1.03125,2.375 -1.03125,3.5 0,1.328125 0.65625,1.875 1.5,1.875 z m 0,0"
   id="id-abc84eb2-f4e3-4648-be2d-0309d7de5c10"
   style="fill:#505050;fill-opacity:1;stroke-width:0" />
      </g>
      <g
   id="id-34d01c68-b8a9-4d2e-87fc-929fed614ab8"
   style="fill:#505050;fill-opacity:1;stroke-width:0">
        <path
   d="M 2.90625,-4.671875 H 2.078125 v 1.5 H 0.625 v 0.765625 h 1.453125 v 1.484375 H 2.90625 V -2.40625 H 4.359375 V -3.171875 H 2.90625 Z m 0,0"
   id="id-68f7bf34-d763-40e4-96a5-37c453551e58"
   style="fill:#505050;fill-opacity:1;stroke-width:0" />
      </g>
      <g
   id="id-d7a2bf6b-ce68-4f4f-b842-c708ba9c8811"
   style="fill:#505050;fill-opacity:1;stroke-width:0">
        <path
   d="m 2.3125,0.125 c 0.734375,0 1.390625,-0.25 1.9375,-0.640625 L 3.859375,-1.109375 C 3.328125,-0.78125 2.921875,-0.625 2.390625,-0.625 c -0.703125,0 -1.03125,-0.28125 -1.03125,-0.75 0,-0.515625 0.28125,-1 1.328125,-1 h 0.515625 l 0.21875,-0.71875 h -0.625 c -0.578125,0 -0.90625,-0.25 -0.90625,-0.75 0,-0.4375 0.328125,-0.8125 1.0625,-0.8125 0.53125,0 0.84375,0.140625 1.15625,0.359375 L 4.59375,-4.828125 C 4.203125,-5.140625 3.671875,-5.375 2.953125,-5.375 c -1.40625,0 -1.96875,0.8125 -1.96875,1.515625 0,0.5625 0.359375,0.890625 0.921875,1.046875 -1.125,0.15625 -1.5,0.78125 -1.5,1.453125 C 0.40625,-0.5 1.140625,0.125 2.3125,0.125 Z m 0,0"
   id="id-a0c487c5-eb22-41df-9b6e-25f1b1a63492"
   style="fill:#505050;fill-opacity:1;stroke-width:0" />
      </g>
      <g
   id="id-ef2b50cb-655a-438f-883f-8d6bd0adae30"
   style="fill:#505050;fill-opacity:1;stroke-width:0">
        <path
   d="M 0.984375,-7.71875 0.40625,-7.328125 C 1.296875,-6 1.875,-4.9375 1.875,-2.796875 1.875,-0.65625 1.296875,0.421875 0.40625,1.75 l 0.578125,0.390625 c 0.96875,-1.390625 1.84375,-2.5625 1.84375,-4.9375 0,-2.359375 -0.875,-3.546875 -1.84375,-4.921875 z m 0,0"
   id="id-ee8bf5bb-b1e0-40c6-a7bb-4d37ec89c8f9"
   style="fill:#505050;fill-opacity:1;stroke-width:0" />
      </g>
      <g
   id="id-542cfdb3-0ae9-46ee-b18a-7f820b82844f"
   style="fill:#505050;fill-opacity:1;stroke-width:0">
        <path
   d="M 1.8125,-5.375 1.15625,-5.296875 0.40625,0 H 1.0625 L 1.375,-2.265625 C 1.703125,-3 2.203125,-3.34375 2.609375,-3.34375 c 0.25,0 0.40625,0.140625 0.40625,0.40625 0,0.53125 -0.375,0.84375 -1.265625,1.09375 L 2.65625,0 H 3.390625 L 2.53125,-1.671875 C 3.328125,-1.921875 3.703125,-2.40625 3.703125,-3 c 0,-0.5 -0.375,-0.859375 -0.90625,-0.859375 C 2.3125,-3.859375 1.859375,-3.625 1.5,-3.125 Z m 0,0"
   id="id-74971d38-c363-4831-8f58-53b96c81a145"
   style="fill:#505050;fill-opacity:1;stroke-width:0" />
      </g>
      <g
   id="id-a4e884a0-95ea-41e3-ad49-6a46444bceda"
   style="fill:#505050;fill-opacity:1;stroke-width:0">
        <path
   d="m 1.484375,-4.046875 c -0.546875,0 -0.90625,0.1875 -1.21875,0.578125 L 0.625,-3.1875 c 0.234375,-0.296875 0.453125,-0.421875 0.84375,-0.421875 0.421875,0 0.6875,0.265625 0.6875,0.703125 0,0.625 -0.328125,1.0625 -1.8125,2.484375 V 0 h 2.390625 l 0.0625,-0.4375 H 0.953125 C 2.25,-1.625 2.71875,-2.21875 2.71875,-2.9375 c 0,-0.625 -0.453125,-1.109375 -1.234375,-1.109375 z m 0,0"
   id="id-82484174-5cea-4981-b088-505271274601"
   style="fill:#505050;fill-opacity:1;stroke-width:0" />
      </g>
    </g>
  </defs>
  <g
   fill-opacity="1"
   id="id-b3d6fbdd-9279-4413-a523-8c32ccf87b23"
   transform="translate(-149.306,-127.046)"
   style="fill:#505050;fill-opacity:1;stroke-width:0">
    <g
   transform="translate(148.712,134.765)"
   id="g1436"
   style="fill:#505050;fill-opacity:1;stroke-width:0"><path
   d="m 4.03125,-6.984375 c -2.40625,0 -3.4375,2.421875 -3.4375,4.40625 0,1.796875 0.9375,2.703125 2.421875,2.703125 0.9375,0 1.65625,-0.234375 2.3125,-0.65625 L 5.78125,-3.8125 H 3.546875 v 0.765625 H 4.75 L 4.453125,-1 c -0.421875,0.25 -0.875,0.34375 -1.3125,0.34375 -1.015625,0 -1.5625,-0.53125 -1.5625,-1.8125 0,-1.640625 0.6875,-3.734375 2.46875,-3.734375 0.59375,0 0.953125,0.140625 1.421875,0.515625 l 0.578125,-0.515625 c -0.515625,-0.5 -1.125,-0.78125 -2.015625,-0.78125 z m 0,0"
   id="id-8d3a27aa-601f-415b-bdb1-6ac34f0c5cb0"
   style="fill:#505050;fill-opacity:1;stroke-width:0" />
      </g></g>
  <g
   fill-opacity="1"
   id="id-10ab354b-4f43-4aa4-bcbe-6faca638fa13"
   transform="translate(-149.306,-127.046)"
   style="fill:#505050;fill-opacity:1;stroke-width:0">
    <g
   transform="translate(155.138,134.765)"
   id="g3373"
   style="fill:#505050;fill-opacity:1;stroke-width:0"><path
   d="m 2.25,-7.71875 c -0.96875,1.375 -1.84375,2.5625 -1.84375,4.921875 0,2.375 0.875,3.546875 1.84375,4.9375 L 2.828125,1.75 C 1.9375,0.421875 1.359375,-0.65625 1.359375,-2.796875 1.359375,-4.9375 1.9375,-6 2.828125,-7.328125 Z m 0,0"
   id="id-a7398092-f493-415e-ab8d-c1b5e13af3d3"
   style="fill:#505050;fill-opacity:1;stroke-width:0" />
      </g><g
   transform="translate(158.366,134.765)"
   id="g139"
   style="fill:#505050;fill-opacity:1;stroke-width:0"><path
   d="m 2.0625,0.125 c 0.78125,0 1.28125,-0.375 1.578125,-1.21875 0.015625,0.796875 0.46875,1.21875 1.21875,1.21875 1.625,0 2.203125,-1.765625 2.203125,-3.390625 C 7.0625,-4.0625 6.921875,-4.71875 6.78125,-5.25 H 5.890625 c 0.1875,0.734375 0.265625,1.3125 0.265625,1.90625 0,1.09375 -0.25,2.71875 -1.375,2.71875 -0.609375,0 -0.71875,-0.46875 -0.625,-1.15625 l 0.265625,-1.875 -0.890625,0.125 -0.234375,1.703125 C 3.15625,-0.84375 2.734375,-0.625 2.21875,-0.625 c -0.484375,0 -0.75,-0.296875 -0.75,-1.0625 0,-0.96875 0.265625,-2.015625 1.046875,-3.5625 H 1.59375 c -0.609375,1.109375 -1.03125,2.375 -1.03125,3.5 0,1.328125 0.65625,1.875 1.5,1.875 z m 0,0"
   id="id-24df208c-5a90-48af-9b15-b60cd7874b35"
   style="fill:#505050;fill-opacity:1;stroke-width:0" />
      </g></g>
  <g
   fill-opacity="1"
   id="id-1cb63bd2-954e-4ac7-83d6-6fcbfba788fe"
   transform="translate(-149.306,-127.046)"
   style="fill:#505050;fill-opacity:1;stroke-width:0">
    <g
   transform="translate(168.398,134.765)"
   id="g7474"
   style="fill:#505050;fill-opacity:1;stroke-width:0"><path
   d="M 2.90625,-4.671875 H 2.078125 v 1.5 H 0.625 v 0.765625 h 1.453125 v 1.484375 H 2.90625 V -2.40625 H 4.359375 V -3.171875 H 2.90625 Z m 0,0"
   id="id-96b61f4a-397a-4087-9469-a73b70cb747b"
   style="fill:#505050;fill-opacity:1;stroke-width:0" />
      </g></g>
  <g
   fill-opacity="1"
   id="id-6f203856-1783-40a5-98b3-0c574cf04101"
   transform="translate(-149.306,-127.046)"
   style="fill:#505050;fill-opacity:1;stroke-width:0">
    <g
   transform="translate(175.591,134.765)"
   id="g3259"
   style="fill:#505050;fill-opacity:1;stroke-width:0"><path
   d="m 2.3125,0.125 c 0.734375,0 1.390625,-0.25 1.9375,-0.640625 L 3.859375,-1.109375 C 3.328125,-0.78125 2.921875,-0.625 2.390625,-0.625 c -0.703125,0 -1.03125,-0.28125 -1.03125,-0.75 0,-0.515625 0.28125,-1 1.328125,-1 h 0.515625 l 0.21875,-0.71875 h -0.625 c -0.578125,0 -0.90625,-0.25 -0.90625,-0.75 0,-0.4375 0.328125,-0.8125 1.0625,-0.8125 0.53125,0 0.84375,0.140625 1.15625,0.359375 L 4.59375,-4.828125 C 4.203125,-5.140625 3.671875,-5.375 2.953125,-5.375 c -1.40625,0 -1.96875,0.8125 -1.96875,1.515625 0,0.5625 0.359375,0.890625 0.921875,1.046875 -1.125,0.15625 -1.5,0.78125 -1.5,1.453125 C 0.40625,-0.5 1.140625,0.125 2.3125,0.125 Z m 0,0"
   id="id-c0767a1b-0f0b-47fc-83ac-bedce0814782"
   style="fill:#505050;fill-opacity:1;stroke-width:0" />
      </g></g>
  <g
   fill-opacity="1"
   id="id-2e71d36e-ab39-4fd6-acaf-a4721be93852"
   transform="translate(-149.306,-127.046)"
   style="fill:#505050;fill-opacity:1;stroke-width:0">
    <g
   transform="translate(180.408,138.252)"
   id="g4289"
   style="fill:#505050;fill-opacity:1;stroke-width:0"><path
   d="M 1.8125,-5.375 1.15625,-5.296875 0.40625,0 H 1.0625 L 1.375,-2.265625 C 1.703125,-3 2.203125,-3.34375 2.609375,-3.34375 c 0.25,0 0.40625,0.140625 0.40625,0.40625 0,0.53125 -0.375,0.84375 -1.265625,1.09375 L 2.65625,0 H 3.390625 L 2.53125,-1.671875 C 3.328125,-1.921875 3.703125,-2.40625 3.703125,-3 c 0,-0.5 -0.375,-0.859375 -0.90625,-0.859375 C 2.3125,-3.859375 1.859375,-3.625 1.5,-3.125 Z m 0,0"
   id="id-5a9cef06-ad80-4ae4-9c28-90ae6c01986c"
   style="fill:#505050;fill-opacity:1;stroke-width:0" />
      </g></g>
  <g
   fill-opacity="1"
   id="id-ca3045e5-4b90-4680-95a4-d0ee7ef52398"
   transform="translate(-149.306,-127.046)"
   style="fill:#505050;fill-opacity:1;stroke-width:0">
    <g
   transform="translate(184.318,140.763)"
   id="g7295"
   style="fill:#505050;fill-opacity:1;stroke-width:0"><path
   d="m 1.484375,-4.046875 c -0.546875,0 -0.90625,0.1875 -1.21875,0.578125 L 0.625,-3.1875 c 0.234375,-0.296875 0.453125,-0.421875 0.84375,-0.421875 0.421875,0 0.6875,0.265625 0.6875,0.703125 0,0.625 -0.328125,1.0625 -1.8125,2.484375 V 0 h 2.390625 l 0.0625,-0.4375 H 0.953125 C 2.25,-1.625 2.71875,-2.21875 2.71875,-2.9375 c 0,-0.625 -0.453125,-1.109375 -1.234375,-1.109375 z m 0,0"
   id="id-365c4291-b2dd-453a-a2cc-751d95f53fb8"
   style="fill:#505050;fill-opacity:1;stroke-width:0" />
      </g></g>
  <g
   fill-opacity="1"
   id="id-4c0f7f5b-e10a-4a46-8e6f-b99fc887064f"
   transform="translate(-149.306,-127.046)"
   style="fill:#505050;fill-opacity:1;stroke-width:0">
    <g
   transform="translate(188.55,134.765)"
   id="g9998"
   style="fill:#505050;fill-opacity:1;stroke-width:0"><path
   d="M 0.984375,-7.71875 0.40625,-7.328125 C 1.296875,-6 1.875,-4.9375 1.875,-2.796875 1.875,-0.65625 1.296875,0.421875 0.40625,1.75 l 0.578125,0.390625 c 0.96875,-1.390625 1.84375,-2.5625 1.84375,-4.9375 0,-2.359375 -0.875,-3.546875 -1.84375,-4.921875 z m 0,0"
   id="id-8c0101d2-d957-4ba5-ad81-43a373835652"
   style="fill:#505050;fill-opacity:1;stroke-width:0" />
      </g></g>
</g><g
       transform="matrix(0.93401,0,0,0.93401,156.029,105.101)"
       ns4:version="1.10.2"
       ns4:texconverter="xelatex"
       ns4:pdfconverter="inkscape"
       ns4:text="$G(\\omega+\\varepsilon_{k_3})$"
       ns4:preamble="/home/kirito/.config/textext/beamer_preamble.tex"
       ns4:scale="2.6475878272226323"
       ns4:alignment="middle center"
       ns4:stroke-to-path="0"
       ns4:inkscapeversion="1.3.2"
       id="g109"
       ns4:jacobian_sqrt="0.93401"
       style="fill:#505050;fill-opacity:1;stroke-width:0"><defs
   id="id-6a0ada6e-1914-48e1-9c16-e36b144dfc31"
   style="fill:#505050;fill-opacity:1;stroke-width:0">
    <g
   id="id-040d5094-ed3d-44c1-a08f-94acf5aad740"
   style="fill:#505050;fill-opacity:1;stroke-width:0">
      <g
   id="id-4c575ce9-1fc9-4b12-ac60-4d5cf6d909d0"
   style="fill:#505050;fill-opacity:1;stroke-width:0">
        <path
   d="m 4.03125,-6.984375 c -2.40625,0 -3.4375,2.421875 -3.4375,4.40625 0,1.796875 0.9375,2.703125 2.421875,2.703125 0.9375,0 1.65625,-0.234375 2.3125,-0.65625 L 5.78125,-3.8125 H 3.546875 v 0.765625 H 4.75 L 4.453125,-1 c -0.421875,0.25 -0.875,0.34375 -1.3125,0.34375 -1.015625,0 -1.5625,-0.53125 -1.5625,-1.8125 0,-1.640625 0.6875,-3.734375 2.46875,-3.734375 0.59375,0 0.953125,0.140625 1.421875,0.515625 l 0.578125,-0.515625 c -0.515625,-0.5 -1.125,-0.78125 -2.015625,-0.78125 z m 0,0"
   id="id-3dc8155f-a2ba-4b95-83c3-e7f9ad52c9d4"
   style="fill:#505050;fill-opacity:1;stroke-width:0" />
      </g>
      <g
   id="id-9940a8f5-82fa-4a9b-aba0-e54cda5eaebb"
   style="fill:#505050;fill-opacity:1;stroke-width:0">
        <path
   d="m 2.25,-7.71875 c -0.96875,1.375 -1.84375,2.5625 -1.84375,4.921875 0,2.375 0.875,3.546875 1.84375,4.9375 L 2.828125,1.75 C 1.9375,0.421875 1.359375,-0.65625 1.359375,-2.796875 1.359375,-4.9375 1.9375,-6 2.828125,-7.328125 Z m 0,0"
   id="id-5b516fd6-168c-4219-b441-14757a087245"
   style="fill:#505050;fill-opacity:1;stroke-width:0" />
      </g>
      <g
   id="id-8c443548-8749-42da-b802-f8d7a972775c"
   style="fill:#505050;fill-opacity:1;stroke-width:0">
        <path
   d="m 2.0625,0.125 c 0.78125,0 1.28125,-0.375 1.578125,-1.21875 0.015625,0.796875 0.46875,1.21875 1.21875,1.21875 1.625,0 2.203125,-1.765625 2.203125,-3.390625 C 7.0625,-4.0625 6.921875,-4.71875 6.78125,-5.25 H 5.890625 c 0.1875,0.734375 0.265625,1.3125 0.265625,1.90625 0,1.09375 -0.25,2.71875 -1.375,2.71875 -0.609375,0 -0.71875,-0.46875 -0.625,-1.15625 l 0.265625,-1.875 -0.890625,0.125 -0.234375,1.703125 C 3.15625,-0.84375 2.734375,-0.625 2.21875,-0.625 c -0.484375,0 -0.75,-0.296875 -0.75,-1.0625 0,-0.96875 0.265625,-2.015625 1.046875,-3.5625 H 1.59375 c -0.609375,1.109375 -1.03125,2.375 -1.03125,3.5 0,1.328125 0.65625,1.875 1.5,1.875 z m 0,0"
   id="id-14fe5c7e-9caf-47f6-8360-c0f6c0746b47"
   style="fill:#505050;fill-opacity:1;stroke-width:0" />
      </g>
      <g
   id="id-db4e3b3f-26b3-41bf-b20e-d01b2bacf49e"
   style="fill:#505050;fill-opacity:1;stroke-width:0">
        <path
   d="M 2.90625,-4.671875 H 2.078125 v 1.5 H 0.625 v 0.765625 h 1.453125 v 1.484375 H 2.90625 V -2.40625 H 4.359375 V -3.171875 H 2.90625 Z m 0,0"
   id="id-9890ef11-34f8-478f-af84-9d2708c762f3"
   style="fill:#505050;fill-opacity:1;stroke-width:0" />
      </g>
      <g
   id="id-6d9bb83c-3c01-418d-9aef-22fd90bd14dc"
   style="fill:#505050;fill-opacity:1;stroke-width:0">
        <path
   d="m 2.3125,0.125 c 0.734375,0 1.390625,-0.25 1.9375,-0.640625 L 3.859375,-1.109375 C 3.328125,-0.78125 2.921875,-0.625 2.390625,-0.625 c -0.703125,0 -1.03125,-0.28125 -1.03125,-0.75 0,-0.515625 0.28125,-1 1.328125,-1 h 0.515625 l 0.21875,-0.71875 h -0.625 c -0.578125,0 -0.90625,-0.25 -0.90625,-0.75 0,-0.4375 0.328125,-0.8125 1.0625,-0.8125 0.53125,0 0.84375,0.140625 1.15625,0.359375 L 4.59375,-4.828125 C 4.203125,-5.140625 3.671875,-5.375 2.953125,-5.375 c -1.40625,0 -1.96875,0.8125 -1.96875,1.515625 0,0.5625 0.359375,0.890625 0.921875,1.046875 -1.125,0.15625 -1.5,0.78125 -1.5,1.453125 C 0.40625,-0.5 1.140625,0.125 2.3125,0.125 Z m 0,0"
   id="id-53e96257-6e0d-4158-8d57-7de39c37b1e0"
   style="fill:#505050;fill-opacity:1;stroke-width:0" />
      </g>
      <g
   id="id-ba38013b-8cca-4ce0-87ec-665bb8146358"
   style="fill:#505050;fill-opacity:1;stroke-width:0">
        <path
   d="M 0.984375,-7.71875 0.40625,-7.328125 C 1.296875,-6 1.875,-4.9375 1.875,-2.796875 1.875,-0.65625 1.296875,0.421875 0.40625,1.75 l 0.578125,0.390625 c 0.96875,-1.390625 1.84375,-2.5625 1.84375,-4.9375 0,-2.359375 -0.875,-3.546875 -1.84375,-4.921875 z m 0,0"
   id="id-170ac1b9-eb01-4c79-94fb-80bfd3e11ded"
   style="fill:#505050;fill-opacity:1;stroke-width:0" />
      </g>
      <g
   id="id-335fae50-c377-4903-a260-62ed08be34bb"
   style="fill:#505050;fill-opacity:1;stroke-width:0">
        <path
   d="M 1.8125,-5.375 1.15625,-5.296875 0.40625,0 H 1.0625 L 1.375,-2.265625 C 1.703125,-3 2.203125,-3.34375 2.609375,-3.34375 c 0.25,0 0.40625,0.140625 0.40625,0.40625 0,0.53125 -0.375,0.84375 -1.265625,1.09375 L 2.65625,0 H 3.390625 L 2.53125,-1.671875 C 3.328125,-1.921875 3.703125,-2.40625 3.703125,-3 c 0,-0.5 -0.375,-0.859375 -0.90625,-0.859375 C 2.3125,-3.859375 1.859375,-3.625 1.5,-3.125 Z m 0,0"
   id="id-c0edb66b-bc38-4a4b-a483-956f856fe2c7"
   style="fill:#505050;fill-opacity:1;stroke-width:0" />
      </g>
      <g
   id="id-f4a3cdff-d43b-474c-8873-12a69a08a706"
   style="fill:#505050;fill-opacity:1;stroke-width:0">
        <path
   d="m 1.453125,-4.046875 c -0.421875,0 -0.8125,0.140625 -1.15625,0.46875 l 0.28125,0.3125 c 0.265625,-0.25 0.5,-0.359375 0.84375,-0.359375 0.40625,0 0.734375,0.21875 0.734375,0.640625 0,0.46875 -0.359375,0.6875 -0.734375,0.6875 h -0.25 l -0.0625,0.40625 h 0.34375 c 0.46875,0 0.8125,0.1875 0.8125,0.734375 0,0.484375 -0.328125,0.796875 -0.859375,0.796875 -0.328125,0 -0.65625,-0.125 -0.890625,-0.390625 l -0.34375,0.28125 c 0.3125,0.375 0.78125,0.53125 1.25,0.53125 C 2.25,0.0625 2.8125,-0.453125 2.8125,-1.140625 2.8125,-1.75 2.375,-2.09375 1.890625,-2.125 2.34375,-2.21875 2.6875,-2.5625 2.6875,-3.046875 c 0,-0.546875 -0.46875,-1 -1.234375,-1 z m 0,0"
   id="id-082f462d-845f-476d-a386-489813229ff7"
   style="fill:#505050;fill-opacity:1;stroke-width:0" />
      </g>
    </g>
  </defs>
  <g
   fill-opacity="1"
   id="id-10cd1a75-740f-4754-97ed-4d8d2105d99e"
   transform="translate(-149.306,-127.046)"
   style="fill:#505050;fill-opacity:1;stroke-width:0">
    <g
   transform="translate(148.712,134.765)"
   id="g4273"
   style="fill:#505050;fill-opacity:1;stroke-width:0"><path
   d="m 4.03125,-6.984375 c -2.40625,0 -3.4375,2.421875 -3.4375,4.40625 0,1.796875 0.9375,2.703125 2.421875,2.703125 0.9375,0 1.65625,-0.234375 2.3125,-0.65625 L 5.78125,-3.8125 H 3.546875 v 0.765625 H 4.75 L 4.453125,-1 c -0.421875,0.25 -0.875,0.34375 -1.3125,0.34375 -1.015625,0 -1.5625,-0.53125 -1.5625,-1.8125 0,-1.640625 0.6875,-3.734375 2.46875,-3.734375 0.59375,0 0.953125,0.140625 1.421875,0.515625 l 0.578125,-0.515625 c -0.515625,-0.5 -1.125,-0.78125 -2.015625,-0.78125 z m 0,0"
   id="id-489ef67a-40b3-4cbb-b8b5-4e7fa19e17c8"
   style="fill:#505050;fill-opacity:1;stroke-width:0" />
      </g></g>
  <g
   fill-opacity="1"
   id="id-4a0aa4fb-2085-40ae-b715-aefc9ccf67ec"
   transform="translate(-149.306,-127.046)"
   style="fill:#505050;fill-opacity:1;stroke-width:0">
    <g
   transform="translate(155.138,134.765)"
   id="g4515"
   style="fill:#505050;fill-opacity:1;stroke-width:0"><path
   d="m 2.25,-7.71875 c -0.96875,1.375 -1.84375,2.5625 -1.84375,4.921875 0,2.375 0.875,3.546875 1.84375,4.9375 L 2.828125,1.75 C 1.9375,0.421875 1.359375,-0.65625 1.359375,-2.796875 1.359375,-4.9375 1.9375,-6 2.828125,-7.328125 Z m 0,0"
   id="id-ba9d2b88-b84a-4be9-82f5-b5d192829ab6"
   style="fill:#505050;fill-opacity:1;stroke-width:0" />
      </g><g
   transform="translate(158.366,134.765)"
   id="g8254"
   style="fill:#505050;fill-opacity:1;stroke-width:0"><path
   d="m 2.0625,0.125 c 0.78125,0 1.28125,-0.375 1.578125,-1.21875 0.015625,0.796875 0.46875,1.21875 1.21875,1.21875 1.625,0 2.203125,-1.765625 2.203125,-3.390625 C 7.0625,-4.0625 6.921875,-4.71875 6.78125,-5.25 H 5.890625 c 0.1875,0.734375 0.265625,1.3125 0.265625,1.90625 0,1.09375 -0.25,2.71875 -1.375,2.71875 -0.609375,0 -0.71875,-0.46875 -0.625,-1.15625 l 0.265625,-1.875 -0.890625,0.125 -0.234375,1.703125 C 3.15625,-0.84375 2.734375,-0.625 2.21875,-0.625 c -0.484375,0 -0.75,-0.296875 -0.75,-1.0625 0,-0.96875 0.265625,-2.015625 1.046875,-3.5625 H 1.59375 c -0.609375,1.109375 -1.03125,2.375 -1.03125,3.5 0,1.328125 0.65625,1.875 1.5,1.875 z m 0,0"
   id="id-9abe80a8-cbe6-4b16-8c0b-1f0d893beb7f"
   style="fill:#505050;fill-opacity:1;stroke-width:0" />
      </g></g>
  <g
   fill-opacity="1"
   id="id-8c08d4cf-8718-447d-90f9-48754ecc5a9c"
   transform="translate(-149.306,-127.046)"
   style="fill:#505050;fill-opacity:1;stroke-width:0">
    <g
   transform="translate(168.398,134.765)"
   id="g2763"
   style="fill:#505050;fill-opacity:1;stroke-width:0"><path
   d="M 2.90625,-4.671875 H 2.078125 v 1.5 H 0.625 v 0.765625 h 1.453125 v 1.484375 H 2.90625 V -2.40625 H 4.359375 V -3.171875 H 2.90625 Z m 0,0"
   id="id-aea820ed-9a0b-4d30-8d1a-1e0e3a3214cc"
   style="fill:#505050;fill-opacity:1;stroke-width:0" />
      </g></g>
  <g
   fill-opacity="1"
   id="id-1523a654-fe24-4b65-bd16-1ae882dab982"
   transform="translate(-149.306,-127.046)"
   style="fill:#505050;fill-opacity:1;stroke-width:0">
    <g
   transform="translate(175.591,134.765)"
   id="g5659"
   style="fill:#505050;fill-opacity:1;stroke-width:0"><path
   d="m 2.3125,0.125 c 0.734375,0 1.390625,-0.25 1.9375,-0.640625 L 3.859375,-1.109375 C 3.328125,-0.78125 2.921875,-0.625 2.390625,-0.625 c -0.703125,0 -1.03125,-0.28125 -1.03125,-0.75 0,-0.515625 0.28125,-1 1.328125,-1 h 0.515625 l 0.21875,-0.71875 h -0.625 c -0.578125,0 -0.90625,-0.25 -0.90625,-0.75 0,-0.4375 0.328125,-0.8125 1.0625,-0.8125 0.53125,0 0.84375,0.140625 1.15625,0.359375 L 4.59375,-4.828125 C 4.203125,-5.140625 3.671875,-5.375 2.953125,-5.375 c -1.40625,0 -1.96875,0.8125 -1.96875,1.515625 0,0.5625 0.359375,0.890625 0.921875,1.046875 -1.125,0.15625 -1.5,0.78125 -1.5,1.453125 C 0.40625,-0.5 1.140625,0.125 2.3125,0.125 Z m 0,0"
   id="id-b403d100-55ea-47de-bcf1-ada8a02d9ce4"
   style="fill:#505050;fill-opacity:1;stroke-width:0" />
      </g></g>
  <g
   fill-opacity="1"
   id="id-a270f1a1-9856-40f1-9135-d56f6a4cb428"
   transform="translate(-149.306,-127.046)"
   style="fill:#505050;fill-opacity:1;stroke-width:0">
    <g
   transform="translate(180.408,138.252)"
   id="g1252"
   style="fill:#505050;fill-opacity:1;stroke-width:0"><path
   d="M 1.8125,-5.375 1.15625,-5.296875 0.40625,0 H 1.0625 L 1.375,-2.265625 C 1.703125,-3 2.203125,-3.34375 2.609375,-3.34375 c 0.25,0 0.40625,0.140625 0.40625,0.40625 0,0.53125 -0.375,0.84375 -1.265625,1.09375 L 2.65625,0 H 3.390625 L 2.53125,-1.671875 C 3.328125,-1.921875 3.703125,-2.40625 3.703125,-3 c 0,-0.5 -0.375,-0.859375 -0.90625,-0.859375 C 2.3125,-3.859375 1.859375,-3.625 1.5,-3.125 Z m 0,0"
   id="id-8d044cb4-7326-42b2-975c-d3c9c19e388b"
   style="fill:#505050;fill-opacity:1;stroke-width:0" />
      </g></g>
  <g
   fill-opacity="1"
   id="id-df9c1e90-6718-458f-9127-296e68c217b3"
   transform="translate(-149.306,-127.046)"
   style="fill:#505050;fill-opacity:1;stroke-width:0">
    <g
   transform="translate(184.318,140.763)"
   id="g1815"
   style="fill:#505050;fill-opacity:1;stroke-width:0"><path
   d="m 1.453125,-4.046875 c -0.421875,0 -0.8125,0.140625 -1.15625,0.46875 l 0.28125,0.3125 c 0.265625,-0.25 0.5,-0.359375 0.84375,-0.359375 0.40625,0 0.734375,0.21875 0.734375,0.640625 0,0.46875 -0.359375,0.6875 -0.734375,0.6875 h -0.25 l -0.0625,0.40625 h 0.34375 c 0.46875,0 0.8125,0.1875 0.8125,0.734375 0,0.484375 -0.328125,0.796875 -0.859375,0.796875 -0.328125,0 -0.65625,-0.125 -0.890625,-0.390625 l -0.34375,0.28125 c 0.3125,0.375 0.78125,0.53125 1.25,0.53125 C 2.25,0.0625 2.8125,-0.453125 2.8125,-1.140625 2.8125,-1.75 2.375,-2.09375 1.890625,-2.125 2.34375,-2.21875 2.6875,-2.5625 2.6875,-3.046875 c 0,-0.546875 -0.46875,-1 -1.234375,-1 z m 0,0"
   id="id-f308fc41-064f-4364-a253-3e5f0c83d021"
   style="fill:#505050;fill-opacity:1;stroke-width:0" />
      </g></g>
  <g
   fill-opacity="1"
   id="id-a4aba602-87b7-4bf1-b704-451d0121483f"
   transform="translate(-149.306,-127.046)"
   style="fill:#505050;fill-opacity:1;stroke-width:0">
    <g
   transform="translate(188.55,134.765)"
   id="g8187"
   style="fill:#505050;fill-opacity:1;stroke-width:0"><path
   d="M 0.984375,-7.71875 0.40625,-7.328125 C 1.296875,-6 1.875,-4.9375 1.875,-2.796875 1.875,-0.65625 1.296875,0.421875 0.40625,1.75 l 0.578125,0.390625 c 0.96875,-1.390625 1.84375,-2.5625 1.84375,-4.9375 0,-2.359375 -0.875,-3.546875 -1.84375,-4.921875 z m 0,0"
   id="id-4e2d3c27-f95b-4bb6-ad31-1abec65c6db1"
   style="fill:#505050;fill-opacity:1;stroke-width:0" />
      </g></g>
</g></g></svg>
