<?xml version="1.0" encoding="UTF-8" standalone="no"?>
<!-- Created with Inkscape (http://www.inkscape.org/) -->

<svg
   width="113.32971mm"
   height="50.764233mm"
   viewBox="0 0 113.3297 50.764233"
   version="1.1"
   id="svg1"
   inkscape:version="1.3.2 (091e20ef0f, 2023-11-25, custom)"
   sodipodi:docname="interLL.svg"
   xmlns:inkscape="http://www.inkscape.org/namespaces/inkscape"
   xmlns:sodipodi="http://sodipodi.sourceforge.net/DTD/sodipodi-0.dtd"
   xmlns="http://www.w3.org/2000/svg"
   xmlns:svg="http://www.w3.org/2000/svg"
   xmlns:ns1="http://www.iki.fi/pav/software/textext/">
  <sodipodi:namedview
     id="namedview1"
     pagecolor="#ffffff"
     bordercolor="#000000"
     borderopacity="0.25"
     inkscape:showpageshadow="2"
     inkscape:pageopacity="0.0"
     inkscape:pagecheckerboard="0"
     inkscape:deskcolor="#d1d1d1"
     inkscape:document-units="mm"
     showgrid="false"
     inkscape:zoom="2.0908749"
     inkscape:cx="205.89468"
     inkscape:cy="93.9798"
     inkscape:window-width="1914"
     inkscape:window-height="1044"
     inkscape:window-x="0"
     inkscape:window-y="30"
     inkscape:window-maximized="1"
     inkscape:current-layer="layer1" />
  <defs
     id="defs1">
    <inkscape:path-effect
       effect="spiro"
       id="path-effect18"
       is_visible="true"
       lpeversion="1" />
    <marker
       style="overflow:visible"
       id="RoundedArrow"
       refX="0"
       refY="0"
       orient="auto-start-reverse"
       inkscape:stockid="Rounded arrow"
       markerWidth="0.40000001"
       markerHeight="0.40000001"
       viewBox="0 0 1 1"
       inkscape:isstock="true"
       inkscape:collect="always"
       preserveAspectRatio="xMidYMid">
      <path
         transform="scale(0.7)"
         d="m -0.21114562,-4.1055728 6.42229122,3.21114561 a 1,1 90 0 1 0,1.78885438 L -0.21114562,4.1055728 A 1.236068,1.236068 31.717474 0 1 -2,3 v -6 a 1.236068,1.236068 148.28253 0 1 1.78885438,-1.1055728 z"
         style="fill:context-stroke;fill-rule:evenodd;stroke:none"
         id="path17" />
    </marker>
    <inkscape:path-effect
       effect="spiro"
       id="path-effect17"
       is_visible="true"
       lpeversion="1" />
    <inkscape:path-effect
       effect="spiro"
       id="path-effect16"
       is_visible="true"
       lpeversion="1" />
    <inkscape:path-effect
       effect="spiro"
       id="path-effect14"
       is_visible="true"
       lpeversion="1" />
    <inkscape:path-effect
       effect="spiro"
       id="path-effect12"
       is_visible="true"
       lpeversion="1" />
    <inkscape:path-effect
       effect="spiro"
       id="path-effect10"
       is_visible="true"
       lpeversion="1" />
    <inkscape:path-effect
       effect="spiro"
       id="path-effect8"
       is_visible="true"
       lpeversion="1" />
    <inkscape:path-effect
       effect="spiro"
       id="path-effect6"
       is_visible="true"
       lpeversion="1" />
    <inkscape:path-effect
       effect="spiro"
       id="path-effect4"
       is_visible="true"
       lpeversion="1" />
    <inkscape:path-effect
       effect="spiro"
       id="path-effect2"
       is_visible="true"
       lpeversion="1" />
    <inkscape:path-effect
       effect="spiro"
       id="path-effect1"
       is_visible="true"
       lpeversion="1" />
    <inkscape:path-effect
       effect="spiro"
       id="path-effect4-1"
       is_visible="true"
       lpeversion="1" />
    <inkscape:path-effect
       effect="spiro"
       id="path-effect6-0"
       is_visible="true"
       lpeversion="1" />
    <inkscape:path-effect
       effect="spiro"
       id="path-effect4-9"
       is_visible="true"
       lpeversion="1" />
    <inkscape:path-effect
       effect="spiro"
       id="path-effect6-09"
       is_visible="true"
       lpeversion="1" />
    <inkscape:path-effect
       effect="spiro"
       id="path-effect8-1"
       is_visible="true"
       lpeversion="1" />
    <inkscape:path-effect
       effect="spiro"
       id="path-effect10-7"
       is_visible="true"
       lpeversion="1" />
    <inkscape:path-effect
       effect="spiro"
       id="path-effect12-7"
       is_visible="true"
       lpeversion="1" />
    <inkscape:path-effect
       effect="spiro"
       id="path-effect14-1"
       is_visible="true"
       lpeversion="1" />
    <marker
       style="overflow:visible"
       id="RoundedArrow-5"
       refX="0"
       refY="0"
       orient="auto-start-reverse"
       inkscape:stockid="Rounded arrow"
       markerWidth="0.5"
       markerHeight="0.5"
       viewBox="0 0 1 1"
       inkscape:isstock="true"
       inkscape:collect="always"
       preserveAspectRatio="xMidYMid">
      <path
         transform="scale(0.7)"
         d="m -0.21114562,-4.1055728 6.42229122,3.21114561 a 1,1 90 0 1 0,1.78885438 L -0.21114562,4.1055728 A 1.236068,1.236068 31.717474 0 1 -2,3 v -6 a 1.236068,1.236068 148.28253 0 1 1.78885438,-1.1055728 z"
         style="fill:context-stroke;fill-rule:evenodd;stroke:none"
         id="path17-6" />
    </marker>
    <inkscape:path-effect
       effect="spiro"
       id="path-effect17-3"
       is_visible="true"
       lpeversion="1" />
    <inkscape:path-effect
       effect="spiro"
       id="path-effect18-0"
       is_visible="true"
       lpeversion="1" />
  </defs>
  <g
     inkscape:label="Layer 1"
     inkscape:groupmode="layer"
     id="layer1"
     transform="translate(-11.720212,-78.523157)">
    <path
       style="fill:none;fill-opacity:1;stroke:#805050;stroke-width:0.75;stroke-dasharray:none;stroke-dashoffset:0;stroke-opacity:1"
       d="M 23.583904,97.006755 H 69.994292"
       id="path3"
       inkscape:path-effect="#path-effect4"
       inkscape:original-d="m 23.583904,97.006755 c 15.47013,0 30.940259,0 46.410388,0"
       transform="translate(13.097244,19.114448)" />
    <path
       style="fill:none;fill-opacity:1;stroke:#805050;stroke-width:0.75;stroke-dasharray:none;stroke-dashoffset:0;stroke-opacity:1"
       d="M 23.583904,97.006755 H 69.994292"
       id="path4"
       inkscape:path-effect="#path-effect6"
       inkscape:original-d="m 23.583904,97.006755 c 15.47013,0 30.940259,0 46.410388,0"
       transform="translate(13.097244,-17.927219)" />
    <path
       style="fill:none;fill-opacity:1;stroke:#805050;stroke-width:0.75;stroke-dasharray:none;stroke-dashoffset:0;stroke-opacity:1"
       d="M 23.583904,97.006755 H 69.994292"
       id="path6"
       inkscape:path-effect="#path-effect8"
       inkscape:original-d="m 23.583904,97.006755 c 15.47013,0 30.940259,0 46.410388,0"
       transform="translate(13.097244,29.697782)" />
    <path
       style="fill:none;fill-opacity:1;stroke:#805050;stroke-width:0.75;stroke-dasharray:none;stroke-dashoffset:0;stroke-opacity:1"
       d="M 23.583904,97.006755 H 69.994292"
       id="path8"
       inkscape:path-effect="#path-effect10"
       inkscape:original-d="m 23.583904,97.006755 c 15.47013,0 30.940259,0 46.410388,0"
       transform="translate(13.097244,24.406115)" />
    <path
       style="fill:none;fill-opacity:1;stroke:#805050;stroke-width:0.75;stroke-dasharray:none;stroke-dashoffset:0;stroke-opacity:1"
       d="M 23.583904,97.006755 H 69.994292"
       id="path10"
       inkscape:path-effect="#path-effect12"
       inkscape:original-d="m 23.583904,97.006755 c 15.47013,0 30.940259,0 46.410388,0"
       transform="translate(13.097244,-7.3438858)" />
    <path
       style="fill:none;fill-opacity:1;stroke:#805050;stroke-width:0.75;stroke-dasharray:none;stroke-dashoffset:0;stroke-opacity:1"
       d="M 23.583904,97.006755 H 69.994292"
       id="path12"
       inkscape:path-effect="#path-effect14"
       inkscape:original-d="m 23.583904,97.006755 c 15.47013,0 30.940259,0 46.410388,0"
       transform="translate(13.097244,-12.635552)" />
    <path
       style="fill:none;fill-opacity:1;stroke:#405050;stroke-width:1.00026;stroke-dasharray:8.00208, 1.00026;stroke-dashoffset:0;stroke-opacity:1"
       d="M 13.422185,121.41287 H 111.64217"
       id="path14"
       inkscape:path-effect="#path-effect16"
       inkscape:original-d="m 13.422185,121.41287 c 32.739994,0 65.479988,0 98.219985,0"
       transform="matrix(0.8023991,0,0,1,12.356415,-18.520832)" />
    <path
       style="fill:none;fill-opacity:1;stroke:#405050;stroke-width:1;stroke-dasharray:none;stroke-dashoffset:0;stroke-opacity:1;marker-end:url(#RoundedArrow)"
       d="M 31.898506,94.704448 V 81.503346"
       id="path16"
       inkscape:path-effect="#path-effect17"
       inkscape:original-d="m 31.898506,94.704448 c 0,-4.400367 0,-8.800735 0,-13.201102"
       transform="translate(2.6458333)" />
    <path
       style="fill:none;fill-opacity:1;stroke:#405050;stroke-width:1;stroke-dasharray:none;stroke-dashoffset:0;stroke-opacity:1;marker-end:url(#RoundedArrow-5)"
       d="M 31.898506,94.704448 V 81.503346"
       id="path16-4"
       inkscape:path-effect="#path-effect17-3"
       inkscape:original-d="m 31.898506,94.704448 c 0,-4.400367 0,-8.800735 0,-13.201102"
       transform="matrix(1,0,0,-1,2.6458333,208.42336)" />
    <g
       transform="matrix(0.571038,0,0,0.571038,11.720283,80.831125)"
       ns1:version="1.10.2"
       ns1:texconverter="xelatex"
       ns1:pdfconverter="inkscape"
       ns1:text="\\centering\nrepelled\\\\\n outwards"
       ns1:preamble="/home/storage/.config/inkscape/extensions/textext/default_packages.tex"
       ns1:scale="1.618688695316071"
       ns1:alignment="middle center"
       ns1:stroke-to-path="0"
       ns1:inkscapeversion="1.3.2"
       id="g5585"
       ns1:jacobian_sqrt="0.571038"
       style="fill:#404040;fill-opacity:1">
      <defs
         id="id-78d2802a-872e-4f89-8571-562312c0cae2">
        <g
           id="id-f9ce3e8f-0ea1-42ee-851c-dfe45546789c">
          <g
             id="id-254388d3-c04f-46d4-aab8-6e9a5eb03c50">
            <path
               d="m 0.546875,0 h 0.84375 v -3.15625 c 0,-0.71875 0.4375,-1.1875 1.09375,-1.1875 0.203125,0 0.375,0.03125 0.453125,0.046875 v -0.8125 C 2.859375,-5.125 2.734375,-5.15625 2.59375,-5.15625 2,-5.15625 1.53125,-4.796875 1.375,-4.234375 H 1.34375 V -5.0625 H 0.546875 Z m 0,0"
               id="id-cc50ba8e-26b2-47a6-aa34-3912e546281e" />
          </g>
          <g
             id="id-72c1e92c-060a-449a-a0b7-e837b5817b6e">
            <path
               d="m 2.578125,-4.421875 c 0.796875,0 1.328125,0.609375 1.34375,1.453125 h -2.75 c 0.0625,-0.84375 0.609375,-1.453125 1.40625,-1.453125 z m 1.328125,2.96875 c -0.140625,0.484375 -0.609375,0.8125 -1.25,0.8125 C 1.75,-0.640625 1.171875,-1.28125 1.171875,-2.25 v -0.046875 h 3.625 V -2.625 c 0,-1.53125 -0.828125,-2.53125 -2.203125,-2.53125 -1.390625,0 -2.296875,1.078125 -2.296875,2.640625 0,1.59375 0.890625,2.609375 2.34375,2.609375 1.09375,0 1.953125,-0.65625 2.09375,-1.546875 z m 0,0"
               id="id-f55f1b32-8929-4265-ba70-bb0b80771297" />
          </g>
          <g
             id="id-9d19c7ba-67d1-41a6-b182-08921755445e">
            <path
               d="m 3.015625,-5.15625 c -0.75,0 -1.328125,0.375 -1.640625,0.953125 H 1.359375 V -5.0625 h -0.8125 v 6.75 h 0.84375 v -2.515625 h 0.03125 c 0.296875,0.5625 0.875,0.921875 1.609375,0.921875 1.265625,0 2.140625,-1.03125 2.140625,-2.625 0,-1.59375 -0.875,-2.625 -2.15625,-2.625 z m -0.171875,4.5 c -0.875,0 -1.453125,-0.75 -1.453125,-1.875 0,-1.125 0.578125,-1.875 1.453125,-1.875 0.90625,0 1.46875,0.734375 1.46875,1.875 0,1.15625 -0.5625,1.875 -1.46875,1.875 z m 0,0"
               id="id-c650f7e2-70e1-4211-95df-1eb02cdbb82a" />
          </g>
          <g
             id="id-decfbb1c-3f69-40f4-847b-43791cd9c081">
            <path
               d="M 0.59375,0 H 1.4375 V -7.03125 H 0.59375 Z m 0,0"
               id="id-d07e1077-9f88-4dcb-9f3e-30ff6290f8f0" />
          </g>
          <g
             id="id-e09630d9-eeb5-444f-808f-162ea9a22dca">
            <path
               d="m 2.46875,0.09375 c 0.734375,0 1.3125,-0.359375 1.640625,-0.953125 H 4.125 V 0 h 0.796875 v -7.03125 h -0.84375 v 2.796875 H 4.0625 C 3.75,-4.796875 3.171875,-5.15625 2.453125,-5.15625 c -1.28125,0 -2.15625,1.03125 -2.15625,2.625 0,1.59375 0.875,2.625 2.171875,2.625 z m 0.15625,-4.5 c 0.875,0 1.453125,0.75 1.453125,1.875 0,1.140625 -0.578125,1.875 -1.453125,1.875 -0.890625,0 -1.453125,-0.71875 -1.453125,-1.875 0,-1.140625 0.5625,-1.875 1.453125,-1.875 z m 0,0"
               id="id-3bfad417-8f4f-4a13-a8a6-75f45bb81765" />
          </g>
          <g
             id="id-9752a7d2-263b-44eb-b057-a7d2ffde1c55">
            <path
               d="m 2.640625,0.09375 c 1.40625,0 2.34375,-1.015625 2.34375,-2.625 0,-1.609375 -0.9375,-2.625 -2.34375,-2.625 -1.390625,0 -2.34375,1.015625 -2.34375,2.625 0,1.609375 0.953125,2.625 2.34375,2.625 z m 0,-0.75 c -0.890625,0 -1.484375,-0.6875 -1.484375,-1.875 0,-1.1875 0.59375,-1.875 1.484375,-1.875 0.90625,0 1.484375,0.6875 1.484375,1.875 0,1.1875 -0.578125,1.875 -1.484375,1.875 z m 0,0"
               id="id-ada4c829-6634-493f-8862-08b6a9746835" />
          </g>
          <g
             id="id-63732553-7aea-40de-ab51-de384caad91d">
            <path
               d="m 4.703125,-5.0625 h -0.84375 v 2.96875 c 0,0.859375 -0.5,1.4375 -1.3125,1.4375 C 1.75,-0.65625 1.375,-1.109375 1.375,-1.921875 V -5.0625 H 0.53125 v 3.28125 c 0,1.15625 0.640625,1.875 1.75,1.875 0.78125,0 1.296875,-0.328125 1.609375,-0.921875 H 3.90625 V 0 h 0.796875 z m 0,0"
               id="id-b296875b-f02c-476b-a782-cfa8c8980976" />
          </g>
          <g
             id="id-e4a9f0bd-7eb4-4167-92ca-0a7faf6a0cef">
            <path
               d="M 0.828125,-6.28125 V -5.0625 H 0.0625 v 0.703125 H 0.828125 V -1.3125 c 0,0.96875 0.359375,1.34375 1.28125,1.34375 0.203125,0 0.4375,0 0.53125,-0.03125 v -0.703125 c -0.046875,0 -0.25,0.015625 -0.34375,0.015625 -0.4375,0 -0.625,-0.203125 -0.625,-0.671875 v -3 H 2.65625 V -5.0625 H 1.671875 v -1.21875 z m 0,0"
               id="id-ff5314a5-d40e-4adf-b9c1-ec2f75da687d" />
          </g>
          <g
             id="id-da9380e2-6f52-4b8a-87da-34f3116d29fa">
            <path
               d="M 6.984375,-5.0625 H 6.15625 l -1.015625,4.125 H 5.125 l -1.15625,-4.125 h -0.8125 l -1.140625,4.125 h -0.03125 l -1,-4.125 H 0.140625 L 1.546875,0 h 0.875 l 1.125,-3.921875 h 0.03125 L 4.71875,0 h 0.859375 z m 0,0"
               id="id-8b36fdb8-e6cd-43c1-be55-5c4d4c24d33a" />
          </g>
          <g
             id="id-d426cab5-741e-4f31-ad11-1a9eb3fe2d5c">
            <path
               d="m 2.21875,-0.625 c -0.609375,0 -1.015625,-0.328125 -1.015625,-0.8125 0,-0.46875 0.390625,-0.765625 1.078125,-0.8125 L 3.625,-2.34375 v 0.421875 C 3.625,-1.1875 3.015625,-0.625 2.21875,-0.625 Z m -0.1875,0.71875 c 0.6875,0 1.328125,-0.390625 1.625,-0.96875 H 3.671875 V 0 h 0.8125 v -3.5 c 0,-1 -0.75,-1.65625 -1.9375,-1.65625 -1.203125,0 -1.953125,0.671875 -2.015625,1.546875 H 1.359375 C 1.453125,-4.09375 1.875,-4.40625 2.515625,-4.40625 c 0.703125,0 1.109375,0.375 1.109375,0.984375 V -3 l -1.4375,0.09375 c -1.171875,0.0625 -1.84375,0.609375 -1.84375,1.46875 0,0.921875 0.671875,1.53125 1.6875,1.53125 z m 0,0"
               id="id-e6529cc0-c898-4259-8f62-452c4a2f459d" />
          </g>
          <g
             id="id-6f504152-5f2e-4bea-b5c9-05a969917d7f">
            <path
               d="m 0.46875,-3.671875 c 0,0.703125 0.4375,1.15625 1.328125,1.390625 L 2.6875,-2.0625 c 0.5625,0.15625 0.765625,0.34375 0.765625,0.703125 0,0.46875 -0.421875,0.75 -1.109375,0.75 -0.671875,0 -1.078125,-0.28125 -1.171875,-0.796875 h -0.84375 c 0.078125,0.890625 0.859375,1.5 1.96875,1.5 1.1875,0 2.015625,-0.625 2.015625,-1.515625 0,-0.734375 -0.375,-1.109375 -1.390625,-1.375 l -0.78125,-0.1875 c -0.578125,-0.140625 -0.84375,-0.375 -0.84375,-0.71875 0,-0.453125 0.40625,-0.75 1.03125,-0.75 0.609375,0 1.015625,0.296875 1.0625,0.78125 h 0.8125 C 4.171875,-4.53125 3.390625,-5.15625 2.34375,-5.15625 c -1.109375,0 -1.875,0.625 -1.875,1.484375 z m 0,0"
               id="id-f313d419-1c30-45a4-bee7-a9d101243973" />
          </g>
        </g>
      </defs>
      <g
         fill="#000000"
         fill-opacity="1"
         id="id-afd9bd33-9b69-4423-8cde-85386def7df1"
         transform="translate(-286.647,-127.734)"
         style="fill:#404040;fill-opacity:1">
        <g
           transform="translate(289.028,134.765)"
           id="g2208"
           style="fill:#404040;fill-opacity:1">
          <path
             d="m 0.546875,0 h 0.84375 v -3.15625 c 0,-0.71875 0.4375,-1.1875 1.09375,-1.1875 0.203125,0 0.375,0.03125 0.453125,0.046875 v -0.8125 C 2.859375,-5.125 2.734375,-5.15625 2.59375,-5.15625 2,-5.15625 1.53125,-4.796875 1.375,-4.234375 H 1.34375 V -5.0625 H 0.546875 Z m 0,0"
             id="id-fc8934d6-2672-4c40-a4e1-33134a640365"
             style="fill:#404040;fill-opacity:1" />
        </g>
      </g>
      <g
         fill="#000000"
         fill-opacity="1"
         id="id-95a63e0c-2c35-425a-8dd6-274ca2345487"
         transform="translate(-286.647,-127.734)"
         style="fill:#404040;fill-opacity:1">
        <g
           transform="translate(291.857,134.765)"
           id="g1195"
           style="fill:#404040;fill-opacity:1">
          <path
             d="m 2.578125,-4.421875 c 0.796875,0 1.328125,0.609375 1.34375,1.453125 h -2.75 c 0.0625,-0.84375 0.609375,-1.453125 1.40625,-1.453125 z m 1.328125,2.96875 c -0.140625,0.484375 -0.609375,0.8125 -1.25,0.8125 C 1.75,-0.640625 1.171875,-1.28125 1.171875,-2.25 v -0.046875 h 3.625 V -2.625 c 0,-1.53125 -0.828125,-2.53125 -2.203125,-2.53125 -1.390625,0 -2.296875,1.078125 -2.296875,2.640625 0,1.59375 0.890625,2.609375 2.34375,2.609375 1.09375,0 1.953125,-0.65625 2.09375,-1.546875 z m 0,0"
             id="id-92c33161-1808-4b59-afd4-033353b4b3cb"
             style="fill:#404040;fill-opacity:1" />
        </g>
        <g
           transform="translate(296.958,134.765)"
           id="g7085"
           style="fill:#404040;fill-opacity:1">
          <path
             d="m 3.015625,-5.15625 c -0.75,0 -1.328125,0.375 -1.640625,0.953125 H 1.359375 V -5.0625 h -0.8125 v 6.75 h 0.84375 v -2.515625 h 0.03125 c 0.296875,0.5625 0.875,0.921875 1.609375,0.921875 1.265625,0 2.140625,-1.03125 2.140625,-2.625 0,-1.59375 -0.875,-2.625 -2.15625,-2.625 z m -0.171875,4.5 c -0.875,0 -1.453125,-0.75 -1.453125,-1.875 0,-1.125 0.578125,-1.875 1.453125,-1.875 0.90625,0 1.46875,0.734375 1.46875,1.875 0,1.15625 -0.5625,1.875 -1.46875,1.875 z m 0,0"
             id="id-f70f9d25-6e90-476a-97bb-4403742418fa"
             style="fill:#404040;fill-opacity:1" />
        </g>
        <g
           transform="translate(302.428,134.765)"
           id="g7980"
           style="fill:#404040;fill-opacity:1">
          <path
             d="m 2.578125,-4.421875 c 0.796875,0 1.328125,0.609375 1.34375,1.453125 h -2.75 c 0.0625,-0.84375 0.609375,-1.453125 1.40625,-1.453125 z m 1.328125,2.96875 c -0.140625,0.484375 -0.609375,0.8125 -1.25,0.8125 C 1.75,-0.640625 1.171875,-1.28125 1.171875,-2.25 v -0.046875 h 3.625 V -2.625 c 0,-1.53125 -0.828125,-2.53125 -2.203125,-2.53125 -1.390625,0 -2.296875,1.078125 -2.296875,2.640625 0,1.59375 0.890625,2.609375 2.34375,2.609375 1.09375,0 1.953125,-0.65625 2.09375,-1.546875 z m 0,0"
             id="id-94d01c63-21b2-4c70-92ed-e1fb81cbae16"
             style="fill:#404040;fill-opacity:1" />
        </g>
        <g
           transform="translate(307.529,134.765)"
           id="g9600"
           style="fill:#404040;fill-opacity:1">
          <path
             d="M 0.59375,0 H 1.4375 V -7.03125 H 0.59375 Z m 0,0"
             id="id-05aac8e6-4b1e-4bda-8317-a11db821fbbc"
             style="fill:#404040;fill-opacity:1" />
        </g>
        <g
           transform="translate(309.561,134.765)"
           id="g7582"
           style="fill:#404040;fill-opacity:1">
          <path
             d="M 0.59375,0 H 1.4375 V -7.03125 H 0.59375 Z m 0,0"
             id="id-ac0b3bb2-29cb-4210-9481-a8dac17b9fc6"
             style="fill:#404040;fill-opacity:1" />
        </g>
        <g
           transform="translate(311.593,134.765)"
           id="g5910"
           style="fill:#404040;fill-opacity:1">
          <path
             d="m 2.578125,-4.421875 c 0.796875,0 1.328125,0.609375 1.34375,1.453125 h -2.75 c 0.0625,-0.84375 0.609375,-1.453125 1.40625,-1.453125 z m 1.328125,2.96875 c -0.140625,0.484375 -0.609375,0.8125 -1.25,0.8125 C 1.75,-0.640625 1.171875,-1.28125 1.171875,-2.25 v -0.046875 h 3.625 V -2.625 c 0,-1.53125 -0.828125,-2.53125 -2.203125,-2.53125 -1.390625,0 -2.296875,1.078125 -2.296875,2.640625 0,1.59375 0.890625,2.609375 2.34375,2.609375 1.09375,0 1.953125,-0.65625 2.09375,-1.546875 z m 0,0"
             id="id-8d15b2a1-6944-4b7c-833e-a2461b5d8699"
             style="fill:#404040;fill-opacity:1" />
        </g>
        <g
           transform="translate(316.694,134.765)"
           id="g5609"
           style="fill:#404040;fill-opacity:1">
          <path
             d="m 2.46875,0.09375 c 0.734375,0 1.3125,-0.359375 1.640625,-0.953125 H 4.125 V 0 h 0.796875 v -7.03125 h -0.84375 v 2.796875 H 4.0625 C 3.75,-4.796875 3.171875,-5.15625 2.453125,-5.15625 c -1.28125,0 -2.15625,1.03125 -2.15625,2.625 0,1.59375 0.875,2.625 2.171875,2.625 z m 0.15625,-4.5 c 0.875,0 1.453125,0.75 1.453125,1.875 0,1.140625 -0.578125,1.875 -1.453125,1.875 -0.890625,0 -1.453125,-0.71875 -1.453125,-1.875 0,-1.140625 0.5625,-1.875 1.453125,-1.875 z m 0,0"
             id="id-75c0fcbc-f2e9-4151-b1a0-a1ce254ffbcb"
             style="fill:#404040;fill-opacity:1" />
        </g>
      </g>
      <g
         fill="#000000"
         fill-opacity="1"
         id="id-cb2e5a0a-4c99-4347-8825-4805566b037f"
         transform="translate(-286.647,-127.734)"
         style="fill:#404040;fill-opacity:1">
        <g
           transform="translate(286.35,146.72)"
           id="g1825"
           style="fill:#404040;fill-opacity:1">
          <path
             d="m 2.640625,0.09375 c 1.40625,0 2.34375,-1.015625 2.34375,-2.625 0,-1.609375 -0.9375,-2.625 -2.34375,-2.625 -1.390625,0 -2.34375,1.015625 -2.34375,2.625 0,1.609375 0.953125,2.625 2.34375,2.625 z m 0,-0.75 c -0.890625,0 -1.484375,-0.6875 -1.484375,-1.875 0,-1.1875 0.59375,-1.875 1.484375,-1.875 0.90625,0 1.484375,0.6875 1.484375,1.875 0,1.1875 -0.578125,1.875 -1.484375,1.875 z m 0,0"
             id="id-b4c4c70c-7bf9-4b97-aee7-673d26a54667"
             style="fill:#404040;fill-opacity:1" />
        </g>
        <g
           transform="translate(291.64,146.72)"
           id="g7049"
           style="fill:#404040;fill-opacity:1">
          <path
             d="m 4.703125,-5.0625 h -0.84375 v 2.96875 c 0,0.859375 -0.5,1.4375 -1.3125,1.4375 C 1.75,-0.65625 1.375,-1.109375 1.375,-1.921875 V -5.0625 H 0.53125 v 3.28125 c 0,1.15625 0.640625,1.875 1.75,1.875 0.78125,0 1.296875,-0.328125 1.609375,-0.921875 H 3.90625 V 0 h 0.796875 z m 0,0"
             id="id-5041c2f6-48e9-4476-92eb-ae7a3f2ba476"
             style="fill:#404040;fill-opacity:1" />
        </g>
        <g
           transform="translate(296.89,146.72)"
           id="g939"
           style="fill:#404040;fill-opacity:1">
          <path
             d="M 0.828125,-6.28125 V -5.0625 H 0.0625 v 0.703125 H 0.828125 V -1.3125 c 0,0.96875 0.359375,1.34375 1.28125,1.34375 0.203125,0 0.4375,0 0.53125,-0.03125 v -0.703125 c -0.046875,0 -0.25,0.015625 -0.34375,0.015625 -0.4375,0 -0.625,-0.203125 -0.625,-0.671875 v -3 H 2.65625 V -5.0625 H 1.671875 v -1.21875 z m 0,0"
             id="id-653cc7e4-dd5d-431d-ab7f-ebf4f7612d1c"
             style="fill:#404040;fill-opacity:1" />
        </g>
        <g
           transform="translate(299.889,146.72)"
           id="g2186"
           style="fill:#404040;fill-opacity:1">
          <path
             d="M 6.984375,-5.0625 H 6.15625 l -1.015625,4.125 H 5.125 l -1.15625,-4.125 h -0.8125 l -1.140625,4.125 h -0.03125 l -1,-4.125 H 0.140625 L 1.546875,0 h 0.875 l 1.125,-3.921875 h 0.03125 L 4.71875,0 h 0.859375 z m 0,0"
             id="id-34680f3e-5d77-4fa6-a648-01d53801d854"
             style="fill:#404040;fill-opacity:1" />
        </g>
      </g>
      <g
         fill="#000000"
         fill-opacity="1"
         id="id-f393b4cd-7364-4a48-ba55-a048369fdb50"
         transform="translate(-286.647,-127.734)"
         style="fill:#404040;fill-opacity:1">
        <g
           transform="translate(306.923,146.72)"
           id="g8180"
           style="fill:#404040;fill-opacity:1">
          <path
             d="m 2.21875,-0.625 c -0.609375,0 -1.015625,-0.328125 -1.015625,-0.8125 0,-0.46875 0.390625,-0.765625 1.078125,-0.8125 L 3.625,-2.34375 v 0.421875 C 3.625,-1.1875 3.015625,-0.625 2.21875,-0.625 Z m -0.1875,0.71875 c 0.6875,0 1.328125,-0.390625 1.625,-0.96875 H 3.671875 V 0 h 0.8125 v -3.5 c 0,-1 -0.75,-1.65625 -1.9375,-1.65625 -1.203125,0 -1.953125,0.671875 -2.015625,1.546875 H 1.359375 C 1.453125,-4.09375 1.875,-4.40625 2.515625,-4.40625 c 0.703125,0 1.109375,0.375 1.109375,0.984375 V -3 l -1.4375,0.09375 c -1.171875,0.0625 -1.84375,0.609375 -1.84375,1.46875 0,0.921875 0.671875,1.53125 1.6875,1.53125 z m 0,0"
             id="id-f0b3197d-6cab-493d-8d7b-a8f4f233ca59"
             style="fill:#404040;fill-opacity:1" />
        </g>
        <g
           transform="translate(311.924,146.72)"
           id="g1516"
           style="fill:#404040;fill-opacity:1">
          <path
             d="m 0.546875,0 h 0.84375 v -3.15625 c 0,-0.71875 0.4375,-1.1875 1.09375,-1.1875 0.203125,0 0.375,0.03125 0.453125,0.046875 v -0.8125 C 2.859375,-5.125 2.734375,-5.15625 2.59375,-5.15625 2,-5.15625 1.53125,-4.796875 1.375,-4.234375 H 1.34375 V -5.0625 H 0.546875 Z m 0,0"
             id="id-ad3cea57-d1c1-4ed4-96e6-fbcbbb1a1d6d"
             style="fill:#404040;fill-opacity:1" />
        </g>
      </g>
      <g
         fill="#000000"
         fill-opacity="1"
         id="id-f216a757-fc88-4779-bb4e-224e739f75fb"
         transform="translate(-286.647,-127.734)"
         style="fill:#404040;fill-opacity:1">
        <g
           transform="translate(314.743,146.72)"
           id="g8931"
           style="fill:#404040;fill-opacity:1">
          <path
             d="m 2.46875,0.09375 c 0.734375,0 1.3125,-0.359375 1.640625,-0.953125 H 4.125 V 0 h 0.796875 v -7.03125 h -0.84375 v 2.796875 H 4.0625 C 3.75,-4.796875 3.171875,-5.15625 2.453125,-5.15625 c -1.28125,0 -2.15625,1.03125 -2.15625,2.625 0,1.59375 0.875,2.625 2.171875,2.625 z m 0.15625,-4.5 c 0.875,0 1.453125,0.75 1.453125,1.875 0,1.140625 -0.578125,1.875 -1.453125,1.875 -0.890625,0 -1.453125,-0.71875 -1.453125,-1.875 0,-1.140625 0.5625,-1.875 1.453125,-1.875 z m 0,0"
             id="id-5c8f6edd-586b-446f-8e5a-17691023bb1f"
             style="fill:#404040;fill-opacity:1" />
        </g>
        <g
           transform="translate(320.263,146.72)"
           id="g1002"
           style="fill:#404040;fill-opacity:1">
          <path
             d="m 0.46875,-3.671875 c 0,0.703125 0.4375,1.15625 1.328125,1.390625 L 2.6875,-2.0625 c 0.5625,0.15625 0.765625,0.34375 0.765625,0.703125 0,0.46875 -0.421875,0.75 -1.109375,0.75 -0.671875,0 -1.078125,-0.28125 -1.171875,-0.796875 h -0.84375 c 0.078125,0.890625 0.859375,1.5 1.96875,1.5 1.1875,0 2.015625,-0.625 2.015625,-1.515625 0,-0.734375 -0.375,-1.109375 -1.390625,-1.375 l -0.78125,-0.1875 c -0.578125,-0.140625 -0.84375,-0.375 -0.84375,-0.71875 0,-0.453125 0.40625,-0.75 1.03125,-0.75 0.609375,0 1.015625,0.296875 1.0625,0.78125 h 0.8125 C 4.171875,-4.53125 3.390625,-5.15625 2.34375,-5.15625 c -1.109375,0 -1.875,0.625 -1.875,1.484375 z m 0,0"
             id="id-ee7233ef-1ce5-4a63-b38d-36bf9fef1125"
             style="fill:#404040;fill-opacity:1" />
        </g>
      </g>
    </g>
    <g
       transform="matrix(0.571038,0,0,0.571038,104.13423,97.182027)"
       ns1:version="1.10.2"
       ns1:texconverter="xelatex"
       ns1:pdfconverter="inkscape"
       ns1:text="\\centering\nchemical\\\\\n potential"
       ns1:preamble="/home/storage/.config/inkscape/extensions/textext/default_packages.tex"
       ns1:scale="1.618688695316071"
       ns1:alignment="middle center"
       ns1:stroke-to-path="0"
       ns1:inkscapeversion="1.3.2"
       id="g800"
       ns1:jacobian_sqrt="0.571038"
       style="fill:#404040;fill-opacity:1">
      <defs
         id="id-3607e4c3-41fe-4f95-9b5e-9ab7816c6f2c">
        <g
           id="id-45bca973-a507-44fb-9b5f-715a0a65c500">
          <g
             id="id-c2e63a9f-bb57-4292-b51a-8a987e0d2a24">
            <path
               d="m 4.75,-3.40625 c -0.09375,-0.90625 -0.859375,-1.75 -2.125,-1.75 -1.390625,0 -2.328125,1.03125 -2.328125,2.625 0,1.625 0.9375,2.625 2.34375,2.625 1.140625,0 2,-0.71875 2.125,-1.71875 H 3.9375 c -0.15625,0.609375 -0.609375,0.96875 -1.296875,0.96875 -0.875,0 -1.484375,-0.703125 -1.484375,-1.875 0,-1.15625 0.59375,-1.875 1.484375,-1.875 0.734375,0 1.171875,0.453125 1.28125,1 z m 0,0"
               id="id-d58cd75d-4a42-4f5a-b7b9-fbd4fd938f8c" />
          </g>
          <g
             id="id-cbfcd144-71bc-412d-9049-482f7f0e93de">
            <path
               d="M 0.59375,0 H 1.4375 v -2.953125 c 0,-0.875 0.53125,-1.453125 1.359375,-1.453125 C 3.59375,-4.40625 4,-3.921875 4,-3.109375 V 0 H 4.84375 V -3.265625 C 4.84375,-4.40625 4.171875,-5.15625 3.0625,-5.15625 2.296875,-5.15625 1.75,-4.8125 1.453125,-4.25 H 1.4375 V -7.03125 H 0.59375 Z m 0,0"
               id="id-b32cda1a-9676-46bc-8c3e-a75b70b48af4" />
          </g>
          <g
             id="id-b8ea06cb-a4ce-4da6-9aea-f9541ece5eea">
            <path
               d="m 2.578125,-4.421875 c 0.796875,0 1.328125,0.609375 1.34375,1.453125 h -2.75 c 0.0625,-0.84375 0.609375,-1.453125 1.40625,-1.453125 z m 1.328125,2.96875 c -0.140625,0.484375 -0.609375,0.8125 -1.25,0.8125 C 1.75,-0.640625 1.171875,-1.28125 1.171875,-2.25 v -0.046875 h 3.625 V -2.625 c 0,-1.53125 -0.828125,-2.53125 -2.203125,-2.53125 -1.390625,0 -2.296875,1.078125 -2.296875,2.640625 0,1.59375 0.890625,2.609375 2.34375,2.609375 1.09375,0 1.953125,-0.65625 2.09375,-1.546875 z m 0,0"
               id="id-19d2b035-091c-4f18-8349-1eab7f9386d3" />
          </g>
          <g
             id="id-6d0266ea-6249-4c1d-8e2c-f5bb7c50f0bf">
            <path
               d="m 0.546875,0 h 0.84375 v -3.171875 c 0,-0.703125 0.5,-1.234375 1.171875,-1.234375 0.625,0 1.03125,0.40625 1.03125,1.015625 V 0 H 4.4375 v -3.21875 c 0,-0.6875 0.46875,-1.1875 1.140625,-1.1875 0.671875,0 1.0625,0.421875 1.0625,1.109375 V 0 h 0.84375 v -3.5 c 0,-1 -0.65625,-1.65625 -1.65625,-1.65625 C 5.125,-5.15625 4.53125,-4.796875 4.25,-4.1875 H 4.21875 C 4,-4.796875 3.5,-5.15625 2.796875,-5.15625 2.125,-5.15625 1.609375,-4.796875 1.375,-4.25 H 1.34375 V -5.0625 H 0.546875 Z m 0,0"
               id="id-6bb413e9-05a2-4cbd-bec0-a5c356bb5c1d" />
          </g>
          <g
             id="id-391918bb-f34b-435a-bc6a-dfc4a2d57be7">
            <path
               d="M 0.59375,0 H 1.4375 V -5.0625 H 0.59375 Z m 0.421875,-5.921875 c 0.296875,0 0.53125,-0.234375 0.53125,-0.515625 0,-0.296875 -0.234375,-0.53125 -0.53125,-0.53125 -0.28125,0 -0.53125,0.234375 -0.53125,0.53125 0,0.28125 0.25,0.515625 0.53125,0.515625 z m 0,0"
               id="id-02cc273c-c823-469d-bd35-c3a45a666f77" />
          </g>
          <g
             id="id-fc7803ba-2c23-4a6e-85a3-e6a1c2b36c9e">
            <path
               d="m 2.21875,-0.625 c -0.609375,0 -1.015625,-0.328125 -1.015625,-0.8125 0,-0.46875 0.390625,-0.765625 1.078125,-0.8125 L 3.625,-2.34375 v 0.421875 C 3.625,-1.1875 3.015625,-0.625 2.21875,-0.625 Z m -0.1875,0.71875 c 0.6875,0 1.328125,-0.390625 1.625,-0.96875 H 3.671875 V 0 h 0.8125 v -3.5 c 0,-1 -0.75,-1.65625 -1.9375,-1.65625 -1.203125,0 -1.953125,0.671875 -2.015625,1.546875 H 1.359375 C 1.453125,-4.09375 1.875,-4.40625 2.515625,-4.40625 c 0.703125,0 1.109375,0.375 1.109375,0.984375 V -3 l -1.4375,0.09375 c -1.171875,0.0625 -1.84375,0.609375 -1.84375,1.46875 0,0.921875 0.671875,1.53125 1.6875,1.53125 z m 0,0"
               id="id-7dd7261b-3a33-400a-9aa8-647e1df00047" />
          </g>
          <g
             id="id-5f471437-a87c-4ea4-9ed4-2f9a8f603495">
            <path
               d="M 0.59375,0 H 1.4375 V -7.03125 H 0.59375 Z m 0,0"
               id="id-620f0a16-bd8e-44c6-8039-1d506f21638a" />
          </g>
          <g
             id="id-6967a11a-24d8-4fb2-8fc0-81c86afdb4db">
            <path
               d="m 3.015625,-5.15625 c -0.75,0 -1.328125,0.375 -1.640625,0.953125 H 1.359375 V -5.0625 h -0.8125 v 6.75 h 0.84375 v -2.515625 h 0.03125 c 0.296875,0.5625 0.875,0.921875 1.609375,0.921875 1.265625,0 2.140625,-1.03125 2.140625,-2.625 0,-1.59375 -0.875,-2.625 -2.15625,-2.625 z m -0.171875,4.5 c -0.875,0 -1.453125,-0.75 -1.453125,-1.875 0,-1.125 0.578125,-1.875 1.453125,-1.875 0.90625,0 1.46875,0.734375 1.46875,1.875 0,1.15625 -0.5625,1.875 -1.46875,1.875 z m 0,0"
               id="id-95612859-9c08-4c2d-abef-4a3b7df826f6" />
          </g>
          <g
             id="id-16ce82c5-85f7-4b30-bc15-746c992a9403">
            <path
               d="m 2.640625,0.09375 c 1.40625,0 2.34375,-1.015625 2.34375,-2.625 0,-1.609375 -0.9375,-2.625 -2.34375,-2.625 -1.390625,0 -2.34375,1.015625 -2.34375,2.625 0,1.609375 0.953125,2.625 2.34375,2.625 z m 0,-0.75 c -0.890625,0 -1.484375,-0.6875 -1.484375,-1.875 0,-1.1875 0.59375,-1.875 1.484375,-1.875 0.90625,0 1.484375,0.6875 1.484375,1.875 0,1.1875 -0.578125,1.875 -1.484375,1.875 z m 0,0"
               id="id-a749a447-e730-408c-a4fb-9ed70611ad0f" />
          </g>
          <g
             id="id-a683c3a6-c60e-4daa-a77e-65c14b9b1ab8">
            <path
               d="M 0.828125,-6.28125 V -5.0625 H 0.0625 v 0.703125 H 0.828125 V -1.3125 c 0,0.96875 0.359375,1.34375 1.28125,1.34375 0.203125,0 0.4375,0 0.53125,-0.03125 v -0.703125 c -0.046875,0 -0.25,0.015625 -0.34375,0.015625 -0.4375,0 -0.625,-0.203125 -0.625,-0.671875 v -3 H 2.65625 V -5.0625 H 1.671875 v -1.21875 z m 0,0"
               id="id-7964a1be-1ebc-4826-8c4d-974321220056" />
          </g>
          <g
             id="id-de0a059d-0090-47a1-a835-b38dadab9bcb">
            <path
               d="m 0.546875,0 h 0.84375 v -2.984375 c 0,-0.84375 0.53125,-1.421875 1.328125,-1.421875 0.78125,0 1.15625,0.453125 1.15625,1.265625 V 0 h 0.84375 v -3.28125 c 0,-1.15625 -0.640625,-1.875 -1.75,-1.875 -0.78125,0 -1.3125,0.359375 -1.59375,0.90625 H 1.34375 V -5.0625 H 0.546875 Z m 0,0"
               id="id-ad9e0224-c8df-4cb3-b36e-9d0047bd0cd1" />
          </g>
        </g>
      </defs>
      <g
         fill="#000000"
         fill-opacity="1"
         id="id-717e5133-d042-4853-9701-0030ec70bc0b"
         transform="translate(-287.158,-127.734)"
         style="fill:#404040;fill-opacity:1">
        <g
           transform="translate(286.861,134.765)"
           id="g4390"
           style="fill:#404040;fill-opacity:1">
          <path
             d="m 4.75,-3.40625 c -0.09375,-0.90625 -0.859375,-1.75 -2.125,-1.75 -1.390625,0 -2.328125,1.03125 -2.328125,2.625 0,1.625 0.9375,2.625 2.34375,2.625 1.140625,0 2,-0.71875 2.125,-1.71875 H 3.9375 c -0.15625,0.609375 -0.609375,0.96875 -1.296875,0.96875 -0.875,0 -1.484375,-0.703125 -1.484375,-1.875 0,-1.15625 0.59375,-1.875 1.484375,-1.875 0.734375,0 1.171875,0.453125 1.28125,1 z m 0,0"
             id="id-7500dc91-bcbd-4112-99c2-1104b0a3d831"
             style="fill:#404040;fill-opacity:1" />
        </g>
        <g
           transform="translate(291.852,134.765)"
           id="g2221"
           style="fill:#404040;fill-opacity:1">
          <path
             d="M 0.59375,0 H 1.4375 v -2.953125 c 0,-0.875 0.53125,-1.453125 1.359375,-1.453125 C 3.59375,-4.40625 4,-3.921875 4,-3.109375 V 0 H 4.84375 V -3.265625 C 4.84375,-4.40625 4.171875,-5.15625 3.0625,-5.15625 2.296875,-5.15625 1.75,-4.8125 1.453125,-4.25 H 1.4375 V -7.03125 H 0.59375 Z m 0,0"
             id="id-bd3c1cd6-b13f-4888-91bc-3e085d87a8ff"
             style="fill:#404040;fill-opacity:1" />
        </g>
        <g
           transform="translate(297.222,134.765)"
           id="g8179"
           style="fill:#404040;fill-opacity:1">
          <path
             d="m 2.578125,-4.421875 c 0.796875,0 1.328125,0.609375 1.34375,1.453125 h -2.75 c 0.0625,-0.84375 0.609375,-1.453125 1.40625,-1.453125 z m 1.328125,2.96875 c -0.140625,0.484375 -0.609375,0.8125 -1.25,0.8125 C 1.75,-0.640625 1.171875,-1.28125 1.171875,-2.25 v -0.046875 h 3.625 V -2.625 c 0,-1.53125 -0.828125,-2.53125 -2.203125,-2.53125 -1.390625,0 -2.296875,1.078125 -2.296875,2.640625 0,1.59375 0.890625,2.609375 2.34375,2.609375 1.09375,0 1.953125,-0.65625 2.09375,-1.546875 z m 0,0"
             id="id-28561380-66fd-460b-9d2f-6ae5dd0812b6"
             style="fill:#404040;fill-opacity:1" />
        </g>
        <g
           transform="translate(302.323,134.765)"
           id="g6275"
           style="fill:#404040;fill-opacity:1">
          <path
             d="m 0.546875,0 h 0.84375 v -3.171875 c 0,-0.703125 0.5,-1.234375 1.171875,-1.234375 0.625,0 1.03125,0.40625 1.03125,1.015625 V 0 H 4.4375 v -3.21875 c 0,-0.6875 0.46875,-1.1875 1.140625,-1.1875 0.671875,0 1.0625,0.421875 1.0625,1.109375 V 0 h 0.84375 v -3.5 c 0,-1 -0.65625,-1.65625 -1.65625,-1.65625 C 5.125,-5.15625 4.53125,-4.796875 4.25,-4.1875 H 4.21875 C 4,-4.796875 3.5,-5.15625 2.796875,-5.15625 2.125,-5.15625 1.609375,-4.796875 1.375,-4.25 H 1.34375 V -5.0625 H 0.546875 Z m 0,0"
             id="id-7976cfad-8727-49fd-96a4-76d4528b9d4d"
             style="fill:#404040;fill-opacity:1" />
        </g>
        <g
           transform="translate(310.323,134.765)"
           id="g3817"
           style="fill:#404040;fill-opacity:1">
          <path
             d="M 0.59375,0 H 1.4375 V -5.0625 H 0.59375 Z m 0.421875,-5.921875 c 0.296875,0 0.53125,-0.234375 0.53125,-0.515625 0,-0.296875 -0.234375,-0.53125 -0.53125,-0.53125 -0.28125,0 -0.53125,0.234375 -0.53125,0.53125 0,0.28125 0.25,0.515625 0.53125,0.515625 z m 0,0"
             id="id-1d4e0e4a-e79b-44b3-ab53-b04d5137dfb3"
             style="fill:#404040;fill-opacity:1" />
        </g>
        <g
           transform="translate(312.355,134.765)"
           id="g5557"
           style="fill:#404040;fill-opacity:1">
          <path
             d="m 4.75,-3.40625 c -0.09375,-0.90625 -0.859375,-1.75 -2.125,-1.75 -1.390625,0 -2.328125,1.03125 -2.328125,2.625 0,1.625 0.9375,2.625 2.34375,2.625 1.140625,0 2,-0.71875 2.125,-1.71875 H 3.9375 c -0.15625,0.609375 -0.609375,0.96875 -1.296875,0.96875 -0.875,0 -1.484375,-0.703125 -1.484375,-1.875 0,-1.15625 0.59375,-1.875 1.484375,-1.875 0.734375,0 1.171875,0.453125 1.28125,1 z m 0,0"
             id="id-f1c25547-af61-4ffb-8247-f4689ae0ff2d"
             style="fill:#404040;fill-opacity:1" />
        </g>
        <g
           transform="translate(317.347,134.765)"
           id="g1117"
           style="fill:#404040;fill-opacity:1">
          <path
             d="m 2.21875,-0.625 c -0.609375,0 -1.015625,-0.328125 -1.015625,-0.8125 0,-0.46875 0.390625,-0.765625 1.078125,-0.8125 L 3.625,-2.34375 v 0.421875 C 3.625,-1.1875 3.015625,-0.625 2.21875,-0.625 Z m -0.1875,0.71875 c 0.6875,0 1.328125,-0.390625 1.625,-0.96875 H 3.671875 V 0 h 0.8125 v -3.5 c 0,-1 -0.75,-1.65625 -1.9375,-1.65625 -1.203125,0 -1.953125,0.671875 -2.015625,1.546875 H 1.359375 C 1.453125,-4.09375 1.875,-4.40625 2.515625,-4.40625 c 0.703125,0 1.109375,0.375 1.109375,0.984375 V -3 l -1.4375,0.09375 c -1.171875,0.0625 -1.84375,0.609375 -1.84375,1.46875 0,0.921875 0.671875,1.53125 1.6875,1.53125 z m 0,0"
             id="id-65726845-b494-4dff-a535-b83ed7c8c9eb"
             style="fill:#404040;fill-opacity:1" />
        </g>
        <g
           transform="translate(322.348,134.765)"
           id="g2095"
           style="fill:#404040;fill-opacity:1">
          <path
             d="M 0.59375,0 H 1.4375 V -7.03125 H 0.59375 Z m 0,0"
             id="id-6620b4f3-9df1-4c2c-b0eb-f72f92338b32"
             style="fill:#404040;fill-opacity:1" />
        </g>
      </g>
      <g
         fill="#000000"
         fill-opacity="1"
         id="id-cab5b573-564c-4211-86b2-61738dce4ab4"
         transform="translate(-287.158,-127.734)"
         style="fill:#404040;fill-opacity:1">
        <g
           transform="translate(287.606,146.72)"
           id="g6794"
           style="fill:#404040;fill-opacity:1">
          <path
             d="m 3.015625,-5.15625 c -0.75,0 -1.328125,0.375 -1.640625,0.953125 H 1.359375 V -5.0625 h -0.8125 v 6.75 h 0.84375 v -2.515625 h 0.03125 c 0.296875,0.5625 0.875,0.921875 1.609375,0.921875 1.265625,0 2.140625,-1.03125 2.140625,-2.625 0,-1.59375 -0.875,-2.625 -2.15625,-2.625 z m -0.171875,4.5 c -0.875,0 -1.453125,-0.75 -1.453125,-1.875 0,-1.125 0.578125,-1.875 1.453125,-1.875 0.90625,0 1.46875,0.734375 1.46875,1.875 0,1.15625 -0.5625,1.875 -1.46875,1.875 z m 0,0"
             id="id-1855172d-ad97-40b8-ad03-15048c7adcf7"
             style="fill:#404040;fill-opacity:1" />
        </g>
        <g
           transform="translate(293.075,146.72)"
           id="g416"
           style="fill:#404040;fill-opacity:1">
          <path
             d="m 2.640625,0.09375 c 1.40625,0 2.34375,-1.015625 2.34375,-2.625 0,-1.609375 -0.9375,-2.625 -2.34375,-2.625 -1.390625,0 -2.34375,1.015625 -2.34375,2.625 0,1.609375 0.953125,2.625 2.34375,2.625 z m 0,-0.75 c -0.890625,0 -1.484375,-0.6875 -1.484375,-1.875 0,-1.1875 0.59375,-1.875 1.484375,-1.875 0.90625,0 1.484375,0.6875 1.484375,1.875 0,1.1875 -0.578125,1.875 -1.484375,1.875 z m 0,0"
             id="id-de2acaae-1f5c-4d77-b98e-dfd1df747be2"
             style="fill:#404040;fill-opacity:1" />
        </g>
        <g
           transform="translate(298.366,146.72)"
           id="g6159"
           style="fill:#404040;fill-opacity:1">
          <path
             d="M 0.828125,-6.28125 V -5.0625 H 0.0625 v 0.703125 H 0.828125 V -1.3125 c 0,0.96875 0.359375,1.34375 1.28125,1.34375 0.203125,0 0.4375,0 0.53125,-0.03125 v -0.703125 c -0.046875,0 -0.25,0.015625 -0.34375,0.015625 -0.4375,0 -0.625,-0.203125 -0.625,-0.671875 v -3 H 2.65625 V -5.0625 H 1.671875 v -1.21875 z m 0,0"
             id="id-d2e354f7-e85a-4243-8c3e-5f281a8cddee"
             style="fill:#404040;fill-opacity:1" />
        </g>
      </g>
      <g
         fill="#000000"
         fill-opacity="1"
         id="id-75b0581e-fa15-4659-893d-29e3a663bf39"
         transform="translate(-287.158,-127.734)"
         style="fill:#404040;fill-opacity:1">
        <g
           transform="translate(301.225,146.72)"
           id="g3553"
           style="fill:#404040;fill-opacity:1">
          <path
             d="m 2.578125,-4.421875 c 0.796875,0 1.328125,0.609375 1.34375,1.453125 h -2.75 c 0.0625,-0.84375 0.609375,-1.453125 1.40625,-1.453125 z m 1.328125,2.96875 c -0.140625,0.484375 -0.609375,0.8125 -1.25,0.8125 C 1.75,-0.640625 1.171875,-1.28125 1.171875,-2.25 v -0.046875 h 3.625 V -2.625 c 0,-1.53125 -0.828125,-2.53125 -2.203125,-2.53125 -1.390625,0 -2.296875,1.078125 -2.296875,2.640625 0,1.59375 0.890625,2.609375 2.34375,2.609375 1.09375,0 1.953125,-0.65625 2.09375,-1.546875 z m 0,0"
             id="id-94554035-739c-4f66-b93f-bce3e3018b93"
             style="fill:#404040;fill-opacity:1" />
        </g>
        <g
           transform="translate(306.326,146.72)"
           id="g9575"
           style="fill:#404040;fill-opacity:1">
          <path
             d="m 0.546875,0 h 0.84375 v -2.984375 c 0,-0.84375 0.53125,-1.421875 1.328125,-1.421875 0.78125,0 1.15625,0.453125 1.15625,1.265625 V 0 h 0.84375 v -3.28125 c 0,-1.15625 -0.640625,-1.875 -1.75,-1.875 -0.78125,0 -1.3125,0.359375 -1.59375,0.90625 H 1.34375 V -5.0625 H 0.546875 Z m 0,0"
             id="id-be8dcdf1-dafd-4617-a174-a3a69446f715"
             style="fill:#404040;fill-opacity:1" />
        </g>
        <g
           transform="translate(311.576,146.72)"
           id="g4256"
           style="fill:#404040;fill-opacity:1">
          <path
             d="M 0.828125,-6.28125 V -5.0625 H 0.0625 v 0.703125 H 0.828125 V -1.3125 c 0,0.96875 0.359375,1.34375 1.28125,1.34375 0.203125,0 0.4375,0 0.53125,-0.03125 v -0.703125 c -0.046875,0 -0.25,0.015625 -0.34375,0.015625 -0.4375,0 -0.625,-0.203125 -0.625,-0.671875 v -3 H 2.65625 V -5.0625 H 1.671875 v -1.21875 z m 0,0"
             id="id-094b9c24-c7d2-4e8a-ba6e-34278ef09223"
             style="fill:#404040;fill-opacity:1" />
        </g>
        <g
           transform="translate(314.575,146.72)"
           id="g1803"
           style="fill:#404040;fill-opacity:1">
          <path
             d="M 0.59375,0 H 1.4375 V -5.0625 H 0.59375 Z m 0.421875,-5.921875 c 0.296875,0 0.53125,-0.234375 0.53125,-0.515625 0,-0.296875 -0.234375,-0.53125 -0.53125,-0.53125 -0.28125,0 -0.53125,0.234375 -0.53125,0.53125 0,0.28125 0.25,0.515625 0.53125,0.515625 z m 0,0"
             id="id-04335f69-2b93-437d-8edf-6db4bd90e181"
             style="fill:#404040;fill-opacity:1" />
        </g>
        <g
           transform="translate(316.607,146.72)"
           id="g3564"
           style="fill:#404040;fill-opacity:1">
          <path
             d="m 2.21875,-0.625 c -0.609375,0 -1.015625,-0.328125 -1.015625,-0.8125 0,-0.46875 0.390625,-0.765625 1.078125,-0.8125 L 3.625,-2.34375 v 0.421875 C 3.625,-1.1875 3.015625,-0.625 2.21875,-0.625 Z m -0.1875,0.71875 c 0.6875,0 1.328125,-0.390625 1.625,-0.96875 H 3.671875 V 0 h 0.8125 v -3.5 c 0,-1 -0.75,-1.65625 -1.9375,-1.65625 -1.203125,0 -1.953125,0.671875 -2.015625,1.546875 H 1.359375 C 1.453125,-4.09375 1.875,-4.40625 2.515625,-4.40625 c 0.703125,0 1.109375,0.375 1.109375,0.984375 V -3 l -1.4375,0.09375 c -1.171875,0.0625 -1.84375,0.609375 -1.84375,1.46875 0,0.921875 0.671875,1.53125 1.6875,1.53125 z m 0,0"
             id="id-e36b266f-bfb8-4107-9919-ac532dd69b93"
             style="fill:#404040;fill-opacity:1" />
        </g>
        <g
           transform="translate(321.608,146.72)"
           id="g4915"
           style="fill:#404040;fill-opacity:1">
          <path
             d="M 0.59375,0 H 1.4375 V -7.03125 H 0.59375 Z m 0,0"
             id="id-7fa9b796-aa77-46a7-8188-cce68f9160a6"
             style="fill:#404040;fill-opacity:1" />
        </g>
      </g>
    </g>
    <g
       transform="matrix(0.571038,0,0,0.571038,85.245933,78.5233)"
       ns1:version="1.10.2"
       ns1:texconverter="xelatex"
       ns1:pdfconverter="inkscape"
       ns1:text="\\centering\nLandau\\\\\nlevels"
       ns1:preamble="/home/storage/.config/inkscape/extensions/textext/default_packages.tex"
       ns1:scale="1.618688695316071"
       ns1:alignment="middle center"
       ns1:stroke-to-path="0"
       ns1:inkscapeversion="1.3.2"
       id="g7851"
       ns1:jacobian_sqrt="0.571038"
       style="fill:#404040;fill-opacity:1;stroke-width:0">
      <defs
         id="id-1aa60a8f-1197-42e0-a31c-3743f0a2f6f9"
         style="fill:#404040;fill-opacity:1;stroke-width:0">
        <g
           id="id-385e665d-1b05-45f4-b178-ead9a9d973ae"
           style="fill:#404040;fill-opacity:1;stroke-width:0">
          <g
             id="id-07282ecf-6eed-424f-9fc2-ae70da169288"
             style="fill:#404040;fill-opacity:1;stroke-width:0">
            <path
               d="M 4.953125,-0.78125 H 1.5625 v -6.25 H 0.6875 V 0 h 4.265625 z m 0,0"
               id="id-29b36fdb-63bd-4ba9-b828-0ec2f27e8769"
               style="fill:#404040;fill-opacity:1;stroke-width:0" />
          </g>
          <g
             id="id-88c43cd3-6056-4055-a948-b6ad29b015c8"
             style="fill:#404040;fill-opacity:1;stroke-width:0">
            <path
               d="m 2.21875,-0.625 c -0.609375,0 -1.015625,-0.328125 -1.015625,-0.8125 0,-0.46875 0.390625,-0.765625 1.078125,-0.8125 L 3.625,-2.34375 v 0.421875 C 3.625,-1.1875 3.015625,-0.625 2.21875,-0.625 Z m -0.1875,0.71875 c 0.6875,0 1.328125,-0.390625 1.625,-0.96875 H 3.671875 V 0 h 0.8125 v -3.5 c 0,-1 -0.75,-1.65625 -1.9375,-1.65625 -1.203125,0 -1.953125,0.671875 -2.015625,1.546875 H 1.359375 C 1.453125,-4.09375 1.875,-4.40625 2.515625,-4.40625 c 0.703125,0 1.109375,0.375 1.109375,0.984375 V -3 l -1.4375,0.09375 c -1.171875,0.0625 -1.84375,0.609375 -1.84375,1.46875 0,0.921875 0.671875,1.53125 1.6875,1.53125 z m 0,0"
               id="id-3204db73-09ac-468e-81ea-67803a6f5ac8"
               style="fill:#404040;fill-opacity:1;stroke-width:0" />
          </g>
          <g
             id="id-d1bf18e3-5338-4c60-a311-b61d89cd26c3"
             style="fill:#404040;fill-opacity:1;stroke-width:0">
            <path
               d="m 0.546875,0 h 0.84375 v -2.984375 c 0,-0.84375 0.53125,-1.421875 1.328125,-1.421875 0.78125,0 1.15625,0.453125 1.15625,1.265625 V 0 h 0.84375 v -3.28125 c 0,-1.15625 -0.640625,-1.875 -1.75,-1.875 -0.78125,0 -1.3125,0.359375 -1.59375,0.90625 H 1.34375 V -5.0625 H 0.546875 Z m 0,0"
               id="id-304fa502-98f7-4175-b521-0b4c636937b5"
               style="fill:#404040;fill-opacity:1;stroke-width:0" />
          </g>
          <g
             id="id-5f027c3e-9916-406c-b702-2cb0a3aad0b2"
             style="fill:#404040;fill-opacity:1;stroke-width:0">
            <path
               d="m 2.46875,0.09375 c 0.734375,0 1.3125,-0.359375 1.640625,-0.953125 H 4.125 V 0 h 0.796875 v -7.03125 h -0.84375 v 2.796875 H 4.0625 C 3.75,-4.796875 3.171875,-5.15625 2.453125,-5.15625 c -1.28125,0 -2.15625,1.03125 -2.15625,2.625 0,1.59375 0.875,2.625 2.171875,2.625 z m 0.15625,-4.5 c 0.875,0 1.453125,0.75 1.453125,1.875 0,1.140625 -0.578125,1.875 -1.453125,1.875 -0.890625,0 -1.453125,-0.71875 -1.453125,-1.875 0,-1.140625 0.5625,-1.875 1.453125,-1.875 z m 0,0"
               id="id-084d61fb-87e1-4592-8c11-f56542affe74"
               style="fill:#404040;fill-opacity:1;stroke-width:0" />
          </g>
          <g
             id="id-37a9c41d-1477-43a7-a4ab-e6e9ec431e1c"
             style="fill:#404040;fill-opacity:1;stroke-width:0">
            <path
               d="m 4.703125,-5.0625 h -0.84375 v 2.96875 c 0,0.859375 -0.5,1.4375 -1.3125,1.4375 C 1.75,-0.65625 1.375,-1.109375 1.375,-1.921875 V -5.0625 H 0.53125 v 3.28125 c 0,1.15625 0.640625,1.875 1.75,1.875 0.78125,0 1.296875,-0.328125 1.609375,-0.921875 H 3.90625 V 0 h 0.796875 z m 0,0"
               id="id-7f686d0b-6cff-440a-b6fc-15e04d5f5444"
               style="fill:#404040;fill-opacity:1;stroke-width:0" />
          </g>
          <g
             id="id-4c46cc7e-d4bc-4569-b9d3-270ea3ec27e7"
             style="fill:#404040;fill-opacity:1;stroke-width:0">
            <path
               d="M 0.59375,0 H 1.4375 V -7.03125 H 0.59375 Z m 0,0"
               id="id-2b7af1ec-b3e2-401a-9826-a724254ad619"
               style="fill:#404040;fill-opacity:1;stroke-width:0" />
          </g>
          <g
             id="id-e04b64c9-b877-42c9-8212-ed6ba765e301"
             style="fill:#404040;fill-opacity:1;stroke-width:0">
            <path
               d="m 2.578125,-4.421875 c 0.796875,0 1.328125,0.609375 1.34375,1.453125 h -2.75 c 0.0625,-0.84375 0.609375,-1.453125 1.40625,-1.453125 z m 1.328125,2.96875 c -0.140625,0.484375 -0.609375,0.8125 -1.25,0.8125 C 1.75,-0.640625 1.171875,-1.28125 1.171875,-2.25 v -0.046875 h 3.625 V -2.625 c 0,-1.53125 -0.828125,-2.53125 -2.203125,-2.53125 -1.390625,0 -2.296875,1.078125 -2.296875,2.640625 0,1.59375 0.890625,2.609375 2.34375,2.609375 1.09375,0 1.953125,-0.65625 2.09375,-1.546875 z m 0,0"
               id="id-1283af03-fc2f-4c0a-b995-97e46568c4ba"
               style="fill:#404040;fill-opacity:1;stroke-width:0" />
          </g>
          <g
             id="id-2558ae56-986a-402b-8821-bb789e130c8e"
             style="fill:#404040;fill-opacity:1;stroke-width:0">
            <path
               d="m 4.703125,-5.0625 h -0.875 l -1.40625,4.15625 H 2.40625 L 1,-5.0625 H 0.109375 L 1.96875,0 h 0.875 z m 0,0"
               id="id-846e288a-4be6-42f1-b541-7af409d6bde3"
               style="fill:#404040;fill-opacity:1;stroke-width:0" />
          </g>
          <g
             id="id-d7102e8f-83db-460e-881e-252b64c890b9"
             style="fill:#404040;fill-opacity:1;stroke-width:0">
            <path
               d="m 0.46875,-3.671875 c 0,0.703125 0.4375,1.15625 1.328125,1.390625 L 2.6875,-2.0625 c 0.5625,0.15625 0.765625,0.34375 0.765625,0.703125 0,0.46875 -0.421875,0.75 -1.109375,0.75 -0.671875,0 -1.078125,-0.28125 -1.171875,-0.796875 h -0.84375 c 0.078125,0.890625 0.859375,1.5 1.96875,1.5 1.1875,0 2.015625,-0.625 2.015625,-1.515625 0,-0.734375 -0.375,-1.109375 -1.390625,-1.375 l -0.78125,-0.1875 c -0.578125,-0.140625 -0.84375,-0.375 -0.84375,-0.71875 0,-0.453125 0.40625,-0.75 1.03125,-0.75 0.609375,0 1.015625,0.296875 1.0625,0.78125 h 0.8125 C 4.171875,-4.53125 3.390625,-5.15625 2.34375,-5.15625 c -1.109375,0 -1.875,0.625 -1.875,1.484375 z m 0,0"
               id="id-2009ed66-b4a6-48cb-8aad-790ae6377657"
               style="fill:#404040;fill-opacity:1;stroke-width:0" />
          </g>
        </g>
      </defs>
      <g
         fill-opacity="1"
         id="id-5ccda6fe-22f7-4db7-8202-077badefeace"
         transform="translate(-290.692,-127.734)"
         style="fill:#404040;fill-opacity:1;stroke-width:0">
        <g
           transform="translate(290.004,134.765)"
           id="g8668"
           style="fill:#404040;fill-opacity:1;stroke-width:0">
          <path
             d="M 4.953125,-0.78125 H 1.5625 v -6.25 H 0.6875 V 0 h 4.265625 z m 0,0"
             id="id-9ee11420-890d-46d8-b9f5-bd1d75ba88fb"
             style="fill:#404040;fill-opacity:1;stroke-width:0" />
        </g>
        <g
           transform="translate(295.224,134.765)"
           id="g9583"
           style="fill:#404040;fill-opacity:1;stroke-width:0">
          <path
             d="m 2.21875,-0.625 c -0.609375,0 -1.015625,-0.328125 -1.015625,-0.8125 0,-0.46875 0.390625,-0.765625 1.078125,-0.8125 L 3.625,-2.34375 v 0.421875 C 3.625,-1.1875 3.015625,-0.625 2.21875,-0.625 Z m -0.1875,0.71875 c 0.6875,0 1.328125,-0.390625 1.625,-0.96875 H 3.671875 V 0 h 0.8125 v -3.5 c 0,-1 -0.75,-1.65625 -1.9375,-1.65625 -1.203125,0 -1.953125,0.671875 -2.015625,1.546875 H 1.359375 C 1.453125,-4.09375 1.875,-4.40625 2.515625,-4.40625 c 0.703125,0 1.109375,0.375 1.109375,0.984375 V -3 l -1.4375,0.09375 c -1.171875,0.0625 -1.84375,0.609375 -1.84375,1.46875 0,0.921875 0.671875,1.53125 1.6875,1.53125 z m 0,0"
             id="id-f82f7277-26fb-4933-89f8-20f65992181f"
             style="fill:#404040;fill-opacity:1;stroke-width:0" />
        </g>
        <g
           transform="translate(300.226,134.765)"
           id="g8688"
           style="fill:#404040;fill-opacity:1;stroke-width:0">
          <path
             d="m 0.546875,0 h 0.84375 v -2.984375 c 0,-0.84375 0.53125,-1.421875 1.328125,-1.421875 0.78125,0 1.15625,0.453125 1.15625,1.265625 V 0 h 0.84375 v -3.28125 c 0,-1.15625 -0.640625,-1.875 -1.75,-1.875 -0.78125,0 -1.3125,0.359375 -1.59375,0.90625 H 1.34375 V -5.0625 H 0.546875 Z m 0,0"
             id="id-0491671b-839d-496b-98a2-d7e2ff98b004"
             style="fill:#404040;fill-opacity:1;stroke-width:0" />
        </g>
        <g
           transform="translate(305.476,134.765)"
           id="g4030"
           style="fill:#404040;fill-opacity:1;stroke-width:0">
          <path
             d="m 2.46875,0.09375 c 0.734375,0 1.3125,-0.359375 1.640625,-0.953125 H 4.125 V 0 h 0.796875 v -7.03125 h -0.84375 v 2.796875 H 4.0625 C 3.75,-4.796875 3.171875,-5.15625 2.453125,-5.15625 c -1.28125,0 -2.15625,1.03125 -2.15625,2.625 0,1.59375 0.875,2.625 2.171875,2.625 z m 0.15625,-4.5 c 0.875,0 1.453125,0.75 1.453125,1.875 0,1.140625 -0.578125,1.875 -1.453125,1.875 -0.890625,0 -1.453125,-0.71875 -1.453125,-1.875 0,-1.140625 0.5625,-1.875 1.453125,-1.875 z m 0,0"
             id="id-c2f49833-af25-4fe5-ab47-afa5ce48edd3"
             style="fill:#404040;fill-opacity:1;stroke-width:0" />
        </g>
        <g
           transform="translate(310.995,134.765)"
           id="g9435"
           style="fill:#404040;fill-opacity:1;stroke-width:0">
          <path
             d="m 2.21875,-0.625 c -0.609375,0 -1.015625,-0.328125 -1.015625,-0.8125 0,-0.46875 0.390625,-0.765625 1.078125,-0.8125 L 3.625,-2.34375 v 0.421875 C 3.625,-1.1875 3.015625,-0.625 2.21875,-0.625 Z m -0.1875,0.71875 c 0.6875,0 1.328125,-0.390625 1.625,-0.96875 H 3.671875 V 0 h 0.8125 v -3.5 c 0,-1 -0.75,-1.65625 -1.9375,-1.65625 -1.203125,0 -1.953125,0.671875 -2.015625,1.546875 H 1.359375 C 1.453125,-4.09375 1.875,-4.40625 2.515625,-4.40625 c 0.703125,0 1.109375,0.375 1.109375,0.984375 V -3 l -1.4375,0.09375 c -1.171875,0.0625 -1.84375,0.609375 -1.84375,1.46875 0,0.921875 0.671875,1.53125 1.6875,1.53125 z m 0,0"
             id="id-9c63e2c8-7d39-400b-9914-c428b6c22b9e"
             style="fill:#404040;fill-opacity:1;stroke-width:0" />
        </g>
        <g
           transform="translate(315.996,134.765)"
           id="g1575"
           style="fill:#404040;fill-opacity:1;stroke-width:0">
          <path
             d="m 4.703125,-5.0625 h -0.84375 v 2.96875 c 0,0.859375 -0.5,1.4375 -1.3125,1.4375 C 1.75,-0.65625 1.375,-1.109375 1.375,-1.921875 V -5.0625 H 0.53125 v 3.28125 c 0,1.15625 0.640625,1.875 1.75,1.875 0.78125,0 1.296875,-0.328125 1.609375,-0.921875 H 3.90625 V 0 h 0.796875 z m 0,0"
             id="id-11988307-5454-4d7a-a974-8e8354197396"
             style="fill:#404040;fill-opacity:1;stroke-width:0" />
        </g>
      </g>
      <g
         fill-opacity="1"
         id="id-46d56b0a-dc2b-4021-b19e-1cd4a0226e79"
         transform="translate(-290.692,-127.734)"
         style="fill:#404040;fill-opacity:1;stroke-width:0">
        <g
           transform="translate(293.837,146.72)"
           id="g8832"
           style="fill:#404040;fill-opacity:1;stroke-width:0">
          <path
             d="M 0.59375,0 H 1.4375 V -7.03125 H 0.59375 Z m 0,0"
             id="id-2a30e0c0-c843-4aeb-8d6a-0cf0d823b42e"
             style="fill:#404040;fill-opacity:1;stroke-width:0" />
        </g>
        <g
           transform="translate(295.869,146.72)"
           id="g9058"
           style="fill:#404040;fill-opacity:1;stroke-width:0">
          <path
             d="m 2.578125,-4.421875 c 0.796875,0 1.328125,0.609375 1.34375,1.453125 h -2.75 c 0.0625,-0.84375 0.609375,-1.453125 1.40625,-1.453125 z m 1.328125,2.96875 c -0.140625,0.484375 -0.609375,0.8125 -1.25,0.8125 C 1.75,-0.640625 1.171875,-1.28125 1.171875,-2.25 v -0.046875 h 3.625 V -2.625 c 0,-1.53125 -0.828125,-2.53125 -2.203125,-2.53125 -1.390625,0 -2.296875,1.078125 -2.296875,2.640625 0,1.59375 0.890625,2.609375 2.34375,2.609375 1.09375,0 1.953125,-0.65625 2.09375,-1.546875 z m 0,0"
             id="id-dc7449d5-d3ac-44eb-8d1f-667b6fc3ac75"
             style="fill:#404040;fill-opacity:1;stroke-width:0" />
        </g>
        <g
           transform="translate(300.97,146.72)"
           id="g4517"
           style="fill:#404040;fill-opacity:1;stroke-width:0">
          <path
             d="m 4.703125,-5.0625 h -0.875 l -1.40625,4.15625 H 2.40625 L 1,-5.0625 H 0.109375 L 1.96875,0 h 0.875 z m 0,0"
             id="id-b825f9c1-1bdc-4bbb-b3c7-164e0728af2b"
             style="fill:#404040;fill-opacity:1;stroke-width:0" />
        </g>
      </g>
      <g
         fill-opacity="1"
         id="id-d9837187-e9b0-44cd-92d5-459b7bdc4073"
         transform="translate(-290.692,-127.734)"
         style="fill:#404040;fill-opacity:1;stroke-width:0">
        <g
           transform="translate(305.643,146.72)"
           id="g5502"
           style="fill:#404040;fill-opacity:1;stroke-width:0">
          <path
             d="m 2.578125,-4.421875 c 0.796875,0 1.328125,0.609375 1.34375,1.453125 h -2.75 c 0.0625,-0.84375 0.609375,-1.453125 1.40625,-1.453125 z m 1.328125,2.96875 c -0.140625,0.484375 -0.609375,0.8125 -1.25,0.8125 C 1.75,-0.640625 1.171875,-1.28125 1.171875,-2.25 v -0.046875 h 3.625 V -2.625 c 0,-1.53125 -0.828125,-2.53125 -2.203125,-2.53125 -1.390625,0 -2.296875,1.078125 -2.296875,2.640625 0,1.59375 0.890625,2.609375 2.34375,2.609375 1.09375,0 1.953125,-0.65625 2.09375,-1.546875 z m 0,0"
             id="id-746660b8-d5f5-4b70-9528-269d22258f87"
             style="fill:#404040;fill-opacity:1;stroke-width:0" />
        </g>
        <g
           transform="translate(310.744,146.72)"
           id="g6309"
           style="fill:#404040;fill-opacity:1;stroke-width:0">
          <path
             d="M 0.59375,0 H 1.4375 V -7.03125 H 0.59375 Z m 0,0"
             id="id-51c4d51d-d0a6-40d9-b5c8-020fcc9b140d"
             style="fill:#404040;fill-opacity:1;stroke-width:0" />
        </g>
        <g
           transform="translate(312.776,146.72)"
           id="g6083"
           style="fill:#404040;fill-opacity:1;stroke-width:0">
          <path
             d="m 0.46875,-3.671875 c 0,0.703125 0.4375,1.15625 1.328125,1.390625 L 2.6875,-2.0625 c 0.5625,0.15625 0.765625,0.34375 0.765625,0.703125 0,0.46875 -0.421875,0.75 -1.109375,0.75 -0.671875,0 -1.078125,-0.28125 -1.171875,-0.796875 h -0.84375 c 0.078125,0.890625 0.859375,1.5 1.96875,1.5 1.1875,0 2.015625,-0.625 2.015625,-1.515625 0,-0.734375 -0.375,-1.109375 -1.390625,-1.375 l -0.78125,-0.1875 c -0.578125,-0.140625 -0.84375,-0.375 -0.84375,-0.71875 0,-0.453125 0.40625,-0.75 1.03125,-0.75 0.609375,0 1.015625,0.296875 1.0625,0.78125 h 0.8125 C 4.171875,-4.53125 3.390625,-5.15625 2.34375,-5.15625 c -1.109375,0 -1.875,0.625 -1.875,1.484375 z m 0,0"
             id="id-a0369fb3-b01e-4c7a-89ea-23f25a56c9e0"
             style="fill:#404040;fill-opacity:1;stroke-width:0" />
        </g>
      </g>
    </g>
    <g
       transform="matrix(0.571038,0,0,0.571038,85.245933,115.56497)"
       ns1:version="1.10.2"
       ns1:texconverter="xelatex"
       ns1:pdfconverter="inkscape"
       ns1:text="\\centering\nLandau\\\\\nlevels"
       ns1:preamble="/home/storage/.config/inkscape/extensions/textext/default_packages.tex"
       ns1:scale="1.618688695316071"
       ns1:alignment="middle center"
       ns1:stroke-to-path="0"
       ns1:inkscapeversion="1.3.2"
       id="g132"
       ns1:jacobian_sqrt="0.571038"
       style="fill:#404040;fill-opacity:1;stroke-width:0">
      <defs
         id="defs116"
         style="fill:#404040;fill-opacity:1;stroke-width:0">
        <g
           id="g116"
           style="fill:#404040;fill-opacity:1;stroke-width:0">
          <g
             id="g107"
             style="fill:#404040;fill-opacity:1;stroke-width:0">
            <path
               d="M 4.953125,-0.78125 H 1.5625 v -6.25 H 0.6875 V 0 h 4.265625 z m 0,0"
               id="path106"
               style="fill:#404040;fill-opacity:1;stroke-width:0" />
          </g>
          <g
             id="g108"
             style="fill:#404040;fill-opacity:1;stroke-width:0">
            <path
               d="m 2.21875,-0.625 c -0.609375,0 -1.015625,-0.328125 -1.015625,-0.8125 0,-0.46875 0.390625,-0.765625 1.078125,-0.8125 L 3.625,-2.34375 v 0.421875 C 3.625,-1.1875 3.015625,-0.625 2.21875,-0.625 Z m -0.1875,0.71875 c 0.6875,0 1.328125,-0.390625 1.625,-0.96875 H 3.671875 V 0 h 0.8125 v -3.5 c 0,-1 -0.75,-1.65625 -1.9375,-1.65625 -1.203125,0 -1.953125,0.671875 -2.015625,1.546875 H 1.359375 C 1.453125,-4.09375 1.875,-4.40625 2.515625,-4.40625 c 0.703125,0 1.109375,0.375 1.109375,0.984375 V -3 l -1.4375,0.09375 c -1.171875,0.0625 -1.84375,0.609375 -1.84375,1.46875 0,0.921875 0.671875,1.53125 1.6875,1.53125 z m 0,0"
               id="path107"
               style="fill:#404040;fill-opacity:1;stroke-width:0" />
          </g>
          <g
             id="g109"
             style="fill:#404040;fill-opacity:1;stroke-width:0">
            <path
               d="m 0.546875,0 h 0.84375 v -2.984375 c 0,-0.84375 0.53125,-1.421875 1.328125,-1.421875 0.78125,0 1.15625,0.453125 1.15625,1.265625 V 0 h 0.84375 v -3.28125 c 0,-1.15625 -0.640625,-1.875 -1.75,-1.875 -0.78125,0 -1.3125,0.359375 -1.59375,0.90625 H 1.34375 V -5.0625 H 0.546875 Z m 0,0"
               id="path108"
               style="fill:#404040;fill-opacity:1;stroke-width:0" />
          </g>
          <g
             id="g110"
             style="fill:#404040;fill-opacity:1;stroke-width:0">
            <path
               d="m 2.46875,0.09375 c 0.734375,0 1.3125,-0.359375 1.640625,-0.953125 H 4.125 V 0 h 0.796875 v -7.03125 h -0.84375 v 2.796875 H 4.0625 C 3.75,-4.796875 3.171875,-5.15625 2.453125,-5.15625 c -1.28125,0 -2.15625,1.03125 -2.15625,2.625 0,1.59375 0.875,2.625 2.171875,2.625 z m 0.15625,-4.5 c 0.875,0 1.453125,0.75 1.453125,1.875 0,1.140625 -0.578125,1.875 -1.453125,1.875 -0.890625,0 -1.453125,-0.71875 -1.453125,-1.875 0,-1.140625 0.5625,-1.875 1.453125,-1.875 z m 0,0"
               id="path109"
               style="fill:#404040;fill-opacity:1;stroke-width:0" />
          </g>
          <g
             id="g111"
             style="fill:#404040;fill-opacity:1;stroke-width:0">
            <path
               d="m 4.703125,-5.0625 h -0.84375 v 2.96875 c 0,0.859375 -0.5,1.4375 -1.3125,1.4375 C 1.75,-0.65625 1.375,-1.109375 1.375,-1.921875 V -5.0625 H 0.53125 v 3.28125 c 0,1.15625 0.640625,1.875 1.75,1.875 0.78125,0 1.296875,-0.328125 1.609375,-0.921875 H 3.90625 V 0 h 0.796875 z m 0,0"
               id="path110"
               style="fill:#404040;fill-opacity:1;stroke-width:0" />
          </g>
          <g
             id="g112"
             style="fill:#404040;fill-opacity:1;stroke-width:0">
            <path
               d="M 0.59375,0 H 1.4375 V -7.03125 H 0.59375 Z m 0,0"
               id="path111"
               style="fill:#404040;fill-opacity:1;stroke-width:0" />
          </g>
          <g
             id="g113"
             style="fill:#404040;fill-opacity:1;stroke-width:0">
            <path
               d="m 2.578125,-4.421875 c 0.796875,0 1.328125,0.609375 1.34375,1.453125 h -2.75 c 0.0625,-0.84375 0.609375,-1.453125 1.40625,-1.453125 z m 1.328125,2.96875 c -0.140625,0.484375 -0.609375,0.8125 -1.25,0.8125 C 1.75,-0.640625 1.171875,-1.28125 1.171875,-2.25 v -0.046875 h 3.625 V -2.625 c 0,-1.53125 -0.828125,-2.53125 -2.203125,-2.53125 -1.390625,0 -2.296875,1.078125 -2.296875,2.640625 0,1.59375 0.890625,2.609375 2.34375,2.609375 1.09375,0 1.953125,-0.65625 2.09375,-1.546875 z m 0,0"
               id="path112"
               style="fill:#404040;fill-opacity:1;stroke-width:0" />
          </g>
          <g
             id="g114"
             style="fill:#404040;fill-opacity:1;stroke-width:0">
            <path
               d="m 4.703125,-5.0625 h -0.875 l -1.40625,4.15625 H 2.40625 L 1,-5.0625 H 0.109375 L 1.96875,0 h 0.875 z m 0,0"
               id="path113"
               style="fill:#404040;fill-opacity:1;stroke-width:0" />
          </g>
          <g
             id="g115"
             style="fill:#404040;fill-opacity:1;stroke-width:0">
            <path
               d="m 0.46875,-3.671875 c 0,0.703125 0.4375,1.15625 1.328125,1.390625 L 2.6875,-2.0625 c 0.5625,0.15625 0.765625,0.34375 0.765625,0.703125 0,0.46875 -0.421875,0.75 -1.109375,0.75 -0.671875,0 -1.078125,-0.28125 -1.171875,-0.796875 h -0.84375 c 0.078125,0.890625 0.859375,1.5 1.96875,1.5 1.1875,0 2.015625,-0.625 2.015625,-1.515625 0,-0.734375 -0.375,-1.109375 -1.390625,-1.375 l -0.78125,-0.1875 c -0.578125,-0.140625 -0.84375,-0.375 -0.84375,-0.71875 0,-0.453125 0.40625,-0.75 1.03125,-0.75 0.609375,0 1.015625,0.296875 1.0625,0.78125 h 0.8125 C 4.171875,-4.53125 3.390625,-5.15625 2.34375,-5.15625 c -1.109375,0 -1.875,0.625 -1.875,1.484375 z m 0,0"
               id="path114"
               style="fill:#404040;fill-opacity:1;stroke-width:0" />
          </g>
        </g>
      </defs>
      <g
         fill-opacity="1"
         id="g123"
         transform="translate(-290.692,-127.734)"
         style="fill:#404040;fill-opacity:1;stroke-width:0">
        <g
           transform="translate(290.004,134.765)"
           id="g117"
           style="fill:#404040;fill-opacity:1;stroke-width:0">
          <path
             d="M 4.953125,-0.78125 H 1.5625 v -6.25 H 0.6875 V 0 h 4.265625 z m 0,0"
             id="path116"
             style="fill:#404040;fill-opacity:1;stroke-width:0" />
        </g>
        <g
           transform="translate(295.224,134.765)"
           id="g118"
           style="fill:#404040;fill-opacity:1;stroke-width:0">
          <path
             d="m 2.21875,-0.625 c -0.609375,0 -1.015625,-0.328125 -1.015625,-0.8125 0,-0.46875 0.390625,-0.765625 1.078125,-0.8125 L 3.625,-2.34375 v 0.421875 C 3.625,-1.1875 3.015625,-0.625 2.21875,-0.625 Z m -0.1875,0.71875 c 0.6875,0 1.328125,-0.390625 1.625,-0.96875 H 3.671875 V 0 h 0.8125 v -3.5 c 0,-1 -0.75,-1.65625 -1.9375,-1.65625 -1.203125,0 -1.953125,0.671875 -2.015625,1.546875 H 1.359375 C 1.453125,-4.09375 1.875,-4.40625 2.515625,-4.40625 c 0.703125,0 1.109375,0.375 1.109375,0.984375 V -3 l -1.4375,0.09375 c -1.171875,0.0625 -1.84375,0.609375 -1.84375,1.46875 0,0.921875 0.671875,1.53125 1.6875,1.53125 z m 0,0"
             id="path117"
             style="fill:#404040;fill-opacity:1;stroke-width:0" />
        </g>
        <g
           transform="translate(300.226,134.765)"
           id="g119"
           style="fill:#404040;fill-opacity:1;stroke-width:0">
          <path
             d="m 0.546875,0 h 0.84375 v -2.984375 c 0,-0.84375 0.53125,-1.421875 1.328125,-1.421875 0.78125,0 1.15625,0.453125 1.15625,1.265625 V 0 h 0.84375 v -3.28125 c 0,-1.15625 -0.640625,-1.875 -1.75,-1.875 -0.78125,0 -1.3125,0.359375 -1.59375,0.90625 H 1.34375 V -5.0625 H 0.546875 Z m 0,0"
             id="path118"
             style="fill:#404040;fill-opacity:1;stroke-width:0" />
        </g>
        <g
           transform="translate(305.476,134.765)"
           id="g120"
           style="fill:#404040;fill-opacity:1;stroke-width:0">
          <path
             d="m 2.46875,0.09375 c 0.734375,0 1.3125,-0.359375 1.640625,-0.953125 H 4.125 V 0 h 0.796875 v -7.03125 h -0.84375 v 2.796875 H 4.0625 C 3.75,-4.796875 3.171875,-5.15625 2.453125,-5.15625 c -1.28125,0 -2.15625,1.03125 -2.15625,2.625 0,1.59375 0.875,2.625 2.171875,2.625 z m 0.15625,-4.5 c 0.875,0 1.453125,0.75 1.453125,1.875 0,1.140625 -0.578125,1.875 -1.453125,1.875 -0.890625,0 -1.453125,-0.71875 -1.453125,-1.875 0,-1.140625 0.5625,-1.875 1.453125,-1.875 z m 0,0"
             id="path119"
             style="fill:#404040;fill-opacity:1;stroke-width:0" />
        </g>
        <g
           transform="translate(310.995,134.765)"
           id="g121"
           style="fill:#404040;fill-opacity:1;stroke-width:0">
          <path
             d="m 2.21875,-0.625 c -0.609375,0 -1.015625,-0.328125 -1.015625,-0.8125 0,-0.46875 0.390625,-0.765625 1.078125,-0.8125 L 3.625,-2.34375 v 0.421875 C 3.625,-1.1875 3.015625,-0.625 2.21875,-0.625 Z m -0.1875,0.71875 c 0.6875,0 1.328125,-0.390625 1.625,-0.96875 H 3.671875 V 0 h 0.8125 v -3.5 c 0,-1 -0.75,-1.65625 -1.9375,-1.65625 -1.203125,0 -1.953125,0.671875 -2.015625,1.546875 H 1.359375 C 1.453125,-4.09375 1.875,-4.40625 2.515625,-4.40625 c 0.703125,0 1.109375,0.375 1.109375,0.984375 V -3 l -1.4375,0.09375 c -1.171875,0.0625 -1.84375,0.609375 -1.84375,1.46875 0,0.921875 0.671875,1.53125 1.6875,1.53125 z m 0,0"
             id="path120"
             style="fill:#404040;fill-opacity:1;stroke-width:0" />
        </g>
        <g
           transform="translate(315.996,134.765)"
           id="g122"
           style="fill:#404040;fill-opacity:1;stroke-width:0">
          <path
             d="m 4.703125,-5.0625 h -0.84375 v 2.96875 c 0,0.859375 -0.5,1.4375 -1.3125,1.4375 C 1.75,-0.65625 1.375,-1.109375 1.375,-1.921875 V -5.0625 H 0.53125 v 3.28125 c 0,1.15625 0.640625,1.875 1.75,1.875 0.78125,0 1.296875,-0.328125 1.609375,-0.921875 H 3.90625 V 0 h 0.796875 z m 0,0"
             id="path121"
             style="fill:#404040;fill-opacity:1;stroke-width:0" />
        </g>
      </g>
      <g
         fill-opacity="1"
         id="g127"
         transform="translate(-290.692,-127.734)"
         style="fill:#404040;fill-opacity:1;stroke-width:0">
        <g
           transform="translate(293.837,146.72)"
           id="g124"
           style="fill:#404040;fill-opacity:1;stroke-width:0">
          <path
             d="M 0.59375,0 H 1.4375 V -7.03125 H 0.59375 Z m 0,0"
             id="path123"
             style="fill:#404040;fill-opacity:1;stroke-width:0" />
        </g>
        <g
           transform="translate(295.869,146.72)"
           id="g125"
           style="fill:#404040;fill-opacity:1;stroke-width:0">
          <path
             d="m 2.578125,-4.421875 c 0.796875,0 1.328125,0.609375 1.34375,1.453125 h -2.75 c 0.0625,-0.84375 0.609375,-1.453125 1.40625,-1.453125 z m 1.328125,2.96875 c -0.140625,0.484375 -0.609375,0.8125 -1.25,0.8125 C 1.75,-0.640625 1.171875,-1.28125 1.171875,-2.25 v -0.046875 h 3.625 V -2.625 c 0,-1.53125 -0.828125,-2.53125 -2.203125,-2.53125 -1.390625,0 -2.296875,1.078125 -2.296875,2.640625 0,1.59375 0.890625,2.609375 2.34375,2.609375 1.09375,0 1.953125,-0.65625 2.09375,-1.546875 z m 0,0"
             id="path124"
             style="fill:#404040;fill-opacity:1;stroke-width:0" />
        </g>
        <g
           transform="translate(300.97,146.72)"
           id="g126"
           style="fill:#404040;fill-opacity:1;stroke-width:0">
          <path
             d="m 4.703125,-5.0625 h -0.875 l -1.40625,4.15625 H 2.40625 L 1,-5.0625 H 0.109375 L 1.96875,0 h 0.875 z m 0,0"
             id="path125"
             style="fill:#404040;fill-opacity:1;stroke-width:0" />
        </g>
      </g>
      <g
         fill-opacity="1"
         id="g131"
         transform="translate(-290.692,-127.734)"
         style="fill:#404040;fill-opacity:1;stroke-width:0">
        <g
           transform="translate(305.643,146.72)"
           id="g128"
           style="fill:#404040;fill-opacity:1;stroke-width:0">
          <path
             d="m 2.578125,-4.421875 c 0.796875,0 1.328125,0.609375 1.34375,1.453125 h -2.75 c 0.0625,-0.84375 0.609375,-1.453125 1.40625,-1.453125 z m 1.328125,2.96875 c -0.140625,0.484375 -0.609375,0.8125 -1.25,0.8125 C 1.75,-0.640625 1.171875,-1.28125 1.171875,-2.25 v -0.046875 h 3.625 V -2.625 c 0,-1.53125 -0.828125,-2.53125 -2.203125,-2.53125 -1.390625,0 -2.296875,1.078125 -2.296875,2.640625 0,1.59375 0.890625,2.609375 2.34375,2.609375 1.09375,0 1.953125,-0.65625 2.09375,-1.546875 z m 0,0"
             id="path127"
             style="fill:#404040;fill-opacity:1;stroke-width:0" />
        </g>
        <g
           transform="translate(310.744,146.72)"
           id="g129"
           style="fill:#404040;fill-opacity:1;stroke-width:0">
          <path
             d="M 0.59375,0 H 1.4375 V -7.03125 H 0.59375 Z m 0,0"
             id="path128"
             style="fill:#404040;fill-opacity:1;stroke-width:0" />
        </g>
        <g
           transform="translate(312.776,146.72)"
           id="g130"
           style="fill:#404040;fill-opacity:1;stroke-width:0">
          <path
             d="m 0.46875,-3.671875 c 0,0.703125 0.4375,1.15625 1.328125,1.390625 L 2.6875,-2.0625 c 0.5625,0.15625 0.765625,0.34375 0.765625,0.703125 0,0.46875 -0.421875,0.75 -1.109375,0.75 -0.671875,0 -1.078125,-0.28125 -1.171875,-0.796875 h -0.84375 c 0.078125,0.890625 0.859375,1.5 1.96875,1.5 1.1875,0 2.015625,-0.625 2.015625,-1.515625 0,-0.734375 -0.375,-1.109375 -1.390625,-1.375 l -0.78125,-0.1875 c -0.578125,-0.140625 -0.84375,-0.375 -0.84375,-0.71875 0,-0.453125 0.40625,-0.75 1.03125,-0.75 0.609375,0 1.015625,0.296875 1.0625,0.78125 h 0.8125 C 4.171875,-4.53125 3.390625,-5.15625 2.34375,-5.15625 c -1.109375,0 -1.875,0.625 -1.875,1.484375 z m 0,0"
             id="path129"
             style="fill:#404040;fill-opacity:1;stroke-width:0" />
        </g>
      </g>
    </g>
    <g
       transform="matrix(0.571038,0,0,0.571038,11.720283,112.58113)"
       ns1:version="1.10.2"
       ns1:texconverter="xelatex"
       ns1:pdfconverter="inkscape"
       ns1:text="\\centering\nrepelled\\\\\n outwards"
       ns1:preamble="/home/storage/.config/inkscape/extensions/textext/default_packages.tex"
       ns1:scale="1.618688695316071"
       ns1:alignment="middle center"
       ns1:stroke-to-path="0"
       ns1:inkscapeversion="1.3.2"
       id="g166"
       ns1:jacobian_sqrt="0.571038"
       style="fill:#404040;fill-opacity:1">
      <defs
         id="defs144">
        <g
           id="g144">
          <g
             id="g133">
            <path
               d="m 0.546875,0 h 0.84375 v -3.15625 c 0,-0.71875 0.4375,-1.1875 1.09375,-1.1875 0.203125,0 0.375,0.03125 0.453125,0.046875 v -0.8125 C 2.859375,-5.125 2.734375,-5.15625 2.59375,-5.15625 2,-5.15625 1.53125,-4.796875 1.375,-4.234375 H 1.34375 V -5.0625 H 0.546875 Z m 0,0"
               id="path132" />
          </g>
          <g
             id="g134">
            <path
               d="m 2.578125,-4.421875 c 0.796875,0 1.328125,0.609375 1.34375,1.453125 h -2.75 c 0.0625,-0.84375 0.609375,-1.453125 1.40625,-1.453125 z m 1.328125,2.96875 c -0.140625,0.484375 -0.609375,0.8125 -1.25,0.8125 C 1.75,-0.640625 1.171875,-1.28125 1.171875,-2.25 v -0.046875 h 3.625 V -2.625 c 0,-1.53125 -0.828125,-2.53125 -2.203125,-2.53125 -1.390625,0 -2.296875,1.078125 -2.296875,2.640625 0,1.59375 0.890625,2.609375 2.34375,2.609375 1.09375,0 1.953125,-0.65625 2.09375,-1.546875 z m 0,0"
               id="path133" />
          </g>
          <g
             id="g135">
            <path
               d="m 3.015625,-5.15625 c -0.75,0 -1.328125,0.375 -1.640625,0.953125 H 1.359375 V -5.0625 h -0.8125 v 6.75 h 0.84375 v -2.515625 h 0.03125 c 0.296875,0.5625 0.875,0.921875 1.609375,0.921875 1.265625,0 2.140625,-1.03125 2.140625,-2.625 0,-1.59375 -0.875,-2.625 -2.15625,-2.625 z m -0.171875,4.5 c -0.875,0 -1.453125,-0.75 -1.453125,-1.875 0,-1.125 0.578125,-1.875 1.453125,-1.875 0.90625,0 1.46875,0.734375 1.46875,1.875 0,1.15625 -0.5625,1.875 -1.46875,1.875 z m 0,0"
               id="path134" />
          </g>
          <g
             id="g136">
            <path
               d="M 0.59375,0 H 1.4375 V -7.03125 H 0.59375 Z m 0,0"
               id="path135" />
          </g>
          <g
             id="g137">
            <path
               d="m 2.46875,0.09375 c 0.734375,0 1.3125,-0.359375 1.640625,-0.953125 H 4.125 V 0 h 0.796875 v -7.03125 h -0.84375 v 2.796875 H 4.0625 C 3.75,-4.796875 3.171875,-5.15625 2.453125,-5.15625 c -1.28125,0 -2.15625,1.03125 -2.15625,2.625 0,1.59375 0.875,2.625 2.171875,2.625 z m 0.15625,-4.5 c 0.875,0 1.453125,0.75 1.453125,1.875 0,1.140625 -0.578125,1.875 -1.453125,1.875 -0.890625,0 -1.453125,-0.71875 -1.453125,-1.875 0,-1.140625 0.5625,-1.875 1.453125,-1.875 z m 0,0"
               id="path136" />
          </g>
          <g
             id="g138">
            <path
               d="m 2.640625,0.09375 c 1.40625,0 2.34375,-1.015625 2.34375,-2.625 0,-1.609375 -0.9375,-2.625 -2.34375,-2.625 -1.390625,0 -2.34375,1.015625 -2.34375,2.625 0,1.609375 0.953125,2.625 2.34375,2.625 z m 0,-0.75 c -0.890625,0 -1.484375,-0.6875 -1.484375,-1.875 0,-1.1875 0.59375,-1.875 1.484375,-1.875 0.90625,0 1.484375,0.6875 1.484375,1.875 0,1.1875 -0.578125,1.875 -1.484375,1.875 z m 0,0"
               id="path137" />
          </g>
          <g
             id="g139">
            <path
               d="m 4.703125,-5.0625 h -0.84375 v 2.96875 c 0,0.859375 -0.5,1.4375 -1.3125,1.4375 C 1.75,-0.65625 1.375,-1.109375 1.375,-1.921875 V -5.0625 H 0.53125 v 3.28125 c 0,1.15625 0.640625,1.875 1.75,1.875 0.78125,0 1.296875,-0.328125 1.609375,-0.921875 H 3.90625 V 0 h 0.796875 z m 0,0"
               id="path138" />
          </g>
          <g
             id="g140">
            <path
               d="M 0.828125,-6.28125 V -5.0625 H 0.0625 v 0.703125 H 0.828125 V -1.3125 c 0,0.96875 0.359375,1.34375 1.28125,1.34375 0.203125,0 0.4375,0 0.53125,-0.03125 v -0.703125 c -0.046875,0 -0.25,0.015625 -0.34375,0.015625 -0.4375,0 -0.625,-0.203125 -0.625,-0.671875 v -3 H 2.65625 V -5.0625 H 1.671875 v -1.21875 z m 0,0"
               id="path139" />
          </g>
          <g
             id="g141">
            <path
               d="M 6.984375,-5.0625 H 6.15625 l -1.015625,4.125 H 5.125 l -1.15625,-4.125 h -0.8125 l -1.140625,4.125 h -0.03125 l -1,-4.125 H 0.140625 L 1.546875,0 h 0.875 l 1.125,-3.921875 h 0.03125 L 4.71875,0 h 0.859375 z m 0,0"
               id="path140" />
          </g>
          <g
             id="g142">
            <path
               d="m 2.21875,-0.625 c -0.609375,0 -1.015625,-0.328125 -1.015625,-0.8125 0,-0.46875 0.390625,-0.765625 1.078125,-0.8125 L 3.625,-2.34375 v 0.421875 C 3.625,-1.1875 3.015625,-0.625 2.21875,-0.625 Z m -0.1875,0.71875 c 0.6875,0 1.328125,-0.390625 1.625,-0.96875 H 3.671875 V 0 h 0.8125 v -3.5 c 0,-1 -0.75,-1.65625 -1.9375,-1.65625 -1.203125,0 -1.953125,0.671875 -2.015625,1.546875 H 1.359375 C 1.453125,-4.09375 1.875,-4.40625 2.515625,-4.40625 c 0.703125,0 1.109375,0.375 1.109375,0.984375 V -3 l -1.4375,0.09375 c -1.171875,0.0625 -1.84375,0.609375 -1.84375,1.46875 0,0.921875 0.671875,1.53125 1.6875,1.53125 z m 0,0"
               id="path141" />
          </g>
          <g
             id="g143">
            <path
               d="m 0.46875,-3.671875 c 0,0.703125 0.4375,1.15625 1.328125,1.390625 L 2.6875,-2.0625 c 0.5625,0.15625 0.765625,0.34375 0.765625,0.703125 0,0.46875 -0.421875,0.75 -1.109375,0.75 -0.671875,0 -1.078125,-0.28125 -1.171875,-0.796875 h -0.84375 c 0.078125,0.890625 0.859375,1.5 1.96875,1.5 1.1875,0 2.015625,-0.625 2.015625,-1.515625 0,-0.734375 -0.375,-1.109375 -1.390625,-1.375 l -0.78125,-0.1875 c -0.578125,-0.140625 -0.84375,-0.375 -0.84375,-0.71875 0,-0.453125 0.40625,-0.75 1.03125,-0.75 0.609375,0 1.015625,0.296875 1.0625,0.78125 h 0.8125 C 4.171875,-4.53125 3.390625,-5.15625 2.34375,-5.15625 c -1.109375,0 -1.875,0.625 -1.875,1.484375 z m 0,0"
               id="path142" />
          </g>
        </g>
      </defs>
      <g
         fill="#000000"
         fill-opacity="1"
         id="g146"
         transform="translate(-286.647,-127.734)"
         style="fill:#404040;fill-opacity:1">
        <g
           transform="translate(289.028,134.765)"
           id="g145"
           style="fill:#404040;fill-opacity:1">
          <path
             d="m 0.546875,0 h 0.84375 v -3.15625 c 0,-0.71875 0.4375,-1.1875 1.09375,-1.1875 0.203125,0 0.375,0.03125 0.453125,0.046875 v -0.8125 C 2.859375,-5.125 2.734375,-5.15625 2.59375,-5.15625 2,-5.15625 1.53125,-4.796875 1.375,-4.234375 H 1.34375 V -5.0625 H 0.546875 Z m 0,0"
             id="path144"
             style="fill:#404040;fill-opacity:1" />
        </g>
      </g>
      <g
         fill="#000000"
         fill-opacity="1"
         id="g154"
         transform="translate(-286.647,-127.734)"
         style="fill:#404040;fill-opacity:1">
        <g
           transform="translate(291.857,134.765)"
           id="g147"
           style="fill:#404040;fill-opacity:1">
          <path
             d="m 2.578125,-4.421875 c 0.796875,0 1.328125,0.609375 1.34375,1.453125 h -2.75 c 0.0625,-0.84375 0.609375,-1.453125 1.40625,-1.453125 z m 1.328125,2.96875 c -0.140625,0.484375 -0.609375,0.8125 -1.25,0.8125 C 1.75,-0.640625 1.171875,-1.28125 1.171875,-2.25 v -0.046875 h 3.625 V -2.625 c 0,-1.53125 -0.828125,-2.53125 -2.203125,-2.53125 -1.390625,0 -2.296875,1.078125 -2.296875,2.640625 0,1.59375 0.890625,2.609375 2.34375,2.609375 1.09375,0 1.953125,-0.65625 2.09375,-1.546875 z m 0,0"
             id="path146"
             style="fill:#404040;fill-opacity:1" />
        </g>
        <g
           transform="translate(296.958,134.765)"
           id="g148"
           style="fill:#404040;fill-opacity:1">
          <path
             d="m 3.015625,-5.15625 c -0.75,0 -1.328125,0.375 -1.640625,0.953125 H 1.359375 V -5.0625 h -0.8125 v 6.75 h 0.84375 v -2.515625 h 0.03125 c 0.296875,0.5625 0.875,0.921875 1.609375,0.921875 1.265625,0 2.140625,-1.03125 2.140625,-2.625 0,-1.59375 -0.875,-2.625 -2.15625,-2.625 z m -0.171875,4.5 c -0.875,0 -1.453125,-0.75 -1.453125,-1.875 0,-1.125 0.578125,-1.875 1.453125,-1.875 0.90625,0 1.46875,0.734375 1.46875,1.875 0,1.15625 -0.5625,1.875 -1.46875,1.875 z m 0,0"
             id="path147"
             style="fill:#404040;fill-opacity:1" />
        </g>
        <g
           transform="translate(302.428,134.765)"
           id="g149"
           style="fill:#404040;fill-opacity:1">
          <path
             d="m 2.578125,-4.421875 c 0.796875,0 1.328125,0.609375 1.34375,1.453125 h -2.75 c 0.0625,-0.84375 0.609375,-1.453125 1.40625,-1.453125 z m 1.328125,2.96875 c -0.140625,0.484375 -0.609375,0.8125 -1.25,0.8125 C 1.75,-0.640625 1.171875,-1.28125 1.171875,-2.25 v -0.046875 h 3.625 V -2.625 c 0,-1.53125 -0.828125,-2.53125 -2.203125,-2.53125 -1.390625,0 -2.296875,1.078125 -2.296875,2.640625 0,1.59375 0.890625,2.609375 2.34375,2.609375 1.09375,0 1.953125,-0.65625 2.09375,-1.546875 z m 0,0"
             id="path148"
             style="fill:#404040;fill-opacity:1" />
        </g>
        <g
           transform="translate(307.529,134.765)"
           id="g150"
           style="fill:#404040;fill-opacity:1">
          <path
             d="M 0.59375,0 H 1.4375 V -7.03125 H 0.59375 Z m 0,0"
             id="path149"
             style="fill:#404040;fill-opacity:1" />
        </g>
        <g
           transform="translate(309.561,134.765)"
           id="g151"
           style="fill:#404040;fill-opacity:1">
          <path
             d="M 0.59375,0 H 1.4375 V -7.03125 H 0.59375 Z m 0,0"
             id="path150"
             style="fill:#404040;fill-opacity:1" />
        </g>
        <g
           transform="translate(311.593,134.765)"
           id="g152"
           style="fill:#404040;fill-opacity:1">
          <path
             d="m 2.578125,-4.421875 c 0.796875,0 1.328125,0.609375 1.34375,1.453125 h -2.75 c 0.0625,-0.84375 0.609375,-1.453125 1.40625,-1.453125 z m 1.328125,2.96875 c -0.140625,0.484375 -0.609375,0.8125 -1.25,0.8125 C 1.75,-0.640625 1.171875,-1.28125 1.171875,-2.25 v -0.046875 h 3.625 V -2.625 c 0,-1.53125 -0.828125,-2.53125 -2.203125,-2.53125 -1.390625,0 -2.296875,1.078125 -2.296875,2.640625 0,1.59375 0.890625,2.609375 2.34375,2.609375 1.09375,0 1.953125,-0.65625 2.09375,-1.546875 z m 0,0"
             id="path151"
             style="fill:#404040;fill-opacity:1" />
        </g>
        <g
           transform="translate(316.694,134.765)"
           id="g153"
           style="fill:#404040;fill-opacity:1">
          <path
             d="m 2.46875,0.09375 c 0.734375,0 1.3125,-0.359375 1.640625,-0.953125 H 4.125 V 0 h 0.796875 v -7.03125 h -0.84375 v 2.796875 H 4.0625 C 3.75,-4.796875 3.171875,-5.15625 2.453125,-5.15625 c -1.28125,0 -2.15625,1.03125 -2.15625,2.625 0,1.59375 0.875,2.625 2.171875,2.625 z m 0.15625,-4.5 c 0.875,0 1.453125,0.75 1.453125,1.875 0,1.140625 -0.578125,1.875 -1.453125,1.875 -0.890625,0 -1.453125,-0.71875 -1.453125,-1.875 0,-1.140625 0.5625,-1.875 1.453125,-1.875 z m 0,0"
             id="path152"
             style="fill:#404040;fill-opacity:1" />
        </g>
      </g>
      <g
         fill="#000000"
         fill-opacity="1"
         id="g159"
         transform="translate(-286.647,-127.734)"
         style="fill:#404040;fill-opacity:1">
        <g
           transform="translate(286.35,146.72)"
           id="g155"
           style="fill:#404040;fill-opacity:1">
          <path
             d="m 2.640625,0.09375 c 1.40625,0 2.34375,-1.015625 2.34375,-2.625 0,-1.609375 -0.9375,-2.625 -2.34375,-2.625 -1.390625,0 -2.34375,1.015625 -2.34375,2.625 0,1.609375 0.953125,2.625 2.34375,2.625 z m 0,-0.75 c -0.890625,0 -1.484375,-0.6875 -1.484375,-1.875 0,-1.1875 0.59375,-1.875 1.484375,-1.875 0.90625,0 1.484375,0.6875 1.484375,1.875 0,1.1875 -0.578125,1.875 -1.484375,1.875 z m 0,0"
             id="path154"
             style="fill:#404040;fill-opacity:1" />
        </g>
        <g
           transform="translate(291.64,146.72)"
           id="g156"
           style="fill:#404040;fill-opacity:1">
          <path
             d="m 4.703125,-5.0625 h -0.84375 v 2.96875 c 0,0.859375 -0.5,1.4375 -1.3125,1.4375 C 1.75,-0.65625 1.375,-1.109375 1.375,-1.921875 V -5.0625 H 0.53125 v 3.28125 c 0,1.15625 0.640625,1.875 1.75,1.875 0.78125,0 1.296875,-0.328125 1.609375,-0.921875 H 3.90625 V 0 h 0.796875 z m 0,0"
             id="path155"
             style="fill:#404040;fill-opacity:1" />
        </g>
        <g
           transform="translate(296.89,146.72)"
           id="g157"
           style="fill:#404040;fill-opacity:1">
          <path
             d="M 0.828125,-6.28125 V -5.0625 H 0.0625 v 0.703125 H 0.828125 V -1.3125 c 0,0.96875 0.359375,1.34375 1.28125,1.34375 0.203125,0 0.4375,0 0.53125,-0.03125 v -0.703125 c -0.046875,0 -0.25,0.015625 -0.34375,0.015625 -0.4375,0 -0.625,-0.203125 -0.625,-0.671875 v -3 H 2.65625 V -5.0625 H 1.671875 v -1.21875 z m 0,0"
             id="path156"
             style="fill:#404040;fill-opacity:1" />
        </g>
        <g
           transform="translate(299.889,146.72)"
           id="g158"
           style="fill:#404040;fill-opacity:1">
          <path
             d="M 6.984375,-5.0625 H 6.15625 l -1.015625,4.125 H 5.125 l -1.15625,-4.125 h -0.8125 l -1.140625,4.125 h -0.03125 l -1,-4.125 H 0.140625 L 1.546875,0 h 0.875 l 1.125,-3.921875 h 0.03125 L 4.71875,0 h 0.859375 z m 0,0"
             id="path157"
             style="fill:#404040;fill-opacity:1" />
        </g>
      </g>
      <g
         fill="#000000"
         fill-opacity="1"
         id="g162"
         transform="translate(-286.647,-127.734)"
         style="fill:#404040;fill-opacity:1">
        <g
           transform="translate(306.923,146.72)"
           id="g160"
           style="fill:#404040;fill-opacity:1">
          <path
             d="m 2.21875,-0.625 c -0.609375,0 -1.015625,-0.328125 -1.015625,-0.8125 0,-0.46875 0.390625,-0.765625 1.078125,-0.8125 L 3.625,-2.34375 v 0.421875 C 3.625,-1.1875 3.015625,-0.625 2.21875,-0.625 Z m -0.1875,0.71875 c 0.6875,0 1.328125,-0.390625 1.625,-0.96875 H 3.671875 V 0 h 0.8125 v -3.5 c 0,-1 -0.75,-1.65625 -1.9375,-1.65625 -1.203125,0 -1.953125,0.671875 -2.015625,1.546875 H 1.359375 C 1.453125,-4.09375 1.875,-4.40625 2.515625,-4.40625 c 0.703125,0 1.109375,0.375 1.109375,0.984375 V -3 l -1.4375,0.09375 c -1.171875,0.0625 -1.84375,0.609375 -1.84375,1.46875 0,0.921875 0.671875,1.53125 1.6875,1.53125 z m 0,0"
             id="path159"
             style="fill:#404040;fill-opacity:1" />
        </g>
        <g
           transform="translate(311.924,146.72)"
           id="g161"
           style="fill:#404040;fill-opacity:1">
          <path
             d="m 0.546875,0 h 0.84375 v -3.15625 c 0,-0.71875 0.4375,-1.1875 1.09375,-1.1875 0.203125,0 0.375,0.03125 0.453125,0.046875 v -0.8125 C 2.859375,-5.125 2.734375,-5.15625 2.59375,-5.15625 2,-5.15625 1.53125,-4.796875 1.375,-4.234375 H 1.34375 V -5.0625 H 0.546875 Z m 0,0"
             id="path160"
             style="fill:#404040;fill-opacity:1" />
        </g>
      </g>
      <g
         fill="#000000"
         fill-opacity="1"
         id="g165"
         transform="translate(-286.647,-127.734)"
         style="fill:#404040;fill-opacity:1">
        <g
           transform="translate(314.743,146.72)"
           id="g163"
           style="fill:#404040;fill-opacity:1">
          <path
             d="m 2.46875,0.09375 c 0.734375,0 1.3125,-0.359375 1.640625,-0.953125 H 4.125 V 0 h 0.796875 v -7.03125 h -0.84375 v 2.796875 H 4.0625 C 3.75,-4.796875 3.171875,-5.15625 2.453125,-5.15625 c -1.28125,0 -2.15625,1.03125 -2.15625,2.625 0,1.59375 0.875,2.625 2.171875,2.625 z m 0.15625,-4.5 c 0.875,0 1.453125,0.75 1.453125,1.875 0,1.140625 -0.578125,1.875 -1.453125,1.875 -0.890625,0 -1.453125,-0.71875 -1.453125,-1.875 0,-1.140625 0.5625,-1.875 1.453125,-1.875 z m 0,0"
             id="path162"
             style="fill:#404040;fill-opacity:1" />
        </g>
        <g
           transform="translate(320.263,146.72)"
           id="g164"
           style="fill:#404040;fill-opacity:1">
          <path
             d="m 0.46875,-3.671875 c 0,0.703125 0.4375,1.15625 1.328125,1.390625 L 2.6875,-2.0625 c 0.5625,0.15625 0.765625,0.34375 0.765625,0.703125 0,0.46875 -0.421875,0.75 -1.109375,0.75 -0.671875,0 -1.078125,-0.28125 -1.171875,-0.796875 h -0.84375 c 0.078125,0.890625 0.859375,1.5 1.96875,1.5 1.1875,0 2.015625,-0.625 2.015625,-1.515625 0,-0.734375 -0.375,-1.109375 -1.390625,-1.375 l -0.78125,-0.1875 c -0.578125,-0.140625 -0.84375,-0.375 -0.84375,-0.71875 0,-0.453125 0.40625,-0.75 1.03125,-0.75 0.609375,0 1.015625,0.296875 1.0625,0.78125 h 0.8125 C 4.171875,-4.53125 3.390625,-5.15625 2.34375,-5.15625 c -1.109375,0 -1.875,0.625 -1.875,1.484375 z m 0,0"
             id="path163"
             style="fill:#404040;fill-opacity:1" />
        </g>
      </g>
    </g>
  </g>
</svg>
