<?xml version="1.0" encoding="UTF-8" standalone="no"?>
<svg
   xmlns:dc="http://purl.org/dc/elements/1.1/"
   xmlns:cc="http://creativecommons.org/ns#"
   xmlns:rdf="http://www.w3.org/1999/02/22-rdf-syntax-ns#"
   xmlns:svg="http://www.w3.org/2000/svg"
   xmlns="http://www.w3.org/2000/svg"
   xmlns:xlink="http://www.w3.org/1999/xlink"
   xmlns:sodipodi="http://sodipodi.sourceforge.net/DTD/sodipodi-0.dtd"
   xmlns:inkscape="http://www.inkscape.org/namespaces/inkscape"
   width="403.87552mm"
   height="126.98627mm"
   viewBox="0 0 403.87551 126.98628"
   version="1.1"
   id="svg8"
   sodipodi:docname="fig3.svg"
   inkscape:version="1.0.1 (3bc2e813f5, 2020-09-07)"
   inkscape:export-filename="/home/kirito/storage/iphd_project_2/pres1/fig3.png"
   inkscape:export-xdpi="248.64"
   inkscape:export-ydpi="248.64">
  <defs
     id="defs2">
    <inkscape:path-effect
       effect="spiro"
       id="path-effect3023"
       is_visible="true"
       lpeversion="1" />
    <inkscape:path-effect
       effect="spiro"
       id="path-effect1333"
       is_visible="true"
       lpeversion="1" />
    <marker
       style="overflow:visible"
       id="TriangleOutL"
       refX="0"
       refY="0"
       orient="auto"
       inkscape:stockid="TriangleOutL"
       inkscape:isstock="true">
      <path
         transform="scale(0.8)"
         style="fill:#000000;fill-opacity:1;fill-rule:evenodd;stroke:#000000;stroke-width:1pt;stroke-opacity:1"
         d="M 5.77,0 -2.88,5 V -5 Z"
         id="path1061" />
    </marker>
    <inkscape:path-effect
       effect="spiro"
       id="path-effect913"
       is_visible="true"
       lpeversion="1" />
    <inkscape:path-effect
       effect="spiro"
       id="path-effect894"
       is_visible="true"
       lpeversion="1" />
    <g
       id="g3691">
      <symbol
         overflow="visible"
         id="symbol2417">
        <path
           style="stroke:none"
           d=""
           id="path9628" />
      </symbol>
      <symbol
         overflow="visible"
         id="symbol8406">
        <path
           style="stroke:none"
           d="m 0.875,-0.59375 c -0.03125,0.15625 -0.09375,0.390625 -0.09375,0.4375 0,0.171875 0.140625,0.265625 0.296875,0.265625 0.125,0 0.296875,-0.078125 0.375,-0.28125 0,-0.015625 0.125,-0.484375 0.1875,-0.734375 l 0.21875,-0.890625 C 1.90625,-2.03125 1.96875,-2.25 2.03125,-2.46875 c 0.03125,-0.171875 0.109375,-0.46875 0.125,-0.5 0.140625,-0.3125 0.671875,-1.21875 1.625,-1.21875 0.453125,0 0.53125,0.375 0.53125,0.703125 0,0.609375 -0.484375,1.890625 -0.640625,2.3125 C 3.578125,-0.9375 3.5625,-0.8125 3.5625,-0.703125 c 0,0.46875 0.359375,0.8125 0.828125,0.8125 0.9375,0 1.296875,-1.453125 1.296875,-1.53125 0,-0.109375 -0.078125,-0.109375 -0.109375,-0.109375 -0.109375,0 -0.109375,0.03125 -0.15625,0.1875 -0.203125,0.671875 -0.53125,1.234375 -1.015625,1.234375 -0.171875,0 -0.234375,-0.09375 -0.234375,-0.328125 0,-0.25 0.078125,-0.484375 0.171875,-0.703125 0.1875,-0.53125 0.609375,-1.625 0.609375,-2.203125 0,-0.65625 -0.421875,-1.0625 -1.140625,-1.0625 -0.90625,0 -1.390625,0.640625 -1.5625,0.875 -0.046875,-0.5625 -0.453125,-0.875 -0.921875,-0.875 -0.453125,0 -0.640625,0.390625 -0.734375,0.5625 C 0.421875,-3.5 0.296875,-2.90625 0.296875,-2.875 c 0,0.109375 0.09375,0.109375 0.109375,0.109375 0.109375,0 0.109375,-0.015625 0.171875,-0.234375 0.171875,-0.703125 0.375,-1.1875 0.734375,-1.1875 0.1875,0 0.296875,0.125 0.296875,0.453125 0,0.21875 -0.03125,0.328125 -0.15625,0.84375 z m 0,0"
           id="path5670" />
      </symbol>
      <symbol
         overflow="visible"
         id="symbol4512">
        <path
           style="stroke:none"
           d=""
           id="path2557" />
      </symbol>
      <symbol
         overflow="visible"
         id="symbol751">
        <path
           style="stroke:none"
           d="M 3.984375,-4.625 C 3.984375,-4.640625 4,-4.734375 4,-4.734375 4,-4.78125 3.984375,-4.84375 3.890625,-4.84375 3.75,-4.84375 3.171875,-4.78125 3,-4.765625 c -0.046875,0 -0.15625,0.015625 -0.15625,0.15625 0,0.09375 0.109375,0.09375 0.1875,0.09375 0.328125,0 0.328125,0.0625 0.328125,0.109375 0,0.046875 0,0.09375 -0.015625,0.15625 L 2.9375,-2.65625 c -0.140625,-0.234375 -0.375,-0.421875 -0.71875,-0.421875 -0.890625,0 -1.796875,0.984375 -1.796875,1.984375 0,0.6875 0.453125,1.15625 1.0625,1.15625 0.375,0 0.703125,-0.203125 0.984375,-0.484375 C 2.59375,0 3,0.0625 3.1875,0.0625 c 0.25,0 0.421875,-0.140625 0.546875,-0.359375 0.15625,-0.28125 0.25,-0.671875 0.25,-0.703125 0,-0.09375 -0.09375,-0.09375 -0.109375,-0.09375 -0.109375,0 -0.109375,0.03125 -0.15625,0.21875 C 3.625,-0.53125 3.5,-0.125 3.203125,-0.125 3.03125,-0.125 2.96875,-0.28125 2.96875,-0.46875 c 0,-0.125 0.015625,-0.1875 0.046875,-0.28125 z M 2.5,-0.875 C 2.453125,-0.671875 2.296875,-0.53125 2.140625,-0.40625 2.078125,-0.34375 1.796875,-0.125 1.5,-0.125 c -0.265625,0 -0.515625,-0.1875 -0.515625,-0.671875 0,-0.375 0.203125,-1.140625 0.375,-1.421875 0.3125,-0.5625 0.671875,-0.65625 0.859375,-0.65625 0.484375,0 0.625,0.53125 0.625,0.609375 0,0.015625 -0.015625,0.078125 -0.015625,0.09375 z m 0,0"
           id="path5305" />
      </symbol>
      <symbol
         overflow="visible"
         id="symbol2918">
        <path
           style="stroke:none"
           d=""
           id="path491" />
      </symbol>
      <symbol
         overflow="visible"
         id="symbol3087">
        <path
           style="stroke:none"
           d="m 6.84375,-3.265625 c 0.15625,0 0.34375,0 0.34375,-0.1875 C 7.1875,-3.65625 7,-3.65625 6.859375,-3.65625 h -5.96875 c -0.140625,0 -0.328125,0 -0.328125,0.203125 0,0.1875 0.1875,0.1875 0.328125,0.1875 z m 0.015625,1.9375 c 0.140625,0 0.328125,0 0.328125,-0.203125 0,-0.1875 -0.1875,-0.1875 -0.34375,-0.1875 H 0.890625 c -0.140625,0 -0.328125,0 -0.328125,0.1875 0,0.203125 0.1875,0.203125 0.328125,0.203125 z m 0,0"
           id="path5808" />
      </symbol>
      <symbol
         overflow="visible"
         id="symbol5369">
        <path
           style="stroke:none"
           d="m 4.578125,-3.1875 c 0,-0.796875 -0.046875,-1.59375 -0.390625,-2.328125 -0.453125,-0.96875 -1.28125,-1.125 -1.6875,-1.125 -0.609375,0 -1.328125,0.265625 -1.75,1.1875 -0.3125,0.6875 -0.359375,1.46875 -0.359375,2.265625 0,0.75 0.03125,1.640625 0.453125,2.40625 0.421875,0.796875 1.15625,1 1.640625,1 0.53125,0 1.296875,-0.203125 1.734375,-1.15625 0.3125,-0.6875 0.359375,-1.46875 0.359375,-2.25 z M 2.484375,0 C 2.09375,0 1.5,-0.25 1.328125,-1.203125 1.21875,-1.796875 1.21875,-2.71875 1.21875,-3.3125 c 0,-0.640625 0,-1.296875 0.078125,-1.828125 0.1875,-1.1875 0.9375,-1.28125 1.1875,-1.28125 0.328125,0 0.984375,0.1875 1.171875,1.171875 0.109375,0.5625 0.109375,1.3125 0.109375,1.9375 0,0.75 0,1.421875 -0.109375,2.0625 C 3.5,-0.296875 2.9375,0 2.484375,0 Z m 0,0"
           id="path6068" />
      </symbol>
    </g>
    <marker
       style="overflow:visible"
       id="TriangleOutL-6"
       refX="0"
       refY="0"
       orient="auto"
       inkscape:stockid="TriangleOutL"
       inkscape:isstock="true">
      <path
         transform="scale(0.8)"
         style="fill:#000000;fill-opacity:1;fill-rule:evenodd;stroke:#000000;stroke-width:1pt;stroke-opacity:1"
         d="M 5.77,0 -2.88,5 V -5 Z"
         id="path1061-7" />
    </marker>
    <g
       id="g5598">
      <symbol
         overflow="visible"
         id="symbol598">
        <path
           style="stroke:none"
           d=""
           id="path8444" />
      </symbol>
      <symbol
         overflow="visible"
         id="symbol8171">
        <path
           style="stroke:none"
           d="m 3.953125,-3.78125 c -0.171875,0 -0.296875,0 -0.4375,0.125 -0.171875,0.15625 -0.1875,0.328125 -0.1875,0.390625 0,0.25 0.1875,0.359375 0.375,0.359375 0.28125,0 0.546875,-0.25 0.546875,-0.640625 0,-0.484375 -0.46875,-0.859375 -1.171875,-0.859375 -1.34375,0 -2.671875,1.421875 -2.671875,2.828125 0,0.90625 0.578125,1.6875 1.625,1.6875 1.421875,0 2.25,-1.0625 2.25,-1.171875 0,-0.0625 -0.046875,-0.140625 -0.109375,-0.140625 -0.0625,0 -0.078125,0.03125 -0.140625,0.109375 -0.78125,0.984375 -1.875,0.984375 -1.984375,0.984375 -0.625,0 -0.90625,-0.484375 -0.90625,-1.09375 0,-0.40625 0.203125,-1.375 0.546875,-1.984375 0.3125,-0.578125 0.859375,-1 1.40625,-1 0.328125,0 0.71875,0.125 0.859375,0.40625 z m 0,0"
           id="path9287" />
      </symbol>
      <symbol
         overflow="visible"
         id="symbol3188">
        <path
           style="stroke:none"
           d=""
           id="path9386" />
      </symbol>
      <symbol
         overflow="visible"
         id="symbol1339">
        <path
           style="stroke:none"
           d="m 1.90625,-2.90625 c 0.109375,0 0.171875,0.015625 0.390625,0.0625 0.21875,0.0625 0.390625,0.109375 0.515625,0.109375 0.28125,0 0.296875,-0.203125 0.296875,-0.265625 0,-0.0625 -0.015625,-0.28125 -0.296875,-0.28125 -0.125,0 -0.296875,0.046875 -0.515625,0.109375 -0.21875,0.0625 -0.28125,0.0625 -0.390625,0.078125 0.015625,-0.25 0.0625,-0.53125 0.09375,-0.75 0.03125,-0.140625 0.09375,-0.5 0.09375,-0.734375 0,-0.21875 -0.09375,-0.328125 -0.265625,-0.328125 -0.15625,0 -0.28125,0.078125 -0.28125,0.328125 0,0.21875 0.0625,0.578125 0.109375,0.8125 0.015625,0.078125 0.078125,0.40625 0.078125,0.671875 C 1.640625,-3.109375 1.5625,-3.109375 1.359375,-3.171875 1.140625,-3.234375 0.96875,-3.28125 0.84375,-3.28125 c -0.28125,0 -0.3125,0.21875 -0.3125,0.28125 0,0.046875 0.03125,0.265625 0.3125,0.265625 0.125,0 0.296875,-0.046875 0.515625,-0.109375 0.203125,-0.046875 0.28125,-0.0625 0.375,-0.0625 0,0.171875 -0.0625,0.390625 -0.09375,0.53125 -0.09375,0.4375 -0.09375,0.484375 -0.09375,0.84375 0,1.34375 0.140625,2.78125 0.15625,2.921875 0.015625,0.0625 0.03125,0.09375 0.125,0.09375 0.109375,0 0.109375,-0.03125 0.125,-0.125 0,-0.015625 0.046875,-0.625 0.078125,-1.046875 0.03125,-0.609375 0.0625,-1.21875 0.0625,-1.84375 0,-0.359375 0,-0.40625 -0.09375,-0.859375 -0.015625,-0.0625 -0.078125,-0.34375 -0.09375,-0.515625 z m 0,0"
           id="path1630" />
      </symbol>
      <symbol
         overflow="visible"
         id="symbol7610">
        <path
           style="stroke:none"
           d="m 2.203125,-3.8125 c 0.609375,0.84375 1.5,0.984375 1.546875,0.984375 0.09375,0 0.09375,-0.09375 0.09375,-0.171875 0,-0.078125 0,-0.140625 -0.09375,-0.15625 C 3.46875,-3.234375 2.5,-3.484375 2.15625,-4.6875 2.125,-4.796875 2.109375,-4.84375 2.046875,-4.84375 1.984375,-4.84375 1.953125,-4.796875 1.9375,-4.75 1.859375,-4.453125 1.59375,-3.5 0.390625,-3.1875 0.25,-3.15625 0.234375,-3.140625 0.234375,-3 c 0,0.078125 0,0.171875 0.09375,0.171875 0.046875,0 0.9375,-0.140625 1.546875,-0.984375 v 4.890625 c 0,0.109375 0,0.28125 0.15625,0.28125 0.171875,0 0.171875,-0.171875 0.171875,-0.28125 z m 0,0"
           id="path7529" />
      </symbol>
      <symbol
         overflow="visible"
         id="symbol9118">
        <path
           style="stroke:none"
           d=""
           id="path1303" />
      </symbol>
      <symbol
         overflow="visible"
         id="symbol6174">
        <path
           style="stroke:none"
           d="M 3.984375,-4.625 C 3.984375,-4.640625 4,-4.734375 4,-4.734375 4,-4.78125 3.984375,-4.84375 3.890625,-4.84375 3.75,-4.84375 3.171875,-4.78125 3,-4.765625 c -0.046875,0 -0.15625,0.015625 -0.15625,0.15625 0,0.09375 0.109375,0.09375 0.1875,0.09375 0.328125,0 0.328125,0.0625 0.328125,0.109375 0,0.046875 0,0.09375 -0.015625,0.15625 L 2.9375,-2.65625 c -0.140625,-0.234375 -0.375,-0.421875 -0.71875,-0.421875 -0.890625,0 -1.796875,0.984375 -1.796875,1.984375 0,0.6875 0.453125,1.15625 1.0625,1.15625 0.375,0 0.703125,-0.203125 0.984375,-0.484375 C 2.59375,0 3,0.0625 3.1875,0.0625 c 0.25,0 0.421875,-0.140625 0.546875,-0.359375 0.15625,-0.28125 0.25,-0.671875 0.25,-0.703125 0,-0.09375 -0.09375,-0.09375 -0.109375,-0.09375 -0.109375,0 -0.109375,0.03125 -0.15625,0.21875 C 3.625,-0.53125 3.5,-0.125 3.203125,-0.125 3.03125,-0.125 2.96875,-0.28125 2.96875,-0.46875 c 0,-0.125 0.015625,-0.1875 0.046875,-0.28125 z M 2.5,-0.875 C 2.453125,-0.671875 2.296875,-0.53125 2.140625,-0.40625 2.078125,-0.34375 1.796875,-0.125 1.5,-0.125 c -0.265625,0 -0.515625,-0.1875 -0.515625,-0.671875 0,-0.375 0.203125,-1.140625 0.375,-1.421875 0.3125,-0.5625 0.671875,-0.65625 0.859375,-0.65625 0.484375,0 0.625,0.53125 0.625,0.609375 0,0.015625 -0.015625,0.078125 -0.015625,0.09375 z m 0,0"
           id="path8684" />
      </symbol>
      <symbol
         overflow="visible"
         id="symbol5423">
        <path
           style="stroke:none"
           d="m 2.1875,-4.625 c 0,-0.015625 0.015625,-0.109375 0.015625,-0.109375 0,-0.046875 -0.015625,-0.109375 -0.109375,-0.109375 -0.140625,0 -0.71875,0.0625 -0.890625,0.078125 -0.046875,0 -0.15625,0.015625 -0.15625,0.15625 0,0.09375 0.109375,0.09375 0.1875,0.09375 0.328125,0 0.328125,0.0625 0.328125,0.109375 0,0.046875 -0.015625,0.09375 -0.015625,0.15625 L 0.5625,-0.3125 c -0.046875,0.125 -0.046875,0.140625 -0.046875,0.15625 0,0.109375 0.09375,0.21875 0.25,0.21875 0.1875,0 0.265625,-0.125 0.3125,-0.28125 0.015625,-0.03125 0.3125,-1.265625 0.34375,-1.359375 0.5,0.046875 0.890625,0.21875 0.890625,0.578125 0,0.03125 0,0.0625 -0.015625,0.140625 -0.03125,0.09375 -0.03125,0.140625 -0.03125,0.21875 0,0.484375 0.40625,0.703125 0.75,0.703125 0.671875,0 0.875,-1.046875 0.875,-1.0625 0,-0.09375 -0.078125,-0.09375 -0.109375,-0.09375 -0.09375,0 -0.109375,0.046875 -0.140625,0.171875 C 3.5625,-0.625 3.375,-0.125 3.03125,-0.125 c -0.1875,0 -0.25,-0.171875 -0.25,-0.359375 0,-0.125 0,-0.140625 0.046875,-0.3125 0.015625,-0.03125 0.03125,-0.140625 0.03125,-0.21875 0,-0.625 -0.828125,-0.71875 -1.125,-0.734375 C 1.9375,-1.875 2.1875,-2.109375 2.3125,-2.21875 2.671875,-2.546875 3.015625,-2.875 3.40625,-2.875 c 0.078125,0 0.171875,0.015625 0.234375,0.09375 C 3.34375,-2.734375 3.28125,-2.5 3.28125,-2.390625 c 0,0.140625 0.109375,0.25 0.265625,0.25 0.203125,0 0.40625,-0.15625 0.40625,-0.4375 0,-0.234375 -0.171875,-0.5 -0.53125,-0.5 -0.40625,0 -0.765625,0.296875 -1.125,0.625 C 2,-2.1875 1.78125,-1.96875 1.484375,-1.84375 Z m 0,0"
           id="path2226" />
      </symbol>
    </g>
    <g
       id="g6605">
      <symbol
         overflow="visible"
         id="symbol5712">
        <path
           style="stroke:none"
           d=""
           id="path2059" />
      </symbol>
      <symbol
         overflow="visible"
         id="symbol9387">
        <path
           style="stroke:none"
           d="m 3.953125,-3.78125 c -0.171875,0 -0.296875,0 -0.4375,0.125 -0.171875,0.15625 -0.1875,0.328125 -0.1875,0.390625 0,0.25 0.1875,0.359375 0.375,0.359375 0.28125,0 0.546875,-0.25 0.546875,-0.640625 0,-0.484375 -0.46875,-0.859375 -1.171875,-0.859375 -1.34375,0 -2.671875,1.421875 -2.671875,2.828125 0,0.90625 0.578125,1.6875 1.625,1.6875 1.421875,0 2.25,-1.0625 2.25,-1.171875 0,-0.0625 -0.046875,-0.140625 -0.109375,-0.140625 -0.0625,0 -0.078125,0.03125 -0.140625,0.109375 -0.78125,0.984375 -1.875,0.984375 -1.984375,0.984375 -0.625,0 -0.90625,-0.484375 -0.90625,-1.09375 0,-0.40625 0.203125,-1.375 0.546875,-1.984375 0.3125,-0.578125 0.859375,-1 1.40625,-1 0.328125,0 0.71875,0.125 0.859375,0.40625 z m 0,0"
           id="path2292" />
      </symbol>
      <symbol
         overflow="visible"
         id="symbol701">
        <path
           style="stroke:none"
           d=""
           id="path8280" />
      </symbol>
      <symbol
         overflow="visible"
         id="symbol2543">
        <path
           style="stroke:none"
           d="m 1.90625,-2.90625 c 0.109375,0 0.171875,0.015625 0.390625,0.0625 0.21875,0.0625 0.390625,0.109375 0.515625,0.109375 0.28125,0 0.296875,-0.203125 0.296875,-0.265625 0,-0.0625 -0.015625,-0.28125 -0.296875,-0.28125 -0.125,0 -0.296875,0.046875 -0.515625,0.109375 -0.21875,0.0625 -0.28125,0.0625 -0.390625,0.078125 0.015625,-0.25 0.0625,-0.53125 0.09375,-0.75 0.03125,-0.140625 0.09375,-0.5 0.09375,-0.734375 0,-0.21875 -0.09375,-0.328125 -0.265625,-0.328125 -0.15625,0 -0.28125,0.078125 -0.28125,0.328125 0,0.21875 0.0625,0.578125 0.109375,0.8125 0.015625,0.078125 0.078125,0.40625 0.078125,0.671875 C 1.640625,-3.109375 1.5625,-3.109375 1.359375,-3.171875 1.140625,-3.234375 0.96875,-3.28125 0.84375,-3.28125 c -0.28125,0 -0.3125,0.21875 -0.3125,0.28125 0,0.046875 0.03125,0.265625 0.3125,0.265625 0.125,0 0.296875,-0.046875 0.515625,-0.109375 0.203125,-0.046875 0.28125,-0.0625 0.375,-0.0625 0,0.171875 -0.0625,0.390625 -0.09375,0.53125 -0.09375,0.4375 -0.09375,0.484375 -0.09375,0.84375 0,1.34375 0.140625,2.78125 0.15625,2.921875 0.015625,0.0625 0.03125,0.09375 0.125,0.09375 0.109375,0 0.109375,-0.03125 0.125,-0.125 0,-0.015625 0.046875,-0.625 0.078125,-1.046875 0.03125,-0.609375 0.0625,-1.21875 0.0625,-1.84375 0,-0.359375 0,-0.40625 -0.09375,-0.859375 -0.015625,-0.0625 -0.078125,-0.34375 -0.09375,-0.515625 z m 0,0"
           id="path5587" />
      </symbol>
      <symbol
         overflow="visible"
         id="symbol5980">
        <path
           style="stroke:none"
           d="m 2.203125,-4.5625 c 0,-0.109375 0,-0.28125 -0.15625,-0.28125 C 1.875,-4.84375 1.875,-4.671875 1.875,-4.5625 v 4.890625 c -0.609375,-0.84375 -1.5,-0.984375 -1.546875,-0.984375 -0.09375,0 -0.09375,0.09375 -0.09375,0.171875 0,0.078125 0,0.140625 0.09375,0.15625 0.21875,0.0625 0.640625,0.1875 1.03125,0.5625 C 1.765625,0.625 1.875,1.03125 1.9375,1.203125 c 0.015625,0.09375 0.03125,0.15625 0.109375,0.15625 0.0625,0 0.078125,-0.046875 0.109375,-0.1875 0.1875,-0.625 0.65625,-1.234375 1.53125,-1.46875 0.140625,-0.03125 0.15625,-0.046875 0.15625,-0.1875 0,-0.078125 0,-0.171875 -0.09375,-0.171875 -0.046875,0 -0.9375,0.140625 -1.546875,0.984375 z m 0,0"
           id="path2741" />
      </symbol>
      <symbol
         overflow="visible"
         id="symbol2800">
        <path
           style="stroke:none"
           d=""
           id="path8604" />
      </symbol>
      <symbol
         overflow="visible"
         id="symbol4403">
        <path
           style="stroke:none"
           d="M 3.984375,-4.625 C 3.984375,-4.640625 4,-4.734375 4,-4.734375 4,-4.78125 3.984375,-4.84375 3.890625,-4.84375 3.75,-4.84375 3.171875,-4.78125 3,-4.765625 c -0.046875,0 -0.15625,0.015625 -0.15625,0.15625 0,0.09375 0.109375,0.09375 0.1875,0.09375 0.328125,0 0.328125,0.0625 0.328125,0.109375 0,0.046875 0,0.09375 -0.015625,0.15625 L 2.9375,-2.65625 c -0.140625,-0.234375 -0.375,-0.421875 -0.71875,-0.421875 -0.890625,0 -1.796875,0.984375 -1.796875,1.984375 0,0.6875 0.453125,1.15625 1.0625,1.15625 0.375,0 0.703125,-0.203125 0.984375,-0.484375 C 2.59375,0 3,0.0625 3.1875,0.0625 c 0.25,0 0.421875,-0.140625 0.546875,-0.359375 0.15625,-0.28125 0.25,-0.671875 0.25,-0.703125 0,-0.09375 -0.09375,-0.09375 -0.109375,-0.09375 -0.109375,0 -0.109375,0.03125 -0.15625,0.21875 C 3.625,-0.53125 3.5,-0.125 3.203125,-0.125 3.03125,-0.125 2.96875,-0.28125 2.96875,-0.46875 c 0,-0.125 0.015625,-0.1875 0.046875,-0.28125 z M 2.5,-0.875 C 2.453125,-0.671875 2.296875,-0.53125 2.140625,-0.40625 2.078125,-0.34375 1.796875,-0.125 1.5,-0.125 c -0.265625,0 -0.515625,-0.1875 -0.515625,-0.671875 0,-0.375 0.203125,-1.140625 0.375,-1.421875 0.3125,-0.5625 0.671875,-0.65625 0.859375,-0.65625 0.484375,0 0.625,0.53125 0.625,0.609375 0,0.015625 -0.015625,0.078125 -0.015625,0.09375 z m 0,0"
           id="path7518" />
      </symbol>
      <symbol
         overflow="visible"
         id="symbol82">
        <path
           style="stroke:none"
           d="m 2.1875,-4.625 c 0,-0.015625 0.015625,-0.109375 0.015625,-0.109375 0,-0.046875 -0.015625,-0.109375 -0.109375,-0.109375 -0.140625,0 -0.71875,0.0625 -0.890625,0.078125 -0.046875,0 -0.15625,0.015625 -0.15625,0.15625 0,0.09375 0.109375,0.09375 0.1875,0.09375 0.328125,0 0.328125,0.0625 0.328125,0.109375 0,0.046875 -0.015625,0.09375 -0.015625,0.15625 L 0.5625,-0.3125 c -0.046875,0.125 -0.046875,0.140625 -0.046875,0.15625 0,0.109375 0.09375,0.21875 0.25,0.21875 0.1875,0 0.265625,-0.125 0.3125,-0.28125 0.015625,-0.03125 0.3125,-1.265625 0.34375,-1.359375 0.5,0.046875 0.890625,0.21875 0.890625,0.578125 0,0.03125 0,0.0625 -0.015625,0.140625 -0.03125,0.09375 -0.03125,0.140625 -0.03125,0.21875 0,0.484375 0.40625,0.703125 0.75,0.703125 0.671875,0 0.875,-1.046875 0.875,-1.0625 0,-0.09375 -0.078125,-0.09375 -0.109375,-0.09375 -0.09375,0 -0.109375,0.046875 -0.140625,0.171875 C 3.5625,-0.625 3.375,-0.125 3.03125,-0.125 c -0.1875,0 -0.25,-0.171875 -0.25,-0.359375 0,-0.125 0,-0.140625 0.046875,-0.3125 0.015625,-0.03125 0.03125,-0.140625 0.03125,-0.21875 0,-0.625 -0.828125,-0.71875 -1.125,-0.734375 C 1.9375,-1.875 2.1875,-2.109375 2.3125,-2.21875 2.671875,-2.546875 3.015625,-2.875 3.40625,-2.875 c 0.078125,0 0.171875,0.015625 0.234375,0.09375 C 3.34375,-2.734375 3.28125,-2.5 3.28125,-2.390625 c 0,0.140625 0.109375,0.25 0.265625,0.25 0.203125,0 0.40625,-0.15625 0.40625,-0.4375 0,-0.234375 -0.171875,-0.5 -0.53125,-0.5 -0.40625,0 -0.765625,0.296875 -1.125,0.625 C 2,-2.1875 1.78125,-1.96875 1.484375,-1.84375 Z m 0,0"
           id="path6149" />
      </symbol>
    </g>
    <g
       id="g6501">
      <symbol
         overflow="visible"
         id="symbol5612">
        <path
           style="stroke:none"
           d=""
           id="path8650" />
      </symbol>
      <symbol
         overflow="visible"
         id="symbol9243">
        <path
           style="stroke:none"
           d="m 2.859375,-6.8125 c 0,0 0,-0.109375 -0.125,-0.109375 -0.234375,0 -0.953125,0.078125 -1.21875,0.109375 -0.078125,0 -0.1875,0.015625 -0.1875,0.1875 0,0.125 0.09375,0.125 0.234375,0.125 0.484375,0 0.5,0.0625 0.5,0.171875 L 2.03125,-6.125 0.59375,-0.390625 c -0.046875,0.140625 -0.046875,0.15625 -0.046875,0.21875 0,0.234375 0.203125,0.28125 0.296875,0.28125 0.15625,0 0.3125,-0.125 0.359375,-0.265625 l 0.1875,-0.75 0.21875,-0.890625 C 1.671875,-2.03125 1.734375,-2.25 1.78125,-2.46875 1.796875,-2.53125 1.890625,-2.859375 1.890625,-2.921875 1.921875,-3.015625 2.234375,-3.5625 2.578125,-3.84375 2.796875,-4 3.09375,-4.1875 3.53125,-4.1875 c 0.421875,0 0.53125,0.34375 0.53125,0.703125 0,0.53125 -0.375,1.625 -0.609375,2.234375 C 3.375,-1.03125 3.3125,-0.90625 3.3125,-0.703125 c 0,0.46875 0.359375,0.8125 0.828125,0.8125 0.9375,0 1.296875,-1.453125 1.296875,-1.53125 0,-0.109375 -0.078125,-0.109375 -0.109375,-0.109375 -0.109375,0 -0.109375,0.03125 -0.15625,0.1875 -0.140625,0.53125 -0.46875,1.234375 -1.015625,1.234375 -0.171875,0 -0.234375,-0.09375 -0.234375,-0.328125 0,-0.25 0.078125,-0.484375 0.171875,-0.703125 0.15625,-0.4375 0.609375,-1.625 0.609375,-2.203125 0,-0.640625 -0.390625,-1.0625 -1.140625,-1.0625 -0.625,0 -1.109375,0.3125 -1.484375,0.765625 z m 0,0"
           id="path6017" />
      </symbol>
      <symbol
         overflow="visible"
         id="symbol7925">
        <path
           style="stroke:none"
           d="m 5.140625,-6.8125 c 0,0 0,-0.109375 -0.125,-0.109375 -0.15625,0 -1.09375,0.09375 -1.265625,0.109375 -0.078125,0.015625 -0.140625,0.0625 -0.140625,0.1875 0,0.125 0.09375,0.125 0.234375,0.125 0.484375,0 0.5,0.0625 0.5,0.171875 L 4.3125,-6.125 3.71875,-3.765625 C 3.53125,-4.140625 3.25,-4.40625 2.796875,-4.40625 c -1.15625,0 -2.390625,1.46875 -2.390625,2.921875 0,0.9375 0.546875,1.59375 1.3125,1.59375 0.203125,0 0.703125,-0.046875 1.296875,-0.75 0.078125,0.421875 0.4375,0.75 0.90625,0.75 0.359375,0 0.578125,-0.234375 0.75,-0.546875 0.15625,-0.359375 0.296875,-0.96875 0.296875,-0.984375 0,-0.109375 -0.09375,-0.109375 -0.125,-0.109375 -0.09375,0 -0.109375,0.046875 -0.140625,0.1875 -0.171875,0.640625 -0.34375,1.234375 -0.75,1.234375 -0.28125,0 -0.296875,-0.265625 -0.296875,-0.453125 0,-0.25 0.015625,-0.3125 0.046875,-0.484375 z m -2.0625,5.625 C 3.015625,-1 3.015625,-0.984375 2.875,-0.8125 2.4375,-0.265625 2.03125,-0.109375 1.75,-0.109375 c -0.5,0 -0.640625,-0.546875 -0.640625,-0.9375 0,-0.5 0.3125,-1.71875 0.546875,-2.1875 0.3125,-0.578125 0.75,-0.953125 1.15625,-0.953125 0.640625,0 0.78125,0.8125 0.78125,0.875 0,0.0625 -0.015625,0.125 -0.03125,0.171875 z m 0,0"
           id="path3030" />
      </symbol>
      <symbol
         overflow="visible"
         id="symbol8266">
        <path
           style="stroke:none"
           d=""
           id="path4795" />
      </symbol>
      <symbol
         overflow="visible"
         id="symbol9999">
        <path
           style="stroke:none"
           d="m 2.1875,-4.625 c 0,-0.015625 0.015625,-0.109375 0.015625,-0.109375 0,-0.046875 -0.015625,-0.109375 -0.109375,-0.109375 -0.140625,0 -0.71875,0.0625 -0.890625,0.078125 -0.046875,0 -0.15625,0.015625 -0.15625,0.15625 0,0.09375 0.109375,0.09375 0.1875,0.09375 0.328125,0 0.328125,0.0625 0.328125,0.109375 0,0.046875 -0.015625,0.09375 -0.015625,0.15625 L 0.5625,-0.3125 c -0.046875,0.125 -0.046875,0.140625 -0.046875,0.15625 0,0.109375 0.09375,0.21875 0.25,0.21875 0.1875,0 0.265625,-0.125 0.3125,-0.28125 0.015625,-0.03125 0.3125,-1.265625 0.34375,-1.359375 0.5,0.046875 0.890625,0.21875 0.890625,0.578125 0,0.03125 0,0.0625 -0.015625,0.140625 -0.03125,0.09375 -0.03125,0.140625 -0.03125,0.21875 0,0.484375 0.40625,0.703125 0.75,0.703125 0.671875,0 0.875,-1.046875 0.875,-1.0625 0,-0.09375 -0.078125,-0.09375 -0.109375,-0.09375 -0.09375,0 -0.109375,0.046875 -0.140625,0.171875 C 3.5625,-0.625 3.375,-0.125 3.03125,-0.125 c -0.1875,0 -0.25,-0.171875 -0.25,-0.359375 0,-0.125 0,-0.140625 0.046875,-0.3125 0.015625,-0.03125 0.03125,-0.140625 0.03125,-0.21875 0,-0.625 -0.828125,-0.71875 -1.125,-0.734375 C 1.9375,-1.875 2.1875,-2.109375 2.3125,-2.21875 2.671875,-2.546875 3.015625,-2.875 3.40625,-2.875 c 0.078125,0 0.171875,0.015625 0.234375,0.09375 C 3.34375,-2.734375 3.28125,-2.5 3.28125,-2.390625 c 0,0.140625 0.109375,0.25 0.265625,0.25 0.203125,0 0.40625,-0.15625 0.40625,-0.4375 0,-0.234375 -0.171875,-0.5 -0.53125,-0.5 -0.40625,0 -0.765625,0.296875 -1.125,0.625 C 2,-2.1875 1.78125,-1.96875 1.484375,-1.84375 Z m 0,0"
           id="path2829" />
      </symbol>
      <symbol
         overflow="visible"
         id="symbol2260">
        <path
           style="stroke:none"
           d="m 4.078125,-2.53125 c 0.109375,0 0.1875,0 0.25,-0.046875 0.09375,-0.078125 0.125,-0.1875 0.125,-0.234375 C 4.453125,-3 4.265625,-3 4.140625,-3 H 2.359375 C 1.25,-3 0.40625,-1.90625 0.40625,-1.0625 c 0,0.640625 0.484375,1.125 1.203125,1.125 0.875,0 1.875,-0.78125 1.875,-1.859375 0,-0.109375 0,-0.421875 -0.203125,-0.734375 z M 1.609375,-0.125 c -0.375,0 -0.6875,-0.25 -0.6875,-0.75 0,-0.203125 0.125,-1.65625 1.328125,-1.65625 0.34375,0 0.71875,0.140625 0.71875,0.65625 0,0.140625 -0.0625,0.765625 -0.40625,1.234375 C 2.265625,-0.265625 1.875,-0.125 1.609375,-0.125 Z m 0,0"
           id="path4290" />
      </symbol>
    </g>
    <g
       id="g6242">
      <symbol
         overflow="visible"
         id="symbol2680">
        <path
           style="stroke:none"
           d=""
           id="path8020" />
      </symbol>
      <symbol
         overflow="visible"
         id="symbol5907">
        <path
           style="stroke:none"
           d="m 0.875,-0.59375 c -0.03125,0.15625 -0.09375,0.390625 -0.09375,0.4375 0,0.171875 0.140625,0.265625 0.296875,0.265625 0.125,0 0.296875,-0.078125 0.375,-0.28125 0,-0.015625 0.125,-0.484375 0.1875,-0.734375 l 0.21875,-0.890625 C 1.90625,-2.03125 1.96875,-2.25 2.03125,-2.46875 c 0.03125,-0.171875 0.109375,-0.46875 0.125,-0.5 0.140625,-0.3125 0.671875,-1.21875 1.625,-1.21875 0.453125,0 0.53125,0.375 0.53125,0.703125 0,0.609375 -0.484375,1.890625 -0.640625,2.3125 C 3.578125,-0.9375 3.5625,-0.8125 3.5625,-0.703125 c 0,0.46875 0.359375,0.8125 0.828125,0.8125 0.9375,0 1.296875,-1.453125 1.296875,-1.53125 0,-0.109375 -0.078125,-0.109375 -0.109375,-0.109375 -0.109375,0 -0.109375,0.03125 -0.15625,0.1875 -0.203125,0.671875 -0.53125,1.234375 -1.015625,1.234375 -0.171875,0 -0.234375,-0.09375 -0.234375,-0.328125 0,-0.25 0.078125,-0.484375 0.171875,-0.703125 0.1875,-0.53125 0.609375,-1.625 0.609375,-2.203125 0,-0.65625 -0.421875,-1.0625 -1.140625,-1.0625 -0.90625,0 -1.390625,0.640625 -1.5625,0.875 -0.046875,-0.5625 -0.453125,-0.875 -0.921875,-0.875 -0.453125,0 -0.640625,0.390625 -0.734375,0.5625 C 0.421875,-3.5 0.296875,-2.90625 0.296875,-2.875 c 0,0.109375 0.09375,0.109375 0.109375,0.109375 0.109375,0 0.109375,-0.015625 0.171875,-0.234375 0.171875,-0.703125 0.375,-1.1875 0.734375,-1.1875 0.1875,0 0.296875,0.125 0.296875,0.453125 0,0.21875 -0.03125,0.328125 -0.15625,0.84375 z m 0,0"
           id="path6001" />
      </symbol>
      <symbol
         overflow="visible"
         id="symbol9098">
        <path
           style="stroke:none"
           d=""
           id="path5103" />
      </symbol>
      <symbol
         overflow="visible"
         id="symbol1372">
        <path
           style="stroke:none"
           d="M 3.984375,-4.625 C 3.984375,-4.640625 4,-4.734375 4,-4.734375 4,-4.78125 3.984375,-4.84375 3.890625,-4.84375 3.75,-4.84375 3.171875,-4.78125 3,-4.765625 c -0.046875,0 -0.15625,0.015625 -0.15625,0.15625 0,0.09375 0.109375,0.09375 0.1875,0.09375 0.328125,0 0.328125,0.0625 0.328125,0.109375 0,0.046875 0,0.09375 -0.015625,0.15625 L 2.9375,-2.65625 c -0.140625,-0.234375 -0.375,-0.421875 -0.71875,-0.421875 -0.890625,0 -1.796875,0.984375 -1.796875,1.984375 0,0.6875 0.453125,1.15625 1.0625,1.15625 0.375,0 0.703125,-0.203125 0.984375,-0.484375 C 2.59375,0 3,0.0625 3.1875,0.0625 c 0.25,0 0.421875,-0.140625 0.546875,-0.359375 0.15625,-0.28125 0.25,-0.671875 0.25,-0.703125 0,-0.09375 -0.09375,-0.09375 -0.109375,-0.09375 -0.109375,0 -0.109375,0.03125 -0.15625,0.21875 C 3.625,-0.53125 3.5,-0.125 3.203125,-0.125 3.03125,-0.125 2.96875,-0.28125 2.96875,-0.46875 c 0,-0.125 0.015625,-0.1875 0.046875,-0.28125 z M 2.5,-0.875 C 2.453125,-0.671875 2.296875,-0.53125 2.140625,-0.40625 2.078125,-0.34375 1.796875,-0.125 1.5,-0.125 c -0.265625,0 -0.515625,-0.1875 -0.515625,-0.671875 0,-0.375 0.203125,-1.140625 0.375,-1.421875 0.3125,-0.5625 0.671875,-0.65625 0.859375,-0.65625 0.484375,0 0.625,0.53125 0.625,0.609375 0,0.015625 -0.015625,0.078125 -0.015625,0.09375 z m 0,0"
           id="path3584" />
      </symbol>
      <symbol
         overflow="visible"
         id="symbol5904">
        <path
           style="stroke:none"
           d="m 4.078125,-2.53125 c 0.109375,0 0.1875,0 0.25,-0.046875 0.09375,-0.078125 0.125,-0.1875 0.125,-0.234375 C 4.453125,-3 4.265625,-3 4.140625,-3 H 2.359375 C 1.25,-3 0.40625,-1.90625 0.40625,-1.0625 c 0,0.640625 0.484375,1.125 1.203125,1.125 0.875,0 1.875,-0.78125 1.875,-1.859375 0,-0.109375 0,-0.421875 -0.203125,-0.734375 z M 1.609375,-0.125 c -0.375,0 -0.6875,-0.25 -0.6875,-0.75 0,-0.203125 0.125,-1.65625 1.328125,-1.65625 0.34375,0 0.71875,0.140625 0.71875,0.65625 0,0.140625 -0.0625,0.765625 -0.40625,1.234375 C 2.265625,-0.265625 1.875,-0.125 1.609375,-0.125 Z m 0,0"
           id="path2337" />
      </symbol>
      <symbol
         overflow="visible"
         id="symbol9063">
        <path
           style="stroke:none"
           d=""
           id="path9816" />
      </symbol>
      <symbol
         overflow="visible"
         id="symbol3874">
        <path
           style="stroke:none"
           d="m 6.84375,-3.265625 c 0.15625,0 0.34375,0 0.34375,-0.1875 C 7.1875,-3.65625 7,-3.65625 6.859375,-3.65625 h -5.96875 c -0.140625,0 -0.328125,0 -0.328125,0.203125 0,0.1875 0.1875,0.1875 0.328125,0.1875 z m 0.015625,1.9375 c 0.140625,0 0.328125,0 0.328125,-0.203125 0,-0.1875 -0.1875,-0.1875 -0.34375,-0.1875 H 0.890625 c -0.140625,0 -0.328125,0 -0.328125,0.1875 0,0.203125 0.1875,0.203125 0.328125,0.203125 z m 0,0"
           id="path268" />
      </symbol>
      <symbol
         overflow="visible"
         id="symbol3906">
        <path
           style="stroke:none"
           d="m 2.9375,-6.375 c 0,-0.25 0,-0.265625 -0.234375,-0.265625 C 2.078125,-6 1.203125,-6 0.890625,-6 v 0.3125 c 0.203125,0 0.78125,0 1.296875,-0.265625 v 5.171875 c 0,0.359375 -0.03125,0.46875 -0.921875,0.46875 h -0.3125 V 0 c 0.34375,-0.03125 1.203125,-0.03125 1.609375,-0.03125 0.390625,0 1.265625,0 1.609375,0.03125 v -0.3125 h -0.3125 c -0.90625,0 -0.921875,-0.109375 -0.921875,-0.46875 z m 0,0"
           id="path2696" />
      </symbol>
    </g>
    <g
       id="g653">
      <symbol
         overflow="visible"
         id="symbol933">
        <path
           style="stroke:none"
           d=""
           id="path7276" />
      </symbol>
      <symbol
         overflow="visible"
         id="symbol2313">
        <path
           style="stroke:none"
           d="m 3.953125,-3.78125 c -0.171875,0 -0.296875,0 -0.4375,0.125 -0.171875,0.15625 -0.1875,0.328125 -0.1875,0.390625 0,0.25 0.1875,0.359375 0.375,0.359375 0.28125,0 0.546875,-0.25 0.546875,-0.640625 0,-0.484375 -0.46875,-0.859375 -1.171875,-0.859375 -1.34375,0 -2.671875,1.421875 -2.671875,2.828125 0,0.90625 0.578125,1.6875 1.625,1.6875 1.421875,0 2.25,-1.0625 2.25,-1.171875 0,-0.0625 -0.046875,-0.140625 -0.109375,-0.140625 -0.0625,0 -0.078125,0.03125 -0.140625,0.109375 -0.78125,0.984375 -1.875,0.984375 -1.984375,0.984375 -0.625,0 -0.90625,-0.484375 -0.90625,-1.09375 0,-0.40625 0.203125,-1.375 0.546875,-1.984375 0.3125,-0.578125 0.859375,-1 1.40625,-1 0.328125,0 0.71875,0.125 0.859375,0.40625 z m 0,0"
           id="path2368" />
      </symbol>
      <symbol
         overflow="visible"
         id="symbol7110">
        <path
           style="stroke:none"
           d=""
           id="path4861" />
      </symbol>
      <symbol
         overflow="visible"
         id="symbol115">
        <path
           style="stroke:none"
           d="m 1.90625,-2.90625 c 0.109375,0 0.171875,0.015625 0.390625,0.0625 0.21875,0.0625 0.390625,0.109375 0.515625,0.109375 0.28125,0 0.296875,-0.203125 0.296875,-0.265625 0,-0.0625 -0.015625,-0.28125 -0.296875,-0.28125 -0.125,0 -0.296875,0.046875 -0.515625,0.109375 -0.21875,0.0625 -0.28125,0.0625 -0.390625,0.078125 0.015625,-0.25 0.0625,-0.53125 0.09375,-0.75 0.03125,-0.140625 0.09375,-0.5 0.09375,-0.734375 0,-0.21875 -0.09375,-0.328125 -0.265625,-0.328125 -0.15625,0 -0.28125,0.078125 -0.28125,0.328125 0,0.21875 0.0625,0.578125 0.109375,0.8125 0.015625,0.078125 0.078125,0.40625 0.078125,0.671875 C 1.640625,-3.109375 1.5625,-3.109375 1.359375,-3.171875 1.140625,-3.234375 0.96875,-3.28125 0.84375,-3.28125 c -0.28125,0 -0.3125,0.21875 -0.3125,0.28125 0,0.046875 0.03125,0.265625 0.3125,0.265625 0.125,0 0.296875,-0.046875 0.515625,-0.109375 0.203125,-0.046875 0.28125,-0.0625 0.375,-0.0625 0,0.171875 -0.0625,0.390625 -0.09375,0.53125 -0.09375,0.4375 -0.09375,0.484375 -0.09375,0.84375 0,1.34375 0.140625,2.78125 0.15625,2.921875 0.015625,0.0625 0.03125,0.09375 0.125,0.09375 0.109375,0 0.109375,-0.03125 0.125,-0.125 0,-0.015625 0.046875,-0.625 0.078125,-1.046875 0.03125,-0.609375 0.0625,-1.21875 0.0625,-1.84375 0,-0.359375 0,-0.40625 -0.09375,-0.859375 -0.015625,-0.0625 -0.078125,-0.34375 -0.09375,-0.515625 z m 0,0"
           id="path8814" />
      </symbol>
      <symbol
         overflow="visible"
         id="symbol6330">
        <path
           style="stroke:none"
           d=""
           id="path8977" />
      </symbol>
      <symbol
         overflow="visible"
         id="symbol2689">
        <path
           style="stroke:none"
           d="m 2.1875,-4.625 c 0,-0.015625 0.015625,-0.109375 0.015625,-0.109375 0,-0.046875 -0.015625,-0.109375 -0.109375,-0.109375 -0.140625,0 -0.71875,0.0625 -0.890625,0.078125 -0.046875,0 -0.15625,0.015625 -0.15625,0.15625 0,0.09375 0.109375,0.09375 0.1875,0.09375 0.328125,0 0.328125,0.0625 0.328125,0.109375 0,0.046875 -0.015625,0.09375 -0.015625,0.15625 L 0.5625,-0.3125 c -0.046875,0.125 -0.046875,0.140625 -0.046875,0.15625 0,0.109375 0.09375,0.21875 0.25,0.21875 0.1875,0 0.265625,-0.125 0.3125,-0.28125 0.015625,-0.03125 0.3125,-1.265625 0.34375,-1.359375 0.5,0.046875 0.890625,0.21875 0.890625,0.578125 0,0.03125 0,0.0625 -0.015625,0.140625 -0.03125,0.09375 -0.03125,0.140625 -0.03125,0.21875 0,0.484375 0.40625,0.703125 0.75,0.703125 0.671875,0 0.875,-1.046875 0.875,-1.0625 0,-0.09375 -0.078125,-0.09375 -0.109375,-0.09375 -0.09375,0 -0.109375,0.046875 -0.140625,0.171875 C 3.5625,-0.625 3.375,-0.125 3.03125,-0.125 c -0.1875,0 -0.25,-0.171875 -0.25,-0.359375 0,-0.125 0,-0.140625 0.046875,-0.3125 0.015625,-0.03125 0.03125,-0.140625 0.03125,-0.21875 0,-0.625 -0.828125,-0.71875 -1.125,-0.734375 C 1.9375,-1.875 2.1875,-2.109375 2.3125,-2.21875 2.671875,-2.546875 3.015625,-2.875 3.40625,-2.875 c 0.078125,0 0.171875,0.015625 0.234375,0.09375 C 3.34375,-2.734375 3.28125,-2.5 3.28125,-2.390625 c 0,0.140625 0.109375,0.25 0.265625,0.25 0.203125,0 0.40625,-0.15625 0.40625,-0.4375 0,-0.234375 -0.171875,-0.5 -0.53125,-0.5 -0.40625,0 -0.765625,0.296875 -1.125,0.625 C 2,-2.1875 1.78125,-1.96875 1.484375,-1.84375 Z m 0,0"
           id="path5416" />
      </symbol>
      <symbol
         overflow="visible"
         id="symbol9326">
        <path
           style="stroke:none"
           d="m 4.078125,-2.53125 c 0.109375,0 0.1875,0 0.25,-0.046875 0.09375,-0.078125 0.125,-0.1875 0.125,-0.234375 C 4.453125,-3 4.265625,-3 4.140625,-3 H 2.359375 C 1.25,-3 0.40625,-1.90625 0.40625,-1.0625 c 0,0.640625 0.484375,1.125 1.203125,1.125 0.875,0 1.875,-0.78125 1.875,-1.859375 0,-0.109375 0,-0.421875 -0.203125,-0.734375 z M 1.609375,-0.125 c -0.375,0 -0.6875,-0.25 -0.6875,-0.75 0,-0.203125 0.125,-1.65625 1.328125,-1.65625 0.34375,0 0.71875,0.140625 0.71875,0.65625 0,0.140625 -0.0625,0.765625 -0.40625,1.234375 C 2.265625,-0.265625 1.875,-0.125 1.609375,-0.125 Z m 0,0"
           id="path9468" />
      </symbol>
      <symbol
         overflow="visible"
         id="symbol5806">
        <path
           style="stroke:none"
           d="M 3.984375,-4.625 C 3.984375,-4.640625 4,-4.734375 4,-4.734375 4,-4.78125 3.984375,-4.84375 3.890625,-4.84375 3.75,-4.84375 3.171875,-4.78125 3,-4.765625 c -0.046875,0 -0.15625,0.015625 -0.15625,0.15625 0,0.09375 0.109375,0.09375 0.1875,0.09375 0.328125,0 0.328125,0.0625 0.328125,0.109375 0,0.046875 0,0.09375 -0.015625,0.15625 L 2.9375,-2.65625 c -0.140625,-0.234375 -0.375,-0.421875 -0.71875,-0.421875 -0.890625,0 -1.796875,0.984375 -1.796875,1.984375 0,0.6875 0.453125,1.15625 1.0625,1.15625 0.375,0 0.703125,-0.203125 0.984375,-0.484375 C 2.59375,0 3,0.0625 3.1875,0.0625 c 0.25,0 0.421875,-0.140625 0.546875,-0.359375 0.15625,-0.28125 0.25,-0.671875 0.25,-0.703125 0,-0.09375 -0.09375,-0.09375 -0.109375,-0.09375 -0.109375,0 -0.109375,0.03125 -0.15625,0.21875 C 3.625,-0.53125 3.5,-0.125 3.203125,-0.125 3.03125,-0.125 2.96875,-0.28125 2.96875,-0.46875 c 0,-0.125 0.015625,-0.1875 0.046875,-0.28125 z M 2.5,-0.875 C 2.453125,-0.671875 2.296875,-0.53125 2.140625,-0.40625 2.078125,-0.34375 1.796875,-0.125 1.5,-0.125 c -0.265625,0 -0.515625,-0.1875 -0.515625,-0.671875 0,-0.375 0.203125,-1.140625 0.375,-1.421875 0.3125,-0.5625 0.671875,-0.65625 0.859375,-0.65625 0.484375,0 0.625,0.53125 0.625,0.609375 0,0.015625 -0.015625,0.078125 -0.015625,0.09375 z m 0,0"
           id="path1316" />
      </symbol>
    </g>
    <g
       id="g5983">
      <symbol
         overflow="visible"
         id="symbol3008">
        <path
           style="stroke:none"
           d=""
           id="path1710" />
      </symbol>
      <symbol
         overflow="visible"
         id="symbol1075">
        <path
           style="stroke:none"
           d="m 3.953125,-3.78125 c -0.171875,0 -0.296875,0 -0.4375,0.125 -0.171875,0.15625 -0.1875,0.328125 -0.1875,0.390625 0,0.25 0.1875,0.359375 0.375,0.359375 0.28125,0 0.546875,-0.25 0.546875,-0.640625 0,-0.484375 -0.46875,-0.859375 -1.171875,-0.859375 -1.34375,0 -2.671875,1.421875 -2.671875,2.828125 0,0.90625 0.578125,1.6875 1.625,1.6875 1.421875,0 2.25,-1.0625 2.25,-1.171875 0,-0.0625 -0.046875,-0.140625 -0.109375,-0.140625 -0.0625,0 -0.078125,0.03125 -0.140625,0.109375 -0.78125,0.984375 -1.875,0.984375 -1.984375,0.984375 -0.625,0 -0.90625,-0.484375 -0.90625,-1.09375 0,-0.40625 0.203125,-1.375 0.546875,-1.984375 0.3125,-0.578125 0.859375,-1 1.40625,-1 0.328125,0 0.71875,0.125 0.859375,0.40625 z m 0,0"
           id="path3270" />
      </symbol>
      <symbol
         overflow="visible"
         id="symbol9426">
        <path
           style="stroke:none"
           d=""
           id="path5660" />
      </symbol>
      <symbol
         overflow="visible"
         id="symbol9499">
        <path
           style="stroke:none"
           d="m 1.90625,-2.90625 c 0.109375,0 0.171875,0.015625 0.390625,0.0625 0.21875,0.0625 0.390625,0.109375 0.515625,0.109375 0.28125,0 0.296875,-0.203125 0.296875,-0.265625 0,-0.0625 -0.015625,-0.28125 -0.296875,-0.28125 -0.125,0 -0.296875,0.046875 -0.515625,0.109375 -0.21875,0.0625 -0.28125,0.0625 -0.390625,0.078125 0.015625,-0.25 0.0625,-0.53125 0.09375,-0.75 0.03125,-0.140625 0.09375,-0.5 0.09375,-0.734375 0,-0.21875 -0.09375,-0.328125 -0.265625,-0.328125 -0.15625,0 -0.28125,0.078125 -0.28125,0.328125 0,0.21875 0.0625,0.578125 0.109375,0.8125 0.015625,0.078125 0.078125,0.40625 0.078125,0.671875 C 1.640625,-3.109375 1.5625,-3.109375 1.359375,-3.171875 1.140625,-3.234375 0.96875,-3.28125 0.84375,-3.28125 c -0.28125,0 -0.3125,0.21875 -0.3125,0.28125 0,0.046875 0.03125,0.265625 0.3125,0.265625 0.125,0 0.296875,-0.046875 0.515625,-0.109375 0.203125,-0.046875 0.28125,-0.0625 0.375,-0.0625 0,0.171875 -0.0625,0.390625 -0.09375,0.53125 -0.09375,0.4375 -0.09375,0.484375 -0.09375,0.84375 0,1.34375 0.140625,2.78125 0.15625,2.921875 0.015625,0.0625 0.03125,0.09375 0.125,0.09375 0.109375,0 0.109375,-0.03125 0.125,-0.125 0,-0.015625 0.046875,-0.625 0.078125,-1.046875 0.03125,-0.609375 0.0625,-1.21875 0.0625,-1.84375 0,-0.359375 0,-0.40625 -0.09375,-0.859375 -0.015625,-0.0625 -0.078125,-0.34375 -0.09375,-0.515625 z m 0,0"
           id="path2673" />
      </symbol>
      <symbol
         overflow="visible"
         id="symbol3912">
        <path
           style="stroke:none"
           d=""
           id="path9738" />
      </symbol>
      <symbol
         overflow="visible"
         id="symbol2031">
        <path
           style="stroke:none"
           d="M 3.984375,-4.625 C 3.984375,-4.640625 4,-4.734375 4,-4.734375 4,-4.78125 3.984375,-4.84375 3.890625,-4.84375 3.75,-4.84375 3.171875,-4.78125 3,-4.765625 c -0.046875,0 -0.15625,0.015625 -0.15625,0.15625 0,0.09375 0.109375,0.09375 0.1875,0.09375 0.328125,0 0.328125,0.0625 0.328125,0.109375 0,0.046875 0,0.09375 -0.015625,0.15625 L 2.9375,-2.65625 c -0.140625,-0.234375 -0.375,-0.421875 -0.71875,-0.421875 -0.890625,0 -1.796875,0.984375 -1.796875,1.984375 0,0.6875 0.453125,1.15625 1.0625,1.15625 0.375,0 0.703125,-0.203125 0.984375,-0.484375 C 2.59375,0 3,0.0625 3.1875,0.0625 c 0.25,0 0.421875,-0.140625 0.546875,-0.359375 0.15625,-0.28125 0.25,-0.671875 0.25,-0.703125 0,-0.09375 -0.09375,-0.09375 -0.109375,-0.09375 -0.109375,0 -0.109375,0.03125 -0.15625,0.21875 C 3.625,-0.53125 3.5,-0.125 3.203125,-0.125 3.03125,-0.125 2.96875,-0.28125 2.96875,-0.46875 c 0,-0.125 0.015625,-0.1875 0.046875,-0.28125 z M 2.5,-0.875 C 2.453125,-0.671875 2.296875,-0.53125 2.140625,-0.40625 2.078125,-0.34375 1.796875,-0.125 1.5,-0.125 c -0.265625,0 -0.515625,-0.1875 -0.515625,-0.671875 0,-0.375 0.203125,-1.140625 0.375,-1.421875 0.3125,-0.5625 0.671875,-0.65625 0.859375,-0.65625 0.484375,0 0.625,0.53125 0.625,0.609375 0,0.015625 -0.015625,0.078125 -0.015625,0.09375 z m 0,0"
           id="path71" />
      </symbol>
      <symbol
         overflow="visible"
         id="symbol2363">
        <path
           style="stroke:none"
           d="m 4.078125,-2.53125 c 0.109375,0 0.1875,0 0.25,-0.046875 0.09375,-0.078125 0.125,-0.1875 0.125,-0.234375 C 4.453125,-3 4.265625,-3 4.140625,-3 H 2.359375 C 1.25,-3 0.40625,-1.90625 0.40625,-1.0625 c 0,0.640625 0.484375,1.125 1.203125,1.125 0.875,0 1.875,-0.78125 1.875,-1.859375 0,-0.109375 0,-0.421875 -0.203125,-0.734375 z M 1.609375,-0.125 c -0.375,0 -0.6875,-0.25 -0.6875,-0.75 0,-0.203125 0.125,-1.65625 1.328125,-1.65625 0.34375,0 0.71875,0.140625 0.71875,0.65625 0,0.140625 -0.0625,0.765625 -0.40625,1.234375 C 2.265625,-0.265625 1.875,-0.125 1.609375,-0.125 Z m 0,0"
           id="path9473" />
      </symbol>
      <symbol
         overflow="visible"
         id="symbol773">
        <path
           style="stroke:none"
           d="m 2.1875,-4.625 c 0,-0.015625 0.015625,-0.109375 0.015625,-0.109375 0,-0.046875 -0.015625,-0.109375 -0.109375,-0.109375 -0.140625,0 -0.71875,0.0625 -0.890625,0.078125 -0.046875,0 -0.15625,0.015625 -0.15625,0.15625 0,0.09375 0.109375,0.09375 0.1875,0.09375 0.328125,0 0.328125,0.0625 0.328125,0.109375 0,0.046875 -0.015625,0.09375 -0.015625,0.15625 L 0.5625,-0.3125 c -0.046875,0.125 -0.046875,0.140625 -0.046875,0.15625 0,0.109375 0.09375,0.21875 0.25,0.21875 0.1875,0 0.265625,-0.125 0.3125,-0.28125 0.015625,-0.03125 0.3125,-1.265625 0.34375,-1.359375 0.5,0.046875 0.890625,0.21875 0.890625,0.578125 0,0.03125 0,0.0625 -0.015625,0.140625 -0.03125,0.09375 -0.03125,0.140625 -0.03125,0.21875 0,0.484375 0.40625,0.703125 0.75,0.703125 0.671875,0 0.875,-1.046875 0.875,-1.0625 0,-0.09375 -0.078125,-0.09375 -0.109375,-0.09375 -0.09375,0 -0.109375,0.046875 -0.140625,0.171875 C 3.5625,-0.625 3.375,-0.125 3.03125,-0.125 c -0.1875,0 -0.25,-0.171875 -0.25,-0.359375 0,-0.125 0,-0.140625 0.046875,-0.3125 0.015625,-0.03125 0.03125,-0.140625 0.03125,-0.21875 0,-0.625 -0.828125,-0.71875 -1.125,-0.734375 C 1.9375,-1.875 2.1875,-2.109375 2.3125,-2.21875 2.671875,-2.546875 3.015625,-2.875 3.40625,-2.875 c 0.078125,0 0.171875,0.015625 0.234375,0.09375 C 3.34375,-2.734375 3.28125,-2.5 3.28125,-2.390625 c 0,0.140625 0.109375,0.25 0.265625,0.25 0.203125,0 0.40625,-0.15625 0.40625,-0.4375 0,-0.234375 -0.171875,-0.5 -0.53125,-0.5 -0.40625,0 -0.765625,0.296875 -1.125,0.625 C 2,-2.1875 1.78125,-1.96875 1.484375,-1.84375 Z m 0,0"
           id="path2301" />
      </symbol>
    </g>
    <marker
       style="overflow:visible"
       id="TriangleOutL-5"
       refX="0"
       refY="0"
       orient="auto"
       inkscape:stockid="TriangleOutL"
       inkscape:isstock="true">
      <path
         transform="scale(0.8)"
         style="fill:#000000;fill-opacity:1;fill-rule:evenodd;stroke:#000000;stroke-width:1pt;stroke-opacity:1"
         d="M 5.77,0 -2.88,5 V -5 Z"
         id="path1061-6" />
    </marker>
    <g
       id="g360">
      <symbol
         overflow="visible"
         id="symbol7685">
        <path
           style="stroke:none"
           d=""
           id="path4110" />
      </symbol>
      <symbol
         overflow="visible"
         id="symbol2928">
        <path
           style="stroke:none"
           d="m 1.859375,-2.296875 c 0.296875,0 1.03125,-0.03125 1.53125,-0.234375 0.703125,-0.296875 0.75,-0.890625 0.75,-1.03125 0,-0.4375 -0.375,-0.84375 -1.0625,-0.84375 -1.109375,0 -2.625,0.96875 -2.625,2.71875 0,1.015625 0.59375,1.796875 1.578125,1.796875 1.421875,0 2.25,-1.0625 2.25,-1.171875 0,-0.0625 -0.046875,-0.140625 -0.109375,-0.140625 -0.0625,0 -0.078125,0.03125 -0.140625,0.109375 -0.78125,0.984375 -1.875,0.984375 -1.984375,0.984375 -0.78125,0 -0.875,-0.84375 -0.875,-1.15625 0,-0.125 0.015625,-0.421875 0.15625,-1.03125 z m -0.46875,-0.21875 C 1.78125,-4.03125 2.8125,-4.1875 3.078125,-4.1875 c 0.453125,0 0.734375,0.296875 0.734375,0.625 0,1.046875 -1.59375,1.046875 -2.015625,1.046875 z m 0,0"
           id="path3103" />
      </symbol>
      <symbol
         overflow="visible"
         id="symbol8750">
        <path
           style="stroke:none"
           d=""
           id="path1722" />
      </symbol>
      <symbol
         overflow="visible"
         id="symbol9708">
        <path
           style="stroke:none"
           d="m 2.1875,-4.625 c 0,-0.015625 0.015625,-0.109375 0.015625,-0.109375 0,-0.046875 -0.015625,-0.109375 -0.109375,-0.109375 -0.140625,0 -0.71875,0.0625 -0.890625,0.078125 -0.046875,0 -0.15625,0.015625 -0.15625,0.15625 0,0.09375 0.109375,0.09375 0.1875,0.09375 0.328125,0 0.328125,0.0625 0.328125,0.109375 0,0.046875 -0.015625,0.09375 -0.015625,0.15625 L 0.5625,-0.3125 c -0.046875,0.125 -0.046875,0.140625 -0.046875,0.15625 0,0.109375 0.09375,0.21875 0.25,0.21875 0.1875,0 0.265625,-0.125 0.3125,-0.28125 0.015625,-0.03125 0.3125,-1.265625 0.34375,-1.359375 0.5,0.046875 0.890625,0.21875 0.890625,0.578125 0,0.03125 0,0.0625 -0.015625,0.140625 -0.03125,0.09375 -0.03125,0.140625 -0.03125,0.21875 0,0.484375 0.40625,0.703125 0.75,0.703125 0.671875,0 0.875,-1.046875 0.875,-1.0625 0,-0.09375 -0.078125,-0.09375 -0.109375,-0.09375 -0.09375,0 -0.109375,0.046875 -0.140625,0.171875 C 3.5625,-0.625 3.375,-0.125 3.03125,-0.125 c -0.1875,0 -0.25,-0.171875 -0.25,-0.359375 0,-0.125 0,-0.140625 0.046875,-0.3125 0.015625,-0.03125 0.03125,-0.140625 0.03125,-0.21875 0,-0.625 -0.828125,-0.71875 -1.125,-0.734375 C 1.9375,-1.875 2.1875,-2.109375 2.3125,-2.21875 2.671875,-2.546875 3.015625,-2.875 3.40625,-2.875 c 0.078125,0 0.171875,0.015625 0.234375,0.09375 C 3.34375,-2.734375 3.28125,-2.5 3.28125,-2.390625 c 0,0.140625 0.109375,0.25 0.265625,0.25 0.203125,0 0.40625,-0.15625 0.40625,-0.4375 0,-0.234375 -0.171875,-0.5 -0.53125,-0.5 -0.40625,0 -0.765625,0.296875 -1.125,0.625 C 2,-2.1875 1.78125,-1.96875 1.484375,-1.84375 Z m 0,0"
           id="path2930" />
      </symbol>
      <symbol
         overflow="visible"
         id="symbol437">
        <path
           style="stroke:none"
           d="m 4.078125,-2.53125 c 0.109375,0 0.1875,0 0.25,-0.046875 0.09375,-0.078125 0.125,-0.1875 0.125,-0.234375 C 4.453125,-3 4.265625,-3 4.140625,-3 H 2.359375 C 1.25,-3 0.40625,-1.90625 0.40625,-1.0625 c 0,0.640625 0.484375,1.125 1.203125,1.125 0.875,0 1.875,-0.78125 1.875,-1.859375 0,-0.109375 0,-0.421875 -0.203125,-0.734375 z M 1.609375,-0.125 c -0.375,0 -0.6875,-0.25 -0.6875,-0.75 0,-0.203125 0.125,-1.65625 1.328125,-1.65625 0.34375,0 0.71875,0.140625 0.71875,0.65625 0,0.140625 -0.0625,0.765625 -0.40625,1.234375 C 2.265625,-0.265625 1.875,-0.125 1.609375,-0.125 Z m 0,0"
           id="path7469" />
      </symbol>
    </g>
    <g
       id="g9124">
      <symbol
         overflow="visible"
         id="symbol3770">
        <path
           style="stroke:none"
           d=""
           id="path9665" />
      </symbol>
      <symbol
         overflow="visible"
         id="symbol8092">
        <path
           style="stroke:none"
           d="m 0.875,-0.59375 c -0.03125,0.15625 -0.09375,0.390625 -0.09375,0.4375 0,0.171875 0.140625,0.265625 0.296875,0.265625 0.125,0 0.296875,-0.078125 0.375,-0.28125 0,-0.015625 0.125,-0.484375 0.1875,-0.734375 l 0.21875,-0.890625 C 1.90625,-2.03125 1.96875,-2.25 2.03125,-2.46875 c 0.03125,-0.171875 0.109375,-0.46875 0.125,-0.5 0.140625,-0.3125 0.671875,-1.21875 1.625,-1.21875 0.453125,0 0.53125,0.375 0.53125,0.703125 0,0.609375 -0.484375,1.890625 -0.640625,2.3125 C 3.578125,-0.9375 3.5625,-0.8125 3.5625,-0.703125 c 0,0.46875 0.359375,0.8125 0.828125,0.8125 0.9375,0 1.296875,-1.453125 1.296875,-1.53125 0,-0.109375 -0.078125,-0.109375 -0.109375,-0.109375 -0.109375,0 -0.109375,0.03125 -0.15625,0.1875 -0.203125,0.671875 -0.53125,1.234375 -1.015625,1.234375 -0.171875,0 -0.234375,-0.09375 -0.234375,-0.328125 0,-0.25 0.078125,-0.484375 0.171875,-0.703125 0.1875,-0.53125 0.609375,-1.625 0.609375,-2.203125 0,-0.65625 -0.421875,-1.0625 -1.140625,-1.0625 -0.90625,0 -1.390625,0.640625 -1.5625,0.875 -0.046875,-0.5625 -0.453125,-0.875 -0.921875,-0.875 -0.453125,0 -0.640625,0.390625 -0.734375,0.5625 C 0.421875,-3.5 0.296875,-2.90625 0.296875,-2.875 c 0,0.109375 0.09375,0.109375 0.109375,0.109375 0.109375,0 0.109375,-0.015625 0.171875,-0.234375 0.171875,-0.703125 0.375,-1.1875 0.734375,-1.1875 0.1875,0 0.296875,0.125 0.296875,0.453125 0,0.21875 -0.03125,0.328125 -0.15625,0.84375 z m 0,0"
           id="path9712" />
      </symbol>
      <symbol
         overflow="visible"
         id="symbol4236">
        <path
           style="stroke:none"
           d=""
           id="path898" />
      </symbol>
      <symbol
         overflow="visible"
         id="symbol4279">
        <path
           style="stroke:none"
           d="M 3.984375,-4.625 C 3.984375,-4.640625 4,-4.734375 4,-4.734375 4,-4.78125 3.984375,-4.84375 3.890625,-4.84375 3.75,-4.84375 3.171875,-4.78125 3,-4.765625 c -0.046875,0 -0.15625,0.015625 -0.15625,0.15625 0,0.09375 0.109375,0.09375 0.1875,0.09375 0.328125,0 0.328125,0.0625 0.328125,0.109375 0,0.046875 0,0.09375 -0.015625,0.15625 L 2.9375,-2.65625 c -0.140625,-0.234375 -0.375,-0.421875 -0.71875,-0.421875 -0.890625,0 -1.796875,0.984375 -1.796875,1.984375 0,0.6875 0.453125,1.15625 1.0625,1.15625 0.375,0 0.703125,-0.203125 0.984375,-0.484375 C 2.59375,0 3,0.0625 3.1875,0.0625 c 0.25,0 0.421875,-0.140625 0.546875,-0.359375 0.15625,-0.28125 0.25,-0.671875 0.25,-0.703125 0,-0.09375 -0.09375,-0.09375 -0.109375,-0.09375 -0.109375,0 -0.109375,0.03125 -0.15625,0.21875 C 3.625,-0.53125 3.5,-0.125 3.203125,-0.125 3.03125,-0.125 2.96875,-0.28125 2.96875,-0.46875 c 0,-0.125 0.015625,-0.1875 0.046875,-0.28125 z M 2.5,-0.875 C 2.453125,-0.671875 2.296875,-0.53125 2.140625,-0.40625 2.078125,-0.34375 1.796875,-0.125 1.5,-0.125 c -0.265625,0 -0.515625,-0.1875 -0.515625,-0.671875 0,-0.375 0.203125,-1.140625 0.375,-1.421875 0.3125,-0.5625 0.671875,-0.65625 0.859375,-0.65625 0.484375,0 0.625,0.53125 0.625,0.609375 0,0.015625 -0.015625,0.078125 -0.015625,0.09375 z m 0,0"
           id="path2388" />
      </symbol>
      <symbol
         overflow="visible"
         id="symbol3284">
        <path
           style="stroke:none"
           d=""
           id="path6652" />
      </symbol>
      <symbol
         overflow="visible"
         id="symbol1221">
        <path
           style="stroke:none"
           d="m 6.84375,-3.265625 c 0.15625,0 0.34375,0 0.34375,-0.1875 C 7.1875,-3.65625 7,-3.65625 6.859375,-3.65625 h -5.96875 c -0.140625,0 -0.328125,0 -0.328125,0.203125 0,0.1875 0.1875,0.1875 0.328125,0.1875 z m 0.015625,1.9375 c 0.140625,0 0.328125,0 0.328125,-0.203125 0,-0.1875 -0.1875,-0.1875 -0.34375,-0.1875 H 0.890625 c -0.140625,0 -0.328125,0 -0.328125,0.1875 0,0.203125 0.1875,0.203125 0.328125,0.203125 z m 0,0"
           id="path4482" />
      </symbol>
      <symbol
         overflow="visible"
         id="symbol7353">
        <path
           style="stroke:none"
           d="m 4.578125,-3.1875 c 0,-0.796875 -0.046875,-1.59375 -0.390625,-2.328125 -0.453125,-0.96875 -1.28125,-1.125 -1.6875,-1.125 -0.609375,0 -1.328125,0.265625 -1.75,1.1875 -0.3125,0.6875 -0.359375,1.46875 -0.359375,2.265625 0,0.75 0.03125,1.640625 0.453125,2.40625 0.421875,0.796875 1.15625,1 1.640625,1 0.53125,0 1.296875,-0.203125 1.734375,-1.15625 0.3125,-0.6875 0.359375,-1.46875 0.359375,-2.25 z M 2.484375,0 C 2.09375,0 1.5,-0.25 1.328125,-1.203125 1.21875,-1.796875 1.21875,-2.71875 1.21875,-3.3125 c 0,-0.640625 0,-1.296875 0.078125,-1.828125 0.1875,-1.1875 0.9375,-1.28125 1.1875,-1.28125 0.328125,0 0.984375,0.1875 1.171875,1.171875 0.109375,0.5625 0.109375,1.3125 0.109375,1.9375 0,0.75 0,1.421875 -0.109375,2.0625 C 3.5,-0.296875 2.9375,0 2.484375,0 Z m 0,0"
           id="path8610" />
      </symbol>
    </g>
    <g
       id="g6311">
      <symbol
         overflow="visible"
         id="symbol7750">
        <path
           style="stroke:none"
           d=""
           id="path663" />
      </symbol>
      <symbol
         overflow="visible"
         id="symbol2655">
        <path
           style="stroke:none"
           d="m 0.875,-0.59375 c -0.03125,0.15625 -0.09375,0.390625 -0.09375,0.4375 0,0.171875 0.140625,0.265625 0.296875,0.265625 0.125,0 0.296875,-0.078125 0.375,-0.28125 0,-0.015625 0.125,-0.484375 0.1875,-0.734375 l 0.21875,-0.890625 C 1.90625,-2.03125 1.96875,-2.25 2.03125,-2.46875 c 0.03125,-0.171875 0.109375,-0.46875 0.125,-0.5 0.140625,-0.3125 0.671875,-1.21875 1.625,-1.21875 0.453125,0 0.53125,0.375 0.53125,0.703125 0,0.609375 -0.484375,1.890625 -0.640625,2.3125 C 3.578125,-0.9375 3.5625,-0.8125 3.5625,-0.703125 c 0,0.46875 0.359375,0.8125 0.828125,0.8125 0.9375,0 1.296875,-1.453125 1.296875,-1.53125 0,-0.109375 -0.078125,-0.109375 -0.109375,-0.109375 -0.109375,0 -0.109375,0.03125 -0.15625,0.1875 -0.203125,0.671875 -0.53125,1.234375 -1.015625,1.234375 -0.171875,0 -0.234375,-0.09375 -0.234375,-0.328125 0,-0.25 0.078125,-0.484375 0.171875,-0.703125 0.1875,-0.53125 0.609375,-1.625 0.609375,-2.203125 0,-0.65625 -0.421875,-1.0625 -1.140625,-1.0625 -0.90625,0 -1.390625,0.640625 -1.5625,0.875 -0.046875,-0.5625 -0.453125,-0.875 -0.921875,-0.875 -0.453125,0 -0.640625,0.390625 -0.734375,0.5625 C 0.421875,-3.5 0.296875,-2.90625 0.296875,-2.875 c 0,0.109375 0.09375,0.109375 0.109375,0.109375 0.109375,0 0.109375,-0.015625 0.171875,-0.234375 0.171875,-0.703125 0.375,-1.1875 0.734375,-1.1875 0.1875,0 0.296875,0.125 0.296875,0.453125 0,0.21875 -0.03125,0.328125 -0.15625,0.84375 z m 0,0"
           id="path1612" />
      </symbol>
      <symbol
         overflow="visible"
         id="symbol1214">
        <path
           style="stroke:none"
           d=""
           id="path6642" />
      </symbol>
      <symbol
         overflow="visible"
         id="symbol7656">
        <path
           style="stroke:none"
           d="M 3.984375,-4.625 C 3.984375,-4.640625 4,-4.734375 4,-4.734375 4,-4.78125 3.984375,-4.84375 3.890625,-4.84375 3.75,-4.84375 3.171875,-4.78125 3,-4.765625 c -0.046875,0 -0.15625,0.015625 -0.15625,0.15625 0,0.09375 0.109375,0.09375 0.1875,0.09375 0.328125,0 0.328125,0.0625 0.328125,0.109375 0,0.046875 0,0.09375 -0.015625,0.15625 L 2.9375,-2.65625 c -0.140625,-0.234375 -0.375,-0.421875 -0.71875,-0.421875 -0.890625,0 -1.796875,0.984375 -1.796875,1.984375 0,0.6875 0.453125,1.15625 1.0625,1.15625 0.375,0 0.703125,-0.203125 0.984375,-0.484375 C 2.59375,0 3,0.0625 3.1875,0.0625 c 0.25,0 0.421875,-0.140625 0.546875,-0.359375 0.15625,-0.28125 0.25,-0.671875 0.25,-0.703125 0,-0.09375 -0.09375,-0.09375 -0.109375,-0.09375 -0.109375,0 -0.109375,0.03125 -0.15625,0.21875 C 3.625,-0.53125 3.5,-0.125 3.203125,-0.125 3.03125,-0.125 2.96875,-0.28125 2.96875,-0.46875 c 0,-0.125 0.015625,-0.1875 0.046875,-0.28125 z M 2.5,-0.875 C 2.453125,-0.671875 2.296875,-0.53125 2.140625,-0.40625 2.078125,-0.34375 1.796875,-0.125 1.5,-0.125 c -0.265625,0 -0.515625,-0.1875 -0.515625,-0.671875 0,-0.375 0.203125,-1.140625 0.375,-1.421875 0.3125,-0.5625 0.671875,-0.65625 0.859375,-0.65625 0.484375,0 0.625,0.53125 0.625,0.609375 0,0.015625 -0.015625,0.078125 -0.015625,0.09375 z m 0,0"
           id="path6607" />
      </symbol>
      <symbol
         overflow="visible"
         id="symbol7335">
        <path
           style="stroke:none"
           d=""
           id="path7959" />
      </symbol>
      <symbol
         overflow="visible"
         id="symbol1844">
        <path
           style="stroke:none"
           d="m 6.84375,-3.265625 c 0.15625,0 0.34375,0 0.34375,-0.1875 C 7.1875,-3.65625 7,-3.65625 6.859375,-3.65625 h -5.96875 c -0.140625,0 -0.328125,0 -0.328125,0.203125 0,0.1875 0.1875,0.1875 0.328125,0.1875 z m 0.015625,1.9375 c 0.140625,0 0.328125,0 0.328125,-0.203125 0,-0.1875 -0.1875,-0.1875 -0.34375,-0.1875 H 0.890625 c -0.140625,0 -0.328125,0 -0.328125,0.1875 0,0.203125 0.1875,0.203125 0.328125,0.203125 z m 0,0"
           id="path680" />
      </symbol>
      <symbol
         overflow="visible"
         id="symbol8108">
        <path
           style="stroke:none"
           d="m 1.265625,-0.765625 1.0625,-1.03125 c 1.546875,-1.375 2.140625,-1.90625 2.140625,-2.90625 0,-1.140625 -0.890625,-1.9375 -2.109375,-1.9375 -1.125,0 -1.859375,0.921875 -1.859375,1.8125 0,0.546875 0.5,0.546875 0.53125,0.546875 0.171875,0 0.515625,-0.109375 0.515625,-0.53125 0,-0.25 -0.1875,-0.515625 -0.53125,-0.515625 -0.078125,0 -0.09375,0 -0.125,0.015625 0.21875,-0.65625 0.765625,-1.015625 1.34375,-1.015625 0.90625,0 1.328125,0.8125 1.328125,1.625 C 3.5625,-3.90625 3.078125,-3.125 2.515625,-2.5 l -1.90625,2.125 C 0.5,-0.265625 0.5,-0.234375 0.5,0 H 4.203125 L 4.46875,-1.734375 H 4.234375 C 4.171875,-1.4375 4.109375,-1 4,-0.84375 3.9375,-0.765625 3.28125,-0.765625 3.0625,-0.765625 Z m 0,0"
           id="path554" />
      </symbol>
    </g>
    <g
       id="g71">
      <symbol
         overflow="visible"
         id="symbol7333">
        <path
           style="stroke:none"
           d=""
           id="path7271" />
      </symbol>
      <symbol
         overflow="visible"
         id="symbol2440">
        <path
           style="stroke:none"
           d="m 2.859375,-6.8125 c 0,0 0,-0.109375 -0.125,-0.109375 -0.234375,0 -0.953125,0.078125 -1.21875,0.109375 -0.078125,0 -0.1875,0.015625 -0.1875,0.1875 0,0.125 0.09375,0.125 0.234375,0.125 0.484375,0 0.5,0.0625 0.5,0.171875 L 2.03125,-6.125 0.59375,-0.390625 c -0.046875,0.140625 -0.046875,0.15625 -0.046875,0.21875 0,0.234375 0.203125,0.28125 0.296875,0.28125 0.15625,0 0.3125,-0.125 0.359375,-0.265625 l 0.1875,-0.75 0.21875,-0.890625 C 1.671875,-2.03125 1.734375,-2.25 1.78125,-2.46875 1.796875,-2.53125 1.890625,-2.859375 1.890625,-2.921875 1.921875,-3.015625 2.234375,-3.5625 2.578125,-3.84375 2.796875,-4 3.09375,-4.1875 3.53125,-4.1875 c 0.421875,0 0.53125,0.34375 0.53125,0.703125 0,0.53125 -0.375,1.625 -0.609375,2.234375 C 3.375,-1.03125 3.3125,-0.90625 3.3125,-0.703125 c 0,0.46875 0.359375,0.8125 0.828125,0.8125 0.9375,0 1.296875,-1.453125 1.296875,-1.53125 0,-0.109375 -0.078125,-0.109375 -0.109375,-0.109375 -0.109375,0 -0.109375,0.03125 -0.15625,0.1875 -0.140625,0.53125 -0.46875,1.234375 -1.015625,1.234375 -0.171875,0 -0.234375,-0.09375 -0.234375,-0.328125 0,-0.25 0.078125,-0.484375 0.171875,-0.703125 0.15625,-0.4375 0.609375,-1.625 0.609375,-2.203125 0,-0.640625 -0.390625,-1.0625 -1.140625,-1.0625 -0.625,0 -1.109375,0.3125 -1.484375,0.765625 z m 0,0"
           id="path1190" />
      </symbol>
      <symbol
         overflow="visible"
         id="symbol6588">
        <path
           style="stroke:none"
           d=""
           id="path5620" />
      </symbol>
      <symbol
         overflow="visible"
         id="symbol287">
        <path
           style="stroke:none"
           d="m 2.1875,-4.625 c 0,-0.015625 0.015625,-0.109375 0.015625,-0.109375 0,-0.046875 -0.015625,-0.109375 -0.109375,-0.109375 -0.140625,0 -0.71875,0.0625 -0.890625,0.078125 -0.046875,0 -0.15625,0.015625 -0.15625,0.15625 0,0.09375 0.109375,0.09375 0.1875,0.09375 0.328125,0 0.328125,0.0625 0.328125,0.109375 0,0.046875 -0.015625,0.09375 -0.015625,0.15625 L 0.5625,-0.3125 c -0.046875,0.125 -0.046875,0.140625 -0.046875,0.15625 0,0.109375 0.09375,0.21875 0.25,0.21875 0.1875,0 0.265625,-0.125 0.3125,-0.28125 0.015625,-0.03125 0.3125,-1.265625 0.34375,-1.359375 0.5,0.046875 0.890625,0.21875 0.890625,0.578125 0,0.03125 0,0.0625 -0.015625,0.140625 -0.03125,0.09375 -0.03125,0.140625 -0.03125,0.21875 0,0.484375 0.40625,0.703125 0.75,0.703125 0.671875,0 0.875,-1.046875 0.875,-1.0625 0,-0.09375 -0.078125,-0.09375 -0.109375,-0.09375 -0.09375,0 -0.109375,0.046875 -0.140625,0.171875 C 3.5625,-0.625 3.375,-0.125 3.03125,-0.125 c -0.1875,0 -0.25,-0.171875 -0.25,-0.359375 0,-0.125 0,-0.140625 0.046875,-0.3125 0.015625,-0.03125 0.03125,-0.140625 0.03125,-0.21875 0,-0.625 -0.828125,-0.71875 -1.125,-0.734375 C 1.9375,-1.875 2.1875,-2.109375 2.3125,-2.21875 2.671875,-2.546875 3.015625,-2.875 3.40625,-2.875 c 0.078125,0 0.171875,0.015625 0.234375,0.09375 C 3.34375,-2.734375 3.28125,-2.5 3.28125,-2.390625 c 0,0.140625 0.109375,0.25 0.265625,0.25 0.203125,0 0.40625,-0.15625 0.40625,-0.4375 0,-0.234375 -0.171875,-0.5 -0.53125,-0.5 -0.40625,0 -0.765625,0.296875 -1.125,0.625 C 2,-2.1875 1.78125,-1.96875 1.484375,-1.84375 Z m 0,0"
           id="path4707" />
      </symbol>
      <symbol
         overflow="visible"
         id="symbol9382">
        <path
           style="stroke:none"
           d="m 4.078125,-2.53125 c 0.109375,0 0.1875,0 0.25,-0.046875 0.09375,-0.078125 0.125,-0.1875 0.125,-0.234375 C 4.453125,-3 4.265625,-3 4.140625,-3 H 2.359375 C 1.25,-3 0.40625,-1.90625 0.40625,-1.0625 c 0,0.640625 0.484375,1.125 1.203125,1.125 0.875,0 1.875,-0.78125 1.875,-1.859375 0,-0.109375 0,-0.421875 -0.203125,-0.734375 z M 1.609375,-0.125 c -0.375,0 -0.6875,-0.25 -0.6875,-0.75 0,-0.203125 0.125,-1.65625 1.328125,-1.65625 0.34375,0 0.71875,0.140625 0.71875,0.65625 0,0.140625 -0.0625,0.765625 -0.40625,1.234375 C 2.265625,-0.265625 1.875,-0.125 1.609375,-0.125 Z m 0,0"
           id="path780" />
      </symbol>
    </g>
  </defs>
  <sodipodi:namedview
     id="base"
     pagecolor="#ffffff"
     bordercolor="#666666"
     borderopacity="1.0"
     inkscape:pageopacity="0.0"
     inkscape:pageshadow="2"
     inkscape:zoom="0.1426399"
     inkscape:cx="286.05431"
     inkscape:cy="425.71647"
     inkscape:document-units="mm"
     inkscape:current-layer="layer1"
     inkscape:document-rotation="0"
     showgrid="false" />
  <metadata
     id="metadata5">
    <rdf:RDF>
      <cc:Work
         rdf:about="">
        <dc:format>image/svg+xml</dc:format>
        <dc:type
           rdf:resource="http://purl.org/dc/dcmitype/StillImage" />
        <dc:title />
      </cc:Work>
    </rdf:RDF>
  </metadata>
  <g
     inkscape:label="Layer 1"
     inkscape:groupmode="layer"
     id="layer1"
     transform="translate(-25.255274,-35.52919)">
    <g
       id="g3175"
       transform="translate(-106.1309,59.730566)">
      <path
         style="fill:none;stroke:#000000;stroke-width:1.3;stroke-linecap:butt;stroke-linejoin:miter;stroke-miterlimit:4;stroke-dasharray:none;stroke-opacity:1;marker-end:url(#TriangleOutL-5)"
         d="m 223.66057,54.918983 c 9.15982,3.947076 18.5136,7.443976 28.01631,10.47386 60.40957,19.261242 126.86965,19.027193 187.14206,-0.659048"
         id="path892-2"
         inkscape:original-d="m 223.66057,54.918983 c 9.04406,6.70196 18.97279,3.77137 28.01631,10.47386 9.04352,6.702487 146.34812,-19.211934 187.14206,-0.659048"
         inkscape:path-effect="#path-effect3023"
         inkscape:export-xdpi="248.64"
         inkscape:export-ydpi="248.64"
         sodipodi:nodetypes="csc" />
      <rect
         style="fill:none;stroke:#000003;stroke-width:1.59346;stroke-linecap:round;stroke-linejoin:round;paint-order:markers stroke fill"
         id="rect833-3-9"
         width="90.657158"
         height="47.359985"
         x="443.8078"
         y="-89.600708"
         inkscape:export-xdpi="248.64"
         inkscape:export-ydpi="248.64"
         transform="scale(1,-1)" />
    </g>
    <rect
       style="fill:none;stroke:#000003;stroke-width:1.59346;stroke-linecap:round;stroke-linejoin:round;paint-order:markers stroke fill"
       id="rect833"
       width="90.657158"
       height="47.359985"
       x="26.052004"
       y="81.783829"
       inkscape:export-xdpi="248.64"
       inkscape:export-ydpi="248.64" />
    <path
       style="fill:none;stroke:#000000;stroke-width:1.3;stroke-linecap:butt;stroke-linejoin:miter;stroke-miterlimit:4;stroke-dasharray:none;stroke-opacity:1;marker-end:url(#TriangleOutL)"
       d="m 118.32584,93.500716 c 9.20911,-3.825813 18.55594,-7.320112 28.01631,-10.473857 56.92543,-18.976887 117.98963,-25.428415 177.62387,-18.766238"
       id="path892"
       inkscape:original-d="m 118.32584,93.500716 c 9.04406,-6.701959 18.97279,-3.77137 28.01631,-10.473857 9.04352,-6.702488 136.82993,-0.213354 177.62387,-18.766238"
       inkscape:path-effect="#path-effect894"
       inkscape:export-xdpi="248.64"
       inkscape:export-ydpi="248.64"
       sodipodi:nodetypes="csc" />
    <rect
       style="fill:none;stroke:#000003;stroke-width:1.59346;stroke-linecap:round;stroke-linejoin:round;paint-order:markers stroke fill"
       id="rect833-3"
       width="90.657158"
       height="47.359985"
       x="333.48419"
       y="36.32592"
       inkscape:export-xdpi="248.64"
       inkscape:export-ydpi="248.64" />
    <g
       inkscape:label=""
       transform="matrix(2.6681411,0,0,2.6681411,-217.81544,-106.86998)"
       id="g2211">
      <g
         id="g2177">
        <g
           style="fill:#000000;fill-opacity:1"
           id="g4201">
          <use
             xlink:href="#symbol5907"
             x="91.925003"
             y="81.962997"
             id="use7323"
             width="100%"
             height="100%" />
        </g>
        <g
           style="fill:#000000;fill-opacity:1"
           id="g500">
          <use
             xlink:href="#symbol1372"
             x="97.904999"
             y="83.457001"
             id="use2752"
             width="100%"
             height="100%" />
          <use
             xlink:href="#symbol5904"
             x="102.05232"
             y="83.457001"
             id="use6569"
             width="100%"
             height="100%" />
        </g>
        <g
           style="fill:#000000;fill-opacity:1"
           id="g7438">
          <use
             xlink:href="#symbol3874"
             x="110.185"
             y="81.962997"
             id="use6779"
             width="100%"
             height="100%" />
        </g>
        <g
           style="fill:#000000;fill-opacity:1"
           id="g5452">
          <use
             xlink:href="#symbol3906"
             x="120.70351"
             y="81.962997"
             id="use1852"
             width="100%"
             height="100%" />
        </g>
      </g>
    </g>
    <g
       inkscape:label=""
       transform="matrix(2.7943748,0,0,2.7943748,-64.758316,-157.22192)"
       id="g2480">
      <g
         id="g9516">
        <g
           style="fill:#000000;fill-opacity:1"
           id="g5375">
          <use
             xlink:href="#symbol2313"
             x="91.925003"
             y="81.962997"
             id="use84"
             width="100%"
             height="100%" />
        </g>
        <g
           style="fill:#000000;fill-opacity:1"
           id="g4269">
          <use
             xlink:href="#symbol115"
             x="96.237"
             y="77.175003"
             id="use1331"
             width="100%"
             height="100%" />
        </g>
        <g
           style="fill:#000000;fill-opacity:1"
           id="g1884">
          <use
             xlink:href="#symbol2689"
             x="96.237"
             y="84.968002"
             id="use3252"
             width="100%"
             height="100%" />
        </g>
        <g
           style="fill:#000000;fill-opacity:1"
           id="g6883">
          <use
             xlink:href="#symbol9326"
             x="100.63956"
             y="84.968002"
             id="use8367"
             width="100%"
             height="100%" />
        </g>
        <g
           style="fill:#000000;fill-opacity:1"
           id="g5553">
          <use
             xlink:href="#symbol2313"
             x="106.005"
             y="81.962997"
             id="use5296"
             width="100%"
             height="100%" />
        </g>
        <g
           style="fill:#000000;fill-opacity:1"
           id="g2987">
          <use
             xlink:href="#symbol5806"
             x="110.317"
             y="83.457001"
             id="use7308"
             width="100%"
             height="100%" />
          <use
             xlink:href="#symbol9326"
             x="114.46432"
             y="83.457001"
             id="use4914"
             width="100%"
             height="100%" />
        </g>
      </g>
    </g>
    <g
       inkscape:label=""
       transform="matrix(2.7943748,0,0,2.7943748,-46.907887,-75.091627)"
       id="g2804">
      <g
         id="g183">
        <g
           style="fill:#000000;fill-opacity:1"
           id="g8079">
          <use
             xlink:href="#symbol1075"
             x="91.925003"
             y="81.962997"
             id="use335"
             width="100%"
             height="100%" />
        </g>
        <g
           style="fill:#000000;fill-opacity:1"
           id="g4892">
          <use
             xlink:href="#symbol9499"
             x="96.237"
             y="77.175003"
             id="use9403"
             width="100%"
             height="100%" />
        </g>
        <g
           style="fill:#000000;fill-opacity:1"
           id="g5906">
          <use
             xlink:href="#symbol2031"
             x="96.237"
             y="84.968002"
             id="use1049"
             width="100%"
             height="100%" />
        </g>
        <path
           style="fill:none;stroke:#000000;stroke-width:0.339;stroke-linecap:butt;stroke-linejoin:miter;stroke-miterlimit:10;stroke-opacity:1"
           d="M -0.0011875,-0.00125 H 4.866"
           transform="matrix(1,0,0,-1,100.384,80.78)"
           id="path5639" />
        <g
           style="fill:#000000;fill-opacity:1"
           id="g9745">
          <use
             xlink:href="#symbol2363"
             x="100.384"
             y="84.968002"
             id="use2947"
             width="100%"
             height="100%" />
        </g>
        <g
           style="fill:#000000;fill-opacity:1"
           id="g5632">
          <use
             xlink:href="#symbol1075"
             x="105.749"
             y="81.962997"
             id="use3644"
             width="100%"
             height="100%" />
        </g>
        <g
           style="fill:#000000;fill-opacity:1"
           id="g7857">
          <use
             xlink:href="#symbol773"
             x="110.06"
             y="83.457001"
             id="use6504"
             width="100%"
             height="100%" />
        </g>
        <path
           style="fill:none;stroke:#000000;stroke-width:0.339;stroke-linecap:butt;stroke-linejoin:miter;stroke-miterlimit:10;stroke-opacity:1"
           d="M 8.4375e-4,-5.3125e-4 H 4.868031"
           transform="matrix(1,0,0,-1,114.464,79.269)"
           id="path7949" />
        <g
           style="fill:#000000;fill-opacity:1"
           id="g9194">
          <use
             xlink:href="#symbol2363"
             x="114.464"
             y="83.457001"
             id="use5846"
             width="100%"
             height="100%" />
        </g>
      </g>
    </g>
    <g
       inkscape:label=""
       transform="matrix(2.757304,0,0,2.757304,128.97381,-151.47349)"
       id="g3413">
      <g
         id="g7972">
        <g
           style="fill:#000000;fill-opacity:1"
           id="g9396">
          <use
             xlink:href="#symbol2928"
             x="91.925003"
             y="81.962997"
             id="use582"
             width="100%"
             height="100%" />
        </g>
        <g
           style="fill:#000000;fill-opacity:1"
           id="g6540">
          <use
             xlink:href="#symbol9708"
             x="96.564003"
             y="83.457001"
             id="use1597"
             width="100%"
             height="100%" />
        </g>
        <g
           style="fill:#000000;fill-opacity:1"
           id="g2798">
          <use
             xlink:href="#symbol437"
             x="100.96656"
             y="83.457001"
             id="use5738"
             width="100%"
             height="100%" />
        </g>
      </g>
    </g>
    <g
       inkscape:label=""
       transform="matrix(2.2564196,0,0,2.2564196,126.90006,-130.45823)"
       id="g3783">
      <g
         id="g4772">
        <g
           style="fill:#000000;fill-opacity:1"
           id="g2524">
          <use
             xlink:href="#symbol8092"
             x="91.925003"
             y="81.962997"
             id="use3169"
             width="100%"
             height="100%" />
        </g>
        <g
           style="fill:#000000;fill-opacity:1"
           id="g9232">
          <use
             xlink:href="#symbol4279"
             x="97.904999"
             y="83.457001"
             id="use7465"
             width="100%"
             height="100%" />
        </g>
        <g
           style="fill:#000000;fill-opacity:1"
           id="g6703">
          <use
             xlink:href="#symbol1221"
             x="105.318"
             y="81.962997"
             id="use7188"
             width="100%"
             height="100%" />
        </g>
        <g
           style="fill:#000000;fill-opacity:1"
           id="g4866">
          <use
             xlink:href="#symbol7353"
             x="115.83651"
             y="81.962997"
             id="use328"
             width="100%"
             height="100%" />
        </g>
      </g>
    </g>
    <g
       inkscape:label=""
       transform="matrix(2.1846768,0,0,2.1846768,162.99897,-36.473563)"
       id="g4198">
      <g
         id="g706">
        <g
           style="fill:#000000;fill-opacity:1"
           id="g4225">
          <use
             xlink:href="#symbol2655"
             x="91.925003"
             y="81.962997"
             id="use4193"
             width="100%"
             height="100%" />
        </g>
        <g
           style="fill:#000000;fill-opacity:1"
           id="g5949">
          <use
             xlink:href="#symbol7656"
             x="97.904999"
             y="83.457001"
             id="use723"
             width="100%"
             height="100%" />
        </g>
        <g
           style="fill:#000000;fill-opacity:1"
           id="g820">
          <use
             xlink:href="#symbol1844"
             x="105.318"
             y="81.962997"
             id="use4272"
             width="100%"
             height="100%" />
        </g>
        <g
           style="fill:#000000;fill-opacity:1"
           id="g4541">
          <use
             xlink:href="#symbol8108"
             x="115.83651"
             y="81.962997"
             id="use7838"
             width="100%"
             height="100%" />
        </g>
      </g>
    </g>
    <g
       inkscape:label=""
       transform="matrix(2.6171018,0,0,2.6171018,102.07163,-89.874337)"
       id="g4647">
      <g
         id="g3142">
        <g
           style="fill:#000000;fill-opacity:1"
           id="g3720">
          <use
             xlink:href="#symbol2440"
             x="91.925003"
             y="81.962997"
             id="use9173"
             width="100%"
             height="100%" />
        </g>
        <g
           style="fill:#000000;fill-opacity:1"
           id="g9315">
          <use
             xlink:href="#symbol287"
             x="97.665001"
             y="83.457001"
             id="use6715"
             width="100%"
             height="100%" />
        </g>
        <path
           style="fill:none;stroke:#000000;stroke-width:0.339;stroke-linecap:butt;stroke-linejoin:miter;stroke-miterlimit:10;stroke-opacity:1"
           d="M 0.0013125,-5.3125e-4 H 4.8685"
           transform="matrix(1,0,0,-1,102.069,79.269)"
           id="path5963" />
        <g
           style="fill:#000000;fill-opacity:1"
           id="g8909">
          <use
             xlink:href="#symbol9382"
             x="102.069"
             y="83.457001"
             id="use8206"
             width="100%"
             height="100%" />
        </g>
      </g>
    </g>
  </g>
</svg>
