<?xml version="1.0" encoding="UTF-8" standalone="no"?>
<!-- Created with Inkscape (http://www.inkscape.org/) -->

<svg
   width="542.56354mm"
   height="125.12907mm"
   viewBox="0 0 542.56354 125.12907"
   version="1.1"
   id="svg5"
   inkscape:version="1.2.2 (b0a8486541, 2022-12-01)"
   sodipodi:docname="hubbard.svg"
   xmlns:inkscape="http://www.inkscape.org/namespaces/inkscape"
   xmlns:sodipodi="http://sodipodi.sourceforge.net/DTD/sodipodi-0.dtd"
   xmlns="http://www.w3.org/2000/svg"
   xmlns:svg="http://www.w3.org/2000/svg"
   xmlns:ns2="http://www.iki.fi/pav/software/textext/">
  <sodipodi:namedview
     id="namedview7"
     pagecolor="#808080"
     bordercolor="#666666"
     borderopacity="1.0"
     inkscape:pageshadow="2"
     inkscape:pageopacity="0"
     inkscape:pagecheckerboard="0"
     inkscape:document-units="mm"
     showgrid="false"
     inkscape:snap-global="true"
     inkscape:zoom="0.42655322"
     inkscape:cx="717.37824"
     inkscape:cy="314.14603"
     inkscape:window-width="1916"
     inkscape:window-height="1048"
     inkscape:window-x="0"
     inkscape:window-y="28"
     inkscape:window-maximized="1"
     inkscape:current-layer="layer1"
     inkscape:showpageshadow="2"
     inkscape:deskcolor="#808080" />
  <defs
     id="defs2">
    <marker
       style="overflow:visible"
       id="RoundedArrow"
       refX="0"
       refY="0"
       orient="auto-start-reverse"
       inkscape:stockid="RoundedArrow"
       markerWidth="4.1350002"
       markerHeight="3.9973249"
       viewBox="0 0 6.1347524 5.9304951"
       inkscape:isstock="true"
       inkscape:collect="always"
       preserveAspectRatio="xMidYMid">
      <path
         transform="scale(0.7)"
         d="m -0.21114562,-4.1055728 6.42229122,3.21114561 a 1,1 90 0 1 0,1.78885438 L -0.21114562,4.1055728 A 1.236068,1.236068 31.717474 0 1 -2,3 v -6 a 1.236068,1.236068 148.28253 0 1 1.78885438,-1.1055728 z"
         style="fill:context-stroke;fill-rule:evenodd;stroke:none"
         id="path1367" />
    </marker>
    <marker
       style="overflow:visible"
       id="Arrow2Lend"
       refX="0"
       refY="0"
       orient="auto"
       inkscape:stockid="Arrow2Lend"
       inkscape:isstock="true">
      <path
         transform="matrix(-1.1,0,0,-1.1,-1.1,0)"
         d="M 8.7185878,4.0337352 -2.2072895,0.01601326 8.7185884,-4.0017078 c -1.7454984,2.3720609 -1.7354408,5.6174519 -6e-7,8.035443 z"
         style="fill:context-stroke;fill-rule:evenodd;stroke:context-stroke;stroke-width:0.625;stroke-linejoin:round"
         id="path6864" />
    </marker>
    <inkscape:path-effect
       effect="spiro"
       id="path-effect6761"
       is_visible="true"
       lpeversion="1" />
    <marker
       style="overflow:visible"
       id="RoundedArrow-3"
       refX="0"
       refY="0"
       orient="auto-start-reverse"
       inkscape:stockid="RoundedArrow"
       markerWidth="4.1350002"
       markerHeight="3.9973249"
       viewBox="0 0 6.1347524 5.9304951"
       inkscape:isstock="true"
       inkscape:collect="always"
       preserveAspectRatio="xMidYMid">
      <path
         transform="scale(0.7)"
         d="m -0.21114562,-4.1055728 6.42229122,3.21114561 a 1,1 90 0 1 0,1.78885438 L -0.21114562,4.1055728 A 1.236068,1.236068 31.717474 0 1 -2,3 v -6 a 1.236068,1.236068 148.28253 0 1 1.78885438,-1.1055728 z"
         style="fill:context-stroke;fill-rule:evenodd;stroke:none"
         id="path1367-6" />
    </marker>
    <inkscape:path-effect
       effect="spiro"
       id="path-effect6761-7"
       is_visible="true"
       lpeversion="1" />
    <marker
       style="overflow:visible"
       id="RoundedArrow-35"
       refX="0"
       refY="0"
       orient="auto-start-reverse"
       inkscape:stockid="RoundedArrow"
       markerWidth="4.1350002"
       markerHeight="3.9973249"
       viewBox="0 0 6.1347524 5.9304951"
       inkscape:isstock="true"
       inkscape:collect="always"
       preserveAspectRatio="xMidYMid">
      <path
         transform="scale(0.7)"
         d="m -0.21114562,-4.1055728 6.42229122,3.21114561 a 1,1 90 0 1 0,1.78885438 L -0.21114562,4.1055728 A 1.236068,1.236068 31.717474 0 1 -2,3 v -6 a 1.236068,1.236068 148.28253 0 1 1.78885438,-1.1055728 z"
         style="fill:context-stroke;fill-rule:evenodd;stroke:none"
         id="path1367-62" />
    </marker>
    <inkscape:path-effect
       effect="spiro"
       id="path-effect6761-9"
       is_visible="true"
       lpeversion="1" />
  </defs>
  <g
     inkscape:label="Layer 1"
     inkscape:groupmode="layer"
     id="layer1"
     transform="translate(308.92793,-10.299939)">
    <rect
       style="fill:#0670b0;fill-opacity:1;stroke-width:0.264583"
       id="rect2758-08-9"
       width="61.130775"
       height="61.130775"
       x="172.50484"
       y="30.31398"
       rx="8.567647"
       ry="8.567647" />
    <rect
       style="fill:#0670b0;fill-opacity:1;stroke-width:0.264583"
       id="rect2758-08"
       width="61.130775"
       height="61.130775"
       x="47.874069"
       y="30.313984"
       rx="8.567647"
       ry="8.567647" />
    <rect
       style="fill:#0670b0;fill-opacity:1;stroke-width:0.264583"
       id="rect2758-04"
       width="61.130775"
       height="61.130775"
       x="-76.756706"
       y="30.313984"
       rx="8.567647"
       ry="8.567647" />
    <rect
       style="mix-blend-mode:normal;fill:#0670b0;fill-opacity:1;stroke:none;stroke-width:4;stroke-dasharray:none;stroke-opacity:1"
       id="rect2758"
       width="61.130775"
       height="61.130775"
       x="-201.38745"
       y="30.313984"
       rx="8.567647"
       ry="8.567647" />
    <circle
       style="fill:#404040;fill-opacity:1;stroke-width:0.264583"
       id="path3537"
       cx="-181.99707"
       cy="49.528191"
       r="13.580517" />
    <circle
       style="fill:#ffffff;fill-opacity:1;stroke-width:0.264583"
       id="path3537-5"
       cx="-160.08873"
       cy="71.97052"
       r="13.580517" />
    <circle
       style="fill:#ffffff;fill-opacity:1;stroke-width:0.264583"
       id="path3537-5-5"
       cx="-47.748905"
       cy="60.82653"
       r="13.580517" />
    <circle
       style="fill:#404040;fill-opacity:1;stroke-width:0.264583"
       id="path3537-5-5-8"
       cx="201.68446"
       cy="60.719925"
       r="13.580517" />
    <path
       style="fill:none;stroke:#303050;stroke-width:5;stroke-linecap:butt;stroke-linejoin:miter;stroke-miterlimit:4;stroke-dasharray:none;stroke-opacity:1;marker-end:url(#RoundedArrow)"
       d="m -169.62222,31.234715 c 7.47712,-5.209586 15.64404,-9.427853 24.22008,-12.50983 31.82471,-11.4368614 69.182515,-6.020796 96.449015,13.983"
       id="path6759"
       inkscape:path-effect="#path-effect6761"
       inkscape:original-d="m -169.62222,31.234715 c 8.07362,-4.169679 16.14698,-8.339622 24.22008,-12.50983 8.07309,-4.170208 64.299608,9.322265 96.449015,13.983" />
    <path
       style="fill:none;stroke:#303050;stroke-width:5;stroke-linecap:butt;stroke-linejoin:miter;stroke-miterlimit:4;stroke-dasharray:none;stroke-opacity:1;marker-end:url(#RoundedArrow-35)"
       d="m -50.15726,86.809509 c 7.477119,5.209586 15.644037,9.427853 24.22008,12.50983 31.8247081,11.436861 69.182515,6.020791 96.449015,-13.983"
       id="path6759-1"
       inkscape:path-effect="#path-effect6761-9"
       inkscape:original-d="m -50.15726,86.809509 c 8.07362,4.16967 16.14698,8.33962 24.22008,12.50983 8.07309,4.170201 64.299608,-9.32227 96.449015,-13.983" />
    <path
       style="fill:none;stroke:#303050;stroke-width:5;stroke-linecap:butt;stroke-linejoin:miter;stroke-miterlimit:4;stroke-dasharray:none;stroke-opacity:1;marker-end:url(#RoundedArrow-3)"
       d="m 204.54502,34.843551 c -7.47712,-5.209586 -15.64404,-9.427853 -24.22008,-12.50983 -31.82471,-11.436862 -69.18252,-6.020796 -96.449018,13.983"
       id="path6759-5"
       inkscape:path-effect="#path-effect6761-7"
       inkscape:original-d="m 204.54502,34.843551 c -8.07362,-4.16968 -16.14698,-8.33962 -24.22008,-12.50983 -8.07309,-4.170208 -64.29961,9.32227 -96.449018,13.983" />
    <g
       transform="matrix(2.11667,0,0,2.11667,-308.92687,25.032739)"
       ns2:version="1.8.2"
       ns2:texconverter="xelatex"
       ns2:pdfconverter="inkscape"
       ns2:text="\\centering\ndouble\\\\\noccupancy\\\\\ncost"
       ns2:preamble="/home/kirito/.config/textext/beamer_preamble.tex"
       ns2:scale="6.0"
       ns2:alignment="middle center"
       ns2:stroke-to-path="0"
       ns2:inkscapeversion="1.1.1"
       ns2:jacobian_sqrt="2.11667"
       id="g3306">
      <defs
         id="id-932530c4-8d73-433a-a871-88792a690a07">
        <g
           id="id-f52e33c5-14e4-49c2-95db-18479330992b">
          <g
             id="id-c95168a7-4a85-42bb-903e-675d5c2229e8">
            <path
               d="M 5.40625,3.484375 H 1.21875 V -10.46875 h 4.1875 z m -3.625,-13.4375 V 2.96875 H 4.875 V -9.953125 Z M 3.234375,-4.5 c 0.394531,0 0.675781,0.109375 0.84375,0.328125 0.175781,0.210937 0.265625,0.484375 0.265625,0.828125 0,0.34375 -0.078125,0.617188 -0.234375,0.8125 -0.148437,0.1875 -0.386719,0.308594 -0.71875,0.359375 v 0.453125 c 0,0.074219 -0.027344,0.132812 -0.078125,0.171875 -0.054688,0.042969 -0.109375,0.0625 -0.171875,0.0625 -0.0625,0 -0.121094,-0.019531 -0.171875,-0.0625 C 2.914062,-1.585938 2.890625,-1.644531 2.890625,-1.71875 V -2.5625 c 0.351563,-0.019531 0.59375,-0.082031 0.71875,-0.1875 0.125,-0.113281 0.1875,-0.304688 0.1875,-0.578125 0,-0.21875 -0.046875,-0.382813 -0.140625,-0.5 -0.085938,-0.125 -0.242188,-0.1875 -0.46875,-0.1875 -0.1875,0 -0.359375,0.039063 -0.515625,0.109375 -0.054687,0.023438 -0.09375,0.03125 -0.125,0.03125 -0.074219,0 -0.136719,-0.019531 -0.1875,-0.0625 -0.042969,-0.039062 -0.0625,-0.097656 -0.0625,-0.171875 0,-0.125 0.097656,-0.21875 0.296875,-0.28125 C 2.789062,-4.460938 3.003906,-4.5 3.234375,-4.5 Z m -0.09375,3.296875 c 0.101563,0 0.1875,0.039063 0.25,0.109375 0.0625,0.0625 0.09375,0.148438 0.09375,0.25 0,0.105469 -0.03125,0.195312 -0.09375,0.265625 -0.0625,0.0625 -0.148437,0.09375 -0.25,0.09375 -0.105469,0 -0.1875,-0.03125 -0.25,-0.09375 -0.0625,-0.070313 -0.09375,-0.160156 -0.09375,-0.265625 0,-0.101562 0.03125,-0.1875 0.09375,-0.25 0.0625,-0.070312 0.144531,-0.109375 0.25,-0.109375 z m 0,0"
               id="id-bf8e4244-cad0-45d9-87ec-7126932c09f2" />
          </g>
          <g
             id="id-56ff55ee-eda3-4f91-8570-115070bbe7dd">
            <path
               d="M 4.96875,-7.359375 V 0 H 4.15625 L 4.0625,-0.734375 C 3.894531,-0.460938 3.679688,-0.25 3.421875,-0.09375 3.160156,0.0507812 2.867188,0.125 2.546875,0.125 c -0.625,0 -1.117187,-0.242188 -1.46875,-0.734375 -0.34375,-0.5 -0.515625,-1.164063 -0.515625,-2 0,-0.53125 0.082031,-1.003906 0.25,-1.421875 C 0.976562,-4.457031 1.21875,-4.785156 1.53125,-5.015625 1.84375,-5.253906 2.207031,-5.375 2.625,-5.375 c 0.539062,0 1.015625,0.21875 1.421875,0.65625 v -2.765625 z m -2.21875,6.75 c 0.28125,0 0.519531,-0.0625 0.71875,-0.1875 0.195312,-0.132813 0.390625,-0.332031 0.578125,-0.59375 v -2.5625 c -0.179687,-0.226563 -0.367187,-0.398437 -0.5625,-0.515625 -0.1875,-0.113281 -0.40625,-0.171875 -0.65625,-0.171875 -0.40625,0 -0.71875,0.171875 -0.9375,0.515625 -0.21875,0.335938 -0.328125,0.835938 -0.328125,1.5 0,0.679688 0.097656,1.183594 0.296875,1.515625 0.207031,0.335937 0.503906,0.5 0.890625,0.5 z m 0,0"
               id="id-1852fd1c-1fb8-417c-af11-3f4c5f3f0ed2" />
          </g>
          <g
             id="id-bb756c35-f23d-44c4-934d-ae1d7b349b4b">
            <path
               d="m 2.921875,-5.375 c 0.738281,0 1.3125,0.25 1.71875,0.75 0.40625,0.492188 0.609375,1.15625 0.609375,2 0,0.542969 -0.09375,1.023438 -0.28125,1.4375 -0.1875,0.417969 -0.460938,0.742188 -0.8125,0.96875 C 3.8125,0.0078125 3.394531,0.125 2.90625,0.125 2.164062,0.125 1.585938,-0.117188 1.171875,-0.609375 0.765625,-1.109375 0.5625,-1.78125 0.5625,-2.625 c 0,-0.539062 0.09375,-1.019531 0.28125,-1.4375 0.1875,-0.414062 0.457031,-0.738281 0.8125,-0.96875 C 2.007812,-5.257812 2.429688,-5.375 2.921875,-5.375 Z m 0,0.734375 c -0.90625,0 -1.359375,0.671875 -1.359375,2.015625 0,1.335938 0.445312,2 1.34375,2 0.90625,0 1.359375,-0.664062 1.359375,-2 0,-1.34375 -0.449219,-2.015625 -1.34375,-2.015625 z m 0,0"
               id="id-82758b4a-ef55-4ad4-96d1-a77235bfd659" />
          </g>
          <g
             id="id-08c8e239-066d-4922-a83f-68a2f28ca362">
            <path
               d="M 4.8125,0 H 4.03125 L 3.953125,-0.8125 C 3.753906,-0.488281 3.523438,-0.25 3.265625,-0.09375 3.003906,0.0507812 2.691406,0.125 2.328125,0.125 1.867188,0.125 1.507812,-0.015625 1.25,-0.296875 0.988281,-0.578125 0.859375,-0.972656 0.859375,-1.484375 V -5.25 H 1.78125 v 3.671875 c 0,0.355469 0.0625,0.609375 0.1875,0.765625 0.125,0.148438 0.328125,0.21875 0.609375,0.21875 0.507813,0 0.945313,-0.300781 1.3125,-0.90625 V -5.25 H 4.8125 Z m 0,0"
               id="id-58a593fb-9593-4f90-8f59-303076a032e6" />
          </g>
          <g
             id="id-902a56d2-40cf-419c-9af9-af73091d968d">
            <path
               d="m 3.3125,-5.375 c 0.601562,0 1.082031,0.246094 1.4375,0.734375 0.351562,0.480469 0.53125,1.152344 0.53125,2.015625 0,0.542969 -0.085938,1.023438 -0.25,1.4375 C 4.863281,-0.769531 4.625,-0.445312 4.3125,-0.21875 4,0.0078125 3.628906,0.125 3.203125,0.125 2.648438,0.125 2.1875,-0.109375 1.8125,-0.578125 L 1.71875,0 H 0.921875 v -7.359375 l 0.90625,-0.125 V -4.59375 C 2.210938,-5.113281 2.707031,-5.375 3.3125,-5.375 Z m -0.328125,4.765625 c 0.40625,0 0.722656,-0.160156 0.953125,-0.484375 0.226562,-0.332031 0.34375,-0.84375 0.34375,-1.53125 0,-0.71875 -0.105469,-1.234375 -0.3125,-1.546875 -0.210938,-0.3125 -0.511719,-0.46875 -0.90625,-0.46875 -0.46875,0 -0.882812,0.273437 -1.234375,0.8125 V -1.3125 c 0.144531,0.21875 0.316406,0.390625 0.515625,0.515625 0.207031,0.125 0.421875,0.1875 0.640625,0.1875 z m 0,0"
               id="id-2e4fa009-c8d2-453b-9586-fbb0f988b9bf" />
          </g>
          <g
             id="id-b5bc6b52-aa1a-4cdc-a8fb-4405471384b0">
            <path
               d="M 1.953125,0.125 C 1.617188,0.125 1.351562,0.0234375 1.15625,-0.171875 0.957031,-0.378906 0.859375,-0.664062 0.859375,-1.03125 v -6.328125 l 0.921875,-0.125 V -1.0625 c 0,0.148438 0.019531,0.257812 0.0625,0.328125 0.050781,0.0625 0.140625,0.09375 0.265625,0.09375 0.125,0 0.234375,-0.019531 0.328125,-0.0625 l 0.25,0.640625 C 2.46875,0.0625 2.222656,0.125 1.953125,0.125 Z m 0,0"
               id="id-b7a73d53-6c83-4af2-a559-80dc3ed74054" />
          </g>
          <g
             id="id-f6ad51af-a649-4c64-be0a-eff184a651b8">
            <path
               d="m 4.921875,-2.78125 c 0,0.15625 -0.011719,0.3125 -0.03125,0.46875 h -3.34375 c 0.039063,0.574219 0.1875,1 0.4375,1.28125 0.25,0.273438 0.570313,0.40625 0.96875,0.40625 0.257813,0 0.492187,-0.035156 0.703125,-0.109375 C 3.875,-0.804688 4.097656,-0.925781 4.328125,-1.09375 l 0.390625,0.5625 C 4.164062,-0.09375 3.554688,0.125 2.890625,0.125 2.160156,0.125 1.585938,-0.113281 1.171875,-0.59375 0.765625,-1.070312 0.5625,-1.734375 0.5625,-2.578125 c 0,-0.539063 0.085938,-1.019531 0.265625,-1.4375 0.175781,-0.425781 0.425781,-0.757813 0.75,-1 C 1.910156,-5.253906 2.300781,-5.375 2.75,-5.375 c 0.695312,0 1.234375,0.230469 1.609375,0.6875 0.375,0.460938 0.5625,1.09375 0.5625,1.90625 z M 4,-3.046875 c 0,-0.519531 -0.105469,-0.914063 -0.3125,-1.1875 -0.199219,-0.269531 -0.507812,-0.40625 -0.921875,-0.40625 -0.75,0 -1.15625,0.554687 -1.21875,1.65625 H 4 Z m 0,0"
               id="id-06cabeb3-2666-4117-9201-735c08742657" />
          </g>
          <g
             id="id-83a6e8a4-8d60-4cd6-b946-120d891a9697">
            <path
               d="m 2.859375,-5.375 c 0.3125,0 0.597656,0.046875 0.859375,0.140625 0.257812,0.085937 0.507812,0.226563 0.75,0.421875 l -0.4375,0.578125 c -0.1875,-0.125 -0.371094,-0.21875 -0.546875,-0.28125 -0.179687,-0.0625 -0.371094,-0.09375 -0.578125,-0.09375 -0.429688,0 -0.761719,0.171875 -1,0.515625 -0.230469,0.335938 -0.34375,0.828125 -0.34375,1.484375 0,0.667969 0.113281,1.164063 0.34375,1.484375 0.226562,0.3125 0.5625,0.46875 1,0.46875 0.195312,0 0.382812,-0.03125 0.5625,-0.09375 0.175781,-0.0625 0.367188,-0.164062 0.578125,-0.3125 L 4.46875,-0.453125 C 3.988281,-0.0664062 3.453125,0.125 2.859375,0.125 2.148438,0.125 1.585938,-0.113281 1.171875,-0.59375 0.765625,-1.070312 0.5625,-1.734375 0.5625,-2.578125 c 0,-0.5625 0.09375,-1.050781 0.28125,-1.46875 0.1875,-0.414063 0.453125,-0.738281 0.796875,-0.96875 0.34375,-0.238281 0.75,-0.359375 1.21875,-0.359375 z m 0,0"
               id="id-3686e434-93e3-4328-9142-3db822cd6094" />
          </g>
          <g
             id="id-f7154994-72a3-4222-b1a3-41c5aab6c819">
            <path
               d="M 3.328125,-5.375 C 4.003906,-5.375 4.5,-5.132812 4.8125,-4.65625 5.125,-4.175781 5.28125,-3.5 5.28125,-2.625 c 0,0.824219 -0.183594,1.492188 -0.546875,2 -0.355469,0.5 -0.867187,0.75 -1.53125,0.75 -0.585937,0 -1.042969,-0.203125 -1.375,-0.609375 v 2.5 L 0.921875,2.125 V -5.25 h 0.78125 L 1.78125,-4.546875 C 1.96875,-4.804688 2.195312,-5.007812 2.46875,-5.15625 2.738281,-5.300781 3.023438,-5.375 3.328125,-5.375 Z m -0.34375,4.75 c 0.863281,0 1.296875,-0.664062 1.296875,-2 0,-1.34375 -0.398438,-2.015625 -1.1875,-2.015625 -0.25,0 -0.484375,0.078125 -0.703125,0.234375 -0.210937,0.148438 -0.398437,0.339844 -0.5625,0.578125 v 2.5625 c 0.132813,0.210937 0.300781,0.371094 0.5,0.484375 0.195313,0.105469 0.414063,0.15625 0.65625,0.15625 z m 0,0"
               id="id-b99a5793-5e17-4b26-9362-7de76ea12100" />
          </g>
          <g
             id="id-912d83e7-34ab-46e6-8acd-f6af45bedc65">
            <path
               d="m 4.4375,-1.21875 c 0,0.210938 0.035156,0.367188 0.109375,0.46875 0.070313,0.105469 0.179687,0.183594 0.328125,0.234375 L 4.671875,0.125 C 4.390625,0.0820312 4.164062,0.00390625 4,-0.109375 3.84375,-0.234375 3.722656,-0.421875 3.640625,-0.671875 3.285156,-0.140625 2.765625,0.125 2.078125,0.125 1.554688,0.125 1.144531,-0.0195312 0.84375,-0.3125 0.550781,-0.601562 0.40625,-0.988281 0.40625,-1.46875 0.40625,-2.019531 0.601562,-2.445312 1,-2.75 1.40625,-3.050781 1.976562,-3.203125 2.71875,-3.203125 H 3.515625 V -3.59375 C 3.515625,-3.957031 3.425781,-4.21875 3.25,-4.375 3.070312,-4.539062 2.796875,-4.625 2.421875,-4.625 2.035156,-4.625 1.5625,-4.53125 1,-4.34375 L 0.78125,-5.015625 c 0.644531,-0.238281 1.25,-0.359375 1.8125,-0.359375 0.613281,0 1.070312,0.152344 1.375,0.453125 C 4.28125,-4.617188 4.4375,-4.1875 4.4375,-3.625 Z M 2.28125,-0.5625 c 0.53125,0 0.941406,-0.273438 1.234375,-0.828125 V -2.59375 h -0.6875 c -0.96875,0 -1.453125,0.359375 -1.453125,1.078125 0,0.3125 0.070312,0.554687 0.21875,0.71875 0.15625,0.15625 0.382812,0.234375 0.6875,0.234375 z m 0,0"
               id="id-18b36118-e999-44a5-b1d8-7f4d1466454e" />
          </g>
          <g
             id="id-a2ecc127-5aac-4d2f-a397-14aa55029637">
            <path
               d="m 3.390625,-5.375 c 0.476563,0 0.851563,0.148438 1.125,0.4375 0.269531,0.28125 0.40625,0.671875 0.40625,1.171875 V 0 H 4 v -3.640625 c 0,-0.375 -0.074219,-0.632813 -0.21875,-0.78125 -0.136719,-0.15625 -0.339844,-0.234375 -0.609375,-0.234375 -0.28125,0 -0.53125,0.085938 -0.75,0.25 -0.210937,0.15625 -0.40625,0.382812 -0.59375,0.671875 V 0 h -0.90625 v -5.25 h 0.78125 l 0.078125,0.78125 c 0.1875,-0.28125 0.414062,-0.5 0.6875,-0.65625 0.28125,-0.164062 0.585938,-0.25 0.921875,-0.25 z m 0,0"
               id="id-a5f26398-5a1d-495f-b0c5-3d599c1fb09e" />
          </g>
          <g
             id="id-ec2ae55f-5394-4cf9-bdc0-e605340e239a">
            <path
               d="M 3.046875,0.03125 C 2.835938,0.644531 2.550781,1.128906 2.1875,1.484375 1.820312,1.835938 1.296875,2.050781 0.609375,2.125 L 0.515625,1.40625 c 0.34375,-0.0625 0.613281,-0.152344 0.8125,-0.265625 0.207031,-0.105469 0.375,-0.246094 0.5,-0.421875 C 1.953125,0.539062 2.066406,0.300781 2.171875,0 h -0.3125 L 0.09375,-5.25 h 0.984375 l 1.40625,4.578125 1.375,-4.578125 H 4.8125 Z m 0,0"
               id="id-200737a3-b5a9-4328-b1f3-1f6120743a70" />
          </g>
          <g
             id="id-5d560934-04a3-4c5a-b8a6-751a23c55cd5">
            <path
               d="m 2.375,-5.375 c 0.351562,0 0.671875,0.054688 0.953125,0.15625 0.289063,0.09375 0.566406,0.242188 0.828125,0.4375 L 3.765625,-4.203125 C 3.523438,-4.347656 3.296875,-4.457031 3.078125,-4.53125 2.867188,-4.601562 2.644531,-4.640625 2.40625,-4.640625 c -0.304688,0 -0.542969,0.0625 -0.71875,0.1875 -0.167969,0.117187 -0.25,0.28125 -0.25,0.5 0,0.210937 0.078125,0.375 0.234375,0.5 0.164063,0.117187 0.460937,0.230469 0.890625,0.34375 0.582031,0.148437 1.019531,0.34375 1.3125,0.59375 0.289062,0.25 0.4375,0.601563 0.4375,1.046875 0,0.511719 -0.203125,0.90625 -0.609375,1.1875 C 3.296875,-0.0078125 2.804688,0.125 2.234375,0.125 1.429688,0.125 0.769531,-0.101562 0.25,-0.5625 L 0.734375,-1.125 c 0.445313,0.335938 0.941406,0.5 1.484375,0.5 0.34375,0 0.613281,-0.066406 0.8125,-0.203125 0.207031,-0.144531 0.3125,-0.34375 0.3125,-0.59375 0,-0.175781 -0.039062,-0.316406 -0.109375,-0.421875 C 3.160156,-1.957031 3.03125,-2.054688 2.84375,-2.140625 2.664062,-2.222656 2.40625,-2.3125 2.0625,-2.40625 1.5,-2.550781 1.09375,-2.742188 0.84375,-2.984375 c -0.242188,-0.25 -0.359375,-0.5625 -0.359375,-0.9375 0,-0.28125 0.078125,-0.53125 0.234375,-0.75 C 0.882812,-4.890625 1.109375,-5.0625 1.390625,-5.1875 1.679688,-5.3125 2.007812,-5.375 2.375,-5.375 Z m 0,0"
               id="id-0cc047ff-c8d4-4fea-8a8c-d792d15f95c0" />
          </g>
          <g
             id="id-7113008a-e868-4e18-8a25-caffc948f4fe">
            <path
               d="M 3.59375,-0.234375 C 3.25,0.00390625 2.859375,0.125 2.421875,0.125 1.972656,0.125 1.625,0 1.375,-0.25 1.125,-0.507812 1,-0.882812 1,-1.375 V -4.546875 H 0.09375 V -5.25 H 1 V -6.4375 L 1.921875,-6.546875 V -5.25 h 1.25 l -0.09375,0.703125 h -1.15625 v 3.125 c 0,0.28125 0.046875,0.484375 0.140625,0.609375 0.101562,0.117188 0.265625,0.171875 0.484375,0.171875 0.207031,0 0.441406,-0.066406 0.703125,-0.203125 z m 0,0"
               id="id-b0b382a8-f6d3-4521-b9ff-0f38bc09be92" />
          </g>
        </g>
      </defs>
      <g
         fill="#000000"
         fill-opacity="1"
         id="id-ca453479-a3b3-4eef-9458-fd564bfec272"
         transform="translate(-282.481,-127.281)">
        <g
           transform="translate(289.843,134.765)"
           id="g3589">
          <path
             d="M 4.96875,-7.359375 V 0 H 4.15625 L 4.0625,-0.734375 C 3.894531,-0.460938 3.679688,-0.25 3.421875,-0.09375 3.160156,0.0507812 2.867188,0.125 2.546875,0.125 c -0.625,0 -1.117187,-0.242188 -1.46875,-0.734375 -0.34375,-0.5 -0.515625,-1.164063 -0.515625,-2 0,-0.53125 0.082031,-1.003906 0.25,-1.421875 C 0.976562,-4.457031 1.21875,-4.785156 1.53125,-5.015625 1.84375,-5.253906 2.207031,-5.375 2.625,-5.375 c 0.539062,0 1.015625,0.21875 1.421875,0.65625 v -2.765625 z m -2.21875,6.75 c 0.28125,0 0.519531,-0.0625 0.71875,-0.1875 0.195312,-0.132813 0.390625,-0.332031 0.578125,-0.59375 v -2.5625 c -0.179687,-0.226563 -0.367187,-0.398437 -0.5625,-0.515625 -0.1875,-0.113281 -0.40625,-0.171875 -0.65625,-0.171875 -0.40625,0 -0.71875,0.171875 -0.9375,0.515625 -0.21875,0.335938 -0.328125,0.835938 -0.328125,1.5 0,0.679688 0.097656,1.183594 0.296875,1.515625 0.207031,0.335937 0.503906,0.5 0.890625,0.5 z m 0,0"
             id="id-89ad83ba-60f0-409e-9caa-e96d1acd1a30" />
        </g>
        <g
           transform="translate(295.721,134.765)"
           id="g3592">
          <path
             d="m 2.921875,-5.375 c 0.738281,0 1.3125,0.25 1.71875,0.75 0.40625,0.492188 0.609375,1.15625 0.609375,2 0,0.542969 -0.09375,1.023438 -0.28125,1.4375 -0.1875,0.417969 -0.460938,0.742188 -0.8125,0.96875 C 3.8125,0.0078125 3.394531,0.125 2.90625,0.125 2.164062,0.125 1.585938,-0.117188 1.171875,-0.609375 0.765625,-1.109375 0.5625,-1.78125 0.5625,-2.625 c 0,-0.539062 0.09375,-1.019531 0.28125,-1.4375 0.1875,-0.414062 0.457031,-0.738281 0.8125,-0.96875 C 2.007812,-5.257812 2.429688,-5.375 2.921875,-5.375 Z m 0,0.734375 c -0.90625,0 -1.359375,0.671875 -1.359375,2.015625 0,1.335938 0.445312,2 1.34375,2 0.90625,0 1.359375,-0.664062 1.359375,-2 0,-1.34375 -0.449219,-2.015625 -1.34375,-2.015625 z m 0,0"
             id="id-5d38b6e3-6540-4ceb-949d-bc16ec9afc84" />
        </g>
        <g
           transform="translate(301.539,134.765)"
           id="g3595">
          <path
             d="M 4.8125,0 H 4.03125 L 3.953125,-0.8125 C 3.753906,-0.488281 3.523438,-0.25 3.265625,-0.09375 3.003906,0.0507812 2.691406,0.125 2.328125,0.125 1.867188,0.125 1.507812,-0.015625 1.25,-0.296875 0.988281,-0.578125 0.859375,-0.972656 0.859375,-1.484375 V -5.25 H 1.78125 v 3.671875 c 0,0.355469 0.0625,0.609375 0.1875,0.765625 0.125,0.148438 0.328125,0.21875 0.609375,0.21875 0.507813,0 0.945313,-0.300781 1.3125,-0.90625 V -5.25 H 4.8125 Z m 0,0"
             id="id-a11b57d7-1b50-47ee-b913-975fe9cf1bf8" />
        </g>
        <g
           transform="translate(307.268,134.765)"
           id="g3598">
          <path
             d="m 3.3125,-5.375 c 0.601562,0 1.082031,0.246094 1.4375,0.734375 0.351562,0.480469 0.53125,1.152344 0.53125,2.015625 0,0.542969 -0.085938,1.023438 -0.25,1.4375 C 4.863281,-0.769531 4.625,-0.445312 4.3125,-0.21875 4,0.0078125 3.628906,0.125 3.203125,0.125 2.648438,0.125 2.1875,-0.109375 1.8125,-0.578125 L 1.71875,0 H 0.921875 v -7.359375 l 0.90625,-0.125 V -4.59375 C 2.210938,-5.113281 2.707031,-5.375 3.3125,-5.375 Z m -0.328125,4.765625 c 0.40625,0 0.722656,-0.160156 0.953125,-0.484375 0.226562,-0.332031 0.34375,-0.84375 0.34375,-1.53125 0,-0.71875 -0.105469,-1.234375 -0.3125,-1.546875 -0.210938,-0.3125 -0.511719,-0.46875 -0.90625,-0.46875 -0.46875,0 -0.882812,0.273437 -1.234375,0.8125 V -1.3125 c 0.144531,0.21875 0.316406,0.390625 0.515625,0.515625 0.207031,0.125 0.421875,0.1875 0.640625,0.1875 z m 0,0"
             id="id-1c7f529b-f45f-4f27-afaf-c7e49ffc836f" />
        </g>
        <g
           transform="translate(313.106,134.765)"
           id="g3601">
          <path
             d="M 1.953125,0.125 C 1.617188,0.125 1.351562,0.0234375 1.15625,-0.171875 0.957031,-0.378906 0.859375,-0.664062 0.859375,-1.03125 v -6.328125 l 0.921875,-0.125 V -1.0625 c 0,0.148438 0.019531,0.257812 0.0625,0.328125 0.050781,0.0625 0.140625,0.09375 0.265625,0.09375 0.125,0 0.234375,-0.019531 0.328125,-0.0625 l 0.25,0.640625 C 2.46875,0.0625 2.222656,0.125 1.953125,0.125 Z m 0,0"
             id="id-3097c124-b868-4ccd-984b-5b304f161857" />
        </g>
      </g>
      <g
         fill="#000000"
         fill-opacity="1"
         id="id-691b0a85-4777-4be1-b23c-f8f1c0f0fb34"
         transform="translate(-282.481,-127.281)">
        <g
           transform="translate(315.995,134.765)"
           id="g3605">
          <path
             d="m 4.921875,-2.78125 c 0,0.15625 -0.011719,0.3125 -0.03125,0.46875 h -3.34375 c 0.039063,0.574219 0.1875,1 0.4375,1.28125 0.25,0.273438 0.570313,0.40625 0.96875,0.40625 0.257813,0 0.492187,-0.035156 0.703125,-0.109375 C 3.875,-0.804688 4.097656,-0.925781 4.328125,-1.09375 l 0.390625,0.5625 C 4.164062,-0.09375 3.554688,0.125 2.890625,0.125 2.160156,0.125 1.585938,-0.113281 1.171875,-0.59375 0.765625,-1.070312 0.5625,-1.734375 0.5625,-2.578125 c 0,-0.539063 0.085938,-1.019531 0.265625,-1.4375 0.175781,-0.425781 0.425781,-0.757813 0.75,-1 C 1.910156,-5.253906 2.300781,-5.375 2.75,-5.375 c 0.695312,0 1.234375,0.230469 1.609375,0.6875 0.375,0.460938 0.5625,1.09375 0.5625,1.90625 z M 4,-3.046875 c 0,-0.519531 -0.105469,-0.914063 -0.3125,-1.1875 -0.199219,-0.269531 -0.507812,-0.40625 -0.921875,-0.40625 -0.75,0 -1.15625,0.554687 -1.21875,1.65625 H 4 Z m 0,0"
             id="id-88d672b3-5036-43ba-9a29-cb654501ba70" />
        </g>
      </g>
      <g
         fill="#000000"
         fill-opacity="1"
         id="id-f6d18ada-e6c5-435a-8f5e-a66de0bd62eb"
         transform="translate(-282.481,-127.281)">
        <g
           transform="translate(281.918,146.72)"
           id="g3609">
          <path
             d="m 2.921875,-5.375 c 0.738281,0 1.3125,0.25 1.71875,0.75 0.40625,0.492188 0.609375,1.15625 0.609375,2 0,0.542969 -0.09375,1.023438 -0.28125,1.4375 -0.1875,0.417969 -0.460938,0.742188 -0.8125,0.96875 C 3.8125,0.0078125 3.394531,0.125 2.90625,0.125 2.164062,0.125 1.585938,-0.117188 1.171875,-0.609375 0.765625,-1.109375 0.5625,-1.78125 0.5625,-2.625 c 0,-0.539062 0.09375,-1.019531 0.28125,-1.4375 0.1875,-0.414062 0.457031,-0.738281 0.8125,-0.96875 C 2.007812,-5.257812 2.429688,-5.375 2.921875,-5.375 Z m 0,0.734375 c -0.90625,0 -1.359375,0.671875 -1.359375,2.015625 0,1.335938 0.445312,2 1.34375,2 0.90625,0 1.359375,-0.664062 1.359375,-2 0,-1.34375 -0.449219,-2.015625 -1.34375,-2.015625 z m 0,0"
             id="id-94b51437-de7e-4d7e-b5e6-27bb9cb7588e" />
        </g>
        <g
           transform="translate(287.736,146.72)"
           id="g3612">
          <path
             d="m 2.859375,-5.375 c 0.3125,0 0.597656,0.046875 0.859375,0.140625 0.257812,0.085937 0.507812,0.226563 0.75,0.421875 l -0.4375,0.578125 c -0.1875,-0.125 -0.371094,-0.21875 -0.546875,-0.28125 -0.179687,-0.0625 -0.371094,-0.09375 -0.578125,-0.09375 -0.429688,0 -0.761719,0.171875 -1,0.515625 -0.230469,0.335938 -0.34375,0.828125 -0.34375,1.484375 0,0.667969 0.113281,1.164063 0.34375,1.484375 0.226562,0.3125 0.5625,0.46875 1,0.46875 0.195312,0 0.382812,-0.03125 0.5625,-0.09375 0.175781,-0.0625 0.367188,-0.164062 0.578125,-0.3125 L 4.46875,-0.453125 C 3.988281,-0.0664062 3.453125,0.125 2.859375,0.125 2.148438,0.125 1.585938,-0.113281 1.171875,-0.59375 0.765625,-1.070312 0.5625,-1.734375 0.5625,-2.578125 c 0,-0.5625 0.09375,-1.050781 0.28125,-1.46875 0.1875,-0.414063 0.453125,-0.738281 0.796875,-0.96875 0.34375,-0.238281 0.75,-0.359375 1.21875,-0.359375 z m 0,0"
             id="id-ef6dddef-7f4c-4bc8-a089-cb2b25c13ecd" />
        </g>
      </g>
      <g
         fill="#000000"
         fill-opacity="1"
         id="id-939284ef-6cac-40c0-97b8-c82ed525f595"
         transform="translate(-282.481,-127.281)">
        <g
           transform="translate(292.349,146.72)"
           id="g3616">
          <path
             d="m 2.859375,-5.375 c 0.3125,0 0.597656,0.046875 0.859375,0.140625 0.257812,0.085937 0.507812,0.226563 0.75,0.421875 l -0.4375,0.578125 c -0.1875,-0.125 -0.371094,-0.21875 -0.546875,-0.28125 -0.179687,-0.0625 -0.371094,-0.09375 -0.578125,-0.09375 -0.429688,0 -0.761719,0.171875 -1,0.515625 -0.230469,0.335938 -0.34375,0.828125 -0.34375,1.484375 0,0.667969 0.113281,1.164063 0.34375,1.484375 0.226562,0.3125 0.5625,0.46875 1,0.46875 0.195312,0 0.382812,-0.03125 0.5625,-0.09375 0.175781,-0.0625 0.367188,-0.164062 0.578125,-0.3125 L 4.46875,-0.453125 C 3.988281,-0.0664062 3.453125,0.125 2.859375,0.125 2.148438,0.125 1.585938,-0.113281 1.171875,-0.59375 0.765625,-1.070312 0.5625,-1.734375 0.5625,-2.578125 c 0,-0.5625 0.09375,-1.050781 0.28125,-1.46875 0.1875,-0.414063 0.453125,-0.738281 0.796875,-0.96875 0.34375,-0.238281 0.75,-0.359375 1.21875,-0.359375 z m 0,0"
             id="id-e1f3b788-470e-49d8-aa4b-54d9235cd1ca" />
        </g>
      </g>
      <g
         fill="#000000"
         fill-opacity="1"
         id="id-cd378c67-6893-42c9-9d9b-8d355a464dde"
         transform="translate(-282.481,-127.281)">
        <g
           transform="translate(297.011,146.72)"
           id="g3620">
          <path
             d="M 4.8125,0 H 4.03125 L 3.953125,-0.8125 C 3.753906,-0.488281 3.523438,-0.25 3.265625,-0.09375 3.003906,0.0507812 2.691406,0.125 2.328125,0.125 1.867188,0.125 1.507812,-0.015625 1.25,-0.296875 0.988281,-0.578125 0.859375,-0.972656 0.859375,-1.484375 V -5.25 H 1.78125 v 3.671875 c 0,0.355469 0.0625,0.609375 0.1875,0.765625 0.125,0.148438 0.328125,0.21875 0.609375,0.21875 0.507813,0 0.945313,-0.300781 1.3125,-0.90625 V -5.25 H 4.8125 Z m 0,0"
             id="id-457c5044-56a5-42c6-81fd-286079d131a9" />
        </g>
        <g
           transform="translate(302.74,146.72)"
           id="g3623">
          <path
             d="M 3.328125,-5.375 C 4.003906,-5.375 4.5,-5.132812 4.8125,-4.65625 5.125,-4.175781 5.28125,-3.5 5.28125,-2.625 c 0,0.824219 -0.183594,1.492188 -0.546875,2 -0.355469,0.5 -0.867187,0.75 -1.53125,0.75 -0.585937,0 -1.042969,-0.203125 -1.375,-0.609375 v 2.5 L 0.921875,2.125 V -5.25 h 0.78125 L 1.78125,-4.546875 C 1.96875,-4.804688 2.195312,-5.007812 2.46875,-5.15625 2.738281,-5.300781 3.023438,-5.375 3.328125,-5.375 Z m -0.34375,4.75 c 0.863281,0 1.296875,-0.664062 1.296875,-2 0,-1.34375 -0.398438,-2.015625 -1.1875,-2.015625 -0.25,0 -0.484375,0.078125 -0.703125,0.234375 -0.210937,0.148438 -0.398437,0.339844 -0.5625,0.578125 v 2.5625 c 0.132813,0.210937 0.300781,0.371094 0.5,0.484375 0.195313,0.105469 0.414063,0.15625 0.65625,0.15625 z m 0,0"
             id="id-437fe04b-129e-4fa5-902d-aa16f71b5a4b" />
        </g>
      </g>
      <g
         fill="#000000"
         fill-opacity="1"
         id="id-a29af8c5-63b4-4edd-9dc9-8a2d3f73a7f5"
         transform="translate(-282.481,-127.281)">
        <g
           transform="translate(308.528,146.72)"
           id="g3627">
          <path
             d="m 4.4375,-1.21875 c 0,0.210938 0.035156,0.367188 0.109375,0.46875 0.070313,0.105469 0.179687,0.183594 0.328125,0.234375 L 4.671875,0.125 C 4.390625,0.0820312 4.164062,0.00390625 4,-0.109375 3.84375,-0.234375 3.722656,-0.421875 3.640625,-0.671875 3.285156,-0.140625 2.765625,0.125 2.078125,0.125 1.554688,0.125 1.144531,-0.0195312 0.84375,-0.3125 0.550781,-0.601562 0.40625,-0.988281 0.40625,-1.46875 0.40625,-2.019531 0.601562,-2.445312 1,-2.75 1.40625,-3.050781 1.976562,-3.203125 2.71875,-3.203125 H 3.515625 V -3.59375 C 3.515625,-3.957031 3.425781,-4.21875 3.25,-4.375 3.070312,-4.539062 2.796875,-4.625 2.421875,-4.625 2.035156,-4.625 1.5625,-4.53125 1,-4.34375 L 0.78125,-5.015625 c 0.644531,-0.238281 1.25,-0.359375 1.8125,-0.359375 0.613281,0 1.070312,0.152344 1.375,0.453125 C 4.28125,-4.617188 4.4375,-4.1875 4.4375,-3.625 Z M 2.28125,-0.5625 c 0.53125,0 0.941406,-0.273438 1.234375,-0.828125 V -2.59375 h -0.6875 c -0.96875,0 -1.453125,0.359375 -1.453125,1.078125 0,0.3125 0.070312,0.554687 0.21875,0.71875 0.15625,0.15625 0.382812,0.234375 0.6875,0.234375 z m 0,0"
             id="id-3d4dfb92-849c-474c-acb4-7ee0f4e1bde6" />
        </g>
        <g
           transform="translate(313.898,146.72)"
           id="g3630">
          <path
             d="m 3.390625,-5.375 c 0.476563,0 0.851563,0.148438 1.125,0.4375 0.269531,0.28125 0.40625,0.671875 0.40625,1.171875 V 0 H 4 v -3.640625 c 0,-0.375 -0.074219,-0.632813 -0.21875,-0.78125 -0.136719,-0.15625 -0.339844,-0.234375 -0.609375,-0.234375 -0.28125,0 -0.53125,0.085938 -0.75,0.25 -0.210937,0.15625 -0.40625,0.382812 -0.59375,0.671875 V 0 h -0.90625 v -5.25 h 0.78125 l 0.078125,0.78125 c 0.1875,-0.28125 0.414062,-0.5 0.6875,-0.65625 0.28125,-0.164062 0.585938,-0.25 0.921875,-0.25 z m 0,0"
             id="id-6917f287-d4f1-4155-ab4f-f7f9f000571d" />
        </g>
        <g
           transform="translate(319.666,146.72)"
           id="g3633">
          <path
             d="m 2.859375,-5.375 c 0.3125,0 0.597656,0.046875 0.859375,0.140625 0.257812,0.085937 0.507812,0.226563 0.75,0.421875 l -0.4375,0.578125 c -0.1875,-0.125 -0.371094,-0.21875 -0.546875,-0.28125 -0.179687,-0.0625 -0.371094,-0.09375 -0.578125,-0.09375 -0.429688,0 -0.761719,0.171875 -1,0.515625 -0.230469,0.335938 -0.34375,0.828125 -0.34375,1.484375 0,0.667969 0.113281,1.164063 0.34375,1.484375 0.226562,0.3125 0.5625,0.46875 1,0.46875 0.195312,0 0.382812,-0.03125 0.5625,-0.09375 0.175781,-0.0625 0.367188,-0.164062 0.578125,-0.3125 L 4.46875,-0.453125 C 3.988281,-0.0664062 3.453125,0.125 2.859375,0.125 2.148438,0.125 1.585938,-0.113281 1.171875,-0.59375 0.765625,-1.070312 0.5625,-1.734375 0.5625,-2.578125 c 0,-0.5625 0.09375,-1.050781 0.28125,-1.46875 0.1875,-0.414063 0.453125,-0.738281 0.796875,-0.96875 0.34375,-0.238281 0.75,-0.359375 1.21875,-0.359375 z m 0,0"
             id="id-65363589-e0a7-4382-8ebb-d45ddc81789a" />
        </g>
        <g
           transform="translate(324.428,146.72)"
           id="g3636">
          <path
             d="M 3.046875,0.03125 C 2.835938,0.644531 2.550781,1.128906 2.1875,1.484375 1.820312,1.835938 1.296875,2.050781 0.609375,2.125 L 0.515625,1.40625 c 0.34375,-0.0625 0.613281,-0.152344 0.8125,-0.265625 0.207031,-0.105469 0.375,-0.246094 0.5,-0.421875 C 1.953125,0.539062 2.066406,0.300781 2.171875,0 h -0.3125 L 0.09375,-5.25 h 0.984375 l 1.40625,4.578125 1.375,-4.578125 H 4.8125 Z m 0,0"
             id="id-556b0f6f-b014-4c51-a474-a0a1a1648656" />
        </g>
      </g>
      <g
         fill="#000000"
         fill-opacity="1"
         id="id-b5a6a3d4-30ad-47d5-9770-81cf0e2d8ec5"
         transform="translate(-282.481,-127.281)">
        <g
           transform="translate(296.284,158.675)"
           id="g3640">
          <path
             d="m 2.859375,-5.375 c 0.3125,0 0.597656,0.046875 0.859375,0.140625 0.257812,0.085937 0.507812,0.226563 0.75,0.421875 l -0.4375,0.578125 c -0.1875,-0.125 -0.371094,-0.21875 -0.546875,-0.28125 -0.179687,-0.0625 -0.371094,-0.09375 -0.578125,-0.09375 -0.429688,0 -0.761719,0.171875 -1,0.515625 -0.230469,0.335938 -0.34375,0.828125 -0.34375,1.484375 0,0.667969 0.113281,1.164063 0.34375,1.484375 0.226562,0.3125 0.5625,0.46875 1,0.46875 0.195312,0 0.382812,-0.03125 0.5625,-0.09375 0.175781,-0.0625 0.367188,-0.164062 0.578125,-0.3125 L 4.46875,-0.453125 C 3.988281,-0.0664062 3.453125,0.125 2.859375,0.125 2.148438,0.125 1.585938,-0.113281 1.171875,-0.59375 0.765625,-1.070312 0.5625,-1.734375 0.5625,-2.578125 c 0,-0.5625 0.09375,-1.050781 0.28125,-1.46875 0.1875,-0.414063 0.453125,-0.738281 0.796875,-0.96875 0.34375,-0.238281 0.75,-0.359375 1.21875,-0.359375 z m 0,0"
             id="id-2e2acccc-4c36-484f-91c1-dae43dc03c01" />
        </g>
      </g>
      <g
         fill="#000000"
         fill-opacity="1"
         id="id-52159251-7b34-4abe-9336-9a9904751c30"
         transform="translate(-282.481,-127.281)">
        <g
           transform="translate(300.897,158.675)"
           id="g3644">
          <path
             d="m 2.921875,-5.375 c 0.738281,0 1.3125,0.25 1.71875,0.75 0.40625,0.492188 0.609375,1.15625 0.609375,2 0,0.542969 -0.09375,1.023438 -0.28125,1.4375 -0.1875,0.417969 -0.460938,0.742188 -0.8125,0.96875 C 3.8125,0.0078125 3.394531,0.125 2.90625,0.125 2.164062,0.125 1.585938,-0.117188 1.171875,-0.609375 0.765625,-1.109375 0.5625,-1.78125 0.5625,-2.625 c 0,-0.539062 0.09375,-1.019531 0.28125,-1.4375 0.1875,-0.414062 0.457031,-0.738281 0.8125,-0.96875 C 2.007812,-5.257812 2.429688,-5.375 2.921875,-5.375 Z m 0,0.734375 c -0.90625,0 -1.359375,0.671875 -1.359375,2.015625 0,1.335938 0.445312,2 1.34375,2 0.90625,0 1.359375,-0.664062 1.359375,-2 0,-1.34375 -0.449219,-2.015625 -1.34375,-2.015625 z m 0,0"
             id="id-501b7f8d-9c3b-4ee7-a5c9-ea1c9bba1485" />
        </g>
        <g
           transform="translate(306.715,158.675)"
           id="g3647">
          <path
             d="m 2.375,-5.375 c 0.351562,0 0.671875,0.054688 0.953125,0.15625 0.289063,0.09375 0.566406,0.242188 0.828125,0.4375 L 3.765625,-4.203125 C 3.523438,-4.347656 3.296875,-4.457031 3.078125,-4.53125 2.867188,-4.601562 2.644531,-4.640625 2.40625,-4.640625 c -0.304688,0 -0.542969,0.0625 -0.71875,0.1875 -0.167969,0.117187 -0.25,0.28125 -0.25,0.5 0,0.210937 0.078125,0.375 0.234375,0.5 0.164063,0.117187 0.460937,0.230469 0.890625,0.34375 0.582031,0.148437 1.019531,0.34375 1.3125,0.59375 0.289062,0.25 0.4375,0.601563 0.4375,1.046875 0,0.511719 -0.203125,0.90625 -0.609375,1.1875 C 3.296875,-0.0078125 2.804688,0.125 2.234375,0.125 1.429688,0.125 0.769531,-0.101562 0.25,-0.5625 L 0.734375,-1.125 c 0.445313,0.335938 0.941406,0.5 1.484375,0.5 0.34375,0 0.613281,-0.066406 0.8125,-0.203125 0.207031,-0.144531 0.3125,-0.34375 0.3125,-0.59375 0,-0.175781 -0.039062,-0.316406 -0.109375,-0.421875 C 3.160156,-1.957031 3.03125,-2.054688 2.84375,-2.140625 2.664062,-2.222656 2.40625,-2.3125 2.0625,-2.40625 1.5,-2.550781 1.09375,-2.742188 0.84375,-2.984375 c -0.242188,-0.25 -0.359375,-0.5625 -0.359375,-0.9375 0,-0.28125 0.078125,-0.53125 0.234375,-0.75 C 0.882812,-4.890625 1.109375,-5.0625 1.390625,-5.1875 1.679688,-5.3125 2.007812,-5.375 2.375,-5.375 Z m 0,0"
             id="id-4788abe1-18c1-493e-af4b-11cc10c045c5" />
        </g>
        <g
           transform="translate(311.367,158.675)"
           id="g3650">
          <path
             d="M 3.59375,-0.234375 C 3.25,0.00390625 2.859375,0.125 2.421875,0.125 1.972656,0.125 1.625,0 1.375,-0.25 1.125,-0.507812 1,-0.882812 1,-1.375 V -4.546875 H 0.09375 V -5.25 H 1 V -6.4375 L 1.921875,-6.546875 V -5.25 h 1.25 l -0.09375,0.703125 h -1.15625 v 3.125 c 0,0.28125 0.046875,0.484375 0.140625,0.609375 0.101562,0.117188 0.265625,0.171875 0.484375,0.171875 0.207031,0 0.441406,-0.066406 0.703125,-0.203125 z m 0,0"
             id="id-de9d7eb3-3282-4a2d-abbe-546cde66ce5b" />
        </g>
      </g>
    </g>
    <g
       transform="matrix(2.11667,0,0,2.11667,-72.350383,114.46127)"
       ns2:version="1.8.2"
       ns2:texconverter="xelatex"
       ns2:pdfconverter="inkscape"
       ns2:text="real-space hopping"
       ns2:preamble="/home/kirito/.config/textext/beamer_preamble.tex"
       ns2:scale="6.0"
       ns2:alignment="middle center"
       ns2:stroke-to-path="0"
       ns2:inkscapeversion="1.2.2"
       ns2:jacobian_sqrt="2.11667"
       id="g4023">
      <defs
         id="id-90b27264-5477-4580-beba-7f049c53ab01">
        <g
           id="id-5ad34a67-4da7-4a86-a49f-7ca78318bbf1">
          <g
             id="id-f169f01a-e871-4439-ab55-b50807da5ba6">
            <path
               d="M 5.40625,3.484375 H 1.21875 V -10.46875 h 4.1875 z m -3.625,-13.4375 V 2.96875 H 4.875 V -9.953125 Z M 3.234375,-4.5 c 0.394531,0 0.675781,0.109375 0.84375,0.328125 0.175781,0.210937 0.265625,0.484375 0.265625,0.828125 0,0.34375 -0.078125,0.617188 -0.234375,0.8125 -0.148437,0.1875 -0.386719,0.308594 -0.71875,0.359375 v 0.453125 c 0,0.074219 -0.027344,0.132812 -0.078125,0.171875 -0.054688,0.042969 -0.109375,0.0625 -0.171875,0.0625 -0.0625,0 -0.121094,-0.019531 -0.171875,-0.0625 C 2.914062,-1.585938 2.890625,-1.644531 2.890625,-1.71875 V -2.5625 c 0.351563,-0.019531 0.59375,-0.082031 0.71875,-0.1875 0.125,-0.113281 0.1875,-0.304688 0.1875,-0.578125 0,-0.21875 -0.046875,-0.382813 -0.140625,-0.5 -0.085938,-0.125 -0.242188,-0.1875 -0.46875,-0.1875 -0.1875,0 -0.359375,0.039063 -0.515625,0.109375 -0.054687,0.023438 -0.09375,0.03125 -0.125,0.03125 -0.074219,0 -0.136719,-0.019531 -0.1875,-0.0625 -0.042969,-0.039062 -0.0625,-0.097656 -0.0625,-0.171875 0,-0.125 0.097656,-0.21875 0.296875,-0.28125 C 2.789062,-4.460938 3.003906,-4.5 3.234375,-4.5 Z m -0.09375,3.296875 c 0.101563,0 0.1875,0.039063 0.25,0.109375 0.0625,0.0625 0.09375,0.148438 0.09375,0.25 0,0.105469 -0.03125,0.195312 -0.09375,0.265625 -0.0625,0.0625 -0.148437,0.09375 -0.25,0.09375 -0.105469,0 -0.1875,-0.03125 -0.25,-0.09375 -0.0625,-0.070313 -0.09375,-0.160156 -0.09375,-0.265625 0,-0.101562 0.03125,-0.1875 0.09375,-0.25 0.0625,-0.070312 0.144531,-0.109375 0.25,-0.109375 z m 0,0"
               id="id-25940c85-6cc7-4387-9470-f0109d156c84" />
          </g>
          <g
             id="id-9b319910-c299-4888-bc52-6f7c0f68a600">
            <path
               d="m 3.203125,-5.375 c 0.1875,0 0.359375,0.023438 0.515625,0.0625 L 3.546875,-4.421875 C 3.390625,-4.453125 3.238281,-4.46875 3.09375,-4.46875 c -0.324219,0 -0.589844,0.121094 -0.796875,0.359375 C 2.097656,-3.878906 1.941406,-3.507812 1.828125,-3 v 3 h -0.90625 v -5.25 h 0.78125 l 0.09375,1.0625 C 1.929688,-4.582031 2.117188,-4.878906 2.359375,-5.078125 2.597656,-5.273438 2.878906,-5.375 3.203125,-5.375 Z m 0,0"
               id="id-0f28600d-d126-4531-9dc8-38bee706636e" />
          </g>
          <g
             id="id-8ce0abd2-dfe2-4ee0-af9e-ac03d21b884f">
            <path
               d="m 4.921875,-2.78125 c 0,0.15625 -0.011719,0.3125 -0.03125,0.46875 h -3.34375 c 0.039063,0.574219 0.1875,1 0.4375,1.28125 0.25,0.273438 0.570313,0.40625 0.96875,0.40625 0.257813,0 0.492187,-0.035156 0.703125,-0.109375 C 3.875,-0.804688 4.097656,-0.925781 4.328125,-1.09375 l 0.390625,0.5625 C 4.164062,-0.09375 3.554688,0.125 2.890625,0.125 2.160156,0.125 1.585938,-0.113281 1.171875,-0.59375 0.765625,-1.070312 0.5625,-1.734375 0.5625,-2.578125 c 0,-0.539063 0.085938,-1.019531 0.265625,-1.4375 0.175781,-0.425781 0.425781,-0.757813 0.75,-1 C 1.910156,-5.253906 2.300781,-5.375 2.75,-5.375 c 0.695312,0 1.234375,0.230469 1.609375,0.6875 0.375,0.460938 0.5625,1.09375 0.5625,1.90625 z M 4,-3.046875 c 0,-0.519531 -0.105469,-0.914063 -0.3125,-1.1875 -0.199219,-0.269531 -0.507812,-0.40625 -0.921875,-0.40625 -0.75,0 -1.15625,0.554687 -1.21875,1.65625 H 4 Z m 0,0"
               id="id-d4db8728-feb1-414b-86ca-851262fa57fe" />
          </g>
          <g
             id="id-7ce10cbe-f49e-47f9-9487-6de5321ffc31">
            <path
               d="m 4.4375,-1.21875 c 0,0.210938 0.035156,0.367188 0.109375,0.46875 0.070313,0.105469 0.179687,0.183594 0.328125,0.234375 L 4.671875,0.125 C 4.390625,0.0820312 4.164062,0.00390625 4,-0.109375 3.84375,-0.234375 3.722656,-0.421875 3.640625,-0.671875 3.285156,-0.140625 2.765625,0.125 2.078125,0.125 1.554688,0.125 1.144531,-0.0195312 0.84375,-0.3125 0.550781,-0.601562 0.40625,-0.988281 0.40625,-1.46875 0.40625,-2.019531 0.601562,-2.445312 1,-2.75 1.40625,-3.050781 1.976562,-3.203125 2.71875,-3.203125 H 3.515625 V -3.59375 C 3.515625,-3.957031 3.425781,-4.21875 3.25,-4.375 3.070312,-4.539062 2.796875,-4.625 2.421875,-4.625 2.035156,-4.625 1.5625,-4.53125 1,-4.34375 L 0.78125,-5.015625 c 0.644531,-0.238281 1.25,-0.359375 1.8125,-0.359375 0.613281,0 1.070312,0.152344 1.375,0.453125 C 4.28125,-4.617188 4.4375,-4.1875 4.4375,-3.625 Z M 2.28125,-0.5625 c 0.53125,0 0.941406,-0.273438 1.234375,-0.828125 V -2.59375 h -0.6875 c -0.96875,0 -1.453125,0.359375 -1.453125,1.078125 0,0.3125 0.070312,0.554687 0.21875,0.71875 0.15625,0.15625 0.382812,0.234375 0.6875,0.234375 z m 0,0"
               id="id-77b93705-a6f5-4886-aa47-9bcc3a795fb8" />
          </g>
          <g
             id="id-1ae8b49e-0445-40f0-ace9-8cda4e9af86e">
            <path
               d="M 1.953125,0.125 C 1.617188,0.125 1.351562,0.0234375 1.15625,-0.171875 0.957031,-0.378906 0.859375,-0.664062 0.859375,-1.03125 v -6.328125 l 0.921875,-0.125 V -1.0625 c 0,0.148438 0.019531,0.257812 0.0625,0.328125 0.050781,0.0625 0.140625,0.09375 0.265625,0.09375 0.125,0 0.234375,-0.019531 0.328125,-0.0625 l 0.25,0.640625 C 2.46875,0.0625 2.222656,0.125 1.953125,0.125 Z m 0,0"
               id="id-eb11cb5c-be67-430d-8e06-e87efa11ddb5" />
          </g>
          <g
             id="id-152420ff-f4b3-411d-a2f3-fefe645d85a9">
            <path
               d="m 0.59375,-3.515625 h 2.828125 v 0.78125 H 0.59375 Z m 0,0"
               id="id-62b77032-a797-4577-87d0-150bd7879eaf" />
          </g>
          <g
             id="id-cb2763ca-d86f-4fda-a2bc-852e6dd9c411">
            <path
               d="m 2.375,-5.375 c 0.351562,0 0.671875,0.054688 0.953125,0.15625 0.289063,0.09375 0.566406,0.242188 0.828125,0.4375 L 3.765625,-4.203125 C 3.523438,-4.347656 3.296875,-4.457031 3.078125,-4.53125 2.867188,-4.601562 2.644531,-4.640625 2.40625,-4.640625 c -0.304688,0 -0.542969,0.0625 -0.71875,0.1875 -0.167969,0.117187 -0.25,0.28125 -0.25,0.5 0,0.210937 0.078125,0.375 0.234375,0.5 0.164063,0.117187 0.460937,0.230469 0.890625,0.34375 0.582031,0.148437 1.019531,0.34375 1.3125,0.59375 0.289062,0.25 0.4375,0.601563 0.4375,1.046875 0,0.511719 -0.203125,0.90625 -0.609375,1.1875 C 3.296875,-0.0078125 2.804688,0.125 2.234375,0.125 1.429688,0.125 0.769531,-0.101562 0.25,-0.5625 L 0.734375,-1.125 c 0.445313,0.335938 0.941406,0.5 1.484375,0.5 0.34375,0 0.613281,-0.066406 0.8125,-0.203125 0.207031,-0.144531 0.3125,-0.34375 0.3125,-0.59375 0,-0.175781 -0.039062,-0.316406 -0.109375,-0.421875 C 3.160156,-1.957031 3.03125,-2.054688 2.84375,-2.140625 2.664062,-2.222656 2.40625,-2.3125 2.0625,-2.40625 1.5,-2.550781 1.09375,-2.742188 0.84375,-2.984375 c -0.242188,-0.25 -0.359375,-0.5625 -0.359375,-0.9375 0,-0.28125 0.078125,-0.53125 0.234375,-0.75 C 0.882812,-4.890625 1.109375,-5.0625 1.390625,-5.1875 1.679688,-5.3125 2.007812,-5.375 2.375,-5.375 Z m 0,0"
               id="id-198e740e-c4e7-4977-995c-8bf386903cd3" />
          </g>
          <g
             id="id-7ddcb4c3-810a-4801-8110-c31bd050c223">
            <path
               d="M 3.328125,-5.375 C 4.003906,-5.375 4.5,-5.132812 4.8125,-4.65625 5.125,-4.175781 5.28125,-3.5 5.28125,-2.625 c 0,0.824219 -0.183594,1.492188 -0.546875,2 -0.355469,0.5 -0.867187,0.75 -1.53125,0.75 -0.585937,0 -1.042969,-0.203125 -1.375,-0.609375 v 2.5 L 0.921875,2.125 V -5.25 h 0.78125 L 1.78125,-4.546875 C 1.96875,-4.804688 2.195312,-5.007812 2.46875,-5.15625 2.738281,-5.300781 3.023438,-5.375 3.328125,-5.375 Z m -0.34375,4.75 c 0.863281,0 1.296875,-0.664062 1.296875,-2 0,-1.34375 -0.398438,-2.015625 -1.1875,-2.015625 -0.25,0 -0.484375,0.078125 -0.703125,0.234375 -0.210937,0.148438 -0.398437,0.339844 -0.5625,0.578125 v 2.5625 c 0.132813,0.210937 0.300781,0.371094 0.5,0.484375 0.195313,0.105469 0.414063,0.15625 0.65625,0.15625 z m 0,0"
               id="id-740c8ad5-09b9-4cf9-b8bf-63a864f6a9ac" />
          </g>
          <g
             id="id-f3758552-924c-46ee-911a-c76813285b9d">
            <path
               d="m 2.859375,-5.375 c 0.3125,0 0.597656,0.046875 0.859375,0.140625 0.257812,0.085937 0.507812,0.226563 0.75,0.421875 l -0.4375,0.578125 c -0.1875,-0.125 -0.371094,-0.21875 -0.546875,-0.28125 -0.179687,-0.0625 -0.371094,-0.09375 -0.578125,-0.09375 -0.429688,0 -0.761719,0.171875 -1,0.515625 -0.230469,0.335938 -0.34375,0.828125 -0.34375,1.484375 0,0.667969 0.113281,1.164063 0.34375,1.484375 0.226562,0.3125 0.5625,0.46875 1,0.46875 0.195312,0 0.382812,-0.03125 0.5625,-0.09375 0.175781,-0.0625 0.367188,-0.164062 0.578125,-0.3125 L 4.46875,-0.453125 C 3.988281,-0.0664062 3.453125,0.125 2.859375,0.125 2.148438,0.125 1.585938,-0.113281 1.171875,-0.59375 0.765625,-1.070312 0.5625,-1.734375 0.5625,-2.578125 c 0,-0.5625 0.09375,-1.050781 0.28125,-1.46875 0.1875,-0.414063 0.453125,-0.738281 0.796875,-0.96875 0.34375,-0.238281 0.75,-0.359375 1.21875,-0.359375 z m 0,0"
               id="id-c9c98257-4d65-4aaa-8f46-17a399fc7b0a" />
          </g>
          <g
             id="id-0a043bb0-582b-437b-bd66-327ca198284f">
            <path
               d="m 3.390625,-5.375 c 0.476563,0 0.851563,0.148438 1.125,0.4375 0.269531,0.28125 0.40625,0.671875 0.40625,1.171875 V 0 H 4 v -3.640625 c 0,-0.375 -0.074219,-0.632813 -0.21875,-0.78125 -0.148438,-0.15625 -0.355469,-0.234375 -0.625,-0.234375 -0.273438,0 -0.515625,0.085938 -0.734375,0.25 -0.210937,0.15625 -0.40625,0.382812 -0.59375,0.671875 V 0 h -0.90625 v -7.359375 l 0.90625,-0.09375 v 2.921875 c 0.414063,-0.5625 0.9375,-0.84375 1.5625,-0.84375 z m 0,0"
               id="id-b9ce00a5-3aab-4cb2-9e12-a0ad34bc7135" />
          </g>
          <g
             id="id-52882cec-4dc0-4f4d-a194-046d26c35c97">
            <path
               d="m 2.921875,-5.375 c 0.738281,0 1.3125,0.25 1.71875,0.75 0.40625,0.492188 0.609375,1.15625 0.609375,2 0,0.542969 -0.09375,1.023438 -0.28125,1.4375 -0.1875,0.417969 -0.460938,0.742188 -0.8125,0.96875 C 3.8125,0.0078125 3.394531,0.125 2.90625,0.125 2.164062,0.125 1.585938,-0.117188 1.171875,-0.609375 0.765625,-1.109375 0.5625,-1.78125 0.5625,-2.625 c 0,-0.539062 0.09375,-1.019531 0.28125,-1.4375 0.1875,-0.414062 0.457031,-0.738281 0.8125,-0.96875 C 2.007812,-5.257812 2.429688,-5.375 2.921875,-5.375 Z m 0,0.734375 c -0.90625,0 -1.359375,0.671875 -1.359375,2.015625 0,1.335938 0.445312,2 1.34375,2 0.90625,0 1.359375,-0.664062 1.359375,-2 0,-1.34375 -0.449219,-2.015625 -1.34375,-2.015625 z m 0,0"
               id="id-ee8ad492-8570-4489-97ed-d72c0a07a9a5" />
          </g>
          <g
             id="id-4be1bf38-845b-4ff7-b33d-b98277acb8cb">
            <path
               d="m 1.359375,-7.78125 c 0.195313,0 0.351563,0.0625 0.46875,0.1875 0.125,0.117188 0.1875,0.265625 0.1875,0.453125 0,0.179687 -0.0625,0.324219 -0.1875,0.4375 -0.117187,0.117187 -0.273437,0.171875 -0.46875,0.171875 -0.179687,0 -0.328125,-0.054688 -0.453125,-0.171875 -0.117188,-0.113281 -0.171875,-0.257813 -0.171875,-0.4375 0,-0.1875 0.054687,-0.335937 0.171875,-0.453125 0.125,-0.125 0.273438,-0.1875 0.453125,-0.1875 z M 1.828125,0 h -0.90625 v -5.25 h 0.90625 z m 0,0"
               id="id-6bf9ceda-2157-4b31-8fc1-ee411738b7dc" />
          </g>
          <g
             id="id-7702226d-fa9d-4d34-94e2-02d29d3aff68">
            <path
               d="m 3.390625,-5.375 c 0.476563,0 0.851563,0.148438 1.125,0.4375 0.269531,0.28125 0.40625,0.671875 0.40625,1.171875 V 0 H 4 v -3.640625 c 0,-0.375 -0.074219,-0.632813 -0.21875,-0.78125 -0.136719,-0.15625 -0.339844,-0.234375 -0.609375,-0.234375 -0.28125,0 -0.53125,0.085938 -0.75,0.25 -0.210937,0.15625 -0.40625,0.382812 -0.59375,0.671875 V 0 h -0.90625 v -5.25 h 0.78125 l 0.078125,0.78125 c 0.1875,-0.28125 0.414062,-0.5 0.6875,-0.65625 0.28125,-0.164062 0.585938,-0.25 0.921875,-0.25 z m 0,0"
               id="id-6b8c3905-e0be-4da5-ad69-c6b1d5ab14db" />
          </g>
          <g
             id="id-f417e0a0-08f9-4691-8045-ca8471e080e7">
            <path
               d="m 5.1875,-5.015625 c -0.199219,0.0625 -0.417969,0.105469 -0.65625,0.125 -0.242188,0.023437 -0.53125,0.03125 -0.875,0.03125 0.613281,0.28125 0.921875,0.726563 0.921875,1.328125 0,0.53125 -0.183594,0.964844 -0.546875,1.296875 C 3.675781,-1.910156 3.191406,-1.75 2.578125,-1.75 c -0.242187,0 -0.464844,-0.03125 -0.671875,-0.09375 -0.085938,0.054688 -0.152344,0.125 -0.203125,0.21875 -0.042969,0.085938 -0.0625,0.171875 -0.0625,0.265625 0,0.292969 0.226563,0.4375 0.6875,0.4375 h 0.84375 c 0.351563,0 0.664063,0.0625 0.9375,0.1875 0.269531,0.125 0.476563,0.296875 0.625,0.515625 C 4.890625,0 4.96875,0.25 4.96875,0.53125 4.96875,1.039062 4.753906,1.429688 4.328125,1.703125 3.910156,1.984375 3.300781,2.125 2.5,2.125 1.9375,2.125 1.488281,2.066406 1.15625,1.953125 0.832031,1.835938 0.597656,1.660156 0.453125,1.421875 0.316406,1.191406 0.25,0.894531 0.25,0.53125 h 0.828125 c 0,0.207031 0.035156,0.375 0.109375,0.5 C 1.269531,1.15625 1.414062,1.25 1.625,1.3125 1.832031,1.375 2.125,1.40625 2.5,1.40625 3.050781,1.40625 3.441406,1.335938 3.671875,1.203125 3.910156,1.066406 4.03125,0.863281 4.03125,0.59375 c 0,-0.25 -0.09375,-0.4375 -0.28125,-0.5625 -0.179688,-0.125 -0.433594,-0.1875 -0.765625,-0.1875 H 2.15625 c -0.449219,0 -0.789062,-0.09375 -1.015625,-0.28125 -0.230469,-0.195312 -0.34375,-0.4375 -0.34375,-0.71875 0,-0.175781 0.046875,-0.34375 0.140625,-0.5 0.101562,-0.15625 0.25,-0.296875 0.4375,-0.421875 -0.304688,-0.164063 -0.527344,-0.363281 -0.671875,-0.59375 -0.148437,-0.238281 -0.21875,-0.523437 -0.21875,-0.859375 0,-0.351562 0.085937,-0.671875 0.265625,-0.953125 0.175781,-0.28125 0.414062,-0.5 0.71875,-0.65625 0.3125,-0.15625 0.660156,-0.234375 1.046875,-0.234375 0.40625,0.011719 0.75,0 1.03125,-0.03125 0.28125,-0.039062 0.507813,-0.09375 0.6875,-0.15625 0.1875,-0.0625 0.414063,-0.15625 0.6875,-0.28125 z M 2.515625,-4.71875 c -0.34375,0 -0.617187,0.109375 -0.8125,0.328125 -0.1875,0.21875 -0.28125,0.507813 -0.28125,0.859375 0,0.355469 0.09375,0.640625 0.28125,0.859375 0.195313,0.210937 0.472656,0.3125 0.828125,0.3125 0.363281,0 0.640625,-0.101563 0.828125,-0.3125 0.1875,-0.207031 0.28125,-0.5 0.28125,-0.875 0,-0.78125 -0.375,-1.171875 -1.125,-1.171875 z m 0,0"
               id="id-dc1622b5-a9b9-4cdc-a3cc-ca4367ecfd0f" />
          </g>
        </g>
      </defs>
      <g
         fill="#000000"
         fill-opacity="1"
         id="id-65b49fdc-dd0a-4639-8bb6-8a991708e6f1"
         transform="translate(-149.634,-126.984)">
        <g
           transform="translate(148.712,134.765)"
           id="g7443">
          <path
             d="m 3.203125,-5.375 c 0.1875,0 0.359375,0.023438 0.515625,0.0625 L 3.546875,-4.421875 C 3.390625,-4.453125 3.238281,-4.46875 3.09375,-4.46875 c -0.324219,0 -0.589844,0.121094 -0.796875,0.359375 C 2.097656,-3.878906 1.941406,-3.507812 1.828125,-3 v 3 h -0.90625 v -5.25 h 0.78125 l 0.09375,1.0625 C 1.929688,-4.582031 2.117188,-4.878906 2.359375,-5.078125 2.597656,-5.273438 2.878906,-5.375 3.203125,-5.375 Z m 0,0"
             id="id-06c1c1e6-eac7-4d17-8f6b-d3fe20174bb4" />
        </g>
      </g>
      <g
         fill="#000000"
         fill-opacity="1"
         id="id-f6293082-d86b-448c-bd71-076870d3aadd"
         transform="translate(-149.634,-126.984)">
        <g
           transform="translate(152.338,134.765)"
           id="g7447">
          <path
             d="m 4.921875,-2.78125 c 0,0.15625 -0.011719,0.3125 -0.03125,0.46875 h -3.34375 c 0.039063,0.574219 0.1875,1 0.4375,1.28125 0.25,0.273438 0.570313,0.40625 0.96875,0.40625 0.257813,0 0.492187,-0.035156 0.703125,-0.109375 C 3.875,-0.804688 4.097656,-0.925781 4.328125,-1.09375 l 0.390625,0.5625 C 4.164062,-0.09375 3.554688,0.125 2.890625,0.125 2.160156,0.125 1.585938,-0.113281 1.171875,-0.59375 0.765625,-1.070312 0.5625,-1.734375 0.5625,-2.578125 c 0,-0.539063 0.085938,-1.019531 0.265625,-1.4375 0.175781,-0.425781 0.425781,-0.757813 0.75,-1 C 1.910156,-5.253906 2.300781,-5.375 2.75,-5.375 c 0.695312,0 1.234375,0.230469 1.609375,0.6875 0.375,0.460938 0.5625,1.09375 0.5625,1.90625 z M 4,-3.046875 c 0,-0.519531 -0.105469,-0.914063 -0.3125,-1.1875 -0.199219,-0.269531 -0.507812,-0.40625 -0.921875,-0.40625 -0.75,0 -1.15625,0.554687 -1.21875,1.65625 H 4 Z m 0,0"
             id="id-d708f94e-7d61-4631-8a88-a690a2fd6bc3" />
        </g>
      </g>
      <g
         fill="#000000"
         fill-opacity="1"
         id="id-146a7a97-c252-4cf2-b773-92fd1880fa3c"
         transform="translate(-149.634,-126.984)">
        <g
           transform="translate(157.708,134.765)"
           id="g7451">
          <path
             d="m 4.4375,-1.21875 c 0,0.210938 0.035156,0.367188 0.109375,0.46875 0.070313,0.105469 0.179687,0.183594 0.328125,0.234375 L 4.671875,0.125 C 4.390625,0.0820312 4.164062,0.00390625 4,-0.109375 3.84375,-0.234375 3.722656,-0.421875 3.640625,-0.671875 3.285156,-0.140625 2.765625,0.125 2.078125,0.125 1.554688,0.125 1.144531,-0.0195312 0.84375,-0.3125 0.550781,-0.601562 0.40625,-0.988281 0.40625,-1.46875 0.40625,-2.019531 0.601562,-2.445312 1,-2.75 1.40625,-3.050781 1.976562,-3.203125 2.71875,-3.203125 H 3.515625 V -3.59375 C 3.515625,-3.957031 3.425781,-4.21875 3.25,-4.375 3.070312,-4.539062 2.796875,-4.625 2.421875,-4.625 2.035156,-4.625 1.5625,-4.53125 1,-4.34375 L 0.78125,-5.015625 c 0.644531,-0.238281 1.25,-0.359375 1.8125,-0.359375 0.613281,0 1.070312,0.152344 1.375,0.453125 C 4.28125,-4.617188 4.4375,-4.1875 4.4375,-3.625 Z M 2.28125,-0.5625 c 0.53125,0 0.941406,-0.273438 1.234375,-0.828125 V -2.59375 h -0.6875 c -0.96875,0 -1.453125,0.359375 -1.453125,1.078125 0,0.3125 0.070312,0.554687 0.21875,0.71875 0.15625,0.15625 0.382812,0.234375 0.6875,0.234375 z m 0,0"
             id="id-5e84add7-181d-40dd-af22-cf1f64a69275" />
        </g>
      </g>
      <g
         fill="#000000"
         fill-opacity="1"
         id="id-443b6191-2877-4953-b068-54a5f4519e43"
         transform="translate(-149.634,-126.984)">
        <g
           transform="translate(163.028,134.765)"
           id="g7455">
          <path
             d="M 1.953125,0.125 C 1.617188,0.125 1.351562,0.0234375 1.15625,-0.171875 0.957031,-0.378906 0.859375,-0.664062 0.859375,-1.03125 v -6.328125 l 0.921875,-0.125 V -1.0625 c 0,0.148438 0.019531,0.257812 0.0625,0.328125 0.050781,0.0625 0.140625,0.09375 0.265625,0.09375 0.125,0 0.234375,-0.019531 0.328125,-0.0625 l 0.25,0.640625 C 2.46875,0.0625 2.222656,0.125 1.953125,0.125 Z m 0,0"
             id="id-66b10b72-629d-4b84-a9bc-39cbe7aed455" />
        </g>
      </g>
      <g
         fill="#000000"
         fill-opacity="1"
         id="id-ef5891a2-ca51-4094-b040-ce3ed553bcb0"
         transform="translate(-149.634,-126.984)">
        <g
           transform="translate(165.858,134.765)"
           id="g7459">
          <path
             d="m 0.59375,-3.515625 h 2.828125 v 0.78125 H 0.59375 Z m 0,0"
             id="id-b437bfd2-3253-4311-8008-139e4c2b877a" />
        </g>
        <g
           transform="translate(169.873,134.765)"
           id="g7462">
          <path
             d="m 2.375,-5.375 c 0.351562,0 0.671875,0.054688 0.953125,0.15625 0.289063,0.09375 0.566406,0.242188 0.828125,0.4375 L 3.765625,-4.203125 C 3.523438,-4.347656 3.296875,-4.457031 3.078125,-4.53125 2.867188,-4.601562 2.644531,-4.640625 2.40625,-4.640625 c -0.304688,0 -0.542969,0.0625 -0.71875,0.1875 -0.167969,0.117187 -0.25,0.28125 -0.25,0.5 0,0.210937 0.078125,0.375 0.234375,0.5 0.164063,0.117187 0.460937,0.230469 0.890625,0.34375 0.582031,0.148437 1.019531,0.34375 1.3125,0.59375 0.289062,0.25 0.4375,0.601563 0.4375,1.046875 0,0.511719 -0.203125,0.90625 -0.609375,1.1875 C 3.296875,-0.0078125 2.804688,0.125 2.234375,0.125 1.429688,0.125 0.769531,-0.101562 0.25,-0.5625 L 0.734375,-1.125 c 0.445313,0.335938 0.941406,0.5 1.484375,0.5 0.34375,0 0.613281,-0.066406 0.8125,-0.203125 0.207031,-0.144531 0.3125,-0.34375 0.3125,-0.59375 0,-0.175781 -0.039062,-0.316406 -0.109375,-0.421875 C 3.160156,-1.957031 3.03125,-2.054688 2.84375,-2.140625 2.664062,-2.222656 2.40625,-2.3125 2.0625,-2.40625 1.5,-2.550781 1.09375,-2.742188 0.84375,-2.984375 c -0.242188,-0.25 -0.359375,-0.5625 -0.359375,-0.9375 0,-0.28125 0.078125,-0.53125 0.234375,-0.75 C 0.882812,-4.890625 1.109375,-5.0625 1.390625,-5.1875 1.679688,-5.3125 2.007812,-5.375 2.375,-5.375 Z m 0,0"
             id="id-c0f16860-f41e-4bb9-872e-1d789f7c6222" />
        </g>
        <g
           transform="translate(174.525,134.765)"
           id="g7465">
          <path
             d="M 3.328125,-5.375 C 4.003906,-5.375 4.5,-5.132812 4.8125,-4.65625 5.125,-4.175781 5.28125,-3.5 5.28125,-2.625 c 0,0.824219 -0.183594,1.492188 -0.546875,2 -0.355469,0.5 -0.867187,0.75 -1.53125,0.75 -0.585937,0 -1.042969,-0.203125 -1.375,-0.609375 v 2.5 L 0.921875,2.125 V -5.25 h 0.78125 L 1.78125,-4.546875 C 1.96875,-4.804688 2.195312,-5.007812 2.46875,-5.15625 2.738281,-5.300781 3.023438,-5.375 3.328125,-5.375 Z m -0.34375,4.75 c 0.863281,0 1.296875,-0.664062 1.296875,-2 0,-1.34375 -0.398438,-2.015625 -1.1875,-2.015625 -0.25,0 -0.484375,0.078125 -0.703125,0.234375 -0.210937,0.148438 -0.398437,0.339844 -0.5625,0.578125 v 2.5625 c 0.132813,0.210937 0.300781,0.371094 0.5,0.484375 0.195313,0.105469 0.414063,0.15625 0.65625,0.15625 z m 0,0"
             id="id-0e2b0aee-c9e3-4ebe-b632-d7c01efdfc12" />
        </g>
      </g>
      <g
         fill="#000000"
         fill-opacity="1"
         id="id-8af1ef4f-7a91-4f81-89ee-19b3e275aca3"
         transform="translate(-149.634,-126.984)">
        <g
           transform="translate(180.313,134.765)"
           id="g7469">
          <path
             d="m 4.4375,-1.21875 c 0,0.210938 0.035156,0.367188 0.109375,0.46875 0.070313,0.105469 0.179687,0.183594 0.328125,0.234375 L 4.671875,0.125 C 4.390625,0.0820312 4.164062,0.00390625 4,-0.109375 3.84375,-0.234375 3.722656,-0.421875 3.640625,-0.671875 3.285156,-0.140625 2.765625,0.125 2.078125,0.125 1.554688,0.125 1.144531,-0.0195312 0.84375,-0.3125 0.550781,-0.601562 0.40625,-0.988281 0.40625,-1.46875 0.40625,-2.019531 0.601562,-2.445312 1,-2.75 1.40625,-3.050781 1.976562,-3.203125 2.71875,-3.203125 H 3.515625 V -3.59375 C 3.515625,-3.957031 3.425781,-4.21875 3.25,-4.375 3.070312,-4.539062 2.796875,-4.625 2.421875,-4.625 2.035156,-4.625 1.5625,-4.53125 1,-4.34375 L 0.78125,-5.015625 c 0.644531,-0.238281 1.25,-0.359375 1.8125,-0.359375 0.613281,0 1.070312,0.152344 1.375,0.453125 C 4.28125,-4.617188 4.4375,-4.1875 4.4375,-3.625 Z M 2.28125,-0.5625 c 0.53125,0 0.941406,-0.273438 1.234375,-0.828125 V -2.59375 h -0.6875 c -0.96875,0 -1.453125,0.359375 -1.453125,1.078125 0,0.3125 0.070312,0.554687 0.21875,0.71875 0.15625,0.15625 0.382812,0.234375 0.6875,0.234375 z m 0,0"
             id="id-a70a271f-b5da-45f0-94a1-5004cc667991" />
        </g>
        <g
           transform="translate(185.683,134.765)"
           id="g7472">
          <path
             d="m 2.859375,-5.375 c 0.3125,0 0.597656,0.046875 0.859375,0.140625 0.257812,0.085937 0.507812,0.226563 0.75,0.421875 l -0.4375,0.578125 c -0.1875,-0.125 -0.371094,-0.21875 -0.546875,-0.28125 -0.179687,-0.0625 -0.371094,-0.09375 -0.578125,-0.09375 -0.429688,0 -0.761719,0.171875 -1,0.515625 -0.230469,0.335938 -0.34375,0.828125 -0.34375,1.484375 0,0.667969 0.113281,1.164063 0.34375,1.484375 0.226562,0.3125 0.5625,0.46875 1,0.46875 0.195312,0 0.382812,-0.03125 0.5625,-0.09375 0.175781,-0.0625 0.367188,-0.164062 0.578125,-0.3125 L 4.46875,-0.453125 C 3.988281,-0.0664062 3.453125,0.125 2.859375,0.125 2.148438,0.125 1.585938,-0.113281 1.171875,-0.59375 0.765625,-1.070312 0.5625,-1.734375 0.5625,-2.578125 c 0,-0.5625 0.09375,-1.050781 0.28125,-1.46875 0.1875,-0.414063 0.453125,-0.738281 0.796875,-0.96875 0.34375,-0.238281 0.75,-0.359375 1.21875,-0.359375 z m 0,0"
             id="id-3683c8a2-1452-4865-bf66-4ded0ecf7e8a" />
        </g>
      </g>
      <g
         fill="#000000"
         fill-opacity="1"
         id="id-063951de-8720-40b8-885b-6b597de8ba70"
         transform="translate(-149.634,-126.984)">
        <g
           transform="translate(190.296,134.765)"
           id="g7476">
          <path
             d="m 4.921875,-2.78125 c 0,0.15625 -0.011719,0.3125 -0.03125,0.46875 h -3.34375 c 0.039063,0.574219 0.1875,1 0.4375,1.28125 0.25,0.273438 0.570313,0.40625 0.96875,0.40625 0.257813,0 0.492187,-0.035156 0.703125,-0.109375 C 3.875,-0.804688 4.097656,-0.925781 4.328125,-1.09375 l 0.390625,0.5625 C 4.164062,-0.09375 3.554688,0.125 2.890625,0.125 2.160156,0.125 1.585938,-0.113281 1.171875,-0.59375 0.765625,-1.070312 0.5625,-1.734375 0.5625,-2.578125 c 0,-0.539063 0.085938,-1.019531 0.265625,-1.4375 0.175781,-0.425781 0.425781,-0.757813 0.75,-1 C 1.910156,-5.253906 2.300781,-5.375 2.75,-5.375 c 0.695312,0 1.234375,0.230469 1.609375,0.6875 0.375,0.460938 0.5625,1.09375 0.5625,1.90625 z M 4,-3.046875 c 0,-0.519531 -0.105469,-0.914063 -0.3125,-1.1875 -0.199219,-0.269531 -0.507812,-0.40625 -0.921875,-0.40625 -0.75,0 -1.15625,0.554687 -1.21875,1.65625 H 4 Z m 0,0"
             id="id-61371b86-dbac-432b-b222-15c6313a12b0" />
        </g>
      </g>
      <g
         fill="#000000"
         fill-opacity="1"
         id="id-013c26f1-a051-4eb0-81af-9a8b726e01fe"
         transform="translate(-149.634,-126.984)">
        <g
           transform="translate(198.346,134.765)"
           id="g7480">
          <path
             d="m 3.390625,-5.375 c 0.476563,0 0.851563,0.148438 1.125,0.4375 0.269531,0.28125 0.40625,0.671875 0.40625,1.171875 V 0 H 4 v -3.640625 c 0,-0.375 -0.074219,-0.632813 -0.21875,-0.78125 -0.148438,-0.15625 -0.355469,-0.234375 -0.625,-0.234375 -0.273438,0 -0.515625,0.085938 -0.734375,0.25 -0.210937,0.15625 -0.40625,0.382812 -0.59375,0.671875 V 0 h -0.90625 v -7.359375 l 0.90625,-0.09375 v 2.921875 c 0.414063,-0.5625 0.9375,-0.84375 1.5625,-0.84375 z m 0,0"
             id="id-ddd03656-15be-47fb-969c-e30ad233a6ed" />
        </g>
        <g
           transform="translate(204.114,134.765)"
           id="g7483">
          <path
             d="m 2.921875,-5.375 c 0.738281,0 1.3125,0.25 1.71875,0.75 0.40625,0.492188 0.609375,1.15625 0.609375,2 0,0.542969 -0.09375,1.023438 -0.28125,1.4375 -0.1875,0.417969 -0.460938,0.742188 -0.8125,0.96875 C 3.8125,0.0078125 3.394531,0.125 2.90625,0.125 2.164062,0.125 1.585938,-0.117188 1.171875,-0.609375 0.765625,-1.109375 0.5625,-1.78125 0.5625,-2.625 c 0,-0.539062 0.09375,-1.019531 0.28125,-1.4375 0.1875,-0.414062 0.457031,-0.738281 0.8125,-0.96875 C 2.007812,-5.257812 2.429688,-5.375 2.921875,-5.375 Z m 0,0.734375 c -0.90625,0 -1.359375,0.671875 -1.359375,2.015625 0,1.335938 0.445312,2 1.34375,2 0.90625,0 1.359375,-0.664062 1.359375,-2 0,-1.34375 -0.449219,-2.015625 -1.34375,-2.015625 z m 0,0"
             id="id-77bcfa8b-e1b4-4278-9ca7-f604f61a0f54" />
        </g>
        <g
           transform="translate(209.932,134.765)"
           id="g7486">
          <path
             d="M 3.328125,-5.375 C 4.003906,-5.375 4.5,-5.132812 4.8125,-4.65625 5.125,-4.175781 5.28125,-3.5 5.28125,-2.625 c 0,0.824219 -0.183594,1.492188 -0.546875,2 -0.355469,0.5 -0.867187,0.75 -1.53125,0.75 -0.585937,0 -1.042969,-0.203125 -1.375,-0.609375 v 2.5 L 0.921875,2.125 V -5.25 h 0.78125 L 1.78125,-4.546875 C 1.96875,-4.804688 2.195312,-5.007812 2.46875,-5.15625 2.738281,-5.300781 3.023438,-5.375 3.328125,-5.375 Z m -0.34375,4.75 c 0.863281,0 1.296875,-0.664062 1.296875,-2 0,-1.34375 -0.398438,-2.015625 -1.1875,-2.015625 -0.25,0 -0.484375,0.078125 -0.703125,0.234375 -0.210937,0.148438 -0.398437,0.339844 -0.5625,0.578125 v 2.5625 c 0.132813,0.210937 0.300781,0.371094 0.5,0.484375 0.195313,0.105469 0.414063,0.15625 0.65625,0.15625 z m 0,0"
             id="id-7199f467-133f-43cf-b6bb-ce827fa759f8" />
        </g>
        <g
           transform="translate(215.77,134.765)"
           id="g7489">
          <path
             d="M 3.328125,-5.375 C 4.003906,-5.375 4.5,-5.132812 4.8125,-4.65625 5.125,-4.175781 5.28125,-3.5 5.28125,-2.625 c 0,0.824219 -0.183594,1.492188 -0.546875,2 -0.355469,0.5 -0.867187,0.75 -1.53125,0.75 -0.585937,0 -1.042969,-0.203125 -1.375,-0.609375 v 2.5 L 0.921875,2.125 V -5.25 h 0.78125 L 1.78125,-4.546875 C 1.96875,-4.804688 2.195312,-5.007812 2.46875,-5.15625 2.738281,-5.300781 3.023438,-5.375 3.328125,-5.375 Z m -0.34375,4.75 c 0.863281,0 1.296875,-0.664062 1.296875,-2 0,-1.34375 -0.398438,-2.015625 -1.1875,-2.015625 -0.25,0 -0.484375,0.078125 -0.703125,0.234375 -0.210937,0.148438 -0.398437,0.339844 -0.5625,0.578125 v 2.5625 c 0.132813,0.210937 0.300781,0.371094 0.5,0.484375 0.195313,0.105469 0.414063,0.15625 0.65625,0.15625 z m 0,0"
             id="id-a167ffc3-42a7-4ede-81e0-76c24a1288bd" />
        </g>
        <g
           transform="translate(221.608,134.765)"
           id="g7492">
          <path
             d="m 1.359375,-7.78125 c 0.195313,0 0.351563,0.0625 0.46875,0.1875 0.125,0.117188 0.1875,0.265625 0.1875,0.453125 0,0.179687 -0.0625,0.324219 -0.1875,0.4375 -0.117187,0.117187 -0.273437,0.171875 -0.46875,0.171875 -0.179687,0 -0.328125,-0.054688 -0.453125,-0.171875 -0.117188,-0.113281 -0.171875,-0.257813 -0.171875,-0.4375 0,-0.1875 0.054687,-0.335937 0.171875,-0.453125 0.125,-0.125 0.273438,-0.1875 0.453125,-0.1875 z M 1.828125,0 h -0.90625 v -5.25 h 0.90625 z m 0,0"
             id="id-9ba4860b-d17d-46b6-bcd1-c913b66ac90c" />
        </g>
        <g
           transform="translate(224.358,134.765)"
           id="g7495">
          <path
             d="m 3.390625,-5.375 c 0.476563,0 0.851563,0.148438 1.125,0.4375 0.269531,0.28125 0.40625,0.671875 0.40625,1.171875 V 0 H 4 v -3.640625 c 0,-0.375 -0.074219,-0.632813 -0.21875,-0.78125 -0.136719,-0.15625 -0.339844,-0.234375 -0.609375,-0.234375 -0.28125,0 -0.53125,0.085938 -0.75,0.25 -0.210937,0.15625 -0.40625,0.382812 -0.59375,0.671875 V 0 h -0.90625 v -5.25 h 0.78125 l 0.078125,0.78125 c 0.1875,-0.28125 0.414062,-0.5 0.6875,-0.65625 0.28125,-0.164062 0.585938,-0.25 0.921875,-0.25 z m 0,0"
             id="id-4fa02da6-da45-477a-ad87-cfb9ea846e65" />
        </g>
        <g
           transform="translate(230.126,134.765)"
           id="g7498">
          <path
             d="m 5.1875,-5.015625 c -0.199219,0.0625 -0.417969,0.105469 -0.65625,0.125 -0.242188,0.023437 -0.53125,0.03125 -0.875,0.03125 0.613281,0.28125 0.921875,0.726563 0.921875,1.328125 0,0.53125 -0.183594,0.964844 -0.546875,1.296875 C 3.675781,-1.910156 3.191406,-1.75 2.578125,-1.75 c -0.242187,0 -0.464844,-0.03125 -0.671875,-0.09375 -0.085938,0.054688 -0.152344,0.125 -0.203125,0.21875 -0.042969,0.085938 -0.0625,0.171875 -0.0625,0.265625 0,0.292969 0.226563,0.4375 0.6875,0.4375 h 0.84375 c 0.351563,0 0.664063,0.0625 0.9375,0.1875 0.269531,0.125 0.476563,0.296875 0.625,0.515625 C 4.890625,0 4.96875,0.25 4.96875,0.53125 4.96875,1.039062 4.753906,1.429688 4.328125,1.703125 3.910156,1.984375 3.300781,2.125 2.5,2.125 1.9375,2.125 1.488281,2.066406 1.15625,1.953125 0.832031,1.835938 0.597656,1.660156 0.453125,1.421875 0.316406,1.191406 0.25,0.894531 0.25,0.53125 h 0.828125 c 0,0.207031 0.035156,0.375 0.109375,0.5 C 1.269531,1.15625 1.414062,1.25 1.625,1.3125 1.832031,1.375 2.125,1.40625 2.5,1.40625 3.050781,1.40625 3.441406,1.335938 3.671875,1.203125 3.910156,1.066406 4.03125,0.863281 4.03125,0.59375 c 0,-0.25 -0.09375,-0.4375 -0.28125,-0.5625 -0.179688,-0.125 -0.433594,-0.1875 -0.765625,-0.1875 H 2.15625 c -0.449219,0 -0.789062,-0.09375 -1.015625,-0.28125 -0.230469,-0.195312 -0.34375,-0.4375 -0.34375,-0.71875 0,-0.175781 0.046875,-0.34375 0.140625,-0.5 0.101562,-0.15625 0.25,-0.296875 0.4375,-0.421875 -0.304688,-0.164063 -0.527344,-0.363281 -0.671875,-0.59375 -0.148437,-0.238281 -0.21875,-0.523437 -0.21875,-0.859375 0,-0.351562 0.085937,-0.671875 0.265625,-0.953125 0.175781,-0.28125 0.414062,-0.5 0.71875,-0.65625 0.3125,-0.15625 0.660156,-0.234375 1.046875,-0.234375 0.40625,0.011719 0.75,0 1.03125,-0.03125 0.28125,-0.039062 0.507813,-0.09375 0.6875,-0.15625 0.1875,-0.0625 0.414063,-0.15625 0.6875,-0.28125 z M 2.515625,-4.71875 c -0.34375,0 -0.617187,0.109375 -0.8125,0.328125 -0.1875,0.21875 -0.28125,0.507813 -0.28125,0.859375 0,0.355469 0.09375,0.640625 0.28125,0.859375 0.195313,0.210937 0.472656,0.3125 0.828125,0.3125 0.363281,0 0.640625,-0.101563 0.828125,-0.3125 0.1875,-0.207031 0.28125,-0.5 0.28125,-0.875 0,-0.78125 -0.375,-1.171875 -1.125,-1.171875 z m 0,0"
             id="id-9de1c016-77c5-4b33-be4f-c8eff951d34b" />
        </g>
      </g>
    </g>
  </g>
</svg>
