<?xml version="1.0" encoding="UTF-8" standalone="no"?>
<svg
   width="365.27075pt"
   height="152.70036pt"
   viewBox="0 0 365.27075 152.70037"
   version="1.2"
   id="svg32714"
   sodipodi:docname="phase1.svg"
   inkscape:version="1.2.2 (b0a8486541, 2022-12-01)"
   xmlns:inkscape="http://www.inkscape.org/namespaces/inkscape"
   xmlns:sodipodi="http://sodipodi.sourceforge.net/DTD/sodipodi-0.dtd"
   xmlns="http://www.w3.org/2000/svg"
   xmlns:svg="http://www.w3.org/2000/svg"
   xmlns:ns2="http://www.iki.fi/pav/software/textext/">
  <sodipodi:namedview
     id="namedview32716"
     pagecolor="#505050"
     bordercolor="#eeeeee"
     borderopacity="1"
     inkscape:pageshadow="0"
     inkscape:pageopacity="0"
     inkscape:pagecheckerboard="0"
     inkscape:document-units="pt"
     showgrid="false"
     inkscape:zoom="1.3335911"
     inkscape:cx="253.07607"
     inkscape:cy="124.47594"
     inkscape:window-width="1916"
     inkscape:window-height="1048"
     inkscape:window-x="0"
     inkscape:window-y="28"
     inkscape:window-maximized="1"
     inkscape:current-layer="svg32714"
     inkscape:snap-bbox="true"
     inkscape:object-paths="true"
     inkscape:snap-intersection-paths="true"
     inkscape:snap-global="false"
     inkscape:showpageshadow="0"
     inkscape:deskcolor="#505050" />
  <defs
     id="defs32609">
    <marker
       style="overflow:visible"
       id="marker24015"
       refX="0"
       refY="0"
       orient="auto-start-reverse"
       inkscape:stockid="RoundedArrow"
       markerWidth="4.1350002"
       markerHeight="3.9973249"
       viewBox="0 0 6.1347524 5.9304951"
       inkscape:isstock="true"
       inkscape:collect="always"
       preserveAspectRatio="xMidYMid">
      <path
         transform="scale(0.7)"
         d="m -0.21114562,-4.1055728 6.42229122,3.21114561 a 1,1 90 0 1 0,1.78885438 L -0.21114562,4.1055728 A 1.236068,1.236068 31.717474 0 1 -2,3 v -6 a 1.236068,1.236068 148.28253 0 1 1.78885438,-1.1055728 z"
         style="fill:context-stroke;fill-rule:evenodd;stroke:none"
         id="path24013" />
    </marker>
    <inkscape:path-effect
       effect="spiro"
       id="path-effect23981"
       is_visible="true"
       lpeversion="1" />
    <inkscape:path-effect
       effect="spiro"
       id="path-effect23491"
       is_visible="true"
       lpeversion="1" />
    <marker
       style="overflow:visible"
       id="RoundedArrow"
       refX="0"
       refY="0"
       orient="auto-start-reverse"
       inkscape:stockid="RoundedArrow"
       markerWidth="6.1347523"
       markerHeight="5.9304953"
       viewBox="0 0 6.1347524 5.9304951"
       inkscape:isstock="true"
       inkscape:collect="always"
       preserveAspectRatio="xMidYMid">
      <path
         transform="scale(0.7)"
         d="m -0.21114562,-4.1055728 6.42229122,3.21114561 a 1,1 90 0 1 0,1.78885438 L -0.21114562,4.1055728 A 1.236068,1.236068 31.717474 0 1 -2,3 v -6 a 1.236068,1.236068 148.28253 0 1 1.78885438,-1.1055728 z"
         style="fill:context-stroke;fill-rule:evenodd;stroke:none"
         id="path1367" />
    </marker>
    <inkscape:path-effect
       effect="spiro"
       id="path-effect97285"
       is_visible="true"
       lpeversion="1" />
    <marker
       style="overflow:visible"
       id="EmptyTriangleIn"
       refX="-1"
       refY="0"
       orient="auto-start-reverse"
       inkscape:stockid="EmptyTriangleIn"
       markerWidth="5.8241119"
       markerHeight="6.7330775"
       viewBox="0 0 5.8241121 6.7330776"
       inkscape:isstock="true"
       inkscape:collect="always"
       preserveAspectRatio="xMidYMid">
      <path
         transform="scale(0.5)"
         style="fill:context-fill;fill-rule:evenodd;stroke:context-stroke;stroke-width:2"
         d="M 5.77,0 -2.88,5 V -5 Z"
         id="path153" />
    </marker>
    <inkscape:path-effect
       effect="spiro"
       id="path-effect97007"
       is_visible="true"
       lpeversion="1" />
    <marker
       style="overflow:visible"
       id="marker9621"
       refX="0"
       refY="0"
       orient="auto"
       inkscape:stockid="Arrow2Mend"
       inkscape:isstock="true">
      <path
         transform="scale(-0.6)"
         d="M 8.7185878,4.0337352 -2.2072895,0.01601326 8.7185884,-4.0017078 c -1.7454984,2.3720609 -1.7354408,5.6174519 -6e-7,8.035443 z"
         style="fill:context-stroke;fill-rule:evenodd;stroke:context-stroke;stroke-width:0.625;stroke-linejoin:round"
         id="path9619" />
    </marker>
    <marker
       style="overflow:visible"
       id="Arrow2Mend"
       refX="0"
       refY="0"
       orient="auto"
       inkscape:stockid="Arrow2Mend"
       inkscape:isstock="true">
      <path
         transform="scale(-0.6)"
         d="M 8.7185878,4.0337352 -2.2072895,0.01601326 8.7185884,-4.0017078 c -1.7454984,2.3720609 -1.7354408,5.6174519 -6e-7,8.035443 z"
         style="fill:context-stroke;fill-rule:evenodd;stroke:context-stroke;stroke-width:0.625;stroke-linejoin:round"
         id="path9370" />
    </marker>
    <marker
       style="overflow:visible"
       id="Arrow2Lend"
       refX="0"
       refY="0"
       orient="auto"
       inkscape:stockid="Arrow2Lend"
       inkscape:isstock="true">
      <path
         transform="matrix(-1.1,0,0,-1.1,-1.1,0)"
         d="M 8.7185878,4.0337352 -2.2072895,0.01601326 8.7185884,-4.0017078 c -1.7454984,2.3720609 -1.7354408,5.6174519 -6e-7,8.035443 z"
         style="fill:context-stroke;fill-rule:evenodd;stroke:context-stroke;stroke-width:0.625;stroke-linejoin:round"
         id="path9364" />
    </marker>
    <inkscape:path-effect
       effect="spiro"
       id="path-effect8375"
       is_visible="true"
       lpeversion="1" />
    <inkscape:path-effect
       effect="spiro"
       id="path-effect8371"
       is_visible="true"
       lpeversion="1" />
    <inkscape:path-effect
       effect="spiro"
       id="path-effect8334"
       is_visible="true"
       lpeversion="1" />
    <inkscape:path-effect
       effect="spiro"
       id="path-effect8213"
       is_visible="true"
       lpeversion="1" />
    <clipPath
       id="clip1">
      <path
         d="m 28,134 h 11 v 17.24219 H 28 Z m 0,0"
         id="path32600" />
    </clipPath>
    <clipPath
       id="clip2">
      <path
         d="m 75,134 h 12 v 17.24219 H 75 Z m 0,0"
         id="path32603" />
    </clipPath>
    <clipPath
       id="clip3">
      <path
         d="m 345,133 h 10.31641 v 13 H 345 Z m 0,0"
         id="path32606" />
    </clipPath>
    <g
       id="id-d512316c-f310-4ef7-b32f-ea93f87dd485-7">
      <g
         id="id-aec88e65-99b3-4c56-a594-255c12e961eb-5">
        <path
           d="M 5.40625,-10.46875 H 1.21875 V 3.484375 h 4.1875 z M 4.875,-9.953125 V 2.96875 H 1.78125 V -9.953125 Z M 3.234375,-4.5 c -0.390625,0 -0.9375,0.125 -0.9375,0.390625 0,0.125 0.09375,0.234375 0.25,0.234375 0.03125,0 0.078125,-0.015625 0.125,-0.03125 0.171875,-0.078125 0.3125,-0.109375 0.515625,-0.109375 0.5,0 0.609375,0.296875 0.609375,0.6875 0,0.53125 -0.1875,0.71875 -0.90625,0.765625 v 0.84375 c 0,0.140625 0.125,0.234375 0.25,0.234375 0.125,0 0.25,-0.09375 0.25,-0.234375 V -2.171875 C 4.0625,-2.265625 4.34375,-2.65625 4.34375,-3.34375 4.34375,-3.953125 4.09375,-4.5 3.234375,-4.5 Z m -0.09375,3.296875 c -0.203125,0 -0.34375,0.15625 -0.34375,0.359375 0,0.203125 0.140625,0.359375 0.34375,0.359375 0.203125,0 0.34375,-0.15625 0.34375,-0.359375 0,-0.203125 -0.140625,-0.359375 -0.34375,-0.359375 z m 0,0"
           id="id-7c2a457f-f768-4159-9e9f-9df2cc3e5e13-3" />
      </g>
      <g
         id="id-cbdc8fff-0ca5-40b0-a6c3-fd6785a6998c-5">
        <path
           d="M 4.03125,-5.25 H 0.484375 v 0.78125 h 2.5 L 0.25,-0.6875 V 0 H 3.953125 L 4.0625,-0.765625 H 1.28125 l 2.75,-3.796875 z m 0,0"
           id="id-d973a2bc-a0f1-46d3-be99-e1468b8100fd-6" />
      </g>
      <g
         id="id-5686a47d-2053-4c4d-820f-b70b1f5df129-2">
        <path
           d="m 4.921875,-2.78125 c 0,-1.609375 -0.75,-2.59375 -2.171875,-2.59375 -1.359375,0 -2.1875,1.171875 -2.1875,2.796875 0,1.671875 0.859375,2.703125 2.328125,2.703125 0.734375,0 1.3125,-0.25 1.828125,-0.65625 L 4.328125,-1.09375 C 3.875,-0.765625 3.484375,-0.625 2.953125,-0.625 c -0.75,0 -1.3125,-0.46875 -1.40625,-1.6875 h 3.34375 c 0.015625,-0.125 0.03125,-0.296875 0.03125,-0.46875 z M 4,-2.984375 H 1.546875 c 0.0625,-1.171875 0.53125,-1.65625 1.21875,-1.65625 0.828125,0 1.234375,0.5625 1.234375,1.59375 z m 0,0"
           id="id-a332717d-d305-44bd-a0ed-aad2acac9b2e-9" />
      </g>
      <g
         id="id-0e774e49-ecc7-4b16-9075-b05632ae91b5-1">
        <path
           d="m 3.203125,-5.375 c -0.640625,0 -1.125,0.40625 -1.40625,1.1875 L 1.703125,-5.25 H 0.921875 V 0 h 0.90625 v -3 c 0.21875,-1 0.609375,-1.46875 1.265625,-1.46875 0.1875,0 0.296875,0.015625 0.453125,0.046875 L 3.71875,-5.3125 C 3.5625,-5.359375 3.375,-5.375 3.203125,-5.375 Z m 0,0"
           id="id-af3d88dc-cd40-4e0c-89bc-b4785b17be2d-2" />
      </g>
      <g
         id="id-b16cf8d5-1627-44bd-a3e3-091b7fd09800-7">
        <path
           d="m 2.921875,-5.375 c -1.5,0 -2.359375,1.125 -2.359375,2.75 0,1.671875 0.859375,2.75 2.34375,2.75 C 4.390625,0.125 5.25,-1 5.25,-2.625 c 0,-1.671875 -0.828125,-2.75 -2.328125,-2.75 z m 0,0.734375 c 0.859375,0 1.34375,0.640625 1.34375,2.015625 0,1.375 -0.484375,2 -1.359375,2 -0.875,0 -1.34375,-0.625 -1.34375,-2 0,-1.375 0.484375,-2.015625 1.359375,-2.015625 z m 0,0"
           id="id-20005495-b261-4cc2-b6b6-ed297e2db39b-0" />
      </g>
      <g
         id="id-6b9ff16d-207e-4e6d-bab3-4e5b23972824-9">
        <path
           d="m 3.25,-0.84375 c -0.265625,0.140625 -0.46875,0.203125 -0.703125,0.203125 -0.453125,0 -0.625,-0.25 -0.625,-0.78125 v -3.125 h 1.15625 L 3.171875,-5.25 h -1.25 V -6.546875 L 1,-6.4375 V -5.25 H 0.09375 v 0.703125 H 1 V -1.375 c 0,0.96875 0.53125,1.5 1.421875,1.5 C 2.875,0.125 3.25,0 3.59375,-0.234375 Z m 0,0"
           id="id-32b60361-bbea-40ea-b977-53eb510acd35-3" />
      </g>
      <g
         id="id-71869a43-d697-4ceb-a7f9-8ebf4b864781-6">
        <path
           d="m 3.390625,-5.375 c -0.65625,0 -1.171875,0.328125 -1.5625,0.84375 v -2.921875 l -0.90625,0.09375 V 0 h 0.90625 V -3.734375 C 2.1875,-4.28125 2.59375,-4.65625 3.15625,-4.65625 3.65625,-4.65625 4,-4.421875 4,-3.640625 V 0 H 4.921875 V -3.765625 C 4.921875,-4.75 4.34375,-5.375 3.390625,-5.375 Z m 0,0"
           id="id-1e3d112e-4560-4763-824b-0e30cffc45d8-0" />
      </g>
      <g
         id="id-1e91a301-79e9-4d0c-a978-b6b3c6a52f9e-6">
        <path
           d="m 2.375,-5.375 c -1.09375,0 -1.890625,0.609375 -1.890625,1.453125 0,0.734375 0.4375,1.21875 1.578125,1.515625 1.015625,0.265625 1.28125,0.46875 1.28125,0.984375 0,0.5 -0.4375,0.796875 -1.125,0.796875 -0.578125,0 -1.0625,-0.1875 -1.484375,-0.5 L 0.25,-0.5625 c 0.453125,0.390625 1.09375,0.6875 1.984375,0.6875 1.0625,0 2.078125,-0.5 2.078125,-1.59375 0,-0.921875 -0.640625,-1.359375 -1.75,-1.640625 -0.84375,-0.21875 -1.125,-0.421875 -1.125,-0.84375 0,-0.421875 0.359375,-0.6875 0.96875,-0.6875 0.484375,0 0.890625,0.140625 1.359375,0.4375 L 4.15625,-4.78125 C 3.65625,-5.15625 3.109375,-5.375 2.375,-5.375 Z m 0,0"
           id="id-53a9d073-0486-42ca-ac9a-a430e0ddfb98-2" />
      </g>
      <g
         id="id-0db217cc-3c59-4772-870f-536584d3a0e2-6">
        <path
           d="m 1.359375,-7.78125 c -0.375,0 -0.625,0.28125 -0.625,0.640625 0,0.34375 0.25,0.609375 0.625,0.609375 0.390625,0 0.65625,-0.265625 0.65625,-0.609375 C 2.015625,-7.5 1.75,-7.78125 1.359375,-7.78125 Z M 1.828125,-5.25 H 0.921875 V 0 h 0.90625 z m 0,0"
           id="id-87b2e3dc-de9a-40b7-8807-e8766aeb7488-1" />
      </g>
    </g>
    <inkscape:path-effect
       effect="spiro"
       id="path-effect97007-1"
       is_visible="true"
       lpeversion="1" />
    <inkscape:path-effect
       effect="spiro"
       id="path-effect97285-2"
       is_visible="true"
       lpeversion="1" />
  </defs>
  <path
     style="fill:#307070;fill-opacity:1;fill-rule:nonzero;stroke:none;stroke-width:1.25468"
     d="M 110,71.255276 C 110,101.63222 85.372042,126.25527 55.000003,126.25527 24.623063,126.25527 0,101.63222 0,71.255276 0,40.883237 24.623063,16.255273 55.000003,16.255273 85.372042,16.255273 110,40.883237 110,71.255276 Z m 0,0"
     id="path32611" />
  <path
     style="fill:#304070;fill-opacity:1;fill-rule:nonzero;stroke:none;stroke-width:1.13897"
     d="m 365.27074,71.526021 c 0,30.378569 -24.62587,54.999999 -54.99999,54.999999 -30.37859,0 -55.00001,-24.62143 -55.00001,-54.999999 0,-30.374127 24.62142,-54.999993 55.00001,-54.999993 30.37412,0 54.99999,24.625866 54.99999,54.999993 z m 0,0"
     id="path32613" />
  <path
     style="fill:none;fill-opacity:1;stroke:#ffffff;stroke-width:4.252;stroke-miterlimit:4.5;stroke-dasharray:none;stroke-dashoffset:0;stroke-opacity:1;marker-end:url(#EmptyTriangleIn)"
     d="M 294.93352,81.57335 V 52.644455"
     id="path97005"
     inkscape:path-effect="#path-effect97007"
     inkscape:original-d="m 294.93352,81.57335 c 7.5e-4,-9.643718 7.5e-4,-19.286678 0,-28.928895" />
  <path
     style="fill:none;fill-opacity:1;stroke:#ffffff;stroke-width:4.252;stroke-miterlimit:4.5;stroke-dasharray:none;stroke-dashoffset:0;stroke-opacity:1;marker-end:url(#EmptyTriangleIn)"
     d="M 324.87766,56.725281 V 85.654175"
     id="path97281"
     inkscape:path-effect="#path-effect97285"
     inkscape:original-d="m 324.87766,56.725281 c 7.5e-4,9.643717 7.5e-4,19.286677 0,28.928894" />
  <path
     style="fill:none;fill-opacity:1;stroke:#ffffff;stroke-width:4.252;stroke-miterlimit:4.5;stroke-dasharray:none;stroke-dashoffset:0;stroke-opacity:1;marker-end:url(#RoundedArrow)"
     d="M 38.79791,81.255812 V 52.326916"
     id="path97005-9"
     inkscape:path-effect="#path-effect97007-1"
     inkscape:original-d="m 38.79791,81.255812 c 7.5e-4,-9.64372 7.5e-4,-19.286679 0,-28.928896" />
  <path
     style="fill:none;fill-opacity:1;stroke:#ffffff;stroke-width:4.252;stroke-miterlimit:4.5;stroke-dasharray:none;stroke-dashoffset:0;stroke-opacity:1;marker-end:url(#RoundedArrow)"
     d="M 67.907006,60.65512 V 89.584014"
     id="path97281-3"
     inkscape:path-effect="#path-effect97285-2"
     inkscape:original-d="m 67.907006,60.65512 c 7.5e-4,9.643717 7.5e-4,19.286677 0,28.928894" />
  <g
     ns2:version="1.8.1"
     ns2:texconverter="xelatex"
     ns2:pdfconverter="inkscape"
     ns2:text="impurity site"
     ns2:preamble="/home/kirito/.config/textext/beamer_preamble.tex"
     ns2:scale="3.0"
     ns2:alignment="middle center"
     ns2:stroke-to-path="0"
     ns2:inkscapeversion="1.2.1"
     transform="matrix(2.25,0,0,2.25,8.4375e-4,130.41187)"
     ns2:jacobian_sqrt="2.25"
     id="g6237">
    <defs
       id="id-b92bd6de-0062-4230-9694-9e7ea1d26fe3">
      <g
         id="id-075034cf-cbd6-4d18-8c88-a453ba64a00b">
        <g
           id="id-5ea25a87-f78e-452b-bc07-a9751c217cda">
          <path
             d="M 5.40625,-10.46875 V 3.484375 H 1.21875 V -10.46875 Z M 4.875,-9.953125 H 1.78125 V 2.96875 H 4.875 Z M 3.234375,-4.5 c 0.394531,0 0.675781,0.109375 0.84375,0.328125 0.175781,0.210937 0.265625,0.484375 0.265625,0.828125 0,0.34375 -0.078125,0.617188 -0.234375,0.8125 -0.148437,0.1875 -0.386719,0.308594 -0.71875,0.359375 v 0.453125 c 0,0.074219 -0.027344,0.132812 -0.078125,0.171875 -0.054688,0.042969 -0.109375,0.0625 -0.171875,0.0625 -0.0625,0 -0.121094,-0.019531 -0.171875,-0.0625 C 2.914062,-1.585938 2.890625,-1.644531 2.890625,-1.71875 V -2.5625 c 0.351563,-0.019531 0.59375,-0.082031 0.71875,-0.1875 0.125,-0.113281 0.1875,-0.304688 0.1875,-0.578125 0,-0.21875 -0.046875,-0.382813 -0.140625,-0.5 -0.085938,-0.125 -0.242188,-0.1875 -0.46875,-0.1875 -0.1875,0 -0.359375,0.039063 -0.515625,0.109375 -0.054687,0.023438 -0.09375,0.03125 -0.125,0.03125 -0.074219,0 -0.136719,-0.019531 -0.1875,-0.0625 -0.042969,-0.039062 -0.0625,-0.097656 -0.0625,-0.171875 0,-0.125 0.097656,-0.21875 0.296875,-0.28125 C 2.789062,-4.460938 3.003906,-4.5 3.234375,-4.5 Z m -0.09375,3.296875 c 0.101563,0 0.1875,0.039063 0.25,0.109375 0.0625,0.0625 0.09375,0.148438 0.09375,0.25 0,0.105469 -0.03125,0.195312 -0.09375,0.265625 -0.0625,0.0625 -0.148437,0.09375 -0.25,0.09375 -0.105469,0 -0.1875,-0.03125 -0.25,-0.09375 -0.0625,-0.070313 -0.09375,-0.160156 -0.09375,-0.265625 0,-0.101562 0.03125,-0.1875 0.09375,-0.25 0.0625,-0.070312 0.144531,-0.109375 0.25,-0.109375 z m 0,0"
             id="id-ff9cf9ac-ecdc-44f0-8112-714bd5c317d8" />
        </g>
        <g
           id="id-44ea60a7-1da0-419e-8c6e-31d0133abcf8">
          <path
             d="M 1.859375,-5.25 V 0 h -0.90625 v -5.25 z m -0.46875,-2.53125 c 0.195313,0 0.351563,0.0625 0.46875,0.1875 0.125,0.117188 0.1875,0.265625 0.1875,0.453125 0,0.179687 -0.0625,0.324219 -0.1875,0.4375 -0.117187,0.117187 -0.273437,0.171875 -0.46875,0.171875 -0.179687,0 -0.328125,-0.054688 -0.453125,-0.171875 -0.117188,-0.113281 -0.171875,-0.257813 -0.171875,-0.4375 0,-0.1875 0.054687,-0.335937 0.171875,-0.453125 0.125,-0.125 0.273438,-0.1875 0.453125,-0.1875 z m 0,0"
             id="id-8d055443-2914-4f6e-b709-08b66a6e0b9c" />
        </g>
        <g
           id="id-af6243ea-b38c-4bd5-9f25-b733a0d56973">
          <path
             d="m 6.21875,-5.375 c 0.4375,0 0.78125,0.148438 1.03125,0.4375 0.257812,0.292969 0.390625,0.683594 0.390625,1.171875 V 0 h -0.90625 v -3.640625 c 0,-0.675781 -0.25,-1.015625 -0.75,-1.015625 -0.25,0 -0.46875,0.078125 -0.65625,0.234375 -0.179687,0.148437 -0.371094,0.375 -0.578125,0.6875 V 0 H 3.84375 v -3.640625 c 0,-0.675781 -0.25,-1.015625 -0.75,-1.015625 -0.261719,0 -0.484375,0.078125 -0.671875,0.234375 -0.179687,0.148437 -0.367187,0.375 -0.5625,0.6875 V 0 h -0.90625 v -5.25 h 0.78125 L 1.8125,-4.484375 C 2.207031,-5.078125 2.710938,-5.375 3.328125,-5.375 c 0.320313,0 0.597656,0.085938 0.828125,0.25 0.226562,0.167969 0.394531,0.402344 0.5,0.703125 0.207031,-0.3125 0.4375,-0.546875 0.6875,-0.703125 0.25,-0.164062 0.539062,-0.25 0.875,-0.25 z m 0,0"
             id="id-91ce2518-4dc7-4b31-ba9e-9932e14ab11e" />
        </g>
        <g
           id="id-c3f991e5-b758-4077-8164-f2af5fb654a6">
          <path
             d="m 3.359375,-5.375 c 0.664063,0 1.15625,0.242188 1.46875,0.71875 0.3125,0.480469 0.46875,1.15625 0.46875,2.03125 0,0.824219 -0.179687,1.492188 -0.53125,2 -0.355469,0.5 -0.867187,0.75 -1.53125,0.75 -0.585937,0 -1.042969,-0.203125 -1.375,-0.609375 v 2.5 L 0.953125,2.125 V -5.25 h 0.78125 l 0.0625,0.703125 C 1.992188,-4.804688 2.226562,-5.007812 2.5,-5.15625 2.769531,-5.300781 3.054688,-5.375 3.359375,-5.375 Z m -0.34375,4.75 c 0.863281,0 1.296875,-0.664062 1.296875,-2 0,-1.34375 -0.398438,-2.015625 -1.1875,-2.015625 -0.261719,0 -0.496094,0.078125 -0.703125,0.234375 -0.210937,0.148438 -0.398437,0.339844 -0.5625,0.578125 v 2.5625 c 0.132813,0.210937 0.300781,0.371094 0.5,0.484375 0.195313,0.105469 0.414063,0.15625 0.65625,0.15625 z m 0,0"
             id="id-106798de-16f4-4411-b913-99c5f419705c" />
        </g>
        <g
           id="id-97cdefe8-a392-497a-9fab-217fcab412ce">
          <path
             d="M 4.859375,0 H 4.0625 L 4,-0.8125 C 3.800781,-0.488281 3.570312,-0.25 3.3125,-0.09375 3.050781,0.0507812 2.734375,0.125 2.359375,0.125 1.898438,0.125 1.539062,-0.015625 1.28125,-0.296875 1.019531,-0.578125 0.890625,-0.972656 0.890625,-1.484375 V -5.25 H 1.8125 v 3.671875 c 0,0.355469 0.0625,0.609375 0.1875,0.765625 0.125,0.148438 0.332031,0.21875 0.625,0.21875 0.507812,0 0.945312,-0.300781 1.3125,-0.90625 v -3.75 h 0.921875 z m 0,0"
             id="id-9bddab70-825b-4e82-94a0-f5bc8f06fbfd" />
        </g>
        <g
           id="id-0ab34daf-7812-4c82-923d-9f81e2b92032">
          <path
             d="m 3.234375,-5.375 c 0.1875,0 0.359375,0.023438 0.515625,0.0625 L 3.578125,-4.421875 C 3.421875,-4.453125 3.269531,-4.46875 3.125,-4.46875 c -0.335938,0 -0.601562,0.121094 -0.796875,0.359375 C 2.128906,-3.878906 1.972656,-3.507812 1.859375,-3 v 3 h -0.90625 v -5.25 h 0.78125 l 0.09375,1.0625 C 1.960938,-4.582031 2.148438,-4.878906 2.390625,-5.078125 2.628906,-5.273438 2.910156,-5.375 3.234375,-5.375 Z m 0,0"
             id="id-4dc6186a-f984-43aa-8bc6-d1053b77ed66" />
        </g>
        <g
           id="id-b3931355-1106-45ea-945c-25e80c148e08">
          <path
             d="M 3.59375,-0.234375 C 3.25,0.00390625 2.859375,0.125 2.421875,0.125 1.972656,0.125 1.625,0 1.375,-0.25 1.125,-0.507812 1,-0.882812 1,-1.375 V -4.546875 H 0.09375 V -5.25 H 1 V -6.4375 L 1.921875,-6.546875 V -5.25 h 1.25 l -0.09375,0.703125 h -1.15625 v 3.125 c 0,0.28125 0.046875,0.484375 0.140625,0.609375 0.101562,0.117188 0.265625,0.171875 0.484375,0.171875 0.207031,0 0.441406,-0.066406 0.703125,-0.203125 z m 0,0"
             id="id-0ff2936f-4b94-4923-8274-0990463c61ad" />
        </g>
        <g
           id="id-5da05499-13bc-4c51-81f7-a060686773ab">
          <path
             d="M 3.046875,0.03125 C 2.835938,0.644531 2.550781,1.128906 2.1875,1.484375 1.820312,1.835938 1.296875,2.050781 0.609375,2.125 L 0.515625,1.40625 c 0.34375,-0.0625 0.613281,-0.152344 0.8125,-0.265625 0.207031,-0.105469 0.375,-0.246094 0.5,-0.421875 C 1.953125,0.539062 2.066406,0.300781 2.171875,0 h -0.3125 L 0.09375,-5.25 h 0.984375 l 1.40625,4.578125 1.375,-4.578125 H 4.8125 Z m 0,0"
             id="id-3135deb0-ea7e-480f-8cf4-32e5963512a4" />
        </g>
        <g
           id="id-b6e35e7d-e531-4a34-a376-42defc005cc8">
          <path
             d="m 2.375,-5.375 c 0.351562,0 0.671875,0.054688 0.953125,0.15625 0.289063,0.09375 0.566406,0.242188 0.828125,0.4375 L 3.765625,-4.203125 C 3.523438,-4.347656 3.296875,-4.457031 3.078125,-4.53125 2.867188,-4.601562 2.644531,-4.640625 2.40625,-4.640625 c -0.304688,0 -0.542969,0.0625 -0.71875,0.1875 -0.167969,0.117187 -0.25,0.28125 -0.25,0.5 0,0.210937 0.078125,0.375 0.234375,0.5 0.164063,0.117187 0.460937,0.230469 0.890625,0.34375 0.582031,0.148437 1.019531,0.34375 1.3125,0.59375 0.289062,0.25 0.4375,0.601563 0.4375,1.046875 0,0.511719 -0.203125,0.90625 -0.609375,1.1875 C 3.296875,-0.0078125 2.804688,0.125 2.234375,0.125 1.429688,0.125 0.769531,-0.101562 0.25,-0.5625 L 0.734375,-1.125 c 0.445313,0.335938 0.941406,0.5 1.484375,0.5 0.34375,0 0.613281,-0.066406 0.8125,-0.203125 0.207031,-0.144531 0.3125,-0.34375 0.3125,-0.59375 0,-0.175781 -0.039062,-0.316406 -0.109375,-0.421875 C 3.160156,-1.957031 3.03125,-2.054688 2.84375,-2.140625 2.664062,-2.222656 2.40625,-2.3125 2.0625,-2.40625 1.5,-2.550781 1.09375,-2.742188 0.84375,-2.984375 c -0.242188,-0.25 -0.359375,-0.5625 -0.359375,-0.9375 0,-0.28125 0.078125,-0.53125 0.234375,-0.75 C 0.882812,-4.890625 1.109375,-5.0625 1.390625,-5.1875 1.679688,-5.3125 2.007812,-5.375 2.375,-5.375 Z m 0,0"
             id="id-ad3df8ef-c77f-4dc4-84a9-bdf8f0ba1fad" />
        </g>
        <g
           id="id-d0d8a3cc-dc13-4b90-ae63-1bbbb7fe727d">
          <path
             d="m 4.921875,-2.78125 c 0,0.15625 -0.011719,0.3125 -0.03125,0.46875 h -3.34375 c 0.039063,0.574219 0.1875,1 0.4375,1.28125 0.25,0.273438 0.570313,0.40625 0.96875,0.40625 0.257813,0 0.492187,-0.035156 0.703125,-0.109375 C 3.875,-0.804688 4.097656,-0.925781 4.328125,-1.09375 l 0.390625,0.5625 C 4.164062,-0.09375 3.554688,0.125 2.890625,0.125 2.160156,0.125 1.585938,-0.113281 1.171875,-0.59375 0.765625,-1.070312 0.5625,-1.734375 0.5625,-2.578125 c 0,-0.539063 0.085938,-1.019531 0.265625,-1.4375 0.175781,-0.425781 0.425781,-0.757813 0.75,-1 C 1.910156,-5.253906 2.300781,-5.375 2.75,-5.375 c 0.695312,0 1.234375,0.230469 1.609375,0.6875 0.375,0.460938 0.5625,1.09375 0.5625,1.90625 z M 4,-3.046875 c 0,-0.519531 -0.105469,-0.914063 -0.3125,-1.1875 -0.199219,-0.269531 -0.507812,-0.40625 -0.921875,-0.40625 -0.75,0 -1.15625,0.554687 -1.21875,1.65625 H 4 Z m 0,0"
             id="id-5e8d9ee0-c5e1-48f2-ab9f-36ecedc2dbf3" />
        </g>
      </g>
    </defs>
    <g
       fill="#000000"
       fill-opacity="1"
       id="id-9b37d573-3ce5-439b-aeca-0793760d5f0e"
       transform="translate(-149.478,-126.984)">
      <g
         transform="translate(148.712,134.765)"
         id="g106838">
        <path
           d="M 1.859375,-5.25 V 0 h -0.90625 v -5.25 z m -0.46875,-2.53125 c 0.195313,0 0.351563,0.0625 0.46875,0.1875 0.125,0.117188 0.1875,0.265625 0.1875,0.453125 0,0.179687 -0.0625,0.324219 -0.1875,0.4375 -0.117187,0.117187 -0.273437,0.171875 -0.46875,0.171875 -0.179687,0 -0.328125,-0.054688 -0.453125,-0.171875 -0.117188,-0.113281 -0.171875,-0.257813 -0.171875,-0.4375 0,-0.1875 0.054687,-0.335937 0.171875,-0.453125 0.125,-0.125 0.273438,-0.1875 0.453125,-0.1875 z m 0,0"
           id="id-f92ae40d-8b46-41de-aa43-98c8d39bb255" />
      </g>
      <g
         transform="translate(151.521,134.765)"
         id="g106841">
        <path
           d="m 6.21875,-5.375 c 0.4375,0 0.78125,0.148438 1.03125,0.4375 0.257812,0.292969 0.390625,0.683594 0.390625,1.171875 V 0 h -0.90625 v -3.640625 c 0,-0.675781 -0.25,-1.015625 -0.75,-1.015625 -0.25,0 -0.46875,0.078125 -0.65625,0.234375 -0.179687,0.148437 -0.371094,0.375 -0.578125,0.6875 V 0 H 3.84375 v -3.640625 c 0,-0.675781 -0.25,-1.015625 -0.75,-1.015625 -0.261719,0 -0.484375,0.078125 -0.671875,0.234375 -0.179687,0.148437 -0.367187,0.375 -0.5625,0.6875 V 0 h -0.90625 v -5.25 h 0.78125 L 1.8125,-4.484375 C 2.207031,-5.078125 2.710938,-5.375 3.328125,-5.375 c 0.320313,0 0.597656,0.085938 0.828125,0.25 0.226562,0.167969 0.394531,0.402344 0.5,0.703125 0.207031,-0.3125 0.4375,-0.546875 0.6875,-0.703125 0.25,-0.164062 0.539062,-0.25 0.875,-0.25 z m 0,0"
           id="id-68286908-cfde-40a9-b969-60a3cd100c03" />
      </g>
      <g
         transform="translate(160.059,134.765)"
         id="g106844">
        <path
           d="m 3.359375,-5.375 c 0.664063,0 1.15625,0.242188 1.46875,0.71875 0.3125,0.480469 0.46875,1.15625 0.46875,2.03125 0,0.824219 -0.179687,1.492188 -0.53125,2 -0.355469,0.5 -0.867187,0.75 -1.53125,0.75 -0.585937,0 -1.042969,-0.203125 -1.375,-0.609375 v 2.5 L 0.953125,2.125 V -5.25 h 0.78125 l 0.0625,0.703125 C 1.992188,-4.804688 2.226562,-5.007812 2.5,-5.15625 2.769531,-5.300781 3.054688,-5.375 3.359375,-5.375 Z m -0.34375,4.75 c 0.863281,0 1.296875,-0.664062 1.296875,-2 0,-1.34375 -0.398438,-2.015625 -1.1875,-2.015625 -0.261719,0 -0.496094,0.078125 -0.703125,0.234375 -0.210937,0.148438 -0.398437,0.339844 -0.5625,0.578125 v 2.5625 c 0.132813,0.210937 0.300781,0.371094 0.5,0.484375 0.195313,0.105469 0.414063,0.15625 0.65625,0.15625 z m 0,0"
           id="id-7c5b1ef8-7168-41e5-aa38-827655af80fd" />
      </g>
      <g
         transform="translate(165.977,134.765)"
         id="g106847">
        <path
           d="M 4.859375,0 H 4.0625 L 4,-0.8125 C 3.800781,-0.488281 3.570312,-0.25 3.3125,-0.09375 3.050781,0.0507812 2.734375,0.125 2.359375,0.125 1.898438,0.125 1.539062,-0.015625 1.28125,-0.296875 1.019531,-0.578125 0.890625,-0.972656 0.890625,-1.484375 V -5.25 H 1.8125 v 3.671875 c 0,0.355469 0.0625,0.609375 0.1875,0.765625 0.125,0.148438 0.332031,0.21875 0.625,0.21875 0.507812,0 0.945312,-0.300781 1.3125,-0.90625 v -3.75 h 0.921875 z m 0,0"
           id="id-9eb0f0e2-c442-4771-86c4-4edb88d3e6b9" />
      </g>
      <g
         transform="translate(171.775,134.765)"
         id="g106850">
        <path
           d="m 3.234375,-5.375 c 0.1875,0 0.359375,0.023438 0.515625,0.0625 L 3.578125,-4.421875 C 3.421875,-4.453125 3.269531,-4.46875 3.125,-4.46875 c -0.335938,0 -0.601562,0.121094 -0.796875,0.359375 C 2.128906,-3.878906 1.972656,-3.507812 1.859375,-3 v 3 h -0.90625 v -5.25 h 0.78125 l 0.09375,1.0625 C 1.960938,-4.582031 2.148438,-4.878906 2.390625,-5.078125 2.628906,-5.273438 2.910156,-5.375 3.234375,-5.375 Z m 0,0"
           id="id-e89e0dcd-838d-462b-ab96-026f9a40792a" />
      </g>
      <g
         transform="translate(175.621,134.765)"
         id="g106853">
        <path
           d="M 1.859375,-5.25 V 0 h -0.90625 v -5.25 z m -0.46875,-2.53125 c 0.195313,0 0.351563,0.0625 0.46875,0.1875 0.125,0.117188 0.1875,0.265625 0.1875,0.453125 0,0.179687 -0.0625,0.324219 -0.1875,0.4375 -0.117187,0.117187 -0.273437,0.171875 -0.46875,0.171875 -0.179687,0 -0.328125,-0.054688 -0.453125,-0.171875 -0.117188,-0.113281 -0.171875,-0.257813 -0.171875,-0.4375 0,-0.1875 0.054687,-0.335937 0.171875,-0.453125 0.125,-0.125 0.273438,-0.1875 0.453125,-0.1875 z m 0,0"
           id="id-77074176-e221-4e49-b8bb-43752f01f07c" />
      </g>
      <g
         transform="translate(178.43,134.765)"
         id="g106856">
        <path
           d="M 3.59375,-0.234375 C 3.25,0.00390625 2.859375,0.125 2.421875,0.125 1.972656,0.125 1.625,0 1.375,-0.25 1.125,-0.507812 1,-0.882812 1,-1.375 V -4.546875 H 0.09375 V -5.25 H 1 V -6.4375 L 1.921875,-6.546875 V -5.25 h 1.25 l -0.09375,0.703125 h -1.15625 v 3.125 c 0,0.28125 0.046875,0.484375 0.140625,0.609375 0.101562,0.117188 0.265625,0.171875 0.484375,0.171875 0.207031,0 0.441406,-0.066406 0.703125,-0.203125 z m 0,0"
           id="id-4fcf507f-76e3-4402-ba68-327389eb6e66" />
      </g>
    </g>
    <g
       fill="#000000"
       fill-opacity="1"
       id="id-9d1159b3-111c-402f-aa6f-e78abc6da79c"
       transform="translate(-149.478,-126.984)">
      <g
         transform="translate(181.987,134.765)"
         id="g106860">
        <path
           d="M 3.046875,0.03125 C 2.835938,0.644531 2.550781,1.128906 2.1875,1.484375 1.820312,1.835938 1.296875,2.050781 0.609375,2.125 L 0.515625,1.40625 c 0.34375,-0.0625 0.613281,-0.152344 0.8125,-0.265625 0.207031,-0.105469 0.375,-0.246094 0.5,-0.421875 C 1.953125,0.539062 2.066406,0.300781 2.171875,0 h -0.3125 L 0.09375,-5.25 h 0.984375 l 1.40625,4.578125 1.375,-4.578125 H 4.8125 Z m 0,0"
           id="id-69be37e1-9bc5-48e0-927a-1062863037db" />
      </g>
    </g>
    <g
       fill="#000000"
       fill-opacity="1"
       id="id-d5e7cd7e-0470-4ae9-a4f7-21ec2d04ea4d"
       transform="translate(-149.478,-126.984)">
      <g
         transform="translate(189.519,134.765)"
         id="g106864">
        <path
           d="m 2.375,-5.375 c 0.351562,0 0.671875,0.054688 0.953125,0.15625 0.289063,0.09375 0.566406,0.242188 0.828125,0.4375 L 3.765625,-4.203125 C 3.523438,-4.347656 3.296875,-4.457031 3.078125,-4.53125 2.867188,-4.601562 2.644531,-4.640625 2.40625,-4.640625 c -0.304688,0 -0.542969,0.0625 -0.71875,0.1875 -0.167969,0.117187 -0.25,0.28125 -0.25,0.5 0,0.210937 0.078125,0.375 0.234375,0.5 0.164063,0.117187 0.460937,0.230469 0.890625,0.34375 0.582031,0.148437 1.019531,0.34375 1.3125,0.59375 0.289062,0.25 0.4375,0.601563 0.4375,1.046875 0,0.511719 -0.203125,0.90625 -0.609375,1.1875 C 3.296875,-0.0078125 2.804688,0.125 2.234375,0.125 1.429688,0.125 0.769531,-0.101562 0.25,-0.5625 L 0.734375,-1.125 c 0.445313,0.335938 0.941406,0.5 1.484375,0.5 0.34375,0 0.613281,-0.066406 0.8125,-0.203125 0.207031,-0.144531 0.3125,-0.34375 0.3125,-0.59375 0,-0.175781 -0.039062,-0.316406 -0.109375,-0.421875 C 3.160156,-1.957031 3.03125,-2.054688 2.84375,-2.140625 2.664062,-2.222656 2.40625,-2.3125 2.0625,-2.40625 1.5,-2.550781 1.09375,-2.742188 0.84375,-2.984375 c -0.242188,-0.25 -0.359375,-0.5625 -0.359375,-0.9375 0,-0.28125 0.078125,-0.53125 0.234375,-0.75 C 0.882812,-4.890625 1.109375,-5.0625 1.390625,-5.1875 1.679688,-5.3125 2.007812,-5.375 2.375,-5.375 Z m 0,0"
           id="id-6108ebf7-eb39-4b30-98d5-8eadcabc9c3a" />
      </g>
      <g
         transform="translate(194.171,134.765)"
         id="g106867">
        <path
           d="M 1.859375,-5.25 V 0 h -0.90625 v -5.25 z m -0.46875,-2.53125 c 0.195313,0 0.351563,0.0625 0.46875,0.1875 0.125,0.117188 0.1875,0.265625 0.1875,0.453125 0,0.179687 -0.0625,0.324219 -0.1875,0.4375 -0.117187,0.117187 -0.273437,0.171875 -0.46875,0.171875 -0.179687,0 -0.328125,-0.054688 -0.453125,-0.171875 -0.117188,-0.113281 -0.171875,-0.257813 -0.171875,-0.4375 0,-0.1875 0.054687,-0.335937 0.171875,-0.453125 0.125,-0.125 0.273438,-0.1875 0.453125,-0.1875 z m 0,0"
           id="id-048c651a-d16b-480a-b3b9-5f4ac3677334" />
      </g>
      <g
         transform="translate(196.981,134.765)"
         id="g106870">
        <path
           d="M 3.59375,-0.234375 C 3.25,0.00390625 2.859375,0.125 2.421875,0.125 1.972656,0.125 1.625,0 1.375,-0.25 1.125,-0.507812 1,-0.882812 1,-1.375 V -4.546875 H 0.09375 V -5.25 H 1 V -6.4375 L 1.921875,-6.546875 V -5.25 h 1.25 l -0.09375,0.703125 h -1.15625 v 3.125 c 0,0.28125 0.046875,0.484375 0.140625,0.609375 0.101562,0.117188 0.265625,0.171875 0.484375,0.171875 0.207031,0 0.441406,-0.066406 0.703125,-0.203125 z m 0,0"
           id="id-cd980418-eb27-422e-80f8-8cc891dac802" />
      </g>
    </g>
    <g
       fill="#000000"
       fill-opacity="1"
       id="id-1442930c-e3e6-48f0-a6e1-70c9665266f4"
       transform="translate(-149.478,-126.984)">
      <g
         transform="translate(200.438,134.765)"
         id="g106874">
        <path
           d="m 4.921875,-2.78125 c 0,0.15625 -0.011719,0.3125 -0.03125,0.46875 h -3.34375 c 0.039063,0.574219 0.1875,1 0.4375,1.28125 0.25,0.273438 0.570313,0.40625 0.96875,0.40625 0.257813,0 0.492187,-0.035156 0.703125,-0.109375 C 3.875,-0.804688 4.097656,-0.925781 4.328125,-1.09375 l 0.390625,0.5625 C 4.164062,-0.09375 3.554688,0.125 2.890625,0.125 2.160156,0.125 1.585938,-0.113281 1.171875,-0.59375 0.765625,-1.070312 0.5625,-1.734375 0.5625,-2.578125 c 0,-0.539063 0.085938,-1.019531 0.265625,-1.4375 0.175781,-0.425781 0.425781,-0.757813 0.75,-1 C 1.910156,-5.253906 2.300781,-5.375 2.75,-5.375 c 0.695312,0 1.234375,0.230469 1.609375,0.6875 0.375,0.460938 0.5625,1.09375 0.5625,1.90625 z M 4,-3.046875 c 0,-0.519531 -0.105469,-0.914063 -0.3125,-1.1875 -0.199219,-0.269531 -0.507812,-0.40625 -0.921875,-0.40625 -0.75,0 -1.15625,0.554687 -1.21875,1.65625 H 4 Z m 0,0"
           id="id-31b04610-4243-4e00-b884-dcdd0d4f2f14" />
      </g>
    </g>
  </g>
  <g
     ns2:version="1.8.1"
     ns2:texconverter="xelatex"
     ns2:pdfconverter="inkscape"
     ns2:text="zeroth site"
     ns2:preamble="/home/kirito/.config/textext/beamer_preamble.tex"
     ns2:scale="3.0"
     ns2:alignment="middle center"
     ns2:stroke-to-path="0"
     ns2:inkscapeversion="1.2.1"
     transform="matrix(2.25,0,0,2.25,257.7812,132.66087)"
     ns2:jacobian_sqrt="2.25"
     id="g6785">
    <defs
       id="id-e65edf9e-5b67-45d4-96d5-069a60803cba">
      <g
         id="id-df5a653a-5253-4e1d-a5bb-76a2fa7fcd54">
        <g
           id="id-e01e86ea-facc-4495-a128-85dfb042f0e6">
          <path
             d="M 5.40625,-10.46875 V 3.484375 H 1.21875 V -10.46875 Z M 4.875,-9.953125 H 1.78125 V 2.96875 H 4.875 Z M 3.234375,-4.5 c 0.394531,0 0.675781,0.109375 0.84375,0.328125 0.175781,0.210937 0.265625,0.484375 0.265625,0.828125 0,0.34375 -0.078125,0.617188 -0.234375,0.8125 -0.148437,0.1875 -0.386719,0.308594 -0.71875,0.359375 v 0.453125 c 0,0.074219 -0.027344,0.132812 -0.078125,0.171875 -0.054688,0.042969 -0.109375,0.0625 -0.171875,0.0625 -0.0625,0 -0.121094,-0.019531 -0.171875,-0.0625 C 2.914062,-1.585938 2.890625,-1.644531 2.890625,-1.71875 V -2.5625 c 0.351563,-0.019531 0.59375,-0.082031 0.71875,-0.1875 0.125,-0.113281 0.1875,-0.304688 0.1875,-0.578125 0,-0.21875 -0.046875,-0.382813 -0.140625,-0.5 -0.085938,-0.125 -0.242188,-0.1875 -0.46875,-0.1875 -0.1875,0 -0.359375,0.039063 -0.515625,0.109375 -0.054687,0.023438 -0.09375,0.03125 -0.125,0.03125 -0.074219,0 -0.136719,-0.019531 -0.1875,-0.0625 -0.042969,-0.039062 -0.0625,-0.097656 -0.0625,-0.171875 0,-0.125 0.097656,-0.21875 0.296875,-0.28125 C 2.789062,-4.460938 3.003906,-4.5 3.234375,-4.5 Z m -0.09375,3.296875 c 0.101563,0 0.1875,0.039063 0.25,0.109375 0.0625,0.0625 0.09375,0.148438 0.09375,0.25 0,0.105469 -0.03125,0.195312 -0.09375,0.265625 -0.0625,0.0625 -0.148437,0.09375 -0.25,0.09375 -0.105469,0 -0.1875,-0.03125 -0.25,-0.09375 -0.0625,-0.070313 -0.09375,-0.160156 -0.09375,-0.265625 0,-0.101562 0.03125,-0.1875 0.09375,-0.25 0.0625,-0.070312 0.144531,-0.109375 0.25,-0.109375 z m 0,0"
             id="id-62660417-1685-41a1-aba6-2f99c46eb1cd" />
        </g>
        <g
           id="id-31ab77de-3942-4963-9453-f62af4134e49">
          <path
             d="m 4.03125,-5.25 v 0.6875 l -2.75,3.796875 H 4.0625 L 3.953125,0 H 0.25 v -0.6875 l 2.734375,-3.78125 h -2.5 V -5.25 Z m 0,0"
             id="id-b82b4715-60d7-4afa-83bc-404ab2c2d90f" />
        </g>
        <g
           id="id-0c99fe2a-f54e-44c5-97f7-0c3b4191fcf8">
          <path
             d="m 4.921875,-2.78125 c 0,0.15625 -0.011719,0.3125 -0.03125,0.46875 h -3.34375 c 0.039063,0.574219 0.1875,1 0.4375,1.28125 0.25,0.273438 0.570313,0.40625 0.96875,0.40625 0.257813,0 0.492187,-0.035156 0.703125,-0.109375 C 3.875,-0.804688 4.097656,-0.925781 4.328125,-1.09375 l 0.390625,0.5625 C 4.164062,-0.09375 3.554688,0.125 2.890625,0.125 2.160156,0.125 1.585938,-0.113281 1.171875,-0.59375 0.765625,-1.070312 0.5625,-1.734375 0.5625,-2.578125 c 0,-0.539063 0.085938,-1.019531 0.265625,-1.4375 0.175781,-0.425781 0.425781,-0.757813 0.75,-1 C 1.910156,-5.253906 2.300781,-5.375 2.75,-5.375 c 0.695312,0 1.234375,0.230469 1.609375,0.6875 0.375,0.460938 0.5625,1.09375 0.5625,1.90625 z M 4,-3.046875 c 0,-0.519531 -0.105469,-0.914063 -0.3125,-1.1875 -0.199219,-0.269531 -0.507812,-0.40625 -0.921875,-0.40625 -0.75,0 -1.15625,0.554687 -1.21875,1.65625 H 4 Z m 0,0"
             id="id-396616a4-74b1-458a-b680-7390709607aa" />
        </g>
        <g
           id="id-3533b7ad-a779-430d-a117-5040a6d15aca">
          <path
             d="m 3.234375,-5.375 c 0.1875,0 0.359375,0.023438 0.515625,0.0625 L 3.578125,-4.421875 C 3.421875,-4.453125 3.269531,-4.46875 3.125,-4.46875 c -0.335938,0 -0.601562,0.121094 -0.796875,0.359375 C 2.128906,-3.878906 1.972656,-3.507812 1.859375,-3 v 3 h -0.90625 v -5.25 h 0.78125 l 0.09375,1.0625 C 1.960938,-4.582031 2.148438,-4.878906 2.390625,-5.078125 2.628906,-5.273438 2.910156,-5.375 3.234375,-5.375 Z m 0,0"
             id="id-06ca1f73-2987-4aed-92b1-29e95681f48a" />
        </g>
        <g
           id="id-9275d9b6-38bf-47ad-b976-d77b9efe342b">
          <path
             d="m 2.921875,-5.375 c 0.738281,0 1.3125,0.25 1.71875,0.75 0.40625,0.492188 0.609375,1.15625 0.609375,2 0,0.542969 -0.09375,1.023438 -0.28125,1.4375 -0.1875,0.417969 -0.460938,0.742188 -0.8125,0.96875 C 3.8125,0.0078125 3.394531,0.125 2.90625,0.125 2.164062,0.125 1.585938,-0.117188 1.171875,-0.609375 0.765625,-1.109375 0.5625,-1.78125 0.5625,-2.625 c 0,-0.539062 0.09375,-1.019531 0.28125,-1.4375 0.1875,-0.414062 0.457031,-0.738281 0.8125,-0.96875 C 2.007812,-5.257812 2.429688,-5.375 2.921875,-5.375 Z m 0,0.734375 c -0.90625,0 -1.359375,0.671875 -1.359375,2.015625 0,1.335938 0.445312,2 1.34375,2 0.90625,0 1.359375,-0.664062 1.359375,-2 0,-1.34375 -0.449219,-2.015625 -1.34375,-2.015625 z m 0,0"
             id="id-7dab0559-79f5-4ca3-88cc-8dff4e2133f0" />
        </g>
        <g
           id="id-80686201-eb6f-429d-8da7-55ce64c0cd0f">
          <path
             d="M 3.59375,-0.234375 C 3.25,0.00390625 2.859375,0.125 2.421875,0.125 1.972656,0.125 1.625,0 1.375,-0.25 1.125,-0.507812 1,-0.882812 1,-1.375 V -4.546875 H 0.09375 V -5.25 H 1 V -6.4375 L 1.921875,-6.546875 V -5.25 h 1.25 l -0.09375,0.703125 h -1.15625 v 3.125 c 0,0.28125 0.046875,0.484375 0.140625,0.609375 0.101562,0.117188 0.265625,0.171875 0.484375,0.171875 0.207031,0 0.441406,-0.066406 0.703125,-0.203125 z m 0,0"
             id="id-a57a4a9e-aa55-45c6-8205-565b575af738" />
        </g>
        <g
           id="id-5e60b883-c61a-46c3-aad9-9c7feff51a03">
          <path
             d="m 3.421875,-5.375 c 0.476563,0 0.847656,0.148438 1.109375,0.4375 0.269531,0.28125 0.40625,0.671875 0.40625,1.171875 V 0 H 4.03125 v -3.640625 c 0,-0.375 -0.074219,-0.632813 -0.21875,-0.78125 -0.148438,-0.15625 -0.355469,-0.234375 -0.625,-0.234375 -0.273438,0 -0.515625,0.085938 -0.734375,0.25 -0.210937,0.15625 -0.40625,0.382812 -0.59375,0.671875 V 0 h -0.90625 v -7.359375 l 0.90625,-0.09375 v 2.921875 c 0.414063,-0.5625 0.9375,-0.84375 1.5625,-0.84375 z m 0,0"
             id="id-62c2d33f-07b6-49f0-b31d-98519605261a" />
        </g>
        <g
           id="id-f4978132-08af-4063-ba4a-df2a52cecb36">
          <path
             d="m 2.375,-5.375 c 0.351562,0 0.671875,0.054688 0.953125,0.15625 0.289063,0.09375 0.566406,0.242188 0.828125,0.4375 L 3.765625,-4.203125 C 3.523438,-4.347656 3.296875,-4.457031 3.078125,-4.53125 2.867188,-4.601562 2.644531,-4.640625 2.40625,-4.640625 c -0.304688,0 -0.542969,0.0625 -0.71875,0.1875 -0.167969,0.117187 -0.25,0.28125 -0.25,0.5 0,0.210937 0.078125,0.375 0.234375,0.5 0.164063,0.117187 0.460937,0.230469 0.890625,0.34375 0.582031,0.148437 1.019531,0.34375 1.3125,0.59375 0.289062,0.25 0.4375,0.601563 0.4375,1.046875 0,0.511719 -0.203125,0.90625 -0.609375,1.1875 C 3.296875,-0.0078125 2.804688,0.125 2.234375,0.125 1.429688,0.125 0.769531,-0.101562 0.25,-0.5625 L 0.734375,-1.125 c 0.445313,0.335938 0.941406,0.5 1.484375,0.5 0.34375,0 0.613281,-0.066406 0.8125,-0.203125 0.207031,-0.144531 0.3125,-0.34375 0.3125,-0.59375 0,-0.175781 -0.039062,-0.316406 -0.109375,-0.421875 C 3.160156,-1.957031 3.03125,-2.054688 2.84375,-2.140625 2.664062,-2.222656 2.40625,-2.3125 2.0625,-2.40625 1.5,-2.550781 1.09375,-2.742188 0.84375,-2.984375 c -0.242188,-0.25 -0.359375,-0.5625 -0.359375,-0.9375 0,-0.28125 0.078125,-0.53125 0.234375,-0.75 C 0.882812,-4.890625 1.109375,-5.0625 1.390625,-5.1875 1.679688,-5.3125 2.007812,-5.375 2.375,-5.375 Z m 0,0"
             id="id-809b11be-efcb-4f1f-a7cc-8468e538e8ef" />
        </g>
        <g
           id="id-fd58475c-91a1-49c0-adb0-445f2d92dd75">
          <path
             d="M 1.859375,-5.25 V 0 h -0.90625 v -5.25 z m -0.46875,-2.53125 c 0.195313,0 0.351563,0.0625 0.46875,0.1875 0.125,0.117188 0.1875,0.265625 0.1875,0.453125 0,0.179687 -0.0625,0.324219 -0.1875,0.4375 -0.117187,0.117187 -0.273437,0.171875 -0.46875,0.171875 -0.179687,0 -0.328125,-0.054688 -0.453125,-0.171875 -0.117188,-0.113281 -0.171875,-0.257813 -0.171875,-0.4375 0,-0.1875 0.054687,-0.335937 0.171875,-0.453125 0.125,-0.125 0.273438,-0.1875 0.453125,-0.1875 z m 0,0"
             id="id-1cde301b-8700-47c9-9e5e-5c6d5cd7d812" />
        </g>
      </g>
    </defs>
    <g
       fill="#000000"
       fill-opacity="1"
       id="id-48038853-a7dc-42bf-8a8b-d561c783b55f"
       transform="translate(-148.962,-126.984)">
      <g
         transform="translate(148.712,134.765)"
         id="g108556">
        <path
           d="m 4.03125,-5.25 v 0.6875 l -2.75,3.796875 H 4.0625 L 3.953125,0 H 0.25 v -0.6875 l 2.734375,-3.78125 h -2.5 V -5.25 Z m 0,0"
           id="id-e706774c-ab07-4960-b95b-88076767e535" />
      </g>
    </g>
    <g
       fill="#000000"
       fill-opacity="1"
       id="id-a81aa680-fee4-47fb-af64-80334a4f9b9d"
       transform="translate(-148.962,-126.984)">
      <g
         transform="translate(153.006,134.765)"
         id="g108560">
        <path
           d="m 4.921875,-2.78125 c 0,0.15625 -0.011719,0.3125 -0.03125,0.46875 h -3.34375 c 0.039063,0.574219 0.1875,1 0.4375,1.28125 0.25,0.273438 0.570313,0.40625 0.96875,0.40625 0.257813,0 0.492187,-0.035156 0.703125,-0.109375 C 3.875,-0.804688 4.097656,-0.925781 4.328125,-1.09375 l 0.390625,0.5625 C 4.164062,-0.09375 3.554688,0.125 2.890625,0.125 2.160156,0.125 1.585938,-0.113281 1.171875,-0.59375 0.765625,-1.070312 0.5625,-1.734375 0.5625,-2.578125 c 0,-0.539063 0.085938,-1.019531 0.265625,-1.4375 0.175781,-0.425781 0.425781,-0.757813 0.75,-1 C 1.910156,-5.253906 2.300781,-5.375 2.75,-5.375 c 0.695312,0 1.234375,0.230469 1.609375,0.6875 0.375,0.460938 0.5625,1.09375 0.5625,1.90625 z M 4,-3.046875 c 0,-0.519531 -0.105469,-0.914063 -0.3125,-1.1875 -0.199219,-0.269531 -0.507812,-0.40625 -0.921875,-0.40625 -0.75,0 -1.15625,0.554687 -1.21875,1.65625 H 4 Z m 0,0"
           id="id-fabb4827-fd31-4a52-916b-15a30dd15035" />
      </g>
      <g
         transform="translate(158.435,134.765)"
         id="g108563">
        <path
           d="m 3.234375,-5.375 c 0.1875,0 0.359375,0.023438 0.515625,0.0625 L 3.578125,-4.421875 C 3.421875,-4.453125 3.269531,-4.46875 3.125,-4.46875 c -0.335938,0 -0.601562,0.121094 -0.796875,0.359375 C 2.128906,-3.878906 1.972656,-3.507812 1.859375,-3 v 3 h -0.90625 v -5.25 h 0.78125 l 0.09375,1.0625 C 1.960938,-4.582031 2.148438,-4.878906 2.390625,-5.078125 2.628906,-5.273438 2.910156,-5.375 3.234375,-5.375 Z m 0,0"
           id="id-6f7c57f7-4174-4eaf-bf4a-cfdbda85ac85" />
      </g>
    </g>
    <g
       fill="#000000"
       fill-opacity="1"
       id="id-051842d8-c53c-4fb1-a425-7655377383b0"
       transform="translate(-148.962,-126.984)">
      <g
         transform="translate(161.982,134.765)"
         id="g108567">
        <path
           d="m 2.921875,-5.375 c 0.738281,0 1.3125,0.25 1.71875,0.75 0.40625,0.492188 0.609375,1.15625 0.609375,2 0,0.542969 -0.09375,1.023438 -0.28125,1.4375 -0.1875,0.417969 -0.460938,0.742188 -0.8125,0.96875 C 3.8125,0.0078125 3.394531,0.125 2.90625,0.125 2.164062,0.125 1.585938,-0.117188 1.171875,-0.609375 0.765625,-1.109375 0.5625,-1.78125 0.5625,-2.625 c 0,-0.539062 0.09375,-1.019531 0.28125,-1.4375 0.1875,-0.414062 0.457031,-0.738281 0.8125,-0.96875 C 2.007812,-5.257812 2.429688,-5.375 2.921875,-5.375 Z m 0,0.734375 c -0.90625,0 -1.359375,0.671875 -1.359375,2.015625 0,1.335938 0.445312,2 1.34375,2 0.90625,0 1.359375,-0.664062 1.359375,-2 0,-1.34375 -0.449219,-2.015625 -1.34375,-2.015625 z m 0,0"
           id="id-8c3d2227-6b61-4544-aa12-088461c43068" />
      </g>
      <g
         transform="translate(167.8,134.765)"
         id="g108570">
        <path
           d="M 3.59375,-0.234375 C 3.25,0.00390625 2.859375,0.125 2.421875,0.125 1.972656,0.125 1.625,0 1.375,-0.25 1.125,-0.507812 1,-0.882812 1,-1.375 V -4.546875 H 0.09375 V -5.25 H 1 V -6.4375 L 1.921875,-6.546875 V -5.25 h 1.25 l -0.09375,0.703125 h -1.15625 v 3.125 c 0,0.28125 0.046875,0.484375 0.140625,0.609375 0.101562,0.117188 0.265625,0.171875 0.484375,0.171875 0.207031,0 0.441406,-0.066406 0.703125,-0.203125 z m 0,0"
           id="id-1b0ec8e9-5cbb-4d58-b522-37857230b8ed" />
      </g>
      <g
         transform="translate(171.397,134.765)"
         id="g108573">
        <path
           d="m 3.421875,-5.375 c 0.476563,0 0.847656,0.148438 1.109375,0.4375 0.269531,0.28125 0.40625,0.671875 0.40625,1.171875 V 0 H 4.03125 v -3.640625 c 0,-0.375 -0.074219,-0.632813 -0.21875,-0.78125 -0.148438,-0.15625 -0.355469,-0.234375 -0.625,-0.234375 -0.273438,0 -0.515625,0.085938 -0.734375,0.25 -0.210937,0.15625 -0.40625,0.382812 -0.59375,0.671875 V 0 h -0.90625 v -7.359375 l 0.90625,-0.09375 v 2.921875 c 0.414063,-0.5625 0.9375,-0.84375 1.5625,-0.84375 z m 0,0"
           id="id-0c9b65b7-7b55-4a1a-b431-d02ee4353a0a" />
      </g>
    </g>
    <g
       fill="#000000"
       fill-opacity="1"
       id="id-5704eb20-d5dd-4373-b4ae-d835afb8c473"
       transform="translate(-148.962,-126.984)">
      <g
         transform="translate(179.865,134.765)"
         id="g108577">
        <path
           d="m 2.375,-5.375 c 0.351562,0 0.671875,0.054688 0.953125,0.15625 0.289063,0.09375 0.566406,0.242188 0.828125,0.4375 L 3.765625,-4.203125 C 3.523438,-4.347656 3.296875,-4.457031 3.078125,-4.53125 2.867188,-4.601562 2.644531,-4.640625 2.40625,-4.640625 c -0.304688,0 -0.542969,0.0625 -0.71875,0.1875 -0.167969,0.117187 -0.25,0.28125 -0.25,0.5 0,0.210937 0.078125,0.375 0.234375,0.5 0.164063,0.117187 0.460937,0.230469 0.890625,0.34375 0.582031,0.148437 1.019531,0.34375 1.3125,0.59375 0.289062,0.25 0.4375,0.601563 0.4375,1.046875 0,0.511719 -0.203125,0.90625 -0.609375,1.1875 C 3.296875,-0.0078125 2.804688,0.125 2.234375,0.125 1.429688,0.125 0.769531,-0.101562 0.25,-0.5625 L 0.734375,-1.125 c 0.445313,0.335938 0.941406,0.5 1.484375,0.5 0.34375,0 0.613281,-0.066406 0.8125,-0.203125 0.207031,-0.144531 0.3125,-0.34375 0.3125,-0.59375 0,-0.175781 -0.039062,-0.316406 -0.109375,-0.421875 C 3.160156,-1.957031 3.03125,-2.054688 2.84375,-2.140625 2.664062,-2.222656 2.40625,-2.3125 2.0625,-2.40625 1.5,-2.550781 1.09375,-2.742188 0.84375,-2.984375 c -0.242188,-0.25 -0.359375,-0.5625 -0.359375,-0.9375 0,-0.28125 0.078125,-0.53125 0.234375,-0.75 C 0.882812,-4.890625 1.109375,-5.0625 1.390625,-5.1875 1.679688,-5.3125 2.007812,-5.375 2.375,-5.375 Z m 0,0"
           id="id-44fc58ce-9a95-4b49-a740-6a4675df9aa7" />
      </g>
      <g
         transform="translate(184.518,134.765)"
         id="g108580">
        <path
           d="M 1.859375,-5.25 V 0 h -0.90625 v -5.25 z m -0.46875,-2.53125 c 0.195313,0 0.351563,0.0625 0.46875,0.1875 0.125,0.117188 0.1875,0.265625 0.1875,0.453125 0,0.179687 -0.0625,0.324219 -0.1875,0.4375 -0.117187,0.117187 -0.273437,0.171875 -0.46875,0.171875 -0.179687,0 -0.328125,-0.054688 -0.453125,-0.171875 -0.117188,-0.113281 -0.171875,-0.257813 -0.171875,-0.4375 0,-0.1875 0.054687,-0.335937 0.171875,-0.453125 0.125,-0.125 0.273438,-0.1875 0.453125,-0.1875 z m 0,0"
           id="id-94c7fa8a-7011-4221-b453-ae233854f54a" />
      </g>
      <g
         transform="translate(187.327,134.765)"
         id="g108583">
        <path
           d="M 3.59375,-0.234375 C 3.25,0.00390625 2.859375,0.125 2.421875,0.125 1.972656,0.125 1.625,0 1.375,-0.25 1.125,-0.507812 1,-0.882812 1,-1.375 V -4.546875 H 0.09375 V -5.25 H 1 V -6.4375 L 1.921875,-6.546875 V -5.25 h 1.25 l -0.09375,0.703125 h -1.15625 v 3.125 c 0,0.28125 0.046875,0.484375 0.140625,0.609375 0.101562,0.117188 0.265625,0.171875 0.484375,0.171875 0.207031,0 0.441406,-0.066406 0.703125,-0.203125 z m 0,0"
           id="id-f50c24ad-1396-4116-b8b2-635921d71206" />
      </g>
    </g>
    <g
       fill="#000000"
       fill-opacity="1"
       id="id-52fd3900-d88b-4174-ba6f-c3e6be3a8229"
       transform="translate(-148.962,-126.984)">
      <g
         transform="translate(190.784,134.765)"
         id="g108587">
        <path
           d="m 4.921875,-2.78125 c 0,0.15625 -0.011719,0.3125 -0.03125,0.46875 h -3.34375 c 0.039063,0.574219 0.1875,1 0.4375,1.28125 0.25,0.273438 0.570313,0.40625 0.96875,0.40625 0.257813,0 0.492187,-0.035156 0.703125,-0.109375 C 3.875,-0.804688 4.097656,-0.925781 4.328125,-1.09375 l 0.390625,0.5625 C 4.164062,-0.09375 3.554688,0.125 2.890625,0.125 2.160156,0.125 1.585938,-0.113281 1.171875,-0.59375 0.765625,-1.070312 0.5625,-1.734375 0.5625,-2.578125 c 0,-0.539063 0.085938,-1.019531 0.265625,-1.4375 0.175781,-0.425781 0.425781,-0.757813 0.75,-1 C 1.910156,-5.253906 2.300781,-5.375 2.75,-5.375 c 0.695312,0 1.234375,0.230469 1.609375,0.6875 0.375,0.460938 0.5625,1.09375 0.5625,1.90625 z M 4,-3.046875 c 0,-0.519531 -0.105469,-0.914063 -0.3125,-1.1875 -0.199219,-0.269531 -0.507812,-0.40625 -0.921875,-0.40625 -0.75,0 -1.15625,0.554687 -1.21875,1.65625 H 4 Z m 0,0"
           id="id-d98c9490-d3cb-4bbd-ad94-c3ae4533568d" />
      </g>
    </g>
  </g>
  <g
     ns2:version="1.8.2"
     ns2:texconverter="xelatex"
     ns2:pdfconverter="inkscape"
     ns2:text="$V c^\\dagger_d c_0 + \\text{h.c.}$"
     ns2:preamble="/home/kirito/.config/textext/beamer_preamble.tex"
     ns2:scale="3.0"
     ns2:alignment="middle center"
     ns2:stroke-to-path="0"
     ns2:inkscapeversion="1.2.1"
     transform="matrix(3,0,0,3,106.859,-7.5e-4)"
     ns2:jacobian_sqrt="3.0"
     id="g33225">
    <defs
       id="id-0565cb5e-acc0-4a77-9814-19699f35bca6">
      <g
         id="id-c1446168-962b-46c9-b863-26dfcb1592d7">
        <g
           id="id-8032d6dd-701b-4f68-953a-e1cbb07135da">
          <path
             d="m 5.4375,-6.4375 v 5.890625 H 1.34375 V -6.4375 Z m 0.546875,-0.546875 h -5.1875 V 0 h 5.1875 z m -2.75,4.953125 c -0.21875,0 -0.40625,0.1875 -0.40625,0.421875 0,0.21875 0.1875,0.40625 0.40625,0.40625 0.25,0 0.421875,-0.1875 0.421875,-0.40625 0,-0.234375 -0.171875,-0.421875 -0.421875,-0.421875 z M 3.4375,-5.453125 c -0.5,0 -0.90625,0.1875 -1.25,0.59375 l 0.390625,0.28125 C 2.828125,-4.875 3.09375,-5 3.40625,-5 3.765625,-5 4,-4.8125 4,-4.484375 4,-3.84375 2.953125,-3.953125 2.953125,-2.9375 v 0.296875 H 3.5 V -2.90625 c 0,-0.796875 1.078125,-0.65625 1.078125,-1.625 0,-0.46875 -0.375,-0.921875 -1.140625,-0.921875 z m 0,0"
             id="id-5d992d21-8715-443e-ae4e-03c525c975eb" />
        </g>
        <g
           id="id-817aa7a7-eab3-4b99-9aae-bbcd22d60041">
          <path
             d="M 6.015625,-6.875 H 5.046875 L 2.5,-1.03125 1.625,-6.875 H 0.640625 L 1.875,0 h 1 z m 0,0"
             id="id-3dbe44fa-53d5-4d4c-b7fe-d076ff74bc5d" />
        </g>
        <g
           id="id-3a76ebdb-8f72-47a2-abab-b7d0e695e4e0">
          <path
             d="m 3.1875,-5.375 c -1.953125,0 -2.671875,1.96875 -2.671875,3.34375 0,1.359375 0.71875,2.15625 1.96875,2.15625 0.578125,0 1.125,-0.1875 1.640625,-0.546875 L 3.765625,-1.0625 C 3.34375,-0.8125 3,-0.65625 2.546875,-0.65625 c -0.671875,0 -1.078125,-0.375 -1.078125,-1.296875 0,-1.09375 0.390625,-2.65625 1.71875,-2.65625 0.40625,0 0.703125,0.109375 1.03125,0.375 l 0.484375,-0.5625 C 4.28125,-5.203125 3.765625,-5.375 3.1875,-5.375 Z m 0,0"
             id="id-5d99caee-91b1-4a10-a982-10b87d514821" />
        </g>
        <g
           id="id-2bcfff52-c78e-42e1-83b4-35a5264b4562">
          <path
             d="M 2.90625,-4.671875 H 2.078125 v 1.5 H 0.625 v 0.765625 h 1.453125 v 1.484375 H 2.90625 V -2.40625 H 4.359375 V -3.171875 H 2.90625 Z m 0,0"
             id="id-980c3a2c-c4d7-43aa-979b-8c9aa5d71b84" />
        </g>
        <g
           id="id-2340632d-b492-475a-8ea5-ac488a1ae601">
          <path
             d="m 3.90625,-4.625 v 4.234375 H 0.96875 V -4.625 Z M 4.296875,-5.015625 H 0.578125 V 0 h 3.71875 z m -1.96875,3.5625 c -0.15625,0 -0.296875,0.125 -0.296875,0.296875 0,0.15625 0.140625,0.296875 0.296875,0.296875 C 2.5,-0.859375 2.625,-1 2.625,-1.15625 2.625,-1.328125 2.5,-1.453125 2.328125,-1.453125 Z m 0.140625,-2.46875 c -0.359375,0 -0.640625,0.140625 -0.890625,0.421875 L 1.84375,-3.296875 C 2.03125,-3.5 2.234375,-3.59375 2.453125,-3.59375 c 0.265625,0 0.4375,0.125 0.4375,0.359375 0,0.46875 -0.765625,0.390625 -0.765625,1.125 v 0.203125 h 0.390625 v -0.1875 c 0,-0.5625 0.78125,-0.46875 0.78125,-1.15625 0,-0.34375 -0.28125,-0.671875 -0.828125,-0.671875 z m 0,0"
             id="id-a579e267-6862-46a9-8db8-381a0937ca01" />
        </g>
        <g
           id="id-43b47efd-e469-49ef-b35b-96027886826c">
          <path
             d="m 2.140625,-4.34375 h -0.625 v 1.0625 h -1.21875 v 0.546875 h 1.21875 v 3.1875 h 0.625 v -3.1875 h 1.21875 V -3.28125 h -1.21875 z m 0,0"
             id="id-addd53a9-c727-413a-b031-c0401f34e227" />
        </g>
        <g
           id="id-4bced964-6979-40f7-85b9-841979d87aad">
          <path
             d="m 2.25,-3.34375 c 0.34375,0 0.578125,0.171875 0.78125,0.453125 L 2.796875,-1.3125 c -0.328125,0.53125 -0.640625,0.875 -1.109375,0.875 -0.390625,0 -0.625,-0.28125 -0.625,-0.921875 0,-0.75 0.265625,-1.984375 1.1875,-1.984375 z m 1.125,-2.015625 -0.28125,1.96875 C 2.890625,-3.65625 2.5625,-3.859375 2.125,-3.859375 c -1.296875,0 -1.765625,1.46875 -1.765625,2.453125 0,0.90625 0.421875,1.5 1.203125,1.5 0.484375,0 0.875,-0.28125 1.140625,-0.71875 V 0 h 0.5625 l 0.75,-5.296875 z m 0,0"
             id="id-eb28e733-f89a-481b-b1e9-3290656bdd76" />
        </g>
        <g
           id="id-1356be72-d52c-43b1-8b48-21786b975dcd">
          <path
             d="m 2.015625,-4.5 c 0.59375,0 0.90625,0.546875 0.90625,2.03125 0,1.484375 -0.3125,2.03125 -0.90625,2.03125 -0.609375,0 -0.921875,-0.546875 -0.921875,-2.03125 0,-1.484375 0.3125,-2.03125 0.921875,-2.03125 z m 0,-0.53125 c -1.078125,0 -1.609375,0.890625 -1.609375,2.5625 0,1.671875 0.53125,2.5625 1.609375,2.5625 1.0625,0 1.59375,-0.890625 1.59375,-2.5625 0,-1.671875 -0.53125,-2.5625 -1.59375,-2.5625 z m 0,0"
             id="id-9d72ca69-545d-483a-b0f9-734637ac9cba" />
        </g>
        <g
           id="id-aa3be4ca-1d7c-4080-9509-f3be62e4df40">
          <path
             d="M 5.40625,3.484375 H 1.21875 V -10.46875 h 4.1875 z m -3.625,-13.4375 V 2.96875 H 4.875 V -9.953125 Z M 3.234375,-4.5 c 0.394531,0 0.675781,0.109375 0.84375,0.328125 0.175781,0.210937 0.265625,0.484375 0.265625,0.828125 0,0.34375 -0.078125,0.617188 -0.234375,0.8125 -0.148437,0.1875 -0.386719,0.308594 -0.71875,0.359375 v 0.453125 c 0,0.074219 -0.027344,0.132812 -0.078125,0.171875 -0.054688,0.042969 -0.109375,0.0625 -0.171875,0.0625 -0.0625,0 -0.121094,-0.019531 -0.171875,-0.0625 C 2.914062,-1.585938 2.890625,-1.644531 2.890625,-1.71875 V -2.5625 c 0.351563,-0.019531 0.59375,-0.082031 0.71875,-0.1875 0.125,-0.113281 0.1875,-0.304688 0.1875,-0.578125 0,-0.21875 -0.046875,-0.382813 -0.140625,-0.5 -0.085938,-0.125 -0.242188,-0.1875 -0.46875,-0.1875 -0.1875,0 -0.359375,0.039063 -0.515625,0.109375 -0.054687,0.023438 -0.09375,0.03125 -0.125,0.03125 -0.074219,0 -0.136719,-0.019531 -0.1875,-0.0625 -0.042969,-0.039062 -0.0625,-0.097656 -0.0625,-0.171875 0,-0.125 0.097656,-0.21875 0.296875,-0.28125 C 2.789062,-4.460938 3.003906,-4.5 3.234375,-4.5 Z m -0.09375,3.296875 c 0.101563,0 0.1875,0.039063 0.25,0.109375 0.0625,0.0625 0.09375,0.148438 0.09375,0.25 0,0.105469 -0.03125,0.195312 -0.09375,0.265625 -0.0625,0.0625 -0.148437,0.09375 -0.25,0.09375 -0.105469,0 -0.1875,-0.03125 -0.25,-0.09375 -0.0625,-0.070313 -0.09375,-0.160156 -0.09375,-0.265625 0,-0.101562 0.03125,-0.1875 0.09375,-0.25 0.0625,-0.070312 0.144531,-0.109375 0.25,-0.109375 z m 0,0"
             id="id-3f8d0760-1016-437b-9619-fabee21325e8" />
        </g>
        <g
           id="id-fed83436-3c11-4792-ae22-a2419dea5e30">
          <path
             d="m 3.390625,-5.375 c 0.476563,0 0.851563,0.148438 1.125,0.4375 0.269531,0.28125 0.40625,0.671875 0.40625,1.171875 V 0 H 4 v -3.640625 c 0,-0.375 -0.074219,-0.632813 -0.21875,-0.78125 -0.148438,-0.15625 -0.355469,-0.234375 -0.625,-0.234375 -0.273438,0 -0.515625,0.085938 -0.734375,0.25 -0.210937,0.15625 -0.40625,0.382812 -0.59375,0.671875 V 0 h -0.90625 v -7.359375 l 0.90625,-0.09375 v 2.921875 c 0.414063,-0.5625 0.9375,-0.84375 1.5625,-0.84375 z m 0,0"
             id="id-ea9f50fb-44c1-485b-954e-88cd5afc5a8a" />
        </g>
        <g
           id="id-319efe97-d412-4832-be7b-5d5c38088494">
          <path
             d="m 1.1875,-1.265625 c 0.195312,0 0.363281,0.070313 0.5,0.203125 0.132812,0.125 0.203125,0.289062 0.203125,0.484375 0,0.1875 -0.070313,0.355469 -0.203125,0.5 C 1.550781,0.0546875 1.382812,0.125 1.1875,0.125 c -0.199219,0 -0.367188,-0.0703125 -0.5,-0.203125 -0.125,-0.144531 -0.1875,-0.3125 -0.1875,-0.5 0,-0.195313 0.0625,-0.359375 0.1875,-0.484375 0.132812,-0.132812 0.300781,-0.203125 0.5,-0.203125 z m 0,0"
             id="id-c8d2d7e3-4473-4eba-b2d0-5a31c1b71134" />
        </g>
        <g
           id="id-120eedc1-d666-49e2-a7ba-1a86874aba5d">
          <path
             d="m 2.859375,-5.375 c 0.3125,0 0.597656,0.046875 0.859375,0.140625 0.257812,0.085937 0.507812,0.226563 0.75,0.421875 l -0.4375,0.578125 c -0.1875,-0.125 -0.371094,-0.21875 -0.546875,-0.28125 -0.179687,-0.0625 -0.371094,-0.09375 -0.578125,-0.09375 -0.429688,0 -0.761719,0.171875 -1,0.515625 -0.230469,0.335938 -0.34375,0.828125 -0.34375,1.484375 0,0.667969 0.113281,1.164063 0.34375,1.484375 0.226562,0.3125 0.5625,0.46875 1,0.46875 0.195312,0 0.382812,-0.03125 0.5625,-0.09375 0.175781,-0.0625 0.367188,-0.164062 0.578125,-0.3125 L 4.46875,-0.453125 C 3.988281,-0.0664062 3.453125,0.125 2.859375,0.125 2.148438,0.125 1.585938,-0.113281 1.171875,-0.59375 0.765625,-1.070312 0.5625,-1.734375 0.5625,-2.578125 c 0,-0.5625 0.09375,-1.050781 0.28125,-1.46875 0.1875,-0.414063 0.453125,-0.738281 0.796875,-0.96875 0.34375,-0.238281 0.75,-0.359375 1.21875,-0.359375 z m 0,0"
             id="id-e6091b13-cdac-4a71-9dce-83a8b9d18a7c" />
        </g>
      </g>
    </defs>
    <g
       fill="#000000"
       fill-opacity="1"
       id="id-4bc873e4-f0b1-4518-853c-a8482ac9a405"
       transform="translate(-149.353,-124.798)">
      <g
         transform="translate(148.712,134.851)"
         id="g8658">
        <path
           d="M 6.015625,-6.875 H 5.046875 L 2.5,-1.03125 1.625,-6.875 H 0.640625 L 1.875,0 h 1 z m 0,0"
           id="id-ecea8097-c22a-4d2f-b3d3-5be2cf02a243" />
      </g>
    </g>
    <g
       fill="#000000"
       fill-opacity="1"
       id="id-ace91cf7-b055-4acc-9548-ee7d11cbd605"
       transform="translate(-149.353,-124.798)">
      <g
         transform="translate(155.188,134.851)"
         id="g8662">
        <path
           d="m 3.1875,-5.375 c -1.953125,0 -2.671875,1.96875 -2.671875,3.34375 0,1.359375 0.71875,2.15625 1.96875,2.15625 0.578125,0 1.125,-0.1875 1.640625,-0.546875 L 3.765625,-1.0625 C 3.34375,-0.8125 3,-0.65625 2.546875,-0.65625 c -0.671875,0 -1.078125,-0.375 -1.078125,-1.296875 0,-1.09375 0.390625,-2.65625 1.71875,-2.65625 0.40625,0 0.703125,0.109375 1.03125,0.375 l 0.484375,-0.5625 C 4.28125,-5.203125 3.765625,-5.375 3.1875,-5.375 Z m 0,0"
           id="id-83deb354-3dd6-4bfa-b4d3-7b4c35b66e3f" />
      </g>
    </g>
    <g
       fill="#000000"
       fill-opacity="1"
       id="id-40c40c13-3004-49bc-86af-d34c72240564"
       transform="translate(-149.353,-124.798)">
      <g
         transform="translate(160.189,129.142)"
         id="g8666">
        <path
           d="m 2.140625,-4.34375 h -0.625 v 1.0625 h -1.21875 v 0.546875 h 1.21875 v 3.1875 h 0.625 v -3.1875 h 1.21875 V -3.28125 h -1.21875 z m 0,0"
           id="id-329a4df1-35f1-46f2-a123-e8a1c74ef2d4" />
      </g>
    </g>
    <g
       fill="#000000"
       fill-opacity="1"
       id="id-3b4899a4-21f0-4673-afb8-8be15fdb5ad8"
       transform="translate(-149.353,-124.798)">
      <g
         transform="translate(159.89,136.959)"
         id="g8670">
        <path
           d="m 2.25,-3.34375 c 0.34375,0 0.578125,0.171875 0.78125,0.453125 L 2.796875,-1.3125 c -0.328125,0.53125 -0.640625,0.875 -1.109375,0.875 -0.390625,0 -0.625,-0.28125 -0.625,-0.921875 0,-0.75 0.265625,-1.984375 1.1875,-1.984375 z m 1.125,-2.015625 -0.28125,1.96875 C 2.890625,-3.65625 2.5625,-3.859375 2.125,-3.859375 c -1.296875,0 -1.765625,1.46875 -1.765625,2.453125 0,0.90625 0.421875,1.5 1.203125,1.5 0.484375,0 0.875,-0.28125 1.140625,-0.71875 V 0 h 0.5625 l 0.75,-5.296875 z m 0,0"
           id="id-e185bca9-4be4-4ea1-8a61-d2669c74cf80" />
      </g>
    </g>
    <g
       fill="#000000"
       fill-opacity="1"
       id="id-34f6669e-26ad-4874-9d78-4a92bf62ce2a"
       transform="translate(-149.353,-124.798)">
      <g
         transform="translate(164.958,134.851)"
         id="g8674">
        <path
           d="m 3.1875,-5.375 c -1.953125,0 -2.671875,1.96875 -2.671875,3.34375 0,1.359375 0.71875,2.15625 1.96875,2.15625 0.578125,0 1.125,-0.1875 1.640625,-0.546875 L 3.765625,-1.0625 C 3.34375,-0.8125 3,-0.65625 2.546875,-0.65625 c -0.671875,0 -1.078125,-0.375 -1.078125,-1.296875 0,-1.09375 0.390625,-2.65625 1.71875,-2.65625 0.40625,0 0.703125,0.109375 1.03125,0.375 l 0.484375,-0.5625 C 4.28125,-5.203125 3.765625,-5.375 3.1875,-5.375 Z m 0,0"
           id="id-5ef15ccc-e8c4-4f19-9aee-c3ee296d6a75" />
      </g>
    </g>
    <g
       fill="#000000"
       fill-opacity="1"
       id="id-13f1164b-6560-4069-badc-ba2530dc6517"
       transform="translate(-149.353,-124.798)">
      <g
         transform="translate(169.66,138.338)"
         id="g8678">
        <path
           d="m 2.015625,-4.5 c 0.59375,0 0.90625,0.546875 0.90625,2.03125 0,1.484375 -0.3125,2.03125 -0.90625,2.03125 -0.609375,0 -0.921875,-0.546875 -0.921875,-2.03125 0,-1.484375 0.3125,-2.03125 0.921875,-2.03125 z m 0,-0.53125 c -1.078125,0 -1.609375,0.890625 -1.609375,2.5625 0,1.671875 0.53125,2.5625 1.609375,2.5625 1.0625,0 1.59375,-0.890625 1.59375,-2.5625 0,-1.671875 -0.53125,-2.5625 -1.59375,-2.5625 z m 0,0"
           id="id-de6af7b9-11b9-493d-b3d1-a030f470466e" />
      </g>
    </g>
    <g
       fill="#000000"
       fill-opacity="1"
       id="id-18004a61-32d4-4562-b4fc-537c8923bb30"
       transform="translate(-149.353,-124.798)">
      <g
         transform="translate(176.389,134.851)"
         id="g8682">
        <path
           d="M 2.90625,-4.671875 H 2.078125 v 1.5 H 0.625 v 0.765625 h 1.453125 v 1.484375 H 2.90625 V -2.40625 H 4.359375 V -3.171875 H 2.90625 Z m 0,0"
           id="id-82fb0721-1272-40a9-af8d-1bdfa7f9bac2" />
      </g>
    </g>
    <g
       fill="#000000"
       fill-opacity="1"
       id="id-995482a5-acec-4e60-a8bd-b0564558ca66"
       transform="translate(-149.353,-124.798)">
      <g
         transform="translate(183.585,134.851)"
         id="g8686">
        <path
           d="m 3.390625,-5.375 c 0.476563,0 0.851563,0.148438 1.125,0.4375 0.269531,0.28125 0.40625,0.671875 0.40625,1.171875 V 0 H 4 v -3.640625 c 0,-0.375 -0.074219,-0.632813 -0.21875,-0.78125 -0.148438,-0.15625 -0.355469,-0.234375 -0.625,-0.234375 -0.273438,0 -0.515625,0.085938 -0.734375,0.25 -0.210937,0.15625 -0.40625,0.382812 -0.59375,0.671875 V 0 h -0.90625 v -7.359375 l 0.90625,-0.09375 v 2.921875 c 0.414063,-0.5625 0.9375,-0.84375 1.5625,-0.84375 z m 0,0"
           id="id-24b7c5f3-5bec-40bb-80a2-ec4365823fd7" />
      </g>
      <g
         transform="translate(189.353,134.851)"
         id="g8689">
        <path
           d="m 1.1875,-1.265625 c 0.195312,0 0.363281,0.070313 0.5,0.203125 0.132812,0.125 0.203125,0.289062 0.203125,0.484375 0,0.1875 -0.070313,0.355469 -0.203125,0.5 C 1.550781,0.0546875 1.382812,0.125 1.1875,0.125 c -0.199219,0 -0.367188,-0.0703125 -0.5,-0.203125 -0.125,-0.144531 -0.1875,-0.3125 -0.1875,-0.5 0,-0.195313 0.0625,-0.359375 0.1875,-0.484375 0.132812,-0.132812 0.300781,-0.203125 0.5,-0.203125 z m 0,0"
           id="id-7affa3e1-5b23-4244-90eb-0726a2059df4" />
      </g>
    </g>
    <g
       fill="#000000"
       fill-opacity="1"
       id="id-2185d430-d95c-422f-955f-4db724ae2a6f"
       transform="translate(-149.353,-124.798)">
      <g
         transform="translate(191.645,134.851)"
         id="g8693">
        <path
           d="m 2.859375,-5.375 c 0.3125,0 0.597656,0.046875 0.859375,0.140625 0.257812,0.085937 0.507812,0.226563 0.75,0.421875 l -0.4375,0.578125 c -0.1875,-0.125 -0.371094,-0.21875 -0.546875,-0.28125 -0.179687,-0.0625 -0.371094,-0.09375 -0.578125,-0.09375 -0.429688,0 -0.761719,0.171875 -1,0.515625 -0.230469,0.335938 -0.34375,0.828125 -0.34375,1.484375 0,0.667969 0.113281,1.164063 0.34375,1.484375 0.226562,0.3125 0.5625,0.46875 1,0.46875 0.195312,0 0.382812,-0.03125 0.5625,-0.09375 0.175781,-0.0625 0.367188,-0.164062 0.578125,-0.3125 L 4.46875,-0.453125 C 3.988281,-0.0664062 3.453125,0.125 2.859375,0.125 2.148438,0.125 1.585938,-0.113281 1.171875,-0.59375 0.765625,-1.070312 0.5625,-1.734375 0.5625,-2.578125 c 0,-0.5625 0.09375,-1.050781 0.28125,-1.46875 0.1875,-0.414063 0.453125,-0.738281 0.796875,-0.96875 0.34375,-0.238281 0.75,-0.359375 1.21875,-0.359375 z m 0,0"
           id="id-64f95b08-57aa-4a0a-88e0-48a1be024e22" />
      </g>
    </g>
    <g
       fill="#000000"
       fill-opacity="1"
       id="id-12a88681-f860-4f09-b945-d70c0eca1c39"
       transform="translate(-149.353,-124.798)">
      <g
         transform="translate(196.497,134.851)"
         id="g8697">
        <path
           d="m 1.1875,-1.265625 c 0.195312,0 0.363281,0.070313 0.5,0.203125 0.132812,0.125 0.203125,0.289062 0.203125,0.484375 0,0.1875 -0.070313,0.355469 -0.203125,0.5 C 1.550781,0.0546875 1.382812,0.125 1.1875,0.125 c -0.199219,0 -0.367188,-0.0703125 -0.5,-0.203125 -0.125,-0.144531 -0.1875,-0.3125 -0.1875,-0.5 0,-0.195313 0.0625,-0.359375 0.1875,-0.484375 0.132812,-0.132812 0.300781,-0.203125 0.5,-0.203125 z m 0,0"
           id="id-349458ef-58ab-46e4-9b44-64eade4f3e18" />
      </g>
    </g>
  </g>
  <g
     ns2:version="1.8.2"
     ns2:texconverter="xelatex"
     ns2:pdfconverter="inkscape"
     ns2:text="$J \\vec S_d \\cdot \\vec S_0$"
     ns2:preamble="/home/kirito/.config/textext/beamer_preamble.tex"
     ns2:scale="3.799633866666667"
     ns2:alignment="middle center"
     ns2:stroke-to-path="0"
     ns2:inkscapeversion="1.2.1"
     transform="matrix(3.2046656,0,0,3.2046656,139.54853,93.435327)"
     ns2:jacobian_sqrt="2.84973"
     id="g5285">
    <defs
       id="id-9f65b767-f6a2-4dbe-9376-3c2931e6547f">
      <g
         id="id-9ed5149f-6ef7-4679-a838-8ef65f719423">
        <g
           id="id-1ec7a295-6114-4e53-a6e6-dcd0ef66fac2">
          <path
             d="m 5.4375,-6.4375 v 5.890625 H 1.34375 V -6.4375 Z m 0.546875,-0.546875 h -5.1875 V 0 h 5.1875 z m -2.75,4.953125 c -0.21875,0 -0.40625,0.1875 -0.40625,0.421875 0,0.21875 0.1875,0.40625 0.40625,0.40625 0.25,0 0.421875,-0.1875 0.421875,-0.40625 0,-0.234375 -0.171875,-0.421875 -0.421875,-0.421875 z M 3.4375,-5.453125 c -0.5,0 -0.90625,0.1875 -1.25,0.59375 l 0.390625,0.28125 C 2.828125,-4.875 3.09375,-5 3.40625,-5 3.765625,-5 4,-4.8125 4,-4.484375 4,-3.84375 2.953125,-3.953125 2.953125,-2.9375 v 0.296875 H 3.5 V -2.90625 c 0,-0.796875 1.078125,-0.65625 1.078125,-1.625 0,-0.46875 -0.375,-0.921875 -1.140625,-0.921875 z m 0,0"
             id="id-fb4fb856-1936-4874-a60c-4f4bf9924885" />
        </g>
        <g
           id="id-51401c47-1e89-4a8a-9b36-ebe11ece68d8">
          <path
             d="M 2.65625,-6.875 H 1.71875 L 0.890625,-1.03125 C 0.765625,-0.109375 0.5,0.3125 -0.453125,0.671875 L -0.265625,1.375 C 0.875,1.03125 1.609375,0.515625 1.8125,-0.921875 Z m 0,0"
             id="id-4764249e-57fe-46f5-ba5b-64c032becadb" />
        </g>
        <g
           id="id-bca5498b-70c7-42a3-b567-e85f4a4b156b">
          <path
             d="m -1.421875,-8.203125 -0.375,0.34375 0.5,0.546875 h -2.59375 v 0.609375 h 2.59375 l -0.5,0.546875 0.375,0.34375 1.125,-1.1875 z m 0,0"
             id="id-3fb3997d-80cb-40b2-a27b-d7ce5baa1089" />
        </g>
        <g
           id="id-4d1ee0c7-857e-4010-8d4b-464fc498d982">
          <path
             d="m 3.234375,-6.984375 c -1.546875,0 -2.359375,1.03125 -2.359375,1.9375 0,0.984375 0.625,1.40625 1.78125,1.8125 0.953125,0.328125 1.265625,0.609375 1.265625,1.203125 0,0.84375 -0.671875,1.375 -1.6875,1.375 C 1.5,-0.65625 1,-0.90625 0.59375,-1.359375 l -0.609375,0.5625 c 0.5,0.5625 1.21875,0.921875 2.234375,0.921875 1.875,0 2.6875,-1.15625 2.6875,-2.203125 0,-1.1875 -0.84375,-1.59375 -1.796875,-1.890625 -1,-0.34375 -1.28125,-0.609375 -1.28125,-1.125 0,-0.71875 0.625,-1.109375 1.40625,-1.109375 0.546875,0 1,0.15625 1.4375,0.59375 L 5.25,-6.15625 C 4.75,-6.6875 4.125,-6.984375 3.234375,-6.984375 Z m 0,0"
             id="id-6ea88b3b-87bb-46b6-a3ea-4c2f5db63138" />
        </g>
        <g
           id="id-b1321db8-5f7a-4935-937d-947afaea2b9e">
          <path
             d="m 1.1875,-3.484375 c -0.390625,0 -0.6875,0.3125 -0.6875,0.6875 0,0.390625 0.296875,0.703125 0.6875,0.703125 0.390625,0 0.703125,-0.3125 0.703125,-0.703125 0,-0.375 -0.3125,-0.6875 -0.703125,-0.6875 z m 0,0"
             id="id-784147cc-9cbd-482a-a28c-b0c8ec9662b4" />
        </g>
        <g
           id="id-4f4f65cb-8751-4292-b925-facbd92d8d18">
          <path
             d="m 3.90625,-4.625 v 4.234375 H 0.96875 V -4.625 Z M 4.296875,-5.015625 H 0.578125 V 0 h 3.71875 z m -1.96875,3.5625 c -0.15625,0 -0.296875,0.125 -0.296875,0.296875 0,0.15625 0.140625,0.296875 0.296875,0.296875 C 2.5,-0.859375 2.625,-1 2.625,-1.15625 2.625,-1.328125 2.5,-1.453125 2.328125,-1.453125 Z m 0.140625,-2.46875 c -0.359375,0 -0.640625,0.140625 -0.890625,0.421875 L 1.84375,-3.296875 C 2.03125,-3.5 2.234375,-3.59375 2.453125,-3.59375 c 0.265625,0 0.4375,0.125 0.4375,0.359375 0,0.46875 -0.765625,0.390625 -0.765625,1.125 v 0.203125 h 0.390625 v -0.1875 c 0,-0.5625 0.78125,-0.46875 0.78125,-1.15625 0,-0.34375 -0.28125,-0.671875 -0.828125,-0.671875 z m 0,0"
             id="id-b1d28bb6-0ee7-4b8a-9a09-041380d07161" />
        </g>
        <g
           id="id-3a0a2c20-0222-491f-b885-279355ffebcf">
          <path
             d="m 2.25,-3.34375 c 0.34375,0 0.578125,0.171875 0.78125,0.453125 L 2.796875,-1.3125 c -0.328125,0.53125 -0.640625,0.875 -1.109375,0.875 -0.390625,0 -0.625,-0.28125 -0.625,-0.921875 0,-0.75 0.265625,-1.984375 1.1875,-1.984375 z m 1.125,-2.015625 -0.28125,1.96875 C 2.890625,-3.65625 2.5625,-3.859375 2.125,-3.859375 c -1.296875,0 -1.765625,1.46875 -1.765625,2.453125 0,0.90625 0.421875,1.5 1.203125,1.5 0.484375,0 0.875,-0.28125 1.140625,-0.71875 V 0 h 0.5625 l 0.75,-5.296875 z m 0,0"
             id="id-4d243e1f-01b8-44b2-bf05-773d41e6678d" />
        </g>
        <g
           id="id-4dedd33d-ca06-493b-8091-00e9fd33476d">
          <path
             d="m 2.015625,-4.5 c 0.59375,0 0.90625,0.546875 0.90625,2.03125 0,1.484375 -0.3125,2.03125 -0.90625,2.03125 -0.609375,0 -0.921875,-0.546875 -0.921875,-2.03125 0,-1.484375 0.3125,-2.03125 0.921875,-2.03125 z m 0,-0.53125 c -1.078125,0 -1.609375,0.890625 -1.609375,2.5625 0,1.671875 0.53125,2.5625 1.609375,2.5625 1.0625,0 1.59375,-0.890625 1.59375,-2.5625 0,-1.671875 -0.53125,-2.5625 -1.59375,-2.5625 z m 0,0"
             id="id-8b6ddf3f-8fb1-481a-b923-02a2cd711b04" />
        </g>
      </g>
    </defs>
    <g
       fill="#000000"
       fill-opacity="1"
       id="id-ae9f56c9-ac5e-4472-9c57-efa5b7e406c9"
       transform="translate(-148.259,-124.828)">
      <g
         transform="translate(148.712,134.765)"
         id="g13181">
        <path
           d="M 2.65625,-6.875 H 1.71875 L 0.890625,-1.03125 C 0.765625,-0.109375 0.5,0.3125 -0.453125,0.671875 L -0.265625,1.375 C 0.875,1.03125 1.609375,0.515625 1.8125,-0.921875 Z m 0,0"
           id="id-5a477023-41f7-4d23-a02b-8ab262d524fa" />
      </g>
    </g>
    <g
       fill="#000000"
       fill-opacity="1"
       id="id-d8e6db2d-6576-4e61-8043-0ef118a9a2f9"
       transform="translate(-148.259,-124.828)">
      <g
         transform="translate(157.37,133.031)"
         id="g13185">
        <path
           d="m -1.421875,-8.203125 -0.375,0.34375 0.5,0.546875 h -2.59375 v 0.609375 h 2.59375 l -0.5,0.546875 0.375,0.34375 1.125,-1.1875 z m 0,0"
           id="id-83d229c1-bb14-4b27-b865-799d147268b5" />
      </g>
    </g>
    <g
       fill="#000000"
       fill-opacity="1"
       id="id-8af51341-929d-4fd1-b69d-d218a49a738c"
       transform="translate(-148.259,-124.828)">
      <g
         transform="translate(151.9,134.765)"
         id="g13189">
        <path
           d="m 3.234375,-6.984375 c -1.546875,0 -2.359375,1.03125 -2.359375,1.9375 0,0.984375 0.625,1.40625 1.78125,1.8125 0.953125,0.328125 1.265625,0.609375 1.265625,1.203125 0,0.84375 -0.671875,1.375 -1.6875,1.375 C 1.5,-0.65625 1,-0.90625 0.59375,-1.359375 l -0.609375,0.5625 c 0.5,0.5625 1.21875,0.921875 2.234375,0.921875 1.875,0 2.6875,-1.15625 2.6875,-2.203125 0,-1.1875 -0.84375,-1.59375 -1.796875,-1.890625 -1,-0.34375 -1.28125,-0.609375 -1.28125,-1.125 0,-0.71875 0.625,-1.109375 1.40625,-1.109375 0.546875,0 1,0.15625 1.4375,0.59375 L 5.25,-6.15625 C 4.75,-6.6875 4.125,-6.984375 3.234375,-6.984375 Z m 0,0"
           id="id-0977868f-9890-40c9-a037-04045d3f12f7" />
      </g>
    </g>
    <g
       fill="#000000"
       fill-opacity="1"
       id="id-05f8a95a-719e-4241-b552-de865a9deeb4"
       transform="translate(-148.259,-124.828)">
      <g
         transform="translate(157.27,138.252)"
         id="g13193">
        <path
           d="m 2.25,-3.34375 c 0.34375,0 0.578125,0.171875 0.78125,0.453125 L 2.796875,-1.3125 c -0.328125,0.53125 -0.640625,0.875 -1.109375,0.875 -0.390625,0 -0.625,-0.28125 -0.625,-0.921875 0,-0.75 0.265625,-1.984375 1.1875,-1.984375 z m 1.125,-2.015625 -0.28125,1.96875 C 2.890625,-3.65625 2.5625,-3.859375 2.125,-3.859375 c -1.296875,0 -1.765625,1.46875 -1.765625,2.453125 0,0.90625 0.421875,1.5 1.203125,1.5 0.484375,0 0.875,-0.28125 1.140625,-0.71875 V 0 h 0.5625 l 0.75,-5.296875 z m 0,0"
           id="id-ad90ea2f-dbb7-4698-92fa-33b84fc28f44" />
      </g>
    </g>
    <g
       fill="#000000"
       fill-opacity="1"
       id="id-354285eb-eecc-4c2a-aef9-d758e5505cff"
       transform="translate(-148.259,-124.828)">
      <g
         transform="translate(164.552,134.765)"
         id="g13197">
        <path
           d="m 1.1875,-3.484375 c -0.390625,0 -0.6875,0.3125 -0.6875,0.6875 0,0.390625 0.296875,0.703125 0.6875,0.703125 0.390625,0 0.703125,-0.3125 0.703125,-0.703125 0,-0.375 -0.3125,-0.6875 -0.703125,-0.6875 z m 0,0"
           id="id-b45dd3f6-970b-4f6d-b522-ec4d10dbd0d6" />
      </g>
    </g>
    <g
       fill="#000000"
       fill-opacity="1"
       id="id-8834e235-3bee-4996-9d38-df0e64e137db"
       transform="translate(-148.259,-124.828)">
      <g
         transform="translate(174.616,133.031)"
         id="g13201">
        <path
           d="m -1.421875,-8.203125 -0.375,0.34375 0.5,0.546875 h -2.59375 v 0.609375 h 2.59375 l -0.5,0.546875 0.375,0.34375 1.125,-1.1875 z m 0,0"
           id="id-7eb1f0f4-ac44-425e-9068-23b39d29d74d" />
      </g>
    </g>
    <g
       fill="#000000"
       fill-opacity="1"
       id="id-17510fed-1cac-4ba8-b052-82047bbb0fca"
       transform="translate(-148.259,-124.828)">
      <g
         transform="translate(169.147,134.765)"
         id="g13205">
        <path
           d="m 3.234375,-6.984375 c -1.546875,0 -2.359375,1.03125 -2.359375,1.9375 0,0.984375 0.625,1.40625 1.78125,1.8125 0.953125,0.328125 1.265625,0.609375 1.265625,1.203125 0,0.84375 -0.671875,1.375 -1.6875,1.375 C 1.5,-0.65625 1,-0.90625 0.59375,-1.359375 l -0.609375,0.5625 c 0.5,0.5625 1.21875,0.921875 2.234375,0.921875 1.875,0 2.6875,-1.15625 2.6875,-2.203125 0,-1.1875 -0.84375,-1.59375 -1.796875,-1.890625 -1,-0.34375 -1.28125,-0.609375 -1.28125,-1.125 0,-0.71875 0.625,-1.109375 1.40625,-1.109375 0.546875,0 1,0.15625 1.4375,0.59375 L 5.25,-6.15625 C 4.75,-6.6875 4.125,-6.984375 3.234375,-6.984375 Z m 0,0"
           id="id-6bba84f7-48d4-4689-9ab9-4b827c2ba0cf" />
      </g>
    </g>
    <g
       fill="#000000"
       fill-opacity="1"
       id="id-88c77ec8-46a9-460f-af2d-f42d8635cbcf"
       transform="translate(-148.259,-124.828)">
      <g
         transform="translate(174.517,138.252)"
         id="g13209">
        <path
           d="m 2.015625,-4.5 c 0.59375,0 0.90625,0.546875 0.90625,2.03125 0,1.484375 -0.3125,2.03125 -0.90625,2.03125 -0.609375,0 -0.921875,-0.546875 -0.921875,-2.03125 0,-1.484375 0.3125,-2.03125 0.921875,-2.03125 z m 0,-0.53125 c -1.078125,0 -1.609375,0.890625 -1.609375,2.5625 0,1.671875 0.53125,2.5625 1.609375,2.5625 1.0625,0 1.59375,-0.890625 1.59375,-2.5625 0,-1.671875 -0.53125,-2.5625 -1.59375,-2.5625 z m 0,0"
           id="id-b258440e-75c9-4c1d-b469-81a8de9ad3e8" />
      </g>
    </g>
  </g>
  <path
     style="fill:none;stroke:#093030;stroke-width:4;marker-end:url(#marker24015)"
     d="m 106.85788,56.725281 c 30.37135,-9.45985 62.41645,-13.518811 94.18725,-11.930133 22.74946,1.137572 45.35332,5.156412 67.1007,11.930132"
     id="path23489"
     inkscape:path-effect="#path-effect23491"
     inkscape:original-d="m 106.85788,56.725281 c 31.3965,-3.975961 62.79225,-7.952672 94.18725,-11.930133 31.395,-3.977461 44.73454,7.954171 67.1007,11.930132" />
  <path
     style="fill:none;stroke:#093030;stroke-width:4;marker-end:url(#marker24015)"
     d="M 268.74059,76.35018 C 242.80152,85.697914 215.05342,89.996389 187.50185,88.934925 160.87097,87.908932 134.44127,81.879812 110,71.255276"
     id="path23979"
     inkscape:path-effect="#path-effect23981"
     inkscape:original-d="M 268.74059,76.35018 C 241.66176,80.545845 214.58218,84.74076 187.50185,88.934925 160.42153,93.12909 135.8347,77.149245 110,71.255276" />
</svg>
