<?xml version="1.0" encoding="UTF-8" standalone="no"?>
<svg
   width="461.31116pt"
   height="74.230347pt"
   viewBox="0 0 461.31117 74.230343"
   version="1.2"
   id="svg32714"
   sodipodi:docname="siam_locmom.svg"
   inkscape:version="1.2.2 (b0a8486541, 2022-12-01)"
   xmlns:inkscape="http://www.inkscape.org/namespaces/inkscape"
   xmlns:sodipodi="http://sodipodi.sourceforge.net/DTD/sodipodi-0.dtd"
   xmlns="http://www.w3.org/2000/svg"
   xmlns:svg="http://www.w3.org/2000/svg"
   xmlns:ns2="http://www.iki.fi/pav/software/textext/">
  <sodipodi:namedview
     id="namedview32716"
     pagecolor="#505050"
     bordercolor="#eeeeee"
     borderopacity="1"
     inkscape:pageshadow="0"
     inkscape:pageopacity="0"
     inkscape:pagecheckerboard="0"
     inkscape:document-units="pt"
     showgrid="false"
     inkscape:zoom="1.3335911"
     inkscape:cx="195.33724"
     inkscape:cy="62.987823"
     inkscape:window-width="1916"
     inkscape:window-height="1048"
     inkscape:window-x="0"
     inkscape:window-y="28"
     inkscape:window-maximized="1"
     inkscape:current-layer="svg32714"
     inkscape:snap-bbox="true"
     inkscape:object-paths="true"
     inkscape:snap-intersection-paths="true"
     inkscape:snap-global="false"
     inkscape:showpageshadow="0"
     inkscape:deskcolor="#505050" />
  <defs
     id="defs32609">
    <inkscape:path-effect
       effect="spiro"
       id="path-effect834"
       is_visible="true"
       lpeversion="1" />
    <inkscape:path-effect
       effect="spiro"
       id="path-effect27033"
       is_visible="true"
       lpeversion="1" />
    <inkscape:path-effect
       effect="spiro"
       id="path-effect23946"
       is_visible="true"
       lpeversion="1" />
    <inkscape:path-effect
       effect="spiro"
       id="path-effect21817"
       is_visible="true"
       lpeversion="1" />
    <inkscape:path-effect
       effect="spiro"
       id="path-effect12652"
       is_visible="true"
       lpeversion="1" />
    <inkscape:path-effect
       effect="spiro"
       id="path-effect8265"
       is_visible="true"
       lpeversion="1" />
    <inkscape:path-effect
       effect="spiro"
       id="path-effect8103"
       is_visible="true"
       lpeversion="1" />
    <marker
       style="overflow:visible"
       id="RoundedArrow"
       refX="0"
       refY="0"
       orient="auto-start-reverse"
       inkscape:stockid="RoundedArrow"
       markerWidth="6.1347523"
       markerHeight="5.9304953"
       viewBox="0 0 6.1347524 5.9304951"
       inkscape:isstock="true"
       inkscape:collect="always"
       preserveAspectRatio="xMidYMid">
      <path
         transform="scale(0.7)"
         d="m -0.21114562,-4.1055728 6.42229122,3.21114561 a 1,1 90 0 1 0,1.78885438 L -0.21114562,4.1055728 A 1.236068,1.236068 31.717474 0 1 -2,3 v -6 a 1.236068,1.236068 148.28253 0 1 1.78885438,-1.1055728 z"
         style="fill:context-stroke;fill-rule:evenodd;stroke:none"
         id="path1367" />
    </marker>
    <inkscape:path-effect
       effect="spiro"
       id="path-effect97285"
       is_visible="true"
       lpeversion="1" />
    <inkscape:path-effect
       effect="spiro"
       id="path-effect97007"
       is_visible="true"
       lpeversion="1" />
    <marker
       style="overflow:visible"
       id="marker9621"
       refX="0"
       refY="0"
       orient="auto"
       inkscape:stockid="Arrow2Mend"
       inkscape:isstock="true">
      <path
         transform="scale(-0.6)"
         d="M 8.7185878,4.0337352 -2.2072895,0.01601326 8.7185884,-4.0017078 c -1.7454984,2.3720609 -1.7354408,5.6174519 -6e-7,8.035443 z"
         style="fill:context-stroke;fill-rule:evenodd;stroke:context-stroke;stroke-width:0.625;stroke-linejoin:round"
         id="path9619" />
    </marker>
    <marker
       style="overflow:visible"
       id="Arrow2Mend"
       refX="0"
       refY="0"
       orient="auto"
       inkscape:stockid="Arrow2Mend"
       inkscape:isstock="true">
      <path
         transform="scale(-0.6)"
         d="M 8.7185878,4.0337352 -2.2072895,0.01601326 8.7185884,-4.0017078 c -1.7454984,2.3720609 -1.7354408,5.6174519 -6e-7,8.035443 z"
         style="fill:context-stroke;fill-rule:evenodd;stroke:context-stroke;stroke-width:0.625;stroke-linejoin:round"
         id="path9370" />
    </marker>
    <marker
       style="overflow:visible"
       id="Arrow2Lend"
       refX="0"
       refY="0"
       orient="auto"
       inkscape:stockid="Arrow2Lend"
       inkscape:isstock="true">
      <path
         transform="matrix(-1.1,0,0,-1.1,-1.1,0)"
         d="M 8.7185878,4.0337352 -2.2072895,0.01601326 8.7185884,-4.0017078 c -1.7454984,2.3720609 -1.7354408,5.6174519 -6e-7,8.035443 z"
         style="fill:context-stroke;fill-rule:evenodd;stroke:context-stroke;stroke-width:0.625;stroke-linejoin:round"
         id="path9364" />
    </marker>
    <inkscape:path-effect
       effect="spiro"
       id="path-effect8375"
       is_visible="true"
       lpeversion="1" />
    <inkscape:path-effect
       effect="spiro"
       id="path-effect8371"
       is_visible="true"
       lpeversion="1" />
    <inkscape:path-effect
       effect="spiro"
       id="path-effect8334"
       is_visible="true"
       lpeversion="1" />
    <inkscape:path-effect
       effect="spiro"
       id="path-effect8213"
       is_visible="true"
       lpeversion="1" />
    <clipPath
       id="clip1">
      <path
         d="m 28,134 h 11 v 17.24219 H 28 Z m 0,0"
         id="path32600" />
    </clipPath>
    <clipPath
       id="clip2">
      <path
         d="m 75,134 h 12 v 17.24219 H 75 Z m 0,0"
         id="path32603" />
    </clipPath>
    <clipPath
       id="clip3">
      <path
         d="m 345,133 h 10.31641 v 13 H 345 Z m 0,0"
         id="path32606" />
    </clipPath>
    <g
       id="id-d512316c-f310-4ef7-b32f-ea93f87dd485-7">
      <g
         id="id-aec88e65-99b3-4c56-a594-255c12e961eb-5">
        <path
           d="M 5.40625,-10.46875 H 1.21875 V 3.484375 h 4.1875 z M 4.875,-9.953125 V 2.96875 H 1.78125 V -9.953125 Z M 3.234375,-4.5 c -0.390625,0 -0.9375,0.125 -0.9375,0.390625 0,0.125 0.09375,0.234375 0.25,0.234375 0.03125,0 0.078125,-0.015625 0.125,-0.03125 0.171875,-0.078125 0.3125,-0.109375 0.515625,-0.109375 0.5,0 0.609375,0.296875 0.609375,0.6875 0,0.53125 -0.1875,0.71875 -0.90625,0.765625 v 0.84375 c 0,0.140625 0.125,0.234375 0.25,0.234375 0.125,0 0.25,-0.09375 0.25,-0.234375 V -2.171875 C 4.0625,-2.265625 4.34375,-2.65625 4.34375,-3.34375 4.34375,-3.953125 4.09375,-4.5 3.234375,-4.5 Z m -0.09375,3.296875 c -0.203125,0 -0.34375,0.15625 -0.34375,0.359375 0,0.203125 0.140625,0.359375 0.34375,0.359375 0.203125,0 0.34375,-0.15625 0.34375,-0.359375 0,-0.203125 -0.140625,-0.359375 -0.34375,-0.359375 z m 0,0"
           id="id-7c2a457f-f768-4159-9e9f-9df2cc3e5e13-3" />
      </g>
      <g
         id="id-cbdc8fff-0ca5-40b0-a6c3-fd6785a6998c-5">
        <path
           d="M 4.03125,-5.25 H 0.484375 v 0.78125 h 2.5 L 0.25,-0.6875 V 0 H 3.953125 L 4.0625,-0.765625 H 1.28125 l 2.75,-3.796875 z m 0,0"
           id="id-d973a2bc-a0f1-46d3-be99-e1468b8100fd-6" />
      </g>
      <g
         id="id-5686a47d-2053-4c4d-820f-b70b1f5df129-2">
        <path
           d="m 4.921875,-2.78125 c 0,-1.609375 -0.75,-2.59375 -2.171875,-2.59375 -1.359375,0 -2.1875,1.171875 -2.1875,2.796875 0,1.671875 0.859375,2.703125 2.328125,2.703125 0.734375,0 1.3125,-0.25 1.828125,-0.65625 L 4.328125,-1.09375 C 3.875,-0.765625 3.484375,-0.625 2.953125,-0.625 c -0.75,0 -1.3125,-0.46875 -1.40625,-1.6875 h 3.34375 c 0.015625,-0.125 0.03125,-0.296875 0.03125,-0.46875 z M 4,-2.984375 H 1.546875 c 0.0625,-1.171875 0.53125,-1.65625 1.21875,-1.65625 0.828125,0 1.234375,0.5625 1.234375,1.59375 z m 0,0"
           id="id-a332717d-d305-44bd-a0ed-aad2acac9b2e-9" />
      </g>
      <g
         id="id-0e774e49-ecc7-4b16-9075-b05632ae91b5-1">
        <path
           d="m 3.203125,-5.375 c -0.640625,0 -1.125,0.40625 -1.40625,1.1875 L 1.703125,-5.25 H 0.921875 V 0 h 0.90625 v -3 c 0.21875,-1 0.609375,-1.46875 1.265625,-1.46875 0.1875,0 0.296875,0.015625 0.453125,0.046875 L 3.71875,-5.3125 C 3.5625,-5.359375 3.375,-5.375 3.203125,-5.375 Z m 0,0"
           id="id-af3d88dc-cd40-4e0c-89bc-b4785b17be2d-2" />
      </g>
      <g
         id="id-b16cf8d5-1627-44bd-a3e3-091b7fd09800-7">
        <path
           d="m 2.921875,-5.375 c -1.5,0 -2.359375,1.125 -2.359375,2.75 0,1.671875 0.859375,2.75 2.34375,2.75 C 4.390625,0.125 5.25,-1 5.25,-2.625 c 0,-1.671875 -0.828125,-2.75 -2.328125,-2.75 z m 0,0.734375 c 0.859375,0 1.34375,0.640625 1.34375,2.015625 0,1.375 -0.484375,2 -1.359375,2 -0.875,0 -1.34375,-0.625 -1.34375,-2 0,-1.375 0.484375,-2.015625 1.359375,-2.015625 z m 0,0"
           id="id-20005495-b261-4cc2-b6b6-ed297e2db39b-0" />
      </g>
      <g
         id="id-6b9ff16d-207e-4e6d-bab3-4e5b23972824-9">
        <path
           d="m 3.25,-0.84375 c -0.265625,0.140625 -0.46875,0.203125 -0.703125,0.203125 -0.453125,0 -0.625,-0.25 -0.625,-0.78125 v -3.125 h 1.15625 L 3.171875,-5.25 h -1.25 V -6.546875 L 1,-6.4375 V -5.25 H 0.09375 v 0.703125 H 1 V -1.375 c 0,0.96875 0.53125,1.5 1.421875,1.5 C 2.875,0.125 3.25,0 3.59375,-0.234375 Z m 0,0"
           id="id-32b60361-bbea-40ea-b977-53eb510acd35-3" />
      </g>
      <g
         id="id-71869a43-d697-4ceb-a7f9-8ebf4b864781-6">
        <path
           d="m 3.390625,-5.375 c -0.65625,0 -1.171875,0.328125 -1.5625,0.84375 v -2.921875 l -0.90625,0.09375 V 0 h 0.90625 V -3.734375 C 2.1875,-4.28125 2.59375,-4.65625 3.15625,-4.65625 3.65625,-4.65625 4,-4.421875 4,-3.640625 V 0 H 4.921875 V -3.765625 C 4.921875,-4.75 4.34375,-5.375 3.390625,-5.375 Z m 0,0"
           id="id-1e3d112e-4560-4763-824b-0e30cffc45d8-0" />
      </g>
      <g
         id="id-1e91a301-79e9-4d0c-a978-b6b3c6a52f9e-6">
        <path
           d="m 2.375,-5.375 c -1.09375,0 -1.890625,0.609375 -1.890625,1.453125 0,0.734375 0.4375,1.21875 1.578125,1.515625 1.015625,0.265625 1.28125,0.46875 1.28125,0.984375 0,0.5 -0.4375,0.796875 -1.125,0.796875 -0.578125,0 -1.0625,-0.1875 -1.484375,-0.5 L 0.25,-0.5625 c 0.453125,0.390625 1.09375,0.6875 1.984375,0.6875 1.0625,0 2.078125,-0.5 2.078125,-1.59375 0,-0.921875 -0.640625,-1.359375 -1.75,-1.640625 -0.84375,-0.21875 -1.125,-0.421875 -1.125,-0.84375 0,-0.421875 0.359375,-0.6875 0.96875,-0.6875 0.484375,0 0.890625,0.140625 1.359375,0.4375 L 4.15625,-4.78125 C 3.65625,-5.15625 3.109375,-5.375 2.375,-5.375 Z m 0,0"
           id="id-53a9d073-0486-42ca-ac9a-a430e0ddfb98-2" />
      </g>
      <g
         id="id-0db217cc-3c59-4772-870f-536584d3a0e2-6">
        <path
           d="m 1.359375,-7.78125 c -0.375,0 -0.625,0.28125 -0.625,0.640625 0,0.34375 0.25,0.609375 0.625,0.609375 0.390625,0 0.65625,-0.265625 0.65625,-0.609375 C 2.015625,-7.5 1.75,-7.78125 1.359375,-7.78125 Z M 1.828125,-5.25 H 0.921875 V 0 h 0.90625 z m 0,0"
           id="id-87b2e3dc-de9a-40b7-8807-e8766aeb7488-1" />
      </g>
    </g>
    <inkscape:path-effect
       effect="spiro"
       id="path-effect97007-1"
       is_visible="true"
       lpeversion="1" />
    <inkscape:path-effect
       effect="spiro"
       id="path-effect97285-2"
       is_visible="true"
       lpeversion="1" />
    <g
       id="id-075034cf-cbd6-4d18-8c88-a453ba64a00b-7">
      <g
         id="id-5ea25a87-f78e-452b-bc07-a9751c217cda-5">
        <path
           d="M 5.40625,-10.46875 V 3.484375 H 1.21875 V -10.46875 Z M 4.875,-9.953125 H 1.78125 V 2.96875 H 4.875 Z M 3.234375,-4.5 c 0.394531,0 0.675781,0.109375 0.84375,0.328125 0.175781,0.210937 0.265625,0.484375 0.265625,0.828125 0,0.34375 -0.078125,0.617188 -0.234375,0.8125 -0.148437,0.1875 -0.386719,0.308594 -0.71875,0.359375 v 0.453125 c 0,0.074219 -0.027344,0.132812 -0.078125,0.171875 -0.054688,0.042969 -0.109375,0.0625 -0.171875,0.0625 -0.0625,0 -0.121094,-0.019531 -0.171875,-0.0625 C 2.914062,-1.585938 2.890625,-1.644531 2.890625,-1.71875 V -2.5625 c 0.351563,-0.019531 0.59375,-0.082031 0.71875,-0.1875 0.125,-0.113281 0.1875,-0.304688 0.1875,-0.578125 0,-0.21875 -0.046875,-0.382813 -0.140625,-0.5 -0.085938,-0.125 -0.242188,-0.1875 -0.46875,-0.1875 -0.1875,0 -0.359375,0.039063 -0.515625,0.109375 -0.054687,0.023438 -0.09375,0.03125 -0.125,0.03125 -0.074219,0 -0.136719,-0.019531 -0.1875,-0.0625 -0.042969,-0.039062 -0.0625,-0.097656 -0.0625,-0.171875 0,-0.125 0.097656,-0.21875 0.296875,-0.28125 C 2.789062,-4.460938 3.003906,-4.5 3.234375,-4.5 Z m -0.09375,3.296875 c 0.101563,0 0.1875,0.039063 0.25,0.109375 0.0625,0.0625 0.09375,0.148438 0.09375,0.25 0,0.105469 -0.03125,0.195312 -0.09375,0.265625 -0.0625,0.0625 -0.148437,0.09375 -0.25,0.09375 -0.105469,0 -0.1875,-0.03125 -0.25,-0.09375 -0.0625,-0.070313 -0.09375,-0.160156 -0.09375,-0.265625 0,-0.101562 0.03125,-0.1875 0.09375,-0.25 0.0625,-0.070312 0.144531,-0.109375 0.25,-0.109375 z m 0,0"
           id="id-ff9cf9ac-ecdc-44f0-8112-714bd5c317d8-3" />
      </g>
      <g
         id="id-44ea60a7-1da0-419e-8c6e-31d0133abcf8-5">
        <path
           d="M 1.859375,-5.25 V 0 h -0.90625 v -5.25 z m -0.46875,-2.53125 c 0.195313,0 0.351563,0.0625 0.46875,0.1875 0.125,0.117188 0.1875,0.265625 0.1875,0.453125 0,0.179687 -0.0625,0.324219 -0.1875,0.4375 -0.117187,0.117187 -0.273437,0.171875 -0.46875,0.171875 -0.179687,0 -0.328125,-0.054688 -0.453125,-0.171875 -0.117188,-0.113281 -0.171875,-0.257813 -0.171875,-0.4375 0,-0.1875 0.054687,-0.335937 0.171875,-0.453125 0.125,-0.125 0.273438,-0.1875 0.453125,-0.1875 z m 0,0"
           id="id-8d055443-2914-4f6e-b709-08b66a6e0b9c-6" />
      </g>
      <g
         id="id-af6243ea-b38c-4bd5-9f25-b733a0d56973-2">
        <path
           d="m 6.21875,-5.375 c 0.4375,0 0.78125,0.148438 1.03125,0.4375 0.257812,0.292969 0.390625,0.683594 0.390625,1.171875 V 0 h -0.90625 v -3.640625 c 0,-0.675781 -0.25,-1.015625 -0.75,-1.015625 -0.25,0 -0.46875,0.078125 -0.65625,0.234375 -0.179687,0.148437 -0.371094,0.375 -0.578125,0.6875 V 0 H 3.84375 v -3.640625 c 0,-0.675781 -0.25,-1.015625 -0.75,-1.015625 -0.261719,0 -0.484375,0.078125 -0.671875,0.234375 -0.179687,0.148437 -0.367187,0.375 -0.5625,0.6875 V 0 h -0.90625 v -5.25 h 0.78125 L 1.8125,-4.484375 C 2.207031,-5.078125 2.710938,-5.375 3.328125,-5.375 c 0.320313,0 0.597656,0.085938 0.828125,0.25 0.226562,0.167969 0.394531,0.402344 0.5,0.703125 0.207031,-0.3125 0.4375,-0.546875 0.6875,-0.703125 0.25,-0.164062 0.539062,-0.25 0.875,-0.25 z m 0,0"
           id="id-91ce2518-4dc7-4b31-ba9e-9932e14ab11e-9" />
      </g>
      <g
         id="id-c3f991e5-b758-4077-8164-f2af5fb654a6-1">
        <path
           d="m 3.359375,-5.375 c 0.664063,0 1.15625,0.242188 1.46875,0.71875 0.3125,0.480469 0.46875,1.15625 0.46875,2.03125 0,0.824219 -0.179687,1.492188 -0.53125,2 -0.355469,0.5 -0.867187,0.75 -1.53125,0.75 -0.585937,0 -1.042969,-0.203125 -1.375,-0.609375 v 2.5 L 0.953125,2.125 V -5.25 h 0.78125 l 0.0625,0.703125 C 1.992188,-4.804688 2.226562,-5.007812 2.5,-5.15625 2.769531,-5.300781 3.054688,-5.375 3.359375,-5.375 Z m -0.34375,4.75 c 0.863281,0 1.296875,-0.664062 1.296875,-2 0,-1.34375 -0.398438,-2.015625 -1.1875,-2.015625 -0.261719,0 -0.496094,0.078125 -0.703125,0.234375 -0.210937,0.148438 -0.398437,0.339844 -0.5625,0.578125 v 2.5625 c 0.132813,0.210937 0.300781,0.371094 0.5,0.484375 0.195313,0.105469 0.414063,0.15625 0.65625,0.15625 z m 0,0"
           id="id-106798de-16f4-4411-b913-99c5f419705c-2" />
      </g>
      <g
         id="id-97cdefe8-a392-497a-9fab-217fcab412ce-7">
        <path
           d="M 4.859375,0 H 4.0625 L 4,-0.8125 C 3.800781,-0.488281 3.570312,-0.25 3.3125,-0.09375 3.050781,0.0507812 2.734375,0.125 2.359375,0.125 1.898438,0.125 1.539062,-0.015625 1.28125,-0.296875 1.019531,-0.578125 0.890625,-0.972656 0.890625,-1.484375 V -5.25 H 1.8125 v 3.671875 c 0,0.355469 0.0625,0.609375 0.1875,0.765625 0.125,0.148438 0.332031,0.21875 0.625,0.21875 0.507812,0 0.945312,-0.300781 1.3125,-0.90625 v -3.75 h 0.921875 z m 0,0"
           id="id-9bddab70-825b-4e82-94a0-f5bc8f06fbfd-0" />
      </g>
      <g
         id="id-0ab34daf-7812-4c82-923d-9f81e2b92032-9">
        <path
           d="m 3.234375,-5.375 c 0.1875,0 0.359375,0.023438 0.515625,0.0625 L 3.578125,-4.421875 C 3.421875,-4.453125 3.269531,-4.46875 3.125,-4.46875 c -0.335938,0 -0.601562,0.121094 -0.796875,0.359375 C 2.128906,-3.878906 1.972656,-3.507812 1.859375,-3 v 3 h -0.90625 v -5.25 h 0.78125 l 0.09375,1.0625 C 1.960938,-4.582031 2.148438,-4.878906 2.390625,-5.078125 2.628906,-5.273438 2.910156,-5.375 3.234375,-5.375 Z m 0,0"
           id="id-4dc6186a-f984-43aa-8bc6-d1053b77ed66-3" />
      </g>
      <g
         id="id-b3931355-1106-45ea-945c-25e80c148e08-6">
        <path
           d="M 3.59375,-0.234375 C 3.25,0.00390625 2.859375,0.125 2.421875,0.125 1.972656,0.125 1.625,0 1.375,-0.25 1.125,-0.507812 1,-0.882812 1,-1.375 V -4.546875 H 0.09375 V -5.25 H 1 V -6.4375 L 1.921875,-6.546875 V -5.25 h 1.25 l -0.09375,0.703125 h -1.15625 v 3.125 c 0,0.28125 0.046875,0.484375 0.140625,0.609375 0.101562,0.117188 0.265625,0.171875 0.484375,0.171875 0.207031,0 0.441406,-0.066406 0.703125,-0.203125 z m 0,0"
           id="id-0ff2936f-4b94-4923-8274-0990463c61ad-0" />
      </g>
      <g
         id="id-5da05499-13bc-4c51-81f7-a060686773ab-6">
        <path
           d="M 3.046875,0.03125 C 2.835938,0.644531 2.550781,1.128906 2.1875,1.484375 1.820312,1.835938 1.296875,2.050781 0.609375,2.125 L 0.515625,1.40625 c 0.34375,-0.0625 0.613281,-0.152344 0.8125,-0.265625 0.207031,-0.105469 0.375,-0.246094 0.5,-0.421875 C 1.953125,0.539062 2.066406,0.300781 2.171875,0 h -0.3125 L 0.09375,-5.25 h 0.984375 l 1.40625,4.578125 1.375,-4.578125 H 4.8125 Z m 0,0"
           id="id-3135deb0-ea7e-480f-8cf4-32e5963512a4-2" />
      </g>
      <g
         id="id-b6e35e7d-e531-4a34-a376-42defc005cc8-6">
        <path
           d="m 2.375,-5.375 c 0.351562,0 0.671875,0.054688 0.953125,0.15625 0.289063,0.09375 0.566406,0.242188 0.828125,0.4375 L 3.765625,-4.203125 C 3.523438,-4.347656 3.296875,-4.457031 3.078125,-4.53125 2.867188,-4.601562 2.644531,-4.640625 2.40625,-4.640625 c -0.304688,0 -0.542969,0.0625 -0.71875,0.1875 -0.167969,0.117187 -0.25,0.28125 -0.25,0.5 0,0.210937 0.078125,0.375 0.234375,0.5 0.164063,0.117187 0.460937,0.230469 0.890625,0.34375 0.582031,0.148437 1.019531,0.34375 1.3125,0.59375 0.289062,0.25 0.4375,0.601563 0.4375,1.046875 0,0.511719 -0.203125,0.90625 -0.609375,1.1875 C 3.296875,-0.0078125 2.804688,0.125 2.234375,0.125 1.429688,0.125 0.769531,-0.101562 0.25,-0.5625 L 0.734375,-1.125 c 0.445313,0.335938 0.941406,0.5 1.484375,0.5 0.34375,0 0.613281,-0.066406 0.8125,-0.203125 0.207031,-0.144531 0.3125,-0.34375 0.3125,-0.59375 0,-0.175781 -0.039062,-0.316406 -0.109375,-0.421875 C 3.160156,-1.957031 3.03125,-2.054688 2.84375,-2.140625 2.664062,-2.222656 2.40625,-2.3125 2.0625,-2.40625 1.5,-2.550781 1.09375,-2.742188 0.84375,-2.984375 c -0.242188,-0.25 -0.359375,-0.5625 -0.359375,-0.9375 0,-0.28125 0.078125,-0.53125 0.234375,-0.75 C 0.882812,-4.890625 1.109375,-5.0625 1.390625,-5.1875 1.679688,-5.3125 2.007812,-5.375 2.375,-5.375 Z m 0,0"
           id="id-ad3df8ef-c77f-4dc4-84a9-bdf8f0ba1fad-1" />
      </g>
      <g
         id="id-d0d8a3cc-dc13-4b90-ae63-1bbbb7fe727d-8">
        <path
           d="m 4.921875,-2.78125 c 0,0.15625 -0.011719,0.3125 -0.03125,0.46875 h -3.34375 c 0.039063,0.574219 0.1875,1 0.4375,1.28125 0.25,0.273438 0.570313,0.40625 0.96875,0.40625 0.257813,0 0.492187,-0.035156 0.703125,-0.109375 C 3.875,-0.804688 4.097656,-0.925781 4.328125,-1.09375 l 0.390625,0.5625 C 4.164062,-0.09375 3.554688,0.125 2.890625,0.125 2.160156,0.125 1.585938,-0.113281 1.171875,-0.59375 0.765625,-1.070312 0.5625,-1.734375 0.5625,-2.578125 c 0,-0.539063 0.085938,-1.019531 0.265625,-1.4375 0.175781,-0.425781 0.425781,-0.757813 0.75,-1 C 1.910156,-5.253906 2.300781,-5.375 2.75,-5.375 c 0.695312,0 1.234375,0.230469 1.609375,0.6875 0.375,0.460938 0.5625,1.09375 0.5625,1.90625 z M 4,-3.046875 c 0,-0.519531 -0.105469,-0.914063 -0.3125,-1.1875 -0.199219,-0.269531 -0.507812,-0.40625 -0.921875,-0.40625 -0.75,0 -1.15625,0.554687 -1.21875,1.65625 H 4 Z m 0,0"
           id="id-5e8d9ee0-c5e1-48f2-ab9f-36ecedc2dbf3-7" />
      </g>
    </g>
    <inkscape:path-effect
       effect="spiro"
       id="path-effect12652-0"
       is_visible="true"
       lpeversion="1" />
    <g
       id="id-46f8d3c4-7b12-4053-bfe5-7460d28f71c1-0">
      <g
         id="id-ecff70ad-0ed7-4bbb-b59d-e31cee60ee60-6">
        <path
           d="M 5.40625,3.484375 H 1.21875 V -10.46875 h 4.1875 z m -3.625,-13.4375 V 2.96875 H 4.875 V -9.953125 Z M 3.234375,-4.5 c 0.394531,0 0.675781,0.109375 0.84375,0.328125 0.175781,0.210937 0.265625,0.484375 0.265625,0.828125 0,0.34375 -0.078125,0.617188 -0.234375,0.8125 -0.148437,0.1875 -0.386719,0.308594 -0.71875,0.359375 v 0.453125 c 0,0.074219 -0.027344,0.132812 -0.078125,0.171875 -0.054688,0.042969 -0.109375,0.0625 -0.171875,0.0625 -0.0625,0 -0.121094,-0.019531 -0.171875,-0.0625 C 2.914062,-1.585938 2.890625,-1.644531 2.890625,-1.71875 V -2.5625 c 0.351563,-0.019531 0.59375,-0.082031 0.71875,-0.1875 0.125,-0.113281 0.1875,-0.304688 0.1875,-0.578125 0,-0.21875 -0.046875,-0.382813 -0.140625,-0.5 -0.085938,-0.125 -0.242188,-0.1875 -0.46875,-0.1875 -0.1875,0 -0.359375,0.039063 -0.515625,0.109375 -0.054687,0.023438 -0.09375,0.03125 -0.125,0.03125 -0.074219,0 -0.136719,-0.019531 -0.1875,-0.0625 -0.042969,-0.039062 -0.0625,-0.097656 -0.0625,-0.171875 0,-0.125 0.097656,-0.21875 0.296875,-0.28125 C 2.789062,-4.460938 3.003906,-4.5 3.234375,-4.5 Z m -0.09375,3.296875 c 0.101563,0 0.1875,0.039063 0.25,0.109375 0.0625,0.0625 0.09375,0.148438 0.09375,0.25 0,0.105469 -0.03125,0.195312 -0.09375,0.265625 -0.0625,0.0625 -0.148437,0.09375 -0.25,0.09375 -0.105469,0 -0.1875,-0.03125 -0.25,-0.09375 -0.0625,-0.070313 -0.09375,-0.160156 -0.09375,-0.265625 0,-0.101562 0.03125,-0.1875 0.09375,-0.25 0.0625,-0.070312 0.144531,-0.109375 0.25,-0.109375 z m 0,0"
           id="id-e22e7ad7-59c7-4e16-865f-7f4ad4e6e7c6-1" />
      </g>
      <g
         id="id-1676c60b-7ccc-451f-9e52-1eb81489038d-5">
        <path
           d="m 2.921875,-5.375 c 0.738281,0 1.3125,0.25 1.71875,0.75 0.40625,0.492188 0.609375,1.15625 0.609375,2 0,0.542969 -0.09375,1.023438 -0.28125,1.4375 -0.1875,0.417969 -0.460938,0.742188 -0.8125,0.96875 C 3.8125,0.0078125 3.394531,0.125 2.90625,0.125 2.164062,0.125 1.585938,-0.117188 1.171875,-0.609375 0.765625,-1.109375 0.5625,-1.78125 0.5625,-2.625 c 0,-0.539062 0.09375,-1.019531 0.28125,-1.4375 0.1875,-0.414062 0.457031,-0.738281 0.8125,-0.96875 C 2.007812,-5.257812 2.429688,-5.375 2.921875,-5.375 Z m 0,0.734375 c -0.90625,0 -1.359375,0.671875 -1.359375,2.015625 0,1.335938 0.445312,2 1.34375,2 0.90625,0 1.359375,-0.664062 1.359375,-2 0,-1.34375 -0.449219,-2.015625 -1.34375,-2.015625 z m 0,0"
           id="id-888b6e55-8b72-41a9-b9df-ebf1f33fd9d9-5" />
      </g>
      <g
         id="id-134cd4c2-b6ca-4863-9aac-f2b2e4a0d6d0-4">
        <path
           d="m 3.390625,-5.375 c 0.476563,0 0.851563,0.148438 1.125,0.4375 0.269531,0.28125 0.40625,0.671875 0.40625,1.171875 V 0 H 4 v -3.640625 c 0,-0.375 -0.074219,-0.632813 -0.21875,-0.78125 -0.136719,-0.15625 -0.339844,-0.234375 -0.609375,-0.234375 -0.28125,0 -0.53125,0.085938 -0.75,0.25 -0.210937,0.15625 -0.40625,0.382812 -0.59375,0.671875 V 0 h -0.90625 v -5.25 h 0.78125 l 0.078125,0.78125 c 0.1875,-0.28125 0.414062,-0.5 0.6875,-0.65625 0.28125,-0.164062 0.585938,-0.25 0.921875,-0.25 z m 0,0"
           id="id-add81ac0-72ea-44b9-96dd-632375d55a4b-7" />
      </g>
      <g
         id="id-dcf0b094-431a-4b08-9485-e26e6e14a270-6">
        <path
           d="m 2.375,-5.375 c 0.351562,0 0.671875,0.054688 0.953125,0.15625 0.289063,0.09375 0.566406,0.242188 0.828125,0.4375 L 3.765625,-4.203125 C 3.523438,-4.347656 3.296875,-4.457031 3.078125,-4.53125 2.867188,-4.601562 2.644531,-4.640625 2.40625,-4.640625 c -0.304688,0 -0.542969,0.0625 -0.71875,0.1875 -0.167969,0.117187 -0.25,0.28125 -0.25,0.5 0,0.210937 0.078125,0.375 0.234375,0.5 0.164063,0.117187 0.460937,0.230469 0.890625,0.34375 0.582031,0.148437 1.019531,0.34375 1.3125,0.59375 0.289062,0.25 0.4375,0.601563 0.4375,1.046875 0,0.511719 -0.203125,0.90625 -0.609375,1.1875 C 3.296875,-0.0078125 2.804688,0.125 2.234375,0.125 1.429688,0.125 0.769531,-0.101562 0.25,-0.5625 L 0.734375,-1.125 c 0.445313,0.335938 0.941406,0.5 1.484375,0.5 0.34375,0 0.613281,-0.066406 0.8125,-0.203125 0.207031,-0.144531 0.3125,-0.34375 0.3125,-0.59375 0,-0.175781 -0.039062,-0.316406 -0.109375,-0.421875 C 3.160156,-1.957031 3.03125,-2.054688 2.84375,-2.140625 2.664062,-2.222656 2.40625,-2.3125 2.0625,-2.40625 1.5,-2.550781 1.09375,-2.742188 0.84375,-2.984375 c -0.242188,-0.25 -0.359375,-0.5625 -0.359375,-0.9375 0,-0.28125 0.078125,-0.53125 0.234375,-0.75 C 0.882812,-4.890625 1.109375,-5.0625 1.390625,-5.1875 1.679688,-5.3125 2.007812,-5.375 2.375,-5.375 Z m 0,0"
           id="id-f79c72ac-e3b0-4156-be50-5061b3c346d5-5" />
      </g>
      <g
         id="id-4d2f4d3f-e068-473f-bb47-90d4a767c9fd-6">
        <path
           d="m 1.359375,-7.78125 c 0.195313,0 0.351563,0.0625 0.46875,0.1875 0.125,0.117188 0.1875,0.265625 0.1875,0.453125 0,0.179687 -0.0625,0.324219 -0.1875,0.4375 -0.117187,0.117187 -0.273437,0.171875 -0.46875,0.171875 -0.179687,0 -0.328125,-0.054688 -0.453125,-0.171875 -0.117188,-0.113281 -0.171875,-0.257813 -0.171875,-0.4375 0,-0.1875 0.054687,-0.335937 0.171875,-0.453125 0.125,-0.125 0.273438,-0.1875 0.453125,-0.1875 z M 1.828125,0 h -0.90625 v -5.25 h 0.90625 z m 0,0"
           id="id-7a018058-b38c-43d5-b7bd-6e04cfcf2eed-9" />
      </g>
      <g
         id="id-2eb28cae-22eb-4f79-a07e-3d906fd8642b-3">
        <path
           d="M 3.59375,-0.234375 C 3.25,0.00390625 2.859375,0.125 2.421875,0.125 1.972656,0.125 1.625,0 1.375,-0.25 1.125,-0.507812 1,-0.882812 1,-1.375 V -4.546875 H 0.09375 V -5.25 H 1 V -6.4375 L 1.921875,-6.546875 V -5.25 h 1.25 l -0.09375,0.703125 h -1.15625 v 3.125 c 0,0.28125 0.046875,0.484375 0.140625,0.609375 0.101562,0.117188 0.265625,0.171875 0.484375,0.171875 0.207031,0 0.441406,-0.066406 0.703125,-0.203125 z m 0,0"
           id="id-e82e3739-c8de-4e3f-9880-6ed67a908826-7" />
      </g>
      <g
         id="id-e3d6ba61-4339-41d1-909c-33c2d2bc9fa7-4">
        <path
           d="m 4.921875,-2.78125 c 0,0.15625 -0.011719,0.3125 -0.03125,0.46875 h -3.34375 c 0.039063,0.574219 0.1875,1 0.4375,1.28125 0.25,0.273438 0.570313,0.40625 0.96875,0.40625 0.257813,0 0.492187,-0.035156 0.703125,-0.109375 C 3.875,-0.804688 4.097656,-0.925781 4.328125,-1.09375 l 0.390625,0.5625 C 4.164062,-0.09375 3.554688,0.125 2.890625,0.125 2.160156,0.125 1.585938,-0.113281 1.171875,-0.59375 0.765625,-1.070312 0.5625,-1.734375 0.5625,-2.578125 c 0,-0.539063 0.085938,-1.019531 0.265625,-1.4375 0.175781,-0.425781 0.425781,-0.757813 0.75,-1 C 1.910156,-5.253906 2.300781,-5.375 2.75,-5.375 c 0.695312,0 1.234375,0.230469 1.609375,0.6875 0.375,0.460938 0.5625,1.09375 0.5625,1.90625 z M 4,-3.046875 c 0,-0.519531 -0.105469,-0.914063 -0.3125,-1.1875 -0.199219,-0.269531 -0.507812,-0.40625 -0.921875,-0.40625 -0.75,0 -1.15625,0.554687 -1.21875,1.65625 H 4 Z m 0,0"
           id="id-7d756f3c-5edb-4c0f-8559-d889057b298f-5" />
      </g>
      <g
         id="id-b9ad3092-39af-4bb8-b0b2-1b38a0368e34-2">
        <path
           d="m 2.859375,-5.375 c 0.3125,0 0.597656,0.046875 0.859375,0.140625 0.257812,0.085937 0.507812,0.226563 0.75,0.421875 l -0.4375,0.578125 c -0.1875,-0.125 -0.371094,-0.21875 -0.546875,-0.28125 -0.179687,-0.0625 -0.371094,-0.09375 -0.578125,-0.09375 -0.429688,0 -0.761719,0.171875 -1,0.515625 -0.230469,0.335938 -0.34375,0.828125 -0.34375,1.484375 0,0.667969 0.113281,1.164063 0.34375,1.484375 0.226562,0.3125 0.5625,0.46875 1,0.46875 0.195312,0 0.382812,-0.03125 0.5625,-0.09375 0.175781,-0.0625 0.367188,-0.164062 0.578125,-0.3125 L 4.46875,-0.453125 C 3.988281,-0.0664062 3.453125,0.125 2.859375,0.125 2.148438,0.125 1.585938,-0.113281 1.171875,-0.59375 0.765625,-1.070312 0.5625,-1.734375 0.5625,-2.578125 c 0,-0.5625 0.09375,-1.050781 0.28125,-1.46875 0.1875,-0.414063 0.453125,-0.738281 0.796875,-0.96875 0.34375,-0.238281 0.75,-0.359375 1.21875,-0.359375 z m 0,0"
           id="id-39366b77-77d0-44af-81f0-3e97c4daf280-5" />
      </g>
      <g
         id="id-a135f4f0-e492-4618-a32d-cdd5e172bb0b-4">
        <path
           d="m 3.203125,-5.375 c 0.1875,0 0.359375,0.023438 0.515625,0.0625 L 3.546875,-4.421875 C 3.390625,-4.453125 3.238281,-4.46875 3.09375,-4.46875 c -0.324219,0 -0.589844,0.121094 -0.796875,0.359375 C 2.097656,-3.878906 1.941406,-3.507812 1.828125,-3 v 3 h -0.90625 v -5.25 h 0.78125 l 0.09375,1.0625 C 1.929688,-4.582031 2.117188,-4.878906 2.359375,-5.078125 2.597656,-5.273438 2.878906,-5.375 3.203125,-5.375 Z m 0,0"
           id="id-355c3f0a-b08c-43f5-a368-8033ef2d8c22-7" />
      </g>
      <g
         id="id-ec3e439c-785d-41a9-8565-3a12ab958d7b-4">
        <path
           d="M 1.953125,0.125 C 1.617188,0.125 1.351562,0.0234375 1.15625,-0.171875 0.957031,-0.378906 0.859375,-0.664062 0.859375,-1.03125 v -6.328125 l 0.921875,-0.125 V -1.0625 c 0,0.148438 0.019531,0.257812 0.0625,0.328125 0.050781,0.0625 0.140625,0.09375 0.265625,0.09375 0.125,0 0.234375,-0.019531 0.328125,-0.0625 l 0.25,0.640625 C 2.46875,0.0625 2.222656,0.125 1.953125,0.125 Z m 0,0"
           id="id-4b08bf8b-92a1-43f0-8b35-9c1cb705f7ce-4" />
      </g>
      <g
         id="id-ec9180ab-2357-4dff-a182-e2f6c5ce2274-3">
        <path
           d="m 4.4375,-1.21875 c 0,0.210938 0.035156,0.367188 0.109375,0.46875 0.070313,0.105469 0.179687,0.183594 0.328125,0.234375 L 4.671875,0.125 C 4.390625,0.0820312 4.164062,0.00390625 4,-0.109375 3.84375,-0.234375 3.722656,-0.421875 3.640625,-0.671875 3.285156,-0.140625 2.765625,0.125 2.078125,0.125 1.554688,0.125 1.144531,-0.0195312 0.84375,-0.3125 0.550781,-0.601562 0.40625,-0.988281 0.40625,-1.46875 0.40625,-2.019531 0.601562,-2.445312 1,-2.75 1.40625,-3.050781 1.976562,-3.203125 2.71875,-3.203125 H 3.515625 V -3.59375 C 3.515625,-3.957031 3.425781,-4.21875 3.25,-4.375 3.070312,-4.539062 2.796875,-4.625 2.421875,-4.625 2.035156,-4.625 1.5625,-4.53125 1,-4.34375 L 0.78125,-5.015625 c 0.644531,-0.238281 1.25,-0.359375 1.8125,-0.359375 0.613281,0 1.070312,0.152344 1.375,0.453125 C 4.28125,-4.617188 4.4375,-4.1875 4.4375,-3.625 Z M 2.28125,-0.5625 c 0.53125,0 0.941406,-0.273438 1.234375,-0.828125 V -2.59375 h -0.6875 c -0.96875,0 -1.453125,0.359375 -1.453125,1.078125 0,0.3125 0.070312,0.554687 0.21875,0.71875 0.15625,0.15625 0.382812,0.234375 0.6875,0.234375 z m 0,0"
           id="id-cd10eec6-b6d3-4301-84c7-02aa67085b78-0" />
      </g>
    </g>
  </defs>
  <path
     style="opacity:1;fill:#43a800;stroke:#404040;stroke-width:11.3386;stroke-dasharray:none;stroke-dashoffset:0;stroke-opacity:1"
     d="M 170.92633,38.845496 H 428.08841"
     id="path832"
     inkscape:path-effect="#path-effect834"
     inkscape:original-d="m 170.92633,38.845496 c 85.72144,7.5e-4 257.16208,0 257.16208,0" />
  <path
     style="fill:#307070;fill-opacity:1;fill-rule:nonzero;stroke:none;stroke-width:0.813389"
     d="m 71.311194,38.574746 c 0,19.69288 -15.9659,35.655601 -35.655592,35.655601 C 15.962727,74.230347 0,58.267626 0,38.574746 0,18.88505 15.962727,2.919143 35.655602,2.919143 c 19.689692,0 35.655592,15.965907 35.655592,35.655603 z m 0,0"
     id="path32611" />
  <path
     style="fill:#304070;fill-opacity:1;fill-rule:nonzero;stroke:none;stroke-width:0.768604"
     d="m 461.31117,37.115165 c 0,20.500109 -16.61805,37.115181 -37.11516,37.115181 -20.50011,0 -37.11517,-16.615072 -37.11517,-37.115181 C 387.08084,16.618059 403.6959,0 424.19601,0 c 20.49711,0 37.11516,16.618059 37.11516,37.115165 z m 0,0"
     id="path9341" />
  <path
     style="fill:#304070;fill-opacity:1;fill-rule:nonzero;stroke:none;stroke-width:0.768604"
     d="m 341.31117,37.115165 c 0,20.500109 -16.61805,37.115181 -37.11516,37.115181 -20.50011,0 -37.11517,-16.615072 -37.11517,-37.115181 C 267.08084,16.618059 283.6959,0 304.19601,0 c 20.49711,0 37.11516,16.618059 37.11516,37.115165 z m 0,0"
     id="path8295" />
  <g
     transform="matrix(7.05177,0,0,7.05177,409.09207,14.1161)"
     ns2:version="1.6.0"
     ns2:texconverter="pdflatex"
     ns2:pdfconverter="inkscape"
     ns2:text="2"
     ns2:preamble="/home/kirito/.config/inkscape/textext.tex"
     ns2:scale="9.402392397113081"
     ns2:alignment="middle center"
     ns2:stroke-to-path="0"
     ns2:inkscapeversion="1.1.2"
     ns2:jacobian_sqrt="7.05177"
     style="fill:#fffff0;fill-opacity:1;stroke-width:0"
     id="g5585">
    <defs
       id="id-6a4a5511-3f68-49db-9157-c4ad87183321"
       style="fill:#fffff0;fill-opacity:1;stroke-width:0">
      <g
         id="id-57d23a1f-89b1-4436-bbc7-2a4cdee42d2d"
         style="fill:#fffff0;fill-opacity:1;stroke-width:0">
        <g
           id="id-443c3c25-1e2b-40b0-9286-a500f1a904b5"
           style="fill:#fffff0;fill-opacity:1;stroke-width:0">
          <path
             d="M 5.40625,-10.46875 H 1.21875 V 3.484375 h 4.1875 z M 4.875,-9.953125 V 2.96875 H 1.78125 V -9.953125 Z M 3.234375,-4.5 c -0.390625,0 -0.9375,0.125 -0.9375,0.390625 0,0.125 0.09375,0.234375 0.25,0.234375 0.03125,0 0.078125,-0.015625 0.125,-0.03125 0.171875,-0.078125 0.3125,-0.109375 0.515625,-0.109375 0.5,0 0.609375,0.296875 0.609375,0.6875 0,0.53125 -0.1875,0.71875 -0.90625,0.765625 v 0.84375 c 0,0.140625 0.125,0.234375 0.25,0.234375 0.125,0 0.25,-0.09375 0.25,-0.234375 V -2.171875 C 4.0625,-2.265625 4.34375,-2.65625 4.34375,-3.34375 4.34375,-3.953125 4.09375,-4.5 3.234375,-4.5 Z m -0.09375,3.296875 c -0.203125,0 -0.34375,0.15625 -0.34375,0.359375 0,0.203125 0.140625,0.359375 0.34375,0.359375 0.203125,0 0.34375,-0.15625 0.34375,-0.359375 0,-0.203125 -0.140625,-0.359375 -0.34375,-0.359375 z m 0,0"
             id="id-52a0cf9d-15e8-47c4-8c72-12bce957fc6c"
             style="fill:#fffff0;fill-opacity:1;stroke-width:0" />
        </g>
        <g
           id="id-34e0aa38-a64d-4524-83f6-c59d6df62f79"
           style="fill:#fffff0;fill-opacity:1;stroke-width:0">
          <path
             d="m 2.21875,-5.71875 c -0.875,0 -1.515625,0.359375 -2.0625,1.046875 L 0.734375,-4.1875 c 0.484375,-0.578125 0.921875,-0.78125 1.46875,-0.78125 0.65625,0 1.125,0.40625 1.125,1.046875 0,0.796875 -0.3125,1.234375 -3.03125,3.1875 V 0 H 4.28125 L 4.390625,-0.765625 H 1.46875 c 2.578125,-1.640625 2.828125,-2.28125 2.828125,-3.1875 0,-1.015625 -0.8125,-1.765625 -2.078125,-1.765625 z m 0,0"
             id="id-e40e3187-e742-497f-8c55-b1bcdcfb6095"
             style="fill:#fffff0;fill-opacity:1;stroke-width:0" />
        </g>
      </g>
    </defs>
    <g
       fill-opacity="1"
       id="id-70b7229c-a90e-43af-807a-c81d317eb872"
       transform="translate(-148.868,-129.046)"
       style="fill:#fffff0;fill-opacity:1;stroke-width:0">
      <g
         transform="translate(148.712,134.765)"
         style="fill:#fffff0;fill-opacity:1;stroke-width:0"
         id="g6493">
        <path
           d="m 2.21875,-5.71875 c -0.875,0 -1.515625,0.359375 -2.0625,1.046875 L 0.734375,-4.1875 c 0.484375,-0.578125 0.921875,-0.78125 1.46875,-0.78125 0.65625,0 1.125,0.40625 1.125,1.046875 0,0.796875 -0.3125,1.234375 -3.03125,3.1875 V 0 H 4.28125 L 4.390625,-0.765625 H 1.46875 c 2.578125,-1.640625 2.828125,-2.28125 2.828125,-3.1875 0,-1.015625 -0.8125,-1.765625 -2.078125,-1.765625 z m 0,0"
           id="id-81eae40f-0dfb-4709-a454-109ec118b029"
           style="fill:#fffff0;fill-opacity:1;stroke-width:0" />
      </g>
    </g>
  </g>
  <path
     style="fill:none;fill-opacity:1;stroke:#ffffff;stroke-width:4.252;stroke-miterlimit:4.5;stroke-dasharray:none;stroke-dashoffset:0;stroke-opacity:1;marker-end:url(#RoundedArrow)"
     d="M 35.655599,63.105269 V 34.176384"
     id="path97005-9"
     inkscape:path-effect="#path-effect97007-1"
     inkscape:original-d="m 35.655599,63.105269 c 7.5e-4,-9.643719 7.5e-4,-19.286675 0,-28.928885" />
  <g
     ns2:version="1.8.2"
     ns2:texconverter="pdflatex"
     ns2:pdfconverter="inkscape"
     ns2:text="1"
     ns2:preamble="/home/kirito/.config/textext/textext.tex"
     ns2:scale="9.402392397113081"
     ns2:alignment="middle center"
     ns2:stroke-to-path="0"
     ns2:inkscapeversion="1.2.2"
     transform="matrix(7.05177,0,0,7.05177,289.3846,17.446643)"
     ns2:jacobian_sqrt="7.05177"
     style="fill:#fffff0;fill-opacity:1;stroke-width:0"
     id="g5204">
    <defs
       id="id-127b8429-9cee-4da9-8018-7e05ed40c083"
       style="fill:#fffff0;fill-opacity:1;stroke-width:0">
      <g
         id="id-f20573a5-cc33-421a-984e-e3ea6b878f88"
         style="fill:#fffff0;fill-opacity:1;stroke-width:0">
        <g
           id="id-7686338f-900a-4030-b3b6-42fa1422f144"
           style="fill:#fffff0;fill-opacity:1;stroke-width:0">
          <path
             d="M 5.40625,-10.46875 H 1.21875 V 3.484375 h 4.1875 z M 4.875,-9.953125 V 2.96875 H 1.78125 V -9.953125 Z M 3.234375,-4.5 c -0.390625,0 -0.9375,0.125 -0.9375,0.390625 0,0.125 0.09375,0.234375 0.25,0.234375 0.03125,0 0.078125,-0.015625 0.125,-0.03125 0.171875,-0.078125 0.3125,-0.109375 0.515625,-0.109375 0.5,0 0.609375,0.296875 0.609375,0.6875 0,0.53125 -0.1875,0.71875 -0.90625,0.765625 v 0.84375 c 0,0.140625 0.125,0.234375 0.25,0.234375 0.125,0 0.25,-0.09375 0.25,-0.234375 V -2.171875 C 4.0625,-2.265625 4.34375,-2.65625 4.34375,-3.34375 4.34375,-3.953125 4.09375,-4.5 3.234375,-4.5 Z m -0.09375,3.296875 c -0.203125,0 -0.34375,0.15625 -0.34375,0.359375 0,0.203125 0.140625,0.359375 0.34375,0.359375 0.203125,0 0.34375,-0.15625 0.34375,-0.359375 0,-0.203125 -0.140625,-0.359375 -0.34375,-0.359375 z m 0,0"
             id="id-1cfd6f3c-aa1c-4a30-88d1-514ccb72cf95"
             style="fill:#fffff0;fill-opacity:1;stroke-width:0" />
        </g>
        <g
           id="id-f3ea64c0-e284-462d-8387-54a9fa06933e"
           style="fill:#fffff0;fill-opacity:1;stroke-width:0">
          <path
             d="m 3.21875,-5.625 h -0.8125 l -2.0625,1.28125 0.40625,0.640625 1.546875,-0.9375 V 0 H 3.21875 Z m 0,0"
             id="id-621e1c20-c6ed-49dd-af35-2a1d6720da8c"
             style="fill:#fffff0;fill-opacity:1;stroke-width:0" />
        </g>
      </g>
    </defs>
    <g
       fill-opacity="1"
       id="id-4e42b888-44c0-4760-b753-c2054e5f8c30"
       transform="translate(-149.056,-129.14)"
       style="fill:#fffff0;fill-opacity:1;stroke-width:0">
      <g
         transform="translate(148.712,134.765)"
         style="fill:#fffff0;fill-opacity:1;stroke-width:0"
         id="g18214">
        <path
           d="m 3.21875,-5.625 h -0.8125 l -2.0625,1.28125 0.40625,0.640625 1.546875,-0.9375 V 0 H 3.21875 Z m 0,0"
           id="id-2823e9d3-ba84-4539-8025-a8f3e214e44f"
           style="fill:#fffff0;fill-opacity:1;stroke-width:0" />
      </g>
    </g>
  </g>
  <path
     style="fill:#304070;fill-opacity:1;fill-rule:nonzero;stroke:none;stroke-width:0.768604"
     d="m 221.31117,37.115165 c 0,20.500109 -16.61805,37.115181 -37.11516,37.115181 -20.50011,0 -37.11517,-16.615072 -37.11517,-37.115181 C 147.08084,16.618059 163.6959,0 184.19601,0 c 20.49711,0 37.11516,16.618059 37.11516,37.115165 z m 0,0"
     id="path2477" />
  <g
     ns2:version="1.8.2"
     ns2:texconverter="pdflatex"
     ns2:pdfconverter="inkscape"
     ns2:text="0"
     ns2:preamble="/home/kirito/.config/textext/textext.tex"
     ns2:scale="9.402392397113081"
     ns2:alignment="middle center"
     ns2:stroke-to-path="0"
     ns2:inkscapeversion="1.2.2"
     transform="matrix(7.05177,0,0,7.05177,165.73844,16.50902)"
     ns2:jacobian_sqrt="7.05177"
     style="fill:#fffff0;fill-opacity:1;stroke-width:0"
     id="g2497">
    <defs
       id="id-0ffd4060-48c7-4210-ab75-774f371fd68b"
       style="fill:#fffff0;fill-opacity:1;stroke-width:0">
      <g
         id="id-b7813012-9ac3-4e46-adaf-3f9a7fc6e413"
         style="fill:#fffff0;fill-opacity:1;stroke-width:0">
        <g
           id="id-37522081-2d19-4859-be81-0d309089d9f0"
           style="fill:#fffff0;fill-opacity:1;stroke-width:0">
          <path
             d="M 5.40625,-10.46875 H 1.21875 V 3.484375 h 4.1875 z M 4.875,-9.953125 V 2.96875 H 1.78125 V -9.953125 Z M 3.234375,-4.5 c -0.390625,0 -0.9375,0.125 -0.9375,0.390625 0,0.125 0.09375,0.234375 0.25,0.234375 0.03125,0 0.078125,-0.015625 0.125,-0.03125 0.171875,-0.078125 0.3125,-0.109375 0.515625,-0.109375 0.5,0 0.609375,0.296875 0.609375,0.6875 0,0.53125 -0.1875,0.71875 -0.90625,0.765625 v 0.84375 c 0,0.140625 0.125,0.234375 0.25,0.234375 0.125,0 0.25,-0.09375 0.25,-0.234375 V -2.171875 C 4.0625,-2.265625 4.34375,-2.65625 4.34375,-3.34375 4.34375,-3.953125 4.09375,-4.5 3.234375,-4.5 Z m -0.09375,3.296875 c -0.203125,0 -0.34375,0.15625 -0.34375,0.359375 0,0.203125 0.140625,0.359375 0.34375,0.359375 0.203125,0 0.34375,-0.15625 0.34375,-0.359375 0,-0.203125 -0.140625,-0.359375 -0.34375,-0.359375 z m 0,0"
             id="id-1a598d5f-3146-4a0f-9b11-597520cc60b0"
             style="fill:#fffff0;fill-opacity:1;stroke-width:0" />
        </g>
        <g
           id="id-2ab91d0b-289a-435f-984a-26302da98906"
           style="fill:#fffff0;fill-opacity:1;stroke-width:0">
          <path
             d="m 3.015625,-5.71875 c -1.515625,0 -2.609375,1.046875 -2.609375,2.90625 0,1.859375 1.09375,2.9375 2.609375,2.9375 1.515625,0 2.625,-1.078125 2.625,-2.9375 0,-1.859375 -1.109375,-2.90625 -2.625,-2.90625 z m 0,0.71875 c 0.859375,0 1.703125,0.578125 1.703125,2.1875 0,1.609375 -0.84375,2.203125 -1.703125,2.203125 -0.859375,0 -1.6875,-0.59375 -1.6875,-2.203125 0,-1.609375 0.828125,-2.1875 1.6875,-2.1875 z m 0,0"
             id="id-b4aa098a-81f1-47ff-b285-a1e46f6484ed"
             style="fill:#fffff0;fill-opacity:1;stroke-width:0" />
        </g>
      </g>
    </defs>
    <g
       fill-opacity="1"
       id="id-aa16f985-3394-42c3-ab82-720f484690ea"
       transform="translate(-149.118,-129.046)"
       style="fill:#fffff0;fill-opacity:1;stroke-width:0">
      <g
         transform="translate(148.712,134.765)"
         style="fill:#fffff0;fill-opacity:1;stroke-width:0"
         id="g3107">
        <path
           d="m 3.015625,-5.71875 c -1.515625,0 -2.609375,1.046875 -2.609375,2.90625 0,1.859375 1.09375,2.9375 2.609375,2.9375 1.515625,0 2.625,-1.078125 2.625,-2.9375 0,-1.859375 -1.109375,-2.90625 -2.625,-2.90625 z m 0,0.71875 c 0.859375,0 1.703125,0.578125 1.703125,2.1875 0,1.609375 -0.84375,2.203125 -1.703125,2.203125 -0.859375,0 -1.6875,-0.59375 -1.6875,-2.203125 0,-1.609375 0.828125,-2.1875 1.6875,-2.1875 z m 0,0"
           id="id-8654a39a-0486-4d18-98c8-2d4255d60fb2"
           style="fill:#fffff0;fill-opacity:1;stroke-width:0" />
      </g>
    </g>
  </g>
</svg>
