<?xml version="1.0" encoding="UTF-8" standalone="no"?>
<!-- Created with Inkscape (http://www.inkscape.org/) -->

<svg
   width="179.44469mm"
   height="54.415932mm"
   viewBox="0 0 179.44468 54.415932"
   version="1.1"
   id="svg65270"
   sodipodi:docname="nonlocal.svg"
   inkscape:version="1.1.2 (0a00cf5339, 2022-02-04)"
   xmlns:inkscape="http://www.inkscape.org/namespaces/inkscape"
   xmlns:sodipodi="http://sodipodi.sourceforge.net/DTD/sodipodi-0.dtd"
   xmlns="http://www.w3.org/2000/svg"
   xmlns:svg="http://www.w3.org/2000/svg"
   xmlns:ns2="http://www.iki.fi/pav/software/textext/">
  <sodipodi:namedview
     id="namedview65272"
     pagecolor="#ffffff"
     bordercolor="#666666"
     borderopacity="1.0"
     inkscape:pageshadow="2"
     inkscape:pageopacity="0.0"
     inkscape:pagecheckerboard="0"
     inkscape:document-units="mm"
     showgrid="false"
     inkscape:zoom="1.5803732"
     inkscape:cx="316.69735"
     inkscape:cy="59.163241"
     inkscape:window-width="1832"
     inkscape:window-height="1138"
     inkscape:window-x="0"
     inkscape:window-y="0"
     inkscape:window-maximized="1"
     inkscape:current-layer="layer1" />
  <defs
     id="defs65267">
    <inkscape:path-effect
       effect="spiro"
       id="path-effect71633"
       is_visible="true"
       lpeversion="1" />
    <marker
       style="overflow:visible"
       id="Arrow2Mend"
       refX="0"
       refY="0"
       orient="auto"
       inkscape:stockid="Arrow2Mend"
       inkscape:isstock="true">
      <path
         transform="scale(-0.6)"
         d="M 8.7185878,4.0337352 -2.2072895,0.01601326 8.7185884,-4.0017078 c -1.7454984,2.3720609 -1.7354408,5.6174519 -6e-7,8.035443 z"
         style="fill:context-stroke;fill-rule:evenodd;stroke:context-stroke;stroke-width:0.625;stroke-linejoin:round"
         id="path38582" />
    </marker>
    <inkscape:path-effect
       effect="spiro"
       id="path-effect71079"
       is_visible="true"
       lpeversion="1" />
    <inkscape:path-effect
       effect="spiro"
       id="path-effect70849"
       is_visible="true"
       lpeversion="1" />
    <inkscape:path-effect
       effect="spiro"
       id="path-effect71633-7"
       is_visible="true"
       lpeversion="1" />
  </defs>
  <g
     inkscape:label="Layer 1"
     inkscape:groupmode="layer"
     id="layer1"
     transform="translate(-13.110494,-96.43101)">
    <path
       style="fill:none;stroke:#c12035;stroke-width:5;stroke-linecap:butt;stroke-linejoin:miter;stroke-miterlimit:4;stroke-dasharray:none;stroke-opacity:1"
       d="m 16.097616,129.59425 c 163.143954,0 163.143954,0 163.143954,0"
       id="path65387" />
    <path
       style="fill:none;stroke:#65b6ff;stroke-width:5;stroke-linecap:butt;stroke-linejoin:miter;stroke-miterlimit:4;stroke-dasharray:none;stroke-opacity:1"
       d="m 41.490425,129.50184 c 46.433373,0 46.433373,0 46.433373,0"
       id="path65387-7" />
    <path
       style="fill:none;fill-opacity:1;stroke:#00787e;stroke-width:2;stroke-miterlimit:4;stroke-dasharray:none;stroke-dashoffset:0;stroke-opacity:1"
       d="m 23.918568,111.35675 c 2.597741,-2.59774 5.195568,-5.18687 7.793309,-7.23749 2.597741,-2.05062 5.195482,-3.54637 7.793223,-4.184815 2.597827,-0.63845 5.195569,-0.410986 7.79331,0.631555 2.597741,1.04254 5.195482,2.89844 7.793309,5.18256 2.597741,2.28411 5.195482,4.98525 7.793223,7.54766 2.597827,2.56242 5.195568,4.96974 7.793309,6.73 2.597741,1.76026 5.195482,2.85795 7.793309,3.07335 2.597742,0.2154 5.195483,-0.45837 7.793224,-1.8783 2.597741,-1.41992 5.195568,-3.58169 7.793309,-6.03813 2.597741,-2.4573 5.195482,-5.19462 7.793227,-7.65192 2.59774,-2.4573 5.19548,-4.61735 7.79322,-6.03899 2.59774,-1.42165 5.19548,-2.091981 7.79322,-1.878303 2.59774,0.213678 5.19548,1.314813 7.79323,3.074203 2.59774,1.75854 5.19548,4.16673 7.79322,6.72914 2.59774,2.56242 5.19548,5.26269 7.79322,7.54767 2.59774,2.28498 5.19548,4.13829 7.79322,5.18256 2.59775,1.04426 5.19549,1.26914 7.79323,0.63242 2.59774,-0.63759 5.19634,-2.13592 7.79408,-4.18568 2.59774,-2.04976 5.19548,-4.63975 7.79323,-7.23749"
       title="sin(x)"
       id="path65902" />
    <g
       transform="matrix(1.39464,0,0,1.39464,48.291934,123.87492)"
       ns2:version="1.3.0"
       ns2:texconverter="pdflatex"
       ns2:pdfconverter="inkscape"
       ns2:text="$A$"
       ns2:preamble="/usr/share/inkscape/extensions/textext/default_packages.tex"
       ns2:scale="3.9533053268617113"
       ns2:alignment="middle center"
       ns2:jacobian_sqrt="1.39464"
       id="g67567">
      <defs
         id="id-f5202e7e-26b7-4a2b-ba99-1ac0216a896a">
        <g
           id="id-bb724b6d-3f5c-49aa-b137-70945dadca8b">
          <symbol
             overflow="visible"
             id="id-b01a6a07-ff37-4f0d-bcc3-594091a978dd">
            <path
               style="stroke:none"
               d=""
               id="id-4e72dfc5-86bf-49e1-8b69-c41c7d046a88" />
          </symbol>
          <symbol
             overflow="visible"
             id="id-3bb4bdbc-3f8a-473d-b8b6-9f8f398af498">
            <path
               style="stroke:none"
               d="M 1.78125,-1.140625 C 1.390625,-0.484375 1,-0.34375 0.5625,-0.3125 0.4375,-0.296875 0.34375,-0.296875 0.34375,-0.109375 0.34375,-0.046875 0.40625,0 0.484375,0 0.75,0 1.0625,-0.03125 1.328125,-0.03125 c 0.34375,0 0.6875,0.03125 1,0.03125 0.0625,0 0.1875,0 0.1875,-0.1875 0,-0.109375 -0.078125,-0.125 -0.15625,-0.125 -0.21875,-0.015625 -0.46875,-0.09375 -0.46875,-0.34375 0,-0.125 0.0625,-0.234375 0.140625,-0.375 l 0.765625,-1.265625 h 2.5 c 0.015625,0.203125 0.15625,1.5625 0.15625,1.65625 0,0.296875 -0.515625,0.328125 -0.71875,0.328125 C 4.59375,-0.3125 4.5,-0.3125 4.5,-0.109375 4.5,0 4.609375,0 4.640625,0 5.046875,0 5.46875,-0.03125 5.875,-0.03125 6.125,-0.03125 6.765625,0 7.015625,0 7.0625,0 7.1875,0 7.1875,-0.203125 7.1875,-0.3125 7.09375,-0.3125 6.953125,-0.3125 6.34375,-0.3125 6.34375,-0.375 6.3125,-0.671875 l -0.609375,-6.21875 c -0.015625,-0.203125 -0.015625,-0.25 -0.1875,-0.25 -0.15625,0 -0.203125,0.078125 -0.265625,0.171875 z M 2.984375,-2.609375 4.9375,-5.90625 5.265625,-2.609375 Z m 0,0"
               id="id-500be722-1012-43f6-b71e-cea506294539" />
          </symbol>
        </g>
      </defs>
      <g
         id="id-96976587-1966-4d71-b65f-45d7cf734b55"
         transform="translate(-149.056,-127.624)">
        <g
           style="fill:#000000;fill-opacity:1"
           id="id-dfdbcd47-740a-43cb-b18d-a893b62d5eee">
          <g
             transform="translate(148.712,134.765)"
             id="g67700">
            <path
               style="stroke:none"
               d="M 1.78125,-1.140625 C 1.390625,-0.484375 1,-0.34375 0.5625,-0.3125 0.4375,-0.296875 0.34375,-0.296875 0.34375,-0.109375 0.34375,-0.046875 0.40625,0 0.484375,0 0.75,0 1.0625,-0.03125 1.328125,-0.03125 c 0.34375,0 0.6875,0.03125 1,0.03125 0.0625,0 0.1875,0 0.1875,-0.1875 0,-0.109375 -0.078125,-0.125 -0.15625,-0.125 -0.21875,-0.015625 -0.46875,-0.09375 -0.46875,-0.34375 0,-0.125 0.0625,-0.234375 0.140625,-0.375 l 0.765625,-1.265625 h 2.5 c 0.015625,0.203125 0.15625,1.5625 0.15625,1.65625 0,0.296875 -0.515625,0.328125 -0.71875,0.328125 C 4.59375,-0.3125 4.5,-0.3125 4.5,-0.109375 4.5,0 4.609375,0 4.640625,0 5.046875,0 5.46875,-0.03125 5.875,-0.03125 6.125,-0.03125 6.765625,0 7.015625,0 7.0625,0 7.1875,0 7.1875,-0.203125 7.1875,-0.3125 7.09375,-0.3125 6.953125,-0.3125 6.34375,-0.3125 6.34375,-0.375 6.3125,-0.671875 l -0.609375,-6.21875 c -0.015625,-0.203125 -0.015625,-0.25 -0.1875,-0.25 -0.15625,0 -0.203125,0.078125 -0.265625,0.171875 z M 2.984375,-2.609375 4.9375,-5.90625 5.265625,-2.609375 Z m 0,0"
               id="id-2bba178e-db8a-4433-af31-f6dcbb02e2f1" />
          </g>
        </g>
      </g>
    </g>
    <path
       style="fill:none;stroke:#000000;stroke-width:0.6;stroke-linecap:butt;stroke-linejoin:miter;stroke-miterlimit:4;stroke-dasharray:none;stroke-opacity:1;marker-end:url(#Arrow2Mend)"
       d="M 181.83694,138.9757 V 99.41188"
       id="path70847"
       inkscape:path-effect="#path-effect70849"
       inkscape:original-d="m 181.83694,138.9757 c 2.6e-4,-13.1882 2.6e-4,-26.37615 0,-39.56382" />
    <path
       style="fill:none;stroke:#000000;stroke-width:0.6;stroke-linecap:butt;stroke-linejoin:miter;stroke-miterlimit:4;stroke-dasharray:none;stroke-opacity:1;marker-end:url(#Arrow2Mend)"
       d="M 181.83694,138.59777 H 14.017597"
       id="path71077"
       inkscape:path-effect="#path-effect71079"
       inkscape:original-d="m 181.83694,138.59777 c -55.93952,2.6e-4 -111.879299,2.6e-4 -167.819343,0" />
    <path
       style="fill:none;stroke:#000000;stroke-width:0.5;stroke-linecap:butt;stroke-linejoin:miter;stroke-miterlimit:4;stroke-dasharray:1, 0.5;stroke-dashoffset:0;stroke-opacity:1"
       d="M 41.490424,129.50184 V 96.431014"
       id="path71631"
       inkscape:path-effect="#path-effect71633"
       inkscape:original-d="m 41.490424,129.50184 c 2.65e-4,-11.02334 2.65e-4,-22.04695 0,-33.070826" />
    <path
       style="fill:none;stroke:#000000;stroke-width:0.5;stroke-linecap:butt;stroke-linejoin:miter;stroke-miterlimit:4;stroke-dasharray:1, 0.5;stroke-dashoffset:0;stroke-opacity:1"
       d="M 87.923798,129.50184 V 96.43101"
       id="path71631-0"
       inkscape:path-effect="#path-effect71633-7"
       inkscape:original-d="m 87.923798,129.50184 c 2.65e-4,-11.02334 2.65e-4,-22.04695 0,-33.07083" />
    <g
       transform="matrix(1.11636,0,0,1.11636,76.1913,142.021)"
       ns2:version="1.3.0"
       ns2:texconverter="xelatex"
       ns2:pdfconverter="inkscape"
       ns2:text="distance"
       ns2:preamble="/home/abhirup/.config/textext/beamer_preamble.tex"
       ns2:scale="3.1644811096020047"
       ns2:alignment="middle center"
       ns2:inkscapeversion="1.1.2"
       ns2:jacobian_sqrt="1.11636"
       id="g71373">
      <defs
         id="id-805eda8b-521f-4d19-aa6e-35066ff29ea9">
        <g
           id="id-3faa121f-3644-431d-85b9-6b701ec28b40">
          <symbol
             overflow="visible"
             id="id-f44ef29b-7554-4a84-9be4-5260471620c5">
            <path
               style="stroke:none"
               d="M 5.40625,-10.46875 V 3.484375 H 1.21875 V -10.46875 Z M 4.875,-9.953125 H 1.78125 V 2.96875 H 4.875 Z M 3.234375,-4.5 c 0.394531,0 0.675781,0.109375 0.84375,0.328125 0.175781,0.210937 0.265625,0.484375 0.265625,0.828125 0,0.34375 -0.078125,0.617188 -0.234375,0.8125 -0.148437,0.1875 -0.386719,0.308594 -0.71875,0.359375 v 0.453125 c 0,0.074219 -0.027344,0.132812 -0.078125,0.171875 -0.054688,0.042969 -0.109375,0.0625 -0.171875,0.0625 -0.0625,0 -0.121094,-0.019531 -0.171875,-0.0625 C 2.914062,-1.585938 2.890625,-1.644531 2.890625,-1.71875 V -2.5625 c 0.351563,-0.019531 0.59375,-0.082031 0.71875,-0.1875 0.125,-0.113281 0.1875,-0.304688 0.1875,-0.578125 0,-0.21875 -0.046875,-0.382813 -0.140625,-0.5 -0.085938,-0.125 -0.242188,-0.1875 -0.46875,-0.1875 -0.1875,0 -0.359375,0.039063 -0.515625,0.109375 -0.054687,0.023438 -0.09375,0.03125 -0.125,0.03125 -0.074219,0 -0.136719,-0.019531 -0.1875,-0.0625 -0.042969,-0.039062 -0.0625,-0.097656 -0.0625,-0.171875 0,-0.125 0.097656,-0.21875 0.296875,-0.28125 C 2.789062,-4.460938 3.003906,-4.5 3.234375,-4.5 Z m -0.09375,3.296875 c 0.101563,0 0.1875,0.039063 0.25,0.109375 0.0625,0.0625 0.09375,0.148438 0.09375,0.25 0,0.105469 -0.03125,0.195312 -0.09375,0.265625 -0.0625,0.0625 -0.148437,0.09375 -0.25,0.09375 -0.105469,0 -0.1875,-0.03125 -0.25,-0.09375 -0.0625,-0.070313 -0.09375,-0.160156 -0.09375,-0.265625 0,-0.101562 0.03125,-0.1875 0.09375,-0.25 0.0625,-0.070312 0.144531,-0.109375 0.25,-0.109375 z m 0,0"
               id="id-52ea16f8-ec4d-4995-a886-548fd7e0aadf" />
          </symbol>
          <symbol
             overflow="visible"
             id="id-f532731b-a86b-44cc-bc49-6191e07c2fc4">
            <path
               style="stroke:none"
               d="M 5.015625,-7.359375 V 0 h -0.8125 L 4.109375,-0.734375 C 3.941406,-0.460938 3.726562,-0.25 3.46875,-0.09375 3.207031,0.0507812 2.921875,0.125 2.609375,0.125 c -0.625,0 -1.117187,-0.242188 -1.46875,-0.734375 -0.34375,-0.5 -0.515625,-1.164063 -0.515625,-2 0,-0.53125 0.078125,-1.003906 0.234375,-1.421875 0.164063,-0.425781 0.40625,-0.753906 0.71875,-0.984375 C 1.890625,-5.253906 2.257812,-5.375 2.6875,-5.375 c 0.53125,0 1,0.21875 1.40625,0.65625 v -2.765625 z m -2.21875,6.75 c 0.28125,0 0.519531,-0.0625 0.71875,-0.1875 0.195313,-0.132813 0.390625,-0.332031 0.578125,-0.59375 v -2.5625 C 3.925781,-4.179688 3.742188,-4.351562 3.546875,-4.46875 3.347656,-4.582031 3.125,-4.640625 2.875,-4.640625 c -0.40625,0 -0.71875,0.171875 -0.9375,0.515625 -0.21875,0.335938 -0.328125,0.835938 -0.328125,1.5 0,0.679688 0.097656,1.183594 0.296875,1.515625 0.207031,0.335937 0.503906,0.5 0.890625,0.5 z m 0,0"
               id="id-9e4273ae-7c67-4e11-a8d6-8b741e6d78e3" />
          </symbol>
          <symbol
             overflow="visible"
             id="id-9ec1d8b8-8212-4b65-a946-658c16adc8e0">
            <path
               style="stroke:none"
               d="M 1.859375,-5.25 V 0 h -0.90625 v -5.25 z m -0.46875,-2.53125 c 0.195313,0 0.351563,0.0625 0.46875,0.1875 0.125,0.117188 0.1875,0.265625 0.1875,0.453125 0,0.179687 -0.0625,0.324219 -0.1875,0.4375 -0.117187,0.117187 -0.273437,0.171875 -0.46875,0.171875 -0.179687,0 -0.328125,-0.054688 -0.453125,-0.171875 -0.117188,-0.113281 -0.171875,-0.257813 -0.171875,-0.4375 0,-0.1875 0.054687,-0.335937 0.171875,-0.453125 0.125,-0.125 0.273438,-0.1875 0.453125,-0.1875 z m 0,0"
               id="id-db3f16d1-5597-43f2-a6b1-cc25bf65efb2" />
          </symbol>
          <symbol
             overflow="visible"
             id="id-0b1aad2c-aad8-4bef-89a7-bd8d6ff99e1d">
            <path
               style="stroke:none"
               d="m 2.375,-5.375 c 0.351562,0 0.671875,0.054688 0.953125,0.15625 0.289063,0.09375 0.566406,0.242188 0.828125,0.4375 L 3.765625,-4.203125 C 3.523438,-4.347656 3.296875,-4.457031 3.078125,-4.53125 2.867188,-4.601562 2.644531,-4.640625 2.40625,-4.640625 c -0.304688,0 -0.542969,0.0625 -0.71875,0.1875 -0.167969,0.117187 -0.25,0.28125 -0.25,0.5 0,0.210937 0.078125,0.375 0.234375,0.5 0.164063,0.117187 0.460937,0.230469 0.890625,0.34375 0.582031,0.148437 1.019531,0.34375 1.3125,0.59375 0.289062,0.25 0.4375,0.601563 0.4375,1.046875 0,0.511719 -0.203125,0.90625 -0.609375,1.1875 C 3.296875,-0.0078125 2.804688,0.125 2.234375,0.125 1.429688,0.125 0.769531,-0.101562 0.25,-0.5625 L 0.734375,-1.125 c 0.445313,0.335938 0.941406,0.5 1.484375,0.5 0.34375,0 0.613281,-0.066406 0.8125,-0.203125 0.207031,-0.144531 0.3125,-0.34375 0.3125,-0.59375 0,-0.175781 -0.039062,-0.316406 -0.109375,-0.421875 C 3.160156,-1.957031 3.03125,-2.054688 2.84375,-2.140625 2.664062,-2.222656 2.40625,-2.3125 2.0625,-2.40625 1.5,-2.550781 1.09375,-2.742188 0.84375,-2.984375 c -0.242188,-0.25 -0.359375,-0.5625 -0.359375,-0.9375 0,-0.28125 0.078125,-0.53125 0.234375,-0.75 C 0.882812,-4.890625 1.109375,-5.0625 1.390625,-5.1875 1.679688,-5.3125 2.007812,-5.375 2.375,-5.375 Z m 0,0"
               id="id-c5b0222e-bd66-487b-8807-c72ff2d82fb6" />
          </symbol>
          <symbol
             overflow="visible"
             id="id-a6d3457f-890a-4353-87f2-3fdcf5e909d2">
            <path
               style="stroke:none"
               d="M 3.59375,-0.234375 C 3.25,0.00390625 2.859375,0.125 2.421875,0.125 1.972656,0.125 1.625,0 1.375,-0.25 1.125,-0.507812 1,-0.882812 1,-1.375 V -4.546875 H 0.09375 V -5.25 H 1 V -6.4375 L 1.921875,-6.546875 V -5.25 h 1.25 l -0.09375,0.703125 h -1.15625 v 3.125 c 0,0.28125 0.046875,0.484375 0.140625,0.609375 0.101562,0.117188 0.265625,0.171875 0.484375,0.171875 0.207031,0 0.441406,-0.066406 0.703125,-0.203125 z m 0,0"
               id="id-51f8651a-738f-4949-ae20-22b0a31076b7" />
          </symbol>
          <symbol
             overflow="visible"
             id="id-5ae70fca-dd21-4707-bd09-56608cb093a3">
            <path
               style="stroke:none"
               d="m 4.484375,-1.21875 c 0,0.210938 0.035156,0.367188 0.109375,0.46875 0.070312,0.105469 0.179688,0.183594 0.328125,0.234375 L 4.71875,0.125 C 4.445312,0.0820312 4.226562,0.00390625 4.0625,-0.109375 c -0.167969,-0.125 -0.292969,-0.3125 -0.375,-0.5625 C 3.332031,-0.140625 2.8125,0.125 2.125,0.125 c -0.523438,0 -0.933594,-0.1445312 -1.234375,-0.4375 -0.292969,-0.289062 -0.4375,-0.675781 -0.4375,-1.15625 0,-0.550781 0.195313,-0.976562 0.59375,-1.28125 0.40625,-0.300781 0.976563,-0.453125 1.71875,-0.453125 H 3.5625 V -3.59375 c 0,-0.363281 -0.089844,-0.625 -0.265625,-0.78125 -0.179687,-0.164062 -0.453125,-0.25 -0.828125,-0.25 -0.386719,0 -0.855469,0.09375 -1.40625,0.28125 L 0.828125,-5.015625 c 0.644531,-0.238281 1.25,-0.359375 1.8125,-0.359375 0.613281,0 1.070313,0.152344 1.375,0.453125 0.3125,0.304687 0.46875,0.734375 0.46875,1.296875 z m -2.15625,0.65625 c 0.53125,0 0.941406,-0.273438 1.234375,-0.828125 V -2.59375 H 2.875 c -0.96875,0 -1.453125,0.359375 -1.453125,1.078125 0,0.3125 0.078125,0.554687 0.234375,0.71875 0.15625,0.15625 0.378906,0.234375 0.671875,0.234375 z m 0,0"
               id="id-ce4de36c-ca66-4bad-a224-a7bf46dbac2b" />
          </symbol>
          <symbol
             overflow="visible"
             id="id-aef719bc-d1f1-4bf3-83ae-b87b3422bcd7">
            <path
               style="stroke:none"
               d="m 3.421875,-5.375 c 0.476563,0 0.847656,0.148438 1.109375,0.4375 0.269531,0.28125 0.40625,0.671875 0.40625,1.171875 V 0 H 4.03125 v -3.640625 c 0,-0.375 -0.074219,-0.632813 -0.21875,-0.78125 -0.136719,-0.15625 -0.339844,-0.234375 -0.609375,-0.234375 -0.28125,0 -0.53125,0.085938 -0.75,0.25 -0.210937,0.15625 -0.40625,0.382812 -0.59375,0.671875 V 0 h -0.90625 v -5.25 h 0.78125 L 1.8125,-4.46875 C 2,-4.75 2.226562,-4.96875 2.5,-5.125 c 0.28125,-0.164062 0.585938,-0.25 0.921875,-0.25 z m 0,0"
               id="id-77f78793-cbe0-45cd-a63c-421d28cf0a3d" />
          </symbol>
          <symbol
             overflow="visible"
             id="id-bd607065-94ff-410b-9414-d06bf0318663">
            <path
               style="stroke:none"
               d="m 2.859375,-5.375 c 0.3125,0 0.597656,0.046875 0.859375,0.140625 0.257812,0.085937 0.507812,0.226563 0.75,0.421875 l -0.4375,0.578125 c -0.1875,-0.125 -0.371094,-0.21875 -0.546875,-0.28125 -0.179687,-0.0625 -0.371094,-0.09375 -0.578125,-0.09375 -0.429688,0 -0.761719,0.171875 -1,0.515625 -0.230469,0.335938 -0.34375,0.828125 -0.34375,1.484375 0,0.667969 0.113281,1.164063 0.34375,1.484375 0.226562,0.3125 0.5625,0.46875 1,0.46875 0.195312,0 0.382812,-0.03125 0.5625,-0.09375 0.175781,-0.0625 0.367188,-0.164062 0.578125,-0.3125 L 4.46875,-0.453125 C 3.988281,-0.0664062 3.453125,0.125 2.859375,0.125 2.148438,0.125 1.585938,-0.113281 1.171875,-0.59375 0.765625,-1.070312 0.5625,-1.734375 0.5625,-2.578125 c 0,-0.5625 0.09375,-1.050781 0.28125,-1.46875 0.1875,-0.414063 0.453125,-0.738281 0.796875,-0.96875 0.34375,-0.238281 0.75,-0.359375 1.21875,-0.359375 z m 0,0"
               id="id-c06fcc85-f118-4a95-9e3d-8de29387c3fb" />
          </symbol>
          <symbol
             overflow="visible"
             id="id-c0917326-b8a0-44bb-b787-9d42bcaa6718">
            <path
               style="stroke:none"
               d="m 4.921875,-2.78125 c 0,0.15625 -0.011719,0.3125 -0.03125,0.46875 h -3.34375 c 0.039063,0.574219 0.1875,1 0.4375,1.28125 0.25,0.273438 0.570313,0.40625 0.96875,0.40625 0.257813,0 0.492187,-0.035156 0.703125,-0.109375 C 3.875,-0.804688 4.097656,-0.925781 4.328125,-1.09375 l 0.390625,0.5625 C 4.164062,-0.09375 3.554688,0.125 2.890625,0.125 2.160156,0.125 1.585938,-0.113281 1.171875,-0.59375 0.765625,-1.070312 0.5625,-1.734375 0.5625,-2.578125 c 0,-0.539063 0.085938,-1.019531 0.265625,-1.4375 0.175781,-0.425781 0.425781,-0.757813 0.75,-1 C 1.910156,-5.253906 2.300781,-5.375 2.75,-5.375 c 0.695312,0 1.234375,0.230469 1.609375,0.6875 0.375,0.460938 0.5625,1.09375 0.5625,1.90625 z M 4,-3.046875 c 0,-0.519531 -0.105469,-0.914063 -0.3125,-1.1875 -0.199219,-0.269531 -0.507812,-0.40625 -0.921875,-0.40625 -0.75,0 -1.15625,0.554687 -1.21875,1.65625 H 4 Z m 0,0"
               id="id-9e829d56-ff62-421c-b3f9-f1210da5e681" />
          </symbol>
        </g>
      </defs>
      <g
         id="id-9ab5cf1a-4d5a-4a94-bca8-21b2442b619f"
         transform="translate(-149.337,-126.984)">
        <g
           style="fill:#000000;fill-opacity:1"
           id="id-341a5dd3-0719-413b-90ad-832d0be00f41">
          <g
             transform="translate(148.712,134.765)"
             id="g72814">
            <path
               style="stroke:none"
               d="M 5.015625,-7.359375 V 0 h -0.8125 L 4.109375,-0.734375 C 3.941406,-0.460938 3.726562,-0.25 3.46875,-0.09375 3.207031,0.0507812 2.921875,0.125 2.609375,0.125 c -0.625,0 -1.117187,-0.242188 -1.46875,-0.734375 -0.34375,-0.5 -0.515625,-1.164063 -0.515625,-2 0,-0.53125 0.078125,-1.003906 0.234375,-1.421875 0.164063,-0.425781 0.40625,-0.753906 0.71875,-0.984375 C 1.890625,-5.253906 2.257812,-5.375 2.6875,-5.375 c 0.53125,0 1,0.21875 1.40625,0.65625 v -2.765625 z m -2.21875,6.75 c 0.28125,0 0.519531,-0.0625 0.71875,-0.1875 0.195313,-0.132813 0.390625,-0.332031 0.578125,-0.59375 v -2.5625 C 3.925781,-4.179688 3.742188,-4.351562 3.546875,-4.46875 3.347656,-4.582031 3.125,-4.640625 2.875,-4.640625 c -0.40625,0 -0.71875,0.171875 -0.9375,0.515625 -0.21875,0.335938 -0.328125,0.835938 -0.328125,1.5 0,0.679688 0.097656,1.183594 0.296875,1.515625 0.207031,0.335937 0.503906,0.5 0.890625,0.5 z m 0,0"
               id="id-e6788af9-2d53-45c2-ab7a-0681bf6d7d6a" />
          </g>
          <g
             transform="translate(154.67,134.765)"
             id="g72817">
            <path
               style="stroke:none"
               d="M 1.859375,-5.25 V 0 h -0.90625 v -5.25 z m -0.46875,-2.53125 c 0.195313,0 0.351563,0.0625 0.46875,0.1875 0.125,0.117188 0.1875,0.265625 0.1875,0.453125 0,0.179687 -0.0625,0.324219 -0.1875,0.4375 -0.117187,0.117187 -0.273437,0.171875 -0.46875,0.171875 -0.179687,0 -0.328125,-0.054688 -0.453125,-0.171875 -0.117188,-0.113281 -0.171875,-0.257813 -0.171875,-0.4375 0,-0.1875 0.054687,-0.335937 0.171875,-0.453125 0.125,-0.125 0.273438,-0.1875 0.453125,-0.1875 z m 0,0"
               id="id-460b7903-39c4-43d4-9758-733b8eeff0db" />
          </g>
          <g
             transform="translate(157.479,134.765)"
             id="g72820">
            <path
               style="stroke:none"
               d="m 2.375,-5.375 c 0.351562,0 0.671875,0.054688 0.953125,0.15625 0.289063,0.09375 0.566406,0.242188 0.828125,0.4375 L 3.765625,-4.203125 C 3.523438,-4.347656 3.296875,-4.457031 3.078125,-4.53125 2.867188,-4.601562 2.644531,-4.640625 2.40625,-4.640625 c -0.304688,0 -0.542969,0.0625 -0.71875,0.1875 -0.167969,0.117187 -0.25,0.28125 -0.25,0.5 0,0.210937 0.078125,0.375 0.234375,0.5 0.164063,0.117187 0.460937,0.230469 0.890625,0.34375 0.582031,0.148437 1.019531,0.34375 1.3125,0.59375 0.289062,0.25 0.4375,0.601563 0.4375,1.046875 0,0.511719 -0.203125,0.90625 -0.609375,1.1875 C 3.296875,-0.0078125 2.804688,0.125 2.234375,0.125 1.429688,0.125 0.769531,-0.101562 0.25,-0.5625 L 0.734375,-1.125 c 0.445313,0.335938 0.941406,0.5 1.484375,0.5 0.34375,0 0.613281,-0.066406 0.8125,-0.203125 0.207031,-0.144531 0.3125,-0.34375 0.3125,-0.59375 0,-0.175781 -0.039062,-0.316406 -0.109375,-0.421875 C 3.160156,-1.957031 3.03125,-2.054688 2.84375,-2.140625 2.664062,-2.222656 2.40625,-2.3125 2.0625,-2.40625 1.5,-2.550781 1.09375,-2.742188 0.84375,-2.984375 c -0.242188,-0.25 -0.359375,-0.5625 -0.359375,-0.9375 0,-0.28125 0.078125,-0.53125 0.234375,-0.75 C 0.882812,-4.890625 1.109375,-5.0625 1.390625,-5.1875 1.679688,-5.3125 2.007812,-5.375 2.375,-5.375 Z m 0,0"
               id="id-84ea6cf3-aa80-4b4a-b2a0-fd230abc8a1b" />
          </g>
          <g
             transform="translate(162.132,134.765)"
             id="g72823">
            <path
               style="stroke:none"
               d="M 3.59375,-0.234375 C 3.25,0.00390625 2.859375,0.125 2.421875,0.125 1.972656,0.125 1.625,0 1.375,-0.25 1.125,-0.507812 1,-0.882812 1,-1.375 V -4.546875 H 0.09375 V -5.25 H 1 V -6.4375 L 1.921875,-6.546875 V -5.25 h 1.25 l -0.09375,0.703125 h -1.15625 v 3.125 c 0,0.28125 0.046875,0.484375 0.140625,0.609375 0.101562,0.117188 0.265625,0.171875 0.484375,0.171875 0.207031,0 0.441406,-0.066406 0.703125,-0.203125 z m 0,0"
               id="id-1f62af5b-10e3-4083-a0ad-e4582fcfe115" />
          </g>
        </g>
        <g
           style="fill:#000000;fill-opacity:1"
           id="id-0c9b9fd8-44a8-4268-ac6a-c135faf72041">
          <g
             transform="translate(165.668,134.765)"
             id="g72827">
            <path
               style="stroke:none"
               d="m 4.484375,-1.21875 c 0,0.210938 0.035156,0.367188 0.109375,0.46875 0.070312,0.105469 0.179688,0.183594 0.328125,0.234375 L 4.71875,0.125 C 4.445312,0.0820312 4.226562,0.00390625 4.0625,-0.109375 c -0.167969,-0.125 -0.292969,-0.3125 -0.375,-0.5625 C 3.332031,-0.140625 2.8125,0.125 2.125,0.125 c -0.523438,0 -0.933594,-0.1445312 -1.234375,-0.4375 -0.292969,-0.289062 -0.4375,-0.675781 -0.4375,-1.15625 0,-0.550781 0.195313,-0.976562 0.59375,-1.28125 0.40625,-0.300781 0.976563,-0.453125 1.71875,-0.453125 H 3.5625 V -3.59375 c 0,-0.363281 -0.089844,-0.625 -0.265625,-0.78125 -0.179687,-0.164062 -0.453125,-0.25 -0.828125,-0.25 -0.386719,0 -0.855469,0.09375 -1.40625,0.28125 L 0.828125,-5.015625 c 0.644531,-0.238281 1.25,-0.359375 1.8125,-0.359375 0.613281,0 1.070313,0.152344 1.375,0.453125 0.3125,0.304687 0.46875,0.734375 0.46875,1.296875 z m -2.15625,0.65625 c 0.53125,0 0.941406,-0.273438 1.234375,-0.828125 V -2.59375 H 2.875 c -0.96875,0 -1.453125,0.359375 -1.453125,1.078125 0,0.3125 0.078125,0.554687 0.234375,0.71875 0.15625,0.15625 0.378906,0.234375 0.671875,0.234375 z m 0,0"
               id="id-4fdd3e13-ab91-46f5-ac98-5fdb878066af" />
          </g>
          <g
             transform="translate(171.088,134.765)"
             id="g72830">
            <path
               style="stroke:none"
               d="m 3.421875,-5.375 c 0.476563,0 0.847656,0.148438 1.109375,0.4375 0.269531,0.28125 0.40625,0.671875 0.40625,1.171875 V 0 H 4.03125 v -3.640625 c 0,-0.375 -0.074219,-0.632813 -0.21875,-0.78125 -0.136719,-0.15625 -0.339844,-0.234375 -0.609375,-0.234375 -0.28125,0 -0.53125,0.085938 -0.75,0.25 -0.210937,0.15625 -0.40625,0.382812 -0.59375,0.671875 V 0 h -0.90625 v -5.25 h 0.78125 L 1.8125,-4.46875 C 2,-4.75 2.226562,-4.96875 2.5,-5.125 c 0.28125,-0.164062 0.585938,-0.25 0.921875,-0.25 z m 0,0"
               id="id-fcf5e855-aeca-4bb7-ae4f-76ccd2a727e8" />
          </g>
          <g
             transform="translate(176.926,134.765)"
             id="g72833">
            <path
               style="stroke:none"
               d="m 2.859375,-5.375 c 0.3125,0 0.597656,0.046875 0.859375,0.140625 0.257812,0.085937 0.507812,0.226563 0.75,0.421875 l -0.4375,0.578125 c -0.1875,-0.125 -0.371094,-0.21875 -0.546875,-0.28125 -0.179687,-0.0625 -0.371094,-0.09375 -0.578125,-0.09375 -0.429688,0 -0.761719,0.171875 -1,0.515625 -0.230469,0.335938 -0.34375,0.828125 -0.34375,1.484375 0,0.667969 0.113281,1.164063 0.34375,1.484375 0.226562,0.3125 0.5625,0.46875 1,0.46875 0.195312,0 0.382812,-0.03125 0.5625,-0.09375 0.175781,-0.0625 0.367188,-0.164062 0.578125,-0.3125 L 4.46875,-0.453125 C 3.988281,-0.0664062 3.453125,0.125 2.859375,0.125 2.148438,0.125 1.585938,-0.113281 1.171875,-0.59375 0.765625,-1.070312 0.5625,-1.734375 0.5625,-2.578125 c 0,-0.5625 0.09375,-1.050781 0.28125,-1.46875 0.1875,-0.414063 0.453125,-0.738281 0.796875,-0.96875 0.34375,-0.238281 0.75,-0.359375 1.21875,-0.359375 z m 0,0"
               id="id-469f27f3-e3e8-4a8d-88f9-9f1f6f9e5b91" />
          </g>
        </g>
        <g
           style="fill:#000000;fill-opacity:1"
           id="id-67faa14c-1322-4823-a00e-50d5a9274393">
          <g
             transform="translate(181.489,134.765)"
             id="g72837">
            <path
               style="stroke:none"
               d="m 4.921875,-2.78125 c 0,0.15625 -0.011719,0.3125 -0.03125,0.46875 h -3.34375 c 0.039063,0.574219 0.1875,1 0.4375,1.28125 0.25,0.273438 0.570313,0.40625 0.96875,0.40625 0.257813,0 0.492187,-0.035156 0.703125,-0.109375 C 3.875,-0.804688 4.097656,-0.925781 4.328125,-1.09375 l 0.390625,0.5625 C 4.164062,-0.09375 3.554688,0.125 2.890625,0.125 2.160156,0.125 1.585938,-0.113281 1.171875,-0.59375 0.765625,-1.070312 0.5625,-1.734375 0.5625,-2.578125 c 0,-0.539063 0.085938,-1.019531 0.265625,-1.4375 0.175781,-0.425781 0.425781,-0.757813 0.75,-1 C 1.910156,-5.253906 2.300781,-5.375 2.75,-5.375 c 0.695312,0 1.234375,0.230469 1.609375,0.6875 0.375,0.460938 0.5625,1.09375 0.5625,1.90625 z M 4,-3.046875 c 0,-0.519531 -0.105469,-0.914063 -0.3125,-1.1875 -0.199219,-0.269531 -0.507812,-0.40625 -0.921875,-0.40625 -0.75,0 -1.15625,0.554687 -1.21875,1.65625 H 4 Z m 0,0"
               id="id-2defb8ba-25f0-4240-8170-3eb542b4a1eb" />
          </g>
        </g>
      </g>
    </g>
    <g
       transform="matrix(1.39464,0,0,1.39464,183.33818,102.89298)"
       ns2:version="1.3.0"
       ns2:texconverter="xelatex"
       ns2:pdfconverter="inkscape"
       ns2:text="$\\Psi$"
       ns2:preamble="/home/abhirup/.config/textext/beamer_preamble.tex"
       ns2:scale="3.9533053268617113"
       ns2:alignment="middle center"
       ns2:inkscapeversion="1.1.2"
       ns2:jacobian_sqrt="1.39464"
       id="g71226">
      <defs
         id="id-cbaa3f52-7f44-490a-8fc2-9befe33aaf5a">
        <g
           id="id-2b60af07-368a-40cf-944d-3656f24595fa">
          <symbol
             overflow="visible"
             id="id-d50a23ad-abd1-44c9-97f5-37e11a937443">
            <path
               style="stroke:none"
               d=""
               id="id-3dee7e6b-478f-4dea-8fca-c3c3886d71a1" />
          </symbol>
          <symbol
             overflow="visible"
             id="id-31f54593-3bf0-45d9-9c30-fa0137c4a4bb">
            <path
               style="stroke:none"
               d="M 4.25,-6.015625 C 4.25,-6.359375 4.25,-6.5 5.203125,-6.5 H 5.53125 v -0.3125 c -0.359375,0.03125 -1.28125,0.03125 -1.6875,0.03125 -0.40625,0 -1.328125,0 -1.6875,-0.03125 V -6.5 h 0.328125 c 0.9375,0 0.9375,0.125 0.9375,0.484375 V -1.59375 C 2.125,-1.9375 2.078125,-3.484375 2.078125,-4.125 2.0625,-5.328125 1.625,-5.515625 1.1875,-5.515625 h -0.375 c -0.140625,0 -0.25,0 -0.25,0.109375 0,0.046875 0.03125,0.09375 0.09375,0.109375 0.328125,0.03125 0.578125,0.171875 0.59375,1.34375 0,0.234375 0.03125,1.015625 0.5,1.6875 0.390625,0.546875 1,0.828125 1.671875,0.921875 v 0.5625 c 0,0.328125 0,0.46875 -0.9375,0.46875 H 2.15625 V 0 c 0.359375,-0.03125 1.265625,-0.03125 1.6875,-0.03125 0.40625,0 1.328125,0 1.6875,0.03125 V -0.3125 H 5.203125 C 4.25,-0.3125 4.25,-0.4375 4.25,-0.78125 v -0.5625 C 4.96875,-1.4375 5.578125,-1.734375 5.96875,-2.25 6.484375,-2.953125 6.5,-3.75 6.5,-4.1875 c 0,-0.15625 0.015625,-1.046875 0.546875,-1.109375 0.0625,-0.015625 0.125,-0.03125 0.125,-0.109375 0,-0.109375 -0.078125,-0.109375 -0.234375,-0.109375 h -0.375 c -0.390625,0 -0.875,0.0625 -0.890625,1.515625 C 5.65625,-2.90625 5.328125,-1.859375 4.25,-1.59375 Z m 0,0"
               id="id-8b480d39-0323-4085-a598-2f86853ba6a0" />
          </symbol>
        </g>
      </defs>
      <g
         id="id-db90a76c-c203-4be2-b661-c792df15ea2e"
         transform="translate(-149.275,-127.953)">
        <g
           style="fill:#000000;fill-opacity:1"
           id="id-dd562251-9cff-45ae-815d-38eb251bed26">
          <g
             transform="translate(148.712,134.765)"
             id="g73056">
            <path
               style="stroke:none"
               d="M 4.25,-6.015625 C 4.25,-6.359375 4.25,-6.5 5.203125,-6.5 H 5.53125 v -0.3125 c -0.359375,0.03125 -1.28125,0.03125 -1.6875,0.03125 -0.40625,0 -1.328125,0 -1.6875,-0.03125 V -6.5 h 0.328125 c 0.9375,0 0.9375,0.125 0.9375,0.484375 V -1.59375 C 2.125,-1.9375 2.078125,-3.484375 2.078125,-4.125 2.0625,-5.328125 1.625,-5.515625 1.1875,-5.515625 h -0.375 c -0.140625,0 -0.25,0 -0.25,0.109375 0,0.046875 0.03125,0.09375 0.09375,0.109375 0.328125,0.03125 0.578125,0.171875 0.59375,1.34375 0,0.234375 0.03125,1.015625 0.5,1.6875 0.390625,0.546875 1,0.828125 1.671875,0.921875 v 0.5625 c 0,0.328125 0,0.46875 -0.9375,0.46875 H 2.15625 V 0 c 0.359375,-0.03125 1.265625,-0.03125 1.6875,-0.03125 0.40625,0 1.328125,0 1.6875,0.03125 V -0.3125 H 5.203125 C 4.25,-0.3125 4.25,-0.4375 4.25,-0.78125 v -0.5625 C 4.96875,-1.4375 5.578125,-1.734375 5.96875,-2.25 6.484375,-2.953125 6.5,-3.75 6.5,-4.1875 c 0,-0.15625 0.015625,-1.046875 0.546875,-1.109375 0.0625,-0.015625 0.125,-0.03125 0.125,-0.109375 0,-0.109375 -0.078125,-0.109375 -0.234375,-0.109375 h -0.375 c -0.390625,0 -0.875,0.0625 -0.890625,1.515625 C 5.65625,-2.90625 5.328125,-1.859375 4.25,-1.59375 Z m 0,0"
               id="id-c00d81ce-5b2f-4ca8-8364-17925b1e8444" />
          </g>
        </g>
      </g>
    </g>
  </g>
</svg>
