<?xml version="1.0" encoding="UTF-8" standalone="no"?>
<!-- Created with Inkscape (http://www.inkscape.org/) -->

<svg
   width="121.33856mm"
   height="123.30112mm"
   viewBox="0 0 121.33856 123.30115"
   version="1.1"
   id="svg226588"
   inkscape:version="1.2.2 (b0a8486541, 2022-12-01)"
   sodipodi:docname="takeaway2.svg"
   xmlns:inkscape="http://www.inkscape.org/namespaces/inkscape"
   xmlns:sodipodi="http://sodipodi.sourceforge.net/DTD/sodipodi-0.dtd"
   xmlns="http://www.w3.org/2000/svg"
   xmlns:svg="http://www.w3.org/2000/svg"
   xmlns:ns6="http://www.iki.fi/pav/software/textext/">
  <sodipodi:namedview
     id="namedview226590"
     pagecolor="#ffffff"
     bordercolor="#cccccc"
     borderopacity="1"
     inkscape:showpageshadow="0"
     inkscape:pageopacity="1"
     inkscape:pagecheckerboard="0"
     inkscape:deskcolor="#d1d1d1"
     inkscape:document-units="mm"
     showgrid="false"
     inkscape:zoom="0.48630455"
     inkscape:cx="670.36181"
     inkscape:cy="303.30788"
     inkscape:window-width="1920"
     inkscape:window-height="1019"
     inkscape:window-x="0"
     inkscape:window-y="0"
     inkscape:window-maximized="1"
     inkscape:current-layer="layer1" />
  <defs
     id="defs226585">
    <inkscape:path-effect
       effect="spiro"
       id="path-effect260472"
       is_visible="true"
       lpeversion="1" />
    <inkscape:path-effect
       effect="spiro"
       id="path-effect229315"
       is_visible="true"
       lpeversion="1" />
    <inkscape:path-effect
       effect="spiro"
       id="path-effect229305"
       is_visible="true"
       lpeversion="1" />
    <inkscape:path-effect
       effect="spiro"
       id="path-effect229251"
       is_visible="true"
       lpeversion="1" />
    <inkscape:path-effect
       effect="spiro"
       id="path-effect229241"
       is_visible="true"
       lpeversion="1" />
    <inkscape:path-effect
       effect="spiro"
       id="path-effect229161"
       is_visible="true"
       lpeversion="1" />
    <inkscape:path-effect
       effect="spiro"
       id="path-effect229097"
       is_visible="true"
       lpeversion="1" />
    <inkscape:path-effect
       effect="spiro"
       id="path-effect229087"
       is_visible="true"
       lpeversion="1" />
    <inkscape:path-effect
       effect="spiro"
       id="path-effect229037"
       is_visible="true"
       lpeversion="1" />
    <inkscape:path-effect
       effect="spiro"
       id="path-effect228903"
       is_visible="true"
       lpeversion="1" />
    <inkscape:path-effect
       effect="spiro"
       id="path-effect228899"
       is_visible="true"
       lpeversion="1" />
    <inkscape:path-effect
       effect="spiro"
       id="path-effect228895"
       is_visible="true"
       lpeversion="1" />
    <inkscape:path-effect
       effect="spiro"
       id="path-effect228891"
       is_visible="true"
       lpeversion="1" />
    <inkscape:path-effect
       effect="spiro"
       id="path-effect228887"
       is_visible="true"
       lpeversion="1" />
    <inkscape:path-effect
       effect="spiro"
       id="path-effect228660"
       is_visible="true"
       lpeversion="1" />
    <inkscape:path-effect
       effect="spiro"
       id="path-effect228660-5"
       is_visible="true"
       lpeversion="1" />
    <inkscape:path-effect
       effect="spiro"
       id="path-effect228660-59"
       is_visible="true"
       lpeversion="1" />
    <inkscape:path-effect
       effect="spiro"
       id="path-effect228660-5-9"
       is_visible="true"
       lpeversion="1" />
    <inkscape:path-effect
       effect="spiro"
       id="path-effect228899-6"
       is_visible="true"
       lpeversion="1" />
    <inkscape:path-effect
       effect="spiro"
       id="path-effect229037-0"
       is_visible="true"
       lpeversion="1" />
    <inkscape:path-effect
       effect="spiro"
       id="path-effect229251-1"
       is_visible="true"
       lpeversion="1" />
    <g
       id="id-f647475d-6d16-46a5-b7c9-36dd9b6a1b0f-9"
       style="fill:#feffff;fill-opacity:1;stroke-width:0">
      <g
         id="id-6bf7379f-239c-4441-b58a-8020696d9e6b-1"
         style="fill:#feffff;fill-opacity:1;stroke-width:0">
        <path
           d="m 5.4375,-6.4375 v 5.890625 H 1.34375 V -6.4375 Z m 0.546875,-0.546875 h -5.1875 V 0 h 5.1875 z m -2.75,4.953125 c -0.21875,0 -0.40625,0.1875 -0.40625,0.421875 0,0.21875 0.1875,0.40625 0.40625,0.40625 0.25,0 0.421875,-0.1875 0.421875,-0.40625 0,-0.234375 -0.171875,-0.421875 -0.421875,-0.421875 z M 3.4375,-5.453125 c -0.5,0 -0.90625,0.1875 -1.25,0.59375 l 0.390625,0.28125 C 2.828125,-4.875 3.09375,-5 3.40625,-5 3.765625,-5 4,-4.8125 4,-4.484375 4,-3.84375 2.953125,-3.953125 2.953125,-2.9375 v 0.296875 H 3.5 V -2.90625 c 0,-0.796875 1.078125,-0.65625 1.078125,-1.625 0,-0.46875 -0.375,-0.921875 -1.140625,-0.921875 z m 0,0"
           id="id-5ce62309-e043-43d1-a88c-14e3e82ba201-0"
           style="fill:#feffff;fill-opacity:1;stroke-width:0" />
      </g>
      <g
         id="id-9e3a2e0c-b0ae-403b-b6bf-ec98b9ca429d-4"
         style="fill:#feffff;fill-opacity:1;stroke-width:0">
        <path
           d="m 2.515625,-7.484375 -0.90625,0.125 L 0.5625,0 h 0.90625 l 0.4375,-3.15625 C 2.359375,-4.171875 3.0625,-4.640625 3.625,-4.640625 c 0.359375,0 0.5625,0.1875 0.5625,0.5625 0,0.734375 -0.515625,1.171875 -1.75,1.515625 L 3.703125,0 H 4.71875 l -1.1875,-2.328125 c 1.09375,-0.34375 1.625,-1.015625 1.625,-1.84375 C 5.15625,-4.875 4.625,-5.375 3.875,-5.375 c -0.65625,0 -1.296875,0.328125 -1.796875,1.03125 z m 0,0"
           id="id-58512df9-6161-4b64-9579-bd907997ae47-2"
           style="fill:#feffff;fill-opacity:1;stroke-width:0" />
      </g>
      <g
         id="id-3b1cc24e-cd34-4292-90cf-f786a82830b0-7"
         style="fill:#feffff;fill-opacity:1;stroke-width:0">
        <path
           d="m 3.90625,-4.625 v 4.234375 H 0.96875 V -4.625 Z M 4.296875,-5.015625 H 0.578125 V 0 h 3.71875 z m -1.96875,3.5625 c -0.15625,0 -0.296875,0.125 -0.296875,0.296875 0,0.15625 0.140625,0.296875 0.296875,0.296875 C 2.5,-0.859375 2.625,-1 2.625,-1.15625 2.625,-1.328125 2.5,-1.453125 2.328125,-1.453125 Z m 0.140625,-2.46875 c -0.359375,0 -0.640625,0.140625 -0.890625,0.421875 L 1.84375,-3.296875 C 2.03125,-3.5 2.234375,-3.59375 2.453125,-3.59375 c 0.265625,0 0.4375,0.125 0.4375,0.359375 0,0.46875 -0.765625,0.390625 -0.765625,1.125 v 0.203125 h 0.390625 v -0.1875 c 0,-0.5625 0.78125,-0.46875 0.78125,-1.15625 0,-0.34375 -0.28125,-0.671875 -0.828125,-0.671875 z m 0,0"
           id="id-ad174bf2-6ab7-4613-888a-3df8370888df-4"
           style="fill:#feffff;fill-opacity:1;stroke-width:0" />
      </g>
      <g
         id="id-1fa47934-fb2d-49c7-9674-6086efd22435-0"
         style="fill:#feffff;fill-opacity:1;stroke-width:0">
        <path
           d="m 1.84375,-5.03125 c -0.671875,0 -1.140625,0.25 -1.515625,0.734375 l 0.4375,0.34375 c 0.3125,-0.375 0.578125,-0.53125 1.046875,-0.53125 0.546875,0 0.859375,0.328125 0.859375,0.875 0,0.78125 -0.40625,1.328125 -2.25,3.078125 V 0 H 3.40625 l 0.078125,-0.546875 h -2.3125 c 1.625,-1.46875 2.1875,-2.203125 2.1875,-3.09375 0,-0.78125 -0.5625,-1.390625 -1.515625,-1.390625 z m 0,0"
           id="id-3a06d3de-6509-49f4-b4a6-c5b290f565c6-3"
           style="fill:#feffff;fill-opacity:1;stroke-width:0" />
      </g>
    </g>
    <g
       id="id-39d20b94-41ef-4ba4-ac60-2188544d5f04-4"
       style="fill:#feffff;fill-opacity:1;stroke-width:0">
      <g
         id="id-db021025-93d7-4232-91a7-00be9b1a9b1c-9"
         style="fill:#feffff;fill-opacity:1;stroke-width:0">
        <path
           d="m 5.4375,-6.4375 v 5.890625 H 1.34375 V -6.4375 Z m 0.546875,-0.546875 h -5.1875 V 0 h 5.1875 z m -2.75,4.953125 c -0.21875,0 -0.40625,0.1875 -0.40625,0.421875 0,0.21875 0.1875,0.40625 0.40625,0.40625 0.25,0 0.421875,-0.1875 0.421875,-0.40625 0,-0.234375 -0.171875,-0.421875 -0.421875,-0.421875 z M 3.4375,-5.453125 c -0.5,0 -0.90625,0.1875 -1.25,0.59375 l 0.390625,0.28125 C 2.828125,-4.875 3.09375,-5 3.40625,-5 3.765625,-5 4,-4.8125 4,-4.484375 4,-3.84375 2.953125,-3.953125 2.953125,-2.9375 v 0.296875 H 3.5 V -2.90625 c 0,-0.796875 1.078125,-0.65625 1.078125,-1.625 0,-0.46875 -0.375,-0.921875 -1.140625,-0.921875 z m 0,0"
           id="id-77012100-abdb-4371-ba43-ae2d6ac9d684-2"
           style="fill:#feffff;fill-opacity:1;stroke-width:0" />
      </g>
      <g
         id="id-c6ba1ce1-58fb-4e8b-a235-212e7b583f5e-7"
         style="fill:#feffff;fill-opacity:1;stroke-width:0">
        <path
           d="m 2.515625,-7.484375 -0.90625,0.125 L 0.5625,0 h 0.90625 l 0.4375,-3.15625 C 2.359375,-4.171875 3.0625,-4.640625 3.625,-4.640625 c 0.359375,0 0.5625,0.1875 0.5625,0.5625 0,0.734375 -0.515625,1.171875 -1.75,1.515625 L 3.703125,0 H 4.71875 l -1.1875,-2.328125 c 1.09375,-0.34375 1.625,-1.015625 1.625,-1.84375 C 5.15625,-4.875 4.625,-5.375 3.875,-5.375 c -0.65625,0 -1.296875,0.328125 -1.796875,1.03125 z m 0,0"
           id="id-37fa2407-7e99-486c-a1c3-a00742fdbae8-4"
           style="fill:#feffff;fill-opacity:1;stroke-width:0" />
      </g>
      <g
         id="id-6a327d8d-b844-47e5-b4f1-9c4de4072c3d-2"
         style="fill:#feffff;fill-opacity:1;stroke-width:0">
        <path
           d="m 3.90625,-4.625 v 4.234375 H 0.96875 V -4.625 Z M 4.296875,-5.015625 H 0.578125 V 0 h 3.71875 z m -1.96875,3.5625 c -0.15625,0 -0.296875,0.125 -0.296875,0.296875 0,0.15625 0.140625,0.296875 0.296875,0.296875 C 2.5,-0.859375 2.625,-1 2.625,-1.15625 2.625,-1.328125 2.5,-1.453125 2.328125,-1.453125 Z m 0.140625,-2.46875 c -0.359375,0 -0.640625,0.140625 -0.890625,0.421875 L 1.84375,-3.296875 C 2.03125,-3.5 2.234375,-3.59375 2.453125,-3.59375 c 0.265625,0 0.4375,0.125 0.4375,0.359375 0,0.46875 -0.765625,0.390625 -0.765625,1.125 v 0.203125 h 0.390625 v -0.1875 c 0,-0.5625 0.78125,-0.46875 0.78125,-1.15625 0,-0.34375 -0.28125,-0.671875 -0.828125,-0.671875 z m 0,0"
           id="id-40842f23-4932-4a95-a790-2d09f0efc75f-5"
           style="fill:#feffff;fill-opacity:1;stroke-width:0" />
      </g>
      <g
         id="id-f483b95f-cf59-48b2-969c-9e6180760ca8-2"
         style="fill:#feffff;fill-opacity:1;stroke-width:0">
        <path
           d="m 1.796875,-5.03125 c -0.515625,0 -1.015625,0.1875 -1.4375,0.578125 l 0.359375,0.40625 C 1.046875,-4.359375 1.34375,-4.5 1.765625,-4.5 c 0.515625,0 0.90625,0.28125 0.90625,0.8125 0,0.5625 -0.4375,0.828125 -0.921875,0.828125 H 1.46875 L 1.390625,-2.34375 h 0.40625 c 0.578125,0 1,0.234375 1,0.921875 0,0.59375 -0.390625,0.96875 -1.0625,0.96875 -0.40625,0 -0.796875,-0.15625 -1.109375,-0.484375 L 0.21875,-0.578125 C 0.59375,-0.125 1.1875,0.09375 1.75,0.09375 c 1.046875,0 1.75,-0.65625 1.75,-1.515625 0,-0.75 -0.5625,-1.1875 -1.140625,-1.21875 0.546875,-0.125 0.96875,-0.53125 0.96875,-1.140625 0,-0.671875 -0.578125,-1.25 -1.53125,-1.25 z m 0,0"
           id="id-711e23b2-aef8-4b42-b90e-cd56f61d5cf7-4"
           style="fill:#feffff;fill-opacity:1;stroke-width:0" />
      </g>
    </g>
  </defs>
  <g
     inkscape:label="Layer 1"
     inkscape:groupmode="layer"
     id="layer1"
     transform="translate(-266.57803,-97.758698)">
    <path
       style="fill:none;fill-opacity:1;stroke:#d0d0d0;stroke-width:4;stroke-linejoin:bevel;stroke-dasharray:8, 4;stroke-dashoffset:0;stroke-opacity:1;paint-order:markers stroke fill"
       d="m 281.50614,204.15626 c 12.13716,8.55192 26.79732,13.4754 41.63606,13.98309 17.39022,0.59499 34.92958,-4.93521 48.83348,-15.3973"
       id="path229249-2"
       inkscape:path-effect="#path-effect229251-1"
       inkscape:original-d="m 281.50614,204.15626 c 13.87894,4.66077 27.75763,9.3218 41.63606,13.98309 13.8784,4.66129 32.55592,-10.26513 48.83348,-15.3973" />
    <path
       style="opacity:1;fill:none;fill-opacity:1;stroke:#505050;stroke-width:4;stroke-linejoin:bevel;stroke-dasharray:8, 4;stroke-dashoffset:0;stroke-opacity:1;paint-order:markers stroke fill"
       d="m 282.04973,113.7786 c 1.63679,6.79221 3.85555,13.44407 6.62399,19.85881 15.01014,34.7799 47.01909,61.73637 83.84555,70.61091"
       id="path229095"
       inkscape:path-effect="#path-effect229097"
       inkscape:original-d="m 282.04973,113.7786 c 2.20825,6.61987 4.41625,13.23947 6.62399,19.85881 2.20773,6.61934 55.8973,47.07421 83.84555,70.61091" />
    <path
       style="opacity:1;fill:none;fill-opacity:1;stroke:#202020;stroke-width:4;stroke-linejoin:bevel;stroke-dasharray:8, 4;stroke-dashoffset:0;stroke-opacity:1;paint-order:markers stroke fill"
       d="m 282.04973,205.66252 c 3.67598,-8.45435 8.02312,-16.61678 12.98706,-24.38519 18.54768,-29.02655 45.89294,-52.34922 77.48248,-66.08452"
       id="path229159"
       inkscape:path-effect="#path-effect229161"
       inkscape:original-d="m 282.04973,205.66252 c 4.32928,-8.12813 8.65829,-16.25653 12.98706,-24.38519 4.32874,-8.12866 51.65524,-44.05608 77.48248,-66.08452" />
    <path
       style="opacity:1;fill:none;fill-opacity:1;stroke:#808080;stroke-width:4;stroke-linejoin:bevel;stroke-dasharray:8, 4;stroke-dashoffset:0;stroke-opacity:1;paint-order:markers stroke fill"
       d="m 282.04973,113.7786 c 12.13716,-8.55192 26.79732,-13.4754 41.63606,-13.98309 17.39022,-0.594988 34.92958,4.93521 48.83348,15.3973"
       id="path229249"
       inkscape:path-effect="#path-effect229251"
       inkscape:original-d="m 282.04973,113.7786 c 13.87894,-4.66077 27.75763,-9.3218 41.63606,-13.98309 13.8784,-4.661294 32.55592,10.26513 48.83348,15.3973" />
    <path
       style="opacity:1;fill:none;fill-opacity:1;stroke:#a0a0a0;stroke-width:4;stroke-linejoin:bevel;stroke-dasharray:8, 4;stroke-dashoffset:0;stroke-opacity:1;paint-order:markers stroke fill"
       d="m 282.04973,205.66252 c -7.77432,-12.1115 -12.40154,-26.22441 -13.30757,-40.58782 -1.13089,-17.92811 3.60382,-36.17878 13.30757,-51.2961"
       id="path229303"
       inkscape:path-effect="#path-effect229305"
       inkscape:original-d="m 282.04973,205.66252 c -4.43559,-13.52901 -8.87145,-27.05828 -13.30757,-40.58782 -4.43612,-13.52954 8.87198,-34.19713 13.30757,-51.2961" />
    <path
       style="opacity:1;fill:none;fill-opacity:1;stroke:#606060;stroke-width:4;stroke-linejoin:bevel;stroke-dasharray:8, 4;stroke-dashoffset:0;stroke-opacity:1;paint-order:markers stroke fill"
       d="m 372.51927,204.24832 c 3.82983,-7.61358 6.67169,-15.72343 8.43193,-24.06224 4.59861,-21.78509 1.57347,-45.10284 -8.43193,-64.99327"
       id="path229313"
       inkscape:path-effect="#path-effect229315"
       inkscape:original-d="m 372.51927,204.24832 c 2.81091,-8.02048 5.62155,-16.04123 8.43193,-24.06224 2.81041,-8.02102 -5.62102,-43.32858 -8.43193,-64.99327" />
    <circle
       style="fill:#006f99;fill-opacity:1;stroke:none;stroke-width:3.07946;stroke-linejoin:bevel;stroke-dasharray:none;stroke-dashoffset:0;stroke-opacity:1;paint-order:markers stroke fill"
       id="circle228875"
       cx="282.04974"
       cy="113.7786"
       r="15.3973" />
    <circle
       style="fill:#006f99;fill-opacity:1;stroke:none;stroke-width:3.07946;stroke-linejoin:bevel;stroke-dasharray:none;stroke-dashoffset:0;stroke-opacity:1;paint-order:markers stroke fill"
       id="circle228877"
       cx="372.51929"
       cy="115.19281"
       r="15.3973" />
    <circle
       style="fill:#006f99;fill-opacity:1;stroke:none;stroke-width:3.07946;stroke-linejoin:bevel;stroke-dasharray:none;stroke-dashoffset:0;stroke-opacity:1;paint-order:markers stroke fill"
       id="circle228879"
       cx="372.51929"
       cy="204.24832"
       r="15.3973" />
    <circle
       style="fill:#006f99;fill-opacity:1;stroke:none;stroke-width:3.07946;stroke-linejoin:bevel;stroke-dasharray:none;stroke-dashoffset:0;stroke-opacity:1;paint-order:markers stroke fill"
       id="circle228881"
       cx="282.04974"
       cy="205.66252"
       r="15.3973" />
    <g
       transform="matrix(2.0291227,0,0,2.0291227,275.41077,102.17759)"
       ns6:version="1.8.2"
       ns6:texconverter="xelatex"
       ns6:pdfconverter="inkscape"
       ns6:text="$k_1$"
       ns6:preamble="/home/kirito/.config/textext/beamer_preamble.tex"
       ns6:scale="4.0"
       ns6:alignment="middle center"
       ns6:stroke-to-path="0"
       ns6:inkscapeversion="1.2.2"
       ns6:jacobian_sqrt="1.41111"
       id="g239645"
       style="fill:#feffff;fill-opacity:1">
      <defs
         id="defs239631">
        <g
           id="g239629">
          <g
             id="g239615">
            <path
               d="m 5.4375,-6.4375 v 5.890625 H 1.34375 V -6.4375 Z m 0.546875,-0.546875 h -5.1875 V 0 h 5.1875 z m -2.75,4.953125 c -0.21875,0 -0.40625,0.1875 -0.40625,0.421875 0,0.21875 0.1875,0.40625 0.40625,0.40625 0.25,0 0.421875,-0.1875 0.421875,-0.40625 0,-0.234375 -0.171875,-0.421875 -0.421875,-0.421875 z M 3.4375,-5.453125 c -0.5,0 -0.90625,0.1875 -1.25,0.59375 l 0.390625,0.28125 C 2.828125,-4.875 3.09375,-5 3.40625,-5 3.765625,-5 4,-4.8125 4,-4.484375 4,-3.84375 2.953125,-3.953125 2.953125,-2.9375 v 0.296875 H 3.5 V -2.90625 c 0,-0.796875 1.078125,-0.65625 1.078125,-1.625 0,-0.46875 -0.375,-0.921875 -1.140625,-0.921875 z m 0,0"
               id="path239613" />
          </g>
          <g
             id="g239619">
            <path
               d="m 2.515625,-7.484375 -0.90625,0.125 L 0.5625,0 h 0.90625 l 0.4375,-3.15625 C 2.359375,-4.171875 3.0625,-4.640625 3.625,-4.640625 c 0.359375,0 0.5625,0.1875 0.5625,0.5625 0,0.734375 -0.515625,1.171875 -1.75,1.515625 L 3.703125,0 H 4.71875 l -1.1875,-2.328125 c 1.09375,-0.34375 1.625,-1.015625 1.625,-1.84375 C 5.15625,-4.875 4.625,-5.375 3.875,-5.375 c -0.65625,0 -1.296875,0.328125 -1.796875,1.03125 z m 0,0"
               id="path239617" />
          </g>
          <g
             id="g239623">
            <path
               d="m 3.90625,-4.625 v 4.234375 H 0.96875 V -4.625 Z M 4.296875,-5.015625 H 0.578125 V 0 h 3.71875 z m -1.96875,3.5625 c -0.15625,0 -0.296875,0.125 -0.296875,0.296875 0,0.15625 0.140625,0.296875 0.296875,0.296875 C 2.5,-0.859375 2.625,-1 2.625,-1.15625 2.625,-1.328125 2.5,-1.453125 2.328125,-1.453125 Z m 0.140625,-2.46875 c -0.359375,0 -0.640625,0.140625 -0.890625,0.421875 L 1.84375,-3.296875 C 2.03125,-3.5 2.234375,-3.59375 2.453125,-3.59375 c 0.265625,0 0.4375,0.125 0.4375,0.359375 0,0.46875 -0.765625,0.390625 -0.765625,1.125 v 0.203125 h 0.390625 v -0.1875 c 0,-0.5625 0.78125,-0.46875 0.78125,-1.15625 0,-0.34375 -0.28125,-0.671875 -0.828125,-0.671875 z m 0,0"
               id="path239621" />
          </g>
          <g
             id="g239627">
            <path
               d="m 1.984375,0 h 0.65625 V -4.9375 H 2.0625 l -1.484375,0.921875 0.28125,0.453125 1.125,-0.671875 z m 0,0"
               id="path239625" />
          </g>
        </g>
      </defs>
      <g
         fill="#000000"
         fill-opacity="1"
         id="g239637"
         transform="translate(-149.275,-127.281)"
         style="fill:#feffff;fill-opacity:1">
        <g
           transform="translate(148.712,134.765)"
           id="g239635"
           style="fill:#feffff;fill-opacity:1">
          <path
             d="m 2.515625,-7.484375 -0.90625,0.125 L 0.5625,0 h 0.90625 l 0.4375,-3.15625 C 2.359375,-4.171875 3.0625,-4.640625 3.625,-4.640625 c 0.359375,0 0.5625,0.1875 0.5625,0.5625 0,0.734375 -0.515625,1.171875 -1.75,1.515625 L 3.703125,0 H 4.71875 l -1.1875,-2.328125 c 1.09375,-0.34375 1.625,-1.015625 1.625,-1.84375 C 5.15625,-4.875 4.625,-5.375 3.875,-5.375 c -0.65625,0 -1.296875,0.328125 -1.796875,1.03125 z m 0,0"
             id="path239633"
             style="fill:#feffff;fill-opacity:1" />
        </g>
      </g>
      <g
         fill="#000000"
         fill-opacity="1"
         id="g239643"
         transform="translate(-149.275,-127.281)"
         style="fill:#feffff;fill-opacity:1">
        <g
           transform="translate(154.142,138.252)"
           id="g239641"
           style="fill:#feffff;fill-opacity:1">
          <path
             d="m 1.984375,0 h 0.65625 V -4.9375 H 2.0625 l -1.484375,0.921875 0.28125,0.453125 1.125,-0.671875 z m 0,0"
             id="path239639"
             style="fill:#feffff;fill-opacity:1" />
        </g>
      </g>
    </g>
    <g
       transform="matrix(2.02912,0,0,2.02912,364.51182,102.177)"
       ns6:version="1.8.2"
       ns6:texconverter="xelatex"
       ns6:pdfconverter="inkscape"
       ns6:text="$k_2$"
       ns6:preamble="/home/kirito/.config/textext/beamer_preamble.tex"
       ns6:scale="5.7518484030302375"
       ns6:alignment="middle center"
       ns6:stroke-to-path="0"
       ns6:inkscapeversion="1.2.2"
       ns6:jacobian_sqrt="2.02912"
       style="fill:#feffff;fill-opacity:1;stroke-width:0"
       id="g239679">
      <defs
         id="defs239665"
         style="fill:#feffff;fill-opacity:1;stroke-width:0">
        <g
           id="g239663"
           style="fill:#feffff;fill-opacity:1;stroke-width:0">
          <g
             id="g239649"
             style="fill:#feffff;fill-opacity:1;stroke-width:0">
            <path
               d="m 5.4375,-6.4375 v 5.890625 H 1.34375 V -6.4375 Z m 0.546875,-0.546875 h -5.1875 V 0 h 5.1875 z m -2.75,4.953125 c -0.21875,0 -0.40625,0.1875 -0.40625,0.421875 0,0.21875 0.1875,0.40625 0.40625,0.40625 0.25,0 0.421875,-0.1875 0.421875,-0.40625 0,-0.234375 -0.171875,-0.421875 -0.421875,-0.421875 z M 3.4375,-5.453125 c -0.5,0 -0.90625,0.1875 -1.25,0.59375 l 0.390625,0.28125 C 2.828125,-4.875 3.09375,-5 3.40625,-5 3.765625,-5 4,-4.8125 4,-4.484375 4,-3.84375 2.953125,-3.953125 2.953125,-2.9375 v 0.296875 H 3.5 V -2.90625 c 0,-0.796875 1.078125,-0.65625 1.078125,-1.625 0,-0.46875 -0.375,-0.921875 -1.140625,-0.921875 z m 0,0"
               id="path239647"
               style="fill:#feffff;fill-opacity:1;stroke-width:0" />
          </g>
          <g
             id="g239653"
             style="fill:#feffff;fill-opacity:1;stroke-width:0">
            <path
               d="m 2.515625,-7.484375 -0.90625,0.125 L 0.5625,0 h 0.90625 l 0.4375,-3.15625 C 2.359375,-4.171875 3.0625,-4.640625 3.625,-4.640625 c 0.359375,0 0.5625,0.1875 0.5625,0.5625 0,0.734375 -0.515625,1.171875 -1.75,1.515625 L 3.703125,0 H 4.71875 l -1.1875,-2.328125 c 1.09375,-0.34375 1.625,-1.015625 1.625,-1.84375 C 5.15625,-4.875 4.625,-5.375 3.875,-5.375 c -0.65625,0 -1.296875,0.328125 -1.796875,1.03125 z m 0,0"
               id="path239651"
               style="fill:#feffff;fill-opacity:1;stroke-width:0" />
          </g>
          <g
             id="g239657"
             style="fill:#feffff;fill-opacity:1;stroke-width:0">
            <path
               d="m 3.90625,-4.625 v 4.234375 H 0.96875 V -4.625 Z M 4.296875,-5.015625 H 0.578125 V 0 h 3.71875 z m -1.96875,3.5625 c -0.15625,0 -0.296875,0.125 -0.296875,0.296875 0,0.15625 0.140625,0.296875 0.296875,0.296875 C 2.5,-0.859375 2.625,-1 2.625,-1.15625 2.625,-1.328125 2.5,-1.453125 2.328125,-1.453125 Z m 0.140625,-2.46875 c -0.359375,0 -0.640625,0.140625 -0.890625,0.421875 L 1.84375,-3.296875 C 2.03125,-3.5 2.234375,-3.59375 2.453125,-3.59375 c 0.265625,0 0.4375,0.125 0.4375,0.359375 0,0.46875 -0.765625,0.390625 -0.765625,1.125 v 0.203125 h 0.390625 v -0.1875 c 0,-0.5625 0.78125,-0.46875 0.78125,-1.15625 0,-0.34375 -0.28125,-0.671875 -0.828125,-0.671875 z m 0,0"
               id="path239655"
               style="fill:#feffff;fill-opacity:1;stroke-width:0" />
          </g>
          <g
             id="g239661"
             style="fill:#feffff;fill-opacity:1;stroke-width:0">
            <path
               d="m 1.84375,-5.03125 c -0.671875,0 -1.140625,0.25 -1.515625,0.734375 l 0.4375,0.34375 c 0.3125,-0.375 0.578125,-0.53125 1.046875,-0.53125 0.546875,0 0.859375,0.328125 0.859375,0.875 0,0.78125 -0.40625,1.328125 -2.25,3.078125 V 0 H 3.40625 l 0.078125,-0.546875 h -2.3125 c 1.625,-1.46875 2.1875,-2.203125 2.1875,-3.09375 0,-0.78125 -0.5625,-1.390625 -1.515625,-1.390625 z m 0,0"
               id="path239659"
               style="fill:#feffff;fill-opacity:1;stroke-width:0" />
          </g>
        </g>
      </defs>
      <g
         fill-opacity="1"
         id="g239671"
         transform="translate(-149.275,-127.281)"
         style="fill:#feffff;fill-opacity:1;stroke-width:0">
        <g
           transform="translate(148.712,134.765)"
           style="fill:#feffff;fill-opacity:1;stroke-width:0"
           id="g239669">
          <path
             d="m 2.515625,-7.484375 -0.90625,0.125 L 0.5625,0 h 0.90625 l 0.4375,-3.15625 C 2.359375,-4.171875 3.0625,-4.640625 3.625,-4.640625 c 0.359375,0 0.5625,0.1875 0.5625,0.5625 0,0.734375 -0.515625,1.171875 -1.75,1.515625 L 3.703125,0 H 4.71875 l -1.1875,-2.328125 c 1.09375,-0.34375 1.625,-1.015625 1.625,-1.84375 C 5.15625,-4.875 4.625,-5.375 3.875,-5.375 c -0.65625,0 -1.296875,0.328125 -1.796875,1.03125 z m 0,0"
             id="path239667"
             style="fill:#feffff;fill-opacity:1;stroke-width:0" />
        </g>
      </g>
      <g
         fill-opacity="1"
         id="g239677"
         transform="translate(-149.275,-127.281)"
         style="fill:#feffff;fill-opacity:1;stroke-width:0">
        <g
           transform="translate(154.142,138.252)"
           style="fill:#feffff;fill-opacity:1;stroke-width:0"
           id="g239675">
          <path
             d="m 1.84375,-5.03125 c -0.671875,0 -1.140625,0.25 -1.515625,0.734375 l 0.4375,0.34375 c 0.3125,-0.375 0.578125,-0.53125 1.046875,-0.53125 0.546875,0 0.859375,0.328125 0.859375,0.875 0,0.78125 -0.40625,1.328125 -2.25,3.078125 V 0 H 3.40625 l 0.078125,-0.546875 h -2.3125 c 1.625,-1.46875 2.1875,-2.203125 2.1875,-3.09375 0,-0.78125 -0.5625,-1.390625 -1.515625,-1.390625 z m 0,0"
             id="path239673"
             style="fill:#feffff;fill-opacity:1;stroke-width:0" />
        </g>
      </g>
    </g>
    <g
       transform="matrix(2.02912,0,0,2.02912,272.85338,195.143)"
       ns6:version="1.8.2"
       ns6:texconverter="xelatex"
       ns6:pdfconverter="inkscape"
       ns6:text="$k_3$"
       ns6:preamble="/home/kirito/.config/textext/beamer_preamble.tex"
       ns6:scale="5.7518484030302375"
       ns6:alignment="middle center"
       ns6:stroke-to-path="0"
       ns6:inkscapeversion="1.2.2"
       ns6:jacobian_sqrt="2.02912"
       style="fill:#feffff;fill-opacity:1;stroke-width:0"
       id="g239713">
      <defs
         id="defs239699"
         style="fill:#feffff;fill-opacity:1;stroke-width:0">
        <g
           id="g239697"
           style="fill:#feffff;fill-opacity:1;stroke-width:0">
          <g
             id="g239683"
             style="fill:#feffff;fill-opacity:1;stroke-width:0">
            <path
               d="m 5.4375,-6.4375 v 5.890625 H 1.34375 V -6.4375 Z m 0.546875,-0.546875 h -5.1875 V 0 h 5.1875 z m -2.75,4.953125 c -0.21875,0 -0.40625,0.1875 -0.40625,0.421875 0,0.21875 0.1875,0.40625 0.40625,0.40625 0.25,0 0.421875,-0.1875 0.421875,-0.40625 0,-0.234375 -0.171875,-0.421875 -0.421875,-0.421875 z M 3.4375,-5.453125 c -0.5,0 -0.90625,0.1875 -1.25,0.59375 l 0.390625,0.28125 C 2.828125,-4.875 3.09375,-5 3.40625,-5 3.765625,-5 4,-4.8125 4,-4.484375 4,-3.84375 2.953125,-3.953125 2.953125,-2.9375 v 0.296875 H 3.5 V -2.90625 c 0,-0.796875 1.078125,-0.65625 1.078125,-1.625 0,-0.46875 -0.375,-0.921875 -1.140625,-0.921875 z m 0,0"
               id="path239681"
               style="fill:#feffff;fill-opacity:1;stroke-width:0" />
          </g>
          <g
             id="g239687"
             style="fill:#feffff;fill-opacity:1;stroke-width:0">
            <path
               d="m 2.515625,-7.484375 -0.90625,0.125 L 0.5625,0 h 0.90625 l 0.4375,-3.15625 C 2.359375,-4.171875 3.0625,-4.640625 3.625,-4.640625 c 0.359375,0 0.5625,0.1875 0.5625,0.5625 0,0.734375 -0.515625,1.171875 -1.75,1.515625 L 3.703125,0 H 4.71875 l -1.1875,-2.328125 c 1.09375,-0.34375 1.625,-1.015625 1.625,-1.84375 C 5.15625,-4.875 4.625,-5.375 3.875,-5.375 c -0.65625,0 -1.296875,0.328125 -1.796875,1.03125 z m 0,0"
               id="path239685"
               style="fill:#feffff;fill-opacity:1;stroke-width:0" />
          </g>
          <g
             id="g239691"
             style="fill:#feffff;fill-opacity:1;stroke-width:0">
            <path
               d="m 3.90625,-4.625 v 4.234375 H 0.96875 V -4.625 Z M 4.296875,-5.015625 H 0.578125 V 0 h 3.71875 z m -1.96875,3.5625 c -0.15625,0 -0.296875,0.125 -0.296875,0.296875 0,0.15625 0.140625,0.296875 0.296875,0.296875 C 2.5,-0.859375 2.625,-1 2.625,-1.15625 2.625,-1.328125 2.5,-1.453125 2.328125,-1.453125 Z m 0.140625,-2.46875 c -0.359375,0 -0.640625,0.140625 -0.890625,0.421875 L 1.84375,-3.296875 C 2.03125,-3.5 2.234375,-3.59375 2.453125,-3.59375 c 0.265625,0 0.4375,0.125 0.4375,0.359375 0,0.46875 -0.765625,0.390625 -0.765625,1.125 v 0.203125 h 0.390625 v -0.1875 c 0,-0.5625 0.78125,-0.46875 0.78125,-1.15625 0,-0.34375 -0.28125,-0.671875 -0.828125,-0.671875 z m 0,0"
               id="path239689"
               style="fill:#feffff;fill-opacity:1;stroke-width:0" />
          </g>
          <g
             id="g239695"
             style="fill:#feffff;fill-opacity:1;stroke-width:0">
            <path
               d="m 1.796875,-5.03125 c -0.515625,0 -1.015625,0.1875 -1.4375,0.578125 l 0.359375,0.40625 C 1.046875,-4.359375 1.34375,-4.5 1.765625,-4.5 c 0.515625,0 0.90625,0.28125 0.90625,0.8125 0,0.5625 -0.4375,0.828125 -0.921875,0.828125 H 1.46875 L 1.390625,-2.34375 h 0.40625 c 0.578125,0 1,0.234375 1,0.921875 0,0.59375 -0.390625,0.96875 -1.0625,0.96875 -0.40625,0 -0.796875,-0.15625 -1.109375,-0.484375 L 0.21875,-0.578125 C 0.59375,-0.125 1.1875,0.09375 1.75,0.09375 c 1.046875,0 1.75,-0.65625 1.75,-1.515625 0,-0.75 -0.5625,-1.1875 -1.140625,-1.21875 0.546875,-0.125 0.96875,-0.53125 0.96875,-1.140625 0,-0.671875 -0.578125,-1.25 -1.53125,-1.25 z m 0,0"
               id="path239693"
               style="fill:#feffff;fill-opacity:1;stroke-width:0" />
          </g>
        </g>
      </defs>
      <g
         fill-opacity="1"
         id="g239705"
         transform="translate(-149.275,-127.281)"
         style="fill:#feffff;fill-opacity:1;stroke-width:0">
        <g
           transform="translate(148.712,134.765)"
           style="fill:#feffff;fill-opacity:1;stroke-width:0"
           id="g239703">
          <path
             d="m 2.515625,-7.484375 -0.90625,0.125 L 0.5625,0 h 0.90625 l 0.4375,-3.15625 C 2.359375,-4.171875 3.0625,-4.640625 3.625,-4.640625 c 0.359375,0 0.5625,0.1875 0.5625,0.5625 0,0.734375 -0.515625,1.171875 -1.75,1.515625 L 3.703125,0 H 4.71875 l -1.1875,-2.328125 c 1.09375,-0.34375 1.625,-1.015625 1.625,-1.84375 C 5.15625,-4.875 4.625,-5.375 3.875,-5.375 c -0.65625,0 -1.296875,0.328125 -1.796875,1.03125 z m 0,0"
             id="path239701"
             style="fill:#feffff;fill-opacity:1;stroke-width:0" />
        </g>
      </g>
      <g
         fill-opacity="1"
         id="g239711"
         transform="translate(-149.275,-127.281)"
         style="fill:#feffff;fill-opacity:1;stroke-width:0">
        <g
           transform="translate(154.142,138.252)"
           style="fill:#feffff;fill-opacity:1;stroke-width:0"
           id="g239709">
          <path
             d="m 1.796875,-5.03125 c -0.515625,0 -1.015625,0.1875 -1.4375,0.578125 l 0.359375,0.40625 C 1.046875,-4.359375 1.34375,-4.5 1.765625,-4.5 c 0.515625,0 0.90625,0.28125 0.90625,0.8125 0,0.5625 -0.4375,0.828125 -0.921875,0.828125 H 1.46875 L 1.390625,-2.34375 h 0.40625 c 0.578125,0 1,0.234375 1,0.921875 0,0.59375 -0.390625,0.96875 -1.0625,0.96875 -0.40625,0 -0.796875,-0.15625 -1.109375,-0.484375 L 0.21875,-0.578125 C 0.59375,-0.125 1.1875,0.09375 1.75,0.09375 c 1.046875,0 1.75,-0.65625 1.75,-1.515625 0,-0.75 -0.5625,-1.1875 -1.140625,-1.21875 0.546875,-0.125 0.96875,-0.53125 0.96875,-1.140625 0,-0.671875 -0.578125,-1.25 -1.53125,-1.25 z m 0,0"
             id="path239707"
             style="fill:#feffff;fill-opacity:1;stroke-width:0" />
        </g>
      </g>
    </g>
    <g
       transform="matrix(2.02912,0,0,2.02912,363.85582,192.114)"
       ns6:version="1.8.2"
       ns6:texconverter="xelatex"
       ns6:pdfconverter="inkscape"
       ns6:text="$k_4$"
       ns6:preamble="/home/kirito/.config/textext/beamer_preamble.tex"
       ns6:scale="5.7518484030302375"
       ns6:alignment="middle center"
       ns6:stroke-to-path="0"
       ns6:inkscapeversion="1.2.2"
       ns6:jacobian_sqrt="2.02912"
       style="fill:#feffff;fill-opacity:1;stroke-width:0"
       id="g239747">
      <defs
         id="defs239733"
         style="fill:#feffff;fill-opacity:1;stroke-width:0">
        <g
           id="g239731"
           style="fill:#feffff;fill-opacity:1;stroke-width:0">
          <g
             id="g239717"
             style="fill:#feffff;fill-opacity:1;stroke-width:0">
            <path
               d="m 5.4375,-6.4375 v 5.890625 H 1.34375 V -6.4375 Z m 0.546875,-0.546875 h -5.1875 V 0 h 5.1875 z m -2.75,4.953125 c -0.21875,0 -0.40625,0.1875 -0.40625,0.421875 0,0.21875 0.1875,0.40625 0.40625,0.40625 0.25,0 0.421875,-0.1875 0.421875,-0.40625 0,-0.234375 -0.171875,-0.421875 -0.421875,-0.421875 z M 3.4375,-5.453125 c -0.5,0 -0.90625,0.1875 -1.25,0.59375 l 0.390625,0.28125 C 2.828125,-4.875 3.09375,-5 3.40625,-5 3.765625,-5 4,-4.8125 4,-4.484375 4,-3.84375 2.953125,-3.953125 2.953125,-2.9375 v 0.296875 H 3.5 V -2.90625 c 0,-0.796875 1.078125,-0.65625 1.078125,-1.625 0,-0.46875 -0.375,-0.921875 -1.140625,-0.921875 z m 0,0"
               id="path239715"
               style="fill:#feffff;fill-opacity:1;stroke-width:0" />
          </g>
          <g
             id="g239721"
             style="fill:#feffff;fill-opacity:1;stroke-width:0">
            <path
               d="m 2.515625,-7.484375 -0.90625,0.125 L 0.5625,0 h 0.90625 l 0.4375,-3.15625 C 2.359375,-4.171875 3.0625,-4.640625 3.625,-4.640625 c 0.359375,0 0.5625,0.1875 0.5625,0.5625 0,0.734375 -0.515625,1.171875 -1.75,1.515625 L 3.703125,0 H 4.71875 l -1.1875,-2.328125 c 1.09375,-0.34375 1.625,-1.015625 1.625,-1.84375 C 5.15625,-4.875 4.625,-5.375 3.875,-5.375 c -0.65625,0 -1.296875,0.328125 -1.796875,1.03125 z m 0,0"
               id="path239719"
               style="fill:#feffff;fill-opacity:1;stroke-width:0" />
          </g>
          <g
             id="g239725"
             style="fill:#feffff;fill-opacity:1;stroke-width:0">
            <path
               d="m 3.90625,-4.625 v 4.234375 H 0.96875 V -4.625 Z M 4.296875,-5.015625 H 0.578125 V 0 h 3.71875 z m -1.96875,3.5625 c -0.15625,0 -0.296875,0.125 -0.296875,0.296875 0,0.15625 0.140625,0.296875 0.296875,0.296875 C 2.5,-0.859375 2.625,-1 2.625,-1.15625 2.625,-1.328125 2.5,-1.453125 2.328125,-1.453125 Z m 0.140625,-2.46875 c -0.359375,0 -0.640625,0.140625 -0.890625,0.421875 L 1.84375,-3.296875 C 2.03125,-3.5 2.234375,-3.59375 2.453125,-3.59375 c 0.265625,0 0.4375,0.125 0.4375,0.359375 0,0.46875 -0.765625,0.390625 -0.765625,1.125 v 0.203125 h 0.390625 v -0.1875 c 0,-0.5625 0.78125,-0.46875 0.78125,-1.15625 0,-0.34375 -0.28125,-0.671875 -0.828125,-0.671875 z m 0,0"
               id="path239723"
               style="fill:#feffff;fill-opacity:1;stroke-width:0" />
          </g>
          <g
             id="g239729"
             style="fill:#feffff;fill-opacity:1;stroke-width:0">
            <path
               d="m 3.671875,-1.703125 h -0.625 v -1.375 H 2.46875 l -0.0625,1.375 H 1.046875 L 2.34375,-4.796875 1.796875,-5.03125 0.34375,-1.65625 v 0.46875 h 2.0625 V 0 h 0.640625 v -1.1875 h 0.625 z m 0,0"
               id="path239727"
               style="fill:#feffff;fill-opacity:1;stroke-width:0" />
          </g>
        </g>
      </defs>
      <g
         fill-opacity="1"
         id="g239739"
         transform="translate(-149.275,-127.281)"
         style="fill:#feffff;fill-opacity:1;stroke-width:0">
        <g
           transform="translate(148.712,134.765)"
           style="fill:#feffff;fill-opacity:1;stroke-width:0"
           id="g239737">
          <path
             d="m 2.515625,-7.484375 -0.90625,0.125 L 0.5625,0 h 0.90625 l 0.4375,-3.15625 C 2.359375,-4.171875 3.0625,-4.640625 3.625,-4.640625 c 0.359375,0 0.5625,0.1875 0.5625,0.5625 0,0.734375 -0.515625,1.171875 -1.75,1.515625 L 3.703125,0 H 4.71875 l -1.1875,-2.328125 c 1.09375,-0.34375 1.625,-1.015625 1.625,-1.84375 C 5.15625,-4.875 4.625,-5.375 3.875,-5.375 c -0.65625,0 -1.296875,0.328125 -1.796875,1.03125 z m 0,0"
             id="path239735"
             style="fill:#feffff;fill-opacity:1;stroke-width:0" />
        </g>
      </g>
      <g
         fill-opacity="1"
         id="g239745"
         transform="translate(-149.275,-127.281)"
         style="fill:#feffff;fill-opacity:1;stroke-width:0">
        <g
           transform="translate(154.142,138.252)"
           style="fill:#feffff;fill-opacity:1;stroke-width:0"
           id="g239743">
          <path
             d="m 3.671875,-1.703125 h -0.625 v -1.375 H 2.46875 l -0.0625,1.375 H 1.046875 L 2.34375,-4.796875 1.796875,-5.03125 0.34375,-1.65625 v 0.46875 h 2.0625 V 0 h 0.640625 v -1.1875 h 0.625 z m 0,0"
             id="path239741"
             style="fill:#feffff;fill-opacity:1;stroke-width:0" />
        </g>
      </g>
    </g>
  </g>
</svg>
