<?xml version="1.0" encoding="UTF-8" standalone="no"?>
<!-- Created with Inkscape (http://www.inkscape.org/) -->

<svg
   width="195.25575mm"
   height="97.234604mm"
   viewBox="0 0 195.25576 97.234604"
   version="1.1"
   id="svg197469"
   sodipodi:docname="periodicAnderson.svg"
   inkscape:version="1.2.2 (b0a8486541, 2022-12-01)"
   xmlns:inkscape="http://www.inkscape.org/namespaces/inkscape"
   xmlns:sodipodi="http://sodipodi.sourceforge.net/DTD/sodipodi-0.dtd"
   xmlns="http://www.w3.org/2000/svg"
   xmlns:svg="http://www.w3.org/2000/svg"
   xmlns:ns28="http://www.iki.fi/pav/software/textext/">
  <sodipodi:namedview
     id="namedview197471"
     pagecolor="#ffffff"
     bordercolor="#cccccc"
     borderopacity="1"
     inkscape:showpageshadow="0"
     inkscape:pageopacity="1"
     inkscape:pagecheckerboard="0"
     inkscape:deskcolor="#d1d1d1"
     inkscape:document-units="mm"
     showgrid="false"
     inkscape:zoom="0.68862935"
     inkscape:cx="350.69664"
     inkscape:cy="259.21056"
     inkscape:window-width="1920"
     inkscape:window-height="1019"
     inkscape:window-x="0"
     inkscape:window-y="0"
     inkscape:window-maximized="1"
     inkscape:current-layer="layer1" />
  <defs
     id="defs197466">
    <marker
       style="overflow:visible"
       id="RoundedArrow"
       refX="0"
       refY="0"
       orient="auto-start-reverse"
       inkscape:stockid="RoundedArrow"
       markerWidth="3.135"
       markerHeight="3.0306199"
       viewBox="0 0 6.1347524 5.9304951"
       inkscape:isstock="true"
       inkscape:collect="always"
       preserveAspectRatio="xMidYMid">
      <path
         transform="scale(0.7)"
         d="m -0.21114562,-4.1055728 6.42229122,3.21114561 a 1,1 90 0 1 0,1.78885438 L -0.21114562,4.1055728 A 1.236068,1.236068 31.717474 0 1 -2,3 v -6 a 1.236068,1.236068 148.28253 0 1 1.78885438,-1.1055728 z"
         style="fill:context-stroke;fill-rule:evenodd;stroke:none"
         id="path1367" />
    </marker>
    <inkscape:path-effect
       effect="spiro"
       id="path-effect199384"
       is_visible="true"
       lpeversion="1" />
    <inkscape:path-effect
       effect="spiro"
       id="path-effect199380"
       is_visible="true"
       lpeversion="1" />
    <inkscape:path-effect
       effect="spiro"
       id="path-effect197603"
       is_visible="true"
       lpeversion="1" />
    <inkscape:path-effect
       effect="spiro"
       id="path-effect197529"
       is_visible="true"
       lpeversion="1" />
  </defs>
  <g
     inkscape:label="Layer 1"
     inkscape:groupmode="layer"
     id="layer1"
     transform="translate(24.873047,-70.714629)">
    <circle
       style="fill:#c75555;fill-opacity:1;stroke:none;stroke-width:1;stroke-linejoin:bevel;stroke-dasharray:none;stroke-dashoffset:0;stroke-opacity:1;paint-order:markers stroke fill"
       id="path197583"
       cx="50.288197"
       cy="98.116501"
       r="8.4032536" />
    <circle
       style="fill:#c75555;fill-opacity:1;stroke:none;stroke-width:1;stroke-linejoin:bevel;stroke-dasharray:none;stroke-dashoffset:0;stroke-opacity:1;paint-order:markers stroke fill"
       id="circle197585"
       cx="82.038193"
       cy="98.116501"
       r="8.4032536" />
    <circle
       style="fill:#c75555;fill-opacity:1;stroke:none;stroke-width:1;stroke-linejoin:bevel;stroke-dasharray:none;stroke-dashoffset:0;stroke-opacity:1;paint-order:markers stroke fill"
       id="circle197587"
       cx="113.78818"
       cy="98.116501"
       r="8.4032536" />
    <circle
       style="fill:#c75555;fill-opacity:1;stroke:none;stroke-width:1;stroke-linejoin:bevel;stroke-dasharray:none;stroke-dashoffset:0;stroke-opacity:1;paint-order:markers stroke fill"
       id="circle197589"
       cx="145.53819"
       cy="98.116501"
       r="8.4032536" />
    <path
       style="fill:none;fill-opacity:1;stroke:#505050;stroke-width:3;stroke-linejoin:bevel;stroke-dasharray:6, 3;stroke-dashoffset:0;stroke-opacity:1;paint-order:markers stroke fill"
       d="M 24.695295,151.0332 H 170.3827"
       id="path197591"
       inkscape:path-effect="#path-effect197603"
       inkscape:original-d="m 24.695295,151.0332 c 48.562733,2.6e-4 145.687405,0 145.687405,0" />
    <circle
       style="fill:#3c90c0;fill-opacity:1;stroke:none;stroke-width:1;stroke-linejoin:bevel;stroke-dasharray:none;stroke-dashoffset:0;stroke-opacity:1;paint-order:markers stroke fill"
       id="circle197593"
       cx="50.288197"
       cy="151.03317"
       r="8.4032536" />
    <circle
       style="fill:#3c90c0;fill-opacity:1;stroke:none;stroke-width:1;stroke-linejoin:bevel;stroke-dasharray:none;stroke-dashoffset:0;stroke-opacity:1;paint-order:markers stroke fill"
       id="circle197595"
       cx="82.038193"
       cy="151.03317"
       r="8.4032536" />
    <circle
       style="fill:#3c90c0;fill-opacity:1;stroke:none;stroke-width:1;stroke-linejoin:bevel;stroke-dasharray:none;stroke-dashoffset:0;stroke-opacity:1;paint-order:markers stroke fill"
       id="circle197597"
       cx="113.78818"
       cy="151.03317"
       r="8.4032536" />
    <circle
       style="fill:#3c90c0;fill-opacity:1;stroke:none;stroke-width:1;stroke-linejoin:bevel;stroke-dasharray:none;stroke-dashoffset:0;stroke-opacity:1;paint-order:markers stroke fill"
       id="circle197599"
       cx="145.53819"
       cy="151.03317"
       r="8.4032536" />
    <g
       transform="matrix(1.41111,0,0,1.41111,37.756999,70.714982)"
       ns28:version="1.8.2"
       ns28:texconverter="xelatex"
       ns28:pdfconverter="inkscape"
       ns28:text="correlated $f-$ sites"
       ns28:preamble="/home/kirito/.config/textext/beamer_preamble.tex"
       ns28:scale="4.0"
       ns28:alignment="middle center"
       ns28:stroke-to-path="0"
       ns28:jacobian_sqrt="1.41111"
       id="g197777">
      <defs
         id="id-3f5d3f6d-508e-4260-a07d-ce3d455dba33">
        <g
           id="id-4a1cbc12-1ae6-4641-bad9-c6bf250467bf">
          <g
             id="id-0abe1eed-60b6-478f-8fb2-0ecde159baee">
            <path
               d="M 5.40625,-10.46875 V 3.484375 H 1.21875 V -10.46875 Z M 4.875,-9.953125 H 1.78125 V 2.96875 H 4.875 Z M 3.234375,-4.5 c 0.394531,0 0.675781,0.109375 0.84375,0.328125 0.175781,0.210937 0.265625,0.484375 0.265625,0.828125 0,0.34375 -0.078125,0.617188 -0.234375,0.8125 -0.148437,0.1875 -0.386719,0.308594 -0.71875,0.359375 v 0.453125 c 0,0.074219 -0.027344,0.132812 -0.078125,0.171875 -0.054688,0.042969 -0.109375,0.0625 -0.171875,0.0625 -0.0625,0 -0.121094,-0.019531 -0.171875,-0.0625 C 2.914062,-1.585938 2.890625,-1.644531 2.890625,-1.71875 V -2.5625 c 0.351563,-0.019531 0.59375,-0.082031 0.71875,-0.1875 0.125,-0.113281 0.1875,-0.304688 0.1875,-0.578125 0,-0.21875 -0.046875,-0.382813 -0.140625,-0.5 -0.085938,-0.125 -0.242188,-0.1875 -0.46875,-0.1875 -0.1875,0 -0.359375,0.039063 -0.515625,0.109375 -0.054687,0.023438 -0.09375,0.03125 -0.125,0.03125 -0.074219,0 -0.136719,-0.019531 -0.1875,-0.0625 -0.042969,-0.039062 -0.0625,-0.097656 -0.0625,-0.171875 0,-0.125 0.097656,-0.21875 0.296875,-0.28125 C 2.789062,-4.460938 3.003906,-4.5 3.234375,-4.5 Z m -0.09375,3.296875 c 0.101563,0 0.1875,0.039063 0.25,0.109375 0.0625,0.0625 0.09375,0.148438 0.09375,0.25 0,0.105469 -0.03125,0.195312 -0.09375,0.265625 -0.0625,0.0625 -0.148437,0.09375 -0.25,0.09375 -0.105469,0 -0.1875,-0.03125 -0.25,-0.09375 -0.0625,-0.070313 -0.09375,-0.160156 -0.09375,-0.265625 0,-0.101562 0.03125,-0.1875 0.09375,-0.25 0.0625,-0.070312 0.144531,-0.109375 0.25,-0.109375 z m 0,0"
               id="id-e55b5ff6-8261-412d-97d1-bc3978426335" />
          </g>
          <g
             id="id-bab308e0-8241-454b-823c-01855e92b7f4">
            <path
               d="m 2.859375,-5.375 c 0.3125,0 0.597656,0.046875 0.859375,0.140625 0.257812,0.085937 0.507812,0.226563 0.75,0.421875 l -0.4375,0.578125 c -0.1875,-0.125 -0.371094,-0.21875 -0.546875,-0.28125 -0.179687,-0.0625 -0.371094,-0.09375 -0.578125,-0.09375 -0.429688,0 -0.761719,0.171875 -1,0.515625 -0.230469,0.335938 -0.34375,0.828125 -0.34375,1.484375 0,0.667969 0.113281,1.164063 0.34375,1.484375 0.226562,0.3125 0.5625,0.46875 1,0.46875 0.195312,0 0.382812,-0.03125 0.5625,-0.09375 0.175781,-0.0625 0.367188,-0.164062 0.578125,-0.3125 L 4.46875,-0.453125 C 3.988281,-0.0664062 3.453125,0.125 2.859375,0.125 2.148438,0.125 1.585938,-0.113281 1.171875,-0.59375 0.765625,-1.070312 0.5625,-1.734375 0.5625,-2.578125 c 0,-0.5625 0.09375,-1.050781 0.28125,-1.46875 0.1875,-0.414063 0.453125,-0.738281 0.796875,-0.96875 0.34375,-0.238281 0.75,-0.359375 1.21875,-0.359375 z m 0,0"
               id="id-a844dd03-d943-42b3-8fb7-7aeef2d8b9fa" />
          </g>
          <g
             id="id-f9e16a16-db45-412d-b315-ac0954ba2b84">
            <path
               d="m 2.921875,-5.375 c 0.738281,0 1.3125,0.25 1.71875,0.75 0.40625,0.492188 0.609375,1.15625 0.609375,2 0,0.542969 -0.09375,1.023438 -0.28125,1.4375 -0.1875,0.417969 -0.460938,0.742188 -0.8125,0.96875 C 3.8125,0.0078125 3.394531,0.125 2.90625,0.125 2.164062,0.125 1.585938,-0.117188 1.171875,-0.609375 0.765625,-1.109375 0.5625,-1.78125 0.5625,-2.625 c 0,-0.539062 0.09375,-1.019531 0.28125,-1.4375 0.1875,-0.414062 0.457031,-0.738281 0.8125,-0.96875 C 2.007812,-5.257812 2.429688,-5.375 2.921875,-5.375 Z m 0,0.734375 c -0.90625,0 -1.359375,0.671875 -1.359375,2.015625 0,1.335938 0.445312,2 1.34375,2 0.90625,0 1.359375,-0.664062 1.359375,-2 0,-1.34375 -0.449219,-2.015625 -1.34375,-2.015625 z m 0,0"
               id="id-111b8649-830d-4b23-8153-294ec48596b2" />
          </g>
          <g
             id="id-f721bf33-2eb1-4867-91f6-b1bd9ba6859f">
            <path
               d="m 3.234375,-5.375 c 0.1875,0 0.359375,0.023438 0.515625,0.0625 L 3.578125,-4.421875 C 3.421875,-4.453125 3.269531,-4.46875 3.125,-4.46875 c -0.335938,0 -0.601562,0.121094 -0.796875,0.359375 C 2.128906,-3.878906 1.972656,-3.507812 1.859375,-3 v 3 h -0.90625 v -5.25 h 0.78125 l 0.09375,1.0625 C 1.960938,-4.582031 2.148438,-4.878906 2.390625,-5.078125 2.628906,-5.273438 2.910156,-5.375 3.234375,-5.375 Z m 0,0"
               id="id-06e9b0ad-9c4a-4fdd-9427-771d265c0958" />
          </g>
          <g
             id="id-dfda1547-0ee3-498e-9fda-b6f8115e7bdd">
            <path
               d="m 4.921875,-2.78125 c 0,0.15625 -0.011719,0.3125 -0.03125,0.46875 h -3.34375 c 0.039063,0.574219 0.1875,1 0.4375,1.28125 0.25,0.273438 0.570313,0.40625 0.96875,0.40625 0.257813,0 0.492187,-0.035156 0.703125,-0.109375 C 3.875,-0.804688 4.097656,-0.925781 4.328125,-1.09375 l 0.390625,0.5625 C 4.164062,-0.09375 3.554688,0.125 2.890625,0.125 2.160156,0.125 1.585938,-0.113281 1.171875,-0.59375 0.765625,-1.070312 0.5625,-1.734375 0.5625,-2.578125 c 0,-0.539063 0.085938,-1.019531 0.265625,-1.4375 0.175781,-0.425781 0.425781,-0.757813 0.75,-1 C 1.910156,-5.253906 2.300781,-5.375 2.75,-5.375 c 0.695312,0 1.234375,0.230469 1.609375,0.6875 0.375,0.460938 0.5625,1.09375 0.5625,1.90625 z M 4,-3.046875 c 0,-0.519531 -0.105469,-0.914063 -0.3125,-1.1875 -0.199219,-0.269531 -0.507812,-0.40625 -0.921875,-0.40625 -0.75,0 -1.15625,0.554687 -1.21875,1.65625 H 4 Z m 0,0"
               id="id-24aab70f-f4b1-4722-b23c-cce9e4221e9a" />
          </g>
          <g
             id="id-005fcc8f-2641-46a2-8cc1-853de7ecdf8d">
            <path
               d="M 2,0.125 C 1.65625,0.125 1.382812,0.0234375 1.1875,-0.171875 0.988281,-0.378906 0.890625,-0.664062 0.890625,-1.03125 v -6.328125 l 0.921875,-0.125 V -1.0625 c 0,0.148438 0.023438,0.257812 0.078125,0.328125 0.050781,0.0625 0.132813,0.09375 0.25,0.09375 0.125,0 0.238281,-0.019531 0.34375,-0.0625 L 2.71875,-0.0625 C 2.5,0.0625 2.257812,0.125 2,0.125 Z m 0,0"
               id="id-0057cf50-b3de-4320-a5d5-78113bf0ae57" />
          </g>
          <g
             id="id-a21887ad-c148-4c72-894a-3f81da748fab">
            <path
               d="m 4.484375,-1.21875 c 0,0.210938 0.035156,0.367188 0.109375,0.46875 0.070312,0.105469 0.179688,0.183594 0.328125,0.234375 L 4.71875,0.125 C 4.445312,0.0820312 4.226562,0.00390625 4.0625,-0.109375 c -0.167969,-0.125 -0.292969,-0.3125 -0.375,-0.5625 C 3.332031,-0.140625 2.8125,0.125 2.125,0.125 c -0.523438,0 -0.933594,-0.1445312 -1.234375,-0.4375 -0.292969,-0.289062 -0.4375,-0.675781 -0.4375,-1.15625 0,-0.550781 0.195313,-0.976562 0.59375,-1.28125 0.40625,-0.300781 0.976563,-0.453125 1.71875,-0.453125 H 3.5625 V -3.59375 c 0,-0.363281 -0.089844,-0.625 -0.265625,-0.78125 -0.179687,-0.164062 -0.453125,-0.25 -0.828125,-0.25 -0.386719,0 -0.855469,0.09375 -1.40625,0.28125 L 0.828125,-5.015625 c 0.644531,-0.238281 1.25,-0.359375 1.8125,-0.359375 0.613281,0 1.070313,0.152344 1.375,0.453125 0.3125,0.304687 0.46875,0.734375 0.46875,1.296875 z m -2.15625,0.65625 c 0.53125,0 0.941406,-0.273438 1.234375,-0.828125 V -2.59375 H 2.875 c -0.96875,0 -1.453125,0.359375 -1.453125,1.078125 0,0.3125 0.078125,0.554687 0.234375,0.71875 0.15625,0.15625 0.378906,0.234375 0.671875,0.234375 z m 0,0"
               id="id-2a3f9563-00f7-4f4e-97ea-e129b130939f" />
          </g>
          <g
             id="id-c0a5a089-c197-4055-9d7a-4739d3a1d637">
            <path
               d="M 3.59375,-0.234375 C 3.25,0.00390625 2.859375,0.125 2.421875,0.125 1.972656,0.125 1.625,0 1.375,-0.25 1.125,-0.507812 1,-0.882812 1,-1.375 V -4.546875 H 0.09375 V -5.25 H 1 V -6.4375 L 1.921875,-6.546875 V -5.25 h 1.25 l -0.09375,0.703125 h -1.15625 v 3.125 c 0,0.28125 0.046875,0.484375 0.140625,0.609375 0.101562,0.117188 0.265625,0.171875 0.484375,0.171875 0.207031,0 0.441406,-0.066406 0.703125,-0.203125 z m 0,0"
               id="id-a5043e7a-7ad5-42da-8194-30ea0c01f7fa" />
          </g>
          <g
             id="id-fe0e1e52-446b-4e87-8dc1-ce58a0aace54">
            <path
               d="M 5.015625,-7.359375 V 0 h -0.8125 L 4.109375,-0.734375 C 3.941406,-0.460938 3.726562,-0.25 3.46875,-0.09375 3.207031,0.0507812 2.921875,0.125 2.609375,0.125 c -0.625,0 -1.117187,-0.242188 -1.46875,-0.734375 -0.34375,-0.5 -0.515625,-1.164063 -0.515625,-2 0,-0.53125 0.078125,-1.003906 0.234375,-1.421875 0.164063,-0.425781 0.40625,-0.753906 0.71875,-0.984375 C 1.890625,-5.253906 2.257812,-5.375 2.6875,-5.375 c 0.53125,0 1,0.21875 1.40625,0.65625 v -2.765625 z m -2.21875,6.75 c 0.28125,0 0.519531,-0.0625 0.71875,-0.1875 0.195313,-0.132813 0.390625,-0.332031 0.578125,-0.59375 v -2.5625 C 3.925781,-4.179688 3.742188,-4.351562 3.546875,-4.46875 3.347656,-4.582031 3.125,-4.640625 2.875,-4.640625 c -0.40625,0 -0.71875,0.171875 -0.9375,0.515625 -0.21875,0.335938 -0.328125,0.835938 -0.328125,1.5 0,0.679688 0.097656,1.183594 0.296875,1.515625 0.207031,0.335937 0.503906,0.5 0.890625,0.5 z m 0,0"
               id="id-31a17c96-11e5-46c3-81a5-5d536ae4c038" />
          </g>
          <g
             id="id-48397334-0896-4be6-9c59-27248815c69b">
            <path
               d="m 2.375,-5.375 c 0.351562,0 0.671875,0.054688 0.953125,0.15625 0.289063,0.09375 0.566406,0.242188 0.828125,0.4375 L 3.765625,-4.203125 C 3.523438,-4.347656 3.296875,-4.457031 3.078125,-4.53125 2.867188,-4.601562 2.644531,-4.640625 2.40625,-4.640625 c -0.304688,0 -0.542969,0.0625 -0.71875,0.1875 -0.167969,0.117187 -0.25,0.28125 -0.25,0.5 0,0.210937 0.078125,0.375 0.234375,0.5 0.164063,0.117187 0.460937,0.230469 0.890625,0.34375 0.582031,0.148437 1.019531,0.34375 1.3125,0.59375 0.289062,0.25 0.4375,0.601563 0.4375,1.046875 0,0.511719 -0.203125,0.90625 -0.609375,1.1875 C 3.296875,-0.0078125 2.804688,0.125 2.234375,0.125 1.429688,0.125 0.769531,-0.101562 0.25,-0.5625 L 0.734375,-1.125 c 0.445313,0.335938 0.941406,0.5 1.484375,0.5 0.34375,0 0.613281,-0.066406 0.8125,-0.203125 0.207031,-0.144531 0.3125,-0.34375 0.3125,-0.59375 0,-0.175781 -0.039062,-0.316406 -0.109375,-0.421875 C 3.160156,-1.957031 3.03125,-2.054688 2.84375,-2.140625 2.664062,-2.222656 2.40625,-2.3125 2.0625,-2.40625 1.5,-2.550781 1.09375,-2.742188 0.84375,-2.984375 c -0.242188,-0.25 -0.359375,-0.5625 -0.359375,-0.9375 0,-0.28125 0.078125,-0.53125 0.234375,-0.75 C 0.882812,-4.890625 1.109375,-5.0625 1.390625,-5.1875 1.679688,-5.3125 2.007812,-5.375 2.375,-5.375 Z m 0,0"
               id="id-a6eb107a-1a9d-4beb-85c1-67b971424699" />
          </g>
          <g
             id="id-7000a353-dff7-4c39-8a99-bdc27a881381">
            <path
               d="M 1.859375,-5.25 V 0 h -0.90625 v -5.25 z m -0.46875,-2.53125 c 0.195313,0 0.351563,0.0625 0.46875,0.1875 0.125,0.117188 0.1875,0.265625 0.1875,0.453125 0,0.179687 -0.0625,0.324219 -0.1875,0.4375 -0.117187,0.117187 -0.273437,0.171875 -0.46875,0.171875 -0.179687,0 -0.328125,-0.054688 -0.453125,-0.171875 -0.117188,-0.113281 -0.171875,-0.257813 -0.171875,-0.4375 0,-0.1875 0.054687,-0.335937 0.171875,-0.453125 0.125,-0.125 0.273438,-0.1875 0.453125,-0.1875 z m 0,0"
               id="id-72a48b80-ffd5-4e47-b7c8-e91bc97b64b7" />
          </g>
          <g
             id="id-cc60fcd9-9b9d-4581-bfe6-dc8ab978f3d5">
            <path
               d="m 5.4375,-6.4375 v 5.890625 H 1.34375 V -6.4375 Z m 0.546875,-0.546875 h -5.1875 V 0 h 5.1875 z m -2.75,4.953125 c -0.21875,0 -0.40625,0.1875 -0.40625,0.421875 0,0.21875 0.1875,0.40625 0.40625,0.40625 0.25,0 0.421875,-0.1875 0.421875,-0.40625 0,-0.234375 -0.171875,-0.421875 -0.421875,-0.421875 z M 3.4375,-5.453125 c -0.5,0 -0.90625,0.1875 -1.25,0.59375 l 0.390625,0.28125 C 2.828125,-4.875 3.09375,-5 3.40625,-5 3.765625,-5 4,-4.8125 4,-4.484375 4,-3.84375 2.953125,-3.953125 2.953125,-2.9375 v 0.296875 H 3.5 V -2.90625 c 0,-0.796875 1.078125,-0.65625 1.078125,-1.625 0,-0.46875 -0.375,-0.921875 -1.140625,-0.921875 z m 0,0"
               id="id-2d601716-dee3-4906-baba-1b535886d9b2" />
          </g>
          <g
             id="id-5080c480-1e1a-4186-95d5-9490764aea67">
            <path
               d="m 4.296875,-6.734375 c 0.25,0 0.546875,0.03125 0.859375,0.25 L 5.5,-7.09375 C 5.109375,-7.34375 4.78125,-7.484375 4.265625,-7.484375 3.234375,-7.484375 2.609375,-6.875 2.484375,-6 L 2.375,-5.25 H 1.453125 L 1.34375,-4.546875 h 0.921875 l -0.59375,4.25 C 1.515625,0.84375 1.078125,1.109375 0.359375,1.4375 L 0.625,2.125 c 1.15625,-0.5 1.75,-0.921875 1.953125,-2.421875 l 0.609375,-4.25 H 4.34375 L 4.546875,-5.25 H 3.28125 L 3.375,-5.953125 c 0.078125,-0.5 0.328125,-0.78125 0.921875,-0.78125 z m 0,0"
               id="id-ddee9184-679c-4c2c-a53e-aba1a45c538e" />
          </g>
          <g
             id="id-319d1124-21c8-47a6-8063-7c2a95c775cb">
            <path
               d="M 0.625,-2.40625 H 4.359375 V -3.171875 H 0.625 Z m 0,0"
               id="id-30359cd9-4bcd-4c43-8f94-7609de6c4be9" />
          </g>
        </g>
      </defs>
      <g
         fill="#000000"
         fill-opacity="1"
         id="id-7bb7abf9-3a8a-42df-8579-b7f8e28bab38"
         transform="translate(-149.275,-126.984)">
        <g
           transform="translate(148.712,134.765)"
           id="g197988">
          <path
             d="m 2.859375,-5.375 c 0.3125,0 0.597656,0.046875 0.859375,0.140625 0.257812,0.085937 0.507812,0.226563 0.75,0.421875 l -0.4375,0.578125 c -0.1875,-0.125 -0.371094,-0.21875 -0.546875,-0.28125 -0.179687,-0.0625 -0.371094,-0.09375 -0.578125,-0.09375 -0.429688,0 -0.761719,0.171875 -1,0.515625 -0.230469,0.335938 -0.34375,0.828125 -0.34375,1.484375 0,0.667969 0.113281,1.164063 0.34375,1.484375 0.226562,0.3125 0.5625,0.46875 1,0.46875 0.195312,0 0.382812,-0.03125 0.5625,-0.09375 0.175781,-0.0625 0.367188,-0.164062 0.578125,-0.3125 L 4.46875,-0.453125 C 3.988281,-0.0664062 3.453125,0.125 2.859375,0.125 2.148438,0.125 1.585938,-0.113281 1.171875,-0.59375 0.765625,-1.070312 0.5625,-1.734375 0.5625,-2.578125 c 0,-0.5625 0.09375,-1.050781 0.28125,-1.46875 0.1875,-0.414063 0.453125,-0.738281 0.796875,-0.96875 0.34375,-0.238281 0.75,-0.359375 1.21875,-0.359375 z m 0,0"
             id="id-5ce94955-e6e3-4aa9-921e-6626f49697a7" />
        </g>
      </g>
      <g
         fill="#000000"
         fill-opacity="1"
         id="id-fa5e2839-b7b8-4001-bf26-490ff44ad683"
         transform="translate(-149.275,-126.984)">
        <g
           transform="translate(153.285,134.765)"
           id="g197992">
          <path
             d="m 2.921875,-5.375 c 0.738281,0 1.3125,0.25 1.71875,0.75 0.40625,0.492188 0.609375,1.15625 0.609375,2 0,0.542969 -0.09375,1.023438 -0.28125,1.4375 -0.1875,0.417969 -0.460938,0.742188 -0.8125,0.96875 C 3.8125,0.0078125 3.394531,0.125 2.90625,0.125 2.164062,0.125 1.585938,-0.117188 1.171875,-0.609375 0.765625,-1.109375 0.5625,-1.78125 0.5625,-2.625 c 0,-0.539062 0.09375,-1.019531 0.28125,-1.4375 0.1875,-0.414062 0.457031,-0.738281 0.8125,-0.96875 C 2.007812,-5.257812 2.429688,-5.375 2.921875,-5.375 Z m 0,0.734375 c -0.90625,0 -1.359375,0.671875 -1.359375,2.015625 0,1.335938 0.445312,2 1.34375,2 0.90625,0 1.359375,-0.664062 1.359375,-2 0,-1.34375 -0.449219,-2.015625 -1.34375,-2.015625 z m 0,0"
             id="id-0de686ae-93d4-4d2b-9619-16811ef11b57" />
        </g>
        <g
           transform="translate(159.103,134.765)"
           id="g197995">
          <path
             d="m 3.234375,-5.375 c 0.1875,0 0.359375,0.023438 0.515625,0.0625 L 3.578125,-4.421875 C 3.421875,-4.453125 3.269531,-4.46875 3.125,-4.46875 c -0.335938,0 -0.601562,0.121094 -0.796875,0.359375 C 2.128906,-3.878906 1.972656,-3.507812 1.859375,-3 v 3 h -0.90625 v -5.25 h 0.78125 l 0.09375,1.0625 C 1.960938,-4.582031 2.148438,-4.878906 2.390625,-5.078125 2.628906,-5.273438 2.910156,-5.375 3.234375,-5.375 Z m 0,0"
             id="id-0027a578-a2aa-4166-9376-e6dd9ea8d73e" />
        </g>
        <g
           transform="translate(162.949,134.765)"
           id="g197998">
          <path
             d="m 3.234375,-5.375 c 0.1875,0 0.359375,0.023438 0.515625,0.0625 L 3.578125,-4.421875 C 3.421875,-4.453125 3.269531,-4.46875 3.125,-4.46875 c -0.335938,0 -0.601562,0.121094 -0.796875,0.359375 C 2.128906,-3.878906 1.972656,-3.507812 1.859375,-3 v 3 h -0.90625 v -5.25 h 0.78125 l 0.09375,1.0625 C 1.960938,-4.582031 2.148438,-4.878906 2.390625,-5.078125 2.628906,-5.273438 2.910156,-5.375 3.234375,-5.375 Z m 0,0"
             id="id-e2f916cc-995f-4239-b75d-0f5bfc759f02" />
        </g>
      </g>
      <g
         fill="#000000"
         fill-opacity="1"
         id="id-a625a770-4ac7-4da8-8a42-9826adf49a75"
         transform="translate(-149.275,-126.984)">
        <g
           transform="translate(166.495,134.765)"
           id="g198002">
          <path
             d="m 4.921875,-2.78125 c 0,0.15625 -0.011719,0.3125 -0.03125,0.46875 h -3.34375 c 0.039063,0.574219 0.1875,1 0.4375,1.28125 0.25,0.273438 0.570313,0.40625 0.96875,0.40625 0.257813,0 0.492187,-0.035156 0.703125,-0.109375 C 3.875,-0.804688 4.097656,-0.925781 4.328125,-1.09375 l 0.390625,0.5625 C 4.164062,-0.09375 3.554688,0.125 2.890625,0.125 2.160156,0.125 1.585938,-0.113281 1.171875,-0.59375 0.765625,-1.070312 0.5625,-1.734375 0.5625,-2.578125 c 0,-0.539063 0.085938,-1.019531 0.265625,-1.4375 0.175781,-0.425781 0.425781,-0.757813 0.75,-1 C 1.910156,-5.253906 2.300781,-5.375 2.75,-5.375 c 0.695312,0 1.234375,0.230469 1.609375,0.6875 0.375,0.460938 0.5625,1.09375 0.5625,1.90625 z M 4,-3.046875 c 0,-0.519531 -0.105469,-0.914063 -0.3125,-1.1875 -0.199219,-0.269531 -0.507812,-0.40625 -0.921875,-0.40625 -0.75,0 -1.15625,0.554687 -1.21875,1.65625 H 4 Z m 0,0"
             id="id-a33eec83-4359-4e49-a279-4773f5b56eaa" />
        </g>
        <g
           transform="translate(171.925,134.765)"
           id="g198005">
          <path
             d="M 2,0.125 C 1.65625,0.125 1.382812,0.0234375 1.1875,-0.171875 0.988281,-0.378906 0.890625,-0.664062 0.890625,-1.03125 v -6.328125 l 0.921875,-0.125 V -1.0625 c 0,0.148438 0.023438,0.257812 0.078125,0.328125 0.050781,0.0625 0.132813,0.09375 0.25,0.09375 0.125,0 0.238281,-0.019531 0.34375,-0.0625 L 2.71875,-0.0625 C 2.5,0.0625 2.257812,0.125 2,0.125 Z m 0,0"
             id="id-bbdb1248-a526-4c36-90f8-11b9faaf5e53" />
        </g>
      </g>
      <g
         fill="#000000"
         fill-opacity="1"
         id="id-28605b15-4982-4b90-815e-899bdd55a5f0"
         transform="translate(-149.275,-126.984)">
        <g
           transform="translate(174.794,134.765)"
           id="g198009">
          <path
             d="m 4.484375,-1.21875 c 0,0.210938 0.035156,0.367188 0.109375,0.46875 0.070312,0.105469 0.179688,0.183594 0.328125,0.234375 L 4.71875,0.125 C 4.445312,0.0820312 4.226562,0.00390625 4.0625,-0.109375 c -0.167969,-0.125 -0.292969,-0.3125 -0.375,-0.5625 C 3.332031,-0.140625 2.8125,0.125 2.125,0.125 c -0.523438,0 -0.933594,-0.1445312 -1.234375,-0.4375 -0.292969,-0.289062 -0.4375,-0.675781 -0.4375,-1.15625 0,-0.550781 0.195313,-0.976562 0.59375,-1.28125 0.40625,-0.300781 0.976563,-0.453125 1.71875,-0.453125 H 3.5625 V -3.59375 c 0,-0.363281 -0.089844,-0.625 -0.265625,-0.78125 -0.179687,-0.164062 -0.453125,-0.25 -0.828125,-0.25 -0.386719,0 -0.855469,0.09375 -1.40625,0.28125 L 0.828125,-5.015625 c 0.644531,-0.238281 1.25,-0.359375 1.8125,-0.359375 0.613281,0 1.070313,0.152344 1.375,0.453125 0.3125,0.304687 0.46875,0.734375 0.46875,1.296875 z m -2.15625,0.65625 c 0.53125,0 0.941406,-0.273438 1.234375,-0.828125 V -2.59375 H 2.875 c -0.96875,0 -1.453125,0.359375 -1.453125,1.078125 0,0.3125 0.078125,0.554687 0.234375,0.71875 0.15625,0.15625 0.378906,0.234375 0.671875,0.234375 z m 0,0"
             id="id-e3115190-c9eb-4bc1-8914-7fe4e0298307" />
        </g>
        <g
           transform="translate(180.214,134.765)"
           id="g198012">
          <path
             d="M 3.59375,-0.234375 C 3.25,0.00390625 2.859375,0.125 2.421875,0.125 1.972656,0.125 1.625,0 1.375,-0.25 1.125,-0.507812 1,-0.882812 1,-1.375 V -4.546875 H 0.09375 V -5.25 H 1 V -6.4375 L 1.921875,-6.546875 V -5.25 h 1.25 l -0.09375,0.703125 h -1.15625 v 3.125 c 0,0.28125 0.046875,0.484375 0.140625,0.609375 0.101562,0.117188 0.265625,0.171875 0.484375,0.171875 0.207031,0 0.441406,-0.066406 0.703125,-0.203125 z m 0,0"
             id="id-a0eab078-f73a-4d7a-89fd-979839cfe21c" />
        </g>
      </g>
      <g
         fill="#000000"
         fill-opacity="1"
         id="id-c00654e5-0bbf-400e-92b3-1f51871bc9f0"
         transform="translate(-149.275,-126.984)">
        <g
           transform="translate(183.661,134.765)"
           id="g198016">
          <path
             d="m 4.921875,-2.78125 c 0,0.15625 -0.011719,0.3125 -0.03125,0.46875 h -3.34375 c 0.039063,0.574219 0.1875,1 0.4375,1.28125 0.25,0.273438 0.570313,0.40625 0.96875,0.40625 0.257813,0 0.492187,-0.035156 0.703125,-0.109375 C 3.875,-0.804688 4.097656,-0.925781 4.328125,-1.09375 l 0.390625,0.5625 C 4.164062,-0.09375 3.554688,0.125 2.890625,0.125 2.160156,0.125 1.585938,-0.113281 1.171875,-0.59375 0.765625,-1.070312 0.5625,-1.734375 0.5625,-2.578125 c 0,-0.539063 0.085938,-1.019531 0.265625,-1.4375 0.175781,-0.425781 0.425781,-0.757813 0.75,-1 C 1.910156,-5.253906 2.300781,-5.375 2.75,-5.375 c 0.695312,0 1.234375,0.230469 1.609375,0.6875 0.375,0.460938 0.5625,1.09375 0.5625,1.90625 z M 4,-3.046875 c 0,-0.519531 -0.105469,-0.914063 -0.3125,-1.1875 -0.199219,-0.269531 -0.507812,-0.40625 -0.921875,-0.40625 -0.75,0 -1.15625,0.554687 -1.21875,1.65625 H 4 Z m 0,0"
             id="id-296f84d0-3aa6-43cd-92ca-d3e895b866b9" />
        </g>
        <g
           transform="translate(189.09,134.765)"
           id="g198019">
          <path
             d="M 5.015625,-7.359375 V 0 h -0.8125 L 4.109375,-0.734375 C 3.941406,-0.460938 3.726562,-0.25 3.46875,-0.09375 3.207031,0.0507812 2.921875,0.125 2.609375,0.125 c -0.625,0 -1.117187,-0.242188 -1.46875,-0.734375 -0.34375,-0.5 -0.515625,-1.164063 -0.515625,-2 0,-0.53125 0.078125,-1.003906 0.234375,-1.421875 0.164063,-0.425781 0.40625,-0.753906 0.71875,-0.984375 C 1.890625,-5.253906 2.257812,-5.375 2.6875,-5.375 c 0.53125,0 1,0.21875 1.40625,0.65625 v -2.765625 z m -2.21875,6.75 c 0.28125,0 0.519531,-0.0625 0.71875,-0.1875 0.195313,-0.132813 0.390625,-0.332031 0.578125,-0.59375 v -2.5625 C 3.925781,-4.179688 3.742188,-4.351562 3.546875,-4.46875 3.347656,-4.582031 3.125,-4.640625 2.875,-4.640625 c -0.40625,0 -0.71875,0.171875 -0.9375,0.515625 -0.21875,0.335938 -0.328125,0.835938 -0.328125,1.5 0,0.679688 0.097656,1.183594 0.296875,1.515625 0.207031,0.335937 0.503906,0.5 0.890625,0.5 z m 0,0"
             id="id-52e73783-ace6-4239-a3cb-d45d3a9f0d56" />
        </g>
      </g>
      <g
         fill="#000000"
         fill-opacity="1"
         id="id-265b0e30-b8ec-4a36-903f-ce42a0947262"
         transform="translate(-149.275,-126.984)">
        <g
           transform="translate(197.679,134.765)"
           id="g198023">
          <path
             d="m 4.296875,-6.734375 c 0.25,0 0.546875,0.03125 0.859375,0.25 L 5.5,-7.09375 C 5.109375,-7.34375 4.78125,-7.484375 4.265625,-7.484375 3.234375,-7.484375 2.609375,-6.875 2.484375,-6 L 2.375,-5.25 H 1.453125 L 1.34375,-4.546875 h 0.921875 l -0.59375,4.25 C 1.515625,0.84375 1.078125,1.109375 0.359375,1.4375 L 0.625,2.125 c 1.15625,-0.5 1.75,-0.921875 1.953125,-2.421875 l 0.609375,-4.25 H 4.34375 L 4.546875,-5.25 H 3.28125 L 3.375,-5.953125 c 0.078125,-0.5 0.328125,-0.78125 0.921875,-0.78125 z m 0,0"
             id="id-662e367f-270f-47c2-a53b-9103908776ef" />
        </g>
      </g>
      <g
         fill="#000000"
         fill-opacity="1"
         id="id-6a066f3f-59f4-4d90-8720-c1e919c06b66"
         transform="translate(-149.275,-126.984)">
        <g
           transform="translate(203.328,134.765)"
           id="g198027">
          <path
             d="M 0.625,-2.40625 H 4.359375 V -3.171875 H 0.625 Z m 0,0"
             id="id-47aee1e0-e8b8-4a83-b7ea-bf80e29b3d82" />
        </g>
      </g>
      <g
         fill="#000000"
         fill-opacity="1"
         id="id-6a06caa0-8724-46ae-b799-fd7595a5c8bb"
         transform="translate(-149.275,-126.984)">
        <g
           transform="translate(210.959,134.765)"
           id="g198031">
          <path
             d="m 2.375,-5.375 c 0.351562,0 0.671875,0.054688 0.953125,0.15625 0.289063,0.09375 0.566406,0.242188 0.828125,0.4375 L 3.765625,-4.203125 C 3.523438,-4.347656 3.296875,-4.457031 3.078125,-4.53125 2.867188,-4.601562 2.644531,-4.640625 2.40625,-4.640625 c -0.304688,0 -0.542969,0.0625 -0.71875,0.1875 -0.167969,0.117187 -0.25,0.28125 -0.25,0.5 0,0.210937 0.078125,0.375 0.234375,0.5 0.164063,0.117187 0.460937,0.230469 0.890625,0.34375 0.582031,0.148437 1.019531,0.34375 1.3125,0.59375 0.289062,0.25 0.4375,0.601563 0.4375,1.046875 0,0.511719 -0.203125,0.90625 -0.609375,1.1875 C 3.296875,-0.0078125 2.804688,0.125 2.234375,0.125 1.429688,0.125 0.769531,-0.101562 0.25,-0.5625 L 0.734375,-1.125 c 0.445313,0.335938 0.941406,0.5 1.484375,0.5 0.34375,0 0.613281,-0.066406 0.8125,-0.203125 0.207031,-0.144531 0.3125,-0.34375 0.3125,-0.59375 0,-0.175781 -0.039062,-0.316406 -0.109375,-0.421875 C 3.160156,-1.957031 3.03125,-2.054688 2.84375,-2.140625 2.664062,-2.222656 2.40625,-2.3125 2.0625,-2.40625 1.5,-2.550781 1.09375,-2.742188 0.84375,-2.984375 c -0.242188,-0.25 -0.359375,-0.5625 -0.359375,-0.9375 0,-0.28125 0.078125,-0.53125 0.234375,-0.75 C 0.882812,-4.890625 1.109375,-5.0625 1.390625,-5.1875 1.679688,-5.3125 2.007812,-5.375 2.375,-5.375 Z m 0,0"
             id="id-66a11e24-2a61-49f3-ad09-ff19c0da44e2" />
        </g>
        <g
           transform="translate(215.612,134.765)"
           id="g198034">
          <path
             d="M 1.859375,-5.25 V 0 h -0.90625 v -5.25 z m -0.46875,-2.53125 c 0.195313,0 0.351563,0.0625 0.46875,0.1875 0.125,0.117188 0.1875,0.265625 0.1875,0.453125 0,0.179687 -0.0625,0.324219 -0.1875,0.4375 -0.117187,0.117187 -0.273437,0.171875 -0.46875,0.171875 -0.179687,0 -0.328125,-0.054688 -0.453125,-0.171875 -0.117188,-0.113281 -0.171875,-0.257813 -0.171875,-0.4375 0,-0.1875 0.054687,-0.335937 0.171875,-0.453125 0.125,-0.125 0.273438,-0.1875 0.453125,-0.1875 z m 0,0"
             id="id-1c1e93c0-9e76-4748-a225-2a36f7042c97" />
        </g>
        <g
           transform="translate(218.421,134.765)"
           id="g198037">
          <path
             d="M 3.59375,-0.234375 C 3.25,0.00390625 2.859375,0.125 2.421875,0.125 1.972656,0.125 1.625,0 1.375,-0.25 1.125,-0.507812 1,-0.882812 1,-1.375 V -4.546875 H 0.09375 V -5.25 H 1 V -6.4375 L 1.921875,-6.546875 V -5.25 h 1.25 l -0.09375,0.703125 h -1.15625 v 3.125 c 0,0.28125 0.046875,0.484375 0.140625,0.609375 0.101562,0.117188 0.265625,0.171875 0.484375,0.171875 0.207031,0 0.441406,-0.066406 0.703125,-0.203125 z m 0,0"
             id="id-d481c2f7-7645-4c08-9643-7c6579525a8c" />
        </g>
      </g>
      <g
         fill="#000000"
         fill-opacity="1"
         id="id-8eaf658a-397c-47f1-9215-a7c439718246"
         transform="translate(-149.275,-126.984)">
        <g
           transform="translate(221.868,134.765)"
           id="g198041">
          <path
             d="m 4.921875,-2.78125 c 0,0.15625 -0.011719,0.3125 -0.03125,0.46875 h -3.34375 c 0.039063,0.574219 0.1875,1 0.4375,1.28125 0.25,0.273438 0.570313,0.40625 0.96875,0.40625 0.257813,0 0.492187,-0.035156 0.703125,-0.109375 C 3.875,-0.804688 4.097656,-0.925781 4.328125,-1.09375 l 0.390625,0.5625 C 4.164062,-0.09375 3.554688,0.125 2.890625,0.125 2.160156,0.125 1.585938,-0.113281 1.171875,-0.59375 0.765625,-1.070312 0.5625,-1.734375 0.5625,-2.578125 c 0,-0.539063 0.085938,-1.019531 0.265625,-1.4375 0.175781,-0.425781 0.425781,-0.757813 0.75,-1 C 1.910156,-5.253906 2.300781,-5.375 2.75,-5.375 c 0.695312,0 1.234375,0.230469 1.609375,0.6875 0.375,0.460938 0.5625,1.09375 0.5625,1.90625 z M 4,-3.046875 c 0,-0.519531 -0.105469,-0.914063 -0.3125,-1.1875 -0.199219,-0.269531 -0.507812,-0.40625 -0.921875,-0.40625 -0.75,0 -1.15625,0.554687 -1.21875,1.65625 H 4 Z m 0,0"
             id="id-f73ed4c2-a90e-48ee-9387-93f36af1a5f7" />
        </g>
        <g
           transform="translate(227.298,134.765)"
           id="g198044">
          <path
             d="m 2.375,-5.375 c 0.351562,0 0.671875,0.054688 0.953125,0.15625 0.289063,0.09375 0.566406,0.242188 0.828125,0.4375 L 3.765625,-4.203125 C 3.523438,-4.347656 3.296875,-4.457031 3.078125,-4.53125 2.867188,-4.601562 2.644531,-4.640625 2.40625,-4.640625 c -0.304688,0 -0.542969,0.0625 -0.71875,0.1875 -0.167969,0.117187 -0.25,0.28125 -0.25,0.5 0,0.210937 0.078125,0.375 0.234375,0.5 0.164063,0.117187 0.460937,0.230469 0.890625,0.34375 0.582031,0.148437 1.019531,0.34375 1.3125,0.59375 0.289062,0.25 0.4375,0.601563 0.4375,1.046875 0,0.511719 -0.203125,0.90625 -0.609375,1.1875 C 3.296875,-0.0078125 2.804688,0.125 2.234375,0.125 1.429688,0.125 0.769531,-0.101562 0.25,-0.5625 L 0.734375,-1.125 c 0.445313,0.335938 0.941406,0.5 1.484375,0.5 0.34375,0 0.613281,-0.066406 0.8125,-0.203125 0.207031,-0.144531 0.3125,-0.34375 0.3125,-0.59375 0,-0.175781 -0.039062,-0.316406 -0.109375,-0.421875 C 3.160156,-1.957031 3.03125,-2.054688 2.84375,-2.140625 2.664062,-2.222656 2.40625,-2.3125 2.0625,-2.40625 1.5,-2.550781 1.09375,-2.742188 0.84375,-2.984375 c -0.242188,-0.25 -0.359375,-0.5625 -0.359375,-0.9375 0,-0.28125 0.078125,-0.53125 0.234375,-0.75 C 0.882812,-4.890625 1.109375,-5.0625 1.390625,-5.1875 1.679688,-5.3125 2.007812,-5.375 2.375,-5.375 Z m 0,0"
             id="id-512e0454-4b2e-460f-90d1-b0afbb66d63e" />
        </g>
      </g>
    </g>
    <g
       transform="matrix(1.41111,0,0,1.41111,44.584,156.793)"
       ns28:version="1.8.2"
       ns28:texconverter="xelatex"
       ns28:pdfconverter="inkscape"
       ns28:text="conduction bath"
       ns28:preamble="/home/kirito/.config/textext/beamer_preamble.tex"
       ns28:scale="4.0"
       ns28:alignment="middle center"
       ns28:stroke-to-path="0"
       ns28:jacobian_sqrt="1.41111"
       id="g198270">
      <defs
         id="id-d12f1e95-e9a4-4b81-87c1-3d1ef970b2cb">
        <g
           id="id-da182df9-7e06-4e7a-8887-66b31a81988c">
          <g
             id="id-51d86b81-9ed7-4867-81a5-532ccdb4fc29">
            <path
               d="M 5.40625,-10.46875 V 3.484375 H 1.21875 V -10.46875 Z M 4.875,-9.953125 H 1.78125 V 2.96875 H 4.875 Z M 3.234375,-4.5 c 0.394531,0 0.675781,0.109375 0.84375,0.328125 0.175781,0.210937 0.265625,0.484375 0.265625,0.828125 0,0.34375 -0.078125,0.617188 -0.234375,0.8125 -0.148437,0.1875 -0.386719,0.308594 -0.71875,0.359375 v 0.453125 c 0,0.074219 -0.027344,0.132812 -0.078125,0.171875 -0.054688,0.042969 -0.109375,0.0625 -0.171875,0.0625 -0.0625,0 -0.121094,-0.019531 -0.171875,-0.0625 C 2.914062,-1.585938 2.890625,-1.644531 2.890625,-1.71875 V -2.5625 c 0.351563,-0.019531 0.59375,-0.082031 0.71875,-0.1875 0.125,-0.113281 0.1875,-0.304688 0.1875,-0.578125 0,-0.21875 -0.046875,-0.382813 -0.140625,-0.5 -0.085938,-0.125 -0.242188,-0.1875 -0.46875,-0.1875 -0.1875,0 -0.359375,0.039063 -0.515625,0.109375 -0.054687,0.023438 -0.09375,0.03125 -0.125,0.03125 -0.074219,0 -0.136719,-0.019531 -0.1875,-0.0625 -0.042969,-0.039062 -0.0625,-0.097656 -0.0625,-0.171875 0,-0.125 0.097656,-0.21875 0.296875,-0.28125 C 2.789062,-4.460938 3.003906,-4.5 3.234375,-4.5 Z m -0.09375,3.296875 c 0.101563,0 0.1875,0.039063 0.25,0.109375 0.0625,0.0625 0.09375,0.148438 0.09375,0.25 0,0.105469 -0.03125,0.195312 -0.09375,0.265625 -0.0625,0.0625 -0.148437,0.09375 -0.25,0.09375 -0.105469,0 -0.1875,-0.03125 -0.25,-0.09375 -0.0625,-0.070313 -0.09375,-0.160156 -0.09375,-0.265625 0,-0.101562 0.03125,-0.1875 0.09375,-0.25 0.0625,-0.070312 0.144531,-0.109375 0.25,-0.109375 z m 0,0"
               id="id-204342c8-587a-41df-846a-36dce7b78acc" />
          </g>
          <g
             id="id-26d5a35e-a557-4e8e-9887-d64fa187ac04">
            <path
               d="m 2.859375,-5.375 c 0.3125,0 0.597656,0.046875 0.859375,0.140625 0.257812,0.085937 0.507812,0.226563 0.75,0.421875 l -0.4375,0.578125 c -0.1875,-0.125 -0.371094,-0.21875 -0.546875,-0.28125 -0.179687,-0.0625 -0.371094,-0.09375 -0.578125,-0.09375 -0.429688,0 -0.761719,0.171875 -1,0.515625 -0.230469,0.335938 -0.34375,0.828125 -0.34375,1.484375 0,0.667969 0.113281,1.164063 0.34375,1.484375 0.226562,0.3125 0.5625,0.46875 1,0.46875 0.195312,0 0.382812,-0.03125 0.5625,-0.09375 0.175781,-0.0625 0.367188,-0.164062 0.578125,-0.3125 L 4.46875,-0.453125 C 3.988281,-0.0664062 3.453125,0.125 2.859375,0.125 2.148438,0.125 1.585938,-0.113281 1.171875,-0.59375 0.765625,-1.070312 0.5625,-1.734375 0.5625,-2.578125 c 0,-0.5625 0.09375,-1.050781 0.28125,-1.46875 0.1875,-0.414063 0.453125,-0.738281 0.796875,-0.96875 0.34375,-0.238281 0.75,-0.359375 1.21875,-0.359375 z m 0,0"
               id="id-4520bbeb-f338-4f50-96f4-14c07cdf8e8c" />
          </g>
          <g
             id="id-61a212d8-099f-4c73-8128-20aa9bcc1948">
            <path
               d="m 2.921875,-5.375 c 0.738281,0 1.3125,0.25 1.71875,0.75 0.40625,0.492188 0.609375,1.15625 0.609375,2 0,0.542969 -0.09375,1.023438 -0.28125,1.4375 -0.1875,0.417969 -0.460938,0.742188 -0.8125,0.96875 C 3.8125,0.0078125 3.394531,0.125 2.90625,0.125 2.164062,0.125 1.585938,-0.117188 1.171875,-0.609375 0.765625,-1.109375 0.5625,-1.78125 0.5625,-2.625 c 0,-0.539062 0.09375,-1.019531 0.28125,-1.4375 0.1875,-0.414062 0.457031,-0.738281 0.8125,-0.96875 C 2.007812,-5.257812 2.429688,-5.375 2.921875,-5.375 Z m 0,0.734375 c -0.90625,0 -1.359375,0.671875 -1.359375,2.015625 0,1.335938 0.445312,2 1.34375,2 0.90625,0 1.359375,-0.664062 1.359375,-2 0,-1.34375 -0.449219,-2.015625 -1.34375,-2.015625 z m 0,0"
               id="id-5633bc37-7bd8-49fa-b6a8-ae52ceef4b90" />
          </g>
          <g
             id="id-4df7bc4b-cdf1-4651-a71b-fd5a42bcd153">
            <path
               d="m 3.421875,-5.375 c 0.476563,0 0.847656,0.148438 1.109375,0.4375 0.269531,0.28125 0.40625,0.671875 0.40625,1.171875 V 0 H 4.03125 v -3.640625 c 0,-0.375 -0.074219,-0.632813 -0.21875,-0.78125 -0.136719,-0.15625 -0.339844,-0.234375 -0.609375,-0.234375 -0.28125,0 -0.53125,0.085938 -0.75,0.25 -0.210937,0.15625 -0.40625,0.382812 -0.59375,0.671875 V 0 h -0.90625 v -5.25 h 0.78125 L 1.8125,-4.46875 C 2,-4.75 2.226562,-4.96875 2.5,-5.125 c 0.28125,-0.164062 0.585938,-0.25 0.921875,-0.25 z m 0,0"
               id="id-053f18da-bb09-4d8d-842f-4fad7c4f102d" />
          </g>
          <g
             id="id-c2bbd295-aa72-48a2-bdb1-179d5445ef42">
            <path
               d="M 5.015625,-7.359375 V 0 h -0.8125 L 4.109375,-0.734375 C 3.941406,-0.460938 3.726562,-0.25 3.46875,-0.09375 3.207031,0.0507812 2.921875,0.125 2.609375,0.125 c -0.625,0 -1.117187,-0.242188 -1.46875,-0.734375 -0.34375,-0.5 -0.515625,-1.164063 -0.515625,-2 0,-0.53125 0.078125,-1.003906 0.234375,-1.421875 0.164063,-0.425781 0.40625,-0.753906 0.71875,-0.984375 C 1.890625,-5.253906 2.257812,-5.375 2.6875,-5.375 c 0.53125,0 1,0.21875 1.40625,0.65625 v -2.765625 z m -2.21875,6.75 c 0.28125,0 0.519531,-0.0625 0.71875,-0.1875 0.195313,-0.132813 0.390625,-0.332031 0.578125,-0.59375 v -2.5625 C 3.925781,-4.179688 3.742188,-4.351562 3.546875,-4.46875 3.347656,-4.582031 3.125,-4.640625 2.875,-4.640625 c -0.40625,0 -0.71875,0.171875 -0.9375,0.515625 -0.21875,0.335938 -0.328125,0.835938 -0.328125,1.5 0,0.679688 0.097656,1.183594 0.296875,1.515625 0.207031,0.335937 0.503906,0.5 0.890625,0.5 z m 0,0"
               id="id-ff76eaa4-4198-483a-b197-ec0510b2f95d" />
          </g>
          <g
             id="id-cbe6fb4b-4ed1-4cc6-9f0f-be01a7c1c69e">
            <path
               d="M 4.859375,0 H 4.0625 L 4,-0.8125 C 3.800781,-0.488281 3.570312,-0.25 3.3125,-0.09375 3.050781,0.0507812 2.734375,0.125 2.359375,0.125 1.898438,0.125 1.539062,-0.015625 1.28125,-0.296875 1.019531,-0.578125 0.890625,-0.972656 0.890625,-1.484375 V -5.25 H 1.8125 v 3.671875 c 0,0.355469 0.0625,0.609375 0.1875,0.765625 0.125,0.148438 0.332031,0.21875 0.625,0.21875 0.507812,0 0.945312,-0.300781 1.3125,-0.90625 v -3.75 h 0.921875 z m 0,0"
               id="id-4131ec01-03e8-4cd9-8b64-9bfe8d15b77e" />
          </g>
          <g
             id="id-5ca0313a-2762-4cc6-8c82-ef0a78b1606d">
            <path
               d="M 3.59375,-0.234375 C 3.25,0.00390625 2.859375,0.125 2.421875,0.125 1.972656,0.125 1.625,0 1.375,-0.25 1.125,-0.507812 1,-0.882812 1,-1.375 V -4.546875 H 0.09375 V -5.25 H 1 V -6.4375 L 1.921875,-6.546875 V -5.25 h 1.25 l -0.09375,0.703125 h -1.15625 v 3.125 c 0,0.28125 0.046875,0.484375 0.140625,0.609375 0.101562,0.117188 0.265625,0.171875 0.484375,0.171875 0.207031,0 0.441406,-0.066406 0.703125,-0.203125 z m 0,0"
               id="id-3792f272-b797-421d-942a-dd3f16ad2dfe" />
          </g>
          <g
             id="id-6d7d37bf-4219-44bd-a20f-314bbe4b426b">
            <path
               d="M 1.859375,-5.25 V 0 h -0.90625 v -5.25 z m -0.46875,-2.53125 c 0.195313,0 0.351563,0.0625 0.46875,0.1875 0.125,0.117188 0.1875,0.265625 0.1875,0.453125 0,0.179687 -0.0625,0.324219 -0.1875,0.4375 -0.117187,0.117187 -0.273437,0.171875 -0.46875,0.171875 -0.179687,0 -0.328125,-0.054688 -0.453125,-0.171875 -0.117188,-0.113281 -0.171875,-0.257813 -0.171875,-0.4375 0,-0.1875 0.054687,-0.335937 0.171875,-0.453125 0.125,-0.125 0.273438,-0.1875 0.453125,-0.1875 z m 0,0"
               id="id-ba16c494-fe8f-4d1c-9137-b9762641b603" />
          </g>
          <g
             id="id-514fd489-e0d0-4733-86a7-d4fc9d1d4553">
            <path
               d="m 3.34375,-5.375 c 0.601562,0 1.078125,0.246094 1.421875,0.734375 0.351563,0.480469 0.53125,1.152344 0.53125,2.015625 0,0.542969 -0.085937,1.023438 -0.25,1.4375 C 4.890625,-0.769531 4.65625,-0.445312 4.34375,-0.21875 4.03125,0.0078125 3.660156,0.125 3.234375,0.125 2.679688,0.125 2.21875,-0.109375 1.84375,-0.578125 L 1.75,0 H 0.953125 v -7.359375 l 0.90625,-0.125 V -4.59375 C 2.242188,-5.113281 2.738281,-5.375 3.34375,-5.375 Z m -0.328125,4.765625 c 0.40625,0 0.722656,-0.160156 0.953125,-0.484375 C 4.195312,-1.425781 4.3125,-1.9375 4.3125,-2.625 c 0,-0.71875 -0.109375,-1.234375 -0.328125,-1.546875 -0.210937,-0.3125 -0.507813,-0.46875 -0.890625,-0.46875 -0.46875,0 -0.882812,0.273437 -1.234375,0.8125 V -1.3125 c 0.144531,0.21875 0.316406,0.390625 0.515625,0.515625 0.207031,0.125 0.421875,0.1875 0.640625,0.1875 z m 0,0"
               id="id-0f9bd287-d75b-488e-b29d-a708557878c9" />
          </g>
          <g
             id="id-3d925340-499d-4e36-9326-701ff7bdacbe">
            <path
               d="m 4.484375,-1.21875 c 0,0.210938 0.035156,0.367188 0.109375,0.46875 0.070312,0.105469 0.179688,0.183594 0.328125,0.234375 L 4.71875,0.125 C 4.445312,0.0820312 4.226562,0.00390625 4.0625,-0.109375 c -0.167969,-0.125 -0.292969,-0.3125 -0.375,-0.5625 C 3.332031,-0.140625 2.8125,0.125 2.125,0.125 c -0.523438,0 -0.933594,-0.1445312 -1.234375,-0.4375 -0.292969,-0.289062 -0.4375,-0.675781 -0.4375,-1.15625 0,-0.550781 0.195313,-0.976562 0.59375,-1.28125 0.40625,-0.300781 0.976563,-0.453125 1.71875,-0.453125 H 3.5625 V -3.59375 c 0,-0.363281 -0.089844,-0.625 -0.265625,-0.78125 -0.179687,-0.164062 -0.453125,-0.25 -0.828125,-0.25 -0.386719,0 -0.855469,0.09375 -1.40625,0.28125 L 0.828125,-5.015625 c 0.644531,-0.238281 1.25,-0.359375 1.8125,-0.359375 0.613281,0 1.070313,0.152344 1.375,0.453125 0.3125,0.304687 0.46875,0.734375 0.46875,1.296875 z m -2.15625,0.65625 c 0.53125,0 0.941406,-0.273438 1.234375,-0.828125 V -2.59375 H 2.875 c -0.96875,0 -1.453125,0.359375 -1.453125,1.078125 0,0.3125 0.078125,0.554687 0.234375,0.71875 0.15625,0.15625 0.378906,0.234375 0.671875,0.234375 z m 0,0"
               id="id-dfe6e600-8cb9-41c3-ba8f-3b77b0757e9a" />
          </g>
          <g
             id="id-050fc687-c649-460b-9a84-bc03834672f7">
            <path
               d="m 3.421875,-5.375 c 0.476563,0 0.847656,0.148438 1.109375,0.4375 0.269531,0.28125 0.40625,0.671875 0.40625,1.171875 V 0 H 4.03125 v -3.640625 c 0,-0.375 -0.074219,-0.632813 -0.21875,-0.78125 -0.148438,-0.15625 -0.355469,-0.234375 -0.625,-0.234375 -0.273438,0 -0.515625,0.085938 -0.734375,0.25 -0.210937,0.15625 -0.40625,0.382812 -0.59375,0.671875 V 0 h -0.90625 v -7.359375 l 0.90625,-0.09375 v 2.921875 c 0.414063,-0.5625 0.9375,-0.84375 1.5625,-0.84375 z m 0,0"
               id="id-492f19d5-9ee0-4226-afe4-ef1d7ca30e39" />
          </g>
        </g>
      </defs>
      <g
         fill="#000000"
         fill-opacity="1"
         id="id-a2588dac-89bb-42bd-a311-8f91f4409f33"
         transform="translate(-149.275,-126.984)">
        <g
           transform="translate(148.712,134.765)"
           id="g198547">
          <path
             d="m 2.859375,-5.375 c 0.3125,0 0.597656,0.046875 0.859375,0.140625 0.257812,0.085937 0.507812,0.226563 0.75,0.421875 l -0.4375,0.578125 c -0.1875,-0.125 -0.371094,-0.21875 -0.546875,-0.28125 -0.179687,-0.0625 -0.371094,-0.09375 -0.578125,-0.09375 -0.429688,0 -0.761719,0.171875 -1,0.515625 -0.230469,0.335938 -0.34375,0.828125 -0.34375,1.484375 0,0.667969 0.113281,1.164063 0.34375,1.484375 0.226562,0.3125 0.5625,0.46875 1,0.46875 0.195312,0 0.382812,-0.03125 0.5625,-0.09375 0.175781,-0.0625 0.367188,-0.164062 0.578125,-0.3125 L 4.46875,-0.453125 C 3.988281,-0.0664062 3.453125,0.125 2.859375,0.125 2.148438,0.125 1.585938,-0.113281 1.171875,-0.59375 0.765625,-1.070312 0.5625,-1.734375 0.5625,-2.578125 c 0,-0.5625 0.09375,-1.050781 0.28125,-1.46875 0.1875,-0.414063 0.453125,-0.738281 0.796875,-0.96875 0.34375,-0.238281 0.75,-0.359375 1.21875,-0.359375 z m 0,0"
             id="id-992fb948-ec91-4afa-815d-28261addb95e" />
        </g>
      </g>
      <g
         fill="#000000"
         fill-opacity="1"
         id="id-f28ee9ec-43a4-4b93-8511-5adebd93deca"
         transform="translate(-149.275,-126.984)">
        <g
           transform="translate(153.285,134.765)"
           id="g198551">
          <path
             d="m 2.921875,-5.375 c 0.738281,0 1.3125,0.25 1.71875,0.75 0.40625,0.492188 0.609375,1.15625 0.609375,2 0,0.542969 -0.09375,1.023438 -0.28125,1.4375 -0.1875,0.417969 -0.460938,0.742188 -0.8125,0.96875 C 3.8125,0.0078125 3.394531,0.125 2.90625,0.125 2.164062,0.125 1.585938,-0.117188 1.171875,-0.609375 0.765625,-1.109375 0.5625,-1.78125 0.5625,-2.625 c 0,-0.539062 0.09375,-1.019531 0.28125,-1.4375 0.1875,-0.414062 0.457031,-0.738281 0.8125,-0.96875 C 2.007812,-5.257812 2.429688,-5.375 2.921875,-5.375 Z m 0,0.734375 c -0.90625,0 -1.359375,0.671875 -1.359375,2.015625 0,1.335938 0.445312,2 1.34375,2 0.90625,0 1.359375,-0.664062 1.359375,-2 0,-1.34375 -0.449219,-2.015625 -1.34375,-2.015625 z m 0,0"
             id="id-ca933463-581b-4669-9e7a-89369cee55b9" />
        </g>
        <g
           transform="translate(159.103,134.765)"
           id="g198554">
          <path
             d="m 3.421875,-5.375 c 0.476563,0 0.847656,0.148438 1.109375,0.4375 0.269531,0.28125 0.40625,0.671875 0.40625,1.171875 V 0 H 4.03125 v -3.640625 c 0,-0.375 -0.074219,-0.632813 -0.21875,-0.78125 -0.136719,-0.15625 -0.339844,-0.234375 -0.609375,-0.234375 -0.28125,0 -0.53125,0.085938 -0.75,0.25 -0.210937,0.15625 -0.40625,0.382812 -0.59375,0.671875 V 0 h -0.90625 v -5.25 h 0.78125 L 1.8125,-4.46875 C 2,-4.75 2.226562,-4.96875 2.5,-5.125 c 0.28125,-0.164062 0.585938,-0.25 0.921875,-0.25 z m 0,0"
             id="id-0f554942-f8ea-4d9a-a1c3-3ef1632eef4e" />
        </g>
        <g
           transform="translate(164.941,134.765)"
           id="g198557">
          <path
             d="M 5.015625,-7.359375 V 0 h -0.8125 L 4.109375,-0.734375 C 3.941406,-0.460938 3.726562,-0.25 3.46875,-0.09375 3.207031,0.0507812 2.921875,0.125 2.609375,0.125 c -0.625,0 -1.117187,-0.242188 -1.46875,-0.734375 -0.34375,-0.5 -0.515625,-1.164063 -0.515625,-2 0,-0.53125 0.078125,-1.003906 0.234375,-1.421875 0.164063,-0.425781 0.40625,-0.753906 0.71875,-0.984375 C 1.890625,-5.253906 2.257812,-5.375 2.6875,-5.375 c 0.53125,0 1,0.21875 1.40625,0.65625 v -2.765625 z m -2.21875,6.75 c 0.28125,0 0.519531,-0.0625 0.71875,-0.1875 0.195313,-0.132813 0.390625,-0.332031 0.578125,-0.59375 v -2.5625 C 3.925781,-4.179688 3.742188,-4.351562 3.546875,-4.46875 3.347656,-4.582031 3.125,-4.640625 2.875,-4.640625 c -0.40625,0 -0.71875,0.171875 -0.9375,0.515625 -0.21875,0.335938 -0.328125,0.835938 -0.328125,1.5 0,0.679688 0.097656,1.183594 0.296875,1.515625 0.207031,0.335937 0.503906,0.5 0.890625,0.5 z m 0,0"
             id="id-36e40b37-0e5d-4f1a-8647-eb0545913a36" />
        </g>
        <g
           transform="translate(170.899,134.765)"
           id="g198560">
          <path
             d="M 4.859375,0 H 4.0625 L 4,-0.8125 C 3.800781,-0.488281 3.570312,-0.25 3.3125,-0.09375 3.050781,0.0507812 2.734375,0.125 2.359375,0.125 1.898438,0.125 1.539062,-0.015625 1.28125,-0.296875 1.019531,-0.578125 0.890625,-0.972656 0.890625,-1.484375 V -5.25 H 1.8125 v 3.671875 c 0,0.355469 0.0625,0.609375 0.1875,0.765625 0.125,0.148438 0.332031,0.21875 0.625,0.21875 0.507812,0 0.945312,-0.300781 1.3125,-0.90625 v -3.75 h 0.921875 z m 0,0"
             id="id-9107745a-eccb-4331-992b-fc5d89ba80f9" />
        </g>
        <g
           transform="translate(176.697,134.765)"
           id="g198563">
          <path
             d="m 2.859375,-5.375 c 0.3125,0 0.597656,0.046875 0.859375,0.140625 0.257812,0.085937 0.507812,0.226563 0.75,0.421875 l -0.4375,0.578125 c -0.1875,-0.125 -0.371094,-0.21875 -0.546875,-0.28125 -0.179687,-0.0625 -0.371094,-0.09375 -0.578125,-0.09375 -0.429688,0 -0.761719,0.171875 -1,0.515625 -0.230469,0.335938 -0.34375,0.828125 -0.34375,1.484375 0,0.667969 0.113281,1.164063 0.34375,1.484375 0.226562,0.3125 0.5625,0.46875 1,0.46875 0.195312,0 0.382812,-0.03125 0.5625,-0.09375 0.175781,-0.0625 0.367188,-0.164062 0.578125,-0.3125 L 4.46875,-0.453125 C 3.988281,-0.0664062 3.453125,0.125 2.859375,0.125 2.148438,0.125 1.585938,-0.113281 1.171875,-0.59375 0.765625,-1.070312 0.5625,-1.734375 0.5625,-2.578125 c 0,-0.5625 0.09375,-1.050781 0.28125,-1.46875 0.1875,-0.414063 0.453125,-0.738281 0.796875,-0.96875 0.34375,-0.238281 0.75,-0.359375 1.21875,-0.359375 z m 0,0"
             id="id-8087e484-3a10-47f1-8a92-6fc686f6d266" />
        </g>
        <g
           transform="translate(181.459,134.765)"
           id="g198566">
          <path
             d="M 3.59375,-0.234375 C 3.25,0.00390625 2.859375,0.125 2.421875,0.125 1.972656,0.125 1.625,0 1.375,-0.25 1.125,-0.507812 1,-0.882812 1,-1.375 V -4.546875 H 0.09375 V -5.25 H 1 V -6.4375 L 1.921875,-6.546875 V -5.25 h 1.25 l -0.09375,0.703125 h -1.15625 v 3.125 c 0,0.28125 0.046875,0.484375 0.140625,0.609375 0.101562,0.117188 0.265625,0.171875 0.484375,0.171875 0.207031,0 0.441406,-0.066406 0.703125,-0.203125 z m 0,0"
             id="id-f90b872b-441f-41ed-8f4c-3e6404dec90d" />
        </g>
        <g
           transform="translate(185.056,134.765)"
           id="g198569">
          <path
             d="M 1.859375,-5.25 V 0 h -0.90625 v -5.25 z m -0.46875,-2.53125 c 0.195313,0 0.351563,0.0625 0.46875,0.1875 0.125,0.117188 0.1875,0.265625 0.1875,0.453125 0,0.179687 -0.0625,0.324219 -0.1875,0.4375 -0.117187,0.117187 -0.273437,0.171875 -0.46875,0.171875 -0.179687,0 -0.328125,-0.054688 -0.453125,-0.171875 -0.117188,-0.113281 -0.171875,-0.257813 -0.171875,-0.4375 0,-0.1875 0.054687,-0.335937 0.171875,-0.453125 0.125,-0.125 0.273438,-0.1875 0.453125,-0.1875 z m 0,0"
             id="id-4968db62-c253-4771-8cd5-55406b73aab8" />
        </g>
        <g
           transform="translate(187.865,134.765)"
           id="g198572">
          <path
             d="m 2.921875,-5.375 c 0.738281,0 1.3125,0.25 1.71875,0.75 0.40625,0.492188 0.609375,1.15625 0.609375,2 0,0.542969 -0.09375,1.023438 -0.28125,1.4375 -0.1875,0.417969 -0.460938,0.742188 -0.8125,0.96875 C 3.8125,0.0078125 3.394531,0.125 2.90625,0.125 2.164062,0.125 1.585938,-0.117188 1.171875,-0.609375 0.765625,-1.109375 0.5625,-1.78125 0.5625,-2.625 c 0,-0.539062 0.09375,-1.019531 0.28125,-1.4375 0.1875,-0.414062 0.457031,-0.738281 0.8125,-0.96875 C 2.007812,-5.257812 2.429688,-5.375 2.921875,-5.375 Z m 0,0.734375 c -0.90625,0 -1.359375,0.671875 -1.359375,2.015625 0,1.335938 0.445312,2 1.34375,2 0.90625,0 1.359375,-0.664062 1.359375,-2 0,-1.34375 -0.449219,-2.015625 -1.34375,-2.015625 z m 0,0"
             id="id-0074db80-17c5-4b15-a26d-ba5b35b2f9d4" />
        </g>
        <g
           transform="translate(193.683,134.765)"
           id="g198575">
          <path
             d="m 3.421875,-5.375 c 0.476563,0 0.847656,0.148438 1.109375,0.4375 0.269531,0.28125 0.40625,0.671875 0.40625,1.171875 V 0 H 4.03125 v -3.640625 c 0,-0.375 -0.074219,-0.632813 -0.21875,-0.78125 -0.136719,-0.15625 -0.339844,-0.234375 -0.609375,-0.234375 -0.28125,0 -0.53125,0.085938 -0.75,0.25 -0.210937,0.15625 -0.40625,0.382812 -0.59375,0.671875 V 0 h -0.90625 v -5.25 h 0.78125 L 1.8125,-4.46875 C 2,-4.75 2.226562,-4.96875 2.5,-5.125 c 0.28125,-0.164062 0.585938,-0.25 0.921875,-0.25 z m 0,0"
             id="id-2a0bcb85-0a97-43ae-b4d6-6442fafa274a" />
        </g>
      </g>
      <g
         fill="#000000"
         fill-opacity="1"
         id="id-48b3fb3c-4992-40fd-a209-3447fbcb1246"
         transform="translate(-149.275,-126.984)">
        <g
           transform="translate(202.151,134.765)"
           id="g198579">
          <path
             d="m 3.34375,-5.375 c 0.601562,0 1.078125,0.246094 1.421875,0.734375 0.351563,0.480469 0.53125,1.152344 0.53125,2.015625 0,0.542969 -0.085937,1.023438 -0.25,1.4375 C 4.890625,-0.769531 4.65625,-0.445312 4.34375,-0.21875 4.03125,0.0078125 3.660156,0.125 3.234375,0.125 2.679688,0.125 2.21875,-0.109375 1.84375,-0.578125 L 1.75,0 H 0.953125 v -7.359375 l 0.90625,-0.125 V -4.59375 C 2.242188,-5.113281 2.738281,-5.375 3.34375,-5.375 Z m -0.328125,4.765625 c 0.40625,0 0.722656,-0.160156 0.953125,-0.484375 C 4.195312,-1.425781 4.3125,-1.9375 4.3125,-2.625 c 0,-0.71875 -0.109375,-1.234375 -0.328125,-1.546875 -0.210937,-0.3125 -0.507813,-0.46875 -0.890625,-0.46875 -0.46875,0 -0.882812,0.273437 -1.234375,0.8125 V -1.3125 c 0.144531,0.21875 0.316406,0.390625 0.515625,0.515625 0.207031,0.125 0.421875,0.1875 0.640625,0.1875 z m 0,0"
             id="id-13c3f2b4-914f-41fc-b739-105ef0144ea4" />
        </g>
      </g>
      <g
         fill="#000000"
         fill-opacity="1"
         id="id-af2dc4e9-d2cc-4414-99ad-5cb866f89130"
         transform="translate(-149.275,-126.984)">
        <g
           transform="translate(207.98,134.765)"
           id="g198583">
          <path
             d="m 4.484375,-1.21875 c 0,0.210938 0.035156,0.367188 0.109375,0.46875 0.070312,0.105469 0.179688,0.183594 0.328125,0.234375 L 4.71875,0.125 C 4.445312,0.0820312 4.226562,0.00390625 4.0625,-0.109375 c -0.167969,-0.125 -0.292969,-0.3125 -0.375,-0.5625 C 3.332031,-0.140625 2.8125,0.125 2.125,0.125 c -0.523438,0 -0.933594,-0.1445312 -1.234375,-0.4375 -0.292969,-0.289062 -0.4375,-0.675781 -0.4375,-1.15625 0,-0.550781 0.195313,-0.976562 0.59375,-1.28125 0.40625,-0.300781 0.976563,-0.453125 1.71875,-0.453125 H 3.5625 V -3.59375 c 0,-0.363281 -0.089844,-0.625 -0.265625,-0.78125 -0.179687,-0.164062 -0.453125,-0.25 -0.828125,-0.25 -0.386719,0 -0.855469,0.09375 -1.40625,0.28125 L 0.828125,-5.015625 c 0.644531,-0.238281 1.25,-0.359375 1.8125,-0.359375 0.613281,0 1.070313,0.152344 1.375,0.453125 0.3125,0.304687 0.46875,0.734375 0.46875,1.296875 z m -2.15625,0.65625 c 0.53125,0 0.941406,-0.273438 1.234375,-0.828125 V -2.59375 H 2.875 c -0.96875,0 -1.453125,0.359375 -1.453125,1.078125 0,0.3125 0.078125,0.554687 0.234375,0.71875 0.15625,0.15625 0.378906,0.234375 0.671875,0.234375 z m 0,0"
             id="id-83275f15-9e27-4d5b-a2df-db4cad3fcab5" />
        </g>
        <g
           transform="translate(213.399,134.765)"
           id="g198586">
          <path
             d="M 3.59375,-0.234375 C 3.25,0.00390625 2.859375,0.125 2.421875,0.125 1.972656,0.125 1.625,0 1.375,-0.25 1.125,-0.507812 1,-0.882812 1,-1.375 V -4.546875 H 0.09375 V -5.25 H 1 V -6.4375 L 1.921875,-6.546875 V -5.25 h 1.25 l -0.09375,0.703125 h -1.15625 v 3.125 c 0,0.28125 0.046875,0.484375 0.140625,0.609375 0.101562,0.117188 0.265625,0.171875 0.484375,0.171875 0.207031,0 0.441406,-0.066406 0.703125,-0.203125 z m 0,0"
             id="id-3b7c9a8f-aeb4-4b40-ba6e-9f628c29d666" />
        </g>
        <g
           transform="translate(216.996,134.765)"
           id="g198589">
          <path
             d="m 3.421875,-5.375 c 0.476563,0 0.847656,0.148438 1.109375,0.4375 0.269531,0.28125 0.40625,0.671875 0.40625,1.171875 V 0 H 4.03125 v -3.640625 c 0,-0.375 -0.074219,-0.632813 -0.21875,-0.78125 -0.148438,-0.15625 -0.355469,-0.234375 -0.625,-0.234375 -0.273438,0 -0.515625,0.085938 -0.734375,0.25 -0.210937,0.15625 -0.40625,0.382812 -0.59375,0.671875 V 0 h -0.90625 v -7.359375 l 0.90625,-0.09375 v 2.921875 c 0.414063,-0.5625 0.9375,-0.84375 1.5625,-0.84375 z m 0,0"
             id="id-8aaee801-3748-4b43-bd23-eaf53c33acf0" />
        </g>
      </g>
    </g>
    <path
       style="fill:none;fill-opacity:1;stroke:#505050;stroke-width:2.32804;stroke-linejoin:bevel;stroke-dasharray:none;stroke-dashoffset:0;stroke-opacity:1;marker-end:url(#RoundedArrow);paint-order:markers stroke fill"
       d="m 40.325959,148.63206 c -4.65565,-2.49581 -8.571332,-6.35239 -11.137658,-10.96954 -2.566327,-4.61715 -3.774318,-9.97873 -3.435977,-15.25032 0.47894,-7.46222 4.126431,-14.66927 9.855901,-19.47419"
       id="path199382"
       inkscape:path-effect="#path-effect199384"
       inkscape:original-d="m 40.325959,148.63206 c -2.387924,-7.84331 -12.185193,-18.37581 -14.573635,-26.21986 -2.388438,-7.84403 6.570858,-12.98242 9.855901,-19.47419"
       sodipodi:nodetypes="csc" />
    <g
       transform="matrix(1.05833,0,0,1.05833,-24.872782,114.36205)"
       ns28:version="1.8.2"
       ns28:texconverter="xelatex"
       ns28:pdfconverter="inkscape"
       ns28:text="\\centering\n1-particle\\\\\nhopping"
       ns28:preamble="/home/kirito/.config/textext/beamer_preamble.tex"
       ns28:scale="3.0"
       ns28:alignment="middle center"
       ns28:stroke-to-path="0"
       ns28:jacobian_sqrt="1.05833"
       id="g200113">
      <defs
         id="id-97d437df-6bd9-40e9-b67c-892892c2a4f1">
        <g
           id="id-539f2a0e-6013-444c-93ca-75251c6be99a">
          <g
             id="id-4f097d53-f4c2-4d2a-b93c-5c2331af1ea0">
            <path
               d="M 5.40625,-10.46875 V 3.484375 H 1.21875 V -10.46875 Z M 4.875,-9.953125 H 1.78125 V 2.96875 H 4.875 Z M 3.234375,-4.5 c 0.394531,0 0.675781,0.109375 0.84375,0.328125 0.175781,0.210937 0.265625,0.484375 0.265625,0.828125 0,0.34375 -0.078125,0.617188 -0.234375,0.8125 -0.148437,0.1875 -0.386719,0.308594 -0.71875,0.359375 v 0.453125 c 0,0.074219 -0.027344,0.132812 -0.078125,0.171875 -0.054688,0.042969 -0.109375,0.0625 -0.171875,0.0625 -0.0625,0 -0.121094,-0.019531 -0.171875,-0.0625 C 2.914062,-1.585938 2.890625,-1.644531 2.890625,-1.71875 V -2.5625 c 0.351563,-0.019531 0.59375,-0.082031 0.71875,-0.1875 0.125,-0.113281 0.1875,-0.304688 0.1875,-0.578125 0,-0.21875 -0.046875,-0.382813 -0.140625,-0.5 -0.085938,-0.125 -0.242188,-0.1875 -0.46875,-0.1875 -0.1875,0 -0.359375,0.039063 -0.515625,0.109375 -0.054687,0.023438 -0.09375,0.03125 -0.125,0.03125 -0.074219,0 -0.136719,-0.019531 -0.1875,-0.0625 -0.042969,-0.039062 -0.0625,-0.097656 -0.0625,-0.171875 0,-0.125 0.097656,-0.21875 0.296875,-0.28125 C 2.789062,-4.460938 3.003906,-4.5 3.234375,-4.5 Z m -0.09375,3.296875 c 0.101563,0 0.1875,0.039063 0.25,0.109375 0.0625,0.0625 0.09375,0.148438 0.09375,0.25 0,0.105469 -0.03125,0.195312 -0.09375,0.265625 -0.0625,0.0625 -0.148437,0.09375 -0.25,0.09375 -0.105469,0 -0.1875,-0.03125 -0.25,-0.09375 -0.0625,-0.070313 -0.09375,-0.160156 -0.09375,-0.265625 0,-0.101562 0.03125,-0.1875 0.09375,-0.25 0.0625,-0.070312 0.144531,-0.109375 0.25,-0.109375 z m 0,0"
               id="id-8ea5254c-49bc-4f66-b4ff-ead79478ceb4" />
          </g>
          <g
             id="id-138e7c37-7bfa-4bec-8a9e-4624118a3c17">
            <path
               d="M 3.21875,-6.671875 V 0 H 2.296875 V -5.6875 L 0.75,-4.75 0.34375,-5.390625 l 2.0625,-1.28125 z m 0,0"
               id="id-32a20f03-2c42-49c8-915a-581412f257ac" />
          </g>
          <g
             id="id-e752f148-91da-4c1a-bdaa-26ece97ac4c7">
            <path
               d="m 0.59375,-2.734375 v -0.78125 h 2.828125 v 0.78125 z m 0,0"
               id="id-dc947ff8-24a4-4bc1-874a-7b5b4709837e" />
          </g>
          <g
             id="id-13533fbe-86f7-4e76-a950-4a0adbef3880">
            <path
               d="m 3.359375,-5.375 c 0.664063,0 1.15625,0.242188 1.46875,0.71875 0.3125,0.480469 0.46875,1.15625 0.46875,2.03125 0,0.824219 -0.179687,1.492188 -0.53125,2 -0.355469,0.5 -0.867187,0.75 -1.53125,0.75 -0.585937,0 -1.042969,-0.203125 -1.375,-0.609375 v 2.5 L 0.953125,2.125 V -5.25 h 0.78125 l 0.0625,0.703125 C 1.992188,-4.804688 2.226562,-5.007812 2.5,-5.15625 2.769531,-5.300781 3.054688,-5.375 3.359375,-5.375 Z m -0.34375,4.75 c 0.863281,0 1.296875,-0.664062 1.296875,-2 0,-1.34375 -0.398438,-2.015625 -1.1875,-2.015625 -0.261719,0 -0.496094,0.078125 -0.703125,0.234375 -0.210937,0.148438 -0.398437,0.339844 -0.5625,0.578125 v 2.5625 c 0.132813,0.210937 0.300781,0.371094 0.5,0.484375 0.195313,0.105469 0.414063,0.15625 0.65625,0.15625 z m 0,0"
               id="id-819da719-a365-476d-91ca-b85473e7fd18" />
          </g>
          <g
             id="id-88e0281c-10c7-4eb7-8369-39e73a449a72">
            <path
               d="m 4.484375,-1.21875 c 0,0.210938 0.035156,0.367188 0.109375,0.46875 0.070312,0.105469 0.179688,0.183594 0.328125,0.234375 L 4.71875,0.125 C 4.445312,0.0820312 4.226562,0.00390625 4.0625,-0.109375 c -0.167969,-0.125 -0.292969,-0.3125 -0.375,-0.5625 C 3.332031,-0.140625 2.8125,0.125 2.125,0.125 c -0.523438,0 -0.933594,-0.1445312 -1.234375,-0.4375 -0.292969,-0.289062 -0.4375,-0.675781 -0.4375,-1.15625 0,-0.550781 0.195313,-0.976562 0.59375,-1.28125 0.40625,-0.300781 0.976563,-0.453125 1.71875,-0.453125 H 3.5625 V -3.59375 c 0,-0.363281 -0.089844,-0.625 -0.265625,-0.78125 -0.179687,-0.164062 -0.453125,-0.25 -0.828125,-0.25 -0.386719,0 -0.855469,0.09375 -1.40625,0.28125 L 0.828125,-5.015625 c 0.644531,-0.238281 1.25,-0.359375 1.8125,-0.359375 0.613281,0 1.070313,0.152344 1.375,0.453125 0.3125,0.304687 0.46875,0.734375 0.46875,1.296875 z m -2.15625,0.65625 c 0.53125,0 0.941406,-0.273438 1.234375,-0.828125 V -2.59375 H 2.875 c -0.96875,0 -1.453125,0.359375 -1.453125,1.078125 0,0.3125 0.078125,0.554687 0.234375,0.71875 0.15625,0.15625 0.378906,0.234375 0.671875,0.234375 z m 0,0"
               id="id-07dead44-026a-46ea-b043-526c6061ca7b" />
          </g>
          <g
             id="id-2502a15e-e7ab-4696-82e2-407e392ad273">
            <path
               d="m 3.234375,-5.375 c 0.1875,0 0.359375,0.023438 0.515625,0.0625 L 3.578125,-4.421875 C 3.421875,-4.453125 3.269531,-4.46875 3.125,-4.46875 c -0.335938,0 -0.601562,0.121094 -0.796875,0.359375 C 2.128906,-3.878906 1.972656,-3.507812 1.859375,-3 v 3 h -0.90625 v -5.25 h 0.78125 l 0.09375,1.0625 C 1.960938,-4.582031 2.148438,-4.878906 2.390625,-5.078125 2.628906,-5.273438 2.910156,-5.375 3.234375,-5.375 Z m 0,0"
               id="id-5a77e660-e606-4df7-a2f3-fa713ba3cab9" />
          </g>
          <g
             id="id-a3c95ea9-4285-4ea8-ad76-e46303bea066">
            <path
               d="M 3.59375,-0.234375 C 3.25,0.00390625 2.859375,0.125 2.421875,0.125 1.972656,0.125 1.625,0 1.375,-0.25 1.125,-0.507812 1,-0.882812 1,-1.375 V -4.546875 H 0.09375 V -5.25 H 1 V -6.4375 L 1.921875,-6.546875 V -5.25 h 1.25 l -0.09375,0.703125 h -1.15625 v 3.125 c 0,0.28125 0.046875,0.484375 0.140625,0.609375 0.101562,0.117188 0.265625,0.171875 0.484375,0.171875 0.207031,0 0.441406,-0.066406 0.703125,-0.203125 z m 0,0"
               id="id-2cc5b113-022f-4c9f-9075-3e8274195bd5" />
          </g>
          <g
             id="id-935608f2-c1e7-496a-bc41-daf658e3d4e3">
            <path
               d="M 1.859375,-5.25 V 0 h -0.90625 v -5.25 z m -0.46875,-2.53125 c 0.195313,0 0.351563,0.0625 0.46875,0.1875 0.125,0.117188 0.1875,0.265625 0.1875,0.453125 0,0.179687 -0.0625,0.324219 -0.1875,0.4375 -0.117187,0.117187 -0.273437,0.171875 -0.46875,0.171875 -0.179687,0 -0.328125,-0.054688 -0.453125,-0.171875 -0.117188,-0.113281 -0.171875,-0.257813 -0.171875,-0.4375 0,-0.1875 0.054687,-0.335937 0.171875,-0.453125 0.125,-0.125 0.273438,-0.1875 0.453125,-0.1875 z m 0,0"
               id="id-710e2aac-8d05-49b2-bae8-6ac14db47337" />
          </g>
          <g
             id="id-bc4b0826-6ff2-4b3d-b09b-60cbe5f94237">
            <path
               d="m 2.859375,-5.375 c 0.3125,0 0.597656,0.046875 0.859375,0.140625 0.257812,0.085937 0.507812,0.226563 0.75,0.421875 l -0.4375,0.578125 c -0.1875,-0.125 -0.371094,-0.21875 -0.546875,-0.28125 -0.179687,-0.0625 -0.371094,-0.09375 -0.578125,-0.09375 -0.429688,0 -0.761719,0.171875 -1,0.515625 -0.230469,0.335938 -0.34375,0.828125 -0.34375,1.484375 0,0.667969 0.113281,1.164063 0.34375,1.484375 0.226562,0.3125 0.5625,0.46875 1,0.46875 0.195312,0 0.382812,-0.03125 0.5625,-0.09375 0.175781,-0.0625 0.367188,-0.164062 0.578125,-0.3125 L 4.46875,-0.453125 C 3.988281,-0.0664062 3.453125,0.125 2.859375,0.125 2.148438,0.125 1.585938,-0.113281 1.171875,-0.59375 0.765625,-1.070312 0.5625,-1.734375 0.5625,-2.578125 c 0,-0.5625 0.09375,-1.050781 0.28125,-1.46875 0.1875,-0.414063 0.453125,-0.738281 0.796875,-0.96875 0.34375,-0.238281 0.75,-0.359375 1.21875,-0.359375 z m 0,0"
               id="id-6c261b0d-a01d-477a-b90b-a8152dd9db57" />
          </g>
          <g
             id="id-36ce8ce6-d9a4-40bc-b76d-254615583832">
            <path
               d="M 2,0.125 C 1.65625,0.125 1.382812,0.0234375 1.1875,-0.171875 0.988281,-0.378906 0.890625,-0.664062 0.890625,-1.03125 v -6.328125 l 0.921875,-0.125 V -1.0625 c 0,0.148438 0.023438,0.257812 0.078125,0.328125 0.050781,0.0625 0.132813,0.09375 0.25,0.09375 0.125,0 0.238281,-0.019531 0.34375,-0.0625 L 2.71875,-0.0625 C 2.5,0.0625 2.257812,0.125 2,0.125 Z m 0,0"
               id="id-cef2c89c-3ec5-4b4e-a008-71db58e00312" />
          </g>
          <g
             id="id-cacb419a-9b15-4f1d-89c3-f40e2c29be64">
            <path
               d="m 4.921875,-2.78125 c 0,0.15625 -0.011719,0.3125 -0.03125,0.46875 h -3.34375 c 0.039063,0.574219 0.1875,1 0.4375,1.28125 0.25,0.273438 0.570313,0.40625 0.96875,0.40625 0.257813,0 0.492187,-0.035156 0.703125,-0.109375 C 3.875,-0.804688 4.097656,-0.925781 4.328125,-1.09375 l 0.390625,0.5625 C 4.164062,-0.09375 3.554688,0.125 2.890625,0.125 2.160156,0.125 1.585938,-0.113281 1.171875,-0.59375 0.765625,-1.070312 0.5625,-1.734375 0.5625,-2.578125 c 0,-0.539063 0.085938,-1.019531 0.265625,-1.4375 0.175781,-0.425781 0.425781,-0.757813 0.75,-1 C 1.910156,-5.253906 2.300781,-5.375 2.75,-5.375 c 0.695312,0 1.234375,0.230469 1.609375,0.6875 0.375,0.460938 0.5625,1.09375 0.5625,1.90625 z M 4,-3.046875 c 0,-0.519531 -0.105469,-0.914063 -0.3125,-1.1875 -0.199219,-0.269531 -0.507812,-0.40625 -0.921875,-0.40625 -0.75,0 -1.15625,0.554687 -1.21875,1.65625 H 4 Z m 0,0"
               id="id-1e274387-c277-4917-bfc2-25927dc69ace" />
          </g>
          <g
             id="id-6aa377be-1cbd-42ee-9bbc-799ae5fe5c3d">
            <path
               d="m 3.421875,-5.375 c 0.476563,0 0.847656,0.148438 1.109375,0.4375 0.269531,0.28125 0.40625,0.671875 0.40625,1.171875 V 0 H 4.03125 v -3.640625 c 0,-0.375 -0.074219,-0.632813 -0.21875,-0.78125 -0.148438,-0.15625 -0.355469,-0.234375 -0.625,-0.234375 -0.273438,0 -0.515625,0.085938 -0.734375,0.25 -0.210937,0.15625 -0.40625,0.382812 -0.59375,0.671875 V 0 h -0.90625 v -7.359375 l 0.90625,-0.09375 v 2.921875 c 0.414063,-0.5625 0.9375,-0.84375 1.5625,-0.84375 z m 0,0"
               id="id-756031c0-fc0c-4638-b989-f4c7fd66ce38" />
          </g>
          <g
             id="id-08f380df-eed6-4d99-b287-25b3f0f1bc79">
            <path
               d="m 2.921875,-5.375 c 0.738281,0 1.3125,0.25 1.71875,0.75 0.40625,0.492188 0.609375,1.15625 0.609375,2 0,0.542969 -0.09375,1.023438 -0.28125,1.4375 -0.1875,0.417969 -0.460938,0.742188 -0.8125,0.96875 C 3.8125,0.0078125 3.394531,0.125 2.90625,0.125 2.164062,0.125 1.585938,-0.117188 1.171875,-0.609375 0.765625,-1.109375 0.5625,-1.78125 0.5625,-2.625 c 0,-0.539062 0.09375,-1.019531 0.28125,-1.4375 0.1875,-0.414062 0.457031,-0.738281 0.8125,-0.96875 C 2.007812,-5.257812 2.429688,-5.375 2.921875,-5.375 Z m 0,0.734375 c -0.90625,0 -1.359375,0.671875 -1.359375,2.015625 0,1.335938 0.445312,2 1.34375,2 0.90625,0 1.359375,-0.664062 1.359375,-2 0,-1.34375 -0.449219,-2.015625 -1.34375,-2.015625 z m 0,0"
               id="id-be53fd0b-7e34-46b4-b07a-7d3680dbd9fe" />
          </g>
          <g
             id="id-5a654cff-7138-4250-8f19-e3b7e131d9b1">
            <path
               d="m 3.421875,-5.375 c 0.476563,0 0.847656,0.148438 1.109375,0.4375 0.269531,0.28125 0.40625,0.671875 0.40625,1.171875 V 0 H 4.03125 v -3.640625 c 0,-0.375 -0.074219,-0.632813 -0.21875,-0.78125 -0.136719,-0.15625 -0.339844,-0.234375 -0.609375,-0.234375 -0.28125,0 -0.53125,0.085938 -0.75,0.25 -0.210937,0.15625 -0.40625,0.382812 -0.59375,0.671875 V 0 h -0.90625 v -5.25 h 0.78125 L 1.8125,-4.46875 C 2,-4.75 2.226562,-4.96875 2.5,-5.125 c 0.28125,-0.164062 0.585938,-0.25 0.921875,-0.25 z m 0,0"
               id="id-b36a1e52-0e10-4d98-990f-7c2d4214412d" />
          </g>
          <g
             id="id-6a974d91-2d5d-4e3a-a093-4cbc1a48220a">
            <path
               d="m 5.1875,-5.015625 c -0.199219,0.0625 -0.417969,0.105469 -0.65625,0.125 -0.242188,0.023437 -0.53125,0.03125 -0.875,0.03125 0.613281,0.28125 0.921875,0.726563 0.921875,1.328125 0,0.53125 -0.183594,0.964844 -0.546875,1.296875 C 3.675781,-1.910156 3.191406,-1.75 2.578125,-1.75 c -0.242187,0 -0.464844,-0.03125 -0.671875,-0.09375 -0.085938,0.054688 -0.152344,0.125 -0.203125,0.21875 -0.042969,0.085938 -0.0625,0.171875 -0.0625,0.265625 0,0.292969 0.226563,0.4375 0.6875,0.4375 h 0.84375 c 0.351563,0 0.664063,0.0625 0.9375,0.1875 0.269531,0.125 0.476563,0.296875 0.625,0.515625 C 4.890625,0 4.96875,0.25 4.96875,0.53125 4.96875,1.039062 4.753906,1.429688 4.328125,1.703125 3.910156,1.984375 3.300781,2.125 2.5,2.125 1.9375,2.125 1.488281,2.066406 1.15625,1.953125 0.832031,1.835938 0.597656,1.660156 0.453125,1.421875 0.316406,1.191406 0.25,0.894531 0.25,0.53125 h 0.828125 c 0,0.207031 0.035156,0.375 0.109375,0.5 C 1.269531,1.15625 1.414062,1.25 1.625,1.3125 1.832031,1.375 2.125,1.40625 2.5,1.40625 3.050781,1.40625 3.441406,1.335938 3.671875,1.203125 3.910156,1.066406 4.03125,0.863281 4.03125,0.59375 c 0,-0.25 -0.09375,-0.4375 -0.28125,-0.5625 -0.179688,-0.125 -0.433594,-0.1875 -0.765625,-0.1875 H 2.15625 c -0.449219,0 -0.789062,-0.09375 -1.015625,-0.28125 -0.230469,-0.195312 -0.34375,-0.4375 -0.34375,-0.71875 0,-0.175781 0.046875,-0.34375 0.140625,-0.5 0.101562,-0.15625 0.25,-0.296875 0.4375,-0.421875 -0.304688,-0.164063 -0.527344,-0.363281 -0.671875,-0.59375 -0.148437,-0.238281 -0.21875,-0.523437 -0.21875,-0.859375 0,-0.351562 0.085937,-0.671875 0.265625,-0.953125 0.175781,-0.28125 0.414062,-0.5 0.71875,-0.65625 0.3125,-0.15625 0.660156,-0.234375 1.046875,-0.234375 0.40625,0.011719 0.75,0 1.03125,-0.03125 0.28125,-0.039062 0.507813,-0.09375 0.6875,-0.15625 0.1875,-0.0625 0.414063,-0.15625 0.6875,-0.28125 z M 2.515625,-4.71875 c -0.34375,0 -0.617187,0.109375 -0.8125,0.328125 -0.1875,0.21875 -0.28125,0.507813 -0.28125,0.859375 0,0.355469 0.09375,0.640625 0.28125,0.859375 0.195313,0.210937 0.472656,0.3125 0.828125,0.3125 0.363281,0 0.640625,-0.101563 0.828125,-0.3125 0.1875,-0.207031 0.28125,-0.5 0.28125,-0.875 0,-0.78125 -0.375,-1.171875 -1.125,-1.171875 z m 0,0"
               id="id-f163b07d-cf17-43b1-b97a-9b4e66eb078c" />
          </g>
        </g>
      </defs>
      <g
         fill="#000000"
         fill-opacity="1"
         id="id-bf5e27b2-6198-442f-a713-32a4afac62db"
         transform="translate(-284.528,-126.984)">
        <g
           transform="translate(284.184,134.765)"
           id="g200742">
          <path
             d="M 3.21875,-6.671875 V 0 H 2.296875 V -5.6875 L 0.75,-4.75 0.34375,-5.390625 l 2.0625,-1.28125 z m 0,0"
             id="id-59f7d83f-7a64-4036-a5ea-8306e26fb6d9" />
        </g>
        <g
           transform="translate(288.498,134.765)"
           id="g200745">
          <path
             d="m 0.59375,-2.734375 v -0.78125 h 2.828125 v 0.78125 z m 0,0"
             id="id-29d8e60d-e09b-4d73-b7e8-8eaeac974ac0" />
        </g>
        <g
           transform="translate(292.513,134.765)"
           id="g200748">
          <path
             d="m 3.359375,-5.375 c 0.664063,0 1.15625,0.242188 1.46875,0.71875 0.3125,0.480469 0.46875,1.15625 0.46875,2.03125 0,0.824219 -0.179687,1.492188 -0.53125,2 -0.355469,0.5 -0.867187,0.75 -1.53125,0.75 -0.585937,0 -1.042969,-0.203125 -1.375,-0.609375 v 2.5 L 0.953125,2.125 V -5.25 h 0.78125 l 0.0625,0.703125 C 1.992188,-4.804688 2.226562,-5.007812 2.5,-5.15625 2.769531,-5.300781 3.054688,-5.375 3.359375,-5.375 Z m -0.34375,4.75 c 0.863281,0 1.296875,-0.664062 1.296875,-2 0,-1.34375 -0.398438,-2.015625 -1.1875,-2.015625 -0.261719,0 -0.496094,0.078125 -0.703125,0.234375 -0.210937,0.148438 -0.398437,0.339844 -0.5625,0.578125 v 2.5625 c 0.132813,0.210937 0.300781,0.371094 0.5,0.484375 0.195313,0.105469 0.414063,0.15625 0.65625,0.15625 z m 0,0"
             id="id-4d43b1fe-9f58-42e4-973e-9929d2b3a099" />
        </g>
      </g>
      <g
         fill="#000000"
         fill-opacity="1"
         id="id-8b4629ec-2c15-4ffc-8120-0fc936b0ccee"
         transform="translate(-284.528,-126.984)">
        <g
           transform="translate(298.341,134.765)"
           id="g200752">
          <path
             d="m 4.484375,-1.21875 c 0,0.210938 0.035156,0.367188 0.109375,0.46875 0.070312,0.105469 0.179688,0.183594 0.328125,0.234375 L 4.71875,0.125 C 4.445312,0.0820312 4.226562,0.00390625 4.0625,-0.109375 c -0.167969,-0.125 -0.292969,-0.3125 -0.375,-0.5625 C 3.332031,-0.140625 2.8125,0.125 2.125,0.125 c -0.523438,0 -0.933594,-0.1445312 -1.234375,-0.4375 -0.292969,-0.289062 -0.4375,-0.675781 -0.4375,-1.15625 0,-0.550781 0.195313,-0.976562 0.59375,-1.28125 0.40625,-0.300781 0.976563,-0.453125 1.71875,-0.453125 H 3.5625 V -3.59375 c 0,-0.363281 -0.089844,-0.625 -0.265625,-0.78125 -0.179687,-0.164062 -0.453125,-0.25 -0.828125,-0.25 -0.386719,0 -0.855469,0.09375 -1.40625,0.28125 L 0.828125,-5.015625 c 0.644531,-0.238281 1.25,-0.359375 1.8125,-0.359375 0.613281,0 1.070313,0.152344 1.375,0.453125 0.3125,0.304687 0.46875,0.734375 0.46875,1.296875 z m -2.15625,0.65625 c 0.53125,0 0.941406,-0.273438 1.234375,-0.828125 V -2.59375 H 2.875 c -0.96875,0 -1.453125,0.359375 -1.453125,1.078125 0,0.3125 0.078125,0.554687 0.234375,0.71875 0.15625,0.15625 0.378906,0.234375 0.671875,0.234375 z m 0,0"
             id="id-daba8fe0-7735-4239-99ba-fc3d06839707" />
        </g>
        <g
           transform="translate(303.76,134.765)"
           id="g200755">
          <path
             d="m 3.234375,-5.375 c 0.1875,0 0.359375,0.023438 0.515625,0.0625 L 3.578125,-4.421875 C 3.421875,-4.453125 3.269531,-4.46875 3.125,-4.46875 c -0.335938,0 -0.601562,0.121094 -0.796875,0.359375 C 2.128906,-3.878906 1.972656,-3.507812 1.859375,-3 v 3 h -0.90625 v -5.25 h 0.78125 l 0.09375,1.0625 C 1.960938,-4.582031 2.148438,-4.878906 2.390625,-5.078125 2.628906,-5.273438 2.910156,-5.375 3.234375,-5.375 Z m 0,0"
             id="id-4a04c000-a873-4f51-9036-f47ff70a5fe6" />
        </g>
        <g
           transform="translate(307.606,134.765)"
           id="g200758">
          <path
             d="M 3.59375,-0.234375 C 3.25,0.00390625 2.859375,0.125 2.421875,0.125 1.972656,0.125 1.625,0 1.375,-0.25 1.125,-0.507812 1,-0.882812 1,-1.375 V -4.546875 H 0.09375 V -5.25 H 1 V -6.4375 L 1.921875,-6.546875 V -5.25 h 1.25 l -0.09375,0.703125 h -1.15625 v 3.125 c 0,0.28125 0.046875,0.484375 0.140625,0.609375 0.101562,0.117188 0.265625,0.171875 0.484375,0.171875 0.207031,0 0.441406,-0.066406 0.703125,-0.203125 z m 0,0"
             id="id-1be888db-6e3c-4c56-8e1e-b9dfe6b20aef" />
        </g>
        <g
           transform="translate(311.203,134.765)"
           id="g200761">
          <path
             d="M 1.859375,-5.25 V 0 h -0.90625 v -5.25 z m -0.46875,-2.53125 c 0.195313,0 0.351563,0.0625 0.46875,0.1875 0.125,0.117188 0.1875,0.265625 0.1875,0.453125 0,0.179687 -0.0625,0.324219 -0.1875,0.4375 -0.117187,0.117187 -0.273437,0.171875 -0.46875,0.171875 -0.179687,0 -0.328125,-0.054688 -0.453125,-0.171875 -0.117188,-0.113281 -0.171875,-0.257813 -0.171875,-0.4375 0,-0.1875 0.054687,-0.335937 0.171875,-0.453125 0.125,-0.125 0.273438,-0.1875 0.453125,-0.1875 z m 0,0"
             id="id-18e59c34-f154-4863-bfda-0a1ac344f6f1" />
        </g>
        <g
           transform="translate(314.012,134.765)"
           id="g200764">
          <path
             d="m 2.859375,-5.375 c 0.3125,0 0.597656,0.046875 0.859375,0.140625 0.257812,0.085937 0.507812,0.226563 0.75,0.421875 l -0.4375,0.578125 c -0.1875,-0.125 -0.371094,-0.21875 -0.546875,-0.28125 -0.179687,-0.0625 -0.371094,-0.09375 -0.578125,-0.09375 -0.429688,0 -0.761719,0.171875 -1,0.515625 -0.230469,0.335938 -0.34375,0.828125 -0.34375,1.484375 0,0.667969 0.113281,1.164063 0.34375,1.484375 0.226562,0.3125 0.5625,0.46875 1,0.46875 0.195312,0 0.382812,-0.03125 0.5625,-0.09375 0.175781,-0.0625 0.367188,-0.164062 0.578125,-0.3125 L 4.46875,-0.453125 C 3.988281,-0.0664062 3.453125,0.125 2.859375,0.125 2.148438,0.125 1.585938,-0.113281 1.171875,-0.59375 0.765625,-1.070312 0.5625,-1.734375 0.5625,-2.578125 c 0,-0.5625 0.09375,-1.050781 0.28125,-1.46875 0.1875,-0.414063 0.453125,-0.738281 0.796875,-0.96875 0.34375,-0.238281 0.75,-0.359375 1.21875,-0.359375 z m 0,0"
             id="id-188d26a3-a62c-4c03-a855-6df287419d15" />
        </g>
        <g
           transform="translate(318.774,134.765)"
           id="g200767">
          <path
             d="M 2,0.125 C 1.65625,0.125 1.382812,0.0234375 1.1875,-0.171875 0.988281,-0.378906 0.890625,-0.664062 0.890625,-1.03125 v -6.328125 l 0.921875,-0.125 V -1.0625 c 0,0.148438 0.023438,0.257812 0.078125,0.328125 0.050781,0.0625 0.132813,0.09375 0.25,0.09375 0.125,0 0.238281,-0.019531 0.34375,-0.0625 L 2.71875,-0.0625 C 2.5,0.0625 2.257812,0.125 2,0.125 Z m 0,0"
             id="id-7435bc7d-6963-4321-a71d-eb583b14ce84" />
        </g>
      </g>
      <g
         fill="#000000"
         fill-opacity="1"
         id="id-036869a4-52af-4d50-acac-43916a0a4da5"
         transform="translate(-284.528,-126.984)">
        <g
           transform="translate(321.643,134.765)"
           id="g200771">
          <path
             d="m 4.921875,-2.78125 c 0,0.15625 -0.011719,0.3125 -0.03125,0.46875 h -3.34375 c 0.039063,0.574219 0.1875,1 0.4375,1.28125 0.25,0.273438 0.570313,0.40625 0.96875,0.40625 0.257813,0 0.492187,-0.035156 0.703125,-0.109375 C 3.875,-0.804688 4.097656,-0.925781 4.328125,-1.09375 l 0.390625,0.5625 C 4.164062,-0.09375 3.554688,0.125 2.890625,0.125 2.160156,0.125 1.585938,-0.113281 1.171875,-0.59375 0.765625,-1.070312 0.5625,-1.734375 0.5625,-2.578125 c 0,-0.539063 0.085938,-1.019531 0.265625,-1.4375 0.175781,-0.425781 0.425781,-0.757813 0.75,-1 C 1.910156,-5.253906 2.300781,-5.375 2.75,-5.375 c 0.695312,0 1.234375,0.230469 1.609375,0.6875 0.375,0.460938 0.5625,1.09375 0.5625,1.90625 z M 4,-3.046875 c 0,-0.519531 -0.105469,-0.914063 -0.3125,-1.1875 -0.199219,-0.269531 -0.507812,-0.40625 -0.921875,-0.40625 -0.75,0 -1.15625,0.554687 -1.21875,1.65625 H 4 Z m 0,0"
             id="id-e1fcf4d7-8599-4528-a3b9-0f34adad92fd" />
        </g>
      </g>
      <g
         fill="#000000"
         fill-opacity="1"
         id="id-826f6904-77d2-4b49-847c-58beadc740e5"
         transform="translate(-284.528,-126.984)">
        <g
           transform="translate(286.964,146.72)"
           id="g200775">
          <path
             d="m 3.421875,-5.375 c 0.476563,0 0.847656,0.148438 1.109375,0.4375 0.269531,0.28125 0.40625,0.671875 0.40625,1.171875 V 0 H 4.03125 v -3.640625 c 0,-0.375 -0.074219,-0.632813 -0.21875,-0.78125 -0.148438,-0.15625 -0.355469,-0.234375 -0.625,-0.234375 -0.273438,0 -0.515625,0.085938 -0.734375,0.25 -0.210937,0.15625 -0.40625,0.382812 -0.59375,0.671875 V 0 h -0.90625 v -7.359375 l 0.90625,-0.09375 v 2.921875 c 0.414063,-0.5625 0.9375,-0.84375 1.5625,-0.84375 z m 0,0"
             id="id-f49370ab-cb96-4645-b87a-477b82c317ef" />
        </g>
        <g
           transform="translate(292.802,146.72)"
           id="g200778">
          <path
             d="m 2.921875,-5.375 c 0.738281,0 1.3125,0.25 1.71875,0.75 0.40625,0.492188 0.609375,1.15625 0.609375,2 0,0.542969 -0.09375,1.023438 -0.28125,1.4375 -0.1875,0.417969 -0.460938,0.742188 -0.8125,0.96875 C 3.8125,0.0078125 3.394531,0.125 2.90625,0.125 2.164062,0.125 1.585938,-0.117188 1.171875,-0.609375 0.765625,-1.109375 0.5625,-1.78125 0.5625,-2.625 c 0,-0.539062 0.09375,-1.019531 0.28125,-1.4375 0.1875,-0.414062 0.457031,-0.738281 0.8125,-0.96875 C 2.007812,-5.257812 2.429688,-5.375 2.921875,-5.375 Z m 0,0.734375 c -0.90625,0 -1.359375,0.671875 -1.359375,2.015625 0,1.335938 0.445312,2 1.34375,2 0.90625,0 1.359375,-0.664062 1.359375,-2 0,-1.34375 -0.449219,-2.015625 -1.34375,-2.015625 z m 0,0"
             id="id-0699909d-8290-43a4-b6c4-bf7954fc372e" />
        </g>
        <g
           transform="translate(298.62,146.72)"
           id="g200781">
          <path
             d="m 3.359375,-5.375 c 0.664063,0 1.15625,0.242188 1.46875,0.71875 0.3125,0.480469 0.46875,1.15625 0.46875,2.03125 0,0.824219 -0.179687,1.492188 -0.53125,2 -0.355469,0.5 -0.867187,0.75 -1.53125,0.75 -0.585937,0 -1.042969,-0.203125 -1.375,-0.609375 v 2.5 L 0.953125,2.125 V -5.25 h 0.78125 l 0.0625,0.703125 C 1.992188,-4.804688 2.226562,-5.007812 2.5,-5.15625 2.769531,-5.300781 3.054688,-5.375 3.359375,-5.375 Z m -0.34375,4.75 c 0.863281,0 1.296875,-0.664062 1.296875,-2 0,-1.34375 -0.398438,-2.015625 -1.1875,-2.015625 -0.261719,0 -0.496094,0.078125 -0.703125,0.234375 -0.210937,0.148438 -0.398437,0.339844 -0.5625,0.578125 v 2.5625 c 0.132813,0.210937 0.300781,0.371094 0.5,0.484375 0.195313,0.105469 0.414063,0.15625 0.65625,0.15625 z m 0,0"
             id="id-5dc85635-64a1-48fb-b003-cb6fd24b1621" />
        </g>
        <g
           transform="translate(304.538,146.72)"
           id="g200784">
          <path
             d="m 3.359375,-5.375 c 0.664063,0 1.15625,0.242188 1.46875,0.71875 0.3125,0.480469 0.46875,1.15625 0.46875,2.03125 0,0.824219 -0.179687,1.492188 -0.53125,2 -0.355469,0.5 -0.867187,0.75 -1.53125,0.75 -0.585937,0 -1.042969,-0.203125 -1.375,-0.609375 v 2.5 L 0.953125,2.125 V -5.25 h 0.78125 l 0.0625,0.703125 C 1.992188,-4.804688 2.226562,-5.007812 2.5,-5.15625 2.769531,-5.300781 3.054688,-5.375 3.359375,-5.375 Z m -0.34375,4.75 c 0.863281,0 1.296875,-0.664062 1.296875,-2 0,-1.34375 -0.398438,-2.015625 -1.1875,-2.015625 -0.261719,0 -0.496094,0.078125 -0.703125,0.234375 -0.210937,0.148438 -0.398437,0.339844 -0.5625,0.578125 v 2.5625 c 0.132813,0.210937 0.300781,0.371094 0.5,0.484375 0.195313,0.105469 0.414063,0.15625 0.65625,0.15625 z m 0,0"
             id="id-9e1e101a-29d2-41d2-b698-b1945e55b66b" />
        </g>
        <g
           transform="translate(310.456,146.72)"
           id="g200787">
          <path
             d="M 1.859375,-5.25 V 0 h -0.90625 v -5.25 z m -0.46875,-2.53125 c 0.195313,0 0.351563,0.0625 0.46875,0.1875 0.125,0.117188 0.1875,0.265625 0.1875,0.453125 0,0.179687 -0.0625,0.324219 -0.1875,0.4375 -0.117187,0.117187 -0.273437,0.171875 -0.46875,0.171875 -0.179687,0 -0.328125,-0.054688 -0.453125,-0.171875 -0.117188,-0.113281 -0.171875,-0.257813 -0.171875,-0.4375 0,-0.1875 0.054687,-0.335937 0.171875,-0.453125 0.125,-0.125 0.273438,-0.1875 0.453125,-0.1875 z m 0,0"
             id="id-574def37-8e0a-4800-85c9-26b0af2114c0" />
        </g>
        <g
           transform="translate(313.265,146.72)"
           id="g200790">
          <path
             d="m 3.421875,-5.375 c 0.476563,0 0.847656,0.148438 1.109375,0.4375 0.269531,0.28125 0.40625,0.671875 0.40625,1.171875 V 0 H 4.03125 v -3.640625 c 0,-0.375 -0.074219,-0.632813 -0.21875,-0.78125 -0.136719,-0.15625 -0.339844,-0.234375 -0.609375,-0.234375 -0.28125,0 -0.53125,0.085938 -0.75,0.25 -0.210937,0.15625 -0.40625,0.382812 -0.59375,0.671875 V 0 h -0.90625 v -5.25 h 0.78125 L 1.8125,-4.46875 C 2,-4.75 2.226562,-4.96875 2.5,-5.125 c 0.28125,-0.164062 0.585938,-0.25 0.921875,-0.25 z m 0,0"
             id="id-0d5609d5-f1dc-4a62-b77b-5bda5c904825" />
        </g>
        <g
           transform="translate(319.103,146.72)"
           id="g200793">
          <path
             d="m 5.1875,-5.015625 c -0.199219,0.0625 -0.417969,0.105469 -0.65625,0.125 -0.242188,0.023437 -0.53125,0.03125 -0.875,0.03125 0.613281,0.28125 0.921875,0.726563 0.921875,1.328125 0,0.53125 -0.183594,0.964844 -0.546875,1.296875 C 3.675781,-1.910156 3.191406,-1.75 2.578125,-1.75 c -0.242187,0 -0.464844,-0.03125 -0.671875,-0.09375 -0.085938,0.054688 -0.152344,0.125 -0.203125,0.21875 -0.042969,0.085938 -0.0625,0.171875 -0.0625,0.265625 0,0.292969 0.226563,0.4375 0.6875,0.4375 h 0.84375 c 0.351563,0 0.664063,0.0625 0.9375,0.1875 0.269531,0.125 0.476563,0.296875 0.625,0.515625 C 4.890625,0 4.96875,0.25 4.96875,0.53125 4.96875,1.039062 4.753906,1.429688 4.328125,1.703125 3.910156,1.984375 3.300781,2.125 2.5,2.125 1.9375,2.125 1.488281,2.066406 1.15625,1.953125 0.832031,1.835938 0.597656,1.660156 0.453125,1.421875 0.316406,1.191406 0.25,0.894531 0.25,0.53125 h 0.828125 c 0,0.207031 0.035156,0.375 0.109375,0.5 C 1.269531,1.15625 1.414062,1.25 1.625,1.3125 1.832031,1.375 2.125,1.40625 2.5,1.40625 3.050781,1.40625 3.441406,1.335938 3.671875,1.203125 3.910156,1.066406 4.03125,0.863281 4.03125,0.59375 c 0,-0.25 -0.09375,-0.4375 -0.28125,-0.5625 -0.179688,-0.125 -0.433594,-0.1875 -0.765625,-0.1875 H 2.15625 c -0.449219,0 -0.789062,-0.09375 -1.015625,-0.28125 -0.230469,-0.195312 -0.34375,-0.4375 -0.34375,-0.71875 0,-0.175781 0.046875,-0.34375 0.140625,-0.5 0.101562,-0.15625 0.25,-0.296875 0.4375,-0.421875 -0.304688,-0.164063 -0.527344,-0.363281 -0.671875,-0.59375 -0.148437,-0.238281 -0.21875,-0.523437 -0.21875,-0.859375 0,-0.351562 0.085937,-0.671875 0.265625,-0.953125 0.175781,-0.28125 0.414062,-0.5 0.71875,-0.65625 0.3125,-0.15625 0.660156,-0.234375 1.046875,-0.234375 0.40625,0.011719 0.75,0 1.03125,-0.03125 0.28125,-0.039062 0.507813,-0.09375 0.6875,-0.15625 0.1875,-0.0625 0.414063,-0.15625 0.6875,-0.28125 z M 2.515625,-4.71875 c -0.34375,0 -0.617187,0.109375 -0.8125,0.328125 -0.1875,0.21875 -0.28125,0.507813 -0.28125,0.859375 0,0.355469 0.09375,0.640625 0.28125,0.859375 0.195313,0.210937 0.472656,0.3125 0.828125,0.3125 0.363281,0 0.640625,-0.101563 0.828125,-0.3125 0.1875,-0.207031 0.28125,-0.5 0.28125,-0.875 0,-0.78125 -0.375,-1.171875 -1.125,-1.171875 z m 0,0"
             id="id-b4dc3932-cfc0-4e3b-8417-078b256f6e9f" />
        </g>
      </g>
    </g>
  </g>
</svg>
