<?xml version="1.0" encoding="UTF-8" standalone="no"?>
<!-- Created with Inkscape (http://www.inkscape.org/) -->

<svg
   width="104.65835mm"
   height="60.26667mm"
   viewBox="0 0 104.65835 60.26667"
   version="1.1"
   id="svg1"
   sodipodi:docname="urgProcesses.svg"
   inkscape:version="1.4.3 (0d15f75042, 2025-12-25)"
   xmlns:inkscape="http://www.inkscape.org/namespaces/inkscape"
   xmlns:sodipodi="http://sodipodi.sourceforge.net/DTD/sodipodi-0.dtd"
   xmlns="http://www.w3.org/2000/svg"
   xmlns:svg="http://www.w3.org/2000/svg"
   xmlns:ns3="http://www.iki.fi/pav/software/textext/">
  <sodipodi:namedview
     id="namedview1"
     pagecolor="#ffffff"
     bordercolor="#000000"
     borderopacity="0.25"
     inkscape:showpageshadow="2"
     inkscape:pageopacity="0.0"
     inkscape:pagecheckerboard="0"
     inkscape:deskcolor="#d1d1d1"
     inkscape:document-units="mm"
     showgrid="false"
     inkscape:zoom="1.6373878"
     inkscape:cx="100.4649"
     inkscape:cy="70.539186"
     inkscape:window-width="1920"
     inkscape:window-height="1128"
     inkscape:window-x="0"
     inkscape:window-y="0"
     inkscape:window-maximized="1"
     inkscape:current-layer="layer1" />
  <defs
     id="defs1">
    <rect
       x="-76.951836"
       y="246.73447"
       width="455.60376"
       height="233.29843"
       id="rect39" />
    <rect
       x="17.100409"
       y="178.33282"
       width="88.555687"
       height="49.446709"
       id="rect38" />
    <inkscape:path-effect
       effect="spiro"
       id="path-effect38"
       is_visible="true"
       lpeversion="1" />
    <rect
       x="230.85551"
       y="490.41528"
       width="152.07149"
       height="82.448402"
       id="rect37" />
    <inkscape:path-effect
       effect="spiro"
       id="path-effect37"
       is_visible="true"
       lpeversion="1" />
    <inkscape:path-effect
       effect="spiro"
       id="path-effect35"
       is_visible="true"
       lpeversion="1" />
    <inkscape:path-effect
       effect="spiro"
       id="path-effect34"
       is_visible="true"
       lpeversion="1" />
    <inkscape:path-effect
       effect="spiro"
       id="path-effect32"
       is_visible="true"
       lpeversion="1" />
    <rect
       x="462.9325"
       y="273.60654"
       width="125.81015"
       height="71.455276"
       id="rect30" />
    <inkscape:path-effect
       effect="spiro"
       id="path-effect30"
       is_visible="true"
       lpeversion="1" />
    <marker
       style="overflow:visible"
       id="RoundedArrow"
       refX="0"
       refY="0"
       orient="auto-start-reverse"
       inkscape:stockid="Rounded arrow"
       markerWidth="0.5"
       markerHeight="0.5"
       viewBox="0 0 1 1"
       inkscape:isstock="true"
       inkscape:collect="always"
       preserveAspectRatio="xMidYMid">
      <path
         transform="scale(0.7)"
         d="m -0.21114562,-4.1055728 6.42229122,3.21114561 a 1,1 90 0 1 0,1.78885438 L -0.21114562,4.1055728 A 1.236068,1.236068 31.717474 0 1 -2,3 v -6 a 1.236068,1.236068 148.28253 0 1 1.78885438,-1.1055728 z"
         style="fill:context-stroke;fill-rule:evenodd;stroke:none"
         id="path28" />
    </marker>
    <inkscape:path-effect
       effect="spiro"
       id="path-effect28"
       is_visible="true"
       lpeversion="1" />
    <inkscape:path-effect
       effect="spiro"
       id="path-effect27"
       is_visible="true"
       lpeversion="1" />
    <inkscape:path-effect
       effect="spiro"
       id="path-effect25"
       is_visible="true"
       lpeversion="1" />
    <inkscape:path-effect
       effect="spiro"
       id="path-effect23"
       is_visible="true"
       lpeversion="1" />
    <inkscape:path-effect
       effect="spiro"
       id="path-effect21"
       is_visible="true"
       lpeversion="1" />
    <inkscape:path-effect
       effect="spiro"
       id="path-effect17"
       is_visible="true"
       lpeversion="1" />
    <inkscape:path-effect
       effect="spiro"
       id="path-effect15"
       is_visible="true"
       lpeversion="1" />
    <inkscape:path-effect
       effect="spiro"
       id="path-effect13"
       is_visible="true"
       lpeversion="1" />
    <inkscape:path-effect
       effect="spiro"
       id="path-effect11"
       is_visible="true"
       lpeversion="1" />
    <inkscape:path-effect
       effect="spiro"
       id="path-effect7"
       is_visible="true"
       lpeversion="1" />
    <inkscape:path-effect
       effect="spiro"
       id="path-effect5"
       is_visible="true"
       lpeversion="1" />
    <inkscape:path-effect
       effect="spiro"
       id="path-effect3"
       is_visible="true"
       lpeversion="1" />
    <inkscape:path-effect
       effect="spiro"
       id="path-effect1"
       is_visible="true"
       lpeversion="1" />
    <rect
       x="462.9325"
       y="273.60654"
       width="125.81015"
       height="71.455276"
       id="rect31" />
    <rect
       x="462.9325"
       y="273.60654"
       width="125.81015"
       height="71.455276"
       id="rect32" />
    <marker
       style="overflow:visible"
       id="RoundedArrow-7"
       refX="0"
       refY="0"
       orient="auto-start-reverse"
       inkscape:stockid="Rounded arrow"
       markerWidth="0.5"
       markerHeight="0.5"
       viewBox="0 0 1 1"
       inkscape:isstock="true"
       inkscape:collect="always"
       preserveAspectRatio="xMidYMid">
      <path
         transform="scale(0.7)"
         d="m -0.21114562,-4.1055728 6.42229122,3.21114561 a 1,1 90 0 1 0,1.78885438 L -0.21114562,4.1055728 A 1.236068,1.236068 31.717474 0 1 -2,3 v -6 a 1.236068,1.236068 148.28253 0 1 1.78885438,-1.1055728 z"
         style="fill:context-stroke;fill-rule:evenodd;stroke:none"
         id="path28-6" />
    </marker>
    <inkscape:path-effect
       effect="spiro"
       id="path-effect28-1"
       is_visible="true"
       lpeversion="1" />
  </defs>
  <g
     inkscape:label="Layer 1"
     inkscape:groupmode="layer"
     id="layer1"
     transform="translate(-27.568092,-55.409683)">
    <path
       style="fill:none;fill-opacity:1;stroke:#5175a0;stroke-width:1;stroke-dasharray:none;stroke-dashoffset:0;stroke-opacity:1;paint-order:markers stroke fill"
       d="M 77.239391,55.909683 H 116.66703"
       id="path1"
       inkscape:path-effect="#path-effect1"
       inkscape:original-d="m 77.239391,55.909683 c 13.142544,0 26.285089,0 39.427639,0" />
    <path
       style="fill:none;fill-opacity:1;stroke:#5175a0;stroke-width:1;stroke-dasharray:none;stroke-dashoffset:0;stroke-opacity:1;paint-order:markers stroke fill"
       d="M 77.239391,55.909683 H 116.66703"
       id="path2"
       inkscape:path-effect="#path-effect3"
       inkscape:original-d="m 77.239391,55.909683 c 13.142544,0 26.285089,0 39.427639,0"
       transform="translate(0,2.1166667)" />
    <path
       style="fill:none;fill-opacity:1;stroke:#5175a0;stroke-width:1;stroke-dasharray:none;stroke-dashoffset:0;stroke-opacity:1;paint-order:markers stroke fill"
       d="M 77.239391,55.909683 H 116.66703"
       id="path3"
       inkscape:path-effect="#path-effect5"
       inkscape:original-d="m 77.239391,55.909683 c 13.142544,0 26.285089,0 39.427639,0"
       transform="translate(0,4.2333335)" />
    <path
       style="fill:none;fill-opacity:1;stroke:#5175a0;stroke-width:1;stroke-dasharray:none;stroke-dashoffset:0;stroke-opacity:1;paint-order:markers stroke fill"
       d="M 77.239391,55.909683 H 116.66703"
       id="path5"
       inkscape:path-effect="#path-effect7"
       inkscape:original-d="m 77.239391,55.909683 c 13.142544,0 26.285089,0 39.427639,0"
       transform="translate(0,6.3500003)" />
    <path
       style="fill:none;fill-opacity:1;stroke:#d02000;stroke-width:1;stroke-dasharray:none;stroke-dashoffset:0;stroke-opacity:1;paint-order:markers stroke fill"
       d="M 77.239391,55.909683 H 116.66703"
       id="path7"
       inkscape:path-effect="#path-effect11"
       inkscape:original-d="m 77.239391,55.909683 c 13.142544,0 26.285089,0 39.427639,0"
       transform="translate(0,26.458334)" />
    <path
       style="fill:none;fill-opacity:1;stroke:#d02000;stroke-width:1;stroke-dasharray:none;stroke-dashoffset:0;stroke-opacity:1;paint-order:markers stroke fill"
       d="M 77.239391,55.909683 H 116.66703"
       id="path8"
       inkscape:path-effect="#path-effect13"
       inkscape:original-d="m 77.239391,55.909683 c 13.142544,0 26.285089,0 39.427639,0"
       transform="translate(0,28.575001)" />
    <path
       style="fill:none;fill-opacity:1;stroke:#d02000;stroke-width:1;stroke-dasharray:none;stroke-dashoffset:0;stroke-opacity:1;paint-order:markers stroke fill"
       d="M 77.239391,55.909683 H 116.66703"
       id="path9"
       inkscape:path-effect="#path-effect15"
       inkscape:original-d="m 77.239391,55.909683 c 13.142544,0 26.285089,0 39.427639,0"
       transform="translate(0,30.691668)" />
    <path
       style="fill:none;fill-opacity:1;stroke:#d02000;stroke-width:1;stroke-dasharray:none;stroke-dashoffset:0;stroke-opacity:1;paint-order:markers stroke fill"
       d="M 77.239391,55.909683 H 116.66703"
       id="path10"
       inkscape:path-effect="#path-effect17"
       inkscape:original-d="m 77.239391,55.909683 c 13.142544,0 26.285089,0 39.427639,0"
       transform="translate(0,32.808335)" />
    <path
       style="fill:none;fill-opacity:1;stroke:#5175a0;stroke-width:1;stroke-dasharray:none;stroke-dashoffset:0;stroke-opacity:1;paint-order:markers stroke fill"
       d="M 77.239391,55.909683 H 116.66703"
       id="path17"
       inkscape:path-effect="#path-effect21"
       inkscape:original-d="m 77.239391,55.909683 c 13.142544,0 26.285089,0 39.427639,0"
       transform="translate(0,52.916669)" />
    <path
       style="fill:none;fill-opacity:1;stroke:#5175a0;stroke-width:1;stroke-dasharray:none;stroke-dashoffset:0;stroke-opacity:1;paint-order:markers stroke fill"
       d="M 77.239391,55.909683 H 116.66703"
       id="path18"
       inkscape:path-effect="#path-effect23"
       inkscape:original-d="m 77.239391,55.909683 c 13.142544,0 26.285089,0 39.427639,0"
       transform="translate(0,55.033336)" />
    <path
       style="fill:none;fill-opacity:1;stroke:#5175a0;stroke-width:1;stroke-dasharray:none;stroke-dashoffset:0;stroke-opacity:1;paint-order:markers stroke fill"
       d="M 77.239391,55.909683 H 116.66703"
       id="path19"
       inkscape:path-effect="#path-effect25"
       inkscape:original-d="m 77.239391,55.909683 c 13.142544,0 26.285089,0 39.427639,0"
       transform="translate(0,57.150003)" />
    <path
       style="fill:none;fill-opacity:1;stroke:#5175a0;stroke-width:1;stroke-dasharray:none;stroke-dashoffset:0;stroke-opacity:1;paint-order:markers stroke fill"
       d="M 77.239391,55.909683 H 116.66703"
       id="path20"
       inkscape:path-effect="#path-effect27"
       inkscape:original-d="m 77.239391,55.909683 c 13.142544,0 26.285089,0 39.427639,0"
       transform="translate(0,59.26667)" />
    <path
       style="fill:none;fill-opacity:1;stroke:#605050;stroke-width:2;stroke-dasharray:none;stroke-dashoffset:0;stroke-opacity:1;marker-end:url(#RoundedArrow);paint-order:markers stroke fill"
       d="m 77.239391,84.484684 c -2.063922,0.119079 -4.158541,-0.350261 -5.974311,-1.338661 -1.815769,-0.9884 -3.346986,-2.492754 -4.367365,-4.290748 -1.275572,-2.247666 -1.73503,-4.947179 -1.274846,-7.490271 0.460185,-2.543091 1.836509,-4.910411 3.818853,-6.568542"
       id="path27"
       inkscape:path-effect="#path-effect28"
       inkscape:original-d="M 77.239391,84.484684 C 73.684439,82.608216 70.452664,80.731745 66.897715,78.855275 63.342763,76.978808 68.903094,70.613652 69.441722,64.796462"
       sodipodi:nodetypes="csc"
       transform="rotate(18.641006,78.876051,71.824248)" />
    <path
       style="fill:none;fill-opacity:1;stroke:#605050;stroke-width:2;stroke-dasharray:none;stroke-dashoffset:0;stroke-opacity:1;marker-end:url(#RoundedArrow-7);paint-order:markers stroke fill"
       d="m 77.239391,84.484684 c -2.063922,0.119079 -4.158541,-0.350261 -5.974311,-1.338661 -1.815769,-0.9884 -3.346986,-2.492754 -4.367365,-4.290748 -1.275572,-2.247666 -1.73503,-4.947179 -1.274846,-7.490271 0.460185,-2.543091 1.836509,-4.910411 3.818853,-6.568542"
       id="path27-1"
       inkscape:path-effect="#path-effect28-1"
       inkscape:original-d="M 77.239391,84.484684 C 73.684439,82.608216 70.452664,80.731745 66.897715,78.855275 63.342763,76.978808 68.903094,70.613652 69.441722,64.796462"
       sodipodi:nodetypes="csc"
       transform="matrix(-0.48076516,0.87684939,0.87684939,0.48076516,18.32903,-16.15744)" />
    <path
       style="fill:none;fill-opacity:1;stroke:#605050;stroke-width:2;stroke-dasharray:none;stroke-dashoffset:0;stroke-opacity:1;marker-end:url(#RoundedArrow);paint-order:markers stroke fill"
       d="m 77.239391,84.484684 c -2.063922,0.119079 -4.158541,-0.350261 -5.974311,-1.338661 -1.815769,-0.9884 -3.346986,-2.492754 -4.367365,-4.290748 -1.275572,-2.247666 -1.73503,-4.947179 -1.274846,-7.490271 0.460185,-2.543091 1.836509,-4.910411 3.818853,-6.568542"
       id="path29"
       inkscape:path-effect="#path-effect30"
       inkscape:original-d="M 77.239391,84.484684 C 73.684439,82.608216 70.452664,80.731745 66.897715,78.855275 63.342763,76.978808 68.903094,70.613652 69.441722,64.796462"
       sodipodi:nodetypes="csc"
       transform="matrix(0.94753989,-0.31963754,-0.31963754,-0.94753989,27.095572,193.27278)" />
    <text
       xml:space="preserve"
       transform="matrix(0.20758552,0,0,0.20758552,17.039956,-0.67840944)"
       id="text30"
       style="font-style:normal;font-variant:normal;font-weight:normal;font-stretch:normal;font-size:40px;line-height:0.9;font-family:Bitter;-inkscape-font-specification:'Bitter, Normal';font-variant-ligatures:normal;font-variant-caps:normal;font-variant-numeric:normal;font-variant-east-asian:normal;text-align:center;text-decoration-color:#000000;letter-spacing:0.1px;writing-mode:lr-tb;direction:ltr;white-space:pre;shape-inside:url(#rect30);display:inline;fill:#505050;fill-opacity:1;stroke:none;stroke-width:7.55906;stroke-dasharray:none;stroke-dashoffset:0;stroke-opacity:1;paint-order:markers stroke fill"><tspan
         x="496.58689"
         y="302.40742"
         id="tspan5">UV</tspan></text>
    <text
       xml:space="preserve"
       transform="matrix(0.20758552,0,0,0.20758552,17.039956,52.23826)"
       id="text31"
       style="font-style:normal;font-variant:normal;font-weight:normal;font-stretch:normal;font-size:40px;line-height:0.9;font-family:Bitter;-inkscape-font-specification:'Bitter, Normal';font-variant-ligatures:normal;font-variant-caps:normal;font-variant-numeric:normal;font-variant-east-asian:normal;text-align:center;text-decoration-color:#000000;letter-spacing:0.1px;writing-mode:lr-tb;direction:ltr;white-space:pre;shape-inside:url(#rect31);display:inline;fill:#505050;fill-opacity:1;stroke:none;stroke-width:7.55906;stroke-dasharray:none;stroke-dashoffset:0;stroke-opacity:1;paint-order:markers stroke fill"><tspan
         x="496.58689"
         y="302.40742"
         id="tspan6">UV</tspan></text>
    <text
       xml:space="preserve"
       transform="matrix(0.20758552,0,0,0.20758552,17.039956,25.779925)"
       id="text32"
       style="font-style:normal;font-variant:normal;font-weight:normal;font-stretch:normal;font-size:40px;line-height:0.9;font-family:Bitter;-inkscape-font-specification:'Bitter, Normal';font-variant-ligatures:normal;font-variant-caps:normal;font-variant-numeric:normal;font-variant-east-asian:normal;text-align:center;text-decoration-color:#000000;letter-spacing:0.1px;writing-mode:lr-tb;direction:ltr;white-space:pre;shape-inside:url(#rect32);display:inline;fill:#505050;fill-opacity:1;stroke:none;stroke-width:7.55906;stroke-dasharray:none;stroke-dashoffset:0;stroke-opacity:1;paint-order:markers stroke fill"><tspan
         x="505.48693"
         y="302.40742"
         id="tspan7">IR</tspan></text>
    <path
       style="fill:none;fill-opacity:1;stroke:#808080;stroke-width:2;stroke-dasharray:none;stroke-dashoffset:0;stroke-opacity:1;paint-order:markers stroke fill"
       d="M 27.631665,86.773122 H 41.043526"
       id="path32"
       inkscape:path-effect="#path-effect32"
       inkscape:original-d="m 27.631665,86.773122 c 4.362894,0 13.411861,0 13.411861,0"
       transform="translate(15.875,10.583333)" />
    <path
       style="fill:none;fill-opacity:1;stroke:#808080;stroke-width:2;stroke-dasharray:none;stroke-dashoffset:0;stroke-opacity:1;paint-order:markers stroke fill"
       d="M 27.631665,86.773122 H 41.043526"
       id="path33"
       inkscape:path-effect="#path-effect34"
       inkscape:original-d="m 27.631665,86.773122 c 4.362894,0 13.411861,0 13.411861,0"
       transform="translate(0,-5.2916667)" />
    <path
       style="fill:none;fill-opacity:1;stroke:#404040;stroke-width:2;stroke-dasharray:none;stroke-dashoffset:0;stroke-opacity:1;marker-end:url(#RoundedArrow);paint-order:markers stroke fill"
       d="m 27.308487,72.391729 v 7.756258"
       id="path34"
       inkscape:path-effect="#path-effect35"
       inkscape:original-d="m 27.308487,72.391729 c 0,2.585419 0,7.756258 0,7.756258"
       transform="matrix(1,0,0,-1,22.904109,173.62632)" />
    <path
       style="fill:none;fill-opacity:1;stroke:#404040;stroke-width:2;stroke-dasharray:none;stroke-dashoffset:0;stroke-opacity:1;marker-end:url(#RoundedArrow);paint-order:markers stroke fill"
       d="m 27.308487,72.391729 v 7.756258"
       id="path35"
       inkscape:path-effect="#path-effect37"
       inkscape:original-d="m 27.308487,72.391729 c 0,2.585419 0,7.756258 0,7.756258"
       transform="translate(7.0291083,0.47684493)" />
    <text
       xml:space="preserve"
       transform="matrix(0.18348678,0,0,0.18348678,7.7596829,-7.2959616)"
       id="text37"
       style="font-style:normal;font-variant:normal;font-weight:normal;font-stretch:normal;font-size:40px;line-height:0.9;font-family:Bitter;-inkscape-font-specification:'Bitter, Normal';font-variant-ligatures:normal;font-variant-caps:normal;font-variant-numeric:normal;font-variant-east-asian:normal;text-align:center;text-decoration-color:#000000;letter-spacing:0.1px;writing-mode:lr-tb;direction:ltr;white-space:pre;shape-inside:url(#rect37);display:inline;fill:#505050;fill-opacity:1;stroke:none;stroke-width:7.55906;stroke-dasharray:none;stroke-dashoffset:0;stroke-opacity:1;paint-order:markers stroke fill"><tspan
         x="275.66162"
         y="519.21602"
         id="tspan8">J, V</tspan></text>
    <path
       style="fill:#505050;fill-opacity:1;stroke:#404040;stroke-width:1;stroke-dasharray:none;stroke-dashoffset:0;stroke-opacity:1;marker-start:url(#RoundedArrow);marker-end:url(#RoundedArrow);paint-order:markers stroke fill"
       d="M 96.953209,83.787798 V 58.02635"
       id="path37"
       inkscape:path-effect="#path-effect38"
       inkscape:original-d="m 96.953209,83.787798 c 0,-8.122559 0,-16.942004 0,-25.761448"
       transform="matrix(1,0,0,0.83097786,0,13.391642)" />
    <g
       id="g3477"
       transform="matrix(0.89552119,0,0,0.89552119,98.436169,70.115857)"
       ns3:version="1.12.0"
       ns3:texconverter="xelatex"
       ns3:pdfconverter="inkscape"
       ns3:text="$\\varepsilon_k$"
       ns3:preamble="/usr/share/inkscape/extensions/textext/default_packages.tex"
       ns3:scale="4.870421535698087"
       ns3:alignment="middle center"
       ns3:inkscapeversion="1.4.3"
       ns3:jacobian_sqrt="1.71818"
       style="fill:#404040;fill-opacity:1;stroke:#404040;stroke-width:0.446667;stroke-dasharray:none;stroke-opacity:1">
      <defs
         id="defs9455">
        <g
           id="g254">
          <g
             id="g7536">
            <path
               d="M 1.40625,-2.265625 C 1.734375,-2.125 2.03125,-2.125 2.265625,-2.125 c 0.25,0 0.8125,0 0.8125,-0.3125 0,-0.234375 -0.359375,-0.265625 -0.734375,-0.265625 -0.203125,0 -0.5625,0.015625 -0.921875,0.1875 C 1.1875,-2.625 1.015625,-2.828125 1.015625,-3.09375 c 0,-0.609375 0.984375,-0.96875 1.875,-0.96875 0.15625,0 0.515625,0 0.921875,0.28125 0.109375,0.078125 0.125,0.109375 0.1875,0.109375 0.140625,0 0.28125,-0.140625 0.28125,-0.28125 0,-0.1875 -0.609375,-0.5625 -1.296875,-0.5625 -1.140625,0 -2.21875,0.671875 -2.21875,1.421875 0,0.4375 0.359375,0.6875 0.40625,0.71875 -0.59375,0.328125 -0.90625,0.875 -0.90625,1.34375 0,0.640625 0.5625,1.25 1.625,1.25 1.3125,0 1.875,-0.875 1.875,-1.03125 0,-0.0625 -0.0625,-0.09375 -0.109375,-0.09375 -0.0625,0 -0.09375,0.03125 -0.109375,0.0625 -0.140625,0.234375 -0.375,0.609375 -1.578125,0.609375 -0.609375,0 -1.453125,-0.15625 -1.453125,-0.859375 0,-0.34375 0.28125,-0.875 0.890625,-1.171875 z m 0.328125,-0.125 c 0.234375,-0.078125 0.4375,-0.09375 0.609375,-0.09375 0.25,0 0.28125,0.015625 0.46875,0.0625 -0.15625,0.0625 -0.171875,0.078125 -0.546875,0.078125 -0.21875,0 -0.34375,0 -0.53125,-0.046875 z m 0,0"
               id="path426" />
          </g>
          <g
             id="g3770">
            <path
               d="m 2.1875,-4.625 c 0,-0.015625 0.015625,-0.109375 0.015625,-0.109375 0,-0.046875 -0.015625,-0.109375 -0.109375,-0.109375 -0.140625,0 -0.71875,0.0625 -0.890625,0.078125 -0.046875,0 -0.15625,0.015625 -0.15625,0.15625 0,0.09375 0.109375,0.09375 0.1875,0.09375 0.328125,0 0.328125,0.0625 0.328125,0.109375 0,0.046875 -0.015625,0.09375 -0.015625,0.15625 L 0.5625,-0.3125 c -0.046875,0.125 -0.046875,0.140625 -0.046875,0.15625 0,0.109375 0.09375,0.21875 0.25,0.21875 0.1875,0 0.265625,-0.125 0.3125,-0.28125 0.015625,-0.03125 0.3125,-1.265625 0.34375,-1.359375 0.5,0.046875 0.890625,0.21875 0.890625,0.578125 0,0.03125 0,0.0625 -0.015625,0.140625 -0.03125,0.09375 -0.03125,0.140625 -0.03125,0.21875 0,0.484375 0.40625,0.703125 0.75,0.703125 0.671875,0 0.875,-1.046875 0.875,-1.0625 0,-0.09375 -0.078125,-0.09375 -0.109375,-0.09375 -0.09375,0 -0.109375,0.046875 -0.140625,0.171875 C 3.5625,-0.625 3.375,-0.125 3.03125,-0.125 c -0.1875,0 -0.25,-0.171875 -0.25,-0.359375 0,-0.125 0,-0.140625 0.046875,-0.3125 0.015625,-0.03125 0.03125,-0.140625 0.03125,-0.21875 0,-0.625 -0.828125,-0.71875 -1.125,-0.734375 C 1.9375,-1.875 2.1875,-2.109375 2.3125,-2.21875 2.671875,-2.546875 3.015625,-2.875 3.40625,-2.875 c 0.078125,0 0.171875,0.015625 0.234375,0.09375 C 3.34375,-2.734375 3.28125,-2.5 3.28125,-2.390625 c 0,0.140625 0.109375,0.25 0.265625,0.25 0.203125,0 0.40625,-0.15625 0.40625,-0.4375 0,-0.234375 -0.171875,-0.5 -0.53125,-0.5 -0.40625,0 -0.765625,0.296875 -1.125,0.625 C 2,-2.1875 1.78125,-1.96875 1.484375,-1.84375 Z m 0,0"
               id="path2703" />
          </g>
        </g>
      </defs>
      <g
         fill="#000000"
         fill-opacity="1"
         id="g7651"
         transform="translate(-148.978,-130.249)"
         style="fill:#404040;fill-opacity:1;stroke:#404040;stroke-width:0.446667;stroke-dasharray:none;stroke-opacity:1">
        <g
           transform="translate(148.712,134.765)"
           id="g804"
           style="fill:#404040;fill-opacity:1;stroke:#404040;stroke-width:0.446667;stroke-dasharray:none;stroke-opacity:1">
          <path
             d="M 1.40625,-2.265625 C 1.734375,-2.125 2.03125,-2.125 2.265625,-2.125 c 0.25,0 0.8125,0 0.8125,-0.3125 0,-0.234375 -0.359375,-0.265625 -0.734375,-0.265625 -0.203125,0 -0.5625,0.015625 -0.921875,0.1875 C 1.1875,-2.625 1.015625,-2.828125 1.015625,-3.09375 c 0,-0.609375 0.984375,-0.96875 1.875,-0.96875 0.15625,0 0.515625,0 0.921875,0.28125 0.109375,0.078125 0.125,0.109375 0.1875,0.109375 0.140625,0 0.28125,-0.140625 0.28125,-0.28125 0,-0.1875 -0.609375,-0.5625 -1.296875,-0.5625 -1.140625,0 -2.21875,0.671875 -2.21875,1.421875 0,0.4375 0.359375,0.6875 0.40625,0.71875 -0.59375,0.328125 -0.90625,0.875 -0.90625,1.34375 0,0.640625 0.5625,1.25 1.625,1.25 1.3125,0 1.875,-0.875 1.875,-1.03125 0,-0.0625 -0.0625,-0.09375 -0.109375,-0.09375 -0.0625,0 -0.09375,0.03125 -0.109375,0.0625 -0.140625,0.234375 -0.375,0.609375 -1.578125,0.609375 -0.609375,0 -1.453125,-0.15625 -1.453125,-0.859375 0,-0.34375 0.28125,-0.875 0.890625,-1.171875 z m 0.328125,-0.125 c 0.234375,-0.078125 0.4375,-0.09375 0.609375,-0.09375 0.25,0 0.28125,0.015625 0.46875,0.0625 -0.15625,0.0625 -0.171875,0.078125 -0.546875,0.078125 -0.21875,0 -0.34375,0 -0.53125,-0.046875 z m 0,0"
             id="path9573"
             style="fill:#404040;fill-opacity:1;stroke:#404040;stroke-width:0.446667;stroke-dasharray:none;stroke-opacity:1" />
        </g>
      </g>
      <g
         fill="#000000"
         fill-opacity="1"
         id="g7666"
         transform="translate(-148.978,-130.249)"
         style="fill:#404040;fill-opacity:1;stroke:#404040;stroke-width:0.446667;stroke-dasharray:none;stroke-opacity:1">
        <g
           transform="translate(153.358,136.259)"
           id="g1758"
           style="fill:#404040;fill-opacity:1;stroke:#404040;stroke-width:0.446667;stroke-dasharray:none;stroke-opacity:1">
          <path
             d="m 2.1875,-4.625 c 0,-0.015625 0.015625,-0.109375 0.015625,-0.109375 0,-0.046875 -0.015625,-0.109375 -0.109375,-0.109375 -0.140625,0 -0.71875,0.0625 -0.890625,0.078125 -0.046875,0 -0.15625,0.015625 -0.15625,0.15625 0,0.09375 0.109375,0.09375 0.1875,0.09375 0.328125,0 0.328125,0.0625 0.328125,0.109375 0,0.046875 -0.015625,0.09375 -0.015625,0.15625 L 0.5625,-0.3125 c -0.046875,0.125 -0.046875,0.140625 -0.046875,0.15625 0,0.109375 0.09375,0.21875 0.25,0.21875 0.1875,0 0.265625,-0.125 0.3125,-0.28125 0.015625,-0.03125 0.3125,-1.265625 0.34375,-1.359375 0.5,0.046875 0.890625,0.21875 0.890625,0.578125 0,0.03125 0,0.0625 -0.015625,0.140625 -0.03125,0.09375 -0.03125,0.140625 -0.03125,0.21875 0,0.484375 0.40625,0.703125 0.75,0.703125 0.671875,0 0.875,-1.046875 0.875,-1.0625 0,-0.09375 -0.078125,-0.09375 -0.109375,-0.09375 -0.09375,0 -0.109375,0.046875 -0.140625,0.171875 C 3.5625,-0.625 3.375,-0.125 3.03125,-0.125 c -0.1875,0 -0.25,-0.171875 -0.25,-0.359375 0,-0.125 0,-0.140625 0.046875,-0.3125 0.015625,-0.03125 0.03125,-0.140625 0.03125,-0.21875 0,-0.625 -0.828125,-0.71875 -1.125,-0.734375 C 1.9375,-1.875 2.1875,-2.109375 2.3125,-2.21875 2.671875,-2.546875 3.015625,-2.875 3.40625,-2.875 c 0.078125,0 0.171875,0.015625 0.234375,0.09375 C 3.34375,-2.734375 3.28125,-2.5 3.28125,-2.390625 c 0,0.140625 0.109375,0.25 0.265625,0.25 0.203125,0 0.40625,-0.15625 0.40625,-0.4375 0,-0.234375 -0.171875,-0.5 -0.53125,-0.5 -0.40625,0 -0.765625,0.296875 -1.125,0.625 C 2,-2.1875 1.78125,-1.96875 1.484375,-1.84375 Z m 0,0"
             id="path1356"
             style="fill:#404040;fill-opacity:1;stroke:#404040;stroke-width:0.446667;stroke-dasharray:none;stroke-opacity:1" />
        </g>
      </g>
    </g>
    <text
       xml:space="preserve"
       transform="matrix(0.26458333,0,0,0.26458333,27.6317,55.4097)"
       id="text38"
       style="font-style:normal;font-variant:normal;font-weight:normal;font-stretch:normal;font-size:40px;line-height:0.9;font-family:Bitter;-inkscape-font-specification:'Bitter, Normal';font-variant-ligatures:normal;font-variant-caps:normal;font-variant-numeric:normal;font-variant-east-asian:normal;text-align:center;text-decoration-color:#000000;letter-spacing:0.1px;writing-mode:lr-tb;direction:ltr;white-space:pre;shape-inside:url(#rect38);display:inline;fill:#404040;fill-opacity:1;stroke:#404040;stroke-width:1.51181;stroke-dasharray:none;stroke-dashoffset:0;stroke-opacity:1;paint-order:markers stroke fill"><tspan
         x="17.099609"
         y="256.5793"
         id="tspan10"><tspan
           dx="0 13.399963 39.199982 24.599993 25.999983 18.600004 13.399969 15.800009"
           id="tspan9">impurity</tspan></tspan></text>
    <text
       xml:space="preserve"
       transform="matrix(0.11241594,0,0,0.11241594,20.339211,61.743183)"
       id="text39"
       style="font-style:normal;font-variant:normal;font-weight:normal;font-stretch:normal;font-size:40px;line-height:0.9;font-family:Bitter;-inkscape-font-specification:'Bitter, Normal';font-variant-ligatures:normal;font-variant-caps:normal;font-variant-numeric:normal;font-variant-east-asian:normal;text-align:center;text-decoration-color:#000000;letter-spacing:0.1px;writing-mode:lr-tb;direction:ltr;white-space:pre;shape-inside:url(#rect39);display:inline;fill:#404040;fill-opacity:1;stroke:#404040;stroke-width:1.51181;stroke-dasharray:none;stroke-dashoffset:0;stroke-opacity:1;paint-order:markers stroke fill"><tspan
         x="63.460638"
         y="275.53437"
         id="tspan11">impurity</tspan></text>
  </g>
</svg>
