<?xml version="1.0" encoding="UTF-8" standalone="no"?>
<!-- Created with Inkscape (http://www.inkscape.org/) -->

<svg
   width="261.62003mm"
   height="160.02mm"
   viewBox="0 0 261.62003 160.02"
   version="1.1"
   id="svg1"
   xml:space="preserve"
   xmlns:inkscape="http://www.inkscape.org/namespaces/inkscape"
   xmlns:sodipodi="http://sodipodi.sourceforge.net/DTD/sodipodi-0.dtd"
   xmlns="http://www.w3.org/2000/svg"
   xmlns:svg="http://www.w3.org/2000/svg"
   xmlns:ns2="http://wanglongqi.github.io/WriteTeX"><sodipodi:namedview
     id="namedview1"
     pagecolor="#ffffff"
     bordercolor="#000000"
     borderopacity="0.25"
     inkscape:showpageshadow="2"
     inkscape:pageopacity="0.0"
     inkscape:pagecheckerboard="0"
     inkscape:deskcolor="#d1d1d1"
     inkscape:document-units="mm"
     inkscape:zoom="0.37098173"
     inkscape:cx="2669.9428"
     inkscape:cy="562.02229"
     inkscape:window-width="1920"
     inkscape:window-height="1123"
     inkscape:window-x="0"
     inkscape:window-y="0"
     inkscape:window-maximized="1"
     inkscape:current-layer="g1"><inkscape:page
       x="0"
       y="0"
       width="261.62003"
       height="160.02"
       id="page3"
       margin="0"
       bleed="0" /></sodipodi:namedview><defs
     id="defs1" /><g
     id="g1"
     inkscape:groupmode="layer"
     inkscape:label="1"
     transform="matrix(0.26458333,0,0,0.26458334,-656.16668,-4.0005001e-6)"><path
       id="path368"
       d="m 2480,604.8 h 988.8 V 1.512e-5 H 2480 Z"
       style="fill:#ffffff;fill-opacity:1;fill-rule:nonzero;stroke:none;stroke-width:1.33333"
       inkscape:export-filename="esiamSpecFunc3.svg"
       inkscape:export-xdpi="96"
       inkscape:export-ydpi="96" /><path
       id="path369"
       d="M 2599.3955,502.59775 H 3459.2 V 9.6000149 h -859.8045 z"
       style="fill:#ffffff;fill-opacity:1;fill-rule:nonzero;stroke:none;stroke-width:1.33333" /><path
       id="path370"
       d="m 2789.3166,502.59775 v 4.66667"
       style="fill:#555555;fill-opacity:1;fill-rule:nonzero;stroke:#555555;stroke-width:1.06667;stroke-linecap:butt;stroke-linejoin:round;stroke-miterlimit:10;stroke-dasharray:none;stroke-opacity:1" /><g
       id="g372"
       aria-label="−10"
       transform="matrix(1.3333333,0,0,1.3333333,2755.5429,539.60507)"><path
         id="path371"
         d="m 19.687526,-6.8786105 c 0.515625,0 1.054687,0 1.054687,-0.5976562 0,-0.5976563 -0.539062,-0.5976563 -1.054687,-0.5976563 H 3.5273695 c -0.5039063,0 -1.0429688,0 -1.0429688,0.5976563 0,0.5976562 0.5390625,0.5976562 1.0429688,0.5976562 z m 0,0"
         style="fill:#555555;fill-opacity:1;fill-rule:nonzero;stroke:none" /><path
         id="path372"
         d="m 31.192409,-19.089548 c 0,-0.632812 -0.02344,-0.667969 -0.445313,-0.667969 -1.160156,1.40625 -2.929687,1.863282 -4.605469,1.921875 -0.08203,0 -0.234375,0 -0.269531,0.05859 -0.02344,0.05859 -0.02344,0.117188 -0.02344,0.738281 0.925781,0 2.484375,-0.175781 3.679687,-0.890625 v 15.7500003 c 0,1.0429687 -0.07031,1.40624997 -2.636719,1.40624997 H 26.001002 V 2.957659e-4 C 27.43069,-0.03486048 28.93069,-0.05829798 30.360377,-0.05829798 c 1.429688,0 2.929688,0.0234375 4.359375,0.0585937459 V -0.77314173 h -0.890625 c -2.578125,0 -2.636718,-0.32812497 -2.636718,-1.40624997 z m 18.292968,9.4921875 c 0,-1.8164065 -0.03516,-4.9218745 -1.289062,-7.3124995 -1.101563,-2.097657 -2.859375,-2.847657 -4.417969,-2.847657 -1.429687,0 -3.257812,0.667969 -4.394531,2.8125 -1.195313,2.238282 -1.3125,5.027344 -1.3125,7.3476565 0,1.7109375 0.02344,4.3125 0.960937,6.5742188 1.277344,3.08203122 3.585938,3.50390622 4.746094,3.50390622 1.371094,0 3.46875,-0.57421875 4.6875,-3.41015622 0.902344,-2.0625 1.019531,-4.4765625 1.019531,-6.6679688 z M 43.778346,2.957659e-4 c -1.910156,0 -3.046875,-1.6406249659 -3.46875,-3.9140624659 -0.328125,-1.7695313 -0.328125,-4.3359375 -0.328125,-6.0117188 0,-2.2968745 0,-4.2070315 0.386719,-6.0351565 0.574219,-2.53125 2.25,-3.316406 3.410156,-3.316406 1.230469,0 2.8125,0.808594 3.375,3.257813 0.386719,1.710937 0.421875,3.703125 0.421875,6.0937495 0,1.9453125 0,4.3359375 -0.363281,6.1054688 -0.621094,3.25781247 -2.390625,3.8203124659 -3.433594,3.8203124659 z m 0,0"
         style="fill:#555555;fill-opacity:1;fill-rule:nonzero;stroke:none" /></g><path
       id="path373"
       d="m 3029.2978,502.59775 v 4.66667"
       style="fill:#555555;fill-opacity:1;fill-rule:nonzero;stroke:#555555;stroke-width:1.06667;stroke-linecap:butt;stroke-linejoin:round;stroke-miterlimit:10;stroke-dasharray:none;stroke-opacity:1" /><path
       id="path374"
       d="m 3036.8945,526.80859 c 0,-2.42188 -0.047,-6.5625 -1.7187,-9.75 -1.4688,-2.79688 -3.8125,-3.79688 -5.8906,-3.79688 -1.9063,0 -4.3438,0.89063 -5.8594,3.75 -1.5938,2.98438 -1.75,6.70313 -1.75,9.79688 0,2.28125 0.031,5.75 1.2812,8.76562 1.7032,4.10938 4.7813,4.67188 6.3282,4.67188 1.8281,0 4.625,-0.76563 6.25,-4.54688 1.2031,-2.75 1.3593,-5.96875 1.3593,-8.89062 z m -7.6093,12.79687 c -2.5469,0 -4.0625,-2.1875 -4.625,-5.21875 -0.4375,-2.35937 -0.4375,-5.78125 -0.4375,-8.01562 0,-3.0625 0,-5.60938 0.5156,-8.04688 0.7656,-3.375 3,-4.42187 4.5469,-4.42187 1.6406,0 3.75,1.07813 4.5,4.34375 0.5156,2.28125 0.5625,4.9375 0.5625,8.125 0,2.59375 0,5.78125 -0.4844,8.14062 -0.8281,4.34375 -3.1875,5.09375 -4.5781,5.09375 z m 0,0"
       style="fill:#555555;fill-opacity:1;fill-rule:nonzero;stroke:none;stroke-width:1.33333"
       aria-label="0" /><path
       id="path375"
       d="m 3269.2789,502.59775 v 4.66667"
       style="fill:#555555;fill-opacity:1;fill-rule:nonzero;stroke:#555555;stroke-width:1.06667;stroke-linecap:butt;stroke-linejoin:round;stroke-miterlimit:10;stroke-dasharray:none;stroke-opacity:1" /><path
       id="path376"
       d="m 3261.5977,514.15234 c 0,-0.84375 -0.031,-0.89063 -0.5938,-0.89063 -1.5469,1.875 -3.9062,2.48438 -6.1406,2.5625 -0.1094,0 -0.3125,0 -0.3594,0.0781 -0.031,0.0781 -0.031,0.15626 -0.031,0.98438 1.2344,0 3.3125,-0.23438 4.9063,-1.1875 v 21 c 0,1.39062 -0.094,1.875 -3.5157,1.875 h -1.1875 v 1.03125 c 1.9063,-0.0469 3.9063,-0.0781 5.8125,-0.0781 1.9063,0 3.9063,0.0312 5.8125,0.0781 v -1.03125 h -1.1875 c -3.4375,0 -3.5156,-0.4375 -3.5156,-1.875 z m 24.3906,12.65625 c 0,-2.42188 -0.047,-6.5625 -1.7188,-9.75 -1.4687,-2.79688 -3.8125,-3.79688 -5.8906,-3.79688 -1.9062,0 -4.3437,0.89063 -5.8594,3.75 -1.5937,2.98438 -1.75,6.70313 -1.75,9.79688 0,2.28125 0.031,5.75 1.2813,8.76562 1.7031,4.10938 4.7812,4.67188 6.3281,4.67188 1.8281,0 4.625,-0.76563 6.25,-4.54688 1.2031,-2.75 1.3594,-5.96875 1.3594,-8.89062 z m -7.6094,12.79687 c -2.5469,0 -4.0625,-2.1875 -4.625,-5.21875 -0.4375,-2.35937 -0.4375,-5.78125 -0.4375,-8.01562 0,-3.0625 0,-5.60938 0.5156,-8.04688 0.7657,-3.375 3,-4.42187 4.5469,-4.42187 1.6406,0 3.75,1.07813 4.5,4.34375 0.5156,2.28125 0.5625,4.9375 0.5625,8.125 0,2.59375 0,5.78125 -0.4844,8.14062 -0.8281,4.34375 -3.1875,5.09375 -4.5781,5.09375 z m 0,0"
       style="fill:#555555;fill-opacity:1;fill-rule:nonzero;stroke:none;stroke-width:1.33333"
       aria-label="10" /><path
       id="path377"
       d="m 3043.125,567.91407 c 0,-1.39063 -0.375,-3.15625 -2.0469,-3.15625 -0.9687,0 -2.0625,1.20312 -2.0625,2.15625 0,0.42187 0.1875,0.71875 0.5782,1.14062 0.7187,0.8125 1.625,2.10938 1.625,4.35938 0,1.71875 -1.0625,4.4375 -1.8282,5.92187 -1.3281,2.64063 -3.5312,4.89063 -6.0156,4.89063 -3.0156,0 -4.1719,-1.92188 -4.6875,-4.59375 0.5156,-1.25 1.625,-4.35938 1.625,-5.59375 0,-0.53125 -0.1875,-0.96875 -0.8125,-0.96875 -0.3437,0 -0.7187,0.20312 -0.9531,0.57812 -0.6719,1.04688 -1.2969,4.82813 -1.25,5.84375 -0.9063,1.76563 -3.4844,4.73438 -6.5469,4.73438 -3.2031,0 -4.0625,-2.82813 -4.0625,-5.54688 0,-4.98437 3.0938,-9.32812 3.9688,-10.53125 0.4687,-0.71875 0.8125,-1.1875 0.8125,-1.29687 0,-0.32813 -0.2032,-0.85938 -0.625,-0.85938 -0.7657,0 -1,0.625 -1.3907,1.20313 -2.4375,3.78125 -4.1562,9.07812 -4.1562,13.67187 0,2.96875 1.0937,6.51563 4.6875,6.51563 3.9687,0 6.4531,-3.40625 7.4531,-5.21875 0.3906,2.67187 1.8281,5.21875 5.3125,5.21875 3.6406,0 5.9375,-3.20313 7.6563,-7.07813 1.2343,-2.78125 2.7187,-8.76562 2.7187,-11.39062 z m 0,0"
       style="fill:#555555;fill-opacity:1;fill-rule:nonzero;stroke:none;stroke-width:1.33333"
       aria-label="ω" /><path
       id="path378"
       d="m 2599.3955,480.18876 h -4.6666"
       style="fill:#555555;fill-opacity:1;fill-rule:nonzero;stroke:#555555;stroke-width:1.06667;stroke-linecap:butt;stroke-linejoin:round;stroke-miterlimit:10;stroke-dasharray:none;stroke-opacity:1" /><g
       id="g381"
       aria-label="0.0"
       transform="matrix(1.3333333,0,0,1.3333333,2542.6709,494.02576)"><path
         id="path379"
         d="m 12.55148,-9.5964653 c 0,-1.8164067 -0.03516,-4.9218747 -1.289062,-7.3124997 -1.101563,-2.097657 -2.8593755,-2.847657 -4.4179692,-2.847657 -1.4296875,0 -3.2578125,0.667969 -4.3945313,2.8125 -1.1953125,2.238282 -1.3125,5.027344 -1.3125,7.3476567 0,1.7109375 0.023437,4.3125 0.9609375,6.5742188 1.2773438,3.08203123 3.5859375,3.50390623 4.7460938,3.50390623 1.3710937,0 3.4687502,-0.57421875 4.6875002,-3.41015623 0.902344,-2.0625 1.019531,-4.4765625 1.019531,-6.6679688 z M 6.8444488,0.00119098 c -1.9101563,0 -3.046875,-1.64062498 -3.46875,-3.91406248 -0.328125,-1.7695313 -0.328125,-4.3359375 -0.328125,-6.0117188 0,-2.2968747 0,-4.2070317 0.3867187,-6.0351567 0.5742188,-2.53125 2.25,-3.316406 3.4101563,-3.316406 1.2304687,0 2.8125,0.808594 3.3750002,3.257813 0.386719,1.710937 0.421875,3.703125 0.421875,6.0937497 0,1.9453125 0,4.3359375 -0.363281,6.1054688 -0.6210942,3.25781248 -2.3906255,3.82031248 -3.4335942,3.82031248 z m 0,0"
         style="fill:#555555;fill-opacity:1;fill-rule:nonzero;stroke:none" /><path
         id="path380"
         d="m 19.201871,-1.4284965 c 0,-0.8671875 -0.714844,-1.4648438 -1.429688,-1.4648438 -0.867187,0 -1.464844,0.7148438 -1.464844,1.4296875 0,0.86718753 0.714844,1.46484378 1.429688,1.46484378 0.867187,0 1.464844,-0.71484375 1.464844,-1.42968748 z m 0,0"
         style="fill:#555555;fill-opacity:1;fill-rule:nonzero;stroke:none" /><path
         id="path381"
         d="m 34.386441,-9.5964653 c 0,-1.8164067 -0.03516,-4.9218747 -1.289063,-7.3124997 -1.101562,-2.097657 -2.859375,-2.847657 -4.417968,-2.847657 -1.429688,0 -3.257813,0.667969 -4.394532,2.8125 -1.195312,2.238282 -1.3125,5.027344 -1.3125,7.3476567 0,1.7109375 0.02344,4.3125 0.960938,6.5742188 1.277344,3.08203123 3.585937,3.50390623 4.746094,3.50390623 1.371093,0 3.46875,-0.57421875 4.6875,-3.41015623 0.902343,-2.0625 1.019531,-4.4765625 1.019531,-6.6679688 z M 28.67941,0.00119098 c -1.910157,0 -3.046875,-1.64062498 -3.46875,-3.91406248 -0.328125,-1.7695313 -0.328125,-4.3359375 -0.328125,-6.0117188 0,-2.2968747 0,-4.2070317 0.386718,-6.0351567 0.574219,-2.53125 2.25,-3.316406 3.410157,-3.316406 1.230468,0 2.8125,0.808594 3.375,3.257813 0.386718,1.710937 0.421875,3.703125 0.421875,6.0937497 0,1.9453125 0,4.3359375 -0.363282,6.1054688 -0.621093,3.25781248 -2.390625,3.82031248 -3.433593,3.82031248 z m 0,0"
         style="fill:#555555;fill-opacity:1;fill-rule:nonzero;stroke:none" /></g><path
       id="path382"
       d="m 2599.3955,388.90418 h -4.6666"
       style="fill:#555555;fill-opacity:1;fill-rule:nonzero;stroke:#555555;stroke-width:1.06667;stroke-linecap:butt;stroke-linejoin:round;stroke-miterlimit:10;stroke-dasharray:none;stroke-opacity:1" /><g
       id="g385"
       aria-label="0.1"
       transform="matrix(1.3333333,0,0,1.3333333,2542.6709,402.74117)"><path
         id="path383"
         d="m 12.55148,-9.5968903 c 0,-1.8164067 -0.03516,-4.9218747 -1.289062,-7.3124997 -1.101563,-2.097657 -2.8593755,-2.847657 -4.4179692,-2.847657 -1.4296875,0 -3.2578125,0.667969 -4.3945313,2.8125 -1.1953125,2.238282 -1.3125,5.027344 -1.3125,7.3476567 0,1.7109375 0.023437,4.3125 0.9609375,6.5742188 1.2773438,3.08203124 3.5859375,3.50390624 4.7460938,3.50390624 1.3710937,0 3.4687502,-0.57421875 4.6875002,-3.41015624 0.902344,-2.0625 1.019531,-4.4765625 1.019531,-6.6679688 z M 6.8444488,7.659924e-4 c -1.9101563,0 -3.046875,-1.6406249924 -3.46875,-3.9140624924 -0.328125,-1.7695313 -0.328125,-4.3359375 -0.328125,-6.0117188 0,-2.2968747 0,-4.2070317 0.3867187,-6.0351567 0.5742188,-2.53125 2.25,-3.316406 3.4101563,-3.316406 1.2304687,0 2.8125,0.808594 3.3750002,3.257813 0.386719,1.710937 0.421875,3.703125 0.421875,6.0937497 0,1.9453125 0,4.3359375 -0.363281,6.1054688 C 9.6569488,-0.56173401 7.8874175,7.659924e-4 6.8444488,7.659924e-4 Z m 0,0"
         style="fill:#555555;fill-opacity:1;fill-rule:nonzero;stroke:none" /><path
         id="path384"
         d="m 19.201871,-1.4289215 c 0,-0.8671875 -0.714844,-1.4648438 -1.429688,-1.4648438 -0.867187,0 -1.464844,0.7148438 -1.464844,1.4296875 0,0.86718754 0.714844,1.4648437924 1.429688,1.4648437924 0.867187,0 1.464844,-0.7148437524 1.464844,-1.4296874924 z m 0,0"
         style="fill:#555555;fill-opacity:1;fill-rule:nonzero;stroke:none" /><path
         id="path385"
         d="m 29.780972,-19.089078 c 0,-0.632812 -0.02344,-0.667969 -0.445312,-0.667969 -1.160157,1.40625 -2.929688,1.863282 -4.605469,1.921875 -0.08203,0 -0.234375,0 -0.269531,0.05859 -0.02344,0.05859 -0.02344,0.117188 -0.02344,0.738281 0.925781,0 2.484375,-0.175781 3.679688,-0.890625 v 15.7500005 c 0,1.0429687 -0.07031,1.40624999 -2.636719,1.40624999 H 24.589566 V 7.659924e-4 C 26.019253,-0.03439026 27.519253,-0.05782776 28.948941,-0.05782776 c 1.429687,0 2.929687,0.0234375 4.359375,0.0585937524 V -0.77267151 h -0.890625 c -2.578125,0 -2.636719,-0.32812499 -2.636719,-1.40624999 z m 0,0"
         style="fill:#555555;fill-opacity:1;fill-rule:nonzero;stroke:none" /></g><g
       id="g388"
       aria-label="0.2"
       transform="matrix(1.3333333,0,0,1.3333333,2542.6709,311.45658)"><path
         id="path386"
         d="m 12.55148,-9.5973152 c 0,-1.8164058 -0.03516,-4.9218748 -1.289062,-7.3124998 -1.101563,-2.097656 -2.8593755,-2.847656 -4.4179692,-2.847656 -1.4296875,0 -3.2578125,0.667968 -4.3945313,2.8125 -1.1953125,2.238281 -1.3125,5.027343 -1.3125,7.3476558 0,1.7109375 0.023437,4.3125 0.9609375,6.5742187 1.2773438,3.08203126 3.5859375,3.50390626 4.7460938,3.50390626 1.3710937,0 3.4687502,-0.57421875 4.6875002,-3.41015626 0.902344,-2.0625 1.019531,-4.4765625 1.019531,-6.6679687 z M 6.8444488,3.410053e-4 c -1.9101563,0 -3.046875,-1.6406250053 -3.46875,-3.9140625053 -0.328125,-1.7695312 -0.328125,-4.3359375 -0.328125,-6.0117187 0,-2.2968748 0,-4.2070308 0.3867187,-6.0351558 0.5742188,-2.53125 2.25,-3.316407 3.4101563,-3.316407 1.2304687,0 2.8125,0.808594 3.3750002,3.257813 0.386719,1.710937 0.421875,3.703125 0.421875,6.0937498 0,1.9453125 0,4.3359375 -0.363281,6.1054687 C 9.6569488,-0.56215899 7.8874175,3.410053e-4 6.8444488,3.410053e-4 Z m 0,0"
         style="fill:#555555;fill-opacity:1;fill-rule:nonzero;stroke:none" /><path
         id="path387"
         d="m 19.201871,-1.4293465 c 0,-0.8671875 -0.714844,-1.4648437 -1.429688,-1.4648437 -0.867187,0 -1.464844,0.7148437 -1.464844,1.4296875 0,0.86718746 0.714844,1.4648437053 1.429688,1.4648437053 0.867187,0 1.464844,-0.7148437453 1.464844,-1.4296875053 z m 0,0"
         style="fill:#555555;fill-opacity:1;fill-rule:nonzero;stroke:none" /><path
         id="path388"
         d="m 34.292691,-4.6285652 h -0.539063 c -0.292968,2.1210937 -0.527343,2.4726562 -0.65625,2.6601562 -0.140625,0.234375 -2.296875,0.234375 -2.71875,0.234375 H 24.64816 c 1.078125,-1.1601562 3.164062,-3.28125 5.707031,-5.7421875 1.816406,-1.7226562 3.9375,-3.7617185 3.9375,-6.7148435 0,-3.527344 -2.800781,-5.566406 -5.941406,-5.566406 -3.292969,0 -5.285157,2.90625 -5.285157,5.589843 0,1.171875 0.867188,1.3125 1.21875,1.3125 0.304688,0 1.195313,-0.175781 1.195313,-1.21875 0,-0.925781 -0.773438,-1.195312 -1.195313,-1.195312 -0.175781,0 -0.351562,0.02344 -0.480468,0.09375 0.574218,-2.542969 2.308593,-3.796875 4.125,-3.796875 2.601562,0 4.300781,2.0625 4.300781,4.78125 0,2.601562 -1.523438,4.8398435 -3.222656,6.785156 l -5.941407,6.71484376 V 3.410053e-4 h 10.511719 z m 0,0"
         style="fill:#555555;fill-opacity:1;fill-rule:nonzero;stroke:none" /></g><g
       id="g391"
       aria-label="0.3"
       transform="matrix(1.3333333,0,0,1.3333333,2542.6709,220.17199)"><path
         id="path389"
         d="m 12.55148,-9.5977402 c 0,-1.8164058 -0.03516,-4.9218748 -1.289062,-7.3124998 -1.101563,-2.097656 -2.8593755,-2.847656 -4.4179692,-2.847656 -1.4296875,0 -3.2578125,0.667968 -4.3945313,2.8125 -1.1953125,2.238281 -1.3125,5.027343 -1.3125,7.3476558 0,1.7109375 0.023437,4.3125 0.9609375,6.5742187 1.2773438,3.08203127 3.5859375,3.50390627 4.7460938,3.50390627 1.3710937,0 3.4687502,-0.57421875 4.6875002,-3.41015627 0.902344,-2.0625 1.019531,-4.4765625 1.019531,-6.6679687 z M 6.8444488,-8.39819e-5 c -1.9101563,0 -3.046875,-1.6406250181 -3.46875,-3.9140625181 -0.328125,-1.7695312 -0.328125,-4.3359375 -0.328125,-6.0117187 0,-2.2968748 0,-4.2070308 0.3867187,-6.0351558 0.5742188,-2.53125 2.25,-3.316407 3.4101563,-3.316407 1.2304687,0 2.8125,0.808594 3.3750002,3.257813 0.386719,1.710937 0.421875,3.703125 0.421875,6.0937498 0,1.9453125 0,4.3359375 -0.363281,6.1054687 C 9.6569488,-0.56258398 7.8874175,-8.39819e-5 6.8444488,-8.39819e-5 Z m 0,0"
         style="fill:#555555;fill-opacity:1;fill-rule:nonzero;stroke:none" /><path
         id="path390"
         d="m 19.201871,-1.4297715 c 0,-0.8671875 -0.714844,-1.4648437 -1.429688,-1.4648437 -0.867187,0 -1.464844,0.7148437 -1.464844,1.4296875 0,0.86718747 0.714844,1.4648437181 1.429688,1.4648437181 0.867187,0 1.464844,-0.7148437481 1.464844,-1.4296875181 z m 0,0"
         style="fill:#555555;fill-opacity:1;fill-rule:nonzero;stroke:none" /><path
         id="path391"
         d="m 28.445035,-10.16024 c 2.660156,0 3.820312,2.2968748 3.820312,4.957031 0,3.5859375 -1.910156,4.96875002 -3.644531,4.96875002 -1.582031,0 -4.160156,-0.78515622 -4.957031,-3.08203122 0.140625,0.058594 0.292968,0.058594 0.445312,0.058594 0.714844,0 1.253906,-0.4804687 1.253906,-1.2539062 0,-0.8671875 -0.65625,-1.2539063 -1.253906,-1.2539063 -0.515625,0 -1.289062,0.234375 -1.289062,1.3476563 0,2.7421875 2.695312,4.89843747 5.859375,4.89843747 3.316406,0 5.859375,-2.60156247 5.859375,-5.64843747 0,-2.90625 -2.390625,-4.9921876 -5.226563,-5.3203126 2.261719,-0.480469 4.441406,-2.507813 4.441406,-5.226563 0,-2.332031 -2.355468,-4.042968 -5.039062,-4.042968 -2.730469,0 -5.121094,1.675781 -5.121094,4.066406 0,1.042969 0.785156,1.230469 1.171875,1.230469 0.621094,0 1.160156,-0.386719 1.160156,-1.171875 0,-0.773438 -0.539062,-1.160157 -1.160156,-1.160157 -0.117187,0 -0.269531,0 -0.386719,0.05859 0.867188,-1.96875 3.222657,-2.332031 4.265625,-2.332031 1.054688,0 3.023438,0.503906 3.023438,3.375 0,0.84375 -0.117188,2.332031 -1.136719,3.644531 -0.890625,1.171875 -1.910156,1.230469 -2.894531,1.324219 -0.152344,0 -0.84375,0.05859 -0.960938,0.05859 -0.210937,0.02344 -0.328125,0.05859 -0.328125,0.269531 0,0.199219 0.03516,0.234375 0.632813,0.234375 z m 0,0"
         style="fill:#555555;fill-opacity:1;fill-rule:nonzero;stroke:none" /></g><g
       id="g394"
       aria-label="0.4"
       transform="matrix(1.3333333,0,0,1.3333333,2542.6709,128.8874)"><path
         id="path392"
         d="m 12.55148,-9.5981652 c 0,-1.8164058 -0.03516,-4.9218748 -1.289062,-7.3124998 -1.101563,-2.097656 -2.8593755,-2.847656 -4.4179692,-2.847656 -1.4296875,0 -3.2578125,0.667968 -4.3945313,2.8125 -1.1953125,2.238281 -1.3125,5.027343 -1.3125,7.3476558 0,1.7109375 0.023437,4.3125 0.9609375,6.5742187 1.2773438,3.08203128 3.5859375,3.50390628 4.7460938,3.50390628 1.3710937,0 3.4687502,-0.57421875 4.6875002,-3.41015628 0.902344,-2.0625 1.019531,-4.4765625 1.019531,-6.6679687 z M 6.8444488,-5.08969e-4 c -1.9101563,0 -3.046875,-1.640625031 -3.46875,-3.914062531 -0.328125,-1.7695312 -0.328125,-4.3359375 -0.328125,-6.0117187 0,-2.2968748 0,-4.2070308 0.3867187,-6.0351558 0.5742188,-2.53125 2.25,-3.316407 3.4101563,-3.316407 1.2304687,0 2.8125,0.808594 3.3750002,3.257813 0.386719,1.710937 0.421875,3.703125 0.421875,6.0937498 0,1.9453125 0,4.3359375 -0.363281,6.1054687 -0.6210942,3.25781253 -2.3906255,3.820312531 -3.4335942,3.820312531 z m 0,0"
         style="fill:#555555;fill-opacity:1;fill-rule:nonzero;stroke:none" /><path
         id="path393"
         d="m 19.201871,-1.4301965 c 0,-0.8671875 -0.714844,-1.4648437 -1.429688,-1.4648437 -0.867187,0 -1.464844,0.7148437 -1.464844,1.4296875 0,0.86718748 0.714844,1.464843731 1.429688,1.464843731 0.867187,0 1.464844,-0.714843751 1.464844,-1.429687531 z m 0,0"
         style="fill:#555555;fill-opacity:1;fill-rule:nonzero;stroke:none" /><path
         id="path394"
         d="m 31.878628,-19.336446 c 0,-0.621094 -0.03516,-0.65625 -0.574218,-0.65625 l -8.871094,14.132812 v 0.7734375 h 7.710937 v 2.9296875 c 0,1.078125 -0.05859,1.38281253 -2.15625,1.38281253 h -0.5625 v 0.773437501 c 0.949219,-0.058593751 2.566407,-0.058593751 3.585938,-0.058593751 1.019531,0 2.625,0 3.585937,0.058593751 V -0.77394647 H 34.02316 c -2.085938,0 -2.144532,-0.30468753 -2.144532,-1.38281253 v -2.9296875 h 3.046875 V -5.859884 h -3.046875 z m -1.640625,1.96875 v 11.507812 h -7.207031 z m 0,0"
         style="fill:#555555;fill-opacity:1;fill-rule:nonzero;stroke:none" /></g><g
       id="g397"
       aria-label="0.5"
       transform="matrix(1.3333333,0,0,1.3333333,2542.6709,37.602808)"><path
         id="path395"
         d="m 12.55148,-9.5985902 c 0,-1.8164058 -0.03516,-4.9218748 -1.289062,-7.3124998 -1.101563,-2.097656 -2.8593755,-2.847656 -4.4179692,-2.847656 -1.4296875,0 -3.2578125,0.667968 -4.3945313,2.8125 -1.1953125,2.238281 -1.3125,5.027343 -1.3125,7.3476558 0,1.7109375 0.023437,4.3125 0.9609375,6.5742187 1.2773438,3.08203129 3.5859375,3.50390629 4.7460938,3.50390629 1.3710937,0 3.4687502,-0.57421875 4.6875002,-3.41015629 0.902344,-2.0625 1.019531,-4.4765625 1.019531,-6.6679687 z M 6.8444488,-9.339561e-4 c -1.9101563,0 -3.046875,-1.6406250439 -3.46875,-3.9140625439 -0.328125,-1.7695312 -0.328125,-4.3359375 -0.328125,-6.0117187 0,-2.2968748 0,-4.2070308 0.3867187,-6.0351558 0.5742188,-2.53125 2.25,-3.316407 3.4101563,-3.316407 1.2304687,0 2.8125,0.808594 3.3750002,3.257813 0.386719,1.710937 0.421875,3.703125 0.421875,6.0937498 0,1.9453125 0,4.3359375 -0.363281,6.1054687 -0.6210942,3.25781254 -2.3906255,3.8203125439 -3.4335942,3.8203125439 z m 0,0"
         style="fill:#555555;fill-opacity:1;fill-rule:nonzero;stroke:none" /><path
         id="path396"
         d="m 19.201871,-1.4306215 c 0,-0.8671875 -0.714844,-1.4648437 -1.429688,-1.4648437 -0.867187,0 -1.464844,0.7148437 -1.464844,1.4296875 0,0.86718749 0.714844,1.4648437439 1.429688,1.4648437439 0.867187,0 1.464844,-0.7148437539 1.464844,-1.4296875439 z m 0,0"
         style="fill:#555555;fill-opacity:1;fill-rule:nonzero;stroke:none" /><path
         id="path397"
         d="m 25.245816,-17.485309 c 0.292969,0.117188 1.523437,0.515625 2.777344,0.515625 2.777343,0 4.300781,-1.5 5.167968,-2.367187 0,-0.234375 0,-0.386719 -0.175781,-0.386719 -0.03516,0 -0.09375,0 -0.328125,0.117187 -1.054687,0.445313 -2.273437,0.808594 -3.773437,0.808594 -0.890625,0 -2.238282,-0.117187 -3.703125,-0.773437 -0.328125,-0.152344 -0.386719,-0.152344 -0.421875,-0.152344 -0.140625,0 -0.175782,0.03516 -0.175782,0.632812 v 8.660157 c 0,0.539062 0,0.6914058 0.304688,0.6914058 0.140625,0 0.210937,-0.058594 0.351562,-0.2695308 0.960938,-1.347657 2.273438,-1.910157 3.773438,-1.910157 1.042969,0 3.28125,0.65625 3.28125,5.7656253 0,0.9492187 0,2.6835937 -0.890625,4.0546875 -0.75,1.23046874 -1.921875,1.86328124 -3.199219,1.86328124 -1.980469,0 -3.972656,-1.38281254 -4.511719,-3.67968754 0.117188,0.023437 0.351563,0.09375 0.46875,0.09375 0.398438,0 1.136719,-0.2109375 1.136719,-1.1367187 0,-0.8085938 -0.5625,-1.1367188 -1.136719,-1.1367188 -0.679687,0 -1.125,0.4101563 -1.125,1.2539063 0,2.6015625 2.0625,5.32031249 5.226563,5.32031249 3.070312,0 6,-2.66015629 6,-6.51562499 0,-3.5859375 -2.332031,-6.3632808 -5.226563,-6.3632808 -1.523437,0 -2.8125,0.5625 -3.820312,1.640625 z m 0,0"
         style="fill:#555555;fill-opacity:1;fill-rule:nonzero;stroke:none" /></g><path
       id="path398"
       d="m 2520.1094,297.89454 c 2.8281,1.67187 3.7812,3.29687 3.9219,5.59374 0.047,0.51563 0.047,0.90625 0.9062,0.90625 0.2969,0 0.4844,-0.23437 0.4844,-0.57812 0,-0.85938 -0.094,-3.01563 -0.094,-3.875 0,-1.39063 0.094,-2.90625 0.094,-4.25 0,-0.29687 0,-0.85937 -0.9063,-0.85937 -0.4375,0 -0.4843,0.375 -0.4843,0.67187 -0.094,1.09375 -0.4688,2 -1.625,2 -0.6719,0 -1.1875,-0.28125 -2.25,-0.90625 l -6.0157,-3.64062 v -12.1875 c 0.4219,-0.0469 0.8125,-0.0469 1.2344,-0.0937 1.25,-0.15625 6.2188,-0.71875 7.125,-0.71875 1.4375,0 1.5313,2.4375 1.5313,3.20312 0,0.53125 0,1.04688 0.8593,1.04688 0.5313,0 0.5313,-0.42188 0.5313,-0.71875 0,-0.8125 -0.094,-1.76563 -0.094,-2.57813 v -2.73437 c 0,-2.90625 0.094,-5.01563 0.094,-5.0625 0,-0.32813 0,-0.85938 -0.9063,-0.85938 -0.4843,0 -0.4843,0.42188 -0.4843,1.14063 0,2.64062 -0.4219,2.6875 -1.8594,2.82812 l -29.8438,2.92188 c -0.9531,0.0937 -1.0625,0.28125 -1.0625,0.8125 0,0.46875 0.1094,0.76562 0.8125,1.1875 z m -7.3594,-5.75 -16.0781,-9.60938 16.0781,-1.625 z m 0,0"
       style="fill:#555555;fill-opacity:1;fill-rule:nonzero;stroke:none;stroke-width:1.33333"
       aria-label="A" /><path
       id="path399"
       d="m 2537.0938,256.27734 c -0.047,0 -0.1407,0 -0.2813,0.15625 -2.25,2.1875 -8.375,8.07812 -23.2969,8.07812 -14.9218,0 -21,-5.79687 -23.3906,-8.14062 -0.047,0 -0.1406,-0.0937 -0.2812,-0.0937 -0.1563,0 -0.25,0.15625 -0.25,0.34375 0,0.51563 3.5468,4.59375 8.8125,6.9375 5.2968,2.39063 10.4687,3.0625 15.0625,3.0625 3.4375,0 9.2812,-0.34375 15.4375,-3.21875 4.9843,-2.29687 8.4687,-6.21875 8.4687,-6.78125 0,-0.25 -0.094,-0.34375 -0.2812,-0.34375 z m 0,0"
       style="fill:#555555;fill-opacity:1;fill-rule:nonzero;stroke:none;stroke-width:1.33333"
       aria-label="(" /><path
       id="path400"
       d="m 2507.4375,225.57813 c -1.3906,0 -3.1562,0.375 -3.1562,2.04687 0,0.96875 1.2031,2.0625 2.1562,2.0625 0.4219,0 0.7188,-0.1875 1.1406,-0.57812 0.8125,-0.71875 2.1094,-1.625 4.3594,-1.625 1.7188,0 4.4375,1.0625 5.9219,1.82812 2.6406,1.32813 4.8906,3.53125 4.8906,6.01563 0,3.01562 -1.9219,4.17187 -4.5937,4.6875 -1.25,-0.51563 -4.3594,-1.625 -5.5938,-1.625 -0.5312,0 -0.9687,0.1875 -0.9687,0.8125 0,0.34375 0.2031,0.71875 0.5781,0.95312 1.0469,0.67188 4.8281,1.29688 5.8437,1.25 1.7657,0.90625 4.7344,3.48438 4.7344,6.54688 0,3.20312 -2.8281,4.0625 -5.5469,4.0625 -4.9843,0 -9.3281,-3.09375 -10.5312,-3.96875 -0.7188,-0.46875 -1.1875,-0.8125 -1.2969,-0.8125 -0.3281,0 -0.8594,0.20312 -0.8594,0.625 0,0.76562 0.625,1 1.2032,1.39062 3.7812,2.4375 9.0781,4.15625 13.6718,4.15625 2.9688,0 6.5157,-1.09375 6.5157,-4.6875 0,-3.96875 -3.4063,-6.45312 -5.2188,-7.45312 2.6719,-0.39063 5.2188,-1.82813 5.2188,-5.3125 0,-3.64063 -3.2032,-5.9375 -7.0782,-7.65625 -2.7812,-1.23438 -8.7656,-2.71875 -11.3906,-2.71875 z m 0,0"
       style="fill:#555555;fill-opacity:1;fill-rule:nonzero;stroke:none;stroke-width:1.33333"
       aria-label="ω" /><path
       id="path401"
       d="m 2513.5156,210.53516 c -3.4531,0 -9.2812,0.32813 -15.4531,3.20313 -4.9687,2.29687 -8.4687,6.21875 -8.4687,6.79687 0,0.14062 0.047,0.32812 0.2968,0.32812 0.094,0 0.1407,-0.0469 0.2344,-0.0937 2.3906,-2.29688 8.4688,-8.125 23.3438,-8.125 14.9218,0 21,5.78125 23.3906,8.125 0.094,0.0469 0.1406,0.0937 0.2344,0.0937 0.2343,0 0.2812,-0.1875 0.2812,-0.32812 0,-0.53125 -3.5312,-4.59375 -8.7969,-6.9375 -5.3125,-2.39062 -10.4687,-3.0625 -15.0625,-3.0625 z m 0,0"
       style="fill:#555555;fill-opacity:1;fill-rule:nonzero;stroke:none;stroke-width:1.33333"
       aria-label=")" /><path
       id="path402"
       d="m 2623.7296,477.51009 50.3961,-0.80781 38.3969,-0.88775 31.1976,-0.99593 26.3979,-1.13307 21.5983,-1.21501 19.1985,-1.3881 16.7987,-1.54363 14.3989,-1.65501 11.999,-1.68919 9.5993,-1.61167 9.5992,-1.90277 9.5993,-2.2672 7.1994,-1.99697 7.1994,-2.30912 7.1995,-2.68822 4.7996,-2.04398 4.7996,-2.28098 4.7996,-2.5549 4.7996,-2.87292 4.7997,-3.24391 4.7996,-3.6788 4.7996,-4.19116 4.7996,-4.79791 4.7997,-5.52013 4.7996,-6.38423 2.3998,-3.5693 2.3998,-3.85392 2.3998,-4.16695 2.3998,-4.51152 2.3998,-4.89125 2.3999,-5.31012 2.3998,-5.77249 2.3998,-6.28324 2.3998,-6.84768 2.3998,-7.47151 2.3998,-8.16076 2.3998,-8.92156 2.3998,-9.75971 2.3999,-10.68024 2.3998,-11.68648 2.3998,-12.77892 2.3998,-13.95365 2.3998,-15.20037 2.3998,-16.49959 2.3998,-17.81952 2.3998,-19.11228 4.7997,-41.63069 9.5992,-87.17569 2.3998,-18.93936 2.3998,-16.056026 2.3998,-12.264827 2.3999,-7.705493 2.3998,-2.629346 2.3998,2.629346 2.3998,7.705493 2.3998,12.264827 2.3998,16.056026 2.3998,18.93936 4.7996,42.85223 7.1995,65.6443 4.7996,39.42213 2.3998,17.81952 2.3998,16.49959 2.3998,15.20037 2.3998,13.95365 2.3999,12.77892 2.3998,11.68648 2.3998,10.68024 2.3998,9.75971 2.3998,8.92156 2.3998,8.16076 2.3998,7.47151 2.3998,6.84768 2.3998,6.28324 2.3999,5.77249 2.3998,5.31012 2.3998,4.89125 2.3998,4.51152 2.3998,4.16695 2.3998,3.85392 4.7996,6.8795 4.7997,5.93255 4.7996,5.14307 4.7996,4.48153 4.7996,3.92433 4.7997,3.45259 4.7996,3.05116 4.7996,2.70789 4.7996,2.41291 4.7996,2.15827 7.1995,2.83248 7.1994,2.42724 7.1994,2.09452 7.1995,1.81906 9.5992,2.07451 9.5993,1.74928 11.999,1.82516 11.9991,1.5092 14.3988,1.48901 16.7987,1.39888 19.1985,1.26708 21.5983,1.11693 26.398,1.04893 31.1975,0.9285 38.397,0.83342 43.1966,0.67167 v 0"
       style="fill:none;stroke:#e24a33;stroke-width:8;stroke-linecap:square;stroke-linejoin:round;stroke-miterlimit:10;stroke-dasharray:none;stroke-opacity:1" /><path
       id="path403"
       d="m 2623.7296,478.19775 52.7959,-0.44365 43.1966,-0.65296 38.397,-0.8454 26.3979,-0.84599 19.1985,-0.90667 14.3988,-0.95021 11.9991,-1.04619 11.9991,-1.36337 9.5992,-1.39997 7.1994,-1.28942 7.1995,-1.55376 7.1994,-1.88906 4.7996,-1.48992 4.7997,-1.71235 4.7996,-1.97371 4.7996,-2.2804 4.7996,-2.63965 4.7997,-3.05925 4.7996,-3.54743 4.7996,-4.11224 4.7996,-4.76076 4.7996,-5.4976 4.7997,-6.32308 4.7996,-7.23027 4.7996,-8.20178 4.7996,-9.20552 4.7997,-10.19057 4.7996,-11.08392 4.7996,-11.78987 14.3989,-36.05025 4.7996,-10.64248 2.3998,-4.80635 2.3998,-4.42864 2.3998,-4.06075 4.7997,-7.26436 4.7996,-7.07037 2.3998,-4.05488 2.3998,-4.84921 2.3998,-6.05248 2.3998,-7.70394 2.3998,-9.81522 2.3998,-12.35891 2.3999,-15.25644 2.3998,-18.36705 2.3998,-21.47873 2.3998,-24.3036 4.7996,-54.06925 2.3998,-27.175937 2.3998,-24.8064 2.3999,-20.130506 2.3998,-12.975426 2.3998,12.975426 2.3998,20.130506 2.3998,24.8064 7.1994,81.245187 2.3998,24.3036 2.3998,21.47873 2.3999,18.36705 2.3998,15.25644 2.3998,12.35891 2.3998,9.81522 2.3998,7.70394 2.3998,6.05248 2.3998,4.84921 2.3998,4.05488 9.5993,14.33473 2.3998,4.06075 2.3998,4.42864 2.3998,4.80635 4.7996,10.64248 4.7997,11.67046 14.3988,36.16966 4.7997,11.08392 4.7996,10.19057 4.7996,9.20552 4.7996,8.20178 4.7997,7.23027 4.7996,6.32308 4.7996,5.4976 4.7996,4.76076 4.7996,4.11224 4.7997,3.54743 4.7996,3.05925 4.7996,2.63965 4.7996,2.2804 4.7997,1.97371 4.7996,1.71235 7.1994,2.16204 7.1994,1.76824 7.1995,1.45865 9.5992,1.57337 9.5993,1.24992 11.999,1.22455 14.3989,1.10553 16.7987,0.93463 19.1985,0.75904 28.7977,0.79654 40.7968,0.79699 43.1966,0.55902 38.397,0.28805 v 0"
       style="fill:none;stroke:#348abd;stroke-width:8;stroke-linecap:square;stroke-linejoin:round;stroke-miterlimit:10;stroke-dasharray:none;stroke-opacity:1" /><path
       id="path404"
       d="m 2623.7296,474.79134 26.3979,-0.97175 21.5984,-1.09802 16.7986,-1.13789 14.3989,-1.24012 14.3989,-1.55304 11.999,-1.59694 9.5993,-1.52632 9.5992,-1.79991 9.5993,-2.13592 7.1994,-1.86859 7.1994,-2.13996 7.1995,-2.45604 7.1994,-2.82272 7.1994,-3.2461 4.7997,-2.42986 4.7996,-2.66537 4.7996,-2.92128 4.7996,-3.19777 4.7996,-3.49447 4.7997,-3.80996 4.7996,-4.14155 4.7996,-4.48482 4.7996,-4.83306 4.7997,-5.17673 4.7996,-5.50271 7.1994,-8.78261 11.9991,-15.41764 7.1994,-9.00113 4.7996,-5.48417 2.3998,-2.48915 2.3999,-2.27047 2.3998,-2.01122 2.3998,-1.70946 2.3998,-1.36384 2.3998,-0.97377 2.3998,-0.53965 2.3998,-0.0629 2.3998,0.45342 2.3999,1.0051 2.3998,1.58607 2.3998,2.18844 2.3998,2.80251 2.3998,3.41677 2.3998,4.01807 2.3998,4.59182 2.3998,5.12252 2.3998,5.59424 4.7997,12.29074 11.999,32.33145 2.3998,5.8451 2.3998,5.40656 2.3999,4.89972 2.3998,4.34682 2.3998,3.77141 2.3998,3.19681 2.3998,2.64423 2.3998,2.13105 2.3998,1.66992 2.3998,1.26791 2.3998,0.92665 2.3999,0.64279 2.3998,0.40903 2.3998,0.21509 2.3998,0.0489 2.3998,-0.1028 2.3998,-0.25448 2.3998,-0.42192 2.3998,-0.62342 2.3999,-0.88155 2.3998,-1.22512 2.3998,-1.69224 2.3998,-2.33356 2.3998,-3.21663 2.3998,-4.43081 2.3998,-6.09279 2.3998,-8.35108 2.3998,-11.38708 2.3999,-15.40668 2.3998,-20.61281 2.3998,-27.14366 2.3998,-34.95708 2.3998,-43.64232 2.3998,-52.15764 4.7996,-118.3172 2.3999,-52.036343 2.3998,-31.914293 2.3998,31.914293 2.3998,52.036343 4.7996,118.3172 2.3998,52.15764 2.3998,43.64232 2.3998,34.95708 2.3998,27.14366 2.3999,20.61281 2.3998,15.40668 2.3998,11.38708 2.3998,8.35108 2.3998,6.09279 2.3998,4.43081 2.3998,3.21663 2.3998,2.33356 2.3999,1.69224 2.3998,1.22512 2.3998,0.88155 2.3998,0.62342 2.3998,0.42192 2.3998,0.25448 2.3998,0.1028 2.3998,-0.0489 2.3998,-0.21509 2.3999,-0.40903 2.3998,-0.64279 2.3998,-0.92665 2.3998,-1.26791 2.3998,-1.66992 2.3998,-2.13105 2.3998,-2.64423 2.3998,-3.19681 2.3998,-3.77141 2.3999,-4.34682 2.3998,-4.89972 2.3998,-5.40656 4.7996,-12.04138 14.3989,-38.42591 2.3998,-5.59424 2.3998,-5.12252 2.3998,-4.59182 2.3998,-4.01807 2.3998,-3.41677 2.3998,-2.80251 2.3998,-2.18844 2.3999,-1.58607 2.3998,-1.0051 2.3998,-0.45342 2.3998,0.0629 2.3998,0.53965 2.3998,0.97377 2.3998,1.36384 2.3998,1.70946 2.3999,2.01122 2.3998,2.27047 4.7996,5.15877 4.7996,5.74136 7.1994,9.1711 11.9991,15.30985 7.1994,8.584 4.7997,5.3429 4.7996,5.0062 4.7996,4.65884 4.7996,4.31208 4.7996,3.97398 4.7997,3.65 4.7996,3.34365 4.7996,3.05696 4.7996,2.79075 4.7997,2.5451 7.1994,3.40082 7.1994,2.95726 7.1995,2.57234 7.1994,2.24006 7.1994,1.95444 9.5993,2.23143 9.5992,1.87749 9.5993,1.58963 11.999,1.66069 11.9991,1.36902 14.3989,1.33622 16.7986,1.22509 19.1985,1.06538 21.5983,0.89687 11.9991,0.40332 v 0"
       style="fill:none;stroke:#988ed5;stroke-width:8;stroke-linecap:square;stroke-linejoin:round;stroke-miterlimit:10;stroke-dasharray:none;stroke-opacity:1" /><path
       id="path405"
       d="m 2623.7296,477.27905 9.5993,-0.99264 9.5992,-1.3397 7.1994,-1.30263 7.1995,-1.62695 7.1994,-2.02761 4.7996,-1.61868 4.7997,-1.86789 4.7996,-2.15124 4.7996,-2.47195 4.7996,-2.83294 4.7996,-3.23674 4.7997,-3.68509 4.7996,-4.17868 4.7996,-4.7166 4.7996,-5.29591 4.7997,-5.91096 4.7996,-6.55272 4.7996,-7.20814 4.7996,-7.85955 4.7997,-8.4839 4.7996,-9.05283 7.1994,-14.44021 19.1985,-39.51191 4.7996,-8.78048 2.3998,-4.02039 2.3999,-3.72106 2.3998,-3.38324 2.3998,-3.0086 2.3998,-2.59972 2.3998,-2.15996 2.3998,-1.6935 2.3998,-1.20526 2.3998,-0.70088 2.3999,-0.1866 2.3998,0.331 2.3998,0.84506 2.3998,1.34867 2.3998,1.83515 2.3998,2.2983 2.3998,2.73258 2.3998,3.13332 2.3998,3.49705 2.3998,3.82148 4.7997,8.45563 4.7996,9.28261 7.1994,14.90528 9.5993,20.80648 16.7987,36.83273 4.7996,10.02697 4.7996,9.43735 4.7996,8.61099 4.7996,7.57512 2.3999,3.3494 2.3998,3.04053 2.3998,2.72592 2.3998,2.41129 2.3998,2.10227 2.3998,1.80417 2.3998,1.52203 2.3998,1.26029 2.3999,1.02278 2.3998,0.81249 4.7996,1.1119 4.7996,0.62505 7.1994,0.4717 23.9982,0.94854 11.999,0.0892 14.3989,-0.19806 11.999,-0.40422 9.5993,-0.59774 7.1994,-0.75306 4.7996,-0.77278 4.7997,-1.17714 2.3998,-0.84967 2.3998,-1.14304 2.3998,-1.62296 2.3998,-2.50783 2.3998,-4.55159 2.3998,-12.28326 2.3999,-73.49883 2.3998,-344.158069 2.3998,344.158069 2.3998,73.49883 2.3998,12.28326 2.3998,4.55159 2.3998,2.50783 2.3998,1.62296 2.3998,1.14304 2.3998,0.84967 4.7997,1.17714 4.7996,0.77278 7.1994,0.75306 9.5993,0.59774 11.999,0.40422 14.3989,0.19806 11.9991,-0.0892 11.999,-0.43578 16.7987,-0.78664 4.7996,-0.4637 4.7996,-0.83963 2.3998,-0.63144 2.3999,-0.81249 2.3998,-1.02278 2.3998,-1.26029 2.3998,-1.52203 2.3998,-1.80417 2.3998,-2.10227 2.3998,-2.41129 2.3998,-2.72592 2.3999,-3.04053 2.3998,-3.3494 2.3998,-3.64702 4.7996,-8.11614 4.7996,-9.05292 4.7996,-9.762 7.1995,-15.46138 21.5983,-47.25018 7.1994,-14.90528 4.7996,-9.28261 4.7997,-8.45563 2.3998,-3.82148 2.3998,-3.49705 2.3998,-3.13332 2.3998,-2.73258 2.3998,-2.2983 2.3998,-1.83515 2.3998,-1.34867 2.3999,-0.84506 2.3998,-0.331 2.3998,0.1866 2.3998,0.70088 2.3998,1.20526 2.3998,1.6935 2.3998,2.15996 2.3998,2.59972 2.3998,3.0086 2.3999,3.38324 2.3998,3.72106 4.7996,8.30059 4.7996,9.18129 7.1995,14.75139 11.999,24.98727 7.1994,14.12525 4.7997,8.77729 4.7996,8.17675 4.7996,7.53566 4.7996,6.87972 4.7997,6.2292 4.7996,5.59946 4.7996,5.00136 4.7996,4.44222 4.7996,3.92624 4.7997,3.45527 4.7996,3.02936 4.7996,2.64724 4.7996,2.30675 4.7997,2.00509 4.7996,1.73921 4.7996,1.5059 7.1994,1.88468 7.1995,1.51106 7.1994,1.20914 9.5993,1.24306 7.1994,0.71589 v 0"
       style="fill:none;stroke:#777777;stroke-width:8;stroke-linecap:square;stroke-linejoin:round;stroke-miterlimit:10;stroke-dasharray:none;stroke-opacity:1" /><path
       id="path406"
       d="m 2623.7296,470.01715 7.1995,-1.81476 7.1994,-2.13221 7.1994,-2.50004 7.1995,-2.92399 4.7996,-2.21505 4.7996,-2.45022 4.7996,-2.70566 4.7997,-2.98196 4.7996,-3.27938 4.7996,-3.59777 4.7996,-3.93653 4.7996,-4.29432 4.7997,-4.66912 4.7996,-5.0579 4.7996,-5.4565 4.7996,-5.85951 4.7997,-6.25999 4.7996,-6.64934 4.7996,-7.01719 7.1994,-11.13758 7.1995,-11.70903 19.1985,-31.69833 4.7996,-7.32531 4.7996,-6.74953 4.7996,-5.97626 2.3998,-2.63348 2.3999,-2.36185 2.3998,-2.0638 2.3998,-1.73968 2.3998,-1.39012 2.3998,-1.01615 2.3998,-0.61909 2.3998,-0.20076 2.3998,0.23669 2.3999,0.69068 2.3998,1.15819 2.3998,1.63577 2.3998,2.11963 2.3998,2.60551 2.3998,3.08892 2.3998,3.56497 2.3998,4.02864 2.3998,4.47468 2.3998,4.89779 2.3999,5.2927 4.7996,11.63191 4.7996,12.75 7.1994,20.36136 9.5993,27.15825 4.7996,12.61609 4.7996,11.48672 2.3998,5.23423 2.3999,4.86203 2.3998,4.4739 2.3998,4.07702 2.3998,3.67829 2.3998,3.2844 2.3998,2.90149 2.3998,2.53498 2.3998,2.18952 2.3998,1.86878 2.3999,1.57553 2.3998,1.31144 2.3998,1.07729 2.3998,0.87292 4.7996,1.24644 4.7996,0.75103 4.7997,0.42525 7.1994,0.29218 14.3989,0.12808 95.9924,0.0107 124.7902,-0.1388 7.1994,-0.29218 4.7997,-0.42525 4.7996,-0.75103 4.7996,-1.24644 2.3998,-0.87292 2.3998,-1.07729 2.3999,-1.31144 2.3998,-1.57553 2.3998,-1.86879 2.3998,-2.18952 2.3998,-2.53497 2.3998,-2.90149 2.3998,-3.2844 2.3998,-3.6783 2.3998,-4.07701 2.3999,-4.47391 2.3998,-4.86202 4.7996,-10.81776 4.7996,-12.09014 4.7996,-13.05416 16.7987,-47.38645 4.7996,-12.23577 4.7997,-10.94699 2.3998,-4.89778 2.3998,-4.47468 2.3998,-4.02864 2.3998,-3.56498 2.3998,-3.08892 2.3998,-2.6055 2.3998,-2.11963 2.3999,-1.63577 2.3998,-1.15819 2.3998,-0.69068 2.3998,-0.23669 2.3998,0.20076 2.3998,0.61909 2.3998,1.01615 2.3998,1.39012 2.3998,1.73968 2.3999,2.0638 2.3998,2.36185 2.3998,2.63348 4.7996,5.97625 4.7996,6.74954 4.7997,7.3253 7.1994,11.6736 19.1985,31.73376 7.1994,11.13759 4.7996,7.01719 4.7997,6.64934 4.7996,6.25999 4.7996,5.8595 4.7996,5.45651 4.7996,5.05789 4.7997,4.66912 4.7996,4.29432 4.7996,3.93654 4.7996,3.59777 4.7997,3.27937 4.7996,2.98196 4.7996,2.70567 4.7996,2.45021 4.7997,2.21506 7.1994,2.92398 7.1994,2.50004 7.1995,2.13222 7.1994,1.81476 v 0"
       style="fill:none;stroke:#fbc15e;stroke-width:8;stroke-linecap:square;stroke-linejoin:round;stroke-miterlimit:10;stroke-dasharray:none;stroke-opacity:1" /><path
       id="path407"
       d="M 2599.3955,502.59775 V 9.6000149"
       style="fill:none;stroke:#d3d3d3;stroke-width:6.66667;stroke-linecap:square;stroke-linejoin:miter;stroke-miterlimit:10;stroke-dasharray:none;stroke-opacity:1" /><path
       id="path408"
       d="M 3459.2,502.59775 V 9.6000149"
       style="fill:none;stroke:#d3d3d3;stroke-width:6.66667;stroke-linecap:square;stroke-linejoin:miter;stroke-miterlimit:10;stroke-dasharray:none;stroke-opacity:1" /><path
       id="path409"
       d="M 2599.3955,502.59775 H 3459.2"
       style="fill:none;stroke:#d3d3d3;stroke-width:6.66667;stroke-linecap:square;stroke-linejoin:miter;stroke-miterlimit:10;stroke-dasharray:none;stroke-opacity:1" /><path
       id="path410"
       d="M 2599.3955,9.6000149 H 3459.2"
       style="fill:none;stroke:#d3d3d3;stroke-width:6.66667;stroke-linecap:square;stroke-linejoin:miter;stroke-miterlimit:10;stroke-dasharray:none;stroke-opacity:1" /><path
       id="path411"
       d="m 2480,604.8 h 988.8 V 1.512e-5 H 2480 Z"
       style="fill:#ffffff;fill-opacity:1;fill-rule:nonzero;stroke:none;stroke-width:1.33333" /><path
       id="path412"
       d="M 2599.3955,502.59775 H 3459.2 V 9.6000149 h -859.8045 z"
       style="fill:#ffffff;fill-opacity:1;fill-rule:nonzero;stroke:none;stroke-width:1.33333" /><path
       id="path413"
       d="m 2789.3166,502.59775 v 4.66667"
       style="fill:#555555;fill-opacity:1;fill-rule:nonzero;stroke:#555555;stroke-width:1.06667;stroke-linecap:butt;stroke-linejoin:round;stroke-miterlimit:10;stroke-dasharray:none;stroke-opacity:1" /><g
       id="g415"
       aria-label="−10"
       transform="matrix(1.3333333,0,0,1.3333333,2755.5429,539.60507)"><path
         id="path414"
         d="m 19.687526,-6.8786105 c 0.515625,0 1.054687,0 1.054687,-0.5976562 0,-0.5976563 -0.539062,-0.5976563 -1.054687,-0.5976563 H 3.5273695 c -0.5039063,0 -1.0429688,0 -1.0429688,0.5976563 0,0.5976562 0.5390625,0.5976562 1.0429688,0.5976562 z m 0,0"
         style="fill:#555555;fill-opacity:1;fill-rule:nonzero;stroke:none" /><path
         id="path415"
         d="m 31.192409,-19.089548 c 0,-0.632812 -0.02344,-0.667969 -0.445313,-0.667969 -1.160156,1.40625 -2.929687,1.863282 -4.605469,1.921875 -0.08203,0 -0.234375,0 -0.269531,0.05859 -0.02344,0.05859 -0.02344,0.117188 -0.02344,0.738281 0.925781,0 2.484375,-0.175781 3.679687,-0.890625 v 15.7500003 c 0,1.0429687 -0.07031,1.40624997 -2.636719,1.40624997 H 26.001002 V 2.957659e-4 C 27.43069,-0.03486048 28.93069,-0.05829798 30.360377,-0.05829798 c 1.429688,0 2.929688,0.0234375 4.359375,0.0585937459 V -0.77314173 h -0.890625 c -2.578125,0 -2.636718,-0.32812497 -2.636718,-1.40624997 z m 18.292968,9.4921875 c 0,-1.8164065 -0.03516,-4.9218745 -1.289062,-7.3124995 -1.101563,-2.097657 -2.859375,-2.847657 -4.417969,-2.847657 -1.429687,0 -3.257812,0.667969 -4.394531,2.8125 -1.195313,2.238282 -1.3125,5.027344 -1.3125,7.3476565 0,1.7109375 0.02344,4.3125 0.960937,6.5742188 1.277344,3.08203122 3.585938,3.50390622 4.746094,3.50390622 1.371094,0 3.46875,-0.57421875 4.6875,-3.41015622 0.902344,-2.0625 1.019531,-4.4765625 1.019531,-6.6679688 z M 43.778346,2.957659e-4 c -1.910156,0 -3.046875,-1.6406249659 -3.46875,-3.9140624659 -0.328125,-1.7695313 -0.328125,-4.3359375 -0.328125,-6.0117188 0,-2.2968745 0,-4.2070315 0.386719,-6.0351565 0.574219,-2.53125 2.25,-3.316406 3.410156,-3.316406 1.230469,0 2.8125,0.808594 3.375,3.257813 0.386719,1.710937 0.421875,3.703125 0.421875,6.0937495 0,1.9453125 0,4.3359375 -0.363281,6.1054688 -0.621094,3.25781247 -2.390625,3.8203124659 -3.433594,3.8203124659 z m 0,0"
         style="fill:#555555;fill-opacity:1;fill-rule:nonzero;stroke:none" /></g><path
       id="path416"
       d="m 3029.2978,502.59775 v 4.66667"
       style="fill:#555555;fill-opacity:1;fill-rule:nonzero;stroke:#555555;stroke-width:1.06667;stroke-linecap:butt;stroke-linejoin:round;stroke-miterlimit:10;stroke-dasharray:none;stroke-opacity:1" /><path
       id="path417"
       d="m 3036.8945,526.80859 c 0,-2.42188 -0.047,-6.5625 -1.7187,-9.75 -1.4688,-2.79688 -3.8125,-3.79688 -5.8906,-3.79688 -1.9063,0 -4.3438,0.89063 -5.8594,3.75 -1.5938,2.98438 -1.75,6.70313 -1.75,9.79688 0,2.28125 0.031,5.75 1.2812,8.76562 1.7032,4.10938 4.7813,4.67188 6.3282,4.67188 1.8281,0 4.625,-0.76563 6.25,-4.54688 1.2031,-2.75 1.3593,-5.96875 1.3593,-8.89062 z m -7.6093,12.79687 c -2.5469,0 -4.0625,-2.1875 -4.625,-5.21875 -0.4375,-2.35937 -0.4375,-5.78125 -0.4375,-8.01562 0,-3.0625 0,-5.60938 0.5156,-8.04688 0.7656,-3.375 3,-4.42187 4.5469,-4.42187 1.6406,0 3.75,1.07813 4.5,4.34375 0.5156,2.28125 0.5625,4.9375 0.5625,8.125 0,2.59375 0,5.78125 -0.4844,8.14062 -0.8281,4.34375 -3.1875,5.09375 -4.5781,5.09375 z m 0,0"
       style="fill:#555555;fill-opacity:1;fill-rule:nonzero;stroke:none;stroke-width:1.33333"
       aria-label="0" /><path
       id="path418"
       d="m 3269.2789,502.59775 v 4.66667"
       style="fill:#555555;fill-opacity:1;fill-rule:nonzero;stroke:#555555;stroke-width:1.06667;stroke-linecap:butt;stroke-linejoin:round;stroke-miterlimit:10;stroke-dasharray:none;stroke-opacity:1" /><path
       id="path419"
       d="m 3261.5977,514.15234 c 0,-0.84375 -0.031,-0.89063 -0.5938,-0.89063 -1.5469,1.875 -3.9062,2.48438 -6.1406,2.5625 -0.1094,0 -0.3125,0 -0.3594,0.0781 -0.031,0.0781 -0.031,0.15626 -0.031,0.98438 1.2344,0 3.3125,-0.23438 4.9063,-1.1875 v 21 c 0,1.39062 -0.094,1.875 -3.5157,1.875 h -1.1875 v 1.03125 c 1.9063,-0.0469 3.9063,-0.0781 5.8125,-0.0781 1.9063,0 3.9063,0.0312 5.8125,0.0781 v -1.03125 h -1.1875 c -3.4375,0 -3.5156,-0.4375 -3.5156,-1.875 z m 24.3906,12.65625 c 0,-2.42188 -0.047,-6.5625 -1.7188,-9.75 -1.4687,-2.79688 -3.8125,-3.79688 -5.8906,-3.79688 -1.9062,0 -4.3437,0.89063 -5.8594,3.75 -1.5937,2.98438 -1.75,6.70313 -1.75,9.79688 0,2.28125 0.031,5.75 1.2813,8.76562 1.7031,4.10938 4.7812,4.67188 6.3281,4.67188 1.8281,0 4.625,-0.76563 6.25,-4.54688 1.2031,-2.75 1.3594,-5.96875 1.3594,-8.89062 z m -7.6094,12.79687 c -2.5469,0 -4.0625,-2.1875 -4.625,-5.21875 -0.4375,-2.35937 -0.4375,-5.78125 -0.4375,-8.01562 0,-3.0625 0,-5.60938 0.5156,-8.04688 0.7657,-3.375 3,-4.42187 4.5469,-4.42187 1.6406,0 3.75,1.07813 4.5,4.34375 0.5156,2.28125 0.5625,4.9375 0.5625,8.125 0,2.59375 0,5.78125 -0.4844,8.14062 -0.8281,4.34375 -3.1875,5.09375 -4.5781,5.09375 z m 0,0"
       style="fill:#555555;fill-opacity:1;fill-rule:nonzero;stroke:none;stroke-width:1.33333"
       aria-label="10" /><path
       id="path420"
       d="m 3043.125,567.91407 c 0,-1.39063 -0.375,-3.15625 -2.0469,-3.15625 -0.9687,0 -2.0625,1.20312 -2.0625,2.15625 0,0.42187 0.1875,0.71875 0.5782,1.14062 0.7187,0.8125 1.625,2.10938 1.625,4.35938 0,1.71875 -1.0625,4.4375 -1.8282,5.92187 -1.3281,2.64063 -3.5312,4.89063 -6.0156,4.89063 -3.0156,0 -4.1719,-1.92188 -4.6875,-4.59375 0.5156,-1.25 1.625,-4.35938 1.625,-5.59375 0,-0.53125 -0.1875,-0.96875 -0.8125,-0.96875 -0.3437,0 -0.7187,0.20312 -0.9531,0.57812 -0.6719,1.04688 -1.2969,4.82813 -1.25,5.84375 -0.9063,1.76563 -3.4844,4.73438 -6.5469,4.73438 -3.2031,0 -4.0625,-2.82813 -4.0625,-5.54688 0,-4.98437 3.0938,-9.32812 3.9688,-10.53125 0.4687,-0.71875 0.8125,-1.1875 0.8125,-1.29687 0,-0.32813 -0.2032,-0.85938 -0.625,-0.85938 -0.7657,0 -1,0.625 -1.3907,1.20313 -2.4375,3.78125 -4.1562,9.07812 -4.1562,13.67187 0,2.96875 1.0937,6.51563 4.6875,6.51563 3.9687,0 6.4531,-3.40625 7.4531,-5.21875 0.3906,2.67187 1.8281,5.21875 5.3125,5.21875 3.6406,0 5.9375,-3.20313 7.6563,-7.07813 1.2343,-2.78125 2.7187,-8.76562 2.7187,-11.39062 z m 0,0"
       style="fill:#555555;fill-opacity:1;fill-rule:nonzero;stroke:none;stroke-width:1.33333"
       aria-label="ω" /><path
       id="path421"
       d="m 2599.3955,480.18876 h -4.6666"
       style="fill:#555555;fill-opacity:1;fill-rule:nonzero;stroke:#555555;stroke-width:1.06667;stroke-linecap:butt;stroke-linejoin:round;stroke-miterlimit:10;stroke-dasharray:none;stroke-opacity:1" /><g
       id="g424"
       aria-label="0.0"
       transform="matrix(1.3333333,0,0,1.3333333,2542.6709,494.02576)"><path
         id="path422"
         d="m 12.55148,-9.5964653 c 0,-1.8164067 -0.03516,-4.9218747 -1.289062,-7.3124997 -1.101563,-2.097657 -2.8593755,-2.847657 -4.4179692,-2.847657 -1.4296875,0 -3.2578125,0.667969 -4.3945313,2.8125 -1.1953125,2.238282 -1.3125,5.027344 -1.3125,7.3476567 0,1.7109375 0.023437,4.3125 0.9609375,6.5742188 1.2773438,3.08203123 3.5859375,3.50390623 4.7460938,3.50390623 1.3710937,0 3.4687502,-0.57421875 4.6875002,-3.41015623 0.902344,-2.0625 1.019531,-4.4765625 1.019531,-6.6679688 z M 6.8444488,0.00119098 c -1.9101563,0 -3.046875,-1.64062498 -3.46875,-3.91406248 -0.328125,-1.7695313 -0.328125,-4.3359375 -0.328125,-6.0117188 0,-2.2968747 0,-4.2070317 0.3867187,-6.0351567 0.5742188,-2.53125 2.25,-3.316406 3.4101563,-3.316406 1.2304687,0 2.8125,0.808594 3.3750002,3.257813 0.386719,1.710937 0.421875,3.703125 0.421875,6.0937497 0,1.9453125 0,4.3359375 -0.363281,6.1054688 -0.6210942,3.25781248 -2.3906255,3.82031248 -3.4335942,3.82031248 z m 0,0"
         style="fill:#555555;fill-opacity:1;fill-rule:nonzero;stroke:none" /><path
         id="path423"
         d="m 19.201871,-1.4284965 c 0,-0.8671875 -0.714844,-1.4648438 -1.429688,-1.4648438 -0.867187,0 -1.464844,0.7148438 -1.464844,1.4296875 0,0.86718753 0.714844,1.46484378 1.429688,1.46484378 0.867187,0 1.464844,-0.71484375 1.464844,-1.42968748 z m 0,0"
         style="fill:#555555;fill-opacity:1;fill-rule:nonzero;stroke:none" /><path
         id="path424"
         d="m 34.386441,-9.5964653 c 0,-1.8164067 -0.03516,-4.9218747 -1.289063,-7.3124997 -1.101562,-2.097657 -2.859375,-2.847657 -4.417968,-2.847657 -1.429688,0 -3.257813,0.667969 -4.394532,2.8125 -1.195312,2.238282 -1.3125,5.027344 -1.3125,7.3476567 0,1.7109375 0.02344,4.3125 0.960938,6.5742188 1.277344,3.08203123 3.585937,3.50390623 4.746094,3.50390623 1.371093,0 3.46875,-0.57421875 4.6875,-3.41015623 0.902343,-2.0625 1.019531,-4.4765625 1.019531,-6.6679688 z M 28.67941,0.00119098 c -1.910157,0 -3.046875,-1.64062498 -3.46875,-3.91406248 -0.328125,-1.7695313 -0.328125,-4.3359375 -0.328125,-6.0117188 0,-2.2968747 0,-4.2070317 0.386718,-6.0351567 0.574219,-2.53125 2.25,-3.316406 3.410157,-3.316406 1.230468,0 2.8125,0.808594 3.375,3.257813 0.386718,1.710937 0.421875,3.703125 0.421875,6.0937497 0,1.9453125 0,4.3359375 -0.363282,6.1054688 -0.621093,3.25781248 -2.390625,3.82031248 -3.433593,3.82031248 z m 0,0"
         style="fill:#555555;fill-opacity:1;fill-rule:nonzero;stroke:none" /></g><path
       id="path425"
       d="m 2599.3955,388.90418 h -4.6666"
       style="fill:#555555;fill-opacity:1;fill-rule:nonzero;stroke:#555555;stroke-width:1.06667;stroke-linecap:butt;stroke-linejoin:round;stroke-miterlimit:10;stroke-dasharray:none;stroke-opacity:1" /><g
       id="g428"
       aria-label="0.1"
       transform="matrix(1.3333333,0,0,1.3333333,2542.6709,402.74117)"><path
         id="path426"
         d="m 12.55148,-9.5968903 c 0,-1.8164067 -0.03516,-4.9218747 -1.289062,-7.3124997 -1.101563,-2.097657 -2.8593755,-2.847657 -4.4179692,-2.847657 -1.4296875,0 -3.2578125,0.667969 -4.3945313,2.8125 -1.1953125,2.238282 -1.3125,5.027344 -1.3125,7.3476567 0,1.7109375 0.023437,4.3125 0.9609375,6.5742188 1.2773438,3.08203124 3.5859375,3.50390624 4.7460938,3.50390624 1.3710937,0 3.4687502,-0.57421875 4.6875002,-3.41015624 0.902344,-2.0625 1.019531,-4.4765625 1.019531,-6.6679688 z M 6.8444488,7.659924e-4 c -1.9101563,0 -3.046875,-1.6406249924 -3.46875,-3.9140624924 -0.328125,-1.7695313 -0.328125,-4.3359375 -0.328125,-6.0117188 0,-2.2968747 0,-4.2070317 0.3867187,-6.0351567 0.5742188,-2.53125 2.25,-3.316406 3.4101563,-3.316406 1.2304687,0 2.8125,0.808594 3.3750002,3.257813 0.386719,1.710937 0.421875,3.703125 0.421875,6.0937497 0,1.9453125 0,4.3359375 -0.363281,6.1054688 C 9.6569488,-0.56173401 7.8874175,7.659924e-4 6.8444488,7.659924e-4 Z m 0,0"
         style="fill:#555555;fill-opacity:1;fill-rule:nonzero;stroke:none" /><path
         id="path427"
         d="m 19.201871,-1.4289215 c 0,-0.8671875 -0.714844,-1.4648438 -1.429688,-1.4648438 -0.867187,0 -1.464844,0.7148438 -1.464844,1.4296875 0,0.86718754 0.714844,1.4648437924 1.429688,1.4648437924 0.867187,0 1.464844,-0.7148437524 1.464844,-1.4296874924 z m 0,0"
         style="fill:#555555;fill-opacity:1;fill-rule:nonzero;stroke:none" /><path
         id="path428"
         d="m 29.780972,-19.089078 c 0,-0.632812 -0.02344,-0.667969 -0.445312,-0.667969 -1.160157,1.40625 -2.929688,1.863282 -4.605469,1.921875 -0.08203,0 -0.234375,0 -0.269531,0.05859 -0.02344,0.05859 -0.02344,0.117188 -0.02344,0.738281 0.925781,0 2.484375,-0.175781 3.679688,-0.890625 v 15.7500005 c 0,1.0429687 -0.07031,1.40624999 -2.636719,1.40624999 H 24.589566 V 7.659924e-4 C 26.019253,-0.03439026 27.519253,-0.05782776 28.948941,-0.05782776 c 1.429687,0 2.929687,0.0234375 4.359375,0.0585937524 V -0.77267151 h -0.890625 c -2.578125,0 -2.636719,-0.32812499 -2.636719,-1.40624999 z m 0,0"
         style="fill:#555555;fill-opacity:1;fill-rule:nonzero;stroke:none" /></g><g
       id="g431"
       aria-label="0.2"
       transform="matrix(1.3333333,0,0,1.3333333,2542.6709,311.45658)"><path
         id="path429"
         d="m 12.55148,-9.5973152 c 0,-1.8164058 -0.03516,-4.9218748 -1.289062,-7.3124998 -1.101563,-2.097656 -2.8593755,-2.847656 -4.4179692,-2.847656 -1.4296875,0 -3.2578125,0.667968 -4.3945313,2.8125 -1.1953125,2.238281 -1.3125,5.027343 -1.3125,7.3476558 0,1.7109375 0.023437,4.3125 0.9609375,6.5742187 1.2773438,3.08203126 3.5859375,3.50390626 4.7460938,3.50390626 1.3710937,0 3.4687502,-0.57421875 4.6875002,-3.41015626 0.902344,-2.0625 1.019531,-4.4765625 1.019531,-6.6679687 z M 6.8444488,3.410053e-4 c -1.9101563,0 -3.046875,-1.6406250053 -3.46875,-3.9140625053 -0.328125,-1.7695312 -0.328125,-4.3359375 -0.328125,-6.0117187 0,-2.2968748 0,-4.2070308 0.3867187,-6.0351558 0.5742188,-2.53125 2.25,-3.316407 3.4101563,-3.316407 1.2304687,0 2.8125,0.808594 3.3750002,3.257813 0.386719,1.710937 0.421875,3.703125 0.421875,6.0937498 0,1.9453125 0,4.3359375 -0.363281,6.1054687 C 9.6569488,-0.56215899 7.8874175,3.410053e-4 6.8444488,3.410053e-4 Z m 0,0"
         style="fill:#555555;fill-opacity:1;fill-rule:nonzero;stroke:none" /><path
         id="path430"
         d="m 19.201871,-1.4293465 c 0,-0.8671875 -0.714844,-1.4648437 -1.429688,-1.4648437 -0.867187,0 -1.464844,0.7148437 -1.464844,1.4296875 0,0.86718746 0.714844,1.4648437053 1.429688,1.4648437053 0.867187,0 1.464844,-0.7148437453 1.464844,-1.4296875053 z m 0,0"
         style="fill:#555555;fill-opacity:1;fill-rule:nonzero;stroke:none" /><path
         id="path431"
         d="m 34.292691,-4.6285652 h -0.539063 c -0.292968,2.1210937 -0.527343,2.4726562 -0.65625,2.6601562 -0.140625,0.234375 -2.296875,0.234375 -2.71875,0.234375 H 24.64816 c 1.078125,-1.1601562 3.164062,-3.28125 5.707031,-5.7421875 1.816406,-1.7226562 3.9375,-3.7617185 3.9375,-6.7148435 0,-3.527344 -2.800781,-5.566406 -5.941406,-5.566406 -3.292969,0 -5.285157,2.90625 -5.285157,5.589843 0,1.171875 0.867188,1.3125 1.21875,1.3125 0.304688,0 1.195313,-0.175781 1.195313,-1.21875 0,-0.925781 -0.773438,-1.195312 -1.195313,-1.195312 -0.175781,0 -0.351562,0.02344 -0.480468,0.09375 0.574218,-2.542969 2.308593,-3.796875 4.125,-3.796875 2.601562,0 4.300781,2.0625 4.300781,4.78125 0,2.601562 -1.523438,4.8398435 -3.222656,6.785156 l -5.941407,6.71484376 V 3.410053e-4 h 10.511719 z m 0,0"
         style="fill:#555555;fill-opacity:1;fill-rule:nonzero;stroke:none" /></g><g
       id="g434"
       aria-label="0.3"
       transform="matrix(1.3333333,0,0,1.3333333,2542.6709,220.17199)"><path
         id="path432"
         d="m 12.55148,-9.5977402 c 0,-1.8164058 -0.03516,-4.9218748 -1.289062,-7.3124998 -1.101563,-2.097656 -2.8593755,-2.847656 -4.4179692,-2.847656 -1.4296875,0 -3.2578125,0.667968 -4.3945313,2.8125 -1.1953125,2.238281 -1.3125,5.027343 -1.3125,7.3476558 0,1.7109375 0.023437,4.3125 0.9609375,6.5742187 1.2773438,3.08203127 3.5859375,3.50390627 4.7460938,3.50390627 1.3710937,0 3.4687502,-0.57421875 4.6875002,-3.41015627 0.902344,-2.0625 1.019531,-4.4765625 1.019531,-6.6679687 z M 6.8444488,-8.39819e-5 c -1.9101563,0 -3.046875,-1.6406250181 -3.46875,-3.9140625181 -0.328125,-1.7695312 -0.328125,-4.3359375 -0.328125,-6.0117187 0,-2.2968748 0,-4.2070308 0.3867187,-6.0351558 0.5742188,-2.53125 2.25,-3.316407 3.4101563,-3.316407 1.2304687,0 2.8125,0.808594 3.3750002,3.257813 0.386719,1.710937 0.421875,3.703125 0.421875,6.0937498 0,1.9453125 0,4.3359375 -0.363281,6.1054687 C 9.6569488,-0.56258398 7.8874175,-8.39819e-5 6.8444488,-8.39819e-5 Z m 0,0"
         style="fill:#555555;fill-opacity:1;fill-rule:nonzero;stroke:none" /><path
         id="path433"
         d="m 19.201871,-1.4297715 c 0,-0.8671875 -0.714844,-1.4648437 -1.429688,-1.4648437 -0.867187,0 -1.464844,0.7148437 -1.464844,1.4296875 0,0.86718747 0.714844,1.4648437181 1.429688,1.4648437181 0.867187,0 1.464844,-0.7148437481 1.464844,-1.4296875181 z m 0,0"
         style="fill:#555555;fill-opacity:1;fill-rule:nonzero;stroke:none" /><path
         id="path434"
         d="m 28.445035,-10.16024 c 2.660156,0 3.820312,2.2968748 3.820312,4.957031 0,3.5859375 -1.910156,4.96875002 -3.644531,4.96875002 -1.582031,0 -4.160156,-0.78515622 -4.957031,-3.08203122 0.140625,0.058594 0.292968,0.058594 0.445312,0.058594 0.714844,0 1.253906,-0.4804687 1.253906,-1.2539062 0,-0.8671875 -0.65625,-1.2539063 -1.253906,-1.2539063 -0.515625,0 -1.289062,0.234375 -1.289062,1.3476563 0,2.7421875 2.695312,4.89843747 5.859375,4.89843747 3.316406,0 5.859375,-2.60156247 5.859375,-5.64843747 0,-2.90625 -2.390625,-4.9921876 -5.226563,-5.3203126 2.261719,-0.480469 4.441406,-2.507813 4.441406,-5.226563 0,-2.332031 -2.355468,-4.042968 -5.039062,-4.042968 -2.730469,0 -5.121094,1.675781 -5.121094,4.066406 0,1.042969 0.785156,1.230469 1.171875,1.230469 0.621094,0 1.160156,-0.386719 1.160156,-1.171875 0,-0.773438 -0.539062,-1.160157 -1.160156,-1.160157 -0.117187,0 -0.269531,0 -0.386719,0.05859 0.867188,-1.96875 3.222657,-2.332031 4.265625,-2.332031 1.054688,0 3.023438,0.503906 3.023438,3.375 0,0.84375 -0.117188,2.332031 -1.136719,3.644531 -0.890625,1.171875 -1.910156,1.230469 -2.894531,1.324219 -0.152344,0 -0.84375,0.05859 -0.960938,0.05859 -0.210937,0.02344 -0.328125,0.05859 -0.328125,0.269531 0,0.199219 0.03516,0.234375 0.632813,0.234375 z m 0,0"
         style="fill:#555555;fill-opacity:1;fill-rule:nonzero;stroke:none" /></g><g
       id="g437"
       aria-label="0.4"
       transform="matrix(1.3333333,0,0,1.3333333,2542.6709,128.8874)"><path
         id="path435"
         d="m 12.55148,-9.5981652 c 0,-1.8164058 -0.03516,-4.9218748 -1.289062,-7.3124998 -1.101563,-2.097656 -2.8593755,-2.847656 -4.4179692,-2.847656 -1.4296875,0 -3.2578125,0.667968 -4.3945313,2.8125 -1.1953125,2.238281 -1.3125,5.027343 -1.3125,7.3476558 0,1.7109375 0.023437,4.3125 0.9609375,6.5742187 1.2773438,3.08203128 3.5859375,3.50390628 4.7460938,3.50390628 1.3710937,0 3.4687502,-0.57421875 4.6875002,-3.41015628 0.902344,-2.0625 1.019531,-4.4765625 1.019531,-6.6679687 z M 6.8444488,-5.08969e-4 c -1.9101563,0 -3.046875,-1.640625031 -3.46875,-3.914062531 -0.328125,-1.7695312 -0.328125,-4.3359375 -0.328125,-6.0117187 0,-2.2968748 0,-4.2070308 0.3867187,-6.0351558 0.5742188,-2.53125 2.25,-3.316407 3.4101563,-3.316407 1.2304687,0 2.8125,0.808594 3.3750002,3.257813 0.386719,1.710937 0.421875,3.703125 0.421875,6.0937498 0,1.9453125 0,4.3359375 -0.363281,6.1054687 -0.6210942,3.25781253 -2.3906255,3.820312531 -3.4335942,3.820312531 z m 0,0"
         style="fill:#555555;fill-opacity:1;fill-rule:nonzero;stroke:none" /><path
         id="path436"
         d="m 19.201871,-1.4301965 c 0,-0.8671875 -0.714844,-1.4648437 -1.429688,-1.4648437 -0.867187,0 -1.464844,0.7148437 -1.464844,1.4296875 0,0.86718748 0.714844,1.464843731 1.429688,1.464843731 0.867187,0 1.464844,-0.714843751 1.464844,-1.429687531 z m 0,0"
         style="fill:#555555;fill-opacity:1;fill-rule:nonzero;stroke:none" /><path
         id="path437"
         d="m 31.878628,-19.336446 c 0,-0.621094 -0.03516,-0.65625 -0.574218,-0.65625 l -8.871094,14.132812 v 0.7734375 h 7.710937 v 2.9296875 c 0,1.078125 -0.05859,1.38281253 -2.15625,1.38281253 h -0.5625 v 0.773437501 c 0.949219,-0.058593751 2.566407,-0.058593751 3.585938,-0.058593751 1.019531,0 2.625,0 3.585937,0.058593751 V -0.77394647 H 34.02316 c -2.085938,0 -2.144532,-0.30468753 -2.144532,-1.38281253 v -2.9296875 h 3.046875 V -5.859884 h -3.046875 z m -1.640625,1.96875 v 11.507812 h -7.207031 z m 0,0"
         style="fill:#555555;fill-opacity:1;fill-rule:nonzero;stroke:none" /></g><g
       id="g440"
       aria-label="0.5"
       transform="matrix(1.3333333,0,0,1.3333333,2542.6709,37.602808)"><path
         id="path438"
         d="m 12.55148,-9.5985902 c 0,-1.8164058 -0.03516,-4.9218748 -1.289062,-7.3124998 -1.101563,-2.097656 -2.8593755,-2.847656 -4.4179692,-2.847656 -1.4296875,0 -3.2578125,0.667968 -4.3945313,2.8125 -1.1953125,2.238281 -1.3125,5.027343 -1.3125,7.3476558 0,1.7109375 0.023437,4.3125 0.9609375,6.5742187 1.2773438,3.08203129 3.5859375,3.50390629 4.7460938,3.50390629 1.3710937,0 3.4687502,-0.57421875 4.6875002,-3.41015629 0.902344,-2.0625 1.019531,-4.4765625 1.019531,-6.6679687 z M 6.8444488,-9.339561e-4 c -1.9101563,0 -3.046875,-1.6406250439 -3.46875,-3.9140625439 -0.328125,-1.7695312 -0.328125,-4.3359375 -0.328125,-6.0117187 0,-2.2968748 0,-4.2070308 0.3867187,-6.0351558 0.5742188,-2.53125 2.25,-3.316407 3.4101563,-3.316407 1.2304687,0 2.8125,0.808594 3.3750002,3.257813 0.386719,1.710937 0.421875,3.703125 0.421875,6.0937498 0,1.9453125 0,4.3359375 -0.363281,6.1054687 -0.6210942,3.25781254 -2.3906255,3.8203125439 -3.4335942,3.8203125439 z m 0,0"
         style="fill:#555555;fill-opacity:1;fill-rule:nonzero;stroke:none" /><path
         id="path439"
         d="m 19.201871,-1.4306215 c 0,-0.8671875 -0.714844,-1.4648437 -1.429688,-1.4648437 -0.867187,0 -1.464844,0.7148437 -1.464844,1.4296875 0,0.86718749 0.714844,1.4648437439 1.429688,1.4648437439 0.867187,0 1.464844,-0.7148437539 1.464844,-1.4296875439 z m 0,0"
         style="fill:#555555;fill-opacity:1;fill-rule:nonzero;stroke:none" /><path
         id="path440"
         d="m 25.245816,-17.485309 c 0.292969,0.117188 1.523437,0.515625 2.777344,0.515625 2.777343,0 4.300781,-1.5 5.167968,-2.367187 0,-0.234375 0,-0.386719 -0.175781,-0.386719 -0.03516,0 -0.09375,0 -0.328125,0.117187 -1.054687,0.445313 -2.273437,0.808594 -3.773437,0.808594 -0.890625,0 -2.238282,-0.117187 -3.703125,-0.773437 -0.328125,-0.152344 -0.386719,-0.152344 -0.421875,-0.152344 -0.140625,0 -0.175782,0.03516 -0.175782,0.632812 v 8.660157 c 0,0.539062 0,0.6914058 0.304688,0.6914058 0.140625,0 0.210937,-0.058594 0.351562,-0.2695308 0.960938,-1.347657 2.273438,-1.910157 3.773438,-1.910157 1.042969,0 3.28125,0.65625 3.28125,5.7656253 0,0.9492187 0,2.6835937 -0.890625,4.0546875 -0.75,1.23046874 -1.921875,1.86328124 -3.199219,1.86328124 -1.980469,0 -3.972656,-1.38281254 -4.511719,-3.67968754 0.117188,0.023437 0.351563,0.09375 0.46875,0.09375 0.398438,0 1.136719,-0.2109375 1.136719,-1.1367187 0,-0.8085938 -0.5625,-1.1367188 -1.136719,-1.1367188 -0.679687,0 -1.125,0.4101563 -1.125,1.2539063 0,2.6015625 2.0625,5.32031249 5.226563,5.32031249 3.070312,0 6,-2.66015629 6,-6.51562499 0,-3.5859375 -2.332031,-6.3632808 -5.226563,-6.3632808 -1.523437,0 -2.8125,0.5625 -3.820312,1.640625 z m 0,0"
         style="fill:#555555;fill-opacity:1;fill-rule:nonzero;stroke:none" /></g><path
       id="path441"
       d="m 2520.1094,297.89454 c 2.8281,1.67187 3.7812,3.29687 3.9219,5.59374 0.047,0.51563 0.047,0.90625 0.9062,0.90625 0.2969,0 0.4844,-0.23437 0.4844,-0.57812 0,-0.85938 -0.094,-3.01563 -0.094,-3.875 0,-1.39063 0.094,-2.90625 0.094,-4.25 0,-0.29687 0,-0.85937 -0.9063,-0.85937 -0.4375,0 -0.4843,0.375 -0.4843,0.67187 -0.094,1.09375 -0.4688,2 -1.625,2 -0.6719,0 -1.1875,-0.28125 -2.25,-0.90625 l -6.0157,-3.64062 v -12.1875 c 0.4219,-0.0469 0.8125,-0.0469 1.2344,-0.0937 1.25,-0.15625 6.2188,-0.71875 7.125,-0.71875 1.4375,0 1.5313,2.4375 1.5313,3.20312 0,0.53125 0,1.04688 0.8593,1.04688 0.5313,0 0.5313,-0.42188 0.5313,-0.71875 0,-0.8125 -0.094,-1.76563 -0.094,-2.57813 v -2.73437 c 0,-2.90625 0.094,-5.01563 0.094,-5.0625 0,-0.32813 0,-0.85938 -0.9063,-0.85938 -0.4843,0 -0.4843,0.42188 -0.4843,1.14063 0,2.64062 -0.4219,2.6875 -1.8594,2.82812 l -29.8438,2.92188 c -0.9531,0.0937 -1.0625,0.28125 -1.0625,0.8125 0,0.46875 0.1094,0.76562 0.8125,1.1875 z m -7.3594,-5.75 -16.0781,-9.60938 16.0781,-1.625 z m 0,0"
       style="fill:#555555;fill-opacity:1;fill-rule:nonzero;stroke:none;stroke-width:1.33333"
       aria-label="A" /><path
       id="path442"
       d="m 2537.0938,256.27734 c -0.047,0 -0.1407,0 -0.2813,0.15625 -2.25,2.1875 -8.375,8.07812 -23.2969,8.07812 -14.9218,0 -21,-5.79687 -23.3906,-8.14062 -0.047,0 -0.1406,-0.0937 -0.2812,-0.0937 -0.1563,0 -0.25,0.15625 -0.25,0.34375 0,0.51563 3.5468,4.59375 8.8125,6.9375 5.2968,2.39063 10.4687,3.0625 15.0625,3.0625 3.4375,0 9.2812,-0.34375 15.4375,-3.21875 4.9843,-2.29687 8.4687,-6.21875 8.4687,-6.78125 0,-0.25 -0.094,-0.34375 -0.2812,-0.34375 z m 0,0"
       style="fill:#555555;fill-opacity:1;fill-rule:nonzero;stroke:none;stroke-width:1.33333"
       aria-label="(" /><path
       id="path443"
       d="m 2507.4375,225.57813 c -1.3906,0 -3.1562,0.375 -3.1562,2.04687 0,0.96875 1.2031,2.0625 2.1562,2.0625 0.4219,0 0.7188,-0.1875 1.1406,-0.57812 0.8125,-0.71875 2.1094,-1.625 4.3594,-1.625 1.7188,0 4.4375,1.0625 5.9219,1.82812 2.6406,1.32813 4.8906,3.53125 4.8906,6.01563 0,3.01562 -1.9219,4.17187 -4.5937,4.6875 -1.25,-0.51563 -4.3594,-1.625 -5.5938,-1.625 -0.5312,0 -0.9687,0.1875 -0.9687,0.8125 0,0.34375 0.2031,0.71875 0.5781,0.95312 1.0469,0.67188 4.8281,1.29688 5.8437,1.25 1.7657,0.90625 4.7344,3.48438 4.7344,6.54688 0,3.20312 -2.8281,4.0625 -5.5469,4.0625 -4.9843,0 -9.3281,-3.09375 -10.5312,-3.96875 -0.7188,-0.46875 -1.1875,-0.8125 -1.2969,-0.8125 -0.3281,0 -0.8594,0.20312 -0.8594,0.625 0,0.76562 0.625,1 1.2032,1.39062 3.7812,2.4375 9.0781,4.15625 13.6718,4.15625 2.9688,0 6.5157,-1.09375 6.5157,-4.6875 0,-3.96875 -3.4063,-6.45312 -5.2188,-7.45312 2.6719,-0.39063 5.2188,-1.82813 5.2188,-5.3125 0,-3.64063 -3.2032,-5.9375 -7.0782,-7.65625 -2.7812,-1.23438 -8.7656,-2.71875 -11.3906,-2.71875 z m 0,0"
       style="fill:#555555;fill-opacity:1;fill-rule:nonzero;stroke:none;stroke-width:1.33333"
       aria-label="ω" /><path
       id="path444"
       d="m 2513.5156,210.53516 c -3.4531,0 -9.2812,0.32813 -15.4531,3.20313 -4.9687,2.29687 -8.4687,6.21875 -8.4687,6.79687 0,0.14062 0.047,0.32812 0.2968,0.32812 0.094,0 0.1407,-0.0469 0.2344,-0.0937 2.3906,-2.29688 8.4688,-8.125 23.3438,-8.125 14.9218,0 21,5.78125 23.3906,8.125 0.094,0.0469 0.1406,0.0937 0.2344,0.0937 0.2343,0 0.2812,-0.1875 0.2812,-0.32812 0,-0.53125 -3.5312,-4.59375 -8.7969,-6.9375 -5.3125,-2.39062 -10.4687,-3.0625 -15.0625,-3.0625 z m 0,0"
       style="fill:#555555;fill-opacity:1;fill-rule:nonzero;stroke:none;stroke-width:1.33333"
       aria-label=")" /><path
       id="path449"
       d="m 2623.7296,470.01715 7.1995,-1.81476 7.1994,-2.13221 7.1994,-2.50004 7.1995,-2.92399 4.7996,-2.21505 4.7996,-2.45022 4.7996,-2.70566 4.7997,-2.98196 4.7996,-3.27938 4.7996,-3.59777 4.7996,-3.93653 4.7996,-4.29432 4.7997,-4.66912 4.7996,-5.0579 4.7996,-5.4565 4.7996,-5.85951 4.7997,-6.25999 4.7996,-6.64934 4.7996,-7.01719 7.1994,-11.13758 7.1995,-11.70903 19.1985,-31.69833 4.7996,-7.32531 4.7996,-6.74953 4.7996,-5.97626 2.3998,-2.63348 2.3999,-2.36185 2.3998,-2.0638 2.3998,-1.73968 2.3998,-1.39012 2.3998,-1.01615 2.3998,-0.61909 2.3998,-0.20076 2.3998,0.23669 2.3999,0.69068 2.3998,1.15819 2.3998,1.63577 2.3998,2.11963 2.3998,2.60551 2.3998,3.08892 2.3998,3.56497 2.3998,4.02864 2.3998,4.47468 2.3998,4.89779 2.3999,5.2927 4.7996,11.63191 4.7996,12.75 7.1994,20.36136 9.5993,27.15825 4.7996,12.61609 4.7996,11.48672 2.3998,5.23423 2.3999,4.86203 2.3998,4.4739 2.3998,4.07702 2.3998,3.67829 2.3998,3.2844 2.3998,2.90149 2.3998,2.53498 2.3998,2.18952 2.3998,1.86878 2.3999,1.57553 2.3998,1.31144 2.3998,1.07729 2.3998,0.87292 4.7996,1.24644 4.7996,0.75103 4.7997,0.42525 7.1994,0.29218 14.3989,0.12808 95.9924,0.0107 124.7902,-0.1388 7.1994,-0.29218 4.7997,-0.42525 4.7996,-0.75103 4.7996,-1.24644 2.3998,-0.87292 2.3998,-1.07729 2.3999,-1.31144 2.3998,-1.57553 2.3998,-1.86879 2.3998,-2.18952 2.3998,-2.53497 2.3998,-2.90149 2.3998,-3.2844 2.3998,-3.6783 2.3998,-4.07701 2.3999,-4.47391 2.3998,-4.86202 4.7996,-10.81776 4.7996,-12.09014 4.7996,-13.05416 16.7987,-47.38645 4.7996,-12.23577 4.7997,-10.94699 2.3998,-4.89778 2.3998,-4.47468 2.3998,-4.02864 2.3998,-3.56498 2.3998,-3.08892 2.3998,-2.6055 2.3998,-2.11963 2.3999,-1.63577 2.3998,-1.15819 2.3998,-0.69068 2.3998,-0.23669 2.3998,0.20076 2.3998,0.61909 2.3998,1.01615 2.3998,1.39012 2.3998,1.73968 2.3999,2.0638 2.3998,2.36185 2.3998,2.63348 4.7996,5.97625 4.7996,6.74954 4.7997,7.3253 7.1994,11.6736 19.1985,31.73376 7.1994,11.13759 4.7996,7.01719 4.7997,6.64934 4.7996,6.25999 4.7996,5.8595 4.7996,5.45651 4.7996,5.05789 4.7997,4.66912 4.7996,4.29432 4.7996,3.93654 4.7996,3.59777 4.7997,3.27937 4.7996,2.98196 4.7996,2.70567 4.7996,2.45021 4.7997,2.21506 7.1994,2.92398 7.1994,2.50004 7.1995,2.13222 7.1994,1.81476 v 0"
       style="fill:none;stroke:#fbc15e;stroke-width:8;stroke-linecap:square;stroke-linejoin:round;stroke-miterlimit:10;stroke-dasharray:none;stroke-opacity:1" /><path
       id="path450"
       d="M 2599.3955,502.59775 V 9.6000149"
       style="fill:none;stroke:#d3d3d3;stroke-width:6.66667;stroke-linecap:square;stroke-linejoin:miter;stroke-miterlimit:10;stroke-dasharray:none;stroke-opacity:1" /><path
       id="path451"
       d="M 3459.2,502.59775 V 9.6000149"
       style="fill:none;stroke:#d3d3d3;stroke-width:6.66667;stroke-linecap:square;stroke-linejoin:miter;stroke-miterlimit:10;stroke-dasharray:none;stroke-opacity:1" /><path
       id="path452"
       d="M 2599.3955,502.59775 H 3459.2"
       style="fill:none;stroke:#d3d3d3;stroke-width:6.66667;stroke-linecap:square;stroke-linejoin:miter;stroke-miterlimit:10;stroke-dasharray:none;stroke-opacity:1" /><path
       id="path453"
       d="M 2599.3955,9.6000149 H 3459.2"
       style="fill:none;stroke:#d3d3d3;stroke-width:6.66667;stroke-linecap:square;stroke-linejoin:miter;stroke-miterlimit:10;stroke-dasharray:none;stroke-opacity:1" /><g
       ns2:text="$U_b &lt; (U_b)_c$"
       transform="matrix(10.67622,0,0,10.67622,923.9727,-991.95701)"
       style="fill:#404040;fill-opacity:1;stroke:#404040;stroke-width:0.354014;stroke-dasharray:none;stroke-opacity:1"
       id="g481"><g
   fill="#000000"
   fill-opacity="1"
   id="g473">
<path
   d="M 6.25,-6.875 H 5.3125 l -0.640625,4.578125 c -0.15625,1.0625 -0.71875,1.625 -1.71875,1.625 C 2,-0.671875 1.625,-1.171875 1.78125,-2.25 l 0.640625,-4.625 h -0.9375 l -0.65625,4.640625 C 0.640625,-0.875 1.34375,0.125 2.90625,0.125 c 1.515625,0 2.5,-0.9375 2.6875,-2.296875 z m 0,0"
   transform="translate(178.585,110.99)"
   id="path473" />
</g>
<g
   fill="#000000"
   fill-opacity="1"
   id="g474">
<path
   d="m 2.453125,-3.34375 c 0.375,0 0.65625,0.234375 0.65625,0.90625 0,0.859375 -0.359375,2 -1.296875,2 -0.265625,0 -0.421875,-0.03125 -0.671875,-0.109375 l 0.3125,-2.25 c 0.28125,-0.28125 0.578125,-0.546875 1,-0.546875 z M 2.625,-3.859375 c -0.40625,0 -0.75,0.15625 -1.078125,0.453125 L 1.8125,-5.375 1.15625,-5.296875 0.4375,-0.171875 C 0.96875,0.015625 1.328125,0.09375 1.765625,0.09375 3.25,0.09375 3.78125,-1.3125 3.78125,-2.375 c 0,-0.953125 -0.453125,-1.484375 -1.15625,-1.484375 z m 0,0"
   transform="translate(185.12,114.478)"
   id="path474" />
</g>
<g
   fill="#000000"
   fill-opacity="1"
   id="g475">
<path
   d="M 4.15625,-4.96875 0.5,-3.265625 v 0.9375 L 4.15625,-0.625 4.484375,-1.359375 1.21875,-2.796875 4.484375,-4.203125 Z m 0,0"
   transform="translate(192.539,110.99)"
   id="path475" />
</g>
<g
   fill="#000000"
   fill-opacity="1"
   id="g477">
<path
   d="m 2.25,-7.71875 c -0.96875,1.375 -1.84375,2.5625 -1.84375,4.921875 0,2.375 0.875,3.546875 1.84375,4.9375 L 2.828125,1.75 C 1.9375,0.421875 1.359375,-0.65625 1.359375,-2.796875 1.359375,-4.9375 1.9375,-6 2.828125,-7.328125 Z m 0,0"
   transform="translate(200.27994,110.99)"
   id="path476" />
<path
   d="M 6.25,-6.875 H 5.3125 l -0.640625,4.578125 c -0.15625,1.0625 -0.71875,1.625 -1.71875,1.625 C 2,-0.671875 1.625,-1.171875 1.78125,-2.25 l 0.640625,-4.625 h -0.9375 l -0.65625,4.640625 C 0.640625,-0.875 1.34375,0.125 2.90625,0.125 c 1.515625,0 2.5,-0.9375 2.6875,-2.296875 z m 0,0"
   transform="translate(203.50782,110.99)"
   id="path477" />
</g>
<g
   fill="#000000"
   fill-opacity="1"
   id="g478">
<path
   d="m 2.453125,-3.34375 c 0.375,0 0.65625,0.234375 0.65625,0.90625 0,0.859375 -0.359375,2 -1.296875,2 -0.265625,0 -0.421875,-0.03125 -0.671875,-0.109375 l 0.3125,-2.25 c 0.28125,-0.28125 0.578125,-0.546875 1,-0.546875 z M 2.625,-3.859375 c -0.40625,0 -0.75,0.15625 -1.078125,0.453125 L 1.8125,-5.375 1.15625,-5.296875 0.4375,-0.171875 C 0.96875,0.015625 1.328125,0.09375 1.765625,0.09375 3.25,0.09375 3.78125,-1.3125 3.78125,-2.375 c 0,-0.953125 -0.453125,-1.484375 -1.15625,-1.484375 z m 0,0"
   transform="translate(210.051,114.478)"
   id="path478" />
</g>
<g
   fill="#000000"
   fill-opacity="1"
   id="g479">
<path
   d="M 0.984375,-7.71875 0.40625,-7.328125 C 1.296875,-6 1.875,-4.9375 1.875,-2.796875 1.875,-0.65625 1.296875,0.421875 0.40625,1.75 l 0.578125,0.390625 c 0.96875,-1.390625 1.84375,-2.5625 1.84375,-4.9375 0,-2.359375 -0.875,-3.546875 -1.84375,-4.921875 z m 0,0"
   transform="translate(214.703,110.99)"
   id="path479" />
</g>
<g
   fill="#000000"
   fill-opacity="1"
   id="g480">
<path
   d="m 2.28125,-3.859375 c -1.390625,0 -1.90625,1.40625 -1.90625,2.40625 0,0.96875 0.515625,1.546875 1.40625,1.546875 0.421875,0 0.8125,-0.140625 1.1875,-0.40625 L 2.703125,-0.765625 c -0.296875,0.1875 -0.546875,0.296875 -0.875,0.296875 -0.484375,0 -0.765625,-0.28125 -0.765625,-0.9375 0,-0.78125 0.28125,-1.921875 1.234375,-1.921875 0.296875,0 0.5,0.09375 0.734375,0.28125 l 0.359375,-0.40625 C 3.078125,-3.75 2.71875,-3.859375 2.28125,-3.859375 Z m 0,0"
   transform="translate(217.931,114.478)"
   id="path480" />
</g>
</g></g></svg>
