<?xml version="1.0" encoding="UTF-8" standalone="no"?>
<!-- Created with Inkscape (http://www.inkscape.org/) -->

<svg
   width="264.9744mm"
   height="91.221802mm"
   viewBox="0 0 264.9744 91.221801"
   version="1.1"
   id="svg1"
   xml:space="preserve"
   inkscape:version="1.4.3 (0d15f75042, 2025-12-25)"
   sodipodi:docname="heavyFermions.svg"
   xmlns:inkscape="http://www.inkscape.org/namespaces/inkscape"
   xmlns:sodipodi="http://sodipodi.sourceforge.net/DTD/sodipodi-0.dtd"
   xmlns="http://www.w3.org/2000/svg"
   xmlns:svg="http://www.w3.org/2000/svg"><sodipodi:namedview
     id="namedview1"
     pagecolor="#ffffff"
     bordercolor="#000000"
     borderopacity="0.25"
     inkscape:showpageshadow="2"
     inkscape:pageopacity="0.0"
     inkscape:pagecheckerboard="0"
     inkscape:deskcolor="#d1d1d1"
     inkscape:document-units="mm"
     showgrid="false"
     inkscape:zoom="0.49575348"
     inkscape:cx="464.94883"
     inkscape:cy="154.31057"
     inkscape:window-width="1920"
     inkscape:window-height="1043"
     inkscape:window-x="0"
     inkscape:window-y="0"
     inkscape:window-maximized="1"
     inkscape:current-layer="layer1" /><defs
     id="defs1"><inkscape:path-effect
       effect="spiro"
       id="path-effect100"
       is_visible="true"
       lpeversion="1" /><rect
       x="1121.0934"
       y="-390.81372"
       width="476.48813"
       height="219.22279"
       id="rect98" /><inkscape:path-effect
       effect="spiro"
       id="path-effect56"
       is_visible="true"
       lpeversion="1" /><inkscape:path-effect
       effect="spiro"
       id="path-effect54"
       is_visible="true"
       lpeversion="1" /><inkscape:path-effect
       effect="spiro"
       id="path-effect49"
       is_visible="true"
       lpeversion="1" /><inkscape:path-effect
       effect="spiro"
       id="path-effect47"
       is_visible="true"
       lpeversion="1" /><inkscape:path-effect
       effect="spiro"
       id="path-effect45"
       is_visible="true"
       lpeversion="1" /><inkscape:path-effect
       effect="spiro"
       id="path-effect43"
       is_visible="true"
       lpeversion="1" /><inkscape:path-effect
       effect="spiro"
       id="path-effect41"
       is_visible="true"
       lpeversion="1" /><inkscape:path-effect
       effect="spiro"
       id="path-effect39"
       is_visible="true"
       lpeversion="1" /><inkscape:path-effect
       effect="spiro"
       id="path-effect11"
       is_visible="true"
       lpeversion="1" /><inkscape:path-effect
       effect="spiro"
       id="path-effect9"
       is_visible="true"
       lpeversion="1" /><inkscape:path-effect
       effect="spiro"
       id="path-effect7"
       is_visible="true"
       lpeversion="1" /><inkscape:path-effect
       effect="spiro"
       id="path-effect5"
       is_visible="true"
       lpeversion="1" /><inkscape:path-effect
       effect="spiro"
       id="path-effect3"
       is_visible="true"
       lpeversion="1" /><inkscape:path-effect
       effect="spiro"
       id="path-effect1"
       is_visible="true"
       lpeversion="1" /><inkscape:path-effect
       effect="spiro"
       id="path-effect30"
       is_visible="true"
       lpeversion="1" /><inkscape:path-effect
       effect="spiro"
       id="path-effect28"
       is_visible="true"
       lpeversion="1" /><inkscape:path-effect
       effect="spiro"
       id="path-effect26"
       is_visible="true"
       lpeversion="1" /><inkscape:path-effect
       effect="spiro"
       id="path-effect24"
       is_visible="true"
       lpeversion="1" /><inkscape:path-effect
       effect="spiro"
       id="path-effect22"
       is_visible="true"
       lpeversion="1" /><inkscape:path-effect
       effect="spiro"
       id="path-effect20"
       is_visible="true"
       lpeversion="1" /><marker
       style="overflow:visible"
       id="RoundedArrow"
       refX="0"
       refY="0"
       orient="auto-start-reverse"
       inkscape:stockid="Rounded arrow"
       markerWidth="0.40000001"
       markerHeight="0.40000001"
       viewBox="0 0 1 1"
       inkscape:isstock="true"
       inkscape:collect="always"
       preserveAspectRatio="xMidYMid"><path
         transform="scale(0.7)"
         d="m -0.21114562,-4.1055728 6.42229122,3.21114561 a 1,1 90 0 1 0,1.78885438 L -0.21114562,4.1055728 A 1.236068,1.236068 31.717474 0 1 -2,3 v -6 a 1.236068,1.236068 148.28253 0 1 1.78885438,-1.1055728 z"
         style="fill:context-stroke;fill-rule:evenodd;stroke:none"
         id="path9" /></marker><rect
       x="7.7114458e-07"
       y="338.03961"
       width="278.13385"
       height="131.22212"
       id="rect18" /><rect
       x="7.7114458e-07"
       y="338.03961"
       width="278.13385"
       height="131.22212"
       id="rect31" /><rect
       x="338.87811"
       y="208.05132"
       width="361.98114"
       height="95.310059"
       id="rect30-7" /><rect
       x="7.7114458e-07"
       y="338.03961"
       width="278.13385"
       height="131.22212"
       id="rect36" /><rect
       x="338.87811"
       y="208.05132"
       width="361.98114"
       height="95.310059"
       id="rect37" /><rect
       x="7.7114458e-07"
       y="338.03961"
       width="278.13385"
       height="131.22212"
       id="rect38" /><rect
       x="7.7114458e-07"
       y="338.03961"
       width="278.13385"
       height="131.22212"
       id="rect52" /><rect
       x="7.7114458e-07"
       y="338.03961"
       width="278.13385"
       height="131.22212"
       id="rect53" /><rect
       x="1121.0934"
       y="-390.81372"
       width="329.45706"
       height="174.70412"
       id="rect99" /></defs><g
     inkscape:label="Layer 1"
     inkscape:groupmode="layer"
     id="layer1"
     transform="translate(-215.96914,-124.61367)"><circle
       style="fill:#f0a010;fill-opacity:1;stroke:none;stroke-width:2;stroke-dasharray:none;stroke-dashoffset:0;stroke-opacity:1;paint-order:markers stroke fill"
       id="circle29"
       cx="293.27634"
       cy="155.1492"
       r="7.5476494"
       inkscape:export-filename="HF2.svg"
       inkscape:export-xdpi="96"
       inkscape:export-ydpi="96" /><path
       style="fill:#a0a0a0;fill-opacity:1;stroke:#507090;stroke-width:5;stroke-dasharray:none;stroke-dashoffset:0;stroke-opacity:1;paint-order:markers stroke fill"
       d="M -32.77488,117.72044 H -7.4902546"
       id="path29"
       inkscape:path-effect="#path-effect39"
       inkscape:original-d="m -32.77488,117.72044 c 8.428209,0 25.2846254,0 25.2846254,0"
       transform="matrix(1.3432836,0,0,1,320.32015,51.147517)" /><path
       style="fill:#a0a0a0;fill-opacity:1;stroke:#507090;stroke-width:5;stroke-dasharray:none;stroke-dashoffset:0;stroke-opacity:1;paint-order:markers stroke fill"
       d="M -32.77488,117.72044 H -7.4902546"
       id="path30"
       inkscape:path-effect="#path-effect41"
       inkscape:original-d="m -32.77488,117.72044 c 8.428209,0 25.2846254,0 25.2846254,0"
       transform="matrix(1.3432836,0,0,1,375.45123,51.147517)" /><path
       style="fill:none;fill-opacity:1;stroke:#507090;stroke-width:5;stroke-dasharray:none;stroke-dashoffset:0;stroke-opacity:1;paint-order:markers stroke fill"
       d="M -32.77488,117.72044 H -7.4902546"
       id="path31"
       inkscape:path-effect="#path-effect43"
       inkscape:original-d="m -32.77488,117.72044 c 8.428209,0 25.2846254,0 25.2846254,0"
       transform="matrix(1.3432836,0,0,1,435.874,51.147517)" /><path
       style="fill:#a0a0a0;fill-opacity:1;stroke:#507090;stroke-width:5;stroke-dasharray:none;stroke-dashoffset:0;stroke-opacity:1;paint-order:markers stroke fill"
       d="M -32.77488,117.72044 H -7.4902546"
       id="path32"
       inkscape:path-effect="#path-effect45"
       inkscape:original-d="m -32.77488,117.72044 c 8.428209,0 25.2846254,0 25.2846254,0"
       transform="matrix(1.3432836,0,0,1,491.00508,51.147517)" /><circle
       style="fill:#f0a010;fill-opacity:1;stroke:none;stroke-width:2;stroke-dasharray:none;stroke-dashoffset:0;stroke-opacity:1;paint-order:markers stroke fill"
       id="circle32"
       cx="463.66809"
       cy="155.1492"
       r="7.5476494" /><circle
       style="fill:#f0a010;fill-opacity:1;stroke:none;stroke-width:2;stroke-dasharray:none;stroke-dashoffset:0;stroke-opacity:1;paint-order:markers stroke fill"
       id="circle32-0"
       cx="400.16803"
       cy="155.1492"
       r="7.5476494" /><path
       style="fill:none;fill-opacity:1;stroke:#505050;stroke-width:3;stroke-dasharray:none;stroke-dashoffset:0;stroke-opacity:1;marker-end:url(#RoundedArrow);paint-order:markers stroke fill"
       d="m -3.1337897,94.378431 c 0.4074831,-0.647268 0.8427744,-1.27703 1.3042707,-1.886964 3.0497674,-4.030711 7.2677448,-7.166728 12.00604,-8.92635 4.738296,-1.759622 9.980779,-2.13686 14.92219,-1.073768 4.941412,1.063093 9.56493,3.562895 13.160371,7.115432 3.595441,3.552537 6.150564,8.145715 7.272897,13.074009"
       id="path33"
       inkscape:path-effect="#path-effect47"
       inkscape:original-d="m -3.1337897,94.378431 c 3.96251501,-3.71093 -3.0356288,2.012655 1.3042707,-1.886964 4.3398969,-3.899619 31.637229,6.729987 47.361498,10.189323"
       sodipodi:nodetypes="csc"
       transform="translate(298.48573,51.147517)" /><path
       d="m 126.89735,338.40829 h 11.8 v 4.28 h -11.8 z m 2.96,-5.6 h 5.04 v 21.52 q 0,1.12 0.56,1.68 0.56,0.52 1.68,0.52 h 2.2 v 4.28 h -2.24 q -3.6,0 -5.44,-1.68 -1.8,-1.68 -1.8,-4.8 z m 14.58004,14 h 3.84 v 14 h -3.84 z m -3.36,0 h 3.88 v 3.28 h -3.88 z m 0,10.88 h 3.88 v 3.12 h -3.88 z m 6.64,0 h 3.92 v 3.12 h -3.92 z"
       id="text33"
       style="font-weight:500;font-size:40px;line-height:0.6;font-family:'Stack Sans Headline';-inkscape-font-specification:'Stack Sans Headline, Medium';font-variant-position:sub;text-align:center;letter-spacing:0.1px;white-space:pre;fill:#003070;stroke-width:11.3386;paint-order:markers stroke fill"
       transform="matrix(0.56443492,0,0,0.56443492,265.75541,-63.234949)"
       aria-label="t1" /><circle
       style="fill:#f0a010;fill-opacity:1;stroke:none;stroke-width:2;stroke-dasharray:none;stroke-dashoffset:0;stroke-opacity:1;paint-order:markers stroke fill"
       id="circle33"
       cx="416.043"
       cy="155.1492"
       r="7.5476494" /><path
       style="fill:none;fill-opacity:1;stroke:#505050;stroke-width:3;stroke-dasharray:none;stroke-dashoffset:0;stroke-opacity:1;marker-end:url(#RoundedArrow);paint-order:markers stroke fill"
       d="m -5.3096732,95.906873 c 1.0671535,-1.228243 2.2320892,-2.371505 3.4801542,-3.415406 7.1350962,-5.967908 17.074562,-8.424743 26.168398,-6.468301 9.093836,1.956442 17.143548,8.283458 21.1931,16.657624"
       id="path50"
       inkscape:path-effect="#path-effect54"
       inkscape:original-d="m -5.3096732,95.906873 c 3.962515,-3.71093 -0.8597453,0.484213 3.4801542,-3.415406 4.3398969,-3.899619 31.637229,6.729987 47.361498,10.189323"
       sodipodi:nodetypes="csc"
       transform="matrix(1,0,0,-1,298.48573,289.5653)" /><path
       d="m 126.63738,338.40829 h 11.8 v 4.28 h -11.8 z m 2.96,-5.6 h 5.04 v 21.52 q 0,1.12 0.56,1.68 0.56,0.52 1.68,0.52 h 2.2 v 4.28 h -2.24 q -3.6,0 -5.44,-1.68 -1.8,-1.68 -1.8,-4.8 z m 11.34004,28 q -0.12,-1.96 0.56,-3.24 0.72,-1.32 1.8,-2.16 1.08,-0.88 2.16,-1.52 1.12,-0.68 1.88,-1.32 0.76,-0.64 0.76,-1.56 0,-0.76 -0.44,-1.12 -0.4,-0.4 -1.16,-0.4 -0.96,0 -1.36,0.56 -0.4,0.56 -0.48,1.4 h -3.68 q 0,-2.28 1.6,-3.6 1.6,-1.36 3.92,-1.36 2.6,0 3.92,1.36 1.36,1.32 1.36,3.16 0,1.56 -0.72,2.56 -0.72,0.96 -1.76,1.64 -1.04,0.68 -2.08,1.4 -1.04,0.68 -1.68,1.68 -0.64,0.96 -0.52,2.52 z m 1.64,-2.96 h 9.24 v 2.96 h -10.88 z"
       id="text50"
       style="font-weight:500;font-size:40px;line-height:0.6;font-family:'Stack Sans Headline';-inkscape-font-specification:'Stack Sans Headline, Medium';font-variant-position:sub;text-align:center;letter-spacing:0.1px;white-space:pre;fill:#003070;stroke-width:11.3386;paint-order:markers stroke fill"
       transform="matrix(0.56443492,0,0,0.56443492,268.75129,11.221695)"
       aria-label="t2" /><path
       d="m 414.55073,208.70102 q 0,2.23516 -0.63217,3.83815 -0.60959,1.58042 -1.96423,2.43836 -1.35464,0.85794 -3.58981,0.85794 -2.25773,0 -3.63496,-0.85794 -1.35464,-0.85794 -1.96423,-2.43836 -0.60959,-1.60299 -0.60959,-3.83815 h 2.48351 q 0,1.53526 0.31609,2.61897 0.33866,1.08372 1.15145,1.64815 0.81278,0.56444 2.25773,0.56444 1.42238,0 2.23517,-0.56444 0.81278,-0.56443 1.12887,-1.64815 0.33866,-1.08371 0.33866,-2.61897 z m -12.39499,-9.03096 h 2.48351 v 9.03096 h -2.48351 z m 9.91148,0 h 2.48351 v 9.03096 h -2.48351 z m 3.98493,15.80417 q -0.0226,-1.08371 0.38381,-1.80619 0.42897,-0.74505 1.06114,-1.21918 0.63217,-0.4967 1.26433,-0.88052 0.65475,-0.38381 1.08372,-0.74505 0.42897,-0.38382 0.42897,-0.9031 0,-0.51928 -0.29351,-0.74505 -0.27093,-0.24835 -0.76763,-0.24835 -0.63217,0 -0.90309,0.36124 -0.27093,0.33866 -0.31609,0.85794 h -1.87392 q 0,-1.26434 0.88052,-2.00939 0.90309,-0.74505 2.23516,-0.74505 1.46753,0 2.19001,0.76763 0.72247,0.74505 0.72247,1.76103 0,0.85795 -0.42897,1.3998 -0.40639,0.54186 -1.01598,0.94825 -0.60959,0.38382 -1.21918,0.79021 -0.58701,0.4064 -0.99341,0.97083 -0.38381,0.56444 -0.33866,1.44495 z m 0.92567,-1.53526 h 5.1928 v 1.53526 h -6.11847 z"
       id="text52"
       style="font-size:40px;line-height:0.6;font-family:'Stack Sans Headline';-inkscape-font-specification:'Stack Sans Headline, Normal';font-variant-position:sub;text-align:center;letter-spacing:0.1px;white-space:pre;fill:#003070;stroke-width:6.3999;paint-order:markers stroke fill"
       aria-label="U2" /><rect
       style="opacity:1;fill:#a090c0;fill-opacity:1;stroke:none;stroke-width:6.00001;stroke-dasharray:none;stroke-dashoffset:0;stroke-opacity:1;paint-order:markers stroke fill"
       id="rect94"
       width="15.095299"
       height="15.095299"
       x="285.72867"
       y="175.64738" /><rect
       style="opacity:1;fill:#a090c0;fill-opacity:1;stroke:none;stroke-width:6.00001;stroke-dasharray:none;stroke-dashoffset:0;stroke-opacity:1;paint-order:markers stroke fill"
       id="rect95"
       width="15.095299"
       height="15.095299"
       x="392.62015"
       y="175.64738" /><rect
       style="opacity:1;fill:#a090c0;fill-opacity:1;stroke:none;stroke-width:6.00001;stroke-dasharray:none;stroke-dashoffset:0;stroke-opacity:1;paint-order:markers stroke fill"
       id="rect97"
       width="15.095299"
       height="15.095299"
       x="456.6492"
       y="175.64738" /><rect
       style="fill:#a090c0;fill-opacity:1;stroke:none;stroke-width:6.00001;stroke-dasharray:none;stroke-dashoffset:0;stroke-opacity:1;paint-order:markers stroke fill"
       id="rect97-6"
       width="15.095299"
       height="15.095299"
       x="409.55347"
       y="175.64738" /><text
       xml:space="preserve"
       transform="matrix(0.26458333,0,0,0.26458333,69.861828,226.67339)"
       id="text97"
       style="font-style:normal;font-variant:normal;font-weight:normal;font-stretch:normal;font-size:73.3333px;line-height:1.1;font-family:'Stack Sans Headline';-inkscape-font-specification:'Stack Sans Headline, Normal';font-variant-ligatures:normal;font-variant-position:sub;font-variant-caps:normal;font-variant-numeric:normal;font-variant-east-asian:normal;text-align:center;text-decoration-color:#000000;letter-spacing:0.1px;writing-mode:lr-tb;direction:ltr;white-space:pre;shape-inside:url(#rect98);display:inline;opacity:1;fill:#404040;fill-opacity:1;stroke:none;stroke-width:7.55906;stroke-dasharray:15.1181, 7.55906;stroke-dashoffset:0;stroke-opacity:1;paint-order:markers stroke fill"><tspan
         x="1161.3145"
         y="-330.73756"
         id="tspan1">delocalised</tspan></text><text
       xml:space="preserve"
       transform="matrix(0.26458333,0,0,0.26458333,-84.666904,303.03266)"
       id="text99"
       style="font-style:normal;font-variant:normal;font-weight:normal;font-stretch:normal;font-size:73.3333px;line-height:1.1;font-family:'Stack Sans Headline';-inkscape-font-specification:'Stack Sans Headline, Normal';font-variant-ligatures:normal;font-variant-position:sub;font-variant-caps:normal;font-variant-numeric:normal;font-variant-east-asian:normal;text-align:center;text-decoration-color:#000000;letter-spacing:0.1px;writing-mode:lr-tb;direction:ltr;white-space:pre;shape-inside:url(#rect99);display:inline;opacity:1;fill:#404040;fill-opacity:1;stroke:none;stroke-width:7.55906;stroke-dasharray:15.1181, 7.55906;stroke-dashoffset:0;stroke-opacity:1;paint-order:markers stroke fill"><tspan
         x="1132.5222"
         y="-330.73756"
         id="tspan2">localised</tspan></text><path
       style="fill:#a0a0a0;fill-opacity:1;stroke:#507090;stroke-width:5;stroke-dasharray:none;stroke-dashoffset:0;stroke-opacity:1;paint-order:markers stroke fill"
       d="M -32.77488,117.72044 H -7.4902546"
       id="path99"
       inkscape:path-effect="#path-effect100"
       inkscape:original-d="m -32.77488,117.72044 c 8.428209,0 25.2846254,0 25.2846254,0"
       transform="matrix(1.3432836,0,0,1,265.28677,51.147517)" /></g></svg>
