<?xml version="1.0" encoding="UTF-8" standalone="no"?>
<!-- Created with Inkscape (http://www.inkscape.org/) -->

<svg
   width="183.17975mm"
   height="81.503448mm"
   viewBox="0 0 183.17974 81.503449"
   version="1.1"
   id="svg1"
   xml:space="preserve"
   inkscape:version="1.4.3 (0d15f75042, 2025-12-25)"
   sodipodi:docname="holesDoubles.svg"
   inkscape:export-filename="holesDoubles1.svg"
   inkscape:export-xdpi="96"
   inkscape:export-ydpi="96"
   xmlns:inkscape="http://www.inkscape.org/namespaces/inkscape"
   xmlns:sodipodi="http://sodipodi.sourceforge.net/DTD/sodipodi-0.dtd"
   xmlns="http://www.w3.org/2000/svg"
   xmlns:svg="http://www.w3.org/2000/svg"
   xmlns:ns4="http://www.iki.fi/pav/software/textext/"><sodipodi:namedview
     id="namedview1"
     pagecolor="#ffffff"
     bordercolor="#000000"
     borderopacity="0.25"
     inkscape:showpageshadow="2"
     inkscape:pageopacity="0.0"
     inkscape:pagecheckerboard="0"
     inkscape:deskcolor="#d1d1d1"
     inkscape:document-units="mm"
     showgrid="false"
     inkscape:zoom="0.70110129"
     inkscape:cx="1237.339"
     inkscape:cy="166.16715"
     inkscape:window-width="1920"
     inkscape:window-height="1043"
     inkscape:window-x="0"
     inkscape:window-y="0"
     inkscape:window-maximized="1"
     inkscape:current-layer="layer1"><inkscape:page
       x="-2.2480851e-20"
       y="0"
       width="183.17975"
       height="81.503448"
       id="page2"
       margin="0"
       bleed="0" /></sodipodi:namedview><defs
     id="defs1"><inkscape:path-effect
       effect="spiro"
       id="path-effect55"
       is_visible="true"
       lpeversion="1" /><marker
       style="overflow:visible"
       id="RoundedArrow"
       refX="0"
       refY="0"
       orient="auto-start-reverse"
       inkscape:stockid="Rounded arrow"
       markerWidth="0.5"
       markerHeight="0.5"
       viewBox="0 0 1 1"
       inkscape:isstock="true"
       inkscape:collect="always"
       preserveAspectRatio="xMidYMid"><path
         transform="scale(0.7)"
         d="m -0.21114562,-4.1055728 6.42229122,3.21114561 a 1,1 90 0 1 0,1.78885438 L -0.21114562,4.1055728 A 1.236068,1.236068 31.717474 0 1 -2,3 v -6 a 1.236068,1.236068 148.28253 0 1 1.78885438,-1.1055728 z"
         style="fill:context-stroke;fill-rule:evenodd;stroke:none"
         id="path37" /></marker><inkscape:path-effect
       effect="spiro"
       id="path-effect36"
       is_visible="true"
       lpeversion="1" /><inkscape:path-effect
       effect="spiro"
       id="path-effect34"
       is_visible="true"
       lpeversion="1" /><inkscape:path-effect
       effect="spiro"
       id="path-effect32"
       is_visible="true"
       lpeversion="1" /><inkscape:path-effect
       effect="spiro"
       id="path-effect30"
       is_visible="true"
       lpeversion="1" /><inkscape:path-effect
       effect="spiro"
       id="path-effect28"
       is_visible="true"
       lpeversion="1" /><inkscape:path-effect
       effect="spiro"
       id="path-effect26"
       is_visible="true"
       lpeversion="1" /></defs><g
     inkscape:label="Layer 1"
     inkscape:groupmode="layer"
     id="layer1"
     transform="translate(-295.85856,-107.06286)"><path
       style="fill:none;fill-opacity:1;stroke:#404040;stroke-width:2;stroke-dasharray:4, 4;stroke-dashoffset:0;stroke-opacity:1"
       d="M 48.92662,46.550947 70.296235,126.30343"
       id="path4"
       inkscape:export-filename="holesDoubles2.svg"
       inkscape:export-xdpi="96"
       inkscape:export-ydpi="96"
       transform="translate(257.8695,62.004061)"
       inkscape:original-d="m 48.92662,46.550947 c 7.137974,26.639284 14.253794,53.195884 21.369615,79.752483"
       inkscape:path-effect="#path-effect26" /><path
       style="fill:none;fill-opacity:1;stroke:#404040;stroke-width:2;stroke-dasharray:4, 4;stroke-dashoffset:0;stroke-opacity:1"
       d="M 48.92662,46.550947 70.296235,126.30343"
       id="path7"
       transform="translate(289.61952,62.004061)"
       inkscape:original-d="m 48.92662,46.550947 c 7.137974,26.639284 14.253794,53.195884 21.369615,79.752483"
       inkscape:path-effect="#path-effect28" /><path
       style="fill:none;fill-opacity:1;stroke:#404040;stroke-width:2;stroke-dasharray:4, 4;stroke-dashoffset:0;stroke-opacity:1"
       d="M 48.92662,46.550947 70.296235,126.30343"
       id="path9"
       transform="translate(321.36954,62.004061)"
       inkscape:original-d="m 48.92662,46.550947 c 7.137974,26.639284 14.253794,53.195884 21.369615,79.752483"
       inkscape:path-effect="#path-effect30" /><path
       style="fill:none;fill-opacity:1;stroke:#404040;stroke-width:1.75694;stroke-dasharray:3.5139, 3.5139;stroke-dashoffset:0;stroke-opacity:1"
       d="M 47.580414,46.550947 H 112.42662"
       id="path11"
       transform="matrix(1.2958173,0,0,1,234.20306,72.587395)"
       inkscape:original-d="m 47.580414,46.550947 c 22.512872,0 43.679541,0 64.846206,0"
       inkscape:path-effect="#path-effect32" /><path
       style="fill:none;fill-opacity:1;stroke:#404040;stroke-width:1.75694;stroke-dasharray:3.5139, 3.5139;stroke-dashoffset:0;stroke-opacity:1"
       d="M 47.580414,46.550947 H 112.42662"
       id="path12"
       transform="matrix(1.2958173,0,0,1,244.78641,99.04573)"
       inkscape:original-d="m 47.580414,46.550947 c 22.512872,0 43.679541,0 64.846206,0"
       inkscape:path-effect="#path-effect34" /><path
       style="fill:none;fill-opacity:1;stroke:#404040;stroke-width:1.75694;stroke-dasharray:3.5139, 3.5139;stroke-dashoffset:0;stroke-opacity:1"
       d="M 47.580414,46.550947 H 112.42662"
       id="path13"
       transform="matrix(1.2958173,0,0,1,255.36975,125.50407)"
       inkscape:original-d="m 47.580414,46.550947 c 22.512872,0 43.679541,0 64.846206,0"
       inkscape:path-effect="#path-effect36" /><circle
       style="fill:#204070;fill-opacity:1;stroke:none;stroke-width:2;stroke-dasharray:4, 4;stroke-dashoffset:0;stroke-opacity:1"
       id="circle17"
       cx="348.80197"
       cy="145.59668"
       r="7.2761693" /><circle
       style="fill:#204070;fill-opacity:1;stroke:none;stroke-width:2;stroke-dasharray:4, 4;stroke-dashoffset:0;stroke-opacity:1"
       id="circle18"
       cx="317.24405"
       cy="145.6669"
       r="7.2761693" /><circle
       style="fill:#204070;fill-opacity:1;stroke:none;stroke-width:2;stroke-dasharray:4, 4;stroke-dashoffset:0;stroke-opacity:1"
       id="circle19"
       cx="380.7439"
       cy="145.6669"
       r="7.2761693" /><circle
       style="fill:#204070;fill-opacity:1;stroke:none;stroke-width:2;stroke-dasharray:4, 4;stroke-dashoffset:0;stroke-opacity:1"
       id="circle20"
       cx="341.39362"
       cy="119.13834"
       r="7.2761693" /><circle
       style="fill:#204070;fill-opacity:1;stroke:none;stroke-width:2;stroke-dasharray:4, 4;stroke-dashoffset:0;stroke-opacity:1"
       id="circle21"
       cx="309.83569"
       cy="119.20856"
       r="7.2761693" /><circle
       style="fill:#204070;fill-opacity:1;stroke:none;stroke-width:2;stroke-dasharray:4, 4;stroke-dashoffset:0;stroke-opacity:1"
       id="circle22"
       cx="373.3356"
       cy="119.20856"
       r="7.2761693" /><circle
       style="fill:#c05030;fill-opacity:1;stroke:none;stroke-width:1.6552;stroke-dasharray:3.31041, 3.31041;stroke-dashoffset:0;stroke-opacity:1"
       id="circle23"
       cx="350.17032"
       cy="172.05499"
       r="6.0217667" /><circle
       style="fill:#204070;fill-opacity:1;stroke:none;stroke-width:2;stroke-dasharray:4, 4;stroke-dashoffset:0;stroke-opacity:1"
       id="circle24"
       cx="324.1232"
       cy="172.12521"
       r="7.2761693" /><circle
       style="fill:#204070;fill-opacity:1;stroke:none;stroke-width:2;stroke-dasharray:4, 4;stroke-dashoffset:0;stroke-opacity:1"
       id="circle25"
       cx="387.62308"
       cy="172.12521"
       r="7.2761693" /><path
       style="opacity:1;fill:none;fill-opacity:1;stroke:#404040;stroke-width:3;stroke-dasharray:none;stroke-dashoffset:0;stroke-opacity:1;marker-end:url(#RoundedArrow);paint-order:markers stroke fill"
       d="m 149.2149,124.22044 c -5.64391,-1.03244 -11.54561,-0.62264 -16.99266,1.17991 -5.44705,1.80256 -10.4282,4.99415 -14.34211,9.18949 -4.81044,5.15633 -7.97549,11.82506 -8.92845,18.81218"
       id="path38"
       inkscape:path-effect="#path-effect55"
       inkscape:original-d="m 149.2149,124.22044 c -4.22746,0.98162 -26.57226,9.38777 -31.33477,10.3694 -4.7625,0.98162 -1.73768,10.99777 -8.92845,18.81218"
       sodipodi:nodetypes="csc"
       transform="translate(255.5876,-0.52916653)" /><g
       id="g54"
       transform="matrix(2.15431,0,0,2.15431,410.19145,107.0634)"
       ns4:version="1.12.0"
       ns4:texconverter="xelatex"
       ns4:pdfconverter="inkscape"
       ns4:text="$n_{k,\\downarrow}c^\\dagger_{k,\\uparrow}$"
       ns4:preamble="/usr/share/inkscape/extensions/textext/default_packages.tex"
       ns4:scale="6.106684235797754"
       ns4:alignment="middle center"
       ns4:inkscapeversion="1.4.3"
       ns4:jacobian_sqrt="2.15431"><defs
   id="defs2313" />
  <g
   fill="#000000"
   fill-opacity="1"
   id="g1125"
   transform="translate(-149.009,-125.071)">
    <g
   transform="translate(148.712,134.765)"
   id="g6425"><path
   d="m 0.875,-0.59375 c -0.03125,0.15625 -0.09375,0.390625 -0.09375,0.4375 0,0.171875 0.140625,0.265625 0.296875,0.265625 0.125,0 0.296875,-0.078125 0.375,-0.28125 0,-0.015625 0.125,-0.484375 0.1875,-0.734375 l 0.21875,-0.890625 C 1.90625,-2.03125 1.96875,-2.25 2.03125,-2.46875 c 0.03125,-0.171875 0.109375,-0.46875 0.125,-0.5 0.140625,-0.3125 0.671875,-1.21875 1.625,-1.21875 0.453125,0 0.53125,0.375 0.53125,0.703125 0,0.609375 -0.484375,1.890625 -0.640625,2.3125 C 3.578125,-0.9375 3.5625,-0.8125 3.5625,-0.703125 c 0,0.46875 0.359375,0.8125 0.828125,0.8125 0.9375,0 1.296875,-1.453125 1.296875,-1.53125 0,-0.109375 -0.078125,-0.109375 -0.109375,-0.109375 -0.109375,0 -0.109375,0.03125 -0.15625,0.1875 -0.203125,0.671875 -0.53125,1.234375 -1.015625,1.234375 -0.171875,0 -0.234375,-0.09375 -0.234375,-0.328125 0,-0.25 0.078125,-0.484375 0.171875,-0.703125 0.1875,-0.53125 0.609375,-1.625 0.609375,-2.203125 0,-0.65625 -0.421875,-1.0625 -1.140625,-1.0625 -0.90625,0 -1.390625,0.640625 -1.5625,0.875 -0.046875,-0.5625 -0.453125,-0.875 -0.921875,-0.875 -0.453125,0 -0.640625,0.390625 -0.734375,0.5625 C 0.421875,-3.5 0.296875,-2.90625 0.296875,-2.875 c 0,0.109375 0.09375,0.109375 0.109375,0.109375 0.109375,0 0.109375,-0.015625 0.171875,-0.234375 0.171875,-0.703125 0.375,-1.1875 0.734375,-1.1875 0.1875,0 0.296875,0.125 0.296875,0.453125 0,0.21875 -0.03125,0.328125 -0.15625,0.84375 z m 0,0"
   id="path5905" />
      </g></g>
  <g
   fill="#000000"
   fill-opacity="1"
   id="g8976"
   transform="translate(-149.009,-125.071)">
    <g
   transform="translate(154.692,136.259)"
   id="g3906"><path
   d="m 2.1875,-4.625 c 0,-0.015625 0.015625,-0.109375 0.015625,-0.109375 0,-0.046875 -0.015625,-0.109375 -0.109375,-0.109375 -0.140625,0 -0.71875,0.0625 -0.890625,0.078125 -0.046875,0 -0.15625,0.015625 -0.15625,0.15625 0,0.09375 0.109375,0.09375 0.1875,0.09375 0.328125,0 0.328125,0.0625 0.328125,0.109375 0,0.046875 -0.015625,0.09375 -0.015625,0.15625 L 0.5625,-0.3125 c -0.046875,0.125 -0.046875,0.140625 -0.046875,0.15625 0,0.109375 0.09375,0.21875 0.25,0.21875 0.1875,0 0.265625,-0.125 0.3125,-0.28125 0.015625,-0.03125 0.3125,-1.265625 0.34375,-1.359375 0.5,0.046875 0.890625,0.21875 0.890625,0.578125 0,0.03125 0,0.0625 -0.015625,0.140625 -0.03125,0.09375 -0.03125,0.140625 -0.03125,0.21875 0,0.484375 0.40625,0.703125 0.75,0.703125 0.671875,0 0.875,-1.046875 0.875,-1.0625 0,-0.09375 -0.078125,-0.09375 -0.109375,-0.09375 -0.09375,0 -0.109375,0.046875 -0.140625,0.171875 C 3.5625,-0.625 3.375,-0.125 3.03125,-0.125 c -0.1875,0 -0.25,-0.171875 -0.25,-0.359375 0,-0.125 0,-0.140625 0.046875,-0.3125 0.015625,-0.03125 0.03125,-0.140625 0.03125,-0.21875 0,-0.625 -0.828125,-0.71875 -1.125,-0.734375 C 1.9375,-1.875 2.1875,-2.109375 2.3125,-2.21875 2.671875,-2.546875 3.015625,-2.875 3.40625,-2.875 c 0.078125,0 0.171875,0.015625 0.234375,0.09375 C 3.34375,-2.734375 3.28125,-2.5 3.28125,-2.390625 c 0,0.140625 0.109375,0.25 0.265625,0.25 0.203125,0 0.40625,-0.15625 0.40625,-0.4375 0,-0.234375 -0.171875,-0.5 -0.53125,-0.5 -0.40625,0 -0.765625,0.296875 -1.125,0.625 C 2,-2.1875 1.78125,-1.96875 1.484375,-1.84375 Z m 0,0"
   id="path1619" />
      </g></g>
  <g
   fill="#000000"
   fill-opacity="1"
   id="g2847"
   transform="translate(-149.009,-125.071)">
    <g
   transform="translate(159.092,136.259)"
   id="g5280"><path
   d="m 1.46875,-0.109375 c 0,0.375 -0.0625,0.828125 -0.546875,1.265625 C 0.90625,1.1875 0.875,1.21875 0.875,1.25 c 0,0.046875 0.0625,0.09375 0.09375,0.09375 0.109375,0 0.703125,-0.5625 0.703125,-1.390625 0,-0.421875 -0.171875,-0.75 -0.5,-0.75 -0.21875,0 -0.390625,0.171875 -0.390625,0.390625 C 0.78125,-0.1875 0.9375,0 1.1875,0 1.359375,0 1.46875,-0.109375 1.46875,-0.109375 Z m 0,0"
   id="path55" />
      </g></g>
  <g
   fill="#000000"
   fill-opacity="1"
   id="g64"
   transform="translate(-149.009,-125.071)">
    <g
   transform="translate(161.462,136.259)"
   id="g4212"><path
   d="m 2.203125,-4.5625 c 0,-0.109375 0,-0.28125 -0.15625,-0.28125 C 1.875,-4.84375 1.875,-4.671875 1.875,-4.5625 v 4.890625 c -0.609375,-0.84375 -1.5,-0.984375 -1.546875,-0.984375 -0.09375,0 -0.09375,0.09375 -0.09375,0.171875 0,0.078125 0,0.140625 0.09375,0.15625 0.21875,0.0625 0.640625,0.1875 1.03125,0.5625 C 1.765625,0.625 1.875,1.03125 1.9375,1.203125 c 0.015625,0.09375 0.03125,0.15625 0.109375,0.15625 0.0625,0 0.078125,-0.046875 0.109375,-0.1875 0.1875,-0.625 0.65625,-1.234375 1.53125,-1.46875 0.140625,-0.03125 0.15625,-0.046875 0.15625,-0.1875 0,-0.078125 0,-0.171875 -0.09375,-0.171875 -0.046875,0 -0.9375,0.140625 -1.546875,0.984375 z m 0,0"
   id="path3909" />
      </g></g>
  <g
   fill="#000000"
   fill-opacity="1"
   id="g889"
   transform="translate(-149.009,-125.071)">
    <g
   transform="translate(166.042,134.765)"
   id="g5175"><path
   d="m 3.953125,-3.78125 c -0.171875,0 -0.296875,0 -0.4375,0.125 -0.171875,0.15625 -0.1875,0.328125 -0.1875,0.390625 0,0.25 0.1875,0.359375 0.375,0.359375 0.28125,0 0.546875,-0.25 0.546875,-0.640625 0,-0.484375 -0.46875,-0.859375 -1.171875,-0.859375 -1.34375,0 -2.671875,1.421875 -2.671875,2.828125 0,0.90625 0.578125,1.6875 1.625,1.6875 1.421875,0 2.25,-1.0625 2.25,-1.171875 0,-0.0625 -0.046875,-0.140625 -0.109375,-0.140625 -0.0625,0 -0.078125,0.03125 -0.140625,0.109375 -0.78125,0.984375 -1.875,0.984375 -1.984375,0.984375 -0.625,0 -0.90625,-0.484375 -0.90625,-1.09375 0,-0.40625 0.203125,-1.375 0.546875,-1.984375 0.3125,-0.578125 0.859375,-1 1.40625,-1 0.328125,0 0.71875,0.125 0.859375,0.40625 z m 0,0"
   id="path7780" />
      </g></g>
  <g
   fill="#000000"
   fill-opacity="1"
   id="g6172"
   transform="translate(-149.009,-125.071)">
    <g
   transform="translate(170.353,129.977)"
   id="g5055"><path
   d="m 1.90625,-2.90625 c 0.109375,0 0.171875,0.015625 0.390625,0.0625 0.21875,0.0625 0.390625,0.109375 0.515625,0.109375 0.28125,0 0.296875,-0.203125 0.296875,-0.265625 0,-0.0625 -0.015625,-0.28125 -0.296875,-0.28125 -0.125,0 -0.296875,0.046875 -0.515625,0.109375 -0.21875,0.0625 -0.28125,0.0625 -0.390625,0.078125 0.015625,-0.25 0.0625,-0.53125 0.09375,-0.75 0.03125,-0.140625 0.09375,-0.5 0.09375,-0.734375 0,-0.21875 -0.09375,-0.328125 -0.265625,-0.328125 -0.15625,0 -0.28125,0.078125 -0.28125,0.328125 0,0.21875 0.0625,0.578125 0.109375,0.8125 0.015625,0.078125 0.078125,0.40625 0.078125,0.671875 C 1.640625,-3.109375 1.5625,-3.109375 1.359375,-3.171875 1.140625,-3.234375 0.96875,-3.28125 0.84375,-3.28125 c -0.28125,0 -0.3125,0.21875 -0.3125,0.28125 0,0.046875 0.03125,0.265625 0.3125,0.265625 0.125,0 0.296875,-0.046875 0.515625,-0.109375 0.203125,-0.046875 0.28125,-0.0625 0.375,-0.0625 0,0.171875 -0.0625,0.390625 -0.09375,0.53125 -0.09375,0.4375 -0.09375,0.484375 -0.09375,0.84375 0,1.34375 0.140625,2.78125 0.15625,2.921875 0.015625,0.0625 0.03125,0.09375 0.125,0.09375 0.109375,0 0.109375,-0.03125 0.125,-0.125 0,-0.015625 0.046875,-0.625 0.078125,-1.046875 0.03125,-0.609375 0.0625,-1.21875 0.0625,-1.84375 0,-0.359375 0,-0.40625 -0.09375,-0.859375 -0.015625,-0.0625 -0.078125,-0.34375 -0.09375,-0.515625 z m 0,0"
   id="path6274" />
      </g></g>
  <g
   fill="#000000"
   fill-opacity="1"
   id="g4460"
   transform="translate(-149.009,-125.071)">
    <g
   transform="translate(170.353,137.77)"
   id="g6944"><path
   d="m 2.1875,-4.625 c 0,-0.015625 0.015625,-0.109375 0.015625,-0.109375 0,-0.046875 -0.015625,-0.109375 -0.109375,-0.109375 -0.140625,0 -0.71875,0.0625 -0.890625,0.078125 -0.046875,0 -0.15625,0.015625 -0.15625,0.15625 0,0.09375 0.109375,0.09375 0.1875,0.09375 0.328125,0 0.328125,0.0625 0.328125,0.109375 0,0.046875 -0.015625,0.09375 -0.015625,0.15625 L 0.5625,-0.3125 c -0.046875,0.125 -0.046875,0.140625 -0.046875,0.15625 0,0.109375 0.09375,0.21875 0.25,0.21875 0.1875,0 0.265625,-0.125 0.3125,-0.28125 0.015625,-0.03125 0.3125,-1.265625 0.34375,-1.359375 0.5,0.046875 0.890625,0.21875 0.890625,0.578125 0,0.03125 0,0.0625 -0.015625,0.140625 -0.03125,0.09375 -0.03125,0.140625 -0.03125,0.21875 0,0.484375 0.40625,0.703125 0.75,0.703125 0.671875,0 0.875,-1.046875 0.875,-1.0625 0,-0.09375 -0.078125,-0.09375 -0.109375,-0.09375 -0.09375,0 -0.109375,0.046875 -0.140625,0.171875 C 3.5625,-0.625 3.375,-0.125 3.03125,-0.125 c -0.1875,0 -0.25,-0.171875 -0.25,-0.359375 0,-0.125 0,-0.140625 0.046875,-0.3125 0.015625,-0.03125 0.03125,-0.140625 0.03125,-0.21875 0,-0.625 -0.828125,-0.71875 -1.125,-0.734375 C 1.9375,-1.875 2.1875,-2.109375 2.3125,-2.21875 2.671875,-2.546875 3.015625,-2.875 3.40625,-2.875 c 0.078125,0 0.171875,0.015625 0.234375,0.09375 C 3.34375,-2.734375 3.28125,-2.5 3.28125,-2.390625 c 0,0.140625 0.109375,0.25 0.265625,0.25 0.203125,0 0.40625,-0.15625 0.40625,-0.4375 0,-0.234375 -0.171875,-0.5 -0.53125,-0.5 -0.40625,0 -0.765625,0.296875 -1.125,0.625 C 2,-2.1875 1.78125,-1.96875 1.484375,-1.84375 Z m 0,0"
   id="path1106" />
      </g></g>
  <g
   fill="#000000"
   fill-opacity="1"
   id="g9580"
   transform="translate(-149.009,-125.071)">
    <g
   transform="translate(174.753,137.77)"
   id="g4142"><path
   d="m 1.46875,-0.109375 c 0,0.375 -0.0625,0.828125 -0.546875,1.265625 C 0.90625,1.1875 0.875,1.21875 0.875,1.25 c 0,0.046875 0.0625,0.09375 0.09375,0.09375 0.109375,0 0.703125,-0.5625 0.703125,-1.390625 0,-0.421875 -0.171875,-0.75 -0.5,-0.75 -0.21875,0 -0.390625,0.171875 -0.390625,0.390625 C 0.78125,-0.1875 0.9375,0 1.1875,0 1.359375,0 1.46875,-0.109375 1.46875,-0.109375 Z m 0,0"
   id="path3363" />
      </g></g>
  <g
   fill="#000000"
   fill-opacity="1"
   id="g1247"
   transform="translate(-149.009,-125.071)">
    <g
   transform="translate(177.123,137.77)"
   id="g6402"><path
   d="m 2.203125,-3.8125 c 0.609375,0.84375 1.5,0.984375 1.546875,0.984375 0.09375,0 0.09375,-0.09375 0.09375,-0.171875 0,-0.078125 0,-0.140625 -0.09375,-0.15625 C 3.46875,-3.234375 2.5,-3.484375 2.15625,-4.6875 2.125,-4.796875 2.109375,-4.84375 2.046875,-4.84375 1.984375,-4.84375 1.953125,-4.796875 1.9375,-4.75 1.859375,-4.453125 1.59375,-3.5 0.390625,-3.1875 0.25,-3.15625 0.234375,-3.140625 0.234375,-3 c 0,0.078125 0,0.171875 0.09375,0.171875 0.046875,0 0.9375,-0.140625 1.546875,-0.984375 v 4.890625 c 0,0.109375 0,0.28125 0.15625,0.28125 0.171875,0 0.171875,-0.171875 0.171875,-0.28125 z m 0,0"
   id="path9440" />
      </g></g>
</g><path
       d="m 584.00294,260.64737 q 1.01562,0 1.53645,1.66667 1.04167,3.12499 1.48438,3.12499 0.33854,0 0.70312,-0.52083 7.31771,-11.71874 13.54166,-18.95832 1.61458,-1.875 5.13021,-1.875 0.83333,0 1.11979,0.15625 0.28646,0.15625 0.28646,0.39063 0,0.36458 -0.85938,1.43229 -10.05208,12.08332 -18.64582,25.52081 -0.59896,0.9375 -2.44792,0.9375 -1.875,0 -2.21354,-0.15625 -0.88541,-0.39062 -2.08333,-3.98437 -1.35417,-3.98437 -1.35417,-5 0,-1.09375 1.82292,-2.10937 1.11979,-0.625 1.97917,-0.625 z"
       id="text54"
       style="font-size:53.3333px;line-height:1.1;font-family:'Stack Sans Headline';-inkscape-font-specification:'Stack Sans Headline, Normal';text-align:center;letter-spacing:0.1px;white-space:pre;fill:#40a070;stroke-width:11.3386;paint-order:markers stroke fill"
       transform="matrix(1.0672605,0,0,1.0672605,-207.57145,-116.02069)"
       aria-label="✓" /><circle
       style="fill:#c05030;fill-opacity:1;stroke:none;stroke-width:1.6552;stroke-dasharray:3.31041, 3.31041;stroke-dashoffset:0;stroke-opacity:1"
       id="circle1"
       cx="363.30847"
       cy="172.05499"
       r="6.0217667" /></g></svg>
