<?xml version="1.0" encoding="UTF-8" standalone="no"?>
<!-- Created with Inkscape (http://www.inkscape.org/) -->

<svg
   width="143.19881mm"
   height="80.616058mm"
   viewBox="0 0 143.19881 80.616059"
   version="1.1"
   id="svg1"
   xml:space="preserve"
   inkscape:version="1.4.3 (0d15f75042, 2025-12-25)"
   sodipodi:docname="holesDoubles.svg"
   inkscape:export-filename="holesDoubles1.svg"
   inkscape:export-xdpi="96"
   inkscape:export-ydpi="96"
   xmlns:inkscape="http://www.inkscape.org/namespaces/inkscape"
   xmlns:sodipodi="http://sodipodi.sourceforge.net/DTD/sodipodi-0.dtd"
   xmlns="http://www.w3.org/2000/svg"
   xmlns:svg="http://www.w3.org/2000/svg"
   xmlns:ns2="http://www.iki.fi/pav/software/textext/"><sodipodi:namedview
     id="namedview1"
     pagecolor="#ffffff"
     bordercolor="#000000"
     borderopacity="0.25"
     inkscape:showpageshadow="2"
     inkscape:pageopacity="0.0"
     inkscape:pagecheckerboard="0"
     inkscape:deskcolor="#d1d1d1"
     inkscape:document-units="mm"
     showgrid="false"
     inkscape:zoom="0.70110129"
     inkscape:cx="666.80807"
     inkscape:cy="166.16715"
     inkscape:window-width="1920"
     inkscape:window-height="1043"
     inkscape:window-x="0"
     inkscape:window-y="0"
     inkscape:window-maximized="1"
     inkscape:current-layer="layer1"><inkscape:page
       x="2.1721832e-27"
       y="0"
       width="143.19881"
       height="80.616058"
       id="page2"
       margin="0"
       bleed="0" /></sodipodi:namedview><defs
     id="defs1"><marker
       style="overflow:visible"
       id="RoundedArrow"
       refX="0"
       refY="0"
       orient="auto-start-reverse"
       inkscape:stockid="Rounded arrow"
       markerWidth="0.5"
       markerHeight="0.5"
       viewBox="0 0 1 1"
       inkscape:isstock="true"
       inkscape:collect="always"
       preserveAspectRatio="xMidYMid"><path
         transform="scale(0.7)"
         d="m -0.21114562,-4.1055728 6.42229122,3.21114561 a 1,1 90 0 1 0,1.78885438 L -0.21114562,4.1055728 A 1.236068,1.236068 31.717474 0 1 -2,3 v -6 a 1.236068,1.236068 148.28253 0 1 1.78885438,-1.1055728 z"
         style="fill:context-stroke;fill-rule:evenodd;stroke:none"
         id="path37" /></marker><inkscape:path-effect
       effect="spiro"
       id="path-effect37"
       is_visible="true"
       lpeversion="1" /><inkscape:path-effect
       effect="spiro"
       id="path-effect10"
       is_visible="true"
       lpeversion="1" /><inkscape:path-effect
       effect="spiro"
       id="path-effect8"
       is_visible="true"
       lpeversion="1" /><inkscape:path-effect
       effect="spiro"
       id="path-effect6"
       is_visible="true"
       lpeversion="1" /><inkscape:path-effect
       effect="spiro"
       id="path-effect5"
       is_visible="true"
       lpeversion="1" /><inkscape:path-effect
       effect="spiro"
       id="path-effect3"
       is_visible="true"
       lpeversion="1" /><inkscape:path-effect
       effect="spiro"
       id="path-effect1"
       is_visible="true"
       lpeversion="1" /></defs><g
     inkscape:label="Layer 1"
     inkscape:groupmode="layer"
     id="layer1"
     transform="translate(-52.441831,-108.296)"><path
       style="fill:none;fill-opacity:1;stroke:#404040;stroke-width:2;stroke-dasharray:4, 4;stroke-dashoffset:0;stroke-opacity:1"
       d="M 48.92662,46.550947 70.296235,126.30343"
       id="path1"
       inkscape:export-filename="holesDoubles1.svg"
       inkscape:export-xdpi="96"
       inkscape:export-ydpi="96"
       transform="translate(14.452733,62.004061)"
       inkscape:original-d="m 48.92662,46.550947 c 7.137974,26.639284 14.253794,53.195884 21.369615,79.752483"
       inkscape:path-effect="#path-effect1" /><path
       style="fill:none;fill-opacity:1;stroke:#404040;stroke-width:2;stroke-dasharray:4, 4;stroke-dashoffset:0;stroke-opacity:1"
       d="M 48.92662,46.550947 70.296235,126.30343"
       id="path2"
       transform="translate(46.202734,62.004061)"
       inkscape:original-d="m 48.92662,46.550947 c 7.137974,26.639284 14.253794,53.195884 21.369615,79.752483"
       inkscape:path-effect="#path-effect3" /><path
       style="fill:none;fill-opacity:1;stroke:#404040;stroke-width:2;stroke-dasharray:4, 4;stroke-dashoffset:0;stroke-opacity:1"
       d="M 48.92662,46.550947 70.296235,126.30343"
       id="path3"
       transform="translate(77.952736,62.004061)"
       inkscape:original-d="m 48.92662,46.550947 c 7.137974,26.639284 14.253794,53.195884 21.369615,79.752483"
       inkscape:path-effect="#path-effect5" /><path
       style="fill:none;fill-opacity:1;stroke:#404040;stroke-width:1.75694;stroke-dasharray:3.5139, 3.5139;stroke-dashoffset:0;stroke-opacity:1"
       d="M 47.580414,46.550947 H 112.42662"
       id="path5"
       transform="matrix(1.2958173,0,0,1,-9.213693,72.587395)"
       inkscape:original-d="m 47.580414,46.550947 c 22.512872,0 43.679541,0 64.846206,0"
       inkscape:path-effect="#path-effect6" /><path
       style="fill:none;fill-opacity:1;stroke:#404040;stroke-width:1.75694;stroke-dasharray:3.5139, 3.5139;stroke-dashoffset:0;stroke-opacity:1"
       d="M 47.580414,46.550947 H 112.42662"
       id="path6"
       transform="matrix(1.2958173,0,0,1,1.369644,99.04573)"
       inkscape:original-d="m 47.580414,46.550947 c 22.512872,0 43.679541,0 64.846206,0"
       inkscape:path-effect="#path-effect8" /><path
       style="fill:none;fill-opacity:1;stroke:#404040;stroke-width:1.75694;stroke-dasharray:3.5139, 3.5139;stroke-dashoffset:0;stroke-opacity:1"
       d="M 47.580414,46.550947 H 112.42662"
       id="path8"
       transform="matrix(1.2958173,0,0,1,11.952977,125.50407)"
       inkscape:original-d="m 47.580414,46.550947 c 22.512872,0 43.679541,0 64.846206,0"
       inkscape:path-effect="#path-effect10" /><circle
       style="fill:#204070;fill-opacity:1;stroke:none;stroke-width:2;stroke-dasharray:4, 4;stroke-dashoffset:0;stroke-opacity:1"
       id="path10"
       cx="105.38535"
       cy="145.59668"
       r="7.2761693" /><circle
       style="fill:#204070;fill-opacity:1;stroke:none;stroke-width:2;stroke-dasharray:4, 4;stroke-dashoffset:0;stroke-opacity:1"
       id="path10-2"
       cx="73.827385"
       cy="145.6669"
       r="7.2761693" /><circle
       style="fill:#204070;fill-opacity:1;stroke:none;stroke-width:2;stroke-dasharray:4, 4;stroke-dashoffset:0;stroke-opacity:1"
       id="circle10"
       cx="137.32736"
       cy="145.6669"
       r="7.2761693" /><circle
       style="fill:#204070;fill-opacity:1;stroke:none;stroke-width:2;stroke-dasharray:4, 4;stroke-dashoffset:0;stroke-opacity:1"
       id="circle11"
       cx="97.977013"
       cy="119.13834"
       r="7.2761693" /><circle
       style="fill:#204070;fill-opacity:1;stroke:none;stroke-width:2;stroke-dasharray:4, 4;stroke-dashoffset:0;stroke-opacity:1"
       id="circle12"
       cx="66.419044"
       cy="119.20856"
       r="7.2761693" /><circle
       style="fill:#204070;fill-opacity:1;stroke:none;stroke-width:2;stroke-dasharray:4, 4;stroke-dashoffset:0;stroke-opacity:1"
       id="circle13"
       cx="129.91905"
       cy="119.20856"
       r="7.2761693" /><circle
       style="fill:#204070;fill-opacity:1;stroke:none;stroke-width:2;stroke-dasharray:4, 4;stroke-dashoffset:0;stroke-opacity:1"
       id="circle14"
       cx="112.2645"
       cy="172.05499"
       r="7.2761693" /><circle
       style="fill:#204070;fill-opacity:1;stroke:none;stroke-width:2;stroke-dasharray:4, 4;stroke-dashoffset:0;stroke-opacity:1"
       id="circle15"
       cx="80.706551"
       cy="172.12521"
       r="7.2761693" /><circle
       style="fill:#204070;fill-opacity:1;stroke:none;stroke-width:2;stroke-dasharray:4, 4;stroke-dashoffset:0;stroke-opacity:1"
       id="circle16"
       cx="144.20656"
       cy="172.12521"
       r="7.2761693" /><path
       style="opacity:1;fill:none;fill-opacity:1;stroke:#404040;stroke-width:3;stroke-dasharray:none;stroke-dashoffset:0;stroke-opacity:1;marker-end:url(#RoundedArrow);paint-order:markers stroke fill"
       d="m 149.2149,124.22044 c -5.79387,-1.10572 -11.89426,-0.5556 -17.39685,1.56881 -5.50259,2.1244 -10.38998,5.81638 -13.93769,10.52864 -3.7184,4.93899 -5.94842,10.9838 -6.32847,17.15435"
       id="path36"
       inkscape:path-effect="#path-effect37"
       inkscape:original-d="m 149.2149,124.22044 c -4.22746,0.98162 -26.57203,11.11582 -31.33454,12.09745 -4.7625,0.98162 0.8623,9.33994 -6.32847,17.15435"
       sodipodi:nodetypes="csc"
       transform="translate(12.170833,-0.52916653)" /><g
       id="g6767"
       transform="matrix(2.1543069,0,0,2.1543069,163.05863,108.29654)"
       ns2:version="1.12.0"
       ns2:texconverter="xelatex"
       ns2:pdfconverter="inkscape"
       ns2:text="$c^\\dagger_{k,\\sigma}$"
       ns2:preamble="/usr/share/inkscape/extensions/textext/default_packages.tex"
       ns2:scale="4.870421535698087"
       ns2:alignment="middle center"
       ns2:inkscapeversion="1.4.3"
       ns2:jacobian_sqrt="1.71818"><defs
   id="defs8821" />
  <g
   fill="#000000"
   fill-opacity="1"
   id="g8812"
   transform="translate(-149.118,-125.071)">
    <g
   transform="translate(148.712,134.765)"
   id="g6480"><path
   d="m 3.953125,-3.78125 c -0.171875,0 -0.296875,0 -0.4375,0.125 -0.171875,0.15625 -0.1875,0.328125 -0.1875,0.390625 0,0.25 0.1875,0.359375 0.375,0.359375 0.28125,0 0.546875,-0.25 0.546875,-0.640625 0,-0.484375 -0.46875,-0.859375 -1.171875,-0.859375 -1.34375,0 -2.671875,1.421875 -2.671875,2.828125 0,0.90625 0.578125,1.6875 1.625,1.6875 1.421875,0 2.25,-1.0625 2.25,-1.171875 0,-0.0625 -0.046875,-0.140625 -0.109375,-0.140625 -0.0625,0 -0.078125,0.03125 -0.140625,0.109375 -0.78125,0.984375 -1.875,0.984375 -1.984375,0.984375 -0.625,0 -0.90625,-0.484375 -0.90625,-1.09375 0,-0.40625 0.203125,-1.375 0.546875,-1.984375 0.3125,-0.578125 0.859375,-1 1.40625,-1 0.328125,0 0.71875,0.125 0.859375,0.40625 z m 0,0"
   id="path8101" />
      </g></g>
  <g
   fill="#000000"
   fill-opacity="1"
   id="g2066"
   transform="translate(-149.118,-125.071)">
    <g
   transform="translate(153.024,129.977)"
   id="g4044"><path
   d="m 1.90625,-2.90625 c 0.109375,0 0.171875,0.015625 0.390625,0.0625 0.21875,0.0625 0.390625,0.109375 0.515625,0.109375 0.28125,0 0.296875,-0.203125 0.296875,-0.265625 0,-0.0625 -0.015625,-0.28125 -0.296875,-0.28125 -0.125,0 -0.296875,0.046875 -0.515625,0.109375 -0.21875,0.0625 -0.28125,0.0625 -0.390625,0.078125 0.015625,-0.25 0.0625,-0.53125 0.09375,-0.75 0.03125,-0.140625 0.09375,-0.5 0.09375,-0.734375 0,-0.21875 -0.09375,-0.328125 -0.265625,-0.328125 -0.15625,0 -0.28125,0.078125 -0.28125,0.328125 0,0.21875 0.0625,0.578125 0.109375,0.8125 0.015625,0.078125 0.078125,0.40625 0.078125,0.671875 C 1.640625,-3.109375 1.5625,-3.109375 1.359375,-3.171875 1.140625,-3.234375 0.96875,-3.28125 0.84375,-3.28125 c -0.28125,0 -0.3125,0.21875 -0.3125,0.28125 0,0.046875 0.03125,0.265625 0.3125,0.265625 0.125,0 0.296875,-0.046875 0.515625,-0.109375 0.203125,-0.046875 0.28125,-0.0625 0.375,-0.0625 0,0.171875 -0.0625,0.390625 -0.09375,0.53125 -0.09375,0.4375 -0.09375,0.484375 -0.09375,0.84375 0,1.34375 0.140625,2.78125 0.15625,2.921875 0.015625,0.0625 0.03125,0.09375 0.125,0.09375 0.109375,0 0.109375,-0.03125 0.125,-0.125 0,-0.015625 0.046875,-0.625 0.078125,-1.046875 0.03125,-0.609375 0.0625,-1.21875 0.0625,-1.84375 0,-0.359375 0,-0.40625 -0.09375,-0.859375 -0.015625,-0.0625 -0.078125,-0.34375 -0.09375,-0.515625 z m 0,0"
   id="path8622" />
      </g></g>
  <g
   fill="#000000"
   fill-opacity="1"
   id="g2370"
   transform="translate(-149.118,-125.071)">
    <g
   transform="translate(153.024,137.77)"
   id="g8540"><path
   d="m 2.1875,-4.625 c 0,-0.015625 0.015625,-0.109375 0.015625,-0.109375 0,-0.046875 -0.015625,-0.109375 -0.109375,-0.109375 -0.140625,0 -0.71875,0.0625 -0.890625,0.078125 -0.046875,0 -0.15625,0.015625 -0.15625,0.15625 0,0.09375 0.109375,0.09375 0.1875,0.09375 0.328125,0 0.328125,0.0625 0.328125,0.109375 0,0.046875 -0.015625,0.09375 -0.015625,0.15625 L 0.5625,-0.3125 c -0.046875,0.125 -0.046875,0.140625 -0.046875,0.15625 0,0.109375 0.09375,0.21875 0.25,0.21875 0.1875,0 0.265625,-0.125 0.3125,-0.28125 0.015625,-0.03125 0.3125,-1.265625 0.34375,-1.359375 0.5,0.046875 0.890625,0.21875 0.890625,0.578125 0,0.03125 0,0.0625 -0.015625,0.140625 -0.03125,0.09375 -0.03125,0.140625 -0.03125,0.21875 0,0.484375 0.40625,0.703125 0.75,0.703125 0.671875,0 0.875,-1.046875 0.875,-1.0625 0,-0.09375 -0.078125,-0.09375 -0.109375,-0.09375 -0.09375,0 -0.109375,0.046875 -0.140625,0.171875 C 3.5625,-0.625 3.375,-0.125 3.03125,-0.125 c -0.1875,0 -0.25,-0.171875 -0.25,-0.359375 0,-0.125 0,-0.140625 0.046875,-0.3125 0.015625,-0.03125 0.03125,-0.140625 0.03125,-0.21875 0,-0.625 -0.828125,-0.71875 -1.125,-0.734375 C 1.9375,-1.875 2.1875,-2.109375 2.3125,-2.21875 2.671875,-2.546875 3.015625,-2.875 3.40625,-2.875 c 0.078125,0 0.171875,0.015625 0.234375,0.09375 C 3.34375,-2.734375 3.28125,-2.5 3.28125,-2.390625 c 0,0.140625 0.109375,0.25 0.265625,0.25 0.203125,0 0.40625,-0.15625 0.40625,-0.4375 0,-0.234375 -0.171875,-0.5 -0.53125,-0.5 -0.40625,0 -0.765625,0.296875 -1.125,0.625 C 2,-2.1875 1.78125,-1.96875 1.484375,-1.84375 Z m 0,0"
   id="path1145" />
      </g></g>
  <g
   fill="#000000"
   fill-opacity="1"
   id="g1858"
   transform="translate(-149.118,-125.071)">
    <g
   transform="translate(157.424,137.77)"
   id="g4996"><path
   d="m 1.46875,-0.109375 c 0,0.375 -0.0625,0.828125 -0.546875,1.265625 C 0.90625,1.1875 0.875,1.21875 0.875,1.25 c 0,0.046875 0.0625,0.09375 0.09375,0.09375 0.109375,0 0.703125,-0.5625 0.703125,-1.390625 0,-0.421875 -0.171875,-0.75 -0.5,-0.75 -0.21875,0 -0.390625,0.171875 -0.390625,0.390625 C 0.78125,-0.1875 0.9375,0 1.1875,0 1.359375,0 1.46875,-0.109375 1.46875,-0.109375 Z m 0,0"
   id="path9361" />
      </g><g
   transform="translate(159.789,137.77)"
   id="g3166"><path
   d="m 4.078125,-2.53125 c 0.109375,0 0.1875,0 0.25,-0.046875 0.09375,-0.078125 0.125,-0.1875 0.125,-0.234375 C 4.453125,-3 4.265625,-3 4.140625,-3 H 2.359375 C 1.25,-3 0.40625,-1.90625 0.40625,-1.0625 c 0,0.640625 0.484375,1.125 1.203125,1.125 0.875,0 1.875,-0.78125 1.875,-1.859375 0,-0.109375 0,-0.421875 -0.203125,-0.734375 z M 1.609375,-0.125 c -0.375,0 -0.6875,-0.25 -0.6875,-0.75 0,-0.203125 0.125,-1.65625 1.328125,-1.65625 0.34375,0 0.71875,0.140625 0.71875,0.65625 0,0.140625 -0.0625,0.765625 -0.40625,1.234375 C 2.265625,-0.265625 1.875,-0.125 1.609375,-0.125 Z m 0,0"
   id="path3334" />
      </g></g>
</g><path
       d="m 605.33105,238.61613 q 0.26041,0 0.67708,0.41667 0.44271,0.41667 0.91146,1.09375 0.75521,-1.32812 1.19791,-1.32812 0.39063,0 1.06771,0.70312 0.41667,0.44271 0.41667,0.98958 0,0.70313 -0.57292,1.30209 -5.41666,5.88541 -10.52082,12.9427 2.10937,5.15624 5.83333,11.3802 0.3125,0.52083 0.3125,0.83333 0,0.59896 -0.78125,1.25 0,0 -0.83334,0.57292 0.10417,0.3125 0.10417,0.83333 0,0.78125 -0.57292,1.19791 -0.67708,0.46875 -0.98958,0.46875 -0.67708,0 -1.19792,-0.67708 -3.12499,-4.01041 -6.45832,-9.42708 -4.47917,5.83333 -10.26042,15.57291 -0.83333,1.40625 -2.81249,1.40625 -0.9375,0 -1.04167,-1.09375 -1.32812,-0.72917 -1.32812,-2.31771 0,-2.08333 0.28645,-2.89062 0.13021,-0.36458 0.83334,-1.45833 5.31249,-8.28125 11.24999,-15.20833 -3.17708,-7.55208 -4.21875,-11.64061 -0.23437,-0.91146 -0.23437,-1.17188 0,-0.36458 0.46875,-1.04166 0.49479,-0.67709 0.91146,-0.67709 0.39062,0 0.98958,0.75521 0.23437,-0.44271 0.57291,-0.75521 0.46875,-0.41666 1.19792,-0.41666 0.83333,0 1.09375,0.78125 1.40625,4.37499 3.69791,8.33332 3.69792,-4.79166 9.01042,-10.10416 0.625,-0.625 0.98958,-0.625 z"
       id="text37"
       style="font-size:53.3333px;line-height:1.1;font-family:'Stack Sans Headline';-inkscape-font-specification:'Stack Sans Headline, Normal';text-align:center;letter-spacing:0.1px;white-space:pre;fill:#c05030;stroke-width:11.3386;paint-order:markers stroke fill"
       transform="matrix(0.97275475,0,0,0.97275475,-443.77823,-81.657107)"
       aria-label="✗" /></g></svg>
