<?xml version="1.0" encoding="UTF-8" standalone="no"?>
<!-- Created with Inkscape (http://www.inkscape.org/) -->

<svg
   width="123.51126mm"
   height="119.6441mm"
   viewBox="0 0 123.51125 119.64411"
   version="1.1"
   id="svg1"
   xml:space="preserve"
   inkscape:version="1.4.3 (0d15f75042, 2025-12-25)"
   sodipodi:docname="singletStretching.svg"
   xmlns:inkscape="http://www.inkscape.org/namespaces/inkscape"
   xmlns:sodipodi="http://sodipodi.sourceforge.net/DTD/sodipodi-0.dtd"
   xmlns="http://www.w3.org/2000/svg"
   xmlns:svg="http://www.w3.org/2000/svg"><sodipodi:namedview
     id="namedview1"
     pagecolor="#ffffff"
     bordercolor="#000000"
     borderopacity="0.25"
     inkscape:showpageshadow="2"
     inkscape:pageopacity="0.0"
     inkscape:pagecheckerboard="0"
     inkscape:deskcolor="#d1d1d1"
     inkscape:document-units="mm"
     showgrid="false"
     inkscape:zoom="0.49575348"
     inkscape:cx="594.04525"
     inkscape:cy="418.55481"
     inkscape:window-width="1920"
     inkscape:window-height="1043"
     inkscape:window-x="0"
     inkscape:window-y="0"
     inkscape:window-maximized="1"
     inkscape:current-layer="layer1"><inkscape:page
       x="-7.3771242e-29"
       y="0"
       width="123.51124"
       height="119.64411"
       id="page2"
       margin="0"
       bleed="0" /></sodipodi:namedview><defs
     id="defs1"><inkscape:path-effect
       effect="spiro"
       id="path-effect79"
       is_visible="true"
       lpeversion="1" /><inkscape:path-effect
       effect="spiro"
       id="path-effect18"
       is_visible="true"
       lpeversion="1" /><inkscape:path-effect
       effect="spiro"
       id="path-effect15"
       is_visible="true"
       lpeversion="1" /><inkscape:path-effect
       effect="spiro"
       id="path-effect6"
       is_visible="true"
       lpeversion="1" /><inkscape:path-effect
       effect="spiro"
       id="path-effect6-7"
       is_visible="true"
       lpeversion="1" /><inkscape:path-effect
       effect="spiro"
       id="path-effect6-7-2"
       is_visible="true"
       lpeversion="1" /><inkscape:path-effect
       effect="spiro"
       id="path-effect6-7-2-0"
       is_visible="true"
       lpeversion="1" /></defs><g
     inkscape:label="Layer 1"
     inkscape:groupmode="layer"
     id="layer1"
     transform="translate(-45.168883,-88.333226)"><path
       style="opacity:1;fill:#e0c0d0;fill-opacity:1;stroke:none;stroke-width:4;stroke-dasharray:7.99999, 4;stroke-dashoffset:0;stroke-opacity:1;paint-order:markers stroke fill"
       d="m 100.00635,134.34815 c 0.19057,1.37896 0.45905,2.76005 0.39434,4.1506 -0.0324,0.69528 -0.14947,1.39033 -0.39478,2.0417 -0.245306,0.65137 -0.621999,1.25876 -1.131704,1.73274 -0.868751,0.80787 -2.062652,1.17866 -3.239831,1.32572 -1.177179,0.14705 -2.370065,0.0949 -3.553055,0.18381 -4.240881,0.31882 -8.205941,2.43204 -12.45362,2.64167 -2.497257,0.12324 -4.977191,-0.41936 -7.397231,-1.04776 -2.420039,-0.6284 -4.832416,-1.34896 -7.320685,-1.59391 -2.516839,-0.24776 -5.135159,0.0169 -7.400829,1.14052 -1.132835,0.56183 -2.165916,1.3353 -2.985111,2.29857 -0.819194,0.96327 -1.420724,2.11836 -1.690299,3.35379 -0.496064,2.27341 0.176219,4.71797 1.558069,6.59013 1.38185,1.87215 3.419269,3.19842 5.612197,3.97658 3.950427,1.4018 8.275384,1.09131 12.453622,0.75477 6.939291,-0.55893 13.885365,-1.14177 20.756034,-2.2643 1.953077,-0.31909 3.930514,-0.68296 5.898574,-0.47543 0.984029,0.10376 1.959149,0.35324 2.840359,0.8033 0.88121,0.45006 1.66646,1.10644 2.20516,1.93643 0.77836,1.19923 1.00134,2.69097 0.89893,4.11698 -0.10242,1.42601 -0.50681,2.81057 -0.89893,4.18543 -1.45651,5.10687 -2.77626,10.2567 -3.77382,15.47268 -0.520742,2.72281 -0.954792,5.48078 -0.894377,8.25229 0.06042,2.7715 0.637577,5.57605 2.026517,7.97516 1.82546,3.1531 5.0981,5.47179 8.70699,5.97201 1.80445,0.25012 3.67166,0.0564 5.37801,-0.58154 1.70634,-0.63794 3.24726,-1.72112 4.40674,-3.12618 1.09809,-1.33067 1.84613,-2.93385 2.25587,-4.60974 0.40975,-1.67589 0.48734,-3.42376 0.3259,-5.14144 -0.32288,-3.43537 -1.58116,-6.70931 -2.95915,-9.87271 -1.34685,-3.09191 -2.83147,-6.16159 -3.53015,-9.46094 -0.34934,-1.64968 -0.49704,-3.3509 -0.31955,-5.02779 0.17748,-1.6769 0.68738,-3.33053 1.58541,-4.75777 1.07953,-1.71572 2.68943,-3.05699 4.47252,-4.02119 1.78309,-0.96419 3.73981,-1.56906 5.7168,-2.01693 4.69622,-1.06388 9.60782,-1.26492 14.34053,-0.37738 5.0592,0.94877 9.94908,3.129 15.0953,3.01906 2.23371,-0.0477 4.4788,-0.54474 6.43789,-1.61883 1.9591,-1.0741 3.61808,-2.74657 4.50621,-4.79668 0.692,-1.59739 0.9029,-3.39527 0.62843,-5.11434 -0.27447,-1.71906 -1.02995,-3.35491 -2.13796,-4.6976 -1.37663,-1.66821 -3.27274,-2.86677 -5.31305,-3.58452 -2.04032,-0.71775 -4.22311,-0.97156 -6.38581,-0.94407 -5.38159,0.0684 -10.61053,1.84345 -15.47268,4.15121 -2.21541,1.05152 -4.3907,2.22271 -6.73718,2.93531 -2.34647,0.7126 -4.92745,0.93847 -7.22597,0.0837 -2.30282,-0.85632 -4.12626,-2.73864 -5.28336,-4.90598 -1.8843,-3.52943 -2.11253,-7.70428 -1.88691,-11.69885 0.23861,-4.22458 0.94231,-8.43412 2.2643,-12.45362 0.89735,-2.72837 2.07839,-5.3696 2.73681,-8.16526 0.65843,-2.79567 0.75516,-5.84302 -0.47252,-8.43957 -1.01713,-2.15123 -2.90023,-3.842809 -5.08062,-4.795843 -2.18038,-0.953034 -4.6387,-1.192452 -6.99562,-0.864894 -2.09724,0.291469 -4.13741,1.027209 -5.90906,2.186782 -1.77165,1.159575 -3.2698,2.745375 -4.28026,4.606105 -1.405613,2.58841 -1.831166,5.60683 -1.81062,8.55219 0.02055,2.94537 0.461141,5.86999 0.678466,8.8074 0.325515,4.39973 0.150814,8.83816 0.754764,13.20838 z"
       id="path78"
       inkscape:path-effect="#path-effect79"
       inkscape:original-d="m 100.00635,134.34815 c 0.25159,4.4028 -0.503174,5.28336 -1.132144,7.92504 -0.628973,2.64167 -4.905973,1.00635 -6.792886,1.50953 -1.886911,0.50317 -8.302413,1.76111 -12.45362,2.64167 -4.151207,0.88056 -9.68615,-1.76111 -14.717916,-2.64167 -5.031767,-0.88056 -8.050826,4.52859 -12.076239,6.79288 -4.025414,2.2643 5.031766,7.04447 7.170266,10.56671 2.1385,3.52224 8.17662,0.37738 12.453622,0.75477 4.277001,0.37738 13.837357,-1.13215 20.756034,-2.2643 6.918683,-1.13215 7.170273,1.25794 10.944093,2.2643 3.77382,1.00635 -0.12579,5.66073 0,8.30241 0.12579,2.64168 -2.1385,10.44092 -3.77382,15.47268 -1.63533,5.03177 0.75476,10.44092 1.13214,16.22745 0.37739,5.78653 12.07624,1.63532 18.49174,2.26429 6.4155,0.62897 0,-13.33418 -0.37738,-19.62389 -0.37738,-6.2897 -1.50953,-12.70521 -2.26429,-19.2465 -0.75477,-6.5413 6.54129,-3.89962 10.18932,-6.03812 3.64803,-2.1385 9.56036,-0.25159 14.34053,-0.37738 4.78018,-0.1258 9.93774,1.88691 15.0953,3.01906 5.15756,1.13214 7.42186,-4.15121 10.9441,-6.41551 3.52223,-2.26429 -1.13215,-6.54129 -1.50953,-9.81194 -0.37739,-3.27065 -7.67345,-3.01906 -11.69886,-4.52859 -4.02541,-1.50953 -10.44092,2.64168 -15.47268,4.15121 -5.03177,1.50953 -9.30877,2.0127 -13.96315,3.01906 -4.65439,1.00635 -3.39645,-3.14486 -5.28336,-4.90598 -1.88691,-1.76111 -1.13214,-7.92503 -1.88691,-11.69885 -0.75476,-3.77383 1.38374,-8.30242 2.2643,-12.45362 0.88055,-4.15121 1.25794,-11.06989 2.26429,-16.60483 1.00635,-5.534944 -7.79924,-3.648031 -12.07624,-5.660737 -4.277,-2.012707 -6.79288,4.528587 -10.18932,6.792887 -3.396447,2.26429 -0.754771,11.57306 -1.132154,17.35959 -0.37738,5.78653 0.503177,8.80559 0.754764,13.20838 z" /><path
       style="fill:#35837b;stroke:#808080;stroke-width:1.68153;stroke-linejoin:bevel;stroke-dasharray:3.36306, 1.68153;stroke-dashoffset:0;stroke-opacity:1;paint-order:markers stroke fill"
       d="m 154.96176,95.412254 -0.0527,84.466666"
       id="path6-3-1-3"
       transform="matrix(0,-0.99895458,1.4161394,0,-89.947426,264.88451)"
       inkscape:original-d="m 154.96176,95.412254 c -0.0175,28.155556 -0.0351,56.311116 -0.0527,84.466666"
       inkscape:path-effect="#path-effect6-7-2-0" /><path
       style="fill:#35837b;stroke:#808080;stroke-width:1.68153;stroke-linejoin:bevel;stroke-dasharray:3.36306, 1.68153;stroke-dashoffset:0;stroke-opacity:1;paint-order:markers stroke fill"
       d="m 154.96176,95.412254 -0.0527,84.466666"
       id="path11"
       transform="matrix(0,-0.99895458,1.4161394,0,-89.947426,307.21787)"
       inkscape:original-d="m 154.96176,95.412254 c -0.0175,28.155556 -0.0351,56.311116 -0.0527,84.466666"
       inkscape:path-effect="#path-effect15" /><path
       style="fill:#35837b;stroke:#808080;stroke-width:1.68153;stroke-linejoin:bevel;stroke-dasharray:3.36306, 1.68153;stroke-dashoffset:0;stroke-opacity:1;paint-order:markers stroke fill"
       d="m 154.96176,95.412254 -0.0527,84.466666"
       id="path17"
       transform="matrix(0,-0.99895458,1.4161394,0,-89.947426,349.55123)"
       inkscape:original-d="m 154.96176,95.412254 c -0.0175,28.155556 -0.0351,56.311116 -0.0527,84.466666"
       inkscape:path-effect="#path-effect18" /><path
       style="fill:#35837b;stroke:#808080;stroke-width:1.68679;stroke-linejoin:bevel;stroke-dasharray:3.37359, 1.68679;stroke-dashoffset:0;stroke-opacity:1;paint-order:markers stroke fill"
       d="m 154.96176,95.412254 -0.0527,84.466666"
       id="path6"
       transform="matrix(0.99901507,0,0,1.4072277,-45.007396,-45.588936)"
       inkscape:original-d="m 154.96176,95.412254 c -0.0175,28.155556 -0.0351,56.311116 -0.0527,84.466666"
       inkscape:path-effect="#path-effect6" /><path
       style="fill:#35837b;stroke:#808080;stroke-width:1.68679;stroke-linejoin:bevel;stroke-dasharray:3.37359, 1.68679;stroke-dashoffset:0;stroke-opacity:1;paint-order:markers stroke fill"
       d="m 154.96176,95.412254 -0.0527,84.466666"
       id="path6-3"
       transform="matrix(0.99901507,0,0,1.4072277,0.195765,-45.588936)"
       inkscape:original-d="m 154.96176,95.412254 c -0.0175,28.155556 -0.0351,56.311116 -0.0527,84.466666"
       inkscape:path-effect="#path-effect6-7" /><path
       style="fill:#35837b;stroke:#808080;stroke-width:1.68679;stroke-linejoin:bevel;stroke-dasharray:3.37359, 1.68679;stroke-dashoffset:0;stroke-opacity:1;paint-order:markers stroke fill"
       d="m 154.96176,95.412254 -0.0527,84.466666"
       id="path6-3-1"
       transform="matrix(0.99901507,0,0,1.4072277,-89.741121,-45.9328)"
       inkscape:original-d="m 154.96176,95.412254 c -0.0175,28.155556 -0.0351,56.311116 -0.0527,84.466666"
       inkscape:path-effect="#path-effect6-7-2" /><circle
       style="fill:#505070;fill-opacity:1;stroke:none;stroke-width:0.1;stroke-dasharray:none;stroke-dashoffset:0;stroke-opacity:1"
       id="path7-9"
       cx="110.01058"
       cy="109.75945"
       r="6.7877083" /><circle
       style="fill:#505070;fill-opacity:1;stroke:none;stroke-width:0.1;stroke-dasharray:none;stroke-dashoffset:0;stroke-opacity:1"
       id="path7-9-2"
       cx="65.041687"
       cy="152.34441"
       r="6.7877083" /><circle
       style="fill:#505070;fill-opacity:1;stroke:none;stroke-width:0.1;stroke-dasharray:none;stroke-dashoffset:0;stroke-opacity:1"
       id="path7-9-0"
       cx="109.77541"
       cy="194.12155"
       r="6.7877083" /><circle
       style="fill:#505070;fill-opacity:1;stroke:none;stroke-width:0.1;stroke-dasharray:none;stroke-dashoffset:0;stroke-opacity:1"
       id="path7-9-09"
       cx="154.97858"
       cy="152.04129"
       r="6.7877083" /><circle
       style="fill:#505050;fill-opacity:1;stroke:none;stroke-width:0.1;stroke-dasharray:none;stroke-dashoffset:0;stroke-opacity:1"
       id="path7-9-59"
       cx="65.317833"
       cy="110.11108"
       r="6.7877083" /><circle
       style="fill:#505050;fill-opacity:1;stroke:none;stroke-width:0.1;stroke-dasharray:none;stroke-dashoffset:0;stroke-opacity:1"
       id="path7-9-03"
       cx="155.63683"
       cy="109.45483"
       r="6.7877083" /><circle
       style="fill:#505050;fill-opacity:1;stroke:none;stroke-width:0.1;stroke-dasharray:none;stroke-dashoffset:0;stroke-opacity:1"
       id="path7-9-5-7"
       cx="64.794861"
       cy="194.57774"
       r="6.7877083" /><circle
       style="fill:#505050;fill-opacity:1;stroke:none;stroke-width:0.1;stroke-dasharray:none;stroke-dashoffset:0;stroke-opacity:1"
       id="path7-9-5-5"
       cx="154.75597"
       cy="194.12155"
       r="6.7877083" /><circle
       style="fill:#d07070;fill-opacity:1;stroke:none;stroke-width:1.2939;stroke-dasharray:2.58781, 1.2939;stroke-dashoffset:0;stroke-opacity:1"
       id="path7"
       cx="109.77541"
       cy="152.34441"
       r="8.7826414" /></g></svg>
