<?xml version="1.0" encoding="UTF-8" standalone="no"?>
<!-- Created with Inkscape (http://www.inkscape.org/) -->

<svg
   width="174.13873mm"
   height="161.17085mm"
   viewBox="0 0 174.13873 161.17085"
   version="1.1"
   id="svg1"
   inkscape:version="1.3.2 (091e20ef0f, 2023-11-25, custom)"
   sodipodi:docname="windingNumbers.svg"
   xmlns:inkscape="http://www.inkscape.org/namespaces/inkscape"
   xmlns:sodipodi="http://sodipodi.sourceforge.net/DTD/sodipodi-0.dtd"
   xmlns="http://www.w3.org/2000/svg"
   xmlns:svg="http://www.w3.org/2000/svg"
   xmlns:ns8="http://www.iki.fi/pav/software/textext/">
  <sodipodi:namedview
     id="namedview1"
     pagecolor="#ffffff"
     bordercolor="#cccccc"
     borderopacity="1"
     inkscape:showpageshadow="0"
     inkscape:pageopacity="1"
     inkscape:pagecheckerboard="0"
     inkscape:deskcolor="#d1d1d1"
     inkscape:document-units="mm"
     inkscape:zoom="0.96630983"
     inkscape:cx="467.24145"
     inkscape:cy="416.53307"
     inkscape:window-width="1920"
     inkscape:window-height="1019"
     inkscape:window-x="0"
     inkscape:window-y="0"
     inkscape:window-maximized="1"
     inkscape:current-layer="layer1" />
  <defs
     id="defs1">
    <inkscape:path-effect
       effect="spiro"
       id="path-effect110"
       is_visible="true"
       lpeversion="1" />
    <inkscape:path-effect
       effect="spiro"
       id="path-effect109"
       is_visible="true"
       lpeversion="1" />
    <inkscape:path-effect
       effect="spiro"
       id="path-effect107"
       is_visible="true"
       lpeversion="1" />
    <inkscape:path-effect
       effect="spiro"
       id="path-effect105"
       is_visible="true"
       lpeversion="1" />
    <inkscape:path-effect
       effect="spiro"
       id="path-effect103"
       is_visible="true"
       lpeversion="1" />
    <inkscape:path-effect
       effect="spiro"
       id="path-effect101"
       is_visible="true"
       lpeversion="1" />
    <inkscape:path-effect
       effect="spiro"
       id="path-effect99"
       is_visible="true"
       lpeversion="1" />
    <inkscape:path-effect
       effect="spiro"
       id="path-effect11"
       is_visible="true"
       lpeversion="1" />
    <inkscape:path-effect
       effect="spiro"
       id="path-effect9"
       is_visible="true"
       lpeversion="1" />
    <inkscape:path-effect
       effect="spiro"
       id="path-effect7"
       is_visible="true"
       lpeversion="1" />
    <inkscape:path-effect
       effect="spiro"
       id="path-effect2"
       is_visible="true"
       lpeversion="1" />
    <inkscape:path-effect
       effect="spiro"
       id="path-effect1"
       is_visible="true"
       lpeversion="1" />
    <inkscape:path-effect
       effect="spiro"
       id="path-effect1-7"
       is_visible="true"
       lpeversion="1" />
  </defs>
  <g
     inkscape:label="Layer 1"
     inkscape:groupmode="layer"
     id="layer1"
     transform="translate(14.696337,-38.529915)">
    <path
       style="fill:#2683b3;stroke:#505050;stroke-width:2;stroke-linejoin:bevel;stroke-dasharray:none;stroke-opacity:1;paint-order:markers stroke fill"
       d="m 49.183826,58.55854 v 61.76723"
       id="path1"
       inkscape:path-effect="#path-effect1"
       inkscape:original-d="m 49.183826,58.55854 c 0,20.589076 0,61.76723 0,61.76723" />
    <path
       style="fill:#2683b3;stroke:#505050;stroke-width:2;stroke-linejoin:bevel;stroke-dasharray:none;stroke-opacity:1;paint-order:markers stroke fill"
       d="m 49.183826,58.55854 v 61.76723"
       id="path1-3"
       inkscape:path-effect="#path-effect1-7"
       inkscape:original-d="m 49.183826,58.55854 c 0,20.589076 0,61.76723 0,61.76723"
       transform="rotate(90,49.183826,89.442155)" />
    <path
       style="fill:none;stroke:#2a7860;stroke-width:2;stroke-linejoin:bevel;stroke-dasharray:none;stroke-opacity:1;paint-order:markers stroke fill"
       d="m 62.867806,67.593132 c -3.67055,-1.770799 -7.88384,-2.253533 -11.931181,-1.776357 -4.04734,0.477176 -7.94362,1.878541 -11.584218,3.710128 -4.050312,2.037715 -7.927118,4.719224 -10.390798,8.525481 -2.176716,3.362912 -3.119031,7.480156 -2.764094,11.470305 0.354937,3.990149 1.9828,7.836987 4.48823,10.962701 3.550736,4.42981 8.851091,7.37696 14.464012,8.22906 5.612922,0.8521 11.487948,-0.36196 16.395,-3.2171 3.349923,-1.94913 6.269517,-4.65408 8.389196,-7.898774 2.119679,-3.244696 3.428144,-7.028681 3.671242,-10.896755 0.243099,-3.868074 -0.590921,-7.810814 -2.46226,-11.204806 -1.871339,-3.393992 -4.784413,-6.219842 -8.275129,-7.903883 z"
       id="path2"
       inkscape:path-effect="#path-effect2"
       inkscape:original-d="m 62.867806,67.593132 c 0.441016,-12.63474 -15.676932,1.28918 -23.515399,1.933771 -7.838463,0.644589 -6.927199,5.683655 -10.390798,8.525481 -3.463598,2.841826 1.149424,14.955335 1.724136,22.433006 0.574712,7.47766 20.572674,3.34131 30.859012,5.01196 10.286339,1.67066 0.882034,-25.269477 1.323049,-37.904218 z" />
    <circle
       style="fill:#cf6060;fill-opacity:1;stroke:none;stroke-width:2;stroke-linejoin:bevel;stroke-dasharray:none;stroke-opacity:1;paint-order:markers stroke fill"
       id="path3"
       cx="49.183826"
       cy="89.442154"
       r="4.7103529" />
    <path
       style="fill:#2683b3;stroke:#505050;stroke-width:2;stroke-linejoin:bevel;stroke-dasharray:none;stroke-opacity:1;paint-order:markers stroke fill"
       d="m 49.183826,58.55854 v 61.76723"
       id="path4"
       inkscape:path-effect="#path-effect7"
       inkscape:original-d="m 49.183826,58.55854 c 0,20.589076 0,61.76723 0,61.76723"
       transform="translate(79.375004)" />
    <path
       style="fill:#2683b3;stroke:#505050;stroke-width:2;stroke-linejoin:bevel;stroke-dasharray:none;stroke-opacity:1;paint-order:markers stroke fill"
       d="m 49.183826,58.55854 v 61.76723"
       id="path5"
       inkscape:path-effect="#path-effect9"
       inkscape:original-d="m 49.183826,58.55854 c 0,20.589076 0,61.76723 0,61.76723"
       transform="rotate(90,88.871321,129.12962)" />
    <path
       style="fill:none;stroke:#2a80bf;stroke-width:2;stroke-linejoin:bevel;stroke-dasharray:none;stroke-opacity:1;paint-order:markers stroke fill"
       d="m 62.867806,67.593132 c -3.67055,-1.770799 -7.88384,-2.253533 -11.931181,-1.776357 -4.04734,0.477176 -7.94362,1.878541 -11.584218,3.710128 -4.050312,2.037715 -7.927118,4.719224 -10.390798,8.525481 -2.176716,3.362912 -3.119031,7.480156 -2.764094,11.470305 0.354937,3.990149 1.9828,7.836987 4.48823,10.962701 3.550736,4.42981 8.851091,7.37696 14.464012,8.22906 5.612922,0.8521 11.487948,-0.36196 16.395,-3.2171 3.349923,-1.94913 6.269517,-4.65408 8.389196,-7.898774 2.119679,-3.244696 3.428144,-7.028681 3.671242,-10.896755 0.243099,-3.868074 -0.590921,-7.810814 -2.46226,-11.204806 -1.871339,-3.393992 -4.784413,-6.219842 -8.275129,-7.903883 z"
       id="path6"
       inkscape:path-effect="#path-effect11"
       inkscape:original-d="m 62.867806,67.593132 c 0.441016,-12.63474 -15.676932,1.28918 -23.515399,1.933771 -7.838463,0.644589 -6.927199,5.683655 -10.390798,8.525481 -3.463598,2.841826 1.149424,14.955335 1.724136,22.433006 0.574712,7.47766 20.572674,3.34131 30.859012,5.01196 10.286339,1.67066 0.882034,-25.269477 1.323049,-37.904218 z"
       transform="translate(79.375004)" />
    <circle
       style="fill:#cf6060;fill-opacity:1;stroke:none;stroke-width:2;stroke-linejoin:bevel;stroke-dasharray:none;stroke-opacity:1;paint-order:markers stroke fill"
       id="circle6"
       cx="128.55881"
       cy="89.442154"
       r="4.7103529" />
    <g
       transform="matrix(1.16517,0,0,1.16517,31.006234,38.530498)"
       ns8:version="1.10.2"
       ns8:texconverter="xelatex"
       ns8:pdfconverter="inkscape"
       ns8:text="$n_\\text{Det} G_d^{-1}$"
       ns8:preamble="/home/kirito/.config/textext/beamer_preamble.tex"
       ns8:scale="3.302830605184801"
       ns8:alignment="middle center"
       ns8:stroke-to-path="0"
       id="g8740"
       ns8:jacobian_sqrt="1.16517">
      <defs
         id="id-7cda5ea7-dce5-4c56-ad32-00ccf3b97651">
        <g
           id="id-f843e0f0-598f-4fa2-b460-383dfff025e5">
          <g
             id="id-5a8472d7-8961-4e5f-a1f8-ff94fde76d9b">
            <path
               d="M 3.828125,-5.375 C 3.078125,-5.375 2.5,-4.921875 2,-4.234375 L 2.078125,-5.25 H 1.3125 L 0.5625,0 h 0.90625 l 0.4375,-3.15625 c 0.421875,-0.734375 1,-1.453125 1.671875,-1.453125 0.40625,0 0.65625,0.203125 0.5625,0.9375 L 3.625,0 H 4.53125 L 5.046875,-3.6875 C 5.1875,-4.734375 4.703125,-5.375 3.828125,-5.375 Z m 0,0"
               id="id-af580d8c-c399-44c7-a2d5-06827b3e10f5" />
          </g>
          <g
             id="id-a4d95f9f-a7c5-42bf-af70-78e12e494481">
            <path
               d="m 4.03125,-6.984375 c -2.40625,0 -3.4375,2.421875 -3.4375,4.40625 0,1.796875 0.9375,2.703125 2.421875,2.703125 0.9375,0 1.65625,-0.234375 2.3125,-0.65625 L 5.78125,-3.8125 H 3.546875 v 0.765625 H 4.75 L 4.453125,-1 c -0.421875,0.25 -0.875,0.34375 -1.3125,0.34375 -1.015625,0 -1.5625,-0.53125 -1.5625,-1.8125 0,-1.640625 0.6875,-3.734375 2.46875,-3.734375 0.59375,0 0.953125,0.140625 1.421875,0.515625 l 0.578125,-0.515625 c -0.515625,-0.5 -1.125,-0.78125 -2.015625,-0.78125 z m 0,0"
               id="id-ebe8781f-a541-41b6-91ff-430cb61d1d20" />
          </g>
          <g
             id="id-61599ae5-40d7-493a-a78b-8097afffa1d4">
            <path
               d="m 1.75,-4.9375 c 0.75,0 1.347656,0.171875 1.796875,0.515625 C 3.992188,-4.078125 4.21875,-3.4375 4.21875,-2.5 c 0,0.917969 -0.226562,1.5625 -0.671875,1.9375 C 3.097656,-0.1875 2.550781,0 1.90625,0 h -1.1875 v -4.9375 z m -0.34375,0.546875 v 3.859375 h 0.546875 c 0.457031,0 0.828125,-0.140625 1.109375,-0.421875 C 3.351562,-1.242188 3.5,-1.757812 3.5,-2.5 3.5,-3.019531 3.425781,-3.414062 3.28125,-3.6875 3.132812,-3.96875 2.941406,-4.15625 2.703125,-4.25 2.472656,-4.34375 2.207031,-4.390625 1.90625,-4.390625 Z m 0,0"
               id="id-6f35cef6-1b16-4fb2-875f-6178f9c1b370" />
          </g>
          <g
             id="id-1b3d1e6b-58bc-4fc2-a140-b79fed79977d">
            <path
               d="m 3.53125,-2 c 0,0.105469 -0.00781,0.21875 -0.015625,0.34375 h -2.40625 c 0.03125,0.40625 0.132813,0.710938 0.3125,0.90625 0.1875,0.199219 0.421875,0.296875 0.703125,0.296875 0.1875,0 0.351562,-0.023437 0.5,-0.078125 0.15625,-0.050781 0.316406,-0.132812 0.484375,-0.25 L 3.40625,-0.390625 C 3,-0.0664062 2.554688,0.09375 2.078125,0.09375 1.554688,0.09375 1.144531,-0.078125 0.84375,-0.421875 0.550781,-0.773438 0.40625,-1.25 0.40625,-1.84375 c 0,-0.394531 0.0625,-0.742188 0.1875,-1.046875 0.125,-0.300781 0.304688,-0.535156 0.546875,-0.703125 0.238281,-0.175781 0.519531,-0.265625 0.84375,-0.265625 0.5,0 0.878906,0.167969 1.140625,0.5 C 3.394531,-3.035156 3.53125,-2.582031 3.53125,-2 Z M 2.890625,-2.1875 c 0,-0.375 -0.078125,-0.660156 -0.234375,-0.859375 C 2.507812,-3.242188 2.289062,-3.34375 2,-3.34375 c -0.542969,0 -0.839844,0.398438 -0.890625,1.1875 h 1.78125 z m 0,0"
               id="id-f229d067-5dd9-46a3-9c9f-3cb3a84087f7" />
          </g>
          <g
             id="id-b505c070-b103-4f84-abc2-5e17f55a598a">
            <path
               d="M 2.59375,-0.171875 C 2.34375,0.00390625 2.0625,0.09375 1.75,0.09375 1.425781,0.09375 1.171875,0 0.984375,-0.1875 0.804688,-0.375 0.71875,-0.640625 0.71875,-0.984375 v -2.28125 H 0.0625 V -3.78125 H 0.71875 V -4.640625 L 1.390625,-4.71875 v 0.9375 H 2.28125 l -0.078125,0.515625 h -0.8125 v 2.25 c 0,0.199219 0.03125,0.34375 0.09375,0.4375 0.070313,0.085937 0.191406,0.125 0.359375,0.125 0.144531,0 0.3125,-0.050781 0.5,-0.15625 z m 0,0"
               id="id-3611f70e-777f-40d7-a3e9-bac847bd3819" />
          </g>
          <g
             id="id-1e020466-605f-4d8c-be74-7c5c3b8ca70d">
            <path
               d="M 0.4375,-1.734375 H 3.140625 V -2.28125 H 0.4375 Z m 0,0"
               id="id-e9cfa701-ab50-48b8-8ab4-5b128a513614" />
          </g>
          <g
             id="id-de8d6926-f81b-48fd-9aa9-d4cc99494962">
            <path
               d="m 1.984375,0 h 0.65625 V -4.9375 H 2.0625 l -1.484375,0.921875 0.28125,0.453125 1.125,-0.671875 z m 0,0"
               id="id-a6ff7332-2e80-4665-92d3-6a9b8daef525" />
          </g>
          <g
             id="id-12fbb204-64cb-48f4-a42f-b793dc4b8c5b">
            <path
               d="m 2.25,-3.34375 c 0.34375,0 0.578125,0.171875 0.78125,0.453125 L 2.796875,-1.3125 c -0.328125,0.53125 -0.640625,0.875 -1.109375,0.875 -0.390625,0 -0.625,-0.28125 -0.625,-0.921875 0,-0.75 0.265625,-1.984375 1.1875,-1.984375 z m 1.125,-2.015625 -0.28125,1.96875 C 2.890625,-3.65625 2.5625,-3.859375 2.125,-3.859375 c -1.296875,0 -1.765625,1.46875 -1.765625,2.453125 0,0.90625 0.421875,1.5 1.203125,1.5 0.484375,0 0.875,-0.28125 1.140625,-0.71875 V 0 h 0.5625 l 0.75,-5.296875 z m 0,0"
               id="id-37cea9e0-8a8d-40eb-b8c5-78ad5ce43762" />
          </g>
        </g>
      </defs>
      <g
         fill="#000000"
         fill-opacity="1"
         id="id-3404f0a8-c11c-4fb7-aa03-28fe4ef61754"
         transform="translate(-149.275,-125.842)">
        <g
           transform="translate(148.712,134.765)"
           id="g7229">
          <path
             d="M 3.828125,-5.375 C 3.078125,-5.375 2.5,-4.921875 2,-4.234375 L 2.078125,-5.25 H 1.3125 L 0.5625,0 h 0.90625 l 0.4375,-3.15625 c 0.421875,-0.734375 1,-1.453125 1.671875,-1.453125 0.40625,0 0.65625,0.203125 0.5625,0.9375 L 3.625,0 H 4.53125 L 5.046875,-3.6875 C 5.1875,-4.734375 4.703125,-5.375 3.828125,-5.375 Z m 0,0"
             id="id-b23c13ad-853a-4ff2-aa73-00478447767c" />
        </g>
      </g>
      <g
         fill="#000000"
         fill-opacity="1"
         id="id-0d175b6a-67bb-4767-95ae-6959aa554894"
         transform="translate(-149.275,-125.842)">
        <g
           transform="translate(154.491,138.252)"
           id="g3381">
          <path
             d="m 1.75,-4.9375 c 0.75,0 1.347656,0.171875 1.796875,0.515625 C 3.992188,-4.078125 4.21875,-3.4375 4.21875,-2.5 c 0,0.917969 -0.226562,1.5625 -0.671875,1.9375 C 3.097656,-0.1875 2.550781,0 1.90625,0 h -1.1875 v -4.9375 z m -0.34375,0.546875 v 3.859375 h 0.546875 c 0.457031,0 0.828125,-0.140625 1.109375,-0.421875 C 3.351562,-1.242188 3.5,-1.757812 3.5,-2.5 3.5,-3.019531 3.425781,-3.414062 3.28125,-3.6875 3.132812,-3.96875 2.941406,-4.15625 2.703125,-4.25 2.472656,-4.34375 2.207031,-4.390625 1.90625,-4.390625 Z m 0,0"
             id="id-af0f8a91-9f9a-4ff5-bf7d-c582bb170b9f" />
        </g>
        <g
           transform="translate(159.11,138.252)"
           id="g6793">
          <path
             d="m 3.53125,-2 c 0,0.105469 -0.00781,0.21875 -0.015625,0.34375 h -2.40625 c 0.03125,0.40625 0.132813,0.710938 0.3125,0.90625 0.1875,0.199219 0.421875,0.296875 0.703125,0.296875 0.1875,0 0.351562,-0.023437 0.5,-0.078125 0.15625,-0.050781 0.316406,-0.132812 0.484375,-0.25 L 3.40625,-0.390625 C 3,-0.0664062 2.554688,0.09375 2.078125,0.09375 1.554688,0.09375 1.144531,-0.078125 0.84375,-0.421875 0.550781,-0.773438 0.40625,-1.25 0.40625,-1.84375 c 0,-0.394531 0.0625,-0.742188 0.1875,-1.046875 0.125,-0.300781 0.304688,-0.535156 0.546875,-0.703125 0.238281,-0.175781 0.519531,-0.265625 0.84375,-0.265625 0.5,0 0.878906,0.167969 1.140625,0.5 C 3.394531,-3.035156 3.53125,-2.582031 3.53125,-2 Z M 2.890625,-2.1875 c 0,-0.375 -0.078125,-0.660156 -0.234375,-0.859375 C 2.507812,-3.242188 2.289062,-3.34375 2,-3.34375 c -0.542969,0 -0.839844,0.398438 -0.890625,1.1875 h 1.78125 z m 0,0"
             id="id-d8642fa7-0581-4691-b7b5-366b625b1ea3" />
        </g>
        <g
           transform="translate(163.02,138.252)"
           id="g6849">
          <path
             d="M 2.59375,-0.171875 C 2.34375,0.00390625 2.0625,0.09375 1.75,0.09375 1.425781,0.09375 1.171875,0 0.984375,-0.1875 0.804688,-0.375 0.71875,-0.640625 0.71875,-0.984375 v -2.28125 H 0.0625 V -3.78125 H 0.71875 V -4.640625 L 1.390625,-4.71875 v 0.9375 H 2.28125 l -0.078125,0.515625 h -0.8125 v 2.25 c 0,0.199219 0.03125,0.34375 0.09375,0.4375 0.070313,0.085937 0.191406,0.125 0.359375,0.125 0.144531,0 0.3125,-0.050781 0.5,-0.15625 z m 0,0"
             id="id-226b0a99-03a2-48dc-9dab-1d59b18ad5f3" />
        </g>
      </g>
      <g
         fill="#000000"
         fill-opacity="1"
         id="id-89b2ff89-0366-41d2-83b6-523037d4d4ff"
         transform="translate(-149.275,-125.842)">
        <g
           transform="translate(166.107,134.765)"
           id="g2005">
          <path
             d="m 4.03125,-6.984375 c -2.40625,0 -3.4375,2.421875 -3.4375,4.40625 0,1.796875 0.9375,2.703125 2.421875,2.703125 0.9375,0 1.65625,-0.234375 2.3125,-0.65625 L 5.78125,-3.8125 H 3.546875 v 0.765625 H 4.75 L 4.453125,-1 c -0.421875,0.25 -0.875,0.34375 -1.3125,0.34375 -1.015625,0 -1.5625,-0.53125 -1.5625,-1.8125 0,-1.640625 0.6875,-3.734375 2.46875,-3.734375 0.59375,0 0.953125,0.140625 1.421875,0.515625 l 0.578125,-0.515625 c -0.515625,-0.5 -1.125,-0.78125 -2.015625,-0.78125 z m 0,0"
             id="id-478e779a-1ecc-4db9-8777-c457388451ab" />
        </g>
      </g>
      <g
         fill="#000000"
         fill-opacity="1"
         id="id-117bf48b-8135-4aca-bbd8-b75ab5dbfe05"
         transform="translate(-149.275,-125.842)">
        <g
           transform="translate(172.533,130.779)"
           id="g2957">
          <path
             d="M 0.4375,-1.734375 H 3.140625 V -2.28125 H 0.4375 Z m 0,0"
             id="id-4b8eb50d-3838-46c7-9026-357bd48c233a" />
        </g>
        <g
           transform="translate(176.12,130.779)"
           id="g7191">
          <path
             d="m 1.984375,0 h 0.65625 V -4.9375 H 2.0625 l -1.484375,0.921875 0.28125,0.453125 1.125,-0.671875 z m 0,0"
             id="id-d61d0810-db78-4243-94b7-e400a7df9889" />
        </g>
      </g>
      <g
         fill="#000000"
         fill-opacity="1"
         id="id-182861b5-5ce7-4c56-897e-3ac288116669"
         transform="translate(-149.275,-125.842)">
        <g
           transform="translate(172.334,138.252)"
           id="g182">
          <path
             d="m 2.25,-3.34375 c 0.34375,0 0.578125,0.171875 0.78125,0.453125 L 2.796875,-1.3125 c -0.328125,0.53125 -0.640625,0.875 -1.109375,0.875 -0.390625,0 -0.625,-0.28125 -0.625,-0.921875 0,-0.75 0.265625,-1.984375 1.1875,-1.984375 z m 1.125,-2.015625 -0.28125,1.96875 C 2.890625,-3.65625 2.5625,-3.859375 2.125,-3.859375 c -1.296875,0 -1.765625,1.46875 -1.765625,2.453125 0,0.90625 0.421875,1.5 1.203125,1.5 0.484375,0 0.875,-0.28125 1.140625,-0.71875 V 0 h 0.5625 l 0.75,-5.296875 z m 0,0"
             id="id-6855d63a-b8cc-43ba-8b8a-d1d993f4ae54" />
        </g>
      </g>
    </g>
    <g
       transform="matrix(1.16517,0,0,1.16517,109.73828,38.530498)"
       ns8:version="1.10.2"
       ns8:texconverter="xelatex"
       ns8:pdfconverter="inkscape"
       ns8:text="$n_\\text{Det} G_{c0}^{-1}$"
       ns8:preamble="/home/kirito/.config/textext/beamer_preamble.tex"
       ns8:scale="3.302830605184801"
       ns8:alignment="middle center"
       ns8:stroke-to-path="0"
       id="g33"
       ns8:jacobian_sqrt="1.16517">
      <defs
         id="id-6a439644-d600-4983-91b0-b8da74a774fd">
        <g
           id="id-4cfdc428-9098-4401-af0e-e2f93757d373">
          <g
             id="id-adde8374-3125-420f-a2b7-770d7b0adc2f">
            <path
               d="M 3.828125,-5.375 C 3.078125,-5.375 2.5,-4.921875 2,-4.234375 L 2.078125,-5.25 H 1.3125 L 0.5625,0 h 0.90625 l 0.4375,-3.15625 c 0.421875,-0.734375 1,-1.453125 1.671875,-1.453125 0.40625,0 0.65625,0.203125 0.5625,0.9375 L 3.625,0 H 4.53125 L 5.046875,-3.6875 C 5.1875,-4.734375 4.703125,-5.375 3.828125,-5.375 Z m 0,0"
               id="id-c6282457-6c72-4e69-b24e-9c5cf74da0a8" />
          </g>
          <g
             id="id-d79555a1-31e1-47f0-abe0-a0c02c62cada">
            <path
               d="m 4.03125,-6.984375 c -2.40625,0 -3.4375,2.421875 -3.4375,4.40625 0,1.796875 0.9375,2.703125 2.421875,2.703125 0.9375,0 1.65625,-0.234375 2.3125,-0.65625 L 5.78125,-3.8125 H 3.546875 v 0.765625 H 4.75 L 4.453125,-1 c -0.421875,0.25 -0.875,0.34375 -1.3125,0.34375 -1.015625,0 -1.5625,-0.53125 -1.5625,-1.8125 0,-1.640625 0.6875,-3.734375 2.46875,-3.734375 0.59375,0 0.953125,0.140625 1.421875,0.515625 l 0.578125,-0.515625 c -0.515625,-0.5 -1.125,-0.78125 -2.015625,-0.78125 z m 0,0"
               id="id-2245fb0e-e885-4c78-a81e-585b09e03620" />
          </g>
          <g
             id="id-513bf384-2e0e-4830-952a-d7aff0ec1714">
            <path
               d="m 1.75,-4.9375 c 0.75,0 1.347656,0.171875 1.796875,0.515625 C 3.992188,-4.078125 4.21875,-3.4375 4.21875,-2.5 c 0,0.917969 -0.226562,1.5625 -0.671875,1.9375 C 3.097656,-0.1875 2.550781,0 1.90625,0 h -1.1875 v -4.9375 z m -0.34375,0.546875 v 3.859375 h 0.546875 c 0.457031,0 0.828125,-0.140625 1.109375,-0.421875 C 3.351562,-1.242188 3.5,-1.757812 3.5,-2.5 3.5,-3.019531 3.425781,-3.414062 3.28125,-3.6875 3.132812,-3.96875 2.941406,-4.15625 2.703125,-4.25 2.472656,-4.34375 2.207031,-4.390625 1.90625,-4.390625 Z m 0,0"
               id="id-68b76ac9-6616-4e4f-bc9f-754418a5e0ac" />
          </g>
          <g
             id="id-487aac60-d552-4e7d-b2eb-0cbab0712401">
            <path
               d="m 3.53125,-2 c 0,0.105469 -0.00781,0.21875 -0.015625,0.34375 h -2.40625 c 0.03125,0.40625 0.132813,0.710938 0.3125,0.90625 0.1875,0.199219 0.421875,0.296875 0.703125,0.296875 0.1875,0 0.351562,-0.023437 0.5,-0.078125 0.15625,-0.050781 0.316406,-0.132812 0.484375,-0.25 L 3.40625,-0.390625 C 3,-0.0664062 2.554688,0.09375 2.078125,0.09375 1.554688,0.09375 1.144531,-0.078125 0.84375,-0.421875 0.550781,-0.773438 0.40625,-1.25 0.40625,-1.84375 c 0,-0.394531 0.0625,-0.742188 0.1875,-1.046875 0.125,-0.300781 0.304688,-0.535156 0.546875,-0.703125 0.238281,-0.175781 0.519531,-0.265625 0.84375,-0.265625 0.5,0 0.878906,0.167969 1.140625,0.5 C 3.394531,-3.035156 3.53125,-2.582031 3.53125,-2 Z M 2.890625,-2.1875 c 0,-0.375 -0.078125,-0.660156 -0.234375,-0.859375 C 2.507812,-3.242188 2.289062,-3.34375 2,-3.34375 c -0.542969,0 -0.839844,0.398438 -0.890625,1.1875 h 1.78125 z m 0,0"
               id="id-4e8ecdb5-e29c-46a0-b212-ee2b186cde28" />
          </g>
          <g
             id="id-12040af7-ae27-4c63-bf0b-5ab6893c2da3">
            <path
               d="M 2.59375,-0.171875 C 2.34375,0.00390625 2.0625,0.09375 1.75,0.09375 1.425781,0.09375 1.171875,0 0.984375,-0.1875 0.804688,-0.375 0.71875,-0.640625 0.71875,-0.984375 v -2.28125 H 0.0625 V -3.78125 H 0.71875 V -4.640625 L 1.390625,-4.71875 v 0.9375 H 2.28125 l -0.078125,0.515625 h -0.8125 v 2.25 c 0,0.199219 0.03125,0.34375 0.09375,0.4375 0.070313,0.085937 0.191406,0.125 0.359375,0.125 0.144531,0 0.3125,-0.050781 0.5,-0.15625 z m 0,0"
               id="id-df9a38dc-923b-41dc-90de-2a3b09037390" />
          </g>
          <g
             id="id-f293dbc9-cff1-4773-adfc-7b83f2d49916">
            <path
               d="M 0.4375,-1.734375 H 3.140625 V -2.28125 H 0.4375 Z m 0,0"
               id="id-de23bf97-441d-4693-a748-ab7341eedffb" />
          </g>
          <g
             id="id-fcbfb90d-b0b6-434f-ac69-655afb70e52c">
            <path
               d="m 1.984375,0 h 0.65625 V -4.9375 H 2.0625 l -1.484375,0.921875 0.28125,0.453125 1.125,-0.671875 z m 0,0"
               id="id-e27265f5-df46-494e-9169-5877c57614e8" />
          </g>
          <g
             id="id-cf05ef74-2694-44f4-8259-aca1adceb5fb">
            <path
               d="m 2.28125,-3.859375 c -1.390625,0 -1.90625,1.40625 -1.90625,2.40625 0,0.96875 0.515625,1.546875 1.40625,1.546875 0.421875,0 0.8125,-0.140625 1.1875,-0.40625 L 2.703125,-0.765625 c -0.296875,0.1875 -0.546875,0.296875 -0.875,0.296875 -0.484375,0 -0.765625,-0.28125 -0.765625,-0.9375 0,-0.78125 0.28125,-1.921875 1.234375,-1.921875 0.296875,0 0.5,0.09375 0.734375,0.28125 l 0.359375,-0.40625 C 3.078125,-3.75 2.71875,-3.859375 2.28125,-3.859375 Z m 0,0"
               id="id-76133e68-8f62-4a68-b813-b78f03b74164" />
          </g>
          <g
             id="id-ea0ffdd9-70ee-44fc-96cb-81f82a8a027a">
            <path
               d="m 2.015625,-4.5 c 0.59375,0 0.90625,0.546875 0.90625,2.03125 0,1.484375 -0.3125,2.03125 -0.90625,2.03125 -0.609375,0 -0.921875,-0.546875 -0.921875,-2.03125 0,-1.484375 0.3125,-2.03125 0.921875,-2.03125 z m 0,-0.53125 c -1.078125,0 -1.609375,0.890625 -1.609375,2.5625 0,1.671875 0.53125,2.5625 1.609375,2.5625 1.0625,0 1.59375,-0.890625 1.59375,-2.5625 0,-1.671875 -0.53125,-2.5625 -1.59375,-2.5625 z m 0,0"
               id="id-7df97e26-88ae-4067-9ef3-9c0ed8a8c41a" />
          </g>
        </g>
      </defs>
      <g
         fill="#000000"
         fill-opacity="1"
         id="id-ac9ddbd0-e83d-45e8-8729-02f8070bbeec"
         transform="translate(-149.275,-125.842)">
        <g
           transform="translate(148.712,134.765)"
           id="g9895">
          <path
             d="M 3.828125,-5.375 C 3.078125,-5.375 2.5,-4.921875 2,-4.234375 L 2.078125,-5.25 H 1.3125 L 0.5625,0 h 0.90625 l 0.4375,-3.15625 c 0.421875,-0.734375 1,-1.453125 1.671875,-1.453125 0.40625,0 0.65625,0.203125 0.5625,0.9375 L 3.625,0 H 4.53125 L 5.046875,-3.6875 C 5.1875,-4.734375 4.703125,-5.375 3.828125,-5.375 Z m 0,0"
             id="id-5ac56528-fb7d-4caf-bfc3-ef2d34bc9e45" />
        </g>
      </g>
      <g
         fill="#000000"
         fill-opacity="1"
         id="id-7a7de6ab-7a65-4dbb-869b-061635b2fd2b"
         transform="translate(-149.275,-125.842)">
        <g
           transform="translate(154.491,138.252)"
           id="g5713">
          <path
             d="m 1.75,-4.9375 c 0.75,0 1.347656,0.171875 1.796875,0.515625 C 3.992188,-4.078125 4.21875,-3.4375 4.21875,-2.5 c 0,0.917969 -0.226562,1.5625 -0.671875,1.9375 C 3.097656,-0.1875 2.550781,0 1.90625,0 h -1.1875 v -4.9375 z m -0.34375,0.546875 v 3.859375 h 0.546875 c 0.457031,0 0.828125,-0.140625 1.109375,-0.421875 C 3.351562,-1.242188 3.5,-1.757812 3.5,-2.5 3.5,-3.019531 3.425781,-3.414062 3.28125,-3.6875 3.132812,-3.96875 2.941406,-4.15625 2.703125,-4.25 2.472656,-4.34375 2.207031,-4.390625 1.90625,-4.390625 Z m 0,0"
             id="id-60dd1800-9018-4c94-8228-bf574ae88c6e" />
        </g>
        <g
           transform="translate(159.11,138.252)"
           id="g5738">
          <path
             d="m 3.53125,-2 c 0,0.105469 -0.00781,0.21875 -0.015625,0.34375 h -2.40625 c 0.03125,0.40625 0.132813,0.710938 0.3125,0.90625 0.1875,0.199219 0.421875,0.296875 0.703125,0.296875 0.1875,0 0.351562,-0.023437 0.5,-0.078125 0.15625,-0.050781 0.316406,-0.132812 0.484375,-0.25 L 3.40625,-0.390625 C 3,-0.0664062 2.554688,0.09375 2.078125,0.09375 1.554688,0.09375 1.144531,-0.078125 0.84375,-0.421875 0.550781,-0.773438 0.40625,-1.25 0.40625,-1.84375 c 0,-0.394531 0.0625,-0.742188 0.1875,-1.046875 0.125,-0.300781 0.304688,-0.535156 0.546875,-0.703125 0.238281,-0.175781 0.519531,-0.265625 0.84375,-0.265625 0.5,0 0.878906,0.167969 1.140625,0.5 C 3.394531,-3.035156 3.53125,-2.582031 3.53125,-2 Z M 2.890625,-2.1875 c 0,-0.375 -0.078125,-0.660156 -0.234375,-0.859375 C 2.507812,-3.242188 2.289062,-3.34375 2,-3.34375 c -0.542969,0 -0.839844,0.398438 -0.890625,1.1875 h 1.78125 z m 0,0"
             id="id-1596b0b6-2f8c-492c-9ee4-2ffee06ecb8d" />
        </g>
        <g
           transform="translate(163.02,138.252)"
           id="g942">
          <path
             d="M 2.59375,-0.171875 C 2.34375,0.00390625 2.0625,0.09375 1.75,0.09375 1.425781,0.09375 1.171875,0 0.984375,-0.1875 0.804688,-0.375 0.71875,-0.640625 0.71875,-0.984375 v -2.28125 H 0.0625 V -3.78125 H 0.71875 V -4.640625 L 1.390625,-4.71875 v 0.9375 H 2.28125 l -0.078125,0.515625 h -0.8125 v 2.25 c 0,0.199219 0.03125,0.34375 0.09375,0.4375 0.070313,0.085937 0.191406,0.125 0.359375,0.125 0.144531,0 0.3125,-0.050781 0.5,-0.15625 z m 0,0"
             id="id-a1afe8c4-4b8a-4437-b7f5-712f5607c99b" />
        </g>
      </g>
      <g
         fill="#000000"
         fill-opacity="1"
         id="id-87fca9ea-5a58-4240-98a8-9a7b4cf6c388"
         transform="translate(-149.275,-125.842)">
        <g
           transform="translate(166.107,134.765)"
           id="g674">
          <path
             d="m 4.03125,-6.984375 c -2.40625,0 -3.4375,2.421875 -3.4375,4.40625 0,1.796875 0.9375,2.703125 2.421875,2.703125 0.9375,0 1.65625,-0.234375 2.3125,-0.65625 L 5.78125,-3.8125 H 3.546875 v 0.765625 H 4.75 L 4.453125,-1 c -0.421875,0.25 -0.875,0.34375 -1.3125,0.34375 -1.015625,0 -1.5625,-0.53125 -1.5625,-1.8125 0,-1.640625 0.6875,-3.734375 2.46875,-3.734375 0.59375,0 0.953125,0.140625 1.421875,0.515625 l 0.578125,-0.515625 c -0.515625,-0.5 -1.125,-0.78125 -2.015625,-0.78125 z m 0,0"
             id="id-46067abd-a728-4c95-9e6c-68d12b43adfa" />
        </g>
      </g>
      <g
         fill="#000000"
         fill-opacity="1"
         id="id-11934ca5-e73c-4925-8802-e39ec67e1172"
         transform="translate(-149.275,-125.842)">
        <g
           transform="translate(172.533,130.779)"
           id="g9796">
          <path
             d="M 0.4375,-1.734375 H 3.140625 V -2.28125 H 0.4375 Z m 0,0"
             id="id-c2469ae2-43f9-4532-83d1-f499d000d60f" />
        </g>
        <g
           transform="translate(176.12,130.779)"
           id="g2004">
          <path
             d="m 1.984375,0 h 0.65625 V -4.9375 H 2.0625 l -1.484375,0.921875 0.28125,0.453125 1.125,-0.671875 z m 0,0"
             id="id-5e386f6e-84d1-498f-9f37-72599e54fa0e" />
        </g>
      </g>
      <g
         fill="#000000"
         fill-opacity="1"
         id="id-c361cc1b-077c-4175-90e1-1ab79f4282cb"
         transform="translate(-149.275,-125.842)">
        <g
           transform="translate(172.334,138.252)"
           id="g1205">
          <path
             d="m 2.28125,-3.859375 c -1.390625,0 -1.90625,1.40625 -1.90625,2.40625 0,0.96875 0.515625,1.546875 1.40625,1.546875 0.421875,0 0.8125,-0.140625 1.1875,-0.40625 L 2.703125,-0.765625 c -0.296875,0.1875 -0.546875,0.296875 -0.875,0.296875 -0.484375,0 -0.765625,-0.28125 -0.765625,-0.9375 0,-0.78125 0.28125,-1.921875 1.234375,-1.921875 0.296875,0 0.5,0.09375 0.734375,0.28125 l 0.359375,-0.40625 C 3.078125,-3.75 2.71875,-3.859375 2.28125,-3.859375 Z m 0,0"
             id="id-cb5887fc-8d9c-4077-9d5b-3bea3f7a612e" />
        </g>
      </g>
      <g
         fill="#000000"
         fill-opacity="1"
         id="id-6ad2dda9-cfb5-4a69-9b34-c80cbb62054d"
         transform="translate(-149.275,-125.842)">
        <g
           transform="translate(175.928,138.252)"
           id="g8437">
          <path
             d="m 2.015625,-4.5 c 0.59375,0 0.90625,0.546875 0.90625,2.03125 0,1.484375 -0.3125,2.03125 -0.90625,2.03125 -0.609375,0 -0.921875,-0.546875 -0.921875,-2.03125 0,-1.484375 0.3125,-2.03125 0.921875,-2.03125 z m 0,-0.53125 c -1.078125,0 -1.609375,0.890625 -1.609375,2.5625 0,1.671875 0.53125,2.5625 1.609375,2.5625 1.0625,0 1.59375,-0.890625 1.59375,-2.5625 0,-1.671875 -0.53125,-2.5625 -1.59375,-2.5625 z m 0,0"
             id="id-1412e2f2-6396-42f6-a89a-69210031c778" />
        </g>
      </g>
    </g>
    <g
       transform="matrix(1.16517,0,0,1.16517,-14.695471,84.300777)"
       ns8:version="1.10.2"
       ns8:texconverter="xelatex"
       ns8:pdfconverter="inkscape"
       ns8:text="$V=0$"
       ns8:preamble="/home/kirito/.config/textext/beamer_preamble.tex"
       ns8:scale="3.302830605184801"
       ns8:alignment="middle center"
       ns8:stroke-to-path="0"
       id="g9640"
       ns8:jacobian_sqrt="1.16517">
      <defs
         id="id-81b5cd77-0cb1-44cc-a965-e13ce5a7aaf0">
        <g
           id="id-c36ddf2f-6530-4610-b84b-e08d278e02da">
          <g
             id="id-c5675997-8b67-4943-b236-0ae595da29c4">
            <path
               d="M 6.015625,-6.875 H 5.046875 L 2.5,-1.03125 1.625,-6.875 H 0.640625 L 1.875,0 h 1 z m 0,0"
               id="id-3f0340ef-90f2-42ff-a92b-78c9d1f99f47" />
          </g>
          <g
             id="id-c4019c5d-8b5b-47cc-9b6d-7e712cfc0356">
            <path
               d="M 0.625,-1.453125 H 4.359375 V -2.21875 H 0.625 Z m 0,-1.921875 h 3.734375 v -0.75 H 0.625 Z m 0,0"
               id="id-e4ff2b0d-fa8d-4f49-80dd-9bc351f2195c" />
          </g>
          <g
             id="id-a949074c-8286-46e7-a72a-ac7f9e538f7d">
            <path
               d="M 2.796875,-6.265625 C 3.625,-6.265625 4.0625,-5.5 4.0625,-3.4375 c 0,2.078125 -0.4375,2.828125 -1.265625,2.828125 -0.84375,0 -1.28125,-0.75 -1.28125,-2.828125 0,-2.0625 0.4375,-2.828125 1.28125,-2.828125 z m 0,-0.71875 c -1.5,0 -2.234375,1.21875 -2.234375,3.546875 0,2.328125 0.734375,3.5625 2.234375,3.5625 1.484375,0 2.234375,-1.234375 2.234375,-3.5625 0,-2.3125 -0.75,-3.546875 -2.234375,-3.546875 z m 0,0"
               id="id-25217069-fa2e-4872-bdd8-630c3cdbbb06" />
          </g>
        </g>
      </defs>
      <g
         fill="#000000"
         fill-opacity="1"
         id="id-85cc5229-a577-4848-8c3f-e14e25fc111a"
         transform="translate(-149.353,-127.781)">
        <g
           transform="translate(148.712,134.765)"
           id="g3499">
          <path
             d="M 6.015625,-6.875 H 5.046875 L 2.5,-1.03125 1.625,-6.875 H 0.640625 L 1.875,0 h 1 z m 0,0"
             id="id-b19f9470-cc01-4121-89ee-c9fc49476b7f" />
        </g>
      </g>
      <g
         fill="#000000"
         fill-opacity="1"
         id="id-37fb9a54-b471-4758-a1dd-6878e7d97e24"
         transform="translate(-149.353,-127.781)">
        <g
           transform="translate(157.947,134.765)"
           id="g7863">
          <path
             d="M 0.625,-1.453125 H 4.359375 V -2.21875 H 0.625 Z m 0,-1.921875 h 3.734375 v -0.75 H 0.625 Z m 0,0"
             id="id-d8c9c06d-3632-4e77-9991-1721989578e0" />
        </g>
      </g>
      <g
         fill="#000000"
         fill-opacity="1"
         id="id-ae56eaab-345c-43c1-b504-4ac16f20d826"
         transform="translate(-149.353,-127.781)">
        <g
           transform="translate(165.698,134.765)"
           id="g1073">
          <path
             d="M 2.796875,-6.265625 C 3.625,-6.265625 4.0625,-5.5 4.0625,-3.4375 c 0,2.078125 -0.4375,2.828125 -1.265625,2.828125 -0.84375,0 -1.28125,-0.75 -1.28125,-2.828125 0,-2.0625 0.4375,-2.828125 1.28125,-2.828125 z m 0,-0.71875 c -1.5,0 -2.234375,1.21875 -2.234375,3.546875 0,2.328125 0.734375,3.5625 2.234375,3.5625 1.484375,0 2.234375,-1.234375 2.234375,-3.5625 0,-2.3125 -0.75,-3.546875 -2.234375,-3.546875 z m 0,0"
             id="id-32cbb874-f6dd-4b64-afcb-75aba037a712" />
        </g>
      </g>
    </g>
    <path
       style="fill:#2683b3;stroke:#505050;stroke-width:2;stroke-linejoin:bevel;stroke-dasharray:none;stroke-opacity:1;paint-order:markers stroke fill"
       d="m 49.183826,58.55854 v 61.76723"
       id="path33"
       inkscape:path-effect="#path-effect99"
       inkscape:original-d="m 49.183826,58.55854 c 0,20.589076 0,61.76723 0,61.76723"
       transform="translate(-21.166667,79.375004)" />
    <path
       style="fill:#2683b3;stroke:#505050;stroke-width:2;stroke-linejoin:bevel;stroke-dasharray:none;stroke-opacity:1;paint-order:markers stroke fill"
       d="m 49.183826,58.55854 v 61.76723"
       id="path34"
       inkscape:path-effect="#path-effect101"
       inkscape:original-d="m 49.183826,58.55854 c 0,20.589076 0,61.76723 0,61.76723"
       transform="rotate(90,9.4963307,129.12962)" />
    <path
       style="fill:none;stroke:#2a7860;stroke-width:2.32293;stroke-linejoin:bevel;stroke-dasharray:none;stroke-opacity:1;paint-order:markers stroke fill"
       d="m 62.867806,67.593132 c -3.67055,-1.770799 -7.88384,-2.253533 -11.931181,-1.776357 -4.04734,0.477176 -7.94362,1.878541 -11.584218,3.710128 -4.050312,2.037715 -7.927118,4.719224 -10.390798,8.525481 -2.176716,3.362912 -3.119031,7.480156 -2.764094,11.470305 0.354937,3.990149 1.9828,7.836987 4.48823,10.962701 3.550736,4.42981 8.851091,7.37696 14.464012,8.22906 5.612922,0.8521 11.487948,-0.36196 16.395,-3.2171 3.349923,-1.94913 6.269517,-4.65408 8.389196,-7.898774 2.119679,-3.244696 3.428144,-7.028681 3.671242,-10.896755 0.243099,-3.868074 -0.590921,-7.810814 -2.46226,-11.204806 -1.871339,-3.393992 -4.784413,-6.219842 -8.275129,-7.903883 z"
       id="path35"
       inkscape:path-effect="#path-effect103"
       inkscape:original-d="m 62.867806,67.593132 c 0.441016,-12.63474 -15.676932,1.28918 -23.515399,1.933771 -7.838463,0.644589 -6.927199,5.683655 -10.390798,8.525481 -3.463598,2.841826 1.149424,14.955335 1.724136,22.433006 0.574712,7.47766 20.572674,3.34131 30.859012,5.01196 10.286339,1.67066 0.882034,-25.269477 1.323049,-37.904218 z"
       transform="matrix(0.7365643,0,0,1.006418,19.540089,78.814633)" />
    <circle
       style="fill:#cf6060;fill-opacity:1;stroke:none;stroke-width:2;stroke-linejoin:bevel;stroke-dasharray:none;stroke-opacity:1;paint-order:markers stroke fill"
       id="circle35"
       cx="28.017157"
       cy="168.81717"
       r="4.7103529" />
    <path
       style="fill:#2683b3;stroke:#505050;stroke-width:2;stroke-linejoin:bevel;stroke-dasharray:none;stroke-opacity:1;paint-order:markers stroke fill"
       d="m 49.183826,58.55854 v 61.76723"
       id="path36"
       inkscape:path-effect="#path-effect105"
       inkscape:original-d="m 49.183826,58.55854 c 0,20.589076 0,61.76723 0,61.76723"
       transform="translate(79.375004,79.375004)" />
    <path
       style="fill:#2683b3;stroke:#505050;stroke-width:2;stroke-linejoin:bevel;stroke-dasharray:none;stroke-opacity:1;paint-order:markers stroke fill"
       d="m 49.183826,58.55854 v 61.76723"
       id="path37"
       inkscape:path-effect="#path-effect107"
       inkscape:original-d="m 49.183826,58.55854 c 0,20.589076 0,61.76723 0,61.76723"
       transform="rotate(90,49.183826,168.81707)" />
    <circle
       style="fill:#cf6060;fill-opacity:1;stroke:none;stroke-width:2;stroke-linejoin:bevel;stroke-dasharray:none;stroke-opacity:1;paint-order:markers stroke fill"
       id="circle38"
       cx="128.55881"
       cy="168.81717"
       r="4.7103529" />
    <g
       transform="matrix(1.16517,0,0,1.16517,-14.6959,163.676)"
       ns8:version="1.10.2"
       ns8:texconverter="xelatex"
       ns8:pdfconverter="inkscape"
       ns8:text="$V\\neq0$"
       ns8:preamble="/home/kirito/.config/textext/beamer_preamble.tex"
       ns8:scale="3.302830605184801"
       ns8:alignment="middle center"
       ns8:stroke-to-path="0"
       id="g98"
       ns8:jacobian_sqrt="1.16517">
      <defs
         id="id-d18ccc57-fa3e-4fb2-bfa5-db611f6d8c36">
        <g
           id="id-894da077-5f36-4d8a-b15c-ebc182d35106">
          <g
             id="id-dc233b6b-6a05-41bb-9d53-49a41a9920b5">
            <path
               d="M 6.015625,-6.875 H 5.046875 L 2.5,-1.03125 1.625,-6.875 H 0.640625 L 1.875,0 h 1 z m 0,0"
               id="id-4828373d-3076-469e-8dca-de8b9724c9f4" />
          </g>
          <g
             id="id-6955b245-32d9-48ff-838d-397dbdfa50d8">
            <path
               d="m 0.625,-1.453125 h 0.703125 l -0.5625,0.96875 0.578125,0.34375 0.765625,-1.3125 h 2.25 V -2.21875 h -1.8125 L 3.203125,-3.375 h 1.15625 v -0.75 H 3.65625 L 4.21875,-5.109375 3.640625,-5.4375 2.875,-4.125 h -2.25 v 0.75 H 2.4375 L 1.78125,-2.21875 H 0.625 Z m 0,0"
               id="id-d4ed2208-fc5a-4855-9bda-87f358a02347" />
          </g>
          <g
             id="id-afe484f5-0f4d-412f-8137-9682ccd43e89">
            <path
               d="M 2.796875,-6.265625 C 3.625,-6.265625 4.0625,-5.5 4.0625,-3.4375 c 0,2.078125 -0.4375,2.828125 -1.265625,2.828125 -0.84375,0 -1.28125,-0.75 -1.28125,-2.828125 0,-2.0625 0.4375,-2.828125 1.28125,-2.828125 z m 0,-0.71875 c -1.5,0 -2.234375,1.21875 -2.234375,3.546875 0,2.328125 0.734375,3.5625 2.234375,3.5625 1.484375,0 2.234375,-1.234375 2.234375,-3.5625 0,-2.3125 -0.75,-3.546875 -2.234375,-3.546875 z m 0,0"
               id="id-5e26d79f-efbb-4cb1-ad55-a6ab177b1f52" />
          </g>
        </g>
      </defs>
      <g
         fill="#000000"
         fill-opacity="1"
         id="id-9cc0f808-e68b-4fe9-885d-9ef93d3525d9"
         transform="translate(-149.353,-127.781)">
        <g
           transform="translate(148.712,134.765)"
           id="g1080">
          <path
             d="M 6.015625,-6.875 H 5.046875 L 2.5,-1.03125 1.625,-6.875 H 0.640625 L 1.875,0 h 1 z m 0,0"
             id="id-8daa3a98-13dd-47ee-8e20-2529ed18acce" />
        </g>
      </g>
      <g
         fill="#000000"
         fill-opacity="1"
         id="id-70dba1dc-aab0-4229-acbf-8f86a8af827b"
         transform="translate(-149.353,-127.781)">
        <g
           transform="translate(157.947,134.765)"
           id="g2055">
          <path
             d="m 0.625,-1.453125 h 0.703125 l -0.5625,0.96875 0.578125,0.34375 0.765625,-1.3125 h 2.25 V -2.21875 h -1.8125 L 3.203125,-3.375 h 1.15625 v -0.75 H 3.65625 L 4.21875,-5.109375 3.640625,-5.4375 2.875,-4.125 h -2.25 v 0.75 H 2.4375 L 1.78125,-2.21875 H 0.625 Z m 0,0"
             id="id-fda0b07c-e7f7-4eef-946b-e2183c9762a5" />
        </g>
      </g>
      <g
         fill="#000000"
         fill-opacity="1"
         id="id-916288e4-efcc-46d7-bd53-6955da602636"
         transform="translate(-149.353,-127.781)">
        <g
           transform="translate(165.698,134.765)"
           id="g3931">
          <path
             d="M 2.796875,-6.265625 C 3.625,-6.265625 4.0625,-5.5 4.0625,-3.4375 c 0,2.078125 -0.4375,2.828125 -1.265625,2.828125 -0.84375,0 -1.28125,-0.75 -1.28125,-2.828125 0,-2.0625 0.4375,-2.828125 1.28125,-2.828125 z m 0,-0.71875 c -1.5,0 -2.234375,1.21875 -2.234375,3.546875 0,2.328125 0.734375,3.5625 2.234375,3.5625 1.484375,0 2.234375,-1.234375 2.234375,-3.5625 0,-2.3125 -0.75,-3.546875 -2.234375,-3.546875 z m 0,0"
             id="id-46e22565-19ce-40af-bb18-ac45962991b8" />
        </g>
      </g>
    </g>
    <path
       style="fill:none;fill-opacity:1;stroke:#2a80bf;stroke-width:2;stroke-linejoin:bevel;stroke-dasharray:none;stroke-opacity:1;paint-order:markers stroke fill"
       d="m 140.55659,143.87265 c -4.41717,-1.56016 -9.27931,-1.79746 -13.84858,-0.76435 -4.56927,1.03311 -8.8358,3.32321 -12.28536,6.49276 -3.44956,3.16955 -6.08186,7.20557 -7.67959,11.6093 -1.59774,4.40372 -2.16625,9.16663 -1.74306,13.83208 0.2442,2.6922 0.8186,5.36722 1.86639,7.85914 2.31485,5.50532 6.99395,9.95463 12.58485,12.05437 5.5909,2.09973 12.01315,1.83892 17.44462,-0.64426 5.43147,-2.48318 9.81584,-7.14431 12.02735,-12.69195 2.2115,-5.54764 2.24234,-11.91916 0.15026,-17.51293 -1.98491,-5.30721 -5.8952,-9.91739 -10.93025,-12.51636 -5.03506,-2.59898 -11.16489,-3.09962 -16.47214,-1.11479 -5.0873,1.90258 -9.26804,6.03952 -11.33677,11.06155 -2.06874,5.02204 -2.02781,10.85214 -0.002,15.89166 2.02575,5.03952 5.99005,9.24836 10.84516,11.68318 4.85512,2.43482 10.55301,3.09909 15.86546,1.96848 5.19599,-1.10582 10.01724,-3.91532 13.52938,-7.90106 3.51213,-3.98574 5.69372,-9.12733 6.1041,-14.42382 0.41037,-5.29649 -0.95548,-10.71757 -3.83949,-15.17892 -2.88401,-4.46136 -7.27118,-7.93485 -12.28027,-9.70408 z"
       id="path109"
       inkscape:path-effect="#path-effect110"
       inkscape:original-d="M 140.55659,143.87265 C 141.72783,128.13669 116.8522,164.65251 105,175.04244 c -11.852198,10.38993 1.24426,5.23943 1.86639,7.85914 0.62214,2.61972 28.13805,-12.52984 42.20708,-18.79477 14.06902,-6.26492 -18.26827,-9.08743 -27.40239,-13.63115 -9.13414,-4.54372 10.24786,27.06991 15.37179,40.60487 5.12393,13.53495 2.34248,-31.47192 3.51372,-47.20788 z" />
  </g>
</svg>
