<?xml version="1.0" encoding="UTF-8" standalone="no"?>
<!-- Created with Inkscape (http://www.inkscape.org/) -->

<svg
   width="673.06946mm"
   height="115.73597mm"
   viewBox="0 0 673.06945 115.73597"
   version="1.1"
   id="svg174650"
   sodipodi:docname="bloch.svg"
   inkscape:version="1.2.2 (b0a8486541, 2022-12-01)"
   xmlns:inkscape="http://www.inkscape.org/namespaces/inkscape"
   xmlns:sodipodi="http://sodipodi.sourceforge.net/DTD/sodipodi-0.dtd"
   xmlns="http://www.w3.org/2000/svg"
   xmlns:svg="http://www.w3.org/2000/svg"
   xmlns:ns28="http://www.iki.fi/pav/software/textext/">
  <sodipodi:namedview
     id="namedview174652"
     pagecolor="#ffffff"
     bordercolor="#cccccc"
     borderopacity="1"
     inkscape:showpageshadow="0"
     inkscape:pageopacity="1"
     inkscape:pagecheckerboard="0"
     inkscape:deskcolor="#d1d1d1"
     inkscape:document-units="mm"
     showgrid="false"
     inkscape:zoom="0.34431467"
     inkscape:cx="1418.7603"
     inkscape:cy="274.45824"
     inkscape:window-width="1920"
     inkscape:window-height="1019"
     inkscape:window-x="0"
     inkscape:window-y="0"
     inkscape:window-maximized="1"
     inkscape:current-layer="layer1" />
  <defs
     id="defs174647">
    <inkscape:path-effect
       effect="spiro"
       id="path-effect179751"
       is_visible="true"
       lpeversion="1" />
    <marker
       style="overflow:visible"
       id="RoundedArrow"
       refX="0"
       refY="0"
       orient="auto-start-reverse"
       inkscape:stockid="RoundedArrow"
       markerWidth="4.1350002"
       markerHeight="3.9973249"
       viewBox="0 0 6.1347524 5.9304951"
       inkscape:isstock="true"
       inkscape:collect="always"
       preserveAspectRatio="xMidYMid">
      <path
         transform="scale(0.7)"
         d="m -0.21114562,-4.1055728 6.42229122,3.21114561 a 1,1 90 0 1 0,1.78885438 L -0.21114562,4.1055728 A 1.236068,1.236068 31.717474 0 1 -2,3 v -6 a 1.236068,1.236068 148.28253 0 1 1.78885438,-1.1055728 z"
         style="fill:context-stroke;fill-rule:evenodd;stroke:none"
         id="path1367" />
    </marker>
    <inkscape:path-effect
       effect="spiro"
       id="path-effect177541"
       is_visible="true"
       lpeversion="1" />
    <inkscape:path-effect
       effect="spiro"
       id="path-effect177058"
       is_visible="true"
       lpeversion="1" />
  </defs>
  <g
     inkscape:label="Layer 1"
     inkscape:groupmode="layer"
     id="layer1"
     transform="translate(82.275279,-43.138125)">
    <path
       style="fill:none;fill-opacity:1;stroke:#c25050;stroke-width:3;stroke-linejoin:bevel;stroke-dasharray:none;stroke-dashoffset:0;stroke-opacity:1;paint-order:markers stroke fill"
       d="m -68.036413,115.95154 c 3.4704,-1.018 6.9408,-2.984 10.4112,-8.1337 3.4703,-5.1498 6.9407,-14.075202 10.4111,-25.487702 3.4704,-11.4125 6.9408,-24.8925 10.4112,-32.2091 3.4704,-7.3167 6.9408,-7.3044 10.4112,0 3.4704,7.3044 6.9408,20.793 10.4112,32.2091 3.47034,11.416 6.94074,20.331502 10.41113,25.487702 3.47039,5.1557 6.94078,7.1157 10.41117,8.1337"
       title="4*e**(-x**2)"
       id="path175545" />
    <path
       style="fill:none;fill-opacity:1;stroke:#808080;stroke-width:3;stroke-linejoin:bevel;stroke-dasharray:none;stroke-dashoffset:0;stroke-opacity:1;paint-order:markers stroke fill"
       d="M -82.275279,118.89089 H 178.30874"
       id="path177056"
       inkscape:path-effect="#path-effect177058"
       inkscape:original-d="m -82.275279,118.89089 c 86.8616037,2.6e-4 260.584019,0 260.584019,0" />
    <circle
       style="fill:#a0c0e0;fill-opacity:1;stroke:none;stroke-width:3;stroke-linejoin:bevel;stroke-dasharray:none;stroke-dashoffset:0;stroke-opacity:1;paint-order:markers stroke fill"
       id="path177112"
       cx="-31.597313"
       cy="118.80894"
       r="8.7150707" />
    <path
       style="fill:none;fill-opacity:1;stroke:#c25050;stroke-width:3;stroke-linejoin:bevel;stroke-dasharray:none;stroke-dashoffset:0;stroke-opacity:1;paint-order:markers stroke fill"
       d="m 16.630257,115.95154 c 3.4704,-1.018 6.9408,-2.984 10.411201,-8.1337 3.470299,-5.1498 6.940699,-14.075202 10.4111,-25.487702 3.470399,-11.4125 6.940799,-24.8925 10.4112,-32.2091 3.470399,-7.3167 6.940799,-7.3044 10.4112,0 3.470399,7.3044 6.940799,20.793 10.4112,32.2091 3.470339,11.416 6.94074,20.331502 10.41113,25.487702 3.47039,5.1557 6.94078,7.1157 10.411171,8.1337"
       title="4*e**(-x**2)"
       id="path177114" />
    <circle
       style="fill:#a0c0e0;fill-opacity:1;stroke:none;stroke-width:3;stroke-linejoin:bevel;stroke-dasharray:none;stroke-dashoffset:0;stroke-opacity:1;paint-order:markers stroke fill"
       id="circle177116"
       cx="53.069355"
       cy="118.80894"
       r="8.7150707" />
    <path
       style="fill:none;fill-opacity:1;stroke:#c25050;stroke-width:3;stroke-linejoin:bevel;stroke-dasharray:none;stroke-dashoffset:0;stroke-opacity:1;paint-order:markers stroke fill"
       d="m 101.29693,115.95154 c 3.4704,-1.018 6.9408,-2.984 10.41121,-8.1337 3.47029,-5.1498 6.9407,-14.075202 10.4111,-25.487702 3.4704,-11.4125 6.9408,-24.8925 10.41121,-32.2091 3.4704,-7.3167 6.9408,-7.3044 10.4112,0 3.4704,7.3044 6.94081,20.793 10.41121,32.2091 3.47034,11.416 6.94074,20.331502 10.41114,25.487702 3.47039,5.1557 6.94078,7.1157 10.41117,8.1337"
       title="4*e**(-x**2)"
       id="path177118" />
    <circle
       style="fill:#a0c0e0;fill-opacity:1;stroke:none;stroke-width:3;stroke-linejoin:bevel;stroke-dasharray:none;stroke-dashoffset:0;stroke-opacity:1;paint-order:markers stroke fill"
       id="circle177120"
       cx="137.73601"
       cy="118.80894"
       r="8.7150707" />
    <g
       transform="matrix(7.1604192,0,0,7.1604192,-2.6338227,65.701828)"
       ns28:version="1.8.2"
       ns28:texconverter="xelatex"
       ns28:pdfconverter="inkscape"
       ns28:text="$+$"
       ns28:preamble="/home/kirito/.config/textext/beamer_preamble.tex"
       ns28:scale="6.0"
       ns28:alignment="middle center"
       ns28:stroke-to-path="0"
       ns28:jacobian_sqrt="2.11667"
       id="g177154"
       style="fill:#505050;fill-opacity:1">
      <defs
         id="id-e29f946c-a533-4df7-a224-cb0f2fd31bb8">
        <g
           id="id-7c4f6a49-9b58-4576-b6a6-3ddbc0cc3383">
          <g
             id="id-199a4fa1-d028-465c-beb8-16079ec13021">
            <path
               d="m 5.4375,-6.4375 v 5.890625 H 1.34375 V -6.4375 Z m 0.546875,-0.546875 h -5.1875 V 0 h 5.1875 z m -2.75,4.953125 c -0.21875,0 -0.40625,0.1875 -0.40625,0.421875 0,0.21875 0.1875,0.40625 0.40625,0.40625 0.25,0 0.421875,-0.1875 0.421875,-0.40625 0,-0.234375 -0.171875,-0.421875 -0.421875,-0.421875 z M 3.4375,-5.453125 c -0.5,0 -0.90625,0.1875 -1.25,0.59375 l 0.390625,0.28125 C 2.828125,-4.875 3.09375,-5 3.40625,-5 3.765625,-5 4,-4.8125 4,-4.484375 4,-3.84375 2.953125,-3.953125 2.953125,-2.9375 v 0.296875 H 3.5 V -2.90625 c 0,-0.796875 1.078125,-0.65625 1.078125,-1.625 0,-0.46875 -0.375,-0.921875 -1.140625,-0.921875 z m 0,0"
               id="id-4d035bc1-db5a-42ac-84ab-9518fb03fbd2" />
          </g>
          <g
             id="id-de51729b-6d52-4294-94c1-c20949248ea5">
            <path
               d="M 2.90625,-4.671875 H 2.078125 v 1.5 H 0.625 v 0.765625 h 1.453125 v 1.484375 H 2.90625 V -2.40625 H 4.359375 V -3.171875 H 2.90625 Z m 0,0"
               id="id-60dc9af2-67bd-46f8-8ac2-abcb70231fb2" />
          </g>
        </g>
      </defs>
      <g
         fill="#000000"
         fill-opacity="1"
         id="id-37675f21-c453-4138-9dc8-7286f5ac4bdf"
         transform="translate(-149.337,-130.093)"
         style="fill:#505050;fill-opacity:1">
        <g
           transform="translate(148.712,134.765)"
           id="g177151"
           style="fill:#505050;fill-opacity:1">
          <path
             d="M 2.90625,-4.671875 H 2.078125 v 1.5 H 0.625 v 0.765625 h 1.453125 v 1.484375 H 2.90625 V -2.40625 H 4.359375 V -3.171875 H 2.90625 Z m 0,0"
             id="id-4d573a2a-515e-4558-8922-53eaf03b550c"
             style="fill:#505050;fill-opacity:1" />
        </g>
      </g>
    </g>
    <g
       transform="matrix(7.1604192,0,0,7.1604192,82.032848,65.701828)"
       ns28:version="1.8.2"
       ns28:texconverter="xelatex"
       ns28:pdfconverter="inkscape"
       ns28:text="$+$"
       ns28:preamble="/home/kirito/.config/textext/beamer_preamble.tex"
       ns28:scale="6.0"
       ns28:alignment="middle center"
       ns28:stroke-to-path="0"
       ns28:jacobian_sqrt="2.11667"
       id="g177194"
       style="fill:#505050;fill-opacity:1">
      <defs
         id="defs177186">
        <g
           id="g177184">
          <g
             id="g177178">
            <path
               d="m 5.4375,-6.4375 v 5.890625 H 1.34375 V -6.4375 Z m 0.546875,-0.546875 h -5.1875 V 0 h 5.1875 z m -2.75,4.953125 c -0.21875,0 -0.40625,0.1875 -0.40625,0.421875 0,0.21875 0.1875,0.40625 0.40625,0.40625 0.25,0 0.421875,-0.1875 0.421875,-0.40625 0,-0.234375 -0.171875,-0.421875 -0.421875,-0.421875 z M 3.4375,-5.453125 c -0.5,0 -0.90625,0.1875 -1.25,0.59375 l 0.390625,0.28125 C 2.828125,-4.875 3.09375,-5 3.40625,-5 3.765625,-5 4,-4.8125 4,-4.484375 4,-3.84375 2.953125,-3.953125 2.953125,-2.9375 v 0.296875 H 3.5 V -2.90625 c 0,-0.796875 1.078125,-0.65625 1.078125,-1.625 0,-0.46875 -0.375,-0.921875 -1.140625,-0.921875 z m 0,0"
               id="path177176" />
          </g>
          <g
             id="g177182">
            <path
               d="M 2.90625,-4.671875 H 2.078125 v 1.5 H 0.625 v 0.765625 h 1.453125 v 1.484375 H 2.90625 V -2.40625 H 4.359375 V -3.171875 H 2.90625 Z m 0,0"
               id="path177180" />
          </g>
        </g>
      </defs>
      <g
         fill="#000000"
         fill-opacity="1"
         id="g177192"
         transform="translate(-149.337,-130.093)"
         style="fill:#505050;fill-opacity:1">
        <g
           transform="translate(148.712,134.765)"
           id="g177190"
           style="fill:#505050;fill-opacity:1">
          <path
             d="M 2.90625,-4.671875 H 2.078125 v 1.5 H 0.625 v 0.765625 h 1.453125 v 1.484375 H 2.90625 V -2.40625 H 4.359375 V -3.171875 H 2.90625 Z m 0,0"
             id="path177188"
             style="fill:#505050;fill-opacity:1" />
        </g>
      </g>
    </g>
    <path
       style="fill:#a0c0e0;fill-opacity:1;stroke:#808080;stroke-width:5;stroke-linejoin:bevel;stroke-dasharray:none;stroke-dashoffset:0;stroke-opacity:1;marker-end:url(#RoundedArrow);paint-order:markers stroke fill"
       d="m 224.56855,89.712738 h 48.31834"
       id="path177539"
       inkscape:path-effect="#path-effect177541"
       inkscape:original-d="m 224.56855,89.712738 c 16.10638,2.65e-4 48.31834,0 48.31834,0" />
    <path
       style="fill:none;fill-opacity:1;stroke:#c25050;stroke-width:4;stroke-linejoin:bevel;stroke-dasharray:none;stroke-dashoffset:0;stroke-opacity:1;paint-order:markers stroke fill"
       d="m 329.256,89.756882 c 12.409,6.736 24.818,-10.023 37.226,-19.436 12.409,-9.413 24.818,2.593 37.227,13.896 12.408,11.304 24.817,5.047 37.226,-7.239 12.409,-12.286 24.817,-12.281 37.226,0 12.409,12.281 24.818,18.528 37.227,7.239 12.408,-11.289 24.817,-23.286 37.226,-13.896 12.409,9.39 24.817,26.172 37.226,19.436"
       title="cos(x)"
       id="path179361" />
    <path
       style="fill:none;fill-opacity:1;stroke:#808080;stroke-width:3;stroke-linejoin:bevel;stroke-dasharray:none;stroke-dashoffset:0;stroke-opacity:1;paint-order:markers stroke fill"
       d="M 325.1832,118.89089 H 585.76733"
       id="path179741"
       inkscape:path-effect="#path-effect179751"
       inkscape:original-d="m 325.1832,118.89089 c 86.86166,2.6e-4 260.58413,0 260.58413,0" />
    <circle
       style="fill:#a0c0e0;fill-opacity:1;stroke:none;stroke-width:3;stroke-linejoin:bevel;stroke-dasharray:none;stroke-dashoffset:0;stroke-opacity:1;paint-order:markers stroke fill"
       id="circle179743"
       cx="375.8609"
       cy="118.80894"
       r="8.7150707" />
    <circle
       style="fill:#a0c0e0;fill-opacity:1;stroke:none;stroke-width:3;stroke-linejoin:bevel;stroke-dasharray:none;stroke-dashoffset:0;stroke-opacity:1;paint-order:markers stroke fill"
       id="circle179745"
       cx="460.5274"
       cy="118.80894"
       r="8.7150707" />
    <circle
       style="fill:#a0c0e0;fill-opacity:1;stroke:none;stroke-width:3;stroke-linejoin:bevel;stroke-dasharray:none;stroke-dashoffset:0;stroke-opacity:1;paint-order:markers stroke fill"
       id="circle179747"
       cx="545.19409"
       cy="118.80894"
       r="8.7150707" />
    <g
       transform="matrix(2.11666,0,0,2.11666,-50.796342,137.90646)"
       ns28:version="1.8.2"
       ns28:texconverter="xelatex"
       ns28:pdfconverter="inkscape"
       ns28:text="impurity model states"
       ns28:preamble="/home/kirito/.config/textext/beamer_preamble.tex"
       ns28:scale="6.0"
       ns28:alignment="middle center"
       ns28:stroke-to-path="0"
       ns28:inkscapeversion="1.2.2"
       ns28:jacobian_sqrt="2.11666"
       id="g180836"
       style="fill:#505050;fill-opacity:1">
      <defs
         id="id-3f472e73-5a4f-45c2-b9ea-7ef61f907ae7">
        <g
           id="id-1f31d0cb-c68b-47e3-a220-c8441136bdca">
          <g
             id="id-f2feb7ed-9585-4dcb-9156-3440e8c63593">
            <path
               d="M 5.40625,-10.46875 V 3.484375 H 1.21875 V -10.46875 Z M 4.875,-9.953125 H 1.78125 V 2.96875 H 4.875 Z M 3.234375,-4.5 c 0.394531,0 0.675781,0.109375 0.84375,0.328125 0.175781,0.210937 0.265625,0.484375 0.265625,0.828125 0,0.34375 -0.078125,0.617188 -0.234375,0.8125 -0.148437,0.1875 -0.386719,0.308594 -0.71875,0.359375 v 0.453125 c 0,0.074219 -0.027344,0.132812 -0.078125,0.171875 -0.054688,0.042969 -0.109375,0.0625 -0.171875,0.0625 -0.0625,0 -0.121094,-0.019531 -0.171875,-0.0625 C 2.914062,-1.585938 2.890625,-1.644531 2.890625,-1.71875 V -2.5625 c 0.351563,-0.019531 0.59375,-0.082031 0.71875,-0.1875 0.125,-0.113281 0.1875,-0.304688 0.1875,-0.578125 0,-0.21875 -0.046875,-0.382813 -0.140625,-0.5 -0.085938,-0.125 -0.242188,-0.1875 -0.46875,-0.1875 -0.1875,0 -0.359375,0.039063 -0.515625,0.109375 -0.054687,0.023438 -0.09375,0.03125 -0.125,0.03125 -0.074219,0 -0.136719,-0.019531 -0.1875,-0.0625 -0.042969,-0.039062 -0.0625,-0.097656 -0.0625,-0.171875 0,-0.125 0.097656,-0.21875 0.296875,-0.28125 C 2.789062,-4.460938 3.003906,-4.5 3.234375,-4.5 Z m -0.09375,3.296875 c 0.101563,0 0.1875,0.039063 0.25,0.109375 0.0625,0.0625 0.09375,0.148438 0.09375,0.25 0,0.105469 -0.03125,0.195312 -0.09375,0.265625 -0.0625,0.0625 -0.148437,0.09375 -0.25,0.09375 -0.105469,0 -0.1875,-0.03125 -0.25,-0.09375 -0.0625,-0.070313 -0.09375,-0.160156 -0.09375,-0.265625 0,-0.101562 0.03125,-0.1875 0.09375,-0.25 0.0625,-0.070312 0.144531,-0.109375 0.25,-0.109375 z m 0,0"
               id="id-5039f1e1-0f07-41c9-bbec-0870faa79113" />
          </g>
          <g
             id="id-494f86c9-f7b6-42de-97b6-898f65c858d3">
            <path
               d="M 1.859375,-5.25 V 0 h -0.90625 v -5.25 z m -0.46875,-2.53125 c 0.195313,0 0.351563,0.0625 0.46875,0.1875 0.125,0.117188 0.1875,0.265625 0.1875,0.453125 0,0.179687 -0.0625,0.324219 -0.1875,0.4375 -0.117187,0.117187 -0.273437,0.171875 -0.46875,0.171875 -0.179687,0 -0.328125,-0.054688 -0.453125,-0.171875 -0.117188,-0.113281 -0.171875,-0.257813 -0.171875,-0.4375 0,-0.1875 0.054687,-0.335937 0.171875,-0.453125 0.125,-0.125 0.273438,-0.1875 0.453125,-0.1875 z m 0,0"
               id="id-9e577a42-7fe2-4a3e-9c61-d37f80b0b3bc" />
          </g>
          <g
             id="id-e402c71d-d99c-4233-9722-fc0c7d7e6552">
            <path
               d="m 6.21875,-5.375 c 0.4375,0 0.78125,0.148438 1.03125,0.4375 0.257812,0.292969 0.390625,0.683594 0.390625,1.171875 V 0 h -0.90625 v -3.640625 c 0,-0.675781 -0.25,-1.015625 -0.75,-1.015625 -0.25,0 -0.46875,0.078125 -0.65625,0.234375 -0.179687,0.148437 -0.371094,0.375 -0.578125,0.6875 V 0 H 3.84375 v -3.640625 c 0,-0.675781 -0.25,-1.015625 -0.75,-1.015625 -0.261719,0 -0.484375,0.078125 -0.671875,0.234375 -0.179687,0.148437 -0.367187,0.375 -0.5625,0.6875 V 0 h -0.90625 v -5.25 h 0.78125 L 1.8125,-4.484375 C 2.207031,-5.078125 2.710938,-5.375 3.328125,-5.375 c 0.320313,0 0.597656,0.085938 0.828125,0.25 0.226562,0.167969 0.394531,0.402344 0.5,0.703125 0.207031,-0.3125 0.4375,-0.546875 0.6875,-0.703125 0.25,-0.164062 0.539062,-0.25 0.875,-0.25 z m 0,0"
               id="id-51441be4-63d6-4daf-b125-d9448e4498b0" />
          </g>
          <g
             id="id-762f2e1f-2edd-4eb1-b7b9-9a0050677ffd">
            <path
               d="m 3.359375,-5.375 c 0.664063,0 1.15625,0.242188 1.46875,0.71875 0.3125,0.480469 0.46875,1.15625 0.46875,2.03125 0,0.824219 -0.179687,1.492188 -0.53125,2 -0.355469,0.5 -0.867187,0.75 -1.53125,0.75 -0.585937,0 -1.042969,-0.203125 -1.375,-0.609375 v 2.5 L 0.953125,2.125 V -5.25 h 0.78125 l 0.0625,0.703125 C 1.992188,-4.804688 2.226562,-5.007812 2.5,-5.15625 2.769531,-5.300781 3.054688,-5.375 3.359375,-5.375 Z m -0.34375,4.75 c 0.863281,0 1.296875,-0.664062 1.296875,-2 0,-1.34375 -0.398438,-2.015625 -1.1875,-2.015625 -0.261719,0 -0.496094,0.078125 -0.703125,0.234375 -0.210937,0.148438 -0.398437,0.339844 -0.5625,0.578125 v 2.5625 c 0.132813,0.210937 0.300781,0.371094 0.5,0.484375 0.195313,0.105469 0.414063,0.15625 0.65625,0.15625 z m 0,0"
               id="id-5403fe56-1ae8-4217-b82d-c3645dadbe61" />
          </g>
          <g
             id="id-9fb6b8fb-b870-4717-ac24-510bca90d906">
            <path
               d="M 4.859375,0 H 4.0625 L 4,-0.8125 C 3.800781,-0.488281 3.570312,-0.25 3.3125,-0.09375 3.050781,0.0507812 2.734375,0.125 2.359375,0.125 1.898438,0.125 1.539062,-0.015625 1.28125,-0.296875 1.019531,-0.578125 0.890625,-0.972656 0.890625,-1.484375 V -5.25 H 1.8125 v 3.671875 c 0,0.355469 0.0625,0.609375 0.1875,0.765625 0.125,0.148438 0.332031,0.21875 0.625,0.21875 0.507812,0 0.945312,-0.300781 1.3125,-0.90625 v -3.75 h 0.921875 z m 0,0"
               id="id-04fa48f1-4f3c-4f60-be85-6a9c47e900ad" />
          </g>
          <g
             id="id-87b9c84b-cee2-46c6-934a-3240a449a0bb">
            <path
               d="m 3.234375,-5.375 c 0.1875,0 0.359375,0.023438 0.515625,0.0625 L 3.578125,-4.421875 C 3.421875,-4.453125 3.269531,-4.46875 3.125,-4.46875 c -0.335938,0 -0.601562,0.121094 -0.796875,0.359375 C 2.128906,-3.878906 1.972656,-3.507812 1.859375,-3 v 3 h -0.90625 v -5.25 h 0.78125 l 0.09375,1.0625 C 1.960938,-4.582031 2.148438,-4.878906 2.390625,-5.078125 2.628906,-5.273438 2.910156,-5.375 3.234375,-5.375 Z m 0,0"
               id="id-960add4b-d99d-4e24-b162-16b5c172707a" />
          </g>
          <g
             id="id-d35d8bf8-0d35-47c8-af29-b68ed41b6845">
            <path
               d="M 3.59375,-0.234375 C 3.25,0.00390625 2.859375,0.125 2.421875,0.125 1.972656,0.125 1.625,0 1.375,-0.25 1.125,-0.507812 1,-0.882812 1,-1.375 V -4.546875 H 0.09375 V -5.25 H 1 V -6.4375 L 1.921875,-6.546875 V -5.25 h 1.25 l -0.09375,0.703125 h -1.15625 v 3.125 c 0,0.28125 0.046875,0.484375 0.140625,0.609375 0.101562,0.117188 0.265625,0.171875 0.484375,0.171875 0.207031,0 0.441406,-0.066406 0.703125,-0.203125 z m 0,0"
               id="id-881d363c-31a3-403d-b790-f508c7f8e24d" />
          </g>
          <g
             id="id-0696963e-cf16-4032-b161-f8f990234409">
            <path
               d="M 3.046875,0.03125 C 2.835938,0.644531 2.550781,1.128906 2.1875,1.484375 1.820312,1.835938 1.296875,2.050781 0.609375,2.125 L 0.515625,1.40625 c 0.34375,-0.0625 0.613281,-0.152344 0.8125,-0.265625 0.207031,-0.105469 0.375,-0.246094 0.5,-0.421875 C 1.953125,0.539062 2.066406,0.300781 2.171875,0 h -0.3125 L 0.09375,-5.25 h 0.984375 l 1.40625,4.578125 1.375,-4.578125 H 4.8125 Z m 0,0"
               id="id-b2c28794-8e6b-49d9-88ef-5e9d830c48d4" />
          </g>
          <g
             id="id-64bc3d49-ef4b-4f09-b171-f9800c0cbe21">
            <path
               d="m 2.921875,-5.375 c 0.738281,0 1.3125,0.25 1.71875,0.75 0.40625,0.492188 0.609375,1.15625 0.609375,2 0,0.542969 -0.09375,1.023438 -0.28125,1.4375 -0.1875,0.417969 -0.460938,0.742188 -0.8125,0.96875 C 3.8125,0.0078125 3.394531,0.125 2.90625,0.125 2.164062,0.125 1.585938,-0.117188 1.171875,-0.609375 0.765625,-1.109375 0.5625,-1.78125 0.5625,-2.625 c 0,-0.539062 0.09375,-1.019531 0.28125,-1.4375 0.1875,-0.414062 0.457031,-0.738281 0.8125,-0.96875 C 2.007812,-5.257812 2.429688,-5.375 2.921875,-5.375 Z m 0,0.734375 c -0.90625,0 -1.359375,0.671875 -1.359375,2.015625 0,1.335938 0.445312,2 1.34375,2 0.90625,0 1.359375,-0.664062 1.359375,-2 0,-1.34375 -0.449219,-2.015625 -1.34375,-2.015625 z m 0,0"
               id="id-928f2da2-1635-47c9-aaa5-d70a7847560d" />
          </g>
          <g
             id="id-09829e57-6074-4a9b-b38d-9abe20a98b10">
            <path
               d="M 5.015625,-7.359375 V 0 h -0.8125 L 4.109375,-0.734375 C 3.941406,-0.460938 3.726562,-0.25 3.46875,-0.09375 3.207031,0.0507812 2.921875,0.125 2.609375,0.125 c -0.625,0 -1.117187,-0.242188 -1.46875,-0.734375 -0.34375,-0.5 -0.515625,-1.164063 -0.515625,-2 0,-0.53125 0.078125,-1.003906 0.234375,-1.421875 0.164063,-0.425781 0.40625,-0.753906 0.71875,-0.984375 C 1.890625,-5.253906 2.257812,-5.375 2.6875,-5.375 c 0.53125,0 1,0.21875 1.40625,0.65625 v -2.765625 z m -2.21875,6.75 c 0.28125,0 0.519531,-0.0625 0.71875,-0.1875 0.195313,-0.132813 0.390625,-0.332031 0.578125,-0.59375 v -2.5625 C 3.925781,-4.179688 3.742188,-4.351562 3.546875,-4.46875 3.347656,-4.582031 3.125,-4.640625 2.875,-4.640625 c -0.40625,0 -0.71875,0.171875 -0.9375,0.515625 -0.21875,0.335938 -0.328125,0.835938 -0.328125,1.5 0,0.679688 0.097656,1.183594 0.296875,1.515625 0.207031,0.335937 0.503906,0.5 0.890625,0.5 z m 0,0"
               id="id-c2eab240-7639-46bd-b02f-0afff9499937" />
          </g>
          <g
             id="id-55ba3c85-0ad9-4bcd-a050-ee741d942aee">
            <path
               d="m 4.921875,-2.78125 c 0,0.15625 -0.011719,0.3125 -0.03125,0.46875 h -3.34375 c 0.039063,0.574219 0.1875,1 0.4375,1.28125 0.25,0.273438 0.570313,0.40625 0.96875,0.40625 0.257813,0 0.492187,-0.035156 0.703125,-0.109375 C 3.875,-0.804688 4.097656,-0.925781 4.328125,-1.09375 l 0.390625,0.5625 C 4.164062,-0.09375 3.554688,0.125 2.890625,0.125 2.160156,0.125 1.585938,-0.113281 1.171875,-0.59375 0.765625,-1.070312 0.5625,-1.734375 0.5625,-2.578125 c 0,-0.539063 0.085938,-1.019531 0.265625,-1.4375 0.175781,-0.425781 0.425781,-0.757813 0.75,-1 C 1.910156,-5.253906 2.300781,-5.375 2.75,-5.375 c 0.695312,0 1.234375,0.230469 1.609375,0.6875 0.375,0.460938 0.5625,1.09375 0.5625,1.90625 z M 4,-3.046875 c 0,-0.519531 -0.105469,-0.914063 -0.3125,-1.1875 -0.199219,-0.269531 -0.507812,-0.40625 -0.921875,-0.40625 -0.75,0 -1.15625,0.554687 -1.21875,1.65625 H 4 Z m 0,0"
               id="id-c20b8051-c698-4b45-ad97-c0d60d53be5e" />
          </g>
          <g
             id="id-2aa71a40-abee-4b1a-b41e-1b4c35153fed">
            <path
               d="M 2,0.125 C 1.65625,0.125 1.382812,0.0234375 1.1875,-0.171875 0.988281,-0.378906 0.890625,-0.664062 0.890625,-1.03125 v -6.328125 l 0.921875,-0.125 V -1.0625 c 0,0.148438 0.023438,0.257812 0.078125,0.328125 0.050781,0.0625 0.132813,0.09375 0.25,0.09375 0.125,0 0.238281,-0.019531 0.34375,-0.0625 L 2.71875,-0.0625 C 2.5,0.0625 2.257812,0.125 2,0.125 Z m 0,0"
               id="id-5196b59e-b411-401b-bfeb-c6f4e6ca0a3e" />
          </g>
          <g
             id="id-1014385f-7189-4602-a819-b4fc9ae234be">
            <path
               d="m 2.375,-5.375 c 0.351562,0 0.671875,0.054688 0.953125,0.15625 0.289063,0.09375 0.566406,0.242188 0.828125,0.4375 L 3.765625,-4.203125 C 3.523438,-4.347656 3.296875,-4.457031 3.078125,-4.53125 2.867188,-4.601562 2.644531,-4.640625 2.40625,-4.640625 c -0.304688,0 -0.542969,0.0625 -0.71875,0.1875 -0.167969,0.117187 -0.25,0.28125 -0.25,0.5 0,0.210937 0.078125,0.375 0.234375,0.5 0.164063,0.117187 0.460937,0.230469 0.890625,0.34375 0.582031,0.148437 1.019531,0.34375 1.3125,0.59375 0.289062,0.25 0.4375,0.601563 0.4375,1.046875 0,0.511719 -0.203125,0.90625 -0.609375,1.1875 C 3.296875,-0.0078125 2.804688,0.125 2.234375,0.125 1.429688,0.125 0.769531,-0.101562 0.25,-0.5625 L 0.734375,-1.125 c 0.445313,0.335938 0.941406,0.5 1.484375,0.5 0.34375,0 0.613281,-0.066406 0.8125,-0.203125 0.207031,-0.144531 0.3125,-0.34375 0.3125,-0.59375 0,-0.175781 -0.039062,-0.316406 -0.109375,-0.421875 C 3.160156,-1.957031 3.03125,-2.054688 2.84375,-2.140625 2.664062,-2.222656 2.40625,-2.3125 2.0625,-2.40625 1.5,-2.550781 1.09375,-2.742188 0.84375,-2.984375 c -0.242188,-0.25 -0.359375,-0.5625 -0.359375,-0.9375 0,-0.28125 0.078125,-0.53125 0.234375,-0.75 C 0.882812,-4.890625 1.109375,-5.0625 1.390625,-5.1875 1.679688,-5.3125 2.007812,-5.375 2.375,-5.375 Z m 0,0"
               id="id-6321311d-89a3-40f4-a71f-3eda1117a449" />
          </g>
          <g
             id="id-87fa9d38-bcaa-4509-8d7d-a47a83229f36">
            <path
               d="m 4.484375,-1.21875 c 0,0.210938 0.035156,0.367188 0.109375,0.46875 0.070312,0.105469 0.179688,0.183594 0.328125,0.234375 L 4.71875,0.125 C 4.445312,0.0820312 4.226562,0.00390625 4.0625,-0.109375 c -0.167969,-0.125 -0.292969,-0.3125 -0.375,-0.5625 C 3.332031,-0.140625 2.8125,0.125 2.125,0.125 c -0.523438,0 -0.933594,-0.1445312 -1.234375,-0.4375 -0.292969,-0.289062 -0.4375,-0.675781 -0.4375,-1.15625 0,-0.550781 0.195313,-0.976562 0.59375,-1.28125 0.40625,-0.300781 0.976563,-0.453125 1.71875,-0.453125 H 3.5625 V -3.59375 c 0,-0.363281 -0.089844,-0.625 -0.265625,-0.78125 -0.179687,-0.164062 -0.453125,-0.25 -0.828125,-0.25 -0.386719,0 -0.855469,0.09375 -1.40625,0.28125 L 0.828125,-5.015625 c 0.644531,-0.238281 1.25,-0.359375 1.8125,-0.359375 0.613281,0 1.070313,0.152344 1.375,0.453125 0.3125,0.304687 0.46875,0.734375 0.46875,1.296875 z m -2.15625,0.65625 c 0.53125,0 0.941406,-0.273438 1.234375,-0.828125 V -2.59375 H 2.875 c -0.96875,0 -1.453125,0.359375 -1.453125,1.078125 0,0.3125 0.078125,0.554687 0.234375,0.71875 0.15625,0.15625 0.378906,0.234375 0.671875,0.234375 z m 0,0"
               id="id-df28a656-fed2-455a-be2a-63e04b7a36ec" />
          </g>
        </g>
      </defs>
      <g
         fill="#000000"
         fill-opacity="1"
         id="id-e1718a0e-4688-4d6f-9841-cf17f6a266aa"
         transform="translate(-149.478,-126.984)"
         style="fill:#505050;fill-opacity:1">
        <g
           transform="translate(148.712,134.765)"
           id="g181173"
           style="fill:#505050;fill-opacity:1">
          <path
             d="M 1.859375,-5.25 V 0 h -0.90625 v -5.25 z m -0.46875,-2.53125 c 0.195313,0 0.351563,0.0625 0.46875,0.1875 0.125,0.117188 0.1875,0.265625 0.1875,0.453125 0,0.179687 -0.0625,0.324219 -0.1875,0.4375 -0.117187,0.117187 -0.273437,0.171875 -0.46875,0.171875 -0.179687,0 -0.328125,-0.054688 -0.453125,-0.171875 -0.117188,-0.113281 -0.171875,-0.257813 -0.171875,-0.4375 0,-0.1875 0.054687,-0.335937 0.171875,-0.453125 0.125,-0.125 0.273438,-0.1875 0.453125,-0.1875 z m 0,0"
             id="id-4ec08332-22e9-4f56-af33-1a4e97c47ac4"
             style="fill:#505050;fill-opacity:1" />
        </g>
        <g
           transform="translate(151.521,134.765)"
           id="g181176"
           style="fill:#505050;fill-opacity:1">
          <path
             d="m 6.21875,-5.375 c 0.4375,0 0.78125,0.148438 1.03125,0.4375 0.257812,0.292969 0.390625,0.683594 0.390625,1.171875 V 0 h -0.90625 v -3.640625 c 0,-0.675781 -0.25,-1.015625 -0.75,-1.015625 -0.25,0 -0.46875,0.078125 -0.65625,0.234375 -0.179687,0.148437 -0.371094,0.375 -0.578125,0.6875 V 0 H 3.84375 v -3.640625 c 0,-0.675781 -0.25,-1.015625 -0.75,-1.015625 -0.261719,0 -0.484375,0.078125 -0.671875,0.234375 -0.179687,0.148437 -0.367187,0.375 -0.5625,0.6875 V 0 h -0.90625 v -5.25 h 0.78125 L 1.8125,-4.484375 C 2.207031,-5.078125 2.710938,-5.375 3.328125,-5.375 c 0.320313,0 0.597656,0.085938 0.828125,0.25 0.226562,0.167969 0.394531,0.402344 0.5,0.703125 0.207031,-0.3125 0.4375,-0.546875 0.6875,-0.703125 0.25,-0.164062 0.539062,-0.25 0.875,-0.25 z m 0,0"
             id="id-fc28c6c2-c5a9-49ee-b6d3-1ca9faf21ede"
             style="fill:#505050;fill-opacity:1" />
        </g>
        <g
           transform="translate(160.059,134.765)"
           id="g181179"
           style="fill:#505050;fill-opacity:1">
          <path
             d="m 3.359375,-5.375 c 0.664063,0 1.15625,0.242188 1.46875,0.71875 0.3125,0.480469 0.46875,1.15625 0.46875,2.03125 0,0.824219 -0.179687,1.492188 -0.53125,2 -0.355469,0.5 -0.867187,0.75 -1.53125,0.75 -0.585937,0 -1.042969,-0.203125 -1.375,-0.609375 v 2.5 L 0.953125,2.125 V -5.25 h 0.78125 l 0.0625,0.703125 C 1.992188,-4.804688 2.226562,-5.007812 2.5,-5.15625 2.769531,-5.300781 3.054688,-5.375 3.359375,-5.375 Z m -0.34375,4.75 c 0.863281,0 1.296875,-0.664062 1.296875,-2 0,-1.34375 -0.398438,-2.015625 -1.1875,-2.015625 -0.261719,0 -0.496094,0.078125 -0.703125,0.234375 -0.210937,0.148438 -0.398437,0.339844 -0.5625,0.578125 v 2.5625 c 0.132813,0.210937 0.300781,0.371094 0.5,0.484375 0.195313,0.105469 0.414063,0.15625 0.65625,0.15625 z m 0,0"
             id="id-ccca6174-ca91-43f9-8821-201debe3952e"
             style="fill:#505050;fill-opacity:1" />
        </g>
        <g
           transform="translate(165.977,134.765)"
           id="g181182"
           style="fill:#505050;fill-opacity:1">
          <path
             d="M 4.859375,0 H 4.0625 L 4,-0.8125 C 3.800781,-0.488281 3.570312,-0.25 3.3125,-0.09375 3.050781,0.0507812 2.734375,0.125 2.359375,0.125 1.898438,0.125 1.539062,-0.015625 1.28125,-0.296875 1.019531,-0.578125 0.890625,-0.972656 0.890625,-1.484375 V -5.25 H 1.8125 v 3.671875 c 0,0.355469 0.0625,0.609375 0.1875,0.765625 0.125,0.148438 0.332031,0.21875 0.625,0.21875 0.507812,0 0.945312,-0.300781 1.3125,-0.90625 v -3.75 h 0.921875 z m 0,0"
             id="id-6effed94-a631-4ff7-b9b8-2a24b96fdfe0"
             style="fill:#505050;fill-opacity:1" />
        </g>
        <g
           transform="translate(171.775,134.765)"
           id="g181185"
           style="fill:#505050;fill-opacity:1">
          <path
             d="m 3.234375,-5.375 c 0.1875,0 0.359375,0.023438 0.515625,0.0625 L 3.578125,-4.421875 C 3.421875,-4.453125 3.269531,-4.46875 3.125,-4.46875 c -0.335938,0 -0.601562,0.121094 -0.796875,0.359375 C 2.128906,-3.878906 1.972656,-3.507812 1.859375,-3 v 3 h -0.90625 v -5.25 h 0.78125 l 0.09375,1.0625 C 1.960938,-4.582031 2.148438,-4.878906 2.390625,-5.078125 2.628906,-5.273438 2.910156,-5.375 3.234375,-5.375 Z m 0,0"
             id="id-a3270fec-508e-4cc8-86af-7cc9e5ecea81"
             style="fill:#505050;fill-opacity:1" />
        </g>
        <g
           transform="translate(175.621,134.765)"
           id="g181188"
           style="fill:#505050;fill-opacity:1">
          <path
             d="M 1.859375,-5.25 V 0 h -0.90625 v -5.25 z m -0.46875,-2.53125 c 0.195313,0 0.351563,0.0625 0.46875,0.1875 0.125,0.117188 0.1875,0.265625 0.1875,0.453125 0,0.179687 -0.0625,0.324219 -0.1875,0.4375 -0.117187,0.117187 -0.273437,0.171875 -0.46875,0.171875 -0.179687,0 -0.328125,-0.054688 -0.453125,-0.171875 -0.117188,-0.113281 -0.171875,-0.257813 -0.171875,-0.4375 0,-0.1875 0.054687,-0.335937 0.171875,-0.453125 0.125,-0.125 0.273438,-0.1875 0.453125,-0.1875 z m 0,0"
             id="id-ce5f6ba6-839f-4e4a-b377-c44d0acf2c61"
             style="fill:#505050;fill-opacity:1" />
        </g>
        <g
           transform="translate(178.43,134.765)"
           id="g181191"
           style="fill:#505050;fill-opacity:1">
          <path
             d="M 3.59375,-0.234375 C 3.25,0.00390625 2.859375,0.125 2.421875,0.125 1.972656,0.125 1.625,0 1.375,-0.25 1.125,-0.507812 1,-0.882812 1,-1.375 V -4.546875 H 0.09375 V -5.25 H 1 V -6.4375 L 1.921875,-6.546875 V -5.25 h 1.25 l -0.09375,0.703125 h -1.15625 v 3.125 c 0,0.28125 0.046875,0.484375 0.140625,0.609375 0.101562,0.117188 0.265625,0.171875 0.484375,0.171875 0.207031,0 0.441406,-0.066406 0.703125,-0.203125 z m 0,0"
             id="id-9ea35597-565d-4f7d-beeb-44c36abda062"
             style="fill:#505050;fill-opacity:1" />
        </g>
      </g>
      <g
         fill="#000000"
         fill-opacity="1"
         id="id-833b6be0-d5ae-4367-8800-e7d4ccfd8ada"
         transform="translate(-149.478,-126.984)"
         style="fill:#505050;fill-opacity:1">
        <g
           transform="translate(181.987,134.765)"
           id="g181195"
           style="fill:#505050;fill-opacity:1">
          <path
             d="M 3.046875,0.03125 C 2.835938,0.644531 2.550781,1.128906 2.1875,1.484375 1.820312,1.835938 1.296875,2.050781 0.609375,2.125 L 0.515625,1.40625 c 0.34375,-0.0625 0.613281,-0.152344 0.8125,-0.265625 0.207031,-0.105469 0.375,-0.246094 0.5,-0.421875 C 1.953125,0.539062 2.066406,0.300781 2.171875,0 h -0.3125 L 0.09375,-5.25 h 0.984375 l 1.40625,4.578125 1.375,-4.578125 H 4.8125 Z m 0,0"
             id="id-58788d12-73e4-4e08-9918-f1982def4018"
             style="fill:#505050;fill-opacity:1" />
        </g>
      </g>
      <g
         fill="#000000"
         fill-opacity="1"
         id="id-bd0608be-1de4-44fc-9c72-be8da6d81f19"
         transform="translate(-149.478,-126.984)"
         style="fill:#505050;fill-opacity:1">
        <g
           transform="translate(189.519,134.765)"
           id="g181199"
           style="fill:#505050;fill-opacity:1">
          <path
             d="m 6.21875,-5.375 c 0.4375,0 0.78125,0.148438 1.03125,0.4375 0.257812,0.292969 0.390625,0.683594 0.390625,1.171875 V 0 h -0.90625 v -3.640625 c 0,-0.675781 -0.25,-1.015625 -0.75,-1.015625 -0.25,0 -0.46875,0.078125 -0.65625,0.234375 -0.179687,0.148437 -0.371094,0.375 -0.578125,0.6875 V 0 H 3.84375 v -3.640625 c 0,-0.675781 -0.25,-1.015625 -0.75,-1.015625 -0.261719,0 -0.484375,0.078125 -0.671875,0.234375 -0.179687,0.148437 -0.367187,0.375 -0.5625,0.6875 V 0 h -0.90625 v -5.25 h 0.78125 L 1.8125,-4.484375 C 2.207031,-5.078125 2.710938,-5.375 3.328125,-5.375 c 0.320313,0 0.597656,0.085938 0.828125,0.25 0.226562,0.167969 0.394531,0.402344 0.5,0.703125 0.207031,-0.3125 0.4375,-0.546875 0.6875,-0.703125 0.25,-0.164062 0.539062,-0.25 0.875,-0.25 z m 0,0"
             id="id-be233dde-2524-49e4-9665-75177b6371d8"
             style="fill:#505050;fill-opacity:1" />
        </g>
        <g
           transform="translate(198.057,134.765)"
           id="g181202"
           style="fill:#505050;fill-opacity:1">
          <path
             d="m 2.921875,-5.375 c 0.738281,0 1.3125,0.25 1.71875,0.75 0.40625,0.492188 0.609375,1.15625 0.609375,2 0,0.542969 -0.09375,1.023438 -0.28125,1.4375 -0.1875,0.417969 -0.460938,0.742188 -0.8125,0.96875 C 3.8125,0.0078125 3.394531,0.125 2.90625,0.125 2.164062,0.125 1.585938,-0.117188 1.171875,-0.609375 0.765625,-1.109375 0.5625,-1.78125 0.5625,-2.625 c 0,-0.539062 0.09375,-1.019531 0.28125,-1.4375 0.1875,-0.414062 0.457031,-0.738281 0.8125,-0.96875 C 2.007812,-5.257812 2.429688,-5.375 2.921875,-5.375 Z m 0,0.734375 c -0.90625,0 -1.359375,0.671875 -1.359375,2.015625 0,1.335938 0.445312,2 1.34375,2 0.90625,0 1.359375,-0.664062 1.359375,-2 0,-1.34375 -0.449219,-2.015625 -1.34375,-2.015625 z m 0,0"
             id="id-ba31bc98-dc59-452f-96ca-126e0c19d8db"
             style="fill:#505050;fill-opacity:1" />
        </g>
        <g
           transform="translate(203.875,134.765)"
           id="g181205"
           style="fill:#505050;fill-opacity:1">
          <path
             d="M 5.015625,-7.359375 V 0 h -0.8125 L 4.109375,-0.734375 C 3.941406,-0.460938 3.726562,-0.25 3.46875,-0.09375 3.207031,0.0507812 2.921875,0.125 2.609375,0.125 c -0.625,0 -1.117187,-0.242188 -1.46875,-0.734375 -0.34375,-0.5 -0.515625,-1.164063 -0.515625,-2 0,-0.53125 0.078125,-1.003906 0.234375,-1.421875 0.164063,-0.425781 0.40625,-0.753906 0.71875,-0.984375 C 1.890625,-5.253906 2.257812,-5.375 2.6875,-5.375 c 0.53125,0 1,0.21875 1.40625,0.65625 v -2.765625 z m -2.21875,6.75 c 0.28125,0 0.519531,-0.0625 0.71875,-0.1875 0.195313,-0.132813 0.390625,-0.332031 0.578125,-0.59375 v -2.5625 C 3.925781,-4.179688 3.742188,-4.351562 3.546875,-4.46875 3.347656,-4.582031 3.125,-4.640625 2.875,-4.640625 c -0.40625,0 -0.71875,0.171875 -0.9375,0.515625 -0.21875,0.335938 -0.328125,0.835938 -0.328125,1.5 0,0.679688 0.097656,1.183594 0.296875,1.515625 0.207031,0.335937 0.503906,0.5 0.890625,0.5 z m 0,0"
             id="id-d496332e-5dac-4468-86b8-672c965ec4d9"
             style="fill:#505050;fill-opacity:1" />
        </g>
        <g
           transform="translate(209.833,134.765)"
           id="g181208"
           style="fill:#505050;fill-opacity:1">
          <path
             d="m 4.921875,-2.78125 c 0,0.15625 -0.011719,0.3125 -0.03125,0.46875 h -3.34375 c 0.039063,0.574219 0.1875,1 0.4375,1.28125 0.25,0.273438 0.570313,0.40625 0.96875,0.40625 0.257813,0 0.492187,-0.035156 0.703125,-0.109375 C 3.875,-0.804688 4.097656,-0.925781 4.328125,-1.09375 l 0.390625,0.5625 C 4.164062,-0.09375 3.554688,0.125 2.890625,0.125 2.160156,0.125 1.585938,-0.113281 1.171875,-0.59375 0.765625,-1.070312 0.5625,-1.734375 0.5625,-2.578125 c 0,-0.539063 0.085938,-1.019531 0.265625,-1.4375 0.175781,-0.425781 0.425781,-0.757813 0.75,-1 C 1.910156,-5.253906 2.300781,-5.375 2.75,-5.375 c 0.695312,0 1.234375,0.230469 1.609375,0.6875 0.375,0.460938 0.5625,1.09375 0.5625,1.90625 z M 4,-3.046875 c 0,-0.519531 -0.105469,-0.914063 -0.3125,-1.1875 -0.199219,-0.269531 -0.507812,-0.40625 -0.921875,-0.40625 -0.75,0 -1.15625,0.554687 -1.21875,1.65625 H 4 Z m 0,0"
             id="id-faf924a2-f71c-4ffd-ad17-699fb62a4b86"
             style="fill:#505050;fill-opacity:1" />
        </g>
        <g
           transform="translate(215.262,134.765)"
           id="g181211"
           style="fill:#505050;fill-opacity:1">
          <path
             d="M 2,0.125 C 1.65625,0.125 1.382812,0.0234375 1.1875,-0.171875 0.988281,-0.378906 0.890625,-0.664062 0.890625,-1.03125 v -6.328125 l 0.921875,-0.125 V -1.0625 c 0,0.148438 0.023438,0.257812 0.078125,0.328125 0.050781,0.0625 0.132813,0.09375 0.25,0.09375 0.125,0 0.238281,-0.019531 0.34375,-0.0625 L 2.71875,-0.0625 C 2.5,0.0625 2.257812,0.125 2,0.125 Z m 0,0"
             id="id-d558fd1c-56b1-41cd-bcab-a082aeb4213d"
             style="fill:#505050;fill-opacity:1" />
        </g>
      </g>
      <g
         fill="#000000"
         fill-opacity="1"
         id="id-e9f0bfa8-3218-4871-9d25-6f2d15062687"
         transform="translate(-149.478,-126.984)"
         style="fill:#505050;fill-opacity:1">
        <g
           transform="translate(220.821,134.765)"
           id="g181215"
           style="fill:#505050;fill-opacity:1">
          <path
             d="m 2.375,-5.375 c 0.351562,0 0.671875,0.054688 0.953125,0.15625 0.289063,0.09375 0.566406,0.242188 0.828125,0.4375 L 3.765625,-4.203125 C 3.523438,-4.347656 3.296875,-4.457031 3.078125,-4.53125 2.867188,-4.601562 2.644531,-4.640625 2.40625,-4.640625 c -0.304688,0 -0.542969,0.0625 -0.71875,0.1875 -0.167969,0.117187 -0.25,0.28125 -0.25,0.5 0,0.210937 0.078125,0.375 0.234375,0.5 0.164063,0.117187 0.460937,0.230469 0.890625,0.34375 0.582031,0.148437 1.019531,0.34375 1.3125,0.59375 0.289062,0.25 0.4375,0.601563 0.4375,1.046875 0,0.511719 -0.203125,0.90625 -0.609375,1.1875 C 3.296875,-0.0078125 2.804688,0.125 2.234375,0.125 1.429688,0.125 0.769531,-0.101562 0.25,-0.5625 L 0.734375,-1.125 c 0.445313,0.335938 0.941406,0.5 1.484375,0.5 0.34375,0 0.613281,-0.066406 0.8125,-0.203125 0.207031,-0.144531 0.3125,-0.34375 0.3125,-0.59375 0,-0.175781 -0.039062,-0.316406 -0.109375,-0.421875 C 3.160156,-1.957031 3.03125,-2.054688 2.84375,-2.140625 2.664062,-2.222656 2.40625,-2.3125 2.0625,-2.40625 1.5,-2.550781 1.09375,-2.742188 0.84375,-2.984375 c -0.242188,-0.25 -0.359375,-0.5625 -0.359375,-0.9375 0,-0.28125 0.078125,-0.53125 0.234375,-0.75 C 0.882812,-4.890625 1.109375,-5.0625 1.390625,-5.1875 1.679688,-5.3125 2.007812,-5.375 2.375,-5.375 Z m 0,0"
             id="id-dfe83945-60fd-443b-8815-024e5e84ba80"
             style="fill:#505050;fill-opacity:1" />
        </g>
        <g
           transform="translate(225.474,134.765)"
           id="g181218"
           style="fill:#505050;fill-opacity:1">
          <path
             d="M 3.59375,-0.234375 C 3.25,0.00390625 2.859375,0.125 2.421875,0.125 1.972656,0.125 1.625,0 1.375,-0.25 1.125,-0.507812 1,-0.882812 1,-1.375 V -4.546875 H 0.09375 V -5.25 H 1 V -6.4375 L 1.921875,-6.546875 V -5.25 h 1.25 l -0.09375,0.703125 h -1.15625 v 3.125 c 0,0.28125 0.046875,0.484375 0.140625,0.609375 0.101562,0.117188 0.265625,0.171875 0.484375,0.171875 0.207031,0 0.441406,-0.066406 0.703125,-0.203125 z m 0,0"
             id="id-04d3508e-9e99-4f88-89a2-dfa0e2343905"
             style="fill:#505050;fill-opacity:1" />
        </g>
      </g>
      <g
         fill="#000000"
         fill-opacity="1"
         id="id-c86f403d-f045-4d97-9533-e08ec580c510"
         transform="translate(-149.478,-126.984)"
         style="fill:#505050;fill-opacity:1">
        <g
           transform="translate(229.011,134.765)"
           id="g181222"
           style="fill:#505050;fill-opacity:1">
          <path
             d="m 4.484375,-1.21875 c 0,0.210938 0.035156,0.367188 0.109375,0.46875 0.070312,0.105469 0.179688,0.183594 0.328125,0.234375 L 4.71875,0.125 C 4.445312,0.0820312 4.226562,0.00390625 4.0625,-0.109375 c -0.167969,-0.125 -0.292969,-0.3125 -0.375,-0.5625 C 3.332031,-0.140625 2.8125,0.125 2.125,0.125 c -0.523438,0 -0.933594,-0.1445312 -1.234375,-0.4375 -0.292969,-0.289062 -0.4375,-0.675781 -0.4375,-1.15625 0,-0.550781 0.195313,-0.976562 0.59375,-1.28125 0.40625,-0.300781 0.976563,-0.453125 1.71875,-0.453125 H 3.5625 V -3.59375 c 0,-0.363281 -0.089844,-0.625 -0.265625,-0.78125 -0.179687,-0.164062 -0.453125,-0.25 -0.828125,-0.25 -0.386719,0 -0.855469,0.09375 -1.40625,0.28125 L 0.828125,-5.015625 c 0.644531,-0.238281 1.25,-0.359375 1.8125,-0.359375 0.613281,0 1.070313,0.152344 1.375,0.453125 0.3125,0.304687 0.46875,0.734375 0.46875,1.296875 z m -2.15625,0.65625 c 0.53125,0 0.941406,-0.273438 1.234375,-0.828125 V -2.59375 H 2.875 c -0.96875,0 -1.453125,0.359375 -1.453125,1.078125 0,0.3125 0.078125,0.554687 0.234375,0.71875 0.15625,0.15625 0.378906,0.234375 0.671875,0.234375 z m 0,0"
             id="id-bf5bf524-0f76-4fe1-83eb-a83efd32fe9a"
             style="fill:#505050;fill-opacity:1" />
        </g>
        <g
           transform="translate(234.43,134.765)"
           id="g181225"
           style="fill:#505050;fill-opacity:1">
          <path
             d="M 3.59375,-0.234375 C 3.25,0.00390625 2.859375,0.125 2.421875,0.125 1.972656,0.125 1.625,0 1.375,-0.25 1.125,-0.507812 1,-0.882812 1,-1.375 V -4.546875 H 0.09375 V -5.25 H 1 V -6.4375 L 1.921875,-6.546875 V -5.25 h 1.25 l -0.09375,0.703125 h -1.15625 v 3.125 c 0,0.28125 0.046875,0.484375 0.140625,0.609375 0.101562,0.117188 0.265625,0.171875 0.484375,0.171875 0.207031,0 0.441406,-0.066406 0.703125,-0.203125 z m 0,0"
             id="id-e22c4b58-5170-4dfa-9d3d-48a88ddcfb43"
             style="fill:#505050;fill-opacity:1" />
        </g>
      </g>
      <g
         fill="#000000"
         fill-opacity="1"
         id="id-f38c2b02-aa5a-4c7f-975c-58c0008268d3"
         transform="translate(-149.478,-126.984)"
         style="fill:#505050;fill-opacity:1">
        <g
           transform="translate(237.877,134.765)"
           id="g181229"
           style="fill:#505050;fill-opacity:1">
          <path
             d="m 4.921875,-2.78125 c 0,0.15625 -0.011719,0.3125 -0.03125,0.46875 h -3.34375 c 0.039063,0.574219 0.1875,1 0.4375,1.28125 0.25,0.273438 0.570313,0.40625 0.96875,0.40625 0.257813,0 0.492187,-0.035156 0.703125,-0.109375 C 3.875,-0.804688 4.097656,-0.925781 4.328125,-1.09375 l 0.390625,0.5625 C 4.164062,-0.09375 3.554688,0.125 2.890625,0.125 2.160156,0.125 1.585938,-0.113281 1.171875,-0.59375 0.765625,-1.070312 0.5625,-1.734375 0.5625,-2.578125 c 0,-0.539063 0.085938,-1.019531 0.265625,-1.4375 0.175781,-0.425781 0.425781,-0.757813 0.75,-1 C 1.910156,-5.253906 2.300781,-5.375 2.75,-5.375 c 0.695312,0 1.234375,0.230469 1.609375,0.6875 0.375,0.460938 0.5625,1.09375 0.5625,1.90625 z M 4,-3.046875 c 0,-0.519531 -0.105469,-0.914063 -0.3125,-1.1875 -0.199219,-0.269531 -0.507812,-0.40625 -0.921875,-0.40625 -0.75,0 -1.15625,0.554687 -1.21875,1.65625 H 4 Z m 0,0"
             id="id-b838f277-3709-42aa-9fac-ee652a2b97f3"
             style="fill:#505050;fill-opacity:1" />
        </g>
        <g
           transform="translate(243.307,134.765)"
           id="g181232"
           style="fill:#505050;fill-opacity:1">
          <path
             d="m 2.375,-5.375 c 0.351562,0 0.671875,0.054688 0.953125,0.15625 0.289063,0.09375 0.566406,0.242188 0.828125,0.4375 L 3.765625,-4.203125 C 3.523438,-4.347656 3.296875,-4.457031 3.078125,-4.53125 2.867188,-4.601562 2.644531,-4.640625 2.40625,-4.640625 c -0.304688,0 -0.542969,0.0625 -0.71875,0.1875 -0.167969,0.117187 -0.25,0.28125 -0.25,0.5 0,0.210937 0.078125,0.375 0.234375,0.5 0.164063,0.117187 0.460937,0.230469 0.890625,0.34375 0.582031,0.148437 1.019531,0.34375 1.3125,0.59375 0.289062,0.25 0.4375,0.601563 0.4375,1.046875 0,0.511719 -0.203125,0.90625 -0.609375,1.1875 C 3.296875,-0.0078125 2.804688,0.125 2.234375,0.125 1.429688,0.125 0.769531,-0.101562 0.25,-0.5625 L 0.734375,-1.125 c 0.445313,0.335938 0.941406,0.5 1.484375,0.5 0.34375,0 0.613281,-0.066406 0.8125,-0.203125 0.207031,-0.144531 0.3125,-0.34375 0.3125,-0.59375 0,-0.175781 -0.039062,-0.316406 -0.109375,-0.421875 C 3.160156,-1.957031 3.03125,-2.054688 2.84375,-2.140625 2.664062,-2.222656 2.40625,-2.3125 2.0625,-2.40625 1.5,-2.550781 1.09375,-2.742188 0.84375,-2.984375 c -0.242188,-0.25 -0.359375,-0.5625 -0.359375,-0.9375 0,-0.28125 0.078125,-0.53125 0.234375,-0.75 C 0.882812,-4.890625 1.109375,-5.0625 1.390625,-5.1875 1.679688,-5.3125 2.007812,-5.375 2.375,-5.375 Z m 0,0"
             id="id-635d6b5f-df6e-4a87-83d7-7e071bbcc6a7"
             style="fill:#505050;fill-opacity:1" />
        </g>
      </g>
    </g>
    <g
       transform="matrix(2.11666,0,0,2.11666,367.297,140.336)"
       ns28:version="1.8.2"
       ns28:texconverter="xelatex"
       ns28:pdfconverter="inkscape"
       ns28:text="bulk extended states"
       ns28:preamble="/home/kirito/.config/textext/beamer_preamble.tex"
       ns28:scale="6.0"
       ns28:alignment="middle center"
       ns28:stroke-to-path="0"
       ns28:inkscapeversion="1.2.2"
       ns28:jacobian_sqrt="2.11666"
       id="g181467"
       style="fill:#505050;fill-opacity:1">
      <defs
         id="id-5b55e071-eff4-4f92-b036-d3004e50301c">
        <g
           id="id-a8690076-884a-4248-a078-ce0d62a62643">
          <g
             id="id-e51598f5-7199-4ea3-87e6-577ac1fa3021">
            <path
               d="M 5.40625,-10.46875 V 3.484375 H 1.21875 V -10.46875 Z M 4.875,-9.953125 H 1.78125 V 2.96875 H 4.875 Z M 3.234375,-4.5 c 0.394531,0 0.675781,0.109375 0.84375,0.328125 0.175781,0.210937 0.265625,0.484375 0.265625,0.828125 0,0.34375 -0.078125,0.617188 -0.234375,0.8125 -0.148437,0.1875 -0.386719,0.308594 -0.71875,0.359375 v 0.453125 c 0,0.074219 -0.027344,0.132812 -0.078125,0.171875 -0.054688,0.042969 -0.109375,0.0625 -0.171875,0.0625 -0.0625,0 -0.121094,-0.019531 -0.171875,-0.0625 C 2.914062,-1.585938 2.890625,-1.644531 2.890625,-1.71875 V -2.5625 c 0.351563,-0.019531 0.59375,-0.082031 0.71875,-0.1875 0.125,-0.113281 0.1875,-0.304688 0.1875,-0.578125 0,-0.21875 -0.046875,-0.382813 -0.140625,-0.5 -0.085938,-0.125 -0.242188,-0.1875 -0.46875,-0.1875 -0.1875,0 -0.359375,0.039063 -0.515625,0.109375 -0.054687,0.023438 -0.09375,0.03125 -0.125,0.03125 -0.074219,0 -0.136719,-0.019531 -0.1875,-0.0625 -0.042969,-0.039062 -0.0625,-0.097656 -0.0625,-0.171875 0,-0.125 0.097656,-0.21875 0.296875,-0.28125 C 2.789062,-4.460938 3.003906,-4.5 3.234375,-4.5 Z m -0.09375,3.296875 c 0.101563,0 0.1875,0.039063 0.25,0.109375 0.0625,0.0625 0.09375,0.148438 0.09375,0.25 0,0.105469 -0.03125,0.195312 -0.09375,0.265625 -0.0625,0.0625 -0.148437,0.09375 -0.25,0.09375 -0.105469,0 -0.1875,-0.03125 -0.25,-0.09375 -0.0625,-0.070313 -0.09375,-0.160156 -0.09375,-0.265625 0,-0.101562 0.03125,-0.1875 0.09375,-0.25 0.0625,-0.070312 0.144531,-0.109375 0.25,-0.109375 z m 0,0"
               id="id-0aa64453-600c-4e0c-8034-96e7502a70ca" />
          </g>
          <g
             id="id-547251a1-57f4-49f7-803c-db8899950b91">
            <path
               d="m 3.34375,-5.375 c 0.601562,0 1.078125,0.246094 1.421875,0.734375 0.351563,0.480469 0.53125,1.152344 0.53125,2.015625 0,0.542969 -0.085937,1.023438 -0.25,1.4375 C 4.890625,-0.769531 4.65625,-0.445312 4.34375,-0.21875 4.03125,0.0078125 3.660156,0.125 3.234375,0.125 2.679688,0.125 2.21875,-0.109375 1.84375,-0.578125 L 1.75,0 H 0.953125 v -7.359375 l 0.90625,-0.125 V -4.59375 C 2.242188,-5.113281 2.738281,-5.375 3.34375,-5.375 Z m -0.328125,4.765625 c 0.40625,0 0.722656,-0.160156 0.953125,-0.484375 C 4.195312,-1.425781 4.3125,-1.9375 4.3125,-2.625 c 0,-0.71875 -0.109375,-1.234375 -0.328125,-1.546875 -0.210937,-0.3125 -0.507813,-0.46875 -0.890625,-0.46875 -0.46875,0 -0.882812,0.273437 -1.234375,0.8125 V -1.3125 c 0.144531,0.21875 0.316406,0.390625 0.515625,0.515625 0.207031,0.125 0.421875,0.1875 0.640625,0.1875 z m 0,0"
               id="id-88440e92-b7d4-49ef-b19c-87c8438f929a" />
          </g>
          <g
             id="id-4d7f6da7-92fd-4323-81e7-b36f27034a12">
            <path
               d="M 4.859375,0 H 4.0625 L 4,-0.8125 C 3.800781,-0.488281 3.570312,-0.25 3.3125,-0.09375 3.050781,0.0507812 2.734375,0.125 2.359375,0.125 1.898438,0.125 1.539062,-0.015625 1.28125,-0.296875 1.019531,-0.578125 0.890625,-0.972656 0.890625,-1.484375 V -5.25 H 1.8125 v 3.671875 c 0,0.355469 0.0625,0.609375 0.1875,0.765625 0.125,0.148438 0.332031,0.21875 0.625,0.21875 0.507812,0 0.945312,-0.300781 1.3125,-0.90625 v -3.75 h 0.921875 z m 0,0"
               id="id-b2a19d67-381a-45bd-a580-5b6f0b46edc1" />
          </g>
          <g
             id="id-dc6ee142-5451-4e60-89b1-4dbd92e870ba">
            <path
               d="M 2,0.125 C 1.65625,0.125 1.382812,0.0234375 1.1875,-0.171875 0.988281,-0.378906 0.890625,-0.664062 0.890625,-1.03125 v -6.328125 l 0.921875,-0.125 V -1.0625 c 0,0.148438 0.023438,0.257812 0.078125,0.328125 0.050781,0.0625 0.132813,0.09375 0.25,0.09375 0.125,0 0.238281,-0.019531 0.34375,-0.0625 L 2.71875,-0.0625 C 2.5,0.0625 2.257812,0.125 2,0.125 Z m 0,0"
               id="id-c9dc0193-3b41-442d-bd33-83bdba3554e8" />
          </g>
          <g
             id="id-683efdc8-5e68-46a6-99bd-edd0b4669079">
            <path
               d="M 1.859375,-7.484375 V 0 H 0.953125 V -7.359375 Z M 4.890625,-5.25 2.953125,-2.9375 5.109375,0 H 4 l -2.078125,-2.875 1.9375,-2.375 z m 0,0"
               id="id-1cadf945-6d27-4080-afbc-aebb01592f33" />
          </g>
          <g
             id="id-4a8984d1-8775-40a3-ba01-cff4e778a7aa">
            <path
               d="m 4.921875,-2.78125 c 0,0.15625 -0.011719,0.3125 -0.03125,0.46875 h -3.34375 c 0.039063,0.574219 0.1875,1 0.4375,1.28125 0.25,0.273438 0.570313,0.40625 0.96875,0.40625 0.257813,0 0.492187,-0.035156 0.703125,-0.109375 C 3.875,-0.804688 4.097656,-0.925781 4.328125,-1.09375 l 0.390625,0.5625 C 4.164062,-0.09375 3.554688,0.125 2.890625,0.125 2.160156,0.125 1.585938,-0.113281 1.171875,-0.59375 0.765625,-1.070312 0.5625,-1.734375 0.5625,-2.578125 c 0,-0.539063 0.085938,-1.019531 0.265625,-1.4375 0.175781,-0.425781 0.425781,-0.757813 0.75,-1 C 1.910156,-5.253906 2.300781,-5.375 2.75,-5.375 c 0.695312,0 1.234375,0.230469 1.609375,0.6875 0.375,0.460938 0.5625,1.09375 0.5625,1.90625 z M 4,-3.046875 c 0,-0.519531 -0.105469,-0.914063 -0.3125,-1.1875 -0.199219,-0.269531 -0.507812,-0.40625 -0.921875,-0.40625 -0.75,0 -1.15625,0.554687 -1.21875,1.65625 H 4 Z m 0,0"
               id="id-0213852a-0a71-49f4-a8ea-7889e48063c3" />
          </g>
          <g
             id="id-a7979aa0-fd48-4c4a-8413-f0a246cdca59">
            <path
               d="M 2.953125,-2.8125 4.78125,0 H 3.671875 L 2.390625,-2.21875 1.09375,0 H 0.046875 L 1.890625,-2.765625 0.265625,-5.25 h 1.0625 L 2.4375,-3.328125 3.53125,-5.25 h 1.046875 z m 0,0"
               id="id-f9e6fbb8-15d6-442d-8d55-b6ffc1be7a07" />
          </g>
          <g
             id="id-e5a43d99-477a-454d-bc02-973e2a982e5e">
            <path
               d="M 3.59375,-0.234375 C 3.25,0.00390625 2.859375,0.125 2.421875,0.125 1.972656,0.125 1.625,0 1.375,-0.25 1.125,-0.507812 1,-0.882812 1,-1.375 V -4.546875 H 0.09375 V -5.25 H 1 V -6.4375 L 1.921875,-6.546875 V -5.25 h 1.25 l -0.09375,0.703125 h -1.15625 v 3.125 c 0,0.28125 0.046875,0.484375 0.140625,0.609375 0.101562,0.117188 0.265625,0.171875 0.484375,0.171875 0.207031,0 0.441406,-0.066406 0.703125,-0.203125 z m 0,0"
               id="id-a9c6c318-e27e-4c84-a175-9ac78c542af9" />
          </g>
          <g
             id="id-4c9151e4-aa4f-4b9f-9931-8989305cddc0">
            <path
               d="m 3.421875,-5.375 c 0.476563,0 0.847656,0.148438 1.109375,0.4375 0.269531,0.28125 0.40625,0.671875 0.40625,1.171875 V 0 H 4.03125 v -3.640625 c 0,-0.375 -0.074219,-0.632813 -0.21875,-0.78125 -0.136719,-0.15625 -0.339844,-0.234375 -0.609375,-0.234375 -0.28125,0 -0.53125,0.085938 -0.75,0.25 -0.210937,0.15625 -0.40625,0.382812 -0.59375,0.671875 V 0 h -0.90625 v -5.25 h 0.78125 L 1.8125,-4.46875 C 2,-4.75 2.226562,-4.96875 2.5,-5.125 c 0.28125,-0.164062 0.585938,-0.25 0.921875,-0.25 z m 0,0"
               id="id-5439ade8-7747-4878-b5e6-a054d4d7fa65" />
          </g>
          <g
             id="id-eceea763-c32a-4868-a128-8f9c965bce04">
            <path
               d="M 5.015625,-7.359375 V 0 h -0.8125 L 4.109375,-0.734375 C 3.941406,-0.460938 3.726562,-0.25 3.46875,-0.09375 3.207031,0.0507812 2.921875,0.125 2.609375,0.125 c -0.625,0 -1.117187,-0.242188 -1.46875,-0.734375 -0.34375,-0.5 -0.515625,-1.164063 -0.515625,-2 0,-0.53125 0.078125,-1.003906 0.234375,-1.421875 0.164063,-0.425781 0.40625,-0.753906 0.71875,-0.984375 C 1.890625,-5.253906 2.257812,-5.375 2.6875,-5.375 c 0.53125,0 1,0.21875 1.40625,0.65625 v -2.765625 z m -2.21875,6.75 c 0.28125,0 0.519531,-0.0625 0.71875,-0.1875 0.195313,-0.132813 0.390625,-0.332031 0.578125,-0.59375 v -2.5625 C 3.925781,-4.179688 3.742188,-4.351562 3.546875,-4.46875 3.347656,-4.582031 3.125,-4.640625 2.875,-4.640625 c -0.40625,0 -0.71875,0.171875 -0.9375,0.515625 -0.21875,0.335938 -0.328125,0.835938 -0.328125,1.5 0,0.679688 0.097656,1.183594 0.296875,1.515625 0.207031,0.335937 0.503906,0.5 0.890625,0.5 z m 0,0"
               id="id-24e28919-163c-4153-9863-dc2801372c31" />
          </g>
          <g
             id="id-325b3fed-7224-461d-80c7-4b94ffc254d4">
            <path
               d="m 2.375,-5.375 c 0.351562,0 0.671875,0.054688 0.953125,0.15625 0.289063,0.09375 0.566406,0.242188 0.828125,0.4375 L 3.765625,-4.203125 C 3.523438,-4.347656 3.296875,-4.457031 3.078125,-4.53125 2.867188,-4.601562 2.644531,-4.640625 2.40625,-4.640625 c -0.304688,0 -0.542969,0.0625 -0.71875,0.1875 -0.167969,0.117187 -0.25,0.28125 -0.25,0.5 0,0.210937 0.078125,0.375 0.234375,0.5 0.164063,0.117187 0.460937,0.230469 0.890625,0.34375 0.582031,0.148437 1.019531,0.34375 1.3125,0.59375 0.289062,0.25 0.4375,0.601563 0.4375,1.046875 0,0.511719 -0.203125,0.90625 -0.609375,1.1875 C 3.296875,-0.0078125 2.804688,0.125 2.234375,0.125 1.429688,0.125 0.769531,-0.101562 0.25,-0.5625 L 0.734375,-1.125 c 0.445313,0.335938 0.941406,0.5 1.484375,0.5 0.34375,0 0.613281,-0.066406 0.8125,-0.203125 0.207031,-0.144531 0.3125,-0.34375 0.3125,-0.59375 0,-0.175781 -0.039062,-0.316406 -0.109375,-0.421875 C 3.160156,-1.957031 3.03125,-2.054688 2.84375,-2.140625 2.664062,-2.222656 2.40625,-2.3125 2.0625,-2.40625 1.5,-2.550781 1.09375,-2.742188 0.84375,-2.984375 c -0.242188,-0.25 -0.359375,-0.5625 -0.359375,-0.9375 0,-0.28125 0.078125,-0.53125 0.234375,-0.75 C 0.882812,-4.890625 1.109375,-5.0625 1.390625,-5.1875 1.679688,-5.3125 2.007812,-5.375 2.375,-5.375 Z m 0,0"
               id="id-3dcb7bfa-951f-41ae-afca-61b1b1f40149" />
          </g>
          <g
             id="id-ecfa6a1c-720f-41ed-ad89-e6ac4e3f32a3">
            <path
               d="m 4.484375,-1.21875 c 0,0.210938 0.035156,0.367188 0.109375,0.46875 0.070312,0.105469 0.179688,0.183594 0.328125,0.234375 L 4.71875,0.125 C 4.445312,0.0820312 4.226562,0.00390625 4.0625,-0.109375 c -0.167969,-0.125 -0.292969,-0.3125 -0.375,-0.5625 C 3.332031,-0.140625 2.8125,0.125 2.125,0.125 c -0.523438,0 -0.933594,-0.1445312 -1.234375,-0.4375 -0.292969,-0.289062 -0.4375,-0.675781 -0.4375,-1.15625 0,-0.550781 0.195313,-0.976562 0.59375,-1.28125 0.40625,-0.300781 0.976563,-0.453125 1.71875,-0.453125 H 3.5625 V -3.59375 c 0,-0.363281 -0.089844,-0.625 -0.265625,-0.78125 -0.179687,-0.164062 -0.453125,-0.25 -0.828125,-0.25 -0.386719,0 -0.855469,0.09375 -1.40625,0.28125 L 0.828125,-5.015625 c 0.644531,-0.238281 1.25,-0.359375 1.8125,-0.359375 0.613281,0 1.070313,0.152344 1.375,0.453125 0.3125,0.304687 0.46875,0.734375 0.46875,1.296875 z m -2.15625,0.65625 c 0.53125,0 0.941406,-0.273438 1.234375,-0.828125 V -2.59375 H 2.875 c -0.96875,0 -1.453125,0.359375 -1.453125,1.078125 0,0.3125 0.078125,0.554687 0.234375,0.71875 0.15625,0.15625 0.378906,0.234375 0.671875,0.234375 z m 0,0"
               id="id-8bd6ca12-ef7a-40be-ae26-bf1ec6de702d" />
          </g>
        </g>
      </defs>
      <g
         fill="#000000"
         fill-opacity="1"
         id="id-4a44e116-479b-4446-8d87-d07fc2d4426f"
         transform="translate(-149.665,-127.281)"
         style="fill:#505050;fill-opacity:1">
        <g
           transform="translate(148.712,134.765)"
           id="g181823"
           style="fill:#505050;fill-opacity:1">
          <path
             d="m 3.34375,-5.375 c 0.601562,0 1.078125,0.246094 1.421875,0.734375 0.351563,0.480469 0.53125,1.152344 0.53125,2.015625 0,0.542969 -0.085937,1.023438 -0.25,1.4375 C 4.890625,-0.769531 4.65625,-0.445312 4.34375,-0.21875 4.03125,0.0078125 3.660156,0.125 3.234375,0.125 2.679688,0.125 2.21875,-0.109375 1.84375,-0.578125 L 1.75,0 H 0.953125 v -7.359375 l 0.90625,-0.125 V -4.59375 C 2.242188,-5.113281 2.738281,-5.375 3.34375,-5.375 Z m -0.328125,4.765625 c 0.40625,0 0.722656,-0.160156 0.953125,-0.484375 C 4.195312,-1.425781 4.3125,-1.9375 4.3125,-2.625 c 0,-0.71875 -0.109375,-1.234375 -0.328125,-1.546875 -0.210937,-0.3125 -0.507813,-0.46875 -0.890625,-0.46875 -0.46875,0 -0.882812,0.273437 -1.234375,0.8125 V -1.3125 c 0.144531,0.21875 0.316406,0.390625 0.515625,0.515625 0.207031,0.125 0.421875,0.1875 0.640625,0.1875 z m 0,0"
             id="id-f72515e2-ef76-43a9-8c68-6afcca7204fb"
             style="fill:#505050;fill-opacity:1" />
        </g>
        <g
           transform="translate(154.63,134.765)"
           id="g181826"
           style="fill:#505050;fill-opacity:1">
          <path
             d="M 4.859375,0 H 4.0625 L 4,-0.8125 C 3.800781,-0.488281 3.570312,-0.25 3.3125,-0.09375 3.050781,0.0507812 2.734375,0.125 2.359375,0.125 1.898438,0.125 1.539062,-0.015625 1.28125,-0.296875 1.019531,-0.578125 0.890625,-0.972656 0.890625,-1.484375 V -5.25 H 1.8125 v 3.671875 c 0,0.355469 0.0625,0.609375 0.1875,0.765625 0.125,0.148438 0.332031,0.21875 0.625,0.21875 0.507812,0 0.945312,-0.300781 1.3125,-0.90625 v -3.75 h 0.921875 z m 0,0"
             id="id-83d7a463-d18c-4403-8e2d-24afb0152bee"
             style="fill:#505050;fill-opacity:1" />
        </g>
        <g
           transform="translate(160.428,134.765)"
           id="g181829"
           style="fill:#505050;fill-opacity:1">
          <path
             d="M 2,0.125 C 1.65625,0.125 1.382812,0.0234375 1.1875,-0.171875 0.988281,-0.378906 0.890625,-0.664062 0.890625,-1.03125 v -6.328125 l 0.921875,-0.125 V -1.0625 c 0,0.148438 0.023438,0.257812 0.078125,0.328125 0.050781,0.0625 0.132813,0.09375 0.25,0.09375 0.125,0 0.238281,-0.019531 0.34375,-0.0625 L 2.71875,-0.0625 C 2.5,0.0625 2.257812,0.125 2,0.125 Z m 0,0"
             id="id-09b4d0b4-6aba-4a24-9185-4a5f076b26e5"
             style="fill:#505050;fill-opacity:1" />
        </g>
        <g
           transform="translate(163.347,134.765)"
           id="g181832"
           style="fill:#505050;fill-opacity:1">
          <path
             d="M 1.859375,-7.484375 V 0 H 0.953125 V -7.359375 Z M 4.890625,-5.25 2.953125,-2.9375 5.109375,0 H 4 l -2.078125,-2.875 1.9375,-2.375 z m 0,0"
             id="id-bb194136-3204-425c-95eb-ca7b97ea9242"
             style="fill:#505050;fill-opacity:1" />
        </g>
      </g>
      <g
         fill="#000000"
         fill-opacity="1"
         id="id-d61d0c67-acc4-4c57-a5f8-4723452b1ce7"
         transform="translate(-149.665,-127.281)"
         style="fill:#505050;fill-opacity:1">
        <g
           transform="translate(171.088,134.765)"
           id="g181836"
           style="fill:#505050;fill-opacity:1">
          <path
             d="m 4.921875,-2.78125 c 0,0.15625 -0.011719,0.3125 -0.03125,0.46875 h -3.34375 c 0.039063,0.574219 0.1875,1 0.4375,1.28125 0.25,0.273438 0.570313,0.40625 0.96875,0.40625 0.257813,0 0.492187,-0.035156 0.703125,-0.109375 C 3.875,-0.804688 4.097656,-0.925781 4.328125,-1.09375 l 0.390625,0.5625 C 4.164062,-0.09375 3.554688,0.125 2.890625,0.125 2.160156,0.125 1.585938,-0.113281 1.171875,-0.59375 0.765625,-1.070312 0.5625,-1.734375 0.5625,-2.578125 c 0,-0.539063 0.085938,-1.019531 0.265625,-1.4375 0.175781,-0.425781 0.425781,-0.757813 0.75,-1 C 1.910156,-5.253906 2.300781,-5.375 2.75,-5.375 c 0.695312,0 1.234375,0.230469 1.609375,0.6875 0.375,0.460938 0.5625,1.09375 0.5625,1.90625 z M 4,-3.046875 c 0,-0.519531 -0.105469,-0.914063 -0.3125,-1.1875 -0.199219,-0.269531 -0.507812,-0.40625 -0.921875,-0.40625 -0.75,0 -1.15625,0.554687 -1.21875,1.65625 H 4 Z m 0,0"
             id="id-656211f4-3c51-461c-8537-f66a95fb5250"
             style="fill:#505050;fill-opacity:1" />
        </g>
      </g>
      <g
         fill="#000000"
         fill-opacity="1"
         id="id-38f374be-85f9-475a-b113-ac3589293ae8"
         transform="translate(-149.665,-127.281)"
         style="fill:#505050;fill-opacity:1">
        <g
           transform="translate(176.438,134.765)"
           id="g181840"
           style="fill:#505050;fill-opacity:1">
          <path
             d="M 2.953125,-2.8125 4.78125,0 H 3.671875 L 2.390625,-2.21875 1.09375,0 H 0.046875 L 1.890625,-2.765625 0.265625,-5.25 h 1.0625 L 2.4375,-3.328125 3.53125,-5.25 h 1.046875 z m 0,0"
             id="id-7b15842a-01cd-4468-ae97-919436978420"
             style="fill:#505050;fill-opacity:1" />
        </g>
        <g
           transform="translate(181.27,134.765)"
           id="g181843"
           style="fill:#505050;fill-opacity:1">
          <path
             d="M 3.59375,-0.234375 C 3.25,0.00390625 2.859375,0.125 2.421875,0.125 1.972656,0.125 1.625,0 1.375,-0.25 1.125,-0.507812 1,-0.882812 1,-1.375 V -4.546875 H 0.09375 V -5.25 H 1 V -6.4375 L 1.921875,-6.546875 V -5.25 h 1.25 l -0.09375,0.703125 h -1.15625 v 3.125 c 0,0.28125 0.046875,0.484375 0.140625,0.609375 0.101562,0.117188 0.265625,0.171875 0.484375,0.171875 0.207031,0 0.441406,-0.066406 0.703125,-0.203125 z m 0,0"
             id="id-655836ce-e5d0-4430-8ccf-b6b26149b37d"
             style="fill:#505050;fill-opacity:1" />
        </g>
      </g>
      <g
         fill="#000000"
         fill-opacity="1"
         id="id-cc5ca4f0-7749-4f33-93ed-850a7276dbf5"
         transform="translate(-149.665,-127.281)"
         style="fill:#505050;fill-opacity:1">
        <g
           transform="translate(184.717,134.765)"
           id="g181847"
           style="fill:#505050;fill-opacity:1">
          <path
             d="m 4.921875,-2.78125 c 0,0.15625 -0.011719,0.3125 -0.03125,0.46875 h -3.34375 c 0.039063,0.574219 0.1875,1 0.4375,1.28125 0.25,0.273438 0.570313,0.40625 0.96875,0.40625 0.257813,0 0.492187,-0.035156 0.703125,-0.109375 C 3.875,-0.804688 4.097656,-0.925781 4.328125,-1.09375 l 0.390625,0.5625 C 4.164062,-0.09375 3.554688,0.125 2.890625,0.125 2.160156,0.125 1.585938,-0.113281 1.171875,-0.59375 0.765625,-1.070312 0.5625,-1.734375 0.5625,-2.578125 c 0,-0.539063 0.085938,-1.019531 0.265625,-1.4375 0.175781,-0.425781 0.425781,-0.757813 0.75,-1 C 1.910156,-5.253906 2.300781,-5.375 2.75,-5.375 c 0.695312,0 1.234375,0.230469 1.609375,0.6875 0.375,0.460938 0.5625,1.09375 0.5625,1.90625 z M 4,-3.046875 c 0,-0.519531 -0.105469,-0.914063 -0.3125,-1.1875 -0.199219,-0.269531 -0.507812,-0.40625 -0.921875,-0.40625 -0.75,0 -1.15625,0.554687 -1.21875,1.65625 H 4 Z m 0,0"
             id="id-2937382e-5dca-4ed4-aafd-f9f88dcdb0ae"
             style="fill:#505050;fill-opacity:1" />
        </g>
        <g
           transform="translate(190.146,134.765)"
           id="g181850"
           style="fill:#505050;fill-opacity:1">
          <path
             d="m 3.421875,-5.375 c 0.476563,0 0.847656,0.148438 1.109375,0.4375 0.269531,0.28125 0.40625,0.671875 0.40625,1.171875 V 0 H 4.03125 v -3.640625 c 0,-0.375 -0.074219,-0.632813 -0.21875,-0.78125 -0.136719,-0.15625 -0.339844,-0.234375 -0.609375,-0.234375 -0.28125,0 -0.53125,0.085938 -0.75,0.25 -0.210937,0.15625 -0.40625,0.382812 -0.59375,0.671875 V 0 h -0.90625 v -5.25 h 0.78125 L 1.8125,-4.46875 C 2,-4.75 2.226562,-4.96875 2.5,-5.125 c 0.28125,-0.164062 0.585938,-0.25 0.921875,-0.25 z m 0,0"
             id="id-b3c18554-2933-4063-8c9f-241121fccf7d"
             style="fill:#505050;fill-opacity:1" />
        </g>
        <g
           transform="translate(195.985,134.765)"
           id="g181853"
           style="fill:#505050;fill-opacity:1">
          <path
             d="M 5.015625,-7.359375 V 0 h -0.8125 L 4.109375,-0.734375 C 3.941406,-0.460938 3.726562,-0.25 3.46875,-0.09375 3.207031,0.0507812 2.921875,0.125 2.609375,0.125 c -0.625,0 -1.117187,-0.242188 -1.46875,-0.734375 -0.34375,-0.5 -0.515625,-1.164063 -0.515625,-2 0,-0.53125 0.078125,-1.003906 0.234375,-1.421875 0.164063,-0.425781 0.40625,-0.753906 0.71875,-0.984375 C 1.890625,-5.253906 2.257812,-5.375 2.6875,-5.375 c 0.53125,0 1,0.21875 1.40625,0.65625 v -2.765625 z m -2.21875,6.75 c 0.28125,0 0.519531,-0.0625 0.71875,-0.1875 0.195313,-0.132813 0.390625,-0.332031 0.578125,-0.59375 v -2.5625 C 3.925781,-4.179688 3.742188,-4.351562 3.546875,-4.46875 3.347656,-4.582031 3.125,-4.640625 2.875,-4.640625 c -0.40625,0 -0.71875,0.171875 -0.9375,0.515625 -0.21875,0.335938 -0.328125,0.835938 -0.328125,1.5 0,0.679688 0.097656,1.183594 0.296875,1.515625 0.207031,0.335937 0.503906,0.5 0.890625,0.5 z m 0,0"
             id="id-0629b478-c677-4a1d-ab15-974f798a4d53"
             style="fill:#505050;fill-opacity:1" />
        </g>
        <g
           transform="translate(201.942,134.765)"
           id="g181856"
           style="fill:#505050;fill-opacity:1">
          <path
             d="m 4.921875,-2.78125 c 0,0.15625 -0.011719,0.3125 -0.03125,0.46875 h -3.34375 c 0.039063,0.574219 0.1875,1 0.4375,1.28125 0.25,0.273438 0.570313,0.40625 0.96875,0.40625 0.257813,0 0.492187,-0.035156 0.703125,-0.109375 C 3.875,-0.804688 4.097656,-0.925781 4.328125,-1.09375 l 0.390625,0.5625 C 4.164062,-0.09375 3.554688,0.125 2.890625,0.125 2.160156,0.125 1.585938,-0.113281 1.171875,-0.59375 0.765625,-1.070312 0.5625,-1.734375 0.5625,-2.578125 c 0,-0.539063 0.085938,-1.019531 0.265625,-1.4375 0.175781,-0.425781 0.425781,-0.757813 0.75,-1 C 1.910156,-5.253906 2.300781,-5.375 2.75,-5.375 c 0.695312,0 1.234375,0.230469 1.609375,0.6875 0.375,0.460938 0.5625,1.09375 0.5625,1.90625 z M 4,-3.046875 c 0,-0.519531 -0.105469,-0.914063 -0.3125,-1.1875 -0.199219,-0.269531 -0.507812,-0.40625 -0.921875,-0.40625 -0.75,0 -1.15625,0.554687 -1.21875,1.65625 H 4 Z m 0,0"
             id="id-93a49094-59a3-49fc-8019-3ba05421982a"
             style="fill:#505050;fill-opacity:1" />
        </g>
        <g
           transform="translate(207.372,134.765)"
           id="g181859"
           style="fill:#505050;fill-opacity:1">
          <path
             d="M 5.015625,-7.359375 V 0 h -0.8125 L 4.109375,-0.734375 C 3.941406,-0.460938 3.726562,-0.25 3.46875,-0.09375 3.207031,0.0507812 2.921875,0.125 2.609375,0.125 c -0.625,0 -1.117187,-0.242188 -1.46875,-0.734375 -0.34375,-0.5 -0.515625,-1.164063 -0.515625,-2 0,-0.53125 0.078125,-1.003906 0.234375,-1.421875 0.164063,-0.425781 0.40625,-0.753906 0.71875,-0.984375 C 1.890625,-5.253906 2.257812,-5.375 2.6875,-5.375 c 0.53125,0 1,0.21875 1.40625,0.65625 v -2.765625 z m -2.21875,6.75 c 0.28125,0 0.519531,-0.0625 0.71875,-0.1875 0.195313,-0.132813 0.390625,-0.332031 0.578125,-0.59375 v -2.5625 C 3.925781,-4.179688 3.742188,-4.351562 3.546875,-4.46875 3.347656,-4.582031 3.125,-4.640625 2.875,-4.640625 c -0.40625,0 -0.71875,0.171875 -0.9375,0.515625 -0.21875,0.335938 -0.328125,0.835938 -0.328125,1.5 0,0.679688 0.097656,1.183594 0.296875,1.515625 0.207031,0.335937 0.503906,0.5 0.890625,0.5 z m 0,0"
             id="id-20eab63a-2c1a-4d78-a821-708c5e39fbf4"
             style="fill:#505050;fill-opacity:1" />
        </g>
      </g>
      <g
         fill="#000000"
         fill-opacity="1"
         id="id-5ebf9e88-9933-44a2-a7dc-b1ca905b8229"
         transform="translate(-149.665,-127.281)"
         style="fill:#505050;fill-opacity:1">
        <g
           transform="translate(215.96,134.765)"
           id="g181863"
           style="fill:#505050;fill-opacity:1">
          <path
             d="m 2.375,-5.375 c 0.351562,0 0.671875,0.054688 0.953125,0.15625 0.289063,0.09375 0.566406,0.242188 0.828125,0.4375 L 3.765625,-4.203125 C 3.523438,-4.347656 3.296875,-4.457031 3.078125,-4.53125 2.867188,-4.601562 2.644531,-4.640625 2.40625,-4.640625 c -0.304688,0 -0.542969,0.0625 -0.71875,0.1875 -0.167969,0.117187 -0.25,0.28125 -0.25,0.5 0,0.210937 0.078125,0.375 0.234375,0.5 0.164063,0.117187 0.460937,0.230469 0.890625,0.34375 0.582031,0.148437 1.019531,0.34375 1.3125,0.59375 0.289062,0.25 0.4375,0.601563 0.4375,1.046875 0,0.511719 -0.203125,0.90625 -0.609375,1.1875 C 3.296875,-0.0078125 2.804688,0.125 2.234375,0.125 1.429688,0.125 0.769531,-0.101562 0.25,-0.5625 L 0.734375,-1.125 c 0.445313,0.335938 0.941406,0.5 1.484375,0.5 0.34375,0 0.613281,-0.066406 0.8125,-0.203125 0.207031,-0.144531 0.3125,-0.34375 0.3125,-0.59375 0,-0.175781 -0.039062,-0.316406 -0.109375,-0.421875 C 3.160156,-1.957031 3.03125,-2.054688 2.84375,-2.140625 2.664062,-2.222656 2.40625,-2.3125 2.0625,-2.40625 1.5,-2.550781 1.09375,-2.742188 0.84375,-2.984375 c -0.242188,-0.25 -0.359375,-0.5625 -0.359375,-0.9375 0,-0.28125 0.078125,-0.53125 0.234375,-0.75 C 0.882812,-4.890625 1.109375,-5.0625 1.390625,-5.1875 1.679688,-5.3125 2.007812,-5.375 2.375,-5.375 Z m 0,0"
             id="id-a480cfd4-ae1f-44ee-b58b-1f7bd2bcff69"
             style="fill:#505050;fill-opacity:1" />
        </g>
        <g
           transform="translate(220.612,134.765)"
           id="g181866"
           style="fill:#505050;fill-opacity:1">
          <path
             d="M 3.59375,-0.234375 C 3.25,0.00390625 2.859375,0.125 2.421875,0.125 1.972656,0.125 1.625,0 1.375,-0.25 1.125,-0.507812 1,-0.882812 1,-1.375 V -4.546875 H 0.09375 V -5.25 H 1 V -6.4375 L 1.921875,-6.546875 V -5.25 h 1.25 l -0.09375,0.703125 h -1.15625 v 3.125 c 0,0.28125 0.046875,0.484375 0.140625,0.609375 0.101562,0.117188 0.265625,0.171875 0.484375,0.171875 0.207031,0 0.441406,-0.066406 0.703125,-0.203125 z m 0,0"
             id="id-3d024f1e-f7c2-456f-8264-587692bab305"
             style="fill:#505050;fill-opacity:1" />
        </g>
      </g>
      <g
         fill="#000000"
         fill-opacity="1"
         id="id-bab16b24-cd1a-471c-bd46-de52c80df66d"
         transform="translate(-149.665,-127.281)"
         style="fill:#505050;fill-opacity:1">
        <g
           transform="translate(224.149,134.765)"
           id="g181870"
           style="fill:#505050;fill-opacity:1">
          <path
             d="m 4.484375,-1.21875 c 0,0.210938 0.035156,0.367188 0.109375,0.46875 0.070312,0.105469 0.179688,0.183594 0.328125,0.234375 L 4.71875,0.125 C 4.445312,0.0820312 4.226562,0.00390625 4.0625,-0.109375 c -0.167969,-0.125 -0.292969,-0.3125 -0.375,-0.5625 C 3.332031,-0.140625 2.8125,0.125 2.125,0.125 c -0.523438,0 -0.933594,-0.1445312 -1.234375,-0.4375 -0.292969,-0.289062 -0.4375,-0.675781 -0.4375,-1.15625 0,-0.550781 0.195313,-0.976562 0.59375,-1.28125 0.40625,-0.300781 0.976563,-0.453125 1.71875,-0.453125 H 3.5625 V -3.59375 c 0,-0.363281 -0.089844,-0.625 -0.265625,-0.78125 -0.179687,-0.164062 -0.453125,-0.25 -0.828125,-0.25 -0.386719,0 -0.855469,0.09375 -1.40625,0.28125 L 0.828125,-5.015625 c 0.644531,-0.238281 1.25,-0.359375 1.8125,-0.359375 0.613281,0 1.070313,0.152344 1.375,0.453125 0.3125,0.304687 0.46875,0.734375 0.46875,1.296875 z m -2.15625,0.65625 c 0.53125,0 0.941406,-0.273438 1.234375,-0.828125 V -2.59375 H 2.875 c -0.96875,0 -1.453125,0.359375 -1.453125,1.078125 0,0.3125 0.078125,0.554687 0.234375,0.71875 0.15625,0.15625 0.378906,0.234375 0.671875,0.234375 z m 0,0"
             id="id-8ae02421-0568-4923-aaf0-c7f3e1d56b65"
             style="fill:#505050;fill-opacity:1" />
        </g>
        <g
           transform="translate(229.568,134.765)"
           id="g181873"
           style="fill:#505050;fill-opacity:1">
          <path
             d="M 3.59375,-0.234375 C 3.25,0.00390625 2.859375,0.125 2.421875,0.125 1.972656,0.125 1.625,0 1.375,-0.25 1.125,-0.507812 1,-0.882812 1,-1.375 V -4.546875 H 0.09375 V -5.25 H 1 V -6.4375 L 1.921875,-6.546875 V -5.25 h 1.25 l -0.09375,0.703125 h -1.15625 v 3.125 c 0,0.28125 0.046875,0.484375 0.140625,0.609375 0.101562,0.117188 0.265625,0.171875 0.484375,0.171875 0.207031,0 0.441406,-0.066406 0.703125,-0.203125 z m 0,0"
             id="id-154004c0-f319-42b1-9799-234276eec3cf"
             style="fill:#505050;fill-opacity:1" />
        </g>
      </g>
      <g
         fill="#000000"
         fill-opacity="1"
         id="id-2b9177b7-3860-4579-9520-5bf2bab34559"
         transform="translate(-149.665,-127.281)"
         style="fill:#505050;fill-opacity:1">
        <g
           transform="translate(233.016,134.765)"
           id="g181877"
           style="fill:#505050;fill-opacity:1">
          <path
             d="m 4.921875,-2.78125 c 0,0.15625 -0.011719,0.3125 -0.03125,0.46875 h -3.34375 c 0.039063,0.574219 0.1875,1 0.4375,1.28125 0.25,0.273438 0.570313,0.40625 0.96875,0.40625 0.257813,0 0.492187,-0.035156 0.703125,-0.109375 C 3.875,-0.804688 4.097656,-0.925781 4.328125,-1.09375 l 0.390625,0.5625 C 4.164062,-0.09375 3.554688,0.125 2.890625,0.125 2.160156,0.125 1.585938,-0.113281 1.171875,-0.59375 0.765625,-1.070312 0.5625,-1.734375 0.5625,-2.578125 c 0,-0.539063 0.085938,-1.019531 0.265625,-1.4375 0.175781,-0.425781 0.425781,-0.757813 0.75,-1 C 1.910156,-5.253906 2.300781,-5.375 2.75,-5.375 c 0.695312,0 1.234375,0.230469 1.609375,0.6875 0.375,0.460938 0.5625,1.09375 0.5625,1.90625 z M 4,-3.046875 c 0,-0.519531 -0.105469,-0.914063 -0.3125,-1.1875 -0.199219,-0.269531 -0.507812,-0.40625 -0.921875,-0.40625 -0.75,0 -1.15625,0.554687 -1.21875,1.65625 H 4 Z m 0,0"
             id="id-da391e51-4749-4121-a865-8aa4e18673a3"
             style="fill:#505050;fill-opacity:1" />
        </g>
        <g
           transform="translate(238.445,134.765)"
           id="g181880"
           style="fill:#505050;fill-opacity:1">
          <path
             d="m 2.375,-5.375 c 0.351562,0 0.671875,0.054688 0.953125,0.15625 0.289063,0.09375 0.566406,0.242188 0.828125,0.4375 L 3.765625,-4.203125 C 3.523438,-4.347656 3.296875,-4.457031 3.078125,-4.53125 2.867188,-4.601562 2.644531,-4.640625 2.40625,-4.640625 c -0.304688,0 -0.542969,0.0625 -0.71875,0.1875 -0.167969,0.117187 -0.25,0.28125 -0.25,0.5 0,0.210937 0.078125,0.375 0.234375,0.5 0.164063,0.117187 0.460937,0.230469 0.890625,0.34375 0.582031,0.148437 1.019531,0.34375 1.3125,0.59375 0.289062,0.25 0.4375,0.601563 0.4375,1.046875 0,0.511719 -0.203125,0.90625 -0.609375,1.1875 C 3.296875,-0.0078125 2.804688,0.125 2.234375,0.125 1.429688,0.125 0.769531,-0.101562 0.25,-0.5625 L 0.734375,-1.125 c 0.445313,0.335938 0.941406,0.5 1.484375,0.5 0.34375,0 0.613281,-0.066406 0.8125,-0.203125 0.207031,-0.144531 0.3125,-0.34375 0.3125,-0.59375 0,-0.175781 -0.039062,-0.316406 -0.109375,-0.421875 C 3.160156,-1.957031 3.03125,-2.054688 2.84375,-2.140625 2.664062,-2.222656 2.40625,-2.3125 2.0625,-2.40625 1.5,-2.550781 1.09375,-2.742188 0.84375,-2.984375 c -0.242188,-0.25 -0.359375,-0.5625 -0.359375,-0.9375 0,-0.28125 0.078125,-0.53125 0.234375,-0.75 C 0.882812,-4.890625 1.109375,-5.0625 1.390625,-5.1875 1.679688,-5.3125 2.007812,-5.375 2.375,-5.375 Z m 0,0"
             id="id-2b62da5b-c3da-42eb-b9ec-3d126bca38e7"
             style="fill:#505050;fill-opacity:1" />
        </g>
      </g>
    </g>
  </g>
</svg>
