<?xml version="1.0" encoding="UTF-8" standalone="no"?>
<!-- Created with Inkscape (http://www.inkscape.org/) -->

<svg
   width="271.42203mm"
   height="68.851433mm"
   viewBox="0 0 271.42203 68.851428"
   version="1.1"
   id="svg1"
   xml:space="preserve"
   inkscape:version="1.4.3 (0d15f75042, 2025-12-25)"
   sodipodi:docname="correlatedAuxiliary.svg"
   xmlns:inkscape="http://www.inkscape.org/namespaces/inkscape"
   xmlns:sodipodi="http://sodipodi.sourceforge.net/DTD/sodipodi-0.dtd"
   xmlns="http://www.w3.org/2000/svg"
   xmlns:svg="http://www.w3.org/2000/svg"><sodipodi:namedview
     id="namedview1"
     pagecolor="#ffffff"
     bordercolor="#000000"
     borderopacity="0.25"
     inkscape:showpageshadow="2"
     inkscape:pageopacity="0.0"
     inkscape:pagecheckerboard="0"
     inkscape:deskcolor="#d1d1d1"
     inkscape:document-units="mm"
     showgrid="false"
     inkscape:zoom="0.70110129"
     inkscape:cx="1056.1955"
     inkscape:cy="228.92555"
     inkscape:window-width="1920"
     inkscape:window-height="1043"
     inkscape:window-x="0"
     inkscape:window-y="0"
     inkscape:window-maximized="1"
     inkscape:current-layer="layer1"><inkscape:page
       x="0"
       y="0"
       width="271.42203"
       height="68.851425"
       id="page2"
       margin="0"
       bleed="0" /></sodipodi:namedview><defs
     id="defs1"><inkscape:path-effect
       effect="spiro"
       id="path-effect28"
       is_visible="true"
       lpeversion="1" /><inkscape:path-effect
       effect="spiro"
       id="path-effect26"
       is_visible="true"
       lpeversion="1" /><inkscape:path-effect
       effect="spiro"
       id="path-effect4"
       is_visible="true"
       lpeversion="1" /><marker
       style="overflow:visible"
       id="RoundedArrow"
       refX="0"
       refY="0"
       orient="auto-start-reverse"
       inkscape:stockid="Rounded arrow"
       markerWidth="0.5"
       markerHeight="0.5"
       viewBox="0 0 1 1"
       inkscape:isstock="true"
       inkscape:collect="always"
       preserveAspectRatio="xMidYMid"><path
         transform="scale(0.7)"
         d="m -0.21114562,-4.1055728 6.42229122,3.21114561 a 1,1 90 0 1 0,1.78885438 L -0.21114562,4.1055728 A 1.236068,1.236068 31.717474 0 1 -2,3 v -6 a 1.236068,1.236068 148.28253 0 1 1.78885438,-1.1055728 z"
         style="fill:context-stroke;fill-rule:evenodd;stroke:none"
         id="path50" /></marker><rect
       x="-42.503056"
       y="-77.505577"
       width="502.84241"
       height="132.50169"
       id="rect48-8-6-3" /><rect
       x="-42.503056"
       y="-77.505577"
       width="502.84241"
       height="132.50169"
       id="rect8" /><rect
       x="-42.503056"
       y="-77.505577"
       width="502.84241"
       height="132.50169"
       id="rect48-8-6-3-9" /><rect
       x="-42.503056"
       y="-77.505577"
       width="502.84241"
       height="132.50169"
       id="rect26" /><rect
       x="-42.503056"
       y="-77.505577"
       width="502.84241"
       height="132.50169"
       id="rect48-8-6-3-96" /><rect
       x="-212.80737"
       y="93.796616"
       width="99.848015"
       height="109.93367"
       id="rect29-0-1" /></defs><g
     inkscape:label="Layer 1"
     inkscape:groupmode="layer"
     id="layer1"
     transform="translate(-115.54133,-109.19292)"><circle
       style="fill:#a04000;fill-opacity:1;stroke:none;stroke-width:2;stroke-dasharray:4, 4;stroke-dashoffset:0;stroke-opacity:1"
       id="circle21"
       cx="181.6091"
       cy="151.73843"
       r="7.2761693" /><text
       xml:space="preserve"
       transform="matrix(0.26458333,0,0,0.26458333,101.85164,152.0164)"
       id="text48-3-0"
       style="font-style:normal;font-variant:normal;font-weight:500;font-stretch:normal;font-size:44px;line-height:0.7;font-family:'Stack Sans Headline';-inkscape-font-specification:'Stack Sans Headline, Medium';font-variant-ligatures:normal;font-variant-caps:normal;font-variant-numeric:normal;font-variant-east-asian:normal;text-align:center;writing-mode:lr-tb;direction:ltr;white-space:pre;shape-inside:url(#rect48-8-6-3);display:inline;fill:#a04000;fill-opacity:1;stroke:none;stroke-width:7.55906;stroke-dasharray:15.1181, 15.1181;stroke-dashoffset:0;stroke-opacity:1"
       x="251.4212"
       y="0"><tspan
         x="108.8525"
         y="-50.259706"
         id="tspan2"><tspan
           style="font-size:34.6667px"
           id="tspan1">Impurity site</tspan></tspan></text><text
       xml:space="preserve"
       transform="matrix(0.26458333,0,0,0.26458333,169.47661,150.87458)"
       id="text48-3-0-7"
       style="font-style:normal;font-variant:normal;font-weight:500;font-stretch:normal;font-size:44px;line-height:0.8;font-family:'Stack Sans Headline';-inkscape-font-specification:'Stack Sans Headline, Medium';font-variant-ligatures:normal;font-variant-caps:normal;font-variant-numeric:normal;font-variant-east-asian:normal;text-align:center;writing-mode:lr-tb;direction:ltr;white-space:pre;shape-inside:url(#rect48-8-6-3-96);display:inline;fill:#a05080;fill-opacity:1;stroke:none;stroke-width:7.55906;stroke-dasharray:15.1181, 15.1181;stroke-dashoffset:0;stroke-opacity:1"
       x="251.4212"
       y="0"><tspan
         x="138.42325"
         y="-48.059705"
         id="tspan5"><tspan
           style="font-size:34.6667px"
           id="tspan3">Impurity 
</tspan></tspan><tspan
         x="95.43645"
         y="-12.859705"
         id="tspan7"><tspan
           style="font-size:34.6667px"
           id="tspan6">interacts with 
</tspan></tspan><tspan
         x="154.68196"
         y="22.340296"
         id="tspan10"><tspan
           style="font-size:34.6667px"
           id="tspan9">c-bath</tspan></tspan></text><path
       style="fill:#0070a0;fill-opacity:1;stroke:none;stroke-width:3;stroke-dasharray:6.00001, 3;stroke-dashoffset:0;stroke-opacity:1;paint-order:markers stroke fill"
       d="m 173.16514,113.32289 c -3.11376,0.53688 -6.31108,0.84339 -9.23101,2.05075 -1.45997,0.60369 -2.83976,1.4357 -3.95718,2.55253 -1.11743,1.11682 -1.96386,2.52954 -2.28449,4.07652 -0.25234,1.21748 -0.17623,2.48629 0.0826,3.70241 0.25879,1.21613 0.69619,2.38668 1.16735,3.5373 0.94231,2.30126 2.04351,4.61625 2.14653,7.10082 0.0864,2.08375 -0.54025,4.12746 -1.24481,6.09039 -0.70455,1.96292 -1.50012,3.9184 -1.77425,5.98585 -0.32214,2.4295 0.10145,4.93162 1.05726,7.18831 0.95582,2.2567 2.43075,4.27384 4.17894,5.99141 3.4964,3.43514 7.99765,5.64066 12.50078,7.57632 5.12965,2.20497 10.46505,4.15853 16.03383,4.56331 2.7844,0.20238 5.60981,0.009 8.30419,-0.72139 2.69438,-0.73083 5.25612,-2.00926 7.3621,-3.84192 3.77675,-3.28659 5.92568,-8.16515 9.81195,-11.32148 2.70062,-2.19338 6.05247,-3.40073 9.03146,-5.19792 1.4895,-0.89859 2.90155,-1.95982 4.01111,-3.29958 1.10955,-1.33975 1.9054,-2.97758 2.05273,-4.71089 0.12867,-1.51374 -0.24096,-3.04439 -0.90365,-4.41142 -0.66269,-1.36704 -1.60952,-2.58037 -2.66005,-3.67779 -2.10108,-2.19483 -4.63132,-3.95904 -6.62563,-6.25132 -2.06891,-2.37802 -3.48746,-5.23742 -4.94032,-8.03466 -1.45286,-2.79724 -2.99591,-5.61111 -5.24901,-7.8154 -2.42192,-2.36946 -5.57368,-3.9195 -8.86787,-4.71217 -3.2942,-0.79267 -6.73228,-0.85517 -10.10329,-0.5141 -6.74202,0.68213 -13.22133,2.9427 -19.89923,4.09412 z"
       id="path4"
       transform="matrix(0.96271338,0,0,1.0628203,99.725626,-6.6889998)"
       inkscape:original-d="m 173.16514,113.32289 c -12.9568,-0.37738 -10.44091,5.78653 -15.47268,8.6798 -5.03176,2.89326 2.2643,9.43456 3.39644,14.34053 1.13215,4.90597 -2.0127,8.05083 -3.01906,12.07624 -1.00635,4.02541 11.82465,13.83736 17.73698,20.75604 5.91232,6.91867 21.13342,0 31.70012,0 10.56671,0 6.5413,-7.54765 9.81195,-11.32148 3.27065,-3.77382 10.06354,-8.80559 15.0953,-13.20839 5.03177,-4.40279 -6.91869,-9.68615 -10.18933,-14.34053 -3.27065,-4.65438 -6.66709,-10.44091 -10.18933,-15.85006 -3.52223,-5.40915 -25.91359,-0.75477 -38.87039,-1.13215 z"
       inkscape:path-effect="#path-effect4" /><text
       xml:space="preserve"
       transform="matrix(0.26458333,0,0,0.26458333,99.595662,181.88782)"
       id="text8"
       style="font-style:normal;font-variant:normal;font-weight:500;font-stretch:normal;font-size:44px;line-height:1;font-family:'Stack Sans Headline';-inkscape-font-specification:'Stack Sans Headline, Medium';font-variant-ligatures:normal;font-variant-caps:normal;font-variant-numeric:normal;font-variant-east-asian:normal;text-align:center;writing-mode:lr-tb;direction:ltr;white-space:pre;shape-inside:url(#rect8);display:inline;fill:#a04000;fill-opacity:1;stroke:none;stroke-width:7.55906;stroke-dasharray:15.1181, 15.1181;stroke-dashoffset:0;stroke-opacity:1"
       x="251.4212"
       y="0"><tspan
         x="59.261785"
         y="-43.659706"
         id="tspan12"><tspan
           style="font-size:34.6667px"
           id="tspan11">(locally correlated)</tspan></tspan></text><text
       xml:space="preserve"
       transform="matrix(0.26458333,0,0,0.26458333,232.60815,153.31855)"
       id="text48-3-0-6"
       style="font-style:normal;font-variant:normal;font-weight:500;font-stretch:normal;font-size:44px;line-height:1;font-family:'Stack Sans Headline';-inkscape-font-specification:'Stack Sans Headline, Medium';font-variant-ligatures:normal;font-variant-caps:normal;font-variant-numeric:normal;font-variant-east-asian:normal;text-align:center;writing-mode:lr-tb;direction:ltr;white-space:pre;shape-inside:url(#rect48-8-6-3-9);display:inline;fill:#ffffff;fill-opacity:1;stroke:none;stroke-width:7.55906;stroke-dasharray:15.1181, 15.1181;stroke-dashoffset:0;stroke-opacity:1"
       x="251.4212"
       y="0"><tspan
         x="111.41791"
         y="-43.659706"
         id="tspan14"><tspan
           style="font-size:34.6667px"
           id="tspan13">conduction 
</tspan></tspan><tspan
         x="172.01527"
         y="0.34029447"
         id="tspan16"><tspan
           style="font-size:34.6667px"
           id="tspan15">bath</tspan></tspan></text><text
       xml:space="preserve"
       transform="matrix(0.26458333,0,0,0.26458333,297.41969,148.76439)"
       id="text26"
       style="font-style:normal;font-variant:normal;font-weight:500;font-stretch:normal;font-size:44px;line-height:0.8;font-family:'Stack Sans Headline';-inkscape-font-specification:'Stack Sans Headline, Medium';font-variant-ligatures:normal;font-variant-caps:normal;font-variant-numeric:normal;font-variant-east-asian:normal;text-align:center;writing-mode:lr-tb;direction:ltr;white-space:pre;shape-inside:url(#rect26);display:inline;fill:#0070a0;fill-opacity:1;stroke:none;stroke-width:7.55906;stroke-dasharray:15.1181, 15.1181;stroke-dashoffset:0;stroke-opacity:1"
       x="251.4212"
       y="0"><tspan
         x="79.403115"
         y="-48.059705"
         id="tspan18"><tspan
           style="font-size:34.6667px"
           id="tspan17">non-interacting 
</tspan></tspan><tspan
         x="131.61118"
         y="-12.859705"
         id="tspan20"><tspan
           style="font-size:34.6667px"
           id="tspan19">electrons</tspan></tspan></text><path
       style="fill:none;fill-opacity:1;stroke:#a05080;stroke-width:1.90819;stroke-dasharray:none;stroke-dashoffset:0;stroke-opacity:1;marker-end:url(#RoundedArrow);paint-order:markers stroke fill"
       d="m 121.36256,144.75795 c 4.00355,-8.81307 11.6265,-15.91539 20.70031,-19.28653 9.27086,-3.44435 19.93661,-2.94077 28.8417,1.36177"
       id="path26"
       inkscape:path-effect="#path-effect26"
       inkscape:original-d="m 121.36256,144.75795 c 2.3653,-1.17214 18.14632,-18.11439 20.70031,-19.28653 2.55398,-1.17213 16.85793,3.08125 28.8417,1.36177"
       transform="matrix(1.1042111,0,0,0.99486191,55.812814,0.68411555)"
       sodipodi:nodetypes="csc" /><path
       style="fill:none;fill-opacity:1;stroke:#a05080;stroke-width:1.90819;stroke-dasharray:none;stroke-dashoffset:0;stroke-opacity:1;marker-end:url(#RoundedArrow);paint-order:markers stroke fill"
       d="m 125.47088,126.78669 c 9.31238,-3.23367 19.05949,-5.21282 28.89558,-5.86725 6.9917,-0.46518 14.02765,-0.26293 20.98108,0.60311"
       id="path27"
       inkscape:path-effect="#path-effect28"
       inkscape:original-d="m 125.47088,126.78669 c 2.3653,-1.17214 26.34159,-4.69511 28.89558,-5.86725 2.55398,-1.17213 8.99731,2.32259 20.98108,0.60311"
       transform="matrix(1.1042111,0,0,-0.99486191,53.171137,282.84707)"
       sodipodi:nodetypes="csc" /><text
       xml:space="preserve"
       transform="matrix(0.2995234,0,0,0.2995234,216.65429,121.17361)"
       id="text29-0-2"
       style="font-style:normal;font-variant:normal;font-weight:300;font-stretch:normal;font-size:42.6667px;line-height:0.8;font-family:'Stack Sans Headline';-inkscape-font-specification:'Stack Sans Headline, Light';font-variant-ligatures:normal;font-variant-caps:normal;font-variant-numeric:normal;font-variant-east-asian:normal;text-align:center;text-decoration-color:#000000;letter-spacing:0.1px;writing-mode:lr-tb;direction:ltr;white-space:pre;shape-inside:url(#rect29-0-1);display:inline;fill:#404040;fill-opacity:1;stroke:none;stroke-width:37.7953;stroke-dasharray:none;stroke-dashoffset:0;stroke-opacity:1;paint-order:markers stroke fill"><tspan
         x="-176.45082"
         y="122.35074"
         id="tspan21">U</tspan></text></g></svg>
