<?xml version="1.0" encoding="UTF-8" standalone="no"?>
<!-- Created with Inkscape (http://www.inkscape.org/) -->

<svg
   width="261.62mm"
   height="160.02mm"
   viewBox="0 0 261.62 160.02"
   version="1.1"
   id="svg1"
   xml:space="preserve"
   xmlns:inkscape="http://www.inkscape.org/namespaces/inkscape"
   xmlns:sodipodi="http://sodipodi.sourceforge.net/DTD/sodipodi-0.dtd"
   xmlns="http://www.w3.org/2000/svg"
   xmlns:svg="http://www.w3.org/2000/svg"
   xmlns:ns2="http://wanglongqi.github.io/WriteTeX"><sodipodi:namedview
     id="namedview1"
     pagecolor="#ffffff"
     bordercolor="#000000"
     borderopacity="0.25"
     inkscape:showpageshadow="2"
     inkscape:pageopacity="0.0"
     inkscape:pagecheckerboard="0"
     inkscape:deskcolor="#d1d1d1"
     inkscape:document-units="mm"
     inkscape:zoom="0.37098173"
     inkscape:cx="2669.9428"
     inkscape:cy="562.02229"
     inkscape:window-width="1920"
     inkscape:window-height="1123"
     inkscape:window-x="0"
     inkscape:window-y="0"
     inkscape:window-maximized="1"
     inkscape:current-layer="g1"><inkscape:page
       x="0"
       y="0"
       width="261.62"
       height="160.02"
       id="page3"
       margin="0"
       bleed="0" /></sodipodi:namedview><defs
     id="defs1" /><g
     id="g1"
     inkscape:groupmode="layer"
     inkscape:label="1"
     transform="matrix(0.26458333,0,0,0.26458334,0,-4.0005001e-6)"><path
       id="path1"
       d="M 0,0 H 741.6 V 453.6 H 0 Z"
       style="fill:#ffffff;fill-opacity:1;fill-rule:nonzero;stroke:none"
       transform="matrix(1.3333333,0,0,-1.3333333,0,604.8)"
       inkscape:export-filename="esiamSpecFunc1.svg"
       inkscape:export-xdpi="96"
       inkscape:export-ydpi="96" /><path
       id="path2"
       d="M 89.546647,76.651689 H 734.4 V 446.4 H 89.546647 Z"
       style="fill:#ffffff;fill-opacity:1;fill-rule:nonzero;stroke:none"
       transform="matrix(1.3333333,0,0,-1.3333333,0,604.8)" /><path
       id="path3"
       d="m 231.98746,76.651689 v -3.5"
       style="fill:#555555;fill-opacity:1;fill-rule:nonzero;stroke:#555555;stroke-width:0.8;stroke-linecap:butt;stroke-linejoin:round;stroke-miterlimit:10;stroke-dasharray:none;stroke-opacity:1"
       transform="matrix(1.3333333,0,0,-1.3333333,0,604.8)" /><g
       id="g3"
       aria-label="−10"
       transform="matrix(1.3333333,0,0,1.3333333,275.54293,539.60507)"><path
         id="path4"
         d="m 19.687526,-6.8786105 c 0.515625,0 1.054687,0 1.054687,-0.5976562 0,-0.5976563 -0.539062,-0.5976563 -1.054687,-0.5976563 H 3.5273695 c -0.5039063,0 -1.0429688,0 -1.0429688,0.5976563 0,0.5976562 0.5390625,0.5976562 1.0429688,0.5976562 z m 0,0"
         style="fill:#555555;fill-opacity:1;fill-rule:nonzero;stroke:none" /><path
         id="path5"
         d="m 31.192409,-19.089548 c 0,-0.632812 -0.02344,-0.667969 -0.445313,-0.667969 -1.160156,1.40625 -2.929687,1.863282 -4.605469,1.921875 -0.08203,0 -0.234375,0 -0.269531,0.05859 -0.02344,0.05859 -0.02344,0.117188 -0.02344,0.738281 0.925781,0 2.484375,-0.175781 3.679687,-0.890625 v 15.7500003 c 0,1.0429687 -0.07031,1.40624997 -2.636719,1.40624997 H 26.001002 V 2.957659e-4 C 27.43069,-0.03486048 28.93069,-0.05829798 30.360377,-0.05829798 c 1.429688,0 2.929688,0.0234375 4.359375,0.0585937459 V -0.77314173 h -0.890625 c -2.578125,0 -2.636718,-0.32812497 -2.636718,-1.40624997 z m 18.292968,9.4921875 c 0,-1.8164065 -0.03516,-4.9218745 -1.289062,-7.3124995 -1.101563,-2.097657 -2.859375,-2.847657 -4.417969,-2.847657 -1.429687,0 -3.257812,0.667969 -4.394531,2.8125 -1.195313,2.238282 -1.3125,5.027344 -1.3125,7.3476565 0,1.7109375 0.02344,4.3125 0.960937,6.5742188 1.277344,3.08203122 3.585938,3.50390622 4.746094,3.50390622 1.371094,0 3.46875,-0.57421875 4.6875,-3.41015622 0.902344,-2.0625 1.019531,-4.4765625 1.019531,-6.6679688 z M 43.778346,2.957659e-4 c -1.910156,0 -3.046875,-1.6406249659 -3.46875,-3.9140624659 -0.328125,-1.7695313 -0.328125,-4.3359375 -0.328125,-6.0117188 0,-2.2968745 0,-4.2070315 0.386719,-6.0351565 0.574219,-2.53125 2.25,-3.316406 3.410156,-3.316406 1.230469,0 2.8125,0.808594 3.375,3.257813 0.386719,1.710937 0.421875,3.703125 0.421875,6.0937495 0,1.9453125 0,4.3359375 -0.363281,6.1054688 -0.621094,3.25781247 -2.390625,3.8203124659 -3.433594,3.8203124659 z m 0,0"
         style="fill:#555555;fill-opacity:1;fill-rule:nonzero;stroke:none" /></g><path
       id="path6"
       d="m 411.97332,76.651689 v -3.5"
       style="fill:#555555;fill-opacity:1;fill-rule:nonzero;stroke:#555555;stroke-width:0.8;stroke-linecap:butt;stroke-linejoin:round;stroke-miterlimit:10;stroke-dasharray:none;stroke-opacity:1"
       transform="matrix(1.3333333,0,0,-1.3333333,0,604.8)" /><path
       id="path7"
       d="m 12.551147,-9.5973605 c 0,-1.8164065 -0.03516,-4.9218745 -1.289063,-7.3124995 -1.101562,-2.097657 -2.8593749,-2.847657 -4.4179687,-2.847657 -1.4296875,0 -3.2578125,0.667969 -4.3945312,2.8125 -1.1953125,2.238282 -1.3125,5.027344 -1.3125,7.3476565 0,1.7109375 0.023437,4.3125 0.9609375,6.5742188 1.2773437,3.08203122 3.5859375,3.50390622 4.7460937,3.50390622 1.3710938,0 3.4687497,-0.57421875 4.6874997,-3.41015622 0.902344,-2.0625 1.019532,-4.4765625 1.019532,-6.6679688 z M 6.8441153,2.957659e-4 c -1.9101562,0 -3.046875,-1.6406249659 -3.46875,-3.9140624659 -0.328125,-1.7695313 -0.328125,-4.3359375 -0.328125,-6.0117188 0,-2.2968745 0,-4.2070315 0.3867188,-6.0351565 0.5742187,-2.53125 2.25,-3.316406 3.4101562,-3.316406 1.2304688,0 2.8125,0.808594 3.3749997,3.257813 0.386719,1.710937 0.421875,3.703125 0.421875,6.0937495 0,1.9453125 0,4.3359375 -0.363281,6.1054688 C 9.6566153,-0.56220423 7.8870841,2.957659e-4 6.8441153,2.957659e-4 Z m 0,0"
       style="fill:#555555;fill-opacity:1;fill-rule:nonzero;stroke:none"
       aria-label="0"
       transform="matrix(1.3333333,0,0,1.3333333,540.15967,539.60507)" /><path
       id="path8"
       d="m 591.95919,76.651689 v -3.5"
       style="fill:#555555;fill-opacity:1;fill-rule:nonzero;stroke:#555555;stroke-width:0.8;stroke-linecap:butt;stroke-linejoin:round;stroke-miterlimit:10;stroke-dasharray:none;stroke-opacity:1"
       transform="matrix(1.3333333,0,0,-1.3333333,0,604.8)" /><path
       id="path9"
       d="m 7.946198,-19.089548 c 0,-0.632812 -0.023437,-0.667969 -0.4453125,-0.667969 -1.1601562,1.40625 -2.9296875,1.863282 -4.6054687,1.921875 -0.082031,0 -0.234375,0 -0.2695313,0.05859 -0.023437,0.05859 -0.023437,0.117188 -0.023437,0.738281 0.9257813,0 2.484375,-0.175781 3.6796875,-0.890625 v 15.7500003 c 0,1.0429687 -0.070312,1.40624997 -2.6367187,1.40624997 H 2.7547918 V 2.957659e-4 C 4.1844793,-0.03486048 5.6844793,-0.05829798 7.1141668,-0.05829798 c 1.4296875,0 2.9296872,0.0234375 4.3593752,0.0585937459 V -0.77314173 h -0.890625 c -2.5781252,0 -2.636719,-0.32812497 -2.636719,-1.40624997 z m 18.292969,9.4921875 c 0,-1.8164065 -0.03516,-4.9218745 -1.289063,-7.3124995 -1.101562,-2.097657 -2.859375,-2.847657 -4.417968,-2.847657 -1.429688,0 -3.257813,0.667969 -4.394532,2.8125 -1.195312,2.238282 -1.3125,5.027344 -1.3125,7.3476565 0,1.7109375 0.02344,4.3125 0.960938,6.5742188 1.277344,3.08203122 3.585937,3.50390622 4.746094,3.50390622 1.371093,0 3.46875,-0.57421875 4.6875,-3.41015622 0.902343,-2.0625 1.019531,-4.4765625 1.019531,-6.6679688 z M 20.532136,2.957659e-4 c -1.910157,0 -3.046875,-1.6406249659 -3.46875,-3.9140624659 -0.328125,-1.7695313 -0.328125,-4.3359375 -0.328125,-6.0117188 0,-2.2968745 0,-4.2070315 0.386718,-6.0351565 0.574219,-2.53125 2.25,-3.316406 3.410157,-3.316406 1.230468,0 2.8125,0.808594 3.375,3.257813 0.386718,1.710937 0.421875,3.703125 0.421875,6.0937495 0,1.9453125 0,4.3359375 -0.363282,6.1054688 -0.621093,3.25781247 -2.390625,3.8203124659 -3.433593,3.8203124659 z m 0,0"
       style="fill:#555555;fill-opacity:1;fill-rule:nonzero;stroke:none"
       aria-label="10"
       transform="matrix(1.3333333,0,0,1.3333333,771.00273,539.60507)" /><path
       id="path10"
       d="m 21.304301,-13.48831 c 0,-1.042968 -0.28125,-2.367187 -1.535156,-2.367187 -0.726563,0 -1.546875,0.902344 -1.546875,1.617187 0,0.316407 0.140625,0.539063 0.433593,0.855469 0.539063,0.609375 1.21875,1.582031 1.21875,3.269531 0,1.2890629 -0.796875,3.3281254 -1.371093,4.4414067 -0.996094,1.9804687 -2.648438,3.6679687 -4.511719,3.6679687 -2.261719,0 -3.128906,-1.4414062 -3.515625,-3.4453125 0.386719,-0.9375 1.21875,-3.2695312 1.21875,-4.1953125 0,-0.3984374 -0.140625,-0.7265624 -0.609375,-0.7265624 -0.257813,0 -0.539063,0.152344 -0.714844,0.4335937 -0.5039061,0.7851562 -0.9726561,3.6210937 -0.9374998,4.3828125 -0.6796875,1.3242187 -2.6132813,3.5507812 -4.9101563,3.5507812 -2.4023437,0 -3.046875,-2.1210937 -3.046875,-4.1601562 0,-3.7382813 2.3203125,-6.9960942 2.9765625,-7.8984372 0.3515625,-0.539063 0.609375,-0.890625 0.609375,-0.972657 0,-0.246093 -0.1523437,-0.644531 -0.46875,-0.644531 -0.5742187,0 -0.75,0.46875 -1.0429687,0.902344 -1.828125,2.835937 -3.1171875,6.8085937 -3.1171875,10.2539062 0,2.2265625 0.8203125,4.88671871 3.515625,4.88671871 2.9765625,0 4.8398437,-2.55468751 5.5898437,-3.91406251 0.2929688,2.0039063 1.3710941,3.91406251 3.9843751,3.91406251 2.730469,0 4.453125,-2.40234371 5.742187,-5.30859371 0.925782,-2.0859375 2.039063,-6.5742192 2.039063,-8.5429692 z m 0,0"
       style="fill:#555555;fill-opacity:1;fill-rule:nonzero;stroke:none"
       aria-label="ω"
       transform="matrix(1.3333333,0,0,1.3333333,534.71927,585.89848)" /><path
       id="path11"
       d="m 89.546647,93.458431 h -3.5"
       style="fill:#555555;fill-opacity:1;fill-rule:nonzero;stroke:#555555;stroke-width:0.8;stroke-linecap:butt;stroke-linejoin:round;stroke-miterlimit:10;stroke-dasharray:none;stroke-opacity:1"
       transform="matrix(1.3333333,0,0,-1.3333333,0,604.8)" /><g
       id="g11"
       aria-label="0.0"
       transform="matrix(1.3333333,0,0,1.3333333,62.670943,494.02576)"><path
         id="path12"
         d="m 12.55148,-9.5964653 c 0,-1.8164067 -0.03516,-4.9218747 -1.289062,-7.3124997 -1.101563,-2.097657 -2.8593755,-2.847657 -4.4179692,-2.847657 -1.4296875,0 -3.2578125,0.667969 -4.3945313,2.8125 -1.1953125,2.238282 -1.3125,5.027344 -1.3125,7.3476567 0,1.7109375 0.023437,4.3125 0.9609375,6.5742188 1.2773438,3.08203123 3.5859375,3.50390623 4.7460938,3.50390623 1.3710937,0 3.4687502,-0.57421875 4.6875002,-3.41015623 0.902344,-2.0625 1.019531,-4.4765625 1.019531,-6.6679688 z M 6.8444488,0.00119098 c -1.9101563,0 -3.046875,-1.64062498 -3.46875,-3.91406248 -0.328125,-1.7695313 -0.328125,-4.3359375 -0.328125,-6.0117188 0,-2.2968747 0,-4.2070317 0.3867187,-6.0351567 0.5742188,-2.53125 2.25,-3.316406 3.4101563,-3.316406 1.2304687,0 2.8125,0.808594 3.3750002,3.257813 0.386719,1.710937 0.421875,3.703125 0.421875,6.0937497 0,1.9453125 0,4.3359375 -0.363281,6.1054688 -0.6210942,3.25781248 -2.3906255,3.82031248 -3.4335942,3.82031248 z m 0,0"
         style="fill:#555555;fill-opacity:1;fill-rule:nonzero;stroke:none" /><path
         id="path13"
         d="m 19.201871,-1.4284965 c 0,-0.8671875 -0.714844,-1.4648438 -1.429688,-1.4648438 -0.867187,0 -1.464844,0.7148438 -1.464844,1.4296875 0,0.86718753 0.714844,1.46484378 1.429688,1.46484378 0.867187,0 1.464844,-0.71484375 1.464844,-1.42968748 z m 0,0"
         style="fill:#555555;fill-opacity:1;fill-rule:nonzero;stroke:none" /><path
         id="path14"
         d="m 34.386441,-9.5964653 c 0,-1.8164067 -0.03516,-4.9218747 -1.289063,-7.3124997 -1.101562,-2.097657 -2.859375,-2.847657 -4.417968,-2.847657 -1.429688,0 -3.257813,0.667969 -4.394532,2.8125 -1.195312,2.238282 -1.3125,5.027344 -1.3125,7.3476567 0,1.7109375 0.02344,4.3125 0.960938,6.5742188 1.277344,3.08203123 3.585937,3.50390623 4.746094,3.50390623 1.371093,0 3.46875,-0.57421875 4.6875,-3.41015623 0.902343,-2.0625 1.019531,-4.4765625 1.019531,-6.6679688 z M 28.67941,0.00119098 c -1.910157,0 -3.046875,-1.64062498 -3.46875,-3.91406248 -0.328125,-1.7695313 -0.328125,-4.3359375 -0.328125,-6.0117188 0,-2.2968747 0,-4.2070317 0.386718,-6.0351567 0.574219,-2.53125 2.25,-3.316406 3.410157,-3.316406 1.230468,0 2.8125,0.808594 3.375,3.257813 0.386718,1.710937 0.421875,3.703125 0.421875,6.0937497 0,1.9453125 0,4.3359375 -0.363282,6.1054688 -0.621093,3.25781248 -2.390625,3.82031248 -3.433593,3.82031248 z m 0,0"
         style="fill:#555555;fill-opacity:1;fill-rule:nonzero;stroke:none" /></g><path
       id="path15"
       d="m 89.546647,161.92187 h -3.5"
       style="fill:#555555;fill-opacity:1;fill-rule:nonzero;stroke:#555555;stroke-width:0.8;stroke-linecap:butt;stroke-linejoin:round;stroke-miterlimit:10;stroke-dasharray:none;stroke-opacity:1"
       transform="matrix(1.3333333,0,0,-1.3333333,0,604.8)" /><g
       id="g15"
       aria-label="0.1"
       transform="matrix(1.3333333,0,0,1.3333333,62.670943,402.74117)"><path
         id="path16"
         d="m 12.55148,-9.5968903 c 0,-1.8164067 -0.03516,-4.9218747 -1.289062,-7.3124997 -1.101563,-2.097657 -2.8593755,-2.847657 -4.4179692,-2.847657 -1.4296875,0 -3.2578125,0.667969 -4.3945313,2.8125 -1.1953125,2.238282 -1.3125,5.027344 -1.3125,7.3476567 0,1.7109375 0.023437,4.3125 0.9609375,6.5742188 1.2773438,3.08203124 3.5859375,3.50390624 4.7460938,3.50390624 1.3710937,0 3.4687502,-0.57421875 4.6875002,-3.41015624 0.902344,-2.0625 1.019531,-4.4765625 1.019531,-6.6679688 z M 6.8444488,7.659924e-4 c -1.9101563,0 -3.046875,-1.6406249924 -3.46875,-3.9140624924 -0.328125,-1.7695313 -0.328125,-4.3359375 -0.328125,-6.0117188 0,-2.2968747 0,-4.2070317 0.3867187,-6.0351567 0.5742188,-2.53125 2.25,-3.316406 3.4101563,-3.316406 1.2304687,0 2.8125,0.808594 3.3750002,3.257813 0.386719,1.710937 0.421875,3.703125 0.421875,6.0937497 0,1.9453125 0,4.3359375 -0.363281,6.1054688 C 9.6569488,-0.56173401 7.8874175,7.659924e-4 6.8444488,7.659924e-4 Z m 0,0"
         style="fill:#555555;fill-opacity:1;fill-rule:nonzero;stroke:none" /><path
         id="path17"
         d="m 19.201871,-1.4289215 c 0,-0.8671875 -0.714844,-1.4648438 -1.429688,-1.4648438 -0.867187,0 -1.464844,0.7148438 -1.464844,1.4296875 0,0.86718754 0.714844,1.4648437924 1.429688,1.4648437924 0.867187,0 1.464844,-0.7148437524 1.464844,-1.4296874924 z m 0,0"
         style="fill:#555555;fill-opacity:1;fill-rule:nonzero;stroke:none" /><path
         id="path18"
         d="m 29.780972,-19.089078 c 0,-0.632812 -0.02344,-0.667969 -0.445312,-0.667969 -1.160157,1.40625 -2.929688,1.863282 -4.605469,1.921875 -0.08203,0 -0.234375,0 -0.269531,0.05859 -0.02344,0.05859 -0.02344,0.117188 -0.02344,0.738281 0.925781,0 2.484375,-0.175781 3.679688,-0.890625 v 15.7500005 c 0,1.0429687 -0.07031,1.40624999 -2.636719,1.40624999 H 24.589566 V 7.659924e-4 C 26.019253,-0.03439026 27.519253,-0.05782776 28.948941,-0.05782776 c 1.429687,0 2.929687,0.0234375 4.359375,0.0585937524 V -0.77267151 h -0.890625 c -2.578125,0 -2.636719,-0.32812499 -2.636719,-1.40624999 z m 0,0"
         style="fill:#555555;fill-opacity:1;fill-rule:nonzero;stroke:none" /></g><g
       id="g19"
       aria-label="0.2"
       transform="matrix(1.3333333,0,0,1.3333333,62.670943,311.45658)"><path
         id="path20"
         d="m 12.55148,-9.5973152 c 0,-1.8164058 -0.03516,-4.9218748 -1.289062,-7.3124998 -1.101563,-2.097656 -2.8593755,-2.847656 -4.4179692,-2.847656 -1.4296875,0 -3.2578125,0.667968 -4.3945313,2.8125 -1.1953125,2.238281 -1.3125,5.027343 -1.3125,7.3476558 0,1.7109375 0.023437,4.3125 0.9609375,6.5742187 1.2773438,3.08203126 3.5859375,3.50390626 4.7460938,3.50390626 1.3710937,0 3.4687502,-0.57421875 4.6875002,-3.41015626 0.902344,-2.0625 1.019531,-4.4765625 1.019531,-6.6679687 z M 6.8444488,3.410053e-4 c -1.9101563,0 -3.046875,-1.6406250053 -3.46875,-3.9140625053 -0.328125,-1.7695312 -0.328125,-4.3359375 -0.328125,-6.0117187 0,-2.2968748 0,-4.2070308 0.3867187,-6.0351558 0.5742188,-2.53125 2.25,-3.316407 3.4101563,-3.316407 1.2304687,0 2.8125,0.808594 3.3750002,3.257813 0.386719,1.710937 0.421875,3.703125 0.421875,6.0937498 0,1.9453125 0,4.3359375 -0.363281,6.1054687 C 9.6569488,-0.56215899 7.8874175,3.410053e-4 6.8444488,3.410053e-4 Z m 0,0"
         style="fill:#555555;fill-opacity:1;fill-rule:nonzero;stroke:none" /><path
         id="path21"
         d="m 19.201871,-1.4293465 c 0,-0.8671875 -0.714844,-1.4648437 -1.429688,-1.4648437 -0.867187,0 -1.464844,0.7148437 -1.464844,1.4296875 0,0.86718746 0.714844,1.4648437053 1.429688,1.4648437053 0.867187,0 1.464844,-0.7148437453 1.464844,-1.4296875053 z m 0,0"
         style="fill:#555555;fill-opacity:1;fill-rule:nonzero;stroke:none" /><path
         id="path22"
         d="m 34.292691,-4.6285652 h -0.539063 c -0.292968,2.1210937 -0.527343,2.4726562 -0.65625,2.6601562 -0.140625,0.234375 -2.296875,0.234375 -2.71875,0.234375 H 24.64816 c 1.078125,-1.1601562 3.164062,-3.28125 5.707031,-5.7421875 1.816406,-1.7226562 3.9375,-3.7617185 3.9375,-6.7148435 0,-3.527344 -2.800781,-5.566406 -5.941406,-5.566406 -3.292969,0 -5.285157,2.90625 -5.285157,5.589843 0,1.171875 0.867188,1.3125 1.21875,1.3125 0.304688,0 1.195313,-0.175781 1.195313,-1.21875 0,-0.925781 -0.773438,-1.195312 -1.195313,-1.195312 -0.175781,0 -0.351562,0.02344 -0.480468,0.09375 0.574218,-2.542969 2.308593,-3.796875 4.125,-3.796875 2.601562,0 4.300781,2.0625 4.300781,4.78125 0,2.601562 -1.523438,4.8398435 -3.222656,6.785156 l -5.941407,6.71484376 V 3.410053e-4 h 10.511719 z m 0,0"
         style="fill:#555555;fill-opacity:1;fill-rule:nonzero;stroke:none" /></g><g
       id="g23"
       aria-label="0.3"
       transform="matrix(1.3333333,0,0,1.3333333,62.670943,220.17199)"><path
         id="path24"
         d="m 12.55148,-9.5977402 c 0,-1.8164058 -0.03516,-4.9218748 -1.289062,-7.3124998 -1.101563,-2.097656 -2.8593755,-2.847656 -4.4179692,-2.847656 -1.4296875,0 -3.2578125,0.667968 -4.3945313,2.8125 -1.1953125,2.238281 -1.3125,5.027343 -1.3125,7.3476558 0,1.7109375 0.023437,4.3125 0.9609375,6.5742187 1.2773438,3.08203127 3.5859375,3.50390627 4.7460938,3.50390627 1.3710937,0 3.4687502,-0.57421875 4.6875002,-3.41015627 0.902344,-2.0625 1.019531,-4.4765625 1.019531,-6.6679687 z M 6.8444488,-8.39819e-5 c -1.9101563,0 -3.046875,-1.6406250181 -3.46875,-3.9140625181 -0.328125,-1.7695312 -0.328125,-4.3359375 -0.328125,-6.0117187 0,-2.2968748 0,-4.2070308 0.3867187,-6.0351558 0.5742188,-2.53125 2.25,-3.316407 3.4101563,-3.316407 1.2304687,0 2.8125,0.808594 3.3750002,3.257813 0.386719,1.710937 0.421875,3.703125 0.421875,6.0937498 0,1.9453125 0,4.3359375 -0.363281,6.1054687 C 9.6569488,-0.56258398 7.8874175,-8.39819e-5 6.8444488,-8.39819e-5 Z m 0,0"
         style="fill:#555555;fill-opacity:1;fill-rule:nonzero;stroke:none" /><path
         id="path25"
         d="m 19.201871,-1.4297715 c 0,-0.8671875 -0.714844,-1.4648437 -1.429688,-1.4648437 -0.867187,0 -1.464844,0.7148437 -1.464844,1.4296875 0,0.86718747 0.714844,1.4648437181 1.429688,1.4648437181 0.867187,0 1.464844,-0.7148437481 1.464844,-1.4296875181 z m 0,0"
         style="fill:#555555;fill-opacity:1;fill-rule:nonzero;stroke:none" /><path
         id="path26"
         d="m 28.445035,-10.16024 c 2.660156,0 3.820312,2.2968748 3.820312,4.957031 0,3.5859375 -1.910156,4.96875002 -3.644531,4.96875002 -1.582031,0 -4.160156,-0.78515622 -4.957031,-3.08203122 0.140625,0.058594 0.292968,0.058594 0.445312,0.058594 0.714844,0 1.253906,-0.4804687 1.253906,-1.2539062 0,-0.8671875 -0.65625,-1.2539063 -1.253906,-1.2539063 -0.515625,0 -1.289062,0.234375 -1.289062,1.3476563 0,2.7421875 2.695312,4.89843747 5.859375,4.89843747 3.316406,0 5.859375,-2.60156247 5.859375,-5.64843747 0,-2.90625 -2.390625,-4.9921876 -5.226563,-5.3203126 2.261719,-0.480469 4.441406,-2.507813 4.441406,-5.226563 0,-2.332031 -2.355468,-4.042968 -5.039062,-4.042968 -2.730469,0 -5.121094,1.675781 -5.121094,4.066406 0,1.042969 0.785156,1.230469 1.171875,1.230469 0.621094,0 1.160156,-0.386719 1.160156,-1.171875 0,-0.773438 -0.539062,-1.160157 -1.160156,-1.160157 -0.117187,0 -0.269531,0 -0.386719,0.05859 0.867188,-1.96875 3.222657,-2.332031 4.265625,-2.332031 1.054688,0 3.023438,0.503906 3.023438,3.375 0,0.84375 -0.117188,2.332031 -1.136719,3.644531 -0.890625,1.171875 -1.910156,1.230469 -2.894531,1.324219 -0.152344,0 -0.84375,0.05859 -0.960938,0.05859 -0.210937,0.02344 -0.328125,0.05859 -0.328125,0.269531 0,0.199219 0.03516,0.234375 0.632813,0.234375 z m 0,0"
         style="fill:#555555;fill-opacity:1;fill-rule:nonzero;stroke:none" /></g><g
       id="g27"
       aria-label="0.4"
       transform="matrix(1.3333333,0,0,1.3333333,62.670943,128.8874)"><path
         id="path28"
         d="m 12.55148,-9.5981652 c 0,-1.8164058 -0.03516,-4.9218748 -1.289062,-7.3124998 -1.101563,-2.097656 -2.8593755,-2.847656 -4.4179692,-2.847656 -1.4296875,0 -3.2578125,0.667968 -4.3945313,2.8125 -1.1953125,2.238281 -1.3125,5.027343 -1.3125,7.3476558 0,1.7109375 0.023437,4.3125 0.9609375,6.5742187 1.2773438,3.08203128 3.5859375,3.50390628 4.7460938,3.50390628 1.3710937,0 3.4687502,-0.57421875 4.6875002,-3.41015628 0.902344,-2.0625 1.019531,-4.4765625 1.019531,-6.6679687 z M 6.8444488,-5.08969e-4 c -1.9101563,0 -3.046875,-1.640625031 -3.46875,-3.914062531 -0.328125,-1.7695312 -0.328125,-4.3359375 -0.328125,-6.0117187 0,-2.2968748 0,-4.2070308 0.3867187,-6.0351558 0.5742188,-2.53125 2.25,-3.316407 3.4101563,-3.316407 1.2304687,0 2.8125,0.808594 3.3750002,3.257813 0.386719,1.710937 0.421875,3.703125 0.421875,6.0937498 0,1.9453125 0,4.3359375 -0.363281,6.1054687 -0.6210942,3.25781253 -2.3906255,3.820312531 -3.4335942,3.820312531 z m 0,0"
         style="fill:#555555;fill-opacity:1;fill-rule:nonzero;stroke:none" /><path
         id="path29"
         d="m 19.201871,-1.4301965 c 0,-0.8671875 -0.714844,-1.4648437 -1.429688,-1.4648437 -0.867187,0 -1.464844,0.7148437 -1.464844,1.4296875 0,0.86718748 0.714844,1.464843731 1.429688,1.464843731 0.867187,0 1.464844,-0.714843751 1.464844,-1.429687531 z m 0,0"
         style="fill:#555555;fill-opacity:1;fill-rule:nonzero;stroke:none" /><path
         id="path30"
         d="m 31.878628,-19.336446 c 0,-0.621094 -0.03516,-0.65625 -0.574218,-0.65625 l -8.871094,14.132812 v 0.7734375 h 7.710937 v 2.9296875 c 0,1.078125 -0.05859,1.38281253 -2.15625,1.38281253 h -0.5625 v 0.773437501 c 0.949219,-0.058593751 2.566407,-0.058593751 3.585938,-0.058593751 1.019531,0 2.625,0 3.585937,0.058593751 V -0.77394647 H 34.02316 c -2.085938,0 -2.144532,-0.30468753 -2.144532,-1.38281253 v -2.9296875 h 3.046875 V -5.859884 h -3.046875 z m -1.640625,1.96875 v 11.507812 h -7.207031 z m 0,0"
         style="fill:#555555;fill-opacity:1;fill-rule:nonzero;stroke:none" /></g><g
       id="g31"
       aria-label="0.5"
       transform="matrix(1.3333333,0,0,1.3333333,62.670943,37.602808)"><path
         id="path32"
         d="m 12.55148,-9.5985902 c 0,-1.8164058 -0.03516,-4.9218748 -1.289062,-7.3124998 -1.101563,-2.097656 -2.8593755,-2.847656 -4.4179692,-2.847656 -1.4296875,0 -3.2578125,0.667968 -4.3945313,2.8125 -1.1953125,2.238281 -1.3125,5.027343 -1.3125,7.3476558 0,1.7109375 0.023437,4.3125 0.9609375,6.5742187 1.2773438,3.08203129 3.5859375,3.50390629 4.7460938,3.50390629 1.3710937,0 3.4687502,-0.57421875 4.6875002,-3.41015629 0.902344,-2.0625 1.019531,-4.4765625 1.019531,-6.6679687 z M 6.8444488,-9.339561e-4 c -1.9101563,0 -3.046875,-1.6406250439 -3.46875,-3.9140625439 -0.328125,-1.7695312 -0.328125,-4.3359375 -0.328125,-6.0117187 0,-2.2968748 0,-4.2070308 0.3867187,-6.0351558 0.5742188,-2.53125 2.25,-3.316407 3.4101563,-3.316407 1.2304687,0 2.8125,0.808594 3.3750002,3.257813 0.386719,1.710937 0.421875,3.703125 0.421875,6.0937498 0,1.9453125 0,4.3359375 -0.363281,6.1054687 -0.6210942,3.25781254 -2.3906255,3.8203125439 -3.4335942,3.8203125439 z m 0,0"
         style="fill:#555555;fill-opacity:1;fill-rule:nonzero;stroke:none" /><path
         id="path33"
         d="m 19.201871,-1.4306215 c 0,-0.8671875 -0.714844,-1.4648437 -1.429688,-1.4648437 -0.867187,0 -1.464844,0.7148437 -1.464844,1.4296875 0,0.86718749 0.714844,1.4648437439 1.429688,1.4648437439 0.867187,0 1.464844,-0.7148437539 1.464844,-1.4296875439 z m 0,0"
         style="fill:#555555;fill-opacity:1;fill-rule:nonzero;stroke:none" /><path
         id="path34"
         d="m 25.245816,-17.485309 c 0.292969,0.117188 1.523437,0.515625 2.777344,0.515625 2.777343,0 4.300781,-1.5 5.167968,-2.367187 0,-0.234375 0,-0.386719 -0.175781,-0.386719 -0.03516,0 -0.09375,0 -0.328125,0.117187 -1.054687,0.445313 -2.273437,0.808594 -3.773437,0.808594 -0.890625,0 -2.238282,-0.117187 -3.703125,-0.773437 -0.328125,-0.152344 -0.386719,-0.152344 -0.421875,-0.152344 -0.140625,0 -0.175782,0.03516 -0.175782,0.632812 v 8.660157 c 0,0.539062 0,0.6914058 0.304688,0.6914058 0.140625,0 0.210937,-0.058594 0.351562,-0.2695308 0.960938,-1.347657 2.273438,-1.910157 3.773438,-1.910157 1.042969,0 3.28125,0.65625 3.28125,5.7656253 0,0.9492187 0,2.6835937 -0.890625,4.0546875 -0.75,1.23046874 -1.921875,1.86328124 -3.199219,1.86328124 -1.980469,0 -3.972656,-1.38281254 -4.511719,-3.67968754 0.117188,0.023437 0.351563,0.09375 0.46875,0.09375 0.398438,0 1.136719,-0.2109375 1.136719,-1.1367187 0,-0.8085938 -0.5625,-1.1367188 -1.136719,-1.1367188 -0.679687,0 -1.125,0.4101563 -1.125,1.2539063 0,2.6015625 2.0625,5.32031249 5.226563,5.32031249 3.070312,0 6,-2.66015629 6,-6.51562499 0,-3.5859375 -2.332031,-6.3632808 -5.226563,-6.3632808 -1.523437,0 -2.8125,0.5625 -3.820312,1.640625 z m 0,0"
         style="fill:#555555;fill-opacity:1;fill-rule:nonzero;stroke:none" /></g><path
       id="path35"
       d="m 6.0946464,-3.9848084 c -1.2539062,2.1210937 -2.4726562,2.8359375 -4.1953125,2.9414062 -0.3867187,0.035156 -0.6796875,0.035156 -0.6796875,0.67968752 0,0.22265625 0.1757813,0.3632812468 0.4335938,0.3632812468 0.6445312,0 2.2617187,-0.0703124968 2.90625,-0.0703124968 1.0429687,0 2.1796875,0.0703124968 3.1875,0.0703124968 0.2226562,0 0.6445312,0 0.6445312,-0.6796874968 0,-0.32812497 -0.28125,-0.36328127 -0.5039062,-0.36328127 -0.8203125,-0.070312 -1.5,-0.3515625 -1.5,-1.21875 0,-0.5039062 0.2109375,-0.890625 0.6796875,-1.6875 l 2.7304687,-4.5117187 h 9.1406246 c 0.03516,0.3164062 0.03516,0.609375 0.07031,0.9257812 0.117187,0.9375 0.539062,4.6640625 0.539062,5.34375 0,1.078125 -1.828125,1.1484375 -2.402343,1.1484375 -0.398438,0 -0.785157,0 -0.785157,0.64453127 0,0.3984374968 0.316407,0.3984374968 0.539063,0.3984374968 0.609375,0 1.324219,-0.0703124968 1.933594,-0.0703124968 h 2.050781 c 2.179687,0 3.761719,0.0703124968 3.796875,0.0703124968 0.246094,0 0.644531,0 0.644531,-0.6796874968 0,-0.36328127 -0.316406,-0.36328127 -0.855469,-0.36328127 -1.980468,0 -2.015625,-0.3164062 -2.121093,-1.3945312 L 20.157146,-24.820746 c -0.07031,-0.714844 -0.210937,-0.796875 -0.609375,-0.796875 -0.351562,0 -0.574218,0.08203 -0.890625,0.609375 z m 4.3124996,-5.5195313 7.207032,-12.0585933 1.21875,12.0585933 z m 0,0"
       style="fill:#555555;fill-opacity:1;fill-rule:nonzero;stroke:none"
       aria-label="A"
       transform="matrix(0,-1.3333333,1.3333333,0,45.422453,306.02073)" /><path
       id="path36"
       d="m 10.981501,8.7534728 c 0,-0.035156 0,-0.1054687 -0.117188,-0.2109375 -1.6406247,-1.6875 -6.0585935,-6.28125 -6.0585935,-17.4726562 0,-11.1914061 4.3476563,-15.7500001 6.1054685,-17.5429691 0,-0.03516 0.07031,-0.105468 0.07031,-0.210937 0,-0.117188 -0.117188,-0.1875 -0.257813,-0.1875 -0.386718,0 -3.4453122,2.660156 -5.2031247,6.609375 -1.7929688,3.972656 -2.296875,7.851562 -2.296875,11.2968748 0,2.578125 0.2578125,6.9609375 2.4140625,11.578125 1.7226562,3.7382813 4.6640622,6.3515625 5.0859372,6.3515625 0.1875,0 0.257813,-0.070312 0.257813,-0.2109375 z m 0,0"
       style="fill:#555555;fill-opacity:1;fill-rule:nonzero;stroke:none"
       aria-label="("
       transform="matrix(0,-1.3333333,1.3333333,0,45.422453,270.91934)" /><path
       id="path37"
       d="m 21.304841,-13.488715 c 0,-1.042968 -0.28125,-2.367187 -1.535156,-2.367187 -0.726563,0 -1.546875,0.902344 -1.546875,1.617187 0,0.316407 0.140625,0.539063 0.433593,0.855469 0.539063,0.609375 1.21875,1.582031 1.21875,3.269531 0,1.2890628 -0.796875,3.3281253 -1.371093,4.4414066 -0.996094,1.9804687 -2.648438,3.6679687 -4.511719,3.6679687 -2.261719,0 -3.128906,-1.4414062 -3.515625,-3.4453125 0.386719,-0.9375 1.21875,-3.2695312 1.21875,-4.1953125 0,-0.3984373 -0.140625,-0.7265623 -0.609375,-0.7265623 -0.257813,0 -0.539063,0.152344 -0.714844,0.4335936 -0.5039061,0.7851562 -0.9726561,3.6210937 -0.9374999,4.3828125 -0.6796875,1.3242187 -2.6132812,3.5507812 -4.9101562,3.5507812 -2.4023438,0 -3.046875,-2.1210937 -3.046875,-4.1601562 0,-3.7382813 2.3203125,-6.9960941 2.9765625,-7.8984371 0.3515625,-0.539063 0.609375,-0.890625 0.609375,-0.972657 0,-0.246093 -0.1523438,-0.644531 -0.46875,-0.644531 -0.5742188,0 -0.75,0.46875 -1.0429688,0.902344 -1.828125,2.835937 -3.11718749,6.8085936 -3.11718749,10.2539061 0,2.2265625 0.82031249,4.88671872 3.51562499,4.88671872 2.9765625,0 4.8398438,-2.55468752 5.5898438,-3.91406252 0.2929687,2.0039063 1.3710941,3.91406252 3.9843751,3.91406252 2.730469,0 4.453125,-2.40234372 5.742187,-5.30859372 0.925782,-2.0859375 2.039063,-6.5742191 2.039063,-8.5429691 z m 0,0"
       style="fill:#555555;fill-opacity:1;fill-rule:nonzero;stroke:none"
       aria-label="ω"
       transform="matrix(0,-1.3333333,1.3333333,0,45.422453,253.98458)" /><path
       id="path38"
       d="m 9.4324726,-8.9301209 c 0,-2.5898441 -0.2460938,-6.9609371 -2.4023438,-11.5898441 -1.7226562,-3.726562 -4.6640625,-6.351562 -5.0976562,-6.351562 -0.1054688,0 -0.2460938,0.03516 -0.2460938,0.222656 0,0.07031 0.035156,0.105469 0.070312,0.175781 1.7226563,1.792969 6.09375,6.351563 6.09375,17.5078128 0,11.1914063 -4.3359375,15.75 -6.09375,17.5429688 -0.035156,0.070312 -0.070312,0.1054687 -0.070312,0.1757812 0,0.1757813 0.140625,0.2109375 0.2460938,0.2109375 0.3984375,0 3.4453125,-2.6484375 5.203125,-6.5976562 1.7929687,-3.984375 2.296875,-7.8515625 2.296875,-11.296875 z m 0,0"
       style="fill:#555555;fill-opacity:1;fill-rule:nonzero;stroke:none"
       aria-label=")"
       transform="matrix(0,-1.3333333,1.3333333,0,45.422453,223.11179)" /><path
       id="path39"
       d="m 107.79721,95.467433 37.79703,0.605858 28.79774,0.665814 23.39816,0.746948 19.79845,0.849802 16.19873,0.911258 14.39887,1.041077 12.59901,1.15772 10.79915,1.24126 8.99929,1.26689 7.19944,1.20875 7.19943,1.42708 7.19944,1.7004 5.39957,1.49773 5.39958,1.73184 5.39957,2.01616 3.59972,1.53299 3.59972,1.71073 3.59972,1.91618 3.59971,2.15469 3.59972,2.43293 3.59972,2.7591 3.59971,3.14337 3.59972,3.59843 3.59972,4.1401 3.59972,4.78817 1.79986,2.67698 1.79985,2.89044 1.79986,3.12521 1.79986,3.38364 1.79986,3.66844 1.79986,3.98259 1.79986,4.32937 1.79986,4.71243 1.79985,5.13576 1.79986,5.60363 1.79986,6.12057 1.79986,6.69117 1.79986,7.31978 1.79986,8.01018 1.79986,8.76486 1.79985,9.58419 1.79986,10.46524 1.79986,11.40028 1.79986,12.37469 1.79986,13.36464 1.79986,14.33421 3.59972,31.22302 7.19943,65.38177 1.79986,14.20452 1.79986,12.04202 1.79986,9.19862 1.79986,5.77912 1.79985,1.97201 1.79986,-1.97201 1.79986,-5.77912 1.79986,-9.19862 1.79986,-12.04202 1.79986,-14.20452 3.59971,-32.13917 5.39958,-49.23323 3.59972,-29.5666 1.79986,-13.36464 1.79985,-12.37469 1.79986,-11.40028 1.79986,-10.46524 1.79986,-9.58419 1.79986,-8.76486 1.79986,-8.01018 1.79986,-7.31978 1.79985,-6.69117 1.79986,-6.12057 1.79986,-5.60363 1.79986,-5.13576 1.79986,-4.71243 1.79986,-4.32937 1.79986,-3.98259 1.79986,-3.66844 1.79985,-3.38364 1.79986,-3.12521 1.79986,-2.89044 3.59972,-5.15963 3.59972,-4.44941 3.59971,-3.8573 3.59972,-3.36115 3.59972,-2.94325 3.59972,-2.58944 3.59971,-2.28837 3.59972,-2.03092 3.59972,-1.80968 3.59971,-1.6187 5.39958,-2.12436 5.39958,-1.82043 5.39957,-1.57089 5.39958,-1.3643 7.19943,-1.55588 7.19944,-1.31196 8.99929,-1.36887 8.99929,-1.1319 10.79915,-1.11676 12.59901,-1.049157 14.39887,-0.950312 16.19873,-0.837698 19.79845,-0.786699 23.39816,-0.696371 28.79774,-0.625068 32.39745,-0.503752 v 0"
       style="fill:none;stroke:#e24a33;stroke-width:6;stroke-linecap:square;stroke-linejoin:round;stroke-miterlimit:10;stroke-dasharray:none;stroke-opacity:1"
       transform="matrix(1.3333333,0,0,-1.3333333,0,604.8)" /><path
       id="path40"
       d="m 107.79721,94.951693 39.59689,0.332731 32.39746,0.489725 28.79774,0.634051 19.79844,0.634489 14.39887,0.680001 10.79915,0.712657 8.9993,0.784645 8.99929,1.022528 7.19943,1.04998 5.39958,0.96706 5.39958,1.16532 5.39957,1.4168 3.59972,1.11744 3.59972,1.28426 3.59971,1.48028 3.59972,1.7103 3.59972,1.97974 3.59972,2.29444 3.59971,2.66057 3.59972,3.08418 3.59972,3.57057 3.59972,4.1232 3.59971,4.74231 3.59972,5.4227 3.59972,6.15134 3.59971,6.90414 3.59972,7.64293 3.59972,8.31294 3.59972,8.8424 10.79915,27.03769 3.59971,7.98186 1.79986,3.60476 1.79986,3.32148 1.79986,3.04556 3.59972,5.44827 3.59971,5.30278 1.79986,3.04116 1.79986,3.63691 1.79986,4.53936 1.79986,5.77795 1.79986,7.36142 1.79986,9.26918 1.79986,11.44233 1.79985,13.77529 1.79986,16.10905 1.79986,18.2277 3.59972,40.55194 1.79986,20.38195 1.79986,18.6048 1.79986,15.09788 1.79985,9.73157 1.79986,-9.73157 1.79986,-15.09788 1.79986,-18.6048 5.39957,-60.93389 1.79986,-18.2277 1.79986,-16.10905 1.79986,-13.77529 1.79986,-11.44233 1.79986,-9.26918 1.79986,-7.36142 1.79986,-5.77795 1.79985,-4.53936 1.79986,-3.63691 1.79986,-3.04116 7.19944,-10.75105 1.79985,-3.04556 1.79986,-3.32148 1.79986,-3.60476 3.59972,-7.98186 3.59972,-8.75285 10.79915,-27.12724 3.59972,-8.31294 3.59971,-7.64293 3.59972,-6.90414 3.59972,-6.15134 3.59972,-5.4227 3.59971,-4.74231 3.59972,-4.1232 3.59972,-3.57057 3.59971,-3.08418 3.59972,-2.66057 3.59972,-2.29444 3.59972,-1.97974 3.59971,-1.7103 3.59972,-1.48028 3.59972,-1.28426 5.39957,-1.62153 5.39958,-1.32618 5.39957,-1.09399 7.19944,-1.18003 7.19943,-0.937435 8.9993,-0.918417 10.79915,-0.829148 12.59901,-0.70097 14.39887,-0.569283 21.5983,-0.597401 30.5976,-0.597741 32.39745,-0.419265 28.79774,-0.216037 v 0"
       style="fill:none;stroke:#348abd;stroke-width:6;stroke-linecap:square;stroke-linejoin:round;stroke-miterlimit:10;stroke-dasharray:none;stroke-opacity:1"
       transform="matrix(1.3333333,0,0,-1.3333333,0,604.8)" /><path
       id="path41"
       d="m 107.79721,97.506498 19.79845,0.728814 16.19873,0.823514 12.59901,0.85342 10.79915,0.930084 10.79915,1.16478 8.99929,1.19771 7.19944,1.14474 7.19943,1.34993 7.19944,1.60194 5.39957,1.40144 5.39958,1.60497 5.39957,1.84203 5.39958,2.11704 5.39958,2.43458 3.59971,1.82239 3.59972,1.99903 3.59972,2.19096 3.59972,2.39833 3.59971,2.62085 3.59972,2.85747 3.59972,3.10616 3.59971,3.36362 3.59972,3.62479 3.59972,3.88255 3.59972,4.12703 5.39957,6.58696 8.9993,11.56323 5.39957,6.75085 3.59972,4.11313 1.79986,1.86686 1.79986,1.70285 1.79985,1.50842 1.79986,1.28209 1.79986,1.02288 1.79986,0.73033 1.79986,0.40474 1.79986,0.0472 1.79986,-0.34006 1.79986,-0.75383 1.79985,-1.18955 1.79986,-1.64133 1.79986,-2.10188 1.79986,-2.56258 1.79986,-3.01355 1.79986,-3.44387 1.79986,-3.84189 1.79986,-4.19568 3.59971,-9.21805 8.99929,-24.24859 1.79986,-4.38383 1.79986,-4.05492 1.79986,-3.67479 1.79986,-3.26011 1.79986,-2.82856 1.79986,-2.39761 1.79986,-1.98317 1.79985,-1.59829 1.79986,-1.25244 1.79986,-0.95093 1.79986,-0.69499 1.79986,-0.48209 1.79986,-0.30677 1.79986,-0.16132 1.79985,-0.0367 1.79986,0.0771 1.79986,0.19086 1.79986,0.31644 1.79986,0.46757 1.79986,0.66116 1.79986,0.91884 1.79985,1.26918 1.79986,1.75017 1.79986,2.41247 1.79986,3.32311 1.79986,4.56959 1.79986,6.26331 1.79986,8.54031 1.79986,11.55501 1.79985,15.45961 1.79986,20.35775 1.79986,26.21781 1.79986,32.73174 1.79986,39.11823 3.59972,88.7379 1.79986,39.02726 1.79985,23.93572 1.79986,-23.93572 1.79986,-39.02726 3.59972,-88.7379 1.79986,-39.11823 1.79985,-32.73174 1.79986,-26.21781 1.79986,-20.35775 1.79986,-15.45961 1.79986,-11.55501 1.79986,-8.54031 1.79986,-6.26331 1.79986,-4.56959 1.79985,-3.32311 1.79986,-2.41247 1.79986,-1.75017 1.79986,-1.26918 1.79986,-0.91884 1.79986,-0.66116 1.79986,-0.46757 1.79985,-0.31644 1.79986,-0.19086 1.79986,-0.0771 1.79986,0.0367 1.79986,0.16132 1.79986,0.30677 1.79986,0.48209 1.79986,0.69499 1.79985,0.95093 1.79986,1.25244 1.79986,1.59829 1.79986,1.98317 1.79986,2.39761 1.79986,2.82856 1.79986,3.26011 1.79985,3.67479 1.79986,4.05492 3.59972,9.03104 10.79915,28.81943 1.79986,4.19568 1.79986,3.84189 1.79986,3.44387 1.79986,3.01355 1.79985,2.56258 1.79986,2.10188 1.79986,1.64133 1.79986,1.18955 1.79986,0.75383 1.79986,0.34006 1.79986,-0.0472 1.79986,-0.40474 1.79985,-0.73033 1.79986,-1.02288 1.79986,-1.28209 1.79986,-1.50842 1.79986,-1.70285 3.59972,-3.86908 3.59971,-4.30602 5.39958,-6.87832 8.99929,-11.48239 5.39958,-6.438 3.59972,-4.00718 3.59971,-3.75465 3.59972,-3.49413 3.59972,-3.23406 3.59971,-2.98048 3.59972,-2.7375 3.59972,-2.50774 3.59972,-2.29272 3.59971,-2.09306 3.59972,-1.90883 5.39958,-2.55061 5.39957,-2.21795 5.39958,-1.92925 5.39957,-1.68005 5.39958,-1.46583 7.19944,-1.67357 7.19943,-1.40812 7.19943,-1.19222 8.9993,-1.24552 8.99929,-1.02676 10.79915,-1.00217 12.59901,-0.918817 14.39887,-0.799035 16.19873,-0.67265 8.99929,-0.30249 v 0"
       style="fill:none;stroke:#988ed5;stroke-width:6;stroke-linecap:square;stroke-linejoin:round;stroke-miterlimit:10;stroke-dasharray:none;stroke-opacity:1"
       transform="matrix(1.3333333,0,0,-1.3333333,0,604.8)" /><path
       id="path42"
       d="m 107.79721,95.640715 7.19944,0.744479 7.19943,1.004776 5.39958,0.976972 5.39957,1.220214 5.39958,1.520704 3.59972,1.21401 3.59971,1.40092 3.59972,1.61343 3.59972,1.85396 3.59972,2.12471 3.59971,2.42755 3.59972,2.76382 3.59972,3.13401 3.59972,3.53745 3.59971,3.97193 3.59972,4.43322 3.59972,4.91454 3.59971,5.40611 3.59972,5.89466 3.59972,6.36293 3.59972,6.78962 5.39957,10.83016 14.39887,29.63393 3.59972,6.58536 1.79986,3.01529 1.79986,2.7908 1.79985,2.53743 1.79986,2.25645 1.79986,1.94979 1.79986,1.61997 1.79986,1.27012 1.79986,0.90395 1.79986,0.52566 1.79986,0.13995 1.79985,-0.24825 1.79986,-0.6338 1.79986,-1.0115 1.79986,-1.37636 1.79986,-1.72373 1.79986,-2.04943 1.79986,-2.34999 1.79985,-2.62279 1.79986,-2.86611 3.59972,-6.34172 3.59972,-6.96196 5.39957,-11.17896 7.19944,-15.60486 12.59901,-27.62455 3.59972,-7.52023 3.59971,-7.07801 3.59972,-6.45824 3.59972,-5.68134 1.79986,-2.51205 1.79985,-2.2804 1.79986,-2.04444 1.79986,-1.80847 1.79986,-1.5767 1.79986,-1.35313 1.79986,-1.14152 1.79986,-0.94522 1.79986,-0.76708 1.79985,-0.609369 3.59972,-0.833928 3.59972,-0.468782 5.39958,-0.353778 17.99858,-0.711406 8.99929,-0.06692 10.79916,0.148543 8.99929,0.303165 7.19943,0.448303 5.39958,0.564799 3.59972,0.579583 3.59971,0.882857 1.79986,0.637253 1.79986,0.85728 1.79986,1.21722 1.79986,1.88087 1.79986,3.41369 1.79986,9.21245 1.79986,55.12412 1.79985,258.11856 1.79986,-258.11856 1.79986,-55.12412 1.79986,-9.21245 1.79986,-3.41369 1.79986,-1.88087 1.79985,-1.21722 1.79986,-0.85728 1.79986,-0.637253 3.59972,-0.882857 3.59972,-0.579583 5.39957,-0.564799 7.19944,-0.448303 8.99929,-0.303165 10.79915,-0.148543 8.9993,0.06692 8.99929,0.326839 12.59901,0.589976 3.59972,0.347777 3.59971,0.629723 1.79986,0.473579 1.79986,0.609369 1.79986,0.76708 1.79986,0.94522 1.79986,1.14152 1.79986,1.35313 1.79985,1.5767 1.79986,1.80847 1.79986,2.04444 1.79986,2.2804 1.79986,2.51205 1.79986,2.73526 3.59971,6.08711 3.59972,6.78969 3.59972,7.3215 5.39957,11.59603 16.19873,35.43764 5.39958,11.17896 3.59972,6.96196 3.59971,6.34172 1.79986,2.86611 1.79986,2.62279 1.79986,2.34999 1.79986,2.04943 1.79986,1.72373 1.79985,1.37636 1.79986,1.0115 1.79986,0.6338 1.79986,0.24825 1.79986,-0.13995 1.79986,-0.52566 1.79986,-0.90395 1.79986,-1.27012 1.79985,-1.61997 1.79986,-1.94979 1.79986,-2.25645 1.79986,-2.53743 1.79986,-2.7908 3.59972,-6.22544 3.59971,-6.88597 5.39958,-11.06354 8.99929,-18.74045 5.39958,-10.59394 3.59972,-6.58297 3.59971,-6.13256 3.59972,-5.65175 3.59972,-5.15979 3.59972,-4.6719 3.59971,-4.19959 3.59972,-3.75102 3.59972,-3.33167 3.59971,-2.94468 3.59972,-2.59145 3.59972,-2.27202 3.59972,-1.98543 3.59971,-1.73006 3.59972,-1.50382 3.59972,-1.30441 3.59971,-1.12942 5.39958,-1.413514 5.39958,-1.13329 5.39957,-0.906859 7.19944,-0.932297 5.39957,-0.536915 v 0"
       style="fill:none;stroke:#777777;stroke-width:6;stroke-linecap:square;stroke-linejoin:round;stroke-miterlimit:10;stroke-dasharray:none;stroke-opacity:1"
       transform="matrix(1.3333333,0,0,-1.3333333,0,604.8)" /><path
       id="path43"
       d="m 107.79721,101.08714 5.39958,1.36107 5.39958,1.59916 5.39957,1.87503 5.39958,2.19299 3.59971,1.66129 3.59972,1.83766 3.59972,2.02925 3.59972,2.23647 3.59971,2.45953 3.59972,2.69833 3.59972,2.9524 3.59971,3.22074 3.59972,3.50184 3.59972,3.79342 3.59972,4.09238 3.59971,4.39463 3.59972,4.69499 3.59972,4.98701 3.59972,5.26289 5.39957,8.35319 5.39958,8.78177 14.39887,23.77375 3.59971,5.49398 3.59972,5.06215 3.59972,4.48219 1.79986,1.97511 1.79986,1.77139 1.79985,1.54785 1.79986,1.30476 1.79986,1.04259 1.79986,0.76211 1.79986,0.46432 1.79986,0.15057 1.79986,-0.17752 1.79986,-0.51801 1.79985,-0.86864 1.79986,-1.22683 1.79986,-1.58972 1.79986,-1.95413 1.79986,-2.31669 1.79986,-2.67373 1.79986,-3.02148 1.79985,-3.35601 1.79986,-3.67334 1.79986,-3.96953 3.59972,-8.72393 3.59972,-9.5625 5.39957,-15.27102 7.19944,-20.36869 3.59971,-9.46207 3.59972,-8.61504 1.79986,-3.92567 1.79986,-3.64652 1.79986,-3.35543 1.79986,-3.05776 1.79985,-2.75872 1.79986,-2.4633 1.79986,-2.17612 1.79986,-1.90123 1.79986,-1.64214 1.79986,-1.40159 1.79986,-1.181645 1.79985,-0.983581 1.79986,-0.807967 1.79986,-0.654688 3.59972,-0.934832 3.59972,-0.56327 3.59971,-0.318943 5.39958,-0.219135 10.79915,-0.09606 71.99435,-0.008 93.59265,0.104098 5.39957,0.219135 3.59972,0.318943 3.59972,0.56327 3.59971,0.934832 1.79986,0.654688 1.79986,0.807967 1.79986,0.983581 1.79986,1.181645 1.79986,1.401592 1.79986,1.64214 1.79985,1.90123 1.79986,2.17612 1.79986,2.4633 1.79986,2.75872 1.79986,3.05776 1.79986,3.35543 1.79986,3.64652 3.59971,8.11332 3.59972,9.0676 3.59972,9.79062 12.59901,35.53984 3.59972,9.17683 3.59971,8.21024 1.79986,3.67334 1.79986,3.35601 1.79986,3.02148 1.79986,2.67373 1.79986,2.31669 1.79985,1.95413 1.79986,1.58972 1.79986,1.22683 1.79986,0.86864 1.79986,0.51801 1.79986,0.17752 1.79986,-0.15057 1.79986,-0.46432 1.79985,-0.76211 1.79986,-1.04259 1.79986,-1.30476 1.79986,-1.54785 1.79986,-1.77139 1.79986,-1.97511 3.59971,-4.48219 3.59972,-5.06215 3.59972,-5.49398 5.39958,-8.7552 14.39886,-23.80032 5.39958,-8.35319 3.59972,-5.26289 3.59972,-4.98701 3.59971,-4.69499 3.59972,-4.39463 3.59972,-4.09238 3.59971,-3.79342 3.59972,-3.50184 3.59972,-3.22074 3.59972,-2.9524 3.59971,-2.69833 3.59972,-2.45953 3.59972,-2.23647 3.59971,-2.02925 3.59972,-1.83766 3.59972,-1.66129 5.39958,-2.19299 5.39957,-1.87503 5.39958,-1.59916 5.39957,-1.36107 v 0"
       style="fill:none;stroke:#fbc15e;stroke-width:6;stroke-linecap:square;stroke-linejoin:round;stroke-miterlimit:10;stroke-dasharray:none;stroke-opacity:1"
       transform="matrix(1.3333333,0,0,-1.3333333,0,604.8)" /><path
       id="path44"
       d="M 89.546647,76.651689 V 446.4"
       style="fill:none;stroke:#d3d3d3;stroke-width:5;stroke-linecap:square;stroke-linejoin:miter;stroke-miterlimit:10;stroke-dasharray:none;stroke-opacity:1"
       transform="matrix(1.3333333,0,0,-1.3333333,0,604.8)" /><path
       id="path45"
       d="M 734.4,76.651689 V 446.4"
       style="fill:none;stroke:#d3d3d3;stroke-width:5;stroke-linecap:square;stroke-linejoin:miter;stroke-miterlimit:10;stroke-dasharray:none;stroke-opacity:1"
       transform="matrix(1.3333333,0,0,-1.3333333,0,604.8)" /><path
       id="path46"
       d="M 89.546647,76.651689 H 734.4"
       style="fill:none;stroke:#d3d3d3;stroke-width:5;stroke-linecap:square;stroke-linejoin:miter;stroke-miterlimit:10;stroke-dasharray:none;stroke-opacity:1"
       transform="matrix(1.3333333,0,0,-1.3333333,0,604.8)" /><path
       id="path47"
       d="M 89.546647,446.4 H 734.4"
       style="fill:none;stroke:#d3d3d3;stroke-width:5;stroke-linecap:square;stroke-linejoin:miter;stroke-miterlimit:10;stroke-dasharray:none;stroke-opacity:1"
       transform="matrix(1.3333333,0,0,-1.3333333,0,604.8)" /><path
       id="path95"
       d="M 0,0 H 741.6 V 453.6 H 0 Z"
       style="fill:#ffffff;fill-opacity:1;fill-rule:nonzero;stroke:none"
       transform="matrix(1.3333333,0,0,-1.3333333,0,604.8)" /><path
       id="path96"
       d="M 89.546647,76.651689 H 734.4 V 446.4 H 89.546647 Z"
       style="fill:#ffffff;fill-opacity:1;fill-rule:nonzero;stroke:none"
       transform="matrix(1.3333333,0,0,-1.3333333,0,604.8)" /><path
       id="path97"
       d="m 231.98746,76.651689 v -3.5"
       style="fill:#555555;fill-opacity:1;fill-rule:nonzero;stroke:#555555;stroke-width:0.8;stroke-linecap:butt;stroke-linejoin:round;stroke-miterlimit:10;stroke-dasharray:none;stroke-opacity:1"
       transform="matrix(1.3333333,0,0,-1.3333333,0,604.8)" /><g
       id="g99"
       aria-label="−10"
       transform="matrix(1.3333333,0,0,1.3333333,275.54293,539.60507)"><path
         id="path98"
         d="m 19.687526,-6.8786105 c 0.515625,0 1.054687,0 1.054687,-0.5976562 0,-0.5976563 -0.539062,-0.5976563 -1.054687,-0.5976563 H 3.5273695 c -0.5039063,0 -1.0429688,0 -1.0429688,0.5976563 0,0.5976562 0.5390625,0.5976562 1.0429688,0.5976562 z m 0,0"
         style="fill:#555555;fill-opacity:1;fill-rule:nonzero;stroke:none" /><path
         id="path99"
         d="m 31.192409,-19.089548 c 0,-0.632812 -0.02344,-0.667969 -0.445313,-0.667969 -1.160156,1.40625 -2.929687,1.863282 -4.605469,1.921875 -0.08203,0 -0.234375,0 -0.269531,0.05859 -0.02344,0.05859 -0.02344,0.117188 -0.02344,0.738281 0.925781,0 2.484375,-0.175781 3.679687,-0.890625 v 15.7500003 c 0,1.0429687 -0.07031,1.40624997 -2.636719,1.40624997 H 26.001002 V 2.957659e-4 C 27.43069,-0.03486048 28.93069,-0.05829798 30.360377,-0.05829798 c 1.429688,0 2.929688,0.0234375 4.359375,0.0585937459 V -0.77314173 h -0.890625 c -2.578125,0 -2.636718,-0.32812497 -2.636718,-1.40624997 z m 18.292968,9.4921875 c 0,-1.8164065 -0.03516,-4.9218745 -1.289062,-7.3124995 -1.101563,-2.097657 -2.859375,-2.847657 -4.417969,-2.847657 -1.429687,0 -3.257812,0.667969 -4.394531,2.8125 -1.195313,2.238282 -1.3125,5.027344 -1.3125,7.3476565 0,1.7109375 0.02344,4.3125 0.960937,6.5742188 1.277344,3.08203122 3.585938,3.50390622 4.746094,3.50390622 1.371094,0 3.46875,-0.57421875 4.6875,-3.41015622 0.902344,-2.0625 1.019531,-4.4765625 1.019531,-6.6679688 z M 43.778346,2.957659e-4 c -1.910156,0 -3.046875,-1.6406249659 -3.46875,-3.9140624659 -0.328125,-1.7695313 -0.328125,-4.3359375 -0.328125,-6.0117188 0,-2.2968745 0,-4.2070315 0.386719,-6.0351565 0.574219,-2.53125 2.25,-3.316406 3.410156,-3.316406 1.230469,0 2.8125,0.808594 3.375,3.257813 0.386719,1.710937 0.421875,3.703125 0.421875,6.0937495 0,1.9453125 0,4.3359375 -0.363281,6.1054688 -0.621094,3.25781247 -2.390625,3.8203124659 -3.433594,3.8203124659 z m 0,0"
         style="fill:#555555;fill-opacity:1;fill-rule:nonzero;stroke:none" /></g><path
       id="path100"
       d="m 411.97332,76.651689 v -3.5"
       style="fill:#555555;fill-opacity:1;fill-rule:nonzero;stroke:#555555;stroke-width:0.8;stroke-linecap:butt;stroke-linejoin:round;stroke-miterlimit:10;stroke-dasharray:none;stroke-opacity:1"
       transform="matrix(1.3333333,0,0,-1.3333333,0,604.8)" /><path
       id="path101"
       d="m 12.551147,-9.5973605 c 0,-1.8164065 -0.03516,-4.9218745 -1.289063,-7.3124995 -1.101562,-2.097657 -2.8593749,-2.847657 -4.4179687,-2.847657 -1.4296875,0 -3.2578125,0.667969 -4.3945312,2.8125 -1.1953125,2.238282 -1.3125,5.027344 -1.3125,7.3476565 0,1.7109375 0.023437,4.3125 0.9609375,6.5742188 1.2773437,3.08203122 3.5859375,3.50390622 4.7460937,3.50390622 1.3710938,0 3.4687497,-0.57421875 4.6874997,-3.41015622 0.902344,-2.0625 1.019532,-4.4765625 1.019532,-6.6679688 z M 6.8441153,2.957659e-4 c -1.9101562,0 -3.046875,-1.6406249659 -3.46875,-3.9140624659 -0.328125,-1.7695313 -0.328125,-4.3359375 -0.328125,-6.0117188 0,-2.2968745 0,-4.2070315 0.3867188,-6.0351565 0.5742187,-2.53125 2.25,-3.316406 3.4101562,-3.316406 1.2304688,0 2.8125,0.808594 3.3749997,3.257813 0.386719,1.710937 0.421875,3.703125 0.421875,6.0937495 0,1.9453125 0,4.3359375 -0.363281,6.1054688 C 9.6566153,-0.56220423 7.8870841,2.957659e-4 6.8441153,2.957659e-4 Z m 0,0"
       style="fill:#555555;fill-opacity:1;fill-rule:nonzero;stroke:none"
       aria-label="0"
       transform="matrix(1.3333333,0,0,1.3333333,540.15967,539.60507)" /><path
       id="path102"
       d="m 591.95919,76.651689 v -3.5"
       style="fill:#555555;fill-opacity:1;fill-rule:nonzero;stroke:#555555;stroke-width:0.8;stroke-linecap:butt;stroke-linejoin:round;stroke-miterlimit:10;stroke-dasharray:none;stroke-opacity:1"
       transform="matrix(1.3333333,0,0,-1.3333333,0,604.8)" /><path
       id="path103"
       d="m 7.946198,-19.089548 c 0,-0.632812 -0.023437,-0.667969 -0.4453125,-0.667969 -1.1601562,1.40625 -2.9296875,1.863282 -4.6054687,1.921875 -0.082031,0 -0.234375,0 -0.2695313,0.05859 -0.023437,0.05859 -0.023437,0.117188 -0.023437,0.738281 0.9257813,0 2.484375,-0.175781 3.6796875,-0.890625 v 15.7500003 c 0,1.0429687 -0.070312,1.40624997 -2.6367187,1.40624997 H 2.7547918 V 2.957659e-4 C 4.1844793,-0.03486048 5.6844793,-0.05829798 7.1141668,-0.05829798 c 1.4296875,0 2.9296872,0.0234375 4.3593752,0.0585937459 V -0.77314173 h -0.890625 c -2.5781252,0 -2.636719,-0.32812497 -2.636719,-1.40624997 z m 18.292969,9.4921875 c 0,-1.8164065 -0.03516,-4.9218745 -1.289063,-7.3124995 -1.101562,-2.097657 -2.859375,-2.847657 -4.417968,-2.847657 -1.429688,0 -3.257813,0.667969 -4.394532,2.8125 -1.195312,2.238282 -1.3125,5.027344 -1.3125,7.3476565 0,1.7109375 0.02344,4.3125 0.960938,6.5742188 1.277344,3.08203122 3.585937,3.50390622 4.746094,3.50390622 1.371093,0 3.46875,-0.57421875 4.6875,-3.41015622 0.902343,-2.0625 1.019531,-4.4765625 1.019531,-6.6679688 z M 20.532136,2.957659e-4 c -1.910157,0 -3.046875,-1.6406249659 -3.46875,-3.9140624659 -0.328125,-1.7695313 -0.328125,-4.3359375 -0.328125,-6.0117188 0,-2.2968745 0,-4.2070315 0.386718,-6.0351565 0.574219,-2.53125 2.25,-3.316406 3.410157,-3.316406 1.230468,0 2.8125,0.808594 3.375,3.257813 0.386718,1.710937 0.421875,3.703125 0.421875,6.0937495 0,1.9453125 0,4.3359375 -0.363282,6.1054688 -0.621093,3.25781247 -2.390625,3.8203124659 -3.433593,3.8203124659 z m 0,0"
       style="fill:#555555;fill-opacity:1;fill-rule:nonzero;stroke:none"
       aria-label="10"
       transform="matrix(1.3333333,0,0,1.3333333,771.00273,539.60507)" /><path
       id="path104"
       d="m 21.304301,-13.48831 c 0,-1.042968 -0.28125,-2.367187 -1.535156,-2.367187 -0.726563,0 -1.546875,0.902344 -1.546875,1.617187 0,0.316407 0.140625,0.539063 0.433593,0.855469 0.539063,0.609375 1.21875,1.582031 1.21875,3.269531 0,1.2890629 -0.796875,3.3281254 -1.371093,4.4414067 -0.996094,1.9804687 -2.648438,3.6679687 -4.511719,3.6679687 -2.261719,0 -3.128906,-1.4414062 -3.515625,-3.4453125 0.386719,-0.9375 1.21875,-3.2695312 1.21875,-4.1953125 0,-0.3984374 -0.140625,-0.7265624 -0.609375,-0.7265624 -0.257813,0 -0.539063,0.152344 -0.714844,0.4335937 -0.5039061,0.7851562 -0.9726561,3.6210937 -0.9374998,4.3828125 -0.6796875,1.3242187 -2.6132813,3.5507812 -4.9101563,3.5507812 -2.4023437,0 -3.046875,-2.1210937 -3.046875,-4.1601562 0,-3.7382813 2.3203125,-6.9960942 2.9765625,-7.8984372 0.3515625,-0.539063 0.609375,-0.890625 0.609375,-0.972657 0,-0.246093 -0.1523437,-0.644531 -0.46875,-0.644531 -0.5742187,0 -0.75,0.46875 -1.0429687,0.902344 -1.828125,2.835937 -3.1171875,6.8085937 -3.1171875,10.2539062 0,2.2265625 0.8203125,4.88671871 3.515625,4.88671871 2.9765625,0 4.8398437,-2.55468751 5.5898437,-3.91406251 0.2929688,2.0039063 1.3710941,3.91406251 3.9843751,3.91406251 2.730469,0 4.453125,-2.40234371 5.742187,-5.30859371 0.925782,-2.0859375 2.039063,-6.5742192 2.039063,-8.5429692 z m 0,0"
       style="fill:#555555;fill-opacity:1;fill-rule:nonzero;stroke:none"
       aria-label="ω"
       transform="matrix(1.3333333,0,0,1.3333333,534.71927,585.89848)" /><path
       id="path105"
       d="m 89.546647,93.458431 h -3.5"
       style="fill:#555555;fill-opacity:1;fill-rule:nonzero;stroke:#555555;stroke-width:0.8;stroke-linecap:butt;stroke-linejoin:round;stroke-miterlimit:10;stroke-dasharray:none;stroke-opacity:1"
       transform="matrix(1.3333333,0,0,-1.3333333,0,604.8)" /><g
       id="g108"
       aria-label="0.0"
       transform="matrix(1.3333333,0,0,1.3333333,62.670943,494.02576)"><path
         id="path106"
         d="m 12.55148,-9.5964653 c 0,-1.8164067 -0.03516,-4.9218747 -1.289062,-7.3124997 -1.101563,-2.097657 -2.8593755,-2.847657 -4.4179692,-2.847657 -1.4296875,0 -3.2578125,0.667969 -4.3945313,2.8125 -1.1953125,2.238282 -1.3125,5.027344 -1.3125,7.3476567 0,1.7109375 0.023437,4.3125 0.9609375,6.5742188 1.2773438,3.08203123 3.5859375,3.50390623 4.7460938,3.50390623 1.3710937,0 3.4687502,-0.57421875 4.6875002,-3.41015623 0.902344,-2.0625 1.019531,-4.4765625 1.019531,-6.6679688 z M 6.8444488,0.00119098 c -1.9101563,0 -3.046875,-1.64062498 -3.46875,-3.91406248 -0.328125,-1.7695313 -0.328125,-4.3359375 -0.328125,-6.0117188 0,-2.2968747 0,-4.2070317 0.3867187,-6.0351567 0.5742188,-2.53125 2.25,-3.316406 3.4101563,-3.316406 1.2304687,0 2.8125,0.808594 3.3750002,3.257813 0.386719,1.710937 0.421875,3.703125 0.421875,6.0937497 0,1.9453125 0,4.3359375 -0.363281,6.1054688 -0.6210942,3.25781248 -2.3906255,3.82031248 -3.4335942,3.82031248 z m 0,0"
         style="fill:#555555;fill-opacity:1;fill-rule:nonzero;stroke:none" /><path
         id="path107"
         d="m 19.201871,-1.4284965 c 0,-0.8671875 -0.714844,-1.4648438 -1.429688,-1.4648438 -0.867187,0 -1.464844,0.7148438 -1.464844,1.4296875 0,0.86718753 0.714844,1.46484378 1.429688,1.46484378 0.867187,0 1.464844,-0.71484375 1.464844,-1.42968748 z m 0,0"
         style="fill:#555555;fill-opacity:1;fill-rule:nonzero;stroke:none" /><path
         id="path108"
         d="m 34.386441,-9.5964653 c 0,-1.8164067 -0.03516,-4.9218747 -1.289063,-7.3124997 -1.101562,-2.097657 -2.859375,-2.847657 -4.417968,-2.847657 -1.429688,0 -3.257813,0.667969 -4.394532,2.8125 -1.195312,2.238282 -1.3125,5.027344 -1.3125,7.3476567 0,1.7109375 0.02344,4.3125 0.960938,6.5742188 1.277344,3.08203123 3.585937,3.50390623 4.746094,3.50390623 1.371093,0 3.46875,-0.57421875 4.6875,-3.41015623 0.902343,-2.0625 1.019531,-4.4765625 1.019531,-6.6679688 z M 28.67941,0.00119098 c -1.910157,0 -3.046875,-1.64062498 -3.46875,-3.91406248 -0.328125,-1.7695313 -0.328125,-4.3359375 -0.328125,-6.0117188 0,-2.2968747 0,-4.2070317 0.386718,-6.0351567 0.574219,-2.53125 2.25,-3.316406 3.410157,-3.316406 1.230468,0 2.8125,0.808594 3.375,3.257813 0.386718,1.710937 0.421875,3.703125 0.421875,6.0937497 0,1.9453125 0,4.3359375 -0.363282,6.1054688 -0.621093,3.25781248 -2.390625,3.82031248 -3.433593,3.82031248 z m 0,0"
         style="fill:#555555;fill-opacity:1;fill-rule:nonzero;stroke:none" /></g><path
       id="path109"
       d="m 89.546647,161.92187 h -3.5"
       style="fill:#555555;fill-opacity:1;fill-rule:nonzero;stroke:#555555;stroke-width:0.8;stroke-linecap:butt;stroke-linejoin:round;stroke-miterlimit:10;stroke-dasharray:none;stroke-opacity:1"
       transform="matrix(1.3333333,0,0,-1.3333333,0,604.8)" /><g
       id="g112"
       aria-label="0.1"
       transform="matrix(1.3333333,0,0,1.3333333,62.670943,402.74117)"><path
         id="path110"
         d="m 12.55148,-9.5968903 c 0,-1.8164067 -0.03516,-4.9218747 -1.289062,-7.3124997 -1.101563,-2.097657 -2.8593755,-2.847657 -4.4179692,-2.847657 -1.4296875,0 -3.2578125,0.667969 -4.3945313,2.8125 -1.1953125,2.238282 -1.3125,5.027344 -1.3125,7.3476567 0,1.7109375 0.023437,4.3125 0.9609375,6.5742188 1.2773438,3.08203124 3.5859375,3.50390624 4.7460938,3.50390624 1.3710937,0 3.4687502,-0.57421875 4.6875002,-3.41015624 0.902344,-2.0625 1.019531,-4.4765625 1.019531,-6.6679688 z M 6.8444488,7.659924e-4 c -1.9101563,0 -3.046875,-1.6406249924 -3.46875,-3.9140624924 -0.328125,-1.7695313 -0.328125,-4.3359375 -0.328125,-6.0117188 0,-2.2968747 0,-4.2070317 0.3867187,-6.0351567 0.5742188,-2.53125 2.25,-3.316406 3.4101563,-3.316406 1.2304687,0 2.8125,0.808594 3.3750002,3.257813 0.386719,1.710937 0.421875,3.703125 0.421875,6.0937497 0,1.9453125 0,4.3359375 -0.363281,6.1054688 C 9.6569488,-0.56173401 7.8874175,7.659924e-4 6.8444488,7.659924e-4 Z m 0,0"
         style="fill:#555555;fill-opacity:1;fill-rule:nonzero;stroke:none" /><path
         id="path111"
         d="m 19.201871,-1.4289215 c 0,-0.8671875 -0.714844,-1.4648438 -1.429688,-1.4648438 -0.867187,0 -1.464844,0.7148438 -1.464844,1.4296875 0,0.86718754 0.714844,1.4648437924 1.429688,1.4648437924 0.867187,0 1.464844,-0.7148437524 1.464844,-1.4296874924 z m 0,0"
         style="fill:#555555;fill-opacity:1;fill-rule:nonzero;stroke:none" /><path
         id="path112"
         d="m 29.780972,-19.089078 c 0,-0.632812 -0.02344,-0.667969 -0.445312,-0.667969 -1.160157,1.40625 -2.929688,1.863282 -4.605469,1.921875 -0.08203,0 -0.234375,0 -0.269531,0.05859 -0.02344,0.05859 -0.02344,0.117188 -0.02344,0.738281 0.925781,0 2.484375,-0.175781 3.679688,-0.890625 v 15.7500005 c 0,1.0429687 -0.07031,1.40624999 -2.636719,1.40624999 H 24.589566 V 7.659924e-4 C 26.019253,-0.03439026 27.519253,-0.05782776 28.948941,-0.05782776 c 1.429687,0 2.929687,0.0234375 4.359375,0.0585937524 V -0.77267151 h -0.890625 c -2.578125,0 -2.636719,-0.32812499 -2.636719,-1.40624999 z m 0,0"
         style="fill:#555555;fill-opacity:1;fill-rule:nonzero;stroke:none" /></g><g
       id="g116"
       aria-label="0.2"
       transform="matrix(1.3333333,0,0,1.3333333,62.670943,311.45658)"><path
         id="path114"
         d="m 12.55148,-9.5973152 c 0,-1.8164058 -0.03516,-4.9218748 -1.289062,-7.3124998 -1.101563,-2.097656 -2.8593755,-2.847656 -4.4179692,-2.847656 -1.4296875,0 -3.2578125,0.667968 -4.3945313,2.8125 -1.1953125,2.238281 -1.3125,5.027343 -1.3125,7.3476558 0,1.7109375 0.023437,4.3125 0.9609375,6.5742187 1.2773438,3.08203126 3.5859375,3.50390626 4.7460938,3.50390626 1.3710937,0 3.4687502,-0.57421875 4.6875002,-3.41015626 0.902344,-2.0625 1.019531,-4.4765625 1.019531,-6.6679687 z M 6.8444488,3.410053e-4 c -1.9101563,0 -3.046875,-1.6406250053 -3.46875,-3.9140625053 -0.328125,-1.7695312 -0.328125,-4.3359375 -0.328125,-6.0117187 0,-2.2968748 0,-4.2070308 0.3867187,-6.0351558 0.5742188,-2.53125 2.25,-3.316407 3.4101563,-3.316407 1.2304687,0 2.8125,0.808594 3.3750002,3.257813 0.386719,1.710937 0.421875,3.703125 0.421875,6.0937498 0,1.9453125 0,4.3359375 -0.363281,6.1054687 C 9.6569488,-0.56215899 7.8874175,3.410053e-4 6.8444488,3.410053e-4 Z m 0,0"
         style="fill:#555555;fill-opacity:1;fill-rule:nonzero;stroke:none" /><path
         id="path115"
         d="m 19.201871,-1.4293465 c 0,-0.8671875 -0.714844,-1.4648437 -1.429688,-1.4648437 -0.867187,0 -1.464844,0.7148437 -1.464844,1.4296875 0,0.86718746 0.714844,1.4648437053 1.429688,1.4648437053 0.867187,0 1.464844,-0.7148437453 1.464844,-1.4296875053 z m 0,0"
         style="fill:#555555;fill-opacity:1;fill-rule:nonzero;stroke:none" /><path
         id="path116"
         d="m 34.292691,-4.6285652 h -0.539063 c -0.292968,2.1210937 -0.527343,2.4726562 -0.65625,2.6601562 -0.140625,0.234375 -2.296875,0.234375 -2.71875,0.234375 H 24.64816 c 1.078125,-1.1601562 3.164062,-3.28125 5.707031,-5.7421875 1.816406,-1.7226562 3.9375,-3.7617185 3.9375,-6.7148435 0,-3.527344 -2.800781,-5.566406 -5.941406,-5.566406 -3.292969,0 -5.285157,2.90625 -5.285157,5.589843 0,1.171875 0.867188,1.3125 1.21875,1.3125 0.304688,0 1.195313,-0.175781 1.195313,-1.21875 0,-0.925781 -0.773438,-1.195312 -1.195313,-1.195312 -0.175781,0 -0.351562,0.02344 -0.480468,0.09375 0.574218,-2.542969 2.308593,-3.796875 4.125,-3.796875 2.601562,0 4.300781,2.0625 4.300781,4.78125 0,2.601562 -1.523438,4.8398435 -3.222656,6.785156 l -5.941407,6.71484376 V 3.410053e-4 h 10.511719 z m 0,0"
         style="fill:#555555;fill-opacity:1;fill-rule:nonzero;stroke:none" /></g><g
       id="g120"
       aria-label="0.3"
       transform="matrix(1.3333333,0,0,1.3333333,62.670943,220.17199)"><path
         id="path118"
         d="m 12.55148,-9.5977402 c 0,-1.8164058 -0.03516,-4.9218748 -1.289062,-7.3124998 -1.101563,-2.097656 -2.8593755,-2.847656 -4.4179692,-2.847656 -1.4296875,0 -3.2578125,0.667968 -4.3945313,2.8125 -1.1953125,2.238281 -1.3125,5.027343 -1.3125,7.3476558 0,1.7109375 0.023437,4.3125 0.9609375,6.5742187 1.2773438,3.08203127 3.5859375,3.50390627 4.7460938,3.50390627 1.3710937,0 3.4687502,-0.57421875 4.6875002,-3.41015627 0.902344,-2.0625 1.019531,-4.4765625 1.019531,-6.6679687 z M 6.8444488,-8.39819e-5 c -1.9101563,0 -3.046875,-1.6406250181 -3.46875,-3.9140625181 -0.328125,-1.7695312 -0.328125,-4.3359375 -0.328125,-6.0117187 0,-2.2968748 0,-4.2070308 0.3867187,-6.0351558 0.5742188,-2.53125 2.25,-3.316407 3.4101563,-3.316407 1.2304687,0 2.8125,0.808594 3.3750002,3.257813 0.386719,1.710937 0.421875,3.703125 0.421875,6.0937498 0,1.9453125 0,4.3359375 -0.363281,6.1054687 C 9.6569488,-0.56258398 7.8874175,-8.39819e-5 6.8444488,-8.39819e-5 Z m 0,0"
         style="fill:#555555;fill-opacity:1;fill-rule:nonzero;stroke:none" /><path
         id="path119"
         d="m 19.201871,-1.4297715 c 0,-0.8671875 -0.714844,-1.4648437 -1.429688,-1.4648437 -0.867187,0 -1.464844,0.7148437 -1.464844,1.4296875 0,0.86718747 0.714844,1.4648437181 1.429688,1.4648437181 0.867187,0 1.464844,-0.7148437481 1.464844,-1.4296875181 z m 0,0"
         style="fill:#555555;fill-opacity:1;fill-rule:nonzero;stroke:none" /><path
         id="path120"
         d="m 28.445035,-10.16024 c 2.660156,0 3.820312,2.2968748 3.820312,4.957031 0,3.5859375 -1.910156,4.96875002 -3.644531,4.96875002 -1.582031,0 -4.160156,-0.78515622 -4.957031,-3.08203122 0.140625,0.058594 0.292968,0.058594 0.445312,0.058594 0.714844,0 1.253906,-0.4804687 1.253906,-1.2539062 0,-0.8671875 -0.65625,-1.2539063 -1.253906,-1.2539063 -0.515625,0 -1.289062,0.234375 -1.289062,1.3476563 0,2.7421875 2.695312,4.89843747 5.859375,4.89843747 3.316406,0 5.859375,-2.60156247 5.859375,-5.64843747 0,-2.90625 -2.390625,-4.9921876 -5.226563,-5.3203126 2.261719,-0.480469 4.441406,-2.507813 4.441406,-5.226563 0,-2.332031 -2.355468,-4.042968 -5.039062,-4.042968 -2.730469,0 -5.121094,1.675781 -5.121094,4.066406 0,1.042969 0.785156,1.230469 1.171875,1.230469 0.621094,0 1.160156,-0.386719 1.160156,-1.171875 0,-0.773438 -0.539062,-1.160157 -1.160156,-1.160157 -0.117187,0 -0.269531,0 -0.386719,0.05859 0.867188,-1.96875 3.222657,-2.332031 4.265625,-2.332031 1.054688,0 3.023438,0.503906 3.023438,3.375 0,0.84375 -0.117188,2.332031 -1.136719,3.644531 -0.890625,1.171875 -1.910156,1.230469 -2.894531,1.324219 -0.152344,0 -0.84375,0.05859 -0.960938,0.05859 -0.210937,0.02344 -0.328125,0.05859 -0.328125,0.269531 0,0.199219 0.03516,0.234375 0.632813,0.234375 z m 0,0"
         style="fill:#555555;fill-opacity:1;fill-rule:nonzero;stroke:none" /></g><g
       id="g124"
       aria-label="0.4"
       transform="matrix(1.3333333,0,0,1.3333333,62.670943,128.8874)"><path
         id="path122"
         d="m 12.55148,-9.5981652 c 0,-1.8164058 -0.03516,-4.9218748 -1.289062,-7.3124998 -1.101563,-2.097656 -2.8593755,-2.847656 -4.4179692,-2.847656 -1.4296875,0 -3.2578125,0.667968 -4.3945313,2.8125 -1.1953125,2.238281 -1.3125,5.027343 -1.3125,7.3476558 0,1.7109375 0.023437,4.3125 0.9609375,6.5742187 1.2773438,3.08203128 3.5859375,3.50390628 4.7460938,3.50390628 1.3710937,0 3.4687502,-0.57421875 4.6875002,-3.41015628 0.902344,-2.0625 1.019531,-4.4765625 1.019531,-6.6679687 z M 6.8444488,-5.08969e-4 c -1.9101563,0 -3.046875,-1.640625031 -3.46875,-3.914062531 -0.328125,-1.7695312 -0.328125,-4.3359375 -0.328125,-6.0117187 0,-2.2968748 0,-4.2070308 0.3867187,-6.0351558 0.5742188,-2.53125 2.25,-3.316407 3.4101563,-3.316407 1.2304687,0 2.8125,0.808594 3.3750002,3.257813 0.386719,1.710937 0.421875,3.703125 0.421875,6.0937498 0,1.9453125 0,4.3359375 -0.363281,6.1054687 -0.6210942,3.25781253 -2.3906255,3.820312531 -3.4335942,3.820312531 z m 0,0"
         style="fill:#555555;fill-opacity:1;fill-rule:nonzero;stroke:none" /><path
         id="path123"
         d="m 19.201871,-1.4301965 c 0,-0.8671875 -0.714844,-1.4648437 -1.429688,-1.4648437 -0.867187,0 -1.464844,0.7148437 -1.464844,1.4296875 0,0.86718748 0.714844,1.464843731 1.429688,1.464843731 0.867187,0 1.464844,-0.714843751 1.464844,-1.429687531 z m 0,0"
         style="fill:#555555;fill-opacity:1;fill-rule:nonzero;stroke:none" /><path
         id="path124"
         d="m 31.878628,-19.336446 c 0,-0.621094 -0.03516,-0.65625 -0.574218,-0.65625 l -8.871094,14.132812 v 0.7734375 h 7.710937 v 2.9296875 c 0,1.078125 -0.05859,1.38281253 -2.15625,1.38281253 h -0.5625 v 0.773437501 c 0.949219,-0.058593751 2.566407,-0.058593751 3.585938,-0.058593751 1.019531,0 2.625,0 3.585937,0.058593751 V -0.77394647 H 34.02316 c -2.085938,0 -2.144532,-0.30468753 -2.144532,-1.38281253 v -2.9296875 h 3.046875 V -5.859884 h -3.046875 z m -1.640625,1.96875 v 11.507812 h -7.207031 z m 0,0"
         style="fill:#555555;fill-opacity:1;fill-rule:nonzero;stroke:none" /></g><g
       id="g128"
       aria-label="0.5"
       transform="matrix(1.3333333,0,0,1.3333333,62.670943,37.602808)"><path
         id="path126"
         d="m 12.55148,-9.5985902 c 0,-1.8164058 -0.03516,-4.9218748 -1.289062,-7.3124998 -1.101563,-2.097656 -2.8593755,-2.847656 -4.4179692,-2.847656 -1.4296875,0 -3.2578125,0.667968 -4.3945313,2.8125 -1.1953125,2.238281 -1.3125,5.027343 -1.3125,7.3476558 0,1.7109375 0.023437,4.3125 0.9609375,6.5742187 1.2773438,3.08203129 3.5859375,3.50390629 4.7460938,3.50390629 1.3710937,0 3.4687502,-0.57421875 4.6875002,-3.41015629 0.902344,-2.0625 1.019531,-4.4765625 1.019531,-6.6679687 z M 6.8444488,-9.339561e-4 c -1.9101563,0 -3.046875,-1.6406250439 -3.46875,-3.9140625439 -0.328125,-1.7695312 -0.328125,-4.3359375 -0.328125,-6.0117187 0,-2.2968748 0,-4.2070308 0.3867187,-6.0351558 0.5742188,-2.53125 2.25,-3.316407 3.4101563,-3.316407 1.2304687,0 2.8125,0.808594 3.3750002,3.257813 0.386719,1.710937 0.421875,3.703125 0.421875,6.0937498 0,1.9453125 0,4.3359375 -0.363281,6.1054687 -0.6210942,3.25781254 -2.3906255,3.8203125439 -3.4335942,3.8203125439 z m 0,0"
         style="fill:#555555;fill-opacity:1;fill-rule:nonzero;stroke:none" /><path
         id="path127"
         d="m 19.201871,-1.4306215 c 0,-0.8671875 -0.714844,-1.4648437 -1.429688,-1.4648437 -0.867187,0 -1.464844,0.7148437 -1.464844,1.4296875 0,0.86718749 0.714844,1.4648437439 1.429688,1.4648437439 0.867187,0 1.464844,-0.7148437539 1.464844,-1.4296875439 z m 0,0"
         style="fill:#555555;fill-opacity:1;fill-rule:nonzero;stroke:none" /><path
         id="path128"
         d="m 25.245816,-17.485309 c 0.292969,0.117188 1.523437,0.515625 2.777344,0.515625 2.777343,0 4.300781,-1.5 5.167968,-2.367187 0,-0.234375 0,-0.386719 -0.175781,-0.386719 -0.03516,0 -0.09375,0 -0.328125,0.117187 -1.054687,0.445313 -2.273437,0.808594 -3.773437,0.808594 -0.890625,0 -2.238282,-0.117187 -3.703125,-0.773437 -0.328125,-0.152344 -0.386719,-0.152344 -0.421875,-0.152344 -0.140625,0 -0.175782,0.03516 -0.175782,0.632812 v 8.660157 c 0,0.539062 0,0.6914058 0.304688,0.6914058 0.140625,0 0.210937,-0.058594 0.351562,-0.2695308 0.960938,-1.347657 2.273438,-1.910157 3.773438,-1.910157 1.042969,0 3.28125,0.65625 3.28125,5.7656253 0,0.9492187 0,2.6835937 -0.890625,4.0546875 -0.75,1.23046874 -1.921875,1.86328124 -3.199219,1.86328124 -1.980469,0 -3.972656,-1.38281254 -4.511719,-3.67968754 0.117188,0.023437 0.351563,0.09375 0.46875,0.09375 0.398438,0 1.136719,-0.2109375 1.136719,-1.1367187 0,-0.8085938 -0.5625,-1.1367188 -1.136719,-1.1367188 -0.679687,0 -1.125,0.4101563 -1.125,1.2539063 0,2.6015625 2.0625,5.32031249 5.226563,5.32031249 3.070312,0 6,-2.66015629 6,-6.51562499 0,-3.5859375 -2.332031,-6.3632808 -5.226563,-6.3632808 -1.523437,0 -2.8125,0.5625 -3.820312,1.640625 z m 0,0"
         style="fill:#555555;fill-opacity:1;fill-rule:nonzero;stroke:none" /></g><path
       id="path129"
       d="m 6.0946464,-3.9848084 c -1.2539062,2.1210937 -2.4726562,2.8359375 -4.1953125,2.9414062 -0.3867187,0.035156 -0.6796875,0.035156 -0.6796875,0.67968752 0,0.22265625 0.1757813,0.3632812468 0.4335938,0.3632812468 0.6445312,0 2.2617187,-0.0703124968 2.90625,-0.0703124968 1.0429687,0 2.1796875,0.0703124968 3.1875,0.0703124968 0.2226562,0 0.6445312,0 0.6445312,-0.6796874968 0,-0.32812497 -0.28125,-0.36328127 -0.5039062,-0.36328127 -0.8203125,-0.070312 -1.5,-0.3515625 -1.5,-1.21875 0,-0.5039062 0.2109375,-0.890625 0.6796875,-1.6875 l 2.7304687,-4.5117187 h 9.1406246 c 0.03516,0.3164062 0.03516,0.609375 0.07031,0.9257812 0.117187,0.9375 0.539062,4.6640625 0.539062,5.34375 0,1.078125 -1.828125,1.1484375 -2.402343,1.1484375 -0.398438,0 -0.785157,0 -0.785157,0.64453127 0,0.3984374968 0.316407,0.3984374968 0.539063,0.3984374968 0.609375,0 1.324219,-0.0703124968 1.933594,-0.0703124968 h 2.050781 c 2.179687,0 3.761719,0.0703124968 3.796875,0.0703124968 0.246094,0 0.644531,0 0.644531,-0.6796874968 0,-0.36328127 -0.316406,-0.36328127 -0.855469,-0.36328127 -1.980468,0 -2.015625,-0.3164062 -2.121093,-1.3945312 L 20.157146,-24.820746 c -0.07031,-0.714844 -0.210937,-0.796875 -0.609375,-0.796875 -0.351562,0 -0.574218,0.08203 -0.890625,0.609375 z m 4.3124996,-5.5195313 7.207032,-12.0585933 1.21875,12.0585933 z m 0,0"
       style="fill:#555555;fill-opacity:1;fill-rule:nonzero;stroke:none"
       aria-label="A"
       transform="matrix(0,-1.3333333,1.3333333,0,45.422453,306.02073)" /><path
       id="path130"
       d="m 10.981501,8.7534728 c 0,-0.035156 0,-0.1054687 -0.117188,-0.2109375 -1.6406247,-1.6875 -6.0585935,-6.28125 -6.0585935,-17.4726562 0,-11.1914061 4.3476563,-15.7500001 6.1054685,-17.5429691 0,-0.03516 0.07031,-0.105468 0.07031,-0.210937 0,-0.117188 -0.117188,-0.1875 -0.257813,-0.1875 -0.386718,0 -3.4453122,2.660156 -5.2031247,6.609375 -1.7929688,3.972656 -2.296875,7.851562 -2.296875,11.2968748 0,2.578125 0.2578125,6.9609375 2.4140625,11.578125 1.7226562,3.7382813 4.6640622,6.3515625 5.0859372,6.3515625 0.1875,0 0.257813,-0.070312 0.257813,-0.2109375 z m 0,0"
       style="fill:#555555;fill-opacity:1;fill-rule:nonzero;stroke:none"
       aria-label="("
       transform="matrix(0,-1.3333333,1.3333333,0,45.422453,270.91934)" /><path
       id="path131"
       d="m 21.304841,-13.488715 c 0,-1.042968 -0.28125,-2.367187 -1.535156,-2.367187 -0.726563,0 -1.546875,0.902344 -1.546875,1.617187 0,0.316407 0.140625,0.539063 0.433593,0.855469 0.539063,0.609375 1.21875,1.582031 1.21875,3.269531 0,1.2890628 -0.796875,3.3281253 -1.371093,4.4414066 -0.996094,1.9804687 -2.648438,3.6679687 -4.511719,3.6679687 -2.261719,0 -3.128906,-1.4414062 -3.515625,-3.4453125 0.386719,-0.9375 1.21875,-3.2695312 1.21875,-4.1953125 0,-0.3984373 -0.140625,-0.7265623 -0.609375,-0.7265623 -0.257813,0 -0.539063,0.152344 -0.714844,0.4335936 -0.5039061,0.7851562 -0.9726561,3.6210937 -0.9374999,4.3828125 -0.6796875,1.3242187 -2.6132812,3.5507812 -4.9101562,3.5507812 -2.4023438,0 -3.046875,-2.1210937 -3.046875,-4.1601562 0,-3.7382813 2.3203125,-6.9960941 2.9765625,-7.8984371 0.3515625,-0.539063 0.609375,-0.890625 0.609375,-0.972657 0,-0.246093 -0.1523438,-0.644531 -0.46875,-0.644531 -0.5742188,0 -0.75,0.46875 -1.0429688,0.902344 -1.828125,2.835937 -3.11718749,6.8085936 -3.11718749,10.2539061 0,2.2265625 0.82031249,4.88671872 3.51562499,4.88671872 2.9765625,0 4.8398438,-2.55468752 5.5898438,-3.91406252 0.2929687,2.0039063 1.3710941,3.91406252 3.9843751,3.91406252 2.730469,0 4.453125,-2.40234372 5.742187,-5.30859372 0.925782,-2.0859375 2.039063,-6.5742191 2.039063,-8.5429691 z m 0,0"
       style="fill:#555555;fill-opacity:1;fill-rule:nonzero;stroke:none"
       aria-label="ω"
       transform="matrix(0,-1.3333333,1.3333333,0,45.422453,253.98458)" /><path
       id="path132"
       d="m 9.4324726,-8.9301209 c 0,-2.5898441 -0.2460938,-6.9609371 -2.4023438,-11.5898441 -1.7226562,-3.726562 -4.6640625,-6.351562 -5.0976562,-6.351562 -0.1054688,0 -0.2460938,0.03516 -0.2460938,0.222656 0,0.07031 0.035156,0.105469 0.070312,0.175781 1.7226563,1.792969 6.09375,6.351563 6.09375,17.5078128 0,11.1914063 -4.3359375,15.75 -6.09375,17.5429688 -0.035156,0.070312 -0.070312,0.1054687 -0.070312,0.1757812 0,0.1757813 0.140625,0.2109375 0.2460938,0.2109375 0.3984375,0 3.4453125,-2.6484375 5.203125,-6.5976562 1.7929687,-3.984375 2.296875,-7.8515625 2.296875,-11.296875 z m 0,0"
       style="fill:#555555;fill-opacity:1;fill-rule:nonzero;stroke:none"
       aria-label=")"
       transform="matrix(0,-1.3333333,1.3333333,0,45.422453,223.11179)" /><path
       id="path133"
       d="m 107.79721,95.467433 37.79703,0.605858 28.79774,0.665814 23.39816,0.746948 19.79845,0.849802 16.19873,0.911258 14.39887,1.041077 12.59901,1.15772 10.79915,1.24126 8.99929,1.26689 7.19944,1.20875 7.19943,1.42708 7.19944,1.7004 5.39957,1.49773 5.39958,1.73184 5.39957,2.01616 3.59972,1.53299 3.59972,1.71073 3.59972,1.91618 3.59971,2.15469 3.59972,2.43293 3.59972,2.7591 3.59971,3.14337 3.59972,3.59843 3.59972,4.1401 3.59972,4.78817 1.79986,2.67698 1.79985,2.89044 1.79986,3.12521 1.79986,3.38364 1.79986,3.66844 1.79986,3.98259 1.79986,4.32937 1.79986,4.71243 1.79985,5.13576 1.79986,5.60363 1.79986,6.12057 1.79986,6.69117 1.79986,7.31978 1.79986,8.01018 1.79986,8.76486 1.79985,9.58419 1.79986,10.46524 1.79986,11.40028 1.79986,12.37469 1.79986,13.36464 1.79986,14.33421 3.59972,31.22302 7.19943,65.38177 1.79986,14.20452 1.79986,12.04202 1.79986,9.19862 1.79986,5.77912 1.79985,1.97201 1.79986,-1.97201 1.79986,-5.77912 1.79986,-9.19862 1.79986,-12.04202 1.79986,-14.20452 3.59971,-32.13917 5.39958,-49.23323 3.59972,-29.5666 1.79986,-13.36464 1.79985,-12.37469 1.79986,-11.40028 1.79986,-10.46524 1.79986,-9.58419 1.79986,-8.76486 1.79986,-8.01018 1.79986,-7.31978 1.79985,-6.69117 1.79986,-6.12057 1.79986,-5.60363 1.79986,-5.13576 1.79986,-4.71243 1.79986,-4.32937 1.79986,-3.98259 1.79986,-3.66844 1.79985,-3.38364 1.79986,-3.12521 1.79986,-2.89044 3.59972,-5.15963 3.59972,-4.44941 3.59971,-3.8573 3.59972,-3.36115 3.59972,-2.94325 3.59972,-2.58944 3.59971,-2.28837 3.59972,-2.03092 3.59972,-1.80968 3.59971,-1.6187 5.39958,-2.12436 5.39958,-1.82043 5.39957,-1.57089 5.39958,-1.3643 7.19943,-1.55588 7.19944,-1.31196 8.99929,-1.36887 8.99929,-1.1319 10.79915,-1.11676 12.59901,-1.049157 14.39887,-0.950312 16.19873,-0.837698 19.79845,-0.786699 23.39816,-0.696371 28.79774,-0.625068 32.39745,-0.503752 v 0"
       style="fill:none;stroke:#e24a33;stroke-width:6;stroke-linecap:square;stroke-linejoin:round;stroke-miterlimit:10;stroke-dasharray:none;stroke-opacity:1"
       transform="matrix(1.3333333,0,0,-1.3333333,0,604.8)" /><path
       id="path138"
       d="M 89.546647,76.651689 V 446.4"
       style="fill:none;stroke:#d3d3d3;stroke-width:5;stroke-linecap:square;stroke-linejoin:miter;stroke-miterlimit:10;stroke-dasharray:none;stroke-opacity:1"
       transform="matrix(1.3333333,0,0,-1.3333333,0,604.8)" /><path
       id="path139"
       d="M 734.4,76.651689 V 446.4"
       style="fill:none;stroke:#d3d3d3;stroke-width:5;stroke-linecap:square;stroke-linejoin:miter;stroke-miterlimit:10;stroke-dasharray:none;stroke-opacity:1"
       transform="matrix(1.3333333,0,0,-1.3333333,0,604.8)" /><path
       id="path140"
       d="M 89.546647,76.651689 H 734.4"
       style="fill:none;stroke:#d3d3d3;stroke-width:5;stroke-linecap:square;stroke-linejoin:miter;stroke-miterlimit:10;stroke-dasharray:none;stroke-opacity:1"
       transform="matrix(1.3333333,0,0,-1.3333333,0,604.8)" /><path
       id="path141"
       d="M 89.546647,446.4 H 734.4"
       style="fill:none;stroke:#d3d3d3;stroke-width:5;stroke-linecap:square;stroke-linejoin:miter;stroke-miterlimit:10;stroke-dasharray:none;stroke-opacity:1"
       transform="matrix(1.3333333,0,0,-1.3333333,0,604.8)" /><g
       ns2:text="$U_b=0$"
       transform="matrix(10.67622,0,0,10.67622,-1276.0273,-991.95701)"
       id="g459"
       style="fill:#404040;fill-opacity:1;stroke:#404040;stroke-width:0.354014;stroke-dasharray:none;stroke-opacity:1"><g
   fill="#000000"
   fill-opacity="1"
   id="g455"
   style="fill:#404040;fill-opacity:1;stroke:#404040;stroke-width:0.354014;stroke-dasharray:none;stroke-opacity:1">
<path
   d="M 6.25,-6.875 H 5.3125 l -0.640625,4.578125 c -0.15625,1.0625 -0.71875,1.625 -1.71875,1.625 C 2,-0.671875 1.625,-1.171875 1.78125,-2.25 l 0.640625,-4.625 h -0.9375 l -0.65625,4.640625 C 0.640625,-0.875 1.34375,0.125 2.90625,0.125 c 1.515625,0 2.5,-0.9375 2.6875,-2.296875 z m 0,0"
   transform="translate(178.585,110.99)"
   id="path455"
   style="fill:#404040;fill-opacity:1;stroke:#404040;stroke-width:0.354014;stroke-dasharray:none;stroke-opacity:1" />
</g>
<g
   fill="#000000"
   fill-opacity="1"
   id="g456"
   style="fill:#404040;fill-opacity:1;stroke:#404040;stroke-width:0.354014;stroke-dasharray:none;stroke-opacity:1">
<path
   d="m 2.453125,-3.34375 c 0.375,0 0.65625,0.234375 0.65625,0.90625 0,0.859375 -0.359375,2 -1.296875,2 -0.265625,0 -0.421875,-0.03125 -0.671875,-0.109375 l 0.3125,-2.25 c 0.28125,-0.28125 0.578125,-0.546875 1,-0.546875 z M 2.625,-3.859375 c -0.40625,0 -0.75,0.15625 -1.078125,0.453125 L 1.8125,-5.375 1.15625,-5.296875 0.4375,-0.171875 C 0.96875,0.015625 1.328125,0.09375 1.765625,0.09375 3.25,0.09375 3.78125,-1.3125 3.78125,-2.375 c 0,-0.953125 -0.453125,-1.484375 -1.15625,-1.484375 z m 0,0"
   transform="translate(185.12,114.478)"
   id="path456"
   style="fill:#404040;fill-opacity:1;stroke:#404040;stroke-width:0.354014;stroke-dasharray:none;stroke-opacity:1" />
</g>
<g
   fill="#000000"
   fill-opacity="1"
   id="g457"
   style="fill:#404040;fill-opacity:1;stroke:#404040;stroke-width:0.354014;stroke-dasharray:none;stroke-opacity:1">
<path
   d="M 0.625,-1.453125 H 4.359375 V -2.21875 H 0.625 Z m 0,-1.921875 h 3.734375 v -0.75 H 0.625 Z m 0,0"
   transform="translate(192.539,110.99)"
   id="path457"
   style="fill:#404040;fill-opacity:1;stroke:#404040;stroke-width:0.354014;stroke-dasharray:none;stroke-opacity:1" />
</g>
<g
   fill="#000000"
   fill-opacity="1"
   id="g458"
   style="fill:#404040;fill-opacity:1;stroke:#404040;stroke-width:0.354014;stroke-dasharray:none;stroke-opacity:1">
<path
   d="M 2.796875,-6.265625 C 3.625,-6.265625 4.0625,-5.5 4.0625,-3.4375 c 0,2.078125 -0.4375,2.828125 -1.265625,2.828125 -0.84375,0 -1.28125,-0.75 -1.28125,-2.828125 0,-2.0625 0.4375,-2.828125 1.28125,-2.828125 z m 0,-0.71875 c -1.5,0 -2.234375,1.21875 -2.234375,3.546875 0,2.328125 0.734375,3.5625 2.234375,3.5625 1.484375,0 2.234375,-1.234375 2.234375,-3.5625 0,-2.3125 -0.75,-3.546875 -2.234375,-3.546875 z m 0,0"
   transform="translate(200.27994,110.99)"
   id="path458"
   style="fill:#404040;fill-opacity:1;stroke:#404040;stroke-width:0.354014;stroke-dasharray:none;stroke-opacity:1" />
</g>
</g></g></svg>
