<?xml version="1.0" encoding="UTF-8" standalone="no"?>
<!-- Created with Inkscape (http://www.inkscape.org/) -->

<svg
   width="309.20331mm"
   height="53.293053mm"
   viewBox="0 0 309.20331 53.293052"
   version="1.1"
   id="svg1"
   inkscape:version="1.4.3 (0d15f75042, 2025-12-25)"
   sodipodi:docname="isingAuxiliary.svg"
   xmlns:inkscape="http://www.inkscape.org/namespaces/inkscape"
   xmlns:sodipodi="http://sodipodi.sourceforge.net/DTD/sodipodi-0.dtd"
   xmlns="http://www.w3.org/2000/svg"
   xmlns:svg="http://www.w3.org/2000/svg">
  <sodipodi:namedview
     id="namedview1"
     pagecolor="#ffffff"
     bordercolor="#000000"
     borderopacity="0.25"
     inkscape:showpageshadow="2"
     inkscape:pageopacity="0.0"
     inkscape:pagecheckerboard="0"
     inkscape:deskcolor="#d1d1d1"
     inkscape:document-units="mm"
     showgrid="false"
     inkscape:zoom="0.48235956"
     inkscape:cx="565.96784"
     inkscape:cy="567.00441"
     inkscape:window-width="1920"
     inkscape:window-height="1131"
     inkscape:window-x="0"
     inkscape:window-y="0"
     inkscape:window-maximized="1"
     inkscape:current-layer="layer1" />
  <defs
     id="defs1">
    <inkscape:path-effect
       effect="spiro"
       id="path-effect7"
       is_visible="true"
       lpeversion="1" />
    <inkscape:path-effect
       effect="spiro"
       id="path-effect32"
       is_visible="true"
       lpeversion="1" />
    <inkscape:path-effect
       effect="spiro"
       id="path-effect30"
       is_visible="true"
       lpeversion="1" />
    <inkscape:path-effect
       effect="spiro"
       id="path-effect28"
       is_visible="true"
       lpeversion="1" />
    <inkscape:path-effect
       effect="spiro"
       id="path-effect26"
       is_visible="true"
       lpeversion="1" />
    <inkscape:path-effect
       effect="spiro"
       id="path-effect24"
       is_visible="true"
       lpeversion="1" />
    <inkscape:path-effect
       effect="spiro"
       id="path-effect22"
       is_visible="true"
       lpeversion="1" />
    <inkscape:path-effect
       effect="spiro"
       id="path-effect20"
       is_visible="true"
       lpeversion="1" />
    <rect
       x="88.374474"
       y="115.72847"
       width="168.33234"
       height="135.71794"
       id="rect12" />
    <inkscape:path-effect
       effect="spiro"
       id="path-effect12"
       is_visible="true"
       lpeversion="1" />
    <inkscape:path-effect
       effect="spiro"
       id="path-effect11"
       is_visible="true"
       lpeversion="1" />
    <rect
       x="-89.423927"
       y="469.13168"
       width="599.82819"
       height="105.93296"
       id="rect10" />
    <inkscape:path-effect
       effect="spiro"
       id="path-effect10"
       is_visible="true"
       lpeversion="1" />
    <inkscape:path-effect
       effect="spiro"
       id="path-effect8"
       is_visible="true"
       lpeversion="1" />
    <inkscape:path-effect
       effect="spiro"
       id="path-effect6"
       is_visible="true"
       lpeversion="1" />
    <inkscape:path-effect
       effect="spiro"
       id="path-effect4"
       is_visible="true"
       lpeversion="1" />
    <marker
       style="overflow:visible"
       id="RoundedArrow"
       refX="0"
       refY="0"
       orient="auto-start-reverse"
       inkscape:stockid="Rounded arrow"
       markerWidth="0.40000001"
       markerHeight="0.40000001"
       viewBox="0 0 1 1"
       inkscape:isstock="true"
       inkscape:collect="always"
       preserveAspectRatio="xMidYMid">
      <path
         transform="scale(0.7)"
         d="m -0.21114562,-4.1055728 6.42229122,3.21114561 a 1,1 90 0 1 0,1.78885438 L -0.21114562,4.1055728 A 1.236068,1.236068 31.717474 0 1 -2,3 v -6 a 1.236068,1.236068 148.28253 0 1 1.78885438,-1.1055728 z"
         style="fill:context-stroke;fill-rule:evenodd;stroke:none"
         id="path8" />
    </marker>
    <inkscape:path-effect
       effect="spiro"
       id="path-effect2"
       is_visible="true"
       lpeversion="1" />
    <inkscape:path-effect
       effect="spiro"
       id="path-effect1"
       is_visible="true"
       lpeversion="1" />
    <rect
       x="-89.423927"
       y="469.13168"
       width="599.82819"
       height="105.93296"
       id="rect18" />
    <rect
       x="88.374474"
       y="115.72847"
       width="168.33234"
       height="135.71794"
       id="rect19" />
    <inkscape:path-effect
       effect="spiro"
       id="path-effect20-3"
       is_visible="true"
       lpeversion="1" />
    <marker
       style="overflow:visible"
       id="RoundedArrow-3"
       refX="0"
       refY="0"
       orient="auto-start-reverse"
       inkscape:stockid="Rounded arrow"
       markerWidth="0.40000001"
       markerHeight="0.40000001"
       viewBox="0 0 1 1"
       inkscape:isstock="true"
       inkscape:collect="always"
       preserveAspectRatio="xMidYMid">
      <path
         transform="scale(0.7)"
         d="m -0.21114562,-4.1055728 6.42229122,3.21114561 a 1,1 90 0 1 0,1.78885438 L -0.21114562,4.1055728 A 1.236068,1.236068 31.717474 0 1 -2,3 v -6 a 1.236068,1.236068 148.28253 0 1 1.78885438,-1.1055728 z"
         style="fill:context-stroke;fill-rule:evenodd;stroke:none"
         id="path8-8" />
    </marker>
    <inkscape:path-effect
       effect="spiro"
       id="path-effect33"
       is_visible="true"
       lpeversion="1" />
    <inkscape:path-effect
       effect="spiro"
       id="path-effect35"
       is_visible="true"
       lpeversion="1" />
    <inkscape:path-effect
       effect="spiro"
       id="path-effect37"
       is_visible="true"
       lpeversion="1" />
    <inkscape:path-effect
       effect="spiro"
       id="path-effect24-8"
       is_visible="true"
       lpeversion="1" />
  </defs>
  <g
     inkscape:label="Layer 1"
     inkscape:groupmode="layer"
     id="layer1"
     transform="translate(30.35159,-64.802098)">
    <path
       style="opacity:1;fill:none;fill-opacity:1;stroke:#404040;stroke-width:3;stroke-dasharray:6, 3;stroke-dashoffset:0;stroke-opacity:1"
       d="M -30.09688,92.275056 H 103.18931"
       id="path1"
       inkscape:path-effect="#path-effect1"
       inkscape:original-d="m -30.09688,92.275056 c 44.428728,0 88.857459,0 133.28619,0"
       inkscape:export-filename="isingAux1.svg"
       inkscape:export-xdpi="96"
       inkscape:export-ydpi="96" />
    <path
       style="opacity:1;fill:none;fill-opacity:1;stroke:#005080;stroke-width:5;stroke-dasharray:none;stroke-dashoffset:0;stroke-opacity:1;marker-end:url(#RoundedArrow)"
       d="m -24.193899,74.021348 10.538783,18.253708"
       id="path2"
       inkscape:path-effect="#path-effect2"
       inkscape:original-d="m -24.193899,74.021348 c 4.428385,7.670187 7.483584,12.961948 10.538783,18.253708"
       transform="rotate(180,-19.285977,88.150735)" />
    <path
       style="opacity:1;fill:none;fill-opacity:1;stroke:#005080;stroke-width:5;stroke-dasharray:none;stroke-dashoffset:0;stroke-opacity:1;marker-end:url(#RoundedArrow)"
       d="m -24.193899,74.021348 10.538783,18.253708"
       id="path3"
       inkscape:path-effect="#path-effect4"
       inkscape:original-d="m -24.193899,74.021348 c 4.428385,7.670187 7.483584,12.961948 10.538783,18.253708"
       transform="matrix(-1,0,0,1,-12.113623,2.8666697)" />
    <path
       style="opacity:1;fill:none;fill-opacity:1;stroke:#d03020;stroke-width:5;stroke-dasharray:none;stroke-dashoffset:0;stroke-opacity:1;marker-end:url(#RoundedArrow)"
       d="m -24.193899,74.021348 10.538783,18.253708"
       id="path4"
       inkscape:path-effect="#path-effect6"
       inkscape:original-d="m -24.193899,74.021348 c 4.428385,7.670187 7.483584,12.961948 10.538783,18.253708"
       transform="matrix(-1,0,0,1,24.928044,2.8666697)" />
    <path
       style="opacity:1;fill:none;fill-opacity:1;stroke:#005080;stroke-width:5;stroke-dasharray:none;stroke-dashoffset:0;stroke-opacity:1;marker-end:url(#RoundedArrow)"
       d="m -24.193899,74.021348 10.538783,18.253708"
       id="path9"
       inkscape:path-effect="#path-effect10"
       inkscape:original-d="m -24.193899,74.021348 c 4.428385,7.670187 7.483584,12.961948 10.538783,18.253708"
       transform="rotate(180,38.922357,88.150735)" />
    <path
       style="opacity:1;fill:none;fill-opacity:1;stroke:#505050;stroke-width:3;stroke-dasharray:none;stroke-dashoffset:0;stroke-opacity:1;marker-start:url(#RoundedArrow);marker-end:url(#RoundedArrow)"
       d="m -16.980085,74.87939 c 4.852987,-3.961583 11.3027197,-5.90674 17.5368091,-5.288878 4.6618389,0.462036 9.1756001,2.326415 12.8046539,5.288878"
       id="path11"
       inkscape:path-effect="#path-effect12"
       inkscape:original-d="m -16.980085,74.87939 c 5.845603,-1.948535 11.9695681,-3.340344 17.5368091,-5.288878 5.567241,-1.948535 8.3508613,3.340343 12.8046539,5.288878"
       transform="translate(30.1625,-3.1749999)" />
    <text
       xml:space="preserve"
       transform="matrix(0.49203158,0,0,0.49203158,-17.922902,11.33419)"
       id="text12"
       style="font-style:normal;font-variant:normal;font-weight:500;font-stretch:normal;font-size:42.6667px;line-height:1;font-family:'Stack Sans Headline';-inkscape-font-specification:'Stack Sans Headline, Medium';font-variant-ligatures:normal;font-variant-caps:normal;font-variant-numeric:normal;font-variant-east-asian:normal;writing-mode:lr-tb;direction:ltr;white-space:pre;shape-inside:url(#rect12);display:inline;opacity:1;fill:#505050;fill-opacity:1;stroke:none;stroke-width:11.3386;stroke-dasharray:none;stroke-dashoffset:0;stroke-opacity:1"><tspan
         x="88.375"
         y="148.54905"
         id="tspan1">J</tspan></text>
    <path
       style="fill:none;fill-opacity:1;stroke:#404040;stroke-width:3;stroke-dasharray:6, 3;stroke-dashoffset:0;stroke-opacity:1"
       d="M -30.09688,92.275056 H 103.18931"
       id="path12-9"
       inkscape:path-effect="#path-effect20-3"
       inkscape:original-d="m -30.09688,92.275056 c 44.428728,0 88.857459,0 133.28619,0"
       transform="translate(175.66241,14.720898)"
       inkscape:export-filename="isingAux2.svg"
       inkscape:export-xdpi="96"
       inkscape:export-ydpi="96" />
    <path
       style="fill:none;fill-opacity:1;stroke:#005080;stroke-width:3;stroke-dasharray:6, 3;stroke-dashoffset:0;stroke-opacity:1;marker-end:url(#RoundedArrow-3)"
       d="m 141.45258,82.113061 c 0.0405,-0.93319 0.37527,-1.851448 0.94478,-2.591815 0.56952,-0.740366 1.37119,-1.299434 2.26276,-1.577989 0.82494,-0.257737 1.71176,-0.27662 2.5664,-0.147948 0.85463,0.128673 1.68148,0.400834 2.48626,0.715924 1.60956,0.630178 3.17794,1.444495 4.89072,1.677304 1.43709,0.195336 2.92235,-0.03775 4.25374,-0.612904 1.33139,-0.575152 2.5091,-1.486185 3.44436,-2.59464 0.99774,-1.1825 1.71477,-2.570213 2.46166,-3.925183 0.74689,-1.354969 1.54711,-2.708953 2.6704,-3.772916 1.26539,-1.198565 2.8927,-1.973039 4.58487,-2.390581 1.69216,-0.417542 3.45271,-0.492622 5.19411,-0.419782 3.4828,0.145679 6.95639,0.873825 10.42853,0.565085 4.23652,-0.376708 8.31117,-2.355823 11.2264,-5.452819"
       id="path32"
       inkscape:path-effect="#path-effect33"
       inkscape:original-d="m 141.45258,82.113061 c 0.96226,-1.389936 2.24528,-2.779869 3.20754,-4.169804 0.96226,-1.389933 6.62892,1.496853 9.94338,2.24528 3.31446,0.748424 4.91823,-2.352199 7.6981,-3.207544 2.77987,-0.855342 3.52829,-4.81131 5.13206,-7.698099 1.60377,-2.886787 13.47168,-1.603769 20.20751,-2.245278 6.73584,-0.641509 7.48427,-3.635214 11.2264,-5.452819"
       transform="translate(24.320702,13.133397)" />
    <path
       style="fill:none;fill-opacity:1;stroke:#005080;stroke-width:3;stroke-dasharray:6, 3;stroke-dashoffset:0;stroke-opacity:1;marker-end:url(#RoundedArrow-3)"
       d="m 141.45258,82.113061 c 0.0405,-0.93319 0.37527,-1.851448 0.94478,-2.591815 0.56952,-0.740366 1.37119,-1.299434 2.26276,-1.577989 0.82494,-0.257737 1.71176,-0.27662 2.5664,-0.147948 0.85463,0.128673 1.68148,0.400834 2.48626,0.715924 1.60956,0.630178 3.17794,1.444495 4.89072,1.677304 1.43709,0.195336 2.92235,-0.03775 4.25374,-0.612904 1.33139,-0.575152 2.5091,-1.486185 3.44436,-2.59464 0.99774,-1.1825 1.71477,-2.570213 2.46166,-3.925183 0.74689,-1.354969 1.54711,-2.708953 2.6704,-3.772916 1.26539,-1.198565 2.8927,-1.973039 4.58487,-2.390581 1.69216,-0.417542 3.45271,-0.492622 5.19411,-0.419782 3.4828,0.145679 6.95639,0.873825 10.42853,0.565085 4.23652,-0.376708 8.31117,-2.355823 11.2264,-5.452819"
       id="path33"
       inkscape:path-effect="#path-effect35"
       inkscape:original-d="m 141.45258,82.113061 c 0.96226,-1.389936 2.24528,-2.779869 3.20754,-4.169804 0.96226,-1.389933 6.62892,1.496853 9.94338,2.24528 3.31446,0.748424 4.91823,-2.352199 7.6981,-3.207544 2.77987,-0.855342 3.52829,-4.81131 5.13206,-7.698099 1.60377,-2.886787 13.47168,-1.603769 20.20751,-2.245278 6.73584,-0.641509 7.48427,-3.635214 11.2264,-5.452819"
       transform="translate(32.787361,25.304231)" />
    <path
       style="fill:none;fill-opacity:1;stroke:#005080;stroke-width:3;stroke-dasharray:6, 3;stroke-dashoffset:0;stroke-opacity:1;marker-end:url(#RoundedArrow-3)"
       d="m 141.45258,82.113061 c 0.0405,-0.93319 0.37527,-1.851448 0.94478,-2.591815 0.56952,-0.740366 1.37119,-1.299434 2.26276,-1.577989 0.82494,-0.257737 1.71176,-0.27662 2.5664,-0.147948 0.85463,0.128673 1.68148,0.400834 2.48626,0.715924 1.60956,0.630178 3.17794,1.444495 4.89072,1.677304 1.43709,0.195336 2.92235,-0.03775 4.25374,-0.612904 1.33139,-0.575152 2.5091,-1.486185 3.44436,-2.59464 0.99774,-1.1825 1.71477,-2.570213 2.46166,-3.925183 0.74689,-1.354969 1.54711,-2.708953 2.6704,-3.772916 1.26539,-1.198565 2.8927,-1.973039 4.58487,-2.390581 1.69216,-0.417542 3.45271,-0.492622 5.19411,-0.419782 3.4828,0.145679 6.95639,0.873825 10.42853,0.565085 4.23652,-0.376708 8.31117,-2.355823 11.2264,-5.452819"
       id="path35"
       inkscape:path-effect="#path-effect37"
       inkscape:original-d="m 141.45258,82.113061 c 0.96226,-1.389936 2.24528,-2.779869 3.20754,-4.169804 0.96226,-1.389933 6.62892,1.496853 9.94338,2.24528 3.31446,0.748424 4.91823,-2.352199 7.6981,-3.207544 2.77987,-0.855342 3.52829,-4.81131 5.13206,-7.698099 1.60377,-2.886787 13.47168,-1.603769 20.20751,-2.245278 6.73584,-0.641509 7.48427,-3.635214 11.2264,-5.452819"
       transform="translate(59.245696,35.887565)" />
    <path
       style="fill:none;fill-opacity:1;stroke:#d03020;stroke-width:5;stroke-dasharray:none;stroke-dashoffset:0;stroke-opacity:1;marker-end:url(#RoundedArrow-3)"
       d="m -24.193899,74.021348 10.538783,18.253708"
       id="path14-7"
       inkscape:path-effect="#path-effect24-8"
       inkscape:original-d="m -24.193899,74.021348 c 4.428385,7.670187 7.483584,12.961948 10.538783,18.253708"
       transform="matrix(1.1452742,-0.66122435,-0.66122435,-1.1452742,287.14163,179.83605)" />
    <g
       inkscape:label=""
       transform="matrix(2.5811101,0,0,2.5811101,248.1129,80.515636)"
       id="g45">
      <g
         transform="matrix(0.352778,0,0,0.352778,-104.928,-3.3468)"
         id="g44">
        <g
           class="typst-text"
           transform="matrix(1,0,0,-1,283.926,13.88)"
           id="g39">
          <g
             id="g38">
            <path
               d="M 0,0 M 10.24,2.76 C 9.78,1.18 9.1399996,0.38 8.3000004,0.38 c -0.2600002,0 -0.4000006,0.18 -0.4000006,0.56 0,0.3 0.1199999,0.7599999 0.3600006,1.3799999 0.7999993,2.14 1.1999998,3.6000001 1.1999998,4.38 C 9.4600002,8.12 8.5400001,8.8999997 7.12,8.8999997 6.06,8.8999997 5.14,8.4600001 4.3600002,7.6 l 1.4599996,5.98 c -0.04,0.179999 -0.08,0.3 -0.3399997,0.3 -0.6600003,0 -2.1200001,-0.18 -2.38,-0.200001 -0.2999999,-0.04 -0.46,-0.179999 -0.46,-0.479999 0,-0.2 0.1800001,-0.3 0.54,-0.3 0.42,0 0.8800001,0.02 0.9200001,-0.260001 l -2.92,-11.77999953 c -0.06,-0.21999997 -0.08,-0.35999995 -0.08,-0.43999997 0,-0.42 0.22,-0.64 0.64,-0.64 0.3999999,0 0.6799998,0.2 0.82,0.58 l 0.7999999,3.28 c 0.24,0.98 0.4200001,1.7199998 0.56,2.2199998 0.06,0.1400003 0.22,0.4200001 0.4800002,0.8200002 0.7199998,1.0799999 1.5999999,1.6200004 2.6599998,1.6200004 0.6599999,0 0.98,-0.4400005 0.98,-1.3000002 0,-0.8200002 -0.4000001,-2.2800002 -1.2000003,-4.4 C 6.66,2.1399997 6.5800001,1.7799998 6.5800001,1.4799998 c 0,-0.96000004 0.7199998,-1.7 1.6800003,-1.7 0.8799991,0 1.5799999,0.5 2.0799996,1.52 0.38,0.8 0.58,1.3399999 0.58,1.5999999 0,0.1800001 -0.1,0.28 -0.32,0.28 -0.06,0 -0.36,-0.1799999 -0.36,-0.4199997 z"
               id="path38" />
          </g>
        </g>
        <g
           class="typst-text"
           transform="matrix(1,0,0,-1,295.446,18.82)"
           id="g43">
          <g
             id="g40">
            <path
               d="m 0,0 m 5.81,3.5140002 c 0,1.6099999 -0.9379997,2.7580001 -2.5059998,2.7580001 -0.8400002,0 -1.5400001,-0.322 -2.114,-0.98 C 0.65800014,4.6760001 0.39200016,3.934 0.39200016,3.0800002 c 0,-0.8820002 0.29400003,-1.6240001 0.88200004,-2.2680001 0.588,-0.64400005 1.3160001,-0.966 2.184,-0.966 0.7979998,0 1.414,0.28 1.8340001,0.82600003 0.3499999,0.46199997 0.5179996,0.79799997 0.5179996,1.02199997 0,0.1400001 -0.084,0.2100001 -0.2379999,0.2100001 -0.112,0 -0.1819997,-0.07 -0.224,-0.224 C 5.0399999,0.75600019 4.4380002,0.29400019 3.542,0.29400019 c -0.6299999,0 -1.1199999,0.294 -1.4979999,0.89600001 C 1.778,1.6240002 1.652,2.2820002 1.638,3.1780004 h 3.7800002 c 0.3080001,0 0.3919997,0.028 0.3919998,0.3359998 z m -1.2459998,1.372 c 0.1539998,-0.4619999 0.224,-0.9100001 0.224,-1.316 H 1.652 C 1.6939999,4.494 1.932,5.1240001 2.3519999,5.4460001 2.702,5.7260003 3.0099999,5.8660002 3.304,5.8660002 c 0.6299999,0 1.05,-0.322 1.2600002,-0.98 z"
               id="path39" />
          </g>
          <g
             transform="translate(6.216)"
             id="g41">
            <path
               d="M 0,0 M 3.71,9.87 C 2.464,9.87 1.54,8.8620006 1.54,7.6160003 v -1.54 H 0.4619999 V 5.5440002 H 1.54 v -4.438 C 1.54,0.84000021 1.498,0.67200022 1.4,0.61600017 c -0.098,-0.056 -0.40600007,-0.07 -0.92400009,-0.07 v -0.546 l 1.60999989,0.042 c 0.5880001,0.014 1.19,0 1.792,-0.042 v 0.546 h -0.336 c -0.4619999,0 -0.756,0.028 -0.8539998,0.098 -0.098,0.07 -0.1400001,0.23800004 -0.1400001,0.49000003 v 4.41 H 4.116 V 6.0760003 H 2.5059999 v 1.5539999 c 0,0.8400002 0.434,1.8200006 1.204,1.8200006 0.112,0 0.21,-0.014001 0.3080001,-0.042001 C 3.808,9.2960005 3.696,9.1000004 3.696,8.8340006 c 0,-0.434 0.21,-0.658 0.644,-0.658 0.434,0 0.658,0.224 0.658,0.672 C 4.998,9.4780007 4.34,9.87 3.71,9.87 Z"
               id="path40" />
          </g>
          <g
             transform="translate(10.5)"
             id="g42">
            <path
               d="M 0,0 M 3.71,9.87 C 2.464,9.87 1.54,8.8620006 1.54,7.6160003 v -1.54 H 0.4619999 V 5.5440002 H 1.54 v -4.438 C 1.54,0.84000021 1.498,0.67200022 1.4,0.61600017 c -0.098,-0.056 -0.40600007,-0.07 -0.92400009,-0.07 v -0.546 l 1.60999989,0.042 c 0.5880001,0.014 1.19,0 1.792,-0.042 v 0.546 h -0.336 c -0.4619999,0 -0.756,0.028 -0.8539998,0.098 -0.098,0.07 -0.1400001,0.23800004 -0.1400001,0.49000003 v 4.41 H 4.116 V 6.0760003 H 2.5059999 v 1.5539999 c 0,0.8400002 0.434,1.8200006 1.204,1.8200006 0.112,0 0.21,-0.014001 0.3080001,-0.042001 C 3.808,9.2960005 3.696,9.1000004 3.696,8.8340006 c 0,-0.434 0.21,-0.658 0.644,-0.658 0.434,0 0.658,0.224 0.658,0.672 C 4.998,9.4780007 4.34,9.87 3.71,9.87 Z"
               id="path41" />
          </g>
        </g>
      </g>
    </g>
    <path
       style="opacity:1;fill:none;fill-opacity:1;stroke:#505050;stroke-width:3;stroke-dasharray:none;stroke-dashoffset:0;stroke-opacity:1;marker-start:url(#RoundedArrow);marker-end:url(#RoundedArrow)"
       d="m -16.980085,74.87939 c 4.852987,-3.961583 11.3027197,-5.90674 17.5368091,-5.288878 4.6618389,0.462036 9.1756001,2.326415 12.8046539,5.288878"
       id="path5"
       inkscape:path-effect="#path-effect7"
       inkscape:original-d="m -16.980085,74.87939 c 5.845603,-1.948535 11.9695681,-3.340344 17.5368091,-5.288878 5.567241,-1.948535 8.3508613,3.340343 12.8046539,5.288878"
       transform="translate(72.495836,-3.1749999)" />
  </g>
</svg>
