<?xml version="1.0" encoding="UTF-8" standalone="no"?>
<!-- Created with Inkscape (http://www.inkscape.org/) -->

<svg
   width="203.11967mm"
   height="81.864067mm"
   viewBox="0 0 203.11967 81.864067"
   version="1.1"
   id="svg37341"
   inkscape:version="1.2.2 (b0a8486541, 2022-12-01)"
   sodipodi:docname="kondo_fp_1D.svg"
   xmlns:inkscape="http://www.inkscape.org/namespaces/inkscape"
   xmlns:sodipodi="http://sodipodi.sourceforge.net/DTD/sodipodi-0.dtd"
   xmlns="http://www.w3.org/2000/svg"
   xmlns:svg="http://www.w3.org/2000/svg"
   xmlns:ns6="http://www.iki.fi/pav/software/textext/">
  <sodipodi:namedview
     id="namedview37343"
     pagecolor="#505050"
     bordercolor="#eeeeee"
     borderopacity="1"
     inkscape:pageshadow="0"
     inkscape:pageopacity="0"
     inkscape:pagecheckerboard="0"
     inkscape:document-units="mm"
     showgrid="false"
     inkscape:zoom="1.3321579"
     inkscape:cx="346.43041"
     inkscape:cy="104.34199"
     inkscape:window-width="1920"
     inkscape:window-height="1018"
     inkscape:window-x="0"
     inkscape:window-y="0"
     inkscape:window-maximized="1"
     inkscape:current-layer="layer1"
     inkscape:snap-global="true"
     inkscape:snap-bbox="true"
     inkscape:object-paths="true"
     inkscape:snap-intersection-paths="true"
     inkscape:snap-smooth-nodes="true"
     inkscape:snap-midpoints="true"
     inkscape:snap-object-midpoints="true"
     inkscape:snap-center="true"
     inkscape:showpageshadow="0"
     inkscape:deskcolor="#505050" />
  <defs
     id="defs37338">
    <inkscape:path-effect
       effect="spiro"
       id="path-effect222434"
       is_visible="true"
       lpeversion="1" />
    <marker
       style="overflow:visible"
       id="RoundedArrow"
       refX="0"
       refY="0"
       orient="auto-start-reverse"
       inkscape:stockid="RoundedArrow"
       markerWidth="3.135"
       markerHeight="3.0306199"
       viewBox="0 0 6.1347524 5.9304951"
       inkscape:isstock="true"
       inkscape:collect="always"
       preserveAspectRatio="xMidYMid">
      <path
         transform="scale(0.7)"
         d="m -0.21114562,-4.1055728 6.42229122,3.21114561 a 1,1 90 0 1 0,1.78885438 L -0.21114562,4.1055728 A 1.236068,1.236068 31.717474 0 1 -2,3 v -6 a 1.236068,1.236068 148.28253 0 1 1.78885438,-1.1055728 z"
         style="fill:context-stroke;fill-rule:evenodd;stroke:none"
         id="path1367" />
    </marker>
    <inkscape:path-effect
       effect="spiro"
       id="path-effect6052"
       is_visible="true"
       lpeversion="1" />
    <inkscape:path-effect
       effect="spiro"
       id="path-effect40626"
       is_visible="true"
       lpeversion="1" />
    <inkscape:path-effect
       effect="spiro"
       id="path-effect40583"
       is_visible="true"
       lpeversion="1" />
    <inkscape:path-effect
       effect="spiro"
       id="path-effect40312"
       is_visible="true"
       lpeversion="1" />
    <marker
       style="overflow:visible"
       id="Arrow2Mend"
       refX="0"
       refY="0"
       orient="auto"
       inkscape:stockid="Arrow2Mend"
       inkscape:isstock="true">
      <path
         transform="scale(-0.6)"
         d="M 8.7185878,4.0337352 -2.2072895,0.01601326 8.7185884,-4.0017078 c -1.7454984,2.3720609 -1.7354408,5.6174519 -6e-7,8.035443 z"
         style="fill:context-stroke;fill-rule:evenodd;stroke:context-stroke;stroke-width:0.625;stroke-linejoin:round"
         id="path40027" />
    </marker>
    <marker
       style="overflow:visible"
       id="Arrow2Lend"
       refX="0"
       refY="0"
       orient="auto"
       inkscape:stockid="Arrow2Lend"
       inkscape:isstock="true">
      <path
         transform="matrix(-1.1,0,0,-1.1,-1.1,0)"
         d="M 8.7185878,4.0337352 -2.2072895,0.01601326 8.7185884,-4.0017078 c -1.7454984,2.3720609 -1.7354408,5.6174519 -6e-7,8.035443 z"
         style="fill:context-stroke;fill-rule:evenodd;stroke:context-stroke;stroke-width:0.625;stroke-linejoin:round"
         id="path40021" />
    </marker>
    <inkscape:path-effect
       effect="spiro"
       id="path-effect39918"
       is_visible="true"
       lpeversion="1" />
    <g
       id="id-348eead4-f802-4a20-9c3f-ec3af54e815f-1">
      <symbol
         overflow="visible"
         id="id-26d2e020-5b55-45c2-8d9b-d5427b253f80-0">
        <path
           style="stroke:none;stroke-width:0"
           d="M 5.40625,-10.46875 H 1.21875 V 3.484375 h 4.1875 z M 4.875,-9.953125 V 2.96875 H 1.78125 V -9.953125 Z M 3.234375,-4.5 c -0.390625,0 -0.9375,0.125 -0.9375,0.390625 0,0.125 0.09375,0.234375 0.25,0.234375 0.03125,0 0.078125,-0.015625 0.125,-0.03125 0.171875,-0.078125 0.3125,-0.109375 0.515625,-0.109375 0.5,0 0.609375,0.296875 0.609375,0.6875 0,0.53125 -0.1875,0.71875 -0.90625,0.765625 v 0.84375 c 0,0.140625 0.125,0.234375 0.25,0.234375 0.125,0 0.25,-0.09375 0.25,-0.234375 V -2.171875 C 4.0625,-2.265625 4.34375,-2.65625 4.34375,-3.34375 4.34375,-3.953125 4.09375,-4.5 3.234375,-4.5 Z m -0.09375,3.296875 c -0.203125,0 -0.34375,0.15625 -0.34375,0.359375 0,0.203125 0.140625,0.359375 0.34375,0.359375 0.203125,0 0.34375,-0.15625 0.34375,-0.359375 0,-0.203125 -0.140625,-0.359375 -0.34375,-0.359375 z m 0,0"
           id="id-cff147c2-3051-4941-9d38-4e71dfdc8838-6" />
      </symbol>
      <symbol
         overflow="visible"
         id="id-a400812b-0682-4e22-91d4-1a95810e0664-1">
        <path
           style="stroke:none;stroke-width:0"
           d="M 1.9375,-6.875 H 1 V 0 h 0.9375 z m 0,0"
           id="id-d8312599-cbdd-4fdd-9013-2061d838f52b-5" />
      </symbol>
      <symbol
         overflow="visible"
         id="id-bf5f1f51-87d0-41a0-8075-972d5413004f-9">
        <path
           style="stroke:none;stroke-width:0"
           d="m 3.453125,-6.984375 c -1.71875,0 -2.90625,1.296875 -2.90625,3.5625 0,2.3125 1.1875,3.546875 2.90625,3.546875 1.71875,0 2.890625,-1.28125 2.890625,-3.546875 0,-2.3125 -1.171875,-3.5625 -2.890625,-3.5625 z m 0,0.78125 c 1.171875,0 1.890625,0.796875 1.890625,2.78125 0,1.984375 -0.734375,2.765625 -1.890625,2.765625 -1.125,0 -1.890625,-0.78125 -1.890625,-2.765625 0,-1.984375 0.734375,-2.78125 1.890625,-2.78125 z m 0,0"
           id="id-3b7225d6-754a-4c74-b353-1ac9904a2899-4" />
      </symbol>
      <symbol
         overflow="visible"
         id="id-2d26eedb-cbd4-4323-aa5f-dd81438bf999-9">
        <path
           style="stroke:none;stroke-width:0"
           d="M 6.5625,-6.875 H 5.28125 l -1.375,5 -1.4375,-5 H 1.1875 L 0.625,0 H 1.515625 L 1.75,-3.03125 c 0.078125,-1 0.125,-2.078125 0.125,-2.875 l 1.5625,5.125 h 0.890625 l 1.484375,-5.125 c 0.015625,0.578125 0.078125,1.734375 0.171875,2.8125 L 6.21875,0 h 0.921875 z m 0,0"
           id="id-cd42413e-f022-4038-99d0-47f5b6b45583-0" />
      </symbol>
      <symbol
         overflow="visible"
         id="id-116e3481-31b3-4215-bbc4-0155d58d7719-9">
        <path
           style="stroke:none;stroke-width:0"
           d="m 2.375,-5.375 c -1.09375,0 -1.890625,0.609375 -1.890625,1.453125 0,0.734375 0.4375,1.21875 1.578125,1.515625 1.015625,0.265625 1.28125,0.46875 1.28125,0.984375 0,0.5 -0.4375,0.796875 -1.125,0.796875 -0.578125,0 -1.0625,-0.1875 -1.484375,-0.5 L 0.25,-0.5625 c 0.453125,0.390625 1.09375,0.6875 1.984375,0.6875 1.0625,0 2.078125,-0.5 2.078125,-1.59375 0,-0.921875 -0.640625,-1.359375 -1.75,-1.640625 -0.84375,-0.21875 -1.125,-0.421875 -1.125,-0.84375 0,-0.421875 0.359375,-0.6875 0.96875,-0.6875 0.484375,0 0.890625,0.140625 1.359375,0.4375 L 4.15625,-4.78125 C 3.65625,-5.15625 3.109375,-5.375 2.375,-5.375 Z m 0,0"
           id="id-5b545060-9e2b-41d0-a164-bc429ff3b415-1" />
      </symbol>
    </g>
    <marker
       style="overflow:visible"
       id="Arrow2Mend-6"
       refX="0"
       refY="0"
       orient="auto"
       inkscape:stockid="Arrow2Mend"
       inkscape:isstock="true">
      <path
         transform="scale(-0.6)"
         d="M 8.7185878,4.0337352 -2.2072895,0.01601326 8.7185884,-4.0017078 c -1.7454984,2.3720609 -1.7354408,5.6174519 -6e-7,8.035443 z"
         style="fill:context-stroke;fill-rule:evenodd;stroke:context-stroke;stroke-width:0.625;stroke-linejoin:round"
         id="path40027-5" />
    </marker>
    <marker
       style="overflow:visible"
       id="Arrow2Mend-3"
       refX="0"
       refY="0"
       orient="auto"
       inkscape:stockid="Arrow2Mend"
       inkscape:isstock="true">
      <path
         transform="scale(-0.6)"
         d="M 8.7185878,4.0337352 -2.2072895,0.01601326 8.7185884,-4.0017078 c -1.7454984,2.3720609 -1.7354408,5.6174519 -6e-7,8.035443 z"
         style="fill:context-stroke;fill-rule:evenodd;stroke:context-stroke;stroke-width:0.625;stroke-linejoin:round"
         id="path40027-9" />
    </marker>
    <marker
       style="overflow:visible"
       id="Arrow2Mend-6-8"
       refX="0"
       refY="0"
       orient="auto"
       inkscape:stockid="Arrow2Mend"
       inkscape:isstock="true">
      <path
         transform="scale(-0.6)"
         d="M 8.7185878,4.0337352 -2.2072895,0.01601326 8.7185884,-4.0017078 c -1.7454984,2.3720609 -1.7354408,5.6174519 -6e-7,8.035443 z"
         style="fill:context-stroke;fill-rule:evenodd;stroke:context-stroke;stroke-width:0.625;stroke-linejoin:round"
         id="path40027-5-1" />
    </marker>
    <g
       id="id-62189c6b-5d66-4fef-8b7d-fc352cd2adfe-9">
      <symbol
         overflow="visible"
         id="id-e22316f3-54b4-40ac-93a6-0022eef067fa-0">
        <path
           style="stroke:none"
           d=""
           id="id-1e11642b-2eda-4f4d-a8a0-5e0f071bf297-8" />
      </symbol>
      <symbol
         overflow="visible"
         id="id-3bbebedf-1cfb-475f-b895-5af4f8ecd32f-8">
        <path
           style="stroke:none"
           d="m 1.578125,-0.78125 c -0.09375,0.390625 -0.109375,0.46875 -0.90625,0.46875 -0.15625,0 -0.265625,0 -0.265625,0.1875 C 0.40625,0 0.484375,0 0.671875,0 h 3.3125 c 2.0625,0 4.03125,-2.109375 4.03125,-4.28125 0,-1.40625 -0.84375,-2.53125 -2.34375,-2.53125 h -3.34375 c -0.1875,0 -0.296875,0 -0.296875,0.1875 0,0.125 0.078125,0.125 0.28125,0.125 0.125,0 0.3125,0.015625 0.421875,0.015625 0.171875,0.03125 0.21875,0.046875 0.21875,0.171875 0,0.03125 0,0.0625 -0.03125,0.1875 z M 3.734375,-6.125 C 3.828125,-6.46875 3.84375,-6.5 4.28125,-6.5 h 1.0625 c 0.96875,0 1.796875,0.53125 1.796875,1.84375 0,0.484375 -0.1875,2.125 -1.046875,3.21875 -0.28125,0.375 -1.0625,1.125 -2.296875,1.125 h -1.125 c -0.140625,0 -0.15625,0 -0.21875,0 -0.09375,-0.015625 -0.125,-0.03125 -0.125,-0.109375 0,-0.03125 0,-0.046875 0.046875,-0.21875 z m 0,0"
           id="id-ba37b9d3-8101-44c1-8d6c-d9e5d0db19f7-5" />
      </symbol>
      <symbol
         overflow="visible"
         id="id-ae52efcc-523f-4293-91fa-fbe9c7e1b10d-0">
        <path
           style="stroke:none"
           d=""
           id="id-f25407aa-c1df-4c67-819a-2ce956e587b7-9" />
      </symbol>
      <symbol
         overflow="visible"
         id="id-3d983698-3a84-4d5d-8cc1-90b3bcd0da2a-6">
        <path
           style="stroke:none"
           d="M 5.8125,-4 C 5.875,-4.265625 6,-4.5 6.546875,-4.515625 c 0.03125,0 0.140625,0 0.140625,-0.140625 0,-0.046875 -0.03125,-0.109375 -0.109375,-0.109375 -0.21875,0 -0.484375,0.03125 -0.71875,0.03125 -0.171875,0 -0.5625,-0.03125 -0.734375,-0.03125 -0.03125,0 -0.140625,0 -0.140625,0.15625 0,0.09375 0.09375,0.09375 0.15625,0.09375 0.328125,0.015625 0.4375,0.125 0.4375,0.296875 0,0.046875 0,0.09375 -0.03125,0.15625 l -0.75,3.046875 -1.765625,-3.625 c -0.0625,-0.125 -0.078125,-0.125 -0.25,-0.125 H 1.828125 c -0.125,0 -0.21875,0 -0.21875,0.15625 0,0.09375 0.078125,0.09375 0.234375,0.09375 0.140625,0 0.296875,0.015625 0.4375,0.046875 L 1.359375,-0.75 c -0.0625,0.265625 -0.1875,0.484375 -0.734375,0.5 -0.046875,0 -0.140625,0 -0.140625,0.140625 C 0.484375,-0.03125 0.53125,0 0.578125,0 0.8125,0 1.078125,-0.03125 1.3125,-0.03125 1.484375,-0.03125 1.875,0 2.046875,0 2.125,0 2.1875,-0.03125 2.1875,-0.140625 2.1875,-0.25 2.109375,-0.25 2.03125,-0.25 c -0.4375,-0.015625 -0.4375,-0.203125 -0.4375,-0.296875 0,-0.03125 0,-0.0625 0.015625,-0.171875 l 0.90625,-3.5625 2.03125,4.15625 C 4.59375,0 4.625,0 4.703125,0 4.8125,0 4.8125,-0.015625 4.84375,-0.140625 Z m 0,0"
           id="id-1ab8bf63-5b00-4656-a5e8-85a558a189d3-3" />
      </symbol>
    </g>
    <g
       id="id-cc5ab6d5-478a-4855-b676-c375666dda53-7">
      <symbol
         overflow="visible"
         id="id-330b5477-eb13-4fa5-a9d9-f2e6d639fb21-5">
        <path
           style="stroke:none;stroke-width:0"
           d=""
           id="id-86a662d1-e6c7-48ad-9943-cb29679a8334-3" />
      </symbol>
      <symbol
         overflow="visible"
         id="id-145942e8-8cb1-47d4-bcd6-116b08d3274f-5">
        <path
           style="stroke:none;stroke-width:0"
           d="M 7.0625,-2.328125 C 7.078125,-2.375 7.109375,-2.4375 7.109375,-2.46875 c 0,0 0,-0.109375 -0.125,-0.109375 -0.09375,0 -0.109375,0.0625 -0.125,0.125 C 6.203125,-0.984375 5.84375,-0.3125 4.140625,-0.3125 H 2.6875 c -0.140625,0 -0.171875,0 -0.21875,0 -0.109375,-0.015625 -0.140625,-0.03125 -0.140625,-0.109375 0,-0.03125 0,-0.046875 0.046875,-0.21875 L 3.0625,-3.375 h 0.984375 c 0.84375,0 0.84375,0.21875 0.84375,0.46875 0,0.0625 0,0.1875 -0.0625,0.484375 C 4.8125,-2.375 4.796875,-2.34375 4.796875,-2.3125 c 0,0.046875 0.03125,0.109375 0.125,0.109375 C 5,-2.203125 5.03125,-2.25 5.078125,-2.40625 l 0.5625,-2.328125 c 0,-0.0625 -0.046875,-0.109375 -0.125,-0.109375 -0.078125,0 -0.109375,0.0625 -0.125,0.171875 -0.21875,0.765625 -0.390625,1 -1.3125,1 h -0.9375 l 0.59375,-2.40625 C 3.828125,-6.4375 3.84375,-6.46875 4.28125,-6.46875 H 5.6875 c 1.203125,0 1.515625,0.28125 1.515625,1.109375 0,0.234375 0,0.25 -0.046875,0.53125 0,0.046875 -0.015625,0.125 -0.015625,0.171875 0,0.046875 0.03125,0.125 0.125,0.125 0.109375,0 0.125,-0.0625 0.140625,-0.25 L 7.609375,-6.515625 C 7.640625,-6.78125 7.59375,-6.78125 7.34375,-6.78125 H 2.296875 c -0.1875,0 -0.296875,0 -0.296875,0.203125 0,0.109375 0.09375,0.109375 0.28125,0.109375 0.375,0 0.65625,0 0.65625,0.171875 0,0.046875 0,0.0625 -0.0625,0.25 L 1.5625,-0.78125 c -0.09375,0.390625 -0.109375,0.46875 -0.90625,0.46875 -0.171875,0 -0.28125,0 -0.28125,0.1875 C 0.375,0 0.46875,0 0.65625,0 h 5.171875 c 0.234375,0 0.25,-0.015625 0.3125,-0.171875 z m 0,0"
           id="id-9d02cc95-8b9e-4e3c-9cdf-421e4857450c-6" />
      </symbol>
      <symbol
         overflow="visible"
         id="id-c1073de6-8f14-45e2-99ca-33a21c734d98-2">
        <path
           style="stroke:none;stroke-width:0"
           d="M 6.734375,-2.265625 C 6.84375,-2.328125 6.921875,-2.375 6.921875,-2.5 c 0,-0.109375 -0.078125,-0.15625 -0.1875,-0.21875 L 1.203125,-5.3125 C 1.078125,-5.390625 1.0625,-5.390625 1.03125,-5.390625 c -0.109375,0 -0.203125,0.09375 -0.203125,0.203125 0,0.09375 0.046875,0.15625 0.1875,0.21875 L 6.25,-2.5 1.015625,-0.015625 c -0.140625,0.0625 -0.1875,0.125 -0.1875,0.21875 0,0.109375 0.09375,0.203125 0.203125,0.203125 0.03125,0 0.046875,0 0.171875,-0.078125 z m 0,0"
           id="id-570247a5-3232-4e84-9476-2b834647b88b-9" />
      </symbol>
      <symbol
         overflow="visible"
         id="id-a2438009-a31c-407e-9bee-d99a07cf5b97-1">
        <path
           style="stroke:none;stroke-width:0"
           d=""
           id="id-db07e409-66d1-4897-a0e2-50ec558b6b64-2" />
      </symbol>
      <symbol
         overflow="visible"
         id="id-03a9f266-89dc-487b-beb2-4b1ebeeddb35-7">
        <path
           style="stroke:none;stroke-width:0"
           d="M 2.390625,-2.25 H 3.125 c 0.53125,0 0.625,0.09375 0.625,0.3125 0,0.109375 0,0.125 -0.046875,0.328125 -0.015625,0.03125 -0.03125,0.0625 -0.03125,0.078125 0,0.0625 0.0625,0.109375 0.125,0.109375 0.09375,0 0.09375,-0.046875 0.140625,-0.171875 l 0.375,-1.46875 c 0,-0.03125 0.015625,-0.125 0.015625,-0.140625 0,-0.078125 -0.046875,-0.109375 -0.109375,-0.109375 -0.09375,0 -0.109375,0.046875 -0.140625,0.171875 C 3.9375,-2.59375 3.734375,-2.5 3.140625,-2.5 h -0.6875 l 0.4375,-1.75 c 0.046875,-0.203125 0.0625,-0.234375 0.34375,-0.234375 H 4.3125 c 0.921875,0 1.09375,0.21875 1.09375,0.8125 0,0.21875 -0.03125,0.375 -0.03125,0.421875 0,0.0625 0.03125,0.125 0.125,0.125 0.109375,0 0.109375,-0.0625 0.125,-0.1875 L 5.75,-4.515625 c 0.015625,-0.21875 -0.03125,-0.21875 -0.203125,-0.21875 h -3.71875 c -0.140625,0 -0.21875,0 -0.21875,0.15625 0,0.09375 0.078125,0.09375 0.21875,0.09375 0,0 0.140625,0 0.265625,0.015625 C 2.234375,-4.453125 2.25,-4.4375 2.25,-4.375 c 0,0.046875 -0.015625,0.125 -0.03125,0.15625 L 1.3125,-0.578125 C 1.234375,-0.296875 1.234375,-0.25 0.6875,-0.25 c -0.109375,0 -0.203125,0 -0.203125,0.140625 C 0.484375,-0.03125 0.53125,0 0.59375,0 0.796875,0 1.3125,-0.03125 1.515625,-0.03125 l 0.53125,0.015625 C 2.234375,-0.015625 2.421875,0 2.59375,0 2.640625,0 2.75,0 2.75,-0.15625 2.75,-0.25 2.671875,-0.25 2.515625,-0.25 c -0.015625,0 -0.1875,0 -0.375,-0.015625 C 2,-0.28125 1.9375,-0.28125 1.9375,-0.390625 c 0,-0.015625 0,-0.046875 0.015625,-0.125 z m 0,0"
           id="id-208e8246-31b9-4342-8946-d15c8654c4b9-0" />
      </symbol>
    </g>
  </defs>
  <g
     inkscape:label="Layer 1"
     inkscape:groupmode="layer"
     id="layer1"
     transform="translate(-80.9849, -85.521)">
    <rect
       style="opacity:0.387702;fill:#502724;fill-opacity:1;stroke:none;stroke-width:2.45162;stroke-miterlimit:4;stroke-dasharray:2.45162, 7.35491;stroke-dashoffset:0;stroke-opacity:1"
       id="rect38028"
       width="91.147522"
       height="52.701313"
       x="80.984932"
       y="85.521011" />
    <path
       style="fill:none;stroke:#000000;stroke-width:1.93251;stroke-linecap:butt;stroke-linejoin:miter;stroke-miterlimit:4;stroke-dasharray:3.86501, 1.93251;stroke-dashoffset:0;stroke-opacity:1"
       d="m 167.06759,111.73188 c 109.53212,0 109.53212,0 109.53212,0"
       id="path37627" />
    <circle
       style="opacity:1;fill:#279bac;fill-opacity:1;stroke:none;stroke-width:3.2231;stroke-miterlimit:4;stroke-dasharray:3.2231, 9.66931;stroke-dashoffset:0;stroke-opacity:1"
       id="path37731-4-8-2"
       cx="246.36545"
       cy="111.73188"
       r="7.2100315" />
    <circle
       style="fill:#ff4256;fill-opacity:1;stroke:none;stroke-width:3.2231;stroke-miterlimit:4;stroke-dasharray:3.2231, 9.66931;stroke-dashoffset:0;stroke-opacity:1;opacity:1"
       id="path37731-4-8-2-2"
       cx="91.929161"
       cy="111.73188"
       r="7.2100315" />
    <circle
       style="opacity:1;fill:#279bac;fill-opacity:1;stroke:none;stroke-width:3.2231;stroke-miterlimit:4;stroke-dasharray:3.2231, 9.66931;stroke-dashoffset:0;stroke-opacity:1"
       id="path37731-4-8-7-7"
       cx="276.35883"
       cy="111.73188"
       r="7.2100315" />
    <path
       style="fill:none;stroke:#303030;stroke-width:2;stroke-linecap:butt;stroke-linejoin:miter;stroke-miterlimit:4;stroke-dasharray:none;stroke-opacity:1;marker-end:url(#RoundedArrow)"
       d="m 127.80396,111.73188 c -1.33129,-2.0208 -3.07746,-3.76697 -5.09826,-5.09826 -2.973,-1.95859 -6.54112,-3.00038 -10.10093,-2.94918 -3.55981,0.0512 -7.09649,1.19518 -10.01193,3.23847"
       id="path39916-4"
       inkscape:path-effect="#path-effect40583"
       inkscape:original-d="m 127.80396,111.73188 c -1.69993,-1.69892 -3.39934,-3.39833 -5.09826,-5.09826 -1.69891,-1.69993 -11.65641,-1.40962 -20.11286,0.28929"
       sodipodi:nodetypes="csc" />
    <path
       style="fill:none;stroke:#303030;stroke-width:1.83228;stroke-linecap:butt;stroke-linejoin:miter;stroke-miterlimit:4;stroke-dasharray:none;stroke-opacity:1;marker-end:url(#RoundedArrow)"
       d="m 144.31966,116.67623 c -0.16116,0.17618 -0.32445,0.35041 -0.48983,0.52263 -5.48825,5.71533 -13.35371,9.07363 -21.27747,9.0848 -7.92375,0.0112 -15.79864,-3.32496 -21.30298,-9.0248"
       id="path39916-6-2"
       inkscape:path-effect="#path-effect40626"
       inkscape:original-d="m 144.31966,116.67623 c -1.40241,1.72841 0.91176,-1.20682 -0.48983,0.52263 -1.40157,1.72944 -35.60399,1.78844 -42.58045,0.06"
       sodipodi:nodetypes="csc" />
    <path
       style="fill:none;stroke:#000000;stroke-width:1;stroke-linecap:butt;stroke-linejoin:miter;stroke-miterlimit:4;stroke-dasharray:1.99999, 1;stroke-dashoffset:0;stroke-opacity:1"
       d="M 92.043164,121.87614 V 144.883"
       id="path6050"
       inkscape:path-effect="#path-effect6052"
       inkscape:original-d="m 92.043164,121.87614 c 5.06e-4,7.66923 5.06e-4,15.33818 0,23.00686" />
    <g
       transform="matrix(1.3809009,0,0,1.3809009,88.46065,88.837014)"
       ns6:version="1.8.2"
       ns6:texconverter="xelatex"
       ns6:pdfconverter="inkscape"
       ns6:text="Kondo cloud"
       ns6:preamble="/home/kirito/.config/textext/beamer_preamble.tex"
       ns6:scale="18.440536980142454"
       ns6:alignment="middle center"
       ns6:stroke-to-path="0"
       ns6:inkscapeversion="1.1.1"
       ns6:jacobian_sqrt="6.50542"
       id="g209378">
      <defs
         id="id-6071815f-a233-436c-8d42-bbb9d2f30505">
        <g
           id="id-b0dda80d-3a04-453c-bdca-42b4b730ca33">
          <g
             id="id-2e03db08-ff48-4dd9-832a-ed3b9e3016b6">
            <path
               d="M 5.40625,-10.46875 V 3.484375 H 1.21875 V -10.46875 Z M 4.875,-9.953125 H 1.78125 V 2.96875 H 4.875 Z M 3.234375,-4.5 c 0.394531,0 0.675781,0.109375 0.84375,0.328125 0.175781,0.210937 0.265625,0.484375 0.265625,0.828125 0,0.34375 -0.078125,0.617188 -0.234375,0.8125 -0.148437,0.1875 -0.386719,0.308594 -0.71875,0.359375 v 0.453125 c 0,0.074219 -0.027344,0.132812 -0.078125,0.171875 -0.054688,0.042969 -0.109375,0.0625 -0.171875,0.0625 -0.0625,0 -0.121094,-0.019531 -0.171875,-0.0625 C 2.914062,-1.585938 2.890625,-1.644531 2.890625,-1.71875 V -2.5625 c 0.351563,-0.019531 0.59375,-0.082031 0.71875,-0.1875 0.125,-0.113281 0.1875,-0.304688 0.1875,-0.578125 0,-0.21875 -0.046875,-0.382813 -0.140625,-0.5 -0.085938,-0.125 -0.242188,-0.1875 -0.46875,-0.1875 -0.1875,0 -0.359375,0.039063 -0.515625,0.109375 -0.054687,0.023438 -0.09375,0.03125 -0.125,0.03125 -0.074219,0 -0.136719,-0.019531 -0.1875,-0.0625 -0.042969,-0.039062 -0.0625,-0.097656 -0.0625,-0.171875 0,-0.125 0.097656,-0.21875 0.296875,-0.28125 C 2.789062,-4.460938 3.003906,-4.5 3.234375,-4.5 Z m -0.09375,3.296875 c 0.101563,0 0.1875,0.039063 0.25,0.109375 0.0625,0.0625 0.09375,0.148438 0.09375,0.25 0,0.105469 -0.03125,0.195312 -0.09375,0.265625 -0.0625,0.0625 -0.148437,0.09375 -0.25,0.09375 -0.105469,0 -0.1875,-0.03125 -0.25,-0.09375 -0.0625,-0.070313 -0.09375,-0.160156 -0.09375,-0.265625 0,-0.101562 0.03125,-0.1875 0.09375,-0.25 0.0625,-0.070312 0.144531,-0.109375 0.25,-0.109375 z m 0,0"
               id="id-442e1e4e-466e-4637-b705-721d1ab6a974" />
          </g>
          <g
             id="id-3e62ba9c-32d4-435e-b772-c1c5bcdd1ec1">
            <path
               d="M 1.9375,-6.875 V 0 H 1 v -6.875 z m 3.75,0 L 3.078125,-3.734375 5.875,0 H 4.703125 L 2,-3.671875 4.609375,-6.875 Z m 0,0"
               id="id-8c238d71-90bb-44c6-947a-5922149a1ab5" />
          </g>
          <g
             id="id-ecadb5de-69c7-4246-a538-d1d05c415097">
            <path
               d="m 2.921875,-5.375 c 0.738281,0 1.3125,0.25 1.71875,0.75 0.40625,0.492188 0.609375,1.15625 0.609375,2 0,0.542969 -0.09375,1.023438 -0.28125,1.4375 -0.1875,0.417969 -0.460938,0.742188 -0.8125,0.96875 C 3.8125,0.0078125 3.394531,0.125 2.90625,0.125 2.164062,0.125 1.585938,-0.117188 1.171875,-0.609375 0.765625,-1.109375 0.5625,-1.78125 0.5625,-2.625 c 0,-0.539062 0.09375,-1.019531 0.28125,-1.4375 0.1875,-0.414062 0.457031,-0.738281 0.8125,-0.96875 C 2.007812,-5.257812 2.429688,-5.375 2.921875,-5.375 Z m 0,0.734375 c -0.90625,0 -1.359375,0.671875 -1.359375,2.015625 0,1.335938 0.445312,2 1.34375,2 0.90625,0 1.359375,-0.664062 1.359375,-2 0,-1.34375 -0.449219,-2.015625 -1.34375,-2.015625 z m 0,0"
               id="id-0a110dc6-ece0-4eb4-9daf-7b2730002cab" />
          </g>
          <g
             id="id-48ff8974-0b9b-4b2b-97c5-f1eb2f66eb74">
            <path
               d="m 3.421875,-5.375 c 0.476563,0 0.847656,0.148438 1.109375,0.4375 0.269531,0.28125 0.40625,0.671875 0.40625,1.171875 V 0 H 4.03125 v -3.640625 c 0,-0.375 -0.074219,-0.632813 -0.21875,-0.78125 -0.136719,-0.15625 -0.339844,-0.234375 -0.609375,-0.234375 -0.28125,0 -0.53125,0.085938 -0.75,0.25 -0.210937,0.15625 -0.40625,0.382812 -0.59375,0.671875 V 0 h -0.90625 v -5.25 h 0.78125 L 1.8125,-4.46875 C 2,-4.75 2.226562,-4.96875 2.5,-5.125 c 0.28125,-0.164062 0.585938,-0.25 0.921875,-0.25 z m 0,0"
               id="id-79728021-eff3-477c-92b7-d23107002a8a" />
          </g>
          <g
             id="id-545e20dc-2573-4d13-a7d5-0a5a56990642">
            <path
               d="M 5.015625,-7.359375 V 0 h -0.8125 L 4.109375,-0.734375 C 3.941406,-0.460938 3.726562,-0.25 3.46875,-0.09375 3.207031,0.0507812 2.921875,0.125 2.609375,0.125 c -0.625,0 -1.117187,-0.242188 -1.46875,-0.734375 -0.34375,-0.5 -0.515625,-1.164063 -0.515625,-2 0,-0.53125 0.078125,-1.003906 0.234375,-1.421875 0.164063,-0.425781 0.40625,-0.753906 0.71875,-0.984375 C 1.890625,-5.253906 2.257812,-5.375 2.6875,-5.375 c 0.53125,0 1,0.21875 1.40625,0.65625 v -2.765625 z m -2.21875,6.75 c 0.28125,0 0.519531,-0.0625 0.71875,-0.1875 0.195313,-0.132813 0.390625,-0.332031 0.578125,-0.59375 v -2.5625 C 3.925781,-4.179688 3.742188,-4.351562 3.546875,-4.46875 3.347656,-4.582031 3.125,-4.640625 2.875,-4.640625 c -0.40625,0 -0.71875,0.171875 -0.9375,0.515625 -0.21875,0.335938 -0.328125,0.835938 -0.328125,1.5 0,0.679688 0.097656,1.183594 0.296875,1.515625 0.207031,0.335937 0.503906,0.5 0.890625,0.5 z m 0,0"
               id="id-494aeebc-2cb1-4083-9954-2060373e9b77" />
          </g>
          <g
             id="id-a52758d0-a05a-47e5-a2ea-6a41fffe058a">
            <path
               d="m 2.859375,-5.375 c 0.3125,0 0.597656,0.046875 0.859375,0.140625 0.257812,0.085937 0.507812,0.226563 0.75,0.421875 l -0.4375,0.578125 c -0.1875,-0.125 -0.371094,-0.21875 -0.546875,-0.28125 -0.179687,-0.0625 -0.371094,-0.09375 -0.578125,-0.09375 -0.429688,0 -0.761719,0.171875 -1,0.515625 -0.230469,0.335938 -0.34375,0.828125 -0.34375,1.484375 0,0.667969 0.113281,1.164063 0.34375,1.484375 0.226562,0.3125 0.5625,0.46875 1,0.46875 0.195312,0 0.382812,-0.03125 0.5625,-0.09375 0.175781,-0.0625 0.367188,-0.164062 0.578125,-0.3125 L 4.46875,-0.453125 C 3.988281,-0.0664062 3.453125,0.125 2.859375,0.125 2.148438,0.125 1.585938,-0.113281 1.171875,-0.59375 0.765625,-1.070312 0.5625,-1.734375 0.5625,-2.578125 c 0,-0.5625 0.09375,-1.050781 0.28125,-1.46875 0.1875,-0.414063 0.453125,-0.738281 0.796875,-0.96875 0.34375,-0.238281 0.75,-0.359375 1.21875,-0.359375 z m 0,0"
               id="id-84ee3d6d-79a4-4f0c-9c39-950cafc0b2e9" />
          </g>
          <g
             id="id-923b6bcf-a120-43c8-ac83-da09b9f3b093">
            <path
               d="M 2,0.125 C 1.65625,0.125 1.382812,0.0234375 1.1875,-0.171875 0.988281,-0.378906 0.890625,-0.664062 0.890625,-1.03125 v -6.328125 l 0.921875,-0.125 V -1.0625 c 0,0.148438 0.023438,0.257812 0.078125,0.328125 0.050781,0.0625 0.132813,0.09375 0.25,0.09375 0.125,0 0.238281,-0.019531 0.34375,-0.0625 L 2.71875,-0.0625 C 2.5,0.0625 2.257812,0.125 2,0.125 Z m 0,0"
               id="id-5fd55684-1927-435d-bec8-00eb56cf5b97" />
          </g>
          <g
             id="id-dc101f82-2494-4d8d-87f5-5b6fb4cfa061">
            <path
               d="M 4.859375,0 H 4.0625 L 4,-0.8125 C 3.800781,-0.488281 3.570312,-0.25 3.3125,-0.09375 3.050781,0.0507812 2.734375,0.125 2.359375,0.125 1.898438,0.125 1.539062,-0.015625 1.28125,-0.296875 1.019531,-0.578125 0.890625,-0.972656 0.890625,-1.484375 V -5.25 H 1.8125 v 3.671875 c 0,0.355469 0.0625,0.609375 0.1875,0.765625 0.125,0.148438 0.332031,0.21875 0.625,0.21875 0.507812,0 0.945312,-0.300781 1.3125,-0.90625 v -3.75 h 0.921875 z m 0,0"
               id="id-c71b8d28-de75-48db-9c8e-c423c0e0ff52" />
          </g>
        </g>
      </defs>
      <g
         fill="#000000"
         fill-opacity="1"
         id="id-654c2d59-d42a-4700-9e08-9cbdef09802c"
         transform="translate(-149.712,-127.281)">
        <g
           transform="translate(148.712,134.765)"
           id="g209345">
          <path
             d="M 1.9375,-6.875 V 0 H 1 v -6.875 z m 3.75,0 L 3.078125,-3.734375 5.875,0 H 4.703125 L 2,-3.671875 4.609375,-6.875 Z m 0,0"
             id="id-3aec09bc-bad7-49f9-bce9-0f4be000422d" />
        </g>
      </g>
      <g
         fill="#000000"
         fill-opacity="1"
         id="id-2f5d66f4-e291-462f-9ce0-7e651f532f65"
         transform="translate(-149.712,-127.281)">
        <g
           transform="translate(154.45,134.765)"
           id="g209349">
          <path
             d="m 2.921875,-5.375 c 0.738281,0 1.3125,0.25 1.71875,0.75 0.40625,0.492188 0.609375,1.15625 0.609375,2 0,0.542969 -0.09375,1.023438 -0.28125,1.4375 -0.1875,0.417969 -0.460938,0.742188 -0.8125,0.96875 C 3.8125,0.0078125 3.394531,0.125 2.90625,0.125 2.164062,0.125 1.585938,-0.117188 1.171875,-0.609375 0.765625,-1.109375 0.5625,-1.78125 0.5625,-2.625 c 0,-0.539062 0.09375,-1.019531 0.28125,-1.4375 0.1875,-0.414062 0.457031,-0.738281 0.8125,-0.96875 C 2.007812,-5.257812 2.429688,-5.375 2.921875,-5.375 Z m 0,0.734375 c -0.90625,0 -1.359375,0.671875 -1.359375,2.015625 0,1.335938 0.445312,2 1.34375,2 0.90625,0 1.359375,-0.664062 1.359375,-2 0,-1.34375 -0.449219,-2.015625 -1.34375,-2.015625 z m 0,0"
             id="id-eda1765a-96e7-408d-8950-6847b8b671f5" />
        </g>
        <g
           transform="translate(160.269,134.765)"
           id="g209352">
          <path
             d="m 3.421875,-5.375 c 0.476563,0 0.847656,0.148438 1.109375,0.4375 0.269531,0.28125 0.40625,0.671875 0.40625,1.171875 V 0 H 4.03125 v -3.640625 c 0,-0.375 -0.074219,-0.632813 -0.21875,-0.78125 -0.136719,-0.15625 -0.339844,-0.234375 -0.609375,-0.234375 -0.28125,0 -0.53125,0.085938 -0.75,0.25 -0.210937,0.15625 -0.40625,0.382812 -0.59375,0.671875 V 0 h -0.90625 v -5.25 h 0.78125 L 1.8125,-4.46875 C 2,-4.75 2.226562,-4.96875 2.5,-5.125 c 0.28125,-0.164062 0.585938,-0.25 0.921875,-0.25 z m 0,0"
             id="id-72cb6a87-dc4a-42ed-aeca-1297ce1ceb56" />
        </g>
        <g
           transform="translate(166.107,134.765)"
           id="g209355">
          <path
             d="M 5.015625,-7.359375 V 0 h -0.8125 L 4.109375,-0.734375 C 3.941406,-0.460938 3.726562,-0.25 3.46875,-0.09375 3.207031,0.0507812 2.921875,0.125 2.609375,0.125 c -0.625,0 -1.117187,-0.242188 -1.46875,-0.734375 -0.34375,-0.5 -0.515625,-1.164063 -0.515625,-2 0,-0.53125 0.078125,-1.003906 0.234375,-1.421875 0.164063,-0.425781 0.40625,-0.753906 0.71875,-0.984375 C 1.890625,-5.253906 2.257812,-5.375 2.6875,-5.375 c 0.53125,0 1,0.21875 1.40625,0.65625 v -2.765625 z m -2.21875,6.75 c 0.28125,0 0.519531,-0.0625 0.71875,-0.1875 0.195313,-0.132813 0.390625,-0.332031 0.578125,-0.59375 v -2.5625 C 3.925781,-4.179688 3.742188,-4.351562 3.546875,-4.46875 3.347656,-4.582031 3.125,-4.640625 2.875,-4.640625 c -0.40625,0 -0.71875,0.171875 -0.9375,0.515625 -0.21875,0.335938 -0.328125,0.835938 -0.328125,1.5 0,0.679688 0.097656,1.183594 0.296875,1.515625 0.207031,0.335937 0.503906,0.5 0.890625,0.5 z m 0,0"
             id="id-26558d1c-23b6-4eef-abf1-36ce370ac8d7" />
        </g>
        <g
           transform="translate(172.064,134.765)"
           id="g209358">
          <path
             d="m 2.921875,-5.375 c 0.738281,0 1.3125,0.25 1.71875,0.75 0.40625,0.492188 0.609375,1.15625 0.609375,2 0,0.542969 -0.09375,1.023438 -0.28125,1.4375 -0.1875,0.417969 -0.460938,0.742188 -0.8125,0.96875 C 3.8125,0.0078125 3.394531,0.125 2.90625,0.125 2.164062,0.125 1.585938,-0.117188 1.171875,-0.609375 0.765625,-1.109375 0.5625,-1.78125 0.5625,-2.625 c 0,-0.539062 0.09375,-1.019531 0.28125,-1.4375 0.1875,-0.414062 0.457031,-0.738281 0.8125,-0.96875 C 2.007812,-5.257812 2.429688,-5.375 2.921875,-5.375 Z m 0,0.734375 c -0.90625,0 -1.359375,0.671875 -1.359375,2.015625 0,1.335938 0.445312,2 1.34375,2 0.90625,0 1.359375,-0.664062 1.359375,-2 0,-1.34375 -0.449219,-2.015625 -1.34375,-2.015625 z m 0,0"
             id="id-aa7c5983-d36a-4010-bd41-54c86daac748" />
        </g>
      </g>
      <g
         fill="#000000"
         fill-opacity="1"
         id="id-c52ba3e0-0ff4-4f66-8c72-1686cd5effb9"
         transform="translate(-149.712,-127.281)">
        <g
           transform="translate(180.513,134.765)"
           id="g209362">
          <path
             d="m 2.859375,-5.375 c 0.3125,0 0.597656,0.046875 0.859375,0.140625 0.257812,0.085937 0.507812,0.226563 0.75,0.421875 l -0.4375,0.578125 c -0.1875,-0.125 -0.371094,-0.21875 -0.546875,-0.28125 -0.179687,-0.0625 -0.371094,-0.09375 -0.578125,-0.09375 -0.429688,0 -0.761719,0.171875 -1,0.515625 -0.230469,0.335938 -0.34375,0.828125 -0.34375,1.484375 0,0.667969 0.113281,1.164063 0.34375,1.484375 0.226562,0.3125 0.5625,0.46875 1,0.46875 0.195312,0 0.382812,-0.03125 0.5625,-0.09375 0.175781,-0.0625 0.367188,-0.164062 0.578125,-0.3125 L 4.46875,-0.453125 C 3.988281,-0.0664062 3.453125,0.125 2.859375,0.125 2.148438,0.125 1.585938,-0.113281 1.171875,-0.59375 0.765625,-1.070312 0.5625,-1.734375 0.5625,-2.578125 c 0,-0.5625 0.09375,-1.050781 0.28125,-1.46875 0.1875,-0.414063 0.453125,-0.738281 0.796875,-0.96875 0.34375,-0.238281 0.75,-0.359375 1.21875,-0.359375 z m 0,0"
             id="id-2005ca69-7d72-459e-9885-150c2cff49b6" />
        </g>
        <g
           transform="translate(185.275,134.765)"
           id="g209365">
          <path
             d="M 2,0.125 C 1.65625,0.125 1.382812,0.0234375 1.1875,-0.171875 0.988281,-0.378906 0.890625,-0.664062 0.890625,-1.03125 v -6.328125 l 0.921875,-0.125 V -1.0625 c 0,0.148438 0.023438,0.257812 0.078125,0.328125 0.050781,0.0625 0.132813,0.09375 0.25,0.09375 0.125,0 0.238281,-0.019531 0.34375,-0.0625 L 2.71875,-0.0625 C 2.5,0.0625 2.257812,0.125 2,0.125 Z m 0,0"
             id="id-918d59be-eafd-4597-8680-80242b24232a" />
        </g>
      </g>
      <g
         fill="#000000"
         fill-opacity="1"
         id="id-992a04e8-1853-41d9-97fb-829888aac0ab"
         transform="translate(-149.712,-127.281)">
        <g
           transform="translate(188.154,134.765)"
           id="g209369">
          <path
             d="m 2.921875,-5.375 c 0.738281,0 1.3125,0.25 1.71875,0.75 0.40625,0.492188 0.609375,1.15625 0.609375,2 0,0.542969 -0.09375,1.023438 -0.28125,1.4375 -0.1875,0.417969 -0.460938,0.742188 -0.8125,0.96875 C 3.8125,0.0078125 3.394531,0.125 2.90625,0.125 2.164062,0.125 1.585938,-0.117188 1.171875,-0.609375 0.765625,-1.109375 0.5625,-1.78125 0.5625,-2.625 c 0,-0.539062 0.09375,-1.019531 0.28125,-1.4375 0.1875,-0.414062 0.457031,-0.738281 0.8125,-0.96875 C 2.007812,-5.257812 2.429688,-5.375 2.921875,-5.375 Z m 0,0.734375 c -0.90625,0 -1.359375,0.671875 -1.359375,2.015625 0,1.335938 0.445312,2 1.34375,2 0.90625,0 1.359375,-0.664062 1.359375,-2 0,-1.34375 -0.449219,-2.015625 -1.34375,-2.015625 z m 0,0"
             id="id-7e7e2b25-4ace-4af2-a579-58d2125256ae" />
        </g>
        <g
           transform="translate(193.972,134.765)"
           id="g209372">
          <path
             d="M 4.859375,0 H 4.0625 L 4,-0.8125 C 3.800781,-0.488281 3.570312,-0.25 3.3125,-0.09375 3.050781,0.0507812 2.734375,0.125 2.359375,0.125 1.898438,0.125 1.539062,-0.015625 1.28125,-0.296875 1.019531,-0.578125 0.890625,-0.972656 0.890625,-1.484375 V -5.25 H 1.8125 v 3.671875 c 0,0.355469 0.0625,0.609375 0.1875,0.765625 0.125,0.148438 0.332031,0.21875 0.625,0.21875 0.507812,0 0.945312,-0.300781 1.3125,-0.90625 v -3.75 h 0.921875 z m 0,0"
             id="id-062adcd0-a2fc-41f6-963c-2f894347f0b0" />
        </g>
        <g
           transform="translate(199.77,134.765)"
           id="g209375">
          <path
             d="M 5.015625,-7.359375 V 0 h -0.8125 L 4.109375,-0.734375 C 3.941406,-0.460938 3.726562,-0.25 3.46875,-0.09375 3.207031,0.0507812 2.921875,0.125 2.609375,0.125 c -0.625,0 -1.117187,-0.242188 -1.46875,-0.734375 -0.34375,-0.5 -0.515625,-1.164063 -0.515625,-2 0,-0.53125 0.078125,-1.003906 0.234375,-1.421875 0.164063,-0.425781 0.40625,-0.753906 0.71875,-0.984375 C 1.890625,-5.253906 2.257812,-5.375 2.6875,-5.375 c 0.53125,0 1,0.21875 1.40625,0.65625 v -2.765625 z m -2.21875,6.75 c 0.28125,0 0.519531,-0.0625 0.71875,-0.1875 0.195313,-0.132813 0.390625,-0.332031 0.578125,-0.59375 v -2.5625 C 3.925781,-4.179688 3.742188,-4.351562 3.546875,-4.46875 3.347656,-4.582031 3.125,-4.640625 2.875,-4.640625 c -0.40625,0 -0.71875,0.171875 -0.9375,0.515625 -0.21875,0.335938 -0.328125,0.835938 -0.328125,1.5 0,0.679688 0.097656,1.183594 0.296875,1.515625 0.207031,0.335937 0.503906,0.5 0.890625,0.5 z m 0,0"
             id="id-4c2a267f-c1be-4b98-ae61-06f2cdbe56b8" />
        </g>
      </g>
    </g>
    <g
       transform="matrix(1.96306,0,0,1.96306,87.6454,147.04385)"
       ns6:version="1.8.2"
       ns6:texconverter="xelatex"
       ns6:pdfconverter="inkscape"
       ns6:text="$E_F$"
       ns6:preamble="/home/kirito/.config/textext/beamer_preamble.tex"
       ns6:scale="5.5645670052384295"
       ns6:alignment="middle center"
       ns6:stroke-to-path="0"
       ns6:inkscapeversion="1.1.1"
       ns6:jacobian_sqrt="1.96306"
       id="g211664">
      <defs
         id="id-250f3e51-1ccf-47e7-9978-db9c8e6ba4e3">
        <g
           id="id-bd1f9369-6c24-4653-ab81-0c977c894450">
          <g
             id="id-a65faefa-6ebe-4c64-ac00-bf8ffb20e80e">
            <path
               d="m 5.4375,-6.4375 v 5.890625 H 1.34375 V -6.4375 Z m 0.546875,-0.546875 h -5.1875 V 0 h 5.1875 z m -2.75,4.953125 c -0.21875,0 -0.40625,0.1875 -0.40625,0.421875 0,0.21875 0.1875,0.40625 0.40625,0.40625 0.25,0 0.421875,-0.1875 0.421875,-0.40625 0,-0.234375 -0.171875,-0.421875 -0.421875,-0.421875 z M 3.4375,-5.453125 c -0.5,0 -0.90625,0.1875 -1.25,0.59375 l 0.390625,0.28125 C 2.828125,-4.875 3.09375,-5 3.40625,-5 3.765625,-5 4,-4.8125 4,-4.484375 4,-3.84375 2.953125,-3.953125 2.953125,-2.9375 v 0.296875 H 3.5 V -2.90625 c 0,-0.796875 1.078125,-0.65625 1.078125,-1.625 0,-0.46875 -0.375,-0.921875 -1.140625,-0.921875 z m 0,0"
               id="id-72e36c78-f140-46f2-93c7-781a1cabd65d" />
          </g>
          <g
             id="id-5c7fda8b-cf5a-4fac-931e-578578873544">
            <path
               d="m 5.265625,-6.875 h -3.6875 L 0.625,0 h 3.75 l 0.109375,-0.75 h -2.8125 L 2,-3.109375 H 4.28125 L 4.390625,-3.875 H 2.09375 l 0.3125,-2.234375 h 2.640625 z m 0,0"
               id="id-e398e19d-18df-4a35-b9a5-25f697eaf128" />
          </g>
          <g
             id="id-edfa1c90-7678-4f96-9818-9762abfc2772">
            <path
               d="m 3.90625,-4.625 v 4.234375 H 0.96875 V -4.625 Z M 4.296875,-5.015625 H 0.578125 V 0 h 3.71875 z m -1.96875,3.5625 c -0.15625,0 -0.296875,0.125 -0.296875,0.296875 0,0.15625 0.140625,0.296875 0.296875,0.296875 C 2.5,-0.859375 2.625,-1 2.625,-1.15625 2.625,-1.328125 2.5,-1.453125 2.328125,-1.453125 Z m 0.140625,-2.46875 c -0.359375,0 -0.640625,0.140625 -0.890625,0.421875 L 1.84375,-3.296875 C 2.03125,-3.5 2.234375,-3.59375 2.453125,-3.59375 c 0.265625,0 0.4375,0.125 0.4375,0.359375 0,0.46875 -0.765625,0.390625 -0.765625,1.125 v 0.203125 h 0.390625 v -0.1875 c 0,-0.5625 0.78125,-0.46875 0.78125,-1.15625 0,-0.34375 -0.28125,-0.671875 -0.828125,-0.671875 z m 0,0"
               id="id-cc35f360-9324-41e6-a239-a5e920aeda48" />
          </g>
          <g
             id="id-b354c5d5-48ca-40f4-8c88-7a271ca00325">
            <path
               d="M 3.734375,-4.9375 H 1.140625 L 0.4375,0 H 1.125 L 1.421875,-2.171875 H 3.03125 L 3.09375,-2.71875 H 1.5 l 0.234375,-1.671875 h 1.84375 z m 0,0"
               id="id-f8963973-6523-46f6-98db-095392cfceb7" />
          </g>
        </g>
      </defs>
      <g
         fill="#000000"
         fill-opacity="1"
         id="id-0b16a763-a4e7-4ab1-acba-96dea17e9aa2"
         transform="translate(-149.337,-127.89)">
        <g
           transform="translate(148.712,134.765)"
           id="g212216">
          <path
             d="m 5.265625,-6.875 h -3.6875 L 0.625,0 h 3.75 l 0.109375,-0.75 h -2.8125 L 2,-3.109375 H 4.28125 L 4.390625,-3.875 H 2.09375 l 0.3125,-2.234375 h 2.640625 z m 0,0"
             id="id-25fba180-0195-4e73-95af-c38322ebcd70" />
        </g>
      </g>
      <g
         fill="#000000"
         fill-opacity="1"
         id="id-ad62ed46-0ed3-41a8-836d-bc0679dd583d"
         transform="translate(-149.337,-127.89)">
        <g
           transform="translate(153.983,138.252)"
           id="g212220">
          <path
             d="M 3.734375,-4.9375 H 1.140625 L 0.4375,0 H 1.125 L 1.421875,-2.171875 H 3.03125 L 3.09375,-2.71875 H 1.5 l 0.234375,-1.671875 h 1.84375 z m 0,0"
             id="id-4884dc6f-ce16-4939-addb-72b3e1338a55" />
        </g>
      </g>
    </g>
    <circle
       style="opacity:1;fill:#279bac;fill-opacity:1;stroke:none;stroke-width:3.2231;stroke-miterlimit:4;stroke-dasharray:3.2231, 9.66931;stroke-dashoffset:0;stroke-opacity:1"
       id="circle216408"
       cx="204.03207"
       cy="111.73188"
       r="7.2100315" />
    <g
       transform="matrix(1.60462,0,0,1.60462,199.85,87.0178)"
       ns6:version="1.8.2"
       ns6:texconverter="xelatex"
       ns6:pdfconverter="inkscape"
       ns6:text="$D_{j}$"
       ns6:preamble="/home/kirito/.config/textext/beamer_preamble.tex"
       ns6:scale="3.716552611832864"
       ns6:alignment="middle center"
       ns6:stroke-to-path="0"
       ns6:inkscapeversion="1.2.2"
       ns6:jacobian_sqrt="1.31112"
       id="g216460">
      <defs
         id="id-4e66ed77-087c-490c-a847-b5befd1e1353">
        <g
           id="id-b7aab779-34ee-4468-ac03-f1bdaf72fa05">
          <g
             id="id-03eeaea3-12d8-41bd-9ab0-cd00fce7f385">
            <path
               d="m 5.4375,-6.4375 v 5.890625 H 1.34375 V -6.4375 Z m 0.546875,-0.546875 h -5.1875 V 0 h 5.1875 z m -2.75,4.953125 c -0.21875,0 -0.40625,0.1875 -0.40625,0.421875 0,0.21875 0.1875,0.40625 0.40625,0.40625 0.25,0 0.421875,-0.1875 0.421875,-0.40625 0,-0.234375 -0.171875,-0.421875 -0.421875,-0.421875 z M 3.4375,-5.453125 c -0.5,0 -0.90625,0.1875 -1.25,0.59375 l 0.390625,0.28125 C 2.828125,-4.875 3.09375,-5 3.40625,-5 3.765625,-5 4,-4.8125 4,-4.484375 4,-3.84375 2.953125,-3.953125 2.953125,-2.9375 v 0.296875 H 3.5 V -2.90625 c 0,-0.796875 1.078125,-0.65625 1.078125,-1.625 0,-0.46875 -0.375,-0.921875 -1.140625,-0.921875 z m 0,0"
               id="id-4bfd7c97-fb57-4a49-8639-84bcc9ade39b" />
          </g>
          <g
             id="id-c9fa16aa-b688-4c5f-a747-d8eee275648b">
            <path
               d="m 3.125,-6.109375 c 0.96875,0 1.90625,0.21875 1.90625,1.828125 0,1.640625 -0.625,3.53125 -2.625,3.53125 H 1.671875 L 2.40625,-6.109375 Z M 2.984375,-6.875 H 1.578125 L 0.625,0 h 1.640625 c 2.71875,0 3.71875,-2.0625 3.71875,-4.265625 0,-2.140625 -1.4375,-2.609375 -3,-2.609375 z m 0,0"
               id="id-a1e1aad4-1b8b-454f-aadb-8938737e3191" />
          </g>
          <g
             id="id-1643ad91-07e6-4e30-a60c-766943cde6bc">
            <path
               d="m 3.90625,-4.625 v 4.234375 H 0.96875 V -4.625 Z M 4.296875,-5.015625 H 0.578125 V 0 h 3.71875 z m -1.96875,3.5625 c -0.15625,0 -0.296875,0.125 -0.296875,0.296875 0,0.15625 0.140625,0.296875 0.296875,0.296875 C 2.5,-0.859375 2.625,-1 2.625,-1.15625 2.625,-1.328125 2.5,-1.453125 2.328125,-1.453125 Z m 0.140625,-2.46875 c -0.359375,0 -0.640625,0.140625 -0.890625,0.421875 L 1.84375,-3.296875 C 2.03125,-3.5 2.234375,-3.59375 2.453125,-3.59375 c 0.265625,0 0.4375,0.125 0.4375,0.359375 0,0.46875 -0.765625,0.390625 -0.765625,1.125 v 0.203125 h 0.390625 v -0.1875 c 0,-0.5625 0.78125,-0.46875 0.78125,-1.15625 0,-0.34375 -0.28125,-0.671875 -0.828125,-0.671875 z m 0,0"
               id="id-c71928f0-b71c-491c-830d-f99c0219fcd5" />
          </g>
          <g
             id="id-f289441a-d88b-4d34-9ee5-ffe01e79b26d">
            <path
               d="M -0.328125,1.53125 C 0.515625,1.171875 0.9375,0.859375 1.09375,-0.203125 l 0.5,-3.578125 H 0.9375 l -0.5,3.578125 c -0.109375,0.8125 -0.4375,1 -0.953125,1.25 z m 1.75,-6.234375 c 0.28125,0 0.5,-0.203125 0.5,-0.484375 0,-0.234375 -0.171875,-0.40625 -0.421875,-0.40625 -0.28125,0 -0.5,0.203125 -0.5,0.484375 0,0.234375 0.171875,0.40625 0.421875,0.40625 z m 0,0"
               id="id-5dc747bd-9746-4c22-9666-01d81b07a714" />
          </g>
        </g>
      </defs>
      <g
         fill="#000000"
         fill-opacity="1"
         id="id-332e1667-ad0c-4aec-9456-eca4bfe0098c"
         transform="translate(-149.337,-127.89)">
        <g
           transform="translate(148.712,134.765)"
           id="g216831">
          <path
             d="m 3.125,-6.109375 c 0.96875,0 1.90625,0.21875 1.90625,1.828125 0,1.640625 -0.625,3.53125 -2.625,3.53125 H 1.671875 L 2.40625,-6.109375 Z M 2.984375,-6.875 H 1.578125 L 0.625,0 h 1.640625 c 2.71875,0 3.71875,-2.0625 3.71875,-4.265625 0,-2.140625 -1.4375,-2.609375 -3,-2.609375 z m 0,0"
             id="id-f863710b-b364-4a94-8085-cf650242f325" />
        </g>
      </g>
      <g
         fill="#000000"
         fill-opacity="1"
         id="id-a97ed2fd-18b7-4551-abc6-68e30f425623"
         transform="translate(-149.337,-127.89)">
        <g
           transform="translate(155.078,138.252)"
           id="g216835">
          <path
             d="M -0.328125,1.53125 C 0.515625,1.171875 0.9375,0.859375 1.09375,-0.203125 l 0.5,-3.578125 H 0.9375 l -0.5,3.578125 c -0.109375,0.8125 -0.4375,1 -0.953125,1.25 z m 1.75,-6.234375 c 0.28125,0 0.5,-0.203125 0.5,-0.484375 0,-0.234375 -0.171875,-0.40625 -0.421875,-0.40625 -0.28125,0 -0.5,0.203125 -0.5,0.484375 0,0.234375 0.171875,0.40625 0.421875,0.40625 z m 0,0"
             id="id-a2097909-3d85-4105-aa79-20c7f5bb9ee4" />
        </g>
      </g>
    </g>
    <g
       transform="matrix(1.96306,0,0,1.96306,160.967,144.69833)"
       ns6:version="1.8.2"
       ns6:texconverter="xelatex"
       ns6:pdfconverter="inkscape"
       ns6:text="$D^*$"
       ns6:preamble="/home/kirito/.config/textext/beamer_preamble.tex"
       ns6:scale="5.5645670052384295"
       ns6:alignment="middle center"
       ns6:stroke-to-path="0"
       ns6:inkscapeversion="1.2.2"
       ns6:jacobian_sqrt="1.96306"
       id="g216926">
      <defs
         id="id-31ef78d3-06d7-483a-84c2-c2b5bdedaa86">
        <g
           id="id-8db1fd90-cbf9-4493-bb2a-063d1b993b56">
          <g
             id="id-bc3fda20-1dc4-4c91-8d09-28ca52defe2c">
            <path
               d="m 5.4375,-6.4375 v 5.890625 H 1.34375 V -6.4375 Z m 0.546875,-0.546875 h -5.1875 V 0 h 5.1875 z m -2.75,4.953125 c -0.21875,0 -0.40625,0.1875 -0.40625,0.421875 0,0.21875 0.1875,0.40625 0.40625,0.40625 0.25,0 0.421875,-0.1875 0.421875,-0.40625 0,-0.234375 -0.171875,-0.421875 -0.421875,-0.421875 z M 3.4375,-5.453125 c -0.5,0 -0.90625,0.1875 -1.25,0.59375 l 0.390625,0.28125 C 2.828125,-4.875 3.09375,-5 3.40625,-5 3.765625,-5 4,-4.8125 4,-4.484375 4,-3.84375 2.953125,-3.953125 2.953125,-2.9375 v 0.296875 H 3.5 V -2.90625 c 0,-0.796875 1.078125,-0.65625 1.078125,-1.625 0,-0.46875 -0.375,-0.921875 -1.140625,-0.921875 z m 0,0"
               id="id-04f14992-1a0f-4087-9fee-c028aa7b02f3" />
          </g>
          <g
             id="id-b614cab7-43c8-4a8f-b376-931f2042236d">
            <path
               d="m 3.125,-6.109375 c 0.96875,0 1.90625,0.21875 1.90625,1.828125 0,1.640625 -0.625,3.53125 -2.625,3.53125 H 1.671875 L 2.40625,-6.109375 Z M 2.984375,-6.875 H 1.578125 L 0.625,0 h 1.640625 c 2.71875,0 3.71875,-2.0625 3.71875,-4.265625 0,-2.140625 -1.4375,-2.609375 -3,-2.609375 z m 0,0"
               id="id-2979b4d0-1f79-463a-a693-c5484f4d72c0" />
          </g>
          <g
             id="id-4b6c448e-e774-4a87-bff9-28157b852ed0">
            <path
               d="m 3.90625,-4.625 v 4.234375 H 0.96875 V -4.625 Z M 4.296875,-5.015625 H 0.578125 V 0 h 3.71875 z m -1.96875,3.5625 c -0.15625,0 -0.296875,0.125 -0.296875,0.296875 0,0.15625 0.140625,0.296875 0.296875,0.296875 C 2.5,-0.859375 2.625,-1 2.625,-1.15625 2.625,-1.328125 2.5,-1.453125 2.328125,-1.453125 Z m 0.140625,-2.46875 c -0.359375,0 -0.640625,0.140625 -0.890625,0.421875 L 1.84375,-3.296875 C 2.03125,-3.5 2.234375,-3.59375 2.453125,-3.59375 c 0.265625,0 0.4375,0.125 0.4375,0.359375 0,0.46875 -0.765625,0.390625 -0.765625,1.125 v 0.203125 h 0.390625 v -0.1875 c 0,-0.5625 0.78125,-0.46875 0.78125,-1.15625 0,-0.34375 -0.28125,-0.671875 -0.828125,-0.671875 z m 0,0"
               id="id-a15d6d86-f7c1-4a99-a5d0-20b3b4e4306b" />
          </g>
          <g
             id="id-1d44e9e9-edac-48e9-8a0c-18e9077e7411">
            <path
               d="M 3.265625,-2.09375 3.0625,-2.6875 2.046875,-2.234375 2.15625,-3.375 H 1.5 L 1.609375,-2.25 0.59375,-2.6875 0.40625,-2.09375 1.484375,-1.859375 0.75,-1.015625 l 0.515625,0.375 0.5625,-0.96875 0.5625,0.96875 L 2.90625,-1.03125 2.171875,-1.859375 Z m 0,0"
               id="id-e05e65c7-0769-44f7-9498-aa7a6109a1d2" />
          </g>
        </g>
      </defs>
      <g
         fill="#000000"
         fill-opacity="1"
         id="id-a6fd7510-5d19-4243-bdd2-c3ca28d1c20a"
         transform="translate(-149.337,-127.404)">
        <g
           transform="translate(148.712,134.765)"
           id="g217322">
          <path
             d="m 3.125,-6.109375 c 0.96875,0 1.90625,0.21875 1.90625,1.828125 0,1.640625 -0.625,3.53125 -2.625,3.53125 H 1.671875 L 2.40625,-6.109375 Z M 2.984375,-6.875 H 1.578125 L 0.625,0 h 1.640625 c 2.71875,0 3.71875,-2.0625 3.71875,-4.265625 0,-2.140625 -1.4375,-2.609375 -3,-2.609375 z m 0,0"
             id="id-2db25d1c-8974-4bbc-a440-082e78a967ae" />
        </g>
      </g>
      <g
         fill="#000000"
         fill-opacity="1"
         id="id-2b8e0cb3-6ca2-4357-ac7a-033ab77a8f1b"
         transform="translate(-149.337,-127.404)">
        <g
           transform="translate(155.228,130.779)"
           id="g217326">
          <path
             d="M 3.265625,-2.09375 3.0625,-2.6875 2.046875,-2.234375 2.15625,-3.375 H 1.5 L 1.609375,-2.25 0.59375,-2.6875 0.40625,-2.09375 1.484375,-1.859375 0.75,-1.015625 l 0.515625,0.375 0.5625,-0.96875 0.5625,0.96875 L 2.90625,-1.03125 2.171875,-1.859375 Z m 0,0"
             id="id-bc05b959-b516-4090-ad10-d05d7432c405" />
        </g>
      </g>
    </g>
    <g
       transform="matrix(1.5875,0,0,1.5875,235.989,85.5315)"
       ns6:version="1.8.2"
       ns6:texconverter="xelatex"
       ns6:pdfconverter="inkscape"
       ns6:text="$D_{N-1}$"
       ns6:preamble="/home/kirito/.config/textext/beamer_preamble.tex"
       ns6:scale="4.5"
       ns6:alignment="middle center"
       ns6:stroke-to-path="0"
       ns6:inkscapeversion="1.2.2"
       ns6:jacobian_sqrt="1.5875"
       id="g214571">
      <defs
         id="id-04ccbde5-a02d-49e9-abee-44a3212e5232">
        <g
           id="id-847fb49a-c617-4078-8fcb-8df2657bc1cf">
          <g
             id="id-91847cb3-8cb7-4360-930a-3d75422cbaaf">
            <path
               d="m 5.4375,-6.4375 v 5.890625 H 1.34375 V -6.4375 Z m 0.546875,-0.546875 h -5.1875 V 0 h 5.1875 z m -2.75,4.953125 c -0.21875,0 -0.40625,0.1875 -0.40625,0.421875 0,0.21875 0.1875,0.40625 0.40625,0.40625 0.25,0 0.421875,-0.1875 0.421875,-0.40625 0,-0.234375 -0.171875,-0.421875 -0.421875,-0.421875 z M 3.4375,-5.453125 c -0.5,0 -0.90625,0.1875 -1.25,0.59375 l 0.390625,0.28125 C 2.828125,-4.875 3.09375,-5 3.40625,-5 3.765625,-5 4,-4.8125 4,-4.484375 4,-3.84375 2.953125,-3.953125 2.953125,-2.9375 v 0.296875 H 3.5 V -2.90625 c 0,-0.796875 1.078125,-0.65625 1.078125,-1.625 0,-0.46875 -0.375,-0.921875 -1.140625,-0.921875 z m 0,0"
               id="id-affd1a70-658a-4a30-a73e-6ce9bfe91e2f" />
          </g>
          <g
             id="id-3baaebda-98e3-4d12-9e52-270b191092de">
            <path
               d="m 3.125,-6.109375 c 0.96875,0 1.90625,0.21875 1.90625,1.828125 0,1.640625 -0.625,3.53125 -2.625,3.53125 H 1.671875 L 2.40625,-6.109375 Z M 2.984375,-6.875 H 1.578125 L 0.625,0 h 1.640625 c 2.71875,0 3.71875,-2.0625 3.71875,-4.265625 0,-2.140625 -1.4375,-2.609375 -3,-2.609375 z m 0,0"
               id="id-84c5798a-0e4c-4658-be3c-78786cd5e5e4" />
          </g>
          <g
             id="id-30a37435-565c-4c8d-86ff-066dd30ab8a0">
            <path
               d="m 3.90625,-4.625 v 4.234375 H 0.96875 V -4.625 Z M 4.296875,-5.015625 H 0.578125 V 0 h 3.71875 z m -1.96875,3.5625 c -0.15625,0 -0.296875,0.125 -0.296875,0.296875 0,0.15625 0.140625,0.296875 0.296875,0.296875 C 2.5,-0.859375 2.625,-1 2.625,-1.15625 2.625,-1.328125 2.5,-1.453125 2.328125,-1.453125 Z m 0.140625,-2.46875 c -0.359375,0 -0.640625,0.140625 -0.890625,0.421875 L 1.84375,-3.296875 C 2.03125,-3.5 2.234375,-3.59375 2.453125,-3.59375 c 0.265625,0 0.4375,0.125 0.4375,0.359375 0,0.46875 -0.765625,0.390625 -0.765625,1.125 v 0.203125 h 0.390625 v -0.1875 c 0,-0.5625 0.78125,-0.46875 0.78125,-1.15625 0,-0.34375 -0.28125,-0.671875 -0.828125,-0.671875 z m 0,0"
               id="id-161635fa-4559-4f54-b2c3-70c72ca19254" />
          </g>
          <g
             id="id-3a4aff9d-88f7-4cef-a7a4-fd46b4a49e79">
            <path
               d="M 4.578125,-4.9375 H 3.9375 l -0.375,2.671875 c -0.078125,0.609375 -0.109375,1.03125 -0.109375,1.6875 L 2.03125,-4.9375 H 1.140625 L 0.4375,0 H 1.078125 L 1.40625,-2.25 c 0.125,-0.90625 0.171875,-1.5 0.171875,-2.109375 L 3,0 h 0.875 z m 0,0"
               id="id-aa27317f-cfcc-4993-8183-5786647d64e1" />
          </g>
          <g
             id="id-2e956a76-22ad-4321-865d-5bebe5b62706">
            <path
               d="M 0.4375,-1.734375 H 3.140625 V -2.28125 H 0.4375 Z m 0,0"
               id="id-3ee3797a-4ae1-4bda-9330-4b323a0e9a83" />
          </g>
          <g
             id="id-878885e4-9436-4ab3-9731-9de3f70ccdda">
            <path
               d="m 1.984375,0 h 0.65625 V -4.9375 H 2.0625 l -1.484375,0.921875 0.28125,0.453125 1.125,-0.671875 z m 0,0"
               id="id-b088c33b-8a96-49b6-adfe-679b97964b29" />
          </g>
        </g>
      </defs>
      <g
         fill="#000000"
         fill-opacity="1"
         id="id-fe74a39f-0bf6-467d-b1a1-817d449416b2"
         transform="translate(-149.337,-127.89)">
        <g
           transform="translate(148.712,134.765)"
           id="g218229">
          <path
             d="m 3.125,-6.109375 c 0.96875,0 1.90625,0.21875 1.90625,1.828125 0,1.640625 -0.625,3.53125 -2.625,3.53125 H 1.671875 L 2.40625,-6.109375 Z M 2.984375,-6.875 H 1.578125 L 0.625,0 h 1.640625 c 2.71875,0 3.71875,-2.0625 3.71875,-4.265625 0,-2.140625 -1.4375,-2.609375 -3,-2.609375 z m 0,0"
             id="id-9d263fa7-0245-4747-a091-0e2b01d80bb7" />
        </g>
      </g>
      <g
         fill="#000000"
         fill-opacity="1"
         id="id-ca0de928-bbcf-40ed-b3fe-12953cf64425"
         transform="translate(-149.337,-127.89)">
        <g
           transform="translate(155.078,138.252)"
           id="g218233">
          <path
             d="M 4.578125,-4.9375 H 3.9375 l -0.375,2.671875 c -0.078125,0.609375 -0.109375,1.03125 -0.109375,1.6875 L 2.03125,-4.9375 H 1.140625 L 0.4375,0 H 1.078125 L 1.40625,-2.25 c 0.125,-0.90625 0.171875,-1.5 0.171875,-2.109375 L 3,0 h 0.875 z m 0,0"
             id="id-ad24fb9b-8272-40a1-a7d9-07606f997314" />
        </g>
      </g>
      <g
         fill="#000000"
         fill-opacity="1"
         id="id-d684a31a-fbf5-419c-8e0d-350391bccb6a"
         transform="translate(-149.337,-127.89)">
        <g
           transform="translate(160.078,138.252)"
           id="g218237">
          <path
             d="M 0.4375,-1.734375 H 3.140625 V -2.28125 H 0.4375 Z m 0,0"
             id="id-96ea32b1-4483-4b8f-85cf-7500caa67fec" />
        </g>
        <g
           transform="translate(163.664,138.252)"
           id="g218240">
          <path
             d="m 1.984375,0 h 0.65625 V -4.9375 H 2.0625 l -1.484375,0.921875 0.28125,0.453125 1.125,-0.671875 z m 0,0"
             id="id-ec0c8107-4b73-4624-b8e8-fbbe0d97db16" />
        </g>
      </g>
    </g>
    <g
       transform="matrix(1.5875,0,0,1.5875,267.723,85.5315)"
       ns6:version="1.8.2"
       ns6:texconverter="xelatex"
       ns6:pdfconverter="inkscape"
       ns6:text="$D_N$"
       ns6:preamble="/home/kirito/.config/textext/beamer_preamble.tex"
       ns6:scale="4.5"
       ns6:alignment="middle center"
       ns6:stroke-to-path="0"
       ns6:inkscapeversion="1.2.2"
       ns6:jacobian_sqrt="1.5875"
       id="g214482">
      <defs
         id="id-4051c4ca-f140-4e36-81a5-02bcec493722">
        <g
           id="id-90e95895-0bd5-4ce9-bc17-417dd832f6a1">
          <g
             id="id-68ee0759-231c-4d4f-8b8f-4944a8cae210">
            <path
               d="m 5.4375,-6.4375 v 5.890625 H 1.34375 V -6.4375 Z m 0.546875,-0.546875 h -5.1875 V 0 h 5.1875 z m -2.75,4.953125 c -0.21875,0 -0.40625,0.1875 -0.40625,0.421875 0,0.21875 0.1875,0.40625 0.40625,0.40625 0.25,0 0.421875,-0.1875 0.421875,-0.40625 0,-0.234375 -0.171875,-0.421875 -0.421875,-0.421875 z M 3.4375,-5.453125 c -0.5,0 -0.90625,0.1875 -1.25,0.59375 l 0.390625,0.28125 C 2.828125,-4.875 3.09375,-5 3.40625,-5 3.765625,-5 4,-4.8125 4,-4.484375 4,-3.84375 2.953125,-3.953125 2.953125,-2.9375 v 0.296875 H 3.5 V -2.90625 c 0,-0.796875 1.078125,-0.65625 1.078125,-1.625 0,-0.46875 -0.375,-0.921875 -1.140625,-0.921875 z m 0,0"
               id="id-ec2eb2ac-b188-4e49-9d97-2b43f241d902" />
          </g>
          <g
             id="id-8d5e9c87-64c9-46a6-8925-100b8f67da38">
            <path
               d="m 3.125,-6.109375 c 0.96875,0 1.90625,0.21875 1.90625,1.828125 0,1.640625 -0.625,3.53125 -2.625,3.53125 H 1.671875 L 2.40625,-6.109375 Z M 2.984375,-6.875 H 1.578125 L 0.625,0 h 1.640625 c 2.71875,0 3.71875,-2.0625 3.71875,-4.265625 0,-2.140625 -1.4375,-2.609375 -3,-2.609375 z m 0,0"
               id="id-6a39268f-0c6e-4937-80ad-d1f836e1b963" />
          </g>
          <g
             id="id-867e5bf4-aa11-4c47-a985-67a05755a246">
            <path
               d="m 3.90625,-4.625 v 4.234375 H 0.96875 V -4.625 Z M 4.296875,-5.015625 H 0.578125 V 0 h 3.71875 z m -1.96875,3.5625 c -0.15625,0 -0.296875,0.125 -0.296875,0.296875 0,0.15625 0.140625,0.296875 0.296875,0.296875 C 2.5,-0.859375 2.625,-1 2.625,-1.15625 2.625,-1.328125 2.5,-1.453125 2.328125,-1.453125 Z m 0.140625,-2.46875 c -0.359375,0 -0.640625,0.140625 -0.890625,0.421875 L 1.84375,-3.296875 C 2.03125,-3.5 2.234375,-3.59375 2.453125,-3.59375 c 0.265625,0 0.4375,0.125 0.4375,0.359375 0,0.46875 -0.765625,0.390625 -0.765625,1.125 v 0.203125 h 0.390625 v -0.1875 c 0,-0.5625 0.78125,-0.46875 0.78125,-1.15625 0,-0.34375 -0.28125,-0.671875 -0.828125,-0.671875 z m 0,0"
               id="id-3ee6b62e-7eba-4d30-a496-95b75af89f36" />
          </g>
          <g
             id="id-f2604564-7a59-4c92-b9bd-a1ffd0596ec6">
            <path
               d="M 4.578125,-4.9375 H 3.9375 l -0.375,2.671875 c -0.078125,0.609375 -0.109375,1.03125 -0.109375,1.6875 L 2.03125,-4.9375 H 1.140625 L 0.4375,0 H 1.078125 L 1.40625,-2.25 c 0.125,-0.90625 0.171875,-1.5 0.171875,-2.109375 L 3,0 h 0.875 z m 0,0"
               id="id-d075246b-9e28-4946-a047-2bee185ceca7" />
          </g>
        </g>
      </defs>
      <g
         fill="#000000"
         fill-opacity="1"
         id="id-8c647f68-84bf-4190-807b-fa9f54ec03b0"
         transform="translate(-149.337,-127.89)">
        <g
           transform="translate(148.712,134.765)"
           id="g218702">
          <path
             d="m 3.125,-6.109375 c 0.96875,0 1.90625,0.21875 1.90625,1.828125 0,1.640625 -0.625,3.53125 -2.625,3.53125 H 1.671875 L 2.40625,-6.109375 Z M 2.984375,-6.875 H 1.578125 L 0.625,0 h 1.640625 c 2.71875,0 3.71875,-2.0625 3.71875,-4.265625 0,-2.140625 -1.4375,-2.609375 -3,-2.609375 z m 0,0"
             id="id-b4faebd9-37a2-4b1d-b856-9c00db5a6d37" />
        </g>
      </g>
      <g
         fill="#000000"
         fill-opacity="1"
         id="id-7524c5cb-746d-4971-b0f0-94afc9f3dd7c"
         transform="translate(-149.337,-127.89)">
        <g
           transform="translate(155.078,138.252)"
           id="g218706">
          <path
             d="M 4.578125,-4.9375 H 3.9375 l -0.375,2.671875 c -0.078125,0.609375 -0.109375,1.03125 -0.109375,1.6875 L 2.03125,-4.9375 H 1.140625 L 0.4375,0 H 1.078125 L 1.40625,-2.25 c 0.125,-0.90625 0.171875,-1.5 0.171875,-2.109375 L 3,0 h 0.875 z m 0,0"
             id="id-cde65f4a-0aa1-4fe9-8375-ab62dadf7728" />
        </g>
      </g>
    </g>
    <g
       transform="matrix(1.41111,0,0,1.41111,216.20862,121.48294)"
       ns6:version="1.8.2"
       ns6:texconverter="xelatex"
       ns6:pdfconverter="inkscape"
       ns6:text="\\centering\nintegrals\\\\\nof motion"
       ns6:preamble="/home/kirito/.config/textext/beamer_preamble.tex"
       ns6:scale="4.0"
       ns6:alignment="middle center"
       ns6:stroke-to-path="0"
       ns6:inkscapeversion="1.2.2"
       ns6:jacobian_sqrt="1.41111"
       id="g219487">
      <defs
         id="id-50bc68a6-6c0f-4274-a789-f6457d566df4">
        <g
           id="id-58688d7d-eee7-4207-8571-979a17aa079c">
          <g
             id="id-2ceaf5fd-29b4-431b-9e73-4dfbdc4c7c32">
            <path
               d="M 5.40625,-10.46875 V 3.484375 H 1.21875 V -10.46875 Z M 4.875,-9.953125 H 1.78125 V 2.96875 H 4.875 Z M 3.234375,-4.5 c 0.394531,0 0.675781,0.109375 0.84375,0.328125 0.175781,0.210937 0.265625,0.484375 0.265625,0.828125 0,0.34375 -0.078125,0.617188 -0.234375,0.8125 -0.148437,0.1875 -0.386719,0.308594 -0.71875,0.359375 v 0.453125 c 0,0.074219 -0.027344,0.132812 -0.078125,0.171875 -0.054688,0.042969 -0.109375,0.0625 -0.171875,0.0625 -0.0625,0 -0.121094,-0.019531 -0.171875,-0.0625 C 2.914062,-1.585938 2.890625,-1.644531 2.890625,-1.71875 V -2.5625 c 0.351563,-0.019531 0.59375,-0.082031 0.71875,-0.1875 0.125,-0.113281 0.1875,-0.304688 0.1875,-0.578125 0,-0.21875 -0.046875,-0.382813 -0.140625,-0.5 -0.085938,-0.125 -0.242188,-0.1875 -0.46875,-0.1875 -0.1875,0 -0.359375,0.039063 -0.515625,0.109375 -0.054687,0.023438 -0.09375,0.03125 -0.125,0.03125 -0.074219,0 -0.136719,-0.019531 -0.1875,-0.0625 -0.042969,-0.039062 -0.0625,-0.097656 -0.0625,-0.171875 0,-0.125 0.097656,-0.21875 0.296875,-0.28125 C 2.789062,-4.460938 3.003906,-4.5 3.234375,-4.5 Z m -0.09375,3.296875 c 0.101563,0 0.1875,0.039063 0.25,0.109375 0.0625,0.0625 0.09375,0.148438 0.09375,0.25 0,0.105469 -0.03125,0.195312 -0.09375,0.265625 -0.0625,0.0625 -0.148437,0.09375 -0.25,0.09375 -0.105469,0 -0.1875,-0.03125 -0.25,-0.09375 -0.0625,-0.070313 -0.09375,-0.160156 -0.09375,-0.265625 0,-0.101562 0.03125,-0.1875 0.09375,-0.25 0.0625,-0.070312 0.144531,-0.109375 0.25,-0.109375 z m 0,0"
               id="id-ddf61cd5-71d7-47df-aa78-6ef65e330d48" />
          </g>
          <g
             id="id-b97cd34f-e6e2-421b-87d0-5b9e0a959b1c">
            <path
               d="M 1.859375,-5.25 V 0 h -0.90625 v -5.25 z m -0.46875,-2.53125 c 0.195313,0 0.351563,0.0625 0.46875,0.1875 0.125,0.117188 0.1875,0.265625 0.1875,0.453125 0,0.179687 -0.0625,0.324219 -0.1875,0.4375 -0.117187,0.117187 -0.273437,0.171875 -0.46875,0.171875 -0.179687,0 -0.328125,-0.054688 -0.453125,-0.171875 -0.117188,-0.113281 -0.171875,-0.257813 -0.171875,-0.4375 0,-0.1875 0.054687,-0.335937 0.171875,-0.453125 0.125,-0.125 0.273438,-0.1875 0.453125,-0.1875 z m 0,0"
               id="id-08894cb9-e9ce-4b1a-aacd-52f811cf02b6" />
          </g>
          <g
             id="id-f30c26d8-1632-45ec-acb6-1f9bbcda4d01">
            <path
               d="m 3.421875,-5.375 c 0.476563,0 0.847656,0.148438 1.109375,0.4375 0.269531,0.28125 0.40625,0.671875 0.40625,1.171875 V 0 H 4.03125 v -3.640625 c 0,-0.375 -0.074219,-0.632813 -0.21875,-0.78125 -0.136719,-0.15625 -0.339844,-0.234375 -0.609375,-0.234375 -0.28125,0 -0.53125,0.085938 -0.75,0.25 -0.210937,0.15625 -0.40625,0.382812 -0.59375,0.671875 V 0 h -0.90625 v -5.25 h 0.78125 L 1.8125,-4.46875 C 2,-4.75 2.226562,-4.96875 2.5,-5.125 c 0.28125,-0.164062 0.585938,-0.25 0.921875,-0.25 z m 0,0"
               id="id-1236d4e6-f8c7-4615-969d-8a7f1ca3362a" />
          </g>
          <g
             id="id-7960c193-ca56-4525-ac2b-5c8f498fd64a">
            <path
               d="M 3.59375,-0.234375 C 3.25,0.00390625 2.859375,0.125 2.421875,0.125 1.972656,0.125 1.625,0 1.375,-0.25 1.125,-0.507812 1,-0.882812 1,-1.375 V -4.546875 H 0.09375 V -5.25 H 1 V -6.4375 L 1.921875,-6.546875 V -5.25 h 1.25 l -0.09375,0.703125 h -1.15625 v 3.125 c 0,0.28125 0.046875,0.484375 0.140625,0.609375 0.101562,0.117188 0.265625,0.171875 0.484375,0.171875 0.207031,0 0.441406,-0.066406 0.703125,-0.203125 z m 0,0"
               id="id-993aaece-3bd8-4e86-aacd-22fd912c99aa" />
          </g>
          <g
             id="id-156c54ed-2eae-4014-87a1-e713886fff66">
            <path
               d="m 4.921875,-2.78125 c 0,0.15625 -0.011719,0.3125 -0.03125,0.46875 h -3.34375 c 0.039063,0.574219 0.1875,1 0.4375,1.28125 0.25,0.273438 0.570313,0.40625 0.96875,0.40625 0.257813,0 0.492187,-0.035156 0.703125,-0.109375 C 3.875,-0.804688 4.097656,-0.925781 4.328125,-1.09375 l 0.390625,0.5625 C 4.164062,-0.09375 3.554688,0.125 2.890625,0.125 2.160156,0.125 1.585938,-0.113281 1.171875,-0.59375 0.765625,-1.070312 0.5625,-1.734375 0.5625,-2.578125 c 0,-0.539063 0.085938,-1.019531 0.265625,-1.4375 0.175781,-0.425781 0.425781,-0.757813 0.75,-1 C 1.910156,-5.253906 2.300781,-5.375 2.75,-5.375 c 0.695312,0 1.234375,0.230469 1.609375,0.6875 0.375,0.460938 0.5625,1.09375 0.5625,1.90625 z M 4,-3.046875 c 0,-0.519531 -0.105469,-0.914063 -0.3125,-1.1875 -0.199219,-0.269531 -0.507812,-0.40625 -0.921875,-0.40625 -0.75,0 -1.15625,0.554687 -1.21875,1.65625 H 4 Z m 0,0"
               id="id-9ef87374-696f-4f22-8026-e6d54f0489c3" />
          </g>
          <g
             id="id-ac8147e1-8173-4c46-8f32-565136d3408b">
            <path
               d="m 5.1875,-5.015625 c -0.199219,0.0625 -0.417969,0.105469 -0.65625,0.125 -0.242188,0.023437 -0.53125,0.03125 -0.875,0.03125 0.613281,0.28125 0.921875,0.726563 0.921875,1.328125 0,0.53125 -0.183594,0.964844 -0.546875,1.296875 C 3.675781,-1.910156 3.191406,-1.75 2.578125,-1.75 c -0.242187,0 -0.464844,-0.03125 -0.671875,-0.09375 -0.085938,0.054688 -0.152344,0.125 -0.203125,0.21875 -0.042969,0.085938 -0.0625,0.171875 -0.0625,0.265625 0,0.292969 0.226563,0.4375 0.6875,0.4375 h 0.84375 c 0.351563,0 0.664063,0.0625 0.9375,0.1875 0.269531,0.125 0.476563,0.296875 0.625,0.515625 C 4.890625,0 4.96875,0.25 4.96875,0.53125 4.96875,1.039062 4.753906,1.429688 4.328125,1.703125 3.910156,1.984375 3.300781,2.125 2.5,2.125 1.9375,2.125 1.488281,2.066406 1.15625,1.953125 0.832031,1.835938 0.597656,1.660156 0.453125,1.421875 0.316406,1.191406 0.25,0.894531 0.25,0.53125 h 0.828125 c 0,0.207031 0.035156,0.375 0.109375,0.5 C 1.269531,1.15625 1.414062,1.25 1.625,1.3125 1.832031,1.375 2.125,1.40625 2.5,1.40625 3.050781,1.40625 3.441406,1.335938 3.671875,1.203125 3.910156,1.066406 4.03125,0.863281 4.03125,0.59375 c 0,-0.25 -0.09375,-0.4375 -0.28125,-0.5625 -0.179688,-0.125 -0.433594,-0.1875 -0.765625,-0.1875 H 2.15625 c -0.449219,0 -0.789062,-0.09375 -1.015625,-0.28125 -0.230469,-0.195312 -0.34375,-0.4375 -0.34375,-0.71875 0,-0.175781 0.046875,-0.34375 0.140625,-0.5 0.101562,-0.15625 0.25,-0.296875 0.4375,-0.421875 -0.304688,-0.164063 -0.527344,-0.363281 -0.671875,-0.59375 -0.148437,-0.238281 -0.21875,-0.523437 -0.21875,-0.859375 0,-0.351562 0.085937,-0.671875 0.265625,-0.953125 0.175781,-0.28125 0.414062,-0.5 0.71875,-0.65625 0.3125,-0.15625 0.660156,-0.234375 1.046875,-0.234375 0.40625,0.011719 0.75,0 1.03125,-0.03125 0.28125,-0.039062 0.507813,-0.09375 0.6875,-0.15625 0.1875,-0.0625 0.414063,-0.15625 0.6875,-0.28125 z M 2.515625,-4.71875 c -0.34375,0 -0.617187,0.109375 -0.8125,0.328125 -0.1875,0.21875 -0.28125,0.507813 -0.28125,0.859375 0,0.355469 0.09375,0.640625 0.28125,0.859375 0.195313,0.210937 0.472656,0.3125 0.828125,0.3125 0.363281,0 0.640625,-0.101563 0.828125,-0.3125 0.1875,-0.207031 0.28125,-0.5 0.28125,-0.875 0,-0.78125 -0.375,-1.171875 -1.125,-1.171875 z m 0,0"
               id="id-6da2554c-e3e3-4308-b881-bc68992841a7" />
          </g>
          <g
             id="id-a564b691-721a-442f-bd40-b788dda9c232">
            <path
               d="m 3.234375,-5.375 c 0.1875,0 0.359375,0.023438 0.515625,0.0625 L 3.578125,-4.421875 C 3.421875,-4.453125 3.269531,-4.46875 3.125,-4.46875 c -0.335938,0 -0.601562,0.121094 -0.796875,0.359375 C 2.128906,-3.878906 1.972656,-3.507812 1.859375,-3 v 3 h -0.90625 v -5.25 h 0.78125 l 0.09375,1.0625 C 1.960938,-4.582031 2.148438,-4.878906 2.390625,-5.078125 2.628906,-5.273438 2.910156,-5.375 3.234375,-5.375 Z m 0,0"
               id="id-80116f57-6d0a-4d2b-8f09-f1b1481d4b7e" />
          </g>
          <g
             id="id-3effdf3a-fbce-472b-92a4-cb51eac36fcb">
            <path
               d="m 4.484375,-1.21875 c 0,0.210938 0.035156,0.367188 0.109375,0.46875 0.070312,0.105469 0.179688,0.183594 0.328125,0.234375 L 4.71875,0.125 C 4.445312,0.0820312 4.226562,0.00390625 4.0625,-0.109375 c -0.167969,-0.125 -0.292969,-0.3125 -0.375,-0.5625 C 3.332031,-0.140625 2.8125,0.125 2.125,0.125 c -0.523438,0 -0.933594,-0.1445312 -1.234375,-0.4375 -0.292969,-0.289062 -0.4375,-0.675781 -0.4375,-1.15625 0,-0.550781 0.195313,-0.976562 0.59375,-1.28125 0.40625,-0.300781 0.976563,-0.453125 1.71875,-0.453125 H 3.5625 V -3.59375 c 0,-0.363281 -0.089844,-0.625 -0.265625,-0.78125 -0.179687,-0.164062 -0.453125,-0.25 -0.828125,-0.25 -0.386719,0 -0.855469,0.09375 -1.40625,0.28125 L 0.828125,-5.015625 c 0.644531,-0.238281 1.25,-0.359375 1.8125,-0.359375 0.613281,0 1.070313,0.152344 1.375,0.453125 0.3125,0.304687 0.46875,0.734375 0.46875,1.296875 z m -2.15625,0.65625 c 0.53125,0 0.941406,-0.273438 1.234375,-0.828125 V -2.59375 H 2.875 c -0.96875,0 -1.453125,0.359375 -1.453125,1.078125 0,0.3125 0.078125,0.554687 0.234375,0.71875 0.15625,0.15625 0.378906,0.234375 0.671875,0.234375 z m 0,0"
               id="id-5f74fb6f-ec2e-4ac6-b080-7694a2d12482" />
          </g>
          <g
             id="id-9027f5b4-4878-4c63-8bdf-b176bdf82f0b">
            <path
               d="M 2,0.125 C 1.65625,0.125 1.382812,0.0234375 1.1875,-0.171875 0.988281,-0.378906 0.890625,-0.664062 0.890625,-1.03125 v -6.328125 l 0.921875,-0.125 V -1.0625 c 0,0.148438 0.023438,0.257812 0.078125,0.328125 0.050781,0.0625 0.132813,0.09375 0.25,0.09375 0.125,0 0.238281,-0.019531 0.34375,-0.0625 L 2.71875,-0.0625 C 2.5,0.0625 2.257812,0.125 2,0.125 Z m 0,0"
               id="id-4101f604-b914-4b52-af8a-49485ac18bfa" />
          </g>
          <g
             id="id-3a997fff-0fac-4206-81c7-7f823fdcf7a3">
            <path
               d="m 2.375,-5.375 c 0.351562,0 0.671875,0.054688 0.953125,0.15625 0.289063,0.09375 0.566406,0.242188 0.828125,0.4375 L 3.765625,-4.203125 C 3.523438,-4.347656 3.296875,-4.457031 3.078125,-4.53125 2.867188,-4.601562 2.644531,-4.640625 2.40625,-4.640625 c -0.304688,0 -0.542969,0.0625 -0.71875,0.1875 -0.167969,0.117187 -0.25,0.28125 -0.25,0.5 0,0.210937 0.078125,0.375 0.234375,0.5 0.164063,0.117187 0.460937,0.230469 0.890625,0.34375 0.582031,0.148437 1.019531,0.34375 1.3125,0.59375 0.289062,0.25 0.4375,0.601563 0.4375,1.046875 0,0.511719 -0.203125,0.90625 -0.609375,1.1875 C 3.296875,-0.0078125 2.804688,0.125 2.234375,0.125 1.429688,0.125 0.769531,-0.101562 0.25,-0.5625 L 0.734375,-1.125 c 0.445313,0.335938 0.941406,0.5 1.484375,0.5 0.34375,0 0.613281,-0.066406 0.8125,-0.203125 0.207031,-0.144531 0.3125,-0.34375 0.3125,-0.59375 0,-0.175781 -0.039062,-0.316406 -0.109375,-0.421875 C 3.160156,-1.957031 3.03125,-2.054688 2.84375,-2.140625 2.664062,-2.222656 2.40625,-2.3125 2.0625,-2.40625 1.5,-2.550781 1.09375,-2.742188 0.84375,-2.984375 c -0.242188,-0.25 -0.359375,-0.5625 -0.359375,-0.9375 0,-0.28125 0.078125,-0.53125 0.234375,-0.75 C 0.882812,-4.890625 1.109375,-5.0625 1.390625,-5.1875 1.679688,-5.3125 2.007812,-5.375 2.375,-5.375 Z m 0,0"
               id="id-eaf6415e-913e-45d3-bb22-66373c44a7a0" />
          </g>
          <g
             id="id-6b875770-5e5c-4e1a-9eb7-401664b2d8d6">
            <path
               d="m 2.921875,-5.375 c 0.738281,0 1.3125,0.25 1.71875,0.75 0.40625,0.492188 0.609375,1.15625 0.609375,2 0,0.542969 -0.09375,1.023438 -0.28125,1.4375 -0.1875,0.417969 -0.460938,0.742188 -0.8125,0.96875 C 3.8125,0.0078125 3.394531,0.125 2.90625,0.125 2.164062,0.125 1.585938,-0.117188 1.171875,-0.609375 0.765625,-1.109375 0.5625,-1.78125 0.5625,-2.625 c 0,-0.539062 0.09375,-1.019531 0.28125,-1.4375 0.1875,-0.414062 0.457031,-0.738281 0.8125,-0.96875 C 2.007812,-5.257812 2.429688,-5.375 2.921875,-5.375 Z m 0,0.734375 c -0.90625,0 -1.359375,0.671875 -1.359375,2.015625 0,1.335938 0.445312,2 1.34375,2 0.90625,0 1.359375,-0.664062 1.359375,-2 0,-1.34375 -0.449219,-2.015625 -1.34375,-2.015625 z m 0,0"
               id="id-c10c4f9b-3190-4e3a-ae5b-1d979b1232aa" />
          </g>
          <g
             id="id-8102aba6-7a61-4c6d-b10c-5da41376b881">
            <path
               d="m 2.734375,-6.734375 c -0.28125,0 -0.484375,0.0625 -0.609375,0.1875 -0.117188,0.117187 -0.171875,0.304687 -0.171875,0.5625 V -5.25 h 1.28125 L 3.125,-4.546875 H 1.953125 V 0 H 1.03125 V -4.546875 H 0.09375 V -5.25 h 0.9375 v -0.71875 c 0,-0.457031 0.144531,-0.820312 0.4375,-1.09375 0.289062,-0.28125 0.695312,-0.421875 1.21875,-0.421875 0.238281,0 0.453125,0.027344 0.640625,0.078125 0.1875,0.042969 0.390625,0.109375 0.609375,0.203125 l -0.28125,0.65625 c -0.304688,-0.125 -0.609375,-0.1875 -0.921875,-0.1875 z m 0,0"
               id="id-24bb0bf4-1e6c-4aaa-89bb-6c5909f6b346" />
          </g>
          <g
             id="id-724ef4f5-3b5e-4107-b7a9-eb96c197d7fd">
            <path
               d="m 6.21875,-5.375 c 0.4375,0 0.78125,0.148438 1.03125,0.4375 0.257812,0.292969 0.390625,0.683594 0.390625,1.171875 V 0 h -0.90625 v -3.640625 c 0,-0.675781 -0.25,-1.015625 -0.75,-1.015625 -0.25,0 -0.46875,0.078125 -0.65625,0.234375 -0.179687,0.148437 -0.371094,0.375 -0.578125,0.6875 V 0 H 3.84375 v -3.640625 c 0,-0.675781 -0.25,-1.015625 -0.75,-1.015625 -0.261719,0 -0.484375,0.078125 -0.671875,0.234375 -0.179687,0.148437 -0.367187,0.375 -0.5625,0.6875 V 0 h -0.90625 v -5.25 h 0.78125 L 1.8125,-4.484375 C 2.207031,-5.078125 2.710938,-5.375 3.328125,-5.375 c 0.320313,0 0.597656,0.085938 0.828125,0.25 0.226562,0.167969 0.394531,0.402344 0.5,0.703125 0.207031,-0.3125 0.4375,-0.546875 0.6875,-0.703125 0.25,-0.164062 0.539062,-0.25 0.875,-0.25 z m 0,0"
               id="id-7e2b3a17-c531-40f8-8d4d-4c2abfc76d0a" />
          </g>
        </g>
      </defs>
      <g
         fill="#000000"
         fill-opacity="1"
         id="id-54ade708-b8d8-4b56-b06a-71f08a33e9b3"
         transform="translate(-284.079,-126.984)">
        <g
           transform="translate(286.077,134.765)"
           id="g220906">
          <path
             d="M 1.859375,-5.25 V 0 h -0.90625 v -5.25 z m -0.46875,-2.53125 c 0.195313,0 0.351563,0.0625 0.46875,0.1875 0.125,0.117188 0.1875,0.265625 0.1875,0.453125 0,0.179687 -0.0625,0.324219 -0.1875,0.4375 -0.117187,0.117187 -0.273437,0.171875 -0.46875,0.171875 -0.179687,0 -0.328125,-0.054688 -0.453125,-0.171875 -0.117188,-0.113281 -0.171875,-0.257813 -0.171875,-0.4375 0,-0.1875 0.054687,-0.335937 0.171875,-0.453125 0.125,-0.125 0.273438,-0.1875 0.453125,-0.1875 z m 0,0"
             id="id-5b946d3f-b87d-45c3-9f83-fe6d9519c307" />
        </g>
        <g
           transform="translate(288.886,134.765)"
           id="g220909">
          <path
             d="m 3.421875,-5.375 c 0.476563,0 0.847656,0.148438 1.109375,0.4375 0.269531,0.28125 0.40625,0.671875 0.40625,1.171875 V 0 H 4.03125 v -3.640625 c 0,-0.375 -0.074219,-0.632813 -0.21875,-0.78125 -0.136719,-0.15625 -0.339844,-0.234375 -0.609375,-0.234375 -0.28125,0 -0.53125,0.085938 -0.75,0.25 -0.210937,0.15625 -0.40625,0.382812 -0.59375,0.671875 V 0 h -0.90625 v -5.25 h 0.78125 L 1.8125,-4.46875 C 2,-4.75 2.226562,-4.96875 2.5,-5.125 c 0.28125,-0.164062 0.585938,-0.25 0.921875,-0.25 z m 0,0"
             id="id-1f880b7b-13e4-4602-a02b-bb28dd7075ac" />
        </g>
        <g
           transform="translate(294.725,134.765)"
           id="g220912">
          <path
             d="M 3.59375,-0.234375 C 3.25,0.00390625 2.859375,0.125 2.421875,0.125 1.972656,0.125 1.625,0 1.375,-0.25 1.125,-0.507812 1,-0.882812 1,-1.375 V -4.546875 H 0.09375 V -5.25 H 1 V -6.4375 L 1.921875,-6.546875 V -5.25 h 1.25 l -0.09375,0.703125 h -1.15625 v 3.125 c 0,0.28125 0.046875,0.484375 0.140625,0.609375 0.101562,0.117188 0.265625,0.171875 0.484375,0.171875 0.207031,0 0.441406,-0.066406 0.703125,-0.203125 z m 0,0"
             id="id-94de4ca2-fd44-4880-bb67-0f16a54cb0cc" />
        </g>
      </g>
      <g
         fill="#000000"
         fill-opacity="1"
         id="id-76d40d66-949c-4647-a86a-9567c5c12a6e"
         transform="translate(-284.079,-126.984)">
        <g
           transform="translate(298.182,134.765)"
           id="g220916">
          <path
             d="m 4.921875,-2.78125 c 0,0.15625 -0.011719,0.3125 -0.03125,0.46875 h -3.34375 c 0.039063,0.574219 0.1875,1 0.4375,1.28125 0.25,0.273438 0.570313,0.40625 0.96875,0.40625 0.257813,0 0.492187,-0.035156 0.703125,-0.109375 C 3.875,-0.804688 4.097656,-0.925781 4.328125,-1.09375 l 0.390625,0.5625 C 4.164062,-0.09375 3.554688,0.125 2.890625,0.125 2.160156,0.125 1.585938,-0.113281 1.171875,-0.59375 0.765625,-1.070312 0.5625,-1.734375 0.5625,-2.578125 c 0,-0.539063 0.085938,-1.019531 0.265625,-1.4375 0.175781,-0.425781 0.425781,-0.757813 0.75,-1 C 1.910156,-5.253906 2.300781,-5.375 2.75,-5.375 c 0.695312,0 1.234375,0.230469 1.609375,0.6875 0.375,0.460938 0.5625,1.09375 0.5625,1.90625 z M 4,-3.046875 c 0,-0.519531 -0.105469,-0.914063 -0.3125,-1.1875 -0.199219,-0.269531 -0.507812,-0.40625 -0.921875,-0.40625 -0.75,0 -1.15625,0.554687 -1.21875,1.65625 H 4 Z m 0,0"
             id="id-0ff2834b-0885-48c2-ab40-a3c2bc8791dc" />
        </g>
        <g
           transform="translate(303.611,134.765)"
           id="g220919">
          <path
             d="m 5.1875,-5.015625 c -0.199219,0.0625 -0.417969,0.105469 -0.65625,0.125 -0.242188,0.023437 -0.53125,0.03125 -0.875,0.03125 0.613281,0.28125 0.921875,0.726563 0.921875,1.328125 0,0.53125 -0.183594,0.964844 -0.546875,1.296875 C 3.675781,-1.910156 3.191406,-1.75 2.578125,-1.75 c -0.242187,0 -0.464844,-0.03125 -0.671875,-0.09375 -0.085938,0.054688 -0.152344,0.125 -0.203125,0.21875 -0.042969,0.085938 -0.0625,0.171875 -0.0625,0.265625 0,0.292969 0.226563,0.4375 0.6875,0.4375 h 0.84375 c 0.351563,0 0.664063,0.0625 0.9375,0.1875 0.269531,0.125 0.476563,0.296875 0.625,0.515625 C 4.890625,0 4.96875,0.25 4.96875,0.53125 4.96875,1.039062 4.753906,1.429688 4.328125,1.703125 3.910156,1.984375 3.300781,2.125 2.5,2.125 1.9375,2.125 1.488281,2.066406 1.15625,1.953125 0.832031,1.835938 0.597656,1.660156 0.453125,1.421875 0.316406,1.191406 0.25,0.894531 0.25,0.53125 h 0.828125 c 0,0.207031 0.035156,0.375 0.109375,0.5 C 1.269531,1.15625 1.414062,1.25 1.625,1.3125 1.832031,1.375 2.125,1.40625 2.5,1.40625 3.050781,1.40625 3.441406,1.335938 3.671875,1.203125 3.910156,1.066406 4.03125,0.863281 4.03125,0.59375 c 0,-0.25 -0.09375,-0.4375 -0.28125,-0.5625 -0.179688,-0.125 -0.433594,-0.1875 -0.765625,-0.1875 H 2.15625 c -0.449219,0 -0.789062,-0.09375 -1.015625,-0.28125 -0.230469,-0.195312 -0.34375,-0.4375 -0.34375,-0.71875 0,-0.175781 0.046875,-0.34375 0.140625,-0.5 0.101562,-0.15625 0.25,-0.296875 0.4375,-0.421875 -0.304688,-0.164063 -0.527344,-0.363281 -0.671875,-0.59375 -0.148437,-0.238281 -0.21875,-0.523437 -0.21875,-0.859375 0,-0.351562 0.085937,-0.671875 0.265625,-0.953125 0.175781,-0.28125 0.414062,-0.5 0.71875,-0.65625 0.3125,-0.15625 0.660156,-0.234375 1.046875,-0.234375 0.40625,0.011719 0.75,0 1.03125,-0.03125 0.28125,-0.039062 0.507813,-0.09375 0.6875,-0.15625 0.1875,-0.0625 0.414063,-0.15625 0.6875,-0.28125 z M 2.515625,-4.71875 c -0.34375,0 -0.617187,0.109375 -0.8125,0.328125 -0.1875,0.21875 -0.28125,0.507813 -0.28125,0.859375 0,0.355469 0.09375,0.640625 0.28125,0.859375 0.195313,0.210937 0.472656,0.3125 0.828125,0.3125 0.363281,0 0.640625,-0.101563 0.828125,-0.3125 0.1875,-0.207031 0.28125,-0.5 0.28125,-0.875 0,-0.78125 -0.375,-1.171875 -1.125,-1.171875 z m 0,0"
             id="id-a3e1f67d-b694-4f3a-aacf-8f90c33fd8fc" />
        </g>
        <g
           transform="translate(308.792,134.765)"
           id="g220922">
          <path
             d="m 3.234375,-5.375 c 0.1875,0 0.359375,0.023438 0.515625,0.0625 L 3.578125,-4.421875 C 3.421875,-4.453125 3.269531,-4.46875 3.125,-4.46875 c -0.335938,0 -0.601562,0.121094 -0.796875,0.359375 C 2.128906,-3.878906 1.972656,-3.507812 1.859375,-3 v 3 h -0.90625 v -5.25 h 0.78125 l 0.09375,1.0625 C 1.960938,-4.582031 2.148438,-4.878906 2.390625,-5.078125 2.628906,-5.273438 2.910156,-5.375 3.234375,-5.375 Z m 0,0"
             id="id-adc39e36-78f4-4715-a664-b2358363ce38" />
        </g>
      </g>
      <g
         fill="#000000"
         fill-opacity="1"
         id="id-89cdce4e-6772-4b8b-8a61-d159b92a042b"
         transform="translate(-284.079,-126.984)">
        <g
           transform="translate(312.289,134.765)"
           id="g220926">
          <path
             d="m 4.484375,-1.21875 c 0,0.210938 0.035156,0.367188 0.109375,0.46875 0.070312,0.105469 0.179688,0.183594 0.328125,0.234375 L 4.71875,0.125 C 4.445312,0.0820312 4.226562,0.00390625 4.0625,-0.109375 c -0.167969,-0.125 -0.292969,-0.3125 -0.375,-0.5625 C 3.332031,-0.140625 2.8125,0.125 2.125,0.125 c -0.523438,0 -0.933594,-0.1445312 -1.234375,-0.4375 -0.292969,-0.289062 -0.4375,-0.675781 -0.4375,-1.15625 0,-0.550781 0.195313,-0.976562 0.59375,-1.28125 0.40625,-0.300781 0.976563,-0.453125 1.71875,-0.453125 H 3.5625 V -3.59375 c 0,-0.363281 -0.089844,-0.625 -0.265625,-0.78125 -0.179687,-0.164062 -0.453125,-0.25 -0.828125,-0.25 -0.386719,0 -0.855469,0.09375 -1.40625,0.28125 L 0.828125,-5.015625 c 0.644531,-0.238281 1.25,-0.359375 1.8125,-0.359375 0.613281,0 1.070313,0.152344 1.375,0.453125 0.3125,0.304687 0.46875,0.734375 0.46875,1.296875 z m -2.15625,0.65625 c 0.53125,0 0.941406,-0.273438 1.234375,-0.828125 V -2.59375 H 2.875 c -0.96875,0 -1.453125,0.359375 -1.453125,1.078125 0,0.3125 0.078125,0.554687 0.234375,0.71875 0.15625,0.15625 0.378906,0.234375 0.671875,0.234375 z m 0,0"
             id="id-2973d014-f7bc-417b-b5e6-2bed7ce45025" />
        </g>
      </g>
      <g
         fill="#000000"
         fill-opacity="1"
         id="id-d6125bc1-f746-43db-a4e6-fc309268752a"
         transform="translate(-284.079,-126.984)">
        <g
           transform="translate(317.609,134.765)"
           id="g220930">
          <path
             d="M 2,0.125 C 1.65625,0.125 1.382812,0.0234375 1.1875,-0.171875 0.988281,-0.378906 0.890625,-0.664062 0.890625,-1.03125 v -6.328125 l 0.921875,-0.125 V -1.0625 c 0,0.148438 0.023438,0.257812 0.078125,0.328125 0.050781,0.0625 0.132813,0.09375 0.25,0.09375 0.125,0 0.238281,-0.019531 0.34375,-0.0625 L 2.71875,-0.0625 C 2.5,0.0625 2.257812,0.125 2,0.125 Z m 0,0"
             id="id-1b67a8fd-6939-46be-b7f0-344eaf76373d" />
        </g>
        <g
           transform="translate(320.528,134.765)"
           id="g220933">
          <path
             d="m 2.375,-5.375 c 0.351562,0 0.671875,0.054688 0.953125,0.15625 0.289063,0.09375 0.566406,0.242188 0.828125,0.4375 L 3.765625,-4.203125 C 3.523438,-4.347656 3.296875,-4.457031 3.078125,-4.53125 2.867188,-4.601562 2.644531,-4.640625 2.40625,-4.640625 c -0.304688,0 -0.542969,0.0625 -0.71875,0.1875 -0.167969,0.117187 -0.25,0.28125 -0.25,0.5 0,0.210937 0.078125,0.375 0.234375,0.5 0.164063,0.117187 0.460937,0.230469 0.890625,0.34375 0.582031,0.148437 1.019531,0.34375 1.3125,0.59375 0.289062,0.25 0.4375,0.601563 0.4375,1.046875 0,0.511719 -0.203125,0.90625 -0.609375,1.1875 C 3.296875,-0.0078125 2.804688,0.125 2.234375,0.125 1.429688,0.125 0.769531,-0.101562 0.25,-0.5625 L 0.734375,-1.125 c 0.445313,0.335938 0.941406,0.5 1.484375,0.5 0.34375,0 0.613281,-0.066406 0.8125,-0.203125 0.207031,-0.144531 0.3125,-0.34375 0.3125,-0.59375 0,-0.175781 -0.039062,-0.316406 -0.109375,-0.421875 C 3.160156,-1.957031 3.03125,-2.054688 2.84375,-2.140625 2.664062,-2.222656 2.40625,-2.3125 2.0625,-2.40625 1.5,-2.550781 1.09375,-2.742188 0.84375,-2.984375 c -0.242188,-0.25 -0.359375,-0.5625 -0.359375,-0.9375 0,-0.28125 0.078125,-0.53125 0.234375,-0.75 C 0.882812,-4.890625 1.109375,-5.0625 1.390625,-5.1875 1.679688,-5.3125 2.007812,-5.375 2.375,-5.375 Z m 0,0"
             id="id-20168bc2-820b-458d-82a2-31780ae8c07f" />
        </g>
      </g>
      <g
         fill="#000000"
         fill-opacity="1"
         id="id-6ec76fe4-112e-4de3-9cf2-2ce6e0886fcf"
         transform="translate(-284.079,-126.984)">
        <g
           transform="translate(283.517,146.72)"
           id="g220937">
          <path
             d="m 2.921875,-5.375 c 0.738281,0 1.3125,0.25 1.71875,0.75 0.40625,0.492188 0.609375,1.15625 0.609375,2 0,0.542969 -0.09375,1.023438 -0.28125,1.4375 -0.1875,0.417969 -0.460938,0.742188 -0.8125,0.96875 C 3.8125,0.0078125 3.394531,0.125 2.90625,0.125 2.164062,0.125 1.585938,-0.117188 1.171875,-0.609375 0.765625,-1.109375 0.5625,-1.78125 0.5625,-2.625 c 0,-0.539062 0.09375,-1.019531 0.28125,-1.4375 0.1875,-0.414062 0.457031,-0.738281 0.8125,-0.96875 C 2.007812,-5.257812 2.429688,-5.375 2.921875,-5.375 Z m 0,0.734375 c -0.90625,0 -1.359375,0.671875 -1.359375,2.015625 0,1.335938 0.445312,2 1.34375,2 0.90625,0 1.359375,-0.664062 1.359375,-2 0,-1.34375 -0.449219,-2.015625 -1.34375,-2.015625 z m 0,0"
             id="id-6463ef73-b883-4cb1-8023-aa2a798799f7" />
        </g>
        <g
           transform="translate(289.335,146.72)"
           id="g220940">
          <path
             d="m 2.734375,-6.734375 c -0.28125,0 -0.484375,0.0625 -0.609375,0.1875 -0.117188,0.117187 -0.171875,0.304687 -0.171875,0.5625 V -5.25 h 1.28125 L 3.125,-4.546875 H 1.953125 V 0 H 1.03125 V -4.546875 H 0.09375 V -5.25 h 0.9375 v -0.71875 c 0,-0.457031 0.144531,-0.820312 0.4375,-1.09375 0.289062,-0.28125 0.695312,-0.421875 1.21875,-0.421875 0.238281,0 0.453125,0.027344 0.640625,0.078125 0.1875,0.042969 0.390625,0.109375 0.609375,0.203125 l -0.28125,0.65625 c -0.304688,-0.125 -0.609375,-0.1875 -0.921875,-0.1875 z m 0,0"
             id="id-4afd516d-f887-43c8-b3d8-59ebdcf2b3c6" />
        </g>
      </g>
      <g
         fill="#000000"
         fill-opacity="1"
         id="id-21865e87-81de-4e48-a55b-c9ac669c6f6d"
         transform="translate(-284.079,-126.984)">
        <g
           transform="translate(295.303,146.72)"
           id="g220944">
          <path
             d="m 6.21875,-5.375 c 0.4375,0 0.78125,0.148438 1.03125,0.4375 0.257812,0.292969 0.390625,0.683594 0.390625,1.171875 V 0 h -0.90625 v -3.640625 c 0,-0.675781 -0.25,-1.015625 -0.75,-1.015625 -0.25,0 -0.46875,0.078125 -0.65625,0.234375 -0.179687,0.148437 -0.371094,0.375 -0.578125,0.6875 V 0 H 3.84375 v -3.640625 c 0,-0.675781 -0.25,-1.015625 -0.75,-1.015625 -0.261719,0 -0.484375,0.078125 -0.671875,0.234375 -0.179687,0.148437 -0.367187,0.375 -0.5625,0.6875 V 0 h -0.90625 v -5.25 h 0.78125 L 1.8125,-4.484375 C 2.207031,-5.078125 2.710938,-5.375 3.328125,-5.375 c 0.320313,0 0.597656,0.085938 0.828125,0.25 0.226562,0.167969 0.394531,0.402344 0.5,0.703125 0.207031,-0.3125 0.4375,-0.546875 0.6875,-0.703125 0.25,-0.164062 0.539062,-0.25 0.875,-0.25 z m 0,0"
             id="id-449a2776-3c3c-49fb-aa1a-292640f4e6c1" />
        </g>
        <g
           transform="translate(303.841,146.72)"
           id="g220947">
          <path
             d="m 2.921875,-5.375 c 0.738281,0 1.3125,0.25 1.71875,0.75 0.40625,0.492188 0.609375,1.15625 0.609375,2 0,0.542969 -0.09375,1.023438 -0.28125,1.4375 -0.1875,0.417969 -0.460938,0.742188 -0.8125,0.96875 C 3.8125,0.0078125 3.394531,0.125 2.90625,0.125 2.164062,0.125 1.585938,-0.117188 1.171875,-0.609375 0.765625,-1.109375 0.5625,-1.78125 0.5625,-2.625 c 0,-0.539062 0.09375,-1.019531 0.28125,-1.4375 0.1875,-0.414062 0.457031,-0.738281 0.8125,-0.96875 C 2.007812,-5.257812 2.429688,-5.375 2.921875,-5.375 Z m 0,0.734375 c -0.90625,0 -1.359375,0.671875 -1.359375,2.015625 0,1.335938 0.445312,2 1.34375,2 0.90625,0 1.359375,-0.664062 1.359375,-2 0,-1.34375 -0.449219,-2.015625 -1.34375,-2.015625 z m 0,0"
             id="id-fb2d5c46-3fa2-41b2-8cf4-308f429b9480" />
        </g>
        <g
           transform="translate(309.659,146.72)"
           id="g220950">
          <path
             d="M 3.59375,-0.234375 C 3.25,0.00390625 2.859375,0.125 2.421875,0.125 1.972656,0.125 1.625,0 1.375,-0.25 1.125,-0.507812 1,-0.882812 1,-1.375 V -4.546875 H 0.09375 V -5.25 H 1 V -6.4375 L 1.921875,-6.546875 V -5.25 h 1.25 l -0.09375,0.703125 h -1.15625 v 3.125 c 0,0.28125 0.046875,0.484375 0.140625,0.609375 0.101562,0.117188 0.265625,0.171875 0.484375,0.171875 0.207031,0 0.441406,-0.066406 0.703125,-0.203125 z m 0,0"
             id="id-fc25c81e-c992-453d-a173-30c79b6903c3" />
        </g>
        <g
           transform="translate(313.255,146.72)"
           id="g220953">
          <path
             d="M 1.859375,-5.25 V 0 h -0.90625 v -5.25 z m -0.46875,-2.53125 c 0.195313,0 0.351563,0.0625 0.46875,0.1875 0.125,0.117188 0.1875,0.265625 0.1875,0.453125 0,0.179687 -0.0625,0.324219 -0.1875,0.4375 -0.117187,0.117187 -0.273437,0.171875 -0.46875,0.171875 -0.179687,0 -0.328125,-0.054688 -0.453125,-0.171875 -0.117188,-0.113281 -0.171875,-0.257813 -0.171875,-0.4375 0,-0.1875 0.054687,-0.335937 0.171875,-0.453125 0.125,-0.125 0.273438,-0.1875 0.453125,-0.1875 z m 0,0"
             id="id-7e867aed-52ba-4762-932d-0e3e663c06b4" />
        </g>
        <g
           transform="translate(316.065,146.72)"
           id="g220956">
          <path
             d="m 2.921875,-5.375 c 0.738281,0 1.3125,0.25 1.71875,0.75 0.40625,0.492188 0.609375,1.15625 0.609375,2 0,0.542969 -0.09375,1.023438 -0.28125,1.4375 -0.1875,0.417969 -0.460938,0.742188 -0.8125,0.96875 C 3.8125,0.0078125 3.394531,0.125 2.90625,0.125 2.164062,0.125 1.585938,-0.117188 1.171875,-0.609375 0.765625,-1.109375 0.5625,-1.78125 0.5625,-2.625 c 0,-0.539062 0.09375,-1.019531 0.28125,-1.4375 0.1875,-0.414062 0.457031,-0.738281 0.8125,-0.96875 C 2.007812,-5.257812 2.429688,-5.375 2.921875,-5.375 Z m 0,0.734375 c -0.90625,0 -1.359375,0.671875 -1.359375,2.015625 0,1.335938 0.445312,2 1.34375,2 0.90625,0 1.359375,-0.664062 1.359375,-2 0,-1.34375 -0.449219,-2.015625 -1.34375,-2.015625 z m 0,0"
             id="id-1a2513f4-e4c9-4c7d-a8c7-616422d3c7cb" />
        </g>
        <g
           transform="translate(321.883,146.72)"
           id="g220959">
          <path
             d="m 3.421875,-5.375 c 0.476563,0 0.847656,0.148438 1.109375,0.4375 0.269531,0.28125 0.40625,0.671875 0.40625,1.171875 V 0 H 4.03125 v -3.640625 c 0,-0.375 -0.074219,-0.632813 -0.21875,-0.78125 -0.136719,-0.15625 -0.339844,-0.234375 -0.609375,-0.234375 -0.28125,0 -0.53125,0.085938 -0.75,0.25 -0.210937,0.15625 -0.40625,0.382812 -0.59375,0.671875 V 0 h -0.90625 v -5.25 h 0.78125 L 1.8125,-4.46875 C 2,-4.75 2.226562,-4.96875 2.5,-5.125 c 0.28125,-0.164062 0.585938,-0.25 0.921875,-0.25 z m 0,0"
             id="id-dcd71727-f7da-41cd-8981-9e17bcbfe89d" />
        </g>
      </g>
    </g>
    <path
       style="fill:none;stroke:#303030;stroke-width:2.13696;stroke-linecap:butt;stroke-linejoin:miter;stroke-miterlimit:4;stroke-dasharray:none;stroke-opacity:1;marker-end:url(#RoundedArrow)"
       d="m 166.81616,117.72596 c -1.8931,2.54721 -4.05109,4.89743 -6.42791,7.00049 -8.58113,7.59277 -20.08509,11.79422 -31.53979,11.5189 -11.4547,-0.27533 -22.74351,-5.02464 -30.949941,-13.02092"
       id="path222430"
       inkscape:path-effect="#path-effect222434"
       inkscape:original-d="m 166.81616,117.72596 c -1.96857,1.67487 -4.46049,5.32461 -6.42791,7.00049 -1.96738,1.67586 -52.69684,0.17281 -62.489731,-1.50202"
       sodipodi:nodetypes="csc" />
    <circle
       style="opacity:1;fill:#2778ac;fill-opacity:1;stroke:none;stroke-width:3.2231;stroke-miterlimit:4;stroke-dasharray:3.2231, 9.66931;stroke-dashoffset:0;stroke-opacity:1"
       id="path37731-1"
       cx="124.0267"
       cy="111.73188"
       r="7.2100315" />
    <circle
       style="opacity:1;fill:#2778ac;fill-opacity:1;stroke:none;stroke-width:3.2231;stroke-miterlimit:4;stroke-dasharray:3.2231, 9.66931;stroke-dashoffset:0;stroke-opacity:1"
       id="path37731-4-7"
       cx="143.87605"
       cy="111.73188"
       r="7.2100315" />
    <circle
       style="opacity:1;fill:#2778ac;fill-opacity:1;stroke:none;stroke-width:3.2231;stroke-miterlimit:4;stroke-dasharray:3.2231, 9.66931;stroke-dashoffset:0;stroke-opacity:1"
       id="circle222424"
       cx="165.04274"
       cy="111.73188"
       r="7.2100315" />
  </g>
</svg>
