<?xml version="1.0" encoding="UTF-8" standalone="no"?>
<!-- Created with Inkscape (http://www.inkscape.org/) -->

<svg
   width="82.349861mm"
   height="82.049049mm"
   viewBox="0 0 82.349861 82.04905"
   version="1.1"
   id="svg1"
   inkscape:version="1.4.3 (0d15f75042, 2025-12-25)"
   sodipodi:docname="TSquareScattering.svg"
   xmlns:inkscape="http://www.inkscape.org/namespaces/inkscape"
   xmlns:sodipodi="http://sodipodi.sourceforge.net/DTD/sodipodi-0.dtd"
   xmlns="http://www.w3.org/2000/svg"
   xmlns:svg="http://www.w3.org/2000/svg">
  <sodipodi:namedview
     id="namedview1"
     pagecolor="#ffffff"
     bordercolor="#000000"
     borderopacity="0.25"
     inkscape:showpageshadow="2"
     inkscape:pageopacity="0.0"
     inkscape:pagecheckerboard="0"
     inkscape:deskcolor="#d1d1d1"
     inkscape:document-units="mm"
     showgrid="false"
     inkscape:zoom="0.99150695"
     inkscape:cx="149.77202"
     inkscape:cy="246.59434"
     inkscape:window-width="1920"
     inkscape:window-height="1043"
     inkscape:window-x="0"
     inkscape:window-y="0"
     inkscape:window-maximized="1"
     inkscape:current-layer="layer1" />
  <defs
     id="defs1">
    <rect
       x="-47.402592"
       y="352.99802"
       width="401.40918"
       height="186.58467"
       id="rect4" />
    <marker
       style="overflow:visible"
       id="RoundedArrow"
       refX="0"
       refY="0"
       orient="auto-start-reverse"
       inkscape:stockid="Rounded arrow"
       markerWidth="0.40000001"
       markerHeight="0.40000001"
       viewBox="0 0 1 1"
       inkscape:isstock="true"
       inkscape:collect="always"
       preserveAspectRatio="xMidYMid">
      <path
         transform="scale(0.7)"
         d="m -0.21114562,-4.1055728 6.42229122,3.21114561 a 1,1 90 0 1 0,1.78885438 L -0.21114562,4.1055728 A 1.236068,1.236068 31.717474 0 1 -2,3 v -6 a 1.236068,1.236068 148.28253 0 1 1.78885438,-1.1055728 z"
         style="fill:context-stroke;fill-rule:evenodd;stroke:none"
         id="path8" />
    </marker>
    <inkscape:path-effect
       effect="spiro"
       id="path-effect4"
       is_visible="true"
       lpeversion="1" />
    <rect
       x="-22.188448"
       y="-84.719528"
       width="270.29562"
       height="103.34488"
       id="rect3" />
    <inkscape:path-effect
       effect="spiro"
       id="path-effect3"
       is_visible="true"
       lpeversion="1" />
    <inkscape:path-effect
       effect="spiro"
       id="path-effect2"
       is_visible="true"
       lpeversion="1" />
    <rect
       x="300.95508"
       y="332.33429"
       width="152.7184"
       height="109.46883"
       id="rect1" />
    <rect
       x="-22.188448"
       y="-84.719528"
       width="270.29562"
       height="103.34488"
       id="rect3-0" />
    <rect
       x="-22.188448"
       y="-84.719528"
       width="270.29562"
       height="103.34488"
       id="rect3-02" />
  </defs>
  <g
     inkscape:label="Layer 1"
     inkscape:groupmode="layer"
     id="layer1"
     transform="translate(-58.753074,-57.84968)">
    <circle
       style="opacity:1;fill:none;fill-opacity:1;stroke:#505050;stroke-width:2;stroke-dasharray:none;stroke-dashoffset:0;stroke-opacity:1;paint-order:markers stroke fill"
       id="path1"
       cx="100.00636"
       cy="98.874207"
       r="35.096569" />
    <text
       xml:space="preserve"
       transform="matrix(0.26458333,0,0,0.26458333,-6.2402434,12.718836)"
       id="text1"
       style="font-style:normal;font-variant:normal;font-weight:500;font-stretch:normal;font-size:40px;line-height:1.1;font-family:'Stack Sans Headline';-inkscape-font-specification:'Stack Sans Headline, Medium';font-variant-ligatures:normal;font-variant-caps:normal;font-variant-numeric:normal;font-variant-east-asian:normal;text-align:center;text-decoration-color:#000000;letter-spacing:0.1px;writing-mode:lr-tb;direction:ltr;white-space:pre;shape-inside:url(#rect1);display:inline;opacity:1;fill:#303030;fill-opacity:1;stroke:none;stroke-width:7.55906;stroke-dasharray:none;stroke-dashoffset:0;stroke-opacity:1;paint-order:markers stroke fill"><tspan
         x="324.49448"
         y="365.10322"
         id="tspan2">Fermi </tspan><tspan
         x="307.90441"
         y="409.10322"
         id="tspan4">volume</tspan></text>
    <path
       style="opacity:0.6;fill:none;fill-opacity:1;stroke:#e0a050;stroke-width:12;stroke-dasharray:none;stroke-dashoffset:0;stroke-opacity:1;paint-order:markers stroke fill"
       id="circle2"
       sodipodi:type="arc"
       sodipodi:cx="100.00636"
       sodipodi:cy="98.874207"
       sodipodi:rx="35.096569"
       sodipodi:ry="35.096569"
       sodipodi:start="0"
       sodipodi:end="1.511576"
       sodipodi:open="true"
       sodipodi:arc-type="arc"
       d="M 135.10293,98.874207 A 35.096569,35.096569 0 0 1 102.08358,133.90925" />
    <path
       style="opacity:0.6;fill:none;fill-opacity:1;stroke:#c08090;stroke-width:12;stroke-dasharray:none;stroke-dashoffset:0;stroke-opacity:1;paint-order:markers stroke fill"
       id="circle2-3"
       sodipodi:type="arc"
       sodipodi:cx="-100.00636"
       sodipodi:cy="-98.874207"
       sodipodi:rx="35.096569"
       sodipodi:ry="35.096569"
       sodipodi:start="0"
       sodipodi:end="1.511576"
       sodipodi:open="true"
       sodipodi:arc-type="arc"
       d="m -64.909794,-98.874207 a 35.096569,35.096569 0 0 1 -33.019353,35.035045"
       transform="scale(-1)" />
    <text
       xml:space="preserve"
       transform="matrix(0.36384777,0,0,0.36384777,24.605955,88.162932)"
       id="text3"
       style="font-style:normal;font-variant:normal;font-weight:500;font-stretch:normal;font-size:40px;line-height:1.1;font-family:'Stack Sans Headline';-inkscape-font-specification:'Stack Sans Headline, Medium';font-variant-ligatures:normal;font-variant-caps:normal;font-variant-numeric:normal;font-variant-east-asian:normal;text-align:center;text-decoration-color:#000000;letter-spacing:0.1px;writing-mode:lr-tb;direction:ltr;white-space:pre;shape-inside:url(#rect3);display:inline;opacity:1;fill:#303030;fill-opacity:1;stroke:none;stroke-width:11.9357;stroke-dasharray:none;stroke-dashoffset:0;stroke-opacity:1;paint-order:markers stroke fill"><tspan
         x="92.210002"
         y="-51.949519"
         id="tspan5">~T</tspan></text>
    <g
       id="text3-96"
       style="font-weight:500;font-size:40px;line-height:1.1;font-family:'Stack Sans Headline';-inkscape-font-specification:'Stack Sans Headline, Medium';text-align:center;letter-spacing:0.1px;white-space:pre;fill:#303030;stroke-width:11.9357;paint-order:markers stroke fill"
       transform="matrix(0.36384777,0,0,0.36384777,63.349997,109.56527)"
       aria-label="~T2">
      <path
         d="m 94.240017,-64.789519 q -0.84,0 -1.4,0.68 -0.52,0.64 -0.52,1.72 h -4.52 q 0,-2.72 0.88,-4.2 0.92,-1.52 2.24,-2.12 1.32,-0.64 2.52,-0.64 1.4,0 2.48,0.44 1.08,0.4 1.96,0.96 0.88,0.52 1.68,0.96 0.800003,0.4 1.600003,0.4 0.84,0 1.32,-0.68 0.48,-0.68 0.48,-1.68 h 4.52 q 0,2.04 -0.56,3.4 -0.52,1.32 -1.4,2.12 -0.84,0.8 -1.84,1.16 -0.96,0.36 -1.8,0.36 -1.36,0 -2.440003,-0.44 -1.08,-0.44 -1.96,-1 -0.88,-0.56 -1.68,-1 -0.76,-0.44 -1.56,-0.44 z m 18.699953,-15.16 h 5.08 v 28 h -5.08 z m -8.8,0 h 22.64 v 4.44 h -22.64 z"
         id="path9" />
      <path
         style="font-variant-position:super"
         d="m 128.31994,-65.949519 q -0.12,-1.96 0.56,-3.24 0.72,-1.32 1.8,-2.16 1.08,-0.88 2.16,-1.52 1.12,-0.68 1.88,-1.32 0.76,-0.64 0.76,-1.56 0,-0.76 -0.44,-1.12 -0.4,-0.4 -1.16,-0.4 -0.96,0 -1.36,0.56 -0.4,0.56 -0.48,1.4 h -3.68 q 0,-2.28 1.6,-3.6 1.6,-1.36 3.92,-1.36 2.6,0 3.92,1.36 1.36,1.32 1.36,3.16 0,1.56 -0.72,2.56 -0.72,0.96 -1.76,1.64 -1.04,0.68 -2.08,1.4 -1.04,0.68 -1.68,1.68 -0.64,0.96 -0.52,2.52 z m 1.64,-2.96 h 9.24 v 2.96 h -10.88 z"
         id="path10" />
    </g>
    <text
       xml:space="preserve"
       transform="matrix(0.37914574,0,0,0.37914574,88.539101,159.59517)"
       id="text3-9"
       style="font-style:normal;font-variant:normal;font-weight:500;font-stretch:normal;font-size:40px;line-height:1.1;font-family:'Stack Sans Headline';-inkscape-font-specification:'Stack Sans Headline, Medium';font-variant-ligatures:normal;font-variant-caps:normal;font-variant-numeric:normal;font-variant-east-asian:normal;text-align:center;text-decoration-color:#000000;letter-spacing:0.1px;writing-mode:lr-tb;direction:ltr;white-space:pre;shape-inside:url(#rect3-0);display:inline;fill:#303030;fill-opacity:1;stroke:none;stroke-width:11.9357;stroke-dasharray:none;stroke-dashoffset:0;stroke-opacity:1;paint-order:markers stroke fill"><tspan
         x="92.210002"
         y="-51.949519"
         id="tspan6">~T</tspan></text>
    <circle
       style="opacity:1;fill:#ff8090;fill-opacity:1;stroke:none;stroke-width:2.82481;stroke-dasharray:none;stroke-dashoffset:0;stroke-opacity:1;paint-order:markers stroke fill"
       id="path3"
       cx="88.127594"
       cy="64.848389"
       r="3.275696" />
    <circle
       style="fill:#ffe000;fill-opacity:1;stroke:none;stroke-width:2.82481;stroke-dasharray:none;stroke-dashoffset:0;stroke-opacity:1;paint-order:markers stroke fill"
       id="path3-3"
       cx="134.78717"
       cy="104.65726"
       r="3.275696" />
    <path
       style="opacity:1;fill:none;fill-opacity:1;stroke:#606060;stroke-width:3.158;stroke-dasharray:none;stroke-dashoffset:0;stroke-opacity:1;marker-end:url(#RoundedArrow);paint-order:markers stroke fill"
       d="m 92.146718,68.390934 c 0.332734,1.457153 1.128001,2.805051 2.242564,3.80092 1.114563,0.99587 2.543132,1.634985 4.028405,1.802233 1.497297,0.168602 3.005713,-0.131012 4.469653,-0.487661 1.46395,-0.356649 2.92736,-0.774133 4.43238,-0.846588 2.90454,-0.139831 5.80531,1.065366 7.91628,3.065297 2.11096,1.999932 3.45076,4.745467 3.95853,7.608691 0.61048,3.442339 0.0819,7.084876 1.24268,10.382593 0.92789,2.636053 2.94355,4.870445 5.47042,6.064043"
       id="path4"
       sodipodi:nodetypes="cssssc"
       inkscape:original-d="m 92.146718,68.390934 c 2.109843,1.689818 4.257117,3.646485 6.270969,5.603153 2.013853,1.956667 5.890213,-0.889499 8.902033,-1.334249 3.01182,-0.444749 7.91654,7.115992 11.87481,10.673988 3.95827,3.557997 1.24268,7.269347 1.24268,10.382593 0,3.113246 1.36478,2.069474 5.47042,6.064043"
       inkscape:path-effect="#path-effect4" />
  </g>
</svg>
