<?xml version="1.0" encoding="UTF-8" standalone="no"?>
<!-- Created with Inkscape (http://www.inkscape.org/) -->

<svg
   width="186.60071mm"
   height="186.60071mm"
   viewBox="0 0 186.60071 186.60071"
   version="1.1"
   id="svg1"
   inkscape:version="1.4.1 (93de688d07, 2025-03-30)"
   sodipodi:docname="twoChannel.svg"
   xmlns:inkscape="http://www.inkscape.org/namespaces/inkscape"
   xmlns:sodipodi="http://sodipodi.sourceforge.net/DTD/sodipodi-0.dtd"
   xmlns="http://www.w3.org/2000/svg"
   xmlns:svg="http://www.w3.org/2000/svg">
  <sodipodi:namedview
     id="namedview1"
     pagecolor="#ffffff"
     bordercolor="#000000"
     borderopacity="0.25"
     inkscape:showpageshadow="2"
     inkscape:pageopacity="0.0"
     inkscape:pagecheckerboard="0"
     inkscape:deskcolor="#d1d1d1"
     inkscape:document-units="mm"
     inkscape:zoom="0.75098906"
     inkscape:cx="474.04153"
     inkscape:cy="278.96545"
     inkscape:window-width="1920"
     inkscape:window-height="1052"
     inkscape:window-x="0"
     inkscape:window-y="0"
     inkscape:window-maximized="1"
     inkscape:current-layer="layer1" />
  <defs
     id="defs1">
    <inkscape:path-effect
       effect="spiro"
       id="path-effect11"
       is_visible="true"
       lpeversion="1" />
    <inkscape:path-effect
       effect="spiro"
       id="path-effect10"
       is_visible="true"
       lpeversion="1" />
    <inkscape:path-effect
       effect="spiro"
       id="path-effect23"
       is_visible="true"
       lpeversion="1" />
    <inkscape:path-effect
       effect="spiro"
       id="path-effect22"
       is_visible="true"
       lpeversion="1" />
    <inkscape:path-effect
       effect="spiro"
       id="path-effect14"
       is_visible="true"
       lpeversion="1" />
    <inkscape:path-effect
       effect="spiro"
       id="path-effect3"
       is_visible="true"
       lpeversion="1" />
    <inkscape:path-effect
       effect="spiro"
       id="path-effect1"
       is_visible="true"
       lpeversion="1" />
    <inkscape:path-effect
       effect="spiro"
       id="path-effect1-7"
       is_visible="true"
       lpeversion="1" />
    <inkscape:path-effect
       effect="spiro"
       id="path-effect1-9"
       is_visible="true"
       lpeversion="1" />
    <g
       id="id-a905f1af-e1d5-448f-b797-60923f23d68f-9">
      <g
         id="id-b18c5412-be88-4d33-865b-7ae69005c2ba-2">
        <path
           d="m 3.953125,-3.78125 c -0.171875,0 -0.296875,0 -0.4375,0.125 -0.171875,0.15625 -0.1875,0.328125 -0.1875,0.390625 0,0.25 0.1875,0.359375 0.375,0.359375 0.28125,0 0.546875,-0.25 0.546875,-0.640625 0,-0.484375 -0.46875,-0.859375 -1.171875,-0.859375 -1.34375,0 -2.671875,1.421875 -2.671875,2.828125 0,0.90625 0.578125,1.6875 1.625,1.6875 1.421875,0 2.25,-1.0625 2.25,-1.171875 0,-0.0625 -0.046875,-0.140625 -0.109375,-0.140625 -0.0625,0 -0.078125,0.03125 -0.140625,0.109375 -0.78125,0.984375 -1.875,0.984375 -1.984375,0.984375 -0.625,0 -0.90625,-0.484375 -0.90625,-1.09375 0,-0.40625 0.203125,-1.375 0.546875,-1.984375 0.3125,-0.578125 0.859375,-1 1.40625,-1 0.328125,0 0.71875,0.125 0.859375,0.40625 z m 0,0"
           id="id-f56b9e90-a23c-4b32-8643-56dd15ee08d6-0" />
      </g>
      <g
         id="id-dbb49e12-8d02-4698-9eb1-8868d3c4ff8b-2">
        <path
           d="m 1.90625,-2.90625 c 0.109375,0 0.171875,0.015625 0.390625,0.0625 0.21875,0.0625 0.390625,0.109375 0.515625,0.109375 0.28125,0 0.296875,-0.203125 0.296875,-0.265625 0,-0.0625 -0.015625,-0.28125 -0.296875,-0.28125 -0.125,0 -0.296875,0.046875 -0.515625,0.109375 -0.21875,0.0625 -0.28125,0.0625 -0.390625,0.078125 0.015625,-0.25 0.0625,-0.53125 0.09375,-0.75 0.03125,-0.140625 0.09375,-0.5 0.09375,-0.734375 0,-0.21875 -0.09375,-0.328125 -0.265625,-0.328125 -0.15625,0 -0.28125,0.078125 -0.28125,0.328125 0,0.21875 0.0625,0.578125 0.109375,0.8125 0.015625,0.078125 0.078125,0.40625 0.078125,0.671875 C 1.640625,-3.109375 1.5625,-3.109375 1.359375,-3.171875 1.140625,-3.234375 0.96875,-3.28125 0.84375,-3.28125 c -0.28125,0 -0.3125,0.21875 -0.3125,0.28125 0,0.046875 0.03125,0.265625 0.3125,0.265625 0.125,0 0.296875,-0.046875 0.515625,-0.109375 0.203125,-0.046875 0.28125,-0.0625 0.375,-0.0625 0,0.171875 -0.0625,0.390625 -0.09375,0.53125 -0.09375,0.4375 -0.09375,0.484375 -0.09375,0.84375 0,1.34375 0.140625,2.78125 0.15625,2.921875 0.015625,0.0625 0.03125,0.09375 0.125,0.09375 0.109375,0 0.109375,-0.03125 0.125,-0.125 0,-0.015625 0.046875,-0.625 0.078125,-1.046875 0.03125,-0.609375 0.0625,-1.21875 0.0625,-1.84375 0,-0.359375 0,-0.40625 -0.09375,-0.859375 -0.015625,-0.0625 -0.078125,-0.34375 -0.09375,-0.515625 z m 0,0"
           id="id-d34f6f7c-187a-4915-b64d-85112777a629-3" />
      </g>
      <g
         id="id-be9cdbeb-4e3c-48b4-93e9-45e08bb21c50-7">
        <path
           d="m 3.546875,-2.875 c 0,-0.03125 0.015625,-0.0625 0.015625,-0.09375 0,-0.046875 -0.03125,-0.109375 -0.09375,-0.109375 -0.0625,0 -0.359375,0.234375 -0.5,0.46875 -0.0625,-0.140625 -0.296875,-0.46875 -0.75,-0.46875 -0.890625,0 -1.796875,0.984375 -1.796875,1.984375 0,0.6875 0.453125,1.15625 1.0625,1.15625 0.390625,0 0.71875,-0.25 0.875,-0.375 C 2.34375,-0.296875 2.125,0.578125 2.109375,0.703125 2,1.09375 2,1.09375 1.5625,1.09375 c -0.078125,0 -0.171875,0 -0.171875,0.15625 0,0.046875 0.03125,0.109375 0.09375,0.109375 0.234375,0 0.5,-0.03125 0.734375,-0.03125 0.234375,0 0.53125,0.03125 0.75,0.03125 0.0625,0 0.125,-0.03125 0.125,-0.15625 C 3.09375,1.09375 3,1.09375 2.921875,1.09375 c -0.15625,0 -0.34375,0 -0.34375,-0.078125 0,-0.015625 0,-0.03125 0.03125,-0.15625 z M 2.5,-0.875 C 2.453125,-0.765625 2.453125,-0.75 2.375,-0.640625 2.09375,-0.3125 1.765625,-0.125 1.5,-0.125 c -0.265625,0 -0.515625,-0.1875 -0.515625,-0.671875 0,-0.375 0.203125,-1.140625 0.375,-1.421875 0.3125,-0.5625 0.671875,-0.65625 0.859375,-0.65625 0.484375,0 0.625,0.53125 0.625,0.609375 0,0.03125 -0.015625,0.078125 -0.015625,0.09375 z m 0,0"
           id="id-aa1df297-d364-42f9-b3b9-93b3f0d1f0f2-5" />
      </g>
    </g>
    <g
       id="id-45d0bcc4-8fc5-4cb7-aee9-e5c41c3ebe93-7">
      <g
         id="id-06889e24-5956-46bf-a4d9-35edcdbd4cf4-8">
        <path
           d="m 3.953125,-3.78125 c -0.171875,0 -0.296875,0 -0.4375,0.125 -0.171875,0.15625 -0.1875,0.328125 -0.1875,0.390625 0,0.25 0.1875,0.359375 0.375,0.359375 0.28125,0 0.546875,-0.25 0.546875,-0.640625 0,-0.484375 -0.46875,-0.859375 -1.171875,-0.859375 -1.34375,0 -2.671875,1.421875 -2.671875,2.828125 0,0.90625 0.578125,1.6875 1.625,1.6875 1.421875,0 2.25,-1.0625 2.25,-1.171875 0,-0.0625 -0.046875,-0.140625 -0.109375,-0.140625 -0.0625,0 -0.078125,0.03125 -0.140625,0.109375 -0.78125,0.984375 -1.875,0.984375 -1.984375,0.984375 -0.625,0 -0.90625,-0.484375 -0.90625,-1.09375 0,-0.40625 0.203125,-1.375 0.546875,-1.984375 0.3125,-0.578125 0.859375,-1 1.40625,-1 0.328125,0 0.71875,0.125 0.859375,0.40625 z m 0,0"
           id="id-d4e08b6a-8e59-4691-a0e1-8012d452ea85-4" />
      </g>
      <g
         id="id-ed86eb2c-ccba-4d86-9e81-8f0f348d2681-5">
        <path
           d="m 1.90625,-2.90625 c 0.109375,0 0.171875,0.015625 0.390625,0.0625 0.21875,0.0625 0.390625,0.109375 0.515625,0.109375 0.28125,0 0.296875,-0.203125 0.296875,-0.265625 0,-0.0625 -0.015625,-0.28125 -0.296875,-0.28125 -0.125,0 -0.296875,0.046875 -0.515625,0.109375 -0.21875,0.0625 -0.28125,0.0625 -0.390625,0.078125 0.015625,-0.25 0.0625,-0.53125 0.09375,-0.75 0.03125,-0.140625 0.09375,-0.5 0.09375,-0.734375 0,-0.21875 -0.09375,-0.328125 -0.265625,-0.328125 -0.15625,0 -0.28125,0.078125 -0.28125,0.328125 0,0.21875 0.0625,0.578125 0.109375,0.8125 0.015625,0.078125 0.078125,0.40625 0.078125,0.671875 C 1.640625,-3.109375 1.5625,-3.109375 1.359375,-3.171875 1.140625,-3.234375 0.96875,-3.28125 0.84375,-3.28125 c -0.28125,0 -0.3125,0.21875 -0.3125,0.28125 0,0.046875 0.03125,0.265625 0.3125,0.265625 0.125,0 0.296875,-0.046875 0.515625,-0.109375 0.203125,-0.046875 0.28125,-0.0625 0.375,-0.0625 0,0.171875 -0.0625,0.390625 -0.09375,0.53125 -0.09375,0.4375 -0.09375,0.484375 -0.09375,0.84375 0,1.34375 0.140625,2.78125 0.15625,2.921875 0.015625,0.0625 0.03125,0.09375 0.125,0.09375 0.109375,0 0.109375,-0.03125 0.125,-0.125 0,-0.015625 0.046875,-0.625 0.078125,-1.046875 0.03125,-0.609375 0.0625,-1.21875 0.0625,-1.84375 0,-0.359375 0,-0.40625 -0.09375,-0.859375 -0.015625,-0.0625 -0.078125,-0.34375 -0.09375,-0.515625 z m 0,0"
           id="id-c19ff37a-3e74-497a-8df2-be722ac6de72-0" />
      </g>
      <g
         id="id-01f2f728-8376-4f7d-bd15-d22abe137326-3">
        <path
           d="m 3.546875,-2.875 c 0,-0.03125 0.015625,-0.0625 0.015625,-0.09375 0,-0.046875 -0.03125,-0.109375 -0.09375,-0.109375 -0.0625,0 -0.359375,0.234375 -0.5,0.46875 -0.0625,-0.140625 -0.296875,-0.46875 -0.75,-0.46875 -0.890625,0 -1.796875,0.984375 -1.796875,1.984375 0,0.6875 0.453125,1.15625 1.0625,1.15625 0.390625,0 0.71875,-0.25 0.875,-0.375 C 2.34375,-0.296875 2.125,0.578125 2.109375,0.703125 2,1.09375 2,1.09375 1.5625,1.09375 c -0.078125,0 -0.171875,0 -0.171875,0.15625 0,0.046875 0.03125,0.109375 0.09375,0.109375 0.234375,0 0.5,-0.03125 0.734375,-0.03125 0.234375,0 0.53125,0.03125 0.75,0.03125 0.0625,0 0.125,-0.03125 0.125,-0.15625 C 3.09375,1.09375 3,1.09375 2.921875,1.09375 c -0.15625,0 -0.34375,0 -0.34375,-0.078125 0,-0.015625 0,-0.03125 0.03125,-0.15625 z M 2.5,-0.875 C 2.453125,-0.765625 2.453125,-0.75 2.375,-0.640625 2.09375,-0.3125 1.765625,-0.125 1.5,-0.125 c -0.265625,0 -0.515625,-0.1875 -0.515625,-0.671875 0,-0.375 0.203125,-1.140625 0.375,-1.421875 0.3125,-0.5625 0.671875,-0.65625 0.859375,-0.65625 0.484375,0 0.625,0.53125 0.625,0.609375 0,0.03125 -0.015625,0.078125 -0.015625,0.09375 z m 0,0"
           id="id-be00d1e7-2cd6-4d30-88fd-779918d7c100-6" />
      </g>
      <g
         id="id-061f0ff2-b186-48d5-b28b-3c3b127c6611-1">
        <path
           d="m 3.234375,0.421875 c 0,0.453125 0.09375,0.9375 0.671875,0.9375 0.84375,0 1.25,-1.203125 1.25,-1.359375 0,-0.046875 -0.046875,-0.09375 -0.109375,-0.09375 -0.0625,0 -0.078125,0.0625 -0.09375,0.09375 C 4.78125,0.484375 4.328125,0.625 4.09375,0.625 3.8125,0.625 3.671875,0.5 3.546875,-0.0625 4.78125,-0.5 5.78125,-1.734375 5.78125,-2.96875 c 0,-1.09375 -0.796875,-1.9375 -2.03125,-1.9375 -1.65625,0 -3.265625,1.5625 -3.265625,3.140625 0,1.125 0.828125,1.90625 2.03125,1.90625 0.125,0 0.359375,-0.015625 0.71875,-0.09375 z M 2.03125,-0.171875 c -0.359375,-0.125 -0.875,-0.484375 -0.875,-1.421875 0,-0.453125 0.140625,-1.375 0.78125,-2.15625 0.4375,-0.546875 1.109375,-0.921875 1.765625,-0.921875 0.75,0 1.390625,0.5 1.390625,1.515625 0,0.703125 -0.328125,2.203125 -1.609375,2.828125 C 3.375,-0.765625 3.1875,-1.046875 2.78125,-1.046875 2.390625,-1.046875 2,-0.71875 2,-0.359375 c 0,0.125 0.015625,0.140625 0.03125,0.1875 z m 1.203125,-0.03125 c -0.140625,0.046875 -0.40625,0.125 -0.671875,0.125 -0.109375,0 -0.359375,0 -0.359375,-0.28125 0,-0.265625 0.28125,-0.5 0.578125,-0.5 0.25,0 0.4375,0.109375 0.453125,0.65625 z m 0,0"
           id="id-e6b0992b-500b-4e1f-aae3-ef5192981dc0-0" />
      </g>
      <g
         id="id-d257bec1-2233-4128-82ba-35f5bc94b48c-6">
        <path
           d="m 3.21875,-1.578125 h 2.140625 c 0.09375,0 0.25,0 0.25,-0.15625 0,-0.1875 -0.15625,-0.1875 -0.25,-0.1875 H 3.21875 V -4.0625 c 0,-0.078125 0,-0.25 -0.15625,-0.25 -0.171875,0 -0.171875,0.15625 -0.171875,0.25 v 2.140625 H 0.75 c -0.09375,0 -0.265625,0 -0.265625,0.171875 0,0.171875 0.15625,0.171875 0.265625,0.171875 H 2.890625 V 0.5625 c 0,0.09375 0,0.265625 0.15625,0.265625 0.171875,0 0.171875,-0.171875 0.171875,-0.265625 z m 0,0"
           id="id-70256eb7-c492-45f9-9d7f-3d2b8f2b8df7-3" />
      </g>
    </g>
    <inkscape:path-effect
       effect="spiro"
       id="path-effect10-8"
       is_visible="true"
       lpeversion="1" />
  </defs>
  <g
     inkscape:label="Layer 1"
     inkscape:groupmode="layer"
     id="layer1"
     transform="translate(-10.561954,-15.56442)">
    <path
       style="opacity:0.4;fill:#c490ac;fill-opacity:1;stroke-width:4;paint-order:markers stroke fill"
       d="m 25.006794,84.265487 c 0.499658,2.478786 1.788502,4.767785 3.523764,6.607052 1.735262,1.839267 3.904504,3.240579 6.229087,4.235744 4.649165,1.99033 9.814517,2.361722 14.869993,2.497033 9.479947,0.253733 19.00341,-0.227931 28.422104,0.877501 9.418693,1.105432 18.920981,3.949373 26.186438,10.044203 7.60269,6.37772 12.22461,16.20958 12.14681,26.13279 -0.0712,9.0776 -3.82344,17.68436 -5.46316,26.61292 -0.81985,4.46428 -1.10537,9.09219 -0.13256,13.52566 0.97281,4.43346 3.29793,8.67477 6.95437,11.36408 3.22553,2.37237 7.3828,3.41576 11.35662,2.92492 3.97382,-0.49083 7.72887,-2.49423 10.40831,-5.46959 3.39033,-3.76476 4.94923,-8.77318 6.78637,-13.49469 1.47686,-3.79558 3.2011,-7.52221 5.53853,-10.85747 2.33743,-3.33526 5.31883,-6.2795 8.92026,-8.18141 2.92701,-1.54575 6.17085,-2.36446 9.33387,-3.34016 3.16303,-0.9757 6.34589,-2.16047 8.88005,-4.28997 1.72015,-1.44547 3.09399,-3.3035 3.95509,-5.37879 0.86111,-2.07529 1.2063,-4.36471 0.97729,-6.59986 -0.45399,-4.43102 -3.19847,-8.479 -6.93385,-10.90531 -3.73538,-2.42632 -8.3657,-3.29887 -12.79569,-2.8349 -4.31047,0.45145 -8.39535,2.09114 -12.40519,3.73589 -4.00983,1.64474 -8.07013,3.32772 -12.36964,3.87377 -5.58346,0.70911 -11.29329,-0.56194 -16.41702,-2.89117 -5.12373,-2.32923 -9.7173,-5.68046 -14.05323,-9.269 -3.92503,-3.24846 -7.67447,-6.7131 -11.161103,-10.42817 -4.130356,-4.400974 -7.920444,-9.201599 -10.513758,-14.651657 -2.593315,-5.450058 -3.940552,-11.609331 -3.055144,-17.57963 0.879163,-5.928194 3.878055,-11.363787 4.932383,-17.263346 0.334631,-1.872447 0.469801,-3.773815 0.677029,-5.664607 0.261525,-2.386209 0.638903,-4.788626 0.381974,-7.175334 -0.128465,-1.193354 -0.418423,-2.376721 -0.940753,-3.457354 -0.52233,-1.080633 -1.283574,-2.05684 -2.259726,-2.755212 -0.989647,-0.708028 -2.181532,-1.115259 -3.393376,-1.225432 -1.211845,-0.110174 -2.442332,0.07085 -3.594001,0.463738 -2.303338,0.785784 -4.248876,2.386459 -5.882484,4.190384 -1.633608,1.803925 -3.00141,3.829117 -4.519174,5.73154 -1.517764,1.902422 -3.222746,3.712043 -5.339274,4.913346 -2.394768,1.359227 -5.162732,1.859149 -7.829979,2.543406 -2.667246,0.684256 -5.400044,1.644775 -7.278097,3.658559 -1.087345,1.16593 -1.821468,2.621624 -2.35678,4.123341 -0.535312,1.501716 -0.884202,3.061972 -1.294256,4.602611 -0.410053,1.540639 -0.887501,3.077368 -1.656934,4.473679 -0.769433,1.396312 -1.853124,2.655304 -3.253899,3.416581 -1.491894,0.810798 -3.232151,1.008932 -4.925911,1.12859 -1.693761,0.119659 -3.422389,0.181983 -5.018343,0.761701 -2.151534,0.781528 -3.917424,2.495525 -4.89672,4.56455 -0.979295,2.069024 -1.19261,4.465528 -0.74029,6.709473 z"
       id="path10"
       inkscape:path-effect="#path-effect10"
       inkscape:original-d="m 25.006794,84.265487 c -1.879004,3.758007 17.811456,9.112073 24.622844,13.339829 6.811388,4.227754 35.009468,7.062284 54.608542,10.921704 19.59907,3.85943 10.48966,16.83919 12.14681,26.13279 1.65715,9.2936 0.0575,33.60432 1.35865,51.50266 1.3011,17.89835 14.27508,-1.46157 21.76493,-2.54467 7.48986,-1.0831 3.73299,-11.0285 6.78637,-13.49469 3.05338,-2.46619 8.2654,-14.61184 14.45879,-19.03888 6.19339,-4.42703 12.26005,-5.08675 18.21392,-7.63013 5.95386,-2.54338 3.28825,-8.22064 4.93238,-11.97865 1.64413,-3.75801 -13.3879,-9.16014 -19.72954,-13.74021 -6.34163,-4.58007 -16.5542,5.14347 -24.77483,7.60966 -8.22065,2.46619 -20.92016,-7.18071 -30.47025,-12.16017 -9.550095,-4.97946 -6.56157,-7.71367 -11.161103,-10.42817 -4.599538,-2.7145 -9.045935,-21.7224 -13.568902,-32.231287 -4.522968,-10.508888 3.288255,-11.27402 4.932383,-17.263346 1.644129,-5.989322 0.442154,-3.785602 0.677029,-5.664607 0.234876,-1.879002 -1.98724,-8.916067 -2.818505,-13.3879 -0.831263,-4.471832 -14.869181,11.950498 -22.728309,14.073576 -7.859128,2.12308 -9.664245,3.726965 -15.108076,6.201965 -5.443828,2.474997 -4.859353,13.031007 -8.561869,16.616212 -3.702516,3.585204 -6.629503,1.260194 -9.944254,1.890291 -3.314751,0.6301 -3.758007,7.516016 -5.63701,11.274023 z" />
    <path
       style="opacity:0.4;fill:#409090;fill-opacity:1;stroke-width:4;paint-order:markers stroke fill"
       d="m 25.006794,84.265487 c 0.499658,2.478786 1.788502,4.767785 3.523764,6.607052 1.735262,1.839267 3.904504,3.240579 6.229087,4.235744 4.649165,1.99033 9.814517,2.361722 14.869993,2.497033 9.479947,0.253733 19.00341,-0.227931 28.422104,0.877501 9.418693,1.105432 18.920981,3.949373 26.186438,10.044203 7.60269,6.37772 12.22461,16.20958 12.14681,26.13279 -0.0712,9.0776 -3.82344,17.68436 -5.46316,26.61292 -0.81985,4.46428 -1.10537,9.09219 -0.13256,13.52566 0.97281,4.43346 3.29793,8.67477 6.95437,11.36408 3.22553,2.37237 7.3828,3.41576 11.35662,2.92492 3.97382,-0.49083 7.72887,-2.49423 10.40831,-5.46959 3.39033,-3.76476 4.94923,-8.77318 6.78637,-13.49469 1.47686,-3.79558 3.2011,-7.52221 5.53853,-10.85747 2.33743,-3.33526 5.31883,-6.2795 8.92026,-8.18141 2.92701,-1.54575 6.17085,-2.36446 9.33387,-3.34016 3.16303,-0.9757 6.34589,-2.16047 8.88005,-4.28997 1.72015,-1.44547 3.09399,-3.3035 3.95509,-5.37879 0.86111,-2.07529 1.2063,-4.36471 0.97729,-6.59986 -0.45399,-4.43102 -3.19847,-8.479 -6.93385,-10.90531 -3.73538,-2.42632 -8.3657,-3.29887 -12.79569,-2.8349 -4.31047,0.45145 -8.39535,2.09114 -12.40519,3.73589 -4.00983,1.64474 -8.07013,3.32772 -12.36964,3.87377 -5.58346,0.70911 -11.29329,-0.56194 -16.41702,-2.89117 -5.12373,-2.32923 -9.7173,-5.68046 -14.05323,-9.269 -3.92503,-3.24846 -7.67447,-6.7131 -11.161103,-10.42817 -4.130356,-4.400974 -7.920444,-9.201599 -10.513758,-14.651657 -2.593315,-5.450058 -3.940552,-11.609331 -3.055144,-17.57963 0.879163,-5.928194 3.878055,-11.363787 4.932383,-17.263346 0.334631,-1.872447 0.469801,-3.773815 0.677029,-5.664607 0.261525,-2.386209 0.638903,-4.788626 0.381974,-7.175334 -0.128465,-1.193354 -0.418423,-2.376721 -0.940753,-3.457354 -0.52233,-1.080633 -1.283574,-2.05684 -2.259726,-2.755212 -0.989647,-0.708028 -2.181532,-1.115259 -3.393376,-1.225432 -1.211845,-0.110174 -2.442332,0.07085 -3.594001,0.463738 -2.303338,0.785784 -4.248876,2.386459 -5.882484,4.190384 -1.633608,1.803925 -3.00141,3.829117 -4.519174,5.73154 -1.517764,1.902422 -3.222746,3.712043 -5.339274,4.913346 -2.394768,1.359227 -5.162732,1.859149 -7.829979,2.543406 -2.667246,0.684256 -5.400044,1.644775 -7.278097,3.658559 -1.087345,1.16593 -1.821468,2.621624 -2.35678,4.123341 -0.535312,1.501716 -0.884202,3.061972 -1.294256,4.602611 -0.410053,1.540639 -0.887501,3.077368 -1.656934,4.473679 -0.769433,1.396312 -1.853124,2.655304 -3.253899,3.416581 -1.491894,0.810798 -3.232151,1.008932 -4.925911,1.12859 -1.693761,0.119659 -3.422389,0.181983 -5.018343,0.761701 -2.151534,0.781528 -3.917424,2.495525 -4.89672,4.56455 -0.979295,2.069024 -1.19261,4.465528 -0.74029,6.709473 z"
       id="path10-7"
       inkscape:path-effect="#path-effect10-8"
       inkscape:original-d="m 25.006794,84.265487 c -1.879004,3.758007 17.811456,9.112073 24.622844,13.339829 6.811388,4.227754 35.009468,7.062284 54.608542,10.921704 19.59907,3.85943 10.48966,16.83919 12.14681,26.13279 1.65715,9.2936 0.0575,33.60432 1.35865,51.50266 1.3011,17.89835 14.27508,-1.46157 21.76493,-2.54467 7.48986,-1.0831 3.73299,-11.0285 6.78637,-13.49469 3.05338,-2.46619 8.2654,-14.61184 14.45879,-19.03888 6.19339,-4.42703 12.26005,-5.08675 18.21392,-7.63013 5.95386,-2.54338 3.28825,-8.22064 4.93238,-11.97865 1.64413,-3.75801 -13.3879,-9.16014 -19.72954,-13.74021 -6.34163,-4.58007 -16.5542,5.14347 -24.77483,7.60966 -8.22065,2.46619 -20.92016,-7.18071 -30.47025,-12.16017 -9.550095,-4.97946 -6.56157,-7.71367 -11.161103,-10.42817 -4.599538,-2.7145 -9.045935,-21.7224 -13.568902,-32.231287 -4.522968,-10.508888 3.288255,-11.27402 4.932383,-17.263346 1.644129,-5.989322 0.442154,-3.785602 0.677029,-5.664607 0.234876,-1.879002 -1.98724,-8.916067 -2.818505,-13.3879 -0.831263,-4.471832 -14.869181,11.950498 -22.728309,14.073576 -7.859128,2.12308 -9.664245,3.726965 -15.108076,6.201965 -5.443828,2.474997 -4.859353,13.031007 -8.561869,16.616212 -3.702516,3.585204 -6.629503,1.260194 -9.944254,1.890291 -3.314751,0.6301 -3.758007,7.516016 -5.63701,11.274023 z"
       transform="matrix(-1,0,0,1,207.73364,-0.73339083)" />
    <rect
       style="fill:none;stroke:#b0acb0;stroke-width:3;stroke-opacity:1;paint-order:markers stroke fill"
       id="rect1"
       width="128.94662"
       height="128.94662"
       x="-68.01059"
       y="85.947449"
       transform="rotate(-45)" />
    <path
       style="fill:none;stroke:#707070;stroke-width:1.48745;stroke-dasharray:2.9749, 1.48745;stroke-dashoffset:0;stroke-opacity:1;paint-order:markers stroke fill"
       d="M 58.343831,63.328298 149.45182,154.45429"
       id="path1"
       inkscape:path-effect="#path-effect1"
       inkscape:original-d="M 58.343831,63.328298 C 88.6658,93.668267 119.05881,124.06128 149.45182,154.45429"
       transform="matrix(1.3445832,0,0,1.3445832,-35.80144,-37.522106)" />
    <path
       style="fill:none;stroke:#707070;stroke-width:1.48745;stroke-dasharray:2.9749, 1.48745;stroke-dashoffset:0;stroke-opacity:1;paint-order:markers stroke fill"
       d="M 58.343831,63.328298 149.45182,154.45429"
       id="path1-0"
       inkscape:path-effect="#path-effect1-9"
       inkscape:original-d="M 58.343831,63.328298 C 88.6658,93.668267 119.05881,124.06128 149.45182,154.45429"
       transform="matrix(0,-1.3445832,1.3445832,0,-42.527538,248.57861)" />
    <circle
       style="fill:#409090;fill-opacity:1;stroke-width:4;paint-order:markers stroke fill"
       id="path2"
       cx="149.69063"
       cy="63.513351"
       r="4.932384" />
    <circle
       style="fill:#409090;fill-opacity:1;stroke-width:4;paint-order:markers stroke fill"
       id="circle2"
       cx="139.10728"
       cy="52.930016"
       r="4.932384" />
    <circle
       style="fill:#409090;fill-opacity:1;stroke-width:4;paint-order:markers stroke fill"
       id="circle3"
       cx="128.52394"
       cy="42.34668"
       r="4.932384" />
    <circle
       style="fill:#409090;fill-opacity:1;stroke-width:4;paint-order:markers stroke fill"
       id="circle4"
       cx="160.27397"
       cy="74.09668"
       r="4.932384" />
    <circle
       style="fill:#409090;fill-opacity:1;stroke-width:4;paint-order:markers stroke fill"
       id="circle5"
       cx="170.85732"
       cy="84.680008"
       r="4.932384" />
    <circle
       style="fill:#409090;fill-opacity:1;stroke-width:4;paint-order:markers stroke fill"
       id="circle6"
       cx="58.673962"
       cy="154.53"
       r="4.932384" />
    <circle
       style="fill:#409090;fill-opacity:1;stroke-width:4;paint-order:markers stroke fill"
       id="circle7"
       cx="48.090626"
       cy="143.94666"
       r="4.932384" />
    <circle
       style="fill:#409090;fill-opacity:1;stroke-width:4;paint-order:markers stroke fill"
       id="circle8"
       cx="37.50729"
       cy="133.36331"
       r="4.932384" />
    <circle
       style="fill:#409090;fill-opacity:1;stroke-width:4;paint-order:markers stroke fill"
       id="circle9"
       cx="69.257294"
       cy="165.11334"
       r="4.932384" />
    <circle
       style="fill:#409090;fill-opacity:1;stroke-width:4;paint-order:markers stroke fill"
       id="circle10"
       cx="79.840622"
       cy="175.69669"
       r="4.932384" />
    <circle
       style="fill:#c490ac;fill-opacity:1;stroke-width:4;paint-order:markers stroke fill"
       id="path2-0"
       cx="-58.435154"
       cy="62.209431"
       r="4.932384"
       transform="scale(-1,1)" />
    <circle
       style="fill:#c490ac;fill-opacity:1;stroke-width:4;paint-order:markers stroke fill"
       id="circle2-6"
       cx="-69.018501"
       cy="51.626095"
       r="4.932384"
       transform="scale(-1,1)" />
    <circle
       style="fill:#c490ac;fill-opacity:1;stroke-width:4;paint-order:markers stroke fill"
       id="circle3-8"
       cx="-79.601837"
       cy="41.042759"
       r="4.932384"
       transform="scale(-1,1)" />
    <circle
       style="fill:#c490ac;fill-opacity:1;stroke-width:4;paint-order:markers stroke fill"
       id="circle4-9"
       cx="-47.85181"
       cy="72.792747"
       r="4.932384"
       transform="scale(-1,1)" />
    <circle
       style="fill:#c490ac;fill-opacity:1;stroke-width:4;paint-order:markers stroke fill"
       id="circle5-2"
       cx="-37.268467"
       cy="83.376083"
       r="4.932384"
       transform="scale(-1,1)" />
    <circle
       style="fill:#c490ac;fill-opacity:1;stroke-width:4;paint-order:markers stroke fill"
       id="circle6-6"
       cx="-149.45183"
       cy="153.22603"
       r="4.932384"
       transform="scale(-1,1)" />
    <circle
       style="fill:#c490ac;fill-opacity:1;stroke-width:4;paint-order:markers stroke fill"
       id="circle7-6"
       cx="-160.03516"
       cy="142.64268"
       r="4.932384"
       transform="scale(-1,1)" />
    <circle
       style="fill:#c490ac;fill-opacity:1;stroke-width:4;paint-order:markers stroke fill"
       id="circle8-4"
       cx="-170.6185"
       cy="132.05933"
       r="4.932384"
       transform="scale(-1,1)" />
    <circle
       style="fill:#c490ac;fill-opacity:1;stroke-width:4;paint-order:markers stroke fill"
       id="circle9-9"
       cx="-138.86848"
       cy="163.80937"
       r="4.932384"
       transform="scale(-1,1)" />
    <circle
       style="fill:#c490ac;fill-opacity:1;stroke-width:4;paint-order:markers stroke fill"
       id="circle10-5"
       cx="-128.28516"
       cy="174.39272"
       r="4.932384"
       transform="scale(-1,1)" />
  </g>
</svg>
