<?xml version="1.0" encoding="UTF-8" standalone="no"?>
<!-- Created with Inkscape (http://www.inkscape.org/) -->

<svg
   width="73.963936mm"
   height="65.484932mm"
   viewBox="0 0 73.963936 65.484932"
   version="1.1"
   id="svg1"
   inkscape:version="1.4 (e7c3feb100, 2024-10-09)"
   sodipodi:docname="band.svg"
   xmlns:inkscape="http://www.inkscape.org/namespaces/inkscape"
   xmlns:sodipodi="http://sodipodi.sourceforge.net/DTD/sodipodi-0.dtd"
   xmlns="http://www.w3.org/2000/svg"
   xmlns:svg="http://www.w3.org/2000/svg"
   xmlns:ns4="http://www.iki.fi/pav/software/textext/">
  <sodipodi:namedview
     id="namedview1"
     pagecolor="#ffffff"
     bordercolor="#000000"
     borderopacity="0.25"
     inkscape:showpageshadow="2"
     inkscape:pageopacity="0.0"
     inkscape:pagecheckerboard="0"
     inkscape:deskcolor="#d1d1d1"
     inkscape:document-units="mm"
     showgrid="false"
     inkscape:zoom="2.5642628"
     inkscape:cx="145.46091"
     inkscape:cy="120.30748"
     inkscape:window-width="1914"
     inkscape:window-height="1044"
     inkscape:window-x="0"
     inkscape:window-y="30"
     inkscape:window-maximized="1"
     inkscape:current-layer="layer1" />
  <defs
     id="defs1">
    <inkscape:path-effect
       effect="spiro"
       id="path-effect58"
       is_visible="true"
       lpeversion="1" />
    <marker
       style="overflow:visible"
       id="marker46"
       refX="0"
       refY="0"
       orient="auto-start-reverse"
       inkscape:stockid="Rounded arrow"
       markerWidth="0.5"
       markerHeight="0.5"
       viewBox="0 0 1 1"
       inkscape:isstock="true"
       inkscape:collect="always"
       preserveAspectRatio="xMidYMid">
      <path
         transform="scale(0.7)"
         d="m -0.21114562,-4.1055728 6.42229122,3.21114561 a 1,1 90 0 1 0,1.78885438 L -0.21114562,4.1055728 A 1.236068,1.236068 31.717474 0 1 -2,3 v -6 a 1.236068,1.236068 148.28253 0 1 1.78885438,-1.1055728 z"
         style="fill:context-stroke;fill-rule:evenodd;stroke:none"
         id="path46" />
    </marker>
    <marker
       style="overflow:visible"
       id="RoundedArrow"
       refX="0"
       refY="0"
       orient="auto-start-reverse"
       inkscape:stockid="Rounded arrow"
       markerWidth="0.5"
       markerHeight="0.5"
       viewBox="0 0 1 1"
       inkscape:isstock="true"
       inkscape:collect="always"
       preserveAspectRatio="xMidYMid">
      <path
         transform="scale(0.7)"
         d="m -0.21114562,-4.1055728 6.42229122,3.21114561 a 1,1 90 0 1 0,1.78885438 L -0.21114562,4.1055728 A 1.236068,1.236068 31.717474 0 1 -2,3 v -6 a 1.236068,1.236068 148.28253 0 1 1.78885438,-1.1055728 z"
         style="fill:context-stroke;fill-rule:evenodd;stroke:none"
         id="path8" />
    </marker>
    <inkscape:path-effect
       effect="spiro"
       id="path-effect45"
       is_visible="true"
       lpeversion="1" />
    <inkscape:path-effect
       effect="spiro"
       id="path-effect44"
       is_visible="true"
       lpeversion="1" />
    <inkscape:path-effect
       effect="spiro"
       id="path-effect43"
       is_visible="true"
       lpeversion="1" />
    <inkscape:path-effect
       effect="spiro"
       id="path-effect42"
       is_visible="true"
       lpeversion="1" />
    <inkscape:path-effect
       effect="spiro"
       id="path-effect40"
       is_visible="true"
       lpeversion="1" />
    <inkscape:path-effect
       effect="spiro"
       id="path-effect38"
       is_visible="true"
       lpeversion="1" />
    <inkscape:path-effect
       effect="spiro"
       id="path-effect36"
       is_visible="true"
       lpeversion="1" />
    <inkscape:path-effect
       effect="spiro"
       id="path-effect34"
       is_visible="true"
       lpeversion="1" />
    <inkscape:path-effect
       effect="spiro"
       id="path-effect32"
       is_visible="true"
       lpeversion="1" />
    <inkscape:path-effect
       effect="spiro"
       id="path-effect30"
       is_visible="true"
       lpeversion="1" />
    <inkscape:path-effect
       effect="spiro"
       id="path-effect23"
       is_visible="true"
       lpeversion="1" />
    <inkscape:path-effect
       effect="spiro"
       id="path-effect21"
       is_visible="true"
       lpeversion="1" />
    <inkscape:path-effect
       effect="spiro"
       id="path-effect19"
       is_visible="true"
       lpeversion="1" />
    <inkscape:path-effect
       effect="spiro"
       id="path-effect17"
       is_visible="true"
       lpeversion="1" />
    <inkscape:path-effect
       effect="spiro"
       id="path-effect15"
       is_visible="true"
       lpeversion="1" />
    <inkscape:path-effect
       effect="spiro"
       id="path-effect13"
       is_visible="true"
       lpeversion="1" />
    <inkscape:path-effect
       effect="spiro"
       id="path-effect11"
       is_visible="true"
       lpeversion="1" />
    <inkscape:path-effect
       effect="spiro"
       id="path-effect10"
       is_visible="true"
       lpeversion="1" />
    <inkscape:path-effect
       effect="spiro"
       id="path-effect8"
       is_visible="true"
       lpeversion="1" />
    <inkscape:path-effect
       effect="spiro"
       id="path-effect6"
       is_visible="true"
       lpeversion="1" />
    <inkscape:path-effect
       effect="spiro"
       id="path-effect4"
       is_visible="true"
       lpeversion="1" />
    <inkscape:path-effect
       effect="spiro"
       id="path-effect1"
       is_visible="true"
       lpeversion="1" />
    <inkscape:path-effect
       effect="spiro"
       id="path-effect11-9"
       is_visible="true"
       lpeversion="1" />
    <inkscape:path-effect
       effect="spiro"
       id="path-effect13-4"
       is_visible="true"
       lpeversion="1" />
    <inkscape:path-effect
       effect="spiro"
       id="path-effect15-5"
       is_visible="true"
       lpeversion="1" />
    <inkscape:path-effect
       effect="spiro"
       id="path-effect17-9"
       is_visible="true"
       lpeversion="1" />
    <inkscape:path-effect
       effect="spiro"
       id="path-effect19-3"
       is_visible="true"
       lpeversion="1" />
    <inkscape:path-effect
       effect="spiro"
       id="path-effect21-5"
       is_visible="true"
       lpeversion="1" />
    <inkscape:path-effect
       effect="spiro"
       id="path-effect23-7"
       is_visible="true"
       lpeversion="1" />
    <inkscape:path-effect
       effect="spiro"
       id="path-effect30-0"
       is_visible="true"
       lpeversion="1" />
    <inkscape:path-effect
       effect="spiro"
       id="path-effect32-8"
       is_visible="true"
       lpeversion="1" />
    <inkscape:path-effect
       effect="spiro"
       id="path-effect34-1"
       is_visible="true"
       lpeversion="1" />
    <inkscape:path-effect
       effect="spiro"
       id="path-effect36-9"
       is_visible="true"
       lpeversion="1" />
    <inkscape:path-effect
       effect="spiro"
       id="path-effect38-9"
       is_visible="true"
       lpeversion="1" />
    <inkscape:path-effect
       effect="spiro"
       id="path-effect40-7"
       is_visible="true"
       lpeversion="1" />
    <inkscape:path-effect
       effect="spiro"
       id="path-effect42-8"
       is_visible="true"
       lpeversion="1" />
    <inkscape:path-effect
       effect="spiro"
       id="path-effect43-1"
       is_visible="true"
       lpeversion="1" />
    <inkscape:path-effect
       effect="spiro"
       id="path-effect45-0"
       is_visible="true"
       lpeversion="1" />
  </defs>
  <g
     inkscape:label="Layer 1"
     inkscape:groupmode="layer"
     id="layer1"
     transform="translate(-14.980674,-57.565514)">
    <rect
       style="opacity:1;fill:#d0d0d0;fill-opacity:1;stroke:none;stroke-width:0.295095;stroke-dasharray:none;stroke-dashoffset:0;stroke-opacity:1"
       id="rect114"
       width="61.960911"
       height="31.574999"
       x="23.988543"
       y="57.565514" />
    <rect
       style="fill:#f0f0f0;fill-opacity:1;stroke:none;stroke-width:0.295095;stroke-dasharray:none;stroke-dashoffset:0;stroke-opacity:1"
       id="rect114-5"
       width="61.960911"
       height="31.574999"
       x="23.988543"
       y="89.140511" />
    <path
       style="opacity:1;fill:#ffe0d0;fill-opacity:1;stroke:#a0a0a0;stroke-width:1;stroke-dasharray:none;stroke-dashoffset:0;stroke-opacity:1"
       d="M 24.164053,90.198849 H 86.038909"
       id="path42"
       inkscape:path-effect="#path-effect43"
       inkscape:original-d="m 24.164053,90.198849 c 20.507945,0 41.1914,0 61.874856,0"
       transform="matrix(1.0939218,0,0,1,-5.17523,-1.0583333)" />
    <g
       transform="matrix(1.014412,0,0,1.014412,14.981054,86.710575)"
       ns4:version="1.10.2"
       ns4:texconverter="xelatex"
       ns4:pdfconverter="inkscape"
       ns4:text="$\\mu$"
       ns4:preamble="/home/storage/.config/inkscape/extensions/textext/default_packages.tex"
       ns4:scale="4.77409322443327"
       ns4:alignment="middle center"
       ns4:stroke-to-path="0"
       ns4:jacobian_sqrt="1.6842"
       id="g45"
       style="fill:#c0c0c0;fill-opacity:1">
      <defs
         id="id-c2fc2e1d-c3bf-4f36-aaa4-0ee84683a9a0">
        <g
           id="id-fe00aced-897c-44ea-8758-476b6daa2ede">
          <g
             id="id-491bd2f4-7cc5-4555-80c9-0b999d02a0fe">
            <path
               d="M 4.6875,-1.765625 5.171875,-5.25 h -0.90625 l -0.5,3.625 c -0.453125,0.75 -0.96875,0.984375 -1.4375,0.984375 -0.421875,0 -0.75,-0.203125 -0.640625,-0.890625 L 2.21875,-5.25 H 1.3125 L 0.265625,2.125 1.1875,2.015625 1.328125,0.984375 C 1.421875,0.359375 1.4375,0.015625 1.375,-0.21875 1.5625,0.015625 1.828125,0.125 2.171875,0.125 c 0.703125,0 1.234375,-0.5 1.5625,-0.96875 0,0.328125 0,0.578125 0.109375,0.9375 L 4.6875,0.015625 c -0.078125,-0.421875 -0.109375,-1 0,-1.78125 z m 0,0"
               id="id-681c1a85-f2c9-4872-b695-eec66da36af6" />
          </g>
        </g>
      </defs>
      <g
         fill="#000000"
         fill-opacity="1"
         id="id-acc9571a-c94c-410f-b3b4-cb46ca66c069"
         transform="translate(-302.916,-129.515)"
         style="fill:#c0c0c0;fill-opacity:1">
        <g
           transform="translate(302.65,134.765)"
           id="g44"
           style="fill:#c0c0c0;fill-opacity:1">
          <path
             d="M 4.6875,-1.765625 5.171875,-5.25 h -0.90625 l -0.5,3.625 c -0.453125,0.75 -0.96875,0.984375 -1.4375,0.984375 -0.421875,0 -0.75,-0.203125 -0.640625,-0.890625 L 2.21875,-5.25 H 1.3125 L 0.265625,2.125 1.1875,2.015625 1.328125,0.984375 C 1.421875,0.359375 1.4375,0.015625 1.375,-0.21875 1.5625,0.015625 1.828125,0.125 2.171875,0.125 c 0.703125,0 1.234375,-0.5 1.5625,-0.96875 0,0.328125 0,0.578125 0.109375,0.9375 L 4.6875,0.015625 c -0.078125,-0.421875 -0.109375,-1 0,-1.78125 z m 0,0"
             id="id-744e3087-9982-44f8-a279-569bc934f337"
             style="fill:#c0c0c0;fill-opacity:1" />
        </g>
      </g>
    </g>
    <path
       style="opacity:1;fill:#c0c0c0;fill-opacity:1;stroke:#a0a0a0;stroke-width:0.781;stroke-dasharray:none;stroke-dashoffset:0;stroke-opacity:1;marker-start:url(#marker46);marker-end:url(#RoundedArrow)"
       d="M 91.403635,120.14319 V 90.36664"
       id="path45"
       inkscape:path-effect="#path-effect45"
       inkscape:original-d="m 91.403635,120.14319 c 0,-9.82676 0,-19.80165 0,-29.77655"
       transform="translate(-52.916669,1.0583333)" />
    <g
       transform="matrix(0.64824053,0,0,0.64824053,39.804725,100.77336)"
       ns4:version="1.10.2"
       ns4:texconverter="xelatex"
       ns4:pdfconverter="inkscape"
       ns4:text="Filled\\\\\nStates"
       ns4:preamble="/home/storage/.config/inkscape/extensions/textext/default_packages.tex"
       ns4:scale="4.77409322443327"
       ns4:alignment="middle center"
       ns4:stroke-to-path="0"
       ns4:jacobian_sqrt="1.6842"
       id="g58"
       style="fill:#505050;fill-opacity:1;stroke:#505050;stroke-width:0.462791;stroke-dasharray:none;stroke-opacity:1">
      <defs
         id="id-a671fb24-2038-4519-9fef-ddf746e14cd8">
        <g
           id="id-c1c3e0c0-f853-4a15-bb0c-d2856636d232">
          <g
             id="id-2f9942f4-d116-4a2f-84ff-93e7c7cf9280">
            <path
               d="m 1.5625,0 v -3.046875 h 3.109375 v -0.78125 H 1.5625 v -2.40625 H 4.953125 V -7.03125 H 0.6875 V 0 Z m 0,0"
               id="id-c4a554e9-5622-4eba-bbc8-e8c201dc9e27" />
          </g>
          <g
             id="id-be38b52a-f92f-43ff-959e-fc828b5131d7">
            <path
               d="M 0.59375,0 H 1.4375 V -5.0625 H 0.59375 Z m 0.421875,-5.921875 c 0.296875,0 0.53125,-0.234375 0.53125,-0.515625 0,-0.296875 -0.234375,-0.53125 -0.53125,-0.53125 -0.28125,0 -0.53125,0.234375 -0.53125,0.53125 0,0.28125 0.25,0.515625 0.53125,0.515625 z m 0,0"
               id="id-e0b45ac4-d64d-4de3-87fe-360d02f1a8cc" />
          </g>
          <g
             id="id-a94cd40e-46e8-4366-8aa4-26a9f6ca5e80">
            <path
               d="M 0.59375,0 H 1.4375 V -7.03125 H 0.59375 Z m 0,0"
               id="id-f2c04b47-a935-45ea-b8f4-5480cce5887a" />
          </g>
          <g
             id="id-337f317d-ac51-4f92-860a-8400b098ffd3">
            <path
               d="m 2.578125,-4.421875 c 0.796875,0 1.328125,0.609375 1.34375,1.453125 h -2.75 c 0.0625,-0.84375 0.609375,-1.453125 1.40625,-1.453125 z m 1.328125,2.96875 c -0.140625,0.484375 -0.609375,0.8125 -1.25,0.8125 C 1.75,-0.640625 1.171875,-1.28125 1.171875,-2.25 v -0.046875 h 3.625 V -2.625 c 0,-1.53125 -0.828125,-2.53125 -2.203125,-2.53125 -1.390625,0 -2.296875,1.078125 -2.296875,2.640625 0,1.59375 0.890625,2.609375 2.34375,2.609375 1.09375,0 1.953125,-0.65625 2.09375,-1.546875 z m 0,0"
               id="id-337817d1-5188-4d11-bc3f-0c607e0ffe01" />
          </g>
          <g
             id="id-47a1ffe9-95bc-48a8-8acd-faa132e1c35d">
            <path
               d="m 2.46875,0.09375 c 0.734375,0 1.3125,-0.359375 1.640625,-0.953125 H 4.125 V 0 h 0.796875 v -7.03125 h -0.84375 v 2.796875 H 4.0625 C 3.75,-4.796875 3.171875,-5.15625 2.453125,-5.15625 c -1.28125,0 -2.15625,1.03125 -2.15625,2.625 0,1.59375 0.875,2.625 2.171875,2.625 z m 0.15625,-4.5 c 0.875,0 1.453125,0.75 1.453125,1.875 0,1.140625 -0.578125,1.875 -1.453125,1.875 -0.890625,0 -1.453125,-0.71875 -1.453125,-1.875 0,-1.140625 0.5625,-1.875 1.453125,-1.875 z m 0,0"
               id="id-067a37bf-9688-45a3-982d-bc766fa66d1b" />
          </g>
          <g
             id="id-1f819e15-e230-472f-82fb-bf4ead317ff8">
            <path
               d="m 0.34375,-1.9375 c 0.078125,1.25 1.109375,2.046875 2.609375,2.046875 1.609375,0 2.625,-0.796875 2.625,-2.078125 0,-1.015625 -0.59375,-1.5625 -2.046875,-1.9375 l -0.734375,-0.1875 c -0.953125,-0.25 -1.34375,-0.5625 -1.34375,-1.09375 0,-0.6875 0.640625,-1.171875 1.546875,-1.171875 0.90625,0 1.515625,0.46875 1.59375,1.21875 h 0.875 c -0.03125,-1.171875 -1.046875,-2 -2.4375,-2 -1.46875,0 -2.484375,0.8125 -2.484375,1.984375 0,0.953125 0.578125,1.53125 1.875,1.859375 L 3.3125,-3.0625 c 0.953125,0.234375 1.359375,0.609375 1.359375,1.203125 0,0.6875 -0.6875,1.1875 -1.640625,1.1875 -1,0 -1.71875,-0.5 -1.796875,-1.265625 z m 0,0"
               id="id-f7d17954-a50c-4803-baef-adaf29b09482" />
          </g>
          <g
             id="id-0a81841f-99f3-4aff-9195-0517dcd48845">
            <path
               d="M 0.828125,-6.28125 V -5.0625 H 0.0625 v 0.703125 H 0.828125 V -1.3125 c 0,0.96875 0.359375,1.34375 1.28125,1.34375 0.203125,0 0.4375,0 0.53125,-0.03125 v -0.703125 c -0.046875,0 -0.25,0.015625 -0.34375,0.015625 -0.4375,0 -0.625,-0.203125 -0.625,-0.671875 v -3 H 2.65625 V -5.0625 H 1.671875 v -1.21875 z m 0,0"
               id="id-2d49b522-7c05-4ecc-aca7-0dc7de2d4b44" />
          </g>
          <g
             id="id-02ec8958-dab8-469f-bc93-f4a872602fb7">
            <path
               d="m 2.21875,-0.625 c -0.609375,0 -1.015625,-0.328125 -1.015625,-0.8125 0,-0.46875 0.390625,-0.765625 1.078125,-0.8125 L 3.625,-2.34375 v 0.421875 C 3.625,-1.1875 3.015625,-0.625 2.21875,-0.625 Z m -0.1875,0.71875 c 0.6875,0 1.328125,-0.390625 1.625,-0.96875 H 3.671875 V 0 h 0.8125 v -3.5 c 0,-1 -0.75,-1.65625 -1.9375,-1.65625 -1.203125,0 -1.953125,0.671875 -2.015625,1.546875 H 1.359375 C 1.453125,-4.09375 1.875,-4.40625 2.515625,-4.40625 c 0.703125,0 1.109375,0.375 1.109375,0.984375 V -3 l -1.4375,0.09375 c -1.171875,0.0625 -1.84375,0.609375 -1.84375,1.46875 0,0.921875 0.671875,1.53125 1.6875,1.53125 z m 0,0"
               id="id-0f1390d3-8a7b-476b-9d77-0d1ab62d6f49" />
          </g>
          <g
             id="id-d3dffd71-5132-4e78-83a7-95f34a1cc170">
            <path
               d="m 0.46875,-3.671875 c 0,0.703125 0.4375,1.15625 1.328125,1.390625 L 2.6875,-2.0625 c 0.5625,0.15625 0.765625,0.34375 0.765625,0.703125 0,0.46875 -0.421875,0.75 -1.109375,0.75 -0.671875,0 -1.078125,-0.28125 -1.171875,-0.796875 h -0.84375 c 0.078125,0.890625 0.859375,1.5 1.96875,1.5 1.1875,0 2.015625,-0.625 2.015625,-1.515625 0,-0.734375 -0.375,-1.109375 -1.390625,-1.375 l -0.78125,-0.1875 c -0.578125,-0.140625 -0.84375,-0.375 -0.84375,-0.71875 0,-0.453125 0.40625,-0.75 1.03125,-0.75 0.609375,0 1.015625,0.296875 1.0625,0.78125 h 0.8125 C 4.171875,-4.53125 3.390625,-5.15625 2.34375,-5.15625 c -1.109375,0 -1.875,0.625 -1.875,1.484375 z m 0,0"
               id="id-d905f0fd-4c57-4d17-9721-c9c779eb0c97" />
          </g>
        </g>
      </defs>
      <g
         fill="#000000"
         fill-opacity="1"
         id="id-7c573184-24b1-4507-90ac-7b8c36c71b38"
         transform="translate(-292.761,-127.734)"
         style="fill:#505050;fill-opacity:1;stroke:#505050;stroke-width:0.462791;stroke-dasharray:none;stroke-opacity:1">
        <g
           transform="translate(294.635,134.765)"
           id="g46"
           style="fill:#505050;fill-opacity:1;stroke:#505050;stroke-width:0.462791;stroke-dasharray:none;stroke-opacity:1">
          <path
             d="m 1.5625,0 v -3.046875 h 3.109375 v -0.78125 H 1.5625 v -2.40625 H 4.953125 V -7.03125 H 0.6875 V 0 Z m 0,0"
             id="id-d03ff038-6bf7-48f2-8848-73f89f886d01"
             style="fill:#505050;fill-opacity:1;stroke:#505050;stroke-width:0.462791;stroke-dasharray:none;stroke-opacity:1" />
        </g>
        <g
           transform="translate(299.895,134.765)"
           id="g47"
           style="fill:#505050;fill-opacity:1;stroke:#505050;stroke-width:0.462791;stroke-dasharray:none;stroke-opacity:1">
          <path
             d="M 0.59375,0 H 1.4375 V -5.0625 H 0.59375 Z m 0.421875,-5.921875 c 0.296875,0 0.53125,-0.234375 0.53125,-0.515625 0,-0.296875 -0.234375,-0.53125 -0.53125,-0.53125 -0.28125,0 -0.53125,0.234375 -0.53125,0.53125 0,0.28125 0.25,0.515625 0.53125,0.515625 z m 0,0"
             id="id-1bcb4293-48c5-422e-a768-90b812c8893a"
             style="fill:#505050;fill-opacity:1;stroke:#505050;stroke-width:0.462791;stroke-dasharray:none;stroke-opacity:1" />
        </g>
        <g
           transform="translate(301.928,134.765)"
           id="g48"
           style="fill:#505050;fill-opacity:1;stroke:#505050;stroke-width:0.462791;stroke-dasharray:none;stroke-opacity:1">
          <path
             d="M 0.59375,0 H 1.4375 V -7.03125 H 0.59375 Z m 0,0"
             id="id-d0f4cbac-3816-4f4e-9b8f-dcabc3884c90"
             style="fill:#505050;fill-opacity:1;stroke:#505050;stroke-width:0.462791;stroke-dasharray:none;stroke-opacity:1" />
        </g>
        <g
           transform="translate(303.96,134.765)"
           id="g49"
           style="fill:#505050;fill-opacity:1;stroke:#505050;stroke-width:0.462791;stroke-dasharray:none;stroke-opacity:1">
          <path
             d="M 0.59375,0 H 1.4375 V -7.03125 H 0.59375 Z m 0,0"
             id="id-68e1c772-f30e-47f3-9aed-1f95d6788323"
             style="fill:#505050;fill-opacity:1;stroke:#505050;stroke-width:0.462791;stroke-dasharray:none;stroke-opacity:1" />
        </g>
        <g
           transform="translate(305.992,134.765)"
           id="g50"
           style="fill:#505050;fill-opacity:1;stroke:#505050;stroke-width:0.462791;stroke-dasharray:none;stroke-opacity:1">
          <path
             d="m 2.578125,-4.421875 c 0.796875,0 1.328125,0.609375 1.34375,1.453125 h -2.75 c 0.0625,-0.84375 0.609375,-1.453125 1.40625,-1.453125 z m 1.328125,2.96875 c -0.140625,0.484375 -0.609375,0.8125 -1.25,0.8125 C 1.75,-0.640625 1.171875,-1.28125 1.171875,-2.25 v -0.046875 h 3.625 V -2.625 c 0,-1.53125 -0.828125,-2.53125 -2.203125,-2.53125 -1.390625,0 -2.296875,1.078125 -2.296875,2.640625 0,1.59375 0.890625,2.609375 2.34375,2.609375 1.09375,0 1.953125,-0.65625 2.09375,-1.546875 z m 0,0"
             id="id-2af28b55-2ccc-46e6-9b9e-76937d9dfd0c"
             style="fill:#505050;fill-opacity:1;stroke:#505050;stroke-width:0.462791;stroke-dasharray:none;stroke-opacity:1" />
        </g>
        <g
           transform="translate(311.093,134.765)"
           id="g51"
           style="fill:#505050;fill-opacity:1;stroke:#505050;stroke-width:0.462791;stroke-dasharray:none;stroke-opacity:1">
          <path
             d="m 2.46875,0.09375 c 0.734375,0 1.3125,-0.359375 1.640625,-0.953125 H 4.125 V 0 h 0.796875 v -7.03125 h -0.84375 v 2.796875 H 4.0625 C 3.75,-4.796875 3.171875,-5.15625 2.453125,-5.15625 c -1.28125,0 -2.15625,1.03125 -2.15625,2.625 0,1.59375 0.875,2.625 2.171875,2.625 z m 0.15625,-4.5 c 0.875,0 1.453125,0.75 1.453125,1.875 0,1.140625 -0.578125,1.875 -1.453125,1.875 -0.890625,0 -1.453125,-0.71875 -1.453125,-1.875 0,-1.140625 0.5625,-1.875 1.453125,-1.875 z m 0,0"
             id="id-895611cc-0654-432a-8ac0-cd295c47e5c2"
             style="fill:#505050;fill-opacity:1;stroke:#505050;stroke-width:0.462791;stroke-dasharray:none;stroke-opacity:1" />
        </g>
      </g>
      <g
         fill="#000000"
         fill-opacity="1"
         id="id-82a8cea0-3d66-40be-942c-815f2b0cd315"
         transform="translate(-292.761,-127.734)"
         style="fill:#505050;fill-opacity:1;stroke:#505050;stroke-width:0.462791;stroke-dasharray:none;stroke-opacity:1">
        <g
           transform="translate(292.417,146.72)"
           id="g52"
           style="fill:#505050;fill-opacity:1;stroke:#505050;stroke-width:0.462791;stroke-dasharray:none;stroke-opacity:1">
          <path
             d="m 0.34375,-1.9375 c 0.078125,1.25 1.109375,2.046875 2.609375,2.046875 1.609375,0 2.625,-0.796875 2.625,-2.078125 0,-1.015625 -0.59375,-1.5625 -2.046875,-1.9375 l -0.734375,-0.1875 c -0.953125,-0.25 -1.34375,-0.5625 -1.34375,-1.09375 0,-0.6875 0.640625,-1.171875 1.546875,-1.171875 0.90625,0 1.515625,0.46875 1.59375,1.21875 h 0.875 c -0.03125,-1.171875 -1.046875,-2 -2.4375,-2 -1.46875,0 -2.484375,0.8125 -2.484375,1.984375 0,0.953125 0.578125,1.53125 1.875,1.859375 L 3.3125,-3.0625 c 0.953125,0.234375 1.359375,0.609375 1.359375,1.203125 0,0.6875 -0.6875,1.1875 -1.640625,1.1875 -1,0 -1.71875,-0.5 -1.796875,-1.265625 z m 0,0"
             id="id-57de4dc0-3265-45eb-93c3-6c88cbde59dc"
             style="fill:#505050;fill-opacity:1;stroke:#505050;stroke-width:0.462791;stroke-dasharray:none;stroke-opacity:1" />
        </g>
        <g
           transform="translate(298.335,146.72)"
           id="g53"
           style="fill:#505050;fill-opacity:1;stroke:#505050;stroke-width:0.462791;stroke-dasharray:none;stroke-opacity:1">
          <path
             d="M 0.828125,-6.28125 V -5.0625 H 0.0625 v 0.703125 H 0.828125 V -1.3125 c 0,0.96875 0.359375,1.34375 1.28125,1.34375 0.203125,0 0.4375,0 0.53125,-0.03125 v -0.703125 c -0.046875,0 -0.25,0.015625 -0.34375,0.015625 -0.4375,0 -0.625,-0.203125 -0.625,-0.671875 v -3 H 2.65625 V -5.0625 H 1.671875 v -1.21875 z m 0,0"
             id="id-5f7f7762-2aee-464f-ad5b-e735757f642d"
             style="fill:#505050;fill-opacity:1;stroke:#505050;stroke-width:0.462791;stroke-dasharray:none;stroke-opacity:1" />
        </g>
      </g>
      <g
         fill="#000000"
         fill-opacity="1"
         id="id-41b6aad2-453d-4cf2-aa35-73931cbb169a"
         transform="translate(-292.761,-127.734)"
         style="fill:#505050;fill-opacity:1;stroke:#505050;stroke-width:0.462791;stroke-dasharray:none;stroke-opacity:1">
        <g
           transform="translate(301.244,146.72)"
           id="g54"
           style="fill:#505050;fill-opacity:1;stroke:#505050;stroke-width:0.462791;stroke-dasharray:none;stroke-opacity:1">
          <path
             d="m 2.21875,-0.625 c -0.609375,0 -1.015625,-0.328125 -1.015625,-0.8125 0,-0.46875 0.390625,-0.765625 1.078125,-0.8125 L 3.625,-2.34375 v 0.421875 C 3.625,-1.1875 3.015625,-0.625 2.21875,-0.625 Z m -0.1875,0.71875 c 0.6875,0 1.328125,-0.390625 1.625,-0.96875 H 3.671875 V 0 h 0.8125 v -3.5 c 0,-1 -0.75,-1.65625 -1.9375,-1.65625 -1.203125,0 -1.953125,0.671875 -2.015625,1.546875 H 1.359375 C 1.453125,-4.09375 1.875,-4.40625 2.515625,-4.40625 c 0.703125,0 1.109375,0.375 1.109375,0.984375 V -3 l -1.4375,0.09375 c -1.171875,0.0625 -1.84375,0.609375 -1.84375,1.46875 0,0.921875 0.671875,1.53125 1.6875,1.53125 z m 0,0"
             id="id-0df3bc49-0f61-4577-a03f-25c24beb9a71"
             style="fill:#505050;fill-opacity:1;stroke:#505050;stroke-width:0.462791;stroke-dasharray:none;stroke-opacity:1" />
        </g>
        <g
           transform="translate(306.245,146.72)"
           id="g55"
           style="fill:#505050;fill-opacity:1;stroke:#505050;stroke-width:0.462791;stroke-dasharray:none;stroke-opacity:1">
          <path
             d="M 0.828125,-6.28125 V -5.0625 H 0.0625 v 0.703125 H 0.828125 V -1.3125 c 0,0.96875 0.359375,1.34375 1.28125,1.34375 0.203125,0 0.4375,0 0.53125,-0.03125 v -0.703125 c -0.046875,0 -0.25,0.015625 -0.34375,0.015625 -0.4375,0 -0.625,-0.203125 -0.625,-0.671875 v -3 H 2.65625 V -5.0625 H 1.671875 v -1.21875 z m 0,0"
             id="id-7ea7dde7-d304-4f70-b0f4-ce8e444437a1"
             style="fill:#505050;fill-opacity:1;stroke:#505050;stroke-width:0.462791;stroke-dasharray:none;stroke-opacity:1" />
        </g>
      </g>
      <g
         fill="#000000"
         fill-opacity="1"
         id="id-da737265-3bb4-4492-9316-e2051d96ea6e"
         transform="translate(-292.761,-127.734)"
         style="fill:#505050;fill-opacity:1;stroke:#505050;stroke-width:0.462791;stroke-dasharray:none;stroke-opacity:1">
        <g
           transform="translate(309.094,146.72)"
           id="g56"
           style="fill:#505050;fill-opacity:1;stroke:#505050;stroke-width:0.462791;stroke-dasharray:none;stroke-opacity:1">
          <path
             d="m 2.578125,-4.421875 c 0.796875,0 1.328125,0.609375 1.34375,1.453125 h -2.75 c 0.0625,-0.84375 0.609375,-1.453125 1.40625,-1.453125 z m 1.328125,2.96875 c -0.140625,0.484375 -0.609375,0.8125 -1.25,0.8125 C 1.75,-0.640625 1.171875,-1.28125 1.171875,-2.25 v -0.046875 h 3.625 V -2.625 c 0,-1.53125 -0.828125,-2.53125 -2.203125,-2.53125 -1.390625,0 -2.296875,1.078125 -2.296875,2.640625 0,1.59375 0.890625,2.609375 2.34375,2.609375 1.09375,0 1.953125,-0.65625 2.09375,-1.546875 z m 0,0"
             id="id-7f49e250-c1bf-40f7-b7ba-5dccda604510"
             style="fill:#505050;fill-opacity:1;stroke:#505050;stroke-width:0.462791;stroke-dasharray:none;stroke-opacity:1" />
        </g>
        <g
           transform="translate(314.195,146.72)"
           id="g57"
           style="fill:#505050;fill-opacity:1;stroke:#505050;stroke-width:0.462791;stroke-dasharray:none;stroke-opacity:1">
          <path
             d="m 0.46875,-3.671875 c 0,0.703125 0.4375,1.15625 1.328125,1.390625 L 2.6875,-2.0625 c 0.5625,0.15625 0.765625,0.34375 0.765625,0.703125 0,0.46875 -0.421875,0.75 -1.109375,0.75 -0.671875,0 -1.078125,-0.28125 -1.171875,-0.796875 h -0.84375 c 0.078125,0.890625 0.859375,1.5 1.96875,1.5 1.1875,0 2.015625,-0.625 2.015625,-1.515625 0,-0.734375 -0.375,-1.109375 -1.390625,-1.375 l -0.78125,-0.1875 c -0.578125,-0.140625 -0.84375,-0.375 -0.84375,-0.71875 0,-0.453125 0.40625,-0.75 1.03125,-0.75 0.609375,0 1.015625,0.296875 1.0625,0.78125 h 0.8125 C 4.171875,-4.53125 3.390625,-5.15625 2.34375,-5.15625 c -1.109375,0 -1.875,0.625 -1.875,1.484375 z m 0,0"
             id="id-cf9338b1-8c1e-4000-be71-938da7c2c0b7"
             style="fill:#505050;fill-opacity:1;stroke:#505050;stroke-width:0.462791;stroke-dasharray:none;stroke-opacity:1" />
        </g>
      </g>
    </g>
    <g
       transform="matrix(0.648241,0,0,0.648241,43.108537,67.244398)"
       ns4:version="1.10.2"
       ns4:texconverter="xelatex"
       ns4:pdfconverter="inkscape"
       ns4:text="Gapless\\\\\nExcitations\\\\\nAvailable"
       ns4:preamble="/home/storage/.config/inkscape/extensions/textext/default_packages.tex"
       ns4:scale="1.8375256632680395"
       ns4:alignment="middle center"
       ns4:stroke-to-path="0"
       ns4:jacobian_sqrt="0.648241"
       style="fill:#505050;fill-opacity:1;stroke:#505050;stroke-width:0.462791;stroke-dasharray:none;stroke-opacity:1"
       id="g114">
      <defs
         id="id-f69c88f6-4fad-41b0-a853-4d597908dbda"
         style="fill:#a0c0c0;fill-opacity:1;stroke:#a0c0c0;stroke-width:0;stroke-opacity:1">
        <g
           id="id-96e2815a-142f-4317-9742-5cd8952b69c8"
           style="fill:#a0c0c0;fill-opacity:1;stroke:#a0c0c0;stroke-width:0;stroke-opacity:1">
          <g
             id="id-c2424660-4a18-4f9a-9b03-a69d2028e457"
             style="fill:#a0c0c0;fill-opacity:1;stroke:#a0c0c0;stroke-width:0;stroke-opacity:1">
            <path
               d="M 6.609375,-2.90625 V -3.578125 H 3.75 v 0.78125 h 1.984375 v 0.125 C 5.734375,-1.5 4.875,-0.6875 3.625,-0.6875 c -1.4375,0 -2.3125,-1.09375 -2.3125,-2.859375 0,-1.75 0.875,-2.78125 2.3125,-2.78125 0.984375,0 1.71875,0.53125 2.015625,1.484375 H 6.5625 C 6.296875,-6.234375 5.140625,-7.140625 3.625,-7.140625 c -1.96875,0 -3.21875,1.390625 -3.21875,3.59375 0,2.234375 1.265625,3.65625 3.21875,3.65625 C 5.5,0.109375 6.609375,-1 6.609375,-2.90625 Z m 0,0"
               id="id-dede1346-5b7b-45f5-bf40-0efb9750f0f4"
               style="fill:#a0c0c0;fill-opacity:1;stroke:#a0c0c0;stroke-width:0;stroke-opacity:1" />
          </g>
          <g
             id="id-7ef0e1fe-db44-478d-ab09-c8e4e093039d"
             style="fill:#a0c0c0;fill-opacity:1;stroke:#a0c0c0;stroke-width:0;stroke-opacity:1">
            <path
               d="m 2.21875,-0.625 c -0.609375,0 -1.015625,-0.328125 -1.015625,-0.8125 0,-0.46875 0.390625,-0.765625 1.078125,-0.8125 L 3.625,-2.34375 v 0.421875 C 3.625,-1.1875 3.015625,-0.625 2.21875,-0.625 Z m -0.1875,0.71875 c 0.6875,0 1.328125,-0.390625 1.625,-0.96875 H 3.671875 V 0 h 0.8125 v -3.5 c 0,-1 -0.75,-1.65625 -1.9375,-1.65625 -1.203125,0 -1.953125,0.671875 -2.015625,1.546875 H 1.359375 C 1.453125,-4.09375 1.875,-4.40625 2.515625,-4.40625 c 0.703125,0 1.109375,0.375 1.109375,0.984375 V -3 l -1.4375,0.09375 c -1.171875,0.0625 -1.84375,0.609375 -1.84375,1.46875 0,0.921875 0.671875,1.53125 1.6875,1.53125 z m 0,0"
               id="id-e1fe5398-2d2e-49ff-b3a1-b3eff2b24107"
               style="fill:#a0c0c0;fill-opacity:1;stroke:#a0c0c0;stroke-width:0;stroke-opacity:1" />
          </g>
          <g
             id="id-aca03e2d-e804-4e11-8faf-9b2d27a210ca"
             style="fill:#a0c0c0;fill-opacity:1;stroke:#a0c0c0;stroke-width:0;stroke-opacity:1">
            <path
               d="m 3.015625,-5.15625 c -0.75,0 -1.328125,0.375 -1.640625,0.953125 H 1.359375 V -5.0625 h -0.8125 v 6.75 h 0.84375 v -2.515625 h 0.03125 c 0.296875,0.5625 0.875,0.921875 1.609375,0.921875 1.265625,0 2.140625,-1.03125 2.140625,-2.625 0,-1.59375 -0.875,-2.625 -2.15625,-2.625 z m -0.171875,4.5 c -0.875,0 -1.453125,-0.75 -1.453125,-1.875 0,-1.125 0.578125,-1.875 1.453125,-1.875 0.90625,0 1.46875,0.734375 1.46875,1.875 0,1.15625 -0.5625,1.875 -1.46875,1.875 z m 0,0"
               id="id-7afa2c5d-03c0-49dd-aeae-3a6377e4ae36"
               style="fill:#a0c0c0;fill-opacity:1;stroke:#a0c0c0;stroke-width:0;stroke-opacity:1" />
          </g>
          <g
             id="id-a9786755-313d-423a-8ceb-243c3ccf23dd"
             style="fill:#a0c0c0;fill-opacity:1;stroke:#a0c0c0;stroke-width:0;stroke-opacity:1">
            <path
               d="M 0.59375,0 H 1.4375 V -7.03125 H 0.59375 Z m 0,0"
               id="id-13407c7e-dd46-403e-88e2-e6ca75f8998e"
               style="fill:#a0c0c0;fill-opacity:1;stroke:#a0c0c0;stroke-width:0;stroke-opacity:1" />
          </g>
          <g
             id="id-8dd4f168-4087-478e-a77b-826345909d0b"
             style="fill:#a0c0c0;fill-opacity:1;stroke:#a0c0c0;stroke-width:0;stroke-opacity:1">
            <path
               d="m 2.578125,-4.421875 c 0.796875,0 1.328125,0.609375 1.34375,1.453125 h -2.75 c 0.0625,-0.84375 0.609375,-1.453125 1.40625,-1.453125 z m 1.328125,2.96875 c -0.140625,0.484375 -0.609375,0.8125 -1.25,0.8125 C 1.75,-0.640625 1.171875,-1.28125 1.171875,-2.25 v -0.046875 h 3.625 V -2.625 c 0,-1.53125 -0.828125,-2.53125 -2.203125,-2.53125 -1.390625,0 -2.296875,1.078125 -2.296875,2.640625 0,1.59375 0.890625,2.609375 2.34375,2.609375 1.09375,0 1.953125,-0.65625 2.09375,-1.546875 z m 0,0"
               id="id-6327df17-4f22-4011-96d3-929d0b43aa56"
               style="fill:#a0c0c0;fill-opacity:1;stroke:#a0c0c0;stroke-width:0;stroke-opacity:1" />
          </g>
          <g
             id="id-bf1a33db-7f51-4548-ada7-e2df5ea5625e"
             style="fill:#a0c0c0;fill-opacity:1;stroke:#a0c0c0;stroke-width:0;stroke-opacity:1">
            <path
               d="m 0.46875,-3.671875 c 0,0.703125 0.4375,1.15625 1.328125,1.390625 L 2.6875,-2.0625 c 0.5625,0.15625 0.765625,0.34375 0.765625,0.703125 0,0.46875 -0.421875,0.75 -1.109375,0.75 -0.671875,0 -1.078125,-0.28125 -1.171875,-0.796875 h -0.84375 c 0.078125,0.890625 0.859375,1.5 1.96875,1.5 1.1875,0 2.015625,-0.625 2.015625,-1.515625 0,-0.734375 -0.375,-1.109375 -1.390625,-1.375 l -0.78125,-0.1875 c -0.578125,-0.140625 -0.84375,-0.375 -0.84375,-0.71875 0,-0.453125 0.40625,-0.75 1.03125,-0.75 0.609375,0 1.015625,0.296875 1.0625,0.78125 h 0.8125 C 4.171875,-4.53125 3.390625,-5.15625 2.34375,-5.15625 c -1.109375,0 -1.875,0.625 -1.875,1.484375 z m 0,0"
               id="id-491d9b51-145d-4a02-ab2e-57bf74bfa21d"
               style="fill:#a0c0c0;fill-opacity:1;stroke:#a0c0c0;stroke-width:0;stroke-opacity:1" />
          </g>
          <g
             id="id-588f9d79-8ddd-43f9-968b-b13003b9d8e8"
             style="fill:#a0c0c0;fill-opacity:1;stroke:#a0c0c0;stroke-width:0;stroke-opacity:1">
            <path
               d="M 5.03125,-0.78125 H 1.5625 v -2.421875 h 3.296875 v -0.78125 H 1.5625 v -2.25 H 5.03125 V -7.03125 H 0.6875 V 0 h 4.34375 z m 0,0"
               id="id-e81c6ba6-c366-4ee5-87ce-8b1c27c453e3"
               style="fill:#a0c0c0;fill-opacity:1;stroke:#a0c0c0;stroke-width:0;stroke-opacity:1" />
          </g>
          <g
             id="id-befa375e-32f2-4363-bed3-38e70d07e21e"
             style="fill:#a0c0c0;fill-opacity:1;stroke:#a0c0c0;stroke-width:0;stroke-opacity:1">
            <path
               d="M 2.34375,-1.921875 3.546875,0 H 4.5 l -1.6875,-2.5625 1.703125,-2.5 h -0.9375 L 2.375,-3.15625 H 2.34375 L 1.140625,-5.0625 H 0.1875 L 1.890625,-2.53125 0.15625,0 h 0.9375 l 1.234375,-1.921875 z m 0,0"
               id="id-73e47377-4389-4c5d-87ad-8c76062a0dda"
               style="fill:#a0c0c0;fill-opacity:1;stroke:#a0c0c0;stroke-width:0;stroke-opacity:1" />
          </g>
          <g
             id="id-ec71c6da-7427-4fdc-82bc-03ba93ac3493"
             style="fill:#a0c0c0;fill-opacity:1;stroke:#a0c0c0;stroke-width:0;stroke-opacity:1">
            <path
               d="m 4.75,-3.40625 c -0.09375,-0.90625 -0.859375,-1.75 -2.125,-1.75 -1.390625,0 -2.328125,1.03125 -2.328125,2.625 0,1.625 0.9375,2.625 2.34375,2.625 1.140625,0 2,-0.71875 2.125,-1.71875 H 3.9375 c -0.15625,0.609375 -0.609375,0.96875 -1.296875,0.96875 -0.875,0 -1.484375,-0.703125 -1.484375,-1.875 0,-1.15625 0.59375,-1.875 1.484375,-1.875 0.734375,0 1.171875,0.453125 1.28125,1 z m 0,0"
               id="id-c4dded54-0eda-4ea7-99e0-be93c4cc67ae"
               style="fill:#a0c0c0;fill-opacity:1;stroke:#a0c0c0;stroke-width:0;stroke-opacity:1" />
          </g>
          <g
             id="id-25a2d0d0-956c-467c-b489-c905947809a8"
             style="fill:#a0c0c0;fill-opacity:1;stroke:#a0c0c0;stroke-width:0;stroke-opacity:1">
            <path
               d="M 0.59375,0 H 1.4375 V -5.0625 H 0.59375 Z m 0.421875,-5.921875 c 0.296875,0 0.53125,-0.234375 0.53125,-0.515625 0,-0.296875 -0.234375,-0.53125 -0.53125,-0.53125 -0.28125,0 -0.53125,0.234375 -0.53125,0.53125 0,0.28125 0.25,0.515625 0.53125,0.515625 z m 0,0"
               id="id-db0ed3b3-6c20-44f6-ae09-994452048e75"
               style="fill:#a0c0c0;fill-opacity:1;stroke:#a0c0c0;stroke-width:0;stroke-opacity:1" />
          </g>
          <g
             id="id-27cc900b-5182-4cb6-91a5-fc955a4dd558"
             style="fill:#a0c0c0;fill-opacity:1;stroke:#a0c0c0;stroke-width:0;stroke-opacity:1">
            <path
               d="M 0.828125,-6.28125 V -5.0625 H 0.0625 v 0.703125 H 0.828125 V -1.3125 c 0,0.96875 0.359375,1.34375 1.28125,1.34375 0.203125,0 0.4375,0 0.53125,-0.03125 v -0.703125 c -0.046875,0 -0.25,0.015625 -0.34375,0.015625 -0.4375,0 -0.625,-0.203125 -0.625,-0.671875 v -3 H 2.65625 V -5.0625 H 1.671875 v -1.21875 z m 0,0"
               id="id-1c05f05d-1443-44fc-9379-9a3586aa7400"
               style="fill:#a0c0c0;fill-opacity:1;stroke:#a0c0c0;stroke-width:0;stroke-opacity:1" />
          </g>
          <g
             id="id-eac3e359-d7b1-4081-a1c2-f00a1e4cc2e1"
             style="fill:#a0c0c0;fill-opacity:1;stroke:#a0c0c0;stroke-width:0;stroke-opacity:1">
            <path
               d="m 2.640625,0.09375 c 1.40625,0 2.34375,-1.015625 2.34375,-2.625 0,-1.609375 -0.9375,-2.625 -2.34375,-2.625 -1.390625,0 -2.34375,1.015625 -2.34375,2.625 0,1.609375 0.953125,2.625 2.34375,2.625 z m 0,-0.75 c -0.890625,0 -1.484375,-0.6875 -1.484375,-1.875 0,-1.1875 0.59375,-1.875 1.484375,-1.875 0.90625,0 1.484375,0.6875 1.484375,1.875 0,1.1875 -0.578125,1.875 -1.484375,1.875 z m 0,0"
               id="id-deffb260-12fe-4e46-bda8-9eb4ebdd5609"
               style="fill:#a0c0c0;fill-opacity:1;stroke:#a0c0c0;stroke-width:0;stroke-opacity:1" />
          </g>
          <g
             id="id-62d04c9e-fed3-4627-996a-c26ad69c064c"
             style="fill:#a0c0c0;fill-opacity:1;stroke:#a0c0c0;stroke-width:0;stroke-opacity:1">
            <path
               d="m 0.546875,0 h 0.84375 v -2.984375 c 0,-0.84375 0.53125,-1.421875 1.328125,-1.421875 0.78125,0 1.15625,0.453125 1.15625,1.265625 V 0 h 0.84375 v -3.28125 c 0,-1.15625 -0.640625,-1.875 -1.75,-1.875 -0.78125,0 -1.3125,0.359375 -1.59375,0.90625 H 1.34375 V -5.0625 H 0.546875 Z m 0,0"
               id="id-44a03b3f-b052-41d8-8290-e7bfb925218f"
               style="fill:#a0c0c0;fill-opacity:1;stroke:#a0c0c0;stroke-width:0;stroke-opacity:1" />
          </g>
          <g
             id="id-77be1c8b-de27-4e31-b4a6-5f958395c79e"
             style="fill:#a0c0c0;fill-opacity:1;stroke:#a0c0c0;stroke-width:0;stroke-opacity:1">
            <path
               d="M 5.25,0 H 6.171875 L 3.578125,-7.03125 H 2.71875 L 0.125,0 H 1.046875 L 1.75,-2.015625 H 4.546875 Z M 3.125,-5.953125 H 3.15625 L 4.28125,-2.75 H 2 Z m 0,0"
               id="id-6c06b917-0fd9-436e-94be-25dbbc7f3541"
               style="fill:#a0c0c0;fill-opacity:1;stroke:#a0c0c0;stroke-width:0;stroke-opacity:1" />
          </g>
          <g
             id="id-ab20b081-d1be-4ff7-acf1-1a48966f2de6"
             style="fill:#a0c0c0;fill-opacity:1;stroke:#a0c0c0;stroke-width:0;stroke-opacity:1">
            <path
               d="m 4.703125,-5.0625 h -0.875 l -1.40625,4.15625 H 2.40625 L 1,-5.0625 H 0.109375 L 1.96875,0 h 0.875 z m 0,0"
               id="id-a99a5969-89ea-43e6-9f74-c52c732c6394"
               style="fill:#a0c0c0;fill-opacity:1;stroke:#a0c0c0;stroke-width:0;stroke-opacity:1" />
          </g>
          <g
             id="id-511bb394-fccf-4957-b8f7-8acd5c31d412"
             style="fill:#a0c0c0;fill-opacity:1;stroke:#a0c0c0;stroke-width:0;stroke-opacity:1">
            <path
               d="m 3.0625,0.09375 c 1.296875,0 2.15625,-1.03125 2.15625,-2.625 0,-1.59375 -0.859375,-2.625 -2.140625,-2.625 -0.71875,0 -1.296875,0.359375 -1.625,0.9375 H 1.4375 v -2.8125 H 0.59375 V 0 h 0.8125 V -0.859375 H 1.421875 C 1.75,-0.265625 2.328125,0.09375 3.0625,0.09375 Z m -0.15625,-4.5 c 0.890625,0 1.453125,0.71875 1.453125,1.875 0,1.15625 -0.5625,1.875 -1.453125,1.875 -0.859375,0 -1.46875,-0.75 -1.46875,-1.875 0,-1.125 0.609375,-1.875 1.46875,-1.875 z m 0,0"
               id="id-e242bb6f-a8e7-4699-9475-183c021a2d57"
               style="fill:#a0c0c0;fill-opacity:1;stroke:#a0c0c0;stroke-width:0;stroke-opacity:1" />
          </g>
        </g>
      </defs>
      <g
         fill-opacity="1"
         id="id-93f69d70-9a25-4060-a88e-d7fd63e03d98"
         transform="translate(-283.703,-127.624)"
         style="fill:#505050;fill-opacity:1;stroke:#505050;stroke-width:0.462791;stroke-dasharray:none;stroke-opacity:1">
        <g
           transform="translate(288.664,134.765)"
           style="fill:#505050;fill-opacity:1;stroke:#505050;stroke-width:0.462791;stroke-dasharray:none;stroke-opacity:1"
           id="g87">
          <path
             d="M 6.609375,-2.90625 V -3.578125 H 3.75 v 0.78125 h 1.984375 v 0.125 C 5.734375,-1.5 4.875,-0.6875 3.625,-0.6875 c -1.4375,0 -2.3125,-1.09375 -2.3125,-2.859375 0,-1.75 0.875,-2.78125 2.3125,-2.78125 0.984375,0 1.71875,0.53125 2.015625,1.484375 H 6.5625 C 6.296875,-6.234375 5.140625,-7.140625 3.625,-7.140625 c -1.96875,0 -3.21875,1.390625 -3.21875,3.59375 0,2.234375 1.265625,3.65625 3.21875,3.65625 C 5.5,0.109375 6.609375,-1 6.609375,-2.90625 Z m 0,0"
             id="id-93b0d583-a533-4f38-99f8-39d6c70cc55d"
             style="fill:#505050;fill-opacity:1;stroke:#505050;stroke-width:0.462791;stroke-dasharray:none;stroke-opacity:1" />
        </g>
        <g
           transform="translate(295.708,134.765)"
           style="fill:#505050;fill-opacity:1;stroke:#505050;stroke-width:0.462791;stroke-dasharray:none;stroke-opacity:1"
           id="g88">
          <path
             d="m 2.21875,-0.625 c -0.609375,0 -1.015625,-0.328125 -1.015625,-0.8125 0,-0.46875 0.390625,-0.765625 1.078125,-0.8125 L 3.625,-2.34375 v 0.421875 C 3.625,-1.1875 3.015625,-0.625 2.21875,-0.625 Z m -0.1875,0.71875 c 0.6875,0 1.328125,-0.390625 1.625,-0.96875 H 3.671875 V 0 h 0.8125 v -3.5 c 0,-1 -0.75,-1.65625 -1.9375,-1.65625 -1.203125,0 -1.953125,0.671875 -2.015625,1.546875 H 1.359375 C 1.453125,-4.09375 1.875,-4.40625 2.515625,-4.40625 c 0.703125,0 1.109375,0.375 1.109375,0.984375 V -3 l -1.4375,0.09375 c -1.171875,0.0625 -1.84375,0.609375 -1.84375,1.46875 0,0.921875 0.671875,1.53125 1.6875,1.53125 z m 0,0"
             id="id-3b4a6d59-0a37-4ab3-9cda-7eaf86769dd1"
             style="fill:#505050;fill-opacity:1;stroke:#505050;stroke-width:0.462791;stroke-dasharray:none;stroke-opacity:1" />
        </g>
        <g
           transform="translate(300.709,134.765)"
           style="fill:#505050;fill-opacity:1;stroke:#505050;stroke-width:0.462791;stroke-dasharray:none;stroke-opacity:1"
           id="g89">
          <path
             d="m 3.015625,-5.15625 c -0.75,0 -1.328125,0.375 -1.640625,0.953125 H 1.359375 V -5.0625 h -0.8125 v 6.75 h 0.84375 v -2.515625 h 0.03125 c 0.296875,0.5625 0.875,0.921875 1.609375,0.921875 1.265625,0 2.140625,-1.03125 2.140625,-2.625 0,-1.59375 -0.875,-2.625 -2.15625,-2.625 z m -0.171875,4.5 c -0.875,0 -1.453125,-0.75 -1.453125,-1.875 0,-1.125 0.578125,-1.875 1.453125,-1.875 0.90625,0 1.46875,0.734375 1.46875,1.875 0,1.15625 -0.5625,1.875 -1.46875,1.875 z m 0,0"
             id="id-f57ff9a7-ce5f-4825-b606-84def5d1a9a7"
             style="fill:#505050;fill-opacity:1;stroke:#505050;stroke-width:0.462791;stroke-dasharray:none;stroke-opacity:1" />
        </g>
        <g
           transform="translate(306.178,134.765)"
           style="fill:#505050;fill-opacity:1;stroke:#505050;stroke-width:0.462791;stroke-dasharray:none;stroke-opacity:1"
           id="g90">
          <path
             d="M 0.59375,0 H 1.4375 V -7.03125 H 0.59375 Z m 0,0"
             id="id-1caf84e1-8fce-4846-b993-24bd0ad476a6"
             style="fill:#505050;fill-opacity:1;stroke:#505050;stroke-width:0.462791;stroke-dasharray:none;stroke-opacity:1" />
        </g>
        <g
           transform="translate(308.211,134.765)"
           style="fill:#505050;fill-opacity:1;stroke:#505050;stroke-width:0.462791;stroke-dasharray:none;stroke-opacity:1"
           id="g91">
          <path
             d="m 2.578125,-4.421875 c 0.796875,0 1.328125,0.609375 1.34375,1.453125 h -2.75 c 0.0625,-0.84375 0.609375,-1.453125 1.40625,-1.453125 z m 1.328125,2.96875 c -0.140625,0.484375 -0.609375,0.8125 -1.25,0.8125 C 1.75,-0.640625 1.171875,-1.28125 1.171875,-2.25 v -0.046875 h 3.625 V -2.625 c 0,-1.53125 -0.828125,-2.53125 -2.203125,-2.53125 -1.390625,0 -2.296875,1.078125 -2.296875,2.640625 0,1.59375 0.890625,2.609375 2.34375,2.609375 1.09375,0 1.953125,-0.65625 2.09375,-1.546875 z m 0,0"
             id="id-f4c4dca8-550d-4613-9d8b-4ce093e6e419"
             style="fill:#505050;fill-opacity:1;stroke:#505050;stroke-width:0.462791;stroke-dasharray:none;stroke-opacity:1" />
        </g>
        <g
           transform="translate(313.311,134.765)"
           style="fill:#505050;fill-opacity:1;stroke:#505050;stroke-width:0.462791;stroke-dasharray:none;stroke-opacity:1"
           id="g92">
          <path
             d="m 0.46875,-3.671875 c 0,0.703125 0.4375,1.15625 1.328125,1.390625 L 2.6875,-2.0625 c 0.5625,0.15625 0.765625,0.34375 0.765625,0.703125 0,0.46875 -0.421875,0.75 -1.109375,0.75 -0.671875,0 -1.078125,-0.28125 -1.171875,-0.796875 h -0.84375 c 0.078125,0.890625 0.859375,1.5 1.96875,1.5 1.1875,0 2.015625,-0.625 2.015625,-1.515625 0,-0.734375 -0.375,-1.109375 -1.390625,-1.375 l -0.78125,-0.1875 c -0.578125,-0.140625 -0.84375,-0.375 -0.84375,-0.71875 0,-0.453125 0.40625,-0.75 1.03125,-0.75 0.609375,0 1.015625,0.296875 1.0625,0.78125 h 0.8125 C 4.171875,-4.53125 3.390625,-5.15625 2.34375,-5.15625 c -1.109375,0 -1.875,0.625 -1.875,1.484375 z m 0,0"
             id="id-e2d8450a-11b7-4dbc-a15d-6551ade76dda"
             style="fill:#505050;fill-opacity:1;stroke:#505050;stroke-width:0.462791;stroke-dasharray:none;stroke-opacity:1" />
        </g>
        <g
           transform="translate(317.944,134.765)"
           style="fill:#505050;fill-opacity:1;stroke:#505050;stroke-width:0.462791;stroke-dasharray:none;stroke-opacity:1"
           id="g93">
          <path
             d="m 0.46875,-3.671875 c 0,0.703125 0.4375,1.15625 1.328125,1.390625 L 2.6875,-2.0625 c 0.5625,0.15625 0.765625,0.34375 0.765625,0.703125 0,0.46875 -0.421875,0.75 -1.109375,0.75 -0.671875,0 -1.078125,-0.28125 -1.171875,-0.796875 h -0.84375 c 0.078125,0.890625 0.859375,1.5 1.96875,1.5 1.1875,0 2.015625,-0.625 2.015625,-1.515625 0,-0.734375 -0.375,-1.109375 -1.390625,-1.375 l -0.78125,-0.1875 c -0.578125,-0.140625 -0.84375,-0.375 -0.84375,-0.71875 0,-0.453125 0.40625,-0.75 1.03125,-0.75 0.609375,0 1.015625,0.296875 1.0625,0.78125 h 0.8125 C 4.171875,-4.53125 3.390625,-5.15625 2.34375,-5.15625 c -1.109375,0 -1.875,0.625 -1.875,1.484375 z m 0,0"
             id="id-9929e565-8bc2-4c2c-9c47-11586e13f979"
             style="fill:#505050;fill-opacity:1;stroke:#505050;stroke-width:0.462791;stroke-dasharray:none;stroke-opacity:1" />
        </g>
      </g>
      <g
         fill-opacity="1"
         id="id-6b531453-4229-4c51-95d4-7e15ce4500d3"
         transform="translate(-283.703,-127.624)"
         style="fill:#505050;fill-opacity:1;stroke:#505050;stroke-width:0.462791;stroke-dasharray:none;stroke-opacity:1">
        <g
           transform="translate(283.016,146.72)"
           style="fill:#505050;fill-opacity:1;stroke:#505050;stroke-width:0.462791;stroke-dasharray:none;stroke-opacity:1"
           id="g94">
          <path
             d="M 5.03125,-0.78125 H 1.5625 v -2.421875 h 3.296875 v -0.78125 H 1.5625 v -2.25 H 5.03125 V -7.03125 H 0.6875 V 0 h 4.34375 z m 0,0"
             id="id-dec0a0b7-9c21-4455-9a9e-13ac5a31743a"
             style="fill:#505050;fill-opacity:1;stroke:#505050;stroke-width:0.462791;stroke-dasharray:none;stroke-opacity:1" />
        </g>
        <g
           transform="translate(288.515,146.72)"
           style="fill:#505050;fill-opacity:1;stroke:#505050;stroke-width:0.462791;stroke-dasharray:none;stroke-opacity:1"
           id="g95">
          <path
             d="M 2.34375,-1.921875 3.546875,0 H 4.5 l -1.6875,-2.5625 1.703125,-2.5 h -0.9375 L 2.375,-3.15625 H 2.34375 L 1.140625,-5.0625 H 0.1875 L 1.890625,-2.53125 0.15625,0 h 0.9375 l 1.234375,-1.921875 z m 0,0"
             id="id-aa59b6cb-ba10-4763-a007-647185dbf13a"
             style="fill:#505050;fill-opacity:1;stroke:#505050;stroke-width:0.462791;stroke-dasharray:none;stroke-opacity:1" />
        </g>
      </g>
      <g
         fill-opacity="1"
         id="id-624b0001-214d-47e9-ad72-ddd69cce357b"
         transform="translate(-283.703,-127.624)"
         style="fill:#505050;fill-opacity:1;stroke:#505050;stroke-width:0.462791;stroke-dasharray:none;stroke-opacity:1">
        <g
           transform="translate(293.098,146.72)"
           style="fill:#505050;fill-opacity:1;stroke:#505050;stroke-width:0.462791;stroke-dasharray:none;stroke-opacity:1"
           id="g96">
          <path
             d="m 4.75,-3.40625 c -0.09375,-0.90625 -0.859375,-1.75 -2.125,-1.75 -1.390625,0 -2.328125,1.03125 -2.328125,2.625 0,1.625 0.9375,2.625 2.34375,2.625 1.140625,0 2,-0.71875 2.125,-1.71875 H 3.9375 c -0.15625,0.609375 -0.609375,0.96875 -1.296875,0.96875 -0.875,0 -1.484375,-0.703125 -1.484375,-1.875 0,-1.15625 0.59375,-1.875 1.484375,-1.875 0.734375,0 1.171875,0.453125 1.28125,1 z m 0,0"
             id="id-1080da92-b102-43b7-a5ef-7ff0f650a2b4"
             style="fill:#505050;fill-opacity:1;stroke:#505050;stroke-width:0.462791;stroke-dasharray:none;stroke-opacity:1" />
        </g>
        <g
           transform="translate(298.089,146.72)"
           style="fill:#505050;fill-opacity:1;stroke:#505050;stroke-width:0.462791;stroke-dasharray:none;stroke-opacity:1"
           id="g97">
          <path
             d="M 0.59375,0 H 1.4375 V -5.0625 H 0.59375 Z m 0.421875,-5.921875 c 0.296875,0 0.53125,-0.234375 0.53125,-0.515625 0,-0.296875 -0.234375,-0.53125 -0.53125,-0.53125 -0.28125,0 -0.53125,0.234375 -0.53125,0.53125 0,0.28125 0.25,0.515625 0.53125,0.515625 z m 0,0"
             id="id-5bb8d254-3780-407c-b92e-421850e30ff8"
             style="fill:#505050;fill-opacity:1;stroke:#505050;stroke-width:0.462791;stroke-dasharray:none;stroke-opacity:1" />
        </g>
        <g
           transform="translate(300.122,146.72)"
           style="fill:#505050;fill-opacity:1;stroke:#505050;stroke-width:0.462791;stroke-dasharray:none;stroke-opacity:1"
           id="g98">
          <path
             d="M 0.828125,-6.28125 V -5.0625 H 0.0625 v 0.703125 H 0.828125 V -1.3125 c 0,0.96875 0.359375,1.34375 1.28125,1.34375 0.203125,0 0.4375,0 0.53125,-0.03125 v -0.703125 c -0.046875,0 -0.25,0.015625 -0.34375,0.015625 -0.4375,0 -0.625,-0.203125 -0.625,-0.671875 v -3 H 2.65625 V -5.0625 H 1.671875 v -1.21875 z m 0,0"
             id="id-ed98dd42-7a13-4154-8f90-255b3cd87ad3"
             style="fill:#505050;fill-opacity:1;stroke:#505050;stroke-width:0.462791;stroke-dasharray:none;stroke-opacity:1" />
        </g>
      </g>
      <g
         fill-opacity="1"
         id="id-a692d0b1-d6a5-4b38-9daa-19713b4828c9"
         transform="translate(-283.703,-127.624)"
         style="fill:#505050;fill-opacity:1;stroke:#505050;stroke-width:0.462791;stroke-dasharray:none;stroke-opacity:1">
        <g
           transform="translate(303.021,146.72)"
           style="fill:#505050;fill-opacity:1;stroke:#505050;stroke-width:0.462791;stroke-dasharray:none;stroke-opacity:1"
           id="g99">
          <path
             d="m 2.21875,-0.625 c -0.609375,0 -1.015625,-0.328125 -1.015625,-0.8125 0,-0.46875 0.390625,-0.765625 1.078125,-0.8125 L 3.625,-2.34375 v 0.421875 C 3.625,-1.1875 3.015625,-0.625 2.21875,-0.625 Z m -0.1875,0.71875 c 0.6875,0 1.328125,-0.390625 1.625,-0.96875 H 3.671875 V 0 h 0.8125 v -3.5 c 0,-1 -0.75,-1.65625 -1.9375,-1.65625 -1.203125,0 -1.953125,0.671875 -2.015625,1.546875 H 1.359375 C 1.453125,-4.09375 1.875,-4.40625 2.515625,-4.40625 c 0.703125,0 1.109375,0.375 1.109375,0.984375 V -3 l -1.4375,0.09375 c -1.171875,0.0625 -1.84375,0.609375 -1.84375,1.46875 0,0.921875 0.671875,1.53125 1.6875,1.53125 z m 0,0"
             id="id-8581d68e-92ba-41e5-af61-9c204d5a64bd"
             style="fill:#505050;fill-opacity:1;stroke:#505050;stroke-width:0.462791;stroke-dasharray:none;stroke-opacity:1" />
        </g>
        <g
           transform="translate(308.022,146.72)"
           style="fill:#505050;fill-opacity:1;stroke:#505050;stroke-width:0.462791;stroke-dasharray:none;stroke-opacity:1"
           id="g100">
          <path
             d="M 0.828125,-6.28125 V -5.0625 H 0.0625 v 0.703125 H 0.828125 V -1.3125 c 0,0.96875 0.359375,1.34375 1.28125,1.34375 0.203125,0 0.4375,0 0.53125,-0.03125 v -0.703125 c -0.046875,0 -0.25,0.015625 -0.34375,0.015625 -0.4375,0 -0.625,-0.203125 -0.625,-0.671875 v -3 H 2.65625 V -5.0625 H 1.671875 v -1.21875 z m 0,0"
             id="id-8c295988-4c46-4eb8-b9fb-f9f864fcd72e"
             style="fill:#505050;fill-opacity:1;stroke:#505050;stroke-width:0.462791;stroke-dasharray:none;stroke-opacity:1" />
        </g>
        <g
           transform="translate(311.021,146.72)"
           style="fill:#505050;fill-opacity:1;stroke:#505050;stroke-width:0.462791;stroke-dasharray:none;stroke-opacity:1"
           id="g101">
          <path
             d="M 0.59375,0 H 1.4375 V -5.0625 H 0.59375 Z m 0.421875,-5.921875 c 0.296875,0 0.53125,-0.234375 0.53125,-0.515625 0,-0.296875 -0.234375,-0.53125 -0.53125,-0.53125 -0.28125,0 -0.53125,0.234375 -0.53125,0.53125 0,0.28125 0.25,0.515625 0.53125,0.515625 z m 0,0"
             id="id-0abd7e91-f417-4b41-80b4-2fdd39a57271"
             style="fill:#505050;fill-opacity:1;stroke:#505050;stroke-width:0.462791;stroke-dasharray:none;stroke-opacity:1" />
        </g>
        <g
           transform="translate(313.053,146.72)"
           style="fill:#505050;fill-opacity:1;stroke:#505050;stroke-width:0.462791;stroke-dasharray:none;stroke-opacity:1"
           id="g102">
          <path
             d="m 2.640625,0.09375 c 1.40625,0 2.34375,-1.015625 2.34375,-2.625 0,-1.609375 -0.9375,-2.625 -2.34375,-2.625 -1.390625,0 -2.34375,1.015625 -2.34375,2.625 0,1.609375 0.953125,2.625 2.34375,2.625 z m 0,-0.75 c -0.890625,0 -1.484375,-0.6875 -1.484375,-1.875 0,-1.1875 0.59375,-1.875 1.484375,-1.875 0.90625,0 1.484375,0.6875 1.484375,1.875 0,1.1875 -0.578125,1.875 -1.484375,1.875 z m 0,0"
             id="id-b2371559-97d7-4502-8264-75a7021cdb24"
             style="fill:#505050;fill-opacity:1;stroke:#505050;stroke-width:0.462791;stroke-dasharray:none;stroke-opacity:1" />
        </g>
        <g
           transform="translate(318.343,146.72)"
           style="fill:#505050;fill-opacity:1;stroke:#505050;stroke-width:0.462791;stroke-dasharray:none;stroke-opacity:1"
           id="g103">
          <path
             d="m 0.546875,0 h 0.84375 v -2.984375 c 0,-0.84375 0.53125,-1.421875 1.328125,-1.421875 0.78125,0 1.15625,0.453125 1.15625,1.265625 V 0 h 0.84375 v -3.28125 c 0,-1.15625 -0.640625,-1.875 -1.75,-1.875 -0.78125,0 -1.3125,0.359375 -1.59375,0.90625 H 1.34375 V -5.0625 H 0.546875 Z m 0,0"
             id="id-6c50605a-713c-4193-adad-32ac4295aa04"
             style="fill:#505050;fill-opacity:1;stroke:#505050;stroke-width:0.462791;stroke-dasharray:none;stroke-opacity:1" />
        </g>
        <g
           transform="translate(323.594,146.72)"
           style="fill:#505050;fill-opacity:1;stroke:#505050;stroke-width:0.462791;stroke-dasharray:none;stroke-opacity:1"
           id="g104">
          <path
             d="m 0.46875,-3.671875 c 0,0.703125 0.4375,1.15625 1.328125,1.390625 L 2.6875,-2.0625 c 0.5625,0.15625 0.765625,0.34375 0.765625,0.703125 0,0.46875 -0.421875,0.75 -1.109375,0.75 -0.671875,0 -1.078125,-0.28125 -1.171875,-0.796875 h -0.84375 c 0.078125,0.890625 0.859375,1.5 1.96875,1.5 1.1875,0 2.015625,-0.625 2.015625,-1.515625 0,-0.734375 -0.375,-1.109375 -1.390625,-1.375 l -0.78125,-0.1875 c -0.578125,-0.140625 -0.84375,-0.375 -0.84375,-0.71875 0,-0.453125 0.40625,-0.75 1.03125,-0.75 0.609375,0 1.015625,0.296875 1.0625,0.78125 h 0.8125 C 4.171875,-4.53125 3.390625,-5.15625 2.34375,-5.15625 c -1.109375,0 -1.875,0.625 -1.875,1.484375 z m 0,0"
             id="id-9a0cc993-e842-477c-8ffb-e96c942d3a50"
             style="fill:#505050;fill-opacity:1;stroke:#505050;stroke-width:0.462791;stroke-dasharray:none;stroke-opacity:1" />
        </g>
      </g>
      <g
         fill-opacity="1"
         id="id-246327c9-1e59-43bc-b2d3-7727a3fb89fe"
         transform="translate(-283.703,-127.624)"
         style="fill:#505050;fill-opacity:1;stroke:#505050;stroke-width:0.462791;stroke-dasharray:none;stroke-opacity:1">
        <g
           transform="translate(286.956,158.675)"
           style="fill:#505050;fill-opacity:1;stroke:#505050;stroke-width:0.462791;stroke-dasharray:none;stroke-opacity:1"
           id="g105">
          <path
             d="M 5.25,0 H 6.171875 L 3.578125,-7.03125 H 2.71875 L 0.125,0 H 1.046875 L 1.75,-2.015625 H 4.546875 Z M 3.125,-5.953125 H 3.15625 L 4.28125,-2.75 H 2 Z m 0,0"
             id="id-56f1bcc3-8808-4145-a7c1-6b0158fc43a1"
             style="fill:#505050;fill-opacity:1;stroke:#505050;stroke-width:0.462791;stroke-dasharray:none;stroke-opacity:1" />
        </g>
      </g>
      <g
         fill-opacity="1"
         id="id-16f94f16-d076-434e-ac65-fdc901e30ecf"
         transform="translate(-283.703,-127.624)"
         style="fill:#505050;fill-opacity:1;stroke:#505050;stroke-width:0.462791;stroke-dasharray:none;stroke-opacity:1">
        <g
           transform="translate(292.854,158.675)"
           style="fill:#505050;fill-opacity:1;stroke:#505050;stroke-width:0.462791;stroke-dasharray:none;stroke-opacity:1"
           id="g106">
          <path
             d="m 4.703125,-5.0625 h -0.875 l -1.40625,4.15625 H 2.40625 L 1,-5.0625 H 0.109375 L 1.96875,0 h 0.875 z m 0,0"
             id="id-a903b674-20ef-4974-aa9b-e81703a1cc56"
             style="fill:#505050;fill-opacity:1;stroke:#505050;stroke-width:0.462791;stroke-dasharray:none;stroke-opacity:1" />
        </g>
      </g>
      <g
         fill-opacity="1"
         id="id-ac033cf5-96c9-4ad0-9917-88c9728446bb"
         transform="translate(-283.703,-127.624)"
         style="fill:#505050;fill-opacity:1;stroke:#505050;stroke-width:0.462791;stroke-dasharray:none;stroke-opacity:1">
        <g
           transform="translate(297.576,158.675)"
           style="fill:#505050;fill-opacity:1;stroke:#505050;stroke-width:0.462791;stroke-dasharray:none;stroke-opacity:1"
           id="g107">
          <path
             d="m 2.21875,-0.625 c -0.609375,0 -1.015625,-0.328125 -1.015625,-0.8125 0,-0.46875 0.390625,-0.765625 1.078125,-0.8125 L 3.625,-2.34375 v 0.421875 C 3.625,-1.1875 3.015625,-0.625 2.21875,-0.625 Z m -0.1875,0.71875 c 0.6875,0 1.328125,-0.390625 1.625,-0.96875 H 3.671875 V 0 h 0.8125 v -3.5 c 0,-1 -0.75,-1.65625 -1.9375,-1.65625 -1.203125,0 -1.953125,0.671875 -2.015625,1.546875 H 1.359375 C 1.453125,-4.09375 1.875,-4.40625 2.515625,-4.40625 c 0.703125,0 1.109375,0.375 1.109375,0.984375 V -3 l -1.4375,0.09375 c -1.171875,0.0625 -1.84375,0.609375 -1.84375,1.46875 0,0.921875 0.671875,1.53125 1.6875,1.53125 z m 0,0"
             id="id-376eb315-9d70-4d35-97be-fb346839d549"
             style="fill:#505050;fill-opacity:1;stroke:#505050;stroke-width:0.462791;stroke-dasharray:none;stroke-opacity:1" />
        </g>
        <g
           transform="translate(302.577,158.675)"
           style="fill:#505050;fill-opacity:1;stroke:#505050;stroke-width:0.462791;stroke-dasharray:none;stroke-opacity:1"
           id="g108">
          <path
             d="M 0.59375,0 H 1.4375 V -5.0625 H 0.59375 Z m 0.421875,-5.921875 c 0.296875,0 0.53125,-0.234375 0.53125,-0.515625 0,-0.296875 -0.234375,-0.53125 -0.53125,-0.53125 -0.28125,0 -0.53125,0.234375 -0.53125,0.53125 0,0.28125 0.25,0.515625 0.53125,0.515625 z m 0,0"
             id="id-d86045a0-f172-412a-ba71-4bff15d92f33"
             style="fill:#505050;fill-opacity:1;stroke:#505050;stroke-width:0.462791;stroke-dasharray:none;stroke-opacity:1" />
        </g>
        <g
           transform="translate(304.61,158.675)"
           style="fill:#505050;fill-opacity:1;stroke:#505050;stroke-width:0.462791;stroke-dasharray:none;stroke-opacity:1"
           id="g109">
          <path
             d="M 0.59375,0 H 1.4375 V -7.03125 H 0.59375 Z m 0,0"
             id="id-033c6364-1c0b-4ef2-abab-338b2c0938a9"
             style="fill:#505050;fill-opacity:1;stroke:#505050;stroke-width:0.462791;stroke-dasharray:none;stroke-opacity:1" />
        </g>
        <g
           transform="translate(306.642,158.675)"
           style="fill:#505050;fill-opacity:1;stroke:#505050;stroke-width:0.462791;stroke-dasharray:none;stroke-opacity:1"
           id="g110">
          <path
             d="m 2.21875,-0.625 c -0.609375,0 -1.015625,-0.328125 -1.015625,-0.8125 0,-0.46875 0.390625,-0.765625 1.078125,-0.8125 L 3.625,-2.34375 v 0.421875 C 3.625,-1.1875 3.015625,-0.625 2.21875,-0.625 Z m -0.1875,0.71875 c 0.6875,0 1.328125,-0.390625 1.625,-0.96875 H 3.671875 V 0 h 0.8125 v -3.5 c 0,-1 -0.75,-1.65625 -1.9375,-1.65625 -1.203125,0 -1.953125,0.671875 -2.015625,1.546875 H 1.359375 C 1.453125,-4.09375 1.875,-4.40625 2.515625,-4.40625 c 0.703125,0 1.109375,0.375 1.109375,0.984375 V -3 l -1.4375,0.09375 c -1.171875,0.0625 -1.84375,0.609375 -1.84375,1.46875 0,0.921875 0.671875,1.53125 1.6875,1.53125 z m 0,0"
             id="id-e0bfd911-64e0-43a9-914d-2fb75255e136"
             style="fill:#505050;fill-opacity:1;stroke:#505050;stroke-width:0.462791;stroke-dasharray:none;stroke-opacity:1" />
        </g>
        <g
           transform="translate(311.643,158.675)"
           style="fill:#505050;fill-opacity:1;stroke:#505050;stroke-width:0.462791;stroke-dasharray:none;stroke-opacity:1"
           id="g111">
          <path
             d="m 3.0625,0.09375 c 1.296875,0 2.15625,-1.03125 2.15625,-2.625 0,-1.59375 -0.859375,-2.625 -2.140625,-2.625 -0.71875,0 -1.296875,0.359375 -1.625,0.9375 H 1.4375 v -2.8125 H 0.59375 V 0 h 0.8125 V -0.859375 H 1.421875 C 1.75,-0.265625 2.328125,0.09375 3.0625,0.09375 Z m -0.15625,-4.5 c 0.890625,0 1.453125,0.71875 1.453125,1.875 0,1.15625 -0.5625,1.875 -1.453125,1.875 -0.859375,0 -1.46875,-0.75 -1.46875,-1.875 0,-1.125 0.609375,-1.875 1.46875,-1.875 z m 0,0"
             id="id-b7e63fe0-39bd-405c-8e06-82a569d1e965"
             style="fill:#505050;fill-opacity:1;stroke:#505050;stroke-width:0.462791;stroke-dasharray:none;stroke-opacity:1" />
        </g>
        <g
           transform="translate(317.163,158.675)"
           style="fill:#505050;fill-opacity:1;stroke:#505050;stroke-width:0.462791;stroke-dasharray:none;stroke-opacity:1"
           id="g112">
          <path
             d="M 0.59375,0 H 1.4375 V -7.03125 H 0.59375 Z m 0,0"
             id="id-bf1ace05-102c-4ea6-bc9e-86156b94b6d3"
             style="fill:#505050;fill-opacity:1;stroke:#505050;stroke-width:0.462791;stroke-dasharray:none;stroke-opacity:1" />
        </g>
        <g
           transform="translate(319.195,158.675)"
           style="fill:#505050;fill-opacity:1;stroke:#505050;stroke-width:0.462791;stroke-dasharray:none;stroke-opacity:1"
           id="g113">
          <path
             d="m 2.578125,-4.421875 c 0.796875,0 1.328125,0.609375 1.34375,1.453125 h -2.75 c 0.0625,-0.84375 0.609375,-1.453125 1.40625,-1.453125 z m 1.328125,2.96875 c -0.140625,0.484375 -0.609375,0.8125 -1.25,0.8125 C 1.75,-0.640625 1.171875,-1.28125 1.171875,-2.25 v -0.046875 h 3.625 V -2.625 c 0,-1.53125 -0.828125,-2.53125 -2.203125,-2.53125 -1.390625,0 -2.296875,1.078125 -2.296875,2.640625 0,1.59375 0.890625,2.609375 2.34375,2.609375 1.09375,0 1.953125,-0.65625 2.09375,-1.546875 z m 0,0"
             id="id-8e0597c7-325b-4670-be79-357f4e5d5d32"
             style="fill:#505050;fill-opacity:1;stroke:#505050;stroke-width:0.462791;stroke-dasharray:none;stroke-opacity:1" />
        </g>
      </g>
    </g>
  </g>
</svg>
