<?xml version="1.0" encoding="UTF-8" standalone="no"?>
<!-- Created with Inkscape (http://www.inkscape.org/) -->

<svg
   width="249.31519mm"
   height="29.173296mm"
   viewBox="0 0 249.31517 29.173296"
   version="1.1"
   id="svg1"
   inkscape:version="1.4 (e7c3feb100, 2024-10-09)"
   sodipodi:docname="coulomb.svg"
   xmlns:inkscape="http://www.inkscape.org/namespaces/inkscape"
   xmlns:sodipodi="http://sodipodi.sourceforge.net/DTD/sodipodi-0.dtd"
   xmlns="http://www.w3.org/2000/svg"
   xmlns:svg="http://www.w3.org/2000/svg">
  <sodipodi:namedview
     id="namedview1"
     pagecolor="#ffffff"
     bordercolor="#000000"
     borderopacity="0.25"
     inkscape:showpageshadow="2"
     inkscape:pageopacity="0.0"
     inkscape:pagecheckerboard="0"
     inkscape:deskcolor="#d1d1d1"
     inkscape:document-units="mm"
     inkscape:zoom="1.0725211"
     inkscape:cx="414.91025"
     inkscape:cy="98.366364"
     inkscape:window-width="1914"
     inkscape:window-height="1044"
     inkscape:window-x="0"
     inkscape:window-y="30"
     inkscape:window-maximized="1"
     inkscape:current-layer="layer1" />
  <defs
     id="defs1">
    <rect
       x="34.587475"
       y="193.0032"
       width="275.89594"
       height="94.170639"
       id="rect10" />
    <inkscape:path-effect
       effect="spiro"
       id="path-effect9"
       is_visible="true"
       lpeversion="1" />
    <inkscape:path-effect
       effect="spiro"
       id="path-effect7"
       is_visible="true"
       lpeversion="1" />
    <inkscape:path-effect
       effect="spiro"
       id="path-effect5"
       is_visible="true"
       lpeversion="1" />
    <marker
       style="overflow:visible"
       id="RoundedArrow"
       refX="0"
       refY="0"
       orient="auto-start-reverse"
       inkscape:stockid="Rounded arrow"
       markerWidth="0.5"
       markerHeight="0.5"
       viewBox="0 0 1 1"
       inkscape:isstock="true"
       inkscape:collect="always"
       preserveAspectRatio="xMidYMid">
      <path
         transform="scale(0.7)"
         d="m -0.21114562,-4.1055728 6.42229122,3.21114561 a 1,1 90 0 1 0,1.78885438 L -0.21114562,4.1055728 A 1.236068,1.236068 31.717474 0 1 -2,3 v -6 a 1.236068,1.236068 148.28253 0 1 1.78885438,-1.1055728 z"
         style="fill:context-stroke;fill-rule:evenodd;stroke:none"
         id="path8" />
    </marker>
    <inkscape:path-effect
       effect="spiro"
       id="path-effect3"
       is_visible="true"
       lpeversion="1" />
    <inkscape:path-effect
       effect="spiro"
       id="path-effect2"
       is_visible="true"
       lpeversion="1" />
    <marker
       style="overflow:visible"
       id="RoundedArrow-9"
       refX="0"
       refY="0"
       orient="auto-start-reverse"
       inkscape:stockid="Rounded arrow"
       markerWidth="0.5"
       markerHeight="0.5"
       viewBox="0 0 1 1"
       inkscape:isstock="true"
       inkscape:collect="always"
       preserveAspectRatio="xMidYMid">
      <path
         transform="scale(0.7)"
         d="m -0.21114562,-4.1055728 6.42229122,3.21114561 a 1,1 90 0 1 0,1.78885438 L -0.21114562,4.1055728 A 1.236068,1.236068 31.717474 0 1 -2,3 v -6 a 1.236068,1.236068 148.28253 0 1 1.78885438,-1.1055728 z"
         style="fill:context-stroke;fill-rule:evenodd;stroke:none"
         id="path8-1" />
    </marker>
    <inkscape:path-effect
       effect="spiro"
       id="path-effect5-2"
       is_visible="true"
       lpeversion="1" />
    <marker
       style="overflow:visible"
       id="RoundedArrow-9-6"
       refX="0"
       refY="0"
       orient="auto-start-reverse"
       inkscape:stockid="Rounded arrow"
       markerWidth="0.5"
       markerHeight="0.5"
       viewBox="0 0 1 1"
       inkscape:isstock="true"
       inkscape:collect="always"
       preserveAspectRatio="xMidYMid">
      <path
         transform="scale(0.7)"
         d="m -0.21114562,-4.1055728 6.42229122,3.21114561 a 1,1 90 0 1 0,1.78885438 L -0.21114562,4.1055728 A 1.236068,1.236068 31.717474 0 1 -2,3 v -6 a 1.236068,1.236068 148.28253 0 1 1.78885438,-1.1055728 z"
         style="fill:context-stroke;fill-rule:evenodd;stroke:none"
         id="path8-1-0" />
    </marker>
    <inkscape:path-effect
       effect="spiro"
       id="path-effect5-2-6"
       is_visible="true"
       lpeversion="1" />
    <inkscape:path-effect
       effect="spiro"
       id="path-effect7-6"
       is_visible="true"
       lpeversion="1" />
    <inkscape:path-effect
       effect="spiro"
       id="path-effect9-8"
       is_visible="true"
       lpeversion="1" />
    <marker
       style="overflow:visible"
       id="RoundedArrow-7"
       refX="0"
       refY="0"
       orient="auto-start-reverse"
       inkscape:stockid="Rounded arrow"
       markerWidth="0.5"
       markerHeight="0.5"
       viewBox="0 0 1 1"
       inkscape:isstock="true"
       inkscape:collect="always"
       preserveAspectRatio="xMidYMid">
      <path
         transform="scale(0.7)"
         d="m -0.21114562,-4.1055728 6.42229122,3.21114561 a 1,1 90 0 1 0,1.78885438 L -0.21114562,4.1055728 A 1.236068,1.236068 31.717474 0 1 -2,3 v -6 a 1.236068,1.236068 148.28253 0 1 1.78885438,-1.1055728 z"
         style="fill:context-stroke;fill-rule:evenodd;stroke:none"
         id="path8-9" />
    </marker>
    <inkscape:path-effect
       effect="spiro"
       id="path-effect3-2"
       is_visible="true"
       lpeversion="1" />
    <inkscape:path-effect
       effect="spiro"
       id="path-effect5-3"
       is_visible="true"
       lpeversion="1" />
    <rect
       x="34.587475"
       y="193.0032"
       width="368.20181"
       height="49.416275"
       id="rect10-4" />
  </defs>
  <g
     inkscape:label="Layer 1"
     inkscape:groupmode="layer"
     id="layer1"
     transform="translate(0.92905599,-42.735886)">
    <path
       id="rect9"
       style="opacity:1;fill:#f0f0f0;stroke-width:1.23003"
       d="M -0.92905599,42.986492 H 110.72581 v 28.92269 H -0.92905599 Z" />
    <path
       id="rect9-6"
       style="fill:#f0f0f0;stroke-width:1.23003"
       d="M 136.73126,42.735886 H 248.38613 V 71.658575 H 136.73126 Z" />
    <g
       id="g9"
       transform="translate(0,-5.2916667)">
      <path
         id="path1"
         style="opacity:1;fill:#d0a070;stroke-width:0.65924"
         d="m 21.113471,57.447533 a 7.910902,7.910902 0 0 1 -7.910902,7.910902 7.910902,7.910902 0 0 1 -7.910902,-7.910902 7.910902,7.910902 0 0 1 7.910902,-7.910902 7.910902,7.910902 0 0 1 7.910902,7.910902 z" />
      <path
         id="circle1"
         style="opacity:1;fill:#a0a0a0;stroke-width:0.65924"
         d="m 49.021376,57.447533 a 7.910902,7.910902 0 0 1 -7.910902,7.910902 7.910902,7.910902 0 0 1 -7.910902,-7.910902 7.910902,7.910902 0 0 1 7.910902,-7.910902 7.910902,7.910902 0 0 1 7.910902,7.910902 z" />
      <path
         id="circle2"
         style="opacity:1;fill:#a0a0a0;stroke-width:0.65924"
         d="m 76.929281,57.447533 a 7.910902,7.910902 0 0 1 -7.910902,7.910902 7.910902,7.910902 0 0 1 -7.910902,-7.910902 7.910902,7.910902 0 0 1 7.910902,-7.910902 7.910902,7.910902 0 0 1 7.910902,7.910902 z" />
      <path
         id="path1-5"
         style="opacity:1;fill:#a0a0a0;stroke-width:0.65924"
         d="m 104.83717,57.447533 a 7.910902,7.910902 0 0 1 -7.9109,7.910902 7.910902,7.910902 0 0 1 -7.910902,-7.910902 7.910902,7.910902 0 0 1 7.910902,-7.910902 7.910902,7.910902 0 0 1 7.9109,7.910902 z" />
      <path
         style="opacity:1;fill:none;fill-opacity:1;stroke:#404040;stroke-width:1.5;stroke-dasharray:none;stroke-opacity:1;marker-end:url(#RoundedArrow-9)"
         d="M 30.46426,35.118524 V 29.618032"
         id="path3-0"
         transform="matrix(1,0,0,-1,10.646214,88.040279)" />
      <path
         style="opacity:1;fill:none;fill-opacity:1;stroke:#404040;stroke-width:1.5;stroke-dasharray:none;stroke-opacity:1;marker-end:url(#RoundedArrow-9)"
         d="M 30.46426,35.118524 V 29.618032"
         id="path5"
         transform="translate(38.554119,26.854787)" />
      <path
         style="opacity:1;fill:none;fill-opacity:1;stroke:#404040;stroke-width:1.5;stroke-dasharray:none;stroke-opacity:1;marker-end:url(#RoundedArrow-9)"
         d="M 30.46426,35.118524 V 29.618032"
         id="path7"
         transform="matrix(1,0,0,-1,66.46201,88.040279)" />
      <path
         style="opacity:1;fill:none;fill-opacity:1;stroke:#404040;stroke-width:1.5;stroke-dasharray:none;stroke-opacity:1;marker-end:url(#RoundedArrow)"
         d="M 30.46426,35.118524 V 29.618032"
         id="path2"
         transform="translate(-20.018111,26.701109)" />
      <path
         style="opacity:1;fill:none;fill-opacity:1;stroke:#404040;stroke-width:1.5;stroke-dasharray:none;stroke-opacity:1;marker-end:url(#RoundedArrow)"
         d="M 30.46426,35.118524 V 29.618032"
         id="path3"
         transform="matrix(1,0,0,-1,-14.19728,87.886601)" />
    </g>
    <g
       id="g10"
       transform="translate(0,-5.2916667)">
      <path
         id="circle3"
         style="fill:#d0a070;stroke-width:0.65924"
         d="m 158.69174,57.447529 a 7.910902,7.910902 0 0 1 -7.9109,7.910902 7.910902,7.910902 0 0 1 -7.9109,-7.910902 7.910902,7.910902 0 0 1 7.9109,-7.910902 7.910902,7.910902 0 0 1 7.9109,7.910902 z" />
      <path
         id="circle3-2"
         style="fill:#d0a070;stroke-width:0.65924"
         d="m 242.41543,57.447529 a 7.910902,7.910902 0 0 1 -7.9109,7.910902 7.910902,7.910902 0 0 1 -7.9109,-7.910902 7.910902,7.910902 0 0 1 7.9109,-7.910902 7.910902,7.910902 0 0 1 7.9109,7.910902 z" />
      <path
         id="circle1-5"
         style="fill:#a0a0a0;stroke-width:0.65924"
         d="m 186.59964,57.447529 a 7.910902,7.910902 0 0 1 -7.9109,7.910902 7.910902,7.910902 0 0 1 -7.91091,-7.910902 7.910902,7.910902 0 0 1 7.91091,-7.910902 7.910902,7.910902 0 0 1 7.9109,7.910902 z" />
      <path
         id="circle2-9"
         style="fill:#a0a0a0;stroke-width:0.65924"
         d="m 214.50755,57.447529 a 7.910902,7.910902 0 0 1 -7.9109,7.910902 7.910902,7.910902 0 0 1 -7.9109,-7.910902 7.910902,7.910902 0 0 1 7.9109,-7.910902 7.910902,7.910902 0 0 1 7.9109,7.910902 z" />
      <path
         style="fill:none;fill-opacity:1;stroke:#404040;stroke-width:1.5;stroke-dasharray:none;stroke-opacity:1;marker-end:url(#RoundedArrow-9-6)"
         d="M 30.46426,35.118524 V 29.618032"
         id="path3-0-2"
         transform="matrix(1,0,0,-1,148.22447,88.040278)" />
      <path
         style="fill:none;fill-opacity:1;stroke:#404040;stroke-width:1.5;stroke-dasharray:none;stroke-opacity:1;marker-end:url(#RoundedArrow-9-6)"
         d="M 30.46426,35.118524 V 29.618032"
         id="path5-8"
         transform="translate(176.13238,26.854786)" />
      <path
         style="fill:none;fill-opacity:1;stroke:#404040;stroke-width:1.5;stroke-dasharray:none;stroke-opacity:1;marker-end:url(#RoundedArrow-9-6)"
         d="M 30.46426,35.118524 V 29.618032"
         id="path7-9"
         transform="matrix(1,0,0,-1,204.04027,88.040278)" />
      <path
         style="fill:none;fill-opacity:1;stroke:#404040;stroke-width:1.5;stroke-dasharray:none;stroke-opacity:1;marker-end:url(#RoundedArrow-7)"
         d="M 30.46426,35.118524 V 29.618032"
         id="path4"
         transform="translate(120.31658,26.854783)" />
    </g>
    <path
       style="font-weight:708;font-size:26.6667px;line-height:1;font-family:'Cooper Hewitt';-inkscape-font-specification:'Cooper Hewitt,  weight=708';text-align:justify;letter-spacing:0px;white-space:pre;fill:#505050;stroke-width:3.77953"
       d="m 46.854573,192.20391 v 8.64001 h -7.066676 v -8.64001 h -3.573338 v 20.80002 h 3.573338 v -9.06668 h 7.066676 v 9.06668 h 3.573338 v -20.80002 z m 6.586693,6.66667 v 9.65335 c 0,2.58667 1.253335,4.82667 4.346672,4.82667 2.240003,0 3.706672,-0.93334 4.586673,-2.21334 l 0.32,1.86667 h 3.066671 l -0.213334,-4 v -10.13335 h -3.466671 v 9.84001 c -0.426667,0.66667 -1.333335,1.6 -2.933337,1.6 -1.600002,0 -2.266669,-0.96 -2.266669,-2.32 v -9.12001 z m 18.613351,-7.20001 h -3.466672 v 17.33336 l -0.213333,4 h 3.06667 l 0.293334,-1.76 c 0.773334,1.2 2.053336,2.10667 4.080005,2.10667 3.866672,0 5.280007,-2.96001 5.280007,-6.98668 v -0.85333 c 0,-4.05334 -1.413335,-6.98668 -5.280007,-6.98668 -1.760002,0 -2.960003,0.69334 -3.760004,1.65334 z m 0,11.49335 c 0.426667,-0.66667 1.306668,-1.62667 2.773336,-1.62667 1.973336,0 2.800004,1.49334 2.800004,3.97334 v 0.85333 c 0,2.48001 -0.826668,3.94667 -2.800004,3.94667 -1.466668,0 -2.346669,-0.93333 -2.773336,-1.6 z M 87.06796,191.67057 h -3.466671 v 17.33336 l -0.213333,4 h 3.06667 l 0.293334,-1.76 c 0.773334,1.2 2.053336,2.10667 4.080005,2.10667 3.866672,0 5.280007,-2.96001 5.280007,-6.98668 v -0.85333 c 0,-4.05334 -1.413335,-6.98668 -5.280007,-6.98668 -1.760002,0 -2.960004,0.69334 -3.760005,1.65334 z m 0,11.49335 c 0.426668,-0.66667 1.306669,-1.62667 2.773337,-1.62667 1.973336,0 2.800004,1.49334 2.800004,3.97334 v 0.85333 c 0,2.48001 -0.826668,3.94667 -2.800004,3.94667 -1.466668,0 -2.346669,-0.93333 -2.773337,-1.6 z m 20.08002,9.84001 h 3.06667 l -0.21334,-4 v -5.12001 c 0,-3.30667 -1.33333,-5.36001 -5.73334,-5.36001 -4.506669,0 -5.733337,2.40001 -5.733337,4.77334 v 0.24 h 3.306667 c 0,-1.22667 0.42667,-2.32 2.34667,-2.32 1.78667,0 2.34667,0.88 2.34667,2.66667 v 0.0533 l -3.6,0.56 c -2.74667,0.4 -4.933341,1.36001 -4.933341,4.42668 v 0.26666 c 0,2.26667 1.280002,4.16001 4.266671,4.16001 2.10667,0 3.62667,-0.82667 4.61334,-1.97334 z m -3.68001,-2.50667 c -1.41333,0 -2,-0.85333 -2,-1.73333 v -0.21334 c 0,-1.09333 0.64,-1.78667 2.10667,-2.02667 l 2.96,-0.48 v 2.98667 c -0.45333,0.61334 -1.44,1.46667 -3.06667,1.46667 z m 16.45336,-11.97335 c -1.73333,0 -3.01333,0.88 -3.81334,2.05334 l -0.29333,-1.70667 h -3.06667 l 0.24,4.00001 v 10.13334 h 3.46667 v -9.60001 c 0.42667,-0.64 1.41334,-1.49334 3.28001,-1.49334 h 0.58666 v -3.36 c -0.08,0 -0.24,-0.0267 -0.4,-0.0267 z m 7.76001,0 c -3.86667,0 -5.30667,2.93334 -5.30667,6.98668 v 0.85333 c 0,4.02667 1.44,6.98668 5.30667,6.98668 2.00001,0 3.28001,-0.90667 4.05334,-2.10667 l 0.29334,1.76 h 3.06667 l -0.21334,-4 v -17.33336 h -3.46667 v 8.50668 c -0.8,-0.96 -2,-1.65334 -3.73334,-1.65334 z m 3.73334,10.18668 c -0.4,0.66667 -1.30667,1.6 -2.77333,1.6 -1.97334,0 -2.80001,-1.46666 -2.80001,-3.94667 v -0.85333 c 0,-2.48 0.82667,-3.97334 2.80001,-3.97334 1.46666,0 2.37333,0.96 2.77333,1.62667 z m 15.68004,-16.50668 h -3.57333 v 20.80002 h 3.57333 z m 15.38672,20.80002 v -9.68001 c 0,-2.56 -1.25334,-4.80001 -4.34668,-4.80001 -2.24,0 -3.70667,0.93334 -4.58667,2.21334 l -0.32,-1.86667 h -3.06667 l 0.24,4.00001 v 10.13334 h 3.46667 v -9.84001 c 0.4,-0.66667 1.30667,-1.62667 2.93334,-1.62667 1.57333,0 2.24,0.98667 2.24,2.34667 v 9.12001 z m 7.30668,-14.13335 v -4 h -3.46667 v 4 h -2.16 v 3.04 h 2.16 v 6.48001 c 0,3.65334 2.02667,4.96001 4.93334,4.96001 1.25333,0 1.97333,-0.24 2.18667,-0.34667 v -2.88 c -0.16,0.08 -0.85334,0.18666 -1.36,0.18666 -1.44001,0 -2.29334,-0.4 -2.29334,-2.29333 v -6.10668 h 3.92 v -3.04 z m 18.74668,8.34668 v -1.62667 c 0,-4.02667 -1.97334,-7.06668 -6.32001,-7.06668 -4.37334,0 -6.48001,3.04001 -6.48001,7.06668 v 0.69333 c 0,4.02667 2.05334,7.06668 6.61334,7.06668 4.05334,0 6.18668,-2.24 6.18668,-4.77334 v -0.10667 h -3.28001 c 0,1.06667 -0.98666,2.18667 -2.88,2.18667 -1.97334,0 -3.04,-1.12 -3.17334,-3.44 z m -6.40001,-6.00001 c 1.89334,0 2.8,1.2 2.90667,3.44 h -5.84001 c 0.13334,-2.24 1.06667,-3.44 2.93334,-3.44 z m 15.86667,-2.69334 c -1.73333,0 -3.01333,0.88 -3.81333,2.05334 l -0.29334,-1.70667 h -3.06667 l 0.24,4.00001 v 10.13334 h 3.46667 v -9.60001 c 0.42667,-0.64 1.41334,-1.49334 3.28001,-1.49334 h 0.58667 v -3.36 c -0.08,0 -0.24001,-0.0267 -0.40001,-0.0267 z m 10.74668,14.48002 h 3.06667 l -0.21333,-4 v -5.12001 c 0,-3.30667 -1.33334,-5.36001 -5.73334,-5.36001 -4.50668,0 -5.73334,2.40001 -5.73334,4.77334 v 0.24 h 3.30667 c 0,-1.22667 0.42666,-2.32 2.34667,-2.32 1.78666,0 2.34667,0.88 2.34667,2.66667 v 0.0533 l -3.60001,0.56 c -2.74667,0.4 -4.93334,1.36001 -4.93334,4.42668 v 0.26666 c 0,2.26667 1.28,4.16001 4.26667,4.16001 2.10667,0 3.62667,-0.82667 4.61334,-1.97334 z m -3.68,-2.50667 c -1.41334,0 -2.00001,-0.85333 -2.00001,-1.73333 v -0.21334 c 0,-1.09333 0.64,-1.78667 2.10667,-2.02667 l 2.96001,-0.48 v 2.98667 c -0.45334,0.61334 -1.44001,1.46667 -3.06667,1.46667 z m 12.40002,-4.13334 v -0.85333 c 0,-2.45334 0.82667,-3.97334 2.85334,-3.97334 1.70667,0 2.50667,1.06667 2.50667,2.72 h 3.28 v -0.58666 c 0,-2.85334 -1.86667,-5.14668 -5.86667,-5.14668 -4.34667,0 -6.24001,2.93334 -6.24001,6.98668 v 0.85333 c 0,4.02667 1.89334,6.98668 6.24001,6.98668 4,0 5.86667,-2.24 5.86667,-4.93334 v -0.56 h -3.28 c 0,1.38667 -0.74667,2.45333 -2.50667,2.45333 -2.02667,0 -2.85334,-1.52 -2.85334,-3.94667 z m 15.49336,-7.49334 v -4 h -3.46667 v 4 h -2.16 v 3.04 h 2.16 v 6.48001 c 0,3.65334 2.02667,4.96001 4.93334,4.96001 1.25333,0 1.97333,-0.24 2.18667,-0.34667 v -2.88 c -0.16,0.08 -0.85334,0.18666 -1.36,0.18666 -1.44001,0 -2.29334,-0.4 -2.29334,-2.29333 v -6.10668 h 3.92 v -3.04 z m 6.58666,14.13335 h 3.46667 v -14.13335 h -3.46667 z m 3.62667,-20.34669 h -3.78667 v 3.76 h 3.78667 z m 8.80001,20.69336 c 4.42667,0 6.40001,-2.96001 6.40001,-6.98668 v -0.85333 c 0,-4.05334 -1.97334,-6.98668 -6.40001,-6.98668 -4.42667,0 -6.40001,2.93334 -6.40001,6.98668 v 0.85333 c 0,4.02667 1.97334,6.98668 6.40001,6.98668 z m 0,-3.04001 c -2.02667,0 -2.93333,-1.52 -2.93333,-3.94667 v -0.85333 c 0,-2.45334 0.90666,-3.97334 2.93333,-3.97334 2.02667,0 2.93334,1.52 2.93334,3.97334 v 0.85333 c 0,2.42667 -0.90667,3.94667 -2.93334,3.94667 z m 21.01335,2.69334 v -9.68001 c 0,-2.56 -1.25333,-4.80001 -4.34667,-4.80001 -2.24,0 -3.70667,0.93334 -4.58667,2.21334 l -0.32,-1.86667 h -3.06668 l 0.24001,4.00001 v 10.13334 h 3.46667 v -9.84001 c 0.4,-0.66667 1.30666,-1.62667 2.93333,-1.62667 1.57334,0 2.24001,0.98667 2.24001,2.34667 v 9.12001 z"
       id="text9"
       transform="matrix(0.26458333,0,0,0.26458333,14.119211,12.285171)"
       aria-label="Hubbard Interaction" />
    <path
       style="font-weight:708;font-size:26.6667px;line-height:1;font-family:'Cooper Hewitt';-inkscape-font-specification:'Cooper Hewitt,  weight=708';text-align:justify;letter-spacing:0px;white-space:pre;fill:#505050;stroke-width:3.77953"
       d="m 46.854573,192.20391 v 8.64001 h -7.066676 v -8.64001 h -3.573338 v 20.80002 h 3.573338 v -9.06668 h 7.066676 v 9.06668 h 3.573338 v -20.80002 z m 15.253371,20.80002 h 3.06667 l -0.213333,-4 v -5.12001 c 0,-3.30667 -1.333335,-5.36001 -5.733341,-5.36001 -4.506672,0 -5.73334,2.40001 -5.73334,4.77334 v 0.24 h 3.306671 c 0,-1.22667 0.426667,-2.32 2.346669,-2.32 1.786669,0 2.34667,0.88 2.34667,2.66667 v 0.0533 l -3.600005,0.56 c -2.74667,0.4 -4.933339,1.36001 -4.933339,4.42668 v 0.26666 c 0,2.26667 1.280001,4.16001 4.266672,4.16001 2.106669,0 3.626671,-0.82667 4.613339,-1.97334 z m -3.680005,-2.50667 c -1.413335,0 -2.000002,-0.85333 -2.000002,-1.73333 v -0.21334 c 0,-1.09333 0.640001,-1.78667 2.106669,-2.02667 l 2.960004,-0.48 v 2.98667 c -0.453334,0.61334 -1.440002,1.46667 -3.066671,1.46667 z m 13.893377,-11.62668 v -4 h -3.466671 v 4 h -2.160003 v 3.04 h 2.160003 v 6.48001 c 0,3.65334 2.026669,4.96001 4.93334,4.96001 1.253335,0 1.973336,-0.24 2.186669,-0.34667 v -2.88 c -0.16,0.08 -0.853334,0.18666 -1.360002,0.18666 -1.440001,0 -2.293336,-0.4 -2.293336,-2.29333 v -6.10668 h 3.920005 v -3.04 z m 12.000002,11.78668 c -1.866669,0 -2.453336,-0.93333 -2.453336,-2.08 h -3.440005 v 0.10667 c 0,2.56 1.813336,4.66667 5.893341,4.66667 3.893338,0 5.893341,-1.78667 5.893341,-4.58667 v -0.18667 c 0,-2.85334 -2.053336,-3.68001 -5.600007,-3.97334 -2.080003,-0.16 -2.58667,-0.66667 -2.58667,-1.70667 0,-1.04 0.826667,-1.68 2.293336,-1.68 1.706669,0 2.34667,0.85333 2.34667,2.26667 h 3.386671 v -0.13333 c 0,-2.93334 -1.680003,-4.82668 -5.733341,-4.82668 -3.333338,0 -5.706674,1.44001 -5.706674,4.45334 v 0.21334 c 0,2.48 1.520002,3.57333 5.440007,3.89333 2.000002,0.16 2.693337,0.58667 2.693337,1.81334 0,1.04 -0.773335,1.76 -2.42667,1.76 z m 8.400037,-11.78668 v 9.65335 c 0,2.58667 1.253335,4.82667 4.346672,4.82667 2.240003,0 3.706673,-0.93334 4.586673,-2.21334 l 0.32,1.86667 h 3.06667 l -0.21333,-4 v -10.13335 h -3.46667 v 9.84001 c -0.42667,0.66667 -1.33334,1.6 -2.933341,1.6 -1.600002,0 -2.26667,-0.96 -2.26667,-2.32 v -9.12001 z m 23.653355,13.92002 c 0,2.16 -0.85333,3.04 -2.82667,3.04 -2.05334,0 -2.69334,-1.06667 -2.69334,-2.82667 h -3.28 v 0.50667 c 0,2.85334 1.52,5.17334 6.05334,5.17334 4.29334,0 6.21334,-2.13334 6.21334,-5.84001 v -9.97334 l 0.21333,-4.00001 h -3.06667 l -0.29333,1.73334 c -0.77333,-1.20001 -2.05334,-2.08001 -4.08001,-2.08001 -3.78667,0 -5.30667,2.90667 -5.30667,6.61334 v 0.69334 c 0,3.89334 1.52,6.61334 5.30667,6.61334 1.76001,0 2.96001,-0.66667 3.76001,-1.62667 z m 0,-4.96001 c -0.42667,0.64 -1.30667,1.6 -2.8,1.6 -1.86667,0 -2.80001,-1.28 -2.80001,-3.6 v -0.69334 c 0,-2.16 0.93334,-3.6 2.80001,-3.6 1.49333,0 2.37333,0.96 2.8,1.62667 z m 15.04001,5.17334 h 3.06667 l -0.21333,-4 v -5.12001 c 0,-3.30667 -1.33334,-5.36001 -5.73334,-5.36001 -4.50668,0 -5.73334,2.40001 -5.73334,4.77334 v 0.24 h 3.30667 c 0,-1.22667 0.42666,-2.32 2.34667,-2.32 1.78667,0 2.34667,0.88 2.34667,2.66667 v 0.0533 l -3.60001,0.56 c -2.74667,0.4 -4.93334,1.36001 -4.93334,4.42668 v 0.26666 c 0,2.26667 1.28,4.16001 4.26667,4.16001 2.10667,0 3.62668,-0.82667 4.61334,-1.97334 z m -3.68,-2.50667 c -1.41334,0 -2.00001,-0.85333 -2.00001,-1.73333 v -0.21334 c 0,-1.09333 0.64,-1.78667 2.10667,-2.02667 l 2.96001,-0.48 v 2.98667 c -0.45334,0.61334 -1.44001,1.46667 -3.06667,1.46667 z m 9.57334,2.50667 h 3.46667 v -14.13335 h -3.46667 z m 3.62667,-20.34669 h -3.78667 v 3.76 h 3.78667 z m 2.50668,12.53335 h 7.06667 v -3.04001 h -7.06667 z m 13.33333,-12.98668 h -3.57334 v 20.80002 h 3.57334 v -6.13334 l 2.10667,-2.98667 4.21333,9.12001 h 3.97334 l -5.92,-12.34668 5.92,-8.45334 h -4.32 l -5.97334,9.20001 z m 17.68004,21.14669 c 4.42667,0 6.40001,-2.96001 6.40001,-6.98668 v -0.85333 c 0,-4.05334 -1.97334,-6.98668 -6.40001,-6.98668 -4.42667,0 -6.40001,2.93334 -6.40001,6.98668 v 0.85333 c 0,4.02667 1.97334,6.98668 6.40001,6.98668 z m 0,-3.04001 c -2.02667,0 -2.93334,-1.52 -2.93334,-3.94667 v -0.85333 c 0,-2.45334 0.90667,-3.97334 2.93334,-3.97334 2.02667,0 2.93334,1.52 2.93334,3.97334 v 0.85333 c 0,2.42667 -0.90667,3.94667 -2.93334,3.94667 z m 12.40001,-18.64002 h -3.46668 v 21.33336 h 3.46668 v -9.84001 c 0.4,-0.66667 1.30666,-1.62667 2.93333,-1.62667 1.57334,0 2.24001,0.98667 2.24001,2.34667 v 9.12001 h 3.44 v -9.68001 c 0,-2.56 -1.25334,-4.80001 -4.34667,-4.80001 -2,0 -3.38667,0.74667 -4.26667,1.78667 z m 31.14669,21.33336 v -9.89334 c 0,-2.66667 -1.30667,-4.58668 -4.13334,-4.58668 -2.16001,0 -3.57334,0.96 -4.40001,2.24001 -0.58667,-1.36001 -1.78667,-2.24001 -3.65334,-2.24001 -2.08,0 -3.44,0.90667 -4.29334,2.10667 l -0.29333,-1.76 h -3.06667 l 0.24,4.00001 v 10.13334 h 3.46667 v -9.94668 c 0.4,-0.64 1.14667,-1.52 2.58667,-1.52 1.30667,0 2.02667,0.66667 2.02667,2.10667 v 9.36001 h 3.44001 v -9.94668 c 0.42666,-0.64 1.17333,-1.52 2.61333,-1.52 1.30667,0 2,0.66667 2,2.10667 v 9.36001 z m 8.72001,0.34667 c 4.42667,0 6.40001,-2.96001 6.40001,-6.98668 v -0.85333 c 0,-4.05334 -1.97334,-6.98668 -6.40001,-6.98668 -4.42667,0 -6.40001,2.93334 -6.40001,6.98668 v 0.85333 c 0,4.02667 1.97334,6.98668 6.40001,6.98668 z m 0,-3.04001 c -2.02667,0 -2.93334,-1.52 -2.93334,-3.94667 v -0.85333 c 0,-2.45334 0.90667,-3.97334 2.93334,-3.97334 2.02667,0 2.93334,1.52 2.93334,3.97334 v 0.85333 c 0,2.42667 -0.90667,3.94667 -2.93334,3.94667 z m 13.3067,-11.44001 v -4 h -3.46668 v 4 h -2.16 v 3.04 h 2.16 v 6.48001 c 0,3.65334 2.02667,4.96001 4.93334,4.96001 1.25334,0 1.97334,-0.24 2.18667,-0.34667 v -2.88 c -0.16,0.08 -0.85333,0.18666 -1.36,0.18666 -1.44,0 -2.29333,-0.4 -2.29333,-2.29333 v -6.10668 h 3.92 v -3.04 z m 12.34667,14.48002 c 4.42667,0 6.4,-2.96001 6.4,-6.98668 v -0.85333 c 0,-4.05334 -1.97333,-6.98668 -6.4,-6.98668 -4.42668,0 -6.40001,2.93334 -6.40001,6.98668 v 0.85333 c 0,4.02667 1.97333,6.98668 6.40001,6.98668 z m 0,-3.04001 c -2.02667,0 -2.93334,-1.52 -2.93334,-3.94667 v -0.85333 c 0,-2.45334 0.90667,-3.97334 2.93334,-3.97334 2.02667,0 2.93333,1.52 2.93333,3.97334 v 0.85333 c 0,2.42667 -0.90666,3.94667 -2.93333,3.94667 z m 18.05336,-18.10668 h -3.57334 v 20.80002 h 3.57334 z m 15.3867,20.80002 v -9.68001 c 0,-2.56 -1.25334,-4.80001 -4.34668,-4.80001 -2.24,0 -3.70667,0.93334 -4.58667,2.21334 l -0.32,-1.86667 h -3.06667 l 0.24,4.00001 v 10.13334 h 3.46667 v -9.84001 c 0.4,-0.66667 1.30667,-1.62667 2.93334,-1.62667 1.57333,0 2.24,0.98667 2.24,2.34667 v 9.12001 z m 7.30669,-14.13335 v -4 h -3.46667 v 4 h -2.16 v 3.04 h 2.16 v 6.48001 c 0,3.65334 2.02667,4.96001 4.93334,4.96001 1.25334,0 1.97334,-0.24 2.18667,-0.34667 v -2.88 c -0.16,0.08 -0.85333,0.18666 -1.36,0.18666 -1.44,0 -2.29334,-0.4 -2.29334,-2.29333 v -6.10668 h 3.92001 v -3.04 z m 18.74668,8.34668 v -1.62667 c 0,-4.02667 -1.97333,-7.06668 -6.32,-7.06668 -4.37334,0 -6.48001,3.04001 -6.48001,7.06668 v 0.69333 c 0,4.02667 2.05333,7.06668 6.61334,7.06668 4.05334,0 6.18667,-2.24 6.18667,-4.77334 v -0.10667 h -3.28 c 0,1.06667 -0.98667,2.18667 -2.88,2.18667 -1.97334,0 -3.04001,-1.12 -3.17334,-3.44 z m -6.4,-6.00001 c 1.89333,0 2.8,1.2 2.90667,3.44 h -5.84001 c 0.13333,-2.24 1.06667,-3.44 2.93334,-3.44 z m 15.86667,-2.69334 c -1.73333,0 -3.01334,0.88 -3.81334,2.05334 l -0.29333,-1.70667 h -3.06667 l 0.24,4.00001 v 10.13334 h 3.46667 v -9.60001 c 0.42667,-0.64 1.41333,-1.49334 3.28,-1.49334 h 0.58667 v -3.36 c -0.08,0 -0.24,-0.0267 -0.4,-0.0267 z m 10.74668,14.48002 h 3.06667 l -0.21334,-4 v -5.12001 c 0,-3.30667 -1.33333,-5.36001 -5.73334,-5.36001 -4.50667,0 -5.73334,2.40001 -5.73334,4.77334 v 0.24 h 3.30667 c 0,-1.22667 0.42667,-2.32 2.34667,-2.32 1.78667,0 2.34667,0.88 2.34667,2.66667 v 0.0533 l -3.6,0.56 c -2.74667,0.4 -4.93334,1.36001 -4.93334,4.42668 v 0.26666 c 0,2.26667 1.28,4.16001 4.26667,4.16001 2.10667,0 3.62667,-0.82667 4.61334,-1.97334 z m -3.68001,-2.50667 c -1.41333,0 -2,-0.85333 -2,-1.73333 v -0.21334 c 0,-1.09333 0.64,-1.78667 2.10667,-2.02667 l 2.96,-0.48 v 2.98667 c -0.45333,0.61334 -1.44,1.46667 -3.06667,1.46667 z m 12.40001,-4.13334 v -0.85333 c 0,-2.45334 0.82667,-3.97334 2.85334,-3.97334 1.70667,0 2.50667,1.06667 2.50667,2.72 h 3.28 v -0.58666 c 0,-2.85334 -1.86667,-5.14668 -5.86667,-5.14668 -4.34667,0 -6.24001,2.93334 -6.24001,6.98668 v 0.85333 c 0,4.02667 1.89334,6.98668 6.24001,6.98668 4,0 5.86667,-2.24 5.86667,-4.93334 v -0.56 h -3.28 c 0,1.38667 -0.74667,2.45333 -2.50667,2.45333 -2.02667,0 -2.85334,-1.52 -2.85334,-3.94667 z m 15.49336,-7.49334 v -4 h -3.46667 v 4 h -2.16 v 3.04 h 2.16 v 6.48001 c 0,3.65334 2.02667,4.96001 4.93334,4.96001 1.25333,0 1.97333,-0.24 2.18667,-0.34667 v -2.88 c -0.16,0.08 -0.85334,0.18666 -1.36,0.18666 -1.44001,0 -2.29334,-0.4 -2.29334,-2.29333 v -6.10668 h 3.92001 v -3.04 z m 6.58668,14.13335 h 3.46667 v -14.13335 h -3.46667 z m 3.62667,-20.34669 h -3.78667 v 3.76 h 3.78667 z m 8.79999,20.69336 c 4.42668,0 6.40001,-2.96001 6.40001,-6.98668 v -0.85333 c 0,-4.05334 -1.97333,-6.98668 -6.40001,-6.98668 -4.42667,0 -6.40001,2.93334 -6.40001,6.98668 v 0.85333 c 0,4.02667 1.97334,6.98668 6.40001,6.98668 z m 0,-3.04001 c -2.02667,0 -2.93333,-1.52 -2.93333,-3.94667 v -0.85333 c 0,-2.45334 0.90666,-3.97334 2.93333,-3.97334 2.02667,0 2.93334,1.52 2.93334,3.97334 v 0.85333 c 0,2.42667 -0.90667,3.94667 -2.93334,3.94667 z m 21.01335,2.69334 v -9.68001 c 0,-2.56 -1.25333,-4.80001 -4.34667,-4.80001 -2.24,0 -3.70667,0.93334 -4.58667,2.21334 l -0.32,-1.86667 h -3.06667 l 0.24,4.00001 v 10.13334 h 3.46667 v -9.84001 c 0.4,-0.66667 1.30667,-1.62667 2.93333,-1.62667 1.57334,0 2.24001,0.98667 2.24001,2.34667 v 9.12001 z"
       id="text9-3"
       transform="matrix(0.26458333,0,0,0.26458333,136.43135,12.740116)"
       aria-label="Hatsugai-Kohmoto Interaction" />
  </g>
</svg>
