<?xml version="1.0" encoding="UTF-8" standalone="no"?>
<!-- Created with Inkscape (http://www.inkscape.org/) -->

<svg
   width="148.11356mm"
   height="34.150101mm"
   viewBox="0 0 148.11354 34.150101"
   version="1.1"
   id="svg1"
   inkscape:version="1.4 (e7c3feb100, 2024-10-09)"
   sodipodi:docname="HKM.svg"
   xmlns:inkscape="http://www.inkscape.org/namespaces/inkscape"
   xmlns:sodipodi="http://sodipodi.sourceforge.net/DTD/sodipodi-0.dtd"
   xmlns="http://www.w3.org/2000/svg"
   xmlns:svg="http://www.w3.org/2000/svg">
  <sodipodi:namedview
     id="namedview1"
     pagecolor="#ffffff"
     bordercolor="#000000"
     borderopacity="0.25"
     inkscape:showpageshadow="2"
     inkscape:pageopacity="0.0"
     inkscape:pagecheckerboard="0"
     inkscape:deskcolor="#d1d1d1"
     inkscape:document-units="mm"
     inkscape:zoom="1.9889723"
     inkscape:cx="252.89442"
     inkscape:cy="78.181078"
     inkscape:window-width="1914"
     inkscape:window-height="1044"
     inkscape:window-x="0"
     inkscape:window-y="30"
     inkscape:window-maximized="1"
     inkscape:current-layer="layer1"
     showgrid="false" />
  <defs
     id="defs1">
    <inkscape:path-effect
       effect="spiro"
       id="path-effect15"
       is_visible="true"
       lpeversion="1" />
    <inkscape:path-effect
       effect="spiro"
       id="path-effect14"
       is_visible="true"
       lpeversion="1" />
    <inkscape:path-effect
       effect="spiro"
       id="path-effect1"
       is_visible="true"
       lpeversion="1" />
    <rect
       x="34.587475"
       y="193.0032"
       width="275.89594"
       height="94.170639"
       id="rect10" />
    <inkscape:path-effect
       effect="spiro"
       id="path-effect9"
       is_visible="true"
       lpeversion="1" />
    <inkscape:path-effect
       effect="spiro"
       id="path-effect7"
       is_visible="true"
       lpeversion="1" />
    <inkscape:path-effect
       effect="spiro"
       id="path-effect5"
       is_visible="true"
       lpeversion="1" />
    <inkscape:path-effect
       effect="spiro"
       id="path-effect3"
       is_visible="true"
       lpeversion="1" />
    <inkscape:path-effect
       effect="spiro"
       id="path-effect2"
       is_visible="true"
       lpeversion="1" />
    <inkscape:path-effect
       effect="spiro"
       id="path-effect5-2"
       is_visible="true"
       lpeversion="1" />
    <inkscape:path-effect
       effect="spiro"
       id="path-effect5-2-6"
       is_visible="true"
       lpeversion="1" />
    <inkscape:path-effect
       effect="spiro"
       id="path-effect7-6"
       is_visible="true"
       lpeversion="1" />
    <inkscape:path-effect
       effect="spiro"
       id="path-effect9-8"
       is_visible="true"
       lpeversion="1" />
    <marker
       style="overflow:visible"
       id="RoundedArrow-7"
       refX="0"
       refY="0"
       orient="auto-start-reverse"
       inkscape:stockid="Rounded arrow"
       markerWidth="0.40000001"
       markerHeight="0.40000001"
       viewBox="0 0 1 1"
       inkscape:isstock="true"
       inkscape:collect="always"
       preserveAspectRatio="xMidYMid">
      <path
         transform="scale(0.7)"
         d="m -0.21114562,-4.1055728 6.42229122,3.21114561 a 1,1 90 0 1 0,1.78885438 L -0.21114562,4.1055728 A 1.236068,1.236068 31.717474 0 1 -2,3 v -6 a 1.236068,1.236068 148.28253 0 1 1.78885438,-1.1055728 z"
         style="fill:context-stroke;fill-rule:evenodd;stroke:none"
         id="path8-9" />
    </marker>
    <inkscape:path-effect
       effect="spiro"
       id="path-effect3-2"
       is_visible="true"
       lpeversion="1" />
    <inkscape:path-effect
       effect="spiro"
       id="path-effect5-3"
       is_visible="true"
       lpeversion="1" />
    <rect
       x="34.587475"
       y="193.0032"
       width="368.20181"
       height="49.416275"
       id="rect10-4" />
    <inkscape:path-effect
       effect="spiro"
       id="path-effect14-7"
       is_visible="true"
       lpeversion="1" />
    <inkscape:path-effect
       effect="spiro"
       id="path-effect14-2"
       is_visible="true"
       lpeversion="1" />
    <marker
       style="overflow:visible"
       id="RoundedArrow-7-9"
       refX="0"
       refY="0"
       orient="auto-start-reverse"
       inkscape:stockid="Rounded arrow"
       markerWidth="0.40000001"
       markerHeight="0.40000001"
       viewBox="0 0 1 1"
       inkscape:isstock="true"
       inkscape:collect="always"
       preserveAspectRatio="xMidYMid">
      <path
         transform="scale(0.7)"
         d="m -0.21114562,-4.1055728 6.42229122,3.21114561 a 1,1 90 0 1 0,1.78885438 L -0.21114562,4.1055728 A 1.236068,1.236068 31.717474 0 1 -2,3 v -6 a 1.236068,1.236068 148.28253 0 1 1.78885438,-1.1055728 z"
         style="fill:context-stroke;fill-rule:evenodd;stroke:none"
         id="path8-9-1" />
    </marker>
    <inkscape:path-effect
       effect="spiro"
       id="path-effect14-7-2"
       is_visible="true"
       lpeversion="1" />
    <inkscape:path-effect
       effect="spiro"
       id="path-effect15-7"
       is_visible="true"
       lpeversion="1" />
  </defs>
  <g
     inkscape:label="Layer 1"
     inkscape:groupmode="layer"
     id="layer1"
     transform="translate(-142.86994,-35.913838)">
    <path
       id="circle3"
       style="fill:#b0b0b0;fill-opacity:1;stroke-width:0.65924"
       d="m 158.69174,52.155862 a 7.910902,7.910902 0 0 1 -7.9109,7.910902 7.910902,7.910902 0 0 1 -7.9109,-7.910902 7.910902,7.910902 0 0 1 7.9109,-7.910902 7.910902,7.910902 0 0 1 7.9109,7.910902 z" />
    <path
       style="fill:none;fill-opacity:1;stroke:#404040;stroke-width:1.5;stroke-dasharray:none;stroke-opacity:1;marker-end:url(#RoundedArrow-7)"
       d="m 149.70139,56.539528 1.42363,-5.313067"
       id="path4" />
    <path
       id="path3"
       style="fill:#b0b0b0;fill-opacity:1;stroke-width:0.65924"
       d="m 185.15009,52.155862 a 7.910902,7.910902 0 0 1 -7.9109,7.910902 7.910902,7.910902 0 0 1 -7.9109,-7.910902 7.910902,7.910902 0 0 1 7.9109,-7.910902 7.910902,7.910902 0 0 1 7.9109,7.910902 z" />
    <path
       id="path6"
       style="fill:#b0b0b0;fill-opacity:1;stroke-width:0.65924"
       d="m 211.60844,52.155862 a 7.910902,7.910902 0 0 1 -7.9109,7.910902 7.910902,7.910902 0 0 1 -7.9109,-7.910902 7.910902,7.910902 0 0 1 7.9109,-7.910902 7.910902,7.910902 0 0 1 7.9109,7.910902 z" />
    <path
       id="path8"
       style="fill:#b0b0b0;fill-opacity:1;stroke-width:0.65924"
       d="m 238.06679,52.155862 a 7.910902,7.910902 0 0 1 -7.9109,7.910902 7.910902,7.910902 0 0 1 -7.9109,-7.910902 7.910902,7.910902 0 0 1 7.9109,-7.910902 7.910902,7.910902 0 0 1 7.9109,7.910902 z" />
    <path
       id="path10"
       style="fill:#b0b0b0;fill-opacity:1;stroke-width:0.65924"
       d="m 264.52514,52.155862 a 7.910902,7.910902 0 0 1 -7.9109,7.910902 7.910902,7.910902 0 0 1 -7.9109,-7.910902 7.910902,7.910902 0 0 1 7.9109,-7.910902 7.910902,7.910902 0 0 1 7.9109,7.910902 z" />
    <path
       id="path12"
       style="fill:#b0b0b0;fill-opacity:1;stroke-width:0.65924"
       d="m 290.98349,52.155862 a 7.910902,7.910902 0 0 1 -7.9109,7.910902 7.910902,7.910902 0 0 1 -7.9109,-7.910902 7.910902,7.910902 0 0 1 7.9109,-7.910902 7.910902,7.910902 0 0 1 7.9109,7.910902 z" />
    <path
       style="fill:#d0d070;fill-opacity:1;stroke:#ffe080;stroke-width:2;stroke-opacity:1"
       d="m 150.78084,44.24496 -0.10122,-7.322348"
       id="path14"
       inkscape:path-effect="#path-effect14"
       inkscape:original-d="m 150.78084,44.24496 c -0.0337,-2.440783 -0.0675,-4.881565 -0.10122,-7.322348"
       transform="matrix(0.99219635,0,0,1.1365615,1.1762454,-6.0352711)" />
    <path
       style="fill:#d0d070;fill-opacity:1;stroke:#ffe080;stroke-width:2.00013;stroke-dasharray:none;stroke-opacity:1;marker-end:url(#RoundedArrow-7)"
       d="m 150.78084,44.24496 -0.10122,-7.322348"
       id="path14-3"
       inkscape:path-effect="#path-effect14-7"
       inkscape:original-d="m 150.78084,44.24496 c -0.0337,-2.440783 -0.0675,-4.881565 -0.10122,-7.322348"
       transform="matrix(0.99219635,0,0,-1.1365615,133.46053,86.225442)" />
    <path
       style="fill:#d0d070;fill-opacity:1;stroke:#ffe080;stroke-width:2;stroke-opacity:1"
       d="m 150.67962,36.922612 h 131.4383"
       id="path15"
       inkscape:path-effect="#path-effect15"
       inkscape:original-d="m 150.67962,36.922612 c 43.81277,0 87.62553,0 131.4383,0" />
    <path
       style="fill:#d0d0d0;fill-opacity:1;stroke:#ffe080;stroke-width:2;stroke-opacity:1"
       d="m 150.78084,44.24496 -0.10122,-7.322348"
       id="path14-9"
       inkscape:path-effect="#path-effect14-2"
       inkscape:original-d="m 150.78084,44.24496 c -0.0337,-2.440783 -0.0675,-4.881565 -0.10122,-7.322348"
       transform="matrix(-0.99219635,0,0,-1.1365615,406.21844,109.82471)" />
    <path
       style="fill:#d0d0d0;fill-opacity:1;stroke:#ffe080;stroke-width:2.00013;stroke-dasharray:none;stroke-opacity:1;marker-end:url(#RoundedArrow-7-9)"
       d="m 150.78084,44.24496 -0.10122,-7.322348"
       id="path14-3-3"
       inkscape:path-effect="#path-effect14-7-2"
       inkscape:original-d="m 150.78084,44.24496 c -0.0337,-2.440783 -0.0675,-4.881565 -0.10122,-7.322348"
       transform="matrix(-0.99219635,0,0,1.1365615,326.86204,19.761109)" />
    <path
       style="fill:#d0d0d0;fill-opacity:1;stroke:#ffe080;stroke-width:2;stroke-opacity:1"
       d="m 150.67962,36.922612 h 131.4383"
       id="path15-6"
       inkscape:path-effect="#path-effect15-7"
       inkscape:original-d="m 150.67962,36.922612 c 43.81277,0 87.62553,0 131.4383,0"
       transform="matrix(-0.61946058,0,0,-1,351.01063,105.86985)" />
    <path
       style="fill:none;fill-opacity:1;stroke:#404040;stroke-width:1.5;stroke-dasharray:none;stroke-opacity:1;marker-end:url(#RoundedArrow-7)"
       d="m 178.5121,48.662212 -1.42363,5.313067"
       id="path16" />
    <path
       style="fill:none;fill-opacity:1;stroke:#404040;stroke-width:1.5;stroke-dasharray:none;stroke-opacity:1;marker-end:url(#RoundedArrow-7)"
       d="m 204.44128,48.662212 -1.42363,5.313067"
       id="path17" />
    <path
       style="fill:none;fill-opacity:1;stroke:#404040;stroke-width:1.5;stroke-dasharray:none;stroke-opacity:1;marker-end:url(#RoundedArrow-7)"
       d="M 230.89963,48.662212 229.476,53.975279"
       id="path18" />
    <path
       style="fill:none;fill-opacity:1;stroke:#404040;stroke-width:1.5;stroke-dasharray:none;stroke-opacity:1;marker-end:url(#RoundedArrow-7)"
       d="m 257.35798,48.662212 -1.42363,5.313067"
       id="path19" />
    <path
       style="fill:none;fill-opacity:1;stroke:#404040;stroke-width:1.5;stroke-dasharray:none;stroke-opacity:1;marker-end:url(#RoundedArrow-7)"
       d="m 281.99314,56.539528 1.42363,-5.313067"
       id="path20" />
  </g>
</svg>
