<?xml version="1.0" encoding="utf-8"?>
<svg xmlns="http://www.w3.org/2000/svg" xmlns:xlink="http://www.w3.org/1999/xlink" width="700" height="600" viewBox="0 0 2800 2400">
<defs>
  <clipPath id="clip360">
    <rect x="0" y="0" width="2800" height="2400"/>
  </clipPath>
</defs>
<path clip-path="url(#clip360)" d="M0 2400 L2800 2400 L2800 0 L0 0  Z" fill="#363d46" fill-rule="evenodd" fill-opacity="1"/>
<defs>
  <clipPath id="clip361">
    <rect x="560" y="0" width="1961" height="1961"/>
  </clipPath>
</defs>
<path clip-path="url(#clip360)" d="M692.832 2039.63 L2658.27 2039.63 L2658.27 141.732 L692.832 141.732  Z" fill="#30343b" fill-rule="evenodd" fill-opacity="1"/>
<defs>
  <clipPath id="clip362">
    <rect x="692" y="141" width="1966" height="1899"/>
  </clipPath>
</defs>
<polyline clip-path="url(#clip362)" style="stroke:#adb2b7; stroke-linecap:round; stroke-linejoin:round; stroke-width:6; stroke-opacity:0.1; fill:none" points="933.876,2039.63 933.876,141.732 "/>
<polyline clip-path="url(#clip362)" style="stroke:#adb2b7; stroke-linecap:round; stroke-linejoin:round; stroke-width:6; stroke-opacity:0.1; fill:none" points="1304.71,2039.63 1304.71,141.732 "/>
<polyline clip-path="url(#clip362)" style="stroke:#adb2b7; stroke-linecap:round; stroke-linejoin:round; stroke-width:6; stroke-opacity:0.1; fill:none" points="1675.55,2039.63 1675.55,141.732 "/>
<polyline clip-path="url(#clip362)" style="stroke:#adb2b7; stroke-linecap:round; stroke-linejoin:round; stroke-width:6; stroke-opacity:0.1; fill:none" points="2046.39,2039.63 2046.39,141.732 "/>
<polyline clip-path="url(#clip362)" style="stroke:#adb2b7; stroke-linecap:round; stroke-linejoin:round; stroke-width:6; stroke-opacity:0.1; fill:none" points="2417.22,2039.63 2417.22,141.732 "/>
<polyline clip-path="url(#clip362)" style="stroke:#adb2b7; stroke-linecap:round; stroke-linejoin:round; stroke-width:6; stroke-opacity:0.1; fill:none" points="692.832,1985.92 2658.27,1985.92 "/>
<polyline clip-path="url(#clip362)" style="stroke:#adb2b7; stroke-linecap:round; stroke-linejoin:round; stroke-width:6; stroke-opacity:0.1; fill:none" points="692.832,1538.3 2658.27,1538.3 "/>
<polyline clip-path="url(#clip362)" style="stroke:#adb2b7; stroke-linecap:round; stroke-linejoin:round; stroke-width:6; stroke-opacity:0.1; fill:none" points="692.832,1090.68 2658.27,1090.68 "/>
<polyline clip-path="url(#clip362)" style="stroke:#adb2b7; stroke-linecap:round; stroke-linejoin:round; stroke-width:6; stroke-opacity:0.1; fill:none" points="692.832,643.065 2658.27,643.065 "/>
<polyline clip-path="url(#clip362)" style="stroke:#adb2b7; stroke-linecap:round; stroke-linejoin:round; stroke-width:6; stroke-opacity:0.1; fill:none" points="692.832,195.446 2658.27,195.446 "/>
<polyline clip-path="url(#clip360)" style="stroke:#adb2b7; stroke-linecap:round; stroke-linejoin:round; stroke-width:12; stroke-opacity:1; fill:none" points="692.832,2039.63 2658.27,2039.63 "/>
<polyline clip-path="url(#clip360)" style="stroke:#adb2b7; stroke-linecap:round; stroke-linejoin:round; stroke-width:12; stroke-opacity:1; fill:none" points="933.876,2039.63 933.876,2020.74 "/>
<polyline clip-path="url(#clip360)" style="stroke:#adb2b7; stroke-linecap:round; stroke-linejoin:round; stroke-width:12; stroke-opacity:1; fill:none" points="1304.71,2039.63 1304.71,2020.74 "/>
<polyline clip-path="url(#clip360)" style="stroke:#adb2b7; stroke-linecap:round; stroke-linejoin:round; stroke-width:12; stroke-opacity:1; fill:none" points="1675.55,2039.63 1675.55,2020.74 "/>
<polyline clip-path="url(#clip360)" style="stroke:#adb2b7; stroke-linecap:round; stroke-linejoin:round; stroke-width:12; stroke-opacity:1; fill:none" points="2046.39,2039.63 2046.39,2020.74 "/>
<polyline clip-path="url(#clip360)" style="stroke:#adb2b7; stroke-linecap:round; stroke-linejoin:round; stroke-width:12; stroke-opacity:1; fill:none" points="2417.22,2039.63 2417.22,2020.74 "/>
<path clip-path="url(#clip360)" d="M772.731 2141.15 L861.758 2141.15 L861.758 2152.95 L772.731 2152.95 L772.731 2141.15 Z" fill="#ffffff" fill-rule="nonzero" fill-opacity="1" /><path clip-path="url(#clip360)" d="M922.035 2097.19 Q911.202 2097.19 905.716 2107.88 Q900.299 2118.51 900.299 2139.9 Q900.299 2161.22 905.716 2171.91 Q911.202 2182.54 922.035 2182.54 Q932.938 2182.54 938.355 2171.91 Q943.841 2161.22 943.841 2139.9 Q943.841 2118.51 938.355 2107.88 Q932.938 2097.19 922.035 2097.19 M922.035 2086.08 Q939.466 2086.08 948.633 2099.9 Q957.869 2113.65 957.869 2139.9 Q957.869 2166.08 948.633 2179.9 Q939.466 2193.65 922.035 2193.65 Q904.605 2193.65 895.369 2179.9 Q886.202 2166.08 886.202 2139.9 Q886.202 2113.65 895.369 2099.9 Q904.605 2086.08 922.035 2086.08 Z" fill="#ffffff" fill-rule="nonzero" fill-opacity="1" /><path clip-path="url(#clip360)" d="M982.521 2174 L997.174 2174 L997.174 2191.63 L982.521 2191.63 L982.521 2174 Z" fill="#ffffff" fill-rule="nonzero" fill-opacity="1" /><path clip-path="url(#clip360)" d="M1066.27 2100.18 L1030.85 2155.52 L1066.27 2155.52 L1066.27 2100.18 M1062.59 2087.95 L1080.23 2087.95 L1080.23 2155.52 L1095.02 2155.52 L1095.02 2167.19 L1080.23 2167.19 L1080.23 2191.63 L1066.27 2191.63 L1066.27 2167.19 L1019.47 2167.19 L1019.47 2153.65 L1062.59 2087.95 Z" fill="#ffffff" fill-rule="nonzero" fill-opacity="1" /><path clip-path="url(#clip360)" d="M1146.69 2141.15 L1235.72 2141.15 L1235.72 2152.95 L1146.69 2152.95 L1146.69 2141.15 Z" fill="#ffffff" fill-rule="nonzero" fill-opacity="1" /><path clip-path="url(#clip360)" d="M1296 2097.19 Q1285.16 2097.19 1279.68 2107.88 Q1274.26 2118.51 1274.26 2139.9 Q1274.26 2161.22 1279.68 2171.91 Q1285.16 2182.54 1296 2182.54 Q1306.9 2182.54 1312.32 2171.91 Q1317.8 2161.22 1317.8 2139.9 Q1317.8 2118.51 1312.32 2107.88 Q1306.9 2097.19 1296 2097.19 M1296 2086.08 Q1313.43 2086.08 1322.59 2099.9 Q1331.83 2113.65 1331.83 2139.9 Q1331.83 2166.08 1322.59 2179.9 Q1313.43 2193.65 1296 2193.65 Q1278.57 2193.65 1269.33 2179.9 Q1260.16 2166.08 1260.16 2139.9 Q1260.16 2113.65 1269.33 2099.9 Q1278.57 2086.08 1296 2086.08 Z" fill="#ffffff" fill-rule="nonzero" fill-opacity="1" /><path clip-path="url(#clip360)" d="M1356.48 2174 L1371.14 2174 L1371.14 2191.63 L1356.48 2191.63 L1356.48 2174 Z" fill="#ffffff" fill-rule="nonzero" fill-opacity="1" /><path clip-path="url(#clip360)" d="M1413.77 2179.83 L1462.73 2179.83 L1462.73 2191.63 L1396.9 2191.63 L1396.9 2179.83 Q1404.89 2171.57 1418.64 2157.68 Q1432.46 2143.72 1436 2139.69 Q1442.73 2132.12 1445.37 2126.91 Q1448.08 2121.63 1448.08 2116.57 Q1448.08 2108.3 1442.25 2103.09 Q1436.48 2097.88 1427.18 2097.88 Q1420.58 2097.88 1413.22 2100.18 Q1405.93 2102.47 1397.59 2107.12 L1397.59 2092.95 Q1406.07 2089.55 1413.43 2087.82 Q1420.79 2086.08 1426.9 2086.08 Q1443.01 2086.08 1452.59 2094.13 Q1462.18 2102.19 1462.18 2115.66 Q1462.18 2122.05 1459.75 2127.82 Q1457.39 2133.51 1451.07 2141.29 Q1449.33 2143.3 1440.02 2152.95 Q1430.72 2162.54 1413.77 2179.83 Z" fill="#ffffff" fill-rule="nonzero" fill-opacity="1" /><path clip-path="url(#clip360)" d="M1607.7 2097.19 Q1596.87 2097.19 1591.38 2107.88 Q1585.97 2118.51 1585.97 2139.9 Q1585.97 2161.22 1591.38 2171.91 Q1596.87 2182.54 1607.7 2182.54 Q1618.61 2182.54 1624.02 2171.91 Q1629.51 2161.22 1629.51 2139.9 Q1629.51 2118.51 1624.02 2107.88 Q1618.61 2097.19 1607.7 2097.19 M1607.7 2086.08 Q1625.13 2086.08 1634.3 2099.9 Q1643.54 2113.65 1643.54 2139.9 Q1643.54 2166.08 1634.3 2179.9 Q1625.13 2193.65 1607.7 2193.65 Q1590.27 2193.65 1581.04 2179.9 Q1571.87 2166.08 1571.87 2139.9 Q1571.87 2113.65 1581.04 2099.9 Q1590.27 2086.08 1607.7 2086.08 Z" fill="#ffffff" fill-rule="nonzero" fill-opacity="1" /><path clip-path="url(#clip360)" d="M1668.19 2174 L1682.84 2174 L1682.84 2191.63 L1668.19 2191.63 L1668.19 2174 Z" fill="#ffffff" fill-rule="nonzero" fill-opacity="1" /><path clip-path="url(#clip360)" d="M1743.4 2097.19 Q1732.56 2097.19 1727.08 2107.88 Q1721.66 2118.51 1721.66 2139.9 Q1721.66 2161.22 1727.08 2171.91 Q1732.56 2182.54 1743.4 2182.54 Q1754.3 2182.54 1759.72 2171.91 Q1765.2 2161.22 1765.2 2139.9 Q1765.2 2118.51 1759.72 2107.88 Q1754.3 2097.19 1743.4 2097.19 M1743.4 2086.08 Q1760.83 2086.08 1769.99 2099.9 Q1779.23 2113.65 1779.23 2139.9 Q1779.23 2166.08 1769.99 2179.9 Q1760.83 2193.65 1743.4 2193.65 Q1725.97 2193.65 1716.73 2179.9 Q1707.56 2166.08 1707.56 2139.9 Q1707.56 2113.65 1716.73 2099.9 Q1725.97 2086.08 1743.4 2086.08 Z" fill="#ffffff" fill-rule="nonzero" fill-opacity="1" /><path clip-path="url(#clip360)" d="M1980.94 2097.19 Q1970.1 2097.19 1964.62 2107.88 Q1959.2 2118.51 1959.2 2139.9 Q1959.2 2161.22 1964.62 2171.91 Q1970.1 2182.54 1980.94 2182.54 Q1991.84 2182.54 1997.25 2171.91 Q2002.74 2161.22 2002.74 2139.9 Q2002.74 2118.51 1997.25 2107.88 Q1991.84 2097.19 1980.94 2097.19 M1980.94 2086.08 Q1998.37 2086.08 2007.53 2099.9 Q2016.77 2113.65 2016.77 2139.9 Q2016.77 2166.08 2007.53 2179.9 Q1998.37 2193.65 1980.94 2193.65 Q1963.51 2193.65 1954.27 2179.9 Q1945.1 2166.08 1945.1 2139.9 Q1945.1 2113.65 1954.27 2099.9 Q1963.51 2086.08 1980.94 2086.08 Z" fill="#ffffff" fill-rule="nonzero" fill-opacity="1" /><path clip-path="url(#clip360)" d="M2041.42 2174 L2056.07 2174 L2056.07 2191.63 L2041.42 2191.63 L2041.42 2174 Z" fill="#ffffff" fill-rule="nonzero" fill-opacity="1" /><path clip-path="url(#clip360)" d="M2098.71 2179.83 L2147.67 2179.83 L2147.67 2191.63 L2081.84 2191.63 L2081.84 2179.83 Q2089.82 2171.57 2103.57 2157.68 Q2117.39 2143.72 2120.93 2139.69 Q2127.67 2132.12 2130.31 2126.91 Q2133.02 2121.63 2133.02 2116.57 Q2133.02 2108.3 2127.18 2103.09 Q2121.42 2097.88 2112.12 2097.88 Q2105.52 2097.88 2098.16 2100.18 Q2090.87 2102.47 2082.53 2107.12 L2082.53 2092.95 Q2091 2089.55 2098.37 2087.82 Q2105.73 2086.08 2111.84 2086.08 Q2127.95 2086.08 2137.53 2094.13 Q2147.12 2102.19 2147.12 2115.66 Q2147.12 2122.05 2144.68 2127.82 Q2142.32 2133.51 2136 2141.29 Q2134.27 2143.3 2124.96 2152.95 Q2115.66 2162.54 2098.71 2179.83 Z" fill="#ffffff" fill-rule="nonzero" fill-opacity="1" /><path clip-path="url(#clip360)" d="M2348.65 2097.19 Q2337.81 2097.19 2332.33 2107.88 Q2326.91 2118.51 2326.91 2139.9 Q2326.91 2161.22 2332.33 2171.91 Q2337.81 2182.54 2348.65 2182.54 Q2359.55 2182.54 2364.97 2171.91 Q2370.45 2161.22 2370.45 2139.9 Q2370.45 2118.51 2364.97 2107.88 Q2359.55 2097.19 2348.65 2097.19 M2348.65 2086.08 Q2366.08 2086.08 2375.24 2099.9 Q2384.48 2113.65 2384.48 2139.9 Q2384.48 2166.08 2375.24 2179.9 Q2366.08 2193.65 2348.65 2193.65 Q2331.22 2193.65 2321.98 2179.9 Q2312.81 2166.08 2312.81 2139.9 Q2312.81 2113.65 2321.98 2099.9 Q2331.22 2086.08 2348.65 2086.08 Z" fill="#ffffff" fill-rule="nonzero" fill-opacity="1" /><path clip-path="url(#clip360)" d="M2409.13 2174 L2423.79 2174 L2423.79 2191.63 L2409.13 2191.63 L2409.13 2174 Z" fill="#ffffff" fill-rule="nonzero" fill-opacity="1" /><path clip-path="url(#clip360)" d="M2492.88 2100.18 L2457.47 2155.52 L2492.88 2155.52 L2492.88 2100.18 M2489.2 2087.95 L2506.84 2087.95 L2506.84 2155.52 L2521.63 2155.52 L2521.63 2167.19 L2506.84 2167.19 L2506.84 2191.63 L2492.88 2191.63 L2492.88 2167.19 L2446.08 2167.19 L2446.08 2153.65 L2489.2 2087.95 Z" fill="#ffffff" fill-rule="nonzero" fill-opacity="1" /><path clip-path="url(#clip360)" d="M1731.55 2291.27 Q1731.55 2300.25 1727.01 2317.64 Q1725.17 2325.18 1722.66 2332.04 Q1720.24 2338.8 1716.67 2345.37 Q1713.09 2351.94 1708.94 2356.68 Q1704.78 2361.32 1699.37 2364.21 Q1693.96 2367.11 1687.97 2367.11 Q1678.5 2367.11 1672.9 2361.51 Q1667.39 2355.81 1665.65 2346.05 Q1652.71 2367.11 1635.41 2367.11 Q1624.69 2367.11 1619.66 2359.48 Q1614.64 2351.75 1614.64 2338.8 Q1614.64 2327.89 1617.54 2316.58 Q1623.05 2295.13 1633.77 2280.16 Q1635.22 2278.42 1637.35 2278.42 Q1638.6 2278.42 1639.18 2278.8 Q1640.92 2279.87 1640.92 2281.61 Q1640.92 2282.86 1639.95 2284.12 Q1633.19 2293.49 1628.75 2301.51 Q1624.3 2309.53 1622.27 2317.64 Q1620.73 2324.6 1620.73 2330.5 Q1620.73 2340.45 1624.98 2346.63 Q1629.33 2352.81 1637.93 2352.81 Q1645.85 2352.81 1652.8 2347.89 Q1659.76 2342.86 1664.88 2334.46 Q1665.17 2325.28 1667.39 2316.58 Q1669.42 2307.31 1674.16 2307.31 Q1677.92 2307.31 1677.92 2312.43 Q1677.92 2314.17 1677.15 2317.64 Q1675.03 2326.82 1671.16 2335.04 Q1672.51 2343.06 1677.54 2347.98 Q1682.56 2352.81 1690.58 2352.81 Q1698.02 2352.81 1704.59 2347.4 Q1711.26 2341.99 1715.51 2334.07 Q1719.86 2326.05 1722.27 2316.58 Q1723.05 2313.39 1723.05 2309.34 Q1723.05 2298.51 1715.51 2291.85 Q1713.38 2289.72 1713.38 2286.92 Q1713.38 2283.64 1716.09 2280.64 Q1719.28 2277.45 1723.05 2277.45 Q1725.85 2277.45 1727.59 2279.19 Q1731.55 2282.67 1731.55 2291.27 Z" fill="#ffffff" fill-rule="nonzero" fill-opacity="1" /><polyline clip-path="url(#clip360)" style="stroke:#adb2b7; stroke-linecap:round; stroke-linejoin:round; stroke-width:12; stroke-opacity:1; fill:none" points="692.832,2039.63 692.832,141.732 "/>
<polyline clip-path="url(#clip360)" style="stroke:#adb2b7; stroke-linecap:round; stroke-linejoin:round; stroke-width:12; stroke-opacity:1; fill:none" points="692.832,1985.92 711.729,1985.92 "/>
<polyline clip-path="url(#clip360)" style="stroke:#adb2b7; stroke-linecap:round; stroke-linejoin:round; stroke-width:12; stroke-opacity:1; fill:none" points="692.832,1538.3 711.729,1538.3 "/>
<polyline clip-path="url(#clip360)" style="stroke:#adb2b7; stroke-linecap:round; stroke-linejoin:round; stroke-width:12; stroke-opacity:1; fill:none" points="692.832,1090.68 711.729,1090.68 "/>
<polyline clip-path="url(#clip360)" style="stroke:#adb2b7; stroke-linecap:round; stroke-linejoin:round; stroke-width:12; stroke-opacity:1; fill:none" points="692.832,643.065 711.729,643.065 "/>
<polyline clip-path="url(#clip360)" style="stroke:#adb2b7; stroke-linecap:round; stroke-linejoin:round; stroke-width:12; stroke-opacity:1; fill:none" points="692.832,195.446 711.729,195.446 "/>
<path clip-path="url(#clip360)" d="M284.723 1987.27 L373.75 1987.27 L373.75 1999.08 L284.723 1999.08 L284.723 1987.27 Z" fill="#ffffff" fill-rule="nonzero" fill-opacity="1" /><path clip-path="url(#clip360)" d="M406.458 2025.95 L429.375 2025.95 L429.375 1946.86 L404.444 1951.86 L404.444 1939.08 L429.236 1934.08 L443.263 1934.08 L443.263 2025.95 L466.18 2025.95 L466.18 2037.76 L406.458 2037.76 L406.458 2025.95 Z" fill="#ffffff" fill-rule="nonzero" fill-opacity="1" /><path clip-path="url(#clip360)" d="M524.513 1943.32 Q513.68 1943.32 508.194 1954.01 Q502.777 1964.64 502.777 1986.02 Q502.777 2007.34 508.194 2018.04 Q513.68 2028.66 524.513 2028.66 Q535.416 2028.66 540.832 2018.04 Q546.318 2007.34 546.318 1986.02 Q546.318 1964.64 540.832 1954.01 Q535.416 1943.32 524.513 1943.32 M524.513 1932.21 Q541.943 1932.21 551.11 1946.02 Q560.346 1959.77 560.346 1986.02 Q560.346 2012.2 551.11 2026.02 Q541.943 2039.77 524.513 2039.77 Q507.082 2039.77 497.846 2026.02 Q488.68 2012.2 488.68 1986.02 Q488.68 1959.77 497.846 1946.02 Q507.082 1932.21 524.513 1932.21 Z" fill="#ffffff" fill-rule="nonzero" fill-opacity="1" /><path clip-path="url(#clip360)" d="M614.999 1943.32 Q604.165 1943.32 598.679 1954.01 Q593.263 1964.64 593.263 1986.02 Q593.263 2007.34 598.679 2018.04 Q604.165 2028.66 614.999 2028.66 Q625.901 2028.66 631.318 2018.04 Q636.804 2007.34 636.804 1986.02 Q636.804 1964.64 631.318 1954.01 Q625.901 1943.32 614.999 1943.32 M614.999 1932.21 Q632.429 1932.21 641.596 1946.02 Q650.832 1959.77 650.832 1986.02 Q650.832 2012.2 641.596 2026.02 Q632.429 2039.77 614.999 2039.77 Q597.568 2039.77 588.332 2026.02 Q579.165 2012.2 579.165 1986.02 Q579.165 1959.77 588.332 1946.02 Q597.568 1932.21 614.999 1932.21 Z" fill="#ffffff" fill-rule="nonzero" fill-opacity="1" /><path clip-path="url(#clip360)" d="M375.208 1539.66 L464.235 1539.66 L464.235 1551.46 L375.208 1551.46 L375.208 1539.66 Z" fill="#ffffff" fill-rule="nonzero" fill-opacity="1" /><path clip-path="url(#clip360)" d="M494.652 1486.46 L549.721 1486.46 L549.721 1498.27 L507.499 1498.27 L507.499 1523.68 Q510.555 1522.64 513.61 1522.16 Q516.666 1521.6 519.721 1521.6 Q537.082 1521.6 547.221 1531.11 Q557.36 1540.63 557.36 1556.88 Q557.36 1573.61 546.943 1582.92 Q536.527 1592.16 517.568 1592.16 Q511.041 1592.16 504.235 1591.04 Q497.499 1589.93 490.277 1587.71 L490.277 1573.61 Q496.527 1577.02 503.194 1578.68 Q509.86 1580.35 517.291 1580.35 Q529.305 1580.35 536.318 1574.03 Q543.332 1567.71 543.332 1556.88 Q543.332 1546.04 536.318 1539.73 Q529.305 1533.41 517.291 1533.41 Q511.666 1533.41 506.041 1534.66 Q500.485 1535.91 494.652 1538.54 L494.652 1486.46 Z" fill="#ffffff" fill-rule="nonzero" fill-opacity="1" /><path clip-path="url(#clip360)" d="M614.999 1495.7 Q604.165 1495.7 598.679 1506.39 Q593.263 1517.02 593.263 1538.41 Q593.263 1559.73 598.679 1570.42 Q604.165 1581.04 614.999 1581.04 Q625.901 1581.04 631.318 1570.42 Q636.804 1559.73 636.804 1538.41 Q636.804 1517.02 631.318 1506.39 Q625.901 1495.7 614.999 1495.7 M614.999 1484.59 Q632.429 1484.59 641.596 1498.41 Q650.832 1512.16 650.832 1538.41 Q650.832 1564.59 641.596 1578.41 Q632.429 1592.16 614.999 1592.16 Q597.568 1592.16 588.332 1578.41 Q579.165 1564.59 579.165 1538.41 Q579.165 1512.16 588.332 1498.41 Q597.568 1484.59 614.999 1484.59 Z" fill="#ffffff" fill-rule="nonzero" fill-opacity="1" /><path clip-path="url(#clip360)" d="M614.999 1048.08 Q604.165 1048.08 598.679 1058.77 Q593.263 1069.4 593.263 1090.79 Q593.263 1112.11 598.679 1122.8 Q604.165 1133.43 614.999 1133.43 Q625.901 1133.43 631.318 1122.8 Q636.804 1112.11 636.804 1090.79 Q636.804 1069.4 631.318 1058.77 Q625.901 1048.08 614.999 1048.08 M614.999 1036.97 Q632.429 1036.97 641.596 1050.79 Q650.832 1064.54 650.832 1090.79 Q650.832 1116.97 641.596 1130.79 Q632.429 1144.54 614.999 1144.54 Q597.568 1144.54 588.332 1130.79 Q579.165 1116.97 579.165 1090.79 Q579.165 1064.54 588.332 1050.79 Q597.568 1036.97 614.999 1036.97 Z" fill="#ffffff" fill-rule="nonzero" fill-opacity="1" /><path clip-path="url(#clip360)" d="M494.652 591.225 L549.721 591.225 L549.721 603.03 L507.499 603.03 L507.499 628.447 Q510.555 627.405 513.61 626.919 Q516.666 626.364 519.721 626.364 Q537.082 626.364 547.221 635.877 Q557.36 645.391 557.36 661.641 Q557.36 678.377 546.943 687.683 Q536.527 696.919 517.568 696.919 Q511.041 696.919 504.235 695.808 Q497.499 694.697 490.277 692.474 L490.277 678.377 Q496.527 681.78 503.194 683.447 Q509.86 685.113 517.291 685.113 Q529.305 685.113 536.318 678.794 Q543.332 672.475 543.332 661.641 Q543.332 650.808 536.318 644.489 Q529.305 638.169 517.291 638.169 Q511.666 638.169 506.041 639.419 Q500.485 640.669 494.652 643.308 L494.652 591.225 Z" fill="#ffffff" fill-rule="nonzero" fill-opacity="1" /><path clip-path="url(#clip360)" d="M614.999 600.461 Q604.165 600.461 598.679 611.155 Q593.263 621.78 593.263 643.169 Q593.263 664.488 598.679 675.183 Q604.165 685.808 614.999 685.808 Q625.901 685.808 631.318 675.183 Q636.804 664.488 636.804 643.169 Q636.804 621.78 631.318 611.155 Q625.901 600.461 614.999 600.461 M614.999 589.35 Q632.429 589.35 641.596 603.169 Q650.832 616.919 650.832 643.169 Q650.832 669.35 641.596 683.169 Q632.429 696.919 614.999 696.919 Q597.568 696.919 588.332 683.169 Q579.165 669.35 579.165 643.169 Q579.165 616.919 588.332 603.169 Q597.568 589.35 614.999 589.35 Z" fill="#ffffff" fill-rule="nonzero" fill-opacity="1" /><path clip-path="url(#clip360)" d="M406.458 235.481 L429.375 235.481 L429.375 156.384 L404.444 161.384 L404.444 148.606 L429.236 143.606 L443.263 143.606 L443.263 235.481 L466.18 235.481 L466.18 247.286 L406.458 247.286 L406.458 235.481 Z" fill="#ffffff" fill-rule="nonzero" fill-opacity="1" /><path clip-path="url(#clip360)" d="M524.513 152.843 Q513.68 152.843 508.194 163.537 Q502.777 174.162 502.777 195.551 Q502.777 216.87 508.194 227.564 Q513.68 238.189 524.513 238.189 Q535.416 238.189 540.832 227.564 Q546.318 216.87 546.318 195.551 Q546.318 174.162 540.832 163.537 Q535.416 152.843 524.513 152.843 M524.513 141.732 Q541.943 141.732 551.11 155.551 Q560.346 169.301 560.346 195.551 Q560.346 221.731 551.11 235.55 Q541.943 249.3 524.513 249.3 Q507.082 249.3 497.846 235.55 Q488.68 221.731 488.68 195.551 Q488.68 169.301 497.846 155.551 Q507.082 141.732 524.513 141.732 Z" fill="#ffffff" fill-rule="nonzero" fill-opacity="1" /><path clip-path="url(#clip360)" d="M614.999 152.843 Q604.165 152.843 598.679 163.537 Q593.263 174.162 593.263 195.551 Q593.263 216.87 598.679 227.564 Q604.165 238.189 614.999 238.189 Q625.901 238.189 631.318 227.564 Q636.804 216.87 636.804 195.551 Q636.804 174.162 631.318 163.537 Q625.901 152.843 614.999 152.843 M614.999 141.732 Q632.429 141.732 641.596 155.551 Q650.832 169.301 650.832 195.551 Q650.832 221.731 641.596 235.55 Q632.429 249.3 614.999 249.3 Q597.568 249.3 588.332 235.55 Q579.165 221.731 579.165 195.551 Q579.165 169.301 588.332 155.551 Q597.568 141.732 614.999 141.732 Z" fill="#ffffff" fill-rule="nonzero" fill-opacity="1" /><path clip-path="url(#clip360)" d="M69.368 1339.5 Q66.1796 1339.5 66.1796 1335.15 L66.1796 1224.33 L110.72 1218.82 L110.72 1223.94 Q97.6769 1225.68 90.1407 1228.77 Q82.6046 1231.86 78.5466 1238.43 Q74.4887 1244.91 73.4259 1252.93 Q72.3631 1260.95 72.3631 1275.63 L72.3631 1317.18 L128.498 1278.34 Q132.459 1275.53 133.715 1275.63 Q135.454 1275.63 139.029 1279.01 L193.038 1326.84 L193.038 1279.59 Q193.038 1270.51 192.749 1264.81 Q192.459 1259.01 191.686 1252.93 Q190.816 1246.74 189.174 1243.17 Q187.531 1239.59 184.826 1236.02 Q182.121 1232.44 177.87 1230.41 Q173.618 1228.29 167.918 1226.65 Q162.121 1225 154.488 1223.94 L154.488 1218.82 L201.348 1224.33 L201.348 1335.34 Q201.348 1339.3 198.932 1339.3 Q197.773 1339.3 194.971 1336.98 L142.411 1290.22 Q139.802 1292.15 134.295 1295.82 L73.909 1337.56 Q70.3341 1339.5 69.368 1339.5 Z" fill="#ffffff" fill-rule="nonzero" fill-opacity="1" /><path clip-path="url(#clip360)" d="M205.981 1136.17 Q209.836 1136.17 212.135 1138.54 Q214.435 1140.84 214.435 1143.74 Q214.435 1146.31 212.947 1147.67 Q211.459 1149.02 209.565 1149.02 Q208.753 1149.02 207.739 1148.68 Q206.657 1148.34 205.372 1147.6 Q204.087 1146.79 203.14 1145.1 Q202.193 1143.41 202.058 1141.11 Q201.584 1141.58 201.517 1141.72 Q200.705 1142.73 200.435 1144.62 Q200.299 1144.89 200.299 1145.84 Q200.299 1150.51 203.749 1155.24 Q207.13 1159.91 213.555 1165.66 Q221.063 1172.89 223.835 1177.56 Q226.541 1157.07 238.376 1157.07 Q240.338 1157.07 242.705 1157.61 Q247.169 1158.69 250.415 1158.69 Q256.908 1158.69 256.908 1154.3 Q256.908 1150.03 252.579 1147.33 Q248.251 1144.56 239.797 1142.26 Q238.241 1141.92 237.768 1141.58 Q237.294 1141.24 237.294 1140.3 Q237.294 1138.6 238.647 1138.6 Q246.56 1140.16 252.647 1143.61 Q260.019 1148.01 260.019 1154.57 Q260.019 1160.04 256.231 1163.7 Q252.376 1167.28 246.289 1167.28 Q244.801 1167.28 241.42 1166.74 Q240.067 1166.33 238.512 1166.33 Q235.333 1166.33 232.966 1168.09 Q230.531 1169.85 229.314 1172.69 Q228.096 1175.53 227.555 1177.9 Q226.947 1180.2 226.744 1182.43 Q255.352 1189.19 257.111 1190.14 Q258.328 1190.75 259.14 1192.1 Q260.019 1193.45 260.019 1194.87 Q260.019 1196.23 259.072 1197.58 Q258.193 1198.86 256.096 1198.86 Q255.014 1198.86 253.053 1198.32 L173.246 1178.24 L170.541 1177.83 Q169.73 1177.83 169.324 1178.17 Q168.85 1178.44 168.512 1180.06 Q168.174 1181.62 168.174 1184.73 Q168.174 1186.01 168.106 1186.62 Q168.039 1187.16 167.701 1187.64 Q167.295 1188.11 166.483 1188.11 Q165.334 1188.11 164.725 1187.64 Q164.048 1187.1 163.913 1186.69 Q163.778 1186.29 163.71 1185.47 Q163.643 1184.32 163.305 1180.47 Q162.899 1176.61 162.628 1173.3 Q162.358 1169.99 162.358 1168.57 Q162.358 1167.75 162.763 1167.35 Q163.102 1166.87 163.507 1166.81 L163.846 1166.74 L222.28 1181.15 Q219.913 1175.19 209.43 1165.79 Q197.256 1154.9 197.256 1145.57 Q197.256 1141.17 199.961 1138.67 Q202.599 1136.17 205.981 1136.17 Z" fill="#ffffff" fill-rule="nonzero" fill-opacity="1" /><path clip-path="url(#clip360)" d="M151.879 1115.65 Q118.45 1115.65 91.4934 1103.19 Q80.1891 1097.88 70.7206 1090.44 Q61.2521 1083 57.0975 1078.07 Q52.943 1073.14 52.943 1071.79 Q52.943 1069.86 54.8753 1069.76 Q55.8415 1069.76 58.2569 1072.37 Q90.7204 1104.25 151.879 1104.16 Q213.232 1104.16 244.439 1073.14 Q247.821 1069.76 248.883 1069.76 Q250.816 1069.76 250.816 1071.79 Q250.816 1073.14 246.854 1077.88 Q242.893 1082.61 233.811 1089.95 Q224.729 1097.3 213.618 1102.61 Q186.662 1115.65 151.879 1115.65 Z" fill="#ffffff" fill-rule="nonzero" fill-opacity="1" /><path clip-path="url(#clip360)" d="M127.725 941.772 Q136.71 941.772 154.102 946.313 Q161.638 948.149 168.498 950.661 Q175.261 953.076 181.831 956.651 Q188.401 960.226 193.135 964.381 Q197.773 968.535 200.671 973.946 Q203.57 979.356 203.57 985.347 Q203.57 994.815 197.966 1000.42 Q192.266 1005.93 182.507 1007.67 Q203.57 1020.61 203.57 1037.91 Q203.57 1048.63 195.937 1053.66 Q188.208 1058.68 175.261 1058.68 Q164.343 1058.68 153.039 1055.78 Q131.59 1050.27 116.614 1039.55 Q114.875 1038.1 114.875 1035.97 Q114.875 1034.72 115.261 1034.14 Q116.324 1032.4 118.063 1032.4 Q119.319 1032.4 120.575 1033.37 Q129.947 1040.13 137.966 1044.57 Q145.986 1049.02 154.102 1051.05 Q161.058 1052.59 166.952 1052.59 Q176.903 1052.59 183.087 1048.34 Q189.27 1043.99 189.27 1035.39 Q189.27 1027.47 184.343 1020.52 Q179.319 1013.56 170.913 1008.44 Q161.734 1008.15 153.039 1005.93 Q143.763 1003.9 143.763 999.163 Q143.763 995.395 148.884 995.395 Q150.623 995.395 154.102 996.168 Q163.28 998.293 171.493 1002.16 Q179.512 1000.81 184.439 995.781 Q189.27 990.757 189.27 982.738 Q189.27 975.298 183.86 968.728 Q178.449 962.062 170.527 957.811 Q162.507 953.463 153.039 951.047 Q149.85 950.275 145.792 950.275 Q134.971 950.275 128.305 957.811 Q126.179 959.936 123.377 959.936 Q120.092 959.936 117.097 957.231 Q113.909 954.043 113.909 950.275 Q113.909 947.473 115.648 945.733 Q119.126 941.772 127.725 941.772 Z" fill="#ffffff" fill-rule="nonzero" fill-opacity="1" /><path clip-path="url(#clip360)" d="M248.883 917.853 Q247.917 917.853 245.502 915.341 Q213.038 883.457 151.879 883.457 Q90.5272 883.457 59.513 914.085 Q55.9381 917.853 54.8753 917.853 Q52.943 917.853 52.943 915.92 Q52.943 914.568 56.9043 909.833 Q60.8656 905.003 69.9477 897.756 Q79.0297 890.413 90.1407 885.003 Q117.097 871.959 151.879 871.959 Q185.309 871.959 212.265 884.423 Q223.57 889.737 233.038 897.177 Q242.507 904.616 246.661 909.544 Q250.816 914.471 250.816 915.92 Q250.816 917.853 248.883 917.853 Z" fill="#ffffff" fill-rule="nonzero" fill-opacity="1" /><polyline clip-path="url(#clip362)" style="stroke:#fe4365; stroke-linecap:round; stroke-linejoin:round; stroke-width:24; stroke-opacity:1; fill:none" points="748.457,1108.59 766.999,1108.95 785.541,1109.33 804.083,1109.73 822.625,1110.15 841.166,1110.58 859.708,1111.03 878.25,1111.5 896.792,1112 915.334,1112.52 933.876,1113.06 952.418,1113.64 970.959,1114.24 989.501,1114.88 1008.04,1115.55 1026.58,1116.26 1045.13,1117.01 1063.67,1117.81 1082.21,1118.66 1100.75,1119.56 1119.29,1120.52 1137.84,1121.55 1156.38,1122.66 1174.92,1123.84 1193.46,1125.12 1212,1126.49 1230.55,1127.98 1249.09,1129.61 1267.63,1131.38 1286.17,1133.31 1304.71,1135.45 1323.25,1137.8 1341.8,1140.42 1360.34,1143.34 1378.88,1146.64 1397.42,1150.37 1415.96,1154.63 1434.51,1159.55 1453.05,1165.29 1471.59,1172.07 1490.13,1180.21 1508.67,1190.15 1527.21,1202.59 1545.76,1218.57 1564.3,1239.89 1582.84,1269.73 1601.38,1314.49 1619.92,1389.1 1638.47,1538.3 1657.01,1985.92 "/>
<polyline clip-path="url(#clip362)" style="stroke:#fe4365; stroke-linecap:round; stroke-linejoin:round; stroke-width:24; stroke-opacity:1; fill:none" points="1694.09,195.446 1712.63,643.065 1731.18,792.271 1749.72,866.874 1768.26,911.636 1786.8,941.477 1805.34,962.792 1823.88,978.779 1842.43,991.213 1860.97,1001.16 1879.51,1009.3 1898.05,1016.08 1916.59,1021.82 1935.14,1026.74 1953.68,1031 1972.22,1034.73 1990.76,1038.02 2009.3,1040.95 2027.84,1043.57 2046.39,1045.92 2064.93,1048.05 2083.47,1049.99 2102.01,1051.76 2120.55,1053.38 2139.1,1054.87 2157.64,1056.25 2176.18,1057.53 2194.72,1058.71 2213.26,1059.81 2231.81,1060.84 2250.35,1061.8 2268.89,1062.71 2287.43,1063.55 2305.97,1064.35 2324.51,1065.11 2343.06,1065.82 2361.6,1066.49 2380.14,1067.12 2398.68,1067.73 2417.22,1068.3 2435.77,1068.85 2454.31,1069.37 2472.85,1069.86 2491.39,1070.34 2509.93,1070.79 2528.47,1071.22 2547.02,1071.64 2565.56,1072.03 2584.1,1072.41 2602.64,1072.78 "/>
<polyline clip-path="url(#clip362)" style="stroke:#eca25c; stroke-linecap:round; stroke-linejoin:round; stroke-width:24; stroke-opacity:1; fill:none" points="748.457,1103.47 766.999,1103.66 785.541,1103.85 804.083,1104.05 822.625,1104.25 841.166,1104.46 859.708,1104.67 878.25,1104.89 896.792,1105.12 915.334,1105.36 933.876,1105.6 952.418,1105.86 970.959,1106.12 989.501,1106.39 1008.04,1106.67 1026.58,1106.96 1045.13,1107.26 1063.67,1107.57 1082.21,1107.9 1100.75,1108.24 1119.29,1108.59 1137.84,1108.95 1156.38,1109.33 1174.92,1109.73 1193.46,1110.15 1212,1110.58 1230.55,1111.03 1249.09,1111.5 1267.63,1112 1286.17,1112.52 1304.71,1113.06 1323.25,1113.64 1341.8,1114.24 1360.34,1114.88 1378.88,1115.55 1397.42,1116.26 1415.96,1117.01 1434.51,1117.81 1453.05,1118.66 1471.59,1119.56 1490.13,1120.52 1508.67,1121.55 1527.21,1122.66 1545.76,1123.84 1564.3,1125.12 1582.84,1126.49 1601.38,1127.98 1619.92,1129.61 1638.47,1131.38 1657.01,1133.31 1675.55,1135.45 1694.09,1137.8 1712.63,1140.42 1731.18,1143.34 1749.72,1146.64 1768.26,1150.37 1786.8,1154.63 1805.34,1159.55 1823.88,1165.29 1842.43,1172.07 1860.97,1180.21 1879.51,1190.15 1898.05,1202.59 1916.59,1218.57 1935.14,1239.89 1953.68,1269.73 1972.22,1314.49 1990.76,1389.1 2009.3,1538.3 2027.84,1985.92 "/>
<polyline clip-path="url(#clip362)" style="stroke:#eca25c; stroke-linecap:round; stroke-linejoin:round; stroke-width:24; stroke-opacity:1; fill:none" points="2064.93,195.446 2083.47,643.065 2102.01,792.271 2120.55,866.874 2139.1,911.636 2157.64,941.477 2176.18,962.792 2194.72,978.779 2213.26,991.213 2231.81,1001.16 2250.35,1009.3 2268.89,1016.08 2287.43,1021.82 2305.97,1026.74 2324.51,1031 2343.06,1034.73 2361.6,1038.02 2380.14,1040.95 2398.68,1043.57 2417.22,1045.92 2435.77,1048.05 2454.31,1049.99 2472.85,1051.76 2491.39,1053.38 2509.93,1054.87 2528.47,1056.25 2547.02,1057.53 2565.56,1058.71 2584.1,1059.81 2602.64,1060.84 "/>
<path clip-path="url(#clip360)" d="M758.346 671.556 L1507.23 671.556 L1507.23 204.996 L758.346 204.996  Z" fill="#363d46" fill-rule="evenodd" fill-opacity="1"/>
<polyline clip-path="url(#clip360)" style="stroke:#ffffff; stroke-linecap:round; stroke-linejoin:round; stroke-width:12; stroke-opacity:1; fill:none" points="758.346,671.556 1507.23,671.556 1507.23,204.996 758.346,204.996 758.346,671.556 "/>
<polyline clip-path="url(#clip360)" style="stroke:#fe4365; stroke-linecap:round; stroke-linejoin:round; stroke-width:24; stroke-opacity:1; fill:none" points="780.184,360.516 911.213,360.516 "/>
<path clip-path="url(#clip360)" d="M1037.4 293.711 L1034.52 318.585 Q1034.31 320.834 1033.96 321.536 Q1033.6 322.169 1032.48 322.169 Q1031.64 322.169 1031.14 321.677 Q1030.72 321.115 1030.72 320.482 Q1030.72 320.131 1030.79 319.218 Q1030.86 318.304 1030.86 317.883 Q1031.5 313.526 1031.5 310.223 Q1031.5 304.11 1029.67 300.808 Q1027.84 297.435 1023.13 295.889 Q1018.43 294.273 1009.57 294.273 L989.336 294.273 Q984.698 294.273 983.574 295.116 Q982.52 295.959 981.536 299.894 L972.893 334.536 L986.455 334.536 Q991.514 334.536 994.536 333.903 Q997.627 333.271 999.665 331.514 Q1001.77 329.687 1002.9 327.228 Q1004.09 324.769 1005.29 320.342 Q1005.64 318.866 1005.99 318.304 Q1006.41 317.742 1007.32 317.742 Q1008.03 317.742 1008.52 318.234 Q1009.01 318.655 1009.01 319.288 L1000.79 352.946 Q1000.37 354.632 999.946 355.265 Q999.525 355.827 998.681 355.827 Q997.768 355.827 997.276 355.335 Q996.784 354.843 996.784 354.281 Q996.784 353.719 997.206 352.665 Q998.26 348.097 998.26 345.638 Q998.26 344.233 998.119 343.53 Q998.049 342.827 997.416 341.844 Q996.854 340.79 995.59 340.298 Q994.325 339.806 991.936 339.455 Q989.547 339.033 985.963 339.033 L971.769 339.033 L961.931 378.312 Q961.229 380.912 961.229 381.615 Q961.229 382.388 961.58 382.669 Q962.002 382.88 963.126 383.02 Q964.391 383.231 966.288 383.231 L987.298 383.231 Q991.936 383.231 995.66 382.81 Q999.384 382.388 1002.48 381.334 Q1005.64 380.28 1008.03 379.085 Q1010.42 377.891 1012.66 375.713 Q1014.91 373.464 1016.46 371.497 Q1018.08 369.459 1019.97 366.016 Q1021.87 362.573 1023.2 359.762 Q1024.54 356.881 1026.58 352.243 Q1027.14 350.557 1028.47 350.557 Q1029.25 350.557 1029.67 350.978 Q1030.09 351.33 1030.16 351.681 L1030.16 352.103 Q1029.74 353.438 1029.46 354.14 L1016.25 385.199 Q1015.48 386.955 1014.84 387.307 Q1014.21 387.658 1011.75 387.658 L937.057 387.658 Q935.37 387.658 934.668 387.588 Q934.035 387.517 933.543 387.166 Q933.052 386.745 933.052 385.901 Q933.052 384.566 933.614 384.004 Q934.176 383.372 934.808 383.301 Q935.441 383.231 937.057 383.231 Q940.57 383.231 942.678 383.02 Q944.786 382.81 946.121 382.528 Q947.527 382.177 948.229 381.193 Q949.002 380.21 949.354 379.366 Q949.705 378.453 950.197 376.415 L969.169 300.316 Q969.872 297.716 969.872 296.873 Q969.872 295.959 969.239 295.397 Q968.677 294.835 967.131 294.624 Q965.585 294.343 964.321 294.343 Q963.126 294.273 960.526 294.273 Q958.84 294.273 958.137 294.202 Q957.505 294.132 957.013 293.781 Q956.521 293.43 956.521 292.657 Q956.521 290.689 957.364 290.267 Q958.278 289.776 960.807 289.776 L1033.46 289.776 Q1036.34 289.776 1036.98 290.408 Q1037.68 290.97 1037.4 293.711 Z" fill="#ffffff" fill-rule="nonzero" fill-opacity="1" /><path clip-path="url(#clip360)" d="M1097.62 391.024 Q1097.62 393.828 1095.9 395.5 Q1094.23 397.172 1092.11 397.172 Q1090.24 397.172 1089.26 396.09 Q1088.28 395.008 1088.28 393.631 Q1088.28 393.041 1088.52 392.303 Q1088.77 391.516 1089.31 390.581 Q1089.9 389.647 1091.13 388.958 Q1092.36 388.269 1094.03 388.171 Q1093.69 387.827 1093.59 387.778 Q1092.85 387.187 1091.47 386.991 Q1091.28 386.892 1090.59 386.892 Q1087.2 386.892 1083.75 389.401 Q1080.36 391.86 1076.18 396.533 Q1070.91 401.993 1067.52 404.009 Q1082.42 405.977 1082.42 414.585 Q1082.42 416.011 1082.03 417.733 Q1081.24 420.979 1081.24 423.34 Q1081.24 428.062 1084.44 428.062 Q1087.54 428.062 1089.51 424.914 Q1091.52 421.766 1093.2 415.618 Q1093.44 414.486 1093.69 414.142 Q1093.93 413.798 1094.62 413.798 Q1095.85 413.798 1095.85 414.781 Q1094.72 420.536 1092.21 424.963 Q1089.01 430.324 1084.24 430.324 Q1080.26 430.324 1077.6 427.57 Q1075 424.766 1075 420.339 Q1075 419.257 1075.39 416.798 Q1075.69 415.814 1075.69 414.683 Q1075.69 412.371 1074.41 410.65 Q1073.13 408.879 1071.06 407.994 Q1069 407.108 1067.27 406.715 Q1065.6 406.272 1063.98 406.124 Q1059.06 426.931 1058.37 428.209 Q1057.93 429.095 1056.94 429.685 Q1055.96 430.324 1054.93 430.324 Q1053.94 430.324 1052.96 429.636 Q1052.03 428.996 1052.03 427.472 Q1052.03 426.685 1052.42 425.258 L1067.03 367.217 L1067.32 365.25 Q1067.32 364.66 1067.08 364.365 Q1066.88 364.02 1065.7 363.774 Q1064.57 363.528 1062.31 363.528 Q1061.37 363.528 1060.93 363.479 Q1060.54 363.43 1060.19 363.184 Q1059.85 362.889 1059.85 362.299 Q1059.85 361.462 1060.19 361.02 Q1060.58 360.528 1060.88 360.43 Q1061.18 360.331 1061.77 360.282 Q1062.6 360.233 1065.41 359.987 Q1068.21 359.692 1070.62 359.495 Q1073.03 359.298 1074.06 359.298 Q1074.65 359.298 1074.95 359.593 Q1075.29 359.839 1075.34 360.134 L1075.39 360.38 L1064.91 402.878 Q1069.24 401.156 1076.08 393.532 Q1084 384.679 1090.79 384.679 Q1093.98 384.679 1095.8 386.646 Q1097.62 388.565 1097.62 391.024 Z" fill="#ffffff" fill-rule="nonzero" fill-opacity="1" /><path clip-path="url(#clip360)" d="M1152.47 365.805 Q1152.61 364.048 1155.35 364.048 L1243.54 364.048 Q1247.68 364.048 1247.75 365.664 Q1247.75 367.421 1243.82 367.351 L1156.33 367.351 Q1152.47 367.421 1152.47 365.805 M1152.47 337.698 Q1152.47 335.941 1155.49 336.012 L1243.4 336.012 Q1247.68 336.012 1247.75 337.698 Q1247.75 339.314 1244.1 339.314 L1155.35 339.314 Q1152.47 339.314 1152.47 337.698 Z" fill="#ffffff" fill-rule="nonzero" fill-opacity="1" /><path clip-path="url(#clip360)" d="M1303.26 341.633 Q1303.26 320.482 1308.6 308.959 Q1316.05 291.813 1333.62 291.813 Q1337.34 291.813 1341.2 292.867 Q1345.14 293.851 1350.06 297.716 Q1355.05 301.581 1358.07 307.905 Q1363.83 320.131 1363.83 341.633 Q1363.83 362.643 1358.49 374.096 Q1350.69 390.82 1333.48 390.82 Q1327.01 390.82 1320.41 387.517 Q1313.87 384.215 1309.73 376.275 Q1303.26 364.4 1303.26 341.633 M1315.21 339.876 Q1315.21 361.589 1316.75 370.232 Q1318.51 379.577 1323.29 383.653 Q1328.14 387.658 1333.48 387.658 Q1339.24 387.658 1344.02 383.372 Q1348.86 379.015 1350.34 369.67 Q1351.96 360.465 1351.89 339.876 Q1351.89 319.85 1350.48 311.84 Q1348.58 302.494 1343.52 298.77 Q1338.53 294.975 1333.48 294.975 Q1331.58 294.975 1329.54 295.538 Q1327.57 296.1 1324.69 297.716 Q1321.81 299.332 1319.56 303.337 Q1317.38 307.342 1316.33 313.385 Q1315.21 321.185 1315.21 339.876 Z" fill="#ffffff" fill-rule="nonzero" fill-opacity="1" /><polyline clip-path="url(#clip360)" style="stroke:#eca25c; stroke-linecap:round; stroke-linejoin:round; stroke-width:24; stroke-opacity:1; fill:none" points="780.184,516.036 911.213,516.036 "/>
<path clip-path="url(#clip360)" d="M1037.4 449.231 L1034.52 474.105 Q1034.31 476.354 1033.96 477.056 Q1033.6 477.689 1032.48 477.689 Q1031.64 477.689 1031.14 477.197 Q1030.72 476.635 1030.72 476.002 Q1030.72 475.651 1030.79 474.738 Q1030.86 473.824 1030.86 473.403 Q1031.5 469.046 1031.5 465.743 Q1031.5 459.63 1029.67 456.328 Q1027.84 452.955 1023.13 451.409 Q1018.43 449.793 1009.57 449.793 L989.336 449.793 Q984.698 449.793 983.574 450.636 Q982.52 451.479 981.536 455.414 L972.893 490.056 L986.455 490.056 Q991.514 490.056 994.536 489.423 Q997.627 488.791 999.665 487.034 Q1001.77 485.207 1002.9 482.748 Q1004.09 480.289 1005.29 475.862 Q1005.64 474.386 1005.99 473.824 Q1006.41 473.262 1007.32 473.262 Q1008.03 473.262 1008.52 473.754 Q1009.01 474.175 1009.01 474.808 L1000.79 508.466 Q1000.37 510.152 999.946 510.785 Q999.525 511.347 998.681 511.347 Q997.768 511.347 997.276 510.855 Q996.784 510.363 996.784 509.801 Q996.784 509.239 997.206 508.185 Q998.26 503.617 998.26 501.158 Q998.26 499.753 998.119 499.05 Q998.049 498.347 997.416 497.364 Q996.854 496.31 995.59 495.818 Q994.325 495.326 991.936 494.975 Q989.547 494.553 985.963 494.553 L971.769 494.553 L961.931 533.832 Q961.229 536.432 961.229 537.135 Q961.229 537.908 961.58 538.189 Q962.002 538.4 963.126 538.54 Q964.391 538.751 966.288 538.751 L987.298 538.751 Q991.936 538.751 995.66 538.33 Q999.384 537.908 1002.48 536.854 Q1005.64 535.8 1008.03 534.605 Q1010.42 533.411 1012.66 531.233 Q1014.91 528.984 1016.46 527.017 Q1018.08 524.979 1019.97 521.536 Q1021.87 518.093 1023.2 515.282 Q1024.54 512.401 1026.58 507.763 Q1027.14 506.077 1028.47 506.077 Q1029.25 506.077 1029.67 506.498 Q1030.09 506.85 1030.16 507.201 L1030.16 507.623 Q1029.74 508.958 1029.46 509.66 L1016.25 540.719 Q1015.48 542.475 1014.84 542.827 Q1014.21 543.178 1011.75 543.178 L937.057 543.178 Q935.37 543.178 934.668 543.108 Q934.035 543.037 933.543 542.686 Q933.052 542.265 933.052 541.421 Q933.052 540.086 933.614 539.524 Q934.176 538.892 934.808 538.821 Q935.441 538.751 937.057 538.751 Q940.57 538.751 942.678 538.54 Q944.786 538.33 946.121 538.048 Q947.527 537.697 948.229 536.713 Q949.002 535.73 949.354 534.886 Q949.705 533.973 950.197 531.935 L969.169 455.836 Q969.872 453.236 969.872 452.393 Q969.872 451.479 969.239 450.917 Q968.677 450.355 967.131 450.144 Q965.585 449.863 964.321 449.863 Q963.126 449.793 960.526 449.793 Q958.84 449.793 958.137 449.722 Q957.505 449.652 957.013 449.301 Q956.521 448.95 956.521 448.177 Q956.521 446.209 957.364 445.787 Q958.278 445.296 960.807 445.296 L1033.46 445.296 Q1036.34 445.296 1036.98 445.928 Q1037.68 446.49 1037.4 449.231 Z" fill="#ffffff" fill-rule="nonzero" fill-opacity="1" /><path clip-path="url(#clip360)" d="M1097.62 546.544 Q1097.62 549.348 1095.9 551.02 Q1094.23 552.692 1092.11 552.692 Q1090.24 552.692 1089.26 551.61 Q1088.28 550.528 1088.28 549.151 Q1088.28 548.561 1088.52 547.823 Q1088.77 547.036 1089.31 546.101 Q1089.9 545.167 1091.13 544.478 Q1092.36 543.789 1094.03 543.691 Q1093.69 543.347 1093.59 543.298 Q1092.85 542.707 1091.47 542.511 Q1091.28 542.412 1090.59 542.412 Q1087.2 542.412 1083.75 544.921 Q1080.36 547.38 1076.18 552.053 Q1070.91 557.513 1067.52 559.529 Q1082.42 561.497 1082.42 570.105 Q1082.42 571.531 1082.03 573.253 Q1081.24 576.499 1081.24 578.86 Q1081.24 583.582 1084.44 583.582 Q1087.54 583.582 1089.51 580.434 Q1091.52 577.286 1093.2 571.138 Q1093.44 570.006 1093.69 569.662 Q1093.93 569.318 1094.62 569.318 Q1095.85 569.318 1095.85 570.301 Q1094.72 576.056 1092.21 580.483 Q1089.01 585.844 1084.24 585.844 Q1080.26 585.844 1077.6 583.09 Q1075 580.286 1075 575.859 Q1075 574.777 1075.39 572.318 Q1075.69 571.334 1075.69 570.203 Q1075.69 567.891 1074.41 566.17 Q1073.13 564.399 1071.06 563.514 Q1069 562.628 1067.27 562.235 Q1065.6 561.792 1063.98 561.644 Q1059.06 582.451 1058.37 583.729 Q1057.93 584.615 1056.94 585.205 Q1055.96 585.844 1054.93 585.844 Q1053.94 585.844 1052.96 585.156 Q1052.03 584.516 1052.03 582.992 Q1052.03 582.205 1052.42 580.778 L1067.03 522.737 L1067.32 520.77 Q1067.32 520.18 1067.08 519.885 Q1066.88 519.54 1065.7 519.294 Q1064.57 519.048 1062.31 519.048 Q1061.37 519.048 1060.93 518.999 Q1060.54 518.95 1060.19 518.704 Q1059.85 518.409 1059.85 517.819 Q1059.85 516.982 1060.19 516.54 Q1060.58 516.048 1060.88 515.95 Q1061.18 515.851 1061.77 515.802 Q1062.6 515.753 1065.41 515.507 Q1068.21 515.212 1070.62 515.015 Q1073.03 514.818 1074.06 514.818 Q1074.65 514.818 1074.95 515.113 Q1075.29 515.359 1075.34 515.654 L1075.39 515.9 L1064.91 558.398 Q1069.24 556.676 1076.08 549.052 Q1084 540.199 1090.79 540.199 Q1093.98 540.199 1095.8 542.166 Q1097.62 544.085 1097.62 546.544 Z" fill="#ffffff" fill-rule="nonzero" fill-opacity="1" /><path clip-path="url(#clip360)" d="M1152.47 521.325 Q1152.61 519.568 1155.35 519.568 L1243.54 519.568 Q1247.68 519.568 1247.75 521.184 Q1247.75 522.941 1243.82 522.871 L1156.33 522.871 Q1152.47 522.941 1152.47 521.325 M1152.47 493.218 Q1152.47 491.461 1155.49 491.532 L1243.4 491.532 Q1247.68 491.532 1247.75 493.218 Q1247.75 494.834 1244.1 494.834 L1155.35 494.834 Q1152.47 494.834 1152.47 493.218 Z" fill="#ffffff" fill-rule="nonzero" fill-opacity="1" /><path clip-path="url(#clip360)" d="M1303.26 497.153 Q1303.26 476.002 1308.6 464.479 Q1316.05 447.333 1333.62 447.333 Q1337.34 447.333 1341.2 448.387 Q1345.14 449.371 1350.06 453.236 Q1355.05 457.101 1358.07 463.425 Q1363.83 475.651 1363.83 497.153 Q1363.83 518.163 1358.49 529.616 Q1350.69 546.34 1333.48 546.34 Q1327.01 546.34 1320.41 543.037 Q1313.87 539.735 1309.73 531.795 Q1303.26 519.92 1303.26 497.153 M1315.21 495.396 Q1315.21 517.109 1316.75 525.752 Q1318.51 535.097 1323.29 539.173 Q1328.14 543.178 1333.48 543.178 Q1339.24 543.178 1344.02 538.892 Q1348.86 534.535 1350.34 525.19 Q1351.96 515.985 1351.89 495.396 Q1351.89 475.37 1350.48 467.36 Q1348.58 458.014 1343.52 454.29 Q1338.53 450.495 1333.48 450.495 Q1331.58 450.495 1329.54 451.058 Q1327.57 451.62 1324.69 453.236 Q1321.81 454.852 1319.56 458.857 Q1317.38 462.862 1316.33 468.905 Q1315.21 476.705 1315.21 495.396 Z" fill="#ffffff" fill-rule="nonzero" fill-opacity="1" /><path clip-path="url(#clip360)" d="M1376.71 540.859 Q1374.53 538.54 1374.53 535.519 Q1374.53 532.497 1376.71 530.319 Q1378.88 528.071 1382.19 528.071 Q1385.35 528.071 1387.46 530.179 Q1389.64 532.216 1389.64 535.589 Q1389.64 538.892 1387.32 541.07 Q1385.07 543.178 1382.19 543.178 Q1378.88 543.178 1376.71 540.859 Z" fill="#ffffff" fill-rule="nonzero" fill-opacity="1" /><path clip-path="url(#clip360)" d="M1414.13 519.99 Q1414.13 515.703 1416.45 514.087 Q1418.77 512.401 1421.23 512.401 Q1424.53 512.401 1426.42 514.509 Q1428.39 516.547 1428.39 519.428 Q1428.39 522.309 1426.42 524.417 Q1424.53 526.454 1421.23 526.454 Q1419.61 526.454 1418.77 526.173 Q1420.66 532.778 1426.42 537.557 Q1432.26 542.335 1439.92 542.335 Q1449.54 542.335 1455.3 532.989 Q1458.75 526.946 1458.75 513.244 Q1458.75 501.158 1456.15 495.115 Q1452.14 485.91 1443.92 485.91 Q1432.26 485.91 1425.37 495.958 Q1424.53 497.223 1423.54 497.293 Q1422.14 497.293 1421.79 496.52 Q1421.51 495.677 1421.51 493.499 L1421.51 450.917 Q1421.51 447.474 1422.91 447.474 Q1423.47 447.474 1424.67 447.896 Q1433.73 451.901 1443.78 451.971 Q1454.11 451.971 1463.39 447.755 Q1464.09 447.333 1464.51 447.333 Q1465.92 447.333 1465.99 448.95 Q1465.99 449.512 1464.79 451.198 Q1463.67 452.814 1461.21 454.993 Q1458.75 457.101 1455.59 459.138 Q1452.42 461.176 1447.79 462.581 Q1443.22 463.916 1438.16 463.916 Q1432.12 463.916 1425.93 462.019 L1425.93 490.056 Q1433.38 482.748 1444.2 482.748 Q1455.73 482.748 1463.67 492.023 Q1471.61 501.299 1471.61 514.228 Q1471.61 527.789 1462.19 537.065 Q1452.85 546.34 1440.2 546.34 Q1428.67 546.34 1421.37 538.119 Q1414.13 529.897 1414.13 519.99 Z" fill="#ffffff" fill-rule="nonzero" fill-opacity="1" /></svg>
