<?xml version="1.0" encoding="utf-8"?>
<svg xmlns="http://www.w3.org/2000/svg" xmlns:xlink="http://www.w3.org/1999/xlink" width="600" height="600" viewBox="0 0 2400 2400">
<defs>
  <clipPath id="clip160">
    <rect x="0" y="0" width="2400" height="2400"/>
  </clipPath>
</defs>
<path clip-path="url(#clip160)" d="M0 2400 L2400 2400 L2400 0 L0 0  Z" fill="#363d46" fill-rule="evenodd" fill-opacity="1"/>
<defs>
  <clipPath id="clip161">
    <rect x="480" y="240" width="1681" height="1681"/>
  </clipPath>
</defs>
<path clip-path="url(#clip160)" d="M485.206 2070.31 L2258.27 2070.31 L2258.27 141.732 L485.206 141.732  Z" fill="#30343b" fill-rule="evenodd" fill-opacity="1"/>
<defs>
  <clipPath id="clip162">
    <rect x="485" y="141" width="1774" height="1930"/>
  </clipPath>
</defs>
<polyline clip-path="url(#clip162)" style="stroke:#adb2b7; stroke-linecap:round; stroke-linejoin:round; stroke-width:6; stroke-opacity:0.1; fill:none" points="702.657,2070.31 702.657,141.732 "/>
<polyline clip-path="url(#clip162)" style="stroke:#adb2b7; stroke-linecap:round; stroke-linejoin:round; stroke-width:6; stroke-opacity:0.1; fill:none" points="1037.2,2070.31 1037.2,141.732 "/>
<polyline clip-path="url(#clip162)" style="stroke:#adb2b7; stroke-linecap:round; stroke-linejoin:round; stroke-width:6; stroke-opacity:0.1; fill:none" points="1371.74,2070.31 1371.74,141.732 "/>
<polyline clip-path="url(#clip162)" style="stroke:#adb2b7; stroke-linecap:round; stroke-linejoin:round; stroke-width:6; stroke-opacity:0.1; fill:none" points="1706.28,2070.31 1706.28,141.732 "/>
<polyline clip-path="url(#clip162)" style="stroke:#adb2b7; stroke-linecap:round; stroke-linejoin:round; stroke-width:6; stroke-opacity:0.1; fill:none" points="2040.82,2070.31 2040.82,141.732 "/>
<polyline clip-path="url(#clip162)" style="stroke:#adb2b7; stroke-linecap:round; stroke-linejoin:round; stroke-width:6; stroke-opacity:0.1; fill:none" points="485.206,2060.23 2258.27,2060.23 "/>
<polyline clip-path="url(#clip162)" style="stroke:#adb2b7; stroke-linecap:round; stroke-linejoin:round; stroke-width:6; stroke-opacity:0.1; fill:none" points="485.206,1428.63 2258.27,1428.63 "/>
<polyline clip-path="url(#clip162)" style="stroke:#adb2b7; stroke-linecap:round; stroke-linejoin:round; stroke-width:6; stroke-opacity:0.1; fill:none" points="485.206,797.042 2258.27,797.042 "/>
<polyline clip-path="url(#clip162)" style="stroke:#adb2b7; stroke-linecap:round; stroke-linejoin:round; stroke-width:6; stroke-opacity:0.1; fill:none" points="485.206,165.448 2258.27,165.448 "/>
<polyline clip-path="url(#clip160)" style="stroke:#adb2b7; stroke-linecap:round; stroke-linejoin:round; stroke-width:12; stroke-opacity:1; fill:none" points="485.206,2070.31 2258.27,2070.31 "/>
<polyline clip-path="url(#clip160)" style="stroke:#adb2b7; stroke-linecap:round; stroke-linejoin:round; stroke-width:12; stroke-opacity:1; fill:none" points="702.657,2070.31 702.657,2051.42 "/>
<polyline clip-path="url(#clip160)" style="stroke:#adb2b7; stroke-linecap:round; stroke-linejoin:round; stroke-width:12; stroke-opacity:1; fill:none" points="1037.2,2070.31 1037.2,2051.42 "/>
<polyline clip-path="url(#clip160)" style="stroke:#adb2b7; stroke-linecap:round; stroke-linejoin:round; stroke-width:12; stroke-opacity:1; fill:none" points="1371.74,2070.31 1371.74,2051.42 "/>
<polyline clip-path="url(#clip160)" style="stroke:#adb2b7; stroke-linecap:round; stroke-linejoin:round; stroke-width:12; stroke-opacity:1; fill:none" points="1706.28,2070.31 1706.28,2051.42 "/>
<polyline clip-path="url(#clip160)" style="stroke:#adb2b7; stroke-linecap:round; stroke-linejoin:round; stroke-width:12; stroke-opacity:1; fill:none" points="2040.82,2070.31 2040.82,2051.42 "/>
<path clip-path="url(#clip160)" d="M609.359 2168.63 L698.386 2168.63 L698.386 2180.43 L609.359 2180.43 L609.359 2168.63 Z" fill="#ffffff" fill-rule="nonzero" fill-opacity="1" /><path clip-path="url(#clip160)" d="M767.205 2127.66 L731.789 2183 L767.205 2183 L767.205 2127.66 M763.525 2115.43 L781.164 2115.43 L781.164 2183 L795.955 2183 L795.955 2194.67 L781.164 2194.67 L781.164 2219.11 L767.205 2219.11 L767.205 2194.67 L720.4 2194.67 L720.4 2181.13 L763.525 2115.43 Z" fill="#ffffff" fill-rule="nonzero" fill-opacity="1" /><path clip-path="url(#clip160)" d="M947.024 2168.63 L1036.05 2168.63 L1036.05 2180.43 L947.024 2180.43 L947.024 2168.63 Z" fill="#ffffff" fill-rule="nonzero" fill-opacity="1" /><path clip-path="url(#clip160)" d="M1078.41 2207.31 L1127.37 2207.31 L1127.37 2219.11 L1061.54 2219.11 L1061.54 2207.31 Q1069.52 2199.04 1083.27 2185.16 Q1097.09 2171.2 1100.63 2167.17 Q1107.37 2159.6 1110.01 2154.39 Q1112.72 2149.11 1112.72 2144.04 Q1112.72 2135.78 1106.88 2130.57 Q1101.12 2125.36 1091.81 2125.36 Q1085.22 2125.36 1077.86 2127.66 Q1070.56 2129.95 1062.23 2134.6 L1062.23 2120.43 Q1070.7 2117.03 1078.06 2115.29 Q1085.43 2113.56 1091.54 2113.56 Q1107.65 2113.56 1117.23 2121.61 Q1126.81 2129.67 1126.81 2143.14 Q1126.81 2149.53 1124.38 2155.29 Q1122.02 2160.99 1115.7 2168.77 Q1113.97 2170.78 1104.66 2180.43 Q1095.36 2190.02 1078.41 2207.31 Z" fill="#ffffff" fill-rule="nonzero" fill-opacity="1" /><path clip-path="url(#clip160)" d="M1371.74 2124.67 Q1360.9 2124.67 1355.42 2135.36 Q1350 2145.99 1350 2167.38 Q1350 2188.7 1355.42 2199.39 Q1360.9 2210.02 1371.74 2210.02 Q1382.64 2210.02 1388.06 2199.39 Q1393.54 2188.7 1393.54 2167.38 Q1393.54 2145.99 1388.06 2135.36 Q1382.64 2124.67 1371.74 2124.67 M1371.74 2113.56 Q1389.17 2113.56 1398.33 2127.38 Q1407.57 2141.13 1407.57 2167.38 Q1407.57 2193.56 1398.33 2207.38 Q1389.17 2221.13 1371.74 2221.13 Q1354.31 2221.13 1345.07 2207.38 Q1335.9 2193.56 1335.9 2167.38 Q1335.9 2141.13 1345.07 2127.38 Q1354.31 2113.56 1371.74 2113.56 Z" fill="#ffffff" fill-rule="nonzero" fill-opacity="1" /><path clip-path="url(#clip160)" d="M1690.24 2207.31 L1739.19 2207.31 L1739.19 2219.11 L1673.36 2219.11 L1673.36 2207.31 Q1681.35 2199.04 1695.1 2185.16 Q1708.92 2171.2 1712.46 2167.17 Q1719.19 2159.6 1721.83 2154.39 Q1724.54 2149.11 1724.54 2144.04 Q1724.54 2135.78 1718.71 2130.57 Q1712.94 2125.36 1703.64 2125.36 Q1697.04 2125.36 1689.68 2127.66 Q1682.39 2129.95 1674.05 2134.6 L1674.05 2120.43 Q1682.53 2117.03 1689.89 2115.29 Q1697.25 2113.56 1703.36 2113.56 Q1719.47 2113.56 1729.05 2121.61 Q1738.64 2129.67 1738.64 2143.14 Q1738.64 2149.53 1736.21 2155.29 Q1733.85 2160.99 1727.53 2168.77 Q1725.79 2170.78 1716.49 2180.43 Q1707.18 2190.02 1690.24 2207.31 Z" fill="#ffffff" fill-rule="nonzero" fill-opacity="1" /><path clip-path="url(#clip160)" d="M2049.84 2127.66 L2014.43 2183 L2049.84 2183 L2049.84 2127.66 M2046.16 2115.43 L2063.8 2115.43 L2063.8 2183 L2078.59 2183 L2078.59 2194.67 L2063.8 2194.67 L2063.8 2219.11 L2049.84 2219.11 L2049.84 2194.67 L2003.04 2194.67 L2003.04 2181.13 L2046.16 2115.43 Z" fill="#ffffff" fill-rule="nonzero" fill-opacity="1" /><path clip-path="url(#clip160)" d="M1427.73 2315.95 Q1427.73 2324.94 1423.19 2342.33 Q1421.36 2349.86 1418.85 2356.72 Q1416.43 2363.49 1412.85 2370.06 Q1409.28 2376.63 1405.13 2381.36 Q1400.97 2386 1395.56 2388.9 Q1390.15 2391.8 1384.16 2391.8 Q1374.69 2391.8 1369.09 2386.19 Q1363.58 2380.49 1361.84 2370.73 Q1348.89 2391.8 1331.6 2391.8 Q1320.88 2391.8 1315.85 2384.16 Q1310.83 2376.43 1310.83 2363.49 Q1310.83 2352.57 1313.73 2341.26 Q1319.23 2319.81 1329.96 2304.84 Q1331.41 2303.1 1333.53 2303.1 Q1334.79 2303.1 1335.37 2303.49 Q1337.11 2304.55 1337.11 2306.29 Q1337.11 2307.54 1336.14 2308.8 Q1329.38 2318.17 1324.93 2326.19 Q1320.49 2334.21 1318.46 2342.33 Q1316.91 2349.28 1316.91 2355.18 Q1316.91 2365.13 1321.16 2371.31 Q1325.51 2377.5 1334.11 2377.5 Q1342.03 2377.5 1348.99 2372.57 Q1355.95 2367.54 1361.07 2359.14 Q1361.36 2349.96 1363.58 2341.26 Q1365.61 2331.99 1370.34 2331.99 Q1374.11 2331.99 1374.11 2337.11 Q1374.11 2338.85 1373.34 2342.33 Q1371.21 2351.51 1367.35 2359.72 Q1368.7 2367.74 1373.72 2372.66 Q1378.75 2377.5 1386.77 2377.5 Q1394.21 2377.5 1400.78 2372.09 Q1407.44 2366.67 1411.7 2358.75 Q1416.04 2350.73 1418.46 2341.26 Q1419.23 2338.08 1419.23 2334.02 Q1419.23 2323.2 1411.7 2316.53 Q1409.57 2314.4 1409.57 2311.6 Q1409.57 2308.32 1412.28 2305.32 Q1415.46 2302.13 1419.23 2302.13 Q1422.03 2302.13 1423.77 2303.87 Q1427.73 2307.35 1427.73 2315.95 Z" fill="#ffffff" fill-rule="nonzero" fill-opacity="1" /><polyline clip-path="url(#clip160)" style="stroke:#adb2b7; stroke-linecap:round; stroke-linejoin:round; stroke-width:12; stroke-opacity:1; fill:none" points="485.206,2070.31 485.206,141.732 "/>
<polyline clip-path="url(#clip160)" style="stroke:#adb2b7; stroke-linecap:round; stroke-linejoin:round; stroke-width:12; stroke-opacity:1; fill:none" points="485.206,2060.23 504.104,2060.23 "/>
<polyline clip-path="url(#clip160)" style="stroke:#adb2b7; stroke-linecap:round; stroke-linejoin:round; stroke-width:12; stroke-opacity:1; fill:none" points="485.206,1428.63 504.104,1428.63 "/>
<polyline clip-path="url(#clip160)" style="stroke:#adb2b7; stroke-linecap:round; stroke-linejoin:round; stroke-width:12; stroke-opacity:1; fill:none" points="485.206,797.042 504.104,797.042 "/>
<polyline clip-path="url(#clip160)" style="stroke:#adb2b7; stroke-linecap:round; stroke-linejoin:round; stroke-width:12; stroke-opacity:1; fill:none" points="485.206,165.448 504.104,165.448 "/>
<path clip-path="url(#clip160)" d="M277.679 2017.62 Q266.846 2017.62 261.36 2028.32 Q255.943 2038.94 255.943 2060.33 Q255.943 2081.65 261.36 2092.35 Q266.846 2102.97 277.679 2102.97 Q288.582 2102.97 293.999 2092.35 Q299.485 2081.65 299.485 2060.33 Q299.485 2038.94 293.999 2028.32 Q288.582 2017.62 277.679 2017.62 M277.679 2006.51 Q295.11 2006.51 304.277 2020.33 Q313.513 2034.08 313.513 2060.33 Q313.513 2086.51 304.277 2100.33 Q295.11 2114.08 277.679 2114.08 Q260.249 2114.08 251.013 2100.33 Q241.846 2086.51 241.846 2060.33 Q241.846 2034.08 251.013 2020.33 Q260.249 2006.51 277.679 2006.51 Z" fill="#ffffff" fill-rule="nonzero" fill-opacity="1" /><path clip-path="url(#clip160)" d="M338.165 2094.43 L352.818 2094.43 L352.818 2112.07 L338.165 2112.07 L338.165 2094.43 Z" fill="#ffffff" fill-rule="nonzero" fill-opacity="1" /><path clip-path="url(#clip160)" d="M413.373 2017.62 Q402.54 2017.62 397.054 2028.32 Q391.637 2038.94 391.637 2060.33 Q391.637 2081.65 397.054 2092.35 Q402.54 2102.97 413.373 2102.97 Q424.276 2102.97 429.693 2092.35 Q435.179 2081.65 435.179 2060.33 Q435.179 2038.94 429.693 2028.32 Q424.276 2017.62 413.373 2017.62 M413.373 2006.51 Q430.804 2006.51 439.97 2020.33 Q449.206 2034.08 449.206 2060.33 Q449.206 2086.51 439.97 2100.33 Q430.804 2114.08 413.373 2114.08 Q395.943 2114.08 386.707 2100.33 Q377.54 2086.51 377.54 2060.33 Q377.54 2034.08 386.707 2020.33 Q395.943 2006.51 413.373 2006.51 Z" fill="#ffffff" fill-rule="nonzero" fill-opacity="1" /><path clip-path="url(#clip160)" d="M280.666 1386.03 Q269.832 1386.03 264.346 1396.73 Q258.93 1407.35 258.93 1428.74 Q258.93 1450.06 264.346 1460.75 Q269.832 1471.38 280.666 1471.38 Q291.568 1471.38 296.985 1460.75 Q302.471 1450.06 302.471 1428.74 Q302.471 1407.35 296.985 1396.73 Q291.568 1386.03 280.666 1386.03 M280.666 1374.92 Q298.096 1374.92 307.263 1388.74 Q316.499 1402.49 316.499 1428.74 Q316.499 1454.92 307.263 1468.74 Q298.096 1482.49 280.666 1482.49 Q263.235 1482.49 253.999 1468.74 Q244.832 1454.92 244.832 1428.74 Q244.832 1402.49 253.999 1388.74 Q263.235 1374.92 280.666 1374.92 Z" fill="#ffffff" fill-rule="nonzero" fill-opacity="1" /><path clip-path="url(#clip160)" d="M341.151 1462.84 L355.804 1462.84 L355.804 1480.47 L341.151 1480.47 L341.151 1462.84 Z" fill="#ffffff" fill-rule="nonzero" fill-opacity="1" /><path clip-path="url(#clip160)" d="M386.498 1376.79 L441.567 1376.79 L441.567 1388.6 L399.345 1388.6 L399.345 1414.02 Q402.401 1412.98 405.457 1412.49 Q408.512 1411.93 411.568 1411.93 Q428.929 1411.93 439.067 1421.45 Q449.206 1430.96 449.206 1447.21 Q449.206 1463.95 438.79 1473.25 Q428.373 1482.49 409.415 1482.49 Q402.887 1482.49 396.082 1481.38 Q389.346 1480.27 382.123 1478.04 L382.123 1463.95 Q388.373 1467.35 395.04 1469.02 Q401.707 1470.68 409.137 1470.68 Q421.151 1470.68 428.165 1464.36 Q435.179 1458.04 435.179 1447.21 Q435.179 1436.38 428.165 1430.06 Q421.151 1423.74 409.137 1423.74 Q403.512 1423.74 397.887 1424.99 Q392.332 1426.24 386.498 1428.88 L386.498 1376.79 Z" fill="#ffffff" fill-rule="nonzero" fill-opacity="1" /><path clip-path="url(#clip160)" d="M250.11 837.076 L273.027 837.076 L273.027 757.979 L248.096 762.979 L248.096 750.202 L272.888 745.202 L286.916 745.202 L286.916 837.076 L309.832 837.076 L309.832 848.882 L250.11 848.882 L250.11 837.076 Z" fill="#ffffff" fill-rule="nonzero" fill-opacity="1" /><path clip-path="url(#clip160)" d="M338.165 831.243 L352.818 831.243 L352.818 848.882 L338.165 848.882 L338.165 831.243 Z" fill="#ffffff" fill-rule="nonzero" fill-opacity="1" /><path clip-path="url(#clip160)" d="M413.373 754.438 Q402.54 754.438 397.054 765.132 Q391.637 775.757 391.637 797.146 Q391.637 818.465 397.054 829.159 Q402.54 839.784 413.373 839.784 Q424.276 839.784 429.693 829.159 Q435.179 818.465 435.179 797.146 Q435.179 775.757 429.693 765.132 Q424.276 754.438 413.373 754.438 M413.373 743.327 Q430.804 743.327 439.97 757.146 Q449.206 770.896 449.206 797.146 Q449.206 823.326 439.97 837.146 Q430.804 850.895 413.373 850.895 Q395.943 850.895 386.707 837.146 Q377.54 823.326 377.54 797.146 Q377.54 770.896 386.707 757.146 Q395.943 743.327 413.373 743.327 Z" fill="#ffffff" fill-rule="nonzero" fill-opacity="1" /><path clip-path="url(#clip160)" d="M253.096 205.483 L276.013 205.483 L276.013 126.386 L251.082 131.386 L251.082 118.608 L275.874 113.608 L289.902 113.608 L289.902 205.483 L312.818 205.483 L312.818 217.288 L253.096 217.288 L253.096 205.483 Z" fill="#ffffff" fill-rule="nonzero" fill-opacity="1" /><path clip-path="url(#clip160)" d="M341.151 199.65 L355.804 199.65 L355.804 217.288 L341.151 217.288 L341.151 199.65 Z" fill="#ffffff" fill-rule="nonzero" fill-opacity="1" /><path clip-path="url(#clip160)" d="M386.498 113.608 L441.567 113.608 L441.567 125.414 L399.345 125.414 L399.345 150.83 Q402.401 149.789 405.457 149.303 Q408.512 148.747 411.568 148.747 Q428.929 148.747 439.067 158.261 Q449.206 167.775 449.206 184.025 Q449.206 200.761 438.79 210.066 Q428.373 219.302 409.415 219.302 Q402.887 219.302 396.082 218.191 Q389.346 217.08 382.123 214.858 L382.123 200.761 Q388.373 204.163 395.04 205.83 Q401.707 207.497 409.137 207.497 Q421.151 207.497 428.165 201.177 Q435.179 194.858 435.179 184.025 Q435.179 173.191 428.165 166.872 Q421.151 160.553 409.137 160.553 Q403.512 160.553 397.887 161.803 Q392.332 163.053 386.498 165.691 L386.498 113.608 Z" fill="#ffffff" fill-rule="nonzero" fill-opacity="1" /><path clip-path="url(#clip160)" d="M160.513 1226.55 Q162.349 1226.55 163.315 1227.33 Q164.185 1228 164.378 1228.68 Q164.475 1229.26 164.475 1230.13 Q164.475 1232.64 164.185 1241.34 Q163.895 1250.03 163.895 1252.54 Q163.895 1256.6 164.185 1264.91 Q164.475 1273.22 164.475 1277.28 Q164.475 1279.98 162.252 1279.98 Q160.803 1279.98 160.03 1279.69 Q159.161 1279.4 158.871 1278.63 Q158.484 1277.76 158.484 1277.28 Q158.388 1276.7 158.388 1275.25 Q158.388 1273.32 158.195 1271.29 Q157.905 1269.26 157.325 1266.75 Q156.745 1264.23 155.296 1262.69 Q153.847 1261.05 151.818 1261.05 Q150.948 1261.05 143.799 1261.72 Q136.649 1262.4 128.34 1263.27 Q119.934 1264.14 118.775 1264.23 L118.775 1313.89 Q126.601 1318.44 132.011 1321.62 Q137.422 1324.81 139.257 1325.97 Q141.093 1327.13 142.253 1327.81 Q143.412 1328.48 144.088 1328.87 Q149.209 1331.67 151.431 1331.67 Q157.615 1331.67 158.388 1322.4 Q158.388 1319.21 160.707 1319.21 Q162.446 1319.21 163.412 1319.98 Q164.281 1320.75 164.378 1321.43 Q164.475 1322.01 164.475 1322.98 Q164.475 1326.17 164.185 1332.83 Q163.895 1339.5 163.895 1342.78 Q163.895 1345.59 164.185 1351.38 Q164.475 1357.18 164.475 1359.79 Q164.475 1360.95 163.798 1361.62 Q163.122 1362.3 162.252 1362.3 Q160.9 1362.3 160.127 1362.11 Q159.354 1361.82 158.967 1361.04 Q158.581 1360.27 158.581 1359.88 Q158.484 1359.5 158.388 1358.15 Q157.905 1350.8 154.426 1345.1 Q150.852 1339.31 141.673 1333.8 L26.1183 1265.01 Q24.9589 1264.33 24.3792 1263.85 Q23.7995 1263.36 23.3164 1262.4 Q22.8333 1261.33 22.8333 1259.79 Q22.8333 1257.37 23.6062 1256.89 Q24.2826 1256.41 27.5676 1256.12 L151.238 1244.04 Q153.847 1243.75 154.91 1243.56 Q155.876 1243.27 156.939 1242.01 Q157.905 1240.66 158.195 1238.24 Q158.388 1235.73 158.388 1231.09 Q158.388 1229.35 158.484 1228.68 Q158.484 1228 158.967 1227.33 Q159.451 1226.55 160.513 1226.55 M112.591 1264.81 L47.3742 1271.09 L112.591 1310.13 L112.591 1264.81 Z" fill="#ffffff" fill-rule="nonzero" fill-opacity="1" /><path clip-path="url(#clip160)" d="M169.105 1144.05 Q172.96 1144.05 175.26 1146.41 Q177.559 1148.71 177.559 1151.62 Q177.559 1154.19 176.072 1155.55 Q174.584 1156.9 172.69 1156.9 Q171.878 1156.9 170.864 1156.56 Q169.782 1156.22 168.497 1155.48 Q167.212 1154.67 166.265 1152.98 Q165.318 1151.28 165.183 1148.98 Q164.709 1149.46 164.642 1149.59 Q163.83 1150.61 163.56 1152.5 Q163.424 1152.77 163.424 1153.72 Q163.424 1158.39 166.874 1163.12 Q170.255 1167.79 176.68 1173.54 Q184.187 1180.77 186.96 1185.44 Q189.666 1164.95 201.501 1164.95 Q203.463 1164.95 205.83 1165.49 Q210.294 1166.57 213.54 1166.57 Q220.033 1166.57 220.033 1162.17 Q220.033 1157.91 215.704 1155.21 Q211.376 1152.43 202.922 1150.13 Q201.366 1149.8 200.893 1149.46 Q200.419 1149.12 200.419 1148.17 Q200.419 1146.48 201.772 1146.48 Q209.685 1148.04 215.772 1151.49 Q223.144 1155.88 223.144 1162.44 Q223.144 1167.92 219.356 1171.57 Q215.501 1175.16 209.414 1175.16 Q207.926 1175.16 204.545 1174.62 Q203.192 1174.21 201.637 1174.21 Q198.458 1174.21 196.091 1175.97 Q193.656 1177.73 192.439 1180.57 Q191.221 1183.41 190.68 1185.78 Q190.071 1188.08 189.869 1190.31 Q218.477 1197.07 220.235 1198.02 Q221.453 1198.63 222.264 1199.98 Q223.144 1201.33 223.144 1202.75 Q223.144 1204.11 222.197 1205.46 Q221.318 1206.74 219.221 1206.74 Q218.139 1206.74 216.178 1206.2 L136.371 1186.11 L133.666 1185.71 Q132.855 1185.71 132.449 1186.05 Q131.975 1186.32 131.637 1187.94 Q131.299 1189.5 131.299 1192.61 Q131.299 1193.89 131.231 1194.5 Q131.164 1195.04 130.826 1195.52 Q130.42 1195.99 129.608 1195.99 Q128.458 1195.99 127.85 1195.52 Q127.173 1194.97 127.038 1194.57 Q126.903 1194.16 126.835 1193.35 Q126.768 1192.2 126.429 1188.35 Q126.024 1184.49 125.753 1181.18 Q125.483 1177.86 125.483 1176.44 Q125.483 1175.63 125.888 1175.23 Q126.227 1174.75 126.632 1174.69 L126.971 1174.62 L185.405 1189.02 Q183.038 1183.07 172.555 1173.67 Q160.381 1162.78 160.381 1153.45 Q160.381 1149.05 163.086 1146.55 Q165.724 1144.05 169.105 1144.05 Z" fill="#ffffff" fill-rule="nonzero" fill-opacity="1" /><path clip-path="url(#clip160)" d="M115.006 1123.53 Q81.5768 1123.53 54.6205 1111.07 Q43.3162 1105.75 33.8477 1098.31 Q24.3792 1090.87 20.2246 1085.95 Q16.0701 1081.02 16.0701 1079.67 Q16.0701 1077.73 18.0024 1077.64 Q18.9686 1077.64 21.384 1080.25 Q53.8475 1112.13 115.006 1112.03 Q176.359 1112.03 207.566 1081.02 Q210.948 1077.64 212.011 1077.64 Q213.943 1077.64 213.943 1079.67 Q213.943 1081.02 209.982 1085.75 Q206.02 1090.49 196.938 1097.83 Q187.856 1105.17 176.745 1110.49 Q149.789 1123.53 115.006 1123.53 Z" fill="#ffffff" fill-rule="nonzero" fill-opacity="1" /><path clip-path="url(#clip160)" d="M90.8521 949.649 Q99.8375 949.649 117.229 954.19 Q124.765 956.026 131.625 958.538 Q138.388 960.953 144.958 964.528 Q151.528 968.103 156.262 972.258 Q160.9 976.412 163.798 981.823 Q166.697 987.233 166.697 993.224 Q166.697 1002.69 161.093 1008.3 Q155.393 1013.8 145.634 1015.54 Q166.697 1028.49 166.697 1045.78 Q166.697 1056.51 159.064 1061.53 Q151.335 1066.56 138.388 1066.56 Q127.47 1066.56 116.166 1063.66 Q94.7168 1058.15 79.7411 1047.43 Q78.0019 1045.98 78.0019 1043.85 Q78.0019 1042.6 78.3884 1042.02 Q79.4512 1040.28 81.1903 1040.28 Q82.4463 1040.28 83.7024 1041.24 Q93.0743 1048.01 101.094 1052.45 Q109.113 1056.89 117.229 1058.92 Q124.185 1060.47 130.079 1060.47 Q140.03 1060.47 146.214 1056.22 Q152.397 1051.87 152.397 1043.27 Q152.397 1035.35 147.47 1028.39 Q142.446 1021.44 134.04 1016.32 Q124.861 1016.03 116.166 1013.8 Q106.891 1011.77 106.891 1007.04 Q106.891 1003.27 112.011 1003.27 Q113.75 1003.27 117.229 1004.04 Q126.407 1006.17 134.62 1010.04 Q142.639 1008.68 147.567 1003.66 Q152.397 998.634 152.397 990.615 Q152.397 983.175 146.987 976.605 Q141.576 969.939 133.654 965.688 Q125.634 961.34 116.166 958.924 Q112.978 958.151 108.92 958.151 Q98.0984 958.151 91.4318 965.688 Q89.3062 967.813 86.5043 967.813 Q83.2193 967.813 80.2241 965.108 Q77.0358 961.919 77.0358 958.151 Q77.0358 955.349 78.7749 953.61 Q82.2531 949.649 90.8521 949.649 Z" fill="#ffffff" fill-rule="nonzero" fill-opacity="1" /><path clip-path="url(#clip160)" d="M212.011 925.728 Q211.044 925.728 208.629 923.216 Q176.165 891.332 115.006 891.332 Q53.6543 891.332 22.6401 921.96 Q19.0652 925.728 18.0024 925.728 Q16.0701 925.728 16.0701 923.796 Q16.0701 922.443 20.0314 917.709 Q23.9927 912.878 33.0748 905.632 Q42.1568 898.289 53.2678 892.878 Q80.2241 879.835 115.006 879.835 Q148.436 879.835 175.392 892.298 Q186.697 897.612 196.165 905.052 Q205.634 912.491 209.788 917.419 Q213.943 922.346 213.943 923.796 Q213.943 925.728 212.011 925.728 Z" fill="#ffffff" fill-rule="nonzero" fill-opacity="1" /><polyline clip-path="url(#clip162)" style="stroke:#fe4365; stroke-linecap:round; stroke-linejoin:round; stroke-width:24; stroke-opacity:1; fill:none" points="535.387,2015.73 537.06,2015.6 538.733,2015.48 540.405,2015.35 542.078,2015.22 543.751,2015.09 545.423,2014.96 547.096,2014.83 548.769,2014.7 550.442,2014.56 552.114,2014.43 553.787,2014.3 555.46,2014.17 557.132,2014.03 558.805,2013.9 560.478,2013.76 562.15,2013.63 563.823,2013.49 565.496,2013.35 567.169,2013.22 568.841,2013.08 570.514,2012.94 572.187,2012.8 573.859,2012.66 575.532,2012.52 577.205,2012.38 578.877,2012.24 580.55,2012.1 582.223,2011.95 583.896,2011.81 585.568,2011.67 587.241,2011.52 588.914,2011.38 590.586,2011.23 592.259,2011.08 593.932,2010.94 595.604,2010.79 597.277,2010.64 598.95,2010.49 600.623,2010.34 602.295,2010.19 603.968,2010.04 605.641,2009.89 607.313,2009.74 608.986,2009.59 610.659,2009.43 612.331,2009.28 614.004,2009.12 615.677,2008.97 617.35,2008.81 619.022,2008.66 620.695,2008.5 622.368,2008.34 624.04,2008.18 625.713,2008.02 627.386,2007.86 629.058,2007.7 630.731,2007.54 632.404,2007.38 634.077,2007.21 635.749,2007.05 637.422,2006.89 639.095,2006.72 640.767,2006.56 642.44,2006.39 644.113,2006.22 645.785,2006.05 647.458,2005.89 649.131,2005.72 650.804,2005.55 652.476,2005.37 654.149,2005.2 655.822,2005.03 657.494,2004.86 659.167,2004.68 660.84,2004.51 662.512,2004.33 664.185,2004.16 665.858,2003.98 667.531,2003.8 669.203,2003.62 670.876,2003.45 672.549,2003.26 674.221,2003.08 675.894,2002.9 677.567,2002.72 679.239,2002.54 680.912,2002.35 682.585,2002.17 684.258,2001.98 685.93,2001.8 687.603,2001.61 689.276,2001.42 690.948,2001.23 692.621,2001.04 694.294,2000.85 695.966,2000.66 697.639,2000.47 699.312,2000.27 700.985,2000.08 702.657,1999.88 704.33,1999.69 706.003,1999.49 707.675,1999.29 709.348,1999.1 711.021,1998.9 712.693,1998.7 714.366,1998.49 716.039,1998.29 717.712,1998.09 719.384,1997.89 721.057,1997.68 722.73,1997.48 724.402,1997.27 726.075,1997.06 727.748,1996.85 729.42,1996.64 731.093,1996.43 732.766,1996.22 734.439,1996.01 736.111,1995.8 737.784,1995.58 739.457,1995.37 741.129,1995.15 742.802,1994.93 744.475,1994.72 746.147,1994.5 747.82,1994.28 749.493,1994.06 751.166,1993.84 752.838,1993.61 754.511,1993.39 756.184,1993.16 757.856,1992.94 759.529,1992.71 761.202,1992.48 762.874,1992.25 764.547,1992.02 766.22,1991.79 767.893,1991.56 769.565,1991.33 771.238,1991.09 772.911,1990.86 774.583,1990.62 776.256,1990.38 777.929,1990.15 779.601,1989.91 781.274,1989.67 782.947,1989.42 784.62,1989.18 786.292,1988.94 787.965,1988.69 789.638,1988.45 791.31,1988.2 792.983,1987.95 794.656,1987.7 796.328,1987.45 798.001,1987.2 799.674,1986.95 801.346,1986.69 803.019,1986.44 804.692,1986.18 806.365,1985.93 808.037,1985.67 809.71,1985.41 811.383,1985.15 813.055,1984.88 814.728,1984.62 816.401,1984.36 818.073,1984.09 819.746,1983.82 821.419,1983.56 823.092,1983.29 824.764,1983.02 826.437,1982.75 828.11,1982.47 829.782,1982.2 831.455,1981.92 833.128,1981.65 834.8,1981.37 836.473,1981.09 838.146,1980.81 839.819,1980.53 841.491,1980.25 843.164,1979.96 844.837,1979.68 846.509,1979.39 848.182,1979.1 849.855,1978.81 851.527,1978.52 853.2,1978.23 854.873,1977.94 856.546,1977.64 858.218,1977.35 859.891,1977.05 861.564,1976.75 863.236,1976.45 864.909,1976.15 866.582,1975.85 868.254,1975.54 869.927,1975.24 871.6,1974.93 873.273,1974.62 874.945,1974.31 876.618,1974 878.291,1973.69 879.963,1973.38 881.636,1973.06 883.309,1972.75 884.981,1972.43 886.654,1972.11 888.327,1971.79 890,1971.47 891.672,1971.14 893.345,1970.82 895.018,1970.49 896.69,1970.17 898.363,1969.84 900.036,1969.51 901.708,1969.17 903.381,1968.84 905.054,1968.51 906.727,1968.17 908.399,1967.83 910.072,1967.49 911.745,1967.15 913.417,1966.81 915.09,1966.47 916.763,1966.12 918.435,1965.77 920.108,1965.42 921.781,1965.07 923.454,1964.72 925.126,1964.37 926.799,1964.02 928.472,1963.66 930.144,1963.3 931.817,1962.94 933.49,1962.58 935.162,1962.22 936.835,1961.86 938.508,1961.49 940.181,1961.12 941.853,1960.75 943.526,1960.38 945.199,1960.01 946.871,1959.64 948.544,1959.26 950.217,1958.89 951.889,1958.51 953.562,1958.13 955.235,1957.75 956.908,1957.36 958.58,1956.98 960.253,1956.59 961.926,1956.2 963.598,1955.81 965.271,1955.42 966.944,1955.03 968.616,1954.63 970.289,1954.24 971.962,1953.84 973.635,1953.44 975.307,1953.04 976.98,1952.64 978.653,1952.23 980.325,1951.82 981.998,1951.42 983.671,1951.01 985.343,1950.59 987.016,1950.18 988.689,1949.76 990.362,1949.35 992.034,1948.93 993.707,1948.51 995.38,1948.09 997.052,1947.66 998.725,1947.24 1000.4,1946.81 1002.07,1946.38 1003.74,1945.95 1005.42,1945.52 1007.09,1945.08 1008.76,1944.64 1010.43,1944.21 1012.11,1943.77 1013.78,1943.32 1015.45,1942.88 1017.12,1942.44 1018.8,1941.99 1020.47,1941.54 1022.14,1941.09 1023.82,1940.63 1025.49,1940.18 1027.16,1939.72 1028.83,1939.27 1030.51,1938.81 1032.18,1938.34 1033.85,1937.88 1035.52,1937.41 1037.2,1936.95 1038.87,1936.48 1040.54,1936 1042.22,1935.53 1043.89,1935.06 1045.56,1934.58 1047.23,1934.1 1048.91,1933.62 1050.58,1933.13 1052.25,1932.65 1053.92,1932.16 1055.6,1931.67 1057.27,1931.18 1058.94,1930.69 1060.61,1930.19 1062.29,1929.7 1063.96,1929.2 1065.63,1928.7 1067.31,1928.19 1068.98,1927.69 1070.65,1927.18 1072.32,1926.67 1074,1926.16 1075.67,1925.65 1077.34,1925.13 1079.01,1924.62 1080.69,1924.1 1082.36,1923.57 1084.03,1923.05 1085.71,1922.53 1087.38,1922 1089.05,1921.47 1090.72,1920.93 1092.4,1920.4 1094.07,1919.86 1095.74,1919.32 1097.41,1918.78 1099.09,1918.24 1100.76,1917.69 1102.43,1917.15 1104.11,1916.6 1105.78,1916.04 1107.45,1915.49 1109.12,1914.93 1110.8,1914.37 1112.47,1913.81 1114.14,1913.24 1115.81,1912.68 1117.49,1912.11 1119.16,1911.54 1120.83,1910.96 1122.5,1910.38 1124.18,1909.81 1125.85,1909.22 1127.52,1908.64 1129.2,1908.05 1130.87,1907.46 1132.54,1906.87 1134.21,1906.27 1135.89,1905.67 1137.56,1905.07 1139.23,1904.47 1140.9,1903.86 1142.58,1903.25 1144.25,1902.64 1145.92,1902.03 1147.6,1901.41 1149.27,1900.78 1150.94,1900.16 1152.61,1899.53 1154.29,1898.9 1155.96,1898.27 1157.63,1897.63 1159.3,1896.99 1160.98,1896.34 1162.65,1895.69 1164.32,1895.04 1165.99,1894.38 1167.67,1893.72 1169.34,1893.06 1171.01,1892.39 1172.69,1891.72 1174.36,1891.05 1176.03,1890.37 1177.7,1889.68 1179.38,1889 1181.05,1888.3 1182.72,1887.61 1184.39,1886.9 1186.07,1886.2 1187.74,1885.49 1189.41,1884.77 1191.09,1884.05 1192.76,1883.32 1194.43,1882.59 1196.1,1881.85 1197.78,1881.11 1199.45,1880.36 1201.12,1879.61 1202.79,1878.84 1204.47,1878.08 1206.14,1877.3 1207.81,1876.52 1209.49,1875.73 1211.16,1874.94 1212.83,1874.14 1214.5,1873.33 1216.18,1872.51 1217.85,1871.68 1219.52,1870.85 1221.19,1870.01 1222.87,1869.15 1224.54,1868.29 1226.21,1867.42 1227.88,1866.54 1229.56,1865.65 1231.23,1864.75 1232.9,1863.84 1234.58,1862.92 1236.25,1861.98 1237.92,1861.04 1239.59,1860.08 1241.27,1859.1 1242.94,1858.12 1244.61,1857.12 1246.28,1856.1 1247.96,1855.07 1249.63,1854.03 1251.3,1852.96 1252.98,1851.88 1254.65,1850.78 1256.32,1849.67 1257.99,1848.53 1259.67,1847.37 1261.34,1846.2 1263.01,1844.99 1264.68,1843.77 1266.36,1842.52 1268.03,1841.25 1269.7,1839.95 1271.38,1838.62 1273.05,1837.26 1274.72,1835.87 1276.39,1834.44 1278.07,1832.99 1279.74,1831.49 1281.41,1829.96 1283.08,1828.39 1284.76,1826.78 1286.43,1825.12 1288.1,1823.42 1289.77,1821.66 1291.45,1819.85 1293.12,1817.99 1294.79,1816.07 1296.47,1814.08 1298.14,1812.03 1299.81,1809.9 1301.48,1807.7 1303.16,1805.42 1304.83,1803.05 1306.5,1800.58 1308.17,1798.02 1309.85,1795.35 1311.52,1792.56 1313.19,1789.65 1314.87,1786.6 1316.54,1783.4 1318.21,1780.05 1319.88,1776.52 1321.56,1772.81 1323.23,1768.89 1324.9,1764.74 1326.57,1760.34 1328.25,1755.67 1329.92,1750.69 1331.59,1745.37 1333.26,1739.68 1334.94,1733.56 1336.61,1726.95 1338.28,1719.8 1339.96,1712.03 1341.63,1703.55 1343.3,1694.23 1344.97,1683.95 1346.65,1672.53 1348.32,1659.76 1349.99,1645.35 1351.66,1628.93 1353.34,1610.04 1355.01,1587.99 1356.68,1561.86 1358.36,1530.3 1360.03,1491.24 1361.7,1441.36 1363.37,1374.95 1365.05,1281.11 1366.72,1135.89 1368.39,872.816 1370.06,196.315 "/>
<polyline clip-path="url(#clip162)" style="stroke:#fe4365; stroke-linecap:round; stroke-linejoin:round; stroke-width:24; stroke-opacity:1; fill:none" points="1373.41,196.315 1375.08,872.816 1376.76,1135.89 1378.43,1281.11 1380.1,1374.95 1381.77,1441.36 1383.45,1491.24 1385.12,1530.3 1386.79,1561.86 1388.46,1587.99 1390.14,1610.04 1391.81,1628.93 1393.48,1645.35 1395.15,1659.76 1396.83,1672.53 1398.5,1683.95 1400.17,1694.23 1401.85,1703.55 1403.52,1712.03 1405.19,1719.8 1406.86,1726.95 1408.54,1733.56 1410.21,1739.68 1411.88,1745.37 1413.55,1750.69 1415.23,1755.67 1416.9,1760.34 1418.57,1764.74 1420.25,1768.89 1421.92,1772.81 1423.59,1776.52 1425.26,1780.05 1426.94,1783.4 1428.61,1786.6 1430.28,1789.65 1431.95,1792.56 1433.63,1795.35 1435.3,1798.02 1436.97,1800.58 1438.64,1803.05 1440.32,1805.42 1441.99,1807.7 1443.66,1809.9 1445.34,1812.03 1447.01,1814.08 1448.68,1816.07 1450.35,1817.99 1452.03,1819.85 1453.7,1821.66 1455.37,1823.42 1457.04,1825.12 1458.72,1826.78 1460.39,1828.39 1462.06,1829.96 1463.74,1831.49 1465.41,1832.99 1467.08,1834.44 1468.75,1835.87 1470.43,1837.26 1472.1,1838.62 1473.77,1839.95 1475.44,1841.25 1477.12,1842.52 1478.79,1843.77 1480.46,1844.99 1482.14,1846.2 1483.81,1847.37 1485.48,1848.53 1487.15,1849.67 1488.83,1850.78 1490.5,1851.88 1492.17,1852.96 1493.84,1854.03 1495.52,1855.07 1497.19,1856.1 1498.86,1857.12 1500.53,1858.12 1502.21,1859.1 1503.88,1860.08 1505.55,1861.04 1507.23,1861.98 1508.9,1862.92 1510.57,1863.84 1512.24,1864.75 1513.92,1865.65 1515.59,1866.54 1517.26,1867.42 1518.93,1868.29 1520.61,1869.15 1522.28,1870.01 1523.95,1870.85 1525.63,1871.68 1527.3,1872.51 1528.97,1873.33 1530.64,1874.14 1532.32,1874.94 1533.99,1875.73 1535.66,1876.52 1537.33,1877.3 1539.01,1878.08 1540.68,1878.84 1542.35,1879.61 1544.03,1880.36 1545.7,1881.11 1547.37,1881.85 1549.04,1882.59 1550.72,1883.32 1552.39,1884.05 1554.06,1884.77 1555.73,1885.49 1557.41,1886.2 1559.08,1886.9 1560.75,1887.61 1562.42,1888.3 1564.1,1889 1565.77,1889.68 1567.44,1890.37 1569.12,1891.05 1570.79,1891.72 1572.46,1892.39 1574.13,1893.06 1575.81,1893.72 1577.48,1894.38 1579.15,1895.04 1580.82,1895.69 1582.5,1896.34 1584.17,1896.99 1585.84,1897.63 1587.52,1898.27 1589.19,1898.9 1590.86,1899.53 1592.53,1900.16 1594.21,1900.78 1595.88,1901.41 1597.55,1902.03 1599.22,1902.64 1600.9,1903.25 1602.57,1903.86 1604.24,1904.47 1605.91,1905.07 1607.59,1905.67 1609.26,1906.27 1610.93,1906.87 1612.61,1907.46 1614.28,1908.05 1615.95,1908.64 1617.62,1909.22 1619.3,1909.81 1620.97,1910.38 1622.64,1910.96 1624.31,1911.54 1625.99,1912.11 1627.66,1912.68 1629.33,1913.24 1631.01,1913.81 1632.68,1914.37 1634.35,1914.93 1636.02,1915.49 1637.7,1916.04 1639.37,1916.6 1641.04,1917.15 1642.71,1917.69 1644.39,1918.24 1646.06,1918.78 1647.73,1919.32 1649.41,1919.86 1651.08,1920.4 1652.75,1920.93 1654.42,1921.47 1656.1,1922 1657.77,1922.53 1659.44,1923.05 1661.11,1923.57 1662.79,1924.1 1664.46,1924.62 1666.13,1925.13 1667.8,1925.65 1669.48,1926.16 1671.15,1926.67 1672.82,1927.18 1674.5,1927.69 1676.17,1928.19 1677.84,1928.7 1679.51,1929.2 1681.19,1929.7 1682.86,1930.19 1684.53,1930.69 1686.2,1931.18 1687.88,1931.67 1689.55,1932.16 1691.22,1932.65 1692.9,1933.13 1694.57,1933.62 1696.24,1934.1 1697.91,1934.58 1699.59,1935.06 1701.26,1935.53 1702.93,1936 1704.6,1936.48 1706.28,1936.95 1707.95,1937.41 1709.62,1937.88 1711.29,1938.34 1712.97,1938.81 1714.64,1939.27 1716.31,1939.72 1717.99,1940.18 1719.66,1940.63 1721.33,1941.09 1723,1941.54 1724.68,1941.99 1726.35,1942.44 1728.02,1942.88 1729.69,1943.32 1731.37,1943.77 1733.04,1944.21 1734.71,1944.64 1736.39,1945.08 1738.06,1945.52 1739.73,1945.95 1741.4,1946.38 1743.08,1946.81 1744.75,1947.24 1746.42,1947.66 1748.09,1948.09 1749.77,1948.51 1751.44,1948.93 1753.11,1949.35 1754.79,1949.76 1756.46,1950.18 1758.13,1950.59 1759.8,1951.01 1761.48,1951.42 1763.15,1951.82 1764.82,1952.23 1766.49,1952.64 1768.17,1953.04 1769.84,1953.44 1771.51,1953.84 1773.18,1954.24 1774.86,1954.63 1776.53,1955.03 1778.2,1955.42 1779.88,1955.81 1781.55,1956.2 1783.22,1956.59 1784.89,1956.98 1786.57,1957.36 1788.24,1957.75 1789.91,1958.13 1791.58,1958.51 1793.26,1958.89 1794.93,1959.26 1796.6,1959.64 1798.28,1960.01 1799.95,1960.38 1801.62,1960.75 1803.29,1961.12 1804.97,1961.49 1806.64,1961.86 1808.31,1962.22 1809.98,1962.58 1811.66,1962.94 1813.33,1963.3 1815,1963.66 1816.68,1964.02 1818.35,1964.37 1820.02,1964.72 1821.69,1965.07 1823.37,1965.42 1825.04,1965.77 1826.71,1966.12 1828.38,1966.47 1830.06,1966.81 1831.73,1967.15 1833.4,1967.49 1835.07,1967.83 1836.75,1968.17 1838.42,1968.51 1840.09,1968.84 1841.77,1969.17 1843.44,1969.51 1845.11,1969.84 1846.78,1970.17 1848.46,1970.49 1850.13,1970.82 1851.8,1971.14 1853.47,1971.47 1855.15,1971.79 1856.82,1972.11 1858.49,1972.43 1860.17,1972.75 1861.84,1973.06 1863.51,1973.38 1865.18,1973.69 1866.86,1974 1868.53,1974.31 1870.2,1974.62 1871.87,1974.93 1873.55,1975.24 1875.22,1975.54 1876.89,1975.85 1878.56,1976.15 1880.24,1976.45 1881.91,1976.75 1883.58,1977.05 1885.26,1977.35 1886.93,1977.64 1888.6,1977.94 1890.27,1978.23 1891.95,1978.52 1893.62,1978.81 1895.29,1979.1 1896.96,1979.39 1898.64,1979.68 1900.31,1979.96 1901.98,1980.25 1903.66,1980.53 1905.33,1980.81 1907,1981.09 1908.67,1981.37 1910.35,1981.65 1912.02,1981.92 1913.69,1982.2 1915.36,1982.47 1917.04,1982.75 1918.71,1983.02 1920.38,1983.29 1922.06,1983.56 1923.73,1983.82 1925.4,1984.09 1927.07,1984.36 1928.75,1984.62 1930.42,1984.88 1932.09,1985.15 1933.76,1985.41 1935.44,1985.67 1937.11,1985.93 1938.78,1986.18 1940.45,1986.44 1942.13,1986.69 1943.8,1986.95 1945.47,1987.2 1947.15,1987.45 1948.82,1987.7 1950.49,1987.95 1952.16,1988.2 1953.84,1988.45 1955.51,1988.69 1957.18,1988.94 1958.85,1989.18 1960.53,1989.42 1962.2,1989.67 1963.87,1989.91 1965.55,1990.15 1967.22,1990.38 1968.89,1990.62 1970.56,1990.86 1972.24,1991.09 1973.91,1991.33 1975.58,1991.56 1977.25,1991.79 1978.93,1992.02 1980.6,1992.25 1982.27,1992.48 1983.95,1992.71 1985.62,1992.94 1987.29,1993.16 1988.96,1993.39 1990.64,1993.61 1992.31,1993.84 1993.98,1994.06 1995.65,1994.28 1997.33,1994.5 1999,1994.72 2000.67,1994.93 2002.34,1995.15 2004.02,1995.37 2005.69,1995.58 2007.36,1995.8 2009.04,1996.01 2010.71,1996.22 2012.38,1996.43 2014.05,1996.64 2015.73,1996.85 2017.4,1997.06 2019.07,1997.27 2020.74,1997.48 2022.42,1997.68 2024.09,1997.89 2025.76,1998.09 2027.44,1998.29 2029.11,1998.49 2030.78,1998.7 2032.45,1998.9 2034.13,1999.1 2035.8,1999.29 2037.47,1999.49 2039.14,1999.69 2040.82,1999.88 2042.49,2000.08 2044.16,2000.27 2045.83,2000.47 2047.51,2000.66 2049.18,2000.85 2050.85,2001.04 2052.53,2001.23 2054.2,2001.42 2055.87,2001.61 2057.54,2001.8 2059.22,2001.98 2060.89,2002.17 2062.56,2002.35 2064.23,2002.54 2065.91,2002.72 2067.58,2002.9 2069.25,2003.08 2070.93,2003.26 2072.6,2003.45 2074.27,2003.62 2075.94,2003.8 2077.62,2003.98 2079.29,2004.16 2080.96,2004.33 2082.63,2004.51 2084.31,2004.68 2085.98,2004.86 2087.65,2005.03 2089.33,2005.2 2091,2005.37 2092.67,2005.55 2094.34,2005.72 2096.02,2005.89 2097.69,2006.05 2099.36,2006.22 2101.03,2006.39 2102.71,2006.56 2104.38,2006.72 2106.05,2006.89 2107.72,2007.05 2109.4,2007.21 2111.07,2007.38 2112.74,2007.54 2114.42,2007.7 2116.09,2007.86 2117.76,2008.02 2119.43,2008.18 2121.11,2008.34 2122.78,2008.5 2124.45,2008.66 2126.12,2008.81 2127.8,2008.97 2129.47,2009.12 2131.14,2009.28 2132.82,2009.43 2134.49,2009.59 2136.16,2009.74 2137.83,2009.89 2139.51,2010.04 2141.18,2010.19 2142.85,2010.34 2144.52,2010.49 2146.2,2010.64 2147.87,2010.79 2149.54,2010.94 2151.21,2011.08 2152.89,2011.23 2154.56,2011.38 2156.23,2011.52 2157.91,2011.67 2159.58,2011.81 2161.25,2011.95 2162.92,2012.1 2164.6,2012.24 2166.27,2012.38 2167.94,2012.52 2169.61,2012.66 2171.29,2012.8 2172.96,2012.94 2174.63,2013.08 2176.31,2013.22 2177.98,2013.35 2179.65,2013.49 2181.32,2013.63 2183,2013.76 2184.67,2013.9 2186.34,2014.03 2188.01,2014.17 2189.69,2014.3 2191.36,2014.43 2193.03,2014.56 2194.71,2014.7 2196.38,2014.83 2198.05,2014.96 2199.72,2015.09 2201.4,2015.22 2203.07,2015.35 2204.74,2015.48 2206.41,2015.6 2208.09,2015.73 "/>
</svg>
