<?xml version="1.0" encoding="UTF-8" standalone="no"?>
<!-- Created with Inkscape (http://www.inkscape.org/) -->

<svg
   width="59.94685mm"
   height="118.62461mm"
   viewBox="0 0 59.94685 118.62461"
   version="1.1"
   id="svg1"
   inkscape:version="1.4.1 (93de688d07, 2025-03-30)"
   sodipodi:docname="quasipRes.svg"
   inkscape:export-filename="quasipRes.png"
   inkscape:export-xdpi="300"
   inkscape:export-ydpi="300"
   xmlns:inkscape="http://www.inkscape.org/namespaces/inkscape"
   xmlns:sodipodi="http://sodipodi.sourceforge.net/DTD/sodipodi-0.dtd"
   xmlns:xlink="http://www.w3.org/1999/xlink"
   xmlns="http://www.w3.org/2000/svg"
   xmlns:svg="http://www.w3.org/2000/svg"
   xmlns:ns2="http://www.iki.fi/pav/software/textext/">
  <sodipodi:namedview
     id="namedview1"
     pagecolor="#ffffff"
     bordercolor="#000000"
     borderopacity="0.25"
     inkscape:showpageshadow="2"
     inkscape:pageopacity="0.0"
     inkscape:pagecheckerboard="0"
     inkscape:deskcolor="#d1d1d1"
     inkscape:document-units="mm"
     showgrid="false"
     inkscape:zoom="1.3913786"
     inkscape:cx="136.91457"
     inkscape:cy="177.16242"
     inkscape:window-width="1920"
     inkscape:window-height="1052"
     inkscape:window-x="0"
     inkscape:window-y="0"
     inkscape:window-maximized="1"
     inkscape:current-layer="layer1" />
  <defs
     id="defs1">
    <marker
       style="overflow:visible"
       id="marker53"
       refX="0"
       refY="0"
       orient="auto-start-reverse"
       inkscape:stockid="Rounded arrow"
       markerWidth="0.5"
       markerHeight="0.5"
       viewBox="0 0 1 1"
       inkscape:isstock="true"
       inkscape:collect="always"
       preserveAspectRatio="xMidYMid">
      <path
         transform="scale(0.7)"
         d="m -0.21114562,-4.1055728 6.42229122,3.21114561 a 1,1 90 0 1 0,1.78885438 L -0.21114562,4.1055728 A 1.236068,1.236068 31.717474 0 1 -2,3 v -6 a 1.236068,1.236068 148.28253 0 1 1.78885438,-1.1055728 z"
         style="fill:context-stroke;fill-rule:evenodd;stroke:none"
         id="path53" />
    </marker>
    <inkscape:path-effect
       effect="spiro"
       id="path-effect52"
       is_visible="true"
       lpeversion="1" />
    <linearGradient
       id="linearGradient27"
       inkscape:collect="always">
      <stop
         style="stop-color:#f09060;stop-opacity:1;"
         offset="0"
         id="stop26" />
      <stop
         style="stop-color:#ffffff;stop-opacity:1;"
         offset="1"
         id="stop27" />
    </linearGradient>
    <linearGradient
       id="linearGradient24"
       inkscape:collect="always">
      <stop
         style="stop-color:#7ba0e0;stop-opacity:1;"
         offset="0"
         id="stop24" />
      <stop
         style="stop-color:#ffffff;stop-opacity:1;"
         offset="1"
         id="stop25" />
    </linearGradient>
    <marker
       style="overflow:visible"
       id="RoundedArrow"
       refX="0"
       refY="0"
       orient="auto-start-reverse"
       inkscape:stockid="Rounded arrow"
       markerWidth="0.5"
       markerHeight="0.5"
       viewBox="0 0 1 1"
       inkscape:isstock="true"
       inkscape:collect="always"
       preserveAspectRatio="xMidYMid">
      <path
         transform="scale(0.7)"
         d="m -0.21114562,-4.1055728 6.42229122,3.21114561 a 1,1 90 0 1 0,1.78885438 L -0.21114562,4.1055728 A 1.236068,1.236068 31.717474 0 1 -2,3 v -6 a 1.236068,1.236068 148.28253 0 1 1.78885438,-1.1055728 z"
         style="fill:context-stroke;fill-rule:evenodd;stroke:none"
         id="path8" />
    </marker>
    <linearGradient
       inkscape:collect="always"
       xlink:href="#linearGradient24"
       id="linearGradient25"
       x1="212.51833"
       y1="39.049309"
       x2="212.51833"
       y2="163.7067"
       gradientUnits="userSpaceOnUse"
       gradientTransform="matrix(0.07228909,0,0,1,46.590464,2.6123047e-6)" />
    <linearGradient
       inkscape:collect="always"
       xlink:href="#linearGradient27"
       id="linearGradient26"
       gradientUnits="userSpaceOnUse"
       gradientTransform="matrix(0.07228909,0,0,1,94.215467,2.6123047e-6)"
       x1="212.51833"
       y1="39.049309"
       x2="212.51833"
       y2="163.7067" />
  </defs>
  <g
     inkscape:label="Layer 1"
     inkscape:groupmode="layer"
     id="layer1"
     transform="translate(-57.44754,-34.81155)">
    <rect
       style="opacity:1;fill:url(#linearGradient26);stroke:none;stroke-width:1.07547;stroke-dasharray:none;stroke-opacity:1"
       id="rect25"
       width="9.0113688"
       height="102.8799"
       x="105.07253"
       y="49.938057" />
    <rect
       style="opacity:1;fill:url(#linearGradient25);stroke:none;stroke-width:1.07547;stroke-dasharray:none;stroke-opacity:1"
       id="rect24"
       width="9.0113688"
       height="102.8799"
       x="57.44754"
       y="49.938057" />
    <g
       id="path3"
       style="opacity:1">
      <path
         style="baseline-shift:baseline;display:inline;overflow:visible;vector-effect:none;fill:#e0e0e0;enable-background:accumulate;stop-color:#000000;stop-opacity:1"
         d="m 85.765727,67.585335 c 0,45.056425 0,45.056425 0,45.056425"
         id="path57" />
      <path
         style="baseline-shift:baseline;display:inline;overflow:visible;vector-effect:none;fill:#d0d0d0;enable-background:accumulate;stop-color:#000000;stop-opacity:1"
         d="m 84.865234,67.585937 v 45.056643 h 1.800782 V 67.585937 Z"
         id="path58" />
      <g
         id="g56">
        <path
           d="m 88.353517,112.50867 -2.024022,4.04805 a 0.63031149,0.63031149 0 0 1 -1.127536,0 l -2.024022,-4.04805 a 0.77910786,0.77910786 0 0 1 0.696856,-1.12753 h 3.781868 a 0.77910786,0.77910786 0 0 1 0.696856,1.12753 z"
           style="baseline-shift:baseline;display:inline;overflow:visible;vector-effect:none;fill:#d0d0d0;fill-rule:evenodd;enable-background:accumulate;stop-color:#000000;stop-opacity:1"
           id="path56" />
      </g>
    </g>
    <g
       transform="matrix(1.0540746,0,0,1.0540746,74.39293,55.765483)"
       ns2:version="1.10.2"
       ns2:texconverter="xelatex"
       ns2:pdfconverter="inkscape"
       ns2:text="$U = 0$"
       ns2:preamble="/home/storage/.config/inkscape/extensions/textext/default_packages.tex"
       ns2:scale="2.396018275780023"
       ns2:alignment="middle center"
       ns2:stroke-to-path="0"
       ns2:jacobian_sqrt="0.845263"
       id="g6"
       style="fill:#e0e0e0;fill-opacity:1;stroke:#e0e0e0;stroke-width:0.47435;stroke-dasharray:none;stroke-opacity:1">
      <defs
         id="id-b8c7a1db-04fc-41c7-bfa7-295f96152c1d">
        <g
           id="id-30902ab9-88fc-4fcb-94ec-1619c8c4e1ad">
          <g
             id="id-4d5e5b15-f7fe-41d0-b38e-fdf6c26ff21a">
            <path
               d="M 6.25,-6.875 H 5.3125 l -0.640625,4.578125 c -0.15625,1.0625 -0.71875,1.625 -1.71875,1.625 C 2,-0.671875 1.625,-1.171875 1.78125,-2.25 l 0.640625,-4.625 h -0.9375 l -0.65625,4.640625 C 0.640625,-0.875 1.34375,0.125 2.90625,0.125 c 1.515625,0 2.5,-0.9375 2.6875,-2.296875 z m 0,0"
               id="id-4bbbe21e-d7f3-4579-825c-9e49914a75f1" />
          </g>
          <g
             id="id-9a711049-5d4d-4cb0-8b5d-3f707df4900e">
            <path
               d="M 0.625,-1.453125 H 4.359375 V -2.21875 H 0.625 Z m 0,-1.921875 h 3.734375 v -0.75 H 0.625 Z m 0,0"
               id="id-47c667ea-405c-4574-868a-cfd013afe141" />
          </g>
          <g
             id="id-1bbe5a8f-e991-4047-89e8-eb33bc3e1892">
            <path
               d="M 2.796875,-6.265625 C 3.625,-6.265625 4.0625,-5.5 4.0625,-3.4375 c 0,2.078125 -0.4375,2.828125 -1.265625,2.828125 -0.84375,0 -1.28125,-0.75 -1.28125,-2.828125 0,-2.0625 0.4375,-2.828125 1.28125,-2.828125 z m 0,-0.71875 c -1.5,0 -2.234375,1.21875 -2.234375,3.546875 0,2.328125 0.734375,3.5625 2.234375,3.5625 1.484375,0 2.234375,-1.234375 2.234375,-3.5625 0,-2.3125 -0.75,-3.546875 -2.234375,-3.546875 z m 0,0"
               id="id-a8db6f77-b706-4758-8dc1-d385f383c8f5" />
          </g>
        </g>
      </defs>
      <g
         fill="#000000"
         fill-opacity="1"
         id="id-79aa8d0e-c915-4c34-98bc-01ffbe391841"
         transform="translate(-294.957,-127.781)"
         style="fill:#e0e0e0;fill-opacity:1;stroke:#e0e0e0;stroke-width:0.47435;stroke-dasharray:none;stroke-opacity:1">
        <g
           transform="translate(294.159,134.765)"
           id="g3"
           style="fill:#e0e0e0;fill-opacity:1;stroke:#e0e0e0;stroke-width:0.47435;stroke-dasharray:none;stroke-opacity:1">
          <path
             d="M 6.25,-6.875 H 5.3125 l -0.640625,4.578125 c -0.15625,1.0625 -0.71875,1.625 -1.71875,1.625 C 2,-0.671875 1.625,-1.171875 1.78125,-2.25 l 0.640625,-4.625 h -0.9375 l -0.65625,4.640625 C 0.640625,-0.875 1.34375,0.125 2.90625,0.125 c 1.515625,0 2.5,-0.9375 2.6875,-2.296875 z m 0,0"
             id="id-52989f7e-2474-4881-822f-693d7478a07d"
             style="fill:#e0e0e0;fill-opacity:1;stroke:#e0e0e0;stroke-width:0.47435;stroke-dasharray:none;stroke-opacity:1" />
        </g>
      </g>
      <g
         fill="#000000"
         fill-opacity="1"
         id="id-ce6b6d73-ab0d-4a50-b62e-f0259b4652ee"
         transform="translate(-294.957,-127.781)"
         style="fill:#e0e0e0;fill-opacity:1;stroke:#e0e0e0;stroke-width:0.47435;stroke-dasharray:none;stroke-opacity:1">
        <g
           transform="translate(303.753,134.765)"
           id="g4"
           style="fill:#e0e0e0;fill-opacity:1;stroke:#e0e0e0;stroke-width:0.47435;stroke-dasharray:none;stroke-opacity:1">
          <path
             d="M 0.625,-1.453125 H 4.359375 V -2.21875 H 0.625 Z m 0,-1.921875 h 3.734375 v -0.75 H 0.625 Z m 0,0"
             id="id-f396d4e3-6885-43e4-901f-0db821453a6e"
             style="fill:#e0e0e0;fill-opacity:1;stroke:#e0e0e0;stroke-width:0.47435;stroke-dasharray:none;stroke-opacity:1" />
        </g>
      </g>
      <g
         fill="#000000"
         fill-opacity="1"
         id="id-532321a5-69c3-463b-86d5-4e3463214edf"
         transform="translate(-294.957,-127.781)"
         style="fill:#e0e0e0;fill-opacity:1;stroke:#e0e0e0;stroke-width:0.47435;stroke-dasharray:none;stroke-opacity:1">
        <g
           transform="translate(311.504,134.765)"
           id="g5"
           style="fill:#e0e0e0;fill-opacity:1;stroke:#e0e0e0;stroke-width:0.47435;stroke-dasharray:none;stroke-opacity:1">
          <path
             d="M 2.796875,-6.265625 C 3.625,-6.265625 4.0625,-5.5 4.0625,-3.4375 c 0,2.078125 -0.4375,2.828125 -1.265625,2.828125 -0.84375,0 -1.28125,-0.75 -1.28125,-2.828125 0,-2.0625 0.4375,-2.828125 1.28125,-2.828125 z m 0,-0.71875 c -1.5,0 -2.234375,1.21875 -2.234375,3.546875 0,2.328125 0.734375,3.5625 2.234375,3.5625 1.484375,0 2.234375,-1.234375 2.234375,-3.5625 0,-2.3125 -0.75,-3.546875 -2.234375,-3.546875 z m 0,0"
             id="id-ca4b12ed-c276-41e0-9698-2a0b7edf41cd"
             style="fill:#e0e0e0;fill-opacity:1;stroke:#e0e0e0;stroke-width:0.47435;stroke-dasharray:none;stroke-opacity:1" />
        </g>
      </g>
    </g>
    <g
       transform="matrix(1.1249043,0,0,1.1249043,74.393173,116.22253)"
       ns2:version="1.10.2"
       ns2:texconverter="xelatex"
       ns2:pdfconverter="inkscape"
       ns2:text="$U = 1$"
       ns2:preamble="/home/storage/.config/inkscape/extensions/textext/default_packages.tex"
       ns2:scale="2.396018275780023"
       ns2:alignment="middle center"
       ns2:stroke-to-path="0"
       ns2:jacobian_sqrt="0.845263"
       id="g20"
       style="fill:#e0e0e0;fill-opacity:1;stroke:#e0e0e0;stroke-width:0.444482;stroke-dasharray:none;stroke-opacity:1">
      <defs
         id="id-b1e7eb9f-37df-4e94-8e44-1f0328de171d">
        <g
           id="id-2ede530b-1ad3-42dd-85af-a2db81d11738">
          <g
             id="id-7fba21ec-0bc4-4e5e-877e-f0a52de60900">
            <path
               d="M 6.25,-6.875 H 5.3125 l -0.640625,4.578125 c -0.15625,1.0625 -0.71875,1.625 -1.71875,1.625 C 2,-0.671875 1.625,-1.171875 1.78125,-2.25 l 0.640625,-4.625 h -0.9375 l -0.65625,4.640625 C 0.640625,-0.875 1.34375,0.125 2.90625,0.125 c 1.515625,0 2.5,-0.9375 2.6875,-2.296875 z m 0,0"
               id="id-68054655-bcd6-45d4-91a6-927811991209" />
          </g>
          <g
             id="id-3c1e4d7b-3ae4-41d7-bcea-8a35bfe41d7e">
            <path
               d="M 0.625,-1.453125 H 4.359375 V -2.21875 H 0.625 Z m 0,-1.921875 h 3.734375 v -0.75 H 0.625 Z m 0,0"
               id="id-97142b3c-fa32-41e7-ba2a-6ef12e879fd7" />
          </g>
          <g
             id="id-5946722c-d61f-4b20-9de0-d966a22ed692">
            <path
               d="m 2.75,0 h 0.921875 v -6.875 h -0.8125 l -2.0625,1.28125 0.40625,0.65625 L 2.75,-5.890625 Z m 0,0"
               id="id-0841e60c-b5de-4d5d-8c80-86aa0da1571e" />
          </g>
        </g>
      </defs>
      <g
         fill="#000000"
         fill-opacity="1"
         id="id-0f46ff24-5cc2-4bcc-8032-89d84d9aee3b"
         transform="translate(-294.957,-127.89)"
         style="fill:#e0e0e0;fill-opacity:1;stroke:#e0e0e0;stroke-width:0.444482;stroke-dasharray:none;stroke-opacity:1">
        <g
           transform="translate(294.159,134.765)"
           id="g17"
           style="fill:#e0e0e0;fill-opacity:1;stroke:#e0e0e0;stroke-width:0.444482;stroke-dasharray:none;stroke-opacity:1">
          <path
             d="M 6.25,-6.875 H 5.3125 l -0.640625,4.578125 c -0.15625,1.0625 -0.71875,1.625 -1.71875,1.625 C 2,-0.671875 1.625,-1.171875 1.78125,-2.25 l 0.640625,-4.625 h -0.9375 l -0.65625,4.640625 C 0.640625,-0.875 1.34375,0.125 2.90625,0.125 c 1.515625,0 2.5,-0.9375 2.6875,-2.296875 z m 0,0"
             id="id-f1077cf1-79b3-4a0c-ae25-9683f408dca3"
             style="fill:#e0e0e0;fill-opacity:1;stroke:#e0e0e0;stroke-width:0.444482;stroke-dasharray:none;stroke-opacity:1" />
        </g>
      </g>
      <g
         fill="#000000"
         fill-opacity="1"
         id="id-86e4fa58-eec8-461f-a599-72f686d2d0b0"
         transform="translate(-294.957,-127.89)"
         style="fill:#e0e0e0;fill-opacity:1;stroke:#e0e0e0;stroke-width:0.444482;stroke-dasharray:none;stroke-opacity:1">
        <g
           transform="translate(303.753,134.765)"
           id="g18"
           style="fill:#e0e0e0;fill-opacity:1;stroke:#e0e0e0;stroke-width:0.444482;stroke-dasharray:none;stroke-opacity:1">
          <path
             d="M 0.625,-1.453125 H 4.359375 V -2.21875 H 0.625 Z m 0,-1.921875 h 3.734375 v -0.75 H 0.625 Z m 0,0"
             id="id-60941ea4-bc7e-49b2-bbe1-e192608f2733"
             style="fill:#e0e0e0;fill-opacity:1;stroke:#e0e0e0;stroke-width:0.444482;stroke-dasharray:none;stroke-opacity:1" />
        </g>
      </g>
      <g
         fill="#000000"
         fill-opacity="1"
         id="id-018e41ab-5293-48db-bf10-6e2e675e653b"
         transform="translate(-294.957,-127.89)"
         style="fill:#e0e0e0;fill-opacity:1;stroke:#e0e0e0;stroke-width:0.444482;stroke-dasharray:none;stroke-opacity:1">
        <g
           transform="translate(311.504,134.765)"
           id="g19"
           style="fill:#e0e0e0;fill-opacity:1;stroke:#e0e0e0;stroke-width:0.444482;stroke-dasharray:none;stroke-opacity:1">
          <path
             d="m 2.75,0 h 0.921875 v -6.875 h -0.8125 l -2.0625,1.28125 0.40625,0.65625 L 2.75,-5.890625 Z m 0,0"
             id="id-f18520e3-b4b7-462b-b47d-034fb5cdce4c"
             style="fill:#e0e0e0;fill-opacity:1;stroke:#e0e0e0;stroke-width:0.444482;stroke-dasharray:none;stroke-opacity:1" />
        </g>
      </g>
    </g>
    <circle
       style="opacity:1;fill:#ff6060;fill-opacity:1;stroke:none;stroke-width:4;stroke-dasharray:none;stroke-opacity:1"
       id="path47"
       cx="61.953224"
       cy="133.52008"
       r="3.4228642" />
    <g
       transform="matrix(1.11945,0,0,1.11945,67.191416,126.65281)"
       ns2:version="1.10.2"
       ns2:texconverter="xelatex"
       ns2:pdfconverter="inkscape"
       ns2:text="$c^\\dagger_{k\\sigma}$"
       ns2:preamble="/home/storage/.config/inkscape/extensions/textext/default_packages.tex"
       ns2:scale="2.396018275780023"
       ns2:alignment="middle center"
       ns2:stroke-to-path="0"
       ns2:jacobian_sqrt="0.845263"
       id="g52"
       style="fill:#d0d0d0;fill-opacity:1">
      <defs
         id="id-28996710-eeb3-4484-b011-148c568cc878">
        <g
           id="id-4fbf7ce2-568e-4f53-b639-4ee449899b85">
          <g
             id="id-adab4e4d-cd34-478a-998d-a52dc2cdbbbe">
            <path
               d="m 3.1875,-5.375 c -1.953125,0 -2.671875,1.96875 -2.671875,3.34375 0,1.359375 0.71875,2.15625 1.96875,2.15625 0.578125,0 1.125,-0.1875 1.640625,-0.546875 L 3.765625,-1.0625 C 3.34375,-0.8125 3,-0.65625 2.546875,-0.65625 c -0.671875,0 -1.078125,-0.375 -1.078125,-1.296875 0,-1.09375 0.390625,-2.65625 1.71875,-2.65625 0.40625,0 0.703125,0.109375 1.03125,0.375 l 0.484375,-0.5625 C 4.28125,-5.203125 3.765625,-5.375 3.1875,-5.375 Z m 0,0"
               id="id-a597ae2c-1b4c-4468-9cd7-6a549e8f1f48" />
          </g>
          <g
             id="id-325b6850-6560-4e33-aa9f-ee513814f93d">
            <path
               d="m 2.140625,-4.34375 h -0.625 v 1.0625 h -1.21875 v 0.546875 h 1.21875 v 3.1875 h 0.625 v -3.1875 h 1.21875 V -3.28125 h -1.21875 z m 0,0"
               id="id-4be4eae6-934b-4634-9b91-07daa427ebc6" />
          </g>
          <g
             id="id-61b35046-0e0d-4db1-8153-3e14d8bbf073">
            <path
               d="M 1.8125,-5.375 1.15625,-5.296875 0.40625,0 H 1.0625 L 1.375,-2.265625 C 1.703125,-3 2.203125,-3.34375 2.609375,-3.34375 c 0.25,0 0.40625,0.140625 0.40625,0.40625 0,0.53125 -0.375,0.84375 -1.265625,1.09375 L 2.65625,0 H 3.390625 L 2.53125,-1.671875 C 3.328125,-1.921875 3.703125,-2.40625 3.703125,-3 c 0,-0.5 -0.375,-0.859375 -0.90625,-0.859375 C 2.3125,-3.859375 1.859375,-3.625 1.5,-3.125 Z m 0,0"
               id="id-a63a0c34-ad6f-47a8-8264-237d268841a3" />
          </g>
          <g
             id="id-5bad3fb2-4ed5-4603-8b75-4dcccccab820">
            <path
               d="m 1.84375,-0.4375 c -0.5,0 -0.78125,-0.34375 -0.78125,-0.96875 0,-0.84375 0.25,-1.921875 1.4375,-1.921875 h 0.21875 c 0.203125,0.1875 0.359375,0.515625 0.359375,1 0,0.703125 -0.25,1.890625 -1.234375,1.890625 z M 1.828125,0.09375 c 1.46875,0 1.9375,-1.453125 1.9375,-2.28125 0,-0.515625 -0.1875,-0.890625 -0.421875,-1.125 L 4.171875,-3.25 4.21875,-3.78125 C 3.734375,-3.796875 3.0625,-3.828125 2.5,-3.828125 c -1.6875,0 -2.125,1.40625 -2.125,2.34375 0,0.9375 0.5,1.578125 1.453125,1.578125 z m 0,0"
               id="id-6c6e9769-2c29-45f4-a612-268797052601" />
          </g>
        </g>
      </defs>
      <g
         fill="#000000"
         fill-opacity="1"
         id="id-1cadac77-3560-40d5-bf96-5fa4a1ce17f3"
         transform="translate(-299.304,-124.798)"
         style="fill:#d0d0d0;fill-opacity:1">
        <g
           transform="translate(298.788,134.851)"
           id="g48"
           style="fill:#d0d0d0;fill-opacity:1">
          <path
             d="m 3.1875,-5.375 c -1.953125,0 -2.671875,1.96875 -2.671875,3.34375 0,1.359375 0.71875,2.15625 1.96875,2.15625 0.578125,0 1.125,-0.1875 1.640625,-0.546875 L 3.765625,-1.0625 C 3.34375,-0.8125 3,-0.65625 2.546875,-0.65625 c -0.671875,0 -1.078125,-0.375 -1.078125,-1.296875 0,-1.09375 0.390625,-2.65625 1.71875,-2.65625 0.40625,0 0.703125,0.109375 1.03125,0.375 l 0.484375,-0.5625 C 4.28125,-5.203125 3.765625,-5.375 3.1875,-5.375 Z m 0,0"
             id="id-c182adcc-d2d7-442c-874d-61d5cedc6a03"
             style="fill:#d0d0d0;fill-opacity:1" />
        </g>
      </g>
      <g
         fill="#000000"
         fill-opacity="1"
         id="id-50555b5e-72a5-46dd-944e-bf20ae6de79a"
         transform="translate(-299.304,-124.798)"
         style="fill:#d0d0d0;fill-opacity:1">
        <g
           transform="translate(303.789,129.142)"
           id="g49"
           style="fill:#d0d0d0;fill-opacity:1">
          <path
             d="m 2.140625,-4.34375 h -0.625 v 1.0625 h -1.21875 v 0.546875 h 1.21875 v 3.1875 h 0.625 v -3.1875 h 1.21875 V -3.28125 h -1.21875 z m 0,0"
             id="id-6b73bb00-ab7e-4006-ae0b-755b47139511"
             style="fill:#d0d0d0;fill-opacity:1" />
        </g>
      </g>
      <g
         fill="#000000"
         fill-opacity="1"
         id="id-6a47447f-b0a9-4347-9952-f2a0a4afe6f7"
         transform="translate(-299.304,-124.798)"
         style="fill:#d0d0d0;fill-opacity:1">
        <g
           transform="translate(303.49,136.973)"
           id="g50"
           style="fill:#d0d0d0;fill-opacity:1">
          <path
             d="M 1.8125,-5.375 1.15625,-5.296875 0.40625,0 H 1.0625 L 1.375,-2.265625 C 1.703125,-3 2.203125,-3.34375 2.609375,-3.34375 c 0.25,0 0.40625,0.140625 0.40625,0.40625 0,0.53125 -0.375,0.84375 -1.265625,1.09375 L 2.65625,0 H 3.390625 L 2.53125,-1.671875 C 3.328125,-1.921875 3.703125,-2.40625 3.703125,-3 c 0,-0.5 -0.375,-0.859375 -0.90625,-0.859375 C 2.3125,-3.859375 1.859375,-3.625 1.5,-3.125 Z m 0,0"
             id="id-aa4cb841-67e4-4785-aafc-855f240602dd"
             style="fill:#d0d0d0;fill-opacity:1" />
        </g>
      </g>
      <g
         fill="#000000"
         fill-opacity="1"
         id="id-8a785eb5-3d18-4fe1-9ba8-2c9d5e518b4b"
         transform="translate(-299.304,-124.798)"
         style="fill:#d0d0d0;fill-opacity:1">
        <g
           transform="translate(307.507,136.973)"
           id="g51"
           style="fill:#d0d0d0;fill-opacity:1">
          <path
             d="m 1.84375,-0.4375 c -0.5,0 -0.78125,-0.34375 -0.78125,-0.96875 0,-0.84375 0.25,-1.921875 1.4375,-1.921875 h 0.21875 c 0.203125,0.1875 0.359375,0.515625 0.359375,1 0,0.703125 -0.25,1.890625 -1.234375,1.890625 z M 1.828125,0.09375 c 1.46875,0 1.9375,-1.453125 1.9375,-2.28125 0,-0.515625 -0.1875,-0.890625 -0.421875,-1.125 L 4.171875,-3.25 4.21875,-3.78125 C 3.734375,-3.796875 3.0625,-3.828125 2.5,-3.828125 c -1.6875,0 -2.125,1.40625 -2.125,2.34375 0,0.9375 0.5,1.578125 1.453125,1.578125 z m 0,0"
             id="id-9ab621a0-9e32-4baa-844d-f0a89c56a899"
             style="fill:#d0d0d0;fill-opacity:1" />
        </g>
      </g>
    </g>
    <path
       style="opacity:1;fill:none;fill-opacity:1;stroke:#d0e0f0;stroke-width:2;stroke-dasharray:none;stroke-opacity:1;marker-start:url(#marker53);marker-end:url(#RoundedArrow)"
       d="m 70.815217,151.38624 c 1.58657,2.52482 3.815881,4.64211 6.41907,6.09652 2.603189,1.45441 5.574885,2.24294 8.556687,2.27049 3.091613,0.0286 6.187114,-0.76219 8.886252,-2.27002 2.699139,-1.50782 4.995486,-3.72913 6.592124,-6.3767"
       id="path52"
       inkscape:path-effect="#path-effect52"
       inkscape:original-d="m 70.815217,151.38624 c 6.910921,2.74592 8.520641,6.10202 14.975757,8.36701 6.455119,2.26499 8.701345,-7.52268 15.478376,-8.64672"
       sodipodi:nodetypes="csc"
       transform="translate(-0.26920986,-7.3178393)" />
    <g
       transform="matrix(1.01582,0,0,1.01582,95.443,35.6575)"
       ns2:version="1.11.1"
       ns2:texconverter="xelatex"
       ns2:pdfconverter="inkscape"
       ns2:text="$\\ket{\\Psi^{(0)}_\\text{ex}}$"
       ns2:preamble="/home/abhirup/.config/inkscape/extensions/default_packages.tex"
       ns2:scale="2.8794821148866676"
       ns2:alignment="middle center"
       ns2:inkscapeversion="1.4.1"
       ns2:jacobian_sqrt="1.01582"
       style="fill:#d0d0d0;fill-opacity:1;stroke:#d0d0d0;stroke-width:0.295328;stroke-dasharray:none;stroke-opacity:1"
       id="g54">
      <defs
         id="id-37f903af-e921-48a6-99da-634c1ab597c2"
         style="fill:#d0d0d0;fill-opacity:1;stroke:#d0d0d0;stroke-width:0;stroke-opacity:1">
        <g
           id="id-060c956d-b6f3-4dc8-9617-accc389c2cf9"
           style="fill:#d0d0d0;fill-opacity:1;stroke:#d0d0d0;stroke-width:0;stroke-opacity:1">
          <g
             id="id-b2cdec07-5d9c-49a2-a842-8daddd696563"
             style="fill:#d0d0d0;fill-opacity:1;stroke:#d0d0d0;stroke-width:0;stroke-opacity:1">
            <path
               d="M 2.421875,-7.4375 H 1.59375 v 9.296875 h 0.828125 z m 0,0"
               id="id-66f1f173-13f8-4938-bf82-0c40a52ebbff"
               style="fill:#d0d0d0;fill-opacity:1;stroke:#d0d0d0;stroke-width:0;stroke-opacity:1" />
          </g>
          <g
             id="id-86d5fad8-7576-4c71-8275-1303e0b6117d"
             style="fill:#d0d0d0;fill-opacity:1;stroke:#d0d0d0;stroke-width:0;stroke-opacity:1">
            <path
               d="m 5.625,-6.875 v 2.5625 c 0,1.046875 -0.546875,1.546875 -1.71875,1.625 V -6.875 H 3 v 4.1875 C 1.796875,-2.765625 1.28125,-3.265625 1.28125,-4.3125 V -6.875 h -0.9375 v 2.625 c 0,1.40625 0.875,2.1875 2.640625,2.328125 V 0 h 0.9375 V -1.90625 C 5.59375,-2.046875 6.5625,-2.796875 6.5625,-4.28125 V -6.875 Z m 0,0"
               id="id-a26b452e-a7be-4579-8cc8-0d5e60f4b3ec"
               style="fill:#d0d0d0;fill-opacity:1;stroke:#d0d0d0;stroke-width:0;stroke-opacity:1" />
          </g>
          <g
             id="id-9cfa1ed2-6300-42ec-b120-de2f625c1783"
             style="fill:#d0d0d0;fill-opacity:1;stroke:#d0d0d0;stroke-width:0;stroke-opacity:1">
            <path
               d="M 1.09375,-7.578125 2.953125,-2.796875 1.09375,2 0.40625,1.71875 l 1.6875,-4.515625 -1.6875,-4.5 z m 0,0"
               id="id-cd3d5eaf-f39b-4105-ada9-3f51b6281a63"
               style="fill:#d0d0d0;fill-opacity:1;stroke:#d0d0d0;stroke-width:0;stroke-opacity:1" />
          </g>
          <g
             id="id-09cfe283-eb15-42ad-9176-abd257a7c0c6"
             style="fill:#d0d0d0;fill-opacity:1;stroke:#d0d0d0;stroke-width:0;stroke-opacity:1">
            <path
               d="m 1.625,-5.5625 c -0.703125,1 -1.34375,1.859375 -1.34375,3.546875 0,1.703125 0.640625,2.5625 1.34375,3.5625 L 2.03125,1.25 c -0.640625,-0.953125 -1.0625,-1.71875 -1.0625,-3.265625 0,-1.53125 0.421875,-2.296875 1.0625,-3.25 z m 0,0"
               id="id-02f1e060-651e-4665-bf4b-39372e2d8462"
               style="fill:#d0d0d0;fill-opacity:1;stroke:#d0d0d0;stroke-width:0;stroke-opacity:1" />
          </g>
          <g
             id="id-990499d8-6ffa-4e34-b62a-3691e2742c2f"
             style="fill:#d0d0d0;fill-opacity:1;stroke:#d0d0d0;stroke-width:0;stroke-opacity:1">
            <path
               d="m 2.015625,-4.5 c 0.59375,0 0.90625,0.546875 0.90625,2.03125 0,1.484375 -0.3125,2.03125 -0.90625,2.03125 -0.609375,0 -0.921875,-0.546875 -0.921875,-2.03125 0,-1.484375 0.3125,-2.03125 0.921875,-2.03125 z m 0,-0.53125 c -1.078125,0 -1.609375,0.890625 -1.609375,2.5625 0,1.671875 0.53125,2.5625 1.609375,2.5625 1.0625,0 1.59375,-0.890625 1.59375,-2.5625 0,-1.671875 -0.53125,-2.5625 -1.59375,-2.5625 z m 0,0"
               id="id-b914615c-8e94-4ac2-b220-1fb94d15b49b"
               style="fill:#d0d0d0;fill-opacity:1;stroke:#d0d0d0;stroke-width:0;stroke-opacity:1" />
          </g>
          <g
             id="id-12a96fe7-dbcf-46f7-a9ab-abb32cf66d93"
             style="fill:#d0d0d0;fill-opacity:1;stroke:#d0d0d0;stroke-width:0;stroke-opacity:1">
            <path
               d="M 0.703125,-5.5625 0.28125,-5.265625 c 0.65625,0.953125 1.0625,1.71875 1.0625,3.25 0,1.546875 -0.40625,2.3125 -1.0625,3.265625 l 0.421875,0.296875 c 0.703125,-1 1.328125,-1.859375 1.328125,-3.5625 0,-1.6875 -0.625,-2.546875 -1.328125,-3.546875 z m 0,0"
               id="id-b76c6f11-b6d5-48ab-8f81-20bedd119e24"
               style="fill:#d0d0d0;fill-opacity:1;stroke:#d0d0d0;stroke-width:0;stroke-opacity:1" />
          </g>
          <g
             id="id-0e533e50-2975-402a-82d7-93ffb43367a3"
             style="fill:#d0d0d0;fill-opacity:1;stroke:#d0d0d0;stroke-width:0;stroke-opacity:1">
            <path
               d="m 0.359375,-1.859375 c 0,-0.332031 0.046875,-0.617187 0.140625,-0.859375 0.101562,-0.25 0.234375,-0.453125 0.390625,-0.609375 0.15625,-0.164063 0.335937,-0.289063 0.546875,-0.375 0.207031,-0.082031 0.414062,-0.125 0.625,-0.125 0.5,0 0.882812,0.15625 1.15625,0.46875 0.269531,0.3125 0.40625,0.792969 0.40625,1.4375 0,0.03125 0,0.070313 0,0.109375 0,0.042969 -0.00781,0.085938 -0.015625,0.125 H 1.0625 c 0.03125,0.386719 0.140625,0.683594 0.328125,0.890625 C 1.585938,-0.597656 1.894531,-0.5 2.3125,-0.5 c 0.238281,0 0.4375,-0.019531 0.59375,-0.0625 0.164062,-0.039062 0.285156,-0.082031 0.359375,-0.125 l 0.09375,0.5625 C 3.273438,-0.0820312 3.128906,-0.0351562 2.921875,0.015625 2.722656,0.0664062 2.5,0.09375 2.25,0.09375 1.914062,0.09375 1.628906,0.046875 1.390625,-0.046875 1.160156,-0.148438 0.96875,-0.285156 0.8125,-0.453125 c -0.148438,-0.175781 -0.261719,-0.382813 -0.34375,-0.625 -0.074219,-0.238281 -0.109375,-0.5 -0.109375,-0.78125 z m 2.5625,-0.359375 C 2.929688,-2.519531 2.859375,-2.765625 2.703125,-2.953125 2.546875,-3.148438 2.332031,-3.25 2.0625,-3.25 c -0.15625,0 -0.292969,0.03125 -0.40625,0.09375 -0.117188,0.054688 -0.214844,0.125 -0.296875,0.21875 -0.085937,0.09375 -0.152344,0.203125 -0.203125,0.328125 -0.042969,0.125 -0.070312,0.257813 -0.078125,0.390625 z m 0,0"
               id="id-4eb4aa4c-f535-4049-b8c4-9ad2075528d3"
               style="fill:#d0d0d0;fill-opacity:1;stroke:#d0d0d0;stroke-width:0;stroke-opacity:1" />
          </g>
          <g
             id="id-062c89e2-05bf-4fa9-96f2-431f507dbc49"
             style="fill:#d0d0d0;fill-opacity:1;stroke:#d0d0d0;stroke-width:0;stroke-opacity:1">
            <path
               d="m 2.796875,0 c -0.054687,-0.101562 -0.117187,-0.21875 -0.1875,-0.34375 -0.074219,-0.132812 -0.15625,-0.269531 -0.25,-0.40625 -0.09375,-0.132812 -0.1875,-0.269531 -0.28125,-0.40625 -0.09375,-0.132812 -0.1875,-0.257812 -0.28125,-0.375 -0.09375,0.117188 -0.1875,0.242188 -0.28125,0.375 -0.09375,0.136719 -0.1875,0.277344 -0.28125,0.421875 -0.085937,0.136719 -0.167969,0.265625 -0.25,0.390625 C 0.910156,-0.21875 0.847656,-0.101562 0.796875,0 h -0.6875 c 0.164063,-0.320312 0.363281,-0.648438 0.59375,-0.984375 0.238281,-0.34375 0.472656,-0.664063 0.703125,-0.96875 l -1.234375,-1.78125 h 0.75 l 0.890625,1.3125 0.90625,-1.3125 H 3.421875 L 2.21875,-2 c 0.226562,0.3125 0.460938,0.640625 0.703125,0.984375 C 3.160156,-0.671875 3.363281,-0.332031 3.53125,0 Z m 0,0"
               id="id-67a6b1ba-0330-41c2-9a06-9acf88e17dab"
               style="fill:#d0d0d0;fill-opacity:1;stroke:#d0d0d0;stroke-width:0;stroke-opacity:1" />
          </g>
        </g>
      </defs>
      <g
         fill-opacity="1"
         id="id-017bbebf-5441-4801-8184-82cb9a126d88"
         transform="translate(-295.498,-125.217)"
         style="fill:#d0d0d0;fill-opacity:1;stroke:#d0d0d0;stroke-width:0.295328;stroke-dasharray:none;stroke-opacity:1">
        <g
           transform="translate(293.904,134.765)"
           style="fill:#d0d0d0;fill-opacity:1;stroke:#d0d0d0;stroke-width:0.295328;stroke-dasharray:none;stroke-opacity:1"
           id="g41">
          <path
             d="M 2.421875,-7.4375 H 1.59375 v 9.296875 h 0.828125 z m 0,0"
             id="id-afdc3306-215a-4f04-b43b-a17aa0038b23"
             style="fill:#d0d0d0;fill-opacity:1;stroke:#d0d0d0;stroke-width:0.295328;stroke-dasharray:none;stroke-opacity:1" />
        </g>
        <g
           transform="translate(297.919,134.765)"
           style="fill:#d0d0d0;fill-opacity:1;stroke:#d0d0d0;stroke-width:0.295328;stroke-dasharray:none;stroke-opacity:1"
           id="g42">
          <path
             d="m 5.625,-6.875 v 2.5625 c 0,1.046875 -0.546875,1.546875 -1.71875,1.625 V -6.875 H 3 v 4.1875 C 1.796875,-2.765625 1.28125,-3.265625 1.28125,-4.3125 V -6.875 h -0.9375 v 2.625 c 0,1.40625 0.875,2.1875 2.640625,2.328125 V 0 h 0.9375 V -1.90625 C 5.59375,-2.046875 6.5625,-2.796875 6.5625,-4.28125 V -6.875 Z m 0,0"
             id="id-a838dde3-d3f8-46d4-8642-55fdea13d56e"
             style="fill:#d0d0d0;fill-opacity:1;stroke:#d0d0d0;stroke-width:0.295328;stroke-dasharray:none;stroke-opacity:1" />
        </g>
      </g>
      <g
         fill-opacity="1"
         id="id-7db65805-ab4c-4c27-8d9e-6cf96e5d9c87"
         transform="translate(-295.498,-125.217)"
         style="fill:#d0d0d0;fill-opacity:1;stroke:#d0d0d0;stroke-width:0.295328;stroke-dasharray:none;stroke-opacity:1">
        <g
           transform="translate(304.833,130.779)"
           style="fill:#d0d0d0;fill-opacity:1;stroke:#d0d0d0;stroke-width:0.295328;stroke-dasharray:none;stroke-opacity:1"
           id="g43">
          <path
             d="m 1.625,-5.5625 c -0.703125,1 -1.34375,1.859375 -1.34375,3.546875 0,1.703125 0.640625,2.5625 1.34375,3.5625 L 2.03125,1.25 c -0.640625,-0.953125 -1.0625,-1.71875 -1.0625,-3.265625 0,-1.53125 0.421875,-2.296875 1.0625,-3.25 z m 0,0"
             id="id-49fab5c0-8475-4945-a639-f20496d92856"
             style="fill:#d0d0d0;fill-opacity:1;stroke:#d0d0d0;stroke-width:0.295328;stroke-dasharray:none;stroke-opacity:1" />
        </g>
        <g
           transform="translate(307.157,130.779)"
           style="fill:#d0d0d0;fill-opacity:1;stroke:#d0d0d0;stroke-width:0.295328;stroke-dasharray:none;stroke-opacity:1"
           id="g44">
          <path
             d="m 2.015625,-4.5 c 0.59375,0 0.90625,0.546875 0.90625,2.03125 0,1.484375 -0.3125,2.03125 -0.90625,2.03125 -0.609375,0 -0.921875,-0.546875 -0.921875,-2.03125 0,-1.484375 0.3125,-2.03125 0.921875,-2.03125 z m 0,-0.53125 c -1.078125,0 -1.609375,0.890625 -1.609375,2.5625 0,1.671875 0.53125,2.5625 1.609375,2.5625 1.0625,0 1.59375,-0.890625 1.59375,-2.5625 0,-1.671875 -0.53125,-2.5625 -1.59375,-2.5625 z m 0,0"
             id="id-3979d051-b698-4e9b-8a18-6858239cd353"
             style="fill:#d0d0d0;fill-opacity:1;stroke:#d0d0d0;stroke-width:0.295328;stroke-dasharray:none;stroke-opacity:1" />
        </g>
        <g
           transform="translate(311.174,130.779)"
           style="fill:#d0d0d0;fill-opacity:1;stroke:#d0d0d0;stroke-width:0.295328;stroke-dasharray:none;stroke-opacity:1"
           id="g45">
          <path
             d="M 0.703125,-5.5625 0.28125,-5.265625 c 0.65625,0.953125 1.0625,1.71875 1.0625,3.25 0,1.546875 -0.40625,2.3125 -1.0625,3.265625 l 0.421875,0.296875 c 0.703125,-1 1.328125,-1.859375 1.328125,-3.5625 0,-1.6875 -0.625,-2.546875 -1.328125,-3.546875 z m 0,0"
             id="id-fd295586-6468-45ae-9f53-ae236fa7df87"
             style="fill:#d0d0d0;fill-opacity:1;stroke:#d0d0d0;stroke-width:0.295328;stroke-dasharray:none;stroke-opacity:1" />
        </g>
      </g>
      <g
         fill-opacity="1"
         id="id-917cf1ca-def1-4e13-bde0-ce5ab532f8e3"
         transform="translate(-295.498,-125.217)"
         style="fill:#d0d0d0;fill-opacity:1;stroke:#d0d0d0;stroke-width:0.295328;stroke-dasharray:none;stroke-opacity:1">
        <g
           transform="translate(304.833,138.252)"
           style="fill:#d0d0d0;fill-opacity:1;stroke:#d0d0d0;stroke-width:0.295328;stroke-dasharray:none;stroke-opacity:1"
           id="g46">
          <path
             d="m 0.359375,-1.859375 c 0,-0.332031 0.046875,-0.617187 0.140625,-0.859375 0.101562,-0.25 0.234375,-0.453125 0.390625,-0.609375 0.15625,-0.164063 0.335937,-0.289063 0.546875,-0.375 0.207031,-0.082031 0.414062,-0.125 0.625,-0.125 0.5,0 0.882812,0.15625 1.15625,0.46875 0.269531,0.3125 0.40625,0.792969 0.40625,1.4375 0,0.03125 0,0.070313 0,0.109375 0,0.042969 -0.00781,0.085938 -0.015625,0.125 H 1.0625 c 0.03125,0.386719 0.140625,0.683594 0.328125,0.890625 C 1.585938,-0.597656 1.894531,-0.5 2.3125,-0.5 c 0.238281,0 0.4375,-0.019531 0.59375,-0.0625 0.164062,-0.039062 0.285156,-0.082031 0.359375,-0.125 l 0.09375,0.5625 C 3.273438,-0.0820312 3.128906,-0.0351562 2.921875,0.015625 2.722656,0.0664062 2.5,0.09375 2.25,0.09375 1.914062,0.09375 1.628906,0.046875 1.390625,-0.046875 1.160156,-0.148438 0.96875,-0.285156 0.8125,-0.453125 c -0.148438,-0.175781 -0.261719,-0.382813 -0.34375,-0.625 -0.074219,-0.238281 -0.109375,-0.5 -0.109375,-0.78125 z m 2.5625,-0.359375 C 2.929688,-2.519531 2.859375,-2.765625 2.703125,-2.953125 2.546875,-3.148438 2.332031,-3.25 2.0625,-3.25 c -0.15625,0 -0.292969,0.03125 -0.40625,0.09375 -0.117188,0.054688 -0.214844,0.125 -0.296875,0.21875 -0.085937,0.09375 -0.152344,0.203125 -0.203125,0.328125 -0.042969,0.125 -0.070312,0.257813 -0.078125,0.390625 z m 0,0"
             id="id-3eb030c1-0c0b-47fb-a5cd-318d1ecba1d2"
             style="fill:#d0d0d0;fill-opacity:1;stroke:#d0d0d0;stroke-width:0.295328;stroke-dasharray:none;stroke-opacity:1" />
        </g>
        <g
           transform="translate(308.843,138.252)"
           style="fill:#d0d0d0;fill-opacity:1;stroke:#d0d0d0;stroke-width:0.295328;stroke-dasharray:none;stroke-opacity:1"
           id="g47">
          <path
             d="m 2.796875,0 c -0.054687,-0.101562 -0.117187,-0.21875 -0.1875,-0.34375 -0.074219,-0.132812 -0.15625,-0.269531 -0.25,-0.40625 -0.09375,-0.132812 -0.1875,-0.269531 -0.28125,-0.40625 -0.09375,-0.132812 -0.1875,-0.257812 -0.28125,-0.375 -0.09375,0.117188 -0.1875,0.242188 -0.28125,0.375 -0.09375,0.136719 -0.1875,0.277344 -0.28125,0.421875 -0.085937,0.136719 -0.167969,0.265625 -0.25,0.390625 C 0.910156,-0.21875 0.847656,-0.101562 0.796875,0 h -0.6875 c 0.164063,-0.320312 0.363281,-0.648438 0.59375,-0.984375 0.238281,-0.34375 0.472656,-0.664063 0.703125,-0.96875 l -1.234375,-1.78125 h 0.75 l 0.890625,1.3125 0.90625,-1.3125 H 3.421875 L 2.21875,-2 c 0.226562,0.3125 0.460938,0.640625 0.703125,0.984375 C 3.160156,-0.671875 3.363281,-0.332031 3.53125,0 Z m 0,0"
             id="id-312475a3-e789-44c3-b4a4-ca4de2cd44f8"
             style="fill:#d0d0d0;fill-opacity:1;stroke:#d0d0d0;stroke-width:0.295328;stroke-dasharray:none;stroke-opacity:1" />
        </g>
      </g>
      <g
         fill-opacity="1"
         id="id-1cd3f45b-8e8c-41a2-ac11-59a20ed8d557"
         transform="translate(-295.498,-125.217)"
         style="fill:#d0d0d0;fill-opacity:1;stroke:#d0d0d0;stroke-width:0.295328;stroke-dasharray:none;stroke-opacity:1">
        <g
           transform="translate(313.996,134.765)"
           style="fill:#d0d0d0;fill-opacity:1;stroke:#d0d0d0;stroke-width:0.295328;stroke-dasharray:none;stroke-opacity:1"
           id="g53">
          <path
             d="M 1.09375,-7.578125 2.953125,-2.796875 1.09375,2 0.40625,1.71875 l 1.6875,-4.515625 -1.6875,-4.5 z m 0,0"
             id="id-4400a370-62b1-4ac0-a1e1-029b21683d19"
             style="fill:#d0d0d0;fill-opacity:1;stroke:#d0d0d0;stroke-width:0.295328;stroke-dasharray:none;stroke-opacity:1" />
        </g>
      </g>
    </g>
    <g
       transform="matrix(1.01582,0,0,1.01582,57.7556,35.0233)"
       ns2:version="1.11.1"
       ns2:texconverter="xelatex"
       ns2:pdfconverter="inkscape"
       ns2:text="$\\ket{\\Psi_\\text{gs}^{(0)}}$"
       ns2:preamble="/home/abhirup/.config/inkscape/extensions/default_packages.tex"
       ns2:scale="2.8794821148866676"
       ns2:alignment="middle center"
       ns2:inkscapeversion="1.4.1"
       ns2:jacobian_sqrt="1.01582"
       style="fill:#d0d0d0;fill-opacity:1;stroke:#d0d0d0;stroke-width:0.295328;stroke-dasharray:none;stroke-opacity:1"
       id="g33">
      <defs
         id="id-c9e60b5a-e01e-489c-94ce-c5fd6a11bace"
         style="fill:#d0d0d0;fill-opacity:1;stroke:#d0d0d0;stroke-width:0;stroke-opacity:1">
        <g
           id="id-b1583f22-fb23-4ef9-bd79-25d9ea274044"
           style="fill:#d0d0d0;fill-opacity:1;stroke:#d0d0d0;stroke-width:0;stroke-opacity:1">
          <g
             id="id-16d2139a-a2df-4a96-8868-adc2bf7cc33b"
             style="fill:#d0d0d0;fill-opacity:1;stroke:#d0d0d0;stroke-width:0;stroke-opacity:1">
            <path
               d="M 2.421875,-7.4375 H 1.59375 v 9.296875 h 0.828125 z m 0,0"
               id="id-4d93eeaf-57ce-4b31-854a-25226a9723e6"
               style="fill:#d0d0d0;fill-opacity:1;stroke:#d0d0d0;stroke-width:0;stroke-opacity:1" />
          </g>
          <g
             id="id-85a34cab-c6a2-482b-8234-636897a8adf5"
             style="fill:#d0d0d0;fill-opacity:1;stroke:#d0d0d0;stroke-width:0;stroke-opacity:1">
            <path
               d="m 5.625,-6.875 v 2.5625 c 0,1.046875 -0.546875,1.546875 -1.71875,1.625 V -6.875 H 3 v 4.1875 C 1.796875,-2.765625 1.28125,-3.265625 1.28125,-4.3125 V -6.875 h -0.9375 v 2.625 c 0,1.40625 0.875,2.1875 2.640625,2.328125 V 0 h 0.9375 V -1.90625 C 5.59375,-2.046875 6.5625,-2.796875 6.5625,-4.28125 V -6.875 Z m 0,0"
               id="id-14e72f54-6180-4938-b222-905c31064377"
               style="fill:#d0d0d0;fill-opacity:1;stroke:#d0d0d0;stroke-width:0;stroke-opacity:1" />
          </g>
          <g
             id="id-64874ec1-1f74-43e1-b2de-eae9ebccb6b4"
             style="fill:#d0d0d0;fill-opacity:1;stroke:#d0d0d0;stroke-width:0;stroke-opacity:1">
            <path
               d="M 1.09375,-7.578125 2.953125,-2.796875 1.09375,2 0.40625,1.71875 l 1.6875,-4.515625 -1.6875,-4.5 z m 0,0"
               id="id-523a41de-ffb1-4098-82dc-1d3503987d83"
               style="fill:#d0d0d0;fill-opacity:1;stroke:#d0d0d0;stroke-width:0;stroke-opacity:1" />
          </g>
          <g
             id="id-ebe49435-d434-4419-996c-827145f1cdbd"
             style="fill:#d0d0d0;fill-opacity:1;stroke:#d0d0d0;stroke-width:0;stroke-opacity:1">
            <path
               d="m 1.625,-5.5625 c -0.703125,1 -1.34375,1.859375 -1.34375,3.546875 0,1.703125 0.640625,2.5625 1.34375,3.5625 L 2.03125,1.25 c -0.640625,-0.953125 -1.0625,-1.71875 -1.0625,-3.265625 0,-1.53125 0.421875,-2.296875 1.0625,-3.25 z m 0,0"
               id="id-0b60233c-3f0e-4ee6-983e-01180e8d1460"
               style="fill:#d0d0d0;fill-opacity:1;stroke:#d0d0d0;stroke-width:0;stroke-opacity:1" />
          </g>
          <g
             id="id-2930eca4-61c6-45be-ad02-66ffb03dbb71"
             style="fill:#d0d0d0;fill-opacity:1;stroke:#d0d0d0;stroke-width:0;stroke-opacity:1">
            <path
               d="m 2.015625,-4.5 c 0.59375,0 0.90625,0.546875 0.90625,2.03125 0,1.484375 -0.3125,2.03125 -0.90625,2.03125 -0.609375,0 -0.921875,-0.546875 -0.921875,-2.03125 0,-1.484375 0.3125,-2.03125 0.921875,-2.03125 z m 0,-0.53125 c -1.078125,0 -1.609375,0.890625 -1.609375,2.5625 0,1.671875 0.53125,2.5625 1.609375,2.5625 1.0625,0 1.59375,-0.890625 1.59375,-2.5625 0,-1.671875 -0.53125,-2.5625 -1.59375,-2.5625 z m 0,0"
               id="id-ea6b2bc3-26bf-47fe-880d-745a2e91103d"
               style="fill:#d0d0d0;fill-opacity:1;stroke:#d0d0d0;stroke-width:0;stroke-opacity:1" />
          </g>
          <g
             id="id-f3435c27-ad4d-442d-9e6d-493eecbda472"
             style="fill:#d0d0d0;fill-opacity:1;stroke:#d0d0d0;stroke-width:0;stroke-opacity:1">
            <path
               d="M 0.703125,-5.5625 0.28125,-5.265625 c 0.65625,0.953125 1.0625,1.71875 1.0625,3.25 0,1.546875 -0.40625,2.3125 -1.0625,3.265625 l 0.421875,0.296875 c 0.703125,-1 1.328125,-1.859375 1.328125,-3.5625 0,-1.6875 -0.625,-2.546875 -1.328125,-3.546875 z m 0,0"
               id="id-7accd5b9-3428-4f1b-a9e8-9138507f1710"
               style="fill:#d0d0d0;fill-opacity:1;stroke:#d0d0d0;stroke-width:0;stroke-opacity:1" />
          </g>
          <g
             id="id-3055f083-fa67-451f-b5a1-fca327b4977e"
             style="fill:#d0d0d0;fill-opacity:1;stroke:#d0d0d0;stroke-width:0;stroke-opacity:1">
            <path
               d="M 2.90625,-0.375 C 2.851562,-0.332031 2.742188,-0.28125 2.578125,-0.21875 2.410156,-0.164062 2.21875,-0.140625 2,-0.140625 c -0.230469,0 -0.445312,-0.03125 -0.640625,-0.09375 C 1.160156,-0.304688 0.988281,-0.414062 0.84375,-0.5625 0.695312,-0.71875 0.578125,-0.910156 0.484375,-1.140625 c -0.085937,-0.226563 -0.125,-0.492187 -0.125,-0.796875 0,-0.28125 0.039063,-0.53125 0.125,-0.75 C 0.566406,-2.914062 0.6875,-3.113281 0.84375,-3.28125 1,-3.445312 1.1875,-3.578125 1.40625,-3.671875 1.632812,-3.765625 1.890625,-3.8125 2.171875,-3.8125 c 0.3125,0 0.582031,0.027344 0.8125,0.078125 0.226563,0.042969 0.425781,0.085937 0.59375,0.125 V -0.28125 C 3.578125,0.289062 3.425781,0.703125 3.125,0.953125 2.832031,1.210938 2.382812,1.34375 1.78125,1.34375 1.539062,1.34375 1.316406,1.320312 1.109375,1.28125 0.898438,1.25 0.722656,1.207031 0.578125,1.15625 l 0.125,-0.578125 c 0.125,0.050781 0.285156,0.097656 0.484375,0.140625 0.195312,0.039062 0.398438,0.0625 0.609375,0.0625 0.394531,0 0.675781,-0.085938 0.84375,-0.25 C 2.816406,0.375 2.90625,0.125 2.90625,-0.21875 Z m 0,-2.765625 C 2.832031,-3.160156 2.738281,-3.175781 2.625,-3.1875 2.519531,-3.207031 2.375,-3.21875 2.1875,-3.21875 c -0.367188,0 -0.648438,0.121094 -0.84375,0.359375 -0.1875,0.230469 -0.28125,0.539063 -0.28125,0.921875 0,0.21875 0.023438,0.40625 0.078125,0.5625 0.050781,0.148438 0.125,0.273438 0.21875,0.375 0.09375,0.09375 0.203125,0.167969 0.328125,0.21875 0.125,0.054688 0.25,0.078125 0.375,0.078125 0.175781,0 0.335938,-0.023437 0.484375,-0.078125 0.15625,-0.050781 0.273437,-0.113281 0.359375,-0.1875 z m 0,0"
               id="id-f69eebd9-a096-41f9-9748-2c7b8ba417fe"
               style="fill:#d0d0d0;fill-opacity:1;stroke:#d0d0d0;stroke-width:0;stroke-opacity:1" />
          </g>
          <g
             id="id-ff7e426e-b276-4b20-84ff-22485c54601e"
             style="fill:#d0d0d0;fill-opacity:1;stroke:#d0d0d0;stroke-width:0;stroke-opacity:1">
            <path
               d="m 1.4375,-0.484375 c 0.269531,0 0.472656,-0.035156 0.609375,-0.109375 C 2.179688,-0.664062 2.25,-0.78125 2.25,-0.9375 2.25,-1.09375 2.179688,-1.21875 2.046875,-1.3125 1.921875,-1.414062 1.707031,-1.523438 1.40625,-1.640625 1.269531,-1.703125 1.132812,-1.757812 1,-1.8125 0.863281,-1.875 0.75,-1.945312 0.65625,-2.03125 0.5625,-2.113281 0.484375,-2.210938 0.421875,-2.328125 0.367188,-2.441406 0.34375,-2.582031 0.34375,-2.75 c 0,-0.320312 0.117188,-0.582031 0.359375,-0.78125 0.25,-0.195312 0.582031,-0.296875 1,-0.296875 0.101563,0 0.207031,0.011719 0.3125,0.03125 0.113281,0.011719 0.210937,0.027344 0.296875,0.046875 0.09375,0.011719 0.171875,0.027344 0.234375,0.046875 0.070313,0.023437 0.128906,0.039063 0.171875,0.046875 l -0.125,0.578125 c -0.074219,-0.039063 -0.1875,-0.082031 -0.34375,-0.125 -0.148438,-0.039063 -0.328125,-0.0625 -0.546875,-0.0625 -0.1875,0 -0.351563,0.039063 -0.484375,0.109375 -0.136719,0.074219 -0.203125,0.195312 -0.203125,0.359375 0,0.074219 0.015625,0.140625 0.046875,0.203125 0.03125,0.0625 0.078125,0.121094 0.140625,0.171875 0.0625,0.054687 0.140625,0.101563 0.234375,0.140625 0.09375,0.042969 0.207031,0.089844 0.34375,0.140625 0.175781,0.0625 0.332031,0.132813 0.46875,0.203125 0.144531,0.0625 0.265625,0.136719 0.359375,0.21875 0.101563,0.085938 0.179687,0.1875 0.234375,0.3125 0.050781,0.125 0.078125,0.273438 0.078125,0.4375 0,0.355469 -0.132813,0.621094 -0.390625,0.796875 C 2.28125,0.00390625 1.914062,0.09375 1.4375,0.09375 1.113281,0.09375 0.859375,0.0625 0.671875,0 0.484375,-0.0507812 0.351562,-0.09375 0.28125,-0.125 l 0.125,-0.578125 c 0.082031,0.03125 0.207031,0.078125 0.375,0.140625 0.164062,0.054688 0.382812,0.078125 0.65625,0.078125 z m 0,0"
               id="id-27948c07-65cb-4ff7-bf91-2f98a0b02a56"
               style="fill:#d0d0d0;fill-opacity:1;stroke:#d0d0d0;stroke-width:0;stroke-opacity:1" />
          </g>
        </g>
      </defs>
      <g
         fill-opacity="1"
         id="id-c72b951d-41f9-4cac-ba7c-e682c18513d8"
         transform="translate(-295.498,-125.217)"
         style="fill:#d0d0d0;fill-opacity:1;stroke:#d0d0d0;stroke-width:0.295328;stroke-dasharray:none;stroke-opacity:1">
        <g
           transform="translate(293.904,134.765)"
           style="fill:#d0d0d0;fill-opacity:1;stroke:#d0d0d0;stroke-width:0.295328;stroke-dasharray:none;stroke-opacity:1"
           id="g58">
          <path
             d="M 2.421875,-7.4375 H 1.59375 v 9.296875 h 0.828125 z m 0,0"
             id="id-4b5d9c52-6d4d-4ff9-b6a0-24b6ac4463b1"
             style="fill:#d0d0d0;fill-opacity:1;stroke:#d0d0d0;stroke-width:0.295328;stroke-dasharray:none;stroke-opacity:1" />
        </g>
        <g
           transform="translate(297.919,134.765)"
           style="fill:#d0d0d0;fill-opacity:1;stroke:#d0d0d0;stroke-width:0.295328;stroke-dasharray:none;stroke-opacity:1"
           id="g59">
          <path
             d="m 5.625,-6.875 v 2.5625 c 0,1.046875 -0.546875,1.546875 -1.71875,1.625 V -6.875 H 3 v 4.1875 C 1.796875,-2.765625 1.28125,-3.265625 1.28125,-4.3125 V -6.875 h -0.9375 v 2.625 c 0,1.40625 0.875,2.1875 2.640625,2.328125 V 0 h 0.9375 V -1.90625 C 5.59375,-2.046875 6.5625,-2.796875 6.5625,-4.28125 V -6.875 Z m 0,0"
             id="id-42c6dd13-6da1-4e87-9876-3f1d58939625"
             style="fill:#d0d0d0;fill-opacity:1;stroke:#d0d0d0;stroke-width:0.295328;stroke-dasharray:none;stroke-opacity:1" />
        </g>
      </g>
      <g
         fill-opacity="1"
         id="id-dd7db66f-f97d-4aa3-b3cb-8702d9c2802a"
         transform="translate(-295.498,-125.217)"
         style="fill:#d0d0d0;fill-opacity:1;stroke:#d0d0d0;stroke-width:0.295328;stroke-dasharray:none;stroke-opacity:1">
        <g
           transform="translate(304.833,130.779)"
           style="fill:#d0d0d0;fill-opacity:1;stroke:#d0d0d0;stroke-width:0.295328;stroke-dasharray:none;stroke-opacity:1"
           id="g60">
          <path
             d="m 1.625,-5.5625 c -0.703125,1 -1.34375,1.859375 -1.34375,3.546875 0,1.703125 0.640625,2.5625 1.34375,3.5625 L 2.03125,1.25 c -0.640625,-0.953125 -1.0625,-1.71875 -1.0625,-3.265625 0,-1.53125 0.421875,-2.296875 1.0625,-3.25 z m 0,0"
             id="id-11cb13da-f9b7-4862-bba1-77580c8c734c"
             style="fill:#d0d0d0;fill-opacity:1;stroke:#d0d0d0;stroke-width:0.295328;stroke-dasharray:none;stroke-opacity:1" />
        </g>
        <g
           transform="translate(307.157,130.779)"
           style="fill:#d0d0d0;fill-opacity:1;stroke:#d0d0d0;stroke-width:0.295328;stroke-dasharray:none;stroke-opacity:1"
           id="g61">
          <path
             d="m 2.015625,-4.5 c 0.59375,0 0.90625,0.546875 0.90625,2.03125 0,1.484375 -0.3125,2.03125 -0.90625,2.03125 -0.609375,0 -0.921875,-0.546875 -0.921875,-2.03125 0,-1.484375 0.3125,-2.03125 0.921875,-2.03125 z m 0,-0.53125 c -1.078125,0 -1.609375,0.890625 -1.609375,2.5625 0,1.671875 0.53125,2.5625 1.609375,2.5625 1.0625,0 1.59375,-0.890625 1.59375,-2.5625 0,-1.671875 -0.53125,-2.5625 -1.59375,-2.5625 z m 0,0"
             id="id-79cc74cc-d52f-4f44-bc6b-7dbc82f36554"
             style="fill:#d0d0d0;fill-opacity:1;stroke:#d0d0d0;stroke-width:0.295328;stroke-dasharray:none;stroke-opacity:1" />
        </g>
        <g
           transform="translate(311.174,130.779)"
           style="fill:#d0d0d0;fill-opacity:1;stroke:#d0d0d0;stroke-width:0.295328;stroke-dasharray:none;stroke-opacity:1"
           id="g62">
          <path
             d="M 0.703125,-5.5625 0.28125,-5.265625 c 0.65625,0.953125 1.0625,1.71875 1.0625,3.25 0,1.546875 -0.40625,2.3125 -1.0625,3.265625 l 0.421875,0.296875 c 0.703125,-1 1.328125,-1.859375 1.328125,-3.5625 0,-1.6875 -0.625,-2.546875 -1.328125,-3.546875 z m 0,0"
             id="id-a56329de-b019-4a24-992f-a5f6c2bf439a"
             style="fill:#d0d0d0;fill-opacity:1;stroke:#d0d0d0;stroke-width:0.295328;stroke-dasharray:none;stroke-opacity:1" />
        </g>
      </g>
      <g
         fill-opacity="1"
         id="id-28d3fafb-2f51-41ca-94f1-ab98a74533d9"
         transform="translate(-295.498,-125.217)"
         style="fill:#d0d0d0;fill-opacity:1;stroke:#d0d0d0;stroke-width:0.295328;stroke-dasharray:none;stroke-opacity:1">
        <g
           transform="translate(304.833,138.252)"
           style="fill:#d0d0d0;fill-opacity:1;stroke:#d0d0d0;stroke-width:0.295328;stroke-dasharray:none;stroke-opacity:1"
           id="g63">
          <path
             d="M 2.90625,-0.375 C 2.851562,-0.332031 2.742188,-0.28125 2.578125,-0.21875 2.410156,-0.164062 2.21875,-0.140625 2,-0.140625 c -0.230469,0 -0.445312,-0.03125 -0.640625,-0.09375 C 1.160156,-0.304688 0.988281,-0.414062 0.84375,-0.5625 0.695312,-0.71875 0.578125,-0.910156 0.484375,-1.140625 c -0.085937,-0.226563 -0.125,-0.492187 -0.125,-0.796875 0,-0.28125 0.039063,-0.53125 0.125,-0.75 C 0.566406,-2.914062 0.6875,-3.113281 0.84375,-3.28125 1,-3.445312 1.1875,-3.578125 1.40625,-3.671875 1.632812,-3.765625 1.890625,-3.8125 2.171875,-3.8125 c 0.3125,0 0.582031,0.027344 0.8125,0.078125 0.226563,0.042969 0.425781,0.085937 0.59375,0.125 V -0.28125 C 3.578125,0.289062 3.425781,0.703125 3.125,0.953125 2.832031,1.210938 2.382812,1.34375 1.78125,1.34375 1.539062,1.34375 1.316406,1.320312 1.109375,1.28125 0.898438,1.25 0.722656,1.207031 0.578125,1.15625 l 0.125,-0.578125 c 0.125,0.050781 0.285156,0.097656 0.484375,0.140625 0.195312,0.039062 0.398438,0.0625 0.609375,0.0625 0.394531,0 0.675781,-0.085938 0.84375,-0.25 C 2.816406,0.375 2.90625,0.125 2.90625,-0.21875 Z m 0,-2.765625 C 2.832031,-3.160156 2.738281,-3.175781 2.625,-3.1875 2.519531,-3.207031 2.375,-3.21875 2.1875,-3.21875 c -0.367188,0 -0.648438,0.121094 -0.84375,0.359375 -0.1875,0.230469 -0.28125,0.539063 -0.28125,0.921875 0,0.21875 0.023438,0.40625 0.078125,0.5625 0.050781,0.148438 0.125,0.273438 0.21875,0.375 0.09375,0.09375 0.203125,0.167969 0.328125,0.21875 0.125,0.054688 0.25,0.078125 0.375,0.078125 0.175781,0 0.335938,-0.023437 0.484375,-0.078125 0.15625,-0.050781 0.273437,-0.113281 0.359375,-0.1875 z m 0,0"
             id="id-25da3dec-1ce9-47ec-9819-c555a39f4c53"
             style="fill:#d0d0d0;fill-opacity:1;stroke:#d0d0d0;stroke-width:0.295328;stroke-dasharray:none;stroke-opacity:1" />
        </g>
        <g
           transform="translate(308.979,138.252)"
           style="fill:#d0d0d0;fill-opacity:1;stroke:#d0d0d0;stroke-width:0.295328;stroke-dasharray:none;stroke-opacity:1"
           id="g64">
          <path
             d="m 1.4375,-0.484375 c 0.269531,0 0.472656,-0.035156 0.609375,-0.109375 C 2.179688,-0.664062 2.25,-0.78125 2.25,-0.9375 2.25,-1.09375 2.179688,-1.21875 2.046875,-1.3125 1.921875,-1.414062 1.707031,-1.523438 1.40625,-1.640625 1.269531,-1.703125 1.132812,-1.757812 1,-1.8125 0.863281,-1.875 0.75,-1.945312 0.65625,-2.03125 0.5625,-2.113281 0.484375,-2.210938 0.421875,-2.328125 0.367188,-2.441406 0.34375,-2.582031 0.34375,-2.75 c 0,-0.320312 0.117188,-0.582031 0.359375,-0.78125 0.25,-0.195312 0.582031,-0.296875 1,-0.296875 0.101563,0 0.207031,0.011719 0.3125,0.03125 0.113281,0.011719 0.210937,0.027344 0.296875,0.046875 0.09375,0.011719 0.171875,0.027344 0.234375,0.046875 0.070313,0.023437 0.128906,0.039063 0.171875,0.046875 l -0.125,0.578125 c -0.074219,-0.039063 -0.1875,-0.082031 -0.34375,-0.125 -0.148438,-0.039063 -0.328125,-0.0625 -0.546875,-0.0625 -0.1875,0 -0.351563,0.039063 -0.484375,0.109375 -0.136719,0.074219 -0.203125,0.195312 -0.203125,0.359375 0,0.074219 0.015625,0.140625 0.046875,0.203125 0.03125,0.0625 0.078125,0.121094 0.140625,0.171875 0.0625,0.054687 0.140625,0.101563 0.234375,0.140625 0.09375,0.042969 0.207031,0.089844 0.34375,0.140625 0.175781,0.0625 0.332031,0.132813 0.46875,0.203125 0.144531,0.0625 0.265625,0.136719 0.359375,0.21875 0.101563,0.085938 0.179687,0.1875 0.234375,0.3125 0.050781,0.125 0.078125,0.273438 0.078125,0.4375 0,0.355469 -0.132813,0.621094 -0.390625,0.796875 C 2.28125,0.00390625 1.914062,0.09375 1.4375,0.09375 1.113281,0.09375 0.859375,0.0625 0.671875,0 0.484375,-0.0507812 0.351562,-0.09375 0.28125,-0.125 l 0.125,-0.578125 c 0.082031,0.03125 0.207031,0.078125 0.375,0.140625 0.164062,0.054688 0.382812,0.078125 0.65625,0.078125 z m 0,0"
             id="id-a9cfd943-d113-4e8e-a442-2356f2bf2ed8"
             style="fill:#d0d0d0;fill-opacity:1;stroke:#d0d0d0;stroke-width:0.295328;stroke-dasharray:none;stroke-opacity:1" />
        </g>
      </g>
      <g
         fill-opacity="1"
         id="id-b80705aa-6521-4e50-b9f1-9e69d72215f7"
         transform="translate(-295.498,-125.217)"
         style="fill:#d0d0d0;fill-opacity:1;stroke:#d0d0d0;stroke-width:0.295328;stroke-dasharray:none;stroke-opacity:1">
        <g
           transform="translate(313.996,134.765)"
           style="fill:#d0d0d0;fill-opacity:1;stroke:#d0d0d0;stroke-width:0.295328;stroke-dasharray:none;stroke-opacity:1"
           id="g65">
          <path
             d="M 1.09375,-7.578125 2.953125,-2.796875 1.09375,2 0.40625,1.71875 l 1.6875,-4.515625 -1.6875,-4.5 z m 0,0"
             id="id-bdd522bb-5faf-4869-96e9-42a87526a36b"
             style="fill:#d0d0d0;fill-opacity:1;stroke:#d0d0d0;stroke-width:0.295328;stroke-dasharray:none;stroke-opacity:1" />
        </g>
      </g>
    </g>
  </g>
</svg>
