<?xml version="1.0" encoding="UTF-8" standalone="no"?>
<!-- Created with Inkscape (http://www.inkscape.org/) -->

<svg
   width="118.12665mm"
   height="74.218712mm"
   viewBox="0 0 118.12665 74.218711"
   version="1.1"
   id="svg1"
   inkscape:version="1.4 (e7c3feb100, 2024-10-09)"
   sodipodi:docname="states.svg"
   xmlns:inkscape="http://www.inkscape.org/namespaces/inkscape"
   xmlns:sodipodi="http://sodipodi.sourceforge.net/DTD/sodipodi-0.dtd"
   xmlns="http://www.w3.org/2000/svg"
   xmlns:svg="http://www.w3.org/2000/svg"
   xmlns:ns5="http://www.iki.fi/pav/software/textext/">
  <sodipodi:namedview
     id="namedview1"
     pagecolor="#ffffff"
     bordercolor="#000000"
     borderopacity="0.25"
     inkscape:showpageshadow="2"
     inkscape:pageopacity="0.0"
     inkscape:pagecheckerboard="0"
     inkscape:deskcolor="#d1d1d1"
     inkscape:document-units="mm"
     showgrid="false"
     inkscape:zoom="1.2181573"
     inkscape:cx="251.19908"
     inkscape:cy="137.50277"
     inkscape:window-width="1914"
     inkscape:window-height="1044"
     inkscape:window-x="0"
     inkscape:window-y="30"
     inkscape:window-maximized="1"
     inkscape:current-layer="layer1" />
  <defs
     id="defs1">
    <inkscape:path-effect
       effect="spiro"
       id="path-effect61"
       is_visible="true"
       lpeversion="1" />
    <inkscape:path-effect
       effect="spiro"
       id="path-effect59"
       is_visible="true"
       lpeversion="1" />
    <marker
       style="overflow:visible"
       id="RoundedArrow"
       refX="0"
       refY="0"
       orient="auto-start-reverse"
       inkscape:stockid="Rounded arrow"
       markerWidth="0.5"
       markerHeight="0.5"
       viewBox="0 0 1 1"
       inkscape:isstock="true"
       inkscape:collect="always"
       preserveAspectRatio="xMidYMid">
      <path
         transform="scale(0.7)"
         d="m -0.21114562,-4.1055728 6.42229122,3.21114561 a 1,1 90 0 1 0,1.78885438 L -0.21114562,4.1055728 A 1.236068,1.236068 31.717474 0 1 -2,3 v -6 a 1.236068,1.236068 148.28253 0 1 1.78885438,-1.1055728 z"
         style="fill:context-stroke;fill-rule:evenodd;stroke:none"
         id="path8" />
    </marker>
    <inkscape:path-effect
       effect="spiro"
       id="path-effect57"
       is_visible="true"
       lpeversion="1" />
    <inkscape:path-effect
       effect="spiro"
       id="path-effect14"
       is_visible="true"
       lpeversion="1" />
    <inkscape:path-effect
       effect="spiro"
       id="path-effect12"
       is_visible="true"
       lpeversion="1" />
    <inkscape:path-effect
       effect="spiro"
       id="path-effect10"
       is_visible="true"
       lpeversion="1" />
    <inkscape:path-effect
       effect="spiro"
       id="path-effect5"
       is_visible="true"
       lpeversion="1" />
    <inkscape:path-effect
       effect="spiro"
       id="path-effect3"
       is_visible="true"
       lpeversion="1" />
    <inkscape:path-effect
       effect="spiro"
       id="path-effect1"
       is_visible="true"
       lpeversion="1" />
    <marker
       style="overflow:visible"
       id="RoundedArrow-2"
       refX="0"
       refY="0"
       orient="auto-start-reverse"
       inkscape:stockid="Rounded arrow"
       markerWidth="0.5"
       markerHeight="0.5"
       viewBox="0 0 1 1"
       inkscape:isstock="true"
       inkscape:collect="always"
       preserveAspectRatio="xMidYMid">
      <path
         transform="scale(0.7)"
         d="m -0.21114562,-4.1055728 6.42229122,3.21114561 a 1,1 90 0 1 0,1.78885438 L -0.21114562,4.1055728 A 1.236068,1.236068 31.717474 0 1 -2,3 v -6 a 1.236068,1.236068 148.28253 0 1 1.78885438,-1.1055728 z"
         style="fill:context-stroke;fill-rule:evenodd;stroke:none"
         id="path8-6" />
    </marker>
    <inkscape:path-effect
       effect="spiro"
       id="path-effect57-1"
       is_visible="true"
       lpeversion="1" />
  </defs>
  <g
     inkscape:label="Layer 1"
     inkscape:groupmode="layer"
     id="layer1"
     transform="translate(-29.286978,-67.188036)">
    <path
       style="fill:#808080;fill-opacity:1;stroke:#e0e0e0;stroke-width:3;stroke-dasharray:none;stroke-opacity:1"
       d="m 29.286978,72.466498 h 36.79646"
       id="path2"
       transform="matrix(0.48979592,0,0,1,14.942336,26.458334)"
       inkscape:original-d="m 29.286978,72.466498 c 12.265487,0 36.79646,0 36.79646,0"
       inkscape:path-effect="#path-effect3" />
    <g
       transform="matrix(1.3188416,0,0,1.3188416,82.121467,67.188531)"
       ns5:version="1.10.2"
       ns5:texconverter="xelatex"
       ns5:pdfconverter="inkscape"
       ns5:text="$E_0 = 0$"
       ns5:preamble="/home/storage/.config/inkscape/extensions/textext/default_packages.tex"
       ns5:scale="7.969541905419951"
       ns5:alignment="middle center"
       ns5:stroke-to-path="0"
       ns5:jacobian_sqrt="2.81148"
       id="g9"
       style="fill:#b0b0b0;fill-opacity:1">
      <defs
         id="id-18d87e3f-f408-4eda-8a63-d61b282e0120">
        <g
           id="id-0e14f024-9c28-4f15-8c80-5d4f55c0ed5d">
          <g
             id="id-e4709bc9-7069-4b82-b224-9443469f71c9">
            <path
               d="m 5.265625,-6.875 h -3.6875 L 0.625,0 h 3.75 l 0.109375,-0.75 h -2.8125 L 2,-3.109375 H 4.28125 L 4.390625,-3.875 H 2.09375 l 0.3125,-2.234375 h 2.640625 z m 0,0"
               id="id-b2271ca8-be22-410b-90b3-5adf31002e9f" />
          </g>
          <g
             id="id-94391f40-10e3-4ffd-9f5c-e48f850b09f0">
            <path
               d="M 0.625,-1.453125 H 4.359375 V -2.21875 H 0.625 Z m 0,-1.921875 h 3.734375 v -0.75 H 0.625 Z m 0,0"
               id="id-44f9b4f3-047d-4f92-81db-d272a585a200" />
          </g>
          <g
             id="id-81a079fe-0762-45aa-a2ee-a1592183ac9e">
            <path
               d="M 2.796875,-6.265625 C 3.625,-6.265625 4.0625,-5.5 4.0625,-3.4375 c 0,2.078125 -0.4375,2.828125 -1.265625,2.828125 -0.84375,0 -1.28125,-0.75 -1.28125,-2.828125 0,-2.0625 0.4375,-2.828125 1.28125,-2.828125 z m 0,-0.71875 c -1.5,0 -2.234375,1.21875 -2.234375,3.546875 0,2.328125 0.734375,3.5625 2.234375,3.5625 1.484375,0 2.234375,-1.234375 2.234375,-3.5625 0,-2.3125 -0.75,-3.546875 -2.234375,-3.546875 z m 0,0"
               id="id-70be8764-28f9-4324-a30c-f24f812dfb22" />
          </g>
          <g
             id="id-d78f22bb-765c-4139-a9ee-73224b2e830f">
            <path
               d="m 2.015625,-4.5 c 0.59375,0 0.90625,0.546875 0.90625,2.03125 0,1.484375 -0.3125,2.03125 -0.90625,2.03125 -0.609375,0 -0.921875,-0.546875 -0.921875,-2.03125 0,-1.484375 0.3125,-2.03125 0.921875,-2.03125 z m 0,-0.53125 c -1.078125,0 -1.609375,0.890625 -1.609375,2.5625 0,1.671875 0.53125,2.5625 1.609375,2.5625 1.0625,0 1.59375,-0.890625 1.59375,-2.5625 0,-1.671875 -0.53125,-2.5625 -1.59375,-2.5625 z m 0,0"
               id="id-08e988d1-d56a-48d3-870f-11e7bb9e19fa" />
          </g>
        </g>
      </defs>
      <g
         fill="#000000"
         fill-opacity="1"
         id="id-6a9f017b-3a34-47b4-bbc4-ebe099a536a3"
         transform="translate(-293.308,-127.781)"
         style="fill:#b0b0b0;fill-opacity:1">
        <g
           transform="translate(292.683,134.765)"
           id="g5"
           style="fill:#b0b0b0;fill-opacity:1">
          <path
             d="m 5.265625,-6.875 h -3.6875 L 0.625,0 h 3.75 l 0.109375,-0.75 h -2.8125 L 2,-3.109375 H 4.28125 L 4.390625,-3.875 H 2.09375 l 0.3125,-2.234375 h 2.640625 z m 0,0"
             id="id-1a043a5a-2f31-48b6-974e-f60d8806177a"
             style="fill:#b0b0b0;fill-opacity:1" />
        </g>
      </g>
      <g
         fill="#000000"
         fill-opacity="1"
         id="id-99f7ad11-02d8-470d-bd16-4132e85b55b7"
         transform="translate(-293.308,-127.781)"
         style="fill:#b0b0b0;fill-opacity:1">
        <g
           transform="translate(297.954,138.252)"
           id="g6"
           style="fill:#b0b0b0;fill-opacity:1">
          <path
             d="m 2.015625,-4.5 c 0.59375,0 0.90625,0.546875 0.90625,2.03125 0,1.484375 -0.3125,2.03125 -0.90625,2.03125 -0.609375,0 -0.921875,-0.546875 -0.921875,-2.03125 0,-1.484375 0.3125,-2.03125 0.921875,-2.03125 z m 0,-0.53125 c -1.078125,0 -1.609375,0.890625 -1.609375,2.5625 0,1.671875 0.53125,2.5625 1.609375,2.5625 1.0625,0 1.59375,-0.890625 1.59375,-2.5625 0,-1.671875 -0.53125,-2.5625 -1.59375,-2.5625 z m 0,0"
             id="id-e3a9258b-9e49-41af-b044-470a040cbcfc"
             style="fill:#b0b0b0;fill-opacity:1" />
        </g>
      </g>
      <g
         fill="#000000"
         fill-opacity="1"
         id="id-ed257e39-bdee-4d75-add9-9267865a8a07"
         transform="translate(-293.308,-127.781)"
         style="fill:#b0b0b0;fill-opacity:1">
        <g
           transform="translate(305.236,134.765)"
           id="g7"
           style="fill:#b0b0b0;fill-opacity:1">
          <path
             d="M 0.625,-1.453125 H 4.359375 V -2.21875 H 0.625 Z m 0,-1.921875 h 3.734375 v -0.75 H 0.625 Z m 0,0"
             id="id-dbd38540-d5e7-4bf9-8555-3544e899066f"
             style="fill:#b0b0b0;fill-opacity:1" />
        </g>
      </g>
      <g
         fill="#000000"
         fill-opacity="1"
         id="id-ca6f1503-473e-4bb0-9aef-28a972d79cd8"
         transform="translate(-293.308,-127.781)"
         style="fill:#b0b0b0;fill-opacity:1">
        <g
           transform="translate(312.977,134.765)"
           id="g8"
           style="fill:#b0b0b0;fill-opacity:1">
          <path
             d="M 2.796875,-6.265625 C 3.625,-6.265625 4.0625,-5.5 4.0625,-3.4375 c 0,2.078125 -0.4375,2.828125 -1.265625,2.828125 -0.84375,0 -1.28125,-0.75 -1.28125,-2.828125 0,-2.0625 0.4375,-2.828125 1.28125,-2.828125 z m 0,-0.71875 c -1.5,0 -2.234375,1.21875 -2.234375,3.546875 0,2.328125 0.734375,3.5625 2.234375,3.5625 1.484375,0 2.234375,-1.234375 2.234375,-3.5625 0,-2.3125 -0.75,-3.546875 -2.234375,-3.546875 z m 0,0"
             id="id-9cae624e-7f2f-4589-9a3d-a841dc74c1bc"
             style="fill:#b0b0b0;fill-opacity:1" />
        </g>
      </g>
    </g>
    <path
       style="fill:#808080;fill-opacity:1;stroke:#e0e0e0;stroke-width:3;stroke-dasharray:none;stroke-opacity:1"
       d="m 29.286978,72.466498 h 36.79646"
       id="path9"
       inkscape:path-effect="#path-effect10"
       inkscape:original-d="m 29.286978,72.466498 c 12.265487,0 36.79646,0 36.79646,0"
       transform="matrix(0.48979592,0,0,1,41.400671,26.458334)" />
    <path
       style="fill:#808080;fill-opacity:1;stroke:#e0e0e0;stroke-width:3;stroke-dasharray:none;stroke-opacity:1"
       d="m 29.286978,72.466498 h 36.79646"
       id="path10"
       inkscape:path-effect="#path-effect12"
       inkscape:original-d="m 29.286978,72.466498 c 12.265487,0 36.79646,0 36.79646,0"
       transform="matrix(0.48979592,0,0,1,14.942336,5.2916663)" />
    <path
       style="fill:#808080;fill-opacity:1;stroke:#e0e0e0;stroke-width:3;stroke-dasharray:none;stroke-opacity:1"
       d="m 29.286978,72.466498 h 36.79646"
       id="path12"
       inkscape:path-effect="#path-effect14"
       inkscape:original-d="m 29.286978,72.466498 c 12.265487,0 36.79646,0 36.79646,0"
       transform="matrix(0.845754,0,0,1,4.5173995,58.208336)" />
    <g
       transform="matrix(1.31884,0,0,1.31884,80.348067,93.7804)"
       ns5:version="1.10.2"
       ns5:texconverter="xelatex"
       ns5:pdfconverter="inkscape"
       ns5:text="$E_1 = \\varepsilon_k$"
       ns5:preamble="/home/storage/.config/inkscape/extensions/textext/default_packages.tex"
       ns5:scale="3.738445017503627"
       ns5:alignment="middle center"
       ns5:stroke-to-path="0"
       ns5:jacobian_sqrt="1.31884"
       id="g32"
       style="fill:#b0b0b0;fill-opacity:1">
      <defs
         id="id-744d3ff9-a466-49bc-bff9-7e3e27c01707">
        <g
           id="id-eccf2e91-3c7a-4fca-a56c-76cfec1855b9">
          <g
             id="id-79bc03b8-47ac-4e98-b804-f793f4e2ce21">
            <path
               d="m 5.265625,-6.875 h -3.6875 L 0.625,0 h 3.75 l 0.109375,-0.75 h -2.8125 L 2,-3.109375 H 4.28125 L 4.390625,-3.875 H 2.09375 l 0.3125,-2.234375 h 2.640625 z m 0,0"
               id="id-665c2857-5c63-4f6b-85d5-d843360c646c" />
          </g>
          <g
             id="id-534e1b9a-d11f-43ca-8c51-41c505ce4b31">
            <path
               d="M 0.625,-1.453125 H 4.359375 V -2.21875 H 0.625 Z m 0,-1.921875 h 3.734375 v -0.75 H 0.625 Z m 0,0"
               id="id-100954ba-674e-472a-bf10-86a4db3212b3" />
          </g>
          <g
             id="id-a60a4407-152b-4a05-b3e8-83d0810ad99f">
            <path
               d="m 2.3125,0.125 c 0.734375,0 1.390625,-0.25 1.9375,-0.640625 L 3.859375,-1.109375 C 3.328125,-0.78125 2.921875,-0.625 2.390625,-0.625 c -0.703125,0 -1.03125,-0.28125 -1.03125,-0.75 0,-0.515625 0.28125,-1 1.328125,-1 h 0.515625 l 0.21875,-0.71875 h -0.625 c -0.578125,0 -0.90625,-0.25 -0.90625,-0.75 0,-0.4375 0.328125,-0.8125 1.0625,-0.8125 0.53125,0 0.84375,0.140625 1.15625,0.359375 L 4.59375,-4.828125 C 4.203125,-5.140625 3.671875,-5.375 2.953125,-5.375 c -1.40625,0 -1.96875,0.8125 -1.96875,1.515625 0,0.5625 0.359375,0.890625 0.921875,1.046875 -1.125,0.15625 -1.5,0.78125 -1.5,1.453125 C 0.40625,-0.5 1.140625,0.125 2.3125,0.125 Z m 0,0"
               id="id-80d35b42-6029-423a-9eb1-afc5179b2506" />
          </g>
          <g
             id="id-1189ae48-0b2a-488a-9b90-954a7aded30c">
            <path
               d="m 1.984375,0 h 0.65625 V -4.9375 H 2.0625 l -1.484375,0.921875 0.28125,0.453125 1.125,-0.671875 z m 0,0"
               id="id-c6c33690-0416-4483-afbe-53f3ac15ddc9" />
          </g>
          <g
             id="id-cf7133a3-a9e5-4019-9c9e-ce2bda35304d">
            <path
               d="M 1.8125,-5.375 1.15625,-5.296875 0.40625,0 H 1.0625 L 1.375,-2.265625 C 1.703125,-3 2.203125,-3.34375 2.609375,-3.34375 c 0.25,0 0.40625,0.140625 0.40625,0.40625 0,0.53125 -0.375,0.84375 -1.265625,1.09375 L 2.65625,0 H 3.390625 L 2.53125,-1.671875 C 3.328125,-1.921875 3.703125,-2.40625 3.703125,-3 c 0,-0.5 -0.375,-0.859375 -0.90625,-0.859375 C 2.3125,-3.859375 1.859375,-3.625 1.5,-3.125 Z m 0,0"
               id="id-81f366bd-bc1b-4412-9531-1da1b3984ce9" />
          </g>
        </g>
      </defs>
      <g
         fill="#000000"
         fill-opacity="1"
         id="id-c88b5568-dfe4-48e7-b920-0ce5c9b62552"
         transform="translate(-291.434,-127.89)"
         style="fill:#b0b0b0;fill-opacity:1">
        <g
           transform="translate(290.809,134.765)"
           id="g27"
           style="fill:#b0b0b0;fill-opacity:1">
          <path
             d="m 5.265625,-6.875 h -3.6875 L 0.625,0 h 3.75 l 0.109375,-0.75 h -2.8125 L 2,-3.109375 H 4.28125 L 4.390625,-3.875 H 2.09375 l 0.3125,-2.234375 h 2.640625 z m 0,0"
             id="id-ea101e50-b527-49e4-8c8c-c00b35864006"
             style="fill:#b0b0b0;fill-opacity:1" />
        </g>
      </g>
      <g
         fill="#000000"
         fill-opacity="1"
         id="id-bef3745b-16ac-4ea3-9c03-edb6ca16b7f3"
         transform="translate(-291.434,-127.89)"
         style="fill:#b0b0b0;fill-opacity:1">
        <g
           transform="translate(296.08,138.252)"
           id="g28"
           style="fill:#b0b0b0;fill-opacity:1">
          <path
             d="m 1.984375,0 h 0.65625 V -4.9375 H 2.0625 l -1.484375,0.921875 0.28125,0.453125 1.125,-0.671875 z m 0,0"
             id="id-3603a8b0-4df1-4871-82b7-e2932c1845d4"
             style="fill:#b0b0b0;fill-opacity:1" />
        </g>
      </g>
      <g
         fill="#000000"
         fill-opacity="1"
         id="id-42fb7498-8b6f-4968-9b10-0a1ca7791825"
         transform="translate(-291.434,-127.89)"
         style="fill:#b0b0b0;fill-opacity:1">
        <g
           transform="translate(303.362,134.765)"
           id="g29"
           style="fill:#b0b0b0;fill-opacity:1">
          <path
             d="M 0.625,-1.453125 H 4.359375 V -2.21875 H 0.625 Z m 0,-1.921875 h 3.734375 v -0.75 H 0.625 Z m 0,0"
             id="id-4b5684e5-46b4-4c9f-9c5d-7d0a3f3185cb"
             style="fill:#b0b0b0;fill-opacity:1" />
        </g>
      </g>
      <g
         fill="#000000"
         fill-opacity="1"
         id="id-b7035766-c6d8-4e5f-895f-2997f46f10e5"
         transform="translate(-291.434,-127.89)"
         style="fill:#b0b0b0;fill-opacity:1">
        <g
           transform="translate(311.103,134.765)"
           id="g30"
           style="fill:#b0b0b0;fill-opacity:1">
          <path
             d="m 2.3125,0.125 c 0.734375,0 1.390625,-0.25 1.9375,-0.640625 L 3.859375,-1.109375 C 3.328125,-0.78125 2.921875,-0.625 2.390625,-0.625 c -0.703125,0 -1.03125,-0.28125 -1.03125,-0.75 0,-0.515625 0.28125,-1 1.328125,-1 h 0.515625 l 0.21875,-0.71875 h -0.625 c -0.578125,0 -0.90625,-0.25 -0.90625,-0.75 0,-0.4375 0.328125,-0.8125 1.0625,-0.8125 0.53125,0 0.84375,0.140625 1.15625,0.359375 L 4.59375,-4.828125 C 4.203125,-5.140625 3.671875,-5.375 2.953125,-5.375 c -1.40625,0 -1.96875,0.8125 -1.96875,1.515625 0,0.5625 0.359375,0.890625 0.921875,1.046875 -1.125,0.15625 -1.5,0.78125 -1.5,1.453125 C 0.40625,-0.5 1.140625,0.125 2.3125,0.125 Z m 0,0"
             id="id-d9550329-a420-4d37-a6c7-e6ca57c2e280"
             style="fill:#b0b0b0;fill-opacity:1" />
        </g>
      </g>
      <g
         fill="#000000"
         fill-opacity="1"
         id="id-ae1e9561-54f5-40c7-bed7-67db8a2a03ca"
         transform="translate(-291.434,-127.89)"
         style="fill:#b0b0b0;fill-opacity:1">
        <g
           transform="translate(315.923,138.252)"
           id="g31"
           style="fill:#b0b0b0;fill-opacity:1">
          <path
             d="M 1.8125,-5.375 1.15625,-5.296875 0.40625,0 H 1.0625 L 1.375,-2.265625 C 1.703125,-3 2.203125,-3.34375 2.609375,-3.34375 c 0.25,0 0.40625,0.140625 0.40625,0.40625 0,0.53125 -0.375,0.84375 -1.265625,1.09375 L 2.65625,0 H 3.390625 L 2.53125,-1.671875 C 3.328125,-1.921875 3.703125,-2.40625 3.703125,-3 c 0,-0.5 -0.375,-0.859375 -0.90625,-0.859375 C 2.3125,-3.859375 1.859375,-3.625 1.5,-3.125 Z m 0,0"
             id="id-5996da04-9a3c-41db-b249-6e5cc2030e12"
             style="fill:#b0b0b0;fill-opacity:1" />
        </g>
      </g>
    </g>
    <g
       transform="matrix(1.31884,0,0,1.31884,81.155101,125.45834)"
       ns5:version="1.10.2"
       ns5:texconverter="xelatex"
       ns5:pdfconverter="inkscape"
       ns5:text="$E_2 = 2\\varepsilon_k + U$"
       ns5:preamble="/home/storage/.config/inkscape/extensions/textext/default_packages.tex"
       ns5:scale="3.738445017503627"
       ns5:alignment="middle center"
       ns5:stroke-to-path="0"
       ns5:jacobian_sqrt="1.31884"
       id="g57"
       style="fill:#b0b0b0;fill-opacity:1">
      <defs
         id="id-d2befbde-0dde-415c-aea1-f842ab950bdc">
        <g
           id="id-f06f5826-f0cb-4093-a74c-a8de352c3eb4">
          <g
             id="id-4668c767-7495-4d64-b577-70e353c7feca">
            <path
               d="m 5.265625,-6.875 h -3.6875 L 0.625,0 h 3.75 l 0.109375,-0.75 h -2.8125 L 2,-3.109375 H 4.28125 L 4.390625,-3.875 H 2.09375 l 0.3125,-2.234375 h 2.640625 z m 0,0"
               id="id-58444bfe-ca2e-458d-8e8d-1af60a1f4159" />
          </g>
          <g
             id="id-37ca3312-4b3a-4e43-97b7-0d95e0936a38">
            <path
               d="M 0.625,-1.453125 H 4.359375 V -2.21875 H 0.625 Z m 0,-1.921875 h 3.734375 v -0.75 H 0.625 Z m 0,0"
               id="id-4279bf6a-0cd4-462d-9e11-ba375668a3a6" />
          </g>
          <g
             id="id-d798cadf-27bd-4078-a2b1-15cd75450eb2">
            <path
               d="m 2.578125,-6.984375 c -0.953125,0 -1.59375,0.328125 -2.125,1 L 1.0625,-5.5 C 1.5,-6.015625 1.859375,-6.234375 2.515625,-6.234375 c 0.75,0 1.203125,0.46875 1.203125,1.203125 0,1.09375 -0.578125,1.84375 -3.125,4.296875 V 0 h 4.125 l 0.109375,-0.765625 h -3.1875 C 3.875,-2.8125 4.671875,-3.8125 4.671875,-5.0625 c 0,-1.09375 -0.78125,-1.921875 -2.09375,-1.921875 z m 0,0"
               id="id-a64c8adc-42c6-4fef-9214-48bc07050a47" />
          </g>
          <g
             id="id-759c8874-1285-4320-a424-62d68f45be97">
            <path
               d="m 2.3125,0.125 c 0.734375,0 1.390625,-0.25 1.9375,-0.640625 L 3.859375,-1.109375 C 3.328125,-0.78125 2.921875,-0.625 2.390625,-0.625 c -0.703125,0 -1.03125,-0.28125 -1.03125,-0.75 0,-0.515625 0.28125,-1 1.328125,-1 h 0.515625 l 0.21875,-0.71875 h -0.625 c -0.578125,0 -0.90625,-0.25 -0.90625,-0.75 0,-0.4375 0.328125,-0.8125 1.0625,-0.8125 0.53125,0 0.84375,0.140625 1.15625,0.359375 L 4.59375,-4.828125 C 4.203125,-5.140625 3.671875,-5.375 2.953125,-5.375 c -1.40625,0 -1.96875,0.8125 -1.96875,1.515625 0,0.5625 0.359375,0.890625 0.921875,1.046875 -1.125,0.15625 -1.5,0.78125 -1.5,1.453125 C 0.40625,-0.5 1.140625,0.125 2.3125,0.125 Z m 0,0"
               id="id-9b593652-3602-444b-8767-4c6bb16c1034" />
          </g>
          <g
             id="id-a3123166-02c4-4be8-a8ad-69b6b77d2890">
            <path
               d="M 2.90625,-4.671875 H 2.078125 v 1.5 H 0.625 v 0.765625 h 1.453125 v 1.484375 H 2.90625 V -2.40625 H 4.359375 V -3.171875 H 2.90625 Z m 0,0"
               id="id-ead271e6-75d5-448b-8d4f-7becab7c3535" />
          </g>
          <g
             id="id-1dee7318-52f7-4d85-8db6-a390f40e1e46">
            <path
               d="M 6.25,-6.875 H 5.3125 l -0.640625,4.578125 c -0.15625,1.0625 -0.71875,1.625 -1.71875,1.625 C 2,-0.671875 1.625,-1.171875 1.78125,-2.25 l 0.640625,-4.625 h -0.9375 l -0.65625,4.640625 C 0.640625,-0.875 1.34375,0.125 2.90625,0.125 c 1.515625,0 2.5,-0.9375 2.6875,-2.296875 z m 0,0"
               id="id-2232ea93-d193-4461-aa89-6c39fd5e2cdc" />
          </g>
          <g
             id="id-c0caa765-1858-4a7b-a139-910ce2bc97e1">
            <path
               d="m 1.84375,-5.03125 c -0.671875,0 -1.140625,0.25 -1.515625,0.734375 l 0.4375,0.34375 c 0.3125,-0.375 0.578125,-0.53125 1.046875,-0.53125 0.546875,0 0.859375,0.328125 0.859375,0.875 0,0.78125 -0.40625,1.328125 -2.25,3.078125 V 0 H 3.40625 l 0.078125,-0.546875 h -2.3125 c 1.625,-1.46875 2.1875,-2.203125 2.1875,-3.09375 0,-0.78125 -0.5625,-1.390625 -1.515625,-1.390625 z m 0,0"
               id="id-49b148e8-6a7b-4ccf-9835-e8b683518065" />
          </g>
          <g
             id="id-15200ef7-5739-45db-a138-a1e32042f56c">
            <path
               d="M 1.8125,-5.375 1.15625,-5.296875 0.40625,0 H 1.0625 L 1.375,-2.265625 C 1.703125,-3 2.203125,-3.34375 2.609375,-3.34375 c 0.25,0 0.40625,0.140625 0.40625,0.40625 0,0.53125 -0.375,0.84375 -1.265625,1.09375 L 2.65625,0 H 3.390625 L 2.53125,-1.671875 C 3.328125,-1.921875 3.703125,-2.40625 3.703125,-3 c 0,-0.5 -0.375,-0.859375 -0.90625,-0.859375 C 2.3125,-3.859375 1.859375,-3.625 1.5,-3.125 Z m 0,0"
               id="id-efb074ab-22e3-47d2-a271-63eb82453968" />
          </g>
        </g>
      </defs>
      <g
         fill="#000000"
         fill-opacity="1"
         id="id-e6bc37b2-de59-401e-8a2d-706c817bf821"
         transform="translate(-280.523,-127.781)"
         style="fill:#b0b0b0;fill-opacity:1">
        <g
           transform="translate(279.898,134.765)"
           id="g49"
           style="fill:#b0b0b0;fill-opacity:1">
          <path
             d="m 5.265625,-6.875 h -3.6875 L 0.625,0 h 3.75 l 0.109375,-0.75 h -2.8125 L 2,-3.109375 H 4.28125 L 4.390625,-3.875 H 2.09375 l 0.3125,-2.234375 h 2.640625 z m 0,0"
             id="id-3a98bdfc-6d6d-4b36-9287-06a6f163f817"
             style="fill:#b0b0b0;fill-opacity:1" />
        </g>
      </g>
      <g
         fill="#000000"
         fill-opacity="1"
         id="id-ef11df66-7625-4d50-bc9d-4de8223d61cd"
         transform="translate(-280.523,-127.781)"
         style="fill:#b0b0b0;fill-opacity:1">
        <g
           transform="translate(285.168,138.252)"
           id="g50"
           style="fill:#b0b0b0;fill-opacity:1">
          <path
             d="m 1.84375,-5.03125 c -0.671875,0 -1.140625,0.25 -1.515625,0.734375 l 0.4375,0.34375 c 0.3125,-0.375 0.578125,-0.53125 1.046875,-0.53125 0.546875,0 0.859375,0.328125 0.859375,0.875 0,0.78125 -0.40625,1.328125 -2.25,3.078125 V 0 H 3.40625 l 0.078125,-0.546875 h -2.3125 c 1.625,-1.46875 2.1875,-2.203125 2.1875,-3.09375 0,-0.78125 -0.5625,-1.390625 -1.515625,-1.390625 z m 0,0"
             id="id-afe4d879-b6fd-4c4e-97ca-90e90f2a616a"
             style="fill:#b0b0b0;fill-opacity:1" />
        </g>
      </g>
      <g
         fill="#000000"
         fill-opacity="1"
         id="id-15b04cbd-52a3-4245-90e0-a81a2750130e"
         transform="translate(-280.523,-127.781)"
         style="fill:#b0b0b0;fill-opacity:1">
        <g
           transform="translate(292.451,134.765)"
           id="g51"
           style="fill:#b0b0b0;fill-opacity:1">
          <path
             d="M 0.625,-1.453125 H 4.359375 V -2.21875 H 0.625 Z m 0,-1.921875 h 3.734375 v -0.75 H 0.625 Z m 0,0"
             id="id-e7002323-7e3e-4b1e-a8da-777e9800aaf7"
             style="fill:#b0b0b0;fill-opacity:1" />
        </g>
      </g>
      <g
         fill="#000000"
         fill-opacity="1"
         id="id-a3f46d28-987e-4ba7-8b34-4308b42c8ec7"
         transform="translate(-280.523,-127.781)"
         style="fill:#b0b0b0;fill-opacity:1">
        <g
           transform="translate(300.192,134.765)"
           id="g52"
           style="fill:#b0b0b0;fill-opacity:1">
          <path
             d="m 2.578125,-6.984375 c -0.953125,0 -1.59375,0.328125 -2.125,1 L 1.0625,-5.5 C 1.5,-6.015625 1.859375,-6.234375 2.515625,-6.234375 c 0.75,0 1.203125,0.46875 1.203125,1.203125 0,1.09375 -0.578125,1.84375 -3.125,4.296875 V 0 h 4.125 l 0.109375,-0.765625 h -3.1875 C 3.875,-2.8125 4.671875,-3.8125 4.671875,-5.0625 c 0,-1.09375 -0.78125,-1.921875 -2.09375,-1.921875 z m 0,0"
             id="id-789a54f0-31fe-410c-8faa-5a7f0c94e199"
             style="fill:#b0b0b0;fill-opacity:1" />
        </g>
        <g
           transform="translate(305.771,134.765)"
           id="g53"
           style="fill:#b0b0b0;fill-opacity:1">
          <path
             d="m 2.3125,0.125 c 0.734375,0 1.390625,-0.25 1.9375,-0.640625 L 3.859375,-1.109375 C 3.328125,-0.78125 2.921875,-0.625 2.390625,-0.625 c -0.703125,0 -1.03125,-0.28125 -1.03125,-0.75 0,-0.515625 0.28125,-1 1.328125,-1 h 0.515625 l 0.21875,-0.71875 h -0.625 c -0.578125,0 -0.90625,-0.25 -0.90625,-0.75 0,-0.4375 0.328125,-0.8125 1.0625,-0.8125 0.53125,0 0.84375,0.140625 1.15625,0.359375 L 4.59375,-4.828125 C 4.203125,-5.140625 3.671875,-5.375 2.953125,-5.375 c -1.40625,0 -1.96875,0.8125 -1.96875,1.515625 0,0.5625 0.359375,0.890625 0.921875,1.046875 -1.125,0.15625 -1.5,0.78125 -1.5,1.453125 C 0.40625,-0.5 1.140625,0.125 2.3125,0.125 Z m 0,0"
             id="id-d063bea4-99bc-4af3-8f97-9b65a4e8fe3a"
             style="fill:#b0b0b0;fill-opacity:1" />
        </g>
      </g>
      <g
         fill="#000000"
         fill-opacity="1"
         id="id-dfdeeb9b-5139-4936-8519-5446da6a4727"
         transform="translate(-280.523,-127.781)"
         style="fill:#b0b0b0;fill-opacity:1">
        <g
           transform="translate(310.591,138.252)"
           id="g54"
           style="fill:#b0b0b0;fill-opacity:1">
          <path
             d="M 1.8125,-5.375 1.15625,-5.296875 0.40625,0 H 1.0625 L 1.375,-2.265625 C 1.703125,-3 2.203125,-3.34375 2.609375,-3.34375 c 0.25,0 0.40625,0.140625 0.40625,0.40625 0,0.53125 -0.375,0.84375 -1.265625,1.09375 L 2.65625,0 H 3.390625 L 2.53125,-1.671875 C 3.328125,-1.921875 3.703125,-2.40625 3.703125,-3 c 0,-0.5 -0.375,-0.859375 -0.90625,-0.859375 C 2.3125,-3.859375 1.859375,-3.625 1.5,-3.125 Z m 0,0"
             id="id-1e4d9430-fb4c-4ef5-abb7-5b91dc1fced2"
             style="fill:#b0b0b0;fill-opacity:1" />
        </g>
      </g>
      <g
         fill="#000000"
         fill-opacity="1"
         id="id-16dbddca-14fa-470e-81e0-6043f34b91af"
         transform="translate(-280.523,-127.781)"
         style="fill:#b0b0b0;fill-opacity:1">
        <g
           transform="translate(317.32,134.765)"
           id="g55"
           style="fill:#b0b0b0;fill-opacity:1">
          <path
             d="M 2.90625,-4.671875 H 2.078125 v 1.5 H 0.625 v 0.765625 h 1.453125 v 1.484375 H 2.90625 V -2.40625 H 4.359375 V -3.171875 H 2.90625 Z m 0,0"
             id="id-da6603f8-5d16-4aab-9217-76aecba59ae8"
             style="fill:#b0b0b0;fill-opacity:1" />
        </g>
      </g>
      <g
         fill="#000000"
         fill-opacity="1"
         id="id-fd8fa7cd-3369-4dbb-a249-e516d215f170"
         transform="translate(-280.523,-127.781)"
         style="fill:#b0b0b0;fill-opacity:1">
        <g
           transform="translate(324.513,134.765)"
           id="g56"
           style="fill:#b0b0b0;fill-opacity:1">
          <path
             d="M 6.25,-6.875 H 5.3125 l -0.640625,4.578125 c -0.15625,1.0625 -0.71875,1.625 -1.71875,1.625 C 2,-0.671875 1.625,-1.171875 1.78125,-2.25 l 0.640625,-4.625 h -0.9375 l -0.65625,4.640625 C 0.640625,-0.875 1.34375,0.125 2.90625,0.125 c 1.515625,0 2.5,-0.9375 2.6875,-2.296875 z m 0,0"
             id="id-e8a9384e-21a3-4c27-94ad-4bbb33ef051a"
             style="fill:#b0b0b0;fill-opacity:1" />
        </g>
      </g>
    </g>
    <path
       style="fill:#ff8080;fill-opacity:1;stroke:#ff4f42;stroke-width:3;stroke-miterlimit:3.9;stroke-dasharray:none;stroke-opacity:1;marker-end:url(#RoundedArrow)"
       d="m -16.145385,146.41307 v 13.14159"
       id="path57"
       inkscape:path-effect="#path-effect57"
       inkscape:original-d="m -16.145385,146.41307 c 0,4.13021 0,13.14159 0,13.14159"
       transform="translate(54.443741,-55.646534)" />
    <path
       style="fill:#ff8080;fill-opacity:1;stroke:#ff4f42;stroke-width:3;stroke-miterlimit:3.9;stroke-dasharray:none;stroke-opacity:1;marker-end:url(#RoundedArrow-2)"
       d="m -16.145385,146.41307 v 13.14159"
       id="path57-7"
       inkscape:path-effect="#path-effect57-1"
       inkscape:original-d="m -16.145385,146.41307 c 0,4.13021 0,13.14159 0,13.14159"
       transform="matrix(1,0,0,-1,56.230237,287.81982)" />
    <path
       style="fill:#ff8080;fill-opacity:1;stroke:#ff4f42;stroke-width:3;stroke-miterlimit:3.9;stroke-dasharray:none;stroke-opacity:1;marker-end:url(#RoundedArrow)"
       d="m -16.145385,146.41307 v 13.14159"
       id="path58"
       inkscape:path-effect="#path-effect59"
       inkscape:original-d="m -16.145385,146.41307 c 0,4.13021 0,13.14159 0,13.14159"
       transform="matrix(1,0,0,-1,80.902076,257.42332)" />
    <path
       style="fill:#ff8080;fill-opacity:1;stroke:#ff4f42;stroke-width:3;stroke-miterlimit:3.9;stroke-dasharray:none;stroke-opacity:1;marker-end:url(#RoundedArrow-2)"
       d="m -16.145385,146.41307 v 13.14159"
       id="path59"
       inkscape:path-effect="#path-effect61"
       inkscape:original-d="m -16.145385,146.41307 c 0,4.13021 0,13.14159 0,13.14159"
       transform="translate(66.284407,-25.250039)" />
  </g>
</svg>
