<?xml version="1.0" encoding="UTF-8" standalone="no"?>
<!-- Created with Inkscape (http://www.inkscape.org/) -->

<svg
   width="172.71141mm"
   height="26.078087mm"
   viewBox="0 0 172.7114 26.078087"
   version="1.1"
   id="svg36404"
   sodipodi:docname="blochtheorem.svg"
   inkscape:version="1.2.2 (b0a8486541, 2022-12-01)"
   xmlns:inkscape="http://www.inkscape.org/namespaces/inkscape"
   xmlns:sodipodi="http://sodipodi.sourceforge.net/DTD/sodipodi-0.dtd"
   xmlns="http://www.w3.org/2000/svg"
   xmlns:svg="http://www.w3.org/2000/svg"
   xmlns:ns1="http://www.iki.fi/pav/software/textext/">
  <sodipodi:namedview
     id="namedview36406"
     pagecolor="#ffffff"
     bordercolor="#000000"
     borderopacity="0.25"
     inkscape:showpageshadow="2"
     inkscape:pageopacity="0.0"
     inkscape:pagecheckerboard="0"
     inkscape:deskcolor="#d1d1d1"
     inkscape:document-units="mm"
     showgrid="false"
     inkscape:zoom="1.0429244"
     inkscape:cx="224.36909"
     inkscape:cy="89.651752"
     inkscape:window-width="1916"
     inkscape:window-height="1048"
     inkscape:window-x="0"
     inkscape:window-y="28"
     inkscape:window-maximized="1"
     inkscape:current-layer="layer1" />
  <defs
     id="defs36401">
    <marker
       style="overflow:visible"
       id="RoundedArrow"
       refX="0"
       refY="0"
       orient="auto-start-reverse"
       inkscape:stockid="RoundedArrow"
       markerWidth="3.135"
       markerHeight="3.0306199"
       viewBox="0 0 6.1347524 5.9304951"
       inkscape:isstock="true"
       inkscape:collect="always"
       preserveAspectRatio="xMidYMid">
      <path
         transform="scale(0.7)"
         d="m -0.21114562,-4.1055728 6.42229122,3.21114561 a 1,1 90 0 1 0,1.78885438 L -0.21114562,4.1055728 A 1.236068,1.236068 31.717474 0 1 -2,3 v -6 a 1.236068,1.236068 148.28253 0 1 1.78885438,-1.1055728 z"
         style="fill:context-stroke;fill-rule:evenodd;stroke:none"
         id="path1367" />
    </marker>
    <inkscape:path-effect
       effect="spiro"
       id="path-effect36547"
       is_visible="true"
       lpeversion="1" />
    <inkscape:path-effect
       effect="spiro"
       id="path-effect36543"
       is_visible="true"
       lpeversion="1" />
    <inkscape:path-effect
       effect="spiro"
       id="path-effect36410"
       is_visible="true"
       lpeversion="1" />
  </defs>
  <g
     inkscape:label="Layer 1"
     inkscape:groupmode="layer"
     id="layer1"
     transform="translate(-21.977014,-93.38251)">
    <path
       style="opacity:1;fill:#d95050;fill-opacity:1;stroke:#875132;stroke-width:3;stroke-dasharray:none;stroke-dashoffset:0;stroke-opacity:1"
       d="M 21.977014,115.46471 H 194.68843"
       id="path36408"
       inkscape:path-effect="#path-effect36410"
       inkscape:original-d="m 21.977014,115.46471 c 57.570744,-2.7e-4 172.711416,0 172.711416,0" />
    <rect
       style="opacity:1;fill:#d95050;fill-opacity:1;stroke:none;stroke-width:1.5;stroke-dasharray:none;stroke-dashoffset:0;stroke-opacity:1"
       id="rect36464"
       width="7.9917703"
       height="7.9917703"
       x="66.778435"
       y="111.46883" />
    <rect
       style="opacity:1;fill:#d95050;fill-opacity:1;stroke:none;stroke-width:1.5;stroke-dasharray:none;stroke-dashoffset:0;stroke-opacity:1"
       id="rect36466"
       width="7.9917703"
       height="7.9917703"
       x="140.86176"
       y="111.46883" />
    <g
       transform="matrix(1.2410528,0,0,1.2410528,41.53434,94.536658)"
       ns1:version="1.8.2"
       ns1:texconverter="xelatex"
       ns1:pdfconverter="inkscape"
       ns1:text="$\\psi(x)$"
       ns1:preamble="/home/kirito/.config/textext/beamer_preamble.tex"
       ns1:scale="3.448499914961166"
       ns1:alignment="middle center"
       ns1:stroke-to-path="0"
       ns1:jacobian_sqrt="1.21655"
       id="g36513"
       style="fill:#404040;fill-opacity:1">
      <defs
         id="id-2528c447-6d1c-4749-bbf7-e8cf106afe52">
        <g
           id="id-9709075d-8b7c-4ae7-a1d5-8a2ab96cb9e7">
          <g
             id="id-e53fa6f3-e8c7-43bd-8383-d67e50a1a04f">
            <path
               d="m 5.4375,-6.4375 v 5.890625 H 1.34375 V -6.4375 Z m 0.546875,-0.546875 h -5.1875 V 0 h 5.1875 z m -2.75,4.953125 c -0.21875,0 -0.40625,0.1875 -0.40625,0.421875 0,0.21875 0.1875,0.40625 0.40625,0.40625 0.25,0 0.421875,-0.1875 0.421875,-0.40625 0,-0.234375 -0.171875,-0.421875 -0.421875,-0.421875 z M 3.4375,-5.453125 c -0.5,0 -0.90625,0.1875 -1.25,0.59375 l 0.390625,0.28125 C 2.828125,-4.875 3.09375,-5 3.40625,-5 3.765625,-5 4,-4.8125 4,-4.484375 4,-3.84375 2.953125,-3.953125 2.953125,-2.9375 v 0.296875 H 3.5 V -2.90625 c 0,-0.796875 1.078125,-0.65625 1.078125,-1.625 0,-0.46875 -0.375,-0.921875 -1.140625,-0.921875 z m 0,0"
               id="id-3d92b612-b824-48f6-b602-536386a66aba" />
          </g>
          <g
             id="id-a8b02071-0701-4436-8a51-45d070e7bd48">
            <path
               d="m 6.96875,-4.421875 c 0,-0.25 -0.015625,-0.546875 -0.046875,-0.828125 h -0.875 c 0.015625,0.28125 0.03125,0.515625 0.03125,0.796875 0,1.828125 -0.078125,3.625 -2.09375,3.828125 l 0.65625,-4.625 h -0.875 l -0.65625,4.640625 C 1.90625,-0.703125 1.59375,-1.25 1.71875,-2.15625 L 2.15625,-5.25 H 1.25 L 0.8125,-2.15625 C 0.640625,-0.890625 1.28125,0.015625 3.015625,0.109375 L 2.734375,2.15625 3.625,2.03125 3.890625,0.109375 c 2.6875,-0.15625 3.078125,-1.9375 3.078125,-4.53125 z m 0,0"
               id="id-c9d1c09f-8911-4ebf-9cec-1faae84301bb" />
          </g>
          <g
             id="id-d0c560b5-1bcc-4e26-9269-f1375f639f83">
            <path
               d="m 2.25,-7.71875 c -0.96875,1.375 -1.84375,2.5625 -1.84375,4.921875 0,2.375 0.875,3.546875 1.84375,4.9375 L 2.828125,1.75 C 1.9375,0.421875 1.359375,-0.65625 1.359375,-2.796875 1.359375,-4.9375 1.9375,-6 2.828125,-7.328125 Z m 0,0"
               id="id-9e4d5a4c-d340-47d3-84dc-d7615b060e84" />
          </g>
          <g
             id="id-0b566bdd-5ed9-448b-b61b-86d3b22e433e">
            <path
               d="M 5.40625,-5.25 H 4.359375 l -1.375,1.9375 -0.84375,-1.9375 h -1 L 2.375,-2.828125 0.171875,0 H 1.25 l 1.59375,-2.21875 1,2.21875 h 1.015625 l -1.40625,-2.734375 z m 0,0"
               id="id-60deb793-fe1a-47a3-a9a2-1394a0d08953" />
          </g>
          <g
             id="id-64bee70c-62ef-410a-97c6-3ba96ccfc8fa">
            <path
               d="M 0.984375,-7.71875 0.40625,-7.328125 C 1.296875,-6 1.875,-4.9375 1.875,-2.796875 1.875,-0.65625 1.296875,0.421875 0.40625,1.75 l 0.578125,0.390625 c 0.96875,-1.390625 1.84375,-2.5625 1.84375,-4.9375 0,-2.359375 -0.875,-3.546875 -1.84375,-4.921875 z m 0,0"
               id="id-48633303-de98-490f-8bc0-721d03f3a5a8" />
          </g>
        </g>
      </defs>
      <g
         fill="#000000"
         fill-opacity="1"
         id="id-0e19bf01-917f-484b-8138-ca0e14d10def"
         transform="translate(-149.498,-127.046)"
         style="fill:#404040;fill-opacity:1">
        <g
           transform="translate(148.712,134.765)"
           id="g36499"
           style="fill:#404040;fill-opacity:1">
          <path
             d="m 6.96875,-4.421875 c 0,-0.25 -0.015625,-0.546875 -0.046875,-0.828125 h -0.875 c 0.015625,0.28125 0.03125,0.515625 0.03125,0.796875 0,1.828125 -0.078125,3.625 -2.09375,3.828125 l 0.65625,-4.625 h -0.875 l -0.65625,4.640625 C 1.90625,-0.703125 1.59375,-1.25 1.71875,-2.15625 L 2.15625,-5.25 H 1.25 L 0.8125,-2.15625 C 0.640625,-0.890625 1.28125,0.015625 3.015625,0.109375 L 2.734375,2.15625 3.625,2.03125 3.890625,0.109375 c 2.6875,-0.15625 3.078125,-1.9375 3.078125,-4.53125 z m 0,0"
             id="id-4ad2d899-18a2-4d74-9996-66db8199e151"
             style="fill:#404040;fill-opacity:1" />
        </g>
      </g>
      <g
         fill="#000000"
         fill-opacity="1"
         id="id-d9dcd830-3ae4-4bd9-b48e-ab0d4fcc0aac"
         transform="translate(-149.498,-127.046)"
         style="fill:#404040;fill-opacity:1">
        <g
           transform="translate(156.403,134.765)"
           id="g36503"
           style="fill:#404040;fill-opacity:1">
          <path
             d="m 2.25,-7.71875 c -0.96875,1.375 -1.84375,2.5625 -1.84375,4.921875 0,2.375 0.875,3.546875 1.84375,4.9375 L 2.828125,1.75 C 1.9375,0.421875 1.359375,-0.65625 1.359375,-2.796875 1.359375,-4.9375 1.9375,-6 2.828125,-7.328125 Z m 0,0"
             id="id-0bc5d62a-c595-4cb2-a1ed-f6aa9d243cc6"
             style="fill:#404040;fill-opacity:1" />
        </g>
        <g
           transform="translate(159.631,134.765)"
           id="g36506"
           style="fill:#404040;fill-opacity:1">
          <path
             d="M 5.40625,-5.25 H 4.359375 l -1.375,1.9375 -0.84375,-1.9375 h -1 L 2.375,-2.828125 0.171875,0 H 1.25 l 1.59375,-2.21875 1,2.21875 h 1.015625 l -1.40625,-2.734375 z m 0,0"
             id="id-fa010d4d-c137-4d86-a550-a6d9ab9f6aab"
             style="fill:#404040;fill-opacity:1" />
        </g>
      </g>
      <g
         fill="#000000"
         fill-opacity="1"
         id="id-46fc8d95-6f14-41b5-9a6c-ee9456c04e70"
         transform="translate(-149.498,-127.046)"
         style="fill:#404040;fill-opacity:1">
        <g
           transform="translate(165.31,134.765)"
           id="g36510"
           style="fill:#404040;fill-opacity:1">
          <path
             d="M 0.984375,-7.71875 0.40625,-7.328125 C 1.296875,-6 1.875,-4.9375 1.875,-2.796875 1.875,-0.65625 1.296875,0.421875 0.40625,1.75 l 0.578125,0.390625 c 0.96875,-1.390625 1.84375,-2.5625 1.84375,-4.9375 0,-2.359375 -0.875,-3.546875 -1.84375,-4.921875 z m 0,0"
             id="id-9aa9add0-bbcf-4e74-89e4-eb625aaaf6e6"
             style="fill:#404040;fill-opacity:1" />
        </g>
      </g>
    </g>
    <path
       style="opacity:1;fill:#d95050;fill-opacity:1;stroke:none;stroke-width:1.5;stroke-dasharray:none;stroke-dashoffset:0;stroke-opacity:1"
       d="M 89.726286,98.44806 H 126.29297"
       id="path36541"
       inkscape:path-effect="#path-effect36543"
       inkscape:original-d="m 89.726286,98.44806 c 12.002124,2.64e-4 36.566684,0 36.566684,0" />
    <path
       style="opacity:1;fill:#d95050;fill-opacity:1;stroke:#505050;stroke-width:2.5;stroke-dasharray:none;stroke-dashoffset:0;stroke-opacity:1;marker-end:url(#RoundedArrow)"
       d="M 70.170357,100.59702 H 134.91796"
       id="path36545"
       inkscape:path-effect="#path-effect36547"
       inkscape:original-d="m 70.170357,100.59702 c 21.582799,2.6e-4 64.747603,0 64.747603,0" />
    <g
       transform="matrix(1.24105,0,0,1.24105,142.47383,93.3822)"
       ns1:version="1.8.2"
       ns1:texconverter="xelatex"
       ns1:pdfconverter="inkscape"
       ns1:text="$e^{ika}\\psi(x)$"
       ns1:preamble="/home/kirito/.config/textext/beamer_preamble.tex"
       ns1:scale="3.5179569070423056"
       ns1:alignment="middle center"
       ns1:stroke-to-path="0"
       ns1:jacobian_sqrt="1.24105"
       id="g36665"
       style="fill:#404040;fill-opacity:1">
      <defs
         id="id-59bad90a-3936-49c4-9d9f-5ef32092aa85">
        <g
           id="id-87728bd3-a91f-4ee0-8cd7-52a107c120d9">
          <g
             id="id-54c1df99-af74-4b7b-93ea-037a1f95355e">
            <path
               d="m 5.4375,-6.4375 v 5.890625 H 1.34375 V -6.4375 Z m 0.546875,-0.546875 h -5.1875 V 0 h 5.1875 z m -2.75,4.953125 c -0.21875,0 -0.40625,0.1875 -0.40625,0.421875 0,0.21875 0.1875,0.40625 0.40625,0.40625 0.25,0 0.421875,-0.1875 0.421875,-0.40625 0,-0.234375 -0.171875,-0.421875 -0.421875,-0.421875 z M 3.4375,-5.453125 c -0.5,0 -0.90625,0.1875 -1.25,0.59375 l 0.390625,0.28125 C 2.828125,-4.875 3.09375,-5 3.40625,-5 3.765625,-5 4,-4.8125 4,-4.484375 4,-3.84375 2.953125,-3.953125 2.953125,-2.9375 v 0.296875 H 3.5 V -2.90625 c 0,-0.796875 1.078125,-0.65625 1.078125,-1.625 0,-0.46875 -0.375,-0.921875 -1.140625,-0.921875 z m 0,0"
               id="id-09c40b3f-725f-42ce-b118-c513b5422c37" />
          </g>
          <g
             id="id-f0053346-c751-4841-abc3-e8d19f3fa239">
            <path
               d="m 1.53125,-2.65625 c 0.125,-0.953125 0.578125,-1.984375 1.671875,-1.984375 0.578125,0 0.71875,0.390625 0.71875,0.640625 0,0.890625 -0.890625,1.171875 -2.390625,1.34375 z m 3.359375,-1.375 c 0,-0.703125 -0.546875,-1.34375 -1.671875,-1.34375 -2,0 -2.703125,1.921875 -2.703125,3.359375 0,1.328125 0.71875,2.140625 2,2.140625 0.703125,0 1.328125,-0.234375 1.890625,-0.640625 l -0.390625,-0.625 c -0.484375,0.34375 -0.921875,0.5 -1.40625,0.5 C 1.9375,-0.640625 1.5,-1 1.46875,-1.953125 3.3125,-2.15625 4.890625,-2.5625 4.890625,-4.03125 Z m 0,0"
               id="id-cace8062-def8-4262-8869-9eabf2ab19e8" />
          </g>
          <g
             id="id-c2d0aafc-7c6b-4c6f-af2f-2e763fef929b">
            <path
               d="m 6.96875,-4.421875 c 0,-0.25 -0.015625,-0.546875 -0.046875,-0.828125 h -0.875 c 0.015625,0.28125 0.03125,0.515625 0.03125,0.796875 0,1.828125 -0.078125,3.625 -2.09375,3.828125 l 0.65625,-4.625 h -0.875 l -0.65625,4.640625 C 1.90625,-0.703125 1.59375,-1.25 1.71875,-2.15625 L 2.15625,-5.25 H 1.25 L 0.8125,-2.15625 C 0.640625,-0.890625 1.28125,0.015625 3.015625,0.109375 L 2.734375,2.15625 3.625,2.03125 3.890625,0.109375 c 2.6875,-0.15625 3.078125,-1.9375 3.078125,-4.53125 z m 0,0"
               id="id-78d1e2d2-be30-4c30-ac4c-34f2c8c49c57" />
          </g>
          <g
             id="id-8ed5242e-d48d-4da6-9eca-7e1c4630f467">
            <path
               d="m 2.25,-7.71875 c -0.96875,1.375 -1.84375,2.5625 -1.84375,4.921875 0,2.375 0.875,3.546875 1.84375,4.9375 L 2.828125,1.75 C 1.9375,0.421875 1.359375,-0.65625 1.359375,-2.796875 1.359375,-4.9375 1.9375,-6 2.828125,-7.328125 Z m 0,0"
               id="id-792ec5b3-e211-4659-b5a7-aa4eb267f549" />
          </g>
          <g
             id="id-8b141186-9121-4bc0-b9b6-8fe9b1f44840">
            <path
               d="M 5.40625,-5.25 H 4.359375 l -1.375,1.9375 -0.84375,-1.9375 h -1 L 2.375,-2.828125 0.171875,0 H 1.25 l 1.59375,-2.21875 1,2.21875 h 1.015625 l -1.40625,-2.734375 z m 0,0"
               id="id-c76b55f3-895f-412e-848a-02ee096604dd" />
          </g>
          <g
             id="id-d6f7ad88-c346-4bc9-89a7-e8507bee9fdd">
            <path
               d="M 0.984375,-7.71875 0.40625,-7.328125 C 1.296875,-6 1.875,-4.9375 1.875,-2.796875 1.875,-0.65625 1.296875,0.421875 0.40625,1.75 l 0.578125,0.390625 c 0.96875,-1.390625 1.84375,-2.5625 1.84375,-4.9375 0,-2.359375 -0.875,-3.546875 -1.84375,-4.921875 z m 0,0"
               id="id-29eaf88c-4bde-41d6-a4d2-26cc979fb048" />
          </g>
          <g
             id="id-be504334-3906-4751-8829-0085f1eee091">
            <path
               d="m 3.90625,-4.625 v 4.234375 H 0.96875 V -4.625 Z M 4.296875,-5.015625 H 0.578125 V 0 h 3.71875 z m -1.96875,3.5625 c -0.15625,0 -0.296875,0.125 -0.296875,0.296875 0,0.15625 0.140625,0.296875 0.296875,0.296875 C 2.5,-0.859375 2.625,-1 2.625,-1.15625 2.625,-1.328125 2.5,-1.453125 2.328125,-1.453125 Z m 0.140625,-2.46875 c -0.359375,0 -0.640625,0.140625 -0.890625,0.421875 L 1.84375,-3.296875 C 2.03125,-3.5 2.234375,-3.59375 2.453125,-3.59375 c 0.265625,0 0.4375,0.125 0.4375,0.359375 0,0.46875 -0.765625,0.390625 -0.765625,1.125 v 0.203125 h 0.390625 v -0.1875 c 0,-0.5625 0.78125,-0.46875 0.78125,-1.15625 0,-0.34375 -0.28125,-0.671875 -0.828125,-0.671875 z m 0,0"
               id="id-c2b90c8e-ac89-4766-a041-5f49aa326ae9" />
          </g>
          <g
             id="id-558915c7-acd5-4c6d-8ad5-5436a375bf95">
            <path
               d="M 1.59375,-3.78125 H 0.9375 L 0.40625,0 H 1.0625 Z M 1.421875,-4.703125 c 0.28125,0 0.5,-0.203125 0.5,-0.484375 0,-0.234375 -0.171875,-0.40625 -0.4375,-0.40625 C 1.21875,-5.59375 1,-5.390625 1,-5.109375 c 0,0.234375 0.15625,0.40625 0.421875,0.40625 z m 0,0"
               id="id-9af318ee-f56e-4761-b9ab-a385ec659550" />
          </g>
          <g
             id="id-8ee45f14-c5f3-4739-9594-cedc0bc77c30">
            <path
               d="M 1.8125,-5.375 1.15625,-5.296875 0.40625,0 H 1.0625 L 1.375,-2.265625 C 1.703125,-3 2.203125,-3.34375 2.609375,-3.34375 c 0.25,0 0.40625,0.140625 0.40625,0.40625 0,0.53125 -0.375,0.84375 -1.265625,1.09375 L 2.65625,0 H 3.390625 L 2.53125,-1.671875 C 3.328125,-1.921875 3.703125,-2.40625 3.703125,-3 c 0,-0.5 -0.375,-0.859375 -0.90625,-0.859375 C 2.3125,-3.859375 1.859375,-3.625 1.5,-3.125 Z m 0,0"
               id="id-b8c5984a-df86-424c-98ce-f62fb4686168" />
          </g>
          <g
             id="id-8e4981bc-bc6f-4b7a-8f41-4e2ae712c858">
            <path
               d="m 2.390625,-3.34375 c 0.25,0 0.40625,0.03125 0.609375,0.125 L 2.71875,-1.140625 C 2.421875,-0.734375 2.125,-0.4375 1.703125,-0.4375 c -0.40625,0 -0.640625,-0.28125 -0.640625,-0.921875 0,-0.84375 0.359375,-1.984375 1.328125,-1.984375 z M 2.375,-3.859375 c -1.46875,0 -2.015625,1.46875 -2.015625,2.5 0,0.859375 0.421875,1.453125 1.203125,1.453125 0.453125,0 0.828125,-0.265625 1.125,-0.640625 0.046875,0.40625 0.28125,0.578125 0.671875,0.640625 l 0.1875,-0.453125 C 3.3125,-0.453125 3.28125,-0.59375 3.3125,-0.859375 l 0.390625,-2.6875 C 3.265625,-3.75 2.859375,-3.859375 2.375,-3.859375 Z m 0,0"
               id="id-1d60d7c2-ebe2-4d1b-bbb0-a9477dc100cf" />
          </g>
        </g>
      </defs>
      <g
         fill="#000000"
         fill-opacity="1"
         id="id-626df47b-3e3b-4164-9214-238a19cf2d32"
         transform="translate(-149.228,-125.185)"
         style="fill:#404040;fill-opacity:1">
        <g
           transform="translate(148.712,134.765)"
           id="g36790"
           style="fill:#404040;fill-opacity:1">
          <path
             d="m 1.53125,-2.65625 c 0.125,-0.953125 0.578125,-1.984375 1.671875,-1.984375 0.578125,0 0.71875,0.390625 0.71875,0.640625 0,0.890625 -0.890625,1.171875 -2.390625,1.34375 z m 3.359375,-1.375 c 0,-0.703125 -0.546875,-1.34375 -1.671875,-1.34375 -2,0 -2.703125,1.921875 -2.703125,3.359375 0,1.328125 0.71875,2.140625 2,2.140625 0.703125,0 1.328125,-0.234375 1.890625,-0.640625 l -0.390625,-0.625 c -0.484375,0.34375 -0.921875,0.5 -1.40625,0.5 C 1.9375,-0.640625 1.5,-1 1.46875,-1.953125 3.3125,-2.15625 4.890625,-2.5625 4.890625,-4.03125 Z m 0,0"
             id="id-2c2374ee-4906-4a21-8d92-032d5ee0a018"
             style="fill:#404040;fill-opacity:1" />
        </g>
      </g>
      <g
         fill="#000000"
         fill-opacity="1"
         id="id-569be008-acbc-4ead-8b7c-33d6c31e1b31"
         transform="translate(-149.228,-125.185)"
         style="fill:#404040;fill-opacity:1">
        <g
           transform="translate(153.863,130.779)"
           id="g36794"
           style="fill:#404040;fill-opacity:1">
          <path
             d="M 1.59375,-3.78125 H 0.9375 L 0.40625,0 H 1.0625 Z M 1.421875,-4.703125 c 0.28125,0 0.5,-0.203125 0.5,-0.484375 0,-0.234375 -0.171875,-0.40625 -0.4375,-0.40625 C 1.21875,-5.59375 1,-5.390625 1,-5.109375 c 0,0.234375 0.15625,0.40625 0.421875,0.40625 z m 0,0"
             id="id-1e5fe38d-7169-45bd-af46-f1bd623f0b98"
             style="fill:#404040;fill-opacity:1" />
        </g>
      </g>
      <g
         fill="#000000"
         fill-opacity="1"
         id="id-78a998fe-acfa-441a-8508-da69ecfbc675"
         transform="translate(-149.228,-125.185)"
         style="fill:#404040;fill-opacity:1">
        <g
           transform="translate(156.259,130.779)"
           id="g36798"
           style="fill:#404040;fill-opacity:1">
          <path
             d="M 1.8125,-5.375 1.15625,-5.296875 0.40625,0 H 1.0625 L 1.375,-2.265625 C 1.703125,-3 2.203125,-3.34375 2.609375,-3.34375 c 0.25,0 0.40625,0.140625 0.40625,0.40625 0,0.53125 -0.375,0.84375 -1.265625,1.09375 L 2.65625,0 H 3.390625 L 2.53125,-1.671875 C 3.328125,-1.921875 3.703125,-2.40625 3.703125,-3 c 0,-0.5 -0.375,-0.859375 -0.90625,-0.859375 C 2.3125,-3.859375 1.859375,-3.625 1.5,-3.125 Z m 0,0"
             id="id-43aaa5e2-c2b2-47cd-8b02-4e8323a26261"
             style="fill:#404040;fill-opacity:1" />
        </g>
      </g>
      <g
         fill="#000000"
         fill-opacity="1"
         id="id-c419d4e0-be06-4ba4-a723-480f0316290b"
         transform="translate(-149.228,-125.185)"
         style="fill:#404040;fill-opacity:1">
        <g
           transform="translate(160.276,130.779)"
           id="g36802"
           style="fill:#404040;fill-opacity:1">
          <path
             d="m 2.390625,-3.34375 c 0.25,0 0.40625,0.03125 0.609375,0.125 L 2.71875,-1.140625 C 2.421875,-0.734375 2.125,-0.4375 1.703125,-0.4375 c -0.40625,0 -0.640625,-0.28125 -0.640625,-0.921875 0,-0.84375 0.359375,-1.984375 1.328125,-1.984375 z M 2.375,-3.859375 c -1.46875,0 -2.015625,1.46875 -2.015625,2.5 0,0.859375 0.421875,1.453125 1.203125,1.453125 0.453125,0 0.828125,-0.265625 1.125,-0.640625 0.046875,0.40625 0.28125,0.578125 0.671875,0.640625 l 0.1875,-0.453125 C 3.3125,-0.453125 3.28125,-0.59375 3.3125,-0.859375 l 0.390625,-2.6875 C 3.265625,-3.75 2.859375,-3.859375 2.375,-3.859375 Z m 0,0"
             id="id-8491dfde-251c-400e-9498-7380a555d4e6"
             style="fill:#404040;fill-opacity:1" />
        </g>
      </g>
      <g
         fill="#000000"
         fill-opacity="1"
         id="id-fa2f4cb6-9c5a-44dc-acb5-cdefbd1bdb52"
         transform="translate(-149.228,-125.185)"
         style="fill:#404040;fill-opacity:1">
        <g
           transform="translate(164.855,134.765)"
           id="g36806"
           style="fill:#404040;fill-opacity:1">
          <path
             d="m 6.96875,-4.421875 c 0,-0.25 -0.015625,-0.546875 -0.046875,-0.828125 h -0.875 c 0.015625,0.28125 0.03125,0.515625 0.03125,0.796875 0,1.828125 -0.078125,3.625 -2.09375,3.828125 l 0.65625,-4.625 h -0.875 l -0.65625,4.640625 C 1.90625,-0.703125 1.59375,-1.25 1.71875,-2.15625 L 2.15625,-5.25 H 1.25 L 0.8125,-2.15625 C 0.640625,-0.890625 1.28125,0.015625 3.015625,0.109375 L 2.734375,2.15625 3.625,2.03125 3.890625,0.109375 c 2.6875,-0.15625 3.078125,-1.9375 3.078125,-4.53125 z m 0,0"
             id="id-512ed872-7022-4df2-90da-e92f909eb832"
             style="fill:#404040;fill-opacity:1" />
        </g>
      </g>
      <g
         fill="#000000"
         fill-opacity="1"
         id="id-24c82f3e-5701-4200-9bf6-3af1baaa8dad"
         transform="translate(-149.228,-125.185)"
         style="fill:#404040;fill-opacity:1">
        <g
           transform="translate(172.546,134.765)"
           id="g36810"
           style="fill:#404040;fill-opacity:1">
          <path
             d="m 2.25,-7.71875 c -0.96875,1.375 -1.84375,2.5625 -1.84375,4.921875 0,2.375 0.875,3.546875 1.84375,4.9375 L 2.828125,1.75 C 1.9375,0.421875 1.359375,-0.65625 1.359375,-2.796875 1.359375,-4.9375 1.9375,-6 2.828125,-7.328125 Z m 0,0"
             id="id-52c2ad96-2c99-4830-a77e-959193632d46"
             style="fill:#404040;fill-opacity:1" />
        </g>
        <g
           transform="translate(175.774,134.765)"
           id="g36813"
           style="fill:#404040;fill-opacity:1">
          <path
             d="M 5.40625,-5.25 H 4.359375 l -1.375,1.9375 -0.84375,-1.9375 h -1 L 2.375,-2.828125 0.171875,0 H 1.25 l 1.59375,-2.21875 1,2.21875 h 1.015625 l -1.40625,-2.734375 z m 0,0"
             id="id-61800544-18c1-4dc0-a615-50f9eecd0881"
             style="fill:#404040;fill-opacity:1" />
        </g>
      </g>
      <g
         fill="#000000"
         fill-opacity="1"
         id="id-fe80203d-4dfc-4d91-bb80-d7de0acdb73e"
         transform="translate(-149.228,-125.185)"
         style="fill:#404040;fill-opacity:1">
        <g
           transform="translate(181.453,134.765)"
           id="g36817"
           style="fill:#404040;fill-opacity:1">
          <path
             d="M 0.984375,-7.71875 0.40625,-7.328125 C 1.296875,-6 1.875,-4.9375 1.875,-2.796875 1.875,-0.65625 1.296875,0.421875 0.40625,1.75 l 0.578125,0.390625 c 0.96875,-1.390625 1.84375,-2.5625 1.84375,-4.9375 0,-2.359375 -0.875,-3.546875 -1.84375,-4.921875 z m 0,0"
             id="id-b64f5440-f5dd-4d3e-ae7a-b0f4e9b426a1"
             style="fill:#404040;fill-opacity:1" />
        </g>
      </g>
    </g>
  </g>
</svg>
