<?xml version="1.0" encoding="UTF-8" standalone="no"?>
<!-- Created with Inkscape (http://www.inkscape.org/) -->

<svg
   width="226.09055mm"
   height="88.507103mm"
   viewBox="0 0 226.09055 88.507111"
   version="1.1"
   id="svg5239"
   sodipodi:docname="decomposition.svg"
   inkscape:version="1.2.2 (b0a8486541, 2022-12-01)"
   xmlns:inkscape="http://www.inkscape.org/namespaces/inkscape"
   xmlns:sodipodi="http://sodipodi.sourceforge.net/DTD/sodipodi-0.dtd"
   xmlns="http://www.w3.org/2000/svg"
   xmlns:svg="http://www.w3.org/2000/svg"
   xmlns:ns28="http://www.iki.fi/pav/software/textext/">
  <sodipodi:namedview
     id="namedview5241"
     pagecolor="#ffffff"
     bordercolor="#000000"
     borderopacity="0.25"
     inkscape:showpageshadow="2"
     inkscape:pageopacity="0.0"
     inkscape:pagecheckerboard="0"
     inkscape:deskcolor="#d1d1d1"
     inkscape:document-units="mm"
     showgrid="false"
     inkscape:zoom="0.83696327"
     inkscape:cx="568.12529"
     inkscape:cy="227.60855"
     inkscape:window-width="1916"
     inkscape:window-height="1048"
     inkscape:window-x="0"
     inkscape:window-y="28"
     inkscape:window-maximized="1"
     inkscape:current-layer="layer1" />
  <defs
     id="defs5236">
    <inkscape:path-effect
       effect="spiro"
       id="path-effect14615"
       is_visible="true"
       lpeversion="1" />
    <inkscape:path-effect
       effect="spiro"
       id="path-effect14611"
       is_visible="true"
       lpeversion="1" />
    <inkscape:path-effect
       effect="spiro"
       id="path-effect14607"
       is_visible="true"
       lpeversion="1" />
    <inkscape:path-effect
       effect="spiro"
       id="path-effect14603"
       is_visible="true"
       lpeversion="1" />
    <inkscape:path-effect
       effect="spiro"
       id="path-effect14599"
       is_visible="true"
       lpeversion="1" />
    <rect
       x="954.70654"
       y="37.257553"
       width="35.292576"
       height="48.612431"
       id="rect10137" />
    <inkscape:path-effect
       effect="spiro"
       id="path-effect9780"
       is_visible="true"
       lpeversion="1" />
    <inkscape:path-effect
       effect="spiro"
       id="path-effect9774"
       is_visible="true"
       lpeversion="1" />
    <inkscape:path-effect
       effect="spiro"
       id="path-effect9768"
       is_visible="true"
       lpeversion="1" />
    <inkscape:path-effect
       effect="spiro"
       id="path-effect9762"
       is_visible="true"
       lpeversion="1" />
    <inkscape:path-effect
       effect="spiro"
       id="path-effect9756"
       is_visible="true"
       lpeversion="1" />
    <inkscape:path-effect
       effect="spiro"
       id="path-effect9750"
       is_visible="true"
       lpeversion="1" />
    <inkscape:path-effect
       effect="spiro"
       id="path-effect9744"
       is_visible="true"
       lpeversion="1" />
    <inkscape:path-effect
       effect="spiro"
       id="path-effect9738"
       is_visible="true"
       lpeversion="1" />
    <inkscape:path-effect
       effect="spiro"
       id="path-effect9732"
       is_visible="true"
       lpeversion="1" />
    <inkscape:path-effect
       effect="spiro"
       id="path-effect9726"
       is_visible="true"
       lpeversion="1" />
    <inkscape:path-effect
       effect="spiro"
       id="path-effect9720"
       is_visible="true"
       lpeversion="1" />
    <inkscape:path-effect
       effect="spiro"
       id="path-effect9714"
       is_visible="true"
       lpeversion="1" />
    <inkscape:path-effect
       effect="spiro"
       id="path-effect9708"
       is_visible="true"
       lpeversion="1" />
    <inkscape:path-effect
       effect="spiro"
       id="path-effect9702"
       is_visible="true"
       lpeversion="1" />
    <inkscape:path-effect
       effect="spiro"
       id="path-effect9696"
       is_visible="true"
       lpeversion="1" />
    <inkscape:path-effect
       effect="spiro"
       id="path-effect9690"
       is_visible="true"
       lpeversion="1" />
    <inkscape:path-effect
       effect="spiro"
       id="path-effect9621"
       is_visible="true"
       lpeversion="1" />
  </defs>
  <g
     inkscape:label="Layer 1"
     inkscape:groupmode="layer"
     id="layer1"
     transform="translate(-26.978082,-40.859619)">
    <path
       style="fill:#505050;fill-opacity:1;stroke:#2e8759;stroke-width:1.6842;stroke-dasharray:3.36841, 1.6842;stroke-dashoffset:0;stroke-opacity:1"
       d="M 73.823451,49.991745 V 124.78268"
       id="path9704"
       inkscape:path-effect="#path-effect9708"
       inkscape:original-d="m 73.823451,49.991745 c 2.65e-4,24.9305 0,74.790935 0,74.790935" />
    <path
       style="fill:#505050;fill-opacity:1;stroke:#2e8759;stroke-width:1.6842;stroke-dasharray:3.36841, 1.6842;stroke-dashoffset:0;stroke-opacity:1"
       d="M 63.240117,49.991745 V 124.78268"
       id="path9698"
       inkscape:path-effect="#path-effect9702"
       inkscape:original-d="m 63.240117,49.991745 c 2.65e-4,24.9305 0,74.790935 0,74.790935" />
    <path
       style="fill:#505050;fill-opacity:1;stroke:#2e8759;stroke-width:1.6842;stroke-dasharray:3.36841, 1.6842;stroke-dashoffset:0;stroke-opacity:1"
       d="M 42.073449,49.991745 V 124.78268"
       id="path9686"
       inkscape:path-effect="#path-effect9690"
       inkscape:original-d="m 42.073449,49.991745 c 2.65e-4,24.9305 0,74.790935 0,74.790935" />
    <path
       style="fill:#505050;fill-opacity:1;stroke:#2e8759;stroke-width:1.6842;stroke-dasharray:3.36841, 1.6842;stroke-dashoffset:0;stroke-opacity:1"
       d="M 52.656783,49.991745 V 124.78268"
       id="path9692"
       inkscape:path-effect="#path-effect9696"
       inkscape:original-d="m 52.656783,49.991745 c 2.65e-4,24.9305 0,74.790935 0,74.790935" />
    <path
       style="fill:#505050;fill-opacity:1;stroke:#2e8759;stroke-width:1.6842;stroke-dasharray:3.36841, 1.6842;stroke-dashoffset:0;stroke-opacity:1"
       d="M 31.490115,49.991745 V 124.78268"
       id="path9619"
       inkscape:path-effect="#path-effect9621"
       inkscape:original-d="m 31.490115,49.991745 c 2.65e-4,24.9305 0,74.790935 0,74.790935" />
    <circle
       style="fill:#b0b0b0;fill-opacity:1;stroke:none;stroke-width:2;stroke-dasharray:none;stroke-opacity:1"
       id="path5295"
       cx="31.544146"
       cy="124.80066"
       r="4.5660634" />
    <circle
       style="fill:#b0b0b0;fill-opacity:1;stroke:none;stroke-width:2;stroke-dasharray:none;stroke-opacity:1"
       id="circle5297"
       cx="42.12748"
       cy="124.80066"
       r="4.5660634" />
    <circle
       style="fill:#b0b0b0;fill-opacity:1;stroke:none;stroke-width:2;stroke-dasharray:none;stroke-opacity:1"
       id="circle5299"
       cx="52.710815"
       cy="124.80066"
       r="4.5660634" />
    <circle
       style="fill:#b0b0b0;fill-opacity:1;stroke:none;stroke-width:2;stroke-dasharray:none;stroke-opacity:1"
       id="circle5301"
       cx="63.294147"
       cy="124.80066"
       r="4.5660634" />
    <circle
       style="fill:#b0b0b0;fill-opacity:1;stroke:none;stroke-width:2;stroke-dasharray:none;stroke-opacity:1"
       id="circle5303"
       cx="73.87748"
       cy="124.80066"
       r="4.5660634" />
    <circle
       style="fill:#909090;fill-opacity:1;stroke:none;stroke-width:2;stroke-dasharray:none;stroke-opacity:1"
       id="circle5327"
       cx="31.544146"
       cy="98.342339"
       r="4.5660634" />
    <circle
       style="fill:#909090;fill-opacity:1;stroke:none;stroke-width:2;stroke-dasharray:none;stroke-opacity:1"
       id="circle5329"
       cx="42.12748"
       cy="98.342339"
       r="4.5660634" />
    <circle
       style="fill:#909090;fill-opacity:1;stroke:none;stroke-width:2;stroke-dasharray:none;stroke-opacity:1"
       id="circle5331"
       cx="52.710815"
       cy="98.342339"
       r="4.5660634" />
    <circle
       style="fill:#909090;fill-opacity:1;stroke:none;stroke-width:2;stroke-dasharray:none;stroke-opacity:1"
       id="circle5333"
       cx="63.294147"
       cy="98.342339"
       r="4.5660634" />
    <circle
       style="fill:#909090;fill-opacity:1;stroke:none;stroke-width:2;stroke-dasharray:none;stroke-opacity:1"
       id="circle5335"
       cx="73.87748"
       cy="98.342339"
       r="4.5660634" />
    <circle
       style="fill:#707070;fill-opacity:1;stroke:none;stroke-width:2;stroke-dasharray:none;stroke-opacity:1"
       id="circle5359"
       cx="31.544146"
       cy="71.884018"
       r="4.5660634" />
    <circle
       style="fill:#707070;fill-opacity:1;stroke:none;stroke-width:2;stroke-dasharray:none;stroke-opacity:1"
       id="circle5361"
       cx="42.12748"
       cy="71.884018"
       r="4.5660634" />
    <circle
       style="fill:#707070;fill-opacity:1;stroke:none;stroke-width:2;stroke-dasharray:none;stroke-opacity:1"
       id="circle5363"
       cx="52.710815"
       cy="71.884018"
       r="4.5660634" />
    <circle
       style="fill:#707070;fill-opacity:1;stroke:none;stroke-width:2;stroke-dasharray:none;stroke-opacity:1"
       id="circle5365"
       cx="63.294147"
       cy="71.884018"
       r="4.5660634" />
    <circle
       style="fill:#707070;fill-opacity:1;stroke:none;stroke-width:2;stroke-dasharray:none;stroke-opacity:1"
       id="circle5367"
       cx="73.87748"
       cy="71.884018"
       r="4.5660634" />
    <circle
       style="fill:#505050;fill-opacity:1;stroke:none;stroke-width:2;stroke-dasharray:none;stroke-opacity:1"
       id="circle5391"
       cx="31.544146"
       cy="45.425682"
       r="4.5660634" />
    <circle
       style="fill:#505050;fill-opacity:1;stroke:none;stroke-width:2;stroke-dasharray:none;stroke-opacity:1"
       id="circle5393"
       cx="42.12748"
       cy="45.425682"
       r="4.5660634" />
    <circle
       style="fill:#505050;fill-opacity:1;stroke:none;stroke-width:2;stroke-dasharray:none;stroke-opacity:1"
       id="circle5395"
       cx="52.710815"
       cy="45.425682"
       r="4.5660634" />
    <circle
       style="fill:#505050;fill-opacity:1;stroke:none;stroke-width:2;stroke-dasharray:none;stroke-opacity:1"
       id="circle5397"
       cx="63.294147"
       cy="45.425682"
       r="4.5660634" />
    <circle
       style="fill:#505050;fill-opacity:1;stroke:none;stroke-width:2;stroke-dasharray:none;stroke-opacity:1"
       id="circle5399"
       cx="73.87748"
       cy="45.425682"
       r="4.5660634" />
    <text
       xml:space="preserve"
       transform="matrix(0.26458333,0,0,0.26458333,-57.7392,9.10962)"
       id="text10135"
       style="font-weight:500;font-size:26.6667px;font-family:'Fira Math';-inkscape-font-specification:'Fira Math Medium';text-align:justify;white-space:pre;shape-inside:url(#rect10137);display:inline;fill:#505050;fill-opacity:1;stroke:#2e8759;stroke-width:7.55906;stroke-dasharray:15.1181, 7.55906;stroke-dashoffset:0;stroke-opacity:1" />
    <path
       style="fill:#505050;fill-opacity:1;stroke:#2e8759;stroke-width:1.6842;stroke-dasharray:3.36841, 1.6842;stroke-dashoffset:0;stroke-opacity:1"
       d="M 248.44855,49.991745 V 124.78268"
       id="path14547"
       inkscape:path-effect="#path-effect14599"
       inkscape:original-d="m 248.44855,49.991745 c 2.6e-4,24.9305 0,74.790935 0,74.790935" />
    <path
       style="fill:#505050;fill-opacity:1;stroke:#2e8759;stroke-width:1.6842;stroke-dasharray:3.36841, 1.6842;stroke-dashoffset:0;stroke-opacity:1"
       d="M 216.69853,49.991745 V 124.78268"
       id="path14549"
       inkscape:path-effect="#path-effect14603"
       inkscape:original-d="m 216.69853,49.991745 c 2.6e-4,24.9305 0,74.790935 0,74.790935" />
    <path
       style="fill:#505050;fill-opacity:1;stroke:#2e8759;stroke-width:1.6842;stroke-dasharray:3.36841, 1.6842;stroke-dashoffset:0;stroke-opacity:1"
       d="M 153.19849,49.991745 V 124.78268"
       id="path14551"
       inkscape:path-effect="#path-effect14607"
       inkscape:original-d="m 153.19849,49.991745 c 2.6e-4,24.9305 0,74.790935 0,74.790935" />
    <path
       style="fill:#505050;fill-opacity:1;stroke:#2e8759;stroke-width:1.6842;stroke-dasharray:3.36841, 1.6842;stroke-dashoffset:0;stroke-opacity:1"
       d="M 184.94851,49.991745 V 124.78268"
       id="path14553"
       inkscape:path-effect="#path-effect14611"
       inkscape:original-d="m 184.94851,49.991745 c 2.6e-4,24.9305 0,74.790935 0,74.790935" />
    <path
       style="fill:#505050;fill-opacity:1;stroke:#2e8759;stroke-width:1.6842;stroke-dasharray:3.36841, 1.6842;stroke-dashoffset:0;stroke-opacity:1"
       d="M 121.44847,49.991745 V 124.78268"
       id="path14555"
       inkscape:path-effect="#path-effect14615"
       inkscape:original-d="m 121.44847,49.991745 c 2.6e-4,24.9305 0,74.790935 0,74.790935" />
    <circle
       style="fill:#b0b0b0;fill-opacity:1;stroke:none;stroke-width:2;stroke-dasharray:none;stroke-opacity:1"
       id="circle14557"
       cx="121.50244"
       cy="124.80066"
       r="4.5660634" />
    <circle
       style="fill:#b0b0b0;fill-opacity:1;stroke:none;stroke-width:2;stroke-dasharray:none;stroke-opacity:1"
       id="circle14559"
       cx="153.25247"
       cy="124.80066"
       r="4.5660634" />
    <circle
       style="fill:#b0b0b0;fill-opacity:1;stroke:none;stroke-width:2;stroke-dasharray:none;stroke-opacity:1"
       id="circle14561"
       cx="185.0025"
       cy="124.80066"
       r="4.5660634" />
    <circle
       style="fill:#b0b0b0;fill-opacity:1;stroke:none;stroke-width:2;stroke-dasharray:none;stroke-opacity:1"
       id="circle14563"
       cx="216.75253"
       cy="124.80066"
       r="4.5660634" />
    <circle
       style="fill:#b0b0b0;fill-opacity:1;stroke:none;stroke-width:2;stroke-dasharray:none;stroke-opacity:1"
       id="circle14565"
       cx="248.50256"
       cy="124.80066"
       r="4.5660634" />
    <circle
       style="fill:#909090;fill-opacity:1;stroke:none;stroke-width:2;stroke-dasharray:none;stroke-opacity:1"
       id="circle14567"
       cx="121.50244"
       cy="98.342339"
       r="4.5660634" />
    <circle
       style="fill:#909090;fill-opacity:1;stroke:none;stroke-width:2;stroke-dasharray:none;stroke-opacity:1"
       id="circle14569"
       cx="153.25247"
       cy="98.342339"
       r="4.5660634" />
    <circle
       style="fill:#909090;fill-opacity:1;stroke:none;stroke-width:2;stroke-dasharray:none;stroke-opacity:1"
       id="circle14571"
       cx="185.0025"
       cy="98.342339"
       r="4.5660634" />
    <circle
       style="fill:#909090;fill-opacity:1;stroke:none;stroke-width:2;stroke-dasharray:none;stroke-opacity:1"
       id="circle14573"
       cx="216.75253"
       cy="98.342339"
       r="4.5660634" />
    <circle
       style="fill:#909090;fill-opacity:1;stroke:none;stroke-width:2;stroke-dasharray:none;stroke-opacity:1"
       id="circle14575"
       cx="248.50256"
       cy="98.342339"
       r="4.5660634" />
    <circle
       style="fill:#707070;fill-opacity:1;stroke:none;stroke-width:2;stroke-dasharray:none;stroke-opacity:1"
       id="circle14577"
       cx="121.50244"
       cy="71.884018"
       r="4.5660634" />
    <circle
       style="fill:#707070;fill-opacity:1;stroke:none;stroke-width:2;stroke-dasharray:none;stroke-opacity:1"
       id="circle14579"
       cx="153.25247"
       cy="71.884018"
       r="4.5660634" />
    <circle
       style="fill:#707070;fill-opacity:1;stroke:none;stroke-width:2;stroke-dasharray:none;stroke-opacity:1"
       id="circle14581"
       cx="185.0025"
       cy="71.884018"
       r="4.5660634" />
    <circle
       style="fill:#707070;fill-opacity:1;stroke:none;stroke-width:2;stroke-dasharray:none;stroke-opacity:1"
       id="circle14583"
       cx="216.75253"
       cy="71.884018"
       r="4.5660634" />
    <circle
       style="fill:#707070;fill-opacity:1;stroke:none;stroke-width:2;stroke-dasharray:none;stroke-opacity:1"
       id="circle14585"
       cx="248.50256"
       cy="71.884018"
       r="4.5660634" />
    <circle
       style="fill:#505050;fill-opacity:1;stroke:none;stroke-width:2;stroke-dasharray:none;stroke-opacity:1"
       id="circle14587"
       cx="121.50244"
       cy="45.425682"
       r="4.5660634" />
    <circle
       style="fill:#505050;fill-opacity:1;stroke:none;stroke-width:2;stroke-dasharray:none;stroke-opacity:1"
       id="circle14589"
       cx="153.25247"
       cy="45.425682"
       r="4.5660634" />
    <circle
       style="fill:#505050;fill-opacity:1;stroke:none;stroke-width:2;stroke-dasharray:none;stroke-opacity:1"
       id="circle14591"
       cx="185.0025"
       cy="45.425682"
       r="4.5660634" />
    <circle
       style="fill:#505050;fill-opacity:1;stroke:none;stroke-width:2;stroke-dasharray:none;stroke-opacity:1"
       id="circle14593"
       cx="216.75253"
       cy="45.425682"
       r="4.5660634" />
    <circle
       style="fill:#505050;fill-opacity:1;stroke:none;stroke-width:2;stroke-dasharray:none;stroke-opacity:1"
       id="circle14595"
       cx="248.50256"
       cy="45.425682"
       r="4.5660634" />
    <g
       transform="matrix(4.5861,0,0,4.5861,88.6738,78.3481)"
       ns28:version="1.8.2"
       ns28:texconverter="xelatex"
       ns28:pdfconverter="inkscape"
       ns28:text="$=$"
       ns28:preamble="/home/kirito/.config/textext/beamer_preamble.tex"
       ns28:scale="13.0"
       ns28:alignment="middle center"
       ns28:stroke-to-path="0"
       ns28:inkscapeversion="1.2.2"
       ns28:jacobian_sqrt="4.5861"
       id="g14468">
      <defs
         id="id-7e35e188-e16e-49f9-a09f-7e7fd48d26e1">
        <g
           id="id-04ef23ab-d06e-42dd-84df-36eb67645e69">
          <g
             id="id-76bfb553-37c5-4eb6-8fb1-6ba6757ab8c1">
            <path
               d="m 5.4375,-6.4375 v 5.890625 H 1.34375 V -6.4375 Z m 0.546875,-0.546875 h -5.1875 V 0 h 5.1875 z m -2.75,4.953125 c -0.21875,0 -0.40625,0.1875 -0.40625,0.421875 0,0.21875 0.1875,0.40625 0.40625,0.40625 0.25,0 0.421875,-0.1875 0.421875,-0.40625 0,-0.234375 -0.171875,-0.421875 -0.421875,-0.421875 z M 3.4375,-5.453125 c -0.5,0 -0.90625,0.1875 -1.25,0.59375 l 0.390625,0.28125 C 2.828125,-4.875 3.09375,-5 3.40625,-5 3.765625,-5 4,-4.8125 4,-4.484375 4,-3.84375 2.953125,-3.953125 2.953125,-2.9375 v 0.296875 H 3.5 V -2.90625 c 0,-0.796875 1.078125,-0.65625 1.078125,-1.625 0,-0.46875 -0.375,-0.921875 -1.140625,-0.921875 z m 0,0"
               id="id-78f16f3d-b5b6-4656-8496-24a92e74d368" />
          </g>
          <g
             id="id-b2d6da7a-900b-4734-ba61-8c0712581b6a">
            <path
               d="M 0.625,-1.453125 H 4.359375 V -2.21875 H 0.625 Z m 0,-1.921875 h 3.734375 v -0.75 H 0.625 Z m 0,0"
               id="id-81f76532-aa57-4f93-aecd-1ececce37b54" />
          </g>
        </g>
      </defs>
      <g
         fill="#000000"
         fill-opacity="1"
         id="id-a5a1e0a7-5f7a-4f3e-a79c-8db94fc37a16"
         transform="translate(-149.337,-130.64)">
        <g
           transform="translate(148.712,134.765)"
           id="g15035">
          <path
             d="M 0.625,-1.453125 H 4.359375 V -2.21875 H 0.625 Z m 0,-1.921875 h 3.734375 v -0.75 H 0.625 Z m 0,0"
             id="id-9aae32a3-d1f4-4e73-b958-a58516fd54ed" />
        </g>
      </g>
    </g>
    <g
       transform="matrix(3.52777,0,0,3.52777,130.867,77.8614)"
       ns28:version="1.8.2"
       ns28:texconverter="xelatex"
       ns28:pdfconverter="inkscape"
       ns28:text="$+$"
       ns28:preamble="/home/kirito/.config/textext/beamer_preamble.tex"
       ns28:scale="10.0"
       ns28:alignment="middle center"
       ns28:stroke-to-path="0"
       ns28:inkscapeversion="1.2.2"
       ns28:jacobian_sqrt="3.52777"
       id="g14635">
      <defs
         id="id-72530f8c-6bcd-48e9-8e33-ffc86165d3e7">
        <g
           id="id-5712d1b4-1c48-4a11-956b-9d025c6cd0ec">
          <g
             id="id-09efeb36-68b4-4d10-9095-d0b658cb8bee">
            <path
               d="m 5.4375,-6.4375 v 5.890625 H 1.34375 V -6.4375 Z m 0.546875,-0.546875 h -5.1875 V 0 h 5.1875 z m -2.75,4.953125 c -0.21875,0 -0.40625,0.1875 -0.40625,0.421875 0,0.21875 0.1875,0.40625 0.40625,0.40625 0.25,0 0.421875,-0.1875 0.421875,-0.40625 0,-0.234375 -0.171875,-0.421875 -0.421875,-0.421875 z M 3.4375,-5.453125 c -0.5,0 -0.90625,0.1875 -1.25,0.59375 l 0.390625,0.28125 C 2.828125,-4.875 3.09375,-5 3.40625,-5 3.765625,-5 4,-4.8125 4,-4.484375 4,-3.84375 2.953125,-3.953125 2.953125,-2.9375 v 0.296875 H 3.5 V -2.90625 c 0,-0.796875 1.078125,-0.65625 1.078125,-1.625 0,-0.46875 -0.375,-0.921875 -1.140625,-0.921875 z m 0,0"
               id="id-8569d383-fe92-43fb-b890-985f79298628" />
          </g>
          <g
             id="id-2ddd2037-5a21-47c9-a006-f1192024dfae">
            <path
               d="M 2.90625,-4.671875 H 2.078125 v 1.5 H 0.625 v 0.765625 h 1.453125 v 1.484375 H 2.90625 V -2.40625 H 4.359375 V -3.171875 H 2.90625 Z m 0,0"
               id="id-05de8fd0-cb12-4468-9759-693687a7a1e4" />
          </g>
        </g>
      </defs>
      <g
         fill="#000000"
         fill-opacity="1"
         id="id-758dd812-87c9-4b66-8626-3ef2840d6f26"
         transform="translate(-149.337,-130.093)">
        <g
           transform="translate(148.712,134.765)"
           id="g15449">
          <path
             d="M 2.90625,-4.671875 H 2.078125 v 1.5 H 0.625 v 0.765625 h 1.453125 v 1.484375 H 2.90625 V -2.40625 H 4.359375 V -3.171875 H 2.90625 Z m 0,0"
             id="id-78438aa8-948c-40ef-ab06-5435d66bff1a" />
        </g>
      </g>
    </g>
    <g
       transform="matrix(3.52777,0,0,3.52777,162.61702,77.8614)"
       ns28:version="1.8.2"
       ns28:texconverter="xelatex"
       ns28:pdfconverter="inkscape"
       ns28:text="$+$"
       ns28:preamble="/home/kirito/.config/textext/beamer_preamble.tex"
       ns28:scale="10.0"
       ns28:alignment="middle center"
       ns28:stroke-to-path="0"
       ns28:inkscapeversion="1.2.2"
       ns28:jacobian_sqrt="3.52777"
       id="g15483">
      <defs
         id="defs15475">
        <g
           id="g15473">
          <g
             id="g15467">
            <path
               d="m 5.4375,-6.4375 v 5.890625 H 1.34375 V -6.4375 Z m 0.546875,-0.546875 h -5.1875 V 0 h 5.1875 z m -2.75,4.953125 c -0.21875,0 -0.40625,0.1875 -0.40625,0.421875 0,0.21875 0.1875,0.40625 0.40625,0.40625 0.25,0 0.421875,-0.1875 0.421875,-0.40625 0,-0.234375 -0.171875,-0.421875 -0.421875,-0.421875 z M 3.4375,-5.453125 c -0.5,0 -0.90625,0.1875 -1.25,0.59375 l 0.390625,0.28125 C 2.828125,-4.875 3.09375,-5 3.40625,-5 3.765625,-5 4,-4.8125 4,-4.484375 4,-3.84375 2.953125,-3.953125 2.953125,-2.9375 v 0.296875 H 3.5 V -2.90625 c 0,-0.796875 1.078125,-0.65625 1.078125,-1.625 0,-0.46875 -0.375,-0.921875 -1.140625,-0.921875 z m 0,0"
               id="path15465" />
          </g>
          <g
             id="g15471">
            <path
               d="M 2.90625,-4.671875 H 2.078125 v 1.5 H 0.625 v 0.765625 h 1.453125 v 1.484375 H 2.90625 V -2.40625 H 4.359375 V -3.171875 H 2.90625 Z m 0,0"
               id="path15469" />
          </g>
        </g>
      </defs>
      <g
         fill="#000000"
         fill-opacity="1"
         id="g15481"
         transform="translate(-149.337,-130.093)">
        <g
           transform="translate(148.712,134.765)"
           id="g15479">
          <path
             d="M 2.90625,-4.671875 H 2.078125 v 1.5 H 0.625 v 0.765625 h 1.453125 v 1.484375 H 2.90625 V -2.40625 H 4.359375 V -3.171875 H 2.90625 Z m 0,0"
             id="path15477" />
        </g>
      </g>
    </g>
    <g
       transform="matrix(3.52777,0,0,3.52777,194.36704,77.8614)"
       ns28:version="1.8.2"
       ns28:texconverter="xelatex"
       ns28:pdfconverter="inkscape"
       ns28:text="$+$"
       ns28:preamble="/home/kirito/.config/textext/beamer_preamble.tex"
       ns28:scale="10.0"
       ns28:alignment="middle center"
       ns28:stroke-to-path="0"
       ns28:inkscapeversion="1.2.2"
       ns28:jacobian_sqrt="3.52777"
       id="g15503">
      <defs
         id="defs15495">
        <g
           id="g15493">
          <g
             id="g15487">
            <path
               d="m 5.4375,-6.4375 v 5.890625 H 1.34375 V -6.4375 Z m 0.546875,-0.546875 h -5.1875 V 0 h 5.1875 z m -2.75,4.953125 c -0.21875,0 -0.40625,0.1875 -0.40625,0.421875 0,0.21875 0.1875,0.40625 0.40625,0.40625 0.25,0 0.421875,-0.1875 0.421875,-0.40625 0,-0.234375 -0.171875,-0.421875 -0.421875,-0.421875 z M 3.4375,-5.453125 c -0.5,0 -0.90625,0.1875 -1.25,0.59375 l 0.390625,0.28125 C 2.828125,-4.875 3.09375,-5 3.40625,-5 3.765625,-5 4,-4.8125 4,-4.484375 4,-3.84375 2.953125,-3.953125 2.953125,-2.9375 v 0.296875 H 3.5 V -2.90625 c 0,-0.796875 1.078125,-0.65625 1.078125,-1.625 0,-0.46875 -0.375,-0.921875 -1.140625,-0.921875 z m 0,0"
               id="path15485" />
          </g>
          <g
             id="g15491">
            <path
               d="M 2.90625,-4.671875 H 2.078125 v 1.5 H 0.625 v 0.765625 h 1.453125 v 1.484375 H 2.90625 V -2.40625 H 4.359375 V -3.171875 H 2.90625 Z m 0,0"
               id="path15489" />
          </g>
        </g>
      </defs>
      <g
         fill="#000000"
         fill-opacity="1"
         id="g15501"
         transform="translate(-149.337,-130.093)">
        <g
           transform="translate(148.712,134.765)"
           id="g15499">
          <path
             d="M 2.90625,-4.671875 H 2.078125 v 1.5 H 0.625 v 0.765625 h 1.453125 v 1.484375 H 2.90625 V -2.40625 H 4.359375 V -3.171875 H 2.90625 Z m 0,0"
             id="path15497" />
        </g>
      </g>
    </g>
    <g
       transform="matrix(3.52777,0,0,3.52777,226.11706,77.8614)"
       ns28:version="1.8.2"
       ns28:texconverter="xelatex"
       ns28:pdfconverter="inkscape"
       ns28:text="$+$"
       ns28:preamble="/home/kirito/.config/textext/beamer_preamble.tex"
       ns28:scale="10.0"
       ns28:alignment="middle center"
       ns28:stroke-to-path="0"
       ns28:inkscapeversion="1.2.2"
       ns28:jacobian_sqrt="3.52777"
       id="g15523">
      <defs
         id="defs15515">
        <g
           id="g15513">
          <g
             id="g15507">
            <path
               d="m 5.4375,-6.4375 v 5.890625 H 1.34375 V -6.4375 Z m 0.546875,-0.546875 h -5.1875 V 0 h 5.1875 z m -2.75,4.953125 c -0.21875,0 -0.40625,0.1875 -0.40625,0.421875 0,0.21875 0.1875,0.40625 0.40625,0.40625 0.25,0 0.421875,-0.1875 0.421875,-0.40625 0,-0.234375 -0.171875,-0.421875 -0.421875,-0.421875 z M 3.4375,-5.453125 c -0.5,0 -0.90625,0.1875 -1.25,0.59375 l 0.390625,0.28125 C 2.828125,-4.875 3.09375,-5 3.40625,-5 3.765625,-5 4,-4.8125 4,-4.484375 4,-3.84375 2.953125,-3.953125 2.953125,-2.9375 v 0.296875 H 3.5 V -2.90625 c 0,-0.796875 1.078125,-0.65625 1.078125,-1.625 0,-0.46875 -0.375,-0.921875 -1.140625,-0.921875 z m 0,0"
               id="path15505" />
          </g>
          <g
             id="g15511">
            <path
               d="M 2.90625,-4.671875 H 2.078125 v 1.5 H 0.625 v 0.765625 h 1.453125 v 1.484375 H 2.90625 V -2.40625 H 4.359375 V -3.171875 H 2.90625 Z m 0,0"
               id="path15509" />
          </g>
        </g>
      </defs>
      <g
         fill="#000000"
         fill-opacity="1"
         id="g15521"
         transform="translate(-149.337,-130.093)">
        <g
           transform="translate(148.712,134.765)"
           id="g15519">
          <path
             d="M 2.90625,-4.671875 H 2.078125 v 1.5 H 0.625 v 0.765625 h 1.453125 v 1.484375 H 2.90625 V -2.40625 H 4.359375 V -3.171875 H 2.90625 Z m 0,0"
             id="path15517" />
        </g>
      </g>
    </g>
  </g>
</svg>
