<?xml version="1.0" encoding="UTF-8" standalone="no"?>
<!-- Created with Inkscape (http://www.inkscape.org/) -->

<svg
   width="157.04463mm"
   height="92.354706mm"
   viewBox="0 0 157.04463 92.354706"
   version="1.1"
   id="svg231863"
   xml:space="preserve"
   sodipodi:docname="IQHE.svg"
   inkscape:version="1.2.2 (b0a8486541, 2022-12-01)"
   xmlns:inkscape="http://www.inkscape.org/namespaces/inkscape"
   xmlns:sodipodi="http://sodipodi.sourceforge.net/DTD/sodipodi-0.dtd"
   xmlns="http://www.w3.org/2000/svg"
   xmlns:svg="http://www.w3.org/2000/svg"
   xmlns:ns28="http://www.iki.fi/pav/software/textext/"><sodipodi:namedview
     id="namedview231865"
     pagecolor="#ffffff"
     bordercolor="#cccccc"
     borderopacity="1"
     inkscape:showpageshadow="0"
     inkscape:pageopacity="1"
     inkscape:pagecheckerboard="0"
     inkscape:deskcolor="#d1d1d1"
     inkscape:document-units="mm"
     showgrid="false"
     inkscape:zoom="0.82314815"
     inkscape:cx="299.46007"
     inkscape:cy="507.80652"
     inkscape:window-width="1920"
     inkscape:window-height="1170"
     inkscape:window-x="0"
     inkscape:window-y="0"
     inkscape:window-maximized="1"
     inkscape:current-layer="layer1" /><defs
     id="defs231860"><marker
       style="overflow:visible"
       id="RoundedArrow"
       refX="0"
       refY="0"
       orient="auto-start-reverse"
       inkscape:stockid="RoundedArrow"
       markerWidth="3.135"
       markerHeight="3.0306199"
       viewBox="0 0 6.1347524 5.9304951"
       inkscape:isstock="true"
       inkscape:collect="always"
       preserveAspectRatio="xMidYMid"><path
         transform="scale(0.7)"
         d="m -0.21114562,-4.1055728 6.42229122,3.21114561 a 1,1 90 0 1 0,1.78885438 L -0.21114562,4.1055728 A 1.236068,1.236068 31.717474 0 1 -2,3 v -6 a 1.236068,1.236068 148.28253 0 1 1.78885438,-1.1055728 z"
         style="fill:context-stroke;fill-rule:evenodd;stroke:none"
         id="path1367" /></marker><inkscape:path-effect
       effect="spiro"
       id="path-effect233607"
       is_visible="true"
       lpeversion="1" /><inkscape:path-effect
       effect="spiro"
       id="path-effect233547"
       is_visible="true"
       lpeversion="1" /></defs><g
     inkscape:label="Layer 1"
     inkscape:groupmode="layer"
     id="layer1"
     transform="translate(-10.985134,-40.717974)"><path
       style="fill:none;fill-opacity:1;stroke:#b35e6d;stroke-width:5;stroke-linejoin:bevel;stroke-dasharray:none;stroke-opacity:1;marker-end:url(#RoundedArrow);paint-order:markers stroke fill"
       d="M 72.632813,133.07268 V 92.503627"
       id="path233545"
       inkscape:path-effect="#path-effect233547"
       inkscape:original-d="m 72.632813,133.07268 c 2.64e-4,-13.578 0,-40.569053 0,-40.569053" /><rect
       style="fill:#4794c6;fill-opacity:1;stroke:none;stroke-width:5.60482;stroke-linejoin:bevel;stroke-dasharray:none;stroke-opacity:1;paint-order:markers stroke fill"
       id="rect231919"
       width="75.476044"
       height="72.272583"
       x="130.78426"
       y="95.168449"
       transform="matrix(0.99999922,-0.00124954,-0.71546991,0.69864355,0,0)" /><g
       transform="matrix(1.904752,0,0,1.904752,80.209363,40.718212)"
       ns28:version="1.8.2"
       ns28:texconverter="xelatex"
       ns28:pdfconverter="inkscape"
       ns28:text="$\\vec B$"
       ns28:preamble="/home/kirito/.config/textext/beamer_preamble.tex"
       ns28:scale="3.0"
       ns28:alignment="middle center"
       ns28:stroke-to-path="0"
       ns28:jacobian_sqrt="1.05833"
       id="g233745"
       style="fill:#404040;fill-opacity:1;stroke:none;stroke-opacity:1"><defs
   id="id-ef5b2f6c-a919-444c-b5c8-00f95e528a11">
    <g
   id="id-3229412f-7ac5-4174-8ff2-fae7d086dc0a">
      <g
   id="id-a251edac-f18c-4b87-8edf-ce7391898eb5">
        <path
   d="m 5.4375,-6.4375 v 5.890625 H 1.34375 V -6.4375 Z m 0.546875,-0.546875 h -5.1875 V 0 h 5.1875 z m -2.75,4.953125 c -0.21875,0 -0.40625,0.1875 -0.40625,0.421875 0,0.21875 0.1875,0.40625 0.40625,0.40625 0.25,0 0.421875,-0.1875 0.421875,-0.40625 0,-0.234375 -0.171875,-0.421875 -0.421875,-0.421875 z M 3.4375,-5.453125 c -0.5,0 -0.90625,0.1875 -1.25,0.59375 l 0.390625,0.28125 C 2.828125,-4.875 3.09375,-5 3.40625,-5 3.765625,-5 4,-4.8125 4,-4.484375 4,-3.84375 2.953125,-3.953125 2.953125,-2.9375 v 0.296875 H 3.5 V -2.90625 c 0,-0.796875 1.078125,-0.65625 1.078125,-1.625 0,-0.46875 -0.375,-0.921875 -1.140625,-0.921875 z m 0,0"
   id="id-71d9b71c-ad8b-49ce-b18d-da901a7b84c9" />
      </g>
      <g
   id="id-5da22a78-ac4d-4ffb-a35c-4b0a013665a1">
        <path
   d="m -1.421875,-8.203125 -0.375,0.34375 0.5,0.546875 h -2.59375 v 0.609375 h 2.59375 l -0.5,0.546875 0.375,0.34375 1.125,-1.1875 z m 0,0"
   id="id-f4b0a44a-3392-44c7-a560-a2dd2742809f" />
      </g>
      <g
   id="id-618786f5-0180-4ac9-82f6-17593a8c3259">
        <path
   d="m 2.546875,-0.75 h -0.875 l 0.34375,-2.484375 H 3.15625 C 3.890625,-3.234375 4.5,-3 4.5,-2.21875 4.5,-1.390625 4.09375,-0.75 2.546875,-0.75 Z m 0.96875,-5.375 c 0.609375,0 1.15625,0.15625 1.15625,0.828125 0,0.9375 -0.71875,1.34375 -1.546875,1.34375 H 2.109375 L 2.40625,-6.125 Z m 0.578125,2.5 C 4.921875,-3.796875 5.625,-4.359375 5.625,-5.328125 5.625,-6.390625 4.71875,-6.875 3.484375,-6.875 H 1.578125 L 0.625,0 h 1.890625 c 2.25,0 2.96875,-0.984375 2.96875,-2.1875 0,-0.96875 -0.671875,-1.3125 -1.390625,-1.4375 z m 0,0"
   id="id-88b869d7-520f-4032-9ddf-fb169a5c12c5" />
      </g>
    </g>
  </defs>
  <g
   fill="#000000"
   fill-opacity="1"
   id="id-e85e06b5-4c5a-41f0-8061-d2bb3fa2ede6"
   transform="translate(-149.337,-124.948)"
   style="fill:#404040;fill-opacity:1;stroke:none;stroke-opacity:1">
    <g
   transform="translate(154.082,133.151)"
   id="g233738"
   style="fill:#404040;fill-opacity:1;stroke:none;stroke-opacity:1"><path
   d="m -1.421875,-8.203125 -0.375,0.34375 0.5,0.546875 h -2.59375 v 0.609375 h 2.59375 l -0.5,0.546875 0.375,0.34375 1.125,-1.1875 z m 0,0"
   id="id-4f7ec1c9-3b49-484e-9957-61da801ccd7e"
   style="fill:#404040;fill-opacity:1;stroke:none;stroke-opacity:1" />
      </g></g>
  <g
   fill="#000000"
   fill-opacity="1"
   id="id-26e1f7dc-9ee7-4c4b-b981-e5b291d57513"
   transform="translate(-149.337,-124.948)"
   style="fill:#404040;fill-opacity:1;stroke:none;stroke-opacity:1">
    <g
   transform="translate(148.712,134.765)"
   id="g233742"
   style="fill:#404040;fill-opacity:1;stroke:none;stroke-opacity:1"><path
   d="m 2.546875,-0.75 h -0.875 l 0.34375,-2.484375 H 3.15625 C 3.890625,-3.234375 4.5,-3 4.5,-2.21875 4.5,-1.390625 4.09375,-0.75 2.546875,-0.75 Z m 0.96875,-5.375 c 0.609375,0 1.15625,0.15625 1.15625,0.828125 0,0.9375 -0.71875,1.34375 -1.546875,1.34375 H 2.109375 L 2.40625,-6.125 Z m 0.578125,2.5 C 4.921875,-3.796875 5.625,-4.359375 5.625,-5.328125 5.625,-6.390625 4.71875,-6.875 3.484375,-6.875 H 1.578125 L 0.625,0 h 1.890625 c 2.25,0 2.96875,-0.984375 2.96875,-2.1875 0,-0.96875 -0.671875,-1.3125 -1.390625,-1.4375 z m 0,0"
   id="id-5b35c0d0-17fa-4881-9375-9413d82166da"
   style="fill:#404040;fill-opacity:1;stroke:none;stroke-opacity:1" />
      </g></g>
</g><ellipse
       style="fill:#404040;fill-opacity:1;stroke:none;stroke-width:4.99999;stroke-linejoin:bevel;stroke-dasharray:none;stroke-opacity:1;paint-order:markers stroke fill"
       id="path233824"
       cx="22.649429"
       cy="106.73923"
       rx="5.705296"
       ry="5.6040182" /><ellipse
       style="fill:#404040;fill-opacity:1;stroke:none;stroke-width:4.99999;stroke-linejoin:bevel;stroke-dasharray:none;stroke-opacity:1;paint-order:markers stroke fill"
       id="ellipse233826"
       cx="43.816097"
       cy="106.73923"
       rx="5.705296"
       ry="5.6040182" /><ellipse
       style="fill:#404040;fill-opacity:1;stroke:none;stroke-width:4.99999;stroke-linejoin:bevel;stroke-dasharray:none;stroke-opacity:1;paint-order:markers stroke fill"
       id="ellipse233828"
       cx="64.982765"
       cy="106.73923"
       rx="5.705296"
       ry="5.6040182" /><ellipse
       style="fill:#404040;fill-opacity:1;stroke:none;stroke-width:4.99999;stroke-linejoin:bevel;stroke-dasharray:none;stroke-opacity:1;paint-order:markers stroke fill"
       id="ellipse233830"
       cx="86.149422"
       cy="106.73923"
       rx="5.705296"
       ry="5.6040182" /><ellipse
       style="fill:#404040;fill-opacity:1;stroke:none;stroke-width:4.99999;stroke-linejoin:bevel;stroke-dasharray:none;stroke-opacity:1;paint-order:markers stroke fill"
       id="ellipse233832"
       cx="41.170261"
       cy="90.864235"
       rx="5.705296"
       ry="5.6040182" /><ellipse
       style="fill:#404040;fill-opacity:1;stroke:none;stroke-width:4.99999;stroke-linejoin:bevel;stroke-dasharray:none;stroke-opacity:1;paint-order:markers stroke fill"
       id="ellipse233834"
       cx="62.336929"
       cy="90.864235"
       rx="5.705296"
       ry="5.6040182" /><ellipse
       style="fill:#404040;fill-opacity:1;stroke:none;stroke-width:4.99999;stroke-linejoin:bevel;stroke-dasharray:none;stroke-opacity:1;paint-order:markers stroke fill"
       id="ellipse233836"
       cx="83.503586"
       cy="90.864235"
       rx="5.705296"
       ry="5.6040182" /><ellipse
       style="fill:#404040;fill-opacity:1;stroke:none;stroke-width:4.99999;stroke-linejoin:bevel;stroke-dasharray:none;stroke-opacity:1;paint-order:markers stroke fill"
       id="ellipse233838"
       cx="104.67023"
       cy="90.864235"
       rx="5.705296"
       ry="5.6040182" /><ellipse
       style="fill:#404040;fill-opacity:1;stroke:none;stroke-width:4.99999;stroke-linejoin:bevel;stroke-dasharray:none;stroke-opacity:1;paint-order:markers stroke fill"
       id="ellipse233840"
       cx="57.045265"
       cy="74.989243"
       rx="5.705296"
       ry="5.6040182" /><ellipse
       style="fill:#404040;fill-opacity:1;stroke:none;stroke-width:4.99999;stroke-linejoin:bevel;stroke-dasharray:none;stroke-opacity:1;paint-order:markers stroke fill"
       id="ellipse233842"
       cx="78.211922"
       cy="74.989243"
       rx="5.705296"
       ry="5.6040182" /><ellipse
       style="fill:#404040;fill-opacity:1;stroke:none;stroke-width:4.99999;stroke-linejoin:bevel;stroke-dasharray:none;stroke-opacity:1;paint-order:markers stroke fill"
       id="ellipse233844"
       cx="99.378578"
       cy="74.989243"
       rx="5.705296"
       ry="5.6040182" /><ellipse
       style="fill:#404040;fill-opacity:1;stroke:none;stroke-width:4.99999;stroke-linejoin:bevel;stroke-dasharray:none;stroke-opacity:1;paint-order:markers stroke fill"
       id="ellipse233846"
       cx="120.54523"
       cy="74.989243"
       rx="5.705296"
       ry="5.6040182" /><path
       style="fill:none;fill-opacity:1;stroke:#b35e6d;stroke-width:5;stroke-linejoin:bevel;stroke-dasharray:none;stroke-opacity:1;marker-end:url(#RoundedArrow);paint-order:markers stroke fill"
       d="M 72.632813,92.503627 V 61.125243"
       id="path233603"
       inkscape:path-effect="#path-effect233607"
       inkscape:original-d="m 72.632813,92.503627 c 2.64e-4,-10.501988 0,-31.378384 0,-31.378384" /><g
       transform="matrix(1.05833,0,0,1.05833,95.744233,99.349951)"
       ns28:version="1.8.2"
       ns28:texconverter="xelatex"
       ns28:pdfconverter="inkscape"
       ns28:text="2D electron gas"
       ns28:preamble="/home/kirito/.config/textext/beamer_preamble.tex"
       ns28:scale="3.0"
       ns28:alignment="middle center"
       ns28:stroke-to-path="0"
       ns28:inkscapeversion="1.2.2"
       ns28:jacobian_sqrt="1.05833"
       id="g234801"
       style="fill:#404040;fill-opacity:1"><defs
   id="id-22453f6f-99cb-4260-b1d5-98ac5b1f8503">
    <g
   id="id-c3d77bee-7d71-4e3a-af9a-bc7f5c825def">
      <g
   id="id-f349181f-82c3-49cf-b7ad-ffb2ed5fd6c8">
        <path
   d="M 5.40625,-10.46875 V 3.484375 H 1.21875 V -10.46875 Z M 4.875,-9.953125 H 1.78125 V 2.96875 H 4.875 Z M 3.234375,-4.5 c 0.394531,0 0.675781,0.109375 0.84375,0.328125 0.175781,0.210937 0.265625,0.484375 0.265625,0.828125 0,0.34375 -0.078125,0.617188 -0.234375,0.8125 -0.148437,0.1875 -0.386719,0.308594 -0.71875,0.359375 v 0.453125 c 0,0.074219 -0.027344,0.132812 -0.078125,0.171875 -0.054688,0.042969 -0.109375,0.0625 -0.171875,0.0625 -0.0625,0 -0.121094,-0.019531 -0.171875,-0.0625 C 2.914062,-1.585938 2.890625,-1.644531 2.890625,-1.71875 V -2.5625 c 0.351563,-0.019531 0.59375,-0.082031 0.71875,-0.1875 0.125,-0.113281 0.1875,-0.304688 0.1875,-0.578125 0,-0.21875 -0.046875,-0.382813 -0.140625,-0.5 -0.085938,-0.125 -0.242188,-0.1875 -0.46875,-0.1875 -0.1875,0 -0.359375,0.039063 -0.515625,0.109375 -0.054687,0.023438 -0.09375,0.03125 -0.125,0.03125 -0.074219,0 -0.136719,-0.019531 -0.1875,-0.0625 -0.042969,-0.039062 -0.0625,-0.097656 -0.0625,-0.171875 0,-0.125 0.097656,-0.21875 0.296875,-0.28125 C 2.789062,-4.460938 3.003906,-4.5 3.234375,-4.5 Z m -0.09375,3.296875 c 0.101563,0 0.1875,0.039063 0.25,0.109375 0.0625,0.0625 0.09375,0.148438 0.09375,0.25 0,0.105469 -0.03125,0.195312 -0.09375,0.265625 -0.0625,0.0625 -0.148437,0.09375 -0.25,0.09375 -0.105469,0 -0.1875,-0.03125 -0.25,-0.09375 -0.0625,-0.070313 -0.09375,-0.160156 -0.09375,-0.265625 0,-0.101562 0.03125,-0.1875 0.09375,-0.25 0.0625,-0.070312 0.144531,-0.109375 0.25,-0.109375 z m 0,0"
   id="id-8477a454-34ed-4612-97a1-a017bcd2b000" />
      </g>
      <g
   id="id-b762fb06-04f7-45a0-865d-86aa6cc35b96">
        <path
   d="m 2.265625,-6.765625 c 0.40625,0 0.757813,0.078125 1.0625,0.234375 0.300781,0.15625 0.535156,0.375 0.703125,0.65625 0.164062,0.273438 0.25,0.585938 0.25,0.9375 C 4.28125,-4.539062 4.1875,-4.15625 4,-3.78125 3.820312,-3.40625 3.539062,-3 3.15625,-2.5625 2.78125,-2.132812 2.207031,-1.535156 1.4375,-0.765625 h 3 L 4.328125,0 h -3.9375 V -0.734375 C 1.273438,-1.648438 1.90625,-2.320312 2.28125,-2.75 2.65625,-3.1875 2.921875,-3.5625 3.078125,-3.875 3.234375,-4.195312 3.3125,-4.539062 3.3125,-4.90625 3.3125,-5.25 3.210938,-5.519531 3.015625,-5.71875 2.816406,-5.914062 2.550781,-6.015625 2.21875,-6.015625 c -0.273438,0 -0.511719,0.058594 -0.71875,0.171875 -0.199219,0.117188 -0.417969,0.304688 -0.65625,0.5625 L 0.25,-5.765625 c 0.269531,-0.332031 0.570312,-0.582031 0.90625,-0.75 0.332031,-0.164063 0.703125,-0.25 1.109375,-0.25 z m 0,0"
   id="id-07567009-cc83-449f-975c-c2bb739925e9" />
      </g>
      <g
   id="id-c1f0c9d1-fcdc-4636-bb8f-066de50a7d0a">
        <path
   d="m 2.4375,-6.875 c 1.03125,0 1.859375,0.246094 2.484375,0.734375 0.632813,0.480469 0.953125,1.371094 0.953125,2.671875 0,1.273438 -0.320312,2.167969 -0.953125,2.6875 C 4.296875,-0.257812 3.535156,0 2.640625,0 H 1 v -6.875 z m -0.5,0.765625 V -0.75 h 0.78125 c 0.632812,0 1.148438,-0.191406 1.546875,-0.578125 0.394531,-0.394531 0.59375,-1.109375 0.59375,-2.140625 0,-0.726562 -0.105469,-1.285156 -0.3125,-1.671875 -0.199219,-0.382813 -0.460937,-0.640625 -0.78125,-0.765625 -0.3125,-0.132812 -0.6875,-0.203125 -1.125,-0.203125 z m 0,0"
   id="id-335416d9-a0f5-47b2-851b-84a7da242851" />
      </g>
      <g
   id="id-da40823c-5f0c-4c2c-a474-1d13f6e81bc1">
        <path
   d="m 4.921875,-2.78125 c 0,0.15625 -0.011719,0.3125 -0.03125,0.46875 h -3.34375 c 0.039063,0.574219 0.1875,1 0.4375,1.28125 0.25,0.273438 0.570313,0.40625 0.96875,0.40625 0.257813,0 0.492187,-0.035156 0.703125,-0.109375 C 3.875,-0.804688 4.097656,-0.925781 4.328125,-1.09375 l 0.390625,0.5625 C 4.164062,-0.09375 3.554688,0.125 2.890625,0.125 2.160156,0.125 1.585938,-0.113281 1.171875,-0.59375 0.765625,-1.070312 0.5625,-1.734375 0.5625,-2.578125 c 0,-0.539063 0.085938,-1.019531 0.265625,-1.4375 0.175781,-0.425781 0.425781,-0.757813 0.75,-1 C 1.910156,-5.253906 2.300781,-5.375 2.75,-5.375 c 0.695312,0 1.234375,0.230469 1.609375,0.6875 0.375,0.460938 0.5625,1.09375 0.5625,1.90625 z M 4,-3.046875 c 0,-0.519531 -0.105469,-0.914063 -0.3125,-1.1875 -0.199219,-0.269531 -0.507812,-0.40625 -0.921875,-0.40625 -0.75,0 -1.15625,0.554687 -1.21875,1.65625 H 4 Z m 0,0"
   id="id-9c71d48f-4523-4837-9dd6-7cb4ac900c53" />
      </g>
      <g
   id="id-c6ac15c3-8687-4271-94ae-49925d5d9dc8">
        <path
   d="M 2,0.125 C 1.65625,0.125 1.382812,0.0234375 1.1875,-0.171875 0.988281,-0.378906 0.890625,-0.664062 0.890625,-1.03125 v -6.328125 l 0.921875,-0.125 V -1.0625 c 0,0.148438 0.023438,0.257812 0.078125,0.328125 0.050781,0.0625 0.132813,0.09375 0.25,0.09375 0.125,0 0.238281,-0.019531 0.34375,-0.0625 L 2.71875,-0.0625 C 2.5,0.0625 2.257812,0.125 2,0.125 Z m 0,0"
   id="id-b5c86a1e-5139-4167-8b64-41738099eded" />
      </g>
      <g
   id="id-6d5e6c00-df49-481b-9cd6-719cc394e56f">
        <path
   d="m 2.859375,-5.375 c 0.3125,0 0.597656,0.046875 0.859375,0.140625 0.257812,0.085937 0.507812,0.226563 0.75,0.421875 l -0.4375,0.578125 c -0.1875,-0.125 -0.371094,-0.21875 -0.546875,-0.28125 -0.179687,-0.0625 -0.371094,-0.09375 -0.578125,-0.09375 -0.429688,0 -0.761719,0.171875 -1,0.515625 -0.230469,0.335938 -0.34375,0.828125 -0.34375,1.484375 0,0.667969 0.113281,1.164063 0.34375,1.484375 0.226562,0.3125 0.5625,0.46875 1,0.46875 0.195312,0 0.382812,-0.03125 0.5625,-0.09375 0.175781,-0.0625 0.367188,-0.164062 0.578125,-0.3125 L 4.46875,-0.453125 C 3.988281,-0.0664062 3.453125,0.125 2.859375,0.125 2.148438,0.125 1.585938,-0.113281 1.171875,-0.59375 0.765625,-1.070312 0.5625,-1.734375 0.5625,-2.578125 c 0,-0.5625 0.09375,-1.050781 0.28125,-1.46875 0.1875,-0.414063 0.453125,-0.738281 0.796875,-0.96875 0.34375,-0.238281 0.75,-0.359375 1.21875,-0.359375 z m 0,0"
   id="id-18a6e7c7-f578-4302-9235-4b8a08ff3952" />
      </g>
      <g
   id="id-2e405ca7-5021-4629-9121-419ac44e0bd2">
        <path
   d="M 3.59375,-0.234375 C 3.25,0.00390625 2.859375,0.125 2.421875,0.125 1.972656,0.125 1.625,0 1.375,-0.25 1.125,-0.507812 1,-0.882812 1,-1.375 V -4.546875 H 0.09375 V -5.25 H 1 V -6.4375 L 1.921875,-6.546875 V -5.25 h 1.25 l -0.09375,0.703125 h -1.15625 v 3.125 c 0,0.28125 0.046875,0.484375 0.140625,0.609375 0.101562,0.117188 0.265625,0.171875 0.484375,0.171875 0.207031,0 0.441406,-0.066406 0.703125,-0.203125 z m 0,0"
   id="id-d84cc666-9ab5-4fa8-ab59-fb53a91d50ca" />
      </g>
      <g
   id="id-36311c05-01a2-48be-aee6-6ae4c0c873c7">
        <path
   d="m 3.234375,-5.375 c 0.1875,0 0.359375,0.023438 0.515625,0.0625 L 3.578125,-4.421875 C 3.421875,-4.453125 3.269531,-4.46875 3.125,-4.46875 c -0.335938,0 -0.601562,0.121094 -0.796875,0.359375 C 2.128906,-3.878906 1.972656,-3.507812 1.859375,-3 v 3 h -0.90625 v -5.25 h 0.78125 l 0.09375,1.0625 C 1.960938,-4.582031 2.148438,-4.878906 2.390625,-5.078125 2.628906,-5.273438 2.910156,-5.375 3.234375,-5.375 Z m 0,0"
   id="id-7cf012db-0f20-4900-8f60-b0f61e78299c" />
      </g>
      <g
   id="id-b3bb2e81-9e68-48a9-9500-85e9bbe1eaac">
        <path
   d="m 2.921875,-5.375 c 0.738281,0 1.3125,0.25 1.71875,0.75 0.40625,0.492188 0.609375,1.15625 0.609375,2 0,0.542969 -0.09375,1.023438 -0.28125,1.4375 -0.1875,0.417969 -0.460938,0.742188 -0.8125,0.96875 C 3.8125,0.0078125 3.394531,0.125 2.90625,0.125 2.164062,0.125 1.585938,-0.117188 1.171875,-0.609375 0.765625,-1.109375 0.5625,-1.78125 0.5625,-2.625 c 0,-0.539062 0.09375,-1.019531 0.28125,-1.4375 0.1875,-0.414062 0.457031,-0.738281 0.8125,-0.96875 C 2.007812,-5.257812 2.429688,-5.375 2.921875,-5.375 Z m 0,0.734375 c -0.90625,0 -1.359375,0.671875 -1.359375,2.015625 0,1.335938 0.445312,2 1.34375,2 0.90625,0 1.359375,-0.664062 1.359375,-2 0,-1.34375 -0.449219,-2.015625 -1.34375,-2.015625 z m 0,0"
   id="id-6963c27c-19c2-4561-9550-6e848d993991" />
      </g>
      <g
   id="id-b1f3b10f-a184-4a44-80e9-6f9718e2e635">
        <path
   d="m 3.421875,-5.375 c 0.476563,0 0.847656,0.148438 1.109375,0.4375 0.269531,0.28125 0.40625,0.671875 0.40625,1.171875 V 0 H 4.03125 v -3.640625 c 0,-0.375 -0.074219,-0.632813 -0.21875,-0.78125 -0.136719,-0.15625 -0.339844,-0.234375 -0.609375,-0.234375 -0.28125,0 -0.53125,0.085938 -0.75,0.25 -0.210937,0.15625 -0.40625,0.382812 -0.59375,0.671875 V 0 h -0.90625 v -5.25 h 0.78125 L 1.8125,-4.46875 C 2,-4.75 2.226562,-4.96875 2.5,-5.125 c 0.28125,-0.164062 0.585938,-0.25 0.921875,-0.25 z m 0,0"
   id="id-f77bb099-5957-403b-bd1a-fbd00d5f071f" />
      </g>
      <g
   id="id-91585873-586a-4575-bd8e-b03c3a795f17">
        <path
   d="m 5.1875,-5.015625 c -0.199219,0.0625 -0.417969,0.105469 -0.65625,0.125 -0.242188,0.023437 -0.53125,0.03125 -0.875,0.03125 0.613281,0.28125 0.921875,0.726563 0.921875,1.328125 0,0.53125 -0.183594,0.964844 -0.546875,1.296875 C 3.675781,-1.910156 3.191406,-1.75 2.578125,-1.75 c -0.242187,0 -0.464844,-0.03125 -0.671875,-0.09375 -0.085938,0.054688 -0.152344,0.125 -0.203125,0.21875 -0.042969,0.085938 -0.0625,0.171875 -0.0625,0.265625 0,0.292969 0.226563,0.4375 0.6875,0.4375 h 0.84375 c 0.351563,0 0.664063,0.0625 0.9375,0.1875 0.269531,0.125 0.476563,0.296875 0.625,0.515625 C 4.890625,0 4.96875,0.25 4.96875,0.53125 4.96875,1.039062 4.753906,1.429688 4.328125,1.703125 3.910156,1.984375 3.300781,2.125 2.5,2.125 1.9375,2.125 1.488281,2.066406 1.15625,1.953125 0.832031,1.835938 0.597656,1.660156 0.453125,1.421875 0.316406,1.191406 0.25,0.894531 0.25,0.53125 h 0.828125 c 0,0.207031 0.035156,0.375 0.109375,0.5 C 1.269531,1.15625 1.414062,1.25 1.625,1.3125 1.832031,1.375 2.125,1.40625 2.5,1.40625 3.050781,1.40625 3.441406,1.335938 3.671875,1.203125 3.910156,1.066406 4.03125,0.863281 4.03125,0.59375 c 0,-0.25 -0.09375,-0.4375 -0.28125,-0.5625 -0.179688,-0.125 -0.433594,-0.1875 -0.765625,-0.1875 H 2.15625 c -0.449219,0 -0.789062,-0.09375 -1.015625,-0.28125 -0.230469,-0.195312 -0.34375,-0.4375 -0.34375,-0.71875 0,-0.175781 0.046875,-0.34375 0.140625,-0.5 0.101562,-0.15625 0.25,-0.296875 0.4375,-0.421875 -0.304688,-0.164063 -0.527344,-0.363281 -0.671875,-0.59375 -0.148437,-0.238281 -0.21875,-0.523437 -0.21875,-0.859375 0,-0.351562 0.085937,-0.671875 0.265625,-0.953125 0.175781,-0.28125 0.414062,-0.5 0.71875,-0.65625 0.3125,-0.15625 0.660156,-0.234375 1.046875,-0.234375 0.40625,0.011719 0.75,0 1.03125,-0.03125 0.28125,-0.039062 0.507813,-0.09375 0.6875,-0.15625 0.1875,-0.0625 0.414063,-0.15625 0.6875,-0.28125 z M 2.515625,-4.71875 c -0.34375,0 -0.617187,0.109375 -0.8125,0.328125 -0.1875,0.21875 -0.28125,0.507813 -0.28125,0.859375 0,0.355469 0.09375,0.640625 0.28125,0.859375 0.195313,0.210937 0.472656,0.3125 0.828125,0.3125 0.363281,0 0.640625,-0.101563 0.828125,-0.3125 0.1875,-0.207031 0.28125,-0.5 0.28125,-0.875 0,-0.78125 -0.375,-1.171875 -1.125,-1.171875 z m 0,0"
   id="id-835f1947-e73a-4262-a672-b424757f1a2d" />
      </g>
      <g
   id="id-40f85f5c-965c-451d-b95b-bc4570b67f45">
        <path
   d="m 4.484375,-1.21875 c 0,0.210938 0.035156,0.367188 0.109375,0.46875 0.070312,0.105469 0.179688,0.183594 0.328125,0.234375 L 4.71875,0.125 C 4.445312,0.0820312 4.226562,0.00390625 4.0625,-0.109375 c -0.167969,-0.125 -0.292969,-0.3125 -0.375,-0.5625 C 3.332031,-0.140625 2.8125,0.125 2.125,0.125 c -0.523438,0 -0.933594,-0.1445312 -1.234375,-0.4375 -0.292969,-0.289062 -0.4375,-0.675781 -0.4375,-1.15625 0,-0.550781 0.195313,-0.976562 0.59375,-1.28125 0.40625,-0.300781 0.976563,-0.453125 1.71875,-0.453125 H 3.5625 V -3.59375 c 0,-0.363281 -0.089844,-0.625 -0.265625,-0.78125 -0.179687,-0.164062 -0.453125,-0.25 -0.828125,-0.25 -0.386719,0 -0.855469,0.09375 -1.40625,0.28125 L 0.828125,-5.015625 c 0.644531,-0.238281 1.25,-0.359375 1.8125,-0.359375 0.613281,0 1.070313,0.152344 1.375,0.453125 0.3125,0.304687 0.46875,0.734375 0.46875,1.296875 z m -2.15625,0.65625 c 0.53125,0 0.941406,-0.273438 1.234375,-0.828125 V -2.59375 H 2.875 c -0.96875,0 -1.453125,0.359375 -1.453125,1.078125 0,0.3125 0.078125,0.554687 0.234375,0.71875 0.15625,0.15625 0.378906,0.234375 0.671875,0.234375 z m 0,0"
   id="id-2d6a6bd5-126d-4985-8419-06ffd602feea" />
      </g>
      <g
   id="id-08cb860d-b49e-4587-ba43-3d3060171450">
        <path
   d="m 2.375,-5.375 c 0.351562,0 0.671875,0.054688 0.953125,0.15625 0.289063,0.09375 0.566406,0.242188 0.828125,0.4375 L 3.765625,-4.203125 C 3.523438,-4.347656 3.296875,-4.457031 3.078125,-4.53125 2.867188,-4.601562 2.644531,-4.640625 2.40625,-4.640625 c -0.304688,0 -0.542969,0.0625 -0.71875,0.1875 -0.167969,0.117187 -0.25,0.28125 -0.25,0.5 0,0.210937 0.078125,0.375 0.234375,0.5 0.164063,0.117187 0.460937,0.230469 0.890625,0.34375 0.582031,0.148437 1.019531,0.34375 1.3125,0.59375 0.289062,0.25 0.4375,0.601563 0.4375,1.046875 0,0.511719 -0.203125,0.90625 -0.609375,1.1875 C 3.296875,-0.0078125 2.804688,0.125 2.234375,0.125 1.429688,0.125 0.769531,-0.101562 0.25,-0.5625 L 0.734375,-1.125 c 0.445313,0.335938 0.941406,0.5 1.484375,0.5 0.34375,0 0.613281,-0.066406 0.8125,-0.203125 0.207031,-0.144531 0.3125,-0.34375 0.3125,-0.59375 0,-0.175781 -0.039062,-0.316406 -0.109375,-0.421875 C 3.160156,-1.957031 3.03125,-2.054688 2.84375,-2.140625 2.664062,-2.222656 2.40625,-2.3125 2.0625,-2.40625 1.5,-2.550781 1.09375,-2.742188 0.84375,-2.984375 c -0.242188,-0.25 -0.359375,-0.5625 -0.359375,-0.9375 0,-0.28125 0.078125,-0.53125 0.234375,-0.75 C 0.882812,-4.890625 1.109375,-5.0625 1.390625,-5.1875 1.679688,-5.3125 2.007812,-5.375 2.375,-5.375 Z m 0,0"
   id="id-53eeeb96-c01e-4cfb-ac40-56009fff9afc" />
      </g>
    </g>
  </defs>
  <g
   fill="#000000"
   fill-opacity="1"
   id="id-70878227-6181-469a-9084-ae74927c4c71"
   transform="translate(-148.962,-127.281)"
   style="fill:#404040;fill-opacity:1">
    <g
   transform="translate(148.712,134.765)"
   id="g234756"
   style="fill:#404040;fill-opacity:1"><path
   d="m 2.265625,-6.765625 c 0.40625,0 0.757813,0.078125 1.0625,0.234375 0.300781,0.15625 0.535156,0.375 0.703125,0.65625 0.164062,0.273438 0.25,0.585938 0.25,0.9375 C 4.28125,-4.539062 4.1875,-4.15625 4,-3.78125 3.820312,-3.40625 3.539062,-3 3.15625,-2.5625 2.78125,-2.132812 2.207031,-1.535156 1.4375,-0.765625 h 3 L 4.328125,0 h -3.9375 V -0.734375 C 1.273438,-1.648438 1.90625,-2.320312 2.28125,-2.75 2.65625,-3.1875 2.921875,-3.5625 3.078125,-3.875 3.234375,-4.195312 3.3125,-4.539062 3.3125,-4.90625 3.3125,-5.25 3.210938,-5.519531 3.015625,-5.71875 2.816406,-5.914062 2.550781,-6.015625 2.21875,-6.015625 c -0.273438,0 -0.511719,0.058594 -0.71875,0.171875 -0.199219,0.117188 -0.417969,0.304688 -0.65625,0.5625 L 0.25,-5.765625 c 0.269531,-0.332031 0.570312,-0.582031 0.90625,-0.75 0.332031,-0.164063 0.703125,-0.25 1.109375,-0.25 z m 0,0"
   id="id-cf1cf377-c69f-4829-82e3-ff60e32b9016"
   style="fill:#404040;fill-opacity:1" />
      </g><g
   transform="translate(153.643,134.765)"
   id="g234759"
   style="fill:#404040;fill-opacity:1"><path
   d="m 2.4375,-6.875 c 1.03125,0 1.859375,0.246094 2.484375,0.734375 0.632813,0.480469 0.953125,1.371094 0.953125,2.671875 0,1.273438 -0.320312,2.167969 -0.953125,2.6875 C 4.296875,-0.257812 3.535156,0 2.640625,0 H 1 v -6.875 z m -0.5,0.765625 V -0.75 h 0.78125 c 0.632812,0 1.148438,-0.191406 1.546875,-0.578125 0.394531,-0.394531 0.59375,-1.109375 0.59375,-2.140625 0,-0.726562 -0.105469,-1.285156 -0.3125,-1.671875 -0.199219,-0.382813 -0.460937,-0.640625 -0.78125,-0.765625 -0.3125,-0.132812 -0.6875,-0.203125 -1.125,-0.203125 z m 0,0"
   id="id-3e3c52fd-980c-46a3-bc68-df825a1d4c6e"
   style="fill:#404040;fill-opacity:1" />
      </g></g>
  <g
   fill="#000000"
   fill-opacity="1"
   id="id-0b7de031-3e7e-4b77-9f13-1368cbfa38dc"
   transform="translate(-148.962,-127.281)"
   style="fill:#404040;fill-opacity:1">
    <g
   transform="translate(162.699,134.765)"
   id="g234763"
   style="fill:#404040;fill-opacity:1"><path
   d="m 4.921875,-2.78125 c 0,0.15625 -0.011719,0.3125 -0.03125,0.46875 h -3.34375 c 0.039063,0.574219 0.1875,1 0.4375,1.28125 0.25,0.273438 0.570313,0.40625 0.96875,0.40625 0.257813,0 0.492187,-0.035156 0.703125,-0.109375 C 3.875,-0.804688 4.097656,-0.925781 4.328125,-1.09375 l 0.390625,0.5625 C 4.164062,-0.09375 3.554688,0.125 2.890625,0.125 2.160156,0.125 1.585938,-0.113281 1.171875,-0.59375 0.765625,-1.070312 0.5625,-1.734375 0.5625,-2.578125 c 0,-0.539063 0.085938,-1.019531 0.265625,-1.4375 0.175781,-0.425781 0.425781,-0.757813 0.75,-1 C 1.910156,-5.253906 2.300781,-5.375 2.75,-5.375 c 0.695312,0 1.234375,0.230469 1.609375,0.6875 0.375,0.460938 0.5625,1.09375 0.5625,1.90625 z M 4,-3.046875 c 0,-0.519531 -0.105469,-0.914063 -0.3125,-1.1875 -0.199219,-0.269531 -0.507812,-0.40625 -0.921875,-0.40625 -0.75,0 -1.15625,0.554687 -1.21875,1.65625 H 4 Z m 0,0"
   id="id-8dff6262-0fef-4748-aa67-2a079f44d23a"
   style="fill:#404040;fill-opacity:1" />
      </g><g
   transform="translate(168.129,134.765)"
   id="g234766"
   style="fill:#404040;fill-opacity:1"><path
   d="M 2,0.125 C 1.65625,0.125 1.382812,0.0234375 1.1875,-0.171875 0.988281,-0.378906 0.890625,-0.664062 0.890625,-1.03125 v -6.328125 l 0.921875,-0.125 V -1.0625 c 0,0.148438 0.023438,0.257812 0.078125,0.328125 0.050781,0.0625 0.132813,0.09375 0.25,0.09375 0.125,0 0.238281,-0.019531 0.34375,-0.0625 L 2.71875,-0.0625 C 2.5,0.0625 2.257812,0.125 2,0.125 Z m 0,0"
   id="id-d3c26159-cddf-41b9-8b2d-b8978752e2c5"
   style="fill:#404040;fill-opacity:1" />
      </g></g>
  <g
   fill="#000000"
   fill-opacity="1"
   id="id-7a3c935c-67d6-40f1-aa09-c9120c7ebd73"
   transform="translate(-148.962,-127.281)"
   style="fill:#404040;fill-opacity:1">
    <g
   transform="translate(171.008,134.765)"
   id="g234770"
   style="fill:#404040;fill-opacity:1"><path
   d="m 4.921875,-2.78125 c 0,0.15625 -0.011719,0.3125 -0.03125,0.46875 h -3.34375 c 0.039063,0.574219 0.1875,1 0.4375,1.28125 0.25,0.273438 0.570313,0.40625 0.96875,0.40625 0.257813,0 0.492187,-0.035156 0.703125,-0.109375 C 3.875,-0.804688 4.097656,-0.925781 4.328125,-1.09375 l 0.390625,0.5625 C 4.164062,-0.09375 3.554688,0.125 2.890625,0.125 2.160156,0.125 1.585938,-0.113281 1.171875,-0.59375 0.765625,-1.070312 0.5625,-1.734375 0.5625,-2.578125 c 0,-0.539063 0.085938,-1.019531 0.265625,-1.4375 0.175781,-0.425781 0.425781,-0.757813 0.75,-1 C 1.910156,-5.253906 2.300781,-5.375 2.75,-5.375 c 0.695312,0 1.234375,0.230469 1.609375,0.6875 0.375,0.460938 0.5625,1.09375 0.5625,1.90625 z M 4,-3.046875 c 0,-0.519531 -0.105469,-0.914063 -0.3125,-1.1875 -0.199219,-0.269531 -0.507812,-0.40625 -0.921875,-0.40625 -0.75,0 -1.15625,0.554687 -1.21875,1.65625 H 4 Z m 0,0"
   id="id-c97aefcc-9c01-48ef-b169-03f24c6228ba"
   style="fill:#404040;fill-opacity:1" />
      </g><g
   transform="translate(176.438,134.765)"
   id="g234773"
   style="fill:#404040;fill-opacity:1"><path
   d="m 2.859375,-5.375 c 0.3125,0 0.597656,0.046875 0.859375,0.140625 0.257812,0.085937 0.507812,0.226563 0.75,0.421875 l -0.4375,0.578125 c -0.1875,-0.125 -0.371094,-0.21875 -0.546875,-0.28125 -0.179687,-0.0625 -0.371094,-0.09375 -0.578125,-0.09375 -0.429688,0 -0.761719,0.171875 -1,0.515625 -0.230469,0.335938 -0.34375,0.828125 -0.34375,1.484375 0,0.667969 0.113281,1.164063 0.34375,1.484375 0.226562,0.3125 0.5625,0.46875 1,0.46875 0.195312,0 0.382812,-0.03125 0.5625,-0.09375 0.175781,-0.0625 0.367188,-0.164062 0.578125,-0.3125 L 4.46875,-0.453125 C 3.988281,-0.0664062 3.453125,0.125 2.859375,0.125 2.148438,0.125 1.585938,-0.113281 1.171875,-0.59375 0.765625,-1.070312 0.5625,-1.734375 0.5625,-2.578125 c 0,-0.5625 0.09375,-1.050781 0.28125,-1.46875 0.1875,-0.414063 0.453125,-0.738281 0.796875,-0.96875 0.34375,-0.238281 0.75,-0.359375 1.21875,-0.359375 z m 0,0"
   id="id-111769d3-1c05-47ac-81f9-99ef88df8f0b"
   style="fill:#404040;fill-opacity:1" />
      </g><g
   transform="translate(181.2,134.765)"
   id="g234776"
   style="fill:#404040;fill-opacity:1"><path
   d="M 3.59375,-0.234375 C 3.25,0.00390625 2.859375,0.125 2.421875,0.125 1.972656,0.125 1.625,0 1.375,-0.25 1.125,-0.507812 1,-0.882812 1,-1.375 V -4.546875 H 0.09375 V -5.25 H 1 V -6.4375 L 1.921875,-6.546875 V -5.25 h 1.25 l -0.09375,0.703125 h -1.15625 v 3.125 c 0,0.28125 0.046875,0.484375 0.140625,0.609375 0.101562,0.117188 0.265625,0.171875 0.484375,0.171875 0.207031,0 0.441406,-0.066406 0.703125,-0.203125 z m 0,0"
   id="id-2ab2d3ba-2066-44ae-86d4-947a30677c3c"
   style="fill:#404040;fill-opacity:1" />
      </g><g
   transform="translate(184.797,134.765)"
   id="g234779"
   style="fill:#404040;fill-opacity:1"><path
   d="m 3.234375,-5.375 c 0.1875,0 0.359375,0.023438 0.515625,0.0625 L 3.578125,-4.421875 C 3.421875,-4.453125 3.269531,-4.46875 3.125,-4.46875 c -0.335938,0 -0.601562,0.121094 -0.796875,0.359375 C 2.128906,-3.878906 1.972656,-3.507812 1.859375,-3 v 3 h -0.90625 v -5.25 h 0.78125 l 0.09375,1.0625 C 1.960938,-4.582031 2.148438,-4.878906 2.390625,-5.078125 2.628906,-5.273438 2.910156,-5.375 3.234375,-5.375 Z m 0,0"
   id="id-e57a2f2c-5d0d-433d-8d86-56451ef293ca"
   style="fill:#404040;fill-opacity:1" />
      </g></g>
  <g
   fill="#000000"
   fill-opacity="1"
   id="id-b4fe5ab8-ace2-4354-91f5-89ce612729e6"
   transform="translate(-148.962,-127.281)"
   style="fill:#404040;fill-opacity:1">
    <g
   transform="translate(188.343,134.765)"
   id="g234783"
   style="fill:#404040;fill-opacity:1"><path
   d="m 2.921875,-5.375 c 0.738281,0 1.3125,0.25 1.71875,0.75 0.40625,0.492188 0.609375,1.15625 0.609375,2 0,0.542969 -0.09375,1.023438 -0.28125,1.4375 -0.1875,0.417969 -0.460938,0.742188 -0.8125,0.96875 C 3.8125,0.0078125 3.394531,0.125 2.90625,0.125 2.164062,0.125 1.585938,-0.117188 1.171875,-0.609375 0.765625,-1.109375 0.5625,-1.78125 0.5625,-2.625 c 0,-0.539062 0.09375,-1.019531 0.28125,-1.4375 0.1875,-0.414062 0.457031,-0.738281 0.8125,-0.96875 C 2.007812,-5.257812 2.429688,-5.375 2.921875,-5.375 Z m 0,0.734375 c -0.90625,0 -1.359375,0.671875 -1.359375,2.015625 0,1.335938 0.445312,2 1.34375,2 0.90625,0 1.359375,-0.664062 1.359375,-2 0,-1.34375 -0.449219,-2.015625 -1.34375,-2.015625 z m 0,0"
   id="id-d8a15f95-106e-4139-ab17-8324a38e25b1"
   style="fill:#404040;fill-opacity:1" />
      </g><g
   transform="translate(194.161,134.765)"
   id="g234786"
   style="fill:#404040;fill-opacity:1"><path
   d="m 3.421875,-5.375 c 0.476563,0 0.847656,0.148438 1.109375,0.4375 0.269531,0.28125 0.40625,0.671875 0.40625,1.171875 V 0 H 4.03125 v -3.640625 c 0,-0.375 -0.074219,-0.632813 -0.21875,-0.78125 -0.136719,-0.15625 -0.339844,-0.234375 -0.609375,-0.234375 -0.28125,0 -0.53125,0.085938 -0.75,0.25 -0.210937,0.15625 -0.40625,0.382812 -0.59375,0.671875 V 0 h -0.90625 v -5.25 h 0.78125 L 1.8125,-4.46875 C 2,-4.75 2.226562,-4.96875 2.5,-5.125 c 0.28125,-0.164062 0.585938,-0.25 0.921875,-0.25 z m 0,0"
   id="id-69c7096b-29a5-43f7-adfa-1f462a494c8d"
   style="fill:#404040;fill-opacity:1" />
      </g></g>
  <g
   fill="#000000"
   fill-opacity="1"
   id="id-c6cfb209-e2bb-4ccd-bc45-29f73bc0fe9e"
   transform="translate(-148.962,-127.281)"
   style="fill:#404040;fill-opacity:1">
    <g
   transform="translate(202.63,134.765)"
   id="g234790"
   style="fill:#404040;fill-opacity:1"><path
   d="m 5.1875,-5.015625 c -0.199219,0.0625 -0.417969,0.105469 -0.65625,0.125 -0.242188,0.023437 -0.53125,0.03125 -0.875,0.03125 0.613281,0.28125 0.921875,0.726563 0.921875,1.328125 0,0.53125 -0.183594,0.964844 -0.546875,1.296875 C 3.675781,-1.910156 3.191406,-1.75 2.578125,-1.75 c -0.242187,0 -0.464844,-0.03125 -0.671875,-0.09375 -0.085938,0.054688 -0.152344,0.125 -0.203125,0.21875 -0.042969,0.085938 -0.0625,0.171875 -0.0625,0.265625 0,0.292969 0.226563,0.4375 0.6875,0.4375 h 0.84375 c 0.351563,0 0.664063,0.0625 0.9375,0.1875 0.269531,0.125 0.476563,0.296875 0.625,0.515625 C 4.890625,0 4.96875,0.25 4.96875,0.53125 4.96875,1.039062 4.753906,1.429688 4.328125,1.703125 3.910156,1.984375 3.300781,2.125 2.5,2.125 1.9375,2.125 1.488281,2.066406 1.15625,1.953125 0.832031,1.835938 0.597656,1.660156 0.453125,1.421875 0.316406,1.191406 0.25,0.894531 0.25,0.53125 h 0.828125 c 0,0.207031 0.035156,0.375 0.109375,0.5 C 1.269531,1.15625 1.414062,1.25 1.625,1.3125 1.832031,1.375 2.125,1.40625 2.5,1.40625 3.050781,1.40625 3.441406,1.335938 3.671875,1.203125 3.910156,1.066406 4.03125,0.863281 4.03125,0.59375 c 0,-0.25 -0.09375,-0.4375 -0.28125,-0.5625 -0.179688,-0.125 -0.433594,-0.1875 -0.765625,-0.1875 H 2.15625 c -0.449219,0 -0.789062,-0.09375 -1.015625,-0.28125 -0.230469,-0.195312 -0.34375,-0.4375 -0.34375,-0.71875 0,-0.175781 0.046875,-0.34375 0.140625,-0.5 0.101562,-0.15625 0.25,-0.296875 0.4375,-0.421875 -0.304688,-0.164063 -0.527344,-0.363281 -0.671875,-0.59375 -0.148437,-0.238281 -0.21875,-0.523437 -0.21875,-0.859375 0,-0.351562 0.085937,-0.671875 0.265625,-0.953125 0.175781,-0.28125 0.414062,-0.5 0.71875,-0.65625 0.3125,-0.15625 0.660156,-0.234375 1.046875,-0.234375 0.40625,0.011719 0.75,0 1.03125,-0.03125 0.28125,-0.039062 0.507813,-0.09375 0.6875,-0.15625 0.1875,-0.0625 0.414063,-0.15625 0.6875,-0.28125 z M 2.515625,-4.71875 c -0.34375,0 -0.617187,0.109375 -0.8125,0.328125 -0.1875,0.21875 -0.28125,0.507813 -0.28125,0.859375 0,0.355469 0.09375,0.640625 0.28125,0.859375 0.195313,0.210937 0.472656,0.3125 0.828125,0.3125 0.363281,0 0.640625,-0.101563 0.828125,-0.3125 0.1875,-0.207031 0.28125,-0.5 0.28125,-0.875 0,-0.78125 -0.375,-1.171875 -1.125,-1.171875 z m 0,0"
   id="id-68f7dca8-79ac-4216-8454-c84ebf7a39d0"
   style="fill:#404040;fill-opacity:1" />
      </g></g>
  <g
   fill="#000000"
   fill-opacity="1"
   id="id-0e0237d7-75bd-480a-896f-92d69a5d465a"
   transform="translate(-148.962,-127.281)"
   style="fill:#404040;fill-opacity:1">
    <g
   transform="translate(207.631,134.765)"
   id="g234794"
   style="fill:#404040;fill-opacity:1"><path
   d="m 4.484375,-1.21875 c 0,0.210938 0.035156,0.367188 0.109375,0.46875 0.070312,0.105469 0.179688,0.183594 0.328125,0.234375 L 4.71875,0.125 C 4.445312,0.0820312 4.226562,0.00390625 4.0625,-0.109375 c -0.167969,-0.125 -0.292969,-0.3125 -0.375,-0.5625 C 3.332031,-0.140625 2.8125,0.125 2.125,0.125 c -0.523438,0 -0.933594,-0.1445312 -1.234375,-0.4375 -0.292969,-0.289062 -0.4375,-0.675781 -0.4375,-1.15625 0,-0.550781 0.195313,-0.976562 0.59375,-1.28125 0.40625,-0.300781 0.976563,-0.453125 1.71875,-0.453125 H 3.5625 V -3.59375 c 0,-0.363281 -0.089844,-0.625 -0.265625,-0.78125 -0.179687,-0.164062 -0.453125,-0.25 -0.828125,-0.25 -0.386719,0 -0.855469,0.09375 -1.40625,0.28125 L 0.828125,-5.015625 c 0.644531,-0.238281 1.25,-0.359375 1.8125,-0.359375 0.613281,0 1.070313,0.152344 1.375,0.453125 0.3125,0.304687 0.46875,0.734375 0.46875,1.296875 z m -2.15625,0.65625 c 0.53125,0 0.941406,-0.273438 1.234375,-0.828125 V -2.59375 H 2.875 c -0.96875,0 -1.453125,0.359375 -1.453125,1.078125 0,0.3125 0.078125,0.554687 0.234375,0.71875 0.15625,0.15625 0.378906,0.234375 0.671875,0.234375 z m 0,0"
   id="id-2998829e-25a1-4585-87c7-75fb3381118d"
   style="fill:#404040;fill-opacity:1" />
      </g></g>
  <g
   fill="#000000"
   fill-opacity="1"
   id="id-c599eb96-7ef9-4576-a5eb-c362dde376f0"
   transform="translate(-148.962,-127.281)"
   style="fill:#404040;fill-opacity:1">
    <g
   transform="translate(212.951,134.765)"
   id="g234798"
   style="fill:#404040;fill-opacity:1"><path
   d="m 2.375,-5.375 c 0.351562,0 0.671875,0.054688 0.953125,0.15625 0.289063,0.09375 0.566406,0.242188 0.828125,0.4375 L 3.765625,-4.203125 C 3.523438,-4.347656 3.296875,-4.457031 3.078125,-4.53125 2.867188,-4.601562 2.644531,-4.640625 2.40625,-4.640625 c -0.304688,0 -0.542969,0.0625 -0.71875,0.1875 -0.167969,0.117187 -0.25,0.28125 -0.25,0.5 0,0.210937 0.078125,0.375 0.234375,0.5 0.164063,0.117187 0.460937,0.230469 0.890625,0.34375 0.582031,0.148437 1.019531,0.34375 1.3125,0.59375 0.289062,0.25 0.4375,0.601563 0.4375,1.046875 0,0.511719 -0.203125,0.90625 -0.609375,1.1875 C 3.296875,-0.0078125 2.804688,0.125 2.234375,0.125 1.429688,0.125 0.769531,-0.101562 0.25,-0.5625 L 0.734375,-1.125 c 0.445313,0.335938 0.941406,0.5 1.484375,0.5 0.34375,0 0.613281,-0.066406 0.8125,-0.203125 0.207031,-0.144531 0.3125,-0.34375 0.3125,-0.59375 0,-0.175781 -0.039062,-0.316406 -0.109375,-0.421875 C 3.160156,-1.957031 3.03125,-2.054688 2.84375,-2.140625 2.664062,-2.222656 2.40625,-2.3125 2.0625,-2.40625 1.5,-2.550781 1.09375,-2.742188 0.84375,-2.984375 c -0.242188,-0.25 -0.359375,-0.5625 -0.359375,-0.9375 0,-0.28125 0.078125,-0.53125 0.234375,-0.75 C 0.882812,-4.890625 1.109375,-5.0625 1.390625,-5.1875 1.679688,-5.3125 2.007812,-5.375 2.375,-5.375 Z m 0,0"
   id="id-b23b9f1e-9267-47bd-9342-ae9cf30c677d"
   style="fill:#404040;fill-opacity:1" />
      </g></g>
</g></g></svg>
