<?xml version="1.0" encoding="UTF-8" standalone="no"?>
<!-- Created with Inkscape (http://www.inkscape.org/) -->

<svg
   width="363.27048mm"
   height="68.811081mm"
   viewBox="0 0 363.27049 68.811083"
   version="1.1"
   id="svg48956"
   sodipodi:docname="kondocloud.svg"
   inkscape:version="1.2.2 (b0a8486541, 2022-12-01)"
   xmlns:inkscape="http://www.inkscape.org/namespaces/inkscape"
   xmlns:sodipodi="http://sodipodi.sourceforge.net/DTD/sodipodi-0.dtd"
   xmlns="http://www.w3.org/2000/svg"
   xmlns:svg="http://www.w3.org/2000/svg"
   xmlns:ns6="http://www.iki.fi/pav/software/textext/">
  <sodipodi:namedview
     id="namedview48958"
     pagecolor="#ffffff"
     bordercolor="#cccccc"
     borderopacity="1"
     inkscape:showpageshadow="0"
     inkscape:pageopacity="1"
     inkscape:pagecheckerboard="0"
     inkscape:deskcolor="#d1d1d1"
     inkscape:document-units="mm"
     showgrid="false"
     inkscape:zoom="0.34787809"
     inkscape:cx="1320.865"
     inkscape:cy="369.38228"
     inkscape:window-width="1920"
     inkscape:window-height="1019"
     inkscape:window-x="0"
     inkscape:window-y="0"
     inkscape:window-maximized="1"
     inkscape:current-layer="layer1" />
  <defs
     id="defs48953">
    <inkscape:path-effect
       effect="spiro"
       id="path-effect198346"
       is_visible="true"
       lpeversion="1" />
    <inkscape:path-effect
       effect="spiro"
       id="path-effect198342"
       is_visible="true"
       lpeversion="1" />
    <inkscape:path-effect
       effect="spiro"
       id="path-effect198338"
       is_visible="true"
       lpeversion="1" />
    <inkscape:path-effect
       effect="spiro"
       id="path-effect197012"
       is_visible="true"
       lpeversion="1" />
    <inkscape:path-effect
       effect="spiro"
       id="path-effect197008"
       is_visible="true"
       lpeversion="1" />
    <inkscape:path-effect
       effect="spiro"
       id="path-effect197004"
       is_visible="true"
       lpeversion="1" />
    <inkscape:path-effect
       effect="spiro"
       id="path-effect175740"
       is_visible="true"
       lpeversion="1" />
    <inkscape:path-effect
       effect="spiro"
       id="path-effect161700"
       is_visible="true"
       lpeversion="1" />
    <inkscape:path-effect
       effect="spiro"
       id="path-effect161642"
       is_visible="true"
       lpeversion="1" />
    <inkscape:path-effect
       effect="spiro"
       id="path-effect137444"
       is_visible="true"
       lpeversion="1" />
    <inkscape:path-effect
       effect="spiro"
       id="path-effect128001"
       is_visible="true"
       lpeversion="1" />
    <inkscape:path-effect
       effect="spiro"
       id="path-effect67859"
       is_visible="true"
       lpeversion="1" />
    <inkscape:path-effect
       effect="spiro"
       id="path-effect67831"
       is_visible="true"
       lpeversion="1" />
    <inkscape:path-effect
       effect="spiro"
       id="path-effect61007"
       is_visible="true"
       lpeversion="1" />
    <inkscape:path-effect
       effect="spiro"
       id="path-effect60973"
       is_visible="true"
       lpeversion="1" />
    <inkscape:path-effect
       effect="spiro"
       id="path-effect60939"
       is_visible="true"
       lpeversion="1" />
    <marker
       style="overflow:visible"
       id="Arrow1"
       refX="0"
       refY="0"
       orient="auto-start-reverse"
       inkscape:stockid="Arrow1"
       markerWidth="4.0606604"
       markerHeight="6.7071066"
       viewBox="0 0 4.0606602 6.7071068"
       inkscape:isstock="true"
       inkscape:collect="always"
       preserveAspectRatio="xMidYMid">
      <path
         style="fill:none;stroke:context-stroke;stroke-width:1;stroke-linecap:butt"
         d="M 3,-3 0,0 3,3"
         id="path5057"
         transform="rotate(180,0.125,0)"
         sodipodi:nodetypes="ccc" />
    </marker>
    <inkscape:path-effect
       effect="spiro"
       id="path-effect58322"
       is_visible="true"
       lpeversion="1" />
    <inkscape:path-effect
       effect="spiro"
       id="path-effect56985"
       is_visible="true"
       lpeversion="1" />
    <inkscape:path-effect
       effect="spiro"
       id="path-effect56979"
       is_visible="true"
       lpeversion="1" />
    <inkscape:path-effect
       effect="spiro"
       id="path-effect56975"
       is_visible="true"
       lpeversion="1" />
    <inkscape:path-effect
       effect="spiro"
       id="path-effect56969"
       is_visible="true"
       lpeversion="1" />
    <inkscape:path-effect
       effect="spiro"
       id="path-effect56889"
       is_visible="true"
       lpeversion="1" />
    <inkscape:path-effect
       effect="spiro"
       id="path-effect56883"
       is_visible="true"
       lpeversion="1" />
    <inkscape:path-effect
       effect="spiro"
       id="path-effect56879"
       is_visible="true"
       lpeversion="1" />
    <inkscape:path-effect
       effect="spiro"
       id="path-effect56829"
       is_visible="true"
       lpeversion="1" />
    <inkscape:path-effect
       effect="spiro"
       id="path-effect56751"
       is_visible="true"
       lpeversion="1" />
    <inkscape:path-effect
       effect="spiro"
       id="path-effect56005"
       is_visible="true"
       lpeversion="1" />
    <marker
       style="overflow:visible"
       id="Arrow1-7"
       refX="0"
       refY="0"
       orient="auto-start-reverse"
       inkscape:stockid="Arrow1"
       markerWidth="4.0606604"
       markerHeight="6.7071066"
       viewBox="0 0 4.0606602 6.7071068"
       inkscape:isstock="true"
       inkscape:collect="always"
       preserveAspectRatio="xMidYMid">
      <path
         style="fill:none;stroke:context-stroke;stroke-width:1;stroke-linecap:butt"
         d="M 3,-3 0,0 3,3"
         id="path5057-2"
         transform="rotate(180,0.125,0)"
         sodipodi:nodetypes="ccc" />
    </marker>
    <inkscape:path-effect
       effect="spiro"
       id="path-effect58322-7"
       is_visible="true"
       lpeversion="1" />
    <inkscape:path-effect
       effect="spiro"
       id="path-effect67831-4"
       is_visible="true"
       lpeversion="1" />
    <inkscape:path-effect
       effect="spiro"
       id="path-effect56005-2"
       is_visible="true"
       lpeversion="1" />
    <inkscape:path-effect
       effect="spiro"
       id="path-effect56979-1"
       is_visible="true"
       lpeversion="1" />
    <inkscape:path-effect
       effect="spiro"
       id="path-effect56985-2"
       is_visible="true"
       lpeversion="1" />
    <inkscape:path-effect
       effect="spiro"
       id="path-effect58322-5"
       is_visible="true"
       lpeversion="1" />
    <inkscape:path-effect
       effect="spiro"
       id="path-effect58322-7-9"
       is_visible="true"
       lpeversion="1" />
    <inkscape:path-effect
       effect="spiro"
       id="path-effect60939-0"
       is_visible="true"
       lpeversion="1" />
    <g
       id="id-094ce821-3624-4d02-8945-e7f626c2a06b-2">
      <g
         id="id-ffe2b414-3fab-4fc0-b0e7-43dfaf9a6542-5">
        <path
           d="M 5.40625,-10.46875 V 3.484375 H 1.21875 V -10.46875 Z M 4.875,-9.953125 H 1.78125 V 2.96875 H 4.875 Z M 3.234375,-4.5 c 0.394531,0 0.675781,0.109375 0.84375,0.328125 0.175781,0.210937 0.265625,0.484375 0.265625,0.828125 0,0.34375 -0.078125,0.617188 -0.234375,0.8125 -0.148437,0.1875 -0.386719,0.308594 -0.71875,0.359375 v 0.453125 c 0,0.074219 -0.027344,0.132812 -0.078125,0.171875 -0.054688,0.042969 -0.109375,0.0625 -0.171875,0.0625 -0.0625,0 -0.121094,-0.019531 -0.171875,-0.0625 C 2.914062,-1.585938 2.890625,-1.644531 2.890625,-1.71875 V -2.5625 c 0.351563,-0.019531 0.59375,-0.082031 0.71875,-0.1875 0.125,-0.113281 0.1875,-0.304688 0.1875,-0.578125 0,-0.21875 -0.046875,-0.382813 -0.140625,-0.5 -0.085938,-0.125 -0.242188,-0.1875 -0.46875,-0.1875 -0.1875,0 -0.359375,0.039063 -0.515625,0.109375 -0.054687,0.023438 -0.09375,0.03125 -0.125,0.03125 -0.074219,0 -0.136719,-0.019531 -0.1875,-0.0625 -0.042969,-0.039062 -0.0625,-0.097656 -0.0625,-0.171875 0,-0.125 0.097656,-0.21875 0.296875,-0.28125 C 2.789062,-4.460938 3.003906,-4.5 3.234375,-4.5 Z m -0.09375,3.296875 c 0.101563,0 0.1875,0.039063 0.25,0.109375 0.0625,0.0625 0.09375,0.148438 0.09375,0.25 0,0.105469 -0.03125,0.195312 -0.09375,0.265625 -0.0625,0.0625 -0.148437,0.09375 -0.25,0.09375 -0.105469,0 -0.1875,-0.03125 -0.25,-0.09375 -0.0625,-0.070313 -0.09375,-0.160156 -0.09375,-0.265625 0,-0.101562 0.03125,-0.1875 0.09375,-0.25 0.0625,-0.070312 0.144531,-0.109375 0.25,-0.109375 z m 0,0"
           id="id-30b40e3d-6024-4715-be1d-1c84f49ba9d9-4" />
      </g>
      <g
         id="id-5617da07-0d23-45fa-afc3-5c88b12621db-4">
        <path
           d="M 1.859375,-5.25 V 0 h -0.90625 v -5.25 z m -0.46875,-2.53125 c 0.195313,0 0.351563,0.0625 0.46875,0.1875 0.125,0.117188 0.1875,0.265625 0.1875,0.453125 0,0.179687 -0.0625,0.324219 -0.1875,0.4375 -0.117187,0.117187 -0.273437,0.171875 -0.46875,0.171875 -0.179687,0 -0.328125,-0.054688 -0.453125,-0.171875 -0.117188,-0.113281 -0.171875,-0.257813 -0.171875,-0.4375 0,-0.1875 0.054687,-0.335937 0.171875,-0.453125 0.125,-0.125 0.273438,-0.1875 0.453125,-0.1875 z m 0,0"
           id="id-35ed1452-d1e2-450d-b917-23520c17512e-9" />
      </g>
      <g
         id="id-7f378fb6-6f10-45b2-97d1-7ff03fc70754-9">
        <path
           d="m 6.21875,-5.375 c 0.4375,0 0.78125,0.148438 1.03125,0.4375 0.257812,0.292969 0.390625,0.683594 0.390625,1.171875 V 0 h -0.90625 v -3.640625 c 0,-0.675781 -0.25,-1.015625 -0.75,-1.015625 -0.25,0 -0.46875,0.078125 -0.65625,0.234375 -0.179687,0.148437 -0.371094,0.375 -0.578125,0.6875 V 0 H 3.84375 v -3.640625 c 0,-0.675781 -0.25,-1.015625 -0.75,-1.015625 -0.261719,0 -0.484375,0.078125 -0.671875,0.234375 -0.179687,0.148437 -0.367187,0.375 -0.5625,0.6875 V 0 h -0.90625 v -5.25 h 0.78125 L 1.8125,-4.484375 C 2.207031,-5.078125 2.710938,-5.375 3.328125,-5.375 c 0.320313,0 0.597656,0.085938 0.828125,0.25 0.226562,0.167969 0.394531,0.402344 0.5,0.703125 0.207031,-0.3125 0.4375,-0.546875 0.6875,-0.703125 0.25,-0.164062 0.539062,-0.25 0.875,-0.25 z m 0,0"
           id="id-f1de8883-088e-48b2-b118-fc763ace7d3d-3" />
      </g>
      <g
         id="id-5b951bdc-6920-4d91-8643-a57a974101da-6">
        <path
           d="m 3.359375,-5.375 c 0.664063,0 1.15625,0.242188 1.46875,0.71875 0.3125,0.480469 0.46875,1.15625 0.46875,2.03125 0,0.824219 -0.179687,1.492188 -0.53125,2 -0.355469,0.5 -0.867187,0.75 -1.53125,0.75 -0.585937,0 -1.042969,-0.203125 -1.375,-0.609375 v 2.5 L 0.953125,2.125 V -5.25 h 0.78125 l 0.0625,0.703125 C 1.992188,-4.804688 2.226562,-5.007812 2.5,-5.15625 2.769531,-5.300781 3.054688,-5.375 3.359375,-5.375 Z m -0.34375,4.75 c 0.863281,0 1.296875,-0.664062 1.296875,-2 0,-1.34375 -0.398438,-2.015625 -1.1875,-2.015625 -0.261719,0 -0.496094,0.078125 -0.703125,0.234375 -0.210937,0.148438 -0.398437,0.339844 -0.5625,0.578125 v 2.5625 c 0.132813,0.210937 0.300781,0.371094 0.5,0.484375 0.195313,0.105469 0.414063,0.15625 0.65625,0.15625 z m 0,0"
           id="id-5583ab49-dcea-4fd3-a65a-21d4bf8ce5d0-0" />
      </g>
      <g
         id="id-967009d8-891f-4871-8335-edf8fb4670db-5">
        <path
           d="M 4.859375,0 H 4.0625 L 4,-0.8125 C 3.800781,-0.488281 3.570312,-0.25 3.3125,-0.09375 3.050781,0.0507812 2.734375,0.125 2.359375,0.125 1.898438,0.125 1.539062,-0.015625 1.28125,-0.296875 1.019531,-0.578125 0.890625,-0.972656 0.890625,-1.484375 V -5.25 H 1.8125 v 3.671875 c 0,0.355469 0.0625,0.609375 0.1875,0.765625 0.125,0.148438 0.332031,0.21875 0.625,0.21875 0.507812,0 0.945312,-0.300781 1.3125,-0.90625 v -3.75 h 0.921875 z m 0,0"
           id="id-ef0eb4eb-d054-4b8c-b4c2-fbe8e5d5b3d8-0" />
      </g>
      <g
         id="id-31eca70c-5037-4d82-8d4e-77c08432b4a4-2">
        <path
           d="m 3.234375,-5.375 c 0.1875,0 0.359375,0.023438 0.515625,0.0625 L 3.578125,-4.421875 C 3.421875,-4.453125 3.269531,-4.46875 3.125,-4.46875 c -0.335938,0 -0.601562,0.121094 -0.796875,0.359375 C 2.128906,-3.878906 1.972656,-3.507812 1.859375,-3 v 3 h -0.90625 v -5.25 h 0.78125 l 0.09375,1.0625 C 1.960938,-4.582031 2.148438,-4.878906 2.390625,-5.078125 2.628906,-5.273438 2.910156,-5.375 3.234375,-5.375 Z m 0,0"
           id="id-770b58f2-62c9-45ae-b2cd-9eba36340b82-9" />
      </g>
      <g
         id="id-e1e952b1-473d-4b16-8658-8ccb344bf6e2-4">
        <path
           d="M 3.59375,-0.234375 C 3.25,0.00390625 2.859375,0.125 2.421875,0.125 1.972656,0.125 1.625,0 1.375,-0.25 1.125,-0.507812 1,-0.882812 1,-1.375 V -4.546875 H 0.09375 V -5.25 H 1 V -6.4375 L 1.921875,-6.546875 V -5.25 h 1.25 l -0.09375,0.703125 h -1.15625 v 3.125 c 0,0.28125 0.046875,0.484375 0.140625,0.609375 0.101562,0.117188 0.265625,0.171875 0.484375,0.171875 0.207031,0 0.441406,-0.066406 0.703125,-0.203125 z m 0,0"
           id="id-9a464b31-0e21-4c51-a1a5-636c0bf8d362-3" />
      </g>
      <g
         id="id-9ed02e86-4559-4441-8fe2-0e22761cea85-5">
        <path
           d="M 3.046875,0.03125 C 2.835938,0.644531 2.550781,1.128906 2.1875,1.484375 1.820312,1.835938 1.296875,2.050781 0.609375,2.125 L 0.515625,1.40625 c 0.34375,-0.0625 0.613281,-0.152344 0.8125,-0.265625 0.207031,-0.105469 0.375,-0.246094 0.5,-0.421875 C 1.953125,0.539062 2.066406,0.300781 2.171875,0 h -0.3125 L 0.09375,-5.25 h 0.984375 l 1.40625,4.578125 1.375,-4.578125 H 4.8125 Z m 0,0"
           id="id-4483bff6-4d15-4d8c-933b-cce8f95c14f5-1" />
      </g>
    </g>
    <g
       id="id-bdf01ea3-5929-4ad2-a36b-d7c2f914ebea-8">
      <g
         id="id-e0a0ffc1-fa80-4413-948a-eb2d18d7602f-6">
        <path
           d="M 5.40625,-10.46875 V 3.484375 H 1.21875 V -10.46875 Z M 4.875,-9.953125 H 1.78125 V 2.96875 H 4.875 Z M 3.234375,-4.5 c 0.394531,0 0.675781,0.109375 0.84375,0.328125 0.175781,0.210937 0.265625,0.484375 0.265625,0.828125 0,0.34375 -0.078125,0.617188 -0.234375,0.8125 -0.148437,0.1875 -0.386719,0.308594 -0.71875,0.359375 v 0.453125 c 0,0.074219 -0.027344,0.132812 -0.078125,0.171875 -0.054688,0.042969 -0.109375,0.0625 -0.171875,0.0625 -0.0625,0 -0.121094,-0.019531 -0.171875,-0.0625 C 2.914062,-1.585938 2.890625,-1.644531 2.890625,-1.71875 V -2.5625 c 0.351563,-0.019531 0.59375,-0.082031 0.71875,-0.1875 0.125,-0.113281 0.1875,-0.304688 0.1875,-0.578125 0,-0.21875 -0.046875,-0.382813 -0.140625,-0.5 -0.085938,-0.125 -0.242188,-0.1875 -0.46875,-0.1875 -0.1875,0 -0.359375,0.039063 -0.515625,0.109375 -0.054687,0.023438 -0.09375,0.03125 -0.125,0.03125 -0.074219,0 -0.136719,-0.019531 -0.1875,-0.0625 -0.042969,-0.039062 -0.0625,-0.097656 -0.0625,-0.171875 0,-0.125 0.097656,-0.21875 0.296875,-0.28125 C 2.789062,-4.460938 3.003906,-4.5 3.234375,-4.5 Z m -0.09375,3.296875 c 0.101563,0 0.1875,0.039063 0.25,0.109375 0.0625,0.0625 0.09375,0.148438 0.09375,0.25 0,0.105469 -0.03125,0.195312 -0.09375,0.265625 -0.0625,0.0625 -0.148437,0.09375 -0.25,0.09375 -0.105469,0 -0.1875,-0.03125 -0.25,-0.09375 -0.0625,-0.070313 -0.09375,-0.160156 -0.09375,-0.265625 0,-0.101562 0.03125,-0.1875 0.09375,-0.25 0.0625,-0.070312 0.144531,-0.109375 0.25,-0.109375 z m 0,0"
           id="id-ec4c2030-0a5a-4241-838a-08314954b7ba-8" />
      </g>
      <g
         id="id-fe2ec057-6286-4e2e-af1e-f464a14189db-3">
        <path
           d="M 2,0.125 C 1.65625,0.125 1.382812,0.0234375 1.1875,-0.171875 0.988281,-0.378906 0.890625,-0.664062 0.890625,-1.03125 v -6.328125 l 0.921875,-0.125 V -1.0625 c 0,0.148438 0.023438,0.257812 0.078125,0.328125 0.050781,0.0625 0.132813,0.09375 0.25,0.09375 0.125,0 0.238281,-0.019531 0.34375,-0.0625 L 2.71875,-0.0625 C 2.5,0.0625 2.257812,0.125 2,0.125 Z m 0,0"
           id="id-646072ec-e1ea-4f63-8b31-3eca083c33fb-8" />
      </g>
      <g
         id="id-2925d855-4f39-43ef-97ec-c4ef8f34660e-3">
        <path
           d="m 4.484375,-1.21875 c 0,0.210938 0.035156,0.367188 0.109375,0.46875 0.070312,0.105469 0.179688,0.183594 0.328125,0.234375 L 4.71875,0.125 C 4.445312,0.0820312 4.226562,0.00390625 4.0625,-0.109375 c -0.167969,-0.125 -0.292969,-0.3125 -0.375,-0.5625 C 3.332031,-0.140625 2.8125,0.125 2.125,0.125 c -0.523438,0 -0.933594,-0.1445312 -1.234375,-0.4375 -0.292969,-0.289062 -0.4375,-0.675781 -0.4375,-1.15625 0,-0.550781 0.195313,-0.976562 0.59375,-1.28125 0.40625,-0.300781 0.976563,-0.453125 1.71875,-0.453125 H 3.5625 V -3.59375 c 0,-0.363281 -0.089844,-0.625 -0.265625,-0.78125 -0.179687,-0.164062 -0.453125,-0.25 -0.828125,-0.25 -0.386719,0 -0.855469,0.09375 -1.40625,0.28125 L 0.828125,-5.015625 c 0.644531,-0.238281 1.25,-0.359375 1.8125,-0.359375 0.613281,0 1.070313,0.152344 1.375,0.453125 0.3125,0.304687 0.46875,0.734375 0.46875,1.296875 z m -2.15625,0.65625 c 0.53125,0 0.941406,-0.273438 1.234375,-0.828125 V -2.59375 H 2.875 c -0.96875,0 -1.453125,0.359375 -1.453125,1.078125 0,0.3125 0.078125,0.554687 0.234375,0.71875 0.15625,0.15625 0.378906,0.234375 0.671875,0.234375 z m 0,0"
           id="id-c67935e3-ce84-43d4-bdb4-b6224cdeacef-3" />
      </g>
      <g
         id="id-39f5c8ab-d4b0-47ba-9ce1-4e8689b40cb3-3">
        <path
           d="M 3.59375,-0.234375 C 3.25,0.00390625 2.859375,0.125 2.421875,0.125 1.972656,0.125 1.625,0 1.375,-0.25 1.125,-0.507812 1,-0.882812 1,-1.375 V -4.546875 H 0.09375 V -5.25 H 1 V -6.4375 L 1.921875,-6.546875 V -5.25 h 1.25 l -0.09375,0.703125 h -1.15625 v 3.125 c 0,0.28125 0.046875,0.484375 0.140625,0.609375 0.101562,0.117188 0.265625,0.171875 0.484375,0.171875 0.207031,0 0.441406,-0.066406 0.703125,-0.203125 z m 0,0"
           id="id-bc397ece-ae03-4772-bf3d-64da02d9647f-8" />
      </g>
      <g
         id="id-42ef5f67-de4a-421e-ad66-0b6255e6a10e-0">
        <path
           d="M 1.859375,-5.25 V 0 h -0.90625 v -5.25 z m -0.46875,-2.53125 c 0.195313,0 0.351563,0.0625 0.46875,0.1875 0.125,0.117188 0.1875,0.265625 0.1875,0.453125 0,0.179687 -0.0625,0.324219 -0.1875,0.4375 -0.117187,0.117187 -0.273437,0.171875 -0.46875,0.171875 -0.179687,0 -0.328125,-0.054688 -0.453125,-0.171875 -0.117188,-0.113281 -0.171875,-0.257813 -0.171875,-0.4375 0,-0.1875 0.054687,-0.335937 0.171875,-0.453125 0.125,-0.125 0.273438,-0.1875 0.453125,-0.1875 z m 0,0"
           id="id-86291c05-731a-4d0c-bf2f-216828456091-4" />
      </g>
      <g
         id="id-0194adec-d861-4f6c-9665-e1f8d67925f9-7">
        <path
           d="m 2.859375,-5.375 c 0.3125,0 0.597656,0.046875 0.859375,0.140625 0.257812,0.085937 0.507812,0.226563 0.75,0.421875 l -0.4375,0.578125 c -0.1875,-0.125 -0.371094,-0.21875 -0.546875,-0.28125 -0.179687,-0.0625 -0.371094,-0.09375 -0.578125,-0.09375 -0.429688,0 -0.761719,0.171875 -1,0.515625 -0.230469,0.335938 -0.34375,0.828125 -0.34375,1.484375 0,0.667969 0.113281,1.164063 0.34375,1.484375 0.226562,0.3125 0.5625,0.46875 1,0.46875 0.195312,0 0.382812,-0.03125 0.5625,-0.09375 0.175781,-0.0625 0.367188,-0.164062 0.578125,-0.3125 L 4.46875,-0.453125 C 3.988281,-0.0664062 3.453125,0.125 2.859375,0.125 2.148438,0.125 1.585938,-0.113281 1.171875,-0.59375 0.765625,-1.070312 0.5625,-1.734375 0.5625,-2.578125 c 0,-0.5625 0.09375,-1.050781 0.28125,-1.46875 0.1875,-0.414063 0.453125,-0.738281 0.796875,-0.96875 0.34375,-0.238281 0.75,-0.359375 1.21875,-0.359375 z m 0,0"
           id="id-fd639e05-2717-41fd-aced-89c0c310e962-6" />
      </g>
      <g
         id="id-9be84ae8-5bed-4255-8888-42ce869f9ade-8">
        <path
           d="m 4.921875,-2.78125 c 0,0.15625 -0.011719,0.3125 -0.03125,0.46875 h -3.34375 c 0.039063,0.574219 0.1875,1 0.4375,1.28125 0.25,0.273438 0.570313,0.40625 0.96875,0.40625 0.257813,0 0.492187,-0.035156 0.703125,-0.109375 C 3.875,-0.804688 4.097656,-0.925781 4.328125,-1.09375 l 0.390625,0.5625 C 4.164062,-0.09375 3.554688,0.125 2.890625,0.125 2.160156,0.125 1.585938,-0.113281 1.171875,-0.59375 0.765625,-1.070312 0.5625,-1.734375 0.5625,-2.578125 c 0,-0.539063 0.085938,-1.019531 0.265625,-1.4375 0.175781,-0.425781 0.425781,-0.757813 0.75,-1 C 1.910156,-5.253906 2.300781,-5.375 2.75,-5.375 c 0.695312,0 1.234375,0.230469 1.609375,0.6875 0.375,0.460938 0.5625,1.09375 0.5625,1.90625 z M 4,-3.046875 c 0,-0.519531 -0.105469,-0.914063 -0.3125,-1.1875 -0.199219,-0.269531 -0.507812,-0.40625 -0.921875,-0.40625 -0.75,0 -1.15625,0.554687 -1.21875,1.65625 H 4 Z m 0,0"
           id="id-b0aa9407-be36-47b0-97cd-b95ac186544f-9" />
      </g>
      <g
         id="id-3bf78d70-f419-4470-a498-1dba52dcd458-0">
        <path
           d="m 2.375,-5.375 c 0.351562,0 0.671875,0.054688 0.953125,0.15625 0.289063,0.09375 0.566406,0.242188 0.828125,0.4375 L 3.765625,-4.203125 C 3.523438,-4.347656 3.296875,-4.457031 3.078125,-4.53125 2.867188,-4.601562 2.644531,-4.640625 2.40625,-4.640625 c -0.304688,0 -0.542969,0.0625 -0.71875,0.1875 -0.167969,0.117187 -0.25,0.28125 -0.25,0.5 0,0.210937 0.078125,0.375 0.234375,0.5 0.164063,0.117187 0.460937,0.230469 0.890625,0.34375 0.582031,0.148437 1.019531,0.34375 1.3125,0.59375 0.289062,0.25 0.4375,0.601563 0.4375,1.046875 0,0.511719 -0.203125,0.90625 -0.609375,1.1875 C 3.296875,-0.0078125 2.804688,0.125 2.234375,0.125 1.429688,0.125 0.769531,-0.101562 0.25,-0.5625 L 0.734375,-1.125 c 0.445313,0.335938 0.941406,0.5 1.484375,0.5 0.34375,0 0.613281,-0.066406 0.8125,-0.203125 0.207031,-0.144531 0.3125,-0.34375 0.3125,-0.59375 0,-0.175781 -0.039062,-0.316406 -0.109375,-0.421875 C 3.160156,-1.957031 3.03125,-2.054688 2.84375,-2.140625 2.664062,-2.222656 2.40625,-2.3125 2.0625,-2.40625 1.5,-2.550781 1.09375,-2.742188 0.84375,-2.984375 c -0.242188,-0.25 -0.359375,-0.5625 -0.359375,-0.9375 0,-0.28125 0.078125,-0.53125 0.234375,-0.75 C 0.882812,-4.890625 1.109375,-5.0625 1.390625,-5.1875 1.679688,-5.3125 2.007812,-5.375 2.375,-5.375 Z m 0,0"
           id="id-ae2c20aa-b745-4358-83a8-b9c92989d67b-6" />
      </g>
    </g>
    <g
       id="id-f9b1d487-b8db-447c-bdba-5159897859a9-7">
      <g
         id="id-d576c32b-0f48-4ba1-a785-4beb33115785-9">
        <path
           d="M 5.40625,-10.46875 V 3.484375 H 1.21875 V -10.46875 Z M 4.875,-9.953125 H 1.78125 V 2.96875 H 4.875 Z M 3.234375,-4.5 c 0.394531,0 0.675781,0.109375 0.84375,0.328125 0.175781,0.210937 0.265625,0.484375 0.265625,0.828125 0,0.34375 -0.078125,0.617188 -0.234375,0.8125 -0.148437,0.1875 -0.386719,0.308594 -0.71875,0.359375 v 0.453125 c 0,0.074219 -0.027344,0.132812 -0.078125,0.171875 -0.054688,0.042969 -0.109375,0.0625 -0.171875,0.0625 -0.0625,0 -0.121094,-0.019531 -0.171875,-0.0625 C 2.914062,-1.585938 2.890625,-1.644531 2.890625,-1.71875 V -2.5625 c 0.351563,-0.019531 0.59375,-0.082031 0.71875,-0.1875 0.125,-0.113281 0.1875,-0.304688 0.1875,-0.578125 0,-0.21875 -0.046875,-0.382813 -0.140625,-0.5 -0.085938,-0.125 -0.242188,-0.1875 -0.46875,-0.1875 -0.1875,0 -0.359375,0.039063 -0.515625,0.109375 -0.054687,0.023438 -0.09375,0.03125 -0.125,0.03125 -0.074219,0 -0.136719,-0.019531 -0.1875,-0.0625 -0.042969,-0.039062 -0.0625,-0.097656 -0.0625,-0.171875 0,-0.125 0.097656,-0.21875 0.296875,-0.28125 C 2.789062,-4.460938 3.003906,-4.5 3.234375,-4.5 Z m -0.09375,3.296875 c 0.101563,0 0.1875,0.039063 0.25,0.109375 0.0625,0.0625 0.09375,0.148438 0.09375,0.25 0,0.105469 -0.03125,0.195312 -0.09375,0.265625 -0.0625,0.0625 -0.148437,0.09375 -0.25,0.09375 -0.105469,0 -0.1875,-0.03125 -0.25,-0.09375 -0.0625,-0.070313 -0.09375,-0.160156 -0.09375,-0.265625 0,-0.101562 0.03125,-0.1875 0.09375,-0.25 0.0625,-0.070312 0.144531,-0.109375 0.25,-0.109375 z m 0,0"
           id="id-77fe14b9-aa37-423c-95fc-db0753064df8-3" />
      </g>
      <g
         id="id-de45d20a-2b74-4add-b6af-68b440af1ca7-9">
        <path
           d="m 2.375,-5.375 c 0.351562,0 0.671875,0.054688 0.953125,0.15625 0.289063,0.09375 0.566406,0.242188 0.828125,0.4375 L 3.765625,-4.203125 C 3.523438,-4.347656 3.296875,-4.457031 3.078125,-4.53125 2.867188,-4.601562 2.644531,-4.640625 2.40625,-4.640625 c -0.304688,0 -0.542969,0.0625 -0.71875,0.1875 -0.167969,0.117187 -0.25,0.28125 -0.25,0.5 0,0.210937 0.078125,0.375 0.234375,0.5 0.164063,0.117187 0.460937,0.230469 0.890625,0.34375 0.582031,0.148437 1.019531,0.34375 1.3125,0.59375 0.289062,0.25 0.4375,0.601563 0.4375,1.046875 0,0.511719 -0.203125,0.90625 -0.609375,1.1875 C 3.296875,-0.0078125 2.804688,0.125 2.234375,0.125 1.429688,0.125 0.769531,-0.101562 0.25,-0.5625 L 0.734375,-1.125 c 0.445313,0.335938 0.941406,0.5 1.484375,0.5 0.34375,0 0.613281,-0.066406 0.8125,-0.203125 0.207031,-0.144531 0.3125,-0.34375 0.3125,-0.59375 0,-0.175781 -0.039062,-0.316406 -0.109375,-0.421875 C 3.160156,-1.957031 3.03125,-2.054688 2.84375,-2.140625 2.664062,-2.222656 2.40625,-2.3125 2.0625,-2.40625 1.5,-2.550781 1.09375,-2.742188 0.84375,-2.984375 c -0.242188,-0.25 -0.359375,-0.5625 -0.359375,-0.9375 0,-0.28125 0.078125,-0.53125 0.234375,-0.75 C 0.882812,-4.890625 1.109375,-5.0625 1.390625,-5.1875 1.679688,-5.3125 2.007812,-5.375 2.375,-5.375 Z m 0,0"
           id="id-be022b8f-aaec-41b6-9762-93c1023145f6-2" />
      </g>
      <g
         id="id-5cec9bd1-82f6-493a-b123-d8e31d8ed521-8">
        <path
           d="m 6.21875,-5.375 c 0.4375,0 0.78125,0.148438 1.03125,0.4375 0.257812,0.292969 0.390625,0.683594 0.390625,1.171875 V 0 h -0.90625 v -3.640625 c 0,-0.675781 -0.25,-1.015625 -0.75,-1.015625 -0.25,0 -0.46875,0.078125 -0.65625,0.234375 -0.179687,0.148437 -0.371094,0.375 -0.578125,0.6875 V 0 H 3.84375 v -3.640625 c 0,-0.675781 -0.25,-1.015625 -0.75,-1.015625 -0.261719,0 -0.484375,0.078125 -0.671875,0.234375 -0.179687,0.148437 -0.367187,0.375 -0.5625,0.6875 V 0 h -0.90625 v -5.25 h 0.78125 L 1.8125,-4.484375 C 2.207031,-5.078125 2.710938,-5.375 3.328125,-5.375 c 0.320313,0 0.597656,0.085938 0.828125,0.25 0.226562,0.167969 0.394531,0.402344 0.5,0.703125 0.207031,-0.3125 0.4375,-0.546875 0.6875,-0.703125 0.25,-0.164062 0.539062,-0.25 0.875,-0.25 z m 0,0"
           id="id-cea98003-2d2c-447d-910b-fb201a687336-3" />
      </g>
      <g
         id="id-3b5de7b5-b066-4d60-ad95-8670d7ec5360-0">
        <path
           d="m 4.484375,-1.21875 c 0,0.210938 0.035156,0.367188 0.109375,0.46875 0.070312,0.105469 0.179688,0.183594 0.328125,0.234375 L 4.71875,0.125 C 4.445312,0.0820312 4.226562,0.00390625 4.0625,-0.109375 c -0.167969,-0.125 -0.292969,-0.3125 -0.375,-0.5625 C 3.332031,-0.140625 2.8125,0.125 2.125,0.125 c -0.523438,0 -0.933594,-0.1445312 -1.234375,-0.4375 -0.292969,-0.289062 -0.4375,-0.675781 -0.4375,-1.15625 0,-0.550781 0.195313,-0.976562 0.59375,-1.28125 0.40625,-0.300781 0.976563,-0.453125 1.71875,-0.453125 H 3.5625 V -3.59375 c 0,-0.363281 -0.089844,-0.625 -0.265625,-0.78125 -0.179687,-0.164062 -0.453125,-0.25 -0.828125,-0.25 -0.386719,0 -0.855469,0.09375 -1.40625,0.28125 L 0.828125,-5.015625 c 0.644531,-0.238281 1.25,-0.359375 1.8125,-0.359375 0.613281,0 1.070313,0.152344 1.375,0.453125 0.3125,0.304687 0.46875,0.734375 0.46875,1.296875 z m -2.15625,0.65625 c 0.53125,0 0.941406,-0.273438 1.234375,-0.828125 V -2.59375 H 2.875 c -0.96875,0 -1.453125,0.359375 -1.453125,1.078125 0,0.3125 0.078125,0.554687 0.234375,0.71875 0.15625,0.15625 0.378906,0.234375 0.671875,0.234375 z m 0,0"
           id="id-c091a12f-4824-475a-9401-c9f0b90af3e5-1" />
      </g>
      <g
         id="id-a60e2ef9-5062-4c20-842d-e4467e2dafd0-7">
        <path
           d="M 2,0.125 C 1.65625,0.125 1.382812,0.0234375 1.1875,-0.171875 0.988281,-0.378906 0.890625,-0.664062 0.890625,-1.03125 v -6.328125 l 0.921875,-0.125 V -1.0625 c 0,0.148438 0.023438,0.257812 0.078125,0.328125 0.050781,0.0625 0.132813,0.09375 0.25,0.09375 0.125,0 0.238281,-0.019531 0.34375,-0.0625 L 2.71875,-0.0625 C 2.5,0.0625 2.257812,0.125 2,0.125 Z m 0,0"
           id="id-a5461930-ad78-40ad-a817-7db01bdc09c6-8" />
      </g>
      <g
         id="id-4411f2d3-7238-4660-8389-b28b86ccf7c7-9">
        <path
           d="m 5.4375,-6.4375 v 5.890625 H 1.34375 V -6.4375 Z m 0.546875,-0.546875 h -5.1875 V 0 h 5.1875 z m -2.75,4.953125 c -0.21875,0 -0.40625,0.1875 -0.40625,0.421875 0,0.21875 0.1875,0.40625 0.40625,0.40625 0.25,0 0.421875,-0.1875 0.421875,-0.40625 0,-0.234375 -0.171875,-0.421875 -0.421875,-0.421875 z M 3.4375,-5.453125 c -0.5,0 -0.90625,0.1875 -1.25,0.59375 l 0.390625,0.28125 C 2.828125,-4.875 3.09375,-5 3.40625,-5 3.765625,-5 4,-4.8125 4,-4.484375 4,-3.84375 2.953125,-3.953125 2.953125,-2.9375 v 0.296875 H 3.5 V -2.90625 c 0,-0.796875 1.078125,-0.65625 1.078125,-1.625 0,-0.46875 -0.375,-0.921875 -1.140625,-0.921875 z m 0,0"
           id="id-d6439a13-d23b-4488-80fe-3e4df7ad42ac-1" />
      </g>
      <g
         id="id-43ece86d-466a-4723-b13f-01f653c0702b-5">
        <path
           d="M 2.65625,-6.875 H 1.71875 L 0.890625,-1.03125 C 0.765625,-0.109375 0.5,0.3125 -0.453125,0.671875 L -0.265625,1.375 C 0.875,1.03125 1.609375,0.515625 1.8125,-0.921875 Z m 0,0"
           id="id-72810525-7861-4729-b4c7-8c8ef55af399-4" />
      </g>
    </g>
    <inkscape:path-effect
       effect="spiro"
       id="path-effect56005-1"
       is_visible="true"
       lpeversion="1" />
    <inkscape:path-effect
       effect="spiro"
       id="path-effect56979-8"
       is_visible="true"
       lpeversion="1" />
    <inkscape:path-effect
       effect="spiro"
       id="path-effect56985-3"
       is_visible="true"
       lpeversion="1" />
    <inkscape:path-effect
       effect="spiro"
       id="path-effect58322-0"
       is_visible="true"
       lpeversion="1" />
    <inkscape:path-effect
       effect="spiro"
       id="path-effect58322-7-1"
       is_visible="true"
       lpeversion="1" />
    <inkscape:path-effect
       effect="spiro"
       id="path-effect60939-9"
       is_visible="true"
       lpeversion="1" />
    <g
       id="id-094ce821-3624-4d02-8945-e7f626c2a06b-6">
      <g
         id="id-ffe2b414-3fab-4fc0-b0e7-43dfaf9a6542-7">
        <path
           d="M 5.40625,-10.46875 V 3.484375 H 1.21875 V -10.46875 Z M 4.875,-9.953125 H 1.78125 V 2.96875 H 4.875 Z M 3.234375,-4.5 c 0.394531,0 0.675781,0.109375 0.84375,0.328125 0.175781,0.210937 0.265625,0.484375 0.265625,0.828125 0,0.34375 -0.078125,0.617188 -0.234375,0.8125 -0.148437,0.1875 -0.386719,0.308594 -0.71875,0.359375 v 0.453125 c 0,0.074219 -0.027344,0.132812 -0.078125,0.171875 -0.054688,0.042969 -0.109375,0.0625 -0.171875,0.0625 -0.0625,0 -0.121094,-0.019531 -0.171875,-0.0625 C 2.914062,-1.585938 2.890625,-1.644531 2.890625,-1.71875 V -2.5625 c 0.351563,-0.019531 0.59375,-0.082031 0.71875,-0.1875 0.125,-0.113281 0.1875,-0.304688 0.1875,-0.578125 0,-0.21875 -0.046875,-0.382813 -0.140625,-0.5 -0.085938,-0.125 -0.242188,-0.1875 -0.46875,-0.1875 -0.1875,0 -0.359375,0.039063 -0.515625,0.109375 -0.054687,0.023438 -0.09375,0.03125 -0.125,0.03125 -0.074219,0 -0.136719,-0.019531 -0.1875,-0.0625 -0.042969,-0.039062 -0.0625,-0.097656 -0.0625,-0.171875 0,-0.125 0.097656,-0.21875 0.296875,-0.28125 C 2.789062,-4.460938 3.003906,-4.5 3.234375,-4.5 Z m -0.09375,3.296875 c 0.101563,0 0.1875,0.039063 0.25,0.109375 0.0625,0.0625 0.09375,0.148438 0.09375,0.25 0,0.105469 -0.03125,0.195312 -0.09375,0.265625 -0.0625,0.0625 -0.148437,0.09375 -0.25,0.09375 -0.105469,0 -0.1875,-0.03125 -0.25,-0.09375 -0.0625,-0.070313 -0.09375,-0.160156 -0.09375,-0.265625 0,-0.101562 0.03125,-0.1875 0.09375,-0.25 0.0625,-0.070312 0.144531,-0.109375 0.25,-0.109375 z m 0,0"
           id="id-30b40e3d-6024-4715-be1d-1c84f49ba9d9-7" />
      </g>
      <g
         id="id-5617da07-0d23-45fa-afc3-5c88b12621db-40">
        <path
           d="M 1.859375,-5.25 V 0 h -0.90625 v -5.25 z m -0.46875,-2.53125 c 0.195313,0 0.351563,0.0625 0.46875,0.1875 0.125,0.117188 0.1875,0.265625 0.1875,0.453125 0,0.179687 -0.0625,0.324219 -0.1875,0.4375 -0.117187,0.117187 -0.273437,0.171875 -0.46875,0.171875 -0.179687,0 -0.328125,-0.054688 -0.453125,-0.171875 -0.117188,-0.113281 -0.171875,-0.257813 -0.171875,-0.4375 0,-0.1875 0.054687,-0.335937 0.171875,-0.453125 0.125,-0.125 0.273438,-0.1875 0.453125,-0.1875 z m 0,0"
           id="id-35ed1452-d1e2-450d-b917-23520c17512e-6" />
      </g>
      <g
         id="id-7f378fb6-6f10-45b2-97d1-7ff03fc70754-4">
        <path
           d="m 6.21875,-5.375 c 0.4375,0 0.78125,0.148438 1.03125,0.4375 0.257812,0.292969 0.390625,0.683594 0.390625,1.171875 V 0 h -0.90625 v -3.640625 c 0,-0.675781 -0.25,-1.015625 -0.75,-1.015625 -0.25,0 -0.46875,0.078125 -0.65625,0.234375 -0.179687,0.148437 -0.371094,0.375 -0.578125,0.6875 V 0 H 3.84375 v -3.640625 c 0,-0.675781 -0.25,-1.015625 -0.75,-1.015625 -0.261719,0 -0.484375,0.078125 -0.671875,0.234375 -0.179687,0.148437 -0.367187,0.375 -0.5625,0.6875 V 0 h -0.90625 v -5.25 h 0.78125 L 1.8125,-4.484375 C 2.207031,-5.078125 2.710938,-5.375 3.328125,-5.375 c 0.320313,0 0.597656,0.085938 0.828125,0.25 0.226562,0.167969 0.394531,0.402344 0.5,0.703125 0.207031,-0.3125 0.4375,-0.546875 0.6875,-0.703125 0.25,-0.164062 0.539062,-0.25 0.875,-0.25 z m 0,0"
           id="id-f1de8883-088e-48b2-b118-fc763ace7d3d-7" />
      </g>
      <g
         id="id-5b951bdc-6920-4d91-8643-a57a974101da-4">
        <path
           d="m 3.359375,-5.375 c 0.664063,0 1.15625,0.242188 1.46875,0.71875 0.3125,0.480469 0.46875,1.15625 0.46875,2.03125 0,0.824219 -0.179687,1.492188 -0.53125,2 -0.355469,0.5 -0.867187,0.75 -1.53125,0.75 -0.585937,0 -1.042969,-0.203125 -1.375,-0.609375 v 2.5 L 0.953125,2.125 V -5.25 h 0.78125 l 0.0625,0.703125 C 1.992188,-4.804688 2.226562,-5.007812 2.5,-5.15625 2.769531,-5.300781 3.054688,-5.375 3.359375,-5.375 Z m -0.34375,4.75 c 0.863281,0 1.296875,-0.664062 1.296875,-2 0,-1.34375 -0.398438,-2.015625 -1.1875,-2.015625 -0.261719,0 -0.496094,0.078125 -0.703125,0.234375 -0.210937,0.148438 -0.398437,0.339844 -0.5625,0.578125 v 2.5625 c 0.132813,0.210937 0.300781,0.371094 0.5,0.484375 0.195313,0.105469 0.414063,0.15625 0.65625,0.15625 z m 0,0"
           id="id-5583ab49-dcea-4fd3-a65a-21d4bf8ce5d0-8" />
      </g>
      <g
         id="id-967009d8-891f-4871-8335-edf8fb4670db-58">
        <path
           d="M 4.859375,0 H 4.0625 L 4,-0.8125 C 3.800781,-0.488281 3.570312,-0.25 3.3125,-0.09375 3.050781,0.0507812 2.734375,0.125 2.359375,0.125 1.898438,0.125 1.539062,-0.015625 1.28125,-0.296875 1.019531,-0.578125 0.890625,-0.972656 0.890625,-1.484375 V -5.25 H 1.8125 v 3.671875 c 0,0.355469 0.0625,0.609375 0.1875,0.765625 0.125,0.148438 0.332031,0.21875 0.625,0.21875 0.507812,0 0.945312,-0.300781 1.3125,-0.90625 v -3.75 h 0.921875 z m 0,0"
           id="id-ef0eb4eb-d054-4b8c-b4c2-fbe8e5d5b3d8-2" />
      </g>
      <g
         id="id-31eca70c-5037-4d82-8d4e-77c08432b4a4-6">
        <path
           d="m 3.234375,-5.375 c 0.1875,0 0.359375,0.023438 0.515625,0.0625 L 3.578125,-4.421875 C 3.421875,-4.453125 3.269531,-4.46875 3.125,-4.46875 c -0.335938,0 -0.601562,0.121094 -0.796875,0.359375 C 2.128906,-3.878906 1.972656,-3.507812 1.859375,-3 v 3 h -0.90625 v -5.25 h 0.78125 l 0.09375,1.0625 C 1.960938,-4.582031 2.148438,-4.878906 2.390625,-5.078125 2.628906,-5.273438 2.910156,-5.375 3.234375,-5.375 Z m 0,0"
           id="id-770b58f2-62c9-45ae-b2cd-9eba36340b82-0" />
      </g>
      <g
         id="id-e1e952b1-473d-4b16-8658-8ccb344bf6e2-6">
        <path
           d="M 3.59375,-0.234375 C 3.25,0.00390625 2.859375,0.125 2.421875,0.125 1.972656,0.125 1.625,0 1.375,-0.25 1.125,-0.507812 1,-0.882812 1,-1.375 V -4.546875 H 0.09375 V -5.25 H 1 V -6.4375 L 1.921875,-6.546875 V -5.25 h 1.25 l -0.09375,0.703125 h -1.15625 v 3.125 c 0,0.28125 0.046875,0.484375 0.140625,0.609375 0.101562,0.117188 0.265625,0.171875 0.484375,0.171875 0.207031,0 0.441406,-0.066406 0.703125,-0.203125 z m 0,0"
           id="id-9a464b31-0e21-4c51-a1a5-636c0bf8d362-6" />
      </g>
      <g
         id="id-9ed02e86-4559-4441-8fe2-0e22761cea85-4">
        <path
           d="M 3.046875,0.03125 C 2.835938,0.644531 2.550781,1.128906 2.1875,1.484375 1.820312,1.835938 1.296875,2.050781 0.609375,2.125 L 0.515625,1.40625 c 0.34375,-0.0625 0.613281,-0.152344 0.8125,-0.265625 0.207031,-0.105469 0.375,-0.246094 0.5,-0.421875 C 1.953125,0.539062 2.066406,0.300781 2.171875,0 h -0.3125 L 0.09375,-5.25 h 0.984375 l 1.40625,4.578125 1.375,-4.578125 H 4.8125 Z m 0,0"
           id="id-4483bff6-4d15-4d8c-933b-cce8f95c14f5-6" />
      </g>
    </g>
    <g
       id="id-bdf01ea3-5929-4ad2-a36b-d7c2f914ebea-0">
      <g
         id="id-e0a0ffc1-fa80-4413-948a-eb2d18d7602f-9">
        <path
           d="M 5.40625,-10.46875 V 3.484375 H 1.21875 V -10.46875 Z M 4.875,-9.953125 H 1.78125 V 2.96875 H 4.875 Z M 3.234375,-4.5 c 0.394531,0 0.675781,0.109375 0.84375,0.328125 0.175781,0.210937 0.265625,0.484375 0.265625,0.828125 0,0.34375 -0.078125,0.617188 -0.234375,0.8125 -0.148437,0.1875 -0.386719,0.308594 -0.71875,0.359375 v 0.453125 c 0,0.074219 -0.027344,0.132812 -0.078125,0.171875 -0.054688,0.042969 -0.109375,0.0625 -0.171875,0.0625 -0.0625,0 -0.121094,-0.019531 -0.171875,-0.0625 C 2.914062,-1.585938 2.890625,-1.644531 2.890625,-1.71875 V -2.5625 c 0.351563,-0.019531 0.59375,-0.082031 0.71875,-0.1875 0.125,-0.113281 0.1875,-0.304688 0.1875,-0.578125 0,-0.21875 -0.046875,-0.382813 -0.140625,-0.5 -0.085938,-0.125 -0.242188,-0.1875 -0.46875,-0.1875 -0.1875,0 -0.359375,0.039063 -0.515625,0.109375 -0.054687,0.023438 -0.09375,0.03125 -0.125,0.03125 -0.074219,0 -0.136719,-0.019531 -0.1875,-0.0625 -0.042969,-0.039062 -0.0625,-0.097656 -0.0625,-0.171875 0,-0.125 0.097656,-0.21875 0.296875,-0.28125 C 2.789062,-4.460938 3.003906,-4.5 3.234375,-4.5 Z m -0.09375,3.296875 c 0.101563,0 0.1875,0.039063 0.25,0.109375 0.0625,0.0625 0.09375,0.148438 0.09375,0.25 0,0.105469 -0.03125,0.195312 -0.09375,0.265625 -0.0625,0.0625 -0.148437,0.09375 -0.25,0.09375 -0.105469,0 -0.1875,-0.03125 -0.25,-0.09375 -0.0625,-0.070313 -0.09375,-0.160156 -0.09375,-0.265625 0,-0.101562 0.03125,-0.1875 0.09375,-0.25 0.0625,-0.070312 0.144531,-0.109375 0.25,-0.109375 z m 0,0"
           id="id-ec4c2030-0a5a-4241-838a-08314954b7ba-9" />
      </g>
      <g
         id="id-fe2ec057-6286-4e2e-af1e-f464a14189db-4">
        <path
           d="M 2,0.125 C 1.65625,0.125 1.382812,0.0234375 1.1875,-0.171875 0.988281,-0.378906 0.890625,-0.664062 0.890625,-1.03125 v -6.328125 l 0.921875,-0.125 V -1.0625 c 0,0.148438 0.023438,0.257812 0.078125,0.328125 0.050781,0.0625 0.132813,0.09375 0.25,0.09375 0.125,0 0.238281,-0.019531 0.34375,-0.0625 L 2.71875,-0.0625 C 2.5,0.0625 2.257812,0.125 2,0.125 Z m 0,0"
           id="id-646072ec-e1ea-4f63-8b31-3eca083c33fb-5" />
      </g>
      <g
         id="id-2925d855-4f39-43ef-97ec-c4ef8f34660e-1">
        <path
           d="m 4.484375,-1.21875 c 0,0.210938 0.035156,0.367188 0.109375,0.46875 0.070312,0.105469 0.179688,0.183594 0.328125,0.234375 L 4.71875,0.125 C 4.445312,0.0820312 4.226562,0.00390625 4.0625,-0.109375 c -0.167969,-0.125 -0.292969,-0.3125 -0.375,-0.5625 C 3.332031,-0.140625 2.8125,0.125 2.125,0.125 c -0.523438,0 -0.933594,-0.1445312 -1.234375,-0.4375 -0.292969,-0.289062 -0.4375,-0.675781 -0.4375,-1.15625 0,-0.550781 0.195313,-0.976562 0.59375,-1.28125 0.40625,-0.300781 0.976563,-0.453125 1.71875,-0.453125 H 3.5625 V -3.59375 c 0,-0.363281 -0.089844,-0.625 -0.265625,-0.78125 -0.179687,-0.164062 -0.453125,-0.25 -0.828125,-0.25 -0.386719,0 -0.855469,0.09375 -1.40625,0.28125 L 0.828125,-5.015625 c 0.644531,-0.238281 1.25,-0.359375 1.8125,-0.359375 0.613281,0 1.070313,0.152344 1.375,0.453125 0.3125,0.304687 0.46875,0.734375 0.46875,1.296875 z m -2.15625,0.65625 c 0.53125,0 0.941406,-0.273438 1.234375,-0.828125 V -2.59375 H 2.875 c -0.96875,0 -1.453125,0.359375 -1.453125,1.078125 0,0.3125 0.078125,0.554687 0.234375,0.71875 0.15625,0.15625 0.378906,0.234375 0.671875,0.234375 z m 0,0"
           id="id-c67935e3-ce84-43d4-bdb4-b6224cdeacef-0" />
      </g>
      <g
         id="id-39f5c8ab-d4b0-47ba-9ce1-4e8689b40cb3-37">
        <path
           d="M 3.59375,-0.234375 C 3.25,0.00390625 2.859375,0.125 2.421875,0.125 1.972656,0.125 1.625,0 1.375,-0.25 1.125,-0.507812 1,-0.882812 1,-1.375 V -4.546875 H 0.09375 V -5.25 H 1 V -6.4375 L 1.921875,-6.546875 V -5.25 h 1.25 l -0.09375,0.703125 h -1.15625 v 3.125 c 0,0.28125 0.046875,0.484375 0.140625,0.609375 0.101562,0.117188 0.265625,0.171875 0.484375,0.171875 0.207031,0 0.441406,-0.066406 0.703125,-0.203125 z m 0,0"
           id="id-bc397ece-ae03-4772-bf3d-64da02d9647f-88" />
      </g>
      <g
         id="id-42ef5f67-de4a-421e-ad66-0b6255e6a10e-6">
        <path
           d="M 1.859375,-5.25 V 0 h -0.90625 v -5.25 z m -0.46875,-2.53125 c 0.195313,0 0.351563,0.0625 0.46875,0.1875 0.125,0.117188 0.1875,0.265625 0.1875,0.453125 0,0.179687 -0.0625,0.324219 -0.1875,0.4375 -0.117187,0.117187 -0.273437,0.171875 -0.46875,0.171875 -0.179687,0 -0.328125,-0.054688 -0.453125,-0.171875 -0.117188,-0.113281 -0.171875,-0.257813 -0.171875,-0.4375 0,-0.1875 0.054687,-0.335937 0.171875,-0.453125 0.125,-0.125 0.273438,-0.1875 0.453125,-0.1875 z m 0,0"
           id="id-86291c05-731a-4d0c-bf2f-216828456091-0" />
      </g>
      <g
         id="id-0194adec-d861-4f6c-9665-e1f8d67925f9-4">
        <path
           d="m 2.859375,-5.375 c 0.3125,0 0.597656,0.046875 0.859375,0.140625 0.257812,0.085937 0.507812,0.226563 0.75,0.421875 l -0.4375,0.578125 c -0.1875,-0.125 -0.371094,-0.21875 -0.546875,-0.28125 -0.179687,-0.0625 -0.371094,-0.09375 -0.578125,-0.09375 -0.429688,0 -0.761719,0.171875 -1,0.515625 -0.230469,0.335938 -0.34375,0.828125 -0.34375,1.484375 0,0.667969 0.113281,1.164063 0.34375,1.484375 0.226562,0.3125 0.5625,0.46875 1,0.46875 0.195312,0 0.382812,-0.03125 0.5625,-0.09375 0.175781,-0.0625 0.367188,-0.164062 0.578125,-0.3125 L 4.46875,-0.453125 C 3.988281,-0.0664062 3.453125,0.125 2.859375,0.125 2.148438,0.125 1.585938,-0.113281 1.171875,-0.59375 0.765625,-1.070312 0.5625,-1.734375 0.5625,-2.578125 c 0,-0.5625 0.09375,-1.050781 0.28125,-1.46875 0.1875,-0.414063 0.453125,-0.738281 0.796875,-0.96875 0.34375,-0.238281 0.75,-0.359375 1.21875,-0.359375 z m 0,0"
           id="id-fd639e05-2717-41fd-aced-89c0c310e962-67" />
      </g>
      <g
         id="id-9be84ae8-5bed-4255-8888-42ce869f9ade-6">
        <path
           d="m 4.921875,-2.78125 c 0,0.15625 -0.011719,0.3125 -0.03125,0.46875 h -3.34375 c 0.039063,0.574219 0.1875,1 0.4375,1.28125 0.25,0.273438 0.570313,0.40625 0.96875,0.40625 0.257813,0 0.492187,-0.035156 0.703125,-0.109375 C 3.875,-0.804688 4.097656,-0.925781 4.328125,-1.09375 l 0.390625,0.5625 C 4.164062,-0.09375 3.554688,0.125 2.890625,0.125 2.160156,0.125 1.585938,-0.113281 1.171875,-0.59375 0.765625,-1.070312 0.5625,-1.734375 0.5625,-2.578125 c 0,-0.539063 0.085938,-1.019531 0.265625,-1.4375 0.175781,-0.425781 0.425781,-0.757813 0.75,-1 C 1.910156,-5.253906 2.300781,-5.375 2.75,-5.375 c 0.695312,0 1.234375,0.230469 1.609375,0.6875 0.375,0.460938 0.5625,1.09375 0.5625,1.90625 z M 4,-3.046875 c 0,-0.519531 -0.105469,-0.914063 -0.3125,-1.1875 -0.199219,-0.269531 -0.507812,-0.40625 -0.921875,-0.40625 -0.75,0 -1.15625,0.554687 -1.21875,1.65625 H 4 Z m 0,0"
           id="id-b0aa9407-be36-47b0-97cd-b95ac186544f-0" />
      </g>
      <g
         id="id-3bf78d70-f419-4470-a498-1dba52dcd458-9">
        <path
           d="m 2.375,-5.375 c 0.351562,0 0.671875,0.054688 0.953125,0.15625 0.289063,0.09375 0.566406,0.242188 0.828125,0.4375 L 3.765625,-4.203125 C 3.523438,-4.347656 3.296875,-4.457031 3.078125,-4.53125 2.867188,-4.601562 2.644531,-4.640625 2.40625,-4.640625 c -0.304688,0 -0.542969,0.0625 -0.71875,0.1875 -0.167969,0.117187 -0.25,0.28125 -0.25,0.5 0,0.210937 0.078125,0.375 0.234375,0.5 0.164063,0.117187 0.460937,0.230469 0.890625,0.34375 0.582031,0.148437 1.019531,0.34375 1.3125,0.59375 0.289062,0.25 0.4375,0.601563 0.4375,1.046875 0,0.511719 -0.203125,0.90625 -0.609375,1.1875 C 3.296875,-0.0078125 2.804688,0.125 2.234375,0.125 1.429688,0.125 0.769531,-0.101562 0.25,-0.5625 L 0.734375,-1.125 c 0.445313,0.335938 0.941406,0.5 1.484375,0.5 0.34375,0 0.613281,-0.066406 0.8125,-0.203125 0.207031,-0.144531 0.3125,-0.34375 0.3125,-0.59375 0,-0.175781 -0.039062,-0.316406 -0.109375,-0.421875 C 3.160156,-1.957031 3.03125,-2.054688 2.84375,-2.140625 2.664062,-2.222656 2.40625,-2.3125 2.0625,-2.40625 1.5,-2.550781 1.09375,-2.742188 0.84375,-2.984375 c -0.242188,-0.25 -0.359375,-0.5625 -0.359375,-0.9375 0,-0.28125 0.078125,-0.53125 0.234375,-0.75 C 0.882812,-4.890625 1.109375,-5.0625 1.390625,-5.1875 1.679688,-5.3125 2.007812,-5.375 2.375,-5.375 Z m 0,0"
           id="id-ae2c20aa-b745-4358-83a8-b9c92989d67b-7" />
      </g>
    </g>
    <g
       id="id-97460c29-912d-4cc0-bc3f-ce6c5a958894-9">
      <g
         id="id-196b3f4a-c1c8-41e6-a02e-fffb40074b54-3">
        <path
           d="M 5.40625,-10.46875 V 3.484375 H 1.21875 V -10.46875 Z M 4.875,-9.953125 H 1.78125 V 2.96875 H 4.875 Z M 3.234375,-4.5 c 0.394531,0 0.675781,0.109375 0.84375,0.328125 0.175781,0.210937 0.265625,0.484375 0.265625,0.828125 0,0.34375 -0.078125,0.617188 -0.234375,0.8125 -0.148437,0.1875 -0.386719,0.308594 -0.71875,0.359375 v 0.453125 c 0,0.074219 -0.027344,0.132812 -0.078125,0.171875 -0.054688,0.042969 -0.109375,0.0625 -0.171875,0.0625 -0.0625,0 -0.121094,-0.019531 -0.171875,-0.0625 C 2.914062,-1.585938 2.890625,-1.644531 2.890625,-1.71875 V -2.5625 c 0.351563,-0.019531 0.59375,-0.082031 0.71875,-0.1875 0.125,-0.113281 0.1875,-0.304688 0.1875,-0.578125 0,-0.21875 -0.046875,-0.382813 -0.140625,-0.5 -0.085938,-0.125 -0.242188,-0.1875 -0.46875,-0.1875 -0.1875,0 -0.359375,0.039063 -0.515625,0.109375 -0.054687,0.023438 -0.09375,0.03125 -0.125,0.03125 -0.074219,0 -0.136719,-0.019531 -0.1875,-0.0625 -0.042969,-0.039062 -0.0625,-0.097656 -0.0625,-0.171875 0,-0.125 0.097656,-0.21875 0.296875,-0.28125 C 2.789062,-4.460938 3.003906,-4.5 3.234375,-4.5 Z m -0.09375,3.296875 c 0.101563,0 0.1875,0.039063 0.25,0.109375 0.0625,0.0625 0.09375,0.148438 0.09375,0.25 0,0.105469 -0.03125,0.195312 -0.09375,0.265625 -0.0625,0.0625 -0.148437,0.09375 -0.25,0.09375 -0.105469,0 -0.1875,-0.03125 -0.25,-0.09375 -0.0625,-0.070313 -0.09375,-0.160156 -0.09375,-0.265625 0,-0.101562 0.03125,-0.1875 0.09375,-0.25 0.0625,-0.070312 0.144531,-0.109375 0.25,-0.109375 z m 0,0"
           id="id-6246aa4d-fa48-4348-b90c-2ce088e253f3-2" />
      </g>
      <g
         id="id-4e7f1784-78ae-4afd-bd78-521e64d88573-4">
        <path
           d="M 6.953125,-5.25 5.75,0 H 4.5 L 3.59375,-4.421875 2.640625,0 h -1.21875 l -1.21875,-5.25 h 0.90625 L 2.0625,-0.640625 3.09375,-5.25 H 4.125 L 5.109375,-0.640625 6.078125,-5.25 Z m 0,0"
           id="id-608f1f60-4f66-4d52-b924-6da324bf7396-3" />
      </g>
      <g
         id="id-608ced1b-fd2e-4440-84a9-be83b47188fc-7">
        <path
           d="m 4.921875,-2.78125 c 0,0.15625 -0.011719,0.3125 -0.03125,0.46875 h -3.34375 c 0.039063,0.574219 0.1875,1 0.4375,1.28125 0.25,0.273438 0.570313,0.40625 0.96875,0.40625 0.257813,0 0.492187,-0.035156 0.703125,-0.109375 C 3.875,-0.804688 4.097656,-0.925781 4.328125,-1.09375 l 0.390625,0.5625 C 4.164062,-0.09375 3.554688,0.125 2.890625,0.125 2.160156,0.125 1.585938,-0.113281 1.171875,-0.59375 0.765625,-1.070312 0.5625,-1.734375 0.5625,-2.578125 c 0,-0.539063 0.085938,-1.019531 0.265625,-1.4375 0.175781,-0.425781 0.425781,-0.757813 0.75,-1 C 1.910156,-5.253906 2.300781,-5.375 2.75,-5.375 c 0.695312,0 1.234375,0.230469 1.609375,0.6875 0.375,0.460938 0.5625,1.09375 0.5625,1.90625 z M 4,-3.046875 c 0,-0.519531 -0.105469,-0.914063 -0.3125,-1.1875 -0.199219,-0.269531 -0.507812,-0.40625 -0.921875,-0.40625 -0.75,0 -1.15625,0.554687 -1.21875,1.65625 H 4 Z m 0,0"
           id="id-f99cc348-0444-4f86-9873-34df1a400bfb-1" />
      </g>
      <g
         id="id-a2b05806-2e38-4e6c-a5f4-2a510b072570-2">
        <path
           d="m 4.484375,-1.21875 c 0,0.210938 0.035156,0.367188 0.109375,0.46875 0.070312,0.105469 0.179688,0.183594 0.328125,0.234375 L 4.71875,0.125 C 4.445312,0.0820312 4.226562,0.00390625 4.0625,-0.109375 c -0.167969,-0.125 -0.292969,-0.3125 -0.375,-0.5625 C 3.332031,-0.140625 2.8125,0.125 2.125,0.125 c -0.523438,0 -0.933594,-0.1445312 -1.234375,-0.4375 -0.292969,-0.289062 -0.4375,-0.675781 -0.4375,-1.15625 0,-0.550781 0.195313,-0.976562 0.59375,-1.28125 0.40625,-0.300781 0.976563,-0.453125 1.71875,-0.453125 H 3.5625 V -3.59375 c 0,-0.363281 -0.089844,-0.625 -0.265625,-0.78125 -0.179687,-0.164062 -0.453125,-0.25 -0.828125,-0.25 -0.386719,0 -0.855469,0.09375 -1.40625,0.28125 L 0.828125,-5.015625 c 0.644531,-0.238281 1.25,-0.359375 1.8125,-0.359375 0.613281,0 1.070313,0.152344 1.375,0.453125 0.3125,0.304687 0.46875,0.734375 0.46875,1.296875 z m -2.15625,0.65625 c 0.53125,0 0.941406,-0.273438 1.234375,-0.828125 V -2.59375 H 2.875 c -0.96875,0 -1.453125,0.359375 -1.453125,1.078125 0,0.3125 0.078125,0.554687 0.234375,0.71875 0.15625,0.15625 0.378906,0.234375 0.671875,0.234375 z m 0,0"
           id="id-8f85ab84-1866-411b-b91f-908b083e029b-2" />
      </g>
      <g
         id="id-0a3a1cbf-26c8-44b8-86f4-e68dc9fd7208-0">
        <path
           d="M 1.859375,-7.484375 V 0 H 0.953125 V -7.359375 Z M 4.890625,-5.25 2.953125,-2.9375 5.109375,0 H 4 l -2.078125,-2.875 1.9375,-2.375 z m 0,0"
           id="id-5be025b8-2d84-41d6-b05b-c8b37d5931b8-2" />
      </g>
      <g
         id="id-9bfd4f1c-754d-4196-98a9-6fc407efe6ab-1">
        <path
           d="m 2.859375,-5.375 c 0.3125,0 0.597656,0.046875 0.859375,0.140625 0.257812,0.085937 0.507812,0.226563 0.75,0.421875 l -0.4375,0.578125 c -0.1875,-0.125 -0.371094,-0.21875 -0.546875,-0.28125 -0.179687,-0.0625 -0.371094,-0.09375 -0.578125,-0.09375 -0.429688,0 -0.761719,0.171875 -1,0.515625 -0.230469,0.335938 -0.34375,0.828125 -0.34375,1.484375 0,0.667969 0.113281,1.164063 0.34375,1.484375 0.226562,0.3125 0.5625,0.46875 1,0.46875 0.195312,0 0.382812,-0.03125 0.5625,-0.09375 0.175781,-0.0625 0.367188,-0.164062 0.578125,-0.3125 L 4.46875,-0.453125 C 3.988281,-0.0664062 3.453125,0.125 2.859375,0.125 2.148438,0.125 1.585938,-0.113281 1.171875,-0.59375 0.765625,-1.070312 0.5625,-1.734375 0.5625,-2.578125 c 0,-0.5625 0.09375,-1.050781 0.28125,-1.46875 0.1875,-0.414063 0.453125,-0.738281 0.796875,-0.96875 0.34375,-0.238281 0.75,-0.359375 1.21875,-0.359375 z m 0,0"
           id="id-095fcd1f-b99a-4652-a65b-0ce01e1fd1cf-7" />
      </g>
      <g
         id="id-d4be8e83-5838-49e2-833b-fe6e088fc4f9-5">
        <path
           d="m 2.921875,-5.375 c 0.738281,0 1.3125,0.25 1.71875,0.75 0.40625,0.492188 0.609375,1.15625 0.609375,2 0,0.542969 -0.09375,1.023438 -0.28125,1.4375 -0.1875,0.417969 -0.460938,0.742188 -0.8125,0.96875 C 3.8125,0.0078125 3.394531,0.125 2.90625,0.125 2.164062,0.125 1.585938,-0.117188 1.171875,-0.609375 0.765625,-1.109375 0.5625,-1.78125 0.5625,-2.625 c 0,-0.539062 0.09375,-1.019531 0.28125,-1.4375 0.1875,-0.414062 0.457031,-0.738281 0.8125,-0.96875 C 2.007812,-5.257812 2.429688,-5.375 2.921875,-5.375 Z m 0,0.734375 c -0.90625,0 -1.359375,0.671875 -1.359375,2.015625 0,1.335938 0.445312,2 1.34375,2 0.90625,0 1.359375,-0.664062 1.359375,-2 0,-1.34375 -0.449219,-2.015625 -1.34375,-2.015625 z m 0,0"
           id="id-7d303454-f5ea-4a33-801c-6725d121fb61-1" />
      </g>
      <g
         id="id-90d3c5f1-e10b-4d07-a18b-99b2475d0869-7">
        <path
           d="M 4.859375,0 H 4.0625 L 4,-0.8125 C 3.800781,-0.488281 3.570312,-0.25 3.3125,-0.09375 3.050781,0.0507812 2.734375,0.125 2.359375,0.125 1.898438,0.125 1.539062,-0.015625 1.28125,-0.296875 1.019531,-0.578125 0.890625,-0.972656 0.890625,-1.484375 V -5.25 H 1.8125 v 3.671875 c 0,0.355469 0.0625,0.609375 0.1875,0.765625 0.125,0.148438 0.332031,0.21875 0.625,0.21875 0.507812,0 0.945312,-0.300781 1.3125,-0.90625 v -3.75 h 0.921875 z m 0,0"
           id="id-28260258-11f1-4b32-ac10-8d77099632b6-4" />
      </g>
      <g
         id="id-872eeb70-1002-4eed-b461-957d52425e59-1">
        <path
           d="m 3.359375,-5.375 c 0.664063,0 1.15625,0.242188 1.46875,0.71875 0.3125,0.480469 0.46875,1.15625 0.46875,2.03125 0,0.824219 -0.179687,1.492188 -0.53125,2 -0.355469,0.5 -0.867187,0.75 -1.53125,0.75 -0.585937,0 -1.042969,-0.203125 -1.375,-0.609375 v 2.5 L 0.953125,2.125 V -5.25 h 0.78125 l 0.0625,0.703125 C 1.992188,-4.804688 2.226562,-5.007812 2.5,-5.15625 2.769531,-5.300781 3.054688,-5.375 3.359375,-5.375 Z m -0.34375,4.75 c 0.863281,0 1.296875,-0.664062 1.296875,-2 0,-1.34375 -0.398438,-2.015625 -1.1875,-2.015625 -0.261719,0 -0.496094,0.078125 -0.703125,0.234375 -0.210937,0.148438 -0.398437,0.339844 -0.5625,0.578125 v 2.5625 c 0.132813,0.210937 0.300781,0.371094 0.5,0.484375 0.195313,0.105469 0.414063,0.15625 0.65625,0.15625 z m 0,0"
           id="id-682788d6-3e7b-4e34-9481-770801647427-7" />
      </g>
      <g
         id="id-d14b3b54-e0e3-4784-8752-c40d30ed860d-1">
        <path
           d="M 2,0.125 C 1.65625,0.125 1.382812,0.0234375 1.1875,-0.171875 0.988281,-0.378906 0.890625,-0.664062 0.890625,-1.03125 v -6.328125 l 0.921875,-0.125 V -1.0625 c 0,0.148438 0.023438,0.257812 0.078125,0.328125 0.050781,0.0625 0.132813,0.09375 0.25,0.09375 0.125,0 0.238281,-0.019531 0.34375,-0.0625 L 2.71875,-0.0625 C 2.5,0.0625 2.257812,0.125 2,0.125 Z m 0,0"
           id="id-516aca8d-d9e7-4555-84cc-65dfc1002e3e-1" />
      </g>
      <g
         id="id-97788fc6-f43c-4da6-ac80-0172738bbf91-1">
        <path
           d="M 1.859375,-5.25 V 0 h -0.90625 v -5.25 z m -0.46875,-2.53125 c 0.195313,0 0.351563,0.0625 0.46875,0.1875 0.125,0.117188 0.1875,0.265625 0.1875,0.453125 0,0.179687 -0.0625,0.324219 -0.1875,0.4375 -0.117187,0.117187 -0.273437,0.171875 -0.46875,0.171875 -0.179687,0 -0.328125,-0.054688 -0.453125,-0.171875 -0.117188,-0.113281 -0.171875,-0.257813 -0.171875,-0.4375 0,-0.1875 0.054687,-0.335937 0.171875,-0.453125 0.125,-0.125 0.273438,-0.1875 0.453125,-0.1875 z m 0,0"
           id="id-756c73b4-f6d7-4150-9eac-a7f311de397f-7" />
      </g>
      <g
         id="id-8cdab257-be91-4a8c-aca7-aa59d3614926-0">
        <path
           d="m 3.421875,-5.375 c 0.476563,0 0.847656,0.148438 1.109375,0.4375 0.269531,0.28125 0.40625,0.671875 0.40625,1.171875 V 0 H 4.03125 v -3.640625 c 0,-0.375 -0.074219,-0.632813 -0.21875,-0.78125 -0.136719,-0.15625 -0.339844,-0.234375 -0.609375,-0.234375 -0.28125,0 -0.53125,0.085938 -0.75,0.25 -0.210937,0.15625 -0.40625,0.382812 -0.59375,0.671875 V 0 h -0.90625 v -5.25 h 0.78125 L 1.8125,-4.46875 C 2,-4.75 2.226562,-4.96875 2.5,-5.125 c 0.28125,-0.164062 0.585938,-0.25 0.921875,-0.25 z m 0,0"
           id="id-e3361d01-c7fd-41b3-ba02-cfdc3b072843-4" />
      </g>
      <g
         id="id-6ceef5b0-45af-4fc3-b640-e6d77cbe0962-0">
        <path
           d="m 5.1875,-5.015625 c -0.199219,0.0625 -0.417969,0.105469 -0.65625,0.125 -0.242188,0.023437 -0.53125,0.03125 -0.875,0.03125 0.613281,0.28125 0.921875,0.726563 0.921875,1.328125 0,0.53125 -0.183594,0.964844 -0.546875,1.296875 C 3.675781,-1.910156 3.191406,-1.75 2.578125,-1.75 c -0.242187,0 -0.464844,-0.03125 -0.671875,-0.09375 -0.085938,0.054688 -0.152344,0.125 -0.203125,0.21875 -0.042969,0.085938 -0.0625,0.171875 -0.0625,0.265625 0,0.292969 0.226563,0.4375 0.6875,0.4375 h 0.84375 c 0.351563,0 0.664063,0.0625 0.9375,0.1875 0.269531,0.125 0.476563,0.296875 0.625,0.515625 C 4.890625,0 4.96875,0.25 4.96875,0.53125 4.96875,1.039062 4.753906,1.429688 4.328125,1.703125 3.910156,1.984375 3.300781,2.125 2.5,2.125 1.9375,2.125 1.488281,2.066406 1.15625,1.953125 0.832031,1.835938 0.597656,1.660156 0.453125,1.421875 0.316406,1.191406 0.25,0.894531 0.25,0.53125 h 0.828125 c 0,0.207031 0.035156,0.375 0.109375,0.5 C 1.269531,1.15625 1.414062,1.25 1.625,1.3125 1.832031,1.375 2.125,1.40625 2.5,1.40625 3.050781,1.40625 3.441406,1.335938 3.671875,1.203125 3.910156,1.066406 4.03125,0.863281 4.03125,0.59375 c 0,-0.25 -0.09375,-0.4375 -0.28125,-0.5625 -0.179688,-0.125 -0.433594,-0.1875 -0.765625,-0.1875 H 2.15625 c -0.449219,0 -0.789062,-0.09375 -1.015625,-0.28125 -0.230469,-0.195312 -0.34375,-0.4375 -0.34375,-0.71875 0,-0.175781 0.046875,-0.34375 0.140625,-0.5 0.101562,-0.15625 0.25,-0.296875 0.4375,-0.421875 -0.304688,-0.164063 -0.527344,-0.363281 -0.671875,-0.59375 -0.148437,-0.238281 -0.21875,-0.523437 -0.21875,-0.859375 0,-0.351562 0.085937,-0.671875 0.265625,-0.953125 0.175781,-0.28125 0.414062,-0.5 0.71875,-0.65625 0.3125,-0.15625 0.660156,-0.234375 1.046875,-0.234375 0.40625,0.011719 0.75,0 1.03125,-0.03125 0.28125,-0.039062 0.507813,-0.09375 0.6875,-0.15625 0.1875,-0.0625 0.414063,-0.15625 0.6875,-0.28125 z M 2.515625,-4.71875 c -0.34375,0 -0.617187,0.109375 -0.8125,0.328125 -0.1875,0.21875 -0.28125,0.507813 -0.28125,0.859375 0,0.355469 0.09375,0.640625 0.28125,0.859375 0.195313,0.210937 0.472656,0.3125 0.828125,0.3125 0.363281,0 0.640625,-0.101563 0.828125,-0.3125 0.1875,-0.207031 0.28125,-0.5 0.28125,-0.875 0,-0.78125 -0.375,-1.171875 -1.125,-1.171875 z m 0,0"
           id="id-05279322-3042-41ef-b2c7-f4e822fa12a2-8" />
      </g>
    </g>
    <inkscape:path-effect
       effect="spiro"
       id="path-effect175740-7"
       is_visible="true"
       lpeversion="1" />
    <inkscape:path-effect
       effect="spiro"
       id="path-effect58322-08"
       is_visible="true"
       lpeversion="1" />
    <inkscape:path-effect
       effect="spiro"
       id="path-effect58322-7-94"
       is_visible="true"
       lpeversion="1" />
    <inkscape:path-effect
       effect="spiro"
       id="path-effect58322-7-94-8"
       is_visible="true"
       lpeversion="1" />
    <inkscape:path-effect
       effect="spiro"
       id="path-effect58322-08-5"
       is_visible="true"
       lpeversion="1" />
    <inkscape:path-effect
       effect="spiro"
       id="path-effect175740-7-2"
       is_visible="true"
       lpeversion="1" />
    <g
       id="id-1a17f333-76d1-4120-b760-77750d4984cf-6">
      <g
         id="id-4e838780-30ab-480e-8a5b-31fc89451c86-3">
        <path
           d="m 5.4375,-6.4375 v 5.890625 H 1.34375 V -6.4375 Z m 0.546875,-0.546875 h -5.1875 V 0 h 5.1875 z m -2.75,4.953125 c -0.21875,0 -0.40625,0.1875 -0.40625,0.421875 0,0.21875 0.1875,0.40625 0.40625,0.40625 0.25,0 0.421875,-0.1875 0.421875,-0.40625 0,-0.234375 -0.171875,-0.421875 -0.421875,-0.421875 z M 3.4375,-5.453125 c -0.5,0 -0.90625,0.1875 -1.25,0.59375 l 0.390625,0.28125 C 2.828125,-4.875 3.09375,-5 3.40625,-5 3.765625,-5 4,-4.8125 4,-4.484375 4,-3.84375 2.953125,-3.953125 2.953125,-2.9375 v 0.296875 H 3.5 V -2.90625 c 0,-0.796875 1.078125,-0.65625 1.078125,-1.625 0,-0.46875 -0.375,-0.921875 -1.140625,-0.921875 z m 0,0"
           id="id-ebcbd549-18b5-4b13-8921-a174f9cf64bc-3" />
      </g>
      <g
         id="id-cd1054f0-bc46-4cab-8f39-a15378eb2f7f-4">
        <path
           d="m 2.515625,-7.484375 -0.90625,0.125 L 0.5625,0 h 0.90625 l 0.4375,-3.15625 C 2.359375,-4.171875 3.0625,-4.640625 3.625,-4.640625 c 0.359375,0 0.5625,0.1875 0.5625,0.5625 0,0.734375 -0.515625,1.171875 -1.75,1.515625 L 3.703125,0 H 4.71875 l -1.1875,-2.328125 c 1.09375,-0.34375 1.625,-1.015625 1.625,-1.84375 C 5.15625,-4.875 4.625,-5.375 3.875,-5.375 c -0.65625,0 -1.296875,0.328125 -1.796875,1.03125 z m 0,0"
           id="id-91c2ca82-bf2b-4d70-b5fe-e25bbc508e32-4" />
      </g>
      <g
         id="id-ef51330a-1f46-4dbe-a807-2adbd724e863-3">
        <path
           d="m 3.90625,-4.625 v 4.234375 H 0.96875 V -4.625 Z M 4.296875,-5.015625 H 0.578125 V 0 h 3.71875 z m -1.96875,3.5625 c -0.15625,0 -0.296875,0.125 -0.296875,0.296875 0,0.15625 0.140625,0.296875 0.296875,0.296875 C 2.5,-0.859375 2.625,-1 2.625,-1.15625 2.625,-1.328125 2.5,-1.453125 2.328125,-1.453125 Z m 0.140625,-2.46875 c -0.359375,0 -0.640625,0.140625 -0.890625,0.421875 L 1.84375,-3.296875 C 2.03125,-3.5 2.234375,-3.59375 2.453125,-3.59375 c 0.265625,0 0.4375,0.125 0.4375,0.359375 0,0.46875 -0.765625,0.390625 -0.765625,1.125 v 0.203125 h 0.390625 v -0.1875 c 0,-0.5625 0.78125,-0.46875 0.78125,-1.15625 0,-0.34375 -0.28125,-0.671875 -0.828125,-0.671875 z m 0,0"
           id="id-77f9832c-7f92-4ad5-b6df-010fc399e316-9" />
      </g>
      <g
         id="id-fc2ee09e-18b1-4634-a659-31a67812fdf8-7">
        <path
           d="m 1.984375,0 h 0.65625 V -4.9375 H 2.0625 l -1.484375,0.921875 0.28125,0.453125 1.125,-0.671875 z m 0,0"
           id="id-28210d1c-f343-4752-a5b8-ce53d750dbc9-2" />
      </g>
    </g>
    <g
       id="id-1a17f333-76d1-4120-b760-77750d4984cf-5">
      <g
         id="id-4e838780-30ab-480e-8a5b-31fc89451c86-7">
        <path
           d="m 5.4375,-6.4375 v 5.890625 H 1.34375 V -6.4375 Z m 0.546875,-0.546875 h -5.1875 V 0 h 5.1875 z m -2.75,4.953125 c -0.21875,0 -0.40625,0.1875 -0.40625,0.421875 0,0.21875 0.1875,0.40625 0.40625,0.40625 0.25,0 0.421875,-0.1875 0.421875,-0.40625 0,-0.234375 -0.171875,-0.421875 -0.421875,-0.421875 z M 3.4375,-5.453125 c -0.5,0 -0.90625,0.1875 -1.25,0.59375 l 0.390625,0.28125 C 2.828125,-4.875 3.09375,-5 3.40625,-5 3.765625,-5 4,-4.8125 4,-4.484375 4,-3.84375 2.953125,-3.953125 2.953125,-2.9375 v 0.296875 H 3.5 V -2.90625 c 0,-0.796875 1.078125,-0.65625 1.078125,-1.625 0,-0.46875 -0.375,-0.921875 -1.140625,-0.921875 z m 0,0"
           id="id-ebcbd549-18b5-4b13-8921-a174f9cf64bc-1" />
      </g>
      <g
         id="id-cd1054f0-bc46-4cab-8f39-a15378eb2f7f-3">
        <path
           d="m 2.515625,-7.484375 -0.90625,0.125 L 0.5625,0 h 0.90625 l 0.4375,-3.15625 C 2.359375,-4.171875 3.0625,-4.640625 3.625,-4.640625 c 0.359375,0 0.5625,0.1875 0.5625,0.5625 0,0.734375 -0.515625,1.171875 -1.75,1.515625 L 3.703125,0 H 4.71875 l -1.1875,-2.328125 c 1.09375,-0.34375 1.625,-1.015625 1.625,-1.84375 C 5.15625,-4.875 4.625,-5.375 3.875,-5.375 c -0.65625,0 -1.296875,0.328125 -1.796875,1.03125 z m 0,0"
           id="id-91c2ca82-bf2b-4d70-b5fe-e25bbc508e32-3" />
      </g>
      <g
         id="id-ef51330a-1f46-4dbe-a807-2adbd724e863-38">
        <path
           d="m 3.90625,-4.625 v 4.234375 H 0.96875 V -4.625 Z M 4.296875,-5.015625 H 0.578125 V 0 h 3.71875 z m -1.96875,3.5625 c -0.15625,0 -0.296875,0.125 -0.296875,0.296875 0,0.15625 0.140625,0.296875 0.296875,0.296875 C 2.5,-0.859375 2.625,-1 2.625,-1.15625 2.625,-1.328125 2.5,-1.453125 2.328125,-1.453125 Z m 0.140625,-2.46875 c -0.359375,0 -0.640625,0.140625 -0.890625,0.421875 L 1.84375,-3.296875 C 2.03125,-3.5 2.234375,-3.59375 2.453125,-3.59375 c 0.265625,0 0.4375,0.125 0.4375,0.359375 0,0.46875 -0.765625,0.390625 -0.765625,1.125 v 0.203125 h 0.390625 v -0.1875 c 0,-0.5625 0.78125,-0.46875 0.78125,-1.15625 0,-0.34375 -0.28125,-0.671875 -0.828125,-0.671875 z m 0,0"
           id="id-77f9832c-7f92-4ad5-b6df-010fc399e316-5" />
      </g>
      <g
         id="id-fc2ee09e-18b1-4634-a659-31a67812fdf8-1">
        <path
           d="m 1.984375,0 h 0.65625 V -4.9375 H 2.0625 l -1.484375,0.921875 0.28125,0.453125 1.125,-0.671875 z m 0,0"
           id="id-28210d1c-f343-4752-a5b8-ce53d750dbc9-0" />
      </g>
    </g>
  </defs>
  <g
     inkscape:label="Layer 1"
     inkscape:groupmode="layer"
     id="layer1"
     transform="translate(-5.3166621,-35.252266)">
    <path
       style="opacity:1;fill:#505050;fill-opacity:1;stroke:#505050;stroke-width:4;stroke-linejoin:bevel;stroke-dasharray:none;stroke-dashoffset:0;stroke-opacity:1;paint-order:markers stroke fill"
       d="M 101.08347,81.422748 27.000152,83.336959"
       id="path175738"
       inkscape:path-effect="#path-effect175740"
       inkscape:original-d="M 101.08347,81.422748 C 76.388831,82.060551 51.69439,82.698623 27.000152,83.336959" />
    <circle
       style="fill:#c06052;fill-opacity:1;stroke:none;stroke-width:2;stroke-linejoin:bevel;stroke-dasharray:none;stroke-dashoffset:0;stroke-opacity:1;paint-order:markers stroke fill"
       id="path49738"
       cx="-101.08347"
       cy="-82.379868"
       r="21.683483"
       transform="scale(-1)" />
    <path
       style="fill:#006f99;fill-opacity:1;stroke:#404040;stroke-width:4;stroke-linejoin:bevel;stroke-dasharray:none;stroke-dashoffset:0;stroke-opacity:1;marker-end:url(#Arrow1);paint-order:markers stroke fill"
       d="m 101.08348,66.428638 -10e-6,28.074003"
       id="path58320"
       inkscape:path-effect="#path-effect58322"
       inkscape:original-d="m 101.08348,66.428638 c -2.7e-4,9.358266 -10e-6,28.074003 -10e-6,28.074003" />
    <g
       id="g174900"
       transform="rotate(180,45.570984,120.25839)">
      <circle
         style="fill:#006f99;fill-opacity:1;stroke:none;stroke-width:4.3367;stroke-linejoin:bevel;stroke-dasharray:none;stroke-dashoffset:0;stroke-opacity:1;paint-order:markers stroke fill"
         id="circle40084"
         cx="64.141823"
         cy="158.13692"
         r="21.683483" />
      <path
         style="fill:#006f99;fill-opacity:1;stroke:#ffffff;stroke-width:4;stroke-linejoin:bevel;stroke-dasharray:none;stroke-dashoffset:0;stroke-opacity:1;marker-end:url(#Arrow1-7);paint-order:markers stroke fill"
         d="m 64.141816,144.09993 v 28.074"
         id="path58320-2"
         inkscape:path-effect="#path-effect58322-7"
         inkscape:original-d="m 64.141816,144.09993 c 2.7e-4,9.35826 0,28.074 0,28.074" />
    </g>
    <g
       transform="matrix(2.1293343,0,0,2.1293343,18.967377,35.253065)"
       ns6:version="1.8.2"
       ns6:texconverter="xelatex"
       ns6:pdfconverter="inkscape"
       ns6:text="$k_1$"
       ns6:preamble="/home/kirito/.config/textext/beamer_preamble.tex"
       ns6:scale="3.5"
       ns6:alignment="middle center"
       ns6:stroke-to-path="0"
       ns6:inkscapeversion="1.2.2"
       ns6:jacobian_sqrt="1.23472"
       id="g176834">
      <defs
         id="id-a5496b7b-219a-46b7-872d-d959e1d96b8c">
        <g
           id="id-1a17f333-76d1-4120-b760-77750d4984cf">
          <g
             id="id-4e838780-30ab-480e-8a5b-31fc89451c86">
            <path
               d="m 5.4375,-6.4375 v 5.890625 H 1.34375 V -6.4375 Z m 0.546875,-0.546875 h -5.1875 V 0 h 5.1875 z m -2.75,4.953125 c -0.21875,0 -0.40625,0.1875 -0.40625,0.421875 0,0.21875 0.1875,0.40625 0.40625,0.40625 0.25,0 0.421875,-0.1875 0.421875,-0.40625 0,-0.234375 -0.171875,-0.421875 -0.421875,-0.421875 z M 3.4375,-5.453125 c -0.5,0 -0.90625,0.1875 -1.25,0.59375 l 0.390625,0.28125 C 2.828125,-4.875 3.09375,-5 3.40625,-5 3.765625,-5 4,-4.8125 4,-4.484375 4,-3.84375 2.953125,-3.953125 2.953125,-2.9375 v 0.296875 H 3.5 V -2.90625 c 0,-0.796875 1.078125,-0.65625 1.078125,-1.625 0,-0.46875 -0.375,-0.921875 -1.140625,-0.921875 z m 0,0"
               id="id-ebcbd549-18b5-4b13-8921-a174f9cf64bc" />
          </g>
          <g
             id="id-cd1054f0-bc46-4cab-8f39-a15378eb2f7f">
            <path
               d="m 2.515625,-7.484375 -0.90625,0.125 L 0.5625,0 h 0.90625 l 0.4375,-3.15625 C 2.359375,-4.171875 3.0625,-4.640625 3.625,-4.640625 c 0.359375,0 0.5625,0.1875 0.5625,0.5625 0,0.734375 -0.515625,1.171875 -1.75,1.515625 L 3.703125,0 H 4.71875 l -1.1875,-2.328125 c 1.09375,-0.34375 1.625,-1.015625 1.625,-1.84375 C 5.15625,-4.875 4.625,-5.375 3.875,-5.375 c -0.65625,0 -1.296875,0.328125 -1.796875,1.03125 z m 0,0"
               id="id-91c2ca82-bf2b-4d70-b5fe-e25bbc508e32" />
          </g>
          <g
             id="id-ef51330a-1f46-4dbe-a807-2adbd724e863">
            <path
               d="m 3.90625,-4.625 v 4.234375 H 0.96875 V -4.625 Z M 4.296875,-5.015625 H 0.578125 V 0 h 3.71875 z m -1.96875,3.5625 c -0.15625,0 -0.296875,0.125 -0.296875,0.296875 0,0.15625 0.140625,0.296875 0.296875,0.296875 C 2.5,-0.859375 2.625,-1 2.625,-1.15625 2.625,-1.328125 2.5,-1.453125 2.328125,-1.453125 Z m 0.140625,-2.46875 c -0.359375,0 -0.640625,0.140625 -0.890625,0.421875 L 1.84375,-3.296875 C 2.03125,-3.5 2.234375,-3.59375 2.453125,-3.59375 c 0.265625,0 0.4375,0.125 0.4375,0.359375 0,0.46875 -0.765625,0.390625 -0.765625,1.125 v 0.203125 h 0.390625 v -0.1875 c 0,-0.5625 0.78125,-0.46875 0.78125,-1.15625 0,-0.34375 -0.28125,-0.671875 -0.828125,-0.671875 z m 0,0"
               id="id-77f9832c-7f92-4ad5-b6df-010fc399e316" />
          </g>
          <g
             id="id-fc2ee09e-18b1-4634-a659-31a67812fdf8">
            <path
               d="m 1.984375,0 h 0.65625 V -4.9375 H 2.0625 l -1.484375,0.921875 0.28125,0.453125 1.125,-0.671875 z m 0,0"
               id="id-28210d1c-f343-4752-a5b8-ce53d750dbc9" />
          </g>
        </g>
      </defs>
      <g
         fill="#000000"
         fill-opacity="1"
         id="id-5b7a1087-7705-407c-8816-1231d4348e4c"
         transform="translate(-149.275,-127.281)">
        <g
           transform="translate(148.712,134.765)"
           id="g176827">
          <path
             d="m 2.515625,-7.484375 -0.90625,0.125 L 0.5625,0 h 0.90625 l 0.4375,-3.15625 C 2.359375,-4.171875 3.0625,-4.640625 3.625,-4.640625 c 0.359375,0 0.5625,0.1875 0.5625,0.5625 0,0.734375 -0.515625,1.171875 -1.75,1.515625 L 3.703125,0 H 4.71875 l -1.1875,-2.328125 c 1.09375,-0.34375 1.625,-1.015625 1.625,-1.84375 C 5.15625,-4.875 4.625,-5.375 3.875,-5.375 c -0.65625,0 -1.296875,0.328125 -1.796875,1.03125 z m 0,0"
             id="id-be86c4ff-645a-44b0-a0cf-bdd43aa168e8" />
        </g>
      </g>
      <g
         fill="#000000"
         fill-opacity="1"
         id="id-cb60f0ba-7012-4195-a577-042fc6d2af72"
         transform="translate(-149.275,-127.281)">
        <g
           transform="translate(154.142,138.252)"
           id="g176831">
          <path
             d="m 1.984375,0 h 0.65625 V -4.9375 H 2.0625 l -1.484375,0.921875 0.28125,0.453125 1.125,-0.671875 z m 0,0"
             id="id-2641abfe-15a2-4207-aba5-9191a33583f4" />
        </g>
      </g>
    </g>
    <path
       style="opacity:1;fill:#505050;fill-opacity:1;stroke:#505050;stroke-width:4;stroke-linejoin:bevel;stroke-dasharray:none;stroke-dashoffset:0;stroke-opacity:1;paint-order:markers stroke fill"
       d="m 259.93687,81.422748 -74.08336,1.914211"
       id="path196956"
       inkscape:path-effect="#path-effect197004"
       inkscape:original-d="m 259.93687,81.422748 c -24.69465,0.637803 -49.38911,1.275875 -74.08336,1.914211" />
    <circle
       style="fill:#c06052;fill-opacity:1;stroke:none;stroke-width:2;stroke-linejoin:bevel;stroke-dasharray:none;stroke-dashoffset:0;stroke-opacity:1;paint-order:markers stroke fill"
       id="circle196958"
       cx="-259.93689"
       cy="-82.379868"
       r="21.683483"
       transform="scale(-1)" />
    <path
       style="fill:#006f99;fill-opacity:1;stroke:#404040;stroke-width:4;stroke-linejoin:bevel;stroke-dasharray:none;stroke-dashoffset:0;stroke-opacity:1;marker-end:url(#Arrow1);paint-order:markers stroke fill"
       d="m 259.93688,66.428638 -10e-6,28.074003"
       id="path196960"
       inkscape:path-effect="#path-effect197008"
       inkscape:original-d="m 259.93688,66.428638 c -2.7e-4,9.358266 -10e-6,28.074003 -10e-6,28.074003" />
    <g
       id="g196966"
       transform="rotate(180,124.99756,120.25839)">
      <circle
         style="fill:#006f99;fill-opacity:1;stroke:none;stroke-width:4.3367;stroke-linejoin:bevel;stroke-dasharray:none;stroke-dashoffset:0;stroke-opacity:1;paint-order:markers stroke fill"
         id="circle196962"
         cx="64.141823"
         cy="158.13692"
         r="21.683483" />
      <path
         style="fill:#006f99;fill-opacity:1;stroke:#ffffff;stroke-width:4;stroke-linejoin:bevel;stroke-dasharray:none;stroke-dashoffset:0;stroke-opacity:1;marker-end:url(#Arrow1-7);paint-order:markers stroke fill"
         d="m 64.141816,144.09993 v 28.074"
         id="path196964"
         inkscape:path-effect="#path-effect197012"
         inkscape:original-d="m 64.141816,144.09993 c 2.7e-4,9.35826 0,28.074 0,28.074" />
    </g>
    <g
       transform="matrix(2.12933,0,0,2.12933,176.91097,36.420363)"
       ns6:version="1.8.2"
       ns6:texconverter="xelatex"
       ns6:pdfconverter="inkscape"
       ns6:text="$k_2$"
       ns6:preamble="/home/kirito/.config/textext/beamer_preamble.tex"
       ns6:scale="6.035906926266684"
       ns6:alignment="middle center"
       ns6:stroke-to-path="0"
       ns6:inkscapeversion="1.2.2"
       ns6:jacobian_sqrt="2.12933"
       id="g197000">
      <defs
         id="id-3c38cca0-f744-4d41-ad35-b67d61dd5111">
        <g
           id="id-31c3f50b-b538-4ac5-91db-0abc6474b3cf">
          <g
             id="id-d354c5e9-f9d3-49f8-ae20-82f501b177c4">
            <path
               d="m 5.4375,-6.4375 v 5.890625 H 1.34375 V -6.4375 Z m 0.546875,-0.546875 h -5.1875 V 0 h 5.1875 z m -2.75,4.953125 c -0.21875,0 -0.40625,0.1875 -0.40625,0.421875 0,0.21875 0.1875,0.40625 0.40625,0.40625 0.25,0 0.421875,-0.1875 0.421875,-0.40625 0,-0.234375 -0.171875,-0.421875 -0.421875,-0.421875 z M 3.4375,-5.453125 c -0.5,0 -0.90625,0.1875 -1.25,0.59375 l 0.390625,0.28125 C 2.828125,-4.875 3.09375,-5 3.40625,-5 3.765625,-5 4,-4.8125 4,-4.484375 4,-3.84375 2.953125,-3.953125 2.953125,-2.9375 v 0.296875 H 3.5 V -2.90625 c 0,-0.796875 1.078125,-0.65625 1.078125,-1.625 0,-0.46875 -0.375,-0.921875 -1.140625,-0.921875 z m 0,0"
               id="id-50e69f0f-d1fa-4921-9c59-53f5b2275bd9" />
          </g>
          <g
             id="id-a297d9ee-0688-4831-8bd6-5a24853738b1">
            <path
               d="m 2.515625,-7.484375 -0.90625,0.125 L 0.5625,0 h 0.90625 l 0.4375,-3.15625 C 2.359375,-4.171875 3.0625,-4.640625 3.625,-4.640625 c 0.359375,0 0.5625,0.1875 0.5625,0.5625 0,0.734375 -0.515625,1.171875 -1.75,1.515625 L 3.703125,0 H 4.71875 l -1.1875,-2.328125 c 1.09375,-0.34375 1.625,-1.015625 1.625,-1.84375 C 5.15625,-4.875 4.625,-5.375 3.875,-5.375 c -0.65625,0 -1.296875,0.328125 -1.796875,1.03125 z m 0,0"
               id="id-4a430439-9828-44b4-8589-ddb7af688f3c" />
          </g>
          <g
             id="id-501dd2fc-e863-4c35-a03b-c9e6dda2553b">
            <path
               d="m 3.90625,-4.625 v 4.234375 H 0.96875 V -4.625 Z M 4.296875,-5.015625 H 0.578125 V 0 h 3.71875 z m -1.96875,3.5625 c -0.15625,0 -0.296875,0.125 -0.296875,0.296875 0,0.15625 0.140625,0.296875 0.296875,0.296875 C 2.5,-0.859375 2.625,-1 2.625,-1.15625 2.625,-1.328125 2.5,-1.453125 2.328125,-1.453125 Z m 0.140625,-2.46875 c -0.359375,0 -0.640625,0.140625 -0.890625,0.421875 L 1.84375,-3.296875 C 2.03125,-3.5 2.234375,-3.59375 2.453125,-3.59375 c 0.265625,0 0.4375,0.125 0.4375,0.359375 0,0.46875 -0.765625,0.390625 -0.765625,1.125 v 0.203125 h 0.390625 v -0.1875 c 0,-0.5625 0.78125,-0.46875 0.78125,-1.15625 0,-0.34375 -0.28125,-0.671875 -0.828125,-0.671875 z m 0,0"
               id="id-d9125859-51a1-4f9a-9535-9ff2994624e2" />
          </g>
          <g
             id="id-8679ba1b-0c99-4c00-a44f-ad1e2e3414e4">
            <path
               d="m 1.84375,-5.03125 c -0.671875,0 -1.140625,0.25 -1.515625,0.734375 l 0.4375,0.34375 c 0.3125,-0.375 0.578125,-0.53125 1.046875,-0.53125 0.546875,0 0.859375,0.328125 0.859375,0.875 0,0.78125 -0.40625,1.328125 -2.25,3.078125 V 0 H 3.40625 l 0.078125,-0.546875 h -2.3125 c 1.625,-1.46875 2.1875,-2.203125 2.1875,-3.09375 0,-0.78125 -0.5625,-1.390625 -1.515625,-1.390625 z m 0,0"
               id="id-c3bef83a-6496-4945-9741-a0abcdb44bed" />
          </g>
        </g>
      </defs>
      <g
         fill="#000000"
         fill-opacity="1"
         id="id-bf8b0e5a-edf1-4948-ade2-826b3fd2df6c"
         transform="translate(-149.275,-127.281)">
        <g
           transform="translate(148.712,134.765)"
           id="g198215">
          <path
             d="m 2.515625,-7.484375 -0.90625,0.125 L 0.5625,0 h 0.90625 l 0.4375,-3.15625 C 2.359375,-4.171875 3.0625,-4.640625 3.625,-4.640625 c 0.359375,0 0.5625,0.1875 0.5625,0.5625 0,0.734375 -0.515625,1.171875 -1.75,1.515625 L 3.703125,0 H 4.71875 l -1.1875,-2.328125 c 1.09375,-0.34375 1.625,-1.015625 1.625,-1.84375 C 5.15625,-4.875 4.625,-5.375 3.875,-5.375 c -0.65625,0 -1.296875,0.328125 -1.796875,1.03125 z m 0,0"
             id="id-cf1f518e-e0f6-4b8c-b5a4-6b72899eb8c0" />
        </g>
      </g>
      <g
         fill="#000000"
         fill-opacity="1"
         id="id-6dd4ea08-2954-40ad-8321-240bc684c888"
         transform="translate(-149.275,-127.281)">
        <g
           transform="translate(154.142,138.252)"
           id="g198219">
          <path
             d="m 1.84375,-5.03125 c -0.671875,0 -1.140625,0.25 -1.515625,0.734375 l 0.4375,0.34375 c 0.3125,-0.375 0.578125,-0.53125 1.046875,-0.53125 0.546875,0 0.859375,0.328125 0.859375,0.875 0,0.78125 -0.40625,1.328125 -2.25,3.078125 V 0 H 3.40625 l 0.078125,-0.546875 h -2.3125 c 1.625,-1.46875 2.1875,-2.203125 2.1875,-3.09375 0,-0.78125 -0.5625,-1.390625 -1.515625,-1.390625 z m 0,0"
             id="id-39dba22e-3b77-4f0c-9867-b193402dec61" />
        </g>
      </g>
    </g>
    <g
       transform="matrix(6.5054305,0,0,6.5054305,131.32153,70.232196)"
       ns6:version="1.8.2"
       ns6:texconverter="xelatex"
       ns6:pdfconverter="inkscape"
       ns6:text="+"
       ns6:preamble="/home/kirito/.config/textext/beamer_preamble.tex"
       ns6:scale="6.035906926266684"
       ns6:alignment="middle center"
       ns6:stroke-to-path="0"
       ns6:inkscapeversion="1.2.2"
       ns6:jacobian_sqrt="2.12934"
       id="g198872">
      <defs
         id="id-edd34603-1a1b-4d52-a3f9-3ba1250ad993">
        <g
           id="id-b6644874-a0da-4942-b60e-8b06852f19c6">
          <g
             id="id-e7b33508-ef57-4f19-8862-3d74df987b23">
            <path
               d="M 5.40625,-10.46875 V 3.484375 H 1.21875 V -10.46875 Z M 4.875,-9.953125 H 1.78125 V 2.96875 H 4.875 Z M 3.234375,-4.5 c 0.394531,0 0.675781,0.109375 0.84375,0.328125 0.175781,0.210937 0.265625,0.484375 0.265625,0.828125 0,0.34375 -0.078125,0.617188 -0.234375,0.8125 -0.148437,0.1875 -0.386719,0.308594 -0.71875,0.359375 v 0.453125 c 0,0.074219 -0.027344,0.132812 -0.078125,0.171875 -0.054688,0.042969 -0.109375,0.0625 -0.171875,0.0625 -0.0625,0 -0.121094,-0.019531 -0.171875,-0.0625 C 2.914062,-1.585938 2.890625,-1.644531 2.890625,-1.71875 V -2.5625 c 0.351563,-0.019531 0.59375,-0.082031 0.71875,-0.1875 0.125,-0.113281 0.1875,-0.304688 0.1875,-0.578125 0,-0.21875 -0.046875,-0.382813 -0.140625,-0.5 -0.085938,-0.125 -0.242188,-0.1875 -0.46875,-0.1875 -0.1875,0 -0.359375,0.039063 -0.515625,0.109375 -0.054687,0.023438 -0.09375,0.03125 -0.125,0.03125 -0.074219,0 -0.136719,-0.019531 -0.1875,-0.0625 -0.042969,-0.039062 -0.0625,-0.097656 -0.0625,-0.171875 0,-0.125 0.097656,-0.21875 0.296875,-0.28125 C 2.789062,-4.460938 3.003906,-4.5 3.234375,-4.5 Z m -0.09375,3.296875 c 0.101563,0 0.1875,0.039063 0.25,0.109375 0.0625,0.0625 0.09375,0.148438 0.09375,0.25 0,0.105469 -0.03125,0.195312 -0.09375,0.265625 -0.0625,0.0625 -0.148437,0.09375 -0.25,0.09375 -0.105469,0 -0.1875,-0.03125 -0.25,-0.09375 -0.0625,-0.070313 -0.09375,-0.160156 -0.09375,-0.265625 0,-0.101562 0.03125,-0.1875 0.09375,-0.25 0.0625,-0.070312 0.144531,-0.109375 0.25,-0.109375 z m 0,0"
               id="id-eca0abf4-6488-423f-8ee8-acfe2eecf8db" />
          </g>
          <g
             id="id-9ce1b729-cbea-452f-b015-104226b84c6b">
            <path
               d="m 2.90625,-5.171875 v 1.5 h 1.453125 v 0.75 H 2.90625 V -1.4375 H 2.0625 V -2.921875 H 0.625 v -0.75 h 1.4375 v -1.5 z m 0,0"
               id="id-3ab6cb78-08e1-4274-a206-cbd13c0ed998" />
          </g>
        </g>
      </defs>
      <g
         fill="#000000"
         fill-opacity="1"
         id="id-41f798d9-a23a-43cd-9bb1-519b923169f5"
         transform="translate(-149.337,-129.593)">
        <g
           transform="translate(148.712,134.765)"
           id="g198869">
          <path
             d="m 2.90625,-5.171875 v 1.5 h 1.453125 v 0.75 H 2.90625 V -1.4375 H 2.0625 V -2.921875 H 0.625 v -0.75 h 1.4375 v -1.5 z m 0,0"
             id="id-70fdb320-7aa9-4293-8cfe-3e08b3dd69e7" />
        </g>
      </g>
    </g>
    <g
       transform="matrix(6.5054305,0,0,6.5054305,290.07163,70.232196)"
       ns6:version="1.8.2"
       ns6:texconverter="xelatex"
       ns6:pdfconverter="inkscape"
       ns6:text="+"
       ns6:preamble="/home/kirito/.config/textext/beamer_preamble.tex"
       ns6:scale="6.035906926266684"
       ns6:alignment="middle center"
       ns6:stroke-to-path="0"
       ns6:inkscapeversion="1.2.2"
       ns6:jacobian_sqrt="2.12934"
       id="g198986">
      <defs
         id="defs198978">
        <g
           id="g198976">
          <g
             id="g198970">
            <path
               d="M 5.40625,-10.46875 V 3.484375 H 1.21875 V -10.46875 Z M 4.875,-9.953125 H 1.78125 V 2.96875 H 4.875 Z M 3.234375,-4.5 c 0.394531,0 0.675781,0.109375 0.84375,0.328125 0.175781,0.210937 0.265625,0.484375 0.265625,0.828125 0,0.34375 -0.078125,0.617188 -0.234375,0.8125 -0.148437,0.1875 -0.386719,0.308594 -0.71875,0.359375 v 0.453125 c 0,0.074219 -0.027344,0.132812 -0.078125,0.171875 -0.054688,0.042969 -0.109375,0.0625 -0.171875,0.0625 -0.0625,0 -0.121094,-0.019531 -0.171875,-0.0625 C 2.914062,-1.585938 2.890625,-1.644531 2.890625,-1.71875 V -2.5625 c 0.351563,-0.019531 0.59375,-0.082031 0.71875,-0.1875 0.125,-0.113281 0.1875,-0.304688 0.1875,-0.578125 0,-0.21875 -0.046875,-0.382813 -0.140625,-0.5 -0.085938,-0.125 -0.242188,-0.1875 -0.46875,-0.1875 -0.1875,0 -0.359375,0.039063 -0.515625,0.109375 -0.054687,0.023438 -0.09375,0.03125 -0.125,0.03125 -0.074219,0 -0.136719,-0.019531 -0.1875,-0.0625 -0.042969,-0.039062 -0.0625,-0.097656 -0.0625,-0.171875 0,-0.125 0.097656,-0.21875 0.296875,-0.28125 C 2.789062,-4.460938 3.003906,-4.5 3.234375,-4.5 Z m -0.09375,3.296875 c 0.101563,0 0.1875,0.039063 0.25,0.109375 0.0625,0.0625 0.09375,0.148438 0.09375,0.25 0,0.105469 -0.03125,0.195312 -0.09375,0.265625 -0.0625,0.0625 -0.148437,0.09375 -0.25,0.09375 -0.105469,0 -0.1875,-0.03125 -0.25,-0.09375 -0.0625,-0.070313 -0.09375,-0.160156 -0.09375,-0.265625 0,-0.101562 0.03125,-0.1875 0.09375,-0.25 0.0625,-0.070312 0.144531,-0.109375 0.25,-0.109375 z m 0,0"
               id="path198968" />
          </g>
          <g
             id="g198974">
            <path
               d="m 2.90625,-5.171875 v 1.5 h 1.453125 v 0.75 H 2.90625 V -1.4375 H 2.0625 V -2.921875 H 0.625 v -0.75 h 1.4375 v -1.5 z m 0,0"
               id="path198972" />
          </g>
        </g>
      </defs>
      <g
         fill="#000000"
         fill-opacity="1"
         id="g198984"
         transform="translate(-149.337,-129.593)">
        <g
           transform="translate(148.712,134.765)"
           id="g198982">
          <path
             d="m 2.90625,-5.171875 v 1.5 h 1.453125 v 0.75 H 2.90625 V -1.4375 H 2.0625 V -2.921875 H 0.625 v -0.75 h 1.4375 v -1.5 z m 0,0"
             id="path198980" />
        </g>
      </g>
    </g>
    <g
       transform="matrix(6.50543,0,0,6.50543,327.21668,74.897665)"
       ns6:version="1.8.2"
       ns6:texconverter="xelatex"
       ns6:pdfconverter="inkscape"
       ns6:text="\\ldots"
       ns6:preamble="/home/kirito/.config/textext/beamer_preamble.tex"
       ns6:scale="18.440536980142454"
       ns6:alignment="middle center"
       ns6:stroke-to-path="0"
       ns6:inkscapeversion="1.2.2"
       ns6:jacobian_sqrt="6.50543"
       id="g199018">
      <defs
         id="id-fe062b8a-05c8-4b4b-8f51-719b892fd942">
        <g
           id="id-e12c6eb5-1dc9-439f-9ace-b4a96d5843ac">
          <g
             id="id-04737090-d37f-456a-a84c-a05e33082460">
            <path
               d="M 5.40625,-10.46875 V 3.484375 H 1.21875 V -10.46875 Z M 4.875,-9.953125 H 1.78125 V 2.96875 H 4.875 Z M 3.234375,-4.5 c 0.394531,0 0.675781,0.109375 0.84375,0.328125 0.175781,0.210937 0.265625,0.484375 0.265625,0.828125 0,0.34375 -0.078125,0.617188 -0.234375,0.8125 -0.148437,0.1875 -0.386719,0.308594 -0.71875,0.359375 v 0.453125 c 0,0.074219 -0.027344,0.132812 -0.078125,0.171875 -0.054688,0.042969 -0.109375,0.0625 -0.171875,0.0625 -0.0625,0 -0.121094,-0.019531 -0.171875,-0.0625 C 2.914062,-1.585938 2.890625,-1.644531 2.890625,-1.71875 V -2.5625 c 0.351563,-0.019531 0.59375,-0.082031 0.71875,-0.1875 0.125,-0.113281 0.1875,-0.304688 0.1875,-0.578125 0,-0.21875 -0.046875,-0.382813 -0.140625,-0.5 -0.085938,-0.125 -0.242188,-0.1875 -0.46875,-0.1875 -0.1875,0 -0.359375,0.039063 -0.515625,0.109375 -0.054687,0.023438 -0.09375,0.03125 -0.125,0.03125 -0.074219,0 -0.136719,-0.019531 -0.1875,-0.0625 -0.042969,-0.039062 -0.0625,-0.097656 -0.0625,-0.171875 0,-0.125 0.097656,-0.21875 0.296875,-0.28125 C 2.789062,-4.460938 3.003906,-4.5 3.234375,-4.5 Z m -0.09375,3.296875 c 0.101563,0 0.1875,0.039063 0.25,0.109375 0.0625,0.0625 0.09375,0.148438 0.09375,0.25 0,0.105469 -0.03125,0.195312 -0.09375,0.265625 -0.0625,0.0625 -0.148437,0.09375 -0.25,0.09375 -0.105469,0 -0.1875,-0.03125 -0.25,-0.09375 -0.0625,-0.070313 -0.09375,-0.160156 -0.09375,-0.265625 0,-0.101562 0.03125,-0.1875 0.09375,-0.25 0.0625,-0.070312 0.144531,-0.109375 0.25,-0.109375 z m 0,0"
               id="id-33a85724-023d-48af-8d5b-c409ba7f597a" />
          </g>
          <g
             id="id-19023a19-5a92-4eb1-9bf3-99d7a725b5a0">
            <path
               d="m 3.671875,-1.265625 c 0.195313,0 0.363281,0.070313 0.5,0.203125 0.132813,0.125 0.203125,0.289062 0.203125,0.484375 0,0.1875 -0.070312,0.355469 -0.203125,0.5 -0.136719,0.1328125 -0.304687,0.203125 -0.5,0.203125 -0.199219,0 -0.367187,-0.0703125 -0.5,-0.203125 -0.125,-0.144531 -0.1875,-0.3125 -0.1875,-0.5 0,-0.195313 0.0625,-0.359375 0.1875,-0.484375 0.132813,-0.132812 0.300781,-0.203125 0.5,-0.203125 z m 2.484375,0 c 0.195312,0 0.363281,0.070313 0.5,0.203125 0.132812,0.125 0.203125,0.289062 0.203125,0.484375 0,0.1875 -0.070313,0.355469 -0.203125,0.5 C 6.519531,0.0546875 6.351562,0.125 6.15625,0.125 c -0.199219,0 -0.367188,-0.0703125 -0.5,-0.203125 -0.125,-0.144531 -0.1875,-0.3125 -0.1875,-0.5 0,-0.195313 0.0625,-0.359375 0.1875,-0.484375 0.132812,-0.132812 0.300781,-0.203125 0.5,-0.203125 z m -4.96875,0 c 0.195312,0 0.363281,0.070313 0.5,0.203125 0.132812,0.125 0.203125,0.289062 0.203125,0.484375 0,0.1875 -0.070313,0.355469 -0.203125,0.5 C 1.550781,0.0546875 1.382812,0.125 1.1875,0.125 c -0.199219,0 -0.367188,-0.0703125 -0.5,-0.203125 -0.125,-0.144531 -0.1875,-0.3125 -0.1875,-0.5 0,-0.195313 0.0625,-0.359375 0.1875,-0.484375 0.132812,-0.132812 0.300781,-0.203125 0.5,-0.203125 z m 0,0"
               id="id-60741c10-2559-4372-808e-5e15ed9e3e29" />
          </g>
        </g>
      </defs>
      <g
         fill="#000000"
         fill-opacity="1"
         id="id-6cc89ef3-cf32-4544-ab8d-6cfd06854652"
         transform="translate(-149.212,-133.499)">
        <g
           transform="translate(148.712,134.765)"
           id="g200182">
          <path
             d="m 3.671875,-1.265625 c 0.195313,0 0.363281,0.070313 0.5,0.203125 0.132813,0.125 0.203125,0.289062 0.203125,0.484375 0,0.1875 -0.070312,0.355469 -0.203125,0.5 -0.136719,0.1328125 -0.304687,0.203125 -0.5,0.203125 -0.199219,0 -0.367187,-0.0703125 -0.5,-0.203125 -0.125,-0.144531 -0.1875,-0.3125 -0.1875,-0.5 0,-0.195313 0.0625,-0.359375 0.1875,-0.484375 0.132813,-0.132812 0.300781,-0.203125 0.5,-0.203125 z m 2.484375,0 c 0.195312,0 0.363281,0.070313 0.5,0.203125 0.132812,0.125 0.203125,0.289062 0.203125,0.484375 0,0.1875 -0.070313,0.355469 -0.203125,0.5 C 6.519531,0.0546875 6.351562,0.125 6.15625,0.125 c -0.199219,0 -0.367188,-0.0703125 -0.5,-0.203125 -0.125,-0.144531 -0.1875,-0.3125 -0.1875,-0.5 0,-0.195313 0.0625,-0.359375 0.1875,-0.484375 0.132812,-0.132812 0.300781,-0.203125 0.5,-0.203125 z m -4.96875,0 c 0.195312,0 0.363281,0.070313 0.5,0.203125 0.132812,0.125 0.203125,0.289062 0.203125,0.484375 0,0.1875 -0.070313,0.355469 -0.203125,0.5 C 1.550781,0.0546875 1.382812,0.125 1.1875,0.125 c -0.199219,0 -0.367188,-0.0703125 -0.5,-0.203125 -0.125,-0.144531 -0.1875,-0.3125 -0.1875,-0.5 0,-0.195313 0.0625,-0.359375 0.1875,-0.484375 0.132812,-0.132812 0.300781,-0.203125 0.5,-0.203125 z m 0,0"
             id="id-56606af9-65d8-4de4-9d11-38325cbb1a5b" />
        </g>
      </g>
    </g>
  </g>
</svg>
