<?xml version="1.0" encoding="UTF-8" standalone="no"?>
<!-- Created with Inkscape (http://www.inkscape.org/) -->

<svg
   width="132.09158mm"
   height="75.360893mm"
   viewBox="0 0 132.09158 75.3609"
   version="1.1"
   id="svg5239"
   sodipodi:docname="URG_poc.svg"
   inkscape:version="1.2.2 (b0a8486541, 2022-12-01)"
   xmlns:inkscape="http://www.inkscape.org/namespaces/inkscape"
   xmlns:sodipodi="http://sodipodi.sourceforge.net/DTD/sodipodi-0.dtd"
   xmlns="http://www.w3.org/2000/svg"
   xmlns:svg="http://www.w3.org/2000/svg"
   xmlns:ns1="http://www.iki.fi/pav/software/textext/">
  <sodipodi:namedview
     id="namedview5241"
     pagecolor="#ffffff"
     bordercolor="#000000"
     borderopacity="0.25"
     inkscape:showpageshadow="2"
     inkscape:pageopacity="0.0"
     inkscape:pagecheckerboard="0"
     inkscape:deskcolor="#d1d1d1"
     inkscape:document-units="mm"
     showgrid="false"
     inkscape:zoom="0.72703749"
     inkscape:cx="360.36656"
     inkscape:cy="167.11655"
     inkscape:window-width="1916"
     inkscape:window-height="1048"
     inkscape:window-x="0"
     inkscape:window-y="28"
     inkscape:window-maximized="1"
     inkscape:current-layer="layer1" />
  <defs
     id="defs5236">
    <inkscape:path-effect
       effect="spiro"
       id="path-effect18421"
       is_visible="true"
       lpeversion="1" />
    <inkscape:path-effect
       effect="spiro"
       id="path-effect18354"
       is_visible="true"
       lpeversion="1" />
    <inkscape:path-effect
       effect="spiro"
       id="path-effect18350"
       is_visible="true"
       lpeversion="1" />
    <inkscape:path-effect
       effect="spiro"
       id="path-effect18334"
       is_visible="true"
       lpeversion="1" />
    <inkscape:path-effect
       effect="spiro"
       id="path-effect18330"
       is_visible="true"
       lpeversion="1" />
    <inkscape:path-effect
       effect="spiro"
       id="path-effect18326"
       is_visible="true"
       lpeversion="1" />
    <inkscape:path-effect
       effect="spiro"
       id="path-effect18308"
       is_visible="true"
       lpeversion="1" />
    <inkscape:path-effect
       effect="spiro"
       id="path-effect18304"
       is_visible="true"
       lpeversion="1" />
    <inkscape:path-effect
       effect="spiro"
       id="path-effect18237"
       is_visible="true"
       lpeversion="1" />
    <inkscape:path-effect
       effect="spiro"
       id="path-effect14615"
       is_visible="true"
       lpeversion="1" />
    <inkscape:path-effect
       effect="spiro"
       id="path-effect14611"
       is_visible="true"
       lpeversion="1" />
    <inkscape:path-effect
       effect="spiro"
       id="path-effect14607"
       is_visible="true"
       lpeversion="1" />
    <inkscape:path-effect
       effect="spiro"
       id="path-effect14603"
       is_visible="true"
       lpeversion="1" />
    <inkscape:path-effect
       effect="spiro"
       id="path-effect14599"
       is_visible="true"
       lpeversion="1" />
    <rect
       x="954.70654"
       y="37.257553"
       width="35.292576"
       height="48.612431"
       id="rect10137" />
    <inkscape:path-effect
       effect="spiro"
       id="path-effect9780"
       is_visible="true"
       lpeversion="1" />
    <inkscape:path-effect
       effect="spiro"
       id="path-effect9774"
       is_visible="true"
       lpeversion="1" />
    <inkscape:path-effect
       effect="spiro"
       id="path-effect9768"
       is_visible="true"
       lpeversion="1" />
    <inkscape:path-effect
       effect="spiro"
       id="path-effect9762"
       is_visible="true"
       lpeversion="1" />
    <inkscape:path-effect
       effect="spiro"
       id="path-effect9756"
       is_visible="true"
       lpeversion="1" />
    <inkscape:path-effect
       effect="spiro"
       id="path-effect9750"
       is_visible="true"
       lpeversion="1" />
    <inkscape:path-effect
       effect="spiro"
       id="path-effect9744"
       is_visible="true"
       lpeversion="1" />
    <inkscape:path-effect
       effect="spiro"
       id="path-effect9738"
       is_visible="true"
       lpeversion="1" />
    <inkscape:path-effect
       effect="spiro"
       id="path-effect9732"
       is_visible="true"
       lpeversion="1" />
    <inkscape:path-effect
       effect="spiro"
       id="path-effect9726"
       is_visible="true"
       lpeversion="1" />
    <inkscape:path-effect
       effect="spiro"
       id="path-effect9720"
       is_visible="true"
       lpeversion="1" />
    <inkscape:path-effect
       effect="spiro"
       id="path-effect9714"
       is_visible="true"
       lpeversion="1" />
    <inkscape:path-effect
       effect="spiro"
       id="path-effect9708"
       is_visible="true"
       lpeversion="1" />
    <inkscape:path-effect
       effect="spiro"
       id="path-effect9702"
       is_visible="true"
       lpeversion="1" />
    <inkscape:path-effect
       effect="spiro"
       id="path-effect9696"
       is_visible="true"
       lpeversion="1" />
    <inkscape:path-effect
       effect="spiro"
       id="path-effect9690"
       is_visible="true"
       lpeversion="1" />
    <inkscape:path-effect
       effect="spiro"
       id="path-effect9621"
       is_visible="true"
       lpeversion="1" />
  </defs>
  <g
     inkscape:label="Layer 1"
     inkscape:groupmode="layer"
     id="layer1"
     transform="translate(-18.521326,-9.7447777)">
    <path
       style="fill:none;fill-opacity:1;stroke:#2e8759;stroke-width:2;stroke-dasharray:4, 2;stroke-dashoffset:0;stroke-opacity:1"
       d="M 34.067078,67.307136 C 29.415514,65.135329 25.457156,61.506396 22.890359,57.060573 20.323562,52.61475 19.159993,47.372245 19.604935,42.257969 c 0.45575,-5.238507 2.599218,-10.316989 6.034674,-14.297856 3.435457,-3.980866 8.145729,-6.844216 13.261204,-8.061417"
       id="path18235"
       inkscape:path-effect="#path-effect18237"
       inkscape:original-d="M 34.067078,67.307136 C 29.246628,58.957678 24.425914,50.607957 19.604935,42.257969 14.783956,33.907983 32.469119,27.352052 38.900813,19.898696" />
    <path
       style="fill:none;fill-opacity:1;stroke:#2e8759;stroke-width:2;stroke-dasharray:4, 2;stroke-dashoffset:0;stroke-opacity:1"
       d="m 39.309865,51.598988 c 4.101738,-0.154528 8.116476,-1.976145 10.93396,-4.961094 2.817484,-2.984948 4.404524,-7.098063 4.322231,-11.201886 -0.08154,-4.066056 -1.799607,-8.076192 -4.687086,-10.940091 -2.88748,-2.863899 -6.91157,-4.54903 -10.978157,-4.597221"
       id="path18302"
       inkscape:path-effect="#path-effect18304"
       inkscape:original-d="M 39.309865,51.598988 C 44.546659,46.362725 49.480924,40.823933 54.566056,35.436008 59.651188,30.048084 44.122825,25.078065 38.900813,19.898696" />
    <path
       style="fill:none;fill-opacity:1;stroke:#2e5e59;stroke-width:2;stroke-dasharray:4, 2;stroke-dashoffset:0;stroke-opacity:1"
       d="m 81.692081,67.307136 c -3.832986,-0.448369 -7.482023,-2.326054 -10.074969,-5.184279 -2.592946,-2.858225 -4.107441,-6.672341 -4.181511,-10.530751 -0.09319,-4.854174 2.142686,-9.701355 5.895702,-12.781381 3.753017,-3.080027 8.943255,-4.327308 13.68598,-3.288918"
       id="path18318"
       inkscape:path-effect="#path-effect18326"
       inkscape:original-d="M 81.692081,67.307136 C 76.871631,58.957678 72.25658,59.942094 67.435601,51.592106 62.614622,43.24212 80.585589,42.975163 87.017283,35.521807"
       sodipodi:nodetypes="csc" />
    <path
       style="fill:none;fill-opacity:1;stroke:#2e5e59;stroke-width:2;stroke-dasharray:4, 2;stroke-dashoffset:0;stroke-opacity:1"
       d="m 86.934868,51.598988 c 1.395382,0.900667 3.029545,1.427644 4.688221,1.511833 1.658676,0.08419 3.337799,-0.274615 4.817205,-1.029367 1.479406,-0.754752 2.755469,-1.903602 3.660876,-3.295914 0.9054,-1.392313 1.43793,-3.024675 1.52776,-4.683055 0.094,-1.736125 -0.29834,-3.496037 -1.12097,-5.027788 -0.822625,-1.531751 -2.073077,-2.830835 -3.572342,-3.711277 -1.499266,-0.880443 -3.242934,-1.339653 -4.981382,-1.311892 -1.738449,0.02776 -3.466565,0.542414 -4.936953,1.470279"
       id="path18320"
       inkscape:path-effect="#path-effect18330"
       inkscape:original-d="m 86.934868,51.598988 c 5.236794,-5.236263 9.608934,-2.108578 14.694062,-7.496503 5.08513,-5.387924 -9.389635,-3.401309 -14.611647,-8.580678"
       sodipodi:nodetypes="csc" />
    <text
       xml:space="preserve"
       transform="matrix(0.26458333,0,0,0.26458333,-57.7392,9.10962)"
       id="text10135"
       style="font-weight:500;font-size:26.6667px;font-family:'Fira Math';-inkscape-font-specification:'Fira Math Medium';text-align:justify;white-space:pre;shape-inside:url(#rect10137);display:inline;fill:#505050;fill-opacity:1;stroke:#2e8759;stroke-width:7.55906;stroke-dasharray:15.1181, 7.55906;stroke-dashoffset:0;stroke-opacity:1" />
    <circle
       style="fill:#b0b0b0;fill-opacity:1;stroke:none;stroke-width:2.65367;stroke-dasharray:5.30734, 2.65367;stroke-dashoffset:0;stroke-opacity:1"
       id="path18102"
       cx="39.205219"
       cy="19.682129"
       r="5.1381416" />
    <circle
       style="fill:#909090;fill-opacity:1;stroke:none;stroke-width:2.65367;stroke-dasharray:5.30734, 2.65367;stroke-dashoffset:0;stroke-opacity:1"
       id="circle18156"
       cx="39.205219"
       cy="35.557129"
       r="5.1381416" />
    <circle
       style="fill:#707070;fill-opacity:1;stroke:none;stroke-width:2.65367;stroke-dasharray:5.30734, 2.65367;stroke-dashoffset:0;stroke-opacity:1"
       id="circle18158"
       cx="39.205219"
       cy="51.432133"
       r="5.1381416" />
    <circle
       style="fill:#505050;fill-opacity:1;stroke:none;stroke-width:2.65367;stroke-dasharray:5.30734, 2.65367;stroke-dashoffset:0;stroke-opacity:1"
       id="circle18160"
       cx="39.205219"
       cy="67.307137"
       r="5.1381416" />
    <circle
       style="fill:#b0b0b0;fill-opacity:1;stroke:none;stroke-width:2.65367;stroke-dasharray:5.30734, 2.65367;stroke-dashoffset:0;stroke-opacity:1"
       id="circle18310"
       cx="86.830215"
       cy="19.682129"
       r="5.1381416" />
    <circle
       style="fill:#909090;fill-opacity:1;stroke:none;stroke-width:2.65367;stroke-dasharray:5.30734, 2.65367;stroke-dashoffset:0;stroke-opacity:1"
       id="circle18312"
       cx="86.830215"
       cy="35.557129"
       r="5.1381416" />
    <circle
       style="fill:#707070;fill-opacity:1;stroke:none;stroke-width:2.65367;stroke-dasharray:5.30734, 2.65367;stroke-dashoffset:0;stroke-opacity:1"
       id="circle18314"
       cx="86.830215"
       cy="51.432133"
       r="5.1381416" />
    <circle
       style="fill:#505050;fill-opacity:1;stroke:none;stroke-width:2.65367;stroke-dasharray:5.30734, 2.65367;stroke-dashoffset:0;stroke-opacity:1"
       id="circle18316"
       cx="86.830215"
       cy="67.307137"
       r="5.1381416" />
    <path
       style="fill:none;fill-opacity:1;stroke:#2e0059;stroke-width:2;stroke-dasharray:4, 2;stroke-dashoffset:0;stroke-opacity:1"
       d="m 134.90513,65.795301 c 1.39538,0.900668 3.02955,1.427645 4.68822,1.511835 1.65868,0.08419 3.3378,-0.274614 4.81721,-1.029366 1.47941,-0.754752 2.75547,-1.903602 3.66088,-3.295915 0.9054,-1.392313 1.43793,-3.024676 1.52776,-4.683057 0.094,-1.736127 -0.29834,-3.49604 -1.12097,-5.027792 -0.82263,-1.531752 -2.07308,-2.830838 -3.57235,-3.71128 -1.49926,-0.880442 -3.24293,-1.339652 -4.98138,-1.31189 -1.73845,0.02776 -3.46657,0.542417 -4.93696,1.470284"
       id="path18338"
       inkscape:path-effect="#path-effect18354"
       inkscape:original-d="m 134.90513,65.795301 c 5.2368,-5.236263 9.60894,-2.108578 14.69407,-7.496503 5.08513,-5.387924 -9.38964,-3.401309 -14.61166,-8.580678"
       sodipodi:nodetypes="csc" />
    <circle
       style="fill:#b0b0b0;fill-opacity:1;stroke:none;stroke-width:2.65367;stroke-dasharray:5.30734, 2.65367;stroke-dashoffset:0;stroke-opacity:1"
       id="circle18340"
       cx="134.45522"
       cy="19.682129"
       r="5.1381416" />
    <circle
       style="fill:#909090;fill-opacity:1;stroke:none;stroke-width:2.65367;stroke-dasharray:5.30734, 2.65367;stroke-dashoffset:0;stroke-opacity:1"
       id="circle18342"
       cx="134.45522"
       cy="35.557129"
       r="5.1381416" />
    <circle
       style="fill:#707070;fill-opacity:1;stroke:none;stroke-width:2.65367;stroke-dasharray:5.30734, 2.65367;stroke-dashoffset:0;stroke-opacity:1"
       id="circle18344"
       cx="134.45522"
       cy="51.432133"
       r="5.1381416" />
    <circle
       style="fill:#505050;fill-opacity:1;stroke:none;stroke-width:2.65367;stroke-dasharray:5.30734, 2.65367;stroke-dashoffset:0;stroke-opacity:1"
       id="circle18346"
       cx="134.45522"
       cy="67.307137"
       r="5.1381416" />
    <path
       style="fill:none;fill-opacity:1;stroke:#2e8759;stroke-width:2;stroke-dasharray:4, 2;stroke-dashoffset:0;stroke-opacity:1"
       d="M 38.870129,35.021415 C 37.598635,34.186454 36.543761,33.024591 35.835131,31.678597 34.798153,29.708928 34.52556,27.349028 35.086186,25.194819 35.646812,23.04061 37.035222,21.11298 38.900813,19.898696"
       id="path18419"
       inkscape:path-effect="#path-effect18421"
       inkscape:original-d="M 38.870129,35.021415 C 37.858727,33.907407 36.847061,32.793135 35.835131,31.678597 34.8232,30.56406 37.879183,23.825594 38.900813,19.898696" />
    <g
       transform="matrix(0.705554 0 0 0.705554 40.1591 78.1328)"
       ns1:version="1.8.2"
       ns1:texconverter="xelatex"
       ns1:pdfconverter="inkscape"
       ns1:text="URG transformations $\\longrightarrow$"
       ns1:preamble="/home/kirito/.config/textext/beamer_preamble.tex"
       ns1:scale="2.0"
       ns1:alignment="middle center"
       ns1:stroke-to-path="0"
       ns1:inkscapeversion="1.2.2"
       ns1:jacobian_sqrt="0.705554"
       id="g18673">
      <defs
         id="id-1dd60a45-bd42-4dca-8699-b595b4ba5c04">
        <g
           id="id-50164151-e769-4a06-9897-1c3845ee6b38">
          <g
             id="id-a728f899-6c78-4889-bd62-568b7f87f828">
            <path
               d="M 5.40625,3.484375 H 1.21875 V -10.46875 h 4.1875 z m -3.625,-13.4375 V 2.96875 H 4.875 V -9.953125 Z M 3.234375,-4.5 c 0.394531,0 0.675781,0.109375 0.84375,0.328125 0.175781,0.210937 0.265625,0.484375 0.265625,0.828125 0,0.34375 -0.078125,0.617188 -0.234375,0.8125 -0.148437,0.1875 -0.386719,0.308594 -0.71875,0.359375 v 0.453125 c 0,0.074219 -0.027344,0.132812 -0.078125,0.171875 -0.054688,0.042969 -0.109375,0.0625 -0.171875,0.0625 -0.0625,0 -0.121094,-0.019531 -0.171875,-0.0625 C 2.914062,-1.585938 2.890625,-1.644531 2.890625,-1.71875 V -2.5625 c 0.351563,-0.019531 0.59375,-0.082031 0.71875,-0.1875 0.125,-0.113281 0.1875,-0.304688 0.1875,-0.578125 0,-0.21875 -0.046875,-0.382813 -0.140625,-0.5 -0.085938,-0.125 -0.242188,-0.1875 -0.46875,-0.1875 -0.1875,0 -0.359375,0.039063 -0.515625,0.109375 -0.054687,0.023438 -0.09375,0.03125 -0.125,0.03125 -0.074219,0 -0.136719,-0.019531 -0.1875,-0.0625 -0.042969,-0.039062 -0.0625,-0.097656 -0.0625,-0.171875 0,-0.125 0.097656,-0.21875 0.296875,-0.28125 C 2.789062,-4.460938 3.003906,-4.5 3.234375,-4.5 Z m -0.09375,3.296875 c 0.101563,0 0.1875,0.039063 0.25,0.109375 0.0625,0.0625 0.09375,0.148438 0.09375,0.25 0,0.105469 -0.03125,0.195312 -0.09375,0.265625 -0.0625,0.0625 -0.148437,0.09375 -0.25,0.09375 -0.105469,0 -0.1875,-0.03125 -0.25,-0.09375 -0.0625,-0.070313 -0.09375,-0.160156 -0.09375,-0.265625 0,-0.101562 0.03125,-0.1875 0.09375,-0.25 0.0625,-0.070312 0.144531,-0.109375 0.25,-0.109375 z m 0,0"
               id="id-42099749-1beb-458e-948f-3a4f017d3fe4" />
          </g>
          <g
             id="id-bc47d22b-8f0a-42d4-9b17-5639d022269c">
            <path
               d="m 5.703125,-2.203125 c 0,0.460937 -0.09375,0.867187 -0.28125,1.21875 -0.1875,0.34375 -0.464844,0.617187 -0.828125,0.8125 C 4.226562,0.0234375 3.796875,0.125 3.296875,0.125 c -0.773437,0 -1.367187,-0.2070312 -1.78125,-0.625 -0.417969,-0.425781 -0.625,-0.992188 -0.625,-1.703125 V -6.875 H 1.84375 v 4.609375 c 0,0.53125 0.117188,0.933594 0.359375,1.203125 0.238281,0.261719 0.601563,0.390625 1.09375,0.390625 0.488281,0 0.851563,-0.128906 1.09375,-0.390625 C 4.628906,-1.332031 4.75,-1.734375 4.75,-2.265625 V -6.875 h 0.953125 z m 0,0"
               id="id-da4caee0-f348-4880-ab47-d9f00c0a31b2" />
          </g>
          <g
             id="id-feeec775-2160-40b5-9a1f-00b54f4658d0">
            <path
               d="M 3.015625,-2.90625 H 1.9375 V 0 H 1 v -6.875 h 1.796875 c 0.863281,0 1.515625,0.167969 1.953125,0.5 0.4375,0.324219 0.65625,0.808594 0.65625,1.453125 0,0.480469 -0.125,0.871094 -0.375,1.171875 -0.242188,0.292969 -0.609375,0.515625 -1.109375,0.671875 L 5.78125,0 h -1.125 z M 2.90625,-3.640625 c 0.5,0 0.875,-0.097656 1.125,-0.296875 0.25,-0.207031 0.375,-0.535156 0.375,-0.984375 0,-0.425781 -0.132812,-0.734375 -0.390625,-0.921875 -0.25,-0.1875 -0.65625,-0.28125 -1.21875,-0.28125 H 1.9375 v 2.484375 z m 0,0"
               id="id-ebdfc34c-2679-41d3-8a89-c422634503fb" />
          </g>
          <g
             id="id-47896348-82cb-4d07-bc6c-fcf493d66837">
            <path
               d="m 3.53125,-6.984375 c 0.425781,0 0.796875,0.0625 1.109375,0.1875 0.320313,0.117187 0.640625,0.304687 0.953125,0.5625 L 5.03125,-5.65625 C 4.789062,-5.851562 4.554688,-5.992188 4.328125,-6.078125 c -0.230469,-0.082031 -0.496094,-0.125 -0.796875,-0.125 -0.355469,0 -0.683594,0.09375 -0.984375,0.28125 -0.292969,0.1875 -0.53125,0.492187 -0.71875,0.90625 C 1.648438,-4.597656 1.5625,-4.070312 1.5625,-3.4375 c 0,0.960938 0.15625,1.664062 0.46875,2.109375 0.3125,0.449219 0.773438,0.671875 1.390625,0.671875 0.507813,0 0.945313,-0.101562 1.3125,-0.3125 V -3.046875 H 3.515625 L 3.40625,-3.8125 h 2.265625 v 3.328125 C 4.960938,-0.078125 4.210938,0.125 3.421875,0.125 2.523438,0.125 1.820312,-0.175781 1.3125,-0.78125 0.800781,-1.382812 0.546875,-2.269531 0.546875,-3.4375 c 0,-0.75 0.132813,-1.390625 0.40625,-1.921875 0.269531,-0.53125 0.628906,-0.929687 1.078125,-1.203125 0.457031,-0.28125 0.957031,-0.421875 1.5,-0.421875 z m 0,0"
               id="id-25d01ab8-7ac0-4551-b9ad-197341737ef5" />
          </g>
          <g
             id="id-a6ac6c0e-9fe9-4f68-a344-92f8fce65a40">
            <path
               d="M 3.59375,-0.234375 C 3.25,0.00390625 2.859375,0.125 2.421875,0.125 1.972656,0.125 1.625,0 1.375,-0.25 1.125,-0.507812 1,-0.882812 1,-1.375 V -4.546875 H 0.09375 V -5.25 H 1 V -6.4375 L 1.921875,-6.546875 V -5.25 h 1.25 l -0.09375,0.703125 h -1.15625 v 3.125 c 0,0.28125 0.046875,0.484375 0.140625,0.609375 0.101562,0.117188 0.265625,0.171875 0.484375,0.171875 0.207031,0 0.441406,-0.066406 0.703125,-0.203125 z m 0,0"
               id="id-5da1ed9b-38fc-41e7-80ed-1f78d9cc2770" />
          </g>
          <g
             id="id-0f0bf6d9-fb0e-4b0b-9507-5dff538b4910">
            <path
               d="m 3.203125,-5.375 c 0.1875,0 0.359375,0.023438 0.515625,0.0625 L 3.546875,-4.421875 C 3.390625,-4.453125 3.238281,-4.46875 3.09375,-4.46875 c -0.324219,0 -0.589844,0.121094 -0.796875,0.359375 C 2.097656,-3.878906 1.941406,-3.507812 1.828125,-3 v 3 h -0.90625 v -5.25 h 0.78125 l 0.09375,1.0625 C 1.929688,-4.582031 2.117188,-4.878906 2.359375,-5.078125 2.597656,-5.273438 2.878906,-5.375 3.203125,-5.375 Z m 0,0"
               id="id-d8e33cd6-344a-4559-b3db-408e487a3358" />
          </g>
          <g
             id="id-d7db4aaf-b903-4630-86da-cae018e59546">
            <path
               d="m 4.4375,-1.21875 c 0,0.210938 0.035156,0.367188 0.109375,0.46875 0.070313,0.105469 0.179687,0.183594 0.328125,0.234375 L 4.671875,0.125 C 4.390625,0.0820312 4.164062,0.00390625 4,-0.109375 3.84375,-0.234375 3.722656,-0.421875 3.640625,-0.671875 3.285156,-0.140625 2.765625,0.125 2.078125,0.125 1.554688,0.125 1.144531,-0.0195312 0.84375,-0.3125 0.550781,-0.601562 0.40625,-0.988281 0.40625,-1.46875 0.40625,-2.019531 0.601562,-2.445312 1,-2.75 1.40625,-3.050781 1.976562,-3.203125 2.71875,-3.203125 H 3.515625 V -3.59375 C 3.515625,-3.957031 3.425781,-4.21875 3.25,-4.375 3.070312,-4.539062 2.796875,-4.625 2.421875,-4.625 2.035156,-4.625 1.5625,-4.53125 1,-4.34375 L 0.78125,-5.015625 c 0.644531,-0.238281 1.25,-0.359375 1.8125,-0.359375 0.613281,0 1.070312,0.152344 1.375,0.453125 C 4.28125,-4.617188 4.4375,-4.1875 4.4375,-3.625 Z M 2.28125,-0.5625 c 0.53125,0 0.941406,-0.273438 1.234375,-0.828125 V -2.59375 h -0.6875 c -0.96875,0 -1.453125,0.359375 -1.453125,1.078125 0,0.3125 0.070312,0.554687 0.21875,0.71875 0.15625,0.15625 0.382812,0.234375 0.6875,0.234375 z m 0,0"
               id="id-96582bf1-64a0-4ab0-be00-014295a288ab" />
          </g>
          <g
             id="id-e4e0480e-26ef-45f3-8672-3b23b7b4458e">
            <path
               d="m 3.390625,-5.375 c 0.476563,0 0.851563,0.148438 1.125,0.4375 0.269531,0.28125 0.40625,0.671875 0.40625,1.171875 V 0 H 4 v -3.640625 c 0,-0.375 -0.074219,-0.632813 -0.21875,-0.78125 -0.136719,-0.15625 -0.339844,-0.234375 -0.609375,-0.234375 -0.28125,0 -0.53125,0.085938 -0.75,0.25 -0.210937,0.15625 -0.40625,0.382812 -0.59375,0.671875 V 0 h -0.90625 v -5.25 h 0.78125 l 0.078125,0.78125 c 0.1875,-0.28125 0.414062,-0.5 0.6875,-0.65625 0.28125,-0.164062 0.585938,-0.25 0.921875,-0.25 z m 0,0"
               id="id-35b9d2ad-89e9-4fde-b957-cb6ad45d4a84" />
          </g>
          <g
             id="id-ff3f322c-a60b-4ffa-bd0d-8262752c6e47">
            <path
               d="m 2.375,-5.375 c 0.351562,0 0.671875,0.054688 0.953125,0.15625 0.289063,0.09375 0.566406,0.242188 0.828125,0.4375 L 3.765625,-4.203125 C 3.523438,-4.347656 3.296875,-4.457031 3.078125,-4.53125 2.867188,-4.601562 2.644531,-4.640625 2.40625,-4.640625 c -0.304688,0 -0.542969,0.0625 -0.71875,0.1875 -0.167969,0.117187 -0.25,0.28125 -0.25,0.5 0,0.210937 0.078125,0.375 0.234375,0.5 0.164063,0.117187 0.460937,0.230469 0.890625,0.34375 0.582031,0.148437 1.019531,0.34375 1.3125,0.59375 0.289062,0.25 0.4375,0.601563 0.4375,1.046875 0,0.511719 -0.203125,0.90625 -0.609375,1.1875 C 3.296875,-0.0078125 2.804688,0.125 2.234375,0.125 1.429688,0.125 0.769531,-0.101562 0.25,-0.5625 L 0.734375,-1.125 c 0.445313,0.335938 0.941406,0.5 1.484375,0.5 0.34375,0 0.613281,-0.066406 0.8125,-0.203125 0.207031,-0.144531 0.3125,-0.34375 0.3125,-0.59375 0,-0.175781 -0.039062,-0.316406 -0.109375,-0.421875 C 3.160156,-1.957031 3.03125,-2.054688 2.84375,-2.140625 2.664062,-2.222656 2.40625,-2.3125 2.0625,-2.40625 1.5,-2.550781 1.09375,-2.742188 0.84375,-2.984375 c -0.242188,-0.25 -0.359375,-0.5625 -0.359375,-0.9375 0,-0.28125 0.078125,-0.53125 0.234375,-0.75 C 0.882812,-4.890625 1.109375,-5.0625 1.390625,-5.1875 1.679688,-5.3125 2.007812,-5.375 2.375,-5.375 Z m 0,0"
               id="id-3d00757f-33dd-4069-92c5-2e4a96bef658" />
          </g>
          <g
             id="id-683fdb0e-de84-4385-80df-06f638be0e11">
            <path
               d="m 2.734375,-6.734375 c -0.28125,0 -0.484375,0.0625 -0.609375,0.1875 -0.117188,0.117187 -0.171875,0.304687 -0.171875,0.5625 V -5.25 h 1.28125 L 3.125,-4.546875 H 1.953125 V 0 H 1.03125 V -4.546875 H 0.09375 V -5.25 h 0.9375 v -0.71875 c 0,-0.457031 0.144531,-0.820312 0.4375,-1.09375 0.289062,-0.28125 0.695312,-0.421875 1.21875,-0.421875 0.238281,0 0.453125,0.027344 0.640625,0.078125 0.1875,0.042969 0.390625,0.109375 0.609375,0.203125 l -0.28125,0.65625 c -0.304688,-0.125 -0.609375,-0.1875 -0.921875,-0.1875 z m 0,0"
               id="id-7e221f33-205e-4829-893e-7b0091e3866c" />
          </g>
          <g
             id="id-7e06f730-a0e8-4f15-9eb6-9b0ccf13eb54">
            <path
               d="m 2.921875,-5.375 c 0.738281,0 1.3125,0.25 1.71875,0.75 0.40625,0.492188 0.609375,1.15625 0.609375,2 0,0.542969 -0.09375,1.023438 -0.28125,1.4375 -0.1875,0.417969 -0.460938,0.742188 -0.8125,0.96875 C 3.8125,0.0078125 3.394531,0.125 2.90625,0.125 2.164062,0.125 1.585938,-0.117188 1.171875,-0.609375 0.765625,-1.109375 0.5625,-1.78125 0.5625,-2.625 c 0,-0.539062 0.09375,-1.019531 0.28125,-1.4375 0.1875,-0.414062 0.457031,-0.738281 0.8125,-0.96875 C 2.007812,-5.257812 2.429688,-5.375 2.921875,-5.375 Z m 0,0.734375 c -0.90625,0 -1.359375,0.671875 -1.359375,2.015625 0,1.335938 0.445312,2 1.34375,2 0.90625,0 1.359375,-0.664062 1.359375,-2 0,-1.34375 -0.449219,-2.015625 -1.34375,-2.015625 z m 0,0"
               id="id-e627ac2d-597c-416a-9f63-93cbc284b309" />
          </g>
          <g
             id="id-ee4b5075-f954-453a-902f-f4c985b8f275">
            <path
               d="m 6.1875,-5.375 c 0.4375,0 0.78125,0.148438 1.03125,0.4375 0.257812,0.292969 0.390625,0.683594 0.390625,1.171875 V 0 h -0.90625 v -3.640625 c 0,-0.675781 -0.246094,-1.015625 -0.734375,-1.015625 -0.261719,0 -0.484375,0.078125 -0.671875,0.234375 -0.179687,0.148437 -0.371094,0.375 -0.578125,0.6875 V 0 H 3.8125 v -3.640625 c 0,-0.675781 -0.246094,-1.015625 -0.734375,-1.015625 -0.273437,0 -0.496094,0.078125 -0.671875,0.234375 -0.179688,0.148437 -0.371094,0.375 -0.578125,0.6875 V 0 h -0.90625 v -5.25 h 0.78125 L 1.78125,-4.484375 C 2.175781,-5.078125 2.679688,-5.375 3.296875,-5.375 c 0.320313,0 0.597656,0.085938 0.828125,0.25 0.226562,0.167969 0.394531,0.402344 0.5,0.703125 0.207031,-0.3125 0.4375,-0.546875 0.6875,-0.703125 0.25,-0.164062 0.539062,-0.25 0.875,-0.25 z m 0,0"
               id="id-3a1420f6-e017-4158-bea0-0a09cfadca52" />
          </g>
          <g
             id="id-cb2203a2-ba7e-4e44-80fd-830dcd0157e5">
            <path
               d="m 1.359375,-7.78125 c 0.195313,0 0.351563,0.0625 0.46875,0.1875 0.125,0.117188 0.1875,0.265625 0.1875,0.453125 0,0.179687 -0.0625,0.324219 -0.1875,0.4375 -0.117187,0.117187 -0.273437,0.171875 -0.46875,0.171875 -0.179687,0 -0.328125,-0.054688 -0.453125,-0.171875 -0.117188,-0.113281 -0.171875,-0.257813 -0.171875,-0.4375 0,-0.1875 0.054687,-0.335937 0.171875,-0.453125 0.125,-0.125 0.273438,-0.1875 0.453125,-0.1875 z M 1.828125,0 h -0.90625 v -5.25 h 0.90625 z m 0,0"
               id="id-14b569f0-42db-4384-b706-65d426c90d0f" />
          </g>
          <g
             id="id-fb9ee910-ddb5-4a71-a9dd-6e541d39c719">
            <path
               d="m 5.4375,-6.4375 v 5.890625 H 1.34375 V -6.4375 Z m 0.546875,-0.546875 h -5.1875 V 0 h 5.1875 z m -2.75,4.953125 c -0.21875,0 -0.40625,0.1875 -0.40625,0.421875 0,0.21875 0.1875,0.40625 0.40625,0.40625 0.25,0 0.421875,-0.1875 0.421875,-0.40625 0,-0.234375 -0.171875,-0.421875 -0.421875,-0.421875 z M 3.4375,-5.453125 c -0.5,0 -0.90625,0.1875 -1.25,0.59375 l 0.390625,0.28125 C 2.828125,-4.875 3.09375,-5 3.40625,-5 3.765625,-5 4,-4.8125 4,-4.484375 4,-3.84375 2.953125,-3.953125 2.953125,-2.9375 v 0.296875 H 3.5 V -2.90625 c 0,-0.796875 1.078125,-0.65625 1.078125,-1.625 0,-0.46875 -0.375,-0.921875 -1.140625,-0.921875 z m 0,0"
               id="id-01e067dd-1e89-4d47-862b-d30f7fba4bde" />
          </g>
          <g
             id="id-3858f425-88d8-4100-8d00-00eaa3c7c8a6">
            <path
               d="M 13.0625,-4.90625 12.515625,-4.3125 13.75,-3.1875 H 1 v 0.796875 h 12.75 l -1.234375,1.109375 0.546875,0.609375 2.296875,-2.125 z m 0,0"
               id="id-2b0fc265-37c1-41bf-9098-b90aa5bebeda" />
          </g>
        </g>
      </defs>
      <g
         fill="#000000"
         fill-opacity="1"
         id="id-096bd912-1ad7-4eff-8408-321e9d186191"
         transform="translate(-149.603, -126.984)">
        <g
           transform="translate(148.712, 134.765)"
           id="g19954">
          <path
             d="m 5.703125,-2.203125 c 0,0.460937 -0.09375,0.867187 -0.28125,1.21875 -0.1875,0.34375 -0.464844,0.617187 -0.828125,0.8125 C 4.226562,0.0234375 3.796875,0.125 3.296875,0.125 c -0.773437,0 -1.367187,-0.2070312 -1.78125,-0.625 -0.417969,-0.425781 -0.625,-0.992188 -0.625,-1.703125 V -6.875 H 1.84375 v 4.609375 c 0,0.53125 0.117188,0.933594 0.359375,1.203125 0.238281,0.261719 0.601563,0.390625 1.09375,0.390625 0.488281,0 0.851563,-0.128906 1.09375,-0.390625 C 4.628906,-1.332031 4.75,-1.734375 4.75,-2.265625 V -6.875 h 0.953125 z m 0,0"
             id="id-28570e67-11c3-4314-af6f-231d9a8d023f" />
        </g>
        <g
           transform="translate(155.307, 134.765)"
           id="g19957">
          <path
             d="M 3.015625,-2.90625 H 1.9375 V 0 H 1 v -6.875 h 1.796875 c 0.863281,0 1.515625,0.167969 1.953125,0.5 0.4375,0.324219 0.65625,0.808594 0.65625,1.453125 0,0.480469 -0.125,0.871094 -0.375,1.171875 -0.242188,0.292969 -0.609375,0.515625 -1.109375,0.671875 L 5.78125,0 h -1.125 z M 2.90625,-3.640625 c 0.5,0 0.875,-0.097656 1.125,-0.296875 0.25,-0.207031 0.375,-0.535156 0.375,-0.984375 0,-0.425781 -0.132812,-0.734375 -0.390625,-0.921875 -0.25,-0.1875 -0.65625,-0.28125 -1.21875,-0.28125 H 1.9375 v 2.484375 z m 0,0"
             id="id-7aca0f0a-eb5f-44cc-910a-da1161398b91" />
        </g>
      </g>
      <g
         fill="#000000"
         fill-opacity="1"
         id="id-f9412897-0244-4d05-879b-51fb768384ad"
         transform="translate(-149.603, -126.984)">
        <g
           transform="translate(161.255, 134.765)"
           id="g19961">
          <path
             d="m 3.53125,-6.984375 c 0.425781,0 0.796875,0.0625 1.109375,0.1875 0.320313,0.117187 0.640625,0.304687 0.953125,0.5625 L 5.03125,-5.65625 C 4.789062,-5.851562 4.554688,-5.992188 4.328125,-6.078125 c -0.230469,-0.082031 -0.496094,-0.125 -0.796875,-0.125 -0.355469,0 -0.683594,0.09375 -0.984375,0.28125 -0.292969,0.1875 -0.53125,0.492187 -0.71875,0.90625 C 1.648438,-4.597656 1.5625,-4.070312 1.5625,-3.4375 c 0,0.960938 0.15625,1.664062 0.46875,2.109375 0.3125,0.449219 0.773438,0.671875 1.390625,0.671875 0.507813,0 0.945313,-0.101562 1.3125,-0.3125 V -3.046875 H 3.515625 L 3.40625,-3.8125 h 2.265625 v 3.328125 C 4.960938,-0.078125 4.210938,0.125 3.421875,0.125 2.523438,0.125 1.820312,-0.175781 1.3125,-0.78125 0.800781,-1.382812 0.546875,-2.269531 0.546875,-3.4375 c 0,-0.75 0.132813,-1.390625 0.40625,-1.921875 0.269531,-0.53125 0.628906,-0.929687 1.078125,-1.203125 0.457031,-0.28125 0.957031,-0.421875 1.5,-0.421875 z m 0,0"
             id="id-d2a2ae2f-47c4-4923-adfe-e5867b65d84a" />
        </g>
      </g>
      <g
         fill="#000000"
         fill-opacity="1"
         id="id-8521e9b0-c68a-4dfb-9803-3d24337baf1c"
         transform="translate(-149.603, -126.984)">
        <g
           transform="translate(170.171, 134.765)"
           id="g19965">
          <path
             d="M 3.59375,-0.234375 C 3.25,0.00390625 2.859375,0.125 2.421875,0.125 1.972656,0.125 1.625,0 1.375,-0.25 1.125,-0.507812 1,-0.882812 1,-1.375 V -4.546875 H 0.09375 V -5.25 H 1 V -6.4375 L 1.921875,-6.546875 V -5.25 h 1.25 l -0.09375,0.703125 h -1.15625 v 3.125 c 0,0.28125 0.046875,0.484375 0.140625,0.609375 0.101562,0.117188 0.265625,0.171875 0.484375,0.171875 0.207031,0 0.441406,-0.066406 0.703125,-0.203125 z m 0,0"
             id="id-836614cc-0361-4c45-a9d3-6184c85550fd" />
        </g>
        <g
           transform="translate(173.768, 134.765)"
           id="g19968">
          <path
             d="m 3.203125,-5.375 c 0.1875,0 0.359375,0.023438 0.515625,0.0625 L 3.546875,-4.421875 C 3.390625,-4.453125 3.238281,-4.46875 3.09375,-4.46875 c -0.324219,0 -0.589844,0.121094 -0.796875,0.359375 C 2.097656,-3.878906 1.941406,-3.507812 1.828125,-3 v 3 h -0.90625 v -5.25 h 0.78125 l 0.09375,1.0625 C 1.929688,-4.582031 2.117188,-4.878906 2.359375,-5.078125 2.597656,-5.273438 2.878906,-5.375 3.203125,-5.375 Z m 0,0"
             id="id-db09afc1-635c-4ab8-9a21-9ec79d573bd4" />
        </g>
      </g>
      <g
         fill="#000000"
         fill-opacity="1"
         id="id-4aaa6c44-6284-4b81-9e2b-b9d7d43f29fe"
         transform="translate(-149.603, -126.984)">
        <g
           transform="translate(177.394, 134.765)"
           id="g19972">
          <path
             d="m 4.4375,-1.21875 c 0,0.210938 0.035156,0.367188 0.109375,0.46875 0.070313,0.105469 0.179687,0.183594 0.328125,0.234375 L 4.671875,0.125 C 4.390625,0.0820312 4.164062,0.00390625 4,-0.109375 3.84375,-0.234375 3.722656,-0.421875 3.640625,-0.671875 3.285156,-0.140625 2.765625,0.125 2.078125,0.125 1.554688,0.125 1.144531,-0.0195312 0.84375,-0.3125 0.550781,-0.601562 0.40625,-0.988281 0.40625,-1.46875 0.40625,-2.019531 0.601562,-2.445312 1,-2.75 1.40625,-3.050781 1.976562,-3.203125 2.71875,-3.203125 H 3.515625 V -3.59375 C 3.515625,-3.957031 3.425781,-4.21875 3.25,-4.375 3.070312,-4.539062 2.796875,-4.625 2.421875,-4.625 2.035156,-4.625 1.5625,-4.53125 1,-4.34375 L 0.78125,-5.015625 c 0.644531,-0.238281 1.25,-0.359375 1.8125,-0.359375 0.613281,0 1.070312,0.152344 1.375,0.453125 C 4.28125,-4.617188 4.4375,-4.1875 4.4375,-3.625 Z M 2.28125,-0.5625 c 0.53125,0 0.941406,-0.273438 1.234375,-0.828125 V -2.59375 h -0.6875 c -0.96875,0 -1.453125,0.359375 -1.453125,1.078125 0,0.3125 0.070312,0.554687 0.21875,0.71875 0.15625,0.15625 0.382812,0.234375 0.6875,0.234375 z m 0,0"
             id="id-07294f27-b6b5-4611-aaaf-73206a36eaba" />
        </g>
        <g
           transform="translate(182.764, 134.765)"
           id="g19975">
          <path
             d="m 3.390625,-5.375 c 0.476563,0 0.851563,0.148438 1.125,0.4375 0.269531,0.28125 0.40625,0.671875 0.40625,1.171875 V 0 H 4 v -3.640625 c 0,-0.375 -0.074219,-0.632813 -0.21875,-0.78125 -0.136719,-0.15625 -0.339844,-0.234375 -0.609375,-0.234375 -0.28125,0 -0.53125,0.085938 -0.75,0.25 -0.210937,0.15625 -0.40625,0.382812 -0.59375,0.671875 V 0 h -0.90625 v -5.25 h 0.78125 l 0.078125,0.78125 c 0.1875,-0.28125 0.414062,-0.5 0.6875,-0.65625 0.28125,-0.164062 0.585938,-0.25 0.921875,-0.25 z m 0,0"
             id="id-01cb89be-13a9-4be4-9997-aaa4164021fd" />
        </g>
        <g
           transform="translate(188.533, 134.765)"
           id="g19978">
          <path
             d="m 2.375,-5.375 c 0.351562,0 0.671875,0.054688 0.953125,0.15625 0.289063,0.09375 0.566406,0.242188 0.828125,0.4375 L 3.765625,-4.203125 C 3.523438,-4.347656 3.296875,-4.457031 3.078125,-4.53125 2.867188,-4.601562 2.644531,-4.640625 2.40625,-4.640625 c -0.304688,0 -0.542969,0.0625 -0.71875,0.1875 -0.167969,0.117187 -0.25,0.28125 -0.25,0.5 0,0.210937 0.078125,0.375 0.234375,0.5 0.164063,0.117187 0.460937,0.230469 0.890625,0.34375 0.582031,0.148437 1.019531,0.34375 1.3125,0.59375 0.289062,0.25 0.4375,0.601563 0.4375,1.046875 0,0.511719 -0.203125,0.90625 -0.609375,1.1875 C 3.296875,-0.0078125 2.804688,0.125 2.234375,0.125 1.429688,0.125 0.769531,-0.101562 0.25,-0.5625 L 0.734375,-1.125 c 0.445313,0.335938 0.941406,0.5 1.484375,0.5 0.34375,0 0.613281,-0.066406 0.8125,-0.203125 0.207031,-0.144531 0.3125,-0.34375 0.3125,-0.59375 0,-0.175781 -0.039062,-0.316406 -0.109375,-0.421875 C 3.160156,-1.957031 3.03125,-2.054688 2.84375,-2.140625 2.664062,-2.222656 2.40625,-2.3125 2.0625,-2.40625 1.5,-2.550781 1.09375,-2.742188 0.84375,-2.984375 c -0.242188,-0.25 -0.359375,-0.5625 -0.359375,-0.9375 0,-0.28125 0.078125,-0.53125 0.234375,-0.75 C 0.882812,-4.890625 1.109375,-5.0625 1.390625,-5.1875 1.679688,-5.3125 2.007812,-5.375 2.375,-5.375 Z m 0,0"
             id="id-11bcea78-c7ee-4a83-aae6-147a7b271e04" />
        </g>
        <g
           transform="translate(193.185, 134.765)"
           id="g19981">
          <path
             d="m 2.734375,-6.734375 c -0.28125,0 -0.484375,0.0625 -0.609375,0.1875 -0.117188,0.117187 -0.171875,0.304687 -0.171875,0.5625 V -5.25 h 1.28125 L 3.125,-4.546875 H 1.953125 V 0 H 1.03125 V -4.546875 H 0.09375 V -5.25 h 0.9375 v -0.71875 c 0,-0.457031 0.144531,-0.820312 0.4375,-1.09375 0.289062,-0.28125 0.695312,-0.421875 1.21875,-0.421875 0.238281,0 0.453125,0.027344 0.640625,0.078125 0.1875,0.042969 0.390625,0.109375 0.609375,0.203125 l -0.28125,0.65625 c -0.304688,-0.125 -0.609375,-0.1875 -0.921875,-0.1875 z m 0,0"
             id="id-f1b7a229-62c7-4721-a61d-8e27d2eba629" />
        </g>
      </g>
      <g
         fill="#000000"
         fill-opacity="1"
         id="id-ec16ccc5-c4e1-4dfb-8414-0bda9c0ecf7a"
         transform="translate(-149.603, -126.984)">
        <g
           transform="translate(196.423, 134.765)"
           id="g19985">
          <path
             d="m 2.921875,-5.375 c 0.738281,0 1.3125,0.25 1.71875,0.75 0.40625,0.492188 0.609375,1.15625 0.609375,2 0,0.542969 -0.09375,1.023438 -0.28125,1.4375 -0.1875,0.417969 -0.460938,0.742188 -0.8125,0.96875 C 3.8125,0.0078125 3.394531,0.125 2.90625,0.125 2.164062,0.125 1.585938,-0.117188 1.171875,-0.609375 0.765625,-1.109375 0.5625,-1.78125 0.5625,-2.625 c 0,-0.539062 0.09375,-1.019531 0.28125,-1.4375 0.1875,-0.414062 0.457031,-0.738281 0.8125,-0.96875 C 2.007812,-5.257812 2.429688,-5.375 2.921875,-5.375 Z m 0,0.734375 c -0.90625,0 -1.359375,0.671875 -1.359375,2.015625 0,1.335938 0.445312,2 1.34375,2 0.90625,0 1.359375,-0.664062 1.359375,-2 0,-1.34375 -0.449219,-2.015625 -1.34375,-2.015625 z m 0,0"
             id="id-a70eb6b1-d022-401a-ba68-ece27db05d94" />
        </g>
        <g
           transform="translate(202.241, 134.765)"
           id="g19988">
          <path
             d="m 3.203125,-5.375 c 0.1875,0 0.359375,0.023438 0.515625,0.0625 L 3.546875,-4.421875 C 3.390625,-4.453125 3.238281,-4.46875 3.09375,-4.46875 c -0.324219,0 -0.589844,0.121094 -0.796875,0.359375 C 2.097656,-3.878906 1.941406,-3.507812 1.828125,-3 v 3 h -0.90625 v -5.25 h 0.78125 l 0.09375,1.0625 C 1.929688,-4.582031 2.117188,-4.878906 2.359375,-5.078125 2.597656,-5.273438 2.878906,-5.375 3.203125,-5.375 Z m 0,0"
             id="id-7746a741-747c-4c2b-b1fd-185804d84f15" />
        </g>
        <g
           transform="translate(206.057, 134.765)"
           id="g19991">
          <path
             d="m 6.1875,-5.375 c 0.4375,0 0.78125,0.148438 1.03125,0.4375 0.257812,0.292969 0.390625,0.683594 0.390625,1.171875 V 0 h -0.90625 v -3.640625 c 0,-0.675781 -0.246094,-1.015625 -0.734375,-1.015625 -0.261719,0 -0.484375,0.078125 -0.671875,0.234375 -0.179687,0.148437 -0.371094,0.375 -0.578125,0.6875 V 0 H 3.8125 v -3.640625 c 0,-0.675781 -0.246094,-1.015625 -0.734375,-1.015625 -0.273437,0 -0.496094,0.078125 -0.671875,0.234375 -0.179688,0.148437 -0.371094,0.375 -0.578125,0.6875 V 0 h -0.90625 v -5.25 h 0.78125 L 1.78125,-4.484375 C 2.175781,-5.078125 2.679688,-5.375 3.296875,-5.375 c 0.320313,0 0.597656,0.085938 0.828125,0.25 0.226562,0.167969 0.394531,0.402344 0.5,0.703125 0.207031,-0.3125 0.4375,-0.546875 0.6875,-0.703125 0.25,-0.164062 0.539062,-0.25 0.875,-0.25 z m 0,0"
             id="id-3a730910-df63-46d4-bf98-fc0a0ac72b6f" />
        </g>
        <g
           transform="translate(214.525, 134.765)"
           id="g19994">
          <path
             d="m 4.4375,-1.21875 c 0,0.210938 0.035156,0.367188 0.109375,0.46875 0.070313,0.105469 0.179687,0.183594 0.328125,0.234375 L 4.671875,0.125 C 4.390625,0.0820312 4.164062,0.00390625 4,-0.109375 3.84375,-0.234375 3.722656,-0.421875 3.640625,-0.671875 3.285156,-0.140625 2.765625,0.125 2.078125,0.125 1.554688,0.125 1.144531,-0.0195312 0.84375,-0.3125 0.550781,-0.601562 0.40625,-0.988281 0.40625,-1.46875 0.40625,-2.019531 0.601562,-2.445312 1,-2.75 1.40625,-3.050781 1.976562,-3.203125 2.71875,-3.203125 H 3.515625 V -3.59375 C 3.515625,-3.957031 3.425781,-4.21875 3.25,-4.375 3.070312,-4.539062 2.796875,-4.625 2.421875,-4.625 2.035156,-4.625 1.5625,-4.53125 1,-4.34375 L 0.78125,-5.015625 c 0.644531,-0.238281 1.25,-0.359375 1.8125,-0.359375 0.613281,0 1.070312,0.152344 1.375,0.453125 C 4.28125,-4.617188 4.4375,-4.1875 4.4375,-3.625 Z M 2.28125,-0.5625 c 0.53125,0 0.941406,-0.273438 1.234375,-0.828125 V -2.59375 h -0.6875 c -0.96875,0 -1.453125,0.359375 -1.453125,1.078125 0,0.3125 0.070312,0.554687 0.21875,0.71875 0.15625,0.15625 0.382812,0.234375 0.6875,0.234375 z m 0,0"
             id="id-5671669b-0381-4b17-8620-4fb38f45e1b8" />
        </g>
        <g
           transform="translate(219.895, 134.765)"
           id="g19997">
          <path
             d="M 3.59375,-0.234375 C 3.25,0.00390625 2.859375,0.125 2.421875,0.125 1.972656,0.125 1.625,0 1.375,-0.25 1.125,-0.507812 1,-0.882812 1,-1.375 V -4.546875 H 0.09375 V -5.25 H 1 V -6.4375 L 1.921875,-6.546875 V -5.25 h 1.25 l -0.09375,0.703125 h -1.15625 v 3.125 c 0,0.28125 0.046875,0.484375 0.140625,0.609375 0.101562,0.117188 0.265625,0.171875 0.484375,0.171875 0.207031,0 0.441406,-0.066406 0.703125,-0.203125 z m 0,0"
             id="id-a4f95fba-6d2a-4677-bf49-2f071d44781e" />
        </g>
        <g
           transform="translate(223.491, 134.765)"
           id="g20000">
          <path
             d="m 1.359375,-7.78125 c 0.195313,0 0.351563,0.0625 0.46875,0.1875 0.125,0.117188 0.1875,0.265625 0.1875,0.453125 0,0.179687 -0.0625,0.324219 -0.1875,0.4375 -0.117187,0.117187 -0.273437,0.171875 -0.46875,0.171875 -0.179687,0 -0.328125,-0.054688 -0.453125,-0.171875 -0.117188,-0.113281 -0.171875,-0.257813 -0.171875,-0.4375 0,-0.1875 0.054687,-0.335937 0.171875,-0.453125 0.125,-0.125 0.273438,-0.1875 0.453125,-0.1875 z M 1.828125,0 h -0.90625 v -5.25 h 0.90625 z m 0,0"
             id="id-1ad20407-7cdd-4534-b389-4fb3effe1cdb" />
        </g>
        <g
           transform="translate(226.241, 134.765)"
           id="g20003">
          <path
             d="m 2.921875,-5.375 c 0.738281,0 1.3125,0.25 1.71875,0.75 0.40625,0.492188 0.609375,1.15625 0.609375,2 0,0.542969 -0.09375,1.023438 -0.28125,1.4375 -0.1875,0.417969 -0.460938,0.742188 -0.8125,0.96875 C 3.8125,0.0078125 3.394531,0.125 2.90625,0.125 2.164062,0.125 1.585938,-0.117188 1.171875,-0.609375 0.765625,-1.109375 0.5625,-1.78125 0.5625,-2.625 c 0,-0.539062 0.09375,-1.019531 0.28125,-1.4375 0.1875,-0.414062 0.457031,-0.738281 0.8125,-0.96875 C 2.007812,-5.257812 2.429688,-5.375 2.921875,-5.375 Z m 0,0.734375 c -0.90625,0 -1.359375,0.671875 -1.359375,2.015625 0,1.335938 0.445312,2 1.34375,2 0.90625,0 1.359375,-0.664062 1.359375,-2 0,-1.34375 -0.449219,-2.015625 -1.34375,-2.015625 z m 0,0"
             id="id-8acdabe3-9171-4406-a55f-6adae240d61b" />
        </g>
        <g
           transform="translate(232.059, 134.765)"
           id="g20006">
          <path
             d="m 3.390625,-5.375 c 0.476563,0 0.851563,0.148438 1.125,0.4375 0.269531,0.28125 0.40625,0.671875 0.40625,1.171875 V 0 H 4 v -3.640625 c 0,-0.375 -0.074219,-0.632813 -0.21875,-0.78125 -0.136719,-0.15625 -0.339844,-0.234375 -0.609375,-0.234375 -0.28125,0 -0.53125,0.085938 -0.75,0.25 -0.210937,0.15625 -0.40625,0.382812 -0.59375,0.671875 V 0 h -0.90625 v -5.25 h 0.78125 l 0.078125,0.78125 c 0.1875,-0.28125 0.414062,-0.5 0.6875,-0.65625 0.28125,-0.164062 0.585938,-0.25 0.921875,-0.25 z m 0,0"
             id="id-53750393-0230-455d-8b07-fff624cdbe93" />
        </g>
        <g
           transform="translate(237.827, 134.765)"
           id="g20009">
          <path
             d="m 2.375,-5.375 c 0.351562,0 0.671875,0.054688 0.953125,0.15625 0.289063,0.09375 0.566406,0.242188 0.828125,0.4375 L 3.765625,-4.203125 C 3.523438,-4.347656 3.296875,-4.457031 3.078125,-4.53125 2.867188,-4.601562 2.644531,-4.640625 2.40625,-4.640625 c -0.304688,0 -0.542969,0.0625 -0.71875,0.1875 -0.167969,0.117187 -0.25,0.28125 -0.25,0.5 0,0.210937 0.078125,0.375 0.234375,0.5 0.164063,0.117187 0.460937,0.230469 0.890625,0.34375 0.582031,0.148437 1.019531,0.34375 1.3125,0.59375 0.289062,0.25 0.4375,0.601563 0.4375,1.046875 0,0.511719 -0.203125,0.90625 -0.609375,1.1875 C 3.296875,-0.0078125 2.804688,0.125 2.234375,0.125 1.429688,0.125 0.769531,-0.101562 0.25,-0.5625 L 0.734375,-1.125 c 0.445313,0.335938 0.941406,0.5 1.484375,0.5 0.34375,0 0.613281,-0.066406 0.8125,-0.203125 0.207031,-0.144531 0.3125,-0.34375 0.3125,-0.59375 0,-0.175781 -0.039062,-0.316406 -0.109375,-0.421875 C 3.160156,-1.957031 3.03125,-2.054688 2.84375,-2.140625 2.664062,-2.222656 2.40625,-2.3125 2.0625,-2.40625 1.5,-2.550781 1.09375,-2.742188 0.84375,-2.984375 c -0.242188,-0.25 -0.359375,-0.5625 -0.359375,-0.9375 0,-0.28125 0.078125,-0.53125 0.234375,-0.75 C 0.882812,-4.890625 1.109375,-5.0625 1.390625,-5.1875 1.679688,-5.3125 2.007812,-5.375 2.375,-5.375 Z m 0,0"
             id="id-c93a2627-00bf-4203-b351-09f3794bcfd3" />
        </g>
      </g>
      <g
         fill="#000000"
         fill-opacity="1"
         id="id-1680bc34-34b0-444b-a23b-295290f4908e"
         transform="translate(-149.603, -126.984)">
        <g
           transform="translate(245.111, 134.765)"
           id="g20013">
          <path
             d="M 13.0625,-4.90625 12.515625,-4.3125 13.75,-3.1875 H 1 v 0.796875 h 12.75 l -1.234375,1.109375 0.546875,0.609375 2.296875,-2.125 z m 0,0"
             id="id-fa6f150d-c102-4526-9c56-d2637f3aabcb" />
        </g>
      </g>
    </g>
  </g>
</svg>
