<?xml version="1.0" encoding="UTF-8" standalone="no"?>
<!-- Created with Inkscape (http://www.inkscape.org/) -->

<svg
   width="150.7825mm"
   height="96.129684mm"
   viewBox="0 0 150.78251 96.129679"
   version="1.1"
   id="svg5"
   inkscape:version="1.1.1 (3bf5ae0d25, 2021-09-20, custom)"
   sodipodi:docname="chi_schematic.svg"
   xmlns:inkscape="http://www.inkscape.org/namespaces/inkscape"
   xmlns:sodipodi="http://sodipodi.sourceforge.net/DTD/sodipodi-0.dtd"
   xmlns="http://www.w3.org/2000/svg"
   xmlns:svg="http://www.w3.org/2000/svg"
   xmlns:ns11="http://www.iki.fi/pav/software/textext/">
  <sodipodi:namedview
     id="namedview7"
     pagecolor="#505050"
     bordercolor="#eeeeee"
     borderopacity="1"
     inkscape:pageshadow="0"
     inkscape:pageopacity="0"
     inkscape:pagecheckerboard="0"
     inkscape:document-units="mm"
     showgrid="false"
     inkscape:snap-bbox="true"
     inkscape:snap-intersection-paths="true"
     inkscape:snap-midpoints="true"
     inkscape:object-paths="true"
     inkscape:snap-object-midpoints="true"
     inkscape:snap-center="true"
     inkscape:snap-text-baseline="true"
     inkscape:zoom="0.90205715"
     inkscape:cx="363.05904"
     inkscape:cy="285.45863"
     inkscape:window-width="1024"
     inkscape:window-height="742"
     inkscape:window-x="0"
     inkscape:window-y="26"
     inkscape:window-maximized="1"
     inkscape:current-layer="layer1"
     inkscape:snap-global="true" />
  <defs
     id="defs2">
    <inkscape:path-effect
       effect="spiro"
       id="path-effect3913"
       is_visible="true"
       lpeversion="1" />
    <inkscape:path-effect
       effect="spiro"
       id="path-effect3909"
       is_visible="true"
       lpeversion="1" />
    <inkscape:path-effect
       effect="spiro"
       id="path-effect3905"
       is_visible="true"
       lpeversion="1" />
    <inkscape:path-effect
       effect="spiro"
       id="path-effect9660"
       is_visible="true"
       lpeversion="1" />
    <inkscape:path-effect
       effect="spiro"
       id="path-effect9546"
       is_visible="true"
       lpeversion="1" />
    <inkscape:path-effect
       effect="spiro"
       id="path-effect7222"
       is_visible="true"
       lpeversion="1" />
    <inkscape:path-effect
       effect="spiro"
       id="path-effect6850"
       is_visible="true"
       lpeversion="1" />
    <inkscape:path-effect
       effect="spiro"
       id="path-effect4819"
       is_visible="true"
       lpeversion="1" />
    <inkscape:path-effect
       effect="spiro"
       id="path-effect3689"
       is_visible="true"
       lpeversion="1" />
    <inkscape:path-effect
       effect="spiro"
       id="path-effect2740"
       is_visible="true"
       lpeversion="1" />
    <inkscape:path-effect
       effect="spiro"
       id="path-effect2419"
       is_visible="true"
       lpeversion="1" />
    <inkscape:path-effect
       effect="spiro"
       id="path-effect2066"
       is_visible="true"
       lpeversion="1" />
    <inkscape:path-effect
       effect="spiro"
       id="path-effect2062"
       is_visible="true"
       lpeversion="1" />
    <inkscape:path-effect
       effect="spiro"
       id="path-effect2058"
       is_visible="true"
       lpeversion="1" />
    <inkscape:path-effect
       effect="spiro"
       id="path-effect2054"
       is_visible="true"
       lpeversion="1" />
    <inkscape:path-effect
       effect="spiro"
       id="path-effect1832"
       is_visible="true"
       lpeversion="1" />
    <inkscape:path-effect
       effect="spiro"
       id="path-effect1797"
       is_visible="true"
       lpeversion="1" />
    <inkscape:path-effect
       effect="spiro"
       id="path-effect1683"
       is_visible="true"
       lpeversion="1" />
    <inkscape:path-effect
       effect="spiro"
       id="path-effect1679"
       is_visible="true"
       lpeversion="1" />
    <inkscape:path-effect
       effect="spiro"
       id="path-effect1231"
       is_visible="true"
       lpeversion="1" />
    <inkscape:path-effect
       effect="spiro"
       id="path-effect16903"
       is_visible="true"
       lpeversion="1" />
    <inkscape:path-effect
       effect="spiro"
       id="path-effect15410"
       is_visible="true"
       lpeversion="1" />
    <inkscape:path-effect
       effect="spiro"
       id="path-effect15372"
       is_visible="true"
       lpeversion="1" />
    <inkscape:path-effect
       effect="spiro"
       id="path-effect15264"
       is_visible="true"
       lpeversion="1" />
    <inkscape:path-effect
       effect="spiro"
       id="path-effect5960"
       is_visible="true"
       lpeversion="1" />
    <inkscape:path-effect
       effect="spiro"
       id="path-effect5823"
       is_visible="true"
       lpeversion="1" />
    <inkscape:path-effect
       effect="spiro"
       id="path-effect5819"
       is_visible="true"
       lpeversion="1" />
    <inkscape:path-effect
       effect="spiro"
       id="path-effect4180"
       is_visible="true"
       lpeversion="1" />
    <inkscape:path-effect
       effect="spiro"
       id="path-effect4176"
       is_visible="true"
       lpeversion="1" />
    <inkscape:path-effect
       effect="spiro"
       id="path-effect4116"
       is_visible="true"
       lpeversion="1" />
    <marker
       style="overflow:visible"
       id="Arrow2Lend"
       refX="0"
       refY="0"
       orient="auto"
       inkscape:stockid="Arrow2Lend"
       inkscape:isstock="true">
      <path
         transform="matrix(-1.1,0,0,-1.1,-1.1,0)"
         d="M 8.7185878,4.0337352 -2.2072895,0.01601326 8.7185884,-4.0017078 c -1.7454984,2.3720609 -1.7354408,5.6174519 -6e-7,8.035443 z"
         style="fill:context-stroke;fill-rule:evenodd;stroke:context-stroke;stroke-width:0.625;stroke-linejoin:round"
         id="path3833" />
    </marker>
    <inkscape:path-effect
       effect="spiro"
       id="path-effect3730"
       is_visible="true"
       lpeversion="1" />
    <inkscape:path-effect
       effect="spiro"
       id="path-effect859"
       is_visible="true"
       lpeversion="1" />
    <marker
       style="overflow:visible"
       id="Arrow2Lend-3"
       refX="0"
       refY="0"
       orient="auto"
       inkscape:stockid="Arrow2Lend"
       inkscape:isstock="true">
      <path
         transform="matrix(-1.1,0,0,-1.1,-1.1,0)"
         d="M 8.7185878,4.0337352 -2.2072895,0.01601326 8.7185884,-4.0017078 c -1.7454984,2.3720609 -1.7354408,5.6174519 -6e-7,8.035443 z"
         style="fill:context-stroke;fill-rule:evenodd;stroke:context-stroke;stroke-width:0.625;stroke-linejoin:round"
         id="path3833-6" />
    </marker>
    <marker
       style="overflow:visible"
       id="Arrow2Lend-5"
       refX="0"
       refY="0"
       orient="auto"
       inkscape:stockid="Arrow2Lend"
       inkscape:isstock="true">
      <path
         transform="matrix(-1.1,0,0,-1.1,-1.1,0)"
         d="M 8.7185878,4.0337352 -2.2072895,0.01601326 8.7185884,-4.0017078 c -1.7454984,2.3720609 -1.7354408,5.6174519 -6e-7,8.035443 z"
         style="fill:context-stroke;fill-rule:evenodd;stroke:context-stroke;stroke-width:0.625;stroke-linejoin:round"
         id="path3833-3" />
    </marker>
    <marker
       style="overflow:visible"
       id="Arrow2Lend-3-5"
       refX="0"
       refY="0"
       orient="auto"
       inkscape:stockid="Arrow2Lend"
       inkscape:isstock="true">
      <path
         transform="matrix(-1.1,0,0,-1.1,-1.1,0)"
         d="M 8.7185878,4.0337352 -2.2072895,0.01601326 8.7185884,-4.0017078 c -1.7454984,2.3720609 -1.7354408,5.6174519 -6e-7,8.035443 z"
         style="fill:context-stroke;fill-rule:evenodd;stroke:context-stroke;stroke-width:0.625;stroke-linejoin:round"
         id="path3833-6-6" />
    </marker>
    <marker
       style="overflow:visible"
       id="Arrow2Lend-1"
       refX="0"
       refY="0"
       orient="auto"
       inkscape:stockid="Arrow2Lend"
       inkscape:isstock="true">
      <path
         transform="matrix(-1.1,0,0,-1.1,-1.1,0)"
         d="M 8.7185878,4.0337352 -2.2072895,0.01601326 8.7185884,-4.0017078 c -1.7454984,2.3720609 -1.7354408,5.6174519 -6e-7,8.035443 z"
         style="fill:context-stroke;fill-rule:evenodd;stroke:context-stroke;stroke-width:0.625;stroke-linejoin:round"
         id="path3833-2" />
    </marker>
    <marker
       style="overflow:visible"
       id="Arrow2Lend-3-7"
       refX="0"
       refY="0"
       orient="auto"
       inkscape:stockid="Arrow2Lend"
       inkscape:isstock="true">
      <path
         transform="matrix(-1.1,0,0,-1.1,-1.1,0)"
         d="M 8.7185878,4.0337352 -2.2072895,0.01601326 8.7185884,-4.0017078 c -1.7454984,2.3720609 -1.7354408,5.6174519 -6e-7,8.035443 z"
         style="fill:context-stroke;fill-rule:evenodd;stroke:context-stroke;stroke-width:0.625;stroke-linejoin:round"
         id="path3833-6-0" />
    </marker>
  </defs>
  <g
     inkscape:label="Layer 1"
     inkscape:groupmode="layer"
     id="layer1"
     transform="translate(-66.859523,-89.053215)">
    <path
       style="fill:none;stroke:#0000ff;stroke-width:1.5;stroke-linecap:butt;stroke-linejoin:miter;stroke-miterlimit:4;stroke-dasharray:none;stroke-opacity:1"
       d="M 70.378802,147.54958 H 126.14237"
       id="path3903"
       inkscape:path-effect="#path-effect3905"
       inkscape:original-d="m 70.378802,147.54958 c 18.58812,2.7e-4 37.175978,2.7e-4 55.763568,0" />
    <path
       style="fill:none;stroke:#0000ff;stroke-width:1.5;stroke-linecap:butt;stroke-linejoin:miter;stroke-miterlimit:4;stroke-dasharray:none;stroke-opacity:1"
       d="m 126.14237,147.54958 c 1.1164,0.15607 2.21345,0.45002 3.25831,0.87306 2.97104,1.2029 5.42835,3.4029 7.59831,5.76199 4.673,5.08028 8.28057,11.03953 12.65701,16.37741 2.01134,2.4532 4.20026,4.78792 6.75614,6.66706 2.55587,1.87914 5.5025,3.29416 8.64054,3.75933 0.83418,0.12365 1.67832,0.18006 2.52153,0.1685"
       id="path3907"
       inkscape:path-effect="#path-effect3909"
       inkscape:original-d="m 126.14237,147.54958 c 1.08637,0.29128 2.17247,0.5823 3.25831,0.87306 1.08583,0.29076 5.06581,3.84159 7.59831,5.76199 2.53251,1.9204 8.43827,10.91854 12.65701,16.37741 4.21873,5.45887 10.26472,6.95119 15.39668,10.42639 5.13196,3.4752 1.68128,0.1126 2.52153,0.1685" />
    <path
       style="fill:none;stroke:#0000ff;stroke-width:1.5;stroke-linecap:butt;stroke-linejoin:miter;stroke-miterlimit:4;stroke-dasharray:none;stroke-opacity:1"
       d="m 167.57421,181.15693 h 42.71273"
       id="path3911"
       inkscape:path-effect="#path-effect3913"
       inkscape:original-d="m 167.57421,181.15693 c 14.2379,2.6e-4 28.47547,2.6e-4 42.71273,0" />
    <path
       style="fill:none;stroke:#6b0000;stroke-width:1.5;stroke-linecap:butt;stroke-linejoin:miter;stroke-miterlimit:4;stroke-dasharray:none;stroke-dashoffset:0;stroke-opacity:1"
       d="m 70.936044,182.42845 c 7.479308,-8.83939 14.178324,-18.33877 19.993694,-28.35158 3.465169,-5.96627 6.617251,-12.11484 9.424392,-18.41752 4.06598,-9.12907 7.40092,-18.56229 10.89586,-27.92485 1.02346,-2.74174 2.06405,-5.48521 3.40351,-8.08722 0.19857,-0.385732 0.40484,-0.770092 0.66834,-1.114744 0.2635,-0.344651 0.58836,-0.650425 0.97844,-0.840311 0.54239,-0.264031 1.18128,-0.286446 1.7682,-0.147051 0.58692,0.139395 1.12773,0.430944 1.62609,0.770852 1.36814,0.933144 2.44695,2.232534 3.38346,3.598374 2.85833,4.1687 4.51577,9.02524 6.07867,13.83206 2.34106,7.20013 4.57006,14.50079 8.21757,21.1354 3.46529,6.30315 8.13447,11.8606 13.02614,17.13408 3.73116,4.02239 7.62388,7.9187 11.95562,11.28578 4.52987,3.52109 9.51672,6.44171 14.75596,8.78011 10.53331,4.70128 22.11555,7.03454 33.64755,6.77836"
       id="path4817"
       inkscape:path-effect="#path-effect4819"
       inkscape:original-d="m 70.936044,182.42845 c 6.664829,-9.45026 13.329394,-18.90079 19.993694,-28.35158 6.664299,-9.45078 6.283193,-12.27808 9.424392,-18.41752 3.1412,-6.13944 7.26417,-18.6163 10.89586,-27.92485 3.63169,-9.30855 2.78888,-6.4087 3.40351,-8.08722 0.61462,-1.67853 0.57851,-0.285626 1.64678,-1.955055 1.06828,-1.669429 2.26313,0.416132 3.39429,0.623801 1.13117,0.207669 2.25591,2.399184 3.38346,3.598374 1.12755,1.1992 4.05271,9.22164 6.07867,13.83206 2.02596,4.61042 5.47865,14.09053 8.21757,21.1354 2.73893,7.04487 8.68436,11.42298 13.02614,17.13408 4.34179,5.71109 7.97068,7.52412 11.95562,11.28578 3.98494,3.76167 9.83757,5.85367 14.75596,8.78011 4.91839,2.92643 22.43196,4.51917 33.64755,6.77836"
       sodipodi:nodetypes="cssscssssssssc" />
    <path
       style="fill:none;stroke:#000000;stroke-width:1.97271;stroke-linecap:butt;stroke-linejoin:miter;stroke-miterlimit:4;stroke-dasharray:none;stroke-opacity:1"
       d="M 67.845878,89.053215 V 185.1829"
       id="path9544"
       inkscape:path-effect="#path-effect9546"
       inkscape:original-d="m 67.845878,89.053215 c 2.64e-4,32.043485 2.64e-4,64.086725 0,96.129685" />
    <path
       style="fill:none;stroke:#000000;stroke-width:2;stroke-linecap:butt;stroke-linejoin:miter;stroke-miterlimit:4;stroke-dasharray:none;stroke-opacity:1"
       d="M 217.64202,184.02941 H 67.402821"
       id="path9544-1"
       inkscape:path-effect="#path-effect9660"
       inkscape:original-d="m 217.64202,184.02941 c -50.08015,2.7e-4 -100.15989,2.7e-4 -150.239199,0" />
    <g
       transform="matrix(1.36412,0,0,1.36412,70.421199,119.97468)"
       ns11:version="1.3.0"
       ns11:texconverter="pdflatex"
       ns11:pdfconverter="inkscape"
       ns11:text="$\\chi_\\text{imp}$"
       ns11:preamble="/home/abhirup/textext.tex"
       ns11:scale="3.8667966823327986"
       ns11:alignment="middle center"
       ns11:inkscapeversion="1.1.1"
       ns11:jacobian_sqrt="1.36412"
       id="g17760">
      <defs
         id="id-a94d1ed7-e1d1-4814-9730-d77ab19fa939">
        <g
           id="id-a8d1422d-c800-44a2-a34f-f218da9b92c7">
          <symbol
             overflow="visible"
             id="id-716a8dda-d452-48e2-ae41-c79be269398d">
            <path
               style="stroke:none"
               d=""
               id="id-6fdc960d-ed65-442a-915f-913f25eef92e" />
          </symbol>
          <symbol
             overflow="visible"
             id="id-5cfc0ad6-c7da-4dc7-a62b-7965c8b731cb">
            <path
               style="stroke:none"
               d="m 5.8125,-4.015625 c 0.109375,-0.109375 0.109375,-0.125 0.109375,-0.15625 0,-0.0625 -0.046875,-0.125 -0.125,-0.125 -0.0625,0 -0.09375,0.046875 -0.15625,0.125 l -2.28125,2.53125 C 2.953125,-2.90625 2.875,-3.15625 2.65625,-3.671875 2.546875,-3.90625 2.328125,-4.40625 1.453125,-4.40625 c -0.578125,0 -0.84375,0.515625 -0.84375,0.65625 0,0.015625 0,0.09375 0.125,0.09375 0.078125,0 0.109375,-0.046875 0.125,-0.109375 C 1,-4.140625 1.328125,-4.1875 1.390625,-4.1875 c 0.296875,0 0.59375,0.765625 0.765625,1.203125 0.3125,0.78125 0.640625,1.9375 0.640625,1.96875 0,0.015625 0,0.03125 -0.078125,0.109375 L 0.421875,1.65625 C 0.3125,1.765625 0.3125,1.78125 0.3125,1.8125 c 0,0.0625 0.0625,0.125 0.109375,0.125 0.078125,0 0.125,-0.078125 0.171875,-0.109375 L 2.875,-0.734375 C 3.1875,0.296875 3.3125,0.6875 3.546875,1.25 3.671875,1.546875 3.890625,2.046875 4.78125,2.046875 5.359375,2.046875 5.625,1.53125 5.625,1.390625 5.625,1.34375 5.609375,1.28125 5.515625,1.28125 5.40625,1.28125 5.40625,1.328125 5.375,1.421875 c -0.09375,0.25 -0.34375,0.40625 -0.53125,0.40625 -0.5,0 -1.1875,-2.421875 -1.40625,-3.1875 z m 0,0"
               id="id-34a7bca0-0103-4409-8c40-26c9350ca19c" />
          </symbol>
          <symbol
             overflow="visible"
             id="id-ea12221d-45ec-434f-8f5d-d8384c83d633">
            <path
               style="stroke:none"
               d=""
               id="id-9c275362-f6e0-45a8-83ab-1c3dda26a105" />
          </symbol>
          <symbol
             overflow="visible"
             id="id-f4df658d-4241-4a74-b83e-799b13f2bc62">
            <path
               style="stroke:none"
               d="m 1.46875,-4.296875 c 0,-0.203125 -0.171875,-0.40625 -0.40625,-0.40625 -0.203125,0 -0.390625,0.171875 -0.390625,0.40625 0,0.25 0.203125,0.40625 0.390625,0.40625 0.234375,0 0.40625,-0.171875 0.40625,-0.40625 z M 0.40625,-3 v 0.25 c 0.4375,0 0.5,0.046875 0.5,0.390625 v 1.8125 C 0.90625,-0.25 0.84375,-0.25 0.390625,-0.25 V 0 c 0.015625,0 0.5,-0.03125 0.78125,-0.03125 0.25,0 0.5,0.015625 0.734375,0.03125 V -0.25 C 1.5,-0.25 1.4375,-0.25 1.4375,-0.546875 v -2.53125 z m 0,0"
               id="id-2f78285e-9332-4dbb-8321-2f5378b5ef71" />
          </symbol>
          <symbol
             overflow="visible"
             id="id-252b6e4a-6f00-47a4-b0fb-fab8e1f8e6c9">
            <path
               style="stroke:none"
               d="m 5.734375,-2.109375 c 0,-0.609375 -0.3125,-0.96875 -1.046875,-0.96875 -0.5625,0 -0.9375,0.296875 -1.125,0.65625 -0.140625,-0.5 -0.515625,-0.65625 -1.015625,-0.65625 -0.578125,0 -0.9375,0.3125 -1.140625,0.6875 v -0.6875 L 0.375,-3 v 0.25 c 0.46875,0 0.53125,0.046875 0.53125,0.390625 v 1.8125 C 0.90625,-0.25 0.828125,-0.25 0.375,-0.25 V 0 C 0.390625,0 0.875,-0.03125 1.171875,-0.03125 1.421875,-0.03125 1.90625,0 1.96875,0 v -0.25 c -0.453125,0 -0.515625,0 -0.515625,-0.296875 V -1.8125 c 0,-0.71875 0.578125,-1.0625 1.03125,-1.0625 0.484375,0 0.546875,0.375 0.546875,0.734375 v 1.59375 C 3.03125,-0.25 2.96875,-0.25 2.515625,-0.25 V 0 C 2.53125,0 3.015625,-0.03125 3.3125,-0.03125 3.5625,-0.03125 4.046875,0 4.109375,0 v -0.25 c -0.453125,0 -0.515625,0 -0.515625,-0.296875 V -1.8125 c 0,-0.71875 0.578125,-1.0625 1.03125,-1.0625 0.484375,0 0.546875,0.375 0.546875,0.734375 v 1.59375 C 5.171875,-0.25 5.109375,-0.25 4.65625,-0.25 V 0 c 0.015625,0 0.5,-0.03125 0.796875,-0.03125 C 5.703125,-0.03125 6.1875,0 6.25,0 v -0.25 c -0.453125,0 -0.515625,0 -0.515625,-0.296875 z m 0,0"
               id="id-0603c568-c8de-4594-bc14-ed20a3a9943a" />
          </symbol>
          <symbol
             overflow="visible"
             id="id-9c5f0a70-d7e6-4fdd-b1cf-2e109429337c">
            <path
               style="stroke:none"
               d="m 1.9375,1.09375 c -0.453125,0 -0.515625,0 -0.515625,-0.296875 v -1.125 C 1.453125,-0.296875 1.78125,0.0625 2.359375,0.0625 3.28125,0.0625 4.0625,-0.625 4.0625,-1.5 c 0,-0.859375 -0.703125,-1.578125 -1.59375,-1.578125 -0.390625,0 -0.796875,0.15625 -1.078125,0.4375 v -0.4375 L 0.34375,-3 v 0.25 c 0.484375,0 0.515625,0.046875 0.515625,0.328125 v 3.21875 c 0,0.296875 -0.0625,0.296875 -0.515625,0.296875 v 0.265625 c 0.015625,0 0.5,-0.03125 0.796875,-0.03125 0.25,0 0.734375,0.015625 0.796875,0.03125 z M 1.421875,-2.328125 C 1.625,-2.671875 2.03125,-2.84375 2.390625,-2.84375 c 0.59375,0 1.046875,0.609375 1.046875,1.34375 0,0.796875 -0.53125,1.375 -1.109375,1.375 -0.625,0 -0.890625,-0.53125 -0.90625,-0.578125 z m 0,0"
               id="id-a80f6ea6-9337-4e21-aad8-e5e449d89d97" />
          </symbol>
        </g>
      </defs>
      <g
         id="id-dc2f0c53-2538-43e1-a153-970a7ab463bb"
         transform="translate(-149.025,-130.359)">
        <g
           style="fill:#000000;fill-opacity:1"
           id="id-b9beb251-37ba-4e8c-8caa-540d916dbf6b">
          <g
             transform="translate(148.712,134.765)"
             id="g10339">
            <path
               style="stroke:none"
               d="m 5.8125,-4.015625 c 0.109375,-0.109375 0.109375,-0.125 0.109375,-0.15625 0,-0.0625 -0.046875,-0.125 -0.125,-0.125 -0.0625,0 -0.09375,0.046875 -0.15625,0.125 l -2.28125,2.53125 C 2.953125,-2.90625 2.875,-3.15625 2.65625,-3.671875 2.546875,-3.90625 2.328125,-4.40625 1.453125,-4.40625 c -0.578125,0 -0.84375,0.515625 -0.84375,0.65625 0,0.015625 0,0.09375 0.125,0.09375 0.078125,0 0.109375,-0.046875 0.125,-0.109375 C 1,-4.140625 1.328125,-4.1875 1.390625,-4.1875 c 0.296875,0 0.59375,0.765625 0.765625,1.203125 0.3125,0.78125 0.640625,1.9375 0.640625,1.96875 0,0.015625 0,0.03125 -0.078125,0.109375 L 0.421875,1.65625 C 0.3125,1.765625 0.3125,1.78125 0.3125,1.8125 c 0,0.0625 0.0625,0.125 0.109375,0.125 0.078125,0 0.125,-0.078125 0.171875,-0.109375 L 2.875,-0.734375 C 3.1875,0.296875 3.3125,0.6875 3.546875,1.25 3.671875,1.546875 3.890625,2.046875 4.78125,2.046875 5.359375,2.046875 5.625,1.53125 5.625,1.390625 5.625,1.34375 5.609375,1.28125 5.515625,1.28125 5.40625,1.28125 5.40625,1.328125 5.375,1.421875 c -0.09375,0.25 -0.34375,0.40625 -0.53125,0.40625 -0.5,0 -1.1875,-2.421875 -1.40625,-3.1875 z m 0,0"
               id="id-45e77f4f-3994-44d5-811c-4a2b3d8a11d2" />
          </g>
        </g>
        <g
           style="fill:#000000;fill-opacity:1"
           id="id-b8c515d5-bca9-4d8d-8dc2-bb95be73d206">
          <g
             transform="translate(154.946,136.259)"
             id="g10343">
            <path
               style="stroke:none"
               d="m 1.46875,-4.296875 c 0,-0.203125 -0.171875,-0.40625 -0.40625,-0.40625 -0.203125,0 -0.390625,0.171875 -0.390625,0.40625 0,0.25 0.203125,0.40625 0.390625,0.40625 0.234375,0 0.40625,-0.171875 0.40625,-0.40625 z M 0.40625,-3 v 0.25 c 0.4375,0 0.5,0.046875 0.5,0.390625 v 1.8125 C 0.90625,-0.25 0.84375,-0.25 0.390625,-0.25 V 0 c 0.015625,0 0.5,-0.03125 0.78125,-0.03125 0.25,0 0.5,0.015625 0.734375,0.03125 V -0.25 C 1.5,-0.25 1.4375,-0.25 1.4375,-0.546875 v -2.53125 z m 0,0"
               id="id-52113bc6-4bcd-4e31-973d-822f0376080c" />
          </g>
          <g
             transform="translate(157.201,136.259)"
             id="g10346">
            <path
               style="stroke:none"
               d="m 5.734375,-2.109375 c 0,-0.609375 -0.3125,-0.96875 -1.046875,-0.96875 -0.5625,0 -0.9375,0.296875 -1.125,0.65625 -0.140625,-0.5 -0.515625,-0.65625 -1.015625,-0.65625 -0.578125,0 -0.9375,0.3125 -1.140625,0.6875 v -0.6875 L 0.375,-3 v 0.25 c 0.46875,0 0.53125,0.046875 0.53125,0.390625 v 1.8125 C 0.90625,-0.25 0.828125,-0.25 0.375,-0.25 V 0 C 0.390625,0 0.875,-0.03125 1.171875,-0.03125 1.421875,-0.03125 1.90625,0 1.96875,0 v -0.25 c -0.453125,0 -0.515625,0 -0.515625,-0.296875 V -1.8125 c 0,-0.71875 0.578125,-1.0625 1.03125,-1.0625 0.484375,0 0.546875,0.375 0.546875,0.734375 v 1.59375 C 3.03125,-0.25 2.96875,-0.25 2.515625,-0.25 V 0 C 2.53125,0 3.015625,-0.03125 3.3125,-0.03125 3.5625,-0.03125 4.046875,0 4.109375,0 v -0.25 c -0.453125,0 -0.515625,0 -0.515625,-0.296875 V -1.8125 c 0,-0.71875 0.578125,-1.0625 1.03125,-1.0625 0.484375,0 0.546875,0.375 0.546875,0.734375 v 1.59375 C 5.171875,-0.25 5.109375,-0.25 4.65625,-0.25 V 0 c 0.015625,0 0.5,-0.03125 0.796875,-0.03125 C 5.703125,-0.03125 6.1875,0 6.25,0 v -0.25 c -0.453125,0 -0.515625,0 -0.515625,-0.296875 z m 0,0"
               id="id-87311927-0079-4031-8e53-6408be9eec85" />
          </g>
          <g
             transform="translate(163.746,136.259)"
             id="g10349">
            <path
               style="stroke:none"
               d="m 1.9375,1.09375 c -0.453125,0 -0.515625,0 -0.515625,-0.296875 v -1.125 C 1.453125,-0.296875 1.78125,0.0625 2.359375,0.0625 3.28125,0.0625 4.0625,-0.625 4.0625,-1.5 c 0,-0.859375 -0.703125,-1.578125 -1.59375,-1.578125 -0.390625,0 -0.796875,0.15625 -1.078125,0.4375 v -0.4375 L 0.34375,-3 v 0.25 c 0.484375,0 0.515625,0.046875 0.515625,0.328125 v 3.21875 c 0,0.296875 -0.0625,0.296875 -0.515625,0.296875 v 0.265625 c 0.015625,0 0.5,-0.03125 0.796875,-0.03125 0.25,0 0.734375,0.015625 0.796875,0.03125 z M 1.421875,-2.328125 C 1.625,-2.671875 2.03125,-2.84375 2.390625,-2.84375 c 0.59375,0 1.046875,0.609375 1.046875,1.34375 0,0.796875 -0.53125,1.375 -1.109375,1.375 -0.625,0 -0.890625,-0.53125 -0.90625,-0.578125 z m 0,0"
               id="id-64d7c1d5-066b-4247-a254-6041fa212562" />
          </g>
        </g>
      </g>
    </g>
    <g
       transform="matrix(1.36412,0,0,1.36412,127.57467,96.1938)"
       ns11:version="1.3.0"
       ns11:texconverter="pdflatex"
       ns11:pdfconverter="inkscape"
       ns11:text="$C_\\text{imp}$"
       ns11:preamble="/home/abhirup/textext.tex"
       ns11:scale="3.8667966823327986"
       ns11:alignment="middle center"
       ns11:inkscapeversion="1.1.1"
       ns11:jacobian_sqrt="1.36412"
       id="g8638">
      <defs
         id="id-71cb8883-aad9-4f9f-a564-e3283e51952c">
        <g
           id="id-8abf55bf-15e9-40cf-bb45-31c520b715aa">
          <symbol
             overflow="visible"
             id="id-18d92453-51d3-4999-9093-d2e33ad92262">
            <path
               style="stroke:none"
               d=""
               id="id-6c13231e-c27a-4cd6-b6f8-e13f316e18f7" />
          </symbol>
          <symbol
             overflow="visible"
             id="id-07e0a6b3-2175-4f29-b4f5-7d6f44c35056">
            <path
               style="stroke:none"
               d="m 7.578125,-6.921875 c 0,-0.03125 -0.015625,-0.109375 -0.109375,-0.109375 -0.03125,0 -0.046875,0.015625 -0.15625,0.125 L 6.625,-6.140625 C 6.53125,-6.28125 6.078125,-7.03125 4.96875,-7.03125 2.734375,-7.03125 0.5,-4.828125 0.5,-2.515625 0.5,-0.875 1.671875,0.21875 3.203125,0.21875 c 0.859375,0 1.625,-0.390625 2.15625,-0.859375 0.921875,-0.8125 1.09375,-1.71875 1.09375,-1.75 C 6.453125,-2.5 6.34375,-2.5 6.328125,-2.5 c -0.0625,0 -0.109375,0.03125 -0.125,0.109375 -0.09375,0.28125 -0.328125,1 -1.015625,1.578125 -0.6875,0.546875 -1.3125,0.71875 -1.828125,0.71875 -0.890625,0 -1.953125,-0.515625 -1.953125,-2.0625 0,-0.578125 0.203125,-2.1875 1.203125,-3.359375 0.609375,-0.703125 1.546875,-1.203125 2.4375,-1.203125 1.015625,0 1.609375,0.765625 1.609375,1.921875 0,0.40625 -0.03125,0.40625 -0.03125,0.515625 0,0.09375 0.109375,0.09375 0.140625,0.09375 0.125,0 0.125,-0.015625 0.1875,-0.203125 z m 0,0"
               id="id-c799333c-2ab4-45e0-9b8d-674660549f3d" />
          </symbol>
          <symbol
             overflow="visible"
             id="id-3d3af4b5-6484-43d4-a690-98f7e8f32a6b">
            <path
               style="stroke:none"
               d=""
               id="id-0a35799c-8d9e-4e0d-a176-184c445bbee2" />
          </symbol>
          <symbol
             overflow="visible"
             id="id-ee490e88-5987-45ec-9883-db6ebdf8f6dc">
            <path
               style="stroke:none"
               d="m 1.46875,-4.296875 c 0,-0.203125 -0.171875,-0.40625 -0.40625,-0.40625 -0.203125,0 -0.390625,0.171875 -0.390625,0.40625 0,0.25 0.203125,0.40625 0.390625,0.40625 0.234375,0 0.40625,-0.171875 0.40625,-0.40625 z M 0.40625,-3 v 0.25 c 0.4375,0 0.5,0.046875 0.5,0.390625 v 1.8125 C 0.90625,-0.25 0.84375,-0.25 0.390625,-0.25 V 0 c 0.015625,0 0.5,-0.03125 0.78125,-0.03125 0.25,0 0.5,0.015625 0.734375,0.03125 V -0.25 C 1.5,-0.25 1.4375,-0.25 1.4375,-0.546875 v -2.53125 z m 0,0"
               id="id-6cdb2e49-32f1-4f22-b24a-d8f03936c3b8" />
          </symbol>
          <symbol
             overflow="visible"
             id="id-7b83fd2e-5a0c-4ae2-a7d7-b553603e0459">
            <path
               style="stroke:none"
               d="m 5.734375,-2.109375 c 0,-0.609375 -0.3125,-0.96875 -1.046875,-0.96875 -0.5625,0 -0.9375,0.296875 -1.125,0.65625 -0.140625,-0.5 -0.515625,-0.65625 -1.015625,-0.65625 -0.578125,0 -0.9375,0.3125 -1.140625,0.6875 v -0.6875 L 0.375,-3 v 0.25 c 0.46875,0 0.53125,0.046875 0.53125,0.390625 v 1.8125 C 0.90625,-0.25 0.828125,-0.25 0.375,-0.25 V 0 C 0.390625,0 0.875,-0.03125 1.171875,-0.03125 1.421875,-0.03125 1.90625,0 1.96875,0 v -0.25 c -0.453125,0 -0.515625,0 -0.515625,-0.296875 V -1.8125 c 0,-0.71875 0.578125,-1.0625 1.03125,-1.0625 0.484375,0 0.546875,0.375 0.546875,0.734375 v 1.59375 C 3.03125,-0.25 2.96875,-0.25 2.515625,-0.25 V 0 C 2.53125,0 3.015625,-0.03125 3.3125,-0.03125 3.5625,-0.03125 4.046875,0 4.109375,0 v -0.25 c -0.453125,0 -0.515625,0 -0.515625,-0.296875 V -1.8125 c 0,-0.71875 0.578125,-1.0625 1.03125,-1.0625 0.484375,0 0.546875,0.375 0.546875,0.734375 v 1.59375 C 5.171875,-0.25 5.109375,-0.25 4.65625,-0.25 V 0 c 0.015625,0 0.5,-0.03125 0.796875,-0.03125 C 5.703125,-0.03125 6.1875,0 6.25,0 v -0.25 c -0.453125,0 -0.515625,0 -0.515625,-0.296875 z m 0,0"
               id="id-48eca19a-c502-48bb-a461-4cd77dead35f" />
          </symbol>
          <symbol
             overflow="visible"
             id="id-71f740d5-aa17-4439-bb89-901705f341db">
            <path
               style="stroke:none"
               d="m 1.9375,1.09375 c -0.453125,0 -0.515625,0 -0.515625,-0.296875 v -1.125 C 1.453125,-0.296875 1.78125,0.0625 2.359375,0.0625 3.28125,0.0625 4.0625,-0.625 4.0625,-1.5 c 0,-0.859375 -0.703125,-1.578125 -1.59375,-1.578125 -0.390625,0 -0.796875,0.15625 -1.078125,0.4375 v -0.4375 L 0.34375,-3 v 0.25 c 0.484375,0 0.515625,0.046875 0.515625,0.328125 v 3.21875 c 0,0.296875 -0.0625,0.296875 -0.515625,0.296875 v 0.265625 c 0.015625,0 0.5,-0.03125 0.796875,-0.03125 0.25,0 0.734375,0.015625 0.796875,0.03125 z M 1.421875,-2.328125 C 1.625,-2.671875 2.03125,-2.84375 2.390625,-2.84375 c 0.59375,0 1.046875,0.609375 1.046875,1.34375 0,0.796875 -0.53125,1.375 -1.109375,1.375 -0.625,0 -0.890625,-0.53125 -0.90625,-0.578125 z m 0,0"
               id="id-5a53e980-e8f5-404a-b915-3620ab10b019" />
          </symbol>
        </g>
      </defs>
      <g
         id="id-8680fae4-6a34-4cf5-8572-b3aa316c1945"
         transform="translate(-149.212,-127.734)">
        <g
           style="fill:#000000;fill-opacity:1"
           id="id-3219ac84-0aa7-42f6-9d23-a3110e29fbb9">
          <g
             transform="translate(148.712,134.765)"
             id="g10605">
            <path
               style="stroke:none"
               d="m 7.578125,-6.921875 c 0,-0.03125 -0.015625,-0.109375 -0.109375,-0.109375 -0.03125,0 -0.046875,0.015625 -0.15625,0.125 L 6.625,-6.140625 C 6.53125,-6.28125 6.078125,-7.03125 4.96875,-7.03125 2.734375,-7.03125 0.5,-4.828125 0.5,-2.515625 0.5,-0.875 1.671875,0.21875 3.203125,0.21875 c 0.859375,0 1.625,-0.390625 2.15625,-0.859375 0.921875,-0.8125 1.09375,-1.71875 1.09375,-1.75 C 6.453125,-2.5 6.34375,-2.5 6.328125,-2.5 c -0.0625,0 -0.109375,0.03125 -0.125,0.109375 -0.09375,0.28125 -0.328125,1 -1.015625,1.578125 -0.6875,0.546875 -1.3125,0.71875 -1.828125,0.71875 -0.890625,0 -1.953125,-0.515625 -1.953125,-2.0625 0,-0.578125 0.203125,-2.1875 1.203125,-3.359375 0.609375,-0.703125 1.546875,-1.203125 2.4375,-1.203125 1.015625,0 1.609375,0.765625 1.609375,1.921875 0,0.40625 -0.03125,0.40625 -0.03125,0.515625 0,0.09375 0.109375,0.09375 0.140625,0.09375 0.125,0 0.125,-0.015625 0.1875,-0.203125 z m 0,0"
               id="id-cd2165e1-2840-4e6c-992b-641ec75c1704" />
          </g>
        </g>
        <g
           style="fill:#000000;fill-opacity:1"
           id="id-577b1cdc-515d-46fa-8eec-086aff72063a">
          <g
             transform="translate(155.833,136.259)"
             id="g10609">
            <path
               style="stroke:none"
               d="m 1.46875,-4.296875 c 0,-0.203125 -0.171875,-0.40625 -0.40625,-0.40625 -0.203125,0 -0.390625,0.171875 -0.390625,0.40625 0,0.25 0.203125,0.40625 0.390625,0.40625 0.234375,0 0.40625,-0.171875 0.40625,-0.40625 z M 0.40625,-3 v 0.25 c 0.4375,0 0.5,0.046875 0.5,0.390625 v 1.8125 C 0.90625,-0.25 0.84375,-0.25 0.390625,-0.25 V 0 c 0.015625,0 0.5,-0.03125 0.78125,-0.03125 0.25,0 0.5,0.015625 0.734375,0.03125 V -0.25 C 1.5,-0.25 1.4375,-0.25 1.4375,-0.546875 v -2.53125 z m 0,0"
               id="id-2e6a4396-1386-44ad-b7a2-117dcb77544d" />
          </g>
          <g
             transform="translate(158.088,136.259)"
             id="g10612">
            <path
               style="stroke:none"
               d="m 5.734375,-2.109375 c 0,-0.609375 -0.3125,-0.96875 -1.046875,-0.96875 -0.5625,0 -0.9375,0.296875 -1.125,0.65625 -0.140625,-0.5 -0.515625,-0.65625 -1.015625,-0.65625 -0.578125,0 -0.9375,0.3125 -1.140625,0.6875 v -0.6875 L 0.375,-3 v 0.25 c 0.46875,0 0.53125,0.046875 0.53125,0.390625 v 1.8125 C 0.90625,-0.25 0.828125,-0.25 0.375,-0.25 V 0 C 0.390625,0 0.875,-0.03125 1.171875,-0.03125 1.421875,-0.03125 1.90625,0 1.96875,0 v -0.25 c -0.453125,0 -0.515625,0 -0.515625,-0.296875 V -1.8125 c 0,-0.71875 0.578125,-1.0625 1.03125,-1.0625 0.484375,0 0.546875,0.375 0.546875,0.734375 v 1.59375 C 3.03125,-0.25 2.96875,-0.25 2.515625,-0.25 V 0 C 2.53125,0 3.015625,-0.03125 3.3125,-0.03125 3.5625,-0.03125 4.046875,0 4.109375,0 v -0.25 c -0.453125,0 -0.515625,0 -0.515625,-0.296875 V -1.8125 c 0,-0.71875 0.578125,-1.0625 1.03125,-1.0625 0.484375,0 0.546875,0.375 0.546875,0.734375 v 1.59375 C 5.171875,-0.25 5.109375,-0.25 4.65625,-0.25 V 0 c 0.015625,0 0.5,-0.03125 0.796875,-0.03125 C 5.703125,-0.03125 6.1875,0 6.25,0 v -0.25 c -0.453125,0 -0.515625,0 -0.515625,-0.296875 z m 0,0"
               id="id-a9fb5b87-e69b-4fdc-b5a3-042a2fdb26d7" />
          </g>
          <g
             transform="translate(164.633,136.259)"
             id="g10615">
            <path
               style="stroke:none"
               d="m 1.9375,1.09375 c -0.453125,0 -0.515625,0 -0.515625,-0.296875 v -1.125 C 1.453125,-0.296875 1.78125,0.0625 2.359375,0.0625 3.28125,0.0625 4.0625,-0.625 4.0625,-1.5 c 0,-0.859375 -0.703125,-1.578125 -1.59375,-1.578125 -0.390625,0 -0.796875,0.15625 -1.078125,0.4375 v -0.4375 L 0.34375,-3 v 0.25 c 0.484375,0 0.515625,0.046875 0.515625,0.328125 v 3.21875 c 0,0.296875 -0.0625,0.296875 -0.515625,0.296875 v 0.265625 c 0.015625,0 0.5,-0.03125 0.796875,-0.03125 0.25,0 0.734375,0.015625 0.796875,0.03125 z M 1.421875,-2.328125 C 1.625,-2.671875 2.03125,-2.84375 2.390625,-2.84375 c 0.59375,0 1.046875,0.609375 1.046875,1.34375 0,0.796875 -0.53125,1.375 -1.109375,1.375 -0.625,0 -0.890625,-0.53125 -0.90625,-0.578125 z m 0,0"
               id="id-c240de17-62a1-4f31-be14-e0672ccba4a5" />
          </g>
        </g>
      </g>
    </g>
    <g
       transform="matrix(1.36412,0,0,1.36412,184.18324,168.63444)"
       ns11:version="1.3.0"
       ns11:texconverter="pdflatex"
       ns11:pdfconverter="inkscape"
       ns11:text="${T}/{T_K}$"
       ns11:preamble="/home/abhirup/textext.tex"
       ns11:scale="3.8667966823327986"
       ns11:alignment="middle center"
       ns11:inkscapeversion="1.1.1"
       ns11:jacobian_sqrt="1.36412"
       id="g4517">
      <defs
         id="id-6fe296a2-7308-4694-8417-d66a439cfe9d">
        <g
           id="id-4d723d49-7f64-4dfa-980f-5cc10ddc582a">
          <symbol
             overflow="visible"
             id="id-7f56c96c-779a-4d92-b3db-d18dd5808790">
            <path
               style="stroke:none;stroke-width:0"
               d=""
               id="id-d615ac32-9846-4cc4-86af-5aa1ca3fb31f" />
          </symbol>
          <symbol
             overflow="visible"
             id="id-8fb66120-04cf-4255-bf09-881e1e1f1db4">
            <path
               style="stroke:none;stroke-width:0"
               d="m 4.25,-6.046875 c 0.078125,-0.28125 0.109375,-0.34375 0.234375,-0.375 0.09375,-0.015625 0.421875,-0.015625 0.625,-0.015625 1.015625,0 1.453125,0.03125 1.453125,0.8125 0,0.15625 -0.03125,0.546875 -0.078125,0.796875 0,0.046875 -0.03125,0.15625 -0.03125,0.1875 0,0.0625 0.03125,0.140625 0.125,0.140625 0.109375,0 0.125,-0.078125 0.15625,-0.234375 L 7,-6.46875 C 7.015625,-6.515625 7.015625,-6.609375 7.015625,-6.640625 7.015625,-6.75 6.921875,-6.75 6.75,-6.75 H 1.21875 c -0.234375,0 -0.25,0.015625 -0.328125,0.203125 l -0.59375,1.75 c 0,0.015625 -0.0625,0.15625 -0.0625,0.1875 0,0.046875 0.0625,0.109375 0.125,0.109375 0.09375,0 0.109375,-0.0625 0.171875,-0.21875 C 1.0625,-6.265625 1.328125,-6.4375 2.796875,-6.4375 H 3.1875 c 0.28125,0 0.28125,0.03125 0.28125,0.125 0,0.046875 -0.03125,0.171875 -0.046875,0.203125 L 2.09375,-0.78125 C 2,-0.421875 1.96875,-0.3125 0.90625,-0.3125 c -0.359375,0 -0.421875,0 -0.421875,0.1875 C 0.484375,0 0.59375,0 0.65625,0 c 0.265625,0 0.546875,-0.015625 0.8125,-0.015625 0.28125,0 0.578125,-0.015625 0.859375,-0.015625 0.28125,0 0.546875,0.015625 0.828125,0.015625 C 3.4375,-0.015625 3.734375,0 4.015625,0 c 0.09375,0 0.21875,0 0.21875,-0.203125 0,-0.109375 -0.078125,-0.109375 -0.34375,-0.109375 -0.234375,0 -0.375,0 -0.625,-0.015625 -0.296875,-0.03125 -0.375,-0.0625 -0.375,-0.21875 0,-0.015625 0,-0.0625 0.046875,-0.203125 z m 0,0"
               id="id-35d7ec25-0091-4f64-a902-92baac1abab7" />
          </symbol>
          <symbol
             overflow="visible"
             id="id-6a0733ed-987e-4310-9b2d-5c6532667b1b">
            <path
               style="stroke:none;stroke-width:0"
               d="m 4.375,-7.09375 c 0.046875,-0.140625 0.046875,-0.171875 0.046875,-0.1875 0,-0.109375 -0.078125,-0.203125 -0.1875,-0.203125 -0.078125,0 -0.140625,0.03125 -0.171875,0.09375 l -3.46875,9.5 C 0.546875,2.25 0.546875,2.28125 0.546875,2.296875 0.546875,2.40625 0.640625,2.5 0.75,2.5 0.875,2.5 0.90625,2.421875 0.96875,2.25 Z m 0,0"
               id="id-ffda673c-f1d6-42a9-8e96-5c6e532d6102" />
          </symbol>
          <symbol
             overflow="visible"
             id="id-ebedfbeb-198c-4a34-8cc5-087d5bd0a5a5">
            <path
               style="stroke:none;stroke-width:0"
               d=""
               id="id-e3e1be88-491f-428f-aa4b-93c7957e642e" />
          </symbol>
          <symbol
             overflow="visible"
             id="id-ecd00a63-64de-4a47-bfe3-2535f77864ff">
            <path
               style="stroke:none;stroke-width:0"
               d="M 3.984375,-2.796875 C 3.953125,-2.859375 3.9375,-2.875 3.9375,-2.890625 c 0,-0.015625 0.015625,-0.015625 0.171875,-0.125 l 0.703125,-0.5 c 0.921875,-0.640625 1.359375,-0.953125 1.84375,-1 0.078125,0 0.171875,0 0.171875,-0.140625 0,-0.0625 -0.046875,-0.09375 -0.09375,-0.09375 -0.15625,0 -0.328125,0.015625 -0.484375,0.015625 -0.1875,0 -0.65625,-0.03125 -0.84375,-0.03125 -0.046875,0 -0.140625,0 -0.140625,0.15625 0,0.015625 0,0.09375 0.09375,0.09375 0.09375,0.015625 0.1875,0.03125 0.1875,0.109375 0,0.125 -0.21875,0.28125 -0.3125,0.34375 L 2.328125,-2.015625 2.875,-4.21875 c 0.0625,-0.234375 0.078125,-0.296875 0.609375,-0.296875 0.125,0 0.21875,0 0.21875,-0.140625 0,-0.0625 -0.046875,-0.109375 -0.109375,-0.109375 -0.203125,0 -0.71875,0.03125 -0.921875,0.03125 -0.109375,0 -0.359375,0 -0.484375,0 C 2.0625,-4.75 1.890625,-4.765625 1.75,-4.765625 c -0.03125,0 -0.140625,0 -0.140625,0.15625 0,0.09375 0.078125,0.09375 0.234375,0.09375 0.109375,0 0.140625,0 0.265625,0.015625 0.140625,0.015625 0.15625,0.03125 0.15625,0.109375 0,0 0,0.046875 -0.03125,0.140625 l -0.9375,3.703125 C 1.25,-0.3125 1.234375,-0.25 0.6875,-0.25 c -0.125,0 -0.203125,0 -0.203125,0.15625 0,0 0,0.09375 0.109375,0.09375 0.203125,0 0.703125,-0.03125 0.90625,-0.03125 0.109375,0 0.359375,0 0.484375,0.015625 C 2.125,-0.015625 2.296875,0 2.421875,0 2.46875,0 2.578125,0 2.578125,-0.15625 2.578125,-0.25 2.484375,-0.25 2.34375,-0.25 c 0,0 -0.140625,0 -0.265625,-0.015625 C 1.921875,-0.28125 1.921875,-0.296875 1.921875,-0.375 1.921875,-0.421875 2,-0.6875 2.25,-1.703125 l 1.15625,-0.8125 1.015625,1.953125 c 0.046875,0.09375 0.046875,0.09375 0.046875,0.125 0,0.171875 -0.203125,0.1875 -0.328125,0.1875 -0.078125,0 -0.171875,0 -0.171875,0.15625 0,0 0,0.09375 0.109375,0.09375 C 4.28125,0 4.78125,-0.03125 4.96875,-0.03125 5.1875,-0.03125 5.46875,0 5.65625,0 5.75,0 5.796875,-0.046875 5.796875,-0.140625 5.796875,-0.25 5.703125,-0.25 5.640625,-0.25 c -0.125,0 -0.34375,-0.015625 -0.46875,-0.234375 z m 0,0"
               id="id-13e5221a-9281-4472-ad2d-5f5cd81842d6" />
          </symbol>
        </g>
      </defs>
      <g
         id="id-2be47601-32d4-42b5-b694-f26061fa15ba"
         transform="translate(-148.946,-127.281)">
        <g
           style="fill:#000000;fill-opacity:1"
           id="id-f816df1b-5466-4dc3-aa91-4a15398d8624">
          <g
             transform="translate(148.712,134.765)"
             id="g4502">
            <path
               style="stroke:none;stroke-width:0"
               d="m 4.25,-6.046875 c 0.078125,-0.28125 0.109375,-0.34375 0.234375,-0.375 0.09375,-0.015625 0.421875,-0.015625 0.625,-0.015625 1.015625,0 1.453125,0.03125 1.453125,0.8125 0,0.15625 -0.03125,0.546875 -0.078125,0.796875 0,0.046875 -0.03125,0.15625 -0.03125,0.1875 0,0.0625 0.03125,0.140625 0.125,0.140625 0.109375,0 0.125,-0.078125 0.15625,-0.234375 L 7,-6.46875 C 7.015625,-6.515625 7.015625,-6.609375 7.015625,-6.640625 7.015625,-6.75 6.921875,-6.75 6.75,-6.75 H 1.21875 c -0.234375,0 -0.25,0.015625 -0.328125,0.203125 l -0.59375,1.75 c 0,0.015625 -0.0625,0.15625 -0.0625,0.1875 0,0.046875 0.0625,0.109375 0.125,0.109375 0.09375,0 0.109375,-0.0625 0.171875,-0.21875 C 1.0625,-6.265625 1.328125,-6.4375 2.796875,-6.4375 H 3.1875 c 0.28125,0 0.28125,0.03125 0.28125,0.125 0,0.046875 -0.03125,0.171875 -0.046875,0.203125 L 2.09375,-0.78125 C 2,-0.421875 1.96875,-0.3125 0.90625,-0.3125 c -0.359375,0 -0.421875,0 -0.421875,0.1875 C 0.484375,0 0.59375,0 0.65625,0 c 0.265625,0 0.546875,-0.015625 0.8125,-0.015625 0.28125,0 0.578125,-0.015625 0.859375,-0.015625 0.28125,0 0.546875,0.015625 0.828125,0.015625 C 3.4375,-0.015625 3.734375,0 4.015625,0 c 0.09375,0 0.21875,0 0.21875,-0.203125 0,-0.109375 -0.078125,-0.109375 -0.34375,-0.109375 -0.234375,0 -0.375,0 -0.625,-0.015625 -0.296875,-0.03125 -0.375,-0.0625 -0.375,-0.21875 0,-0.015625 0,-0.0625 0.046875,-0.203125 z m 0,0"
               id="id-f6303e01-bfe0-4f06-8354-1a9811ba56d6" />
          </g>
        </g>
        <g
           style="fill:#000000;fill-opacity:1"
           id="id-d034b8be-b0e3-43e9-83e3-74af8e673cfb">
          <g
             transform="translate(155.64,134.765)"
             id="g4506">
            <path
               style="stroke:none;stroke-width:0"
               d="m 4.375,-7.09375 c 0.046875,-0.140625 0.046875,-0.171875 0.046875,-0.1875 0,-0.109375 -0.078125,-0.203125 -0.1875,-0.203125 -0.078125,0 -0.140625,0.03125 -0.171875,0.09375 l -3.46875,9.5 C 0.546875,2.25 0.546875,2.28125 0.546875,2.296875 0.546875,2.40625 0.640625,2.5 0.75,2.5 0.875,2.5 0.90625,2.421875 0.96875,2.25 Z m 0,0"
               id="id-c75cee40-4dbf-429c-8fd5-183654649415" />
          </g>
          <g
             transform="translate(160.621,134.765)"
             id="g4509">
            <path
               style="stroke:none;stroke-width:0"
               d="m 4.25,-6.046875 c 0.078125,-0.28125 0.109375,-0.34375 0.234375,-0.375 0.09375,-0.015625 0.421875,-0.015625 0.625,-0.015625 1.015625,0 1.453125,0.03125 1.453125,0.8125 0,0.15625 -0.03125,0.546875 -0.078125,0.796875 0,0.046875 -0.03125,0.15625 -0.03125,0.1875 0,0.0625 0.03125,0.140625 0.125,0.140625 0.109375,0 0.125,-0.078125 0.15625,-0.234375 L 7,-6.46875 C 7.015625,-6.515625 7.015625,-6.609375 7.015625,-6.640625 7.015625,-6.75 6.921875,-6.75 6.75,-6.75 H 1.21875 c -0.234375,0 -0.25,0.015625 -0.328125,0.203125 l -0.59375,1.75 c 0,0.015625 -0.0625,0.15625 -0.0625,0.1875 0,0.046875 0.0625,0.109375 0.125,0.109375 0.09375,0 0.109375,-0.0625 0.171875,-0.21875 C 1.0625,-6.265625 1.328125,-6.4375 2.796875,-6.4375 H 3.1875 c 0.28125,0 0.28125,0.03125 0.28125,0.125 0,0.046875 -0.03125,0.171875 -0.046875,0.203125 L 2.09375,-0.78125 C 2,-0.421875 1.96875,-0.3125 0.90625,-0.3125 c -0.359375,0 -0.421875,0 -0.421875,0.1875 C 0.484375,0 0.59375,0 0.65625,0 c 0.265625,0 0.546875,-0.015625 0.8125,-0.015625 0.28125,0 0.578125,-0.015625 0.859375,-0.015625 0.28125,0 0.546875,0.015625 0.828125,0.015625 C 3.4375,-0.015625 3.734375,0 4.015625,0 c 0.09375,0 0.21875,0 0.21875,-0.203125 0,-0.109375 -0.078125,-0.109375 -0.34375,-0.109375 -0.234375,0 -0.375,0 -0.625,-0.015625 -0.296875,-0.03125 -0.375,-0.0625 -0.375,-0.21875 0,-0.015625 0,-0.0625 0.046875,-0.203125 z m 0,0"
               id="id-897dc5e2-aeb1-4ba1-bb27-395b38f9e82f" />
          </g>
        </g>
        <g
           style="fill:#000000;fill-opacity:1"
           id="id-3604d735-27be-419e-a975-690de81a0ca2">
          <g
             transform="translate(166.444,136.259)"
             id="g4513">
            <path
               style="stroke:none;stroke-width:0"
               d="M 3.984375,-2.796875 C 3.953125,-2.859375 3.9375,-2.875 3.9375,-2.890625 c 0,-0.015625 0.015625,-0.015625 0.171875,-0.125 l 0.703125,-0.5 c 0.921875,-0.640625 1.359375,-0.953125 1.84375,-1 0.078125,0 0.171875,0 0.171875,-0.140625 0,-0.0625 -0.046875,-0.09375 -0.09375,-0.09375 -0.15625,0 -0.328125,0.015625 -0.484375,0.015625 -0.1875,0 -0.65625,-0.03125 -0.84375,-0.03125 -0.046875,0 -0.140625,0 -0.140625,0.15625 0,0.015625 0,0.09375 0.09375,0.09375 0.09375,0.015625 0.1875,0.03125 0.1875,0.109375 0,0.125 -0.21875,0.28125 -0.3125,0.34375 L 2.328125,-2.015625 2.875,-4.21875 c 0.0625,-0.234375 0.078125,-0.296875 0.609375,-0.296875 0.125,0 0.21875,0 0.21875,-0.140625 0,-0.0625 -0.046875,-0.109375 -0.109375,-0.109375 -0.203125,0 -0.71875,0.03125 -0.921875,0.03125 -0.109375,0 -0.359375,0 -0.484375,0 C 2.0625,-4.75 1.890625,-4.765625 1.75,-4.765625 c -0.03125,0 -0.140625,0 -0.140625,0.15625 0,0.09375 0.078125,0.09375 0.234375,0.09375 0.109375,0 0.140625,0 0.265625,0.015625 0.140625,0.015625 0.15625,0.03125 0.15625,0.109375 0,0 0,0.046875 -0.03125,0.140625 l -0.9375,3.703125 C 1.25,-0.3125 1.234375,-0.25 0.6875,-0.25 c -0.125,0 -0.203125,0 -0.203125,0.15625 0,0 0,0.09375 0.109375,0.09375 0.203125,0 0.703125,-0.03125 0.90625,-0.03125 0.109375,0 0.359375,0 0.484375,0.015625 C 2.125,-0.015625 2.296875,0 2.421875,0 2.46875,0 2.578125,0 2.578125,-0.15625 2.578125,-0.25 2.484375,-0.25 2.34375,-0.25 c 0,0 -0.140625,0 -0.265625,-0.015625 C 1.921875,-0.28125 1.921875,-0.296875 1.921875,-0.375 1.921875,-0.421875 2,-0.6875 2.25,-1.703125 l 1.15625,-0.8125 1.015625,1.953125 c 0.046875,0.09375 0.046875,0.09375 0.046875,0.125 0,0.171875 -0.203125,0.1875 -0.328125,0.1875 -0.078125,0 -0.171875,0 -0.171875,0.15625 0,0 0,0.09375 0.109375,0.09375 C 4.28125,0 4.78125,-0.03125 4.96875,-0.03125 5.1875,-0.03125 5.46875,0 5.65625,0 5.75,0 5.796875,-0.046875 5.796875,-0.140625 5.796875,-0.25 5.703125,-0.25 5.640625,-0.25 c -0.125,0 -0.34375,-0.015625 -0.46875,-0.234375 z m 0,0"
               id="id-222c71dc-9d53-4ee0-b587-c9ec9aef37e2" />
          </g>
        </g>
      </g>
    </g>
  </g>
</svg>
