<?xml version="1.0" encoding="UTF-8" standalone="no"?>
<svg
   width="322.5575pt"
   height="133.66412pt"
   viewBox="0 0 322.5575 133.66412"
   version="1.2"
   id="svg31081"
   sodipodi:docname="kondo_zeromode_banner.svg"
   inkscape:version="1.1.1 (3bf5ae0d25, 2021-09-20, custom)"
   xmlns:inkscape="http://www.inkscape.org/namespaces/inkscape"
   xmlns:sodipodi="http://sodipodi.sourceforge.net/DTD/sodipodi-0.dtd"
   xmlns="http://www.w3.org/2000/svg"
   xmlns:svg="http://www.w3.org/2000/svg">
  <sodipodi:namedview
     id="namedview31083"
     pagecolor="#505050"
     bordercolor="#eeeeee"
     borderopacity="1"
     inkscape:pageshadow="0"
     inkscape:pageopacity="0"
     inkscape:pagecheckerboard="0"
     inkscape:document-units="pt"
     showgrid="false"
     inkscape:zoom="1.8249041"
     inkscape:cx="252.61602"
     inkscape:cy="118.63637"
     inkscape:window-width="1916"
     inkscape:window-height="1051"
     inkscape:window-x="0"
     inkscape:window-y="25"
     inkscape:window-maximized="1"
     inkscape:current-layer="svg31081" />
  <defs
     id="defs30976">
    <marker
       style="overflow:visible"
       id="Arrow2Mstart"
       refX="0"
       refY="0"
       orient="auto"
       inkscape:stockid="Arrow2Mstart"
       inkscape:isstock="true">
      <path
         transform="scale(0.6)"
         d="M 8.7185878,4.0337352 -2.2072895,0.01601326 8.7185884,-4.0017078 c -1.7454984,2.3720609 -1.7354408,5.6174519 -6e-7,8.035443 z"
         style="fill:context-stroke;fill-rule:evenodd;stroke:context-stroke;stroke-width:0.625;stroke-linejoin:round"
         id="path5564" />
    </marker>
    <marker
       style="overflow:visible"
       id="Arrow2Mend"
       refX="0"
       refY="0"
       orient="auto"
       inkscape:stockid="Arrow2Mend"
       inkscape:isstock="true">
      <path
         transform="scale(-0.6)"
         d="M 8.7185878,4.0337352 -2.2072895,0.01601326 8.7185884,-4.0017078 c -1.7454984,2.3720609 -1.7354408,5.6174519 -6e-7,8.035443 z"
         style="fill:context-stroke;fill-rule:evenodd;stroke:context-stroke;stroke-width:0.625;stroke-linejoin:round"
         id="path5567" />
    </marker>
    <marker
       style="overflow:visible"
       id="Arrow2Lend"
       refX="0"
       refY="0"
       orient="auto"
       inkscape:stockid="Arrow2Lend"
       inkscape:isstock="true">
      <path
         transform="matrix(-1.1,0,0,-1.1,-1.1,0)"
         d="M 8.7185878,4.0337352 -2.2072895,0.01601326 8.7185884,-4.0017078 c -1.7454984,2.3720609 -1.7354408,5.6174519 -6e-7,8.035443 z"
         style="fill:context-stroke;fill-rule:evenodd;stroke:context-stroke;stroke-width:0.625;stroke-linejoin:round"
         id="path5561" />
    </marker>
    <clipPath
       id="clip1">
      <path
         d="m 28,134 h 11 v 17.24219 H 28 Z m 0,0"
         id="path30967" />
    </clipPath>
    <clipPath
       id="clip2">
      <path
         d="m 75,134 h 12 v 17.24219 H 75 Z m 0,0"
         id="path30970" />
    </clipPath>
    <clipPath
       id="clip3">
      <path
         d="m 345,133 h 10.31641 v 13 H 345 Z m 0,0"
         id="path30973" />
    </clipPath>
    <filter
       inkscape:collect="always"
       style="color-interpolation-filters:sRGB"
       id="filter31687"
       x="-0.19264458"
       y="-0.19264459"
       width="1.3852892"
       height="1.3852892">
      <feGaussianBlur
         inkscape:collect="always"
         stdDeviation="7.037297"
         id="feGaussianBlur31689" />
    </filter>
    <filter
       inkscape:collect="always"
       style="color-interpolation-filters:sRGB"
       id="filter31691"
       x="-0.19199999"
       y="-0.192"
       width="1.384"
       height="1.384">
      <feGaussianBlur
         inkscape:collect="always"
         stdDeviation="7.7262504"
         id="feGaussianBlur31693" />
    </filter>
  </defs>
  <path
     style="mix-blend-mode:normal;fill:#1e1e1e;fill-opacity:1;fill-rule:nonzero;stroke:none;filter:url(#filter31687)"
     d="m 104.56139,66.832064 c 0,24.210937 -19.628909,43.835936 -43.83594,43.835936 -24.210938,0 -43.835938,-19.624999 -43.835938,-43.835936 0,-24.207032 19.625,-43.835938 43.835938,-43.835938 24.207031,0 43.83594,19.628906 43.83594,43.835938 z m 0,0"
     id="path30978" />
  <path
     style="fill:#1e1e1e;fill-opacity:1;fill-rule:nonzero;stroke:none;filter:url(#filter31691)"
     d="m 304.01451,66.832064 c 0,26.671876 -21.62109,48.289066 -48.28906,48.289066 -26.67188,0 -48.28907,-21.61719 -48.28907,-48.289066 0,-26.667969 21.61719,-48.289063 48.28907,-48.289063 26.66797,0 48.28906,21.621094 48.28906,48.289063 z m 0,0"
     id="path30980" />
  <path
     style="fill:none;stroke:#b0781e;stroke-width:2.83465;stroke-linecap:butt;stroke-linejoin:miter;stroke-miterlimit:4;stroke-opacity:1"
     d="M 45.72545,86.632845 V 52.61722"
     id="path30982" />
  <path
     style="fill:#b0781e;fill-opacity:1;fill-rule:evenodd;stroke:#b0781e;stroke-width:1.51181;stroke-linecap:butt;stroke-linejoin:miter;stroke-miterlimit:4;stroke-opacity:1"
     d="m 45.72545,63.957064 5.667968,5.667968 -5.667968,-19.839843 -5.671876,19.839843 z m 0,0"
     id="path30984" />
  <path
     style="fill:none;stroke:#b0781e;stroke-width:2.83465;stroke-linecap:butt;stroke-linejoin:miter;stroke-miterlimit:4;stroke-opacity:1"
     d="M 75.72545,47.031282 V 81.046908"
     id="path30986" />
  <path
     style="fill:#b0781e;fill-opacity:1;fill-rule:evenodd;stroke:#b0781e;stroke-width:1.51181;stroke-linecap:butt;stroke-linejoin:miter;stroke-miterlimit:4;stroke-opacity:1"
     d="m 75.72545,69.707064 -5.671876,-5.667969 5.671876,19.84375 5.667968,-19.84375 z m 0,0"
     id="path30988" />
  <path
     style="fill:none;stroke:#009e6e;stroke-width:2.83465;stroke-linecap:butt;stroke-linejoin:miter;stroke-miterlimit:4;stroke-opacity:1"
     d="M 241.39732,84.906282 V 50.894564"
     id="path30990" />
  <path
     style="fill:#009e6e;fill-opacity:1;fill-rule:evenodd;stroke:#009e6e;stroke-width:1.51181;stroke-linecap:butt;stroke-linejoin:miter;stroke-miterlimit:4;stroke-opacity:1"
     d="m 241.39732,62.234408 5.67188,5.667968 -5.67188,-19.84375 -5.66797,19.84375 z m 0,0"
     id="path30992" />
  <path
     style="fill:none;stroke:#009e6e;stroke-width:2.83465;stroke-linecap:butt;stroke-linejoin:miter;stroke-miterlimit:4;stroke-opacity:1"
     d="M 271.39732,45.308626 V 79.320345"
     id="path30994" />
  <path
     style="fill:#009e6e;fill-opacity:1;fill-rule:evenodd;stroke:#009e6e;stroke-width:1.51181;stroke-linecap:butt;stroke-linejoin:miter;stroke-miterlimit:4;stroke-opacity:1"
     d="m 271.39732,67.984408 -5.66797,-5.671876 5.66797,19.84375 5.67188,-19.84375 z m 0,0"
     id="path30996" />
  <path
     style="fill:none;stroke:#000000;stroke-width:3.40157;stroke-linecap:butt;stroke-linejoin:miter;stroke-miterlimit:4;stroke-dasharray:none;stroke-opacity:1;marker-end:url(#Arrow2Mend)"
     d="m 109.23123,41.332064 h 91.32051"
     id="path30998" />
  <path
     style="fill:none;stroke:#000000;stroke-width:3.40157;stroke-linecap:butt;stroke-linejoin:miter;stroke-miterlimit:4;stroke-dasharray:none;stroke-opacity:1;marker-end:url(#Arrow2Mend)"
     d="M 204.77199,81.832064 H 113.45148"
     id="path31002" />
</svg>
