<?xml version="1.0" encoding="UTF-8" standalone="no"?>
<!-- Created with Inkscape (http://www.inkscape.org/) -->

<svg
   width="141.5722mm"
   height="65.307793mm"
   viewBox="0 0 141.57219 65.30779"
   version="1.1"
   id="svg1"
   inkscape:version="1.3.2 (091e20ef0f, 2023-11-25, custom)"
   sodipodi:docname="diracHamiltonian.svg"
   xmlns:inkscape="http://www.inkscape.org/namespaces/inkscape"
   xmlns:sodipodi="http://sodipodi.sourceforge.net/DTD/sodipodi-0.dtd"
   xmlns="http://www.w3.org/2000/svg"
   xmlns:svg="http://www.w3.org/2000/svg"
   xmlns:ns11="http://www.iki.fi/pav/software/textext/">
  <sodipodi:namedview
     id="namedview1"
     pagecolor="#ffffff"
     bordercolor="#cccccc"
     borderopacity="1"
     inkscape:showpageshadow="0"
     inkscape:pageopacity="1"
     inkscape:pagecheckerboard="0"
     inkscape:deskcolor="#d1d1d1"
     inkscape:document-units="mm"
     inkscape:zoom="1.1044869"
     inkscape:cx="422.36807"
     inkscape:cy="76.053414"
     inkscape:window-width="1914"
     inkscape:window-height="1046"
     inkscape:window-x="0"
     inkscape:window-y="28"
     inkscape:window-maximized="1"
     inkscape:current-layer="layer1" />
  <defs
     id="defs1">
    <marker
       style="overflow:visible"
       id="marker13"
       refX="0"
       refY="0"
       orient="auto-start-reverse"
       inkscape:stockid="Rounded arrow"
       markerWidth="0.5"
       markerHeight="0.5"
       viewBox="0 0 1 1"
       inkscape:isstock="true"
       inkscape:collect="always"
       preserveAspectRatio="xMidYMid">
      <path
         transform="scale(0.7)"
         d="m -0.21114562,-4.1055728 6.42229122,3.21114561 a 1,1 90 0 1 0,1.78885438 L -0.21114562,4.1055728 A 1.236068,1.236068 31.717474 0 1 -2,3 v -6 a 1.236068,1.236068 148.28253 0 1 1.78885438,-1.1055728 z"
         style="fill:context-stroke;fill-rule:evenodd;stroke:none"
         id="path13" />
    </marker>
    <inkscape:path-effect
       effect="spiro"
       id="path-effect13"
       is_visible="true"
       lpeversion="1" />
    <marker
       style="overflow:visible"
       id="RoundedArrow"
       refX="0"
       refY="0"
       orient="auto-start-reverse"
       inkscape:stockid="Rounded arrow"
       markerWidth="0.5"
       markerHeight="0.5"
       viewBox="0 0 1 1"
       inkscape:isstock="true"
       inkscape:collect="always"
       preserveAspectRatio="xMidYMid">
      <path
         transform="scale(0.7)"
         d="m -0.21114562,-4.1055728 6.42229122,3.21114561 a 1,1 90 0 1 0,1.78885438 L -0.21114562,4.1055728 A 1.236068,1.236068 31.717474 0 1 -2,3 v -6 a 1.236068,1.236068 148.28253 0 1 1.78885438,-1.1055728 z"
         style="fill:context-stroke;fill-rule:evenodd;stroke:none"
         id="path8" />
    </marker>
    <inkscape:path-effect
       effect="spiro"
       id="path-effect12"
       is_visible="true"
       lpeversion="1" />
    <inkscape:path-effect
       effect="spiro"
       id="path-effect11"
       is_visible="true"
       lpeversion="1" />
    <inkscape:path-effect
       effect="spiro"
       id="path-effect9"
       is_visible="true"
       lpeversion="1" />
    <inkscape:path-effect
       effect="spiro"
       id="path-effect7"
       is_visible="true"
       lpeversion="1" />
    <inkscape:path-effect
       effect="spiro"
       id="path-effect4"
       is_visible="true"
       lpeversion="1" />
    <inkscape:path-effect
       effect="spiro"
       id="path-effect3"
       is_visible="true"
       lpeversion="1" />
    <inkscape:path-effect
       effect="spiro"
       id="path-effect1"
       is_visible="true"
       lpeversion="1" />
    <inkscape:path-effect
       effect="spiro"
       id="path-effect12-3"
       is_visible="true"
       lpeversion="1" />
  </defs>
  <g
     inkscape:label="Layer 1"
     inkscape:groupmode="layer"
     id="layer1"
     transform="translate(-36.1018,-141.45887)">
    <g
       transform="matrix(1.05833,0,0,1.05833,36.1018,141.459)"
       ns11:version="1.10.2"
       ns11:texconverter="xelatex"
       ns11:pdfconverter="inkscape"
       ns11:text="\\[H = v_F \\vec{\\alpha}\\cdot(~~~{\\vec p}~~~-~~~e\\vec{A})~~~+~~~\\beta m\\]"
       ns11:preamble="/home/prometheus/.config/textext/beamer.tex"
       ns11:scale="3.0"
       ns11:alignment="middle center"
       ns11:stroke-to-path="0"
       id="g7797"
       ns11:jacobian_sqrt="1.05833"
       style="fill:#404040;fill-opacity:1;stroke-width:0">
      <defs
         id="id-ff91f474-b488-4c52-b65d-2362ed347e4a"
         style="fill:#404040;fill-opacity:1;stroke-width:0">
        <g
           id="id-1c95607b-f82d-4030-9508-1b1fc40ede11"
           style="fill:#404040;fill-opacity:1;stroke-width:0">
          <g
             id="id-6a2b2b0c-69f4-4ed1-9b14-fa9dc5971d5d"
             style="fill:#404040;fill-opacity:1;stroke-width:0">
            <path
               d="M 1.5625,0 2,-3.21875 H 4.875 L 4.421875,0 h 0.9375 l 0.96875,-6.875 h -0.9375 L 4.984375,-4 h -2.875 l 0.40625,-2.875 h -0.9375 L 0.625,0 Z m 0,0"
               id="id-f5488544-e7bc-4ff3-b16c-b45f3c70920b"
               style="fill:#404040;fill-opacity:1;stroke-width:0" />
          </g>
          <g
             id="id-abca75ef-d0c7-4f7f-857a-0ac245d867d3"
             style="fill:#404040;fill-opacity:1;stroke-width:0">
            <path
               d="M 0.625,-1.453125 H 4.359375 V -2.21875 H 0.625 Z m 0,-1.921875 h 3.734375 v -0.75 H 0.625 Z m 0,0"
               id="id-5d69357c-6b20-4633-acab-da745793c8c8"
               style="fill:#404040;fill-opacity:1;stroke-width:0" />
          </g>
          <g
             id="id-7cea0c15-232e-4112-9cef-73c224b00d8a"
             style="fill:#404040;fill-opacity:1;stroke-width:0">
            <path
               d="m 5.125,-5.25 h -1 L 2.171875,-0.828125 1.453125,-5.25 H 0.46875 L 1.53125,0 h 1.078125 z m 0,0"
               id="id-6e06227e-ca80-4459-927c-8f28dd3eac9b"
               style="fill:#404040;fill-opacity:1;stroke-width:0" />
          </g>
          <g
             id="id-ac6c3a02-2ba6-4a97-b816-54f483089119"
             style="fill:#404040;fill-opacity:1;stroke-width:0">
            <path
               d="m -1.421875,-8.203125 -0.375,0.34375 0.5,0.546875 h -2.59375 v 0.609375 h 2.59375 l -0.5,0.546875 0.375,0.34375 1.125,-1.1875 z m 0,0"
               id="id-b9a6a122-4e46-4300-a047-fdf1fc72f491"
               style="fill:#404040;fill-opacity:1;stroke-width:0" />
          </g>
          <g
             id="id-7cefb8bc-4ccc-4f07-90b4-1f80db58ecd8"
             style="fill:#404040;fill-opacity:1;stroke-width:0">
            <path
               d="m 2.953125,-4.640625 c 0.609375,0 0.9375,0.390625 1,1.953125 C 3.375,-0.96875 2.75,-0.609375 2.265625,-0.609375 c -0.53125,0 -0.796875,-0.359375 -0.796875,-1.25 0,-0.890625 0.34375,-2.78125 1.484375,-2.78125 z M 2.9375,-5.375 c -1.796875,0 -2.421875,2.0625 -2.421875,3.5 0,1.328125 0.6875,2 1.640625,2 0.890625,0 1.390625,-0.65625 1.765625,-1.484375 L 3.9375,-0.84375 C 3.953125,-0.28125 4.3125,0.0625 4.75,0.125 l 0.390625,-0.75 C 4.84375,-0.734375 4.78125,-0.859375 4.765625,-1.125 L 4.6875,-2.5 5.625,-5.25 H 4.796875 l -0.4375,1.453125 C 4.28125,-4.921875 3.8125,-5.375 2.9375,-5.375 Z m 0,0"
               id="id-2b09c3a6-ab5e-430f-8fe0-c6f026273c0a"
               style="fill:#404040;fill-opacity:1;stroke-width:0" />
          </g>
          <g
             id="id-b2156156-fe1e-4258-b925-3fa99d2b1458"
             style="fill:#404040;fill-opacity:1;stroke-width:0">
            <path
               d="m 1.1875,-3.484375 c -0.390625,0 -0.6875,0.3125 -0.6875,0.6875 0,0.390625 0.296875,0.703125 0.6875,0.703125 0.390625,0 0.703125,-0.3125 0.703125,-0.703125 0,-0.375 -0.3125,-0.6875 -0.703125,-0.6875 z m 0,0"
               id="id-5466c277-df9c-45a6-9025-373fdc13dbc8"
               style="fill:#404040;fill-opacity:1;stroke-width:0" />
          </g>
          <g
             id="id-9c46bfb1-e515-4287-8b79-39349e122bac"
             style="fill:#404040;fill-opacity:1;stroke-width:0">
            <path
               d="m 2.25,-7.71875 c -0.96875,1.375 -1.84375,2.5625 -1.84375,4.921875 0,2.375 0.875,3.546875 1.84375,4.9375 L 2.828125,1.75 C 1.9375,0.421875 1.359375,-0.65625 1.359375,-2.796875 1.359375,-4.9375 1.9375,-6 2.828125,-7.328125 Z m 0,0"
               id="id-1501f1c3-6a79-4705-a303-1cfb5b1e15c8"
               style="fill:#404040;fill-opacity:1;stroke-width:0" />
          </g>
          <g
             id="id-d2304ed7-418a-425a-b5b7-a93db4e59e46"
             style="fill:#404040;fill-opacity:1;stroke-width:0">
            <path
               d="m 2.515625,-0.609375 c -0.359375,0 -0.59375,-0.03125 -0.921875,-0.15625 l 0.4375,-3.125 c 0.375,-0.390625 0.796875,-0.75 1.375,-0.75 0.515625,0 0.90625,0.328125 0.90625,1.265625 0,1.171875 -0.484375,2.765625 -1.796875,2.765625 z m -2.25,2.765625 0.90625,-0.125 0.296875,-2.078125 c 0.328125,0.109375 0.640625,0.171875 1,0.171875 2.0625,0 2.796875,-1.953125 2.796875,-3.4375 0,-1.328125 -0.625,-2.0625 -1.609375,-2.0625 -0.53125,0 -1.046875,0.1875 -1.59375,0.78125 L 2.078125,-5.25 H 1.3125 Z m 0,0"
               id="id-c2731201-945c-475d-8c54-4bb34c8cdb9b"
               style="fill:#404040;fill-opacity:1;stroke-width:0" />
          </g>
          <g
             id="id-6e8e8270-2e84-4022-a9b8-f264ba194713"
             style="fill:#404040;fill-opacity:1;stroke-width:0">
            <path
               d="M 0.625,-2.40625 H 4.359375 V -3.171875 H 0.625 Z m 0,0"
               id="id-9d34cdd1-7ce1-48e0-8e50-1c5a2cc32e31"
               style="fill:#404040;fill-opacity:1;stroke-width:0" />
          </g>
          <g
             id="id-cd9ee20f-f96a-476c-b95c-ed39284fdc1d"
             style="fill:#404040;fill-opacity:1;stroke-width:0">
            <path
               d="m 1.53125,-2.65625 c 0.125,-0.953125 0.578125,-1.984375 1.671875,-1.984375 0.578125,0 0.71875,0.390625 0.71875,0.640625 0,0.890625 -0.890625,1.171875 -2.390625,1.34375 z m 3.359375,-1.375 c 0,-0.703125 -0.546875,-1.34375 -1.671875,-1.34375 -2,0 -2.703125,1.921875 -2.703125,3.359375 0,1.328125 0.71875,2.140625 2,2.140625 0.703125,0 1.328125,-0.234375 1.890625,-0.640625 l -0.390625,-0.625 c -0.484375,0.34375 -0.921875,0.5 -1.40625,0.5 C 1.9375,-0.640625 1.5,-1 1.46875,-1.953125 3.3125,-2.15625 4.890625,-2.5625 4.890625,-4.03125 Z m 0,0"
               id="id-fc014a12-5a28-4062-94bd-6283cca1364f"
               style="fill:#404040;fill-opacity:1;stroke-width:0" />
          </g>
          <g
             id="id-202764c8-0a77-4da3-bda3-f4167ffee593"
             style="fill:#404040;fill-opacity:1;stroke-width:0">
            <path
               d="M 1.734375,-2.5 3.3125,-6.078125 3.875,-2.5 Z M 4.25,0 H 5.21875 L 4.015625,-6.875 h -1.1875 L -0.3125,0 H 0.640625 L 1.40625,-1.71875 h 2.578125 z m 0,0"
               id="id-fc52576a-6832-4919-ab0a-3b9c2064922e"
               style="fill:#404040;fill-opacity:1;stroke-width:0" />
          </g>
          <g
             id="id-c3faf832-c8c6-452d-b00a-102e36149c3c"
             style="fill:#404040;fill-opacity:1;stroke-width:0">
            <path
               d="M 0.984375,-7.71875 0.40625,-7.328125 C 1.296875,-6 1.875,-4.9375 1.875,-2.796875 1.875,-0.65625 1.296875,0.421875 0.40625,1.75 l 0.578125,0.390625 c 0.96875,-1.390625 1.84375,-2.5625 1.84375,-4.9375 0,-2.359375 -0.875,-3.546875 -1.84375,-4.921875 z m 0,0"
               id="id-0331d4ac-768a-492a-9637-e11a235cfeb2"
               style="fill:#404040;fill-opacity:1;stroke-width:0" />
          </g>
          <g
             id="id-cdb3f6a5-35b4-4e45-9e25-2f44a50979d0"
             style="fill:#404040;fill-opacity:1;stroke-width:0">
            <path
               d="M 2.90625,-4.671875 H 2.078125 v 1.5 H 0.625 v 0.765625 h 1.453125 v 1.484375 H 2.90625 V -2.40625 H 4.359375 V -3.171875 H 2.90625 Z m 0,0"
               id="id-78e4adbd-dc97-4612-b812-edf82666c4e7"
               style="fill:#404040;fill-opacity:1;stroke-width:0" />
          </g>
          <g
             id="id-c350c778-835c-490e-af72-042e59915071"
             style="fill:#404040;fill-opacity:1;stroke-width:0">
            <path
               d="m 2.921875,-0.625 c -0.515625,0 -0.96875,-0.171875 -1.28125,-0.5 l 0.59375,-4.234375 c 0.125,-0.9375 0.59375,-1.40625 1.34375,-1.40625 0.578125,0 0.984375,0.28125 0.984375,0.96875 0,0.625 -0.390625,1.484375 -1.40625,1.484375 H 2.6875 L 2.5,-3.625 h 0.515625 c 0.984375,0 1.5,0.5 1.5,1.375 0,0.71875 -0.359375,1.625 -1.59375,1.625 z m -2.65625,2.78125 0.9375,-0.125 0.328125,-2.4375 C 1.9375,-0.0625 2.46875,0.125 2.984375,0.125 4.6875,0.125 5.4375,-1.1875 5.4375,-2.21875 5.4375,-3.484375 4.5,-3.890625 3.703125,-3.984375 4.9375,-4.171875 5.40625,-5.046875 5.40625,-5.8125 c 0,-1.046875 -0.78125,-1.671875 -1.8125,-1.671875 -1.234375,0 -2.09375,0.75 -2.265625,2.0625 z m 0,0"
               id="id-03d737ab-038b-4f24-b235-92dc34fdaa46"
               style="fill:#404040;fill-opacity:1;stroke-width:0" />
          </g>
          <g
             id="id-4fa98751-0dd6-4648-8000-01b299e66fa5"
             style="fill:#404040;fill-opacity:1;stroke-width:0">
            <path
               d="M 6.59375,-5.375 C 5.9375,-5.375 5.390625,-5 4.859375,-4.3125 4.78125,-5 4.28125,-5.375 3.71875,-5.375 3.015625,-5.375 2.484375,-4.921875 2,-4.25 l 0.078125,-1 H 1.3125 L 0.5625,0 h 0.90625 l 0.4375,-3.15625 c 0.421875,-0.734375 0.921875,-1.453125 1.484375,-1.453125 0.375,0 0.65625,0.15625 0.546875,0.9375 L 3.421875,0 h 0.90625 L 4.78125,-3.171875 c 0.40625,-0.734375 0.921875,-1.4375 1.484375,-1.4375 0.359375,0 0.65625,0.15625 0.546875,0.9375 L 6.296875,0 h 0.90625 L 7.71875,-3.734375 C 7.859375,-4.734375 7.375,-5.375 6.59375,-5.375 Z m 0,0"
               id="id-fac72f2a-9941-4b3d-bc87-344c5de494ad"
               style="fill:#404040;fill-opacity:1;stroke-width:0" />
          </g>
          <g
             id="id-4da25921-c447-484e-a087-99e34d45f960"
             style="fill:#404040;fill-opacity:1;stroke-width:0">
            <path
               d="M 3.734375,-4.9375 H 1.140625 L 0.4375,0 H 1.125 L 1.421875,-2.171875 H 3.03125 L 3.09375,-2.71875 H 1.5 l 0.234375,-1.671875 h 1.84375 z m 0,0"
               id="id-cfb37fb3-1385-43b2-a457-819b113718bf"
               style="fill:#404040;fill-opacity:1;stroke-width:0" />
          </g>
        </g>
      </defs>
      <g
         fill-opacity="1"
         id="id-c547b1d0-2438-4b92-b009-b120c7c43d18"
         transform="translate(-240.516,-136.903)"
         style="fill:#404040;fill-opacity:1;stroke-width:0">
        <g
           transform="translate(239.891,146.72)"
           id="g7536"
           style="fill:#404040;fill-opacity:1;stroke-width:0">
          <path
             d="M 1.5625,0 2,-3.21875 H 4.875 L 4.421875,0 h 0.9375 l 0.96875,-6.875 h -0.9375 L 4.984375,-4 h -2.875 l 0.40625,-2.875 h -0.9375 L 0.625,0 Z m 0,0"
             id="id-a2586435-86da-437d-bf80-685d3471522a"
             style="fill:#404040;fill-opacity:1;stroke-width:0" />
        </g>
      </g>
      <g
         fill-opacity="1"
         id="id-ca40d8ab-70d3-4535-86c6-5d2f364bdee2"
         transform="translate(-240.516,-136.903)"
         style="fill:#404040;fill-opacity:1;stroke-width:0">
        <g
           transform="translate(249.565,146.72)"
           id="g3267"
           style="fill:#404040;fill-opacity:1;stroke-width:0">
          <path
             d="M 0.625,-1.453125 H 4.359375 V -2.21875 H 0.625 Z m 0,-1.921875 h 3.734375 v -0.75 H 0.625 Z m 0,0"
             id="id-d40af40a-e53c-4fd9-b867-e855a8b8789d"
             style="fill:#404040;fill-opacity:1;stroke-width:0" />
        </g>
      </g>
      <g
         fill-opacity="1"
         id="id-b3e5c63b-d3b5-466b-be16-f802641a7eed"
         transform="translate(-240.516,-136.903)"
         style="fill:#404040;fill-opacity:1;stroke-width:0">
        <g
           transform="translate(257.316,146.72)"
           id="g5366"
           style="fill:#404040;fill-opacity:1;stroke-width:0">
          <path
             d="m 5.125,-5.25 h -1 L 2.171875,-0.828125 1.453125,-5.25 H 0.46875 L 1.53125,0 h 1.078125 z m 0,0"
             id="id-240854bf-6bb7-494e-bdf2-fc9370869d3a"
             style="fill:#404040;fill-opacity:1;stroke-width:0" />
        </g>
      </g>
      <g
         fill-opacity="1"
         id="id-cfe3c78b-64a8-4cc9-8f83-c0754da2a991"
         transform="translate(-240.516,-136.903)"
         style="fill:#404040;fill-opacity:1;stroke-width:0">
        <g
           transform="translate(262.164,150.207)"
           id="g2904"
           style="fill:#404040;fill-opacity:1;stroke-width:0">
          <path
             d="M 3.734375,-4.9375 H 1.140625 L 0.4375,0 H 1.125 L 1.421875,-2.171875 H 3.03125 L 3.09375,-2.71875 H 1.5 l 0.234375,-1.671875 h 1.84375 z m 0,0"
             id="id-12844d2c-2064-45d0-8499-ecce9b875764"
             style="fill:#404040;fill-opacity:1;stroke-width:0" />
        </g>
      </g>
      <g
         fill-opacity="1"
         id="id-90426b81-1a63-41d9-9200-37af44d560a3"
         transform="translate(-240.516,-136.903)"
         style="fill:#404040;fill-opacity:1;stroke-width:0">
        <g
           transform="translate(271.975,146.6)"
           id="g4635"
           style="fill:#404040;fill-opacity:1;stroke-width:0">
          <path
             d="m -1.421875,-8.203125 -0.375,0.34375 0.5,0.546875 h -2.59375 v 0.609375 h 2.59375 l -0.5,0.546875 0.375,0.34375 1.125,-1.1875 z m 0,0"
             id="id-b242190f-476f-4aa3-aa14-c32bdad2a422"
             style="fill:#404040;fill-opacity:1;stroke-width:0" />
        </g>
      </g>
      <g
         fill-opacity="1"
         id="id-46b6ac55-abe7-492d-bc69-b98954eb38f6"
         transform="translate(-240.516,-136.903)"
         style="fill:#404040;fill-opacity:1;stroke-width:0">
        <g
           transform="translate(266.715,146.72)"
           id="g2666"
           style="fill:#404040;fill-opacity:1;stroke-width:0">
          <path
             d="m 2.953125,-4.640625 c 0.609375,0 0.9375,0.390625 1,1.953125 C 3.375,-0.96875 2.75,-0.609375 2.265625,-0.609375 c -0.53125,0 -0.796875,-0.359375 -0.796875,-1.25 0,-0.890625 0.34375,-2.78125 1.484375,-2.78125 z M 2.9375,-5.375 c -1.796875,0 -2.421875,2.0625 -2.421875,3.5 0,1.328125 0.6875,2 1.640625,2 0.890625,0 1.390625,-0.65625 1.765625,-1.484375 L 3.9375,-0.84375 C 3.953125,-0.28125 4.3125,0.0625 4.75,0.125 l 0.390625,-0.75 C 4.84375,-0.734375 4.78125,-0.859375 4.765625,-1.125 L 4.6875,-2.5 5.625,-5.25 H 4.796875 l -0.4375,1.453125 C 4.28125,-4.921875 3.8125,-5.375 2.9375,-5.375 Z m 0,0"
             id="id-a42a5a5d-f985-4eb1-9d03-5f2a53c0f486"
             style="fill:#404040;fill-opacity:1;stroke-width:0" />
        </g>
      </g>
      <g
         fill-opacity="1"
         id="id-07abb3c5-8744-4ddd-b2a7-2acf11f5bb98"
         transform="translate(-240.516,-136.903)"
         style="fill:#404040;fill-opacity:1;stroke-width:0">
        <g
           transform="translate(274.984,146.72)"
           id="g6024"
           style="fill:#404040;fill-opacity:1;stroke-width:0">
          <path
             d="m 1.1875,-3.484375 c -0.390625,0 -0.6875,0.3125 -0.6875,0.6875 0,0.390625 0.296875,0.703125 0.6875,0.703125 0.390625,0 0.703125,-0.3125 0.703125,-0.703125 0,-0.375 -0.3125,-0.6875 -0.703125,-0.6875 z m 0,0"
             id="id-142f4516-eea5-4291-b728-6c22aae1b61c"
             style="fill:#404040;fill-opacity:1;stroke-width:0" />
        </g>
      </g>
      <g
         fill-opacity="1"
         id="id-c88e05a8-7b34-47af-bf5d-1d6a156ab820"
         transform="translate(-240.516,-136.903)"
         style="fill:#404040;fill-opacity:1;stroke-width:0">
        <g
           transform="translate(279.577,146.72)"
           id="g9203"
           style="fill:#404040;fill-opacity:1;stroke-width:0">
          <path
             d="m 2.25,-7.71875 c -0.96875,1.375 -1.84375,2.5625 -1.84375,4.921875 0,2.375 0.875,3.546875 1.84375,4.9375 L 2.828125,1.75 C 1.9375,0.421875 1.359375,-0.65625 1.359375,-2.796875 1.359375,-4.9375 1.9375,-6 2.828125,-7.328125 Z m 0,0"
             id="id-09d4fd48-1663-4653-9d4b-afd47875d1db"
             style="fill:#404040;fill-opacity:1;stroke-width:0" />
        </g>
      </g>
      <g
         fill-opacity="1"
         id="id-ac569b31-eac0-4641-bfe1-8b59faa2bcfa"
         transform="translate(-240.516,-136.903)"
         style="fill:#404040;fill-opacity:1;stroke-width:0">
        <g
           transform="translate(295.093,146.6)"
           id="g2970"
           style="fill:#404040;fill-opacity:1;stroke-width:0">
          <path
             d="m -1.421875,-8.203125 -0.375,0.34375 0.5,0.546875 h -2.59375 v 0.609375 h 2.59375 l -0.5,0.546875 0.375,0.34375 1.125,-1.1875 z m 0,0"
             id="id-b971ac6c-f59b-446e-9d5b-885fcdc05f63"
             style="fill:#404040;fill-opacity:1;stroke-width:0" />
        </g>
      </g>
      <g
         fill-opacity="1"
         id="id-5a1d5dee-a020-4787-a9be-7cea5aabcf83"
         transform="translate(-240.516,-136.903)"
         style="fill:#404040;fill-opacity:1;stroke-width:0">
        <g
           transform="translate(289.833,146.72)"
           id="g988"
           style="fill:#404040;fill-opacity:1;stroke-width:0">
          <path
             d="m 2.515625,-0.609375 c -0.359375,0 -0.59375,-0.03125 -0.921875,-0.15625 l 0.4375,-3.125 c 0.375,-0.390625 0.796875,-0.75 1.375,-0.75 0.515625,0 0.90625,0.328125 0.90625,1.265625 0,1.171875 -0.484375,2.765625 -1.796875,2.765625 z m -2.25,2.765625 0.90625,-0.125 0.296875,-2.078125 c 0.328125,0.109375 0.640625,0.171875 1,0.171875 2.0625,0 2.796875,-1.953125 2.796875,-3.4375 0,-1.328125 -0.625,-2.0625 -1.609375,-2.0625 -0.53125,0 -1.046875,0.1875 -1.59375,0.78125 L 2.078125,-5.25 H 1.3125 Z m 0,0"
             id="id-e6f04d49-55b2-4a1d-b39f-5961e912a196"
             style="fill:#404040;fill-opacity:1;stroke-width:0" />
        </g>
      </g>
      <g
         fill-opacity="1"
         id="id-602f54eb-09ca-4049-921b-1df454631cea"
         transform="translate(-240.516,-136.903)"
         style="fill:#404040;fill-opacity:1;stroke-width:0">
        <g
           transform="translate(304.837,146.72)"
           id="g7558"
           style="fill:#404040;fill-opacity:1;stroke-width:0">
          <path
             d="M 0.625,-2.40625 H 4.359375 V -3.171875 H 0.625 Z m 0,0"
             id="id-6262f588-c9cf-410c-9390-02cafade9cdd"
             style="fill:#404040;fill-opacity:1;stroke-width:0" />
        </g>
      </g>
      <g
         fill-opacity="1"
         id="id-5cae2ed1-f84f-4a03-802e-4d63dce060f6"
         transform="translate(-240.516,-136.903)"
         style="fill:#404040;fill-opacity:1;stroke-width:0">
        <g
           transform="translate(319.053,146.72)"
           id="g5442"
           style="fill:#404040;fill-opacity:1;stroke-width:0">
          <path
             d="m 1.53125,-2.65625 c 0.125,-0.953125 0.578125,-1.984375 1.671875,-1.984375 0.578125,0 0.71875,0.390625 0.71875,0.640625 0,0.890625 -0.890625,1.171875 -2.390625,1.34375 z m 3.359375,-1.375 c 0,-0.703125 -0.546875,-1.34375 -1.671875,-1.34375 -2,0 -2.703125,1.921875 -2.703125,3.359375 0,1.328125 0.71875,2.140625 2,2.140625 0.703125,0 1.328125,-0.234375 1.890625,-0.640625 l -0.390625,-0.625 c -0.484375,0.34375 -0.921875,0.5 -1.40625,0.5 C 1.9375,-0.640625 1.5,-1 1.46875,-1.953125 3.3125,-2.15625 4.890625,-2.5625 4.890625,-4.03125 Z m 0,0"
             id="id-29907082-2ae9-4281-aa92-08c0d9a705ff"
             style="fill:#404040;fill-opacity:1;stroke-width:0" />
        </g>
      </g>
      <g
         fill-opacity="1"
         id="id-0a76153c-6cd0-480d-98dc-1923073efb0a"
         transform="translate(-240.516,-136.903)"
         style="fill:#404040;fill-opacity:1;stroke-width:0">
        <g
           transform="translate(329.718,145.106)"
           id="g8807"
           style="fill:#404040;fill-opacity:1;stroke-width:0">
          <path
             d="m -1.421875,-8.203125 -0.375,0.34375 0.5,0.546875 h -2.59375 v 0.609375 h 2.59375 l -0.5,0.546875 0.375,0.34375 1.125,-1.1875 z m 0,0"
             id="id-4decc382-4752-4b85-9bd1-ee6256c5b3c8"
             style="fill:#404040;fill-opacity:1;stroke-width:0" />
        </g>
      </g>
      <g
         fill-opacity="1"
         id="id-923243f9-aadf-4a8f-8f4d-e8852f648573"
         transform="translate(-240.516,-136.903)"
         style="fill:#404040;fill-opacity:1;stroke-width:0">
        <g
           transform="translate(324.209,146.72)"
           id="g4110"
           style="fill:#404040;fill-opacity:1;stroke-width:0">
          <path
             d="M 1.734375,-2.5 3.3125,-6.078125 3.875,-2.5 Z M 4.25,0 H 5.21875 L 4.015625,-6.875 h -1.1875 L -0.3125,0 H 0.640625 L 1.40625,-1.71875 h 2.578125 z m 0,0"
             id="id-0e46c127-6d12-4766-a3c7-c26e6b33b08a"
             style="fill:#404040;fill-opacity:1;stroke-width:0" />
        </g>
        <g
           transform="translate(329.858,146.72)"
           id="g4325"
           style="fill:#404040;fill-opacity:1;stroke-width:0">
          <path
             d="M 0.984375,-7.71875 0.40625,-7.328125 C 1.296875,-6 1.875,-4.9375 1.875,-2.796875 1.875,-0.65625 1.296875,0.421875 0.40625,1.75 l 0.578125,0.390625 c 0.96875,-1.390625 1.84375,-2.5625 1.84375,-4.9375 0,-2.359375 -0.875,-3.546875 -1.84375,-4.921875 z m 0,0"
             id="id-e00b0fc2-900d-4b49-bf82-43f746f887d5"
             style="fill:#404040;fill-opacity:1;stroke-width:0" />
        </g>
      </g>
      <g
         fill-opacity="1"
         id="id-8ffa543b-8bd0-4489-b52e-9a72a33d464b"
         transform="translate(-240.516,-136.903)"
         style="fill:#404040;fill-opacity:1;stroke-width:0">
        <g
           transform="translate(342.321,146.72)"
           id="g2089"
           style="fill:#404040;fill-opacity:1;stroke-width:0">
          <path
             d="M 2.90625,-4.671875 H 2.078125 v 1.5 H 0.625 v 0.765625 h 1.453125 v 1.484375 H 2.90625 V -2.40625 H 4.359375 V -3.171875 H 2.90625 Z m 0,0"
             id="id-48b59cdd-cfa9-4fe9-a1b6-a3dd092b05de"
             style="fill:#404040;fill-opacity:1;stroke-width:0" />
        </g>
      </g>
      <g
         fill-opacity="1"
         id="id-6dd37027-b8e4-43fb-bc90-30d4560f4fc9"
         transform="translate(-240.516,-136.903)"
         style="fill:#404040;fill-opacity:1;stroke-width:0">
        <g
           transform="translate(356.538,146.72)"
           id="g7914"
           style="fill:#404040;fill-opacity:1;stroke-width:0">
          <path
             d="m 2.921875,-0.625 c -0.515625,0 -0.96875,-0.171875 -1.28125,-0.5 l 0.59375,-4.234375 c 0.125,-0.9375 0.59375,-1.40625 1.34375,-1.40625 0.578125,0 0.984375,0.28125 0.984375,0.96875 0,0.625 -0.390625,1.484375 -1.40625,1.484375 H 2.6875 L 2.5,-3.625 h 0.515625 c 0.984375,0 1.5,0.5 1.5,1.375 0,0.71875 -0.359375,1.625 -1.59375,1.625 z m -2.65625,2.78125 0.9375,-0.125 0.328125,-2.4375 C 1.9375,-0.0625 2.46875,0.125 2.984375,0.125 4.6875,0.125 5.4375,-1.1875 5.4375,-2.21875 5.4375,-3.484375 4.5,-3.890625 3.703125,-3.984375 4.9375,-4.171875 5.40625,-5.046875 5.40625,-5.8125 c 0,-1.046875 -0.78125,-1.671875 -1.8125,-1.671875 -1.234375,0 -2.09375,0.75 -2.265625,2.0625 z m 0,0"
             id="id-36b2886b-063e-4888-a16a-c9b93c317745"
             style="fill:#404040;fill-opacity:1;stroke-width:0" />
        </g>
      </g>
      <g
         fill-opacity="1"
         id="id-ac1b320c-9aa2-4ffb-bf43-1d95b82cdbd2"
         transform="translate(-240.516,-136.903)"
         style="fill:#404040;fill-opacity:1;stroke-width:0">
        <g
           transform="translate(362.704,146.72)"
           id="g9724"
           style="fill:#404040;fill-opacity:1;stroke-width:0">
          <path
             d="M 6.59375,-5.375 C 5.9375,-5.375 5.390625,-5 4.859375,-4.3125 4.78125,-5 4.28125,-5.375 3.71875,-5.375 3.015625,-5.375 2.484375,-4.921875 2,-4.25 l 0.078125,-1 H 1.3125 L 0.5625,0 h 0.90625 l 0.4375,-3.15625 c 0.421875,-0.734375 0.921875,-1.453125 1.484375,-1.453125 0.375,0 0.65625,0.15625 0.546875,0.9375 L 3.421875,0 h 0.90625 L 4.78125,-3.171875 c 0.40625,-0.734375 0.921875,-1.4375 1.484375,-1.4375 0.359375,0 0.65625,0.15625 0.546875,0.9375 L 6.296875,0 h 0.90625 L 7.71875,-3.734375 C 7.859375,-4.734375 7.375,-5.375 6.59375,-5.375 Z m 0,0"
             id="id-e44682c3-e036-41c7-bd06-0a02f2aa0af7"
             style="fill:#404040;fill-opacity:1;stroke-width:0" />
        </g>
      </g>
    </g>
    <g
       id="g4"
       transform="translate(14.837563,-27.343525)">
      <path
         style="fill:#404040;fill-opacity:1;stroke:#404040;stroke-width:1"
         d="m 113.09452,156.02519 v 8.341"
         id="path1"
         inkscape:path-effect="#path-effect1"
         inkscape:original-d="m 113.09452,156.02519 c 0,2.6278 0,5.4844 0,8.341"
         transform="translate(-11.242588,25.470416)" />
      <path
         style="fill:#404040;fill-opacity:1;stroke:#404040;stroke-width:1"
         d="m 113.09452,156.02519 v 8.341"
         id="path2"
         inkscape:path-effect="#path-effect3"
         inkscape:original-d="m 113.09452,156.02519 c 0,2.6278 0,5.4844 0,8.341"
         transform="translate(9.9240787,25.470416)" />
      <path
         style="fill:#404040;fill-opacity:1;stroke:#404040;stroke-width:1"
         d="M 101.85193,189.83661 H 123.0186"
         id="path3"
         inkscape:path-effect="#path-effect4"
         inkscape:original-d="m 101.85193,189.83661 c 7.05556,0 14.11111,0 21.16667,0" />
    </g>
    <g
       id="g6"
       transform="translate(54.155403,-27.947578)">
      <path
         style="fill:#404040;fill-opacity:1;stroke:#404040;stroke-width:1"
         d="m 113.09452,156.02519 v 8.341"
         id="path4"
         inkscape:path-effect="#path-effect7"
         inkscape:original-d="m 113.09452,156.02519 c 0,2.6278 0,5.4844 0,8.341"
         transform="translate(-11.242588,25.470416)" />
      <path
         style="fill:#404040;fill-opacity:1;stroke:#404040;stroke-width:1"
         d="m 113.09452,156.02519 v 8.341"
         id="path5"
         inkscape:path-effect="#path-effect9"
         inkscape:original-d="m 113.09452,156.02519 c 0,2.6278 0,5.4844 0,8.341"
         transform="translate(9.9240787,25.470416)" />
      <path
         style="fill:#404040;fill-opacity:1;stroke:#404040;stroke-width:1"
         d="M 101.85193,189.83661 H 123.0186"
         id="path6"
         inkscape:path-effect="#path-effect11"
         inkscape:original-d="m 101.85193,189.83661 c 7.05556,0 14.11111,0 21.16667,0" />
    </g>
    <g
       transform="matrix(1.05833,0,0,1.05833,132.75908,188.29351)"
       ns11:version="1.10.2"
       ns11:texconverter="xelatex"
       ns11:pdfconverter="inkscape"
       ns11:text="\\centering\nmass\\\\\nterm"
       ns11:preamble="/home/prometheus/.config/textext/beamer.tex"
       ns11:scale="3.0"
       ns11:alignment="middle center"
       ns11:stroke-to-path="0"
       id="g3876"
       ns11:jacobian_sqrt="1.05833"
       style="fill:#404040;fill-opacity:1">
      <defs
         id="id-3aaec40c-8741-4b7c-9f59-2e6baa2b869e">
        <g
           id="id-74045b91-a664-4187-8b47-55a7b80852d8">
          <g
             id="id-cee2334b-fbd6-4d11-880d-6f1d5eceec56">
            <path
               d="m 5.625,-5.375 c -0.609375,0 -1.0625,0.40625 -1.421875,0.953125 C 4.03125,-5.03125 3.609375,-5.375 3.046875,-5.375 2.4375,-5.375 1.984375,-5 1.640625,-4.46875 L 1.578125,-5.25 H 0.796875 V 0 H 1.6875 v -3.765625 c 0.296875,-0.546875 0.640625,-0.90625 1.09375,-0.90625 0.375,0 0.625,0.25 0.625,0.96875 V 0 h 0.875 v -3.765625 c 0.3125,-0.546875 0.65625,-0.90625 1.109375,-0.90625 0.375,0 0.625,0.25 0.625,0.96875 V 0 h 0.875 V -3.8125 C 6.890625,-4.765625 6.40625,-5.375 5.625,-5.375 Z m 0,0"
               id="id-a291c221-fd87-40bf-9bb1-c611b350cef1" />
          </g>
          <g
             id="id-2b31830f-291f-4fd9-8ec8-bb1ac8a14bcd">
            <path
               d="m 4.03125,-1.203125 v -2.46875 C 4.03125,-4.75 3.515625,-5.375 2.328125,-5.375 c -0.53125,0 -1.078125,0.125 -1.625,0.359375 l 0.21875,0.625 c 0.46875,-0.171875 0.875,-0.28125 1.265625,-0.28125 0.671875,0 0.96875,0.3125 0.96875,1.046875 v 0.4375 h -0.6875 c -1.359375,0 -2.109375,0.609375 -2.109375,1.71875 0,0.953125 0.5625,1.59375 1.515625,1.59375 0.578125,0 1.078125,-0.25 1.421875,-0.796875 0.125,0.515625 0.4375,0.71875 0.921875,0.796875 l 0.1875,-0.609375 C 4.171875,-0.59375 4.03125,-0.75 4.03125,-1.203125 Z m -1.953125,0.65625 c -0.5,0 -0.796875,-0.328125 -0.796875,-0.96875 0,-0.734375 0.4375,-1.09375 1.296875,-1.09375 H 3.15625 v 1.25 c -0.25,0.53125 -0.59375,0.8125 -1.078125,0.8125 z m 0,0"
               id="id-dc32e3b4-5cac-4031-976b-e92454da4aa0" />
          </g>
          <g
             id="id-5929d6e6-fa90-4961-99f0-f34c4a0b7f09">
            <path
               d="m 2.15625,-5.375 c -1.015625,0 -1.734375,0.625 -1.734375,1.453125 0,0.71875 0.40625,1.15625 1.40625,1.484375 0.921875,0.296875 1.15625,0.5 1.15625,1.046875 C 2.984375,-0.875 2.59375,-0.5625 2,-0.5625 c -0.53125,0 -0.9375,-0.203125 -1.328125,-0.515625 l -0.453125,0.5 C 0.640625,-0.171875 1.234375,0.125 2.03125,0.125 c 1.015625,0 1.875,-0.546875 1.875,-1.578125 0,-0.875 -0.515625,-1.28125 -1.515625,-1.609375 -0.8125,-0.25 -1.0625,-0.453125 -1.0625,-0.890625 0,-0.453125 0.34375,-0.71875 0.859375,-0.71875 0.453125,0 0.796875,0.140625 1.203125,0.421875 l 0.375,-0.53125 C 3.3125,-5.15625 2.8125,-5.375 2.15625,-5.375 Z m 0,0"
               id="id-8194306d-9862-40d0-9d4b-60f17eceeabc" />
          </g>
          <g
             id="id-64fee22b-1c85-40e4-801c-9869ff85bba7">
            <path
               d="m 2.953125,-0.8125 c -0.21875,0.140625 -0.390625,0.1875 -0.625,0.1875 -0.390625,0 -0.5625,-0.21875 -0.5625,-0.65625 V -4.5625 H 2.8125 L 2.90625,-5.25 H 1.765625 V -6.5625 L 0.875,-6.453125 V -5.25 H 0.109375 v 0.6875 H 0.875 v 3.28125 c 0,0.875 0.453125,1.40625 1.3125,1.40625 0.421875,0 0.78125,-0.125 1.109375,-0.359375 z m 0,0"
               id="id-cb614f2e-45c6-4810-9085-a1adc4e31c73" />
          </g>
          <g
             id="id-b7fb000a-fc89-4875-8040-8e474430166e">
            <path
               d="m 4.484375,-2.78125 c 0,-1.671875 -0.703125,-2.59375 -1.96875,-2.59375 -1.265625,0 -2.03125,1.109375 -2.03125,2.796875 C 0.484375,-0.875 1.28125,0.125 2.625,0.125 c 0.6875,0 1.234375,-0.25 1.6875,-0.65625 L 3.921875,-1.0625 c -0.40625,0.3125 -0.75,0.46875 -1.234375,0.46875 -0.71875,0 -1.203125,-0.4375 -1.265625,-1.71875 H 4.46875 c 0,-0.125 0.015625,-0.296875 0.015625,-0.46875 z m -0.875,-0.171875 h -2.1875 C 1.46875,-4.234375 1.90625,-4.6875 2.53125,-4.6875 c 0.734375,0 1.078125,0.5625 1.078125,1.640625 z m 0,0"
               id="id-f5c40ee4-781d-443c-98c9-8d854ef2cfa8" />
          </g>
          <g
             id="id-ca8efc5f-faa0-43c4-b2ce-27952a96dfe2">
            <path
               d="m 2.953125,-5.359375 c -0.609375,0 -1.046875,0.390625 -1.296875,1.15625 L 1.578125,-5.25 H 0.796875 V 0 H 1.6875 V -3.03125 C 1.890625,-4 2.234375,-4.5 2.84375,-4.5 3,-4.5 3.125,-4.46875 3.25,-4.4375 L 3.40625,-5.296875 C 3.265625,-5.34375 3.125,-5.359375 2.953125,-5.359375 Z m 0,0"
               id="id-0b7ff036-1a12-4311-ad38-fdb3e25bd1ad" />
          </g>
        </g>
      </defs>
      <g
         fill="#000000"
         fill-opacity="1"
         id="id-79787bf0-84b1-421e-ae14-e5fa8691750f"
         transform="translate(-295.995,-129.39)"
         style="fill:#404040;fill-opacity:1">
        <g
           transform="translate(295.198,134.765)"
           id="g9185"
           style="fill:#404040;fill-opacity:1">
          <path
             d="m 5.625,-5.375 c -0.609375,0 -1.0625,0.40625 -1.421875,0.953125 C 4.03125,-5.03125 3.609375,-5.375 3.046875,-5.375 2.4375,-5.375 1.984375,-5 1.640625,-4.46875 L 1.578125,-5.25 H 0.796875 V 0 H 1.6875 v -3.765625 c 0.296875,-0.546875 0.640625,-0.90625 1.09375,-0.90625 0.375,0 0.625,0.25 0.625,0.96875 V 0 h 0.875 v -3.765625 c 0.3125,-0.546875 0.65625,-0.90625 1.109375,-0.90625 0.375,0 0.625,0.25 0.625,0.96875 V 0 h 0.875 V -3.8125 C 6.890625,-4.765625 6.40625,-5.375 5.625,-5.375 Z m 0,0"
             id="id-35ee1bb4-bd1c-4be3-8dac-699f0a7eec0d"
             style="fill:#404040;fill-opacity:1" />
        </g>
        <g
           transform="translate(302.839,134.765)"
           id="g9438"
           style="fill:#404040;fill-opacity:1">
          <path
             d="m 4.03125,-1.203125 v -2.46875 C 4.03125,-4.75 3.515625,-5.375 2.328125,-5.375 c -0.53125,0 -1.078125,0.125 -1.625,0.359375 l 0.21875,0.625 c 0.46875,-0.171875 0.875,-0.28125 1.265625,-0.28125 0.671875,0 0.96875,0.3125 0.96875,1.046875 v 0.4375 h -0.6875 c -1.359375,0 -2.109375,0.609375 -2.109375,1.71875 0,0.953125 0.5625,1.59375 1.515625,1.59375 0.578125,0 1.078125,-0.25 1.421875,-0.796875 0.125,0.515625 0.4375,0.71875 0.921875,0.796875 l 0.1875,-0.609375 C 4.171875,-0.59375 4.03125,-0.75 4.03125,-1.203125 Z m -1.953125,0.65625 c -0.5,0 -0.796875,-0.328125 -0.796875,-0.96875 0,-0.734375 0.4375,-1.09375 1.296875,-1.09375 H 3.15625 v 1.25 c -0.25,0.53125 -0.59375,0.8125 -1.078125,0.8125 z m 0,0"
             id="id-2ee47cab-b01e-41bb-9f17-964bb4c257cd"
             style="fill:#404040;fill-opacity:1" />
        </g>
        <g
           transform="translate(307.681,134.765)"
           id="g563"
           style="fill:#404040;fill-opacity:1">
          <path
             d="m 2.15625,-5.375 c -1.015625,0 -1.734375,0.625 -1.734375,1.453125 0,0.71875 0.40625,1.15625 1.40625,1.484375 0.921875,0.296875 1.15625,0.5 1.15625,1.046875 C 2.984375,-0.875 2.59375,-0.5625 2,-0.5625 c -0.53125,0 -0.9375,-0.203125 -1.328125,-0.515625 l -0.453125,0.5 C 0.640625,-0.171875 1.234375,0.125 2.03125,0.125 c 1.015625,0 1.875,-0.546875 1.875,-1.578125 0,-0.875 -0.515625,-1.28125 -1.515625,-1.609375 -0.8125,-0.25 -1.0625,-0.453125 -1.0625,-0.890625 0,-0.453125 0.34375,-0.71875 0.859375,-0.71875 0.453125,0 0.796875,0.140625 1.203125,0.421875 l 0.375,-0.53125 C 3.3125,-5.15625 2.8125,-5.375 2.15625,-5.375 Z m 0,0"
             id="id-b72aeac8-4608-40f9-8560-b2af2f4d05eb"
             style="fill:#404040;fill-opacity:1" />
        </g>
      </g>
      <g
         fill="#000000"
         fill-opacity="1"
         id="id-b5360e79-bdd1-40fe-a6a2-603ae7b61e98"
         transform="translate(-295.995,-129.39)"
         style="fill:#404040;fill-opacity:1">
        <g
           transform="translate(311.826,134.765)"
           id="g6551"
           style="fill:#404040;fill-opacity:1">
          <path
             d="m 2.15625,-5.375 c -1.015625,0 -1.734375,0.625 -1.734375,1.453125 0,0.71875 0.40625,1.15625 1.40625,1.484375 0.921875,0.296875 1.15625,0.5 1.15625,1.046875 C 2.984375,-0.875 2.59375,-0.5625 2,-0.5625 c -0.53125,0 -0.9375,-0.203125 -1.328125,-0.515625 l -0.453125,0.5 C 0.640625,-0.171875 1.234375,0.125 2.03125,0.125 c 1.015625,0 1.875,-0.546875 1.875,-1.578125 0,-0.875 -0.515625,-1.28125 -1.515625,-1.609375 -0.8125,-0.25 -1.0625,-0.453125 -1.0625,-0.890625 0,-0.453125 0.34375,-0.71875 0.859375,-0.71875 0.453125,0 0.796875,0.140625 1.203125,0.421875 l 0.375,-0.53125 C 3.3125,-5.15625 2.8125,-5.375 2.15625,-5.375 Z m 0,0"
             id="id-3e99df58-3fc6-4bef-a161-f285c5f5498e"
             style="fill:#404040;fill-opacity:1" />
        </g>
      </g>
      <g
         fill="#000000"
         fill-opacity="1"
         id="id-4bfcca00-711c-4d70-bf1f-f2a2558e7db8"
         transform="translate(-295.995,-129.39)"
         style="fill:#404040;fill-opacity:1">
        <g
           transform="translate(296.045,146.72)"
           id="g8450"
           style="fill:#404040;fill-opacity:1">
          <path
             d="m 2.953125,-0.8125 c -0.21875,0.140625 -0.390625,0.1875 -0.625,0.1875 -0.390625,0 -0.5625,-0.21875 -0.5625,-0.65625 V -4.5625 H 2.8125 L 2.90625,-5.25 H 1.765625 V -6.5625 L 0.875,-6.453125 V -5.25 H 0.109375 v 0.6875 H 0.875 v 3.28125 c 0,0.875 0.453125,1.40625 1.3125,1.40625 0.421875,0 0.78125,-0.125 1.109375,-0.359375 z m 0,0"
             id="id-0be6a6f1-a5a1-4dfe-85a6-4796ed111037"
             style="fill:#404040;fill-opacity:1" />
        </g>
      </g>
      <g
         fill="#000000"
         fill-opacity="1"
         id="id-64c05fd4-373e-4894-a7e5-cbba88bb746e"
         transform="translate(-295.995,-129.39)"
         style="fill:#404040;fill-opacity:1">
        <g
           transform="translate(299.163,146.72)"
           id="g9431"
           style="fill:#404040;fill-opacity:1">
          <path
             d="m 4.484375,-2.78125 c 0,-1.671875 -0.703125,-2.59375 -1.96875,-2.59375 -1.265625,0 -2.03125,1.109375 -2.03125,2.796875 C 0.484375,-0.875 1.28125,0.125 2.625,0.125 c 0.6875,0 1.234375,-0.25 1.6875,-0.65625 L 3.921875,-1.0625 c -0.40625,0.3125 -0.75,0.46875 -1.234375,0.46875 -0.71875,0 -1.203125,-0.4375 -1.265625,-1.71875 H 4.46875 c 0,-0.125 0.015625,-0.296875 0.015625,-0.46875 z m -0.875,-0.171875 h -2.1875 C 1.46875,-4.234375 1.90625,-4.6875 2.53125,-4.6875 c 0.734375,0 1.078125,0.5625 1.078125,1.640625 z m 0,0"
             id="id-781285f6-4f51-4179-aff3-4b6971ec129b"
             style="fill:#404040;fill-opacity:1" />
        </g>
        <g
           transform="translate(304.085,146.72)"
           id="g5027"
           style="fill:#404040;fill-opacity:1">
          <path
             d="m 2.953125,-5.359375 c -0.609375,0 -1.046875,0.390625 -1.296875,1.15625 L 1.578125,-5.25 H 0.796875 V 0 H 1.6875 V -3.03125 C 1.890625,-4 2.234375,-4.5 2.84375,-4.5 3,-4.5 3.125,-4.46875 3.25,-4.4375 L 3.40625,-5.296875 C 3.265625,-5.34375 3.125,-5.359375 2.953125,-5.359375 Z m 0,0"
             id="id-c0780f80-49ef-443f-9d8b-b2e71b04a3e0"
             style="fill:#404040;fill-opacity:1" />
        </g>
        <g
           transform="translate(307.562,146.72)"
           id="g1480"
           style="fill:#404040;fill-opacity:1">
          <path
             d="m 5.625,-5.375 c -0.609375,0 -1.0625,0.40625 -1.421875,0.953125 C 4.03125,-5.03125 3.609375,-5.375 3.046875,-5.375 2.4375,-5.375 1.984375,-5 1.640625,-4.46875 L 1.578125,-5.25 H 0.796875 V 0 H 1.6875 v -3.765625 c 0.296875,-0.546875 0.640625,-0.90625 1.09375,-0.90625 0.375,0 0.625,0.25 0.625,0.96875 V 0 h 0.875 v -3.765625 c 0.3125,-0.546875 0.65625,-0.90625 1.109375,-0.90625 0.375,0 0.625,0.25 0.625,0.96875 V 0 h 0.875 V -3.8125 C 6.890625,-4.765625 6.40625,-5.375 5.625,-5.375 Z m 0,0"
             id="id-88461d82-2c36-4092-acf1-b6561fedb745"
             style="fill:#404040;fill-opacity:1" />
        </g>
      </g>
    </g>
    <g
       transform="matrix(1.05833,0,0,1.05833,64.831451,177.5458)"
       ns11:version="1.10.2"
       ns11:texconverter="xelatex"
       ns11:pdfconverter="inkscape"
       ns11:text="\\centering\nvector\\\\\npotential"
       ns11:preamble="/home/prometheus/.config/textext/beamer.tex"
       ns11:scale="3.0"
       ns11:alignment="middle center"
       ns11:stroke-to-path="0"
       id="g3508"
       ns11:jacobian_sqrt="1.05833"
       style="fill:#404040;fill-opacity:1">
      <defs
         id="id-d616a881-46f5-44e7-8938-46581e77942a">
        <g
           id="id-1c9f431a-92cd-47a6-89dc-491ff30137d7">
          <g
             id="id-680ae879-82cb-4b66-8c7a-3470259d66a7">
            <path
               d="M 4.359375,-5.25 H 3.453125 L 2.25,-0.75 1.03125,-5.25 H 0.09375 L 1.71875,0 h 1.0625 z m 0,0"
               id="id-bb3aeaf2-6a29-4832-af8d-bf321a49b48c" />
          </g>
          <g
             id="id-5798758d-dda6-4e65-998d-0b546640dd1f">
            <path
               d="m 4.484375,-2.78125 c 0,-1.671875 -0.703125,-2.59375 -1.96875,-2.59375 -1.265625,0 -2.03125,1.109375 -2.03125,2.796875 C 0.484375,-0.875 1.28125,0.125 2.625,0.125 c 0.6875,0 1.234375,-0.25 1.6875,-0.65625 L 3.921875,-1.0625 c -0.40625,0.3125 -0.75,0.46875 -1.234375,0.46875 -0.71875,0 -1.203125,-0.4375 -1.265625,-1.71875 H 4.46875 c 0,-0.125 0.015625,-0.296875 0.015625,-0.46875 z m -0.875,-0.171875 h -2.1875 C 1.46875,-4.234375 1.90625,-4.6875 2.53125,-4.6875 c 0.734375,0 1.078125,0.5625 1.078125,1.640625 z m 0,0"
               id="id-6e9aba07-ff79-49dd-9f3e-b0b3e038608e" />
          </g>
          <g
             id="id-96aa1ec6-ad34-45ab-8ec0-7c47479215d1">
            <path
               d="m 2.625,-5.375 c -1.296875,0 -2.140625,1.0625 -2.140625,2.796875 C 0.484375,-0.8125 1.3125,0.125 2.625,0.125 c 0.578125,0 1.046875,-0.21875 1.453125,-0.578125 L 3.671875,-1 C 3.34375,-0.75 3.0625,-0.625 2.65625,-0.625 c -0.71875,0 -1.203125,-0.53125 -1.203125,-1.96875 0,-1.453125 0.46875,-2.046875 1.21875,-2.046875 0.390625,0 0.671875,0.125 0.984375,0.375 L 4.0625,-4.8125 C 3.640625,-5.203125 3.1875,-5.375 2.625,-5.375 Z m 0,0"
               id="id-524ca4e0-a903-45d9-9750-a4b4caf691f2" />
          </g>
          <g
             id="id-33f61c0a-0fa3-4733-bada-9e79959090f3">
            <path
               d="m 2.953125,-0.8125 c -0.21875,0.140625 -0.390625,0.1875 -0.625,0.1875 -0.390625,0 -0.5625,-0.21875 -0.5625,-0.65625 V -4.5625 H 2.8125 L 2.90625,-5.25 H 1.765625 V -6.5625 L 0.875,-6.453125 V -5.25 H 0.109375 v 0.6875 H 0.875 v 3.28125 c 0,0.875 0.453125,1.40625 1.3125,1.40625 0.421875,0 0.78125,-0.125 1.109375,-0.359375 z m 0,0"
               id="id-f88ebb31-6f07-4611-b663-6a5b0e720275" />
          </g>
          <g
             id="id-f637dbed-7669-412a-a423-5dc34c5461a5">
            <path
               d="m 2.625,-5.375 c -1.328125,0 -2.140625,1.015625 -2.140625,2.75 0,1.734375 0.796875,2.75 2.140625,2.75 1.328125,0 2.125,-1.046875 2.125,-2.75 0,-1.796875 -0.78125,-2.75 -2.125,-2.75 z m 0,0.71875 c 0.765625,0 1.1875,0.59375 1.1875,2.03125 0,1.421875 -0.421875,2.03125 -1.1875,2.03125 -0.765625,0 -1.1875,-0.609375 -1.1875,-2.03125 0,-1.4375 0.421875,-2.03125 1.1875,-2.03125 z m 0,0"
               id="id-347d04c0-520d-4239-941c-264b9e18968e" />
          </g>
          <g
             id="id-8fc88246-f1cc-4ac0-86e4-8a6a3c9fe843">
            <path
               d="m 2.953125,-5.359375 c -0.609375,0 -1.046875,0.390625 -1.296875,1.15625 L 1.578125,-5.25 H 0.796875 V 0 H 1.6875 V -3.03125 C 1.890625,-4 2.234375,-4.5 2.84375,-4.5 3,-4.5 3.125,-4.46875 3.25,-4.4375 L 3.40625,-5.296875 C 3.265625,-5.34375 3.125,-5.359375 2.953125,-5.359375 Z m 0,0"
               id="id-7171d534-58f3-4cf2-8bd5-2157b32de0c8" />
          </g>
          <g
             id="id-ec2ed2d0-f504-42fc-b572-3096c9659a90">
            <path
               d="M 3.078125,-5.375 C 2.46875,-5.375 2,-5.078125 1.640625,-4.5625 L 1.578125,-5.25 H 0.796875 V 2.109375 L 1.6875,2 V -0.515625 C 2,-0.109375 2.421875,0.125 2.953125,0.125 c 1.1875,0 1.828125,-1.078125 1.828125,-2.765625 0,-1.71875 -0.546875,-2.734375 -1.703125,-2.734375 z m -0.34375,4.78125 c -0.4375,0 -0.78125,-0.25 -1.046875,-0.640625 V -3.875 c 0.28125,-0.4375 0.640625,-0.796875 1.140625,-0.796875 0.671875,0 1.015625,0.578125 1.015625,2.046875 0,1.421875 -0.40625,2.03125 -1.109375,2.03125 z m 0,0"
               id="id-68a9c4d0-a558-41df-a30b-2fc82e64ced8" />
          </g>
          <g
             id="id-29837227-d84c-46a9-9578-e5d313287fc0">
            <path
               d="M 3.140625,-5.375 C 2.46875,-5.375 2,-5 1.65625,-4.453125 L 1.578125,-5.25 H 0.796875 V 0 H 1.6875 v -3.734375 c 0.34375,-0.5625 0.71875,-0.9375 1.21875,-0.9375 0.4375,0 0.671875,0.265625 0.671875,0.96875 V 0 H 4.46875 v -3.8125 c 0,-0.96875 -0.484375,-1.5625 -1.328125,-1.5625 z m 0,0"
               id="id-74d5ceef-27ec-49ad-9cb9-b8b3ac8a52b7" />
          </g>
          <g
             id="id-eae8b7ef-405f-4fad-824e-6cff1499948f">
            <path
               d="m 1.25,-7.71875 c -0.359375,0 -0.59375,0.25 -0.59375,0.59375 0,0.328125 0.234375,0.578125 0.59375,0.578125 0.359375,0 0.578125,-0.25 0.578125,-0.578125 0,-0.34375 -0.21875,-0.59375 -0.578125,-0.59375 z M 1.6875,-5.25 H 0.796875 V 0 H 1.6875 Z m 0,0"
               id="id-e50868e0-3ebb-4131-b243-8b1c2be1883b" />
          </g>
          <g
             id="id-b88d1fa3-4de9-4bb1-87b2-1ec1a7ec9256">
            <path
               d="m 4.03125,-1.203125 v -2.46875 C 4.03125,-4.75 3.515625,-5.375 2.328125,-5.375 c -0.53125,0 -1.078125,0.125 -1.625,0.359375 l 0.21875,0.625 c 0.46875,-0.171875 0.875,-0.28125 1.265625,-0.28125 0.671875,0 0.96875,0.3125 0.96875,1.046875 v 0.4375 h -0.6875 c -1.359375,0 -2.109375,0.609375 -2.109375,1.71875 0,0.953125 0.5625,1.59375 1.515625,1.59375 0.578125,0 1.078125,-0.25 1.421875,-0.796875 0.125,0.515625 0.4375,0.71875 0.921875,0.796875 l 0.1875,-0.609375 C 4.171875,-0.59375 4.03125,-0.75 4.03125,-1.203125 Z m -1.953125,0.65625 c -0.5,0 -0.796875,-0.328125 -0.796875,-0.96875 0,-0.734375 0.4375,-1.09375 1.296875,-1.09375 H 3.15625 v 1.25 c -0.25,0.53125 -0.59375,0.8125 -1.078125,0.8125 z m 0,0"
               id="id-be31ed8f-173b-4894-acd4-c48443b0fd87" />
          </g>
          <g
             id="id-533e81c9-6ee9-457e-8c2f-45bdd9bc4414">
            <path
               d="m 1.78125,0.125 c 0.265625,0 0.515625,-0.078125 0.6875,-0.171875 L 2.25,-0.671875 C 2.1875,-0.640625 2.078125,-0.625 1.96875,-0.625 1.75,-0.625 1.65625,-0.75 1.65625,-1 V -7.46875 L 0.75,-7.359375 v 6.390625 c 0,0.703125 0.421875,1.09375 1.03125,1.09375 z m 0,0"
               id="id-15e75274-4272-4600-b21f-8a810ea0c9cf" />
          </g>
        </g>
      </defs>
      <g
         fill="#000000"
         fill-opacity="1"
         id="id-2922e90a-e721-4e83-b4cb-94e236142cde"
         transform="translate(-287.895,-128.202)"
         style="fill:#404040;fill-opacity:1">
        <g
           transform="translate(292.907,134.765)"
           id="g9242"
           style="fill:#404040;fill-opacity:1">
          <path
             d="M 4.359375,-5.25 H 3.453125 L 2.25,-0.75 1.03125,-5.25 H 0.09375 L 1.71875,0 h 1.0625 z m 0,0"
             id="id-94bab737-cdc5-4bc9-a8a1-c91096e388f5"
             style="fill:#404040;fill-opacity:1" />
        </g>
      </g>
      <g
         fill="#000000"
         fill-opacity="1"
         id="id-d71ba5b4-2155-4c98-9176-5c38307852ca"
         transform="translate(-287.895,-128.202)"
         style="fill:#404040;fill-opacity:1">
        <g
           transform="translate(297.31,134.765)"
           id="g4776"
           style="fill:#404040;fill-opacity:1">
          <path
             d="m 4.484375,-2.78125 c 0,-1.671875 -0.703125,-2.59375 -1.96875,-2.59375 -1.265625,0 -2.03125,1.109375 -2.03125,2.796875 C 0.484375,-0.875 1.28125,0.125 2.625,0.125 c 0.6875,0 1.234375,-0.25 1.6875,-0.65625 L 3.921875,-1.0625 c -0.40625,0.3125 -0.75,0.46875 -1.234375,0.46875 -0.71875,0 -1.203125,-0.4375 -1.265625,-1.71875 H 4.46875 c 0,-0.125 0.015625,-0.296875 0.015625,-0.46875 z m -0.875,-0.171875 h -2.1875 C 1.46875,-4.234375 1.90625,-4.6875 2.53125,-4.6875 c 0.734375,0 1.078125,0.5625 1.078125,1.640625 z m 0,0"
             id="id-58c75cca-da94-4104-806a-3225aaa86845"
             style="fill:#404040;fill-opacity:1" />
        </g>
        <g
           transform="translate(302.232,134.765)"
           id="g9247"
           style="fill:#404040;fill-opacity:1">
          <path
             d="m 2.625,-5.375 c -1.296875,0 -2.140625,1.0625 -2.140625,2.796875 C 0.484375,-0.8125 1.3125,0.125 2.625,0.125 c 0.578125,0 1.046875,-0.21875 1.453125,-0.578125 L 3.671875,-1 C 3.34375,-0.75 3.0625,-0.625 2.65625,-0.625 c -0.71875,0 -1.203125,-0.53125 -1.203125,-1.96875 0,-1.453125 0.46875,-2.046875 1.21875,-2.046875 0.390625,0 0.671875,0.125 0.984375,0.375 L 4.0625,-4.8125 C 3.640625,-5.203125 3.1875,-5.375 2.625,-5.375 Z m 0,0"
             id="id-9f572108-0c03-4a7b-98db-3314d1ca17f1"
             style="fill:#404040;fill-opacity:1" />
        </g>
        <g
           transform="translate(306.506,134.765)"
           id="g8255"
           style="fill:#404040;fill-opacity:1">
          <path
             d="m 2.953125,-0.8125 c -0.21875,0.140625 -0.390625,0.1875 -0.625,0.1875 -0.390625,0 -0.5625,-0.21875 -0.5625,-0.65625 V -4.5625 H 2.8125 L 2.90625,-5.25 H 1.765625 V -6.5625 L 0.875,-6.453125 V -5.25 H 0.109375 v 0.6875 H 0.875 v 3.28125 c 0,0.875 0.453125,1.40625 1.3125,1.40625 0.421875,0 0.78125,-0.125 1.109375,-0.359375 z m 0,0"
             id="id-5d3fcf61-6667-45f0-b37a-34e10a52caf7"
             style="fill:#404040;fill-opacity:1" />
        </g>
      </g>
      <g
         fill="#000000"
         fill-opacity="1"
         id="id-94979288-d7af-4fc0-90fc-cae3ba902329"
         transform="translate(-287.895,-128.202)"
         style="fill:#404040;fill-opacity:1">
        <g
           transform="translate(309.624,134.765)"
           id="g2162"
           style="fill:#404040;fill-opacity:1">
          <path
             d="m 2.625,-5.375 c -1.328125,0 -2.140625,1.015625 -2.140625,2.75 0,1.734375 0.796875,2.75 2.140625,2.75 1.328125,0 2.125,-1.046875 2.125,-2.75 0,-1.796875 -0.78125,-2.75 -2.125,-2.75 z m 0,0.71875 c 0.765625,0 1.1875,0.59375 1.1875,2.03125 0,1.421875 -0.421875,2.03125 -1.1875,2.03125 -0.765625,0 -1.1875,-0.609375 -1.1875,-2.03125 0,-1.4375 0.421875,-2.03125 1.1875,-2.03125 z m 0,0"
             id="id-06ef60a2-d51b-4936-9a04-dcd2250cf53d"
             style="fill:#404040;fill-opacity:1" />
        </g>
        <g
           transform="translate(314.865,134.765)"
           id="g6071"
           style="fill:#404040;fill-opacity:1">
          <path
             d="m 2.953125,-5.359375 c -0.609375,0 -1.046875,0.390625 -1.296875,1.15625 L 1.578125,-5.25 H 0.796875 V 0 H 1.6875 V -3.03125 C 1.890625,-4 2.234375,-4.5 2.84375,-4.5 3,-4.5 3.125,-4.46875 3.25,-4.4375 L 3.40625,-5.296875 C 3.265625,-5.34375 3.125,-5.359375 2.953125,-5.359375 Z m 0,0"
             id="id-34c6f46e-97ac-47f1-8d82-c17e2ee55519"
             style="fill:#404040;fill-opacity:1" />
        </g>
      </g>
      <g
         fill="#000000"
         fill-opacity="1"
         id="id-6ae78b88-40e1-483c-a43e-c410b013aa9a"
         transform="translate(-287.895,-128.202)"
         style="fill:#404040;fill-opacity:1">
        <g
           transform="translate(287.098,146.72)"
           id="g9940"
           style="fill:#404040;fill-opacity:1">
          <path
             d="M 3.078125,-5.375 C 2.46875,-5.375 2,-5.078125 1.640625,-4.5625 L 1.578125,-5.25 H 0.796875 V 2.109375 L 1.6875,2 V -0.515625 C 2,-0.109375 2.421875,0.125 2.953125,0.125 c 1.1875,0 1.828125,-1.078125 1.828125,-2.765625 0,-1.71875 -0.546875,-2.734375 -1.703125,-2.734375 z m -0.34375,4.78125 c -0.4375,0 -0.78125,-0.25 -1.046875,-0.640625 V -3.875 c 0.28125,-0.4375 0.640625,-0.796875 1.140625,-0.796875 0.671875,0 1.015625,0.578125 1.015625,2.046875 0,1.421875 -0.40625,2.03125 -1.109375,2.03125 z m 0,0"
             id="id-7db5e59d-c567-417f-ad66-ffc286f3ae0a"
             style="fill:#404040;fill-opacity:1" />
        </g>
        <g
           transform="translate(292.378,146.72)"
           id="g5136"
           style="fill:#404040;fill-opacity:1">
          <path
             d="m 2.625,-5.375 c -1.328125,0 -2.140625,1.015625 -2.140625,2.75 0,1.734375 0.796875,2.75 2.140625,2.75 1.328125,0 2.125,-1.046875 2.125,-2.75 0,-1.796875 -0.78125,-2.75 -2.125,-2.75 z m 0,0.71875 c 0.765625,0 1.1875,0.59375 1.1875,2.03125 0,1.421875 -0.421875,2.03125 -1.1875,2.03125 -0.765625,0 -1.1875,-0.609375 -1.1875,-2.03125 0,-1.4375 0.421875,-2.03125 1.1875,-2.03125 z m 0,0"
             id="id-ce7f6008-9bb8-4839-87b9-5e1fee18d99f"
             style="fill:#404040;fill-opacity:1" />
        </g>
        <g
           transform="translate(297.618,146.72)"
           id="g2924"
           style="fill:#404040;fill-opacity:1">
          <path
             d="m 2.953125,-0.8125 c -0.21875,0.140625 -0.390625,0.1875 -0.625,0.1875 -0.390625,0 -0.5625,-0.21875 -0.5625,-0.65625 V -4.5625 H 2.8125 L 2.90625,-5.25 H 1.765625 V -6.5625 L 0.875,-6.453125 V -5.25 H 0.109375 v 0.6875 H 0.875 v 3.28125 c 0,0.875 0.453125,1.40625 1.3125,1.40625 0.421875,0 0.78125,-0.125 1.109375,-0.359375 z m 0,0"
             id="id-add99865-9ac6-4394-b194-1596d6c300e9"
             style="fill:#404040;fill-opacity:1" />
        </g>
      </g>
      <g
         fill="#000000"
         fill-opacity="1"
         id="id-481e2596-df4b-4d81-93f0-a38e6d82673e"
         transform="translate(-287.895,-128.202)"
         style="fill:#404040;fill-opacity:1">
        <g
           transform="translate(300.747,146.72)"
           id="g7552"
           style="fill:#404040;fill-opacity:1">
          <path
             d="m 4.484375,-2.78125 c 0,-1.671875 -0.703125,-2.59375 -1.96875,-2.59375 -1.265625,0 -2.03125,1.109375 -2.03125,2.796875 C 0.484375,-0.875 1.28125,0.125 2.625,0.125 c 0.6875,0 1.234375,-0.25 1.6875,-0.65625 L 3.921875,-1.0625 c -0.40625,0.3125 -0.75,0.46875 -1.234375,0.46875 -0.71875,0 -1.203125,-0.4375 -1.265625,-1.71875 H 4.46875 c 0,-0.125 0.015625,-0.296875 0.015625,-0.46875 z m -0.875,-0.171875 h -2.1875 C 1.46875,-4.234375 1.90625,-4.6875 2.53125,-4.6875 c 0.734375,0 1.078125,0.5625 1.078125,1.640625 z m 0,0"
             id="id-8300c6dc-c681-4ec2-b9b2-1e92d6c47e4c"
             style="fill:#404040;fill-opacity:1" />
        </g>
        <g
           transform="translate(305.668,146.72)"
           id="g3314"
           style="fill:#404040;fill-opacity:1">
          <path
             d="M 3.140625,-5.375 C 2.46875,-5.375 2,-5 1.65625,-4.453125 L 1.578125,-5.25 H 0.796875 V 0 H 1.6875 v -3.734375 c 0.34375,-0.5625 0.71875,-0.9375 1.21875,-0.9375 0.4375,0 0.671875,0.265625 0.671875,0.96875 V 0 H 4.46875 v -3.8125 c 0,-0.96875 -0.484375,-1.5625 -1.328125,-1.5625 z m 0,0"
             id="id-6b8a6fde-93fd-4a14-9754-5917024b13da"
             style="fill:#404040;fill-opacity:1" />
        </g>
        <g
           transform="translate(310.899,146.72)"
           id="g457"
           style="fill:#404040;fill-opacity:1">
          <path
             d="m 2.953125,-0.8125 c -0.21875,0.140625 -0.390625,0.1875 -0.625,0.1875 -0.390625,0 -0.5625,-0.21875 -0.5625,-0.65625 V -4.5625 H 2.8125 L 2.90625,-5.25 H 1.765625 V -6.5625 L 0.875,-6.453125 V -5.25 H 0.109375 v 0.6875 H 0.875 v 3.28125 c 0,0.875 0.453125,1.40625 1.3125,1.40625 0.421875,0 0.78125,-0.125 1.109375,-0.359375 z m 0,0"
             id="id-11108f48-5346-40ea-8874-8b5d47ad5809"
             style="fill:#404040;fill-opacity:1" />
        </g>
        <g
           transform="translate(314.166,146.72)"
           id="g186"
           style="fill:#404040;fill-opacity:1">
          <path
             d="m 1.25,-7.71875 c -0.359375,0 -0.59375,0.25 -0.59375,0.59375 0,0.328125 0.234375,0.578125 0.59375,0.578125 0.359375,0 0.578125,-0.25 0.578125,-0.578125 0,-0.34375 -0.21875,-0.59375 -0.578125,-0.59375 z M 1.6875,-5.25 H 0.796875 V 0 H 1.6875 Z m 0,0"
             id="id-c2818cea-f1d8-413e-b81a-f553e2511556"
             style="fill:#404040;fill-opacity:1" />
        </g>
        <g
           transform="translate(316.667,146.72)"
           id="g410"
           style="fill:#404040;fill-opacity:1">
          <path
             d="m 4.03125,-1.203125 v -2.46875 C 4.03125,-4.75 3.515625,-5.375 2.328125,-5.375 c -0.53125,0 -1.078125,0.125 -1.625,0.359375 l 0.21875,0.625 c 0.46875,-0.171875 0.875,-0.28125 1.265625,-0.28125 0.671875,0 0.96875,0.3125 0.96875,1.046875 v 0.4375 h -0.6875 c -1.359375,0 -2.109375,0.609375 -2.109375,1.71875 0,0.953125 0.5625,1.59375 1.515625,1.59375 0.578125,0 1.078125,-0.25 1.421875,-0.796875 0.125,0.515625 0.4375,0.71875 0.921875,0.796875 l 0.1875,-0.609375 C 4.171875,-0.59375 4.03125,-0.75 4.03125,-1.203125 Z m -1.953125,0.65625 c -0.5,0 -0.796875,-0.328125 -0.796875,-0.96875 0,-0.734375 0.4375,-1.09375 1.296875,-1.09375 H 3.15625 v 1.25 c -0.25,0.53125 -0.59375,0.8125 -1.078125,0.8125 z m 0,0"
             id="id-6be07b2f-98c2-4380-9d46-3fae87f6d329"
             style="fill:#404040;fill-opacity:1" />
        </g>
      </g>
      <g
         fill="#000000"
         fill-opacity="1"
         id="id-81bc1830-543c-437b-bbea-86fa4e810d2e"
         transform="translate(-287.895,-128.202)"
         style="fill:#404040;fill-opacity:1">
        <g
           transform="translate(321.459,146.72)"
           id="g5467"
           style="fill:#404040;fill-opacity:1">
          <path
             d="m 1.78125,0.125 c 0.265625,0 0.515625,-0.078125 0.6875,-0.171875 L 2.25,-0.671875 C 2.1875,-0.640625 2.078125,-0.625 1.96875,-0.625 1.75,-0.625 1.65625,-0.75 1.65625,-1 V -7.46875 L 0.75,-7.359375 v 6.390625 c 0,0.703125 0.421875,1.09375 1.03125,1.09375 z m 0,0"
             id="id-9a01a56f-6429-43ae-bdf2-db5b7c27d9d2"
             style="fill:#404040;fill-opacity:1" />
        </g>
      </g>
    </g>
    <path
       style="fill:none;fill-opacity:1;stroke:#404040;stroke-width:2;stroke-dasharray:none;marker-end:url(#RoundedArrow)"
       d="m 99.220315,183.45208 c 3.768185,-0.8807 7.409015,-2.30442 10.775055,-4.2135 5.69063,-3.22749 10.58006,-7.85563 14.11492,-13.36061"
       id="path11"
       inkscape:path-effect="#path-effect12"
       inkscape:original-d="m 99.220315,183.45208 c 3.591685,-1.43712 7.183365,-2.9431 10.775055,-4.2135 3.59168,-1.2704 9.40994,-8.82855 14.11492,-13.36061"
       transform="translate(0,2.6458334)" />
    <path
       style="fill:none;fill-opacity:1;stroke:#404040;stroke-width:2;stroke-dasharray:none;marker-end:url(#marker13)"
       d="m 155.03647,196.63802 c 3.54933,-2.53517 6.61132,-5.75006 8.97066,-9.41862 3.92633,-6.10508 5.85571,-13.47212 5.42593,-20.71804"
       id="path12"
       inkscape:path-effect="#path-effect13"
       inkscape:original-d="m 155.03647,196.63802 c 2.99022,-2.91168 5.98044,-6.16515 8.97066,-9.41862 2.99023,-3.25347 3.61729,-13.81203 5.42593,-20.71804"
       transform="translate(0,1.5875)" />
  </g>
</svg>
