<?xml version="1.0" encoding="UTF-8" standalone="no"?>
<!-- Created with Inkscape (http://www.inkscape.org/) -->

<svg
   width="465.05609mm"
   height="109.01046mm"
   viewBox="0 0 465.05608 109.01047"
   version="1.1"
   id="svg1"
   inkscape:version="1.3.2 (091e20ef0f, 2023-11-25, custom)"
   sodipodi:docname="fermionicTransition.svg"
   xmlns:inkscape="http://www.inkscape.org/namespaces/inkscape"
   xmlns:sodipodi="http://sodipodi.sourceforge.net/DTD/sodipodi-0.dtd"
   xmlns="http://www.w3.org/2000/svg"
   xmlns:svg="http://www.w3.org/2000/svg"
   xmlns:ns3="http://www.iki.fi/pav/software/textext/">
  <sodipodi:namedview
     id="namedview1"
     pagecolor="#ffffff"
     bordercolor="#000000"
     borderopacity="0.25"
     inkscape:showpageshadow="2"
     inkscape:pageopacity="0.0"
     inkscape:pagecheckerboard="0"
     inkscape:deskcolor="#d1d1d1"
     inkscape:document-units="mm"
     inkscape:zoom="0.57960557"
     inkscape:cx="960.99836"
     inkscape:cy="249.30747"
     inkscape:window-width="1914"
     inkscape:window-height="1044"
     inkscape:window-x="0"
     inkscape:window-y="30"
     inkscape:window-maximized="1"
     inkscape:current-layer="layer1"
     showgrid="false" />
  <defs
     id="defs1">
    <marker
       style="overflow:visible"
       id="RoundedArrow"
       refX="0"
       refY="0"
       orient="auto-start-reverse"
       inkscape:stockid="Rounded arrow"
       markerWidth="0.5"
       markerHeight="0.5"
       viewBox="0 0 1 1"
       inkscape:isstock="true"
       inkscape:collect="always"
       preserveAspectRatio="xMidYMid">
      <path
         transform="scale(0.7)"
         d="m -0.21114562,-4.1055728 6.42229122,3.21114561 a 1,1 90 0 1 0,1.78885438 L -0.21114562,4.1055728 A 1.236068,1.236068 31.717474 0 1 -2,3 v -6 a 1.236068,1.236068 148.28253 0 1 1.78885438,-1.1055728 z"
         style="fill:context-stroke;fill-rule:evenodd;stroke:none"
         id="path8" />
    </marker>
    <inkscape:path-effect
       effect="spiro"
       id="path-effect28"
       is_visible="true"
       lpeversion="1" />
    <rect
       x="184.04617"
       y="551.69043"
       width="568.76654"
       height="278.4563"
       id="rect4" />
    <marker
       style="overflow:visible"
       id="RoundedArrow-7"
       refX="0"
       refY="0"
       orient="auto-start-reverse"
       inkscape:stockid="Rounded arrow"
       markerWidth="0.5"
       markerHeight="0.5"
       viewBox="0 0 1 1"
       inkscape:isstock="true"
       inkscape:collect="always"
       preserveAspectRatio="xMidYMid">
      <path
         transform="scale(0.7)"
         d="m -0.21114562,-4.1055728 6.42229122,3.21114561 a 1,1 90 0 1 0,1.78885438 L -0.21114562,4.1055728 A 1.236068,1.236068 31.717474 0 1 -2,3 v -6 a 1.236068,1.236068 148.28253 0 1 1.78885438,-1.1055728 z"
         style="fill:context-stroke;fill-rule:evenodd;stroke:none"
         id="path8-5" />
    </marker>
    <inkscape:path-effect
       effect="spiro"
       id="path-effect28-3"
       is_visible="true"
       lpeversion="1" />
  </defs>
  <g
     inkscape:label="Layer 1"
     inkscape:groupmode="layer"
     id="layer1"
     transform="translate(131.99549,-13.707439)">
    <circle
       style="fill:none;stroke:#4c7579;stroke-width:20;stroke-dasharray:none;stroke-opacity:1"
       id="path1"
       cx="-34.404961"
       cy="68.212669"
       r="44.50523" />
    <circle
       style="fill:none;stroke:#4c7579;stroke-width:8.76827;stroke-dasharray:none;stroke-opacity:1"
       id="circle1"
       cx="235.47011"
       cy="68.212669"
       r="49.800217" />
    <circle
       style="fill:none;stroke:#4c7579;stroke-width:8.76827;stroke-dasharray:none;stroke-opacity:1"
       id="circle2"
       cx="235.47011"
       cy="68.212669"
       r="26.48193" />
    <circle
       style="fill:none;stroke:#202020;stroke-width:0.876827;stroke-dasharray:2.63048, 2.63048;stroke-dashoffset:0;stroke-opacity:1"
       id="circle3"
       cx="235.47011"
       cy="68.212669"
       r="39.023388" />
    <circle
       style="fill:none;stroke:#202020;stroke-width:1;stroke-dasharray:3, 3;stroke-dashoffset:0;stroke-opacity:1"
       id="circle4"
       cx="-34.404984"
       cy="68.212669"
       r="44.50523" />
    <text
       xml:space="preserve"
       transform="matrix(0.26458333,0,0,0.26458333,-73.035191,6.416729)"
       id="text4"
       style="font-weight:500;font-stretch:semi-condensed;font-size:18.6667px;font-family:'Noto Sans';-inkscape-font-specification:'Noto Sans, Medium Semi-Condensed';text-align:justify;white-space:pre;shape-inside:url(#rect4);display:inline;fill:none;stroke:#202020;stroke-width:3.77953;stroke-dasharray:11.3386, 11.3386;stroke-dashoffset:0;stroke-opacity:1" />
    <g
       transform="matrix(1.78005,0,0,1.78005,296.62965,61.885815)"
       ns3:version="1.10.2"
       ns3:texconverter="xelatex"
       ns3:pdfconverter="inkscape"
       ns3:text="$\\kappa &lt; 0$"
       ns3:preamble="/home/storage/.config/inkscape/extensions/textext/default_packages.tex"
       ns3:scale="5.04580866786744"
       ns3:alignment="middle center"
       ns3:stroke-to-path="0"
       ns3:inkscapeversion="1.3.2"
       id="g9863"
       ns3:jacobian_sqrt="1.78005">
      <defs
         id="id-90ccf8cd-cef5-4437-9971-1a8d3c4a073a">
        <g
           id="id-6780b77f-49be-472d-838d-335a78c0d644">
          <g
             id="id-6218d10d-ded3-4e6d-83af-3bce4a4328ba">
            <path
               d="M 0.625,0 H 1.53125 L 2,-3.34375 C 2.15625,-4.453125 2.046875,-5 1.9375,-5.359375 L 1.109375,-5.28125 c 0.09375,0.453125 0.125,0.921875 0.03125,1.6875 z M 4.53125,0.109375 4.890625,-0.5625 C 4.515625,-0.75 4.375,-0.890625 4.09375,-1.296875 l -1.0625,-1.5 2.09375,-2.125 -0.65625,-0.453125 -2.5,2.5625 1.484375,2.09375 c 0.234375,0.359375 0.5,0.671875 1.078125,0.828125 z m 0,0"
               id="id-854c1099-90e1-4697-87d7-0054cb748550" />
          </g>
          <g
             id="id-1c736625-d874-44af-b94a-4af9600d9c10">
            <path
               d="M 4.15625,-4.96875 0.5,-3.265625 v 0.9375 L 4.15625,-0.625 4.484375,-1.359375 1.21875,-2.796875 4.484375,-4.203125 Z m 0,0"
               id="id-1f239302-75c5-4fe4-ad06-26ce6c849b46" />
          </g>
          <g
             id="id-1996be7d-fef6-4174-90b2-ab9bb9559154">
            <path
               d="M 2.796875,-6.265625 C 3.625,-6.265625 4.0625,-5.5 4.0625,-3.4375 c 0,2.078125 -0.4375,2.828125 -1.265625,2.828125 -0.84375,0 -1.28125,-0.75 -1.28125,-2.828125 0,-2.0625 0.4375,-2.828125 1.28125,-2.828125 z m 0,-0.71875 c -1.5,0 -2.234375,1.21875 -2.234375,3.546875 0,2.328125 0.734375,3.5625 2.234375,3.5625 1.484375,0 2.234375,-1.234375 2.234375,-3.5625 0,-2.3125 -0.75,-3.546875 -2.234375,-3.546875 z m 0,0"
               id="id-b43c0f26-aa09-4eee-ab11-32c7af290bce" />
          </g>
        </g>
      </defs>
      <g
         fill="#000000"
         fill-opacity="1"
         id="id-40cefb06-f514-4744-a529-e55416ede6a2"
         transform="translate(-149.337,-127.781)">
        <g
           transform="translate(148.712,134.765)"
           id="g4481">
          <path
             d="M 0.625,0 H 1.53125 L 2,-3.34375 C 2.15625,-4.453125 2.046875,-5 1.9375,-5.359375 L 1.109375,-5.28125 c 0.09375,0.453125 0.125,0.921875 0.03125,1.6875 z M 4.53125,0.109375 4.890625,-0.5625 C 4.515625,-0.75 4.375,-0.890625 4.09375,-1.296875 l -1.0625,-1.5 2.09375,-2.125 -0.65625,-0.453125 -2.5,2.5625 1.484375,2.09375 c 0.234375,0.359375 0.5,0.671875 1.078125,0.828125 z m 0,0"
             id="id-e8ac5d82-a7a0-44ef-8c2b-7f27196471dd" />
        </g>
      </g>
      <g
         fill="#000000"
         fill-opacity="1"
         id="id-d76944ee-b0a2-4084-ad3e-278f4083fcca"
         transform="translate(-149.337,-127.781)">
        <g
           transform="translate(157.021,134.765)"
           id="g3667">
          <path
             d="M 4.15625,-4.96875 0.5,-3.265625 v 0.9375 L 4.15625,-0.625 4.484375,-1.359375 1.21875,-2.796875 4.484375,-4.203125 Z m 0,0"
             id="id-2c1d6bcf-0b9b-4fcc-9223-5b498dd33145" />
        </g>
      </g>
      <g
         fill="#000000"
         fill-opacity="1"
         id="id-680ab57b-298e-44fc-aa3c-e9b19c8e100c"
         transform="translate(-149.337,-127.781)">
        <g
           transform="translate(164.772,134.765)"
           id="g236">
          <path
             d="M 2.796875,-6.265625 C 3.625,-6.265625 4.0625,-5.5 4.0625,-3.4375 c 0,2.078125 -0.4375,2.828125 -1.265625,2.828125 -0.84375,0 -1.28125,-0.75 -1.28125,-2.828125 0,-2.0625 0.4375,-2.828125 1.28125,-2.828125 z m 0,-0.71875 c -1.5,0 -2.234375,1.21875 -2.234375,3.546875 0,2.328125 0.734375,3.5625 2.234375,3.5625 1.484375,0 2.234375,-1.234375 2.234375,-3.5625 0,-2.3125 -0.75,-3.546875 -2.234375,-3.546875 z m 0,0"
             id="id-70e254e9-92b3-4006-92c8-ae968f0861d8" />
        </g>
      </g>
    </g>
    <g
       transform="matrix(1.78005,0,0,1.78005,-131.99549,61.885815)"
       ns3:version="1.10.2"
       ns3:texconverter="xelatex"
       ns3:pdfconverter="inkscape"
       ns3:text="$\\kappa &gt; 0$"
       ns3:preamble="/home/storage/.config/inkscape/extensions/textext/default_packages.tex"
       ns3:scale="5.04580866786744"
       ns3:alignment="middle center"
       ns3:stroke-to-path="0"
       ns3:inkscapeversion="1.3.2"
       id="g28"
       ns3:jacobian_sqrt="1.78005">
      <defs
         id="id-96284b3e-e0f2-4908-8d1a-6522a37a7bee">
        <g
           id="id-726d272d-946b-4c7e-88ce-86c35297d404">
          <g
             id="id-669c8293-31a3-4aad-ab6b-9e0701239ba6">
            <path
               d="M 0.625,0 H 1.53125 L 2,-3.34375 C 2.15625,-4.453125 2.046875,-5 1.9375,-5.359375 L 1.109375,-5.28125 c 0.09375,0.453125 0.125,0.921875 0.03125,1.6875 z M 4.53125,0.109375 4.890625,-0.5625 C 4.515625,-0.75 4.375,-0.890625 4.09375,-1.296875 l -1.0625,-1.5 2.09375,-2.125 -0.65625,-0.453125 -2.5,2.5625 1.484375,2.09375 c 0.234375,0.359375 0.5,0.671875 1.078125,0.828125 z m 0,0"
               id="id-2c30ff97-634b-451d-a57b-1eb9681bb59d" />
          </g>
          <g
             id="id-e355f266-09cf-40f5-a8bb-809a4e821cde">
            <path
               d="M 0.828125,-4.96875 0.5,-4.203125 3.765625,-2.796875 0.5,-1.359375 0.828125,-0.625 4.484375,-2.328125 v -0.9375 z m 0,0"
               id="id-33d99fe3-de64-4cab-88df-8adeb42cbaf8" />
          </g>
          <g
             id="id-23b574e2-cfef-4a4d-b7f6-985a1eff5442">
            <path
               d="M 2.796875,-6.265625 C 3.625,-6.265625 4.0625,-5.5 4.0625,-3.4375 c 0,2.078125 -0.4375,2.828125 -1.265625,2.828125 -0.84375,0 -1.28125,-0.75 -1.28125,-2.828125 0,-2.0625 0.4375,-2.828125 1.28125,-2.828125 z m 0,-0.71875 c -1.5,0 -2.234375,1.21875 -2.234375,3.546875 0,2.328125 0.734375,3.5625 2.234375,3.5625 1.484375,0 2.234375,-1.234375 2.234375,-3.5625 0,-2.3125 -0.75,-3.546875 -2.234375,-3.546875 z m 0,0"
               id="id-b9d083e6-4f3f-49de-8500-c72ad07efaa9" />
          </g>
        </g>
      </defs>
      <g
         fill="#000000"
         fill-opacity="1"
         id="id-37058043-4fb7-47b6-b532-398e85db6e1d"
         transform="translate(-149.337,-127.781)">
        <g
           transform="translate(148.712,134.765)"
           id="g5291">
          <path
             d="M 0.625,0 H 1.53125 L 2,-3.34375 C 2.15625,-4.453125 2.046875,-5 1.9375,-5.359375 L 1.109375,-5.28125 c 0.09375,0.453125 0.125,0.921875 0.03125,1.6875 z M 4.53125,0.109375 4.890625,-0.5625 C 4.515625,-0.75 4.375,-0.890625 4.09375,-1.296875 l -1.0625,-1.5 2.09375,-2.125 -0.65625,-0.453125 -2.5,2.5625 1.484375,2.09375 c 0.234375,0.359375 0.5,0.671875 1.078125,0.828125 z m 0,0"
             id="id-6471c678-f078-4120-8993-9aedfbd18730" />
        </g>
      </g>
      <g
         fill="#000000"
         fill-opacity="1"
         id="id-0e7a8d3c-8a77-4363-8f0a-427f1300fd8a"
         transform="translate(-149.337,-127.781)">
        <g
           transform="translate(157.021,134.765)"
           id="g7226">
          <path
             d="M 0.828125,-4.96875 0.5,-4.203125 3.765625,-2.796875 0.5,-1.359375 0.828125,-0.625 4.484375,-2.328125 v -0.9375 z m 0,0"
             id="id-790a489e-8240-4b39-8d44-93c2fb7765a3" />
        </g>
      </g>
      <g
         fill="#000000"
         fill-opacity="1"
         id="id-9c763ad2-17d1-47b8-9789-868dc93edb97"
         transform="translate(-149.337,-127.781)">
        <g
           transform="translate(164.772,134.765)"
           id="g5598">
          <path
             d="M 2.796875,-6.265625 C 3.625,-6.265625 4.0625,-5.5 4.0625,-3.4375 c 0,2.078125 -0.4375,2.828125 -1.265625,2.828125 -0.84375,0 -1.28125,-0.75 -1.28125,-2.828125 0,-2.0625 0.4375,-2.828125 1.28125,-2.828125 z m 0,-0.71875 c -1.5,0 -2.234375,1.21875 -2.234375,3.546875 0,2.328125 0.734375,3.5625 2.234375,3.5625 1.484375,0 2.234375,-1.234375 2.234375,-3.5625 0,-2.3125 -0.75,-3.546875 -2.234375,-3.546875 z m 0,0"
             id="id-88e9e7ac-a0f8-46c7-a7eb-c0be4dad3a58" />
        </g>
      </g>
    </g>
    <g
       transform="matrix(1.5875,0,0,1.5875,-129.86112,16.20108)"
       ns3:version="1.10.2"
       ns3:texconverter="xelatex"
       ns3:pdfconverter="inkscape"
       ns3:text="Gapless"
       ns3:preamble="/home/storage/.config/inkscape/extensions/textext/default_packages.tex"
       ns3:scale="4.5"
       ns3:alignment="middle center"
       ns3:stroke-to-path="0"
       ns3:inkscapeversion="1.3.2"
       id="g6594"
       ns3:jacobian_sqrt="1.5875">
      <defs
         id="id-853df961-629c-4154-b99a-1c903e2d6619">
        <g
           id="id-cb99fe9e-f5b3-42df-9fa9-cfe87b933bc2">
          <g
             id="id-618ba267-1c88-48db-b4a8-14019da62102">
            <path
               d="M 6.609375,-2.90625 V -3.578125 H 3.75 v 0.78125 h 1.984375 v 0.125 C 5.734375,-1.5 4.875,-0.6875 3.625,-0.6875 c -1.4375,0 -2.3125,-1.09375 -2.3125,-2.859375 0,-1.75 0.875,-2.78125 2.3125,-2.78125 0.984375,0 1.71875,0.53125 2.015625,1.484375 H 6.5625 C 6.296875,-6.234375 5.140625,-7.140625 3.625,-7.140625 c -1.96875,0 -3.21875,1.390625 -3.21875,3.59375 0,2.234375 1.265625,3.65625 3.21875,3.65625 C 5.5,0.109375 6.609375,-1 6.609375,-2.90625 Z m 0,0"
               id="id-cb35f6ef-1465-43fc-88e3-8a1788242d40" />
          </g>
          <g
             id="id-d71138e5-a48f-4207-98fd-b1bfd78c0e00">
            <path
               d="m 2.21875,-0.625 c -0.609375,0 -1.015625,-0.328125 -1.015625,-0.8125 0,-0.46875 0.390625,-0.765625 1.078125,-0.8125 L 3.625,-2.34375 v 0.421875 C 3.625,-1.1875 3.015625,-0.625 2.21875,-0.625 Z m -0.1875,0.71875 c 0.6875,0 1.328125,-0.390625 1.625,-0.96875 H 3.671875 V 0 h 0.8125 v -3.5 c 0,-1 -0.75,-1.65625 -1.9375,-1.65625 -1.203125,0 -1.953125,0.671875 -2.015625,1.546875 H 1.359375 C 1.453125,-4.09375 1.875,-4.40625 2.515625,-4.40625 c 0.703125,0 1.109375,0.375 1.109375,0.984375 V -3 l -1.4375,0.09375 c -1.171875,0.0625 -1.84375,0.609375 -1.84375,1.46875 0,0.921875 0.671875,1.53125 1.6875,1.53125 z m 0,0"
               id="id-c3716ae9-5352-46d6-ad36-f2dc5e5d8410" />
          </g>
          <g
             id="id-e69f0abf-12f0-4d15-b442-88f3eb5d1a05">
            <path
               d="m 3.015625,-5.15625 c -0.75,0 -1.328125,0.375 -1.640625,0.953125 H 1.359375 V -5.0625 h -0.8125 v 6.75 h 0.84375 v -2.515625 h 0.03125 c 0.296875,0.5625 0.875,0.921875 1.609375,0.921875 1.265625,0 2.140625,-1.03125 2.140625,-2.625 0,-1.59375 -0.875,-2.625 -2.15625,-2.625 z m -0.171875,4.5 c -0.875,0 -1.453125,-0.75 -1.453125,-1.875 0,-1.125 0.578125,-1.875 1.453125,-1.875 0.90625,0 1.46875,0.734375 1.46875,1.875 0,1.15625 -0.5625,1.875 -1.46875,1.875 z m 0,0"
               id="id-57b2966a-6518-4760-af9e-6f89d6417547" />
          </g>
          <g
             id="id-1d0dee6f-8cb0-4c51-9919-68354dffcd1e">
            <path
               d="M 0.59375,0 H 1.4375 V -7.03125 H 0.59375 Z m 0,0"
               id="id-515b6301-7f33-4782-9793-8e5024fb463a" />
          </g>
          <g
             id="id-20252a41-af50-4b7c-a158-ac8f94e81806">
            <path
               d="m 2.578125,-4.421875 c 0.796875,0 1.328125,0.609375 1.34375,1.453125 h -2.75 c 0.0625,-0.84375 0.609375,-1.453125 1.40625,-1.453125 z m 1.328125,2.96875 c -0.140625,0.484375 -0.609375,0.8125 -1.25,0.8125 C 1.75,-0.640625 1.171875,-1.28125 1.171875,-2.25 v -0.046875 h 3.625 V -2.625 c 0,-1.53125 -0.828125,-2.53125 -2.203125,-2.53125 -1.390625,0 -2.296875,1.078125 -2.296875,2.640625 0,1.59375 0.890625,2.609375 2.34375,2.609375 1.09375,0 1.953125,-0.65625 2.09375,-1.546875 z m 0,0"
               id="id-8f1e6cdd-32f9-4711-9e64-94d1ab5f258f" />
          </g>
          <g
             id="id-dc02fafa-4fa9-4cc2-954a-0e113fa066f9">
            <path
               d="m 0.46875,-3.671875 c 0,0.703125 0.4375,1.15625 1.328125,1.390625 L 2.6875,-2.0625 c 0.5625,0.15625 0.765625,0.34375 0.765625,0.703125 0,0.46875 -0.421875,0.75 -1.109375,0.75 -0.671875,0 -1.078125,-0.28125 -1.171875,-0.796875 h -0.84375 c 0.078125,0.890625 0.859375,1.5 1.96875,1.5 1.1875,0 2.015625,-0.625 2.015625,-1.515625 0,-0.734375 -0.375,-1.109375 -1.390625,-1.375 l -0.78125,-0.1875 c -0.578125,-0.140625 -0.84375,-0.375 -0.84375,-0.71875 0,-0.453125 0.40625,-0.75 1.03125,-0.75 0.609375,0 1.015625,0.296875 1.0625,0.78125 h 0.8125 C 4.171875,-4.53125 3.390625,-5.15625 2.34375,-5.15625 c -1.109375,0 -1.875,0.625 -1.875,1.484375 z m 0,0"
               id="id-f6db2ab4-8a89-4497-b7fb-868b12c3c571" />
          </g>
        </g>
      </defs>
      <g
         fill="#000000"
         fill-opacity="1"
         id="id-99e2829a-5267-46c6-9254-32e3214089c9"
         transform="translate(-149.118,-127.624)">
        <g
           transform="translate(148.712,134.765)"
           id="g1220">
          <path
             d="M 6.609375,-2.90625 V -3.578125 H 3.75 v 0.78125 h 1.984375 v 0.125 C 5.734375,-1.5 4.875,-0.6875 3.625,-0.6875 c -1.4375,0 -2.3125,-1.09375 -2.3125,-2.859375 0,-1.75 0.875,-2.78125 2.3125,-2.78125 0.984375,0 1.71875,0.53125 2.015625,1.484375 H 6.5625 C 6.296875,-6.234375 5.140625,-7.140625 3.625,-7.140625 c -1.96875,0 -3.21875,1.390625 -3.21875,3.59375 0,2.234375 1.265625,3.65625 3.21875,3.65625 C 5.5,0.109375 6.609375,-1 6.609375,-2.90625 Z m 0,0"
             id="id-ae537f01-815e-4d6c-b63d-37fbcd702c5b" />
        </g>
        <g
           transform="translate(155.756,134.765)"
           id="g4278">
          <path
             d="m 2.21875,-0.625 c -0.609375,0 -1.015625,-0.328125 -1.015625,-0.8125 0,-0.46875 0.390625,-0.765625 1.078125,-0.8125 L 3.625,-2.34375 v 0.421875 C 3.625,-1.1875 3.015625,-0.625 2.21875,-0.625 Z m -0.1875,0.71875 c 0.6875,0 1.328125,-0.390625 1.625,-0.96875 H 3.671875 V 0 h 0.8125 v -3.5 c 0,-1 -0.75,-1.65625 -1.9375,-1.65625 -1.203125,0 -1.953125,0.671875 -2.015625,1.546875 H 1.359375 C 1.453125,-4.09375 1.875,-4.40625 2.515625,-4.40625 c 0.703125,0 1.109375,0.375 1.109375,0.984375 V -3 l -1.4375,0.09375 c -1.171875,0.0625 -1.84375,0.609375 -1.84375,1.46875 0,0.921875 0.671875,1.53125 1.6875,1.53125 z m 0,0"
             id="id-618f0437-7536-4173-97b4-5057dc8b9ec1" />
        </g>
        <g
           transform="translate(160.757,134.765)"
           id="g5469">
          <path
             d="m 3.015625,-5.15625 c -0.75,0 -1.328125,0.375 -1.640625,0.953125 H 1.359375 V -5.0625 h -0.8125 v 6.75 h 0.84375 v -2.515625 h 0.03125 c 0.296875,0.5625 0.875,0.921875 1.609375,0.921875 1.265625,0 2.140625,-1.03125 2.140625,-2.625 0,-1.59375 -0.875,-2.625 -2.15625,-2.625 z m -0.171875,4.5 c -0.875,0 -1.453125,-0.75 -1.453125,-1.875 0,-1.125 0.578125,-1.875 1.453125,-1.875 0.90625,0 1.46875,0.734375 1.46875,1.875 0,1.15625 -0.5625,1.875 -1.46875,1.875 z m 0,0"
             id="id-e2c6f46d-df3a-47d7-b16c-0c42f5602c17" />
        </g>
        <g
           transform="translate(166.226,134.765)"
           id="g6153">
          <path
             d="M 0.59375,0 H 1.4375 V -7.03125 H 0.59375 Z m 0,0"
             id="id-878b6055-0925-4ff2-a661-54928056c65a" />
        </g>
        <g
           transform="translate(168.259,134.765)"
           id="g8224">
          <path
             d="m 2.578125,-4.421875 c 0.796875,0 1.328125,0.609375 1.34375,1.453125 h -2.75 c 0.0625,-0.84375 0.609375,-1.453125 1.40625,-1.453125 z m 1.328125,2.96875 c -0.140625,0.484375 -0.609375,0.8125 -1.25,0.8125 C 1.75,-0.640625 1.171875,-1.28125 1.171875,-2.25 v -0.046875 h 3.625 V -2.625 c 0,-1.53125 -0.828125,-2.53125 -2.203125,-2.53125 -1.390625,0 -2.296875,1.078125 -2.296875,2.640625 0,1.59375 0.890625,2.609375 2.34375,2.609375 1.09375,0 1.953125,-0.65625 2.09375,-1.546875 z m 0,0"
             id="id-3e6fe2b8-14fc-4538-8d63-9d8bab38b92e" />
        </g>
        <g
           transform="translate(173.359,134.765)"
           id="g3730">
          <path
             d="m 0.46875,-3.671875 c 0,0.703125 0.4375,1.15625 1.328125,1.390625 L 2.6875,-2.0625 c 0.5625,0.15625 0.765625,0.34375 0.765625,0.703125 0,0.46875 -0.421875,0.75 -1.109375,0.75 -0.671875,0 -1.078125,-0.28125 -1.171875,-0.796875 h -0.84375 c 0.078125,0.890625 0.859375,1.5 1.96875,1.5 1.1875,0 2.015625,-0.625 2.015625,-1.515625 0,-0.734375 -0.375,-1.109375 -1.390625,-1.375 l -0.78125,-0.1875 c -0.578125,-0.140625 -0.84375,-0.375 -0.84375,-0.71875 0,-0.453125 0.40625,-0.75 1.03125,-0.75 0.609375,0 1.015625,0.296875 1.0625,0.78125 h 0.8125 C 4.171875,-4.53125 3.390625,-5.15625 2.34375,-5.15625 c -1.109375,0 -1.875,0.625 -1.875,1.484375 z m 0,0"
             id="id-1ddbf84b-3b52-407e-89ca-0c7cb0fe857b" />
        </g>
        <g
           transform="translate(177.992,134.765)"
           id="g8088">
          <path
             d="m 0.46875,-3.671875 c 0,0.703125 0.4375,1.15625 1.328125,1.390625 L 2.6875,-2.0625 c 0.5625,0.15625 0.765625,0.34375 0.765625,0.703125 0,0.46875 -0.421875,0.75 -1.109375,0.75 -0.671875,0 -1.078125,-0.28125 -1.171875,-0.796875 h -0.84375 c 0.078125,0.890625 0.859375,1.5 1.96875,1.5 1.1875,0 2.015625,-0.625 2.015625,-1.515625 0,-0.734375 -0.375,-1.109375 -1.390625,-1.375 l -0.78125,-0.1875 c -0.578125,-0.140625 -0.84375,-0.375 -0.84375,-0.71875 0,-0.453125 0.40625,-0.75 1.03125,-0.75 0.609375,0 1.015625,0.296875 1.0625,0.78125 h 0.8125 C 4.171875,-4.53125 3.390625,-5.15625 2.34375,-5.15625 c -1.109375,0 -1.875,0.625 -1.875,1.484375 z m 0,0"
             id="id-7209785c-4f26-42a2-9f12-efdfb0d4e6c1" />
        </g>
      </g>
    </g>
    <g
       transform="matrix(1.5875,0,0,1.5875,278.76273,16.20108)"
       ns3:version="1.10.2"
       ns3:texconverter="xelatex"
       ns3:pdfconverter="inkscape"
       ns3:text="Gapped"
       ns3:preamble="/home/storage/.config/inkscape/extensions/textext/default_packages.tex"
       ns3:scale="4.5"
       ns3:alignment="middle center"
       ns3:stroke-to-path="0"
       ns3:inkscapeversion="1.3.2"
       id="g17"
       ns3:jacobian_sqrt="1.5875">
      <defs
         id="id-32aa5676-83d1-4798-9c0a-bc75d9279671">
        <g
           id="id-fbf13992-bb3f-41ac-a5ec-dce5d40aa1f2">
          <g
             id="id-d5821fd3-ebfe-4b03-8fcd-8ca654f3b952">
            <path
               d="M 6.609375,-2.90625 V -3.578125 H 3.75 v 0.78125 h 1.984375 v 0.125 C 5.734375,-1.5 4.875,-0.6875 3.625,-0.6875 c -1.4375,0 -2.3125,-1.09375 -2.3125,-2.859375 0,-1.75 0.875,-2.78125 2.3125,-2.78125 0.984375,0 1.71875,0.53125 2.015625,1.484375 H 6.5625 C 6.296875,-6.234375 5.140625,-7.140625 3.625,-7.140625 c -1.96875,0 -3.21875,1.390625 -3.21875,3.59375 0,2.234375 1.265625,3.65625 3.21875,3.65625 C 5.5,0.109375 6.609375,-1 6.609375,-2.90625 Z m 0,0"
               id="id-fbb3bb2e-ccaa-46cb-940c-903b3ae98dac" />
          </g>
          <g
             id="id-5885a3d2-b671-4f13-9755-e76d71376bc0">
            <path
               d="m 2.21875,-0.625 c -0.609375,0 -1.015625,-0.328125 -1.015625,-0.8125 0,-0.46875 0.390625,-0.765625 1.078125,-0.8125 L 3.625,-2.34375 v 0.421875 C 3.625,-1.1875 3.015625,-0.625 2.21875,-0.625 Z m -0.1875,0.71875 c 0.6875,0 1.328125,-0.390625 1.625,-0.96875 H 3.671875 V 0 h 0.8125 v -3.5 c 0,-1 -0.75,-1.65625 -1.9375,-1.65625 -1.203125,0 -1.953125,0.671875 -2.015625,1.546875 H 1.359375 C 1.453125,-4.09375 1.875,-4.40625 2.515625,-4.40625 c 0.703125,0 1.109375,0.375 1.109375,0.984375 V -3 l -1.4375,0.09375 c -1.171875,0.0625 -1.84375,0.609375 -1.84375,1.46875 0,0.921875 0.671875,1.53125 1.6875,1.53125 z m 0,0"
               id="id-9bea7ea1-6f58-40ee-9dfe-c9a8a0f936b3" />
          </g>
          <g
             id="id-a00fe173-da18-433d-b3c9-12fb416796f4">
            <path
               d="m 3.015625,-5.15625 c -0.75,0 -1.328125,0.375 -1.640625,0.953125 H 1.359375 V -5.0625 h -0.8125 v 6.75 h 0.84375 v -2.515625 h 0.03125 c 0.296875,0.5625 0.875,0.921875 1.609375,0.921875 1.265625,0 2.140625,-1.03125 2.140625,-2.625 0,-1.59375 -0.875,-2.625 -2.15625,-2.625 z m -0.171875,4.5 c -0.875,0 -1.453125,-0.75 -1.453125,-1.875 0,-1.125 0.578125,-1.875 1.453125,-1.875 0.90625,0 1.46875,0.734375 1.46875,1.875 0,1.15625 -0.5625,1.875 -1.46875,1.875 z m 0,0"
               id="id-84bf205c-fba4-4587-be75-5213f52e5dd5" />
          </g>
          <g
             id="id-9d5d3263-c7e2-48d3-a9b1-521f3259d75f">
            <path
               d="m 2.578125,-4.421875 c 0.796875,0 1.328125,0.609375 1.34375,1.453125 h -2.75 c 0.0625,-0.84375 0.609375,-1.453125 1.40625,-1.453125 z m 1.328125,2.96875 c -0.140625,0.484375 -0.609375,0.8125 -1.25,0.8125 C 1.75,-0.640625 1.171875,-1.28125 1.171875,-2.25 v -0.046875 h 3.625 V -2.625 c 0,-1.53125 -0.828125,-2.53125 -2.203125,-2.53125 -1.390625,0 -2.296875,1.078125 -2.296875,2.640625 0,1.59375 0.890625,2.609375 2.34375,2.609375 1.09375,0 1.953125,-0.65625 2.09375,-1.546875 z m 0,0"
               id="id-b5968d54-1b7a-4e1c-9f5c-6f98ba40d4b9" />
          </g>
          <g
             id="id-8e529bad-8d6d-47f3-b3a9-a1299d2fc189">
            <path
               d="m 2.46875,0.09375 c 0.734375,0 1.3125,-0.359375 1.640625,-0.953125 H 4.125 V 0 h 0.796875 v -7.03125 h -0.84375 v 2.796875 H 4.0625 C 3.75,-4.796875 3.171875,-5.15625 2.453125,-5.15625 c -1.28125,0 -2.15625,1.03125 -2.15625,2.625 0,1.59375 0.875,2.625 2.171875,2.625 z m 0.15625,-4.5 c 0.875,0 1.453125,0.75 1.453125,1.875 0,1.140625 -0.578125,1.875 -1.453125,1.875 -0.890625,0 -1.453125,-0.71875 -1.453125,-1.875 0,-1.140625 0.5625,-1.875 1.453125,-1.875 z m 0,0"
               id="id-a3a8cebb-47de-43e5-8c5c-9b0d97d2b853" />
          </g>
        </g>
      </defs>
      <g
         fill="#000000"
         fill-opacity="1"
         id="id-cd7a2656-14a0-4239-9adf-261a98ea153a"
         transform="translate(-149.118,-127.624)">
        <g
           transform="translate(148.712,134.765)"
           id="g4560">
          <path
             d="M 6.609375,-2.90625 V -3.578125 H 3.75 v 0.78125 h 1.984375 v 0.125 C 5.734375,-1.5 4.875,-0.6875 3.625,-0.6875 c -1.4375,0 -2.3125,-1.09375 -2.3125,-2.859375 0,-1.75 0.875,-2.78125 2.3125,-2.78125 0.984375,0 1.71875,0.53125 2.015625,1.484375 H 6.5625 C 6.296875,-6.234375 5.140625,-7.140625 3.625,-7.140625 c -1.96875,0 -3.21875,1.390625 -3.21875,3.59375 0,2.234375 1.265625,3.65625 3.21875,3.65625 C 5.5,0.109375 6.609375,-1 6.609375,-2.90625 Z m 0,0"
             id="id-b889ec29-3371-407c-97d0-8473f47f9888" />
        </g>
        <g
           transform="translate(155.756,134.765)"
           id="g8266">
          <path
             d="m 2.21875,-0.625 c -0.609375,0 -1.015625,-0.328125 -1.015625,-0.8125 0,-0.46875 0.390625,-0.765625 1.078125,-0.8125 L 3.625,-2.34375 v 0.421875 C 3.625,-1.1875 3.015625,-0.625 2.21875,-0.625 Z m -0.1875,0.71875 c 0.6875,0 1.328125,-0.390625 1.625,-0.96875 H 3.671875 V 0 h 0.8125 v -3.5 c 0,-1 -0.75,-1.65625 -1.9375,-1.65625 -1.203125,0 -1.953125,0.671875 -2.015625,1.546875 H 1.359375 C 1.453125,-4.09375 1.875,-4.40625 2.515625,-4.40625 c 0.703125,0 1.109375,0.375 1.109375,0.984375 V -3 l -1.4375,0.09375 c -1.171875,0.0625 -1.84375,0.609375 -1.84375,1.46875 0,0.921875 0.671875,1.53125 1.6875,1.53125 z m 0,0"
             id="id-707aca1c-a368-47e5-932e-9137898255d1" />
        </g>
        <g
           transform="translate(160.757,134.765)"
           id="g9048">
          <path
             d="m 3.015625,-5.15625 c -0.75,0 -1.328125,0.375 -1.640625,0.953125 H 1.359375 V -5.0625 h -0.8125 v 6.75 h 0.84375 v -2.515625 h 0.03125 c 0.296875,0.5625 0.875,0.921875 1.609375,0.921875 1.265625,0 2.140625,-1.03125 2.140625,-2.625 0,-1.59375 -0.875,-2.625 -2.15625,-2.625 z m -0.171875,4.5 c -0.875,0 -1.453125,-0.75 -1.453125,-1.875 0,-1.125 0.578125,-1.875 1.453125,-1.875 0.90625,0 1.46875,0.734375 1.46875,1.875 0,1.15625 -0.5625,1.875 -1.46875,1.875 z m 0,0"
             id="id-73c735ff-5b5e-4f54-8be7-4da7829ae30a" />
        </g>
        <g
           transform="translate(166.226,134.765)"
           id="g7875">
          <path
             d="m 3.015625,-5.15625 c -0.75,0 -1.328125,0.375 -1.640625,0.953125 H 1.359375 V -5.0625 h -0.8125 v 6.75 h 0.84375 v -2.515625 h 0.03125 c 0.296875,0.5625 0.875,0.921875 1.609375,0.921875 1.265625,0 2.140625,-1.03125 2.140625,-2.625 0,-1.59375 -0.875,-2.625 -2.15625,-2.625 z m -0.171875,4.5 c -0.875,0 -1.453125,-0.75 -1.453125,-1.875 0,-1.125 0.578125,-1.875 1.453125,-1.875 0.90625,0 1.46875,0.734375 1.46875,1.875 0,1.15625 -0.5625,1.875 -1.46875,1.875 z m 0,0"
             id="id-aa6b3186-cd0d-41be-ac83-54869965417f" />
        </g>
        <g
           transform="translate(171.696,134.765)"
           id="g8181">
          <path
             d="m 2.578125,-4.421875 c 0.796875,0 1.328125,0.609375 1.34375,1.453125 h -2.75 c 0.0625,-0.84375 0.609375,-1.453125 1.40625,-1.453125 z m 1.328125,2.96875 c -0.140625,0.484375 -0.609375,0.8125 -1.25,0.8125 C 1.75,-0.640625 1.171875,-1.28125 1.171875,-2.25 v -0.046875 h 3.625 V -2.625 c 0,-1.53125 -0.828125,-2.53125 -2.203125,-2.53125 -1.390625,0 -2.296875,1.078125 -2.296875,2.640625 0,1.59375 0.890625,2.609375 2.34375,2.609375 1.09375,0 1.953125,-0.65625 2.09375,-1.546875 z m 0,0"
             id="id-a43a9229-847a-4f23-8408-ba954d342d94" />
        </g>
        <g
           transform="translate(176.797,134.765)"
           id="g8662">
          <path
             d="m 2.46875,0.09375 c 0.734375,0 1.3125,-0.359375 1.640625,-0.953125 H 4.125 V 0 h 0.796875 v -7.03125 h -0.84375 v 2.796875 H 4.0625 C 3.75,-4.796875 3.171875,-5.15625 2.453125,-5.15625 c -1.28125,0 -2.15625,1.03125 -2.15625,2.625 0,1.59375 0.875,2.625 2.171875,2.625 z m 0.15625,-4.5 c 0.875,0 1.453125,0.75 1.453125,1.875 0,1.140625 -0.578125,1.875 -1.453125,1.875 -0.890625,0 -1.453125,-0.71875 -1.453125,-1.875 0,-1.140625 0.5625,-1.875 1.453125,-1.875 z m 0,0"
             id="id-acde92ae-23cc-4d3c-aedc-7a50186056ec" />
        </g>
      </g>
    </g>
    <g
       transform="matrix(1.5875,0,0,1.5875,71.050334,41.990967)"
       ns3:version="1.10.2"
       ns3:texconverter="xelatex"
       ns3:pdfconverter="inkscape"
       ns3:text="Phase\\\\\nTransition"
       ns3:preamble="/home/storage/.config/inkscape/extensions/textext/default_packages.tex"
       ns3:scale="4.5"
       ns3:alignment="middle center"
       ns3:stroke-to-path="0"
       ns3:inkscapeversion="1.3.2"
       id="g2529"
       ns3:jacobian_sqrt="1.5875">
      <defs
         id="id-624fed3e-786f-49fb-92c9-59f0baa05148">
        <g
           id="id-b1a0058f-e9d8-44fe-86c2-9945ded15860">
          <g
             id="id-06a087f5-a1cd-4862-aafa-322738f90573">
            <path
               d="M 0.6875,-7.03125 V 0 h 0.875 V -2.5 H 3.171875 C 4.5,-2.5 5.4375,-3.4375 5.4375,-4.765625 5.4375,-6.09375 4.5,-7.03125 3.1875,-7.03125 Z M 1.5625,-6.25 h 1.390625 c 1.015625,0 1.578125,0.546875 1.578125,1.484375 0,0.9375 -0.5625,1.484375 -1.578125,1.484375 H 1.5625 Z m 0,0"
               id="id-4239b9ff-d6b0-4344-b25c-f8581550cb63" />
          </g>
          <g
             id="id-bed9cea8-bdc7-4008-b8c9-4e95c1993e45">
            <path
               d="M 0.59375,0 H 1.4375 v -2.953125 c 0,-0.875 0.53125,-1.453125 1.359375,-1.453125 C 3.59375,-4.40625 4,-3.921875 4,-3.109375 V 0 H 4.84375 V -3.265625 C 4.84375,-4.40625 4.171875,-5.15625 3.0625,-5.15625 2.296875,-5.15625 1.75,-4.8125 1.453125,-4.25 H 1.4375 V -7.03125 H 0.59375 Z m 0,0"
               id="id-1a71e2ee-fcd3-4bba-9fb0-9d11bc615892" />
          </g>
          <g
             id="id-b1e6c092-5d2a-460b-87cd-6299cf1eb71c">
            <path
               d="m 2.21875,-0.625 c -0.609375,0 -1.015625,-0.328125 -1.015625,-0.8125 0,-0.46875 0.390625,-0.765625 1.078125,-0.8125 L 3.625,-2.34375 v 0.421875 C 3.625,-1.1875 3.015625,-0.625 2.21875,-0.625 Z m -0.1875,0.71875 c 0.6875,0 1.328125,-0.390625 1.625,-0.96875 H 3.671875 V 0 h 0.8125 v -3.5 c 0,-1 -0.75,-1.65625 -1.9375,-1.65625 -1.203125,0 -1.953125,0.671875 -2.015625,1.546875 H 1.359375 C 1.453125,-4.09375 1.875,-4.40625 2.515625,-4.40625 c 0.703125,0 1.109375,0.375 1.109375,0.984375 V -3 l -1.4375,0.09375 c -1.171875,0.0625 -1.84375,0.609375 -1.84375,1.46875 0,0.921875 0.671875,1.53125 1.6875,1.53125 z m 0,0"
               id="id-d574c463-acb5-4d96-9042-6fa2504e2231" />
          </g>
          <g
             id="id-e50fdff6-171d-4e75-a1d8-014df264ad83">
            <path
               d="m 0.46875,-3.671875 c 0,0.703125 0.4375,1.15625 1.328125,1.390625 L 2.6875,-2.0625 c 0.5625,0.15625 0.765625,0.34375 0.765625,0.703125 0,0.46875 -0.421875,0.75 -1.109375,0.75 -0.671875,0 -1.078125,-0.28125 -1.171875,-0.796875 h -0.84375 c 0.078125,0.890625 0.859375,1.5 1.96875,1.5 1.1875,0 2.015625,-0.625 2.015625,-1.515625 0,-0.734375 -0.375,-1.109375 -1.390625,-1.375 l -0.78125,-0.1875 c -0.578125,-0.140625 -0.84375,-0.375 -0.84375,-0.71875 0,-0.453125 0.40625,-0.75 1.03125,-0.75 0.609375,0 1.015625,0.296875 1.0625,0.78125 h 0.8125 C 4.171875,-4.53125 3.390625,-5.15625 2.34375,-5.15625 c -1.109375,0 -1.875,0.625 -1.875,1.484375 z m 0,0"
               id="id-876000da-df57-464e-8ad1-827c21dd4d6a" />
          </g>
          <g
             id="id-ffcb55b3-10a0-4b47-8295-cf15df2fb694">
            <path
               d="m 2.578125,-4.421875 c 0.796875,0 1.328125,0.609375 1.34375,1.453125 h -2.75 c 0.0625,-0.84375 0.609375,-1.453125 1.40625,-1.453125 z m 1.328125,2.96875 c -0.140625,0.484375 -0.609375,0.8125 -1.25,0.8125 C 1.75,-0.640625 1.171875,-1.28125 1.171875,-2.25 v -0.046875 h 3.625 V -2.625 c 0,-1.53125 -0.828125,-2.53125 -2.203125,-2.53125 -1.390625,0 -2.296875,1.078125 -2.296875,2.640625 0,1.59375 0.890625,2.609375 2.34375,2.609375 1.09375,0 1.953125,-0.65625 2.09375,-1.546875 z m 0,0"
               id="id-7bfe8cc4-7913-46f3-b452-69df9db6215d" />
          </g>
          <g
             id="id-001f7ac2-dd1e-46f5-b756-6fb37bf8e5d8">
            <path
               d="m 3.328125,0 v -6.234375 h 2.21875 V -7.03125 H 0.25 v 0.796875 H 2.453125 V 0 Z m 0,0"
               id="id-31be85d9-c1d1-4325-aa0f-76ccfe34c4f5" />
          </g>
          <g
             id="id-3c8e7c39-2fb4-418a-b371-2991fc2967b4">
            <path
               d="m 0.546875,0 h 0.84375 v -3.15625 c 0,-0.71875 0.4375,-1.1875 1.09375,-1.1875 0.203125,0 0.375,0.03125 0.453125,0.046875 v -0.8125 C 2.859375,-5.125 2.734375,-5.15625 2.59375,-5.15625 2,-5.15625 1.53125,-4.796875 1.375,-4.234375 H 1.34375 V -5.0625 H 0.546875 Z m 0,0"
               id="id-d4816eba-07b7-42d4-b32e-377c88b42fe7" />
          </g>
          <g
             id="id-5a38354e-547d-4830-92bc-0688421df2f9">
            <path
               d="m 0.546875,0 h 0.84375 v -2.984375 c 0,-0.84375 0.53125,-1.421875 1.328125,-1.421875 0.78125,0 1.15625,0.453125 1.15625,1.265625 V 0 h 0.84375 v -3.28125 c 0,-1.15625 -0.640625,-1.875 -1.75,-1.875 -0.78125,0 -1.3125,0.359375 -1.59375,0.90625 H 1.34375 V -5.0625 H 0.546875 Z m 0,0"
               id="id-62d0ee7b-5a31-4c57-96af-81b4cc3a16ba" />
          </g>
          <g
             id="id-e7a11135-a1d5-4f79-8e2a-c53d2d953ce5">
            <path
               d="M 0.59375,0 H 1.4375 V -5.0625 H 0.59375 Z m 0.421875,-5.921875 c 0.296875,0 0.53125,-0.234375 0.53125,-0.515625 0,-0.296875 -0.234375,-0.53125 -0.53125,-0.53125 -0.28125,0 -0.53125,0.234375 -0.53125,0.53125 0,0.28125 0.25,0.515625 0.53125,0.515625 z m 0,0"
               id="id-74210713-7fd0-4a5a-879d-5044b1259bb7" />
          </g>
          <g
             id="id-4b4ecb34-2e89-4450-8c75-4ac95dc19721">
            <path
               d="M 0.828125,-6.28125 V -5.0625 H 0.0625 v 0.703125 H 0.828125 V -1.3125 c 0,0.96875 0.359375,1.34375 1.28125,1.34375 0.203125,0 0.4375,0 0.53125,-0.03125 v -0.703125 c -0.046875,0 -0.25,0.015625 -0.34375,0.015625 -0.4375,0 -0.625,-0.203125 -0.625,-0.671875 v -3 H 2.65625 V -5.0625 H 1.671875 v -1.21875 z m 0,0"
               id="id-e9a734c1-9ccf-45f3-8c68-e250e1a54bbe" />
          </g>
          <g
             id="id-bccc6de0-d3f1-4df5-b12a-4eb4cf232c68">
            <path
               d="m 2.640625,0.09375 c 1.40625,0 2.34375,-1.015625 2.34375,-2.625 0,-1.609375 -0.9375,-2.625 -2.34375,-2.625 -1.390625,0 -2.34375,1.015625 -2.34375,2.625 0,1.609375 0.953125,2.625 2.34375,2.625 z m 0,-0.75 c -0.890625,0 -1.484375,-0.6875 -1.484375,-1.875 0,-1.1875 0.59375,-1.875 1.484375,-1.875 0.90625,0 1.484375,0.6875 1.484375,1.875 0,1.1875 -0.578125,1.875 -1.484375,1.875 z m 0,0"
               id="id-254d1be0-bec9-454d-a5d0-a876f14a0b15" />
          </g>
        </g>
      </defs>
      <g
         fill="#000000"
         fill-opacity="1"
         id="id-b0396120-e829-4071-9248-321c5bfbc5ce"
         transform="translate(-285.808,-127.734)">
        <g
           transform="translate(292.691,134.765)"
           id="g8488">
          <path
             d="M 0.6875,-7.03125 V 0 h 0.875 V -2.5 H 3.171875 C 4.5,-2.5 5.4375,-3.4375 5.4375,-4.765625 5.4375,-6.09375 4.5,-7.03125 3.1875,-7.03125 Z M 1.5625,-6.25 h 1.390625 c 1.015625,0 1.578125,0.546875 1.578125,1.484375 0,0.9375 -0.5625,1.484375 -1.578125,1.484375 H 1.5625 Z m 0,0"
             id="id-8e7d8476-28d6-4d6f-92c4-d07b5c0f53dd" />
        </g>
        <g
           transform="translate(298.449,134.765)"
           id="g7032">
          <path
             d="M 0.59375,0 H 1.4375 v -2.953125 c 0,-0.875 0.53125,-1.453125 1.359375,-1.453125 C 3.59375,-4.40625 4,-3.921875 4,-3.109375 V 0 H 4.84375 V -3.265625 C 4.84375,-4.40625 4.171875,-5.15625 3.0625,-5.15625 2.296875,-5.15625 1.75,-4.8125 1.453125,-4.25 H 1.4375 V -7.03125 H 0.59375 Z m 0,0"
             id="id-bff08c84-f6cc-4ea5-95c5-cd6ce3f87ab1" />
        </g>
        <g
           transform="translate(303.819,134.765)"
           id="g8315">
          <path
             d="m 2.21875,-0.625 c -0.609375,0 -1.015625,-0.328125 -1.015625,-0.8125 0,-0.46875 0.390625,-0.765625 1.078125,-0.8125 L 3.625,-2.34375 v 0.421875 C 3.625,-1.1875 3.015625,-0.625 2.21875,-0.625 Z m -0.1875,0.71875 c 0.6875,0 1.328125,-0.390625 1.625,-0.96875 H 3.671875 V 0 h 0.8125 v -3.5 c 0,-1 -0.75,-1.65625 -1.9375,-1.65625 -1.203125,0 -1.953125,0.671875 -2.015625,1.546875 H 1.359375 C 1.453125,-4.09375 1.875,-4.40625 2.515625,-4.40625 c 0.703125,0 1.109375,0.375 1.109375,0.984375 V -3 l -1.4375,0.09375 c -1.171875,0.0625 -1.84375,0.609375 -1.84375,1.46875 0,0.921875 0.671875,1.53125 1.6875,1.53125 z m 0,0"
             id="id-67336d0b-fe6e-4930-8f74-439b41a8405e" />
        </g>
        <g
           transform="translate(308.82,134.765)"
           id="g4893">
          <path
             d="m 0.46875,-3.671875 c 0,0.703125 0.4375,1.15625 1.328125,1.390625 L 2.6875,-2.0625 c 0.5625,0.15625 0.765625,0.34375 0.765625,0.703125 0,0.46875 -0.421875,0.75 -1.109375,0.75 -0.671875,0 -1.078125,-0.28125 -1.171875,-0.796875 h -0.84375 c 0.078125,0.890625 0.859375,1.5 1.96875,1.5 1.1875,0 2.015625,-0.625 2.015625,-1.515625 0,-0.734375 -0.375,-1.109375 -1.390625,-1.375 l -0.78125,-0.1875 c -0.578125,-0.140625 -0.84375,-0.375 -0.84375,-0.71875 0,-0.453125 0.40625,-0.75 1.03125,-0.75 0.609375,0 1.015625,0.296875 1.0625,0.78125 h 0.8125 C 4.171875,-4.53125 3.390625,-5.15625 2.34375,-5.15625 c -1.109375,0 -1.875,0.625 -1.875,1.484375 z m 0,0"
             id="id-f4aaa14e-8799-487e-9baf-59f1014b2efc" />
        </g>
        <g
           transform="translate(313.453,134.765)"
           id="g265">
          <path
             d="m 2.578125,-4.421875 c 0.796875,0 1.328125,0.609375 1.34375,1.453125 h -2.75 c 0.0625,-0.84375 0.609375,-1.453125 1.40625,-1.453125 z m 1.328125,2.96875 c -0.140625,0.484375 -0.609375,0.8125 -1.25,0.8125 C 1.75,-0.640625 1.171875,-1.28125 1.171875,-2.25 v -0.046875 h 3.625 V -2.625 c 0,-1.53125 -0.828125,-2.53125 -2.203125,-2.53125 -1.390625,0 -2.296875,1.078125 -2.296875,2.640625 0,1.59375 0.890625,2.609375 2.34375,2.609375 1.09375,0 1.953125,-0.65625 2.09375,-1.546875 z m 0,0"
             id="id-c75958f3-930b-4433-889d-ded023733761" />
        </g>
      </g>
      <g
         fill="#000000"
         fill-opacity="1"
         id="id-33433618-c1cf-41c5-bb97-208cadeb1b7b"
         transform="translate(-285.808,-127.734)">
        <g
           transform="translate(285.558,146.72)"
           id="g40">
          <path
             d="m 3.328125,0 v -6.234375 h 2.21875 V -7.03125 H 0.25 v 0.796875 H 2.453125 V 0 Z m 0,0"
             id="id-6c0c1314-c45e-43e1-96a3-412130fe422e" />
        </g>
      </g>
      <g
         fill="#000000"
         fill-opacity="1"
         id="id-aa78ce81-c113-4883-8049-6219432a8d25"
         transform="translate(-285.808,-127.734)">
        <g
           transform="translate(290.23,146.72)"
           id="g572">
          <path
             d="m 0.546875,0 h 0.84375 v -3.15625 c 0,-0.71875 0.4375,-1.1875 1.09375,-1.1875 0.203125,0 0.375,0.03125 0.453125,0.046875 v -0.8125 C 2.859375,-5.125 2.734375,-5.15625 2.59375,-5.15625 2,-5.15625 1.53125,-4.796875 1.375,-4.234375 H 1.34375 V -5.0625 H 0.546875 Z m 0,0"
             id="id-c93bd257-6826-4097-84d3-eda4b0690240" />
        </g>
      </g>
      <g
         fill="#000000"
         fill-opacity="1"
         id="id-c893502d-1140-4f8b-b3b0-44fb50047cad"
         transform="translate(-285.808,-127.734)">
        <g
           transform="translate(293.199,146.72)"
           id="g1566">
          <path
             d="m 2.21875,-0.625 c -0.609375,0 -1.015625,-0.328125 -1.015625,-0.8125 0,-0.46875 0.390625,-0.765625 1.078125,-0.8125 L 3.625,-2.34375 v 0.421875 C 3.625,-1.1875 3.015625,-0.625 2.21875,-0.625 Z m -0.1875,0.71875 c 0.6875,0 1.328125,-0.390625 1.625,-0.96875 H 3.671875 V 0 h 0.8125 v -3.5 c 0,-1 -0.75,-1.65625 -1.9375,-1.65625 -1.203125,0 -1.953125,0.671875 -2.015625,1.546875 H 1.359375 C 1.453125,-4.09375 1.875,-4.40625 2.515625,-4.40625 c 0.703125,0 1.109375,0.375 1.109375,0.984375 V -3 l -1.4375,0.09375 c -1.171875,0.0625 -1.84375,0.609375 -1.84375,1.46875 0,0.921875 0.671875,1.53125 1.6875,1.53125 z m 0,0"
             id="id-7e9dbc85-92be-4e92-a12a-2ed00bf97e07" />
        </g>
        <g
           transform="translate(298.201,146.72)"
           id="g9498">
          <path
             d="m 0.546875,0 h 0.84375 v -2.984375 c 0,-0.84375 0.53125,-1.421875 1.328125,-1.421875 0.78125,0 1.15625,0.453125 1.15625,1.265625 V 0 h 0.84375 v -3.28125 c 0,-1.15625 -0.640625,-1.875 -1.75,-1.875 -0.78125,0 -1.3125,0.359375 -1.59375,0.90625 H 1.34375 V -5.0625 H 0.546875 Z m 0,0"
             id="id-84869c52-ce78-4de8-8144-ed5186a7ab74" />
        </g>
        <g
           transform="translate(303.451,146.72)"
           id="g7343">
          <path
             d="m 0.46875,-3.671875 c 0,0.703125 0.4375,1.15625 1.328125,1.390625 L 2.6875,-2.0625 c 0.5625,0.15625 0.765625,0.34375 0.765625,0.703125 0,0.46875 -0.421875,0.75 -1.109375,0.75 -0.671875,0 -1.078125,-0.28125 -1.171875,-0.796875 h -0.84375 c 0.078125,0.890625 0.859375,1.5 1.96875,1.5 1.1875,0 2.015625,-0.625 2.015625,-1.515625 0,-0.734375 -0.375,-1.109375 -1.390625,-1.375 l -0.78125,-0.1875 c -0.578125,-0.140625 -0.84375,-0.375 -0.84375,-0.71875 0,-0.453125 0.40625,-0.75 1.03125,-0.75 0.609375,0 1.015625,0.296875 1.0625,0.78125 h 0.8125 C 4.171875,-4.53125 3.390625,-5.15625 2.34375,-5.15625 c -1.109375,0 -1.875,0.625 -1.875,1.484375 z m 0,0"
             id="id-5038366e-e64d-481f-acfd-b9fb9bf5554f" />
        </g>
        <g
           transform="translate(308.083,146.72)"
           id="g8643">
          <path
             d="M 0.59375,0 H 1.4375 V -5.0625 H 0.59375 Z m 0.421875,-5.921875 c 0.296875,0 0.53125,-0.234375 0.53125,-0.515625 0,-0.296875 -0.234375,-0.53125 -0.53125,-0.53125 -0.28125,0 -0.53125,0.234375 -0.53125,0.53125 0,0.28125 0.25,0.515625 0.53125,0.515625 z m 0,0"
             id="id-0255af09-0342-4bbc-b0f6-081e18eabeef" />
        </g>
        <g
           transform="translate(310.116,146.72)"
           id="g5764">
          <path
             d="M 0.828125,-6.28125 V -5.0625 H 0.0625 v 0.703125 H 0.828125 V -1.3125 c 0,0.96875 0.359375,1.34375 1.28125,1.34375 0.203125,0 0.4375,0 0.53125,-0.03125 v -0.703125 c -0.046875,0 -0.25,0.015625 -0.34375,0.015625 -0.4375,0 -0.625,-0.203125 -0.625,-0.671875 v -3 H 2.65625 V -5.0625 H 1.671875 v -1.21875 z m 0,0"
             id="id-193fc13c-600c-4f6b-9dc4-74cdeac93442" />
        </g>
        <g
           transform="translate(313.115,146.72)"
           id="g2539">
          <path
             d="M 0.59375,0 H 1.4375 V -5.0625 H 0.59375 Z m 0.421875,-5.921875 c 0.296875,0 0.53125,-0.234375 0.53125,-0.515625 0,-0.296875 -0.234375,-0.53125 -0.53125,-0.53125 -0.28125,0 -0.53125,0.234375 -0.53125,0.53125 0,0.28125 0.25,0.515625 0.53125,0.515625 z m 0,0"
             id="id-203153a8-35ee-41a8-a09d-b8364b1341d1" />
        </g>
        <g
           transform="translate(315.147,146.72)"
           id="g4345">
          <path
             d="m 2.640625,0.09375 c 1.40625,0 2.34375,-1.015625 2.34375,-2.625 0,-1.609375 -0.9375,-2.625 -2.34375,-2.625 -1.390625,0 -2.34375,1.015625 -2.34375,2.625 0,1.609375 0.953125,2.625 2.34375,2.625 z m 0,-0.75 c -0.890625,0 -1.484375,-0.6875 -1.484375,-1.875 0,-1.1875 0.59375,-1.875 1.484375,-1.875 0.90625,0 1.484375,0.6875 1.484375,1.875 0,1.1875 -0.578125,1.875 -1.484375,1.875 z m 0,0"
             id="id-9f15e1f4-232d-4d59-ab5d-93f0d5b10224" />
        </g>
        <g
           transform="translate(320.437,146.72)"
           id="g8084">
          <path
             d="m 0.546875,0 h 0.84375 v -2.984375 c 0,-0.84375 0.53125,-1.421875 1.328125,-1.421875 0.78125,0 1.15625,0.453125 1.15625,1.265625 V 0 h 0.84375 v -3.28125 c 0,-1.15625 -0.640625,-1.875 -1.75,-1.875 -0.78125,0 -1.3125,0.359375 -1.59375,0.90625 H 1.34375 V -5.0625 H 0.546875 Z m 0,0"
             id="id-910b5622-641b-4b6e-9973-42f6757baea9" />
        </g>
      </g>
    </g>
    <path
       style="fill:none;stroke:#505050;stroke-width:3;stroke-dasharray:none;stroke-opacity:1;marker-end:url(#RoundedArrow)"
       d="M 63.84466,57.13532 H 31.116152"
       id="path28"
       inkscape:path-effect="#path-effect28"
       inkscape:original-d="m 63.84466,57.13532 c -10.909504,0 -21.819005,0 -32.728508,0" />
    <path
       style="fill:none;stroke:#505050;stroke-width:3;stroke-dasharray:none;stroke-opacity:1;marker-end:url(#RoundedArrow-7)"
       d="M 63.84466,57.13532 H 31.116152"
       id="path28-6"
       inkscape:path-effect="#path-effect28-3"
       inkscape:original-d="m 63.84466,57.13532 c -10.909504,0 -21.819005,0 -32.728508,0"
       transform="matrix(-1,0,0,1,200.79421,0)" />
  </g>
</svg>
