<?xml version="1.0" encoding="UTF-8" standalone="no"?>
<!-- Created with Inkscape (http://www.inkscape.org/) -->

<svg
   width="201.06032mm"
   height="114.88178mm"
   viewBox="0 0 201.06033 114.88179"
   version="1.1"
   id="svg13587"
   sodipodi:docname="minimal-area.svg"
   inkscape:version="1.2 (dc2aedaf03, 2022-05-15)"
   xmlns:inkscape="http://www.inkscape.org/namespaces/inkscape"
   xmlns:sodipodi="http://sodipodi.sourceforge.net/DTD/sodipodi-0.dtd"
   xmlns="http://www.w3.org/2000/svg"
   xmlns:svg="http://www.w3.org/2000/svg"
   xmlns:ns12="http://www.iki.fi/pav/software/textext/">
  <sodipodi:namedview
     id="namedview13589"
     pagecolor="#ffffff"
     bordercolor="#666666"
     borderopacity="1.0"
     inkscape:pageshadow="2"
     inkscape:pageopacity="0.0"
     inkscape:pagecheckerboard="0"
     inkscape:document-units="mm"
     showgrid="false"
     inkscape:zoom="0.87819158"
     inkscape:cx="396.83824"
     inkscape:cy="234.57296"
     inkscape:window-width="1916"
     inkscape:window-height="1052"
     inkscape:window-x="0"
     inkscape:window-y="24"
     inkscape:window-maximized="1"
     inkscape:current-layer="layer1"
     inkscape:snap-bbox="true"
     inkscape:snap-object-midpoints="true"
     inkscape:showpageshadow="0"
     inkscape:deskcolor="#d1d1d1" />
  <defs
     id="defs13584">
    <inkscape:path-effect
       effect="spiro"
       id="path-effect19868"
       is_visible="true"
       lpeversion="1" />
    <inkscape:path-effect
       effect="spiro"
       id="path-effect19751"
       is_visible="true"
       lpeversion="1" />
    <inkscape:path-effect
       effect="spiro"
       id="path-effect19745"
       is_visible="true"
       lpeversion="1" />
    <inkscape:path-effect
       effect="spiro"
       id="path-effect19659"
       is_visible="true"
       lpeversion="1" />
    <marker
       style="overflow:visible"
       id="Arrow2Lstart"
       refX="0"
       refY="0"
       orient="auto"
       inkscape:stockid="Arrow2Lstart"
       inkscape:isstock="true">
      <path
         transform="matrix(1.1,0,0,1.1,1.1,0)"
         d="M 8.7185878,4.0337352 -2.2072895,0.01601326 8.7185884,-4.0017078 c -1.7454984,2.3720609 -1.7354408,5.6174519 -6e-7,8.035443 z"
         style="fill:context-stroke;fill-rule:evenodd;stroke:context-stroke;stroke-width:0.625;stroke-linejoin:round"
         id="path18261" />
    </marker>
    <marker
       style="overflow:visible"
       id="Arrow2Lend"
       refX="0"
       refY="0"
       orient="auto"
       inkscape:stockid="Arrow2Lend"
       inkscape:isstock="true">
      <path
         transform="matrix(-1.1,0,0,-1.1,-1.1,0)"
         d="M 8.7185878,4.0337352 -2.2072895,0.01601326 8.7185884,-4.0017078 c -1.7454984,2.3720609 -1.7354408,5.6174519 -6e-7,8.035443 z"
         style="fill:context-stroke;fill-rule:evenodd;stroke:context-stroke;stroke-width:0.625;stroke-linejoin:round"
         id="path18264" />
    </marker>
    <inkscape:path-effect
       effect="spiro"
       id="path-effect18554"
       is_visible="true"
       lpeversion="1" />
    <marker
       style="overflow:visible"
       id="Arrow2Mend"
       refX="0"
       refY="0"
       orient="auto"
       inkscape:stockid="Arrow2Mend"
       inkscape:isstock="true">
      <path
         transform="scale(-0.6)"
         d="M 8.7185878,4.0337352 -2.2072895,0.01601326 8.7185884,-4.0017078 c -1.7454984,2.3720609 -1.7354408,5.6174519 -6e-7,8.035443 z"
         style="fill:context-stroke;fill-rule:evenodd;stroke:context-stroke;stroke-width:0.625;stroke-linejoin:round"
         id="path18270" />
    </marker>
    <marker
       style="overflow:visible"
       id="Arrow2Mstart"
       refX="0"
       refY="0"
       orient="auto"
       inkscape:stockid="Arrow2Mstart"
       inkscape:isstock="true">
      <path
         transform="scale(0.6)"
         d="M 8.7185878,4.0337352 -2.2072895,0.01601326 8.7185884,-4.0017078 c -1.7454984,2.3720609 -1.7354408,5.6174519 -6e-7,8.035443 z"
         style="fill:context-stroke;fill-rule:evenodd;stroke:context-stroke;stroke-width:0.625;stroke-linejoin:round"
         id="path18267" />
    </marker>
    <inkscape:path-effect
       effect="spiro"
       id="path-effect18161"
       is_visible="true"
       lpeversion="1" />
  </defs>
  <g
     inkscape:label="Layer 1"
     inkscape:groupmode="layer"
     id="layer1"
     transform="translate(99.129332,-79.345659)">
    <circle
       style="fill:#e24a33;fill-opacity:1;stroke:none;stroke-width:0.7;stroke-miterlimit:4;stroke-dasharray:none;stroke-dashoffset:0"
       id="path13795"
       cx="-62.099174"
       cy="84.625832"
       r="5.2801723" />
    <circle
       style="fill:#348abd;fill-opacity:1;stroke:none;stroke-width:0.7;stroke-miterlimit:4;stroke-dasharray:none;stroke-dashoffset:0"
       id="circle13877"
       cx="-46.224171"
       cy="84.625832"
       r="5.2801723" />
    <circle
       style="fill:#348abd;fill-opacity:1;stroke:none;stroke-width:0.7;stroke-miterlimit:4;stroke-dasharray:none;stroke-dashoffset:0"
       id="circle13879"
       cx="-30.349169"
       cy="84.625832"
       r="5.2801723" />
    <circle
       style="fill:#348abd;fill-opacity:1;stroke:none;stroke-width:0.7;stroke-miterlimit:4;stroke-dasharray:none;stroke-dashoffset:0"
       id="circle13881"
       cx="-14.47417"
       cy="84.625832"
       r="5.2801723" />
    <circle
       style="fill:#e24a33;fill-opacity:1;stroke:none;stroke-width:0.7;stroke-miterlimit:4;stroke-dasharray:none;stroke-dashoffset:0"
       id="circle13883"
       cx="1.4008306"
       cy="84.625832"
       r="5.2801723" />
    <circle
       style="fill:#348abd;fill-opacity:1;stroke:none;stroke-width:0.7;stroke-miterlimit:4;stroke-dasharray:none;stroke-dashoffset:0"
       id="circle13885"
       cx="17.275831"
       cy="84.625832"
       r="5.2801723" />
    <circle
       style="fill:#348abd;fill-opacity:1;stroke:none;stroke-width:0.7;stroke-miterlimit:4;stroke-dasharray:none;stroke-dashoffset:0"
       id="circle13887"
       cx="33.150829"
       cy="84.625832"
       r="5.2801723" />
    <circle
       style="fill:#348abd;fill-opacity:1;stroke:none;stroke-width:0.7;stroke-miterlimit:4;stroke-dasharray:none;stroke-dashoffset:0"
       id="circle13889"
       cx="49.025833"
       cy="84.625832"
       r="5.2801723" />
    <circle
       style="fill:#e24a33;fill-opacity:1;stroke:none;stroke-width:0.7;stroke-miterlimit:4;stroke-dasharray:none;stroke-dashoffset:0"
       id="circle13891"
       cx="64.900833"
       cy="84.625832"
       r="5.2801723" />
    <g
       transform="matrix(1.0984372,0,0,1.0984372,-0.89861035,91.441457)"
       ns12:version="1.3.0"
       ns12:texconverter="pdflatex"
       ns12:pdfconverter="inkscape"
       ns12:text="0"
       ns12:preamble="/usr/share/inkscape/extensions/textext/default_packages.tex"
       ns12:scale="40.0"
       ns12:alignment="middle center"
       ns12:jacobian_sqrt="10.5833"
       id="g13930">
      <defs
         id="id-50ca69d7-87cd-4c90-ab06-8892ddf69489">
        <g
           id="id-bace5dcd-d8dc-44ff-a614-8670c0cda3f4">
          <g
             id="id-4277ed04-c8a6-44a5-8f42-534fe90f31b4" />
          <g
             id="id-230f9458-e4d2-4f1f-a2c7-6c2f441f5bfc">
            <path
               d="m 4.578125,-3.1875 c 0,-0.796875 -0.046875,-1.59375 -0.390625,-2.328125 -0.453125,-0.96875 -1.28125,-1.125 -1.6875,-1.125 -0.609375,0 -1.328125,0.265625 -1.75,1.1875 -0.3125,0.6875 -0.359375,1.46875 -0.359375,2.265625 0,0.75 0.03125,1.640625 0.453125,2.40625 0.421875,0.796875 1.15625,1 1.640625,1 0.53125,0 1.296875,-0.203125 1.734375,-1.15625 0.3125,-0.6875 0.359375,-1.46875 0.359375,-2.25 z M 2.484375,0 C 2.09375,0 1.5,-0.25 1.328125,-1.203125 1.21875,-1.796875 1.21875,-2.71875 1.21875,-3.3125 c 0,-0.640625 0,-1.296875 0.078125,-1.828125 0.1875,-1.1875 0.9375,-1.28125 1.1875,-1.28125 0.328125,0 0.984375,0.1875 1.171875,1.171875 0.109375,0.5625 0.109375,1.3125 0.109375,1.9375 0,0.75 0,1.421875 -0.109375,2.0625 C 3.5,-0.296875 2.9375,0 2.484375,0 Z m 0,0"
               id="id-dd914026-7bad-40a4-8072-ff58020536cd" />
          </g>
        </g>
      </defs>
      <g
         fill="#000000"
         fill-opacity="1"
         id="id-0c8883dc-e1cc-4a66-9d9f-801fa7d9cb07"
         transform="translate(-149.103,-128.124)">
        <g
           transform="translate(148.712,134.765)"
           id="g13927">
          <path
             d="m 4.578125,-3.1875 c 0,-0.796875 -0.046875,-1.59375 -0.390625,-2.328125 -0.453125,-0.96875 -1.28125,-1.125 -1.6875,-1.125 -0.609375,0 -1.328125,0.265625 -1.75,1.1875 -0.3125,0.6875 -0.359375,1.46875 -0.359375,2.265625 0,0.75 0.03125,1.640625 0.453125,2.40625 0.421875,0.796875 1.15625,1 1.640625,1 0.53125,0 1.296875,-0.203125 1.734375,-1.15625 0.3125,-0.6875 0.359375,-1.46875 0.359375,-2.25 z M 2.484375,0 C 2.09375,0 1.5,-0.25 1.328125,-1.203125 1.21875,-1.796875 1.21875,-2.71875 1.21875,-3.3125 c 0,-0.640625 0,-1.296875 0.078125,-1.828125 0.1875,-1.1875 0.9375,-1.28125 1.1875,-1.28125 0.328125,0 0.984375,0.1875 1.171875,1.171875 0.109375,0.5625 0.109375,1.3125 0.109375,1.9375 0,0.75 0,1.421875 -0.109375,2.0625 C 3.5,-0.296875 2.9375,0 2.484375,0 Z m 0,0"
             id="id-366a859b-be65-4b95-91a9-9e08f38f0f5b" />
        </g>
      </g>
    </g>
    <g
       transform="matrix(1.09844,0,0,1.09844,62.4809,91.502)"
       ns12:version="1.3.0"
       ns12:texconverter="pdflatex"
       ns12:pdfconverter="inkscape"
       ns12:text="4"
       ns12:preamble="/usr/share/inkscape/extensions/textext/default_packages.tex"
       ns12:scale="4.151586745155103"
       ns12:alignment="middle center"
       ns12:jacobian_sqrt="1.09844"
       id="g14111">
      <defs
         id="id-9e3ade13-ac7b-4ec4-803e-46ac0275d6f8">
        <g
           id="id-181aaaef-e3ac-4a8b-99c8-38f506f0c101">
          <g
             id="id-ee5b882d-3eb7-48e7-856b-45390ea35969" />
          <g
             id="id-502bcbd5-d4de-431c-ab90-6d5e64bcaeb6">
            <path
               d="m 2.9375,-1.640625 v 0.859375 c 0,0.359375 -0.03125,0.46875 -0.765625,0.46875 H 1.96875 V 0 C 2.375,-0.03125 2.890625,-0.03125 3.3125,-0.03125 c 0.421875,0 0.9375,0 1.359375,0.03125 v -0.3125 h -0.21875 c -0.734375,0 -0.75,-0.109375 -0.75,-0.46875 V -1.640625 H 4.6875 v -0.3125 H 3.703125 v -4.53125 c 0,-0.203125 0,-0.265625 -0.171875,-0.265625 -0.078125,0 -0.109375,0 -0.1875,0.125 l -3.0625,4.671875 v 0.3125 z m 0.046875,-0.3125 H 0.5625 l 2.421875,-3.71875 z m 0,0"
               id="id-68531d36-28a2-49ee-9d94-c8366df42c5c" />
          </g>
        </g>
      </defs>
      <g
         fill="#000000"
         fill-opacity="1"
         id="id-51c23b0c-184b-4c3a-97a1-a4e4074d5bcf"
         transform="translate(-148.993,-128.015)">
        <g
           transform="translate(148.712,134.765)"
           id="g14224">
          <path
             d="m 2.9375,-1.640625 v 0.859375 c 0,0.359375 -0.03125,0.46875 -0.765625,0.46875 H 1.96875 V 0 C 2.375,-0.03125 2.890625,-0.03125 3.3125,-0.03125 c 0.421875,0 0.9375,0 1.359375,0.03125 v -0.3125 h -0.21875 c -0.734375,0 -0.75,-0.109375 -0.75,-0.46875 V -1.640625 H 4.6875 v -0.3125 H 3.703125 v -4.53125 c 0,-0.203125 0,-0.265625 -0.171875,-0.265625 -0.078125,0 -0.109375,0 -0.1875,0.125 l -3.0625,4.671875 v 0.3125 z m 0.046875,-0.3125 H 0.5625 l 2.421875,-3.71875 z m 0,0"
             id="id-531016c5-8d96-4f07-bd9e-8abef43198fb" />
        </g>
      </g>
    </g>
    <g
       transform="matrix(1.09844,0,0,1.09844,46.7517,91.4419)"
       ns12:version="1.3.0"
       ns12:texconverter="pdflatex"
       ns12:pdfconverter="inkscape"
       ns12:text="3"
       ns12:preamble="/usr/share/inkscape/extensions/textext/default_packages.tex"
       ns12:scale="4.151586745155103"
       ns12:alignment="middle center"
       ns12:jacobian_sqrt="1.09844"
       id="g14093">
      <defs
         id="id-eb6b4507-aee7-4f3a-9e5e-9a896daaf107">
        <g
           id="id-45a15f3d-4b9e-4767-86f7-f26679092a8f">
          <g
             id="id-6053636f-df28-4738-a4d0-b4c6ff81b36c" />
          <g
             id="id-b799bca0-b85a-4775-bfc0-46ff62e71d87">
            <path
               d="m 2.890625,-3.515625 c 0.8125,-0.265625 1.390625,-0.953125 1.390625,-1.75 0,-0.8125 -0.875,-1.375 -1.828125,-1.375 -1,0 -1.765625,0.59375 -1.765625,1.359375 0,0.328125 0.21875,0.515625 0.515625,0.515625 0.296875,0 0.5,-0.21875 0.5,-0.515625 0,-0.484375 -0.46875,-0.484375 -0.609375,-0.484375 0.296875,-0.5 0.953125,-0.625 1.3125,-0.625 0.421875,0 0.96875,0.21875 0.96875,1.109375 0,0.125 -0.03125,0.703125 -0.28125,1.140625 C 2.796875,-3.65625 2.453125,-3.625 2.203125,-3.625 2.125,-3.609375 1.890625,-3.59375 1.8125,-3.59375 c -0.078125,0.015625 -0.140625,0.03125 -0.140625,0.125 0,0.109375 0.0625,0.109375 0.234375,0.109375 h 0.4375 c 0.8125,0 1.1875,0.671875 1.1875,1.65625 0,1.359375 -0.6875,1.640625 -1.125,1.640625 -0.4375,0 -1.1875,-0.171875 -1.53125,-0.75 0.34375,0.046875 0.65625,-0.171875 0.65625,-0.546875 0,-0.359375 -0.265625,-0.5625 -0.546875,-0.5625 -0.25,0 -0.5625,0.140625 -0.5625,0.578125 0,0.90625 0.921875,1.5625 2.015625,1.5625 1.21875,0 2.125,-0.90625 2.125,-1.921875 0,-0.8125 -0.640625,-1.59375 -1.671875,-1.8125 z m 0,0"
               id="id-b3028f63-60d5-42cf-88cf-040c885628cf" />
          </g>
        </g>
      </defs>
      <g
         fill="#000000"
         fill-opacity="1"
         id="id-4d54f40c-30b0-4d90-9ff3-ffa8ac30acde"
         transform="translate(-149.134,-128.124)">
        <g
           transform="translate(148.712,134.765)"
           id="g14368">
          <path
             d="m 2.890625,-3.515625 c 0.8125,-0.265625 1.390625,-0.953125 1.390625,-1.75 0,-0.8125 -0.875,-1.375 -1.828125,-1.375 -1,0 -1.765625,0.59375 -1.765625,1.359375 0,0.328125 0.21875,0.515625 0.515625,0.515625 0.296875,0 0.5,-0.21875 0.5,-0.515625 0,-0.484375 -0.46875,-0.484375 -0.609375,-0.484375 0.296875,-0.5 0.953125,-0.625 1.3125,-0.625 0.421875,0 0.96875,0.21875 0.96875,1.109375 0,0.125 -0.03125,0.703125 -0.28125,1.140625 C 2.796875,-3.65625 2.453125,-3.625 2.203125,-3.625 2.125,-3.609375 1.890625,-3.59375 1.8125,-3.59375 c -0.078125,0.015625 -0.140625,0.03125 -0.140625,0.125 0,0.109375 0.0625,0.109375 0.234375,0.109375 h 0.4375 c 0.8125,0 1.1875,0.671875 1.1875,1.65625 0,1.359375 -0.6875,1.640625 -1.125,1.640625 -0.4375,0 -1.1875,-0.171875 -1.53125,-0.75 0.34375,0.046875 0.65625,-0.171875 0.65625,-0.546875 0,-0.359375 -0.265625,-0.5625 -0.546875,-0.5625 -0.25,0 -0.5625,0.140625 -0.5625,0.578125 0,0.90625 0.921875,1.5625 2.015625,1.5625 1.21875,0 2.125,-0.90625 2.125,-1.921875 0,-0.8125 -0.640625,-1.59375 -1.671875,-1.8125 z m 0,0"
             id="id-28b3f2ad-c826-4a2e-b9dd-2cb933306cfb" />
        </g>
      </g>
    </g>
    <g
       transform="matrix(1.09844,0,0,1.09844,30.9711,91.562)"
       ns12:version="1.3.0"
       ns12:texconverter="pdflatex"
       ns12:pdfconverter="inkscape"
       ns12:text="2"
       ns12:preamble="/usr/share/inkscape/extensions/textext/default_packages.tex"
       ns12:scale="4.151586745155103"
       ns12:alignment="middle center"
       ns12:jacobian_sqrt="1.09844"
       id="g14075">
      <defs
         id="id-f542055c-a050-4c79-b2d4-ca1fda1d1d40">
        <g
           id="id-1d98e5e1-4a0f-4748-8d6b-08e1e1cdddc2">
          <g
             id="id-3b88a7f8-6bea-4e45-bc3f-f53d7c5393c4" />
          <g
             id="id-40fc9067-cbda-4469-9cac-519757c02930">
            <path
               d="m 1.265625,-0.765625 1.0625,-1.03125 c 1.546875,-1.375 2.140625,-1.90625 2.140625,-2.90625 0,-1.140625 -0.890625,-1.9375 -2.109375,-1.9375 -1.125,0 -1.859375,0.921875 -1.859375,1.8125 0,0.546875 0.5,0.546875 0.53125,0.546875 0.171875,0 0.515625,-0.109375 0.515625,-0.53125 0,-0.25 -0.1875,-0.515625 -0.53125,-0.515625 -0.078125,0 -0.09375,0 -0.125,0.015625 0.21875,-0.65625 0.765625,-1.015625 1.34375,-1.015625 0.90625,0 1.328125,0.8125 1.328125,1.625 C 3.5625,-3.90625 3.078125,-3.125 2.515625,-2.5 l -1.90625,2.125 C 0.5,-0.265625 0.5,-0.234375 0.5,0 H 4.203125 L 4.46875,-1.734375 H 4.234375 C 4.171875,-1.4375 4.109375,-1 4,-0.84375 3.9375,-0.765625 3.28125,-0.765625 3.0625,-0.765625 Z m 0,0"
               id="id-602b63c7-0bbf-4e00-b6a1-d9410fce5cef" />
          </g>
        </g>
      </defs>
      <g
         fill="#000000"
         fill-opacity="1"
         id="id-ba56881e-2344-4a3f-9d71-0f656ae38323"
         transform="translate(-149.212,-128.124)">
        <g
           transform="translate(148.712,134.765)"
           id="g14512">
          <path
             d="m 1.265625,-0.765625 1.0625,-1.03125 c 1.546875,-1.375 2.140625,-1.90625 2.140625,-2.90625 0,-1.140625 -0.890625,-1.9375 -2.109375,-1.9375 -1.125,0 -1.859375,0.921875 -1.859375,1.8125 0,0.546875 0.5,0.546875 0.53125,0.546875 0.171875,0 0.515625,-0.109375 0.515625,-0.53125 0,-0.25 -0.1875,-0.515625 -0.53125,-0.515625 -0.078125,0 -0.09375,0 -0.125,0.015625 0.21875,-0.65625 0.765625,-1.015625 1.34375,-1.015625 0.90625,0 1.328125,0.8125 1.328125,1.625 C 3.5625,-3.90625 3.078125,-3.125 2.515625,-2.5 l -1.90625,2.125 C 0.5,-0.265625 0.5,-0.234375 0.5,0 H 4.203125 L 4.46875,-1.734375 H 4.234375 C 4.171875,-1.4375 4.109375,-1 4,-0.84375 3.9375,-0.765625 3.28125,-0.765625 3.0625,-0.765625 Z m 0,0"
             id="id-67b8f686-9e75-4064-90ad-efaf1d0c99f9" />
        </g>
      </g>
    </g>
    <g
       transform="matrix(1.09844,0,0,1.09844,15.4737,91.562)"
       ns12:version="1.3.0"
       ns12:texconverter="pdflatex"
       ns12:pdfconverter="inkscape"
       ns12:text="1"
       ns12:preamble="/usr/share/inkscape/extensions/textext/default_packages.tex"
       ns12:scale="4.151586745155103"
       ns12:alignment="middle center"
       ns12:jacobian_sqrt="1.09844"
       id="g14057">
      <defs
         id="id-4917c975-5043-4f5e-a780-76f295bdfd56">
        <g
           id="id-d3b0aafe-2891-4e51-b06a-1ca4166e879e">
          <g
             id="id-42df3534-22e7-444f-ae2b-e630b01fd72b" />
          <g
             id="id-d470a529-33d7-404b-8a24-047fa7ff900a">
            <path
               d="m 2.9375,-6.375 c 0,-0.25 0,-0.265625 -0.234375,-0.265625 C 2.078125,-6 1.203125,-6 0.890625,-6 v 0.3125 c 0.203125,0 0.78125,0 1.296875,-0.265625 v 5.171875 c 0,0.359375 -0.03125,0.46875 -0.921875,0.46875 h -0.3125 V 0 c 0.34375,-0.03125 1.203125,-0.03125 1.609375,-0.03125 0.390625,0 1.265625,0 1.609375,0.03125 v -0.3125 h -0.3125 c -0.90625,0 -0.921875,-0.109375 -0.921875,-0.46875 z m 0,0"
               id="id-cde94a31-d6a5-45cf-9f8e-7c8efc6bb184" />
          </g>
        </g>
      </defs>
      <g
         fill="#000000"
         fill-opacity="1"
         id="id-1c2fbddb-4733-4b78-9b1e-f7c09d1533b4"
         transform="translate(-149.603,-128.124)">
        <g
           transform="translate(148.712,134.765)"
           id="g14656">
          <path
             d="m 2.9375,-6.375 c 0,-0.25 0,-0.265625 -0.234375,-0.265625 C 2.078125,-6 1.203125,-6 0.890625,-6 v 0.3125 c 0.203125,0 0.78125,0 1.296875,-0.265625 v 5.171875 c 0,0.359375 -0.03125,0.46875 -0.921875,0.46875 h -0.3125 V 0 c 0.34375,-0.03125 1.203125,-0.03125 1.609375,-0.03125 0.390625,0 1.265625,0 1.609375,0.03125 v -0.3125 h -0.3125 c -0.90625,0 -0.921875,-0.109375 -0.921875,-0.46875 z m 0,0"
             id="id-b41c9068-836f-4857-acb3-342115808384" />
        </g>
      </g>
    </g>
    <g
       transform="matrix(1.09844,0,0,1.09844,-66.4375,91.502)"
       ns12:version="1.3.0"
       ns12:texconverter="pdflatex"
       ns12:pdfconverter="inkscape"
       ns12:text="-4"
       ns12:preamble="/usr/share/inkscape/extensions/textext/default_packages.tex"
       ns12:scale="4.151586745155103"
       ns12:alignment="middle center"
       ns12:jacobian_sqrt="1.09844"
       id="g14759">
      <defs
         id="id-18b51c98-1465-4bd6-ae30-fbf2d994081a">
        <g
           id="id-4326a547-1969-408f-92b0-41f49e6e133e">
          <g
             id="id-16e7b0b0-87c4-46c0-8bc6-a4cd1825aca0" />
          <g
             id="id-06dbb2ba-f02e-496e-be59-03f552640ee3">
            <path
               d="M 2.75,-1.859375 V -2.4375 H 0.109375 v 0.578125 z m 0,0"
               id="id-f3fcf845-006e-49cb-831a-09e90f16bf38" />
          </g>
          <g
             id="id-f8bb0fc8-8b60-46c0-8c00-36364af99e06">
            <path
               d="m 2.9375,-1.640625 v 0.859375 c 0,0.359375 -0.03125,0.46875 -0.765625,0.46875 H 1.96875 V 0 C 2.375,-0.03125 2.890625,-0.03125 3.3125,-0.03125 c 0.421875,0 0.9375,0 1.359375,0.03125 v -0.3125 h -0.21875 c -0.734375,0 -0.75,-0.109375 -0.75,-0.46875 V -1.640625 H 4.6875 v -0.3125 H 3.703125 v -4.53125 c 0,-0.203125 0,-0.265625 -0.171875,-0.265625 -0.078125,0 -0.109375,0 -0.1875,0.125 l -3.0625,4.671875 v 0.3125 z m 0.046875,-0.3125 H 0.5625 l 2.421875,-3.71875 z m 0,0"
               id="id-7652ff4c-c152-4d48-9e42-865225b27dfc" />
          </g>
        </g>
      </defs>
      <g
         fill="#000000"
         fill-opacity="1"
         id="id-539db451-d765-416e-bc4f-ec414af81a3f"
         transform="translate(-148.821,-128.015)">
        <g
           transform="translate(148.712,134.765)"
           id="g14946">
          <path
             d="M 2.75,-1.859375 V -2.4375 H 0.109375 v 0.578125 z m 0,0"
             id="id-dee30db7-900b-4f98-9981-281684b27c96" />
        </g>
        <g
           transform="translate(152.033,134.765)"
           id="g14949">
          <path
             d="m 2.9375,-1.640625 v 0.859375 c 0,0.359375 -0.03125,0.46875 -0.765625,0.46875 H 1.96875 V 0 C 2.375,-0.03125 2.890625,-0.03125 3.3125,-0.03125 c 0.421875,0 0.9375,0 1.359375,0.03125 v -0.3125 h -0.21875 c -0.734375,0 -0.75,-0.109375 -0.75,-0.46875 V -1.640625 H 4.6875 v -0.3125 H 3.703125 v -4.53125 c 0,-0.203125 0,-0.265625 -0.171875,-0.265625 -0.078125,0 -0.109375,0 -0.1875,0.125 l -3.0625,4.671875 v 0.3125 z m 0.046875,-0.3125 H 0.5625 l 2.421875,-3.71875 z m 0,0"
             id="id-3ee1d206-94b6-4363-9b88-a898b03ffb05" />
        </g>
      </g>
    </g>
    <g
       transform="matrix(1.09844,0,0,1.09844,-50.4939,91.4419)"
       ns12:version="1.3.0"
       ns12:texconverter="pdflatex"
       ns12:pdfconverter="inkscape"
       ns12:text="-3"
       ns12:preamble="/usr/share/inkscape/extensions/textext/default_packages.tex"
       ns12:scale="4.151586745155103"
       ns12:alignment="middle center"
       ns12:jacobian_sqrt="1.09844"
       id="g14741">
      <defs
         id="id-acb33444-8404-4739-8822-74ec1ac62143">
        <g
           id="id-181d33c0-4b2a-4d91-99b3-d924653edb9b">
          <g
             id="id-a37b6b6c-9c60-4dcd-83e3-cb4eaad69147" />
          <g
             id="id-a086a941-fd6e-4f5e-ae36-7fddd44d6033">
            <path
               d="M 2.75,-1.859375 V -2.4375 H 0.109375 v 0.578125 z m 0,0"
               id="id-8cab2f0b-878e-4463-ba0c-567f52bdf1af" />
          </g>
          <g
             id="id-a3a8d641-7ee4-4945-b915-488fd10f8238">
            <path
               d="m 2.890625,-3.515625 c 0.8125,-0.265625 1.390625,-0.953125 1.390625,-1.75 0,-0.8125 -0.875,-1.375 -1.828125,-1.375 -1,0 -1.765625,0.59375 -1.765625,1.359375 0,0.328125 0.21875,0.515625 0.515625,0.515625 0.296875,0 0.5,-0.21875 0.5,-0.515625 0,-0.484375 -0.46875,-0.484375 -0.609375,-0.484375 0.296875,-0.5 0.953125,-0.625 1.3125,-0.625 0.421875,0 0.96875,0.21875 0.96875,1.109375 0,0.125 -0.03125,0.703125 -0.28125,1.140625 C 2.796875,-3.65625 2.453125,-3.625 2.203125,-3.625 2.125,-3.609375 1.890625,-3.59375 1.8125,-3.59375 c -0.078125,0.015625 -0.140625,0.03125 -0.140625,0.125 0,0.109375 0.0625,0.109375 0.234375,0.109375 h 0.4375 c 0.8125,0 1.1875,0.671875 1.1875,1.65625 0,1.359375 -0.6875,1.640625 -1.125,1.640625 -0.4375,0 -1.1875,-0.171875 -1.53125,-0.75 0.34375,0.046875 0.65625,-0.171875 0.65625,-0.546875 0,-0.359375 -0.265625,-0.5625 -0.546875,-0.5625 -0.25,0 -0.5625,0.140625 -0.5625,0.578125 0,0.90625 0.921875,1.5625 2.015625,1.5625 1.21875,0 2.125,-0.90625 2.125,-1.921875 0,-0.8125 -0.640625,-1.59375 -1.671875,-1.8125 z m 0,0"
               id="id-9a8136e0-425f-45b1-9434-2fb13f4d2071" />
          </g>
        </g>
      </defs>
      <g
         fill="#000000"
         fill-opacity="1"
         id="id-97f4a3af-f8f6-45bb-a375-4f8f947332cd"
         transform="translate(-148.821,-128.124)">
        <g
           transform="translate(148.712,134.765)"
           id="g15179">
          <path
             d="M 2.75,-1.859375 V -2.4375 H 0.109375 v 0.578125 z m 0,0"
             id="id-d8ed4766-d1fd-4e7a-bd46-828177f15023" />
        </g>
        <g
           transform="translate(152.033,134.765)"
           id="g15182">
          <path
             d="m 2.890625,-3.515625 c 0.8125,-0.265625 1.390625,-0.953125 1.390625,-1.75 0,-0.8125 -0.875,-1.375 -1.828125,-1.375 -1,0 -1.765625,0.59375 -1.765625,1.359375 0,0.328125 0.21875,0.515625 0.515625,0.515625 0.296875,0 0.5,-0.21875 0.5,-0.515625 0,-0.484375 -0.46875,-0.484375 -0.609375,-0.484375 0.296875,-0.5 0.953125,-0.625 1.3125,-0.625 0.421875,0 0.96875,0.21875 0.96875,1.109375 0,0.125 -0.03125,0.703125 -0.28125,1.140625 C 2.796875,-3.65625 2.453125,-3.625 2.203125,-3.625 2.125,-3.609375 1.890625,-3.59375 1.8125,-3.59375 c -0.078125,0.015625 -0.140625,0.03125 -0.140625,0.125 0,0.109375 0.0625,0.109375 0.234375,0.109375 h 0.4375 c 0.8125,0 1.1875,0.671875 1.1875,1.65625 0,1.359375 -0.6875,1.640625 -1.125,1.640625 -0.4375,0 -1.1875,-0.171875 -1.53125,-0.75 0.34375,0.046875 0.65625,-0.171875 0.65625,-0.546875 0,-0.359375 -0.265625,-0.5625 -0.546875,-0.5625 -0.25,0 -0.5625,0.140625 -0.5625,0.578125 0,0.90625 0.921875,1.5625 2.015625,1.5625 1.21875,0 2.125,-0.90625 2.125,-1.921875 0,-0.8125 -0.640625,-1.59375 -1.671875,-1.8125 z m 0,0"
             id="id-af63115f-98d1-4e38-a9dc-305ad0d31bef" />
        </g>
      </g>
    </g>
    <g
       transform="matrix(1.09844,0,0,1.09844,-34.5674,91.562)"
       ns12:version="1.3.0"
       ns12:texconverter="pdflatex"
       ns12:pdfconverter="inkscape"
       ns12:text="-2"
       ns12:preamble="/usr/share/inkscape/extensions/textext/default_packages.tex"
       ns12:scale="4.151586745155103"
       ns12:alignment="middle center"
       ns12:jacobian_sqrt="1.09844"
       id="g14723">
      <defs
         id="id-c63cad95-3276-4704-bef4-225fcf165b10">
        <g
           id="id-2631f4cd-abb1-466d-9dc3-58b00f919882">
          <g
             id="id-6fb40d36-af94-4ed8-b725-c643479410a4" />
          <g
             id="id-f9c48fa1-f6c1-40e0-9c81-02a84d30b88d">
            <path
               d="M 2.75,-1.859375 V -2.4375 H 0.109375 v 0.578125 z m 0,0"
               id="id-469f6f3e-119f-4293-94b2-68676882ab6c" />
          </g>
          <g
             id="id-1abecf6b-9b55-450b-9272-3c37361be3a6">
            <path
               d="m 1.265625,-0.765625 1.0625,-1.03125 c 1.546875,-1.375 2.140625,-1.90625 2.140625,-2.90625 0,-1.140625 -0.890625,-1.9375 -2.109375,-1.9375 -1.125,0 -1.859375,0.921875 -1.859375,1.8125 0,0.546875 0.5,0.546875 0.53125,0.546875 0.171875,0 0.515625,-0.109375 0.515625,-0.53125 0,-0.25 -0.1875,-0.515625 -0.53125,-0.515625 -0.078125,0 -0.09375,0 -0.125,0.015625 0.21875,-0.65625 0.765625,-1.015625 1.34375,-1.015625 0.90625,0 1.328125,0.8125 1.328125,1.625 C 3.5625,-3.90625 3.078125,-3.125 2.515625,-2.5 l -1.90625,2.125 C 0.5,-0.265625 0.5,-0.234375 0.5,0 H 4.203125 L 4.46875,-1.734375 H 4.234375 C 4.171875,-1.4375 4.109375,-1 4,-0.84375 3.9375,-0.765625 3.28125,-0.765625 3.0625,-0.765625 Z m 0,0"
               id="id-2c5c9bce-7181-487f-ad9a-d7c687cea7b0" />
          </g>
        </g>
      </defs>
      <g
         fill="#000000"
         fill-opacity="1"
         id="id-610c4330-d7f4-494a-be83-ade226c1e32e"
         transform="translate(-148.821,-128.124)">
        <g
           transform="translate(148.712,134.765)"
           id="g15420">
          <path
             d="M 2.75,-1.859375 V -2.4375 H 0.109375 v 0.578125 z m 0,0"
             id="id-5d8038af-fe8d-4061-90e1-417a24cfe981" />
        </g>
        <g
           transform="translate(152.033,134.765)"
           id="g15423">
          <path
             d="m 1.265625,-0.765625 1.0625,-1.03125 c 1.546875,-1.375 2.140625,-1.90625 2.140625,-2.90625 0,-1.140625 -0.890625,-1.9375 -2.109375,-1.9375 -1.125,0 -1.859375,0.921875 -1.859375,1.8125 0,0.546875 0.5,0.546875 0.53125,0.546875 0.171875,0 0.515625,-0.109375 0.515625,-0.53125 0,-0.25 -0.1875,-0.515625 -0.53125,-0.515625 -0.078125,0 -0.09375,0 -0.125,0.015625 0.21875,-0.65625 0.765625,-1.015625 1.34375,-1.015625 0.90625,0 1.328125,0.8125 1.328125,1.625 C 3.5625,-3.90625 3.078125,-3.125 2.515625,-2.5 l -1.90625,2.125 C 0.5,-0.265625 0.5,-0.234375 0.5,0 H 4.203125 L 4.46875,-1.734375 H 4.234375 C 4.171875,-1.4375 4.109375,-1 4,-0.84375 3.9375,-0.765625 3.28125,-0.765625 3.0625,-0.765625 Z m 0,0"
             id="id-dbf1a4ba-3f8e-45e1-9d2d-b0b6185cd647" />
        </g>
      </g>
    </g>
    <g
       transform="matrix(1.09844,0,0,1.09844,-18.5293,91.562)"
       ns12:version="1.3.0"
       ns12:texconverter="pdflatex"
       ns12:pdfconverter="inkscape"
       ns12:text="-1"
       ns12:preamble="/usr/share/inkscape/extensions/textext/default_packages.tex"
       ns12:scale="4.151586745155103"
       ns12:alignment="middle center"
       ns12:jacobian_sqrt="1.09844"
       id="g14705">
      <defs
         id="id-fb194965-6fbb-46ef-98ad-63a2f90c0e25">
        <g
           id="id-e0ecaaa3-87c4-40e9-87eb-2ea5958d2edd">
          <g
             id="id-42cade42-66cb-4768-9e51-475f59b390d0" />
          <g
             id="id-c739e0d4-ca56-4daf-8398-3feaedf035b6">
            <path
               d="M 2.75,-1.859375 V -2.4375 H 0.109375 v 0.578125 z m 0,0"
               id="id-38661d5a-70c1-4565-bce8-36772e1964da" />
          </g>
          <g
             id="id-9a9dfd6b-4372-428e-bd8d-34f961e462eb">
            <path
               d="m 2.9375,-6.375 c 0,-0.25 0,-0.265625 -0.234375,-0.265625 C 2.078125,-6 1.203125,-6 0.890625,-6 v 0.3125 c 0.203125,0 0.78125,0 1.296875,-0.265625 v 5.171875 c 0,0.359375 -0.03125,0.46875 -0.921875,0.46875 h -0.3125 V 0 c 0.34375,-0.03125 1.203125,-0.03125 1.609375,-0.03125 0.390625,0 1.265625,0 1.609375,0.03125 v -0.3125 h -0.3125 c -0.90625,0 -0.921875,-0.109375 -0.921875,-0.46875 z m 0,0"
               id="id-f91dfbb2-cb1a-4339-a1b4-a4d7484827ff" />
          </g>
        </g>
      </defs>
      <g
         fill="#000000"
         fill-opacity="1"
         id="id-5d2d79c6-e5f5-4fb5-b5b9-c987a4069d97"
         transform="translate(-148.821,-128.124)">
        <g
           transform="translate(148.712,134.765)"
           id="g15669">
          <path
             d="M 2.75,-1.859375 V -2.4375 H 0.109375 v 0.578125 z m 0,0"
             id="id-78d00667-a42c-4f55-a6a0-a8226809179e" />
        </g>
        <g
           transform="translate(152.033,134.765)"
           id="g15672">
          <path
             d="m 2.9375,-6.375 c 0,-0.25 0,-0.265625 -0.234375,-0.265625 C 2.078125,-6 1.203125,-6 0.890625,-6 v 0.3125 c 0.203125,0 0.78125,0 1.296875,-0.265625 v 5.171875 c 0,0.359375 -0.03125,0.46875 -0.921875,0.46875 h -0.3125 V 0 c 0.34375,-0.03125 1.203125,-0.03125 1.609375,-0.03125 0.390625,0 1.265625,0 1.609375,0.03125 v -0.3125 h -0.3125 c -0.90625,0 -0.921875,-0.109375 -0.921875,-0.46875 z m 0,0"
             id="id-f1967e07-1f84-4ed8-9241-8999efbf0e77" />
        </g>
      </g>
    </g>
    <circle
       style="fill:#348abd;fill-opacity:1;stroke:none;stroke-width:0.7;stroke-miterlimit:4;stroke-dasharray:none;stroke-dashoffset:0"
       id="circle15709"
       cx="80.775826"
       cy="84.625832"
       r="5.2801723" />
    <circle
       style="fill:#348abd;fill-opacity:1;stroke:none;stroke-width:0.7;stroke-miterlimit:4;stroke-dasharray:none;stroke-dashoffset:0"
       id="circle15729"
       cx="-77.974167"
       cy="84.625832"
       r="5.2801723" />
    <g
       transform="matrix(1.09844,0,0,1.09844,78.5965,91.4419)"
       ns12:version="1.3.0"
       ns12:texconverter="pdflatex"
       ns12:pdfconverter="inkscape"
       ns12:text="5"
       ns12:preamble="/usr/share/inkscape/extensions/textext/default_packages.tex"
       ns12:scale="4.151586745155103"
       ns12:alignment="middle center"
       ns12:jacobian_sqrt="1.09844"
       id="g15727">
      <defs
         id="id-3d19ec07-bed3-4a88-8eca-eb618cf309aa">
        <g
           id="id-37a21943-071d-4098-8433-847016d507e9">
          <g
             id="id-b3ba2a34-0de1-4273-afa7-3ceb9982f7f1" />
          <g
             id="id-f5816360-536c-44a5-8888-d72e6a3cefec">
            <path
               d="m 4.46875,-2 c 0,-1.1875 -0.8125,-2.1875 -1.890625,-2.1875 -0.46875,0 -0.90625,0.15625 -1.265625,0.515625 V -5.625 c 0.203125,0.0625 0.53125,0.125 0.84375,0.125 1.234375,0 1.9375,-0.90625 1.9375,-1.03125 0,-0.0625 -0.03125,-0.109375 -0.109375,-0.109375 0,0 -0.03125,0 -0.078125,0.03125 C 3.703125,-6.515625 3.21875,-6.3125 2.546875,-6.3125 2.15625,-6.3125 1.6875,-6.390625 1.21875,-6.59375 1.140625,-6.625 1.125,-6.625 1.109375,-6.625 1,-6.625 1,-6.546875 1,-6.390625 V -3.4375 c 0,0.171875 0,0.25 0.140625,0.25 0.078125,0 0.09375,-0.015625 0.140625,-0.078125 C 1.390625,-3.421875 1.75,-3.96875 2.5625,-3.96875 c 0.515625,0 0.765625,0.453125 0.84375,0.640625 0.15625,0.375 0.1875,0.75 0.1875,1.25 0,0.359375 0,0.953125 -0.25,1.375 C 3.109375,-0.3125 2.734375,-0.0625 2.28125,-0.0625 c -0.71875,0 -1.296875,-0.53125 -1.46875,-1.109375 0.03125,0 0.0625,0.015625 0.171875,0.015625 0.328125,0 0.5,-0.25 0.5,-0.484375 0,-0.25 -0.171875,-0.5 -0.5,-0.5 C 0.84375,-2.140625 0.5,-2.0625 0.5,-1.609375 0.5,-0.75 1.1875,0.21875 2.296875,0.21875 3.453125,0.21875 4.46875,-0.734375 4.46875,-2 Z m 0,0"
               id="id-92003dee-f8b1-4abf-a3d4-eaa27f1fdfe0" />
          </g>
        </g>
      </defs>
      <g
         fill="#000000"
         fill-opacity="1"
         id="id-ffbcef58-b293-4560-a92d-42bc7ed65a51"
         transform="translate(-149.212,-128.124)">
        <g
           transform="translate(148.712,134.765)"
           id="g16020">
          <path
             d="m 4.46875,-2 c 0,-1.1875 -0.8125,-2.1875 -1.890625,-2.1875 -0.46875,0 -0.90625,0.15625 -1.265625,0.515625 V -5.625 c 0.203125,0.0625 0.53125,0.125 0.84375,0.125 1.234375,0 1.9375,-0.90625 1.9375,-1.03125 0,-0.0625 -0.03125,-0.109375 -0.109375,-0.109375 0,0 -0.03125,0 -0.078125,0.03125 C 3.703125,-6.515625 3.21875,-6.3125 2.546875,-6.3125 2.15625,-6.3125 1.6875,-6.390625 1.21875,-6.59375 1.140625,-6.625 1.125,-6.625 1.109375,-6.625 1,-6.625 1,-6.546875 1,-6.390625 V -3.4375 c 0,0.171875 0,0.25 0.140625,0.25 0.078125,0 0.09375,-0.015625 0.140625,-0.078125 C 1.390625,-3.421875 1.75,-3.96875 2.5625,-3.96875 c 0.515625,0 0.765625,0.453125 0.84375,0.640625 0.15625,0.375 0.1875,0.75 0.1875,1.25 0,0.359375 0,0.953125 -0.25,1.375 C 3.109375,-0.3125 2.734375,-0.0625 2.28125,-0.0625 c -0.71875,0 -1.296875,-0.53125 -1.46875,-1.109375 0.03125,0 0.0625,0.015625 0.171875,0.015625 0.328125,0 0.5,-0.25 0.5,-0.484375 0,-0.25 -0.171875,-0.5 -0.5,-0.5 C 0.84375,-2.140625 0.5,-2.0625 0.5,-1.609375 0.5,-0.75 1.1875,0.21875 2.296875,0.21875 3.453125,0.21875 4.46875,-0.734375 4.46875,-2 Z m 0,0"
             id="id-ffa0953b-cca2-41d7-9860-44486efcd894" />
        </g>
      </g>
    </g>
    <g
       transform="matrix(1.09844,0,0,1.09844,-82.1919,91.4419)"
       ns12:version="1.3.0"
       ns12:texconverter="pdflatex"
       ns12:pdfconverter="inkscape"
       ns12:text="-5"
       ns12:preamble="/usr/share/inkscape/extensions/textext/default_packages.tex"
       ns12:scale="4.151586745155103"
       ns12:alignment="middle center"
       ns12:jacobian_sqrt="1.09844"
       id="g15755">
      <defs
         id="id-40288387-edc7-43b4-b850-5c4e9eaaadf4">
        <g
           id="id-54eb9fb9-2e5e-4d28-9530-b2a1f2833664">
          <g
             id="id-f32eb556-6870-48a5-8b22-9917ab333022" />
          <g
             id="id-c49b694c-c0b6-4765-a66b-94eb70693d85">
            <path
               d="M 2.75,-1.859375 V -2.4375 H 0.109375 v 0.578125 z m 0,0"
               id="id-7daa17c0-b119-44ba-badb-59074459a94e" />
          </g>
          <g
             id="id-850d66b0-6f7d-444e-9122-5bed9839eb42">
            <path
               d="m 4.46875,-2 c 0,-1.1875 -0.8125,-2.1875 -1.890625,-2.1875 -0.46875,0 -0.90625,0.15625 -1.265625,0.515625 V -5.625 c 0.203125,0.0625 0.53125,0.125 0.84375,0.125 1.234375,0 1.9375,-0.90625 1.9375,-1.03125 0,-0.0625 -0.03125,-0.109375 -0.109375,-0.109375 0,0 -0.03125,0 -0.078125,0.03125 C 3.703125,-6.515625 3.21875,-6.3125 2.546875,-6.3125 2.15625,-6.3125 1.6875,-6.390625 1.21875,-6.59375 1.140625,-6.625 1.125,-6.625 1.109375,-6.625 1,-6.625 1,-6.546875 1,-6.390625 V -3.4375 c 0,0.171875 0,0.25 0.140625,0.25 0.078125,0 0.09375,-0.015625 0.140625,-0.078125 C 1.390625,-3.421875 1.75,-3.96875 2.5625,-3.96875 c 0.515625,0 0.765625,0.453125 0.84375,0.640625 0.15625,0.375 0.1875,0.75 0.1875,1.25 0,0.359375 0,0.953125 -0.25,1.375 C 3.109375,-0.3125 2.734375,-0.0625 2.28125,-0.0625 c -0.71875,0 -1.296875,-0.53125 -1.46875,-1.109375 0.03125,0 0.0625,0.015625 0.171875,0.015625 0.328125,0 0.5,-0.25 0.5,-0.484375 0,-0.25 -0.171875,-0.5 -0.5,-0.5 C 0.84375,-2.140625 0.5,-2.0625 0.5,-1.609375 0.5,-0.75 1.1875,0.21875 2.296875,0.21875 3.453125,0.21875 4.46875,-0.734375 4.46875,-2 Z m 0,0"
               id="id-7828c1c2-f59c-4492-a6c3-44a72b35ba68" />
          </g>
        </g>
      </defs>
      <g
         fill="#000000"
         fill-opacity="1"
         id="id-330982ff-ba85-47e7-92c5-5299cc725ede"
         transform="translate(-148.821,-128.124)">
        <g
           transform="translate(148.712,134.765)"
           id="g16314">
          <path
             d="M 2.75,-1.859375 V -2.4375 H 0.109375 v 0.578125 z m 0,0"
             id="id-b4d0fba3-e4e8-4c77-acf9-67058d34f9d5" />
        </g>
        <g
           transform="translate(152.033,134.765)"
           id="g16317">
          <path
             d="m 4.46875,-2 c 0,-1.1875 -0.8125,-2.1875 -1.890625,-2.1875 -0.46875,0 -0.90625,0.15625 -1.265625,0.515625 V -5.625 c 0.203125,0.0625 0.53125,0.125 0.84375,0.125 1.234375,0 1.9375,-0.90625 1.9375,-1.03125 0,-0.0625 -0.03125,-0.109375 -0.109375,-0.109375 0,0 -0.03125,0 -0.078125,0.03125 C 3.703125,-6.515625 3.21875,-6.3125 2.546875,-6.3125 2.15625,-6.3125 1.6875,-6.390625 1.21875,-6.59375 1.140625,-6.625 1.125,-6.625 1.109375,-6.625 1,-6.625 1,-6.546875 1,-6.390625 V -3.4375 c 0,0.171875 0,0.25 0.140625,0.25 0.078125,0 0.09375,-0.015625 0.140625,-0.078125 C 1.390625,-3.421875 1.75,-3.96875 2.5625,-3.96875 c 0.515625,0 0.765625,0.453125 0.84375,0.640625 0.15625,0.375 0.1875,0.75 0.1875,1.25 0,0.359375 0,0.953125 -0.25,1.375 C 3.109375,-0.3125 2.734375,-0.0625 2.28125,-0.0625 c -0.71875,0 -1.296875,-0.53125 -1.46875,-1.109375 0.03125,0 0.0625,0.015625 0.171875,0.015625 0.328125,0 0.5,-0.25 0.5,-0.484375 0,-0.25 -0.171875,-0.5 -0.5,-0.5 C 0.84375,-2.140625 0.5,-2.0625 0.5,-1.609375 0.5,-0.75 1.1875,0.21875 2.296875,0.21875 3.453125,0.21875 4.46875,-0.734375 4.46875,-2 Z m 0,0"
             id="id-856aa64b-7502-4209-bf9f-3716dfbc7550" />
        </g>
      </g>
    </g>
    <circle
       style="fill:#348abd;fill-opacity:1;stroke:none;stroke-width:0.7;stroke-miterlimit:4;stroke-dasharray:none;stroke-dashoffset:0"
       id="circle16984"
       cx="-93.849159"
       cy="84.625832"
       r="5.2801723" />
    <g
       transform="matrix(1.09844,0,0,1.09844,-98.118,91.4423)"
       ns12:version="1.3.0"
       ns12:texconverter="pdflatex"
       ns12:pdfconverter="inkscape"
       ns12:text="-6"
       ns12:preamble="/usr/share/inkscape/extensions/textext/default_packages.tex"
       ns12:scale="4.151586745155103"
       ns12:alignment="middle center"
       ns12:jacobian_sqrt="1.09844"
       id="g17010">
      <defs
         id="id-18d8ce11-fe35-4bcc-a5de-610a72746443">
        <g
           id="id-a3d31dde-5979-48b8-a47b-49bb011a7d09">
          <g
             id="id-379abf36-7163-4ad1-ba3b-282d32b519fa" />
          <g
             id="id-da3c843f-6614-4058-8bfe-5ce873379714">
            <path
               d="M 2.75,-1.859375 V -2.4375 H 0.109375 v 0.578125 z m 0,0"
               id="id-27fa0ca2-4abb-42cd-824d-14f2ee764314" />
          </g>
          <g
             id="id-7cb03012-eec4-4c76-b893-ab9a0172afd5">
            <path
               d="m 1.3125,-3.265625 v -0.25 c 0,-2.515625 1.234375,-2.875 1.75,-2.875 0.234375,0 0.65625,0.0625 0.875,0.40625 -0.15625,0 -0.546875,0 -0.546875,0.4375 0,0.3125 0.234375,0.46875 0.453125,0.46875 0.15625,0 0.46875,-0.09375 0.46875,-0.484375 0,-0.59375 -0.4375,-1.078125 -1.265625,-1.078125 -1.28125,0 -2.625,1.28125 -2.625,3.484375 0,2.671875 1.15625,3.375 2.078125,3.375 1.109375,0 2.0625,-0.9375 2.0625,-2.25 0,-1.265625 -0.890625,-2.21875 -2,-2.21875 -0.671875,0 -1.046875,0.5 -1.25,0.984375 z M 2.5,-0.0625 c -0.625,0 -0.921875,-0.59375 -0.984375,-0.75 -0.1875,-0.46875 -0.1875,-1.265625 -0.1875,-1.4375 0,-0.78125 0.328125,-1.78125 1.21875,-1.78125 0.171875,0 0.625,0 0.9375,0.625 0.171875,0.359375 0.171875,0.875 0.171875,1.359375 0,0.484375 0,0.984375 -0.171875,1.34375 C 3.1875,-0.109375 2.734375,-0.0625 2.5,-0.0625 Z m 0,0"
               id="id-1b441407-7436-4c97-9c6b-d35a51bda8d4" />
          </g>
        </g>
      </defs>
      <g
         fill="#000000"
         fill-opacity="1"
         id="id-3c37cf29-3114-4a69-8ce7-18108c2e3961"
         transform="translate(-148.821,-128.124)">
        <g
           transform="translate(148.712,134.765)"
           id="g17301">
          <path
             d="M 2.75,-1.859375 V -2.4375 H 0.109375 v 0.578125 z m 0,0"
             id="id-ce690045-4074-4538-9903-61f43ad99fbc" />
        </g>
        <g
           transform="translate(152.033,134.765)"
           id="g17304">
          <path
             d="m 1.3125,-3.265625 v -0.25 c 0,-2.515625 1.234375,-2.875 1.75,-2.875 0.234375,0 0.65625,0.0625 0.875,0.40625 -0.15625,0 -0.546875,0 -0.546875,0.4375 0,0.3125 0.234375,0.46875 0.453125,0.46875 0.15625,0 0.46875,-0.09375 0.46875,-0.484375 0,-0.59375 -0.4375,-1.078125 -1.265625,-1.078125 -1.28125,0 -2.625,1.28125 -2.625,3.484375 0,2.671875 1.15625,3.375 2.078125,3.375 1.109375,0 2.0625,-0.9375 2.0625,-2.25 0,-1.265625 -0.890625,-2.21875 -2,-2.21875 -0.671875,0 -1.046875,0.5 -1.25,0.984375 z M 2.5,-0.0625 c -0.625,0 -0.921875,-0.59375 -0.984375,-0.75 -0.1875,-0.46875 -0.1875,-1.265625 -0.1875,-1.4375 0,-0.78125 0.328125,-1.78125 1.21875,-1.78125 0.171875,0 0.625,0 0.9375,0.625 0.171875,0.359375 0.171875,0.875 0.171875,1.359375 0,0.484375 0,0.984375 -0.171875,1.34375 C 3.1875,-0.109375 2.734375,-0.0625 2.5,-0.0625 Z m 0,0"
             id="id-48f5f40d-c5b5-419b-bc21-491ce0b89ab6" />
        </g>
      </g>
    </g>
    <circle
       style="fill:#348abd;fill-opacity:1;stroke:none;stroke-width:0.7;stroke-miterlimit:4;stroke-dasharray:none;stroke-dashoffset:0"
       id="circle17341"
       cx="96.650818"
       cy="84.625832"
       r="5.2801723" />
    <g
       transform="matrix(1.09844,0,0,1.09844,94.3771,91.4423)"
       ns12:version="1.3.0"
       ns12:texconverter="pdflatex"
       ns12:pdfconverter="inkscape"
       ns12:text="6"
       ns12:preamble="/usr/share/inkscape/extensions/textext/default_packages.tex"
       ns12:scale="4.151586745155103"
       ns12:alignment="middle center"
       ns12:jacobian_sqrt="1.09844"
       id="g17359">
      <defs
         id="id-e86365a9-4316-4c82-b027-852574f59a7d">
        <g
           id="id-58a34147-d280-4854-8f00-5cc4776ccaec">
          <g
             id="id-b04dbb59-eaf9-419d-b76c-e9c7081ba1b2" />
          <g
             id="id-77afcd17-3186-48b2-a972-25d8beebe819">
            <path
               d="m 1.3125,-3.265625 v -0.25 c 0,-2.515625 1.234375,-2.875 1.75,-2.875 0.234375,0 0.65625,0.0625 0.875,0.40625 -0.15625,0 -0.546875,0 -0.546875,0.4375 0,0.3125 0.234375,0.46875 0.453125,0.46875 0.15625,0 0.46875,-0.09375 0.46875,-0.484375 0,-0.59375 -0.4375,-1.078125 -1.265625,-1.078125 -1.28125,0 -2.625,1.28125 -2.625,3.484375 0,2.671875 1.15625,3.375 2.078125,3.375 1.109375,0 2.0625,-0.9375 2.0625,-2.25 0,-1.265625 -0.890625,-2.21875 -2,-2.21875 -0.671875,0 -1.046875,0.5 -1.25,0.984375 z M 2.5,-0.0625 c -0.625,0 -0.921875,-0.59375 -0.984375,-0.75 -0.1875,-0.46875 -0.1875,-1.265625 -0.1875,-1.4375 0,-0.78125 0.328125,-1.78125 1.21875,-1.78125 0.171875,0 0.625,0 0.9375,0.625 0.171875,0.359375 0.171875,0.875 0.171875,1.359375 0,0.484375 0,0.984375 -0.171875,1.34375 C 3.1875,-0.109375 2.734375,-0.0625 2.5,-0.0625 Z m 0,0"
               id="id-0dda134c-1bf4-4e6a-a8f0-425073598447" />
          </g>
        </g>
      </defs>
      <g
         fill="#000000"
         fill-opacity="1"
         id="id-ea830571-290d-4f6f-a8c2-fc6091aff341"
         transform="translate(-149.134,-128.124)">
        <g
           transform="translate(148.712,134.765)"
           id="g17672">
          <path
             d="m 1.3125,-3.265625 v -0.25 c 0,-2.515625 1.234375,-2.875 1.75,-2.875 0.234375,0 0.65625,0.0625 0.875,0.40625 -0.15625,0 -0.546875,0 -0.546875,0.4375 0,0.3125 0.234375,0.46875 0.453125,0.46875 0.15625,0 0.46875,-0.09375 0.46875,-0.484375 0,-0.59375 -0.4375,-1.078125 -1.265625,-1.078125 -1.28125,0 -2.625,1.28125 -2.625,3.484375 0,2.671875 1.15625,3.375 2.078125,3.375 1.109375,0 2.0625,-0.9375 2.0625,-2.25 0,-1.265625 -0.890625,-2.21875 -2,-2.21875 -0.671875,0 -1.046875,0.5 -1.25,0.984375 z M 2.5,-0.0625 c -0.625,0 -0.921875,-0.59375 -0.984375,-0.75 -0.1875,-0.46875 -0.1875,-1.265625 -0.1875,-1.4375 0,-0.78125 0.328125,-1.78125 1.21875,-1.78125 0.171875,0 0.625,0 0.9375,0.625 0.171875,0.359375 0.171875,0.875 0.171875,1.359375 0,0.484375 0,0.984375 -0.171875,1.34375 C 3.1875,-0.109375 2.734375,-0.0625 2.5,-0.0625 Z m 0,0"
             id="id-ae91d32b-1738-4dcc-b7a9-56ff6c2535d1" />
        </g>
      </g>
    </g>
    <circle
       style="fill:#e24a33;fill-opacity:1;stroke:none;stroke-width:0.7;stroke-miterlimit:4;stroke-dasharray:none;stroke-dashoffset:0"
       id="circle17705"
       cx="-14.47416"
       cy="158.70917"
       r="5.2801723" />
    <circle
       style="fill:#348abd;fill-opacity:1;stroke:none;stroke-width:0.7;stroke-miterlimit:4;stroke-dasharray:none;stroke-dashoffset:0"
       id="circle17707"
       cx="-38.286663"
       cy="179.8759"
       r="5.2801723" />
    <circle
       style="fill:#348abd;fill-opacity:1;stroke:none;stroke-width:0.7;stroke-miterlimit:4;stroke-dasharray:none;stroke-dashoffset:0"
       id="circle17709"
       cx="-22.411659"
       cy="179.8759"
       r="5.2801723" />
    <circle
       style="fill:#348abd;fill-opacity:1;stroke:none;stroke-width:0.7;stroke-miterlimit:4;stroke-dasharray:none;stroke-dashoffset:0"
       id="circle17711"
       cx="-6.5366607"
       cy="179.8759"
       r="5.2801723" />
    <circle
       style="fill:#e24a33;fill-opacity:1;stroke:none;stroke-width:0.7;stroke-miterlimit:4;stroke-dasharray:none;stroke-dashoffset:0"
       id="circle17713"
       cx="1.4008306"
       cy="158.70917"
       r="5.2801723" />
    <circle
       style="fill:#348abd;fill-opacity:1;stroke:none;stroke-width:0.7;stroke-miterlimit:4;stroke-dasharray:none;stroke-dashoffset:0"
       id="circle17715"
       cx="9.3383379"
       cy="179.8759"
       r="5.2801723" />
    <circle
       style="fill:#348abd;fill-opacity:1;stroke:none;stroke-width:0.7;stroke-miterlimit:4;stroke-dasharray:none;stroke-dashoffset:0"
       id="circle17717"
       cx="25.213341"
       cy="179.8759"
       r="5.2801723" />
    <circle
       style="fill:#348abd;fill-opacity:1;stroke:none;stroke-width:0.7;stroke-miterlimit:4;stroke-dasharray:none;stroke-dashoffset:0"
       id="circle17719"
       cx="41.088341"
       cy="179.8759"
       r="5.2801723" />
    <circle
       style="fill:#e24a33;fill-opacity:1;stroke:none;stroke-width:0.7;stroke-miterlimit:4;stroke-dasharray:none;stroke-dashoffset:0"
       id="circle17721"
       cx="17.275833"
       cy="158.70917"
       r="5.2801723" />
    <g
       transform="matrix(1.0984372,0,0,1.0984372,-0.89860757,144.3582)"
       ns12:version="1.3.0"
       ns12:texconverter="pdflatex"
       ns12:pdfconverter="inkscape"
       ns12:text="0"
       ns12:preamble="/usr/share/inkscape/extensions/textext/default_packages.tex"
       ns12:scale="40.0"
       ns12:alignment="middle center"
       ns12:jacobian_sqrt="10.5833"
       id="g17739">
      <defs
         id="defs17731">
        <g
           id="g17729">
          <g
             id="g17723" />
          <g
             id="g17727">
            <path
               d="m 4.578125,-3.1875 c 0,-0.796875 -0.046875,-1.59375 -0.390625,-2.328125 -0.453125,-0.96875 -1.28125,-1.125 -1.6875,-1.125 -0.609375,0 -1.328125,0.265625 -1.75,1.1875 -0.3125,0.6875 -0.359375,1.46875 -0.359375,2.265625 0,0.75 0.03125,1.640625 0.453125,2.40625 0.421875,0.796875 1.15625,1 1.640625,1 0.53125,0 1.296875,-0.203125 1.734375,-1.15625 0.3125,-0.6875 0.359375,-1.46875 0.359375,-2.25 z M 2.484375,0 C 2.09375,0 1.5,-0.25 1.328125,-1.203125 1.21875,-1.796875 1.21875,-2.71875 1.21875,-3.3125 c 0,-0.640625 0,-1.296875 0.078125,-1.828125 0.1875,-1.1875 0.9375,-1.28125 1.1875,-1.28125 0.328125,0 0.984375,0.1875 1.171875,1.171875 0.109375,0.5625 0.109375,1.3125 0.109375,1.9375 0,0.75 0,1.421875 -0.109375,2.0625 C 3.5,-0.296875 2.9375,0 2.484375,0 Z m 0,0"
               id="path17725" />
          </g>
        </g>
      </defs>
      <g
         fill="#000000"
         fill-opacity="1"
         id="g17737"
         transform="translate(-149.103,-128.124)">
        <g
           transform="translate(148.712,134.765)"
           id="g17735">
          <path
             d="m 4.578125,-3.1875 c 0,-0.796875 -0.046875,-1.59375 -0.390625,-2.328125 -0.453125,-0.96875 -1.28125,-1.125 -1.6875,-1.125 -0.609375,0 -1.328125,0.265625 -1.75,1.1875 -0.3125,0.6875 -0.359375,1.46875 -0.359375,2.265625 0,0.75 0.03125,1.640625 0.453125,2.40625 0.421875,0.796875 1.15625,1 1.640625,1 0.53125,0 1.296875,-0.203125 1.734375,-1.15625 0.3125,-0.6875 0.359375,-1.46875 0.359375,-2.25 z M 2.484375,0 C 2.09375,0 1.5,-0.25 1.328125,-1.203125 1.21875,-1.796875 1.21875,-2.71875 1.21875,-3.3125 c 0,-0.640625 0,-1.296875 0.078125,-1.828125 0.1875,-1.1875 0.9375,-1.28125 1.1875,-1.28125 0.328125,0 0.984375,0.1875 1.171875,1.171875 0.109375,0.5625 0.109375,1.3125 0.109375,1.9375 0,0.75 0,1.421875 -0.109375,2.0625 C 3.5,-0.296875 2.9375,0 2.484375,0 Z m 0,0"
             id="path17733" />
        </g>
      </g>
    </g>
    <g
       transform="matrix(1.09844,0,0,1.09844,14.855901,144.41874)"
       ns12:version="1.3.0"
       ns12:texconverter="pdflatex"
       ns12:pdfconverter="inkscape"
       ns12:text="4"
       ns12:preamble="/usr/share/inkscape/extensions/textext/default_packages.tex"
       ns12:scale="4.151586745155103"
       ns12:alignment="middle center"
       ns12:jacobian_sqrt="1.09844"
       id="g17757">
      <defs
         id="defs17749">
        <g
           id="g17747">
          <g
             id="g17741" />
          <g
             id="g17745">
            <path
               d="m 2.9375,-1.640625 v 0.859375 c 0,0.359375 -0.03125,0.46875 -0.765625,0.46875 H 1.96875 V 0 C 2.375,-0.03125 2.890625,-0.03125 3.3125,-0.03125 c 0.421875,0 0.9375,0 1.359375,0.03125 v -0.3125 h -0.21875 c -0.734375,0 -0.75,-0.109375 -0.75,-0.46875 V -1.640625 H 4.6875 v -0.3125 H 3.703125 v -4.53125 c 0,-0.203125 0,-0.265625 -0.171875,-0.265625 -0.078125,0 -0.109375,0 -0.1875,0.125 l -3.0625,4.671875 v 0.3125 z m 0.046875,-0.3125 H 0.5625 l 2.421875,-3.71875 z m 0,0"
               id="path17743" />
          </g>
        </g>
      </defs>
      <g
         fill="#000000"
         fill-opacity="1"
         id="g17755"
         transform="translate(-148.993,-128.015)">
        <g
           transform="translate(148.712,134.765)"
           id="g17753">
          <path
             d="m 2.9375,-1.640625 v 0.859375 c 0,0.359375 -0.03125,0.46875 -0.765625,0.46875 H 1.96875 V 0 C 2.375,-0.03125 2.890625,-0.03125 3.3125,-0.03125 c 0.421875,0 0.9375,0 1.359375,0.03125 v -0.3125 h -0.21875 c -0.734375,0 -0.75,-0.109375 -0.75,-0.46875 V -1.640625 H 4.6875 v -0.3125 H 3.703125 v -4.53125 c 0,-0.203125 0,-0.265625 -0.171875,-0.265625 -0.078125,0 -0.109375,0 -0.1875,0.125 l -3.0625,4.671875 v 0.3125 z m 0.046875,-0.3125 H 0.5625 l 2.421875,-3.71875 z m 0,0"
             id="path17751" />
        </g>
      </g>
    </g>
    <g
       transform="matrix(1.09844,0,0,1.09844,38.81421,186.69202)"
       ns12:version="1.3.0"
       ns12:texconverter="pdflatex"
       ns12:pdfconverter="inkscape"
       ns12:text="3"
       ns12:preamble="/usr/share/inkscape/extensions/textext/default_packages.tex"
       ns12:scale="4.151586745155103"
       ns12:alignment="middle center"
       ns12:jacobian_sqrt="1.09844"
       id="g17775">
      <defs
         id="defs17767">
        <g
           id="g17765">
          <g
             id="g17759" />
          <g
             id="g17763">
            <path
               d="m 2.890625,-3.515625 c 0.8125,-0.265625 1.390625,-0.953125 1.390625,-1.75 0,-0.8125 -0.875,-1.375 -1.828125,-1.375 -1,0 -1.765625,0.59375 -1.765625,1.359375 0,0.328125 0.21875,0.515625 0.515625,0.515625 0.296875,0 0.5,-0.21875 0.5,-0.515625 0,-0.484375 -0.46875,-0.484375 -0.609375,-0.484375 0.296875,-0.5 0.953125,-0.625 1.3125,-0.625 0.421875,0 0.96875,0.21875 0.96875,1.109375 0,0.125 -0.03125,0.703125 -0.28125,1.140625 C 2.796875,-3.65625 2.453125,-3.625 2.203125,-3.625 2.125,-3.609375 1.890625,-3.59375 1.8125,-3.59375 c -0.078125,0.015625 -0.140625,0.03125 -0.140625,0.125 0,0.109375 0.0625,0.109375 0.234375,0.109375 h 0.4375 c 0.8125,0 1.1875,0.671875 1.1875,1.65625 0,1.359375 -0.6875,1.640625 -1.125,1.640625 -0.4375,0 -1.1875,-0.171875 -1.53125,-0.75 0.34375,0.046875 0.65625,-0.171875 0.65625,-0.546875 0,-0.359375 -0.265625,-0.5625 -0.546875,-0.5625 -0.25,0 -0.5625,0.140625 -0.5625,0.578125 0,0.90625 0.921875,1.5625 2.015625,1.5625 1.21875,0 2.125,-0.90625 2.125,-1.921875 0,-0.8125 -0.640625,-1.59375 -1.671875,-1.8125 z m 0,0"
               id="path17761" />
          </g>
        </g>
      </defs>
      <g
         fill="#000000"
         fill-opacity="1"
         id="g17773"
         transform="translate(-149.134,-128.124)">
        <g
           transform="translate(148.712,134.765)"
           id="g17771">
          <path
             d="m 2.890625,-3.515625 c 0.8125,-0.265625 1.390625,-0.953125 1.390625,-1.75 0,-0.8125 -0.875,-1.375 -1.828125,-1.375 -1,0 -1.765625,0.59375 -1.765625,1.359375 0,0.328125 0.21875,0.515625 0.515625,0.515625 0.296875,0 0.5,-0.21875 0.5,-0.515625 0,-0.484375 -0.46875,-0.484375 -0.609375,-0.484375 0.296875,-0.5 0.953125,-0.625 1.3125,-0.625 0.421875,0 0.96875,0.21875 0.96875,1.109375 0,0.125 -0.03125,0.703125 -0.28125,1.140625 C 2.796875,-3.65625 2.453125,-3.625 2.203125,-3.625 2.125,-3.609375 1.890625,-3.59375 1.8125,-3.59375 c -0.078125,0.015625 -0.140625,0.03125 -0.140625,0.125 0,0.109375 0.0625,0.109375 0.234375,0.109375 h 0.4375 c 0.8125,0 1.1875,0.671875 1.1875,1.65625 0,1.359375 -0.6875,1.640625 -1.125,1.640625 -0.4375,0 -1.1875,-0.171875 -1.53125,-0.75 0.34375,0.046875 0.65625,-0.171875 0.65625,-0.546875 0,-0.359375 -0.265625,-0.5625 -0.546875,-0.5625 -0.25,0 -0.5625,0.140625 -0.5625,0.578125 0,0.90625 0.921875,1.5625 2.015625,1.5625 1.21875,0 2.125,-0.90625 2.125,-1.921875 0,-0.8125 -0.640625,-1.59375 -1.671875,-1.8125 z m 0,0"
             id="path17769" />
        </g>
      </g>
    </g>
    <g
       transform="matrix(1.09844,0,0,1.09844,23.03361,186.81212)"
       ns12:version="1.3.0"
       ns12:texconverter="pdflatex"
       ns12:pdfconverter="inkscape"
       ns12:text="2"
       ns12:preamble="/usr/share/inkscape/extensions/textext/default_packages.tex"
       ns12:scale="4.151586745155103"
       ns12:alignment="middle center"
       ns12:jacobian_sqrt="1.09844"
       id="g17793">
      <defs
         id="defs17785">
        <g
           id="g17783">
          <g
             id="g17777" />
          <g
             id="g17781">
            <path
               d="m 1.265625,-0.765625 1.0625,-1.03125 c 1.546875,-1.375 2.140625,-1.90625 2.140625,-2.90625 0,-1.140625 -0.890625,-1.9375 -2.109375,-1.9375 -1.125,0 -1.859375,0.921875 -1.859375,1.8125 0,0.546875 0.5,0.546875 0.53125,0.546875 0.171875,0 0.515625,-0.109375 0.515625,-0.53125 0,-0.25 -0.1875,-0.515625 -0.53125,-0.515625 -0.078125,0 -0.09375,0 -0.125,0.015625 0.21875,-0.65625 0.765625,-1.015625 1.34375,-1.015625 0.90625,0 1.328125,0.8125 1.328125,1.625 C 3.5625,-3.90625 3.078125,-3.125 2.515625,-2.5 l -1.90625,2.125 C 0.5,-0.265625 0.5,-0.234375 0.5,0 H 4.203125 L 4.46875,-1.734375 H 4.234375 C 4.171875,-1.4375 4.109375,-1 4,-0.84375 3.9375,-0.765625 3.28125,-0.765625 3.0625,-0.765625 Z m 0,0"
               id="path17779" />
          </g>
        </g>
      </defs>
      <g
         fill="#000000"
         fill-opacity="1"
         id="g17791"
         transform="translate(-149.212,-128.124)">
        <g
           transform="translate(148.712,134.765)"
           id="g17789">
          <path
             d="m 1.265625,-0.765625 1.0625,-1.03125 c 1.546875,-1.375 2.140625,-1.90625 2.140625,-2.90625 0,-1.140625 -0.890625,-1.9375 -2.109375,-1.9375 -1.125,0 -1.859375,0.921875 -1.859375,1.8125 0,0.546875 0.5,0.546875 0.53125,0.546875 0.171875,0 0.515625,-0.109375 0.515625,-0.53125 0,-0.25 -0.1875,-0.515625 -0.53125,-0.515625 -0.078125,0 -0.09375,0 -0.125,0.015625 0.21875,-0.65625 0.765625,-1.015625 1.34375,-1.015625 0.90625,0 1.328125,0.8125 1.328125,1.625 C 3.5625,-3.90625 3.078125,-3.125 2.515625,-2.5 l -1.90625,2.125 C 0.5,-0.265625 0.5,-0.234375 0.5,0 H 4.203125 L 4.46875,-1.734375 H 4.234375 C 4.171875,-1.4375 4.109375,-1 4,-0.84375 3.9375,-0.765625 3.28125,-0.765625 3.0625,-0.765625 Z m 0,0"
             id="path17787" />
        </g>
      </g>
    </g>
    <g
       transform="matrix(1.09844,0,0,1.09844,7.5362084,186.81212)"
       ns12:version="1.3.0"
       ns12:texconverter="pdflatex"
       ns12:pdfconverter="inkscape"
       ns12:text="1"
       ns12:preamble="/usr/share/inkscape/extensions/textext/default_packages.tex"
       ns12:scale="4.151586745155103"
       ns12:alignment="middle center"
       ns12:jacobian_sqrt="1.09844"
       id="g17811">
      <defs
         id="defs17803">
        <g
           id="g17801">
          <g
             id="g17795" />
          <g
             id="g17799">
            <path
               d="m 2.9375,-6.375 c 0,-0.25 0,-0.265625 -0.234375,-0.265625 C 2.078125,-6 1.203125,-6 0.890625,-6 v 0.3125 c 0.203125,0 0.78125,0 1.296875,-0.265625 v 5.171875 c 0,0.359375 -0.03125,0.46875 -0.921875,0.46875 h -0.3125 V 0 c 0.34375,-0.03125 1.203125,-0.03125 1.609375,-0.03125 0.390625,0 1.265625,0 1.609375,0.03125 v -0.3125 h -0.3125 c -0.90625,0 -0.921875,-0.109375 -0.921875,-0.46875 z m 0,0"
               id="path17797" />
          </g>
        </g>
      </defs>
      <g
         fill="#000000"
         fill-opacity="1"
         id="g17809"
         transform="translate(-149.603,-128.124)">
        <g
           transform="translate(148.712,134.765)"
           id="g17807">
          <path
             d="m 2.9375,-6.375 c 0,-0.25 0,-0.265625 -0.234375,-0.265625 C 2.078125,-6 1.203125,-6 0.890625,-6 v 0.3125 c 0.203125,0 0.78125,0 1.296875,-0.265625 v 5.171875 c 0,0.359375 -0.03125,0.46875 -0.921875,0.46875 h -0.3125 V 0 c 0.34375,-0.03125 1.203125,-0.03125 1.609375,-0.03125 0.390625,0 1.265625,0 1.609375,0.03125 v -0.3125 h -0.3125 c -0.90625,0 -0.921875,-0.109375 -0.921875,-0.46875 z m 0,0"
             id="path17805" />
        </g>
      </g>
    </g>
    <g
       transform="matrix(1.09844,0,0,1.09844,-18.812488,144.41874)"
       ns12:version="1.3.0"
       ns12:texconverter="pdflatex"
       ns12:pdfconverter="inkscape"
       ns12:text="-4"
       ns12:preamble="/usr/share/inkscape/extensions/textext/default_packages.tex"
       ns12:scale="4.151586745155103"
       ns12:alignment="middle center"
       ns12:jacobian_sqrt="1.09844"
       id="g17837">
      <defs
         id="defs17825">
        <g
           id="g17823">
          <g
             id="g17813" />
          <g
             id="g17817">
            <path
               d="M 2.75,-1.859375 V -2.4375 H 0.109375 v 0.578125 z m 0,0"
               id="path17815" />
          </g>
          <g
             id="g17821">
            <path
               d="m 2.9375,-1.640625 v 0.859375 c 0,0.359375 -0.03125,0.46875 -0.765625,0.46875 H 1.96875 V 0 C 2.375,-0.03125 2.890625,-0.03125 3.3125,-0.03125 c 0.421875,0 0.9375,0 1.359375,0.03125 v -0.3125 h -0.21875 c -0.734375,0 -0.75,-0.109375 -0.75,-0.46875 V -1.640625 H 4.6875 v -0.3125 H 3.703125 v -4.53125 c 0,-0.203125 0,-0.265625 -0.171875,-0.265625 -0.078125,0 -0.109375,0 -0.1875,0.125 l -3.0625,4.671875 v 0.3125 z m 0.046875,-0.3125 H 0.5625 l 2.421875,-3.71875 z m 0,0"
               id="path17819" />
          </g>
        </g>
      </defs>
      <g
         fill="#000000"
         fill-opacity="1"
         id="g17835"
         transform="translate(-148.821,-128.015)">
        <g
           transform="translate(148.712,134.765)"
           id="g17829">
          <path
             d="M 2.75,-1.859375 V -2.4375 H 0.109375 v 0.578125 z m 0,0"
             id="path17827" />
        </g>
        <g
           transform="translate(152.033,134.765)"
           id="g17833">
          <path
             d="m 2.9375,-1.640625 v 0.859375 c 0,0.359375 -0.03125,0.46875 -0.765625,0.46875 H 1.96875 V 0 C 2.375,-0.03125 2.890625,-0.03125 3.3125,-0.03125 c 0.421875,0 0.9375,0 1.359375,0.03125 v -0.3125 h -0.21875 c -0.734375,0 -0.75,-0.109375 -0.75,-0.46875 V -1.640625 H 4.6875 v -0.3125 H 3.703125 v -4.53125 c 0,-0.203125 0,-0.265625 -0.171875,-0.265625 -0.078125,0 -0.109375,0 -0.1875,0.125 l -3.0625,4.671875 v 0.3125 z m 0.046875,-0.3125 H 0.5625 l 2.421875,-3.71875 z m 0,0"
             id="path17831" />
        </g>
      </g>
    </g>
    <g
       transform="matrix(1.09844,0,0,1.09844,-42.556389,186.69202)"
       ns12:version="1.3.0"
       ns12:texconverter="pdflatex"
       ns12:pdfconverter="inkscape"
       ns12:text="-3"
       ns12:preamble="/usr/share/inkscape/extensions/textext/default_packages.tex"
       ns12:scale="4.151586745155103"
       ns12:alignment="middle center"
       ns12:jacobian_sqrt="1.09844"
       id="g17863">
      <defs
         id="defs17851">
        <g
           id="g17849">
          <g
             id="g17839" />
          <g
             id="g17843">
            <path
               d="M 2.75,-1.859375 V -2.4375 H 0.109375 v 0.578125 z m 0,0"
               id="path17841" />
          </g>
          <g
             id="g17847">
            <path
               d="m 2.890625,-3.515625 c 0.8125,-0.265625 1.390625,-0.953125 1.390625,-1.75 0,-0.8125 -0.875,-1.375 -1.828125,-1.375 -1,0 -1.765625,0.59375 -1.765625,1.359375 0,0.328125 0.21875,0.515625 0.515625,0.515625 0.296875,0 0.5,-0.21875 0.5,-0.515625 0,-0.484375 -0.46875,-0.484375 -0.609375,-0.484375 0.296875,-0.5 0.953125,-0.625 1.3125,-0.625 0.421875,0 0.96875,0.21875 0.96875,1.109375 0,0.125 -0.03125,0.703125 -0.28125,1.140625 C 2.796875,-3.65625 2.453125,-3.625 2.203125,-3.625 2.125,-3.609375 1.890625,-3.59375 1.8125,-3.59375 c -0.078125,0.015625 -0.140625,0.03125 -0.140625,0.125 0,0.109375 0.0625,0.109375 0.234375,0.109375 h 0.4375 c 0.8125,0 1.1875,0.671875 1.1875,1.65625 0,1.359375 -0.6875,1.640625 -1.125,1.640625 -0.4375,0 -1.1875,-0.171875 -1.53125,-0.75 0.34375,0.046875 0.65625,-0.171875 0.65625,-0.546875 0,-0.359375 -0.265625,-0.5625 -0.546875,-0.5625 -0.25,0 -0.5625,0.140625 -0.5625,0.578125 0,0.90625 0.921875,1.5625 2.015625,1.5625 1.21875,0 2.125,-0.90625 2.125,-1.921875 0,-0.8125 -0.640625,-1.59375 -1.671875,-1.8125 z m 0,0"
               id="path17845" />
          </g>
        </g>
      </defs>
      <g
         fill="#000000"
         fill-opacity="1"
         id="g17861"
         transform="translate(-148.821,-128.124)">
        <g
           transform="translate(148.712,134.765)"
           id="g17855">
          <path
             d="M 2.75,-1.859375 V -2.4375 H 0.109375 v 0.578125 z m 0,0"
             id="path17853" />
        </g>
        <g
           transform="translate(152.033,134.765)"
           id="g17859">
          <path
             d="m 2.890625,-3.515625 c 0.8125,-0.265625 1.390625,-0.953125 1.390625,-1.75 0,-0.8125 -0.875,-1.375 -1.828125,-1.375 -1,0 -1.765625,0.59375 -1.765625,1.359375 0,0.328125 0.21875,0.515625 0.515625,0.515625 0.296875,0 0.5,-0.21875 0.5,-0.515625 0,-0.484375 -0.46875,-0.484375 -0.609375,-0.484375 0.296875,-0.5 0.953125,-0.625 1.3125,-0.625 0.421875,0 0.96875,0.21875 0.96875,1.109375 0,0.125 -0.03125,0.703125 -0.28125,1.140625 C 2.796875,-3.65625 2.453125,-3.625 2.203125,-3.625 2.125,-3.609375 1.890625,-3.59375 1.8125,-3.59375 c -0.078125,0.015625 -0.140625,0.03125 -0.140625,0.125 0,0.109375 0.0625,0.109375 0.234375,0.109375 h 0.4375 c 0.8125,0 1.1875,0.671875 1.1875,1.65625 0,1.359375 -0.6875,1.640625 -1.125,1.640625 -0.4375,0 -1.1875,-0.171875 -1.53125,-0.75 0.34375,0.046875 0.65625,-0.171875 0.65625,-0.546875 0,-0.359375 -0.265625,-0.5625 -0.546875,-0.5625 -0.25,0 -0.5625,0.140625 -0.5625,0.578125 0,0.90625 0.921875,1.5625 2.015625,1.5625 1.21875,0 2.125,-0.90625 2.125,-1.921875 0,-0.8125 -0.640625,-1.59375 -1.671875,-1.8125 z m 0,0"
             id="path17857" />
        </g>
      </g>
    </g>
    <g
       transform="matrix(1.09844,0,0,1.09844,-26.62989,186.81212)"
       ns12:version="1.3.0"
       ns12:texconverter="pdflatex"
       ns12:pdfconverter="inkscape"
       ns12:text="-2"
       ns12:preamble="/usr/share/inkscape/extensions/textext/default_packages.tex"
       ns12:scale="4.151586745155103"
       ns12:alignment="middle center"
       ns12:jacobian_sqrt="1.09844"
       id="g17889">
      <defs
         id="defs17877">
        <g
           id="g17875">
          <g
             id="g17865" />
          <g
             id="g17869">
            <path
               d="M 2.75,-1.859375 V -2.4375 H 0.109375 v 0.578125 z m 0,0"
               id="path17867" />
          </g>
          <g
             id="g17873">
            <path
               d="m 1.265625,-0.765625 1.0625,-1.03125 c 1.546875,-1.375 2.140625,-1.90625 2.140625,-2.90625 0,-1.140625 -0.890625,-1.9375 -2.109375,-1.9375 -1.125,0 -1.859375,0.921875 -1.859375,1.8125 0,0.546875 0.5,0.546875 0.53125,0.546875 0.171875,0 0.515625,-0.109375 0.515625,-0.53125 0,-0.25 -0.1875,-0.515625 -0.53125,-0.515625 -0.078125,0 -0.09375,0 -0.125,0.015625 0.21875,-0.65625 0.765625,-1.015625 1.34375,-1.015625 0.90625,0 1.328125,0.8125 1.328125,1.625 C 3.5625,-3.90625 3.078125,-3.125 2.515625,-2.5 l -1.90625,2.125 C 0.5,-0.265625 0.5,-0.234375 0.5,0 H 4.203125 L 4.46875,-1.734375 H 4.234375 C 4.171875,-1.4375 4.109375,-1 4,-0.84375 3.9375,-0.765625 3.28125,-0.765625 3.0625,-0.765625 Z m 0,0"
               id="path17871" />
          </g>
        </g>
      </defs>
      <g
         fill="#000000"
         fill-opacity="1"
         id="g17887"
         transform="translate(-148.821,-128.124)">
        <g
           transform="translate(148.712,134.765)"
           id="g17881">
          <path
             d="M 2.75,-1.859375 V -2.4375 H 0.109375 v 0.578125 z m 0,0"
             id="path17879" />
        </g>
        <g
           transform="translate(152.033,134.765)"
           id="g17885">
          <path
             d="m 1.265625,-0.765625 1.0625,-1.03125 c 1.546875,-1.375 2.140625,-1.90625 2.140625,-2.90625 0,-1.140625 -0.890625,-1.9375 -2.109375,-1.9375 -1.125,0 -1.859375,0.921875 -1.859375,1.8125 0,0.546875 0.5,0.546875 0.53125,0.546875 0.171875,0 0.515625,-0.109375 0.515625,-0.53125 0,-0.25 -0.1875,-0.515625 -0.53125,-0.515625 -0.078125,0 -0.09375,0 -0.125,0.015625 0.21875,-0.65625 0.765625,-1.015625 1.34375,-1.015625 0.90625,0 1.328125,0.8125 1.328125,1.625 C 3.5625,-3.90625 3.078125,-3.125 2.515625,-2.5 l -1.90625,2.125 C 0.5,-0.265625 0.5,-0.234375 0.5,0 H 4.203125 L 4.46875,-1.734375 H 4.234375 C 4.171875,-1.4375 4.109375,-1 4,-0.84375 3.9375,-0.765625 3.28125,-0.765625 3.0625,-0.765625 Z m 0,0"
             id="path17883" />
        </g>
      </g>
    </g>
    <g
       transform="matrix(1.09844,0,0,1.09844,-10.59179,186.81212)"
       ns12:version="1.3.0"
       ns12:texconverter="pdflatex"
       ns12:pdfconverter="inkscape"
       ns12:text="-1"
       ns12:preamble="/usr/share/inkscape/extensions/textext/default_packages.tex"
       ns12:scale="4.151586745155103"
       ns12:alignment="middle center"
       ns12:jacobian_sqrt="1.09844"
       id="g17915">
      <defs
         id="defs17903">
        <g
           id="g17901">
          <g
             id="g17891" />
          <g
             id="g17895">
            <path
               d="M 2.75,-1.859375 V -2.4375 H 0.109375 v 0.578125 z m 0,0"
               id="path17893" />
          </g>
          <g
             id="g17899">
            <path
               d="m 2.9375,-6.375 c 0,-0.25 0,-0.265625 -0.234375,-0.265625 C 2.078125,-6 1.203125,-6 0.890625,-6 v 0.3125 c 0.203125,0 0.78125,0 1.296875,-0.265625 v 5.171875 c 0,0.359375 -0.03125,0.46875 -0.921875,0.46875 h -0.3125 V 0 c 0.34375,-0.03125 1.203125,-0.03125 1.609375,-0.03125 0.390625,0 1.265625,0 1.609375,0.03125 v -0.3125 h -0.3125 c -0.90625,0 -0.921875,-0.109375 -0.921875,-0.46875 z m 0,0"
               id="path17897" />
          </g>
        </g>
      </defs>
      <g
         fill="#000000"
         fill-opacity="1"
         id="g17913"
         transform="translate(-148.821,-128.124)">
        <g
           transform="translate(148.712,134.765)"
           id="g17907">
          <path
             d="M 2.75,-1.859375 V -2.4375 H 0.109375 v 0.578125 z m 0,0"
             id="path17905" />
        </g>
        <g
           transform="translate(152.033,134.765)"
           id="g17911">
          <path
             d="m 2.9375,-6.375 c 0,-0.25 0,-0.265625 -0.234375,-0.265625 C 2.078125,-6 1.203125,-6 0.890625,-6 v 0.3125 c 0.203125,0 0.78125,0 1.296875,-0.265625 v 5.171875 c 0,0.359375 -0.03125,0.46875 -0.921875,0.46875 h -0.3125 V 0 c 0.34375,-0.03125 1.203125,-0.03125 1.609375,-0.03125 0.390625,0 1.265625,0 1.609375,0.03125 v -0.3125 h -0.3125 c -0.90625,0 -0.921875,-0.109375 -0.921875,-0.46875 z m 0,0"
             id="path17909" />
        </g>
      </g>
    </g>
    <circle
       style="fill:#348abd;fill-opacity:1;stroke:none;stroke-width:0.7;stroke-miterlimit:4;stroke-dasharray:none;stroke-dashoffset:0"
       id="circle17917"
       cx="56.963333"
       cy="179.8759"
       r="5.2801723" />
    <circle
       style="fill:#348abd;fill-opacity:1;stroke:none;stroke-width:0.7;stroke-miterlimit:4;stroke-dasharray:none;stroke-dashoffset:0"
       id="circle17919"
       cx="-54.205078"
       cy="179.8759"
       r="5.2801723" />
    <g
       transform="matrix(1.09844,0,0,1.09844,54.78402,186.69202)"
       ns12:version="1.3.0"
       ns12:texconverter="pdflatex"
       ns12:pdfconverter="inkscape"
       ns12:text="5"
       ns12:preamble="/usr/share/inkscape/extensions/textext/default_packages.tex"
       ns12:scale="4.151586745155103"
       ns12:alignment="middle center"
       ns12:jacobian_sqrt="1.09844"
       id="g17937">
      <defs
         id="defs17929">
        <g
           id="g17927">
          <g
             id="g17921" />
          <g
             id="g17925">
            <path
               d="m 4.46875,-2 c 0,-1.1875 -0.8125,-2.1875 -1.890625,-2.1875 -0.46875,0 -0.90625,0.15625 -1.265625,0.515625 V -5.625 c 0.203125,0.0625 0.53125,0.125 0.84375,0.125 1.234375,0 1.9375,-0.90625 1.9375,-1.03125 0,-0.0625 -0.03125,-0.109375 -0.109375,-0.109375 0,0 -0.03125,0 -0.078125,0.03125 C 3.703125,-6.515625 3.21875,-6.3125 2.546875,-6.3125 2.15625,-6.3125 1.6875,-6.390625 1.21875,-6.59375 1.140625,-6.625 1.125,-6.625 1.109375,-6.625 1,-6.625 1,-6.546875 1,-6.390625 V -3.4375 c 0,0.171875 0,0.25 0.140625,0.25 0.078125,0 0.09375,-0.015625 0.140625,-0.078125 C 1.390625,-3.421875 1.75,-3.96875 2.5625,-3.96875 c 0.515625,0 0.765625,0.453125 0.84375,0.640625 0.15625,0.375 0.1875,0.75 0.1875,1.25 0,0.359375 0,0.953125 -0.25,1.375 C 3.109375,-0.3125 2.734375,-0.0625 2.28125,-0.0625 c -0.71875,0 -1.296875,-0.53125 -1.46875,-1.109375 0.03125,0 0.0625,0.015625 0.171875,0.015625 0.328125,0 0.5,-0.25 0.5,-0.484375 0,-0.25 -0.171875,-0.5 -0.5,-0.5 C 0.84375,-2.140625 0.5,-2.0625 0.5,-1.609375 0.5,-0.75 1.1875,0.21875 2.296875,0.21875 3.453125,0.21875 4.46875,-0.734375 4.46875,-2 Z m 0,0"
               id="path17923" />
          </g>
        </g>
      </defs>
      <g
         fill="#000000"
         fill-opacity="1"
         id="g17935"
         transform="translate(-149.212,-128.124)">
        <g
           transform="translate(148.712,134.765)"
           id="g17933">
          <path
             d="m 4.46875,-2 c 0,-1.1875 -0.8125,-2.1875 -1.890625,-2.1875 -0.46875,0 -0.90625,0.15625 -1.265625,0.515625 V -5.625 c 0.203125,0.0625 0.53125,0.125 0.84375,0.125 1.234375,0 1.9375,-0.90625 1.9375,-1.03125 0,-0.0625 -0.03125,-0.109375 -0.109375,-0.109375 0,0 -0.03125,0 -0.078125,0.03125 C 3.703125,-6.515625 3.21875,-6.3125 2.546875,-6.3125 2.15625,-6.3125 1.6875,-6.390625 1.21875,-6.59375 1.140625,-6.625 1.125,-6.625 1.109375,-6.625 1,-6.625 1,-6.546875 1,-6.390625 V -3.4375 c 0,0.171875 0,0.25 0.140625,0.25 0.078125,0 0.09375,-0.015625 0.140625,-0.078125 C 1.390625,-3.421875 1.75,-3.96875 2.5625,-3.96875 c 0.515625,0 0.765625,0.453125 0.84375,0.640625 0.15625,0.375 0.1875,0.75 0.1875,1.25 0,0.359375 0,0.953125 -0.25,1.375 C 3.109375,-0.3125 2.734375,-0.0625 2.28125,-0.0625 c -0.71875,0 -1.296875,-0.53125 -1.46875,-1.109375 0.03125,0 0.0625,0.015625 0.171875,0.015625 0.328125,0 0.5,-0.25 0.5,-0.484375 0,-0.25 -0.171875,-0.5 -0.5,-0.5 C 0.84375,-2.140625 0.5,-2.0625 0.5,-1.609375 0.5,-0.75 1.1875,0.21875 2.296875,0.21875 3.453125,0.21875 4.46875,-0.734375 4.46875,-2 Z m 0,0"
             id="path17931" />
        </g>
      </g>
    </g>
    <g
       transform="matrix(1.09844,0,0,1.09844,-58.422808,186.69202)"
       ns12:version="1.3.0"
       ns12:texconverter="pdflatex"
       ns12:pdfconverter="inkscape"
       ns12:text="-5"
       ns12:preamble="/usr/share/inkscape/extensions/textext/default_packages.tex"
       ns12:scale="4.151586745155103"
       ns12:alignment="middle center"
       ns12:jacobian_sqrt="1.09844"
       id="g17963">
      <defs
         id="defs17951">
        <g
           id="g17949">
          <g
             id="g17939" />
          <g
             id="g17943">
            <path
               d="M 2.75,-1.859375 V -2.4375 H 0.109375 v 0.578125 z m 0,0"
               id="path17941" />
          </g>
          <g
             id="g17947">
            <path
               d="m 4.46875,-2 c 0,-1.1875 -0.8125,-2.1875 -1.890625,-2.1875 -0.46875,0 -0.90625,0.15625 -1.265625,0.515625 V -5.625 c 0.203125,0.0625 0.53125,0.125 0.84375,0.125 1.234375,0 1.9375,-0.90625 1.9375,-1.03125 0,-0.0625 -0.03125,-0.109375 -0.109375,-0.109375 0,0 -0.03125,0 -0.078125,0.03125 C 3.703125,-6.515625 3.21875,-6.3125 2.546875,-6.3125 2.15625,-6.3125 1.6875,-6.390625 1.21875,-6.59375 1.140625,-6.625 1.125,-6.625 1.109375,-6.625 1,-6.625 1,-6.546875 1,-6.390625 V -3.4375 c 0,0.171875 0,0.25 0.140625,0.25 0.078125,0 0.09375,-0.015625 0.140625,-0.078125 C 1.390625,-3.421875 1.75,-3.96875 2.5625,-3.96875 c 0.515625,0 0.765625,0.453125 0.84375,0.640625 0.15625,0.375 0.1875,0.75 0.1875,1.25 0,0.359375 0,0.953125 -0.25,1.375 C 3.109375,-0.3125 2.734375,-0.0625 2.28125,-0.0625 c -0.71875,0 -1.296875,-0.53125 -1.46875,-1.109375 0.03125,0 0.0625,0.015625 0.171875,0.015625 0.328125,0 0.5,-0.25 0.5,-0.484375 0,-0.25 -0.171875,-0.5 -0.5,-0.5 C 0.84375,-2.140625 0.5,-2.0625 0.5,-1.609375 0.5,-0.75 1.1875,0.21875 2.296875,0.21875 3.453125,0.21875 4.46875,-0.734375 4.46875,-2 Z m 0,0"
               id="path17945" />
          </g>
        </g>
      </defs>
      <g
         fill="#000000"
         fill-opacity="1"
         id="g17961"
         transform="translate(-148.821,-128.124)">
        <g
           transform="translate(148.712,134.765)"
           id="g17955">
          <path
             d="M 2.75,-1.859375 V -2.4375 H 0.109375 v 0.578125 z m 0,0"
             id="path17953" />
        </g>
        <g
           transform="translate(152.033,134.765)"
           id="g17959">
          <path
             d="m 4.46875,-2 c 0,-1.1875 -0.8125,-2.1875 -1.890625,-2.1875 -0.46875,0 -0.90625,0.15625 -1.265625,0.515625 V -5.625 c 0.203125,0.0625 0.53125,0.125 0.84375,0.125 1.234375,0 1.9375,-0.90625 1.9375,-1.03125 0,-0.0625 -0.03125,-0.109375 -0.109375,-0.109375 0,0 -0.03125,0 -0.078125,0.03125 C 3.703125,-6.515625 3.21875,-6.3125 2.546875,-6.3125 2.15625,-6.3125 1.6875,-6.390625 1.21875,-6.59375 1.140625,-6.625 1.125,-6.625 1.109375,-6.625 1,-6.625 1,-6.546875 1,-6.390625 V -3.4375 c 0,0.171875 0,0.25 0.140625,0.25 0.078125,0 0.09375,-0.015625 0.140625,-0.078125 C 1.390625,-3.421875 1.75,-3.96875 2.5625,-3.96875 c 0.515625,0 0.765625,0.453125 0.84375,0.640625 0.15625,0.375 0.1875,0.75 0.1875,1.25 0,0.359375 0,0.953125 -0.25,1.375 C 3.109375,-0.3125 2.734375,-0.0625 2.28125,-0.0625 c -0.71875,0 -1.296875,-0.53125 -1.46875,-1.109375 0.03125,0 0.0625,0.015625 0.171875,0.015625 0.328125,0 0.5,-0.25 0.5,-0.484375 0,-0.25 -0.171875,-0.5 -0.5,-0.5 C 0.84375,-2.140625 0.5,-2.0625 0.5,-1.609375 0.5,-0.75 1.1875,0.21875 2.296875,0.21875 3.453125,0.21875 4.46875,-0.734375 4.46875,-2 Z m 0,0"
             id="path17957" />
        </g>
      </g>
    </g>
    <circle
       style="fill:#348abd;fill-opacity:1;stroke:none;stroke-width:0.7;stroke-miterlimit:4;stroke-dasharray:none;stroke-dashoffset:0"
       id="circle17965"
       cx="-70.080063"
       cy="179.8759"
       r="5.2801723" />
    <g
       transform="matrix(1.09844,0,0,1.09844,-74.348908,186.69242)"
       ns12:version="1.3.0"
       ns12:texconverter="pdflatex"
       ns12:pdfconverter="inkscape"
       ns12:text="-6"
       ns12:preamble="/usr/share/inkscape/extensions/textext/default_packages.tex"
       ns12:scale="4.151586745155103"
       ns12:alignment="middle center"
       ns12:jacobian_sqrt="1.09844"
       id="g17991">
      <defs
         id="defs17979">
        <g
           id="g17977">
          <g
             id="g17967" />
          <g
             id="g17971">
            <path
               d="M 2.75,-1.859375 V -2.4375 H 0.109375 v 0.578125 z m 0,0"
               id="path17969" />
          </g>
          <g
             id="g17975">
            <path
               d="m 1.3125,-3.265625 v -0.25 c 0,-2.515625 1.234375,-2.875 1.75,-2.875 0.234375,0 0.65625,0.0625 0.875,0.40625 -0.15625,0 -0.546875,0 -0.546875,0.4375 0,0.3125 0.234375,0.46875 0.453125,0.46875 0.15625,0 0.46875,-0.09375 0.46875,-0.484375 0,-0.59375 -0.4375,-1.078125 -1.265625,-1.078125 -1.28125,0 -2.625,1.28125 -2.625,3.484375 0,2.671875 1.15625,3.375 2.078125,3.375 1.109375,0 2.0625,-0.9375 2.0625,-2.25 0,-1.265625 -0.890625,-2.21875 -2,-2.21875 -0.671875,0 -1.046875,0.5 -1.25,0.984375 z M 2.5,-0.0625 c -0.625,0 -0.921875,-0.59375 -0.984375,-0.75 -0.1875,-0.46875 -0.1875,-1.265625 -0.1875,-1.4375 0,-0.78125 0.328125,-1.78125 1.21875,-1.78125 0.171875,0 0.625,0 0.9375,0.625 0.171875,0.359375 0.171875,0.875 0.171875,1.359375 0,0.484375 0,0.984375 -0.171875,1.34375 C 3.1875,-0.109375 2.734375,-0.0625 2.5,-0.0625 Z m 0,0"
               id="path17973" />
          </g>
        </g>
      </defs>
      <g
         fill="#000000"
         fill-opacity="1"
         id="g17989"
         transform="translate(-148.821,-128.124)">
        <g
           transform="translate(148.712,134.765)"
           id="g17983">
          <path
             d="M 2.75,-1.859375 V -2.4375 H 0.109375 v 0.578125 z m 0,0"
             id="path17981" />
        </g>
        <g
           transform="translate(152.033,134.765)"
           id="g17987">
          <path
             d="m 1.3125,-3.265625 v -0.25 c 0,-2.515625 1.234375,-2.875 1.75,-2.875 0.234375,0 0.65625,0.0625 0.875,0.40625 -0.15625,0 -0.546875,0 -0.546875,0.4375 0,0.3125 0.234375,0.46875 0.453125,0.46875 0.15625,0 0.46875,-0.09375 0.46875,-0.484375 0,-0.59375 -0.4375,-1.078125 -1.265625,-1.078125 -1.28125,0 -2.625,1.28125 -2.625,3.484375 0,2.671875 1.15625,3.375 2.078125,3.375 1.109375,0 2.0625,-0.9375 2.0625,-2.25 0,-1.265625 -0.890625,-2.21875 -2,-2.21875 -0.671875,0 -1.046875,0.5 -1.25,0.984375 z M 2.5,-0.0625 c -0.625,0 -0.921875,-0.59375 -0.984375,-0.75 -0.1875,-0.46875 -0.1875,-1.265625 -0.1875,-1.4375 0,-0.78125 0.328125,-1.78125 1.21875,-1.78125 0.171875,0 0.625,0 0.9375,0.625 0.171875,0.359375 0.171875,0.875 0.171875,1.359375 0,0.484375 0,0.984375 -0.171875,1.34375 C 3.1875,-0.109375 2.734375,-0.0625 2.5,-0.0625 Z m 0,0"
             id="path17985" />
        </g>
      </g>
    </g>
    <circle
       style="fill:#348abd;fill-opacity:1;stroke:none;stroke-width:0.7;stroke-miterlimit:4;stroke-dasharray:none;stroke-dashoffset:0"
       id="circle17993"
       cx="72.838333"
       cy="179.8759"
       r="5.2801723" />
    <g
       transform="matrix(1.09844,0,0,1.09844,70.56462,186.69242)"
       ns12:version="1.3.0"
       ns12:texconverter="pdflatex"
       ns12:pdfconverter="inkscape"
       ns12:text="6"
       ns12:preamble="/usr/share/inkscape/extensions/textext/default_packages.tex"
       ns12:scale="4.151586745155103"
       ns12:alignment="middle center"
       ns12:jacobian_sqrt="1.09844"
       id="g18011">
      <defs
         id="defs18003">
        <g
           id="g18001">
          <g
             id="g17995" />
          <g
             id="g17999">
            <path
               d="m 1.3125,-3.265625 v -0.25 c 0,-2.515625 1.234375,-2.875 1.75,-2.875 0.234375,0 0.65625,0.0625 0.875,0.40625 -0.15625,0 -0.546875,0 -0.546875,0.4375 0,0.3125 0.234375,0.46875 0.453125,0.46875 0.15625,0 0.46875,-0.09375 0.46875,-0.484375 0,-0.59375 -0.4375,-1.078125 -1.265625,-1.078125 -1.28125,0 -2.625,1.28125 -2.625,3.484375 0,2.671875 1.15625,3.375 2.078125,3.375 1.109375,0 2.0625,-0.9375 2.0625,-2.25 0,-1.265625 -0.890625,-2.21875 -2,-2.21875 -0.671875,0 -1.046875,0.5 -1.25,0.984375 z M 2.5,-0.0625 c -0.625,0 -0.921875,-0.59375 -0.984375,-0.75 -0.1875,-0.46875 -0.1875,-1.265625 -0.1875,-1.4375 0,-0.78125 0.328125,-1.78125 1.21875,-1.78125 0.171875,0 0.625,0 0.9375,0.625 0.171875,0.359375 0.171875,0.875 0.171875,1.359375 0,0.484375 0,0.984375 -0.171875,1.34375 C 3.1875,-0.109375 2.734375,-0.0625 2.5,-0.0625 Z m 0,0"
               id="path17997" />
          </g>
        </g>
      </defs>
      <g
         fill="#000000"
         fill-opacity="1"
         id="g18009"
         transform="translate(-149.134,-128.124)">
        <g
           transform="translate(148.712,134.765)"
           id="g18007">
          <path
             d="m 1.3125,-3.265625 v -0.25 c 0,-2.515625 1.234375,-2.875 1.75,-2.875 0.234375,0 0.65625,0.0625 0.875,0.40625 -0.15625,0 -0.546875,0 -0.546875,0.4375 0,0.3125 0.234375,0.46875 0.453125,0.46875 0.15625,0 0.46875,-0.09375 0.46875,-0.484375 0,-0.59375 -0.4375,-1.078125 -1.265625,-1.078125 -1.28125,0 -2.625,1.28125 -2.625,3.484375 0,2.671875 1.15625,3.375 2.078125,3.375 1.109375,0 2.0625,-0.9375 2.0625,-2.25 0,-1.265625 -0.890625,-2.21875 -2,-2.21875 -0.671875,0 -1.046875,0.5 -1.25,0.984375 z M 2.5,-0.0625 c -0.625,0 -0.921875,-0.59375 -0.984375,-0.75 -0.1875,-0.46875 -0.1875,-1.265625 -0.1875,-1.4375 0,-0.78125 0.328125,-1.78125 1.21875,-1.78125 0.171875,0 0.625,0 0.9375,0.625 0.171875,0.359375 0.171875,0.875 0.171875,1.359375 0,0.484375 0,0.984375 -0.171875,1.34375 C 3.1875,-0.109375 2.734375,-0.0625 2.5,-0.0625 Z m 0,0"
             id="path18005" />
        </g>
      </g>
    </g>
    <path
       style="fill:none;stroke:#000000;stroke-width:0.5;stroke-linecap:butt;stroke-linejoin:miter;stroke-miterlimit:4;stroke-dasharray:none;stroke-opacity:1;marker-start:url(#Arrow2Lstart);marker-end:url(#Arrow2Lend)"
       d="M -22.175631,166.64666 H 24.9773"
       id="path18552"
       inkscape:path-effect="#path-effect18554"
       inkscape:original-d="m -22.175631,166.64666 c 15.7180358,2.6e-4 31.4356815,2.6e-4 47.152931,0" />
    <g
       transform="matrix(1.09844,0,0,1.09844,28.407455,164.15773)"
       ns12:version="1.3.0"
       ns12:texconverter="pdflatex"
       ns12:pdfconverter="inkscape"
       ns12:text="area"
       ns12:preamble="/usr/share/inkscape/extensions/textext/default_packages.tex"
       ns12:scale="4.151586745155103"
       ns12:alignment="middle center"
       ns12:jacobian_sqrt="1.09844"
       id="g19400">
      <defs
         id="id-5a9eed83-afd8-48f8-af3f-2197fff3f42c">
        <g
           id="id-bceb2d89-c79b-4b28-8559-f083c27241f6">
          <g
             id="id-50a52509-95de-4adc-8a60-fb0bca617a3b" />
          <g
             id="id-2e2177e9-74d2-44f0-b26c-4919fd78d54d">
            <path
               d="m 3.3125,-0.75 c 0.046875,0.390625 0.3125,0.8125 0.78125,0.8125 0.21875,0 0.828125,-0.140625 0.828125,-0.953125 v -0.5625 h -0.25 v 0.5625 c 0,0.578125 -0.25,0.640625 -0.359375,0.640625 -0.328125,0 -0.375,-0.453125 -0.375,-0.5 v -1.984375 c 0,-0.421875 0,-0.8125 -0.359375,-1.1875 C 3.1875,-4.3125 2.6875,-4.46875 2.21875,-4.46875 c -0.828125,0 -1.515625,0.46875 -1.515625,1.125 0,0.296875 0.203125,0.46875 0.46875,0.46875 0.28125,0 0.453125,-0.203125 0.453125,-0.453125 0,-0.125 -0.046875,-0.453125 -0.515625,-0.453125 C 1.390625,-4.140625 1.875,-4.25 2.1875,-4.25 c 0.5,0 1.0625,0.390625 1.0625,1.28125 v 0.359375 c -0.515625,0.03125 -1.203125,0.0625 -1.828125,0.359375 -0.75,0.34375 -1,0.859375 -1,1.296875 0,0.8125 0.96875,1.0625 1.59375,1.0625 0.65625,0 1.109375,-0.40625 1.296875,-0.859375 z M 3.25,-2.390625 v 1 c 0,0.9375 -0.71875,1.28125 -1.171875,1.28125 -0.484375,0 -0.890625,-0.34375 -0.890625,-0.84375 0,-0.546875 0.421875,-1.375 2.0625,-1.4375 z m 0,0"
               id="id-023cbfd8-6583-4770-9a22-2655e322c393" />
          </g>
          <g
             id="id-73c39ea7-dbac-4cca-b4e4-45edde940302">
            <path
               d="M 1.671875,-3.3125 V -4.40625 L 0.28125,-4.296875 v 0.3125 c 0.703125,0 0.78125,0.0625 0.78125,0.5625 V -0.75 c 0,0.4375 -0.109375,0.4375 -0.78125,0.4375 V 0 c 0.390625,-0.015625 0.859375,-0.03125 1.140625,-0.03125 0.390625,0 0.859375,0 1.265625,0.03125 V -0.3125 H 2.46875 c -0.734375,0 -0.75,-0.109375 -0.75,-0.46875 V -2.3125 c 0,-0.984375 0.421875,-1.875 1.171875,-1.875 0.0625,0 0.09375,0 0.109375,0.015625 -0.03125,0 -0.234375,0.125 -0.234375,0.390625 0,0.265625 0.21875,0.421875 0.4375,0.421875 0.171875,0 0.421875,-0.125 0.421875,-0.4375 0,-0.3125 -0.3125,-0.609375 -0.734375,-0.609375 -0.734375,0 -1.09375,0.671875 -1.21875,1.09375 z m 0,0"
               id="id-c34fdfaf-4756-49b0-80f1-28da465ef928" />
          </g>
          <g
             id="id-c84f62b8-dde6-4ef3-bf12-884c6e2533a9">
            <path
               d="M 1.109375,-2.515625 C 1.171875,-4 2.015625,-4.25 2.359375,-4.25 c 1.015625,0 1.125,1.34375 1.125,1.734375 z m 0,0.21875 h 2.78125 c 0.21875,0 0.25,0 0.25,-0.21875 0,-0.984375 -0.546875,-1.953125 -1.78125,-1.953125 -1.15625,0 -2.078125,1.03125 -2.078125,2.28125 0,1.328125 1.046875,2.296875 2.1875,2.296875 C 3.6875,0.109375 4.140625,-1 4.140625,-1.1875 4.140625,-1.28125 4.0625,-1.3125 4,-1.3125 c -0.078125,0 -0.109375,0.0625 -0.125,0.140625 -0.34375,1.03125 -1.25,1.03125 -1.34375,1.03125 -0.5,0 -0.890625,-0.296875 -1.125,-0.671875 -0.296875,-0.46875 -0.296875,-1.125 -0.296875,-1.484375 z m 0,0"
               id="id-30c27a50-ae24-4d39-bd18-dd9ecd06d0ab" />
          </g>
        </g>
      </defs>
      <g
         fill="#000000"
         fill-opacity="1"
         id="id-7742b310-f52f-457f-b2a9-5e2322a019c9"
         transform="translate(-149.134,-130.296)">
        <g
           transform="translate(148.712,134.765)"
           id="g19388">
          <path
             d="m 3.3125,-0.75 c 0.046875,0.390625 0.3125,0.8125 0.78125,0.8125 0.21875,0 0.828125,-0.140625 0.828125,-0.953125 v -0.5625 h -0.25 v 0.5625 c 0,0.578125 -0.25,0.640625 -0.359375,0.640625 -0.328125,0 -0.375,-0.453125 -0.375,-0.5 v -1.984375 c 0,-0.421875 0,-0.8125 -0.359375,-1.1875 C 3.1875,-4.3125 2.6875,-4.46875 2.21875,-4.46875 c -0.828125,0 -1.515625,0.46875 -1.515625,1.125 0,0.296875 0.203125,0.46875 0.46875,0.46875 0.28125,0 0.453125,-0.203125 0.453125,-0.453125 0,-0.125 -0.046875,-0.453125 -0.515625,-0.453125 C 1.390625,-4.140625 1.875,-4.25 2.1875,-4.25 c 0.5,0 1.0625,0.390625 1.0625,1.28125 v 0.359375 c -0.515625,0.03125 -1.203125,0.0625 -1.828125,0.359375 -0.75,0.34375 -1,0.859375 -1,1.296875 0,0.8125 0.96875,1.0625 1.59375,1.0625 0.65625,0 1.109375,-0.40625 1.296875,-0.859375 z M 3.25,-2.390625 v 1 c 0,0.9375 -0.71875,1.28125 -1.171875,1.28125 -0.484375,0 -0.890625,-0.34375 -0.890625,-0.84375 0,-0.546875 0.421875,-1.375 2.0625,-1.4375 z m 0,0"
             id="id-ff0de569-f2cd-4b49-87c0-8458d2b81486" />
        </g>
        <g
           transform="translate(153.693,134.765)"
           id="g19391">
          <path
             d="M 1.671875,-3.3125 V -4.40625 L 0.28125,-4.296875 v 0.3125 c 0.703125,0 0.78125,0.0625 0.78125,0.5625 V -0.75 c 0,0.4375 -0.109375,0.4375 -0.78125,0.4375 V 0 c 0.390625,-0.015625 0.859375,-0.03125 1.140625,-0.03125 0.390625,0 0.859375,0 1.265625,0.03125 V -0.3125 H 2.46875 c -0.734375,0 -0.75,-0.109375 -0.75,-0.46875 V -2.3125 c 0,-0.984375 0.421875,-1.875 1.171875,-1.875 0.0625,0 0.09375,0 0.109375,0.015625 -0.03125,0 -0.234375,0.125 -0.234375,0.390625 0,0.265625 0.21875,0.421875 0.4375,0.421875 0.171875,0 0.421875,-0.125 0.421875,-0.4375 0,-0.3125 -0.3125,-0.609375 -0.734375,-0.609375 -0.734375,0 -1.09375,0.671875 -1.21875,1.09375 z m 0,0"
             id="id-45e05b7f-9275-40e6-922b-32c912fc9d1d" />
        </g>
        <g
           transform="translate(157.596,134.765)"
           id="g19394">
          <path
             d="M 1.109375,-2.515625 C 1.171875,-4 2.015625,-4.25 2.359375,-4.25 c 1.015625,0 1.125,1.34375 1.125,1.734375 z m 0,0.21875 h 2.78125 c 0.21875,0 0.25,0 0.25,-0.21875 0,-0.984375 -0.546875,-1.953125 -1.78125,-1.953125 -1.15625,0 -2.078125,1.03125 -2.078125,2.28125 0,1.328125 1.046875,2.296875 2.1875,2.296875 C 3.6875,0.109375 4.140625,-1 4.140625,-1.1875 4.140625,-1.28125 4.0625,-1.3125 4,-1.3125 c -0.078125,0 -0.109375,0.0625 -0.125,0.140625 -0.34375,1.03125 -1.25,1.03125 -1.34375,1.03125 -0.5,0 -0.890625,-0.296875 -1.125,-0.671875 -0.296875,-0.46875 -0.296875,-1.125 -0.296875,-1.484375 z m 0,0"
             id="id-0307914e-90ea-4a84-ba03-476c0ed5135e" />
        </g>
        <g
           transform="translate(162.023,134.765)"
           id="g19397">
          <path
             d="m 3.3125,-0.75 c 0.046875,0.390625 0.3125,0.8125 0.78125,0.8125 0.21875,0 0.828125,-0.140625 0.828125,-0.953125 v -0.5625 h -0.25 v 0.5625 c 0,0.578125 -0.25,0.640625 -0.359375,0.640625 -0.328125,0 -0.375,-0.453125 -0.375,-0.5 v -1.984375 c 0,-0.421875 0,-0.8125 -0.359375,-1.1875 C 3.1875,-4.3125 2.6875,-4.46875 2.21875,-4.46875 c -0.828125,0 -1.515625,0.46875 -1.515625,1.125 0,0.296875 0.203125,0.46875 0.46875,0.46875 0.28125,0 0.453125,-0.203125 0.453125,-0.453125 0,-0.125 -0.046875,-0.453125 -0.515625,-0.453125 C 1.390625,-4.140625 1.875,-4.25 2.1875,-4.25 c 0.5,0 1.0625,0.390625 1.0625,1.28125 v 0.359375 c -0.515625,0.03125 -1.203125,0.0625 -1.828125,0.359375 -0.75,0.34375 -1,0.859375 -1,1.296875 0,0.8125 0.96875,1.0625 1.59375,1.0625 0.65625,0 1.109375,-0.40625 1.296875,-0.859375 z M 3.25,-2.390625 v 1 c 0,0.9375 -0.71875,1.28125 -1.171875,1.28125 -0.484375,0 -0.890625,-0.34375 -0.890625,-0.84375 0,-0.546875 0.421875,-1.375 2.0625,-1.4375 z m 0,0"
             id="id-0b11cde8-7d85-44e3-8f14-ee61bb3337ba" />
        </g>
      </g>
    </g>
    <path
       style="fill:none;stroke:#000000;stroke-width:1;stroke-linecap:butt;stroke-linejoin:miter;stroke-miterlimit:4;stroke-dasharray:none;stroke-opacity:1;marker-end:url(#Arrow2Mend)"
       d="m -63.884917,104.80979 c 0.20403,2.45486 0.898586,4.86797 2.030812,7.05567 2.591407,5.00716 7.445186,8.66847 12.835035,10.32272 5.326852,1.63491 11.155773,1.44829 16.276069,3.64621 2.603716,1.11766 4.946992,2.83696 6.794521,4.98525"
       id="path19657"
       inkscape:path-effect="#path-effect19659"
       inkscape:original-d="m -63.884917,104.80979 c 0.677201,2.35216 1.35414,4.70405 2.030812,7.05567 0.676675,2.35162 8.556956,6.88208 12.835035,10.32272 4.27808,3.44065 10.850978,2.43107 16.276069,3.64621 5.425093,1.21513 4.529947,3.32377 6.794521,4.98525" />
    <path
       style="fill:none;stroke:#000000;stroke-width:1;stroke-linecap:butt;stroke-linejoin:miter;stroke-miterlimit:4;stroke-dasharray:none;stroke-opacity:1;marker-end:url(#Arrow2Mend)"
       d="m 67.74489,104.80979 c -0.20403,2.45486 -0.898585,4.86797 -2.030811,7.05567 -2.591407,5.00716 -7.445185,8.66847 -12.835034,10.32272 -5.326852,1.63491 -11.155774,1.44829 -16.27607,3.64621 -2.603716,1.11766 -4.946993,2.83696 -6.794522,4.98525"
       id="path19741"
       inkscape:path-effect="#path-effect19745"
       inkscape:original-d="m 67.74489,104.80979 c -0.677201,2.35216 -1.354139,4.70405 -2.030811,7.05567 -0.676675,2.35162 -8.556956,6.88208 -12.835034,10.32272 -4.27808,3.44065 -10.850978,2.43107 -16.27607,3.64621 -5.425093,1.21513 -4.529947,3.32377 -6.794522,4.98525" />
    <path
       style="fill:none;stroke:#000000;stroke-width:1;stroke-linecap:butt;stroke-linejoin:miter;stroke-miterlimit:4;stroke-dasharray:none;stroke-opacity:1;marker-end:url(#Arrow2Mend)"
       d="m 1.7317531,104.80976 v 29.63037"
       id="path19866"
       inkscape:path-effect="#path-effect19868"
       inkscape:original-d="m 1.7317531,104.80976 c 2.65e-4,9.87705 2.65e-4,19.75384 0,29.63037" />
  </g>
</svg>
