<?xml version="1.0" encoding="UTF-8" standalone="no"?>
<!-- Created with Inkscape (http://www.inkscape.org/) -->

<svg
   width="220.94084mm"
   height="42.502991mm"
   viewBox="0 0 220.94084 42.50299"
   version="1.1"
   id="svg1"
   inkscape:version="1.3.2 (091e20ef0f, 2023-11-25, custom)"
   sodipodi:docname="iqheModel.svg"
   xmlns:inkscape="http://www.inkscape.org/namespaces/inkscape"
   xmlns:sodipodi="http://sodipodi.sourceforge.net/DTD/sodipodi-0.dtd"
   xmlns="http://www.w3.org/2000/svg"
   xmlns:svg="http://www.w3.org/2000/svg"
   xmlns:ns1="http://www.iki.fi/pav/software/textext/">
  <sodipodi:namedview
     id="namedview1"
     pagecolor="#ffffff"
     bordercolor="#000000"
     borderopacity="0.25"
     inkscape:showpageshadow="2"
     inkscape:pageopacity="0.0"
     inkscape:pagecheckerboard="0"
     inkscape:deskcolor="#d1d1d1"
     inkscape:document-units="mm"
     inkscape:zoom="0.89761649"
     inkscape:cx="462.89257"
     inkscape:cy="84.111646"
     inkscape:window-width="1914"
     inkscape:window-height="1044"
     inkscape:window-x="0"
     inkscape:window-y="30"
     inkscape:window-maximized="1"
     inkscape:current-layer="layer1" />
  <defs
     id="defs1">
    <inkscape:path-effect
       effect="spiro"
       id="path-effect14"
       is_visible="true"
       lpeversion="1" />
    <inkscape:path-effect
       effect="spiro"
       id="path-effect13"
       is_visible="true"
       lpeversion="1" />
    <inkscape:path-effect
       effect="spiro"
       id="path-effect12"
       is_visible="true"
       lpeversion="1" />
    <inkscape:path-effect
       effect="spiro"
       id="path-effect11"
       is_visible="true"
       lpeversion="1" />
    <marker
       style="overflow:visible"
       id="RoundedArrow"
       refX="0"
       refY="0"
       orient="auto-start-reverse"
       inkscape:stockid="Rounded arrow"
       markerWidth="0.40000001"
       markerHeight="0.40000001"
       viewBox="0 0 1 1"
       inkscape:isstock="true"
       inkscape:collect="always"
       preserveAspectRatio="xMidYMid">
      <path
         transform="scale(0.7)"
         d="m -0.21114562,-4.1055728 6.42229122,3.21114561 a 1,1 90 0 1 0,1.78885438 L -0.21114562,4.1055728 A 1.236068,1.236068 31.717474 0 1 -2,3 v -6 a 1.236068,1.236068 148.28253 0 1 1.78885438,-1.1055728 z"
         style="fill:context-stroke;fill-rule:evenodd;stroke:none"
         id="path8" />
    </marker>
    <inkscape:path-effect
       effect="spiro"
       id="path-effect6"
       is_visible="true"
       lpeversion="1" />
    <inkscape:path-effect
       effect="spiro"
       id="path-effect1"
       is_visible="true"
       lpeversion="1" />
  </defs>
  <g
     inkscape:label="Layer 1"
     inkscape:groupmode="layer"
     id="layer1"
     transform="translate(20.759394,-79.584107)">
    <path
       style="fill:none;fill-opacity:1;stroke:#505050;stroke-width:2.86609;stroke-dasharray:none;stroke-opacity:1"
       d="M -11.117091,115.54473 H 190.53914"
       id="path12"
       inkscape:path-effect="#path-effect12"
       inkscape:original-d="m -11.117091,115.54473 c 67.218744,0 134.437491,0 201.656231,0"
       transform="matrix(1.0956311,0,0,1,-8.5791632,0)" />
    <path
       style="fill:none;fill-opacity:1;stroke:#406090;stroke-width:1;stroke-dasharray:2, 1;stroke-dashoffset:0;stroke-opacity:1"
       d="m -11.117091,115.54473 c 2.9218669,-3.58835 7.1373974,-6.09995 11.68399997,-6.96131 3.90220173,-0.73928 7.96699423,-0.28537 11.76748203,0.86789 1.189578,0.36098 2.363379,0.79069 3.586365,1.01363 1.222986,0.22295 2.520541,0.22782 3.670486,-0.24444 1.262888,-0.51864 2.227904,-1.55332 3.179021,-2.53273 0.951117,-0.97942 1.987369,-1.96728 3.299897,-2.34297 0.987302,-0.2826 2.052934,-0.18823 3.038021,0.102 0.985087,0.29023 1.903227,0.76806 2.805744,1.25805 0.902517,0.48999 1.801247,0.99724 2.764578,1.35308 0.963331,0.35584 2.005013,0.55638 3.021316,0.40887 1.137736,-0.16513 2.184645,-0.76214 3.017501,-1.55465 0.832856,-0.7925 1.465809,-1.77366 1.989148,-2.79729 1.046677,-2.04728 1.696126,-4.315485 3.057994,-6.168096 0.959802,-1.305663 2.24966,-2.357671 3.694122,-3.09218 1.444462,-0.73451 3.040659,-1.155283 4.655374,-1.291918 4.4206,-0.374065 8.875893,1.42062 12.177321,4.384098 2.234364,2.005644 3.978581,4.505256 6.18754,6.538846 3.181002,2.92846 7.216712,4.78461 11.353009,6.04387 3.635183,1.1067 7.440498,1.78964 11.232231,1.54045 3.791733,-0.24918 7.580281,-1.47771 10.529371,-3.874 2.03058,-1.64996 3.63177,-3.81383 5.81625,-5.25386 1.09224,-0.72001 2.33681,-1.24911 3.64144,-1.34575 1.30464,-0.0966 2.67219,0.27302 3.63736,1.15611 0.96864,0.88627 1.44398,2.17188 2.12297,3.29558 0.33949,0.56185 0.7418,1.09647 1.26181,1.49711 0.52002,0.40065 1.16921,0.65938 1.8246,0.62201 0.45702,-0.0261 0.90101,-0.1952 1.2768,-0.4566 0.37579,-0.2614 0.68485,-0.61268 0.92198,-1.00424 0.47426,-0.78312 0.65794,-1.70716 0.75334,-2.61771 0.13545,-1.2929 0.11466,-2.62631 0.56442,-3.84601 0.22489,-0.609845 0.57105,-1.184315 1.05996,-1.612636 0.4889,-0.428321 1.12838,-0.701179 1.77812,-0.68317 0.448,0.01242 0.88835,0.161827 1.26398,0.406294 0.37563,0.244468 0.68733,0.581838 0.92089,0.964341 0.46713,0.765011 0.61581,1.689491 0.58683,2.585371 -0.058,1.79176 -0.78196,3.53093 -0.69287,5.32141 0.0754,1.51515 0.75946,2.98869 1.85733,4.03561 1.09787,1.04693 2.59593,1.65925 4.11249,1.69693 1.51656,0.0377 3.03793,-0.49622 4.20856,-1.46111 1.17062,-0.96489 1.98328,-2.35066 2.26958,-3.84043 0.32643,-1.69855 -0.0143,-3.44742 0.007,-5.17692 0.0106,-0.86475 0.11492,-1.73868 0.4292,-2.544371 0.31427,-0.805688 0.85264,-1.542334 1.5943,-1.987125 0.73335,-0.439808 1.61973,-0.570007 2.47313,-0.515656 0.8534,0.05435 1.68522,0.281933 2.50778,0.515656 13.69662,3.891746 26.80546,9.845226 38.74858,17.597966"
       id="path13"
       inkscape:path-effect="#path-effect14"
       inkscape:original-d="m -11.117091,115.54473 c 3.8946667,-2.32044 7.7893334,-4.64087 11.68399997,-6.96131 3.89466663,-2.32043 7.84498823,0.5786 11.76748203,0.86789 3.922494,0.2893 4.837901,0.51279 7.256851,0.76919 2.418951,0.2564 4.319279,-3.25047 6.478918,-4.8757 2.15964,-1.62524 7.753107,2.08134 11.629659,3.122 3.876556,1.04067 5.376429,-7.01336 8.064643,-10.520036 2.688214,-3.50668 5.566331,-2.922732 8.349496,-4.384098 2.783165,-1.461367 8.118213,2.922732 12.177321,4.384098 4.059108,1.461366 4.125026,4.359226 6.18754,6.538846 2.062515,2.17961 7.568674,4.02925 11.353009,6.04387 3.784338,2.01463 14.507736,-1.5557 21.761602,-2.33355 7.25387,-0.77785 8.73003,-3.629 13.09505,-5.4435 4.36501,-1.8145 3.47292,3.6098 5.20938,5.4147 1.73646,1.8049 1.96808,-2.71903 2.95212,-4.07855 0.98404,-1.35952 2.26833,-4.094544 3.4025,-6.141816 1.13416,-2.047272 1.38588,6.184946 2.07883,9.277416 0.69294,3.09247 8.29864,0.28733 12.44796,0.431 4.14933,0.14367 1.35359,-6.47228 2.03038,-9.708416 0.67679,-3.236139 3.32061,0 4.98091,0 1.66031,0 25.83239,11.731976 38.74858,17.597966" />
    <g
       transform="matrix(1.54772,0,0,1.54772,96.4082,79.5843)"
       ns1:version="1.10.2"
       ns1:texconverter="xelatex"
       ns1:pdfconverter="inkscape"
       ns1:text="$\\vec{B}$"
       ns1:preamble="/home/storage/.config/inkscape/extensions/textext/default_packages.tex"
       ns1:scale="4.387243487159983"
       ns1:alignment="middle center"
       ns1:stroke-to-path="0"
       id="g2793"
       ns1:jacobian_sqrt="1.54772"
       style="fill:#505050;fill-opacity:1">
      <defs
         id="id-e38cd736-0bcc-4bf2-8944-bfa89892b2ee">
        <g
           id="id-31673ff1-60ac-41a9-ba2c-afb236de8a84">
          <g
             id="id-764be042-8e35-4ebc-82bd-0cd63da21483">
            <path
               d="m -1.421875,-8.203125 -0.375,0.34375 0.5,0.546875 h -2.59375 v 0.609375 h 2.59375 l -0.5,0.546875 0.375,0.34375 1.125,-1.1875 z m 0,0"
               id="id-a3d376b2-45bd-49d3-8cb7-3d5290226d63" />
          </g>
          <g
             id="id-72f4bf2c-d4b2-4005-9346-7e3d3ba63b9d">
            <path
               d="m 2.546875,-0.75 h -0.875 l 0.34375,-2.484375 H 3.15625 C 3.890625,-3.234375 4.5,-3 4.5,-2.21875 4.5,-1.390625 4.09375,-0.75 2.546875,-0.75 Z m 0.96875,-5.375 c 0.609375,0 1.15625,0.15625 1.15625,0.828125 0,0.9375 -0.71875,1.34375 -1.546875,1.34375 H 2.109375 L 2.40625,-6.125 Z m 0.578125,2.5 C 4.921875,-3.796875 5.625,-4.359375 5.625,-5.328125 5.625,-6.390625 4.71875,-6.875 3.484375,-6.875 H 1.578125 L 0.625,0 h 1.890625 c 2.25,0 2.96875,-0.984375 2.96875,-2.1875 0,-0.96875 -0.671875,-1.3125 -1.390625,-1.4375 z m 0,0"
               id="id-4a12164a-3c5c-4a27-aaa4-5c2e37f80424" />
          </g>
        </g>
      </defs>
      <g
         fill="#000000"
         fill-opacity="1"
         id="id-c302bb6b-e2ea-40af-ac5c-23a652875d3e"
         transform="translate(-303.101,-124.948)"
         style="fill:#505050;fill-opacity:1">
        <g
           transform="translate(307.846,133.151)"
           id="g6128"
           style="fill:#505050;fill-opacity:1">
          <path
             d="m -1.421875,-8.203125 -0.375,0.34375 0.5,0.546875 h -2.59375 v 0.609375 h 2.59375 l -0.5,0.546875 0.375,0.34375 1.125,-1.1875 z m 0,0"
             id="id-968fe9f7-8a88-42f6-a4bf-8142f1c0ab45"
             style="fill:#505050;fill-opacity:1" />
        </g>
      </g>
      <g
         fill="#000000"
         fill-opacity="1"
         id="id-5f8c659f-4190-4325-a5a3-6e1ed67333cd"
         transform="translate(-303.101,-124.948)"
         style="fill:#505050;fill-opacity:1">
        <g
           transform="translate(302.476,134.765)"
           id="g3435"
           style="fill:#505050;fill-opacity:1">
          <path
             d="m 2.546875,-0.75 h -0.875 l 0.34375,-2.484375 H 3.15625 C 3.890625,-3.234375 4.5,-3 4.5,-2.21875 4.5,-1.390625 4.09375,-0.75 2.546875,-0.75 Z m 0.96875,-5.375 c 0.609375,0 1.15625,0.15625 1.15625,0.828125 0,0.9375 -0.71875,1.34375 -1.546875,1.34375 H 2.109375 L 2.40625,-6.125 Z m 0.578125,2.5 C 4.921875,-3.796875 5.625,-4.359375 5.625,-5.328125 5.625,-6.390625 4.71875,-6.875 3.484375,-6.875 H 1.578125 L 0.625,0 h 1.890625 c 2.25,0 2.96875,-0.984375 2.96875,-2.1875 0,-0.96875 -0.671875,-1.3125 -1.390625,-1.4375 z m 0,0"
             id="id-bb0c1535-3f39-4938-8a72-d9a13ea5d4fe"
             style="fill:#505050;fill-opacity:1" />
        </g>
      </g>
    </g>
    <g
       transform="matrix(1.54772,0,0,1.54772,154.79112,84.916346)"
       ns1:version="1.10.2"
       ns1:texconverter="xelatex"
       ns1:pdfconverter="inkscape"
       ns1:text="$V(\\vec r)$"
       ns1:preamble="/home/storage/.config/inkscape/extensions/textext/default_packages.tex"
       ns1:scale="4.387243487159983"
       ns1:alignment="middle center"
       ns1:stroke-to-path="0"
       id="g4025"
       ns1:jacobian_sqrt="1.54772"
       style="fill:#505050;fill-opacity:1">
      <defs
         id="id-df72bbd0-dd77-4461-9485-bd1a32aeeac1">
        <g
           id="id-5956f601-f94d-4c80-af70-bcf5c7c27625">
          <g
             id="id-b9db2d1c-cebc-4c18-95f7-4c3cf7f7c19e">
            <path
               d="M 6.015625,-6.875 H 5.046875 L 2.5,-1.03125 1.625,-6.875 H 0.640625 L 1.875,0 h 1 z m 0,0"
               id="id-141eb5e4-b87a-4246-8846-4b0dab73d2d4" />
          </g>
          <g
             id="id-ebedb9ce-ae67-49bd-bf58-653235af2a45">
            <path
               d="m 2.25,-7.71875 c -0.96875,1.375 -1.84375,2.5625 -1.84375,4.921875 0,2.375 0.875,3.546875 1.84375,4.9375 L 2.828125,1.75 C 1.9375,0.421875 1.359375,-0.65625 1.359375,-2.796875 1.359375,-4.9375 1.9375,-6 2.828125,-7.328125 Z m 0,0"
               id="id-7bb83a51-6f88-4577-b10a-a06db46ef9a8" />
          </g>
          <g
             id="id-387f6a3f-4ea3-4e56-a173-89331b5add8d">
            <path
               d="m -1.421875,-8.203125 -0.375,0.34375 0.5,0.546875 h -2.59375 v 0.609375 h 2.59375 l -0.5,0.546875 0.375,0.34375 1.125,-1.1875 z m 0,0"
               id="id-e5a525f3-bc65-4b99-b76f-1ec97a5fe58a" />
          </g>
          <g
             id="id-007bf40a-4fab-4925-b0d5-83a42dd7c0cf">
            <path
               d="m 3.546875,-5.375 c -0.578125,0 -1.125,0.375 -1.515625,1.203125 L 2.078125,-5.25 H 1.3125 L 0.5625,0 H 1.46875 L 1.875,-2.78125 c 0.375,-1.0625 0.828125,-1.6875 1.5,-1.6875 0.171875,0 0.28125,0.015625 0.4375,0.046875 l 0.265625,-0.875 C 3.921875,-5.34375 3.734375,-5.375 3.546875,-5.375 Z m 0,0"
               id="id-4a3e7367-3ed6-40bb-a04c-38defcd357a8" />
          </g>
          <g
             id="id-b0267d46-d357-4d3f-8aa3-00853a8aab10">
            <path
               d="M 0.984375,-7.71875 0.40625,-7.328125 C 1.296875,-6 1.875,-4.9375 1.875,-2.796875 1.875,-0.65625 1.296875,0.421875 0.40625,1.75 l 0.578125,0.390625 c 0.96875,-1.390625 1.84375,-2.5625 1.84375,-4.9375 0,-2.359375 -0.875,-3.546875 -1.84375,-4.921875 z m 0,0"
               id="id-152f7249-1f09-4c2e-982a-bc1a128e0b02" />
          </g>
        </g>
      </defs>
      <g
         fill="#000000"
         fill-opacity="1"
         id="id-5032bdfa-1496-4176-956f-e39d1ba5e430"
         transform="translate(-297.702,-126.442)"
         style="fill:#505050;fill-opacity:1">
        <g
           transform="translate(297.061,134.765)"
           id="g9262"
           style="fill:#505050;fill-opacity:1">
          <path
             d="M 6.015625,-6.875 H 5.046875 L 2.5,-1.03125 1.625,-6.875 H 0.640625 L 1.875,0 h 1 z m 0,0"
             id="id-c9affb86-3375-4e0f-aad7-6bf71c56261a"
             style="fill:#505050;fill-opacity:1" />
        </g>
      </g>
      <g
         fill="#000000"
         fill-opacity="1"
         id="id-e183f4d8-9f41-4cba-9332-7e6f9b9ff54b"
         transform="translate(-297.702,-126.442)"
         style="fill:#505050;fill-opacity:1">
        <g
           transform="translate(303.537,134.765)"
           id="g2384"
           style="fill:#505050;fill-opacity:1">
          <path
             d="m 2.25,-7.71875 c -0.96875,1.375 -1.84375,2.5625 -1.84375,4.921875 0,2.375 0.875,3.546875 1.84375,4.9375 L 2.828125,1.75 C 1.9375,0.421875 1.359375,-0.65625 1.359375,-2.796875 1.359375,-4.9375 1.9375,-6 2.828125,-7.328125 Z m 0,0"
             id="id-19fa0988-377d-4628-9b67-40c204ae6c45"
             style="fill:#505050;fill-opacity:1" />
        </g>
      </g>
      <g
         fill="#000000"
         fill-opacity="1"
         id="id-e3c94adc-f2e7-4c7c-9fa1-608a7b7b6351"
         transform="translate(-297.702,-126.442)"
         style="fill:#505050;fill-opacity:1">
        <g
           transform="translate(311.577,134.645)"
           id="g4924"
           style="fill:#505050;fill-opacity:1">
          <path
             d="m -1.421875,-8.203125 -0.375,0.34375 0.5,0.546875 h -2.59375 v 0.609375 h 2.59375 l -0.5,0.546875 0.375,0.34375 1.125,-1.1875 z m 0,0"
             id="id-5e72a9c0-b3cd-4d00-a5fc-8d07636d61bc"
             style="fill:#505050;fill-opacity:1" />
        </g>
      </g>
      <g
         fill="#000000"
         fill-opacity="1"
         id="id-e34c7ab4-8aca-4b80-ba89-1c2a9119e06d"
         transform="translate(-297.702,-126.442)"
         style="fill:#505050;fill-opacity:1">
        <g
           transform="translate(306.765,134.765)"
           id="g4186"
           style="fill:#505050;fill-opacity:1">
          <path
             d="m 3.546875,-5.375 c -0.578125,0 -1.125,0.375 -1.515625,1.203125 L 2.078125,-5.25 H 1.3125 L 0.5625,0 H 1.46875 L 1.875,-2.78125 c 0.375,-1.0625 0.828125,-1.6875 1.5,-1.6875 0.171875,0 0.28125,0.015625 0.4375,0.046875 l 0.265625,-0.875 C 3.921875,-5.34375 3.734375,-5.375 3.546875,-5.375 Z m 0,0"
             id="id-dbab075d-5b0f-4c30-b768-8187ded8d74c"
             style="fill:#505050;fill-opacity:1" />
        </g>
      </g>
      <g
         fill="#000000"
         fill-opacity="1"
         id="id-48ffd99e-2686-463e-b0ea-89c0da364a0c"
         transform="translate(-297.702,-126.442)"
         style="fill:#505050;fill-opacity:1">
        <g
           transform="translate(310.949,134.765)"
           id="g1261"
           style="fill:#505050;fill-opacity:1">
          <path
             d="M 0.984375,-7.71875 0.40625,-7.328125 C 1.296875,-6 1.875,-4.9375 1.875,-2.796875 1.875,-0.65625 1.296875,0.421875 0.40625,1.75 l 0.578125,0.390625 c 0.96875,-1.390625 1.84375,-2.5625 1.84375,-4.9375 0,-2.359375 -0.875,-3.546875 -1.84375,-4.921875 z m 0,0"
             id="id-fec1dd27-92e9-46b1-ac23-3e8ad472a425"
             style="fill:#505050;fill-opacity:1" />
        </g>
      </g>
    </g>
    <path
       style="fill:#606060;fill-opacity:1;stroke:#a86053;stroke-width:4;stroke-dasharray:none;stroke-opacity:1;marker-start:url(#RoundedArrow)"
       d="m 15.844705,107.07746 v 27.62033"
       id="path6"
       inkscape:path-effect="#path-effect6"
       inkscape:original-d="m 15.844705,107.07746 c 0,9.20677 0,18.41355 0,27.62033"
       transform="translate(73.808369,-17.902358)" />
    <ellipse
       style="fill:#404040;fill-opacity:1;stroke:none;stroke-width:3;stroke-dasharray:none;stroke-dashoffset:0;stroke-opacity:1"
       id="path14"
       cx="35.710163"
       cy="100.8356"
       rx="5.7933097"
       ry="5.8277617" />
  </g>
</svg>
