<?xml version="1.0" encoding="UTF-8" standalone="no"?>
<!-- Created with Inkscape (http://www.inkscape.org/) -->

<svg
   width="155.67429mm"
   height="77.010956mm"
   viewBox="0 0 155.67429 77.010956"
   version="1.1"
   id="svg1"
   inkscape:version="1.4 (e7c3feb100, 2024-10-09)"
   sodipodi:docname="NFL.svg"
   xmlns:inkscape="http://www.inkscape.org/namespaces/inkscape"
   xmlns:sodipodi="http://sodipodi.sourceforge.net/DTD/sodipodi-0.dtd"
   xmlns="http://www.w3.org/2000/svg"
   xmlns:svg="http://www.w3.org/2000/svg"
   xmlns:ns4="http://www.iki.fi/pav/software/textext/">
  <sodipodi:namedview
     id="namedview1"
     pagecolor="#ffffff"
     bordercolor="#000000"
     borderopacity="0.25"
     inkscape:showpageshadow="2"
     inkscape:pageopacity="0.0"
     inkscape:pagecheckerboard="0"
     inkscape:deskcolor="#d1d1d1"
     inkscape:document-units="mm"
     showgrid="false"
     inkscape:zoom="1.2744989"
     inkscape:cx="255.7868"
     inkscape:cy="130.63958"
     inkscape:window-width="1914"
     inkscape:window-height="1044"
     inkscape:window-x="0"
     inkscape:window-y="30"
     inkscape:window-maximized="1"
     inkscape:current-layer="layer1" />
  <defs
     id="defs1">
    <rect
       x="229.89427"
       y="-140.44736"
       width="291.87943"
       height="104.35474"
       id="rect19" />
    <inkscape:path-effect
       effect="spiro"
       id="path-effect18"
       is_visible="true"
       lpeversion="1" />
    <rect
       x="452.69418"
       y="136.31689"
       width="295.01419"
       height="205.49263"
       id="rect18" />
    <rect
       x="383.3176"
       y="48.007023"
       width="185.38097"
       height="93.798332"
       id="rect17" />
    <inkscape:path-effect
       effect="spiro"
       id="path-effect17"
       is_visible="true"
       lpeversion="1" />
    <inkscape:path-effect
       effect="spiro"
       id="path-effect15"
       is_visible="true"
       lpeversion="1" />
    <rect
       x="176.80028"
       y="125.1202"
       width="96.288155"
       height="63.104099"
       id="rect15" />
    <rect
       x="320.09604"
       y="-101.32537"
       width="473.60474"
       height="291.31042"
       id="rect13" />
    <rect
       x="94.250778"
       y="-217.18658"
       width="659.75549"
       height="323.73093"
       id="rect12" />
    <rect
       x="244.50565"
       y="-152.98679"
       width="281.38638"
       height="106.54436"
       id="rect11" />
    <rect
       x="228.11421"
       y="0"
       width="154.35274"
       height="184.48489"
       id="rect10" />
    <inkscape:path-effect
       effect="spiro"
       id="path-effect10"
       is_visible="true"
       lpeversion="1" />
    <inkscape:path-effect
       effect="spiro"
       id="path-effect8"
       is_visible="true"
       lpeversion="1" />
    <inkscape:path-effect
       effect="spiro"
       id="path-effect6"
       is_visible="true"
       lpeversion="1" />
    <rect
       x="234.22797"
       y="297.02264"
       width="82.056839"
       height="50.852123"
       id="rect3" />
    <rect
       x="165.26941"
       y="320.90771"
       width="23.88509"
       height="21.958872"
       id="rect2" />
    <inkscape:path-effect
       effect="spiro"
       id="path-effect2"
       is_visible="true"
       lpeversion="1" />
    <rect
       x="234.22797"
       y="297.02264"
       width="82.056839"
       height="50.852123"
       id="rect5" />
    <marker
       style="overflow:visible"
       id="RoundedArrow"
       refX="0"
       refY="0"
       orient="auto-start-reverse"
       inkscape:stockid="Rounded arrow"
       markerWidth="0.5"
       markerHeight="0.5"
       viewBox="0 0 1 1"
       inkscape:isstock="true"
       inkscape:collect="always"
       preserveAspectRatio="xMidYMid">
      <path
         transform="scale(0.7)"
         d="m -0.21114562,-4.1055728 6.42229122,3.21114561 a 1,1 90 0 1 0,1.78885438 L -0.21114562,4.1055728 A 1.236068,1.236068 31.717474 0 1 -2,3 v -6 a 1.236068,1.236068 148.28253 0 1 1.78885438,-1.1055728 z"
         style="fill:context-stroke;fill-rule:evenodd;stroke:none"
         id="path8" />
    </marker>
    <inkscape:path-effect
       effect="spiro"
       id="path-effect2-0"
       is_visible="true"
       lpeversion="1" />
    <rect
       x="234.22797"
       y="297.02264"
       width="82.056839"
       height="50.852123"
       id="rect3-9" />
    <inkscape:path-effect
       effect="spiro"
       id="path-effect18-1"
       is_visible="true"
       lpeversion="1" />
    <inkscape:path-effect
       effect="spiro"
       id="path-effect6-9"
       is_visible="true"
       lpeversion="1" />
    <inkscape:path-effect
       effect="spiro"
       id="path-effect8-6"
       is_visible="true"
       lpeversion="1" />
    <inkscape:path-effect
       effect="spiro"
       id="path-effect10-2"
       is_visible="true"
       lpeversion="1" />
    <inkscape:path-effect
       effect="spiro"
       id="path-effect15-5"
       is_visible="true"
       lpeversion="1" />
    <inkscape:path-effect
       effect="spiro"
       id="path-effect17-4"
       is_visible="true"
       lpeversion="1" />
    <rect
       x="452.69418"
       y="136.31689"
       width="295.01419"
       height="205.49263"
       id="rect18-4" />
    <rect
       x="229.89427"
       y="-140.44736"
       width="291.87943"
       height="104.35474"
       id="rect20" />
  </defs>
  <g
     inkscape:label="Layer 1"
     inkscape:groupmode="layer"
     id="layer1"
     transform="translate(-54.90594,-147.12022)">
    <rect
       style="fill:#505050;fill-opacity:1;stroke:none;stroke-width:0.89697;stroke-dasharray:1.79394, 0.89697;stroke-dashoffset:0;stroke-opacity:1"
       id="rect1"
       width="34.543617"
       height="54.67823"
       x="58.737499"
       y="168.93246" />
    <circle
       style="fill:#307090;fill-opacity:1;stroke:none;stroke-width:1;stroke-dasharray:2, 1;stroke-dashoffset:0;stroke-opacity:1"
       id="circle3"
       cx="102.703"
       cy="197.6212"
       r="4.1302147" />
    <path
       style="fill:none;fill-opacity:1;stroke:#707070;stroke-width:2;stroke-dasharray:none;stroke-dashoffset:0;stroke-opacity:1;marker-end:url(#RoundedArrow)"
       d="m 47.209699,80.235898 6.471298,-6.471299"
       id="path4"
       inkscape:path-effect="#path-effect2-0"
       inkscape:original-d="m 47.209699,80.235898 c 2.144609,-2.14461 6.471298,-6.471299 6.471298,-6.471299"
       transform="translate(59.266667,114.3)" />
    <text
       xml:space="preserve"
       transform="matrix(0.43930508,0,0,0.43930508,-13.724882,74.22685)"
       id="text3"
       style="font-weight:600;font-size:16px;line-height:0.8;font-family:'Cooper Hewitt LO';-inkscape-font-specification:'Cooper Hewitt LO, Semi-Bold';text-align:center;text-decoration-color:#000000;writing-mode:lr-tb;direction:ltr;white-space:pre;shape-inside:url(#rect3-9);display:inline;fill:none;fill-opacity:1;stroke:#707070;stroke-width:7.55906;stroke-dasharray:none;stroke-dashoffset:0;stroke-opacity:1"><tspan
         x="248.67284"
         y="307.42344"
         id="tspan2"><tspan
           style="fill:#505050;stroke:none"
           id="tspan1">k-state</tspan></tspan></text>
    <rect
       style="fill:#505050;fill-opacity:1;stroke:none;stroke-width:0.89697;stroke-dasharray:1.79394, 0.89697;stroke-dashoffset:0;stroke-opacity:1"
       id="rect4"
       width="34.543617"
       height="54.67823"
       x="150.60063"
       y="168.78438" />
    <path
       style="opacity:0.6;fill:#909090;fill-opacity:1;stroke:none;stroke-width:2;stroke-dasharray:none;stroke-dashoffset:0;stroke-opacity:1"
       d="m 148.03693,77.786676 c -0.39725,-1.606595 -1.25004,-3.080337 -2.34061,-4.325171 -1.09057,-1.244833 -2.41453,-2.269395 -3.82113,-3.141421 -2.8132,-1.744053 -5.95386,-2.890128 -8.85208,-4.488915 -3.32681,-1.835213 -6.33148,-4.26489 -9.8303,-5.746073 -1.74941,-0.740592 -3.62388,-1.235633 -5.52358,-1.242579 -1.8997,-0.0069 -3.82863,0.496841 -5.37129,1.60549 -1.24043,0.891445 -2.19618,2.145794 -2.84866,3.526958 -0.65248,1.381164 -1.01151,2.887637 -1.18722,4.405025 -0.35142,3.034775 0.0165,6.102097 0.004,9.157126 -0.0196,4.900518 -1.01749,9.807326 -0.45004,14.67492 0.28372,2.433796 0.97388,4.8521 2.28791,6.920238 1.31403,2.068136 3.28928,3.766626 5.63382,4.478666 1.53141,0.4651 3.17566,0.50102 4.75241,0.22641 1.57674,-0.2746 3.0899,-0.85253 4.5117,-1.58741 2.84359,-1.46975 5.31706,-3.550141 7.962,-5.353042 3.59723,-2.45202 7.56363,-4.427633 10.7094,-7.437044 1.57289,-1.504706 2.92705,-3.270306 3.76106,-5.280918 0.834,-2.010612 1.12489,-4.279176 0.6024,-6.39226 z"
       id="path18"
       inkscape:path-effect="#path-effect18-1"
       inkscape:original-d="m 148.03693,77.786676 c 5.02428,-6.370074 -10.88673,-7.828417 -15.01382,-11.955507 -4.12709,-4.12709 -12.84955,-3.640976 -20.72517,-5.383162 -7.87563,-1.742184 -2.93536,10.681517 -4.03167,17.089109 -1.09631,6.407589 5.07085,17.028641 7.47169,26.073824 2.40084,9.04519 11.39436,-4.565747 17.22611,-6.714042 5.83176,-2.148298 10.04857,-12.740148 15.07286,-19.110222 z"
       transform="translate(58.7375,120.12083)" />
    <circle
       style="fill:#307090;fill-opacity:1;stroke:none;stroke-width:1;stroke-dasharray:2, 1;stroke-dashoffset:0;stroke-opacity:1"
       id="circle4"
       cx="194.56613"
       cy="197.47313"
       r="4.1302147" />
    <path
       style="fill:none;fill-opacity:1;stroke:#707070;stroke-width:2;stroke-dasharray:none;stroke-dashoffset:0;stroke-opacity:1;marker-end:url(#RoundedArrow)"
       d="m 47.209699,80.235898 6.471298,-6.471299"
       id="path5"
       inkscape:path-effect="#path-effect6-9"
       inkscape:original-d="m 47.209699,80.235898 c 2.144609,-2.14461 6.471298,-6.471299 6.471298,-6.471299"
       transform="translate(151.12984,114.15192)" />
    <circle
       style="fill:#202020;fill-opacity:1;stroke:none;stroke-width:1;stroke-dasharray:2, 1;stroke-dashoffset:0;stroke-opacity:1"
       id="circle6"
       cx="-177.77527"
       cy="186.8898"
       r="4.1302147"
       transform="scale(-1,1)" />
    <path
       style="fill:none;fill-opacity:1;stroke:#d0d0d0;stroke-width:2;stroke-dasharray:none;stroke-dashoffset:0;stroke-opacity:1;marker-end:url(#RoundedArrow)"
       d="m 47.209699,80.235898 6.471298,-6.471299"
       id="path6"
       inkscape:path-effect="#path-effect8-6"
       inkscape:original-d="m 47.209699,80.235898 c 2.144609,-2.14461 6.471298,-6.471299 6.471298,-6.471299"
       transform="matrix(-1,0,0,1,221.21163,103.56859)" />
    <circle
       style="fill:#e0d0b0;fill-opacity:1;stroke:none;stroke-width:1;stroke-dasharray:2, 1;stroke-dashoffset:0;stroke-opacity:1"
       id="circle8"
       cx="-177.77527"
       cy="-209.6604"
       r="4.1302147"
       transform="scale(-1)" />
    <path
       style="fill:none;fill-opacity:1;stroke:#d0d0d0;stroke-width:2;stroke-dasharray:none;stroke-dashoffset:0;stroke-opacity:1;marker-end:url(#RoundedArrow)"
       d="m 47.209699,80.235898 6.471298,-6.471299"
       id="path9"
       inkscape:path-effect="#path-effect10-2"
       inkscape:original-d="m 47.209699,80.235898 c 2.144609,-2.14461 6.471298,-6.471299 6.471298,-6.471299"
       transform="rotate(180,110.60579,146.4908)" />
    <g
       id="g17"
       transform="matrix(1.402006,0,0,1.402006,40.773355,107.28562)">
      <path
         style="opacity:1;fill:#705050;fill-opacity:1;stroke:#e03030;stroke-width:2;stroke-dasharray:none;stroke-dashoffset:0;stroke-opacity:1"
         d="M 44.907271,35.551588 60.020294,50.664612"
         id="path15"
         inkscape:path-effect="#path-effect15-5"
         inkscape:original-d="m 44.907271,35.551588 c 4.941718,4.941719 10.027369,10.027373 15.113023,15.113024" />
      <path
         style="opacity:1;fill:#705050;fill-opacity:1;stroke:#e03030;stroke-width:2;stroke-dasharray:none;stroke-dashoffset:0;stroke-opacity:1"
         d="M 44.907271,35.551588 60.020294,50.664612"
         id="path16"
         inkscape:path-effect="#path-effect17-4"
         inkscape:original-d="m 44.907271,35.551588 c 4.941718,4.941719 10.027369,10.027373 15.113023,15.113024"
         transform="matrix(-1,0,0,1,104.92757,0)" />
    </g>
    <text
       xml:space="preserve"
       transform="matrix(0.31945602,0,0,0.31945602,7.25672,107.13295)"
       id="text18"
       style="font-style:normal;font-variant:normal;font-weight:normal;font-stretch:normal;font-size:106.667px;line-height:1.1;font-family:'Fira Sans Condensed';-inkscape-font-specification:'Fira Sans Condensed, Normal';font-variant-ligatures:normal;font-variant-caps:normal;font-variant-numeric:normal;font-variant-east-asian:normal;text-align:center;text-decoration-color:#000000;writing-mode:lr-tb;direction:ltr;white-space:pre;shape-inside:url(#rect18-4);display:inline;fill:#409080;fill-opacity:1;stroke:none;stroke-width:7.55906;stroke-dasharray:none;stroke-dashoffset:0;stroke-opacity:1"><tspan
         x="558.60101"
         y="224.76113"
         id="tspan3">✓</tspan></text>
    <text
       xml:space="preserve"
       transform="matrix(0.26458333,0,0,0.26458333,-21.588792,183.43179)"
       id="text19"
       style="font-style:normal;font-variant:normal;font-weight:normal;font-stretch:normal;font-size:40px;line-height:1.1;font-family:'Fira Sans Condensed';-inkscape-font-specification:'Fira Sans Condensed, Normal';font-variant-ligatures:normal;font-variant-caps:normal;font-variant-numeric:normal;font-variant-east-asian:normal;text-align:center;text-decoration-color:#000000;writing-mode:lr-tb;direction:ltr;white-space:pre;shape-inside:url(#rect19);display:inline;opacity:1;fill:#404040;fill-opacity:1;stroke:none;stroke-width:7.55906;stroke-dasharray:none;stroke-dashoffset:0;stroke-opacity:1"><tspan
         x="288.11395"
         y="-107.2806"
         id="tspan4">1-electron 
</tspan><tspan
         x="318.15397"
         y="-63.280598"
         id="tspan5">picture</tspan></text>
    <text
       xml:space="preserve"
       transform="matrix(0.26458333,0,0,0.26458333,68.369546,183.43179)"
       id="text20"
       style="font-style:normal;font-variant:normal;font-weight:normal;font-stretch:normal;font-size:40px;line-height:1.1;font-family:'Fira Sans Condensed';-inkscape-font-specification:'Fira Sans Condensed, Normal';font-variant-ligatures:normal;font-variant-caps:normal;font-variant-numeric:normal;font-variant-east-asian:normal;text-align:center;text-decoration-color:#000000;writing-mode:lr-tb;direction:ltr;white-space:pre;shape-inside:url(#rect20);display:inline;opacity:1;fill:#404040;fill-opacity:1;stroke:none;stroke-width:7.55906;stroke-dasharray:none;stroke-dashoffset:0;stroke-opacity:1"><tspan
         x="251.77396"
         y="-107.2806"
         id="tspan6">many-electron 
</tspan><tspan
         x="318.15397"
         y="-63.280598"
         id="tspan7">picture</tspan></text>
    <g
       transform="matrix(0.91285066,0,0,0.91285066,64.516065,190.25074)"
       ns4:version="1.10.2"
       ns4:texconverter="xelatex"
       ns4:pdfconverter="inkscape"
       ns4:text="$\\rho \\sim T^2$"
       ns4:preamble="/home/storage/.config/inkscape/extensions/textext/default_packages.tex"
       ns4:scale="1.2"
       ns4:alignment="middle center"
       ns4:stroke-to-path="0"
       ns4:inkscapeversion="1.4"
       ns4:jacobian_sqrt="0.423334"
       id="g5"
       style="fill:#e0e0e0;fill-opacity:1">
      <defs
         id="id-b8e5817f-49f3-47c7-9773-077058d3c6fc">
        <g
           id="id-a505a969-3e3c-46fb-a839-660642ab8296">
          <g
             id="id-c2277836-9ed2-47cd-8fea-83c320b81358">
            <path
               d="M 2.578125,-0.625 C 2.109375,-0.625 1.75,-0.84375 1.546875,-1.21875 L 1.71875,-2.546875 C 1.90625,-3.875 2.359375,-4.65625 3.265625,-4.65625 c 0.640625,0 0.96875,0.40625 0.96875,1.296875 0,1.0625 -0.375,2.734375 -1.65625,2.734375 z m 0.703125,-4.75 c -1.34375,0 -2.1875,0.921875 -2.4375,2.640625 L 0.171875,2.15625 1.09375,2.03125 1.4375,-0.453125 C 1.6875,-0.09375 2.078125,0.125 2.65625,0.125 c 1.921875,0 2.546875,-2.140625 2.546875,-3.484375 0,-1.21875 -0.671875,-2.015625 -1.921875,-2.015625 z m 0,0"
               id="id-8fd97688-a355-42fb-94d1-d77551d57c25" />
          </g>
          <g
             id="id-5757a7f7-1539-4b0a-b15b-da9271c405c4">
            <path
               d="m 0.40625,-2.515625 0.5625,0.28125 C 1.125,-2.5 1.359375,-2.765625 1.6875,-2.765625 c 0.421875,0 0.78125,0.671875 1.515625,0.671875 0.75,0 1.15625,-0.5625 1.375,-0.96875 l -0.5625,-0.28125 c -0.15625,0.25 -0.390625,0.53125 -0.71875,0.53125 -0.421875,0 -0.78125,-0.671875 -1.515625,-0.671875 -0.75,0 -1.15625,0.546875 -1.375,0.96875 z m 0,0"
               id="id-5fae20a3-53e0-400e-9763-95c61bf11e76" />
          </g>
          <g
             id="id-2780a965-d040-4cca-8477-23f91e9f69e5">
            <path
               d="m 5.609375,-6.875 h -4.875 L 0.625,-6.0625 H 2.546875 L 1.703125,0 h 0.9375 l 0.84375,-6.0625 h 1.90625 z m 0,0"
               id="id-4d878f1d-3b20-4f8b-9463-fa845781df86" />
          </g>
          <g
             id="id-f8c43c4f-7efd-4a4c-a415-15398f398680">
            <path
               d="m 1.84375,-5.03125 c -0.671875,0 -1.140625,0.25 -1.515625,0.734375 l 0.4375,0.34375 c 0.3125,-0.375 0.578125,-0.53125 1.046875,-0.53125 0.546875,0 0.859375,0.328125 0.859375,0.875 0,0.78125 -0.40625,1.328125 -2.25,3.078125 V 0 H 3.40625 l 0.078125,-0.546875 h -2.3125 c 1.625,-1.46875 2.1875,-2.203125 2.1875,-3.09375 0,-0.78125 -0.5625,-1.390625 -1.515625,-1.390625 z m 0,0"
               id="id-4a26c19c-c803-4f72-9296-ff0b807cb2ab" />
          </g>
        </g>
      </defs>
      <g
         fill="#000000"
         fill-opacity="1"
         id="id-e95ecda6-4ef9-473e-89a7-b1481c8a391a"
         transform="translate(-292.337,-125.748)"
         style="fill:#e0e0e0;fill-opacity:1">
        <g
           transform="translate(292.165,134.765)"
           id="g1"
           style="fill:#e0e0e0;fill-opacity:1">
          <path
             d="M 2.578125,-0.625 C 2.109375,-0.625 1.75,-0.84375 1.546875,-1.21875 L 1.71875,-2.546875 C 1.90625,-3.875 2.359375,-4.65625 3.265625,-4.65625 c 0.640625,0 0.96875,0.40625 0.96875,1.296875 0,1.0625 -0.375,2.734375 -1.65625,2.734375 z m 0.703125,-4.75 c -1.34375,0 -2.1875,0.921875 -2.4375,2.640625 L 0.171875,2.15625 1.09375,2.03125 1.4375,-0.453125 C 1.6875,-0.09375 2.078125,0.125 2.65625,0.125 c 1.921875,0 2.546875,-2.140625 2.546875,-3.484375 0,-1.21875 -0.671875,-2.015625 -1.921875,-2.015625 z m 0,0"
             id="id-7405280f-294c-418f-b21e-2401de5cd8d0"
             style="fill:#e0e0e0;fill-opacity:1" />
        </g>
      </g>
      <g
         fill="#000000"
         fill-opacity="1"
         id="id-77768b16-a0e6-4561-bf09-9b0e283a12b4"
         transform="translate(-292.337,-125.748)"
         style="fill:#e0e0e0;fill-opacity:1">
        <g
           transform="translate(300.823,134.765)"
           id="g2"
           style="fill:#e0e0e0;fill-opacity:1">
          <path
             d="m 0.40625,-2.515625 0.5625,0.28125 C 1.125,-2.5 1.359375,-2.765625 1.6875,-2.765625 c 0.421875,0 0.78125,0.671875 1.515625,0.671875 0.75,0 1.15625,-0.5625 1.375,-0.96875 l -0.5625,-0.28125 c -0.15625,0.25 -0.390625,0.53125 -0.71875,0.53125 -0.421875,0 -0.78125,-0.671875 -1.515625,-0.671875 -0.75,0 -1.15625,0.546875 -1.375,0.96875 z m 0,0"
             id="id-4f024c5b-e3c4-42b7-a01a-7ce69b9286aa"
             style="fill:#e0e0e0;fill-opacity:1" />
        </g>
      </g>
      <g
         fill="#000000"
         fill-opacity="1"
         id="id-fd39dfc0-bec0-440d-aada-feb7d05f26d7"
         transform="translate(-292.337,-125.748)"
         style="fill:#e0e0e0;fill-opacity:1">
        <g
           transform="translate(308.573,134.765)"
           id="g3"
           style="fill:#e0e0e0;fill-opacity:1">
          <path
             d="m 5.609375,-6.875 h -4.875 L 0.625,-6.0625 H 2.546875 L 1.703125,0 h 0.9375 l 0.84375,-6.0625 h 1.90625 z m 0,0"
             id="id-034eb90c-ccba-48c0-800e-30e2e02c4a9f"
             style="fill:#e0e0e0;fill-opacity:1" />
        </g>
      </g>
      <g
         fill="#000000"
         fill-opacity="1"
         id="id-a185bd53-f983-4eb1-beb6-4017d5822a81"
         transform="translate(-292.337,-125.748)"
         style="fill:#e0e0e0;fill-opacity:1">
        <g
           transform="translate(314.567,130.779)"
           id="g4"
           style="fill:#e0e0e0;fill-opacity:1">
          <path
             d="m 1.84375,-5.03125 c -0.671875,0 -1.140625,0.25 -1.515625,0.734375 l 0.4375,0.34375 c 0.3125,-0.375 0.578125,-0.53125 1.046875,-0.53125 0.546875,0 0.859375,0.328125 0.859375,0.875 0,0.78125 -0.40625,1.328125 -2.25,3.078125 V 0 H 3.40625 l 0.078125,-0.546875 h -2.3125 c 1.625,-1.46875 2.1875,-2.203125 2.1875,-3.09375 0,-0.78125 -0.5625,-1.390625 -1.515625,-1.390625 z m 0,0"
             id="id-138f3f81-345b-4d95-8d0d-5ceddccd2811"
             style="fill:#e0e0e0;fill-opacity:1" />
        </g>
      </g>
    </g>
    <g
       transform="matrix(0.912851,0,0,0.912851,160.474,194.404)"
       ns4:version="1.10.2"
       ns4:texconverter="xelatex"
       ns4:pdfconverter="inkscape"
       ns4:text="$\\rho \\sim T$"
       ns4:preamble="/home/storage/.config/inkscape/extensions/textext/default_packages.tex"
       ns4:scale="2.5876040951116615"
       ns4:alignment="middle center"
       ns4:stroke-to-path="0"
       ns4:inkscapeversion="1.4"
       ns4:jacobian_sqrt="0.912851"
       style="fill:#e0e0e0;fill-opacity:1;stroke-width:0"
       id="g27">
      <defs
         id="id-306dae01-7bb1-42f7-b079-4e017a4d7e7b"
         style="fill:#e0e0e0;fill-opacity:1;stroke-width:0">
        <g
           id="id-9eb189c9-97fd-4df3-8350-019144452159"
           style="fill:#e0e0e0;fill-opacity:1;stroke-width:0">
          <g
             id="id-735c7b70-653e-44fa-acaa-70f960454e8e"
             style="fill:#e0e0e0;fill-opacity:1;stroke-width:0">
            <path
               d="M 2.578125,-0.625 C 2.109375,-0.625 1.75,-0.84375 1.546875,-1.21875 L 1.71875,-2.546875 C 1.90625,-3.875 2.359375,-4.65625 3.265625,-4.65625 c 0.640625,0 0.96875,0.40625 0.96875,1.296875 0,1.0625 -0.375,2.734375 -1.65625,2.734375 z m 0.703125,-4.75 c -1.34375,0 -2.1875,0.921875 -2.4375,2.640625 L 0.171875,2.15625 1.09375,2.03125 1.4375,-0.453125 C 1.6875,-0.09375 2.078125,0.125 2.65625,0.125 c 1.921875,0 2.546875,-2.140625 2.546875,-3.484375 0,-1.21875 -0.671875,-2.015625 -1.921875,-2.015625 z m 0,0"
               id="id-8ca5aea9-7e1f-47ab-bd64-a692ce613218"
               style="fill:#e0e0e0;fill-opacity:1;stroke-width:0" />
          </g>
          <g
             id="id-c0e5971e-1844-4c94-96dc-00b50ddfd663"
             style="fill:#e0e0e0;fill-opacity:1;stroke-width:0">
            <path
               d="m 0.40625,-2.515625 0.5625,0.28125 C 1.125,-2.5 1.359375,-2.765625 1.6875,-2.765625 c 0.421875,0 0.78125,0.671875 1.515625,0.671875 0.75,0 1.15625,-0.5625 1.375,-0.96875 l -0.5625,-0.28125 c -0.15625,0.25 -0.390625,0.53125 -0.71875,0.53125 -0.421875,0 -0.78125,-0.671875 -1.515625,-0.671875 -0.75,0 -1.15625,0.546875 -1.375,0.96875 z m 0,0"
               id="id-3fb8c09f-e519-4dd0-9d54-52c3d4ff65fe"
               style="fill:#e0e0e0;fill-opacity:1;stroke-width:0" />
          </g>
          <g
             id="id-9626cd8a-97ca-4405-a146-5993bb0e94b0"
             style="fill:#e0e0e0;fill-opacity:1;stroke-width:0">
            <path
               d="m 5.609375,-6.875 h -4.875 L 0.625,-6.0625 H 2.546875 L 1.703125,0 h 0.9375 l 0.84375,-6.0625 h 1.90625 z m 0,0"
               id="id-7e60739a-3ad7-4868-9030-1c6806dd6ea8"
               style="fill:#e0e0e0;fill-opacity:1;stroke-width:0" />
          </g>
        </g>
      </defs>
      <g
         fill-opacity="1"
         id="id-2cc83981-9162-47ff-b90d-f6c5c800f22d"
         transform="translate(-294.595,-127.89)"
         style="fill:#e0e0e0;fill-opacity:1;stroke-width:0">
        <g
           transform="translate(294.423,134.765)"
           style="fill:#e0e0e0;fill-opacity:1;stroke-width:0"
           id="g24">
          <path
             d="M 2.578125,-0.625 C 2.109375,-0.625 1.75,-0.84375 1.546875,-1.21875 L 1.71875,-2.546875 C 1.90625,-3.875 2.359375,-4.65625 3.265625,-4.65625 c 0.640625,0 0.96875,0.40625 0.96875,1.296875 0,1.0625 -0.375,2.734375 -1.65625,2.734375 z m 0.703125,-4.75 c -1.34375,0 -2.1875,0.921875 -2.4375,2.640625 L 0.171875,2.15625 1.09375,2.03125 1.4375,-0.453125 C 1.6875,-0.09375 2.078125,0.125 2.65625,0.125 c 1.921875,0 2.546875,-2.140625 2.546875,-3.484375 0,-1.21875 -0.671875,-2.015625 -1.921875,-2.015625 z m 0,0"
             id="id-b83ea31d-78f0-43dc-b778-5199adef5e6e"
             style="fill:#e0e0e0;fill-opacity:1;stroke-width:0" />
        </g>
      </g>
      <g
         fill-opacity="1"
         id="id-642e20a6-159b-4f19-8eee-9e38fe196930"
         transform="translate(-294.595,-127.89)"
         style="fill:#e0e0e0;fill-opacity:1;stroke-width:0">
        <g
           transform="translate(303.081,134.765)"
           style="fill:#e0e0e0;fill-opacity:1;stroke-width:0"
           id="g25">
          <path
             d="m 0.40625,-2.515625 0.5625,0.28125 C 1.125,-2.5 1.359375,-2.765625 1.6875,-2.765625 c 0.421875,0 0.78125,0.671875 1.515625,0.671875 0.75,0 1.15625,-0.5625 1.375,-0.96875 l -0.5625,-0.28125 c -0.15625,0.25 -0.390625,0.53125 -0.71875,0.53125 -0.421875,0 -0.78125,-0.671875 -1.515625,-0.671875 -0.75,0 -1.15625,0.546875 -1.375,0.96875 z m 0,0"
             id="id-08fa6f35-ef53-4c44-b674-e8020d5f8d85"
             style="fill:#e0e0e0;fill-opacity:1;stroke-width:0" />
        </g>
      </g>
      <g
         fill-opacity="1"
         id="id-a284c3a8-2202-4fdd-af54-9944288c3cbb"
         transform="translate(-294.595,-127.89)"
         style="fill:#e0e0e0;fill-opacity:1;stroke-width:0">
        <g
           transform="translate(310.831,134.765)"
           style="fill:#e0e0e0;fill-opacity:1;stroke-width:0"
           id="g26">
          <path
             d="m 5.609375,-6.875 h -4.875 L 0.625,-6.0625 H 2.546875 L 1.703125,0 h 0.9375 l 0.84375,-6.0625 h 1.90625 z m 0,0"
             id="id-544541dc-8890-4c90-bfbb-d6b87027820a"
             style="fill:#e0e0e0;fill-opacity:1;stroke-width:0" />
        </g>
      </g>
    </g>
  </g>
</svg>
