<?xml version="1.0" encoding="UTF-8" standalone="no"?>
<!-- Created with Inkscape (http://www.inkscape.org/) -->

<svg
   width="109.60197mm"
   height="144.65886mm"
   viewBox="0 0 109.60197 144.65885"
   version="1.1"
   id="svg1"
   xml:space="preserve"
   inkscape:version="1.4 (e7c3feb100, 2024-10-09)"
   sodipodi:docname="tiling.svg"
   xmlns:inkscape="http://www.inkscape.org/namespaces/inkscape"
   xmlns:sodipodi="http://sodipodi.sourceforge.net/DTD/sodipodi-0.dtd"
   xmlns="http://www.w3.org/2000/svg"
   xmlns:svg="http://www.w3.org/2000/svg"><sodipodi:namedview
     id="namedview1"
     pagecolor="#ffffff"
     bordercolor="#000000"
     borderopacity="0.25"
     inkscape:showpageshadow="2"
     inkscape:pageopacity="0.0"
     inkscape:pagecheckerboard="0"
     inkscape:deskcolor="#d1d1d1"
     inkscape:document-units="mm"
     inkscape:zoom="1.2588768"
     inkscape:cx="207.32768"
     inkscape:cy="177.53922"
     inkscape:window-width="1914"
     inkscape:window-height="1044"
     inkscape:window-x="0"
     inkscape:window-y="30"
     inkscape:window-maximized="1"
     inkscape:current-layer="layer1" /><defs
     id="defs1"><marker
       style="overflow:visible"
       id="RoundedArrow"
       refX="0"
       refY="0"
       orient="auto-start-reverse"
       inkscape:stockid="Rounded arrow"
       markerWidth="0.5"
       markerHeight="0.5"
       viewBox="0 0 1 1"
       inkscape:isstock="true"
       inkscape:collect="always"
       preserveAspectRatio="xMidYMid"><path
         transform="scale(0.7)"
         d="m -0.21114562,-4.1055728 6.42229122,3.21114561 a 1,1 90 0 1 0,1.78885438 L -0.21114562,4.1055728 A 1.236068,1.236068 31.717474 0 1 -2,3 v -6 a 1.236068,1.236068 148.28253 0 1 1.78885438,-1.1055728 z"
         style="fill:context-stroke;fill-rule:evenodd;stroke:none"
         id="path8" /></marker><inkscape:path-effect
       effect="spiro"
       id="path-effect36"
       is_visible="true"
       lpeversion="1" /><inkscape:path-effect
       effect="spiro"
       id="path-effect35"
       is_visible="true"
       lpeversion="1" /><inkscape:path-effect
       effect="spiro"
       id="path-effect224"
       is_visible="true"
       lpeversion="1" /><inkscape:path-effect
       effect="spiro"
       id="path-effect224-2"
       is_visible="true"
       lpeversion="1" /><inkscape:path-effect
       effect="spiro"
       id="path-effect220"
       is_visible="true"
       lpeversion="1" /><inkscape:path-effect
       effect="spiro"
       id="path-effect218-9-3-1"
       is_visible="true"
       lpeversion="1" /><inkscape:path-effect
       effect="spiro"
       id="path-effect218-9"
       is_visible="true"
       lpeversion="1" /><inkscape:path-effect
       effect="spiro"
       id="path-effect218-9-3"
       is_visible="true"
       lpeversion="1" /><inkscape:path-effect
       effect="spiro"
       id="path-effect218"
       is_visible="true"
       lpeversion="1" /><inkscape:path-effect
       effect="spiro"
       id="path-effect225"
       is_visible="true"
       lpeversion="1" /><rect
       x="4212.4766"
       y="1622.8828"
       width="159.42969"
       height="126.1875"
       id="rect225" /><rect
       x="4212.4766"
       y="1622.8828"
       width="159.42969"
       height="126.1875"
       id="rect225-1" /><rect
       x="4212.4766"
       y="1622.8828"
       width="159.42969"
       height="126.1875"
       id="rect225-0" /><rect
       x="4212.4766"
       y="1622.8828"
       width="159.42969"
       height="126.1875"
       id="rect225-0-1" /><inkscape:path-effect
       effect="spiro"
       id="path-effect18"
       is_visible="true"
       lpeversion="1" /><inkscape:path-effect
       effect="spiro"
       id="path-effect15"
       is_visible="true"
       lpeversion="1" /><inkscape:path-effect
       effect="spiro"
       id="path-effect6"
       is_visible="true"
       lpeversion="1" /><inkscape:path-effect
       effect="spiro"
       id="path-effect14"
       is_visible="true"
       lpeversion="1" /><inkscape:path-effect
       effect="spiro"
       id="path-effect13"
       is_visible="true"
       lpeversion="1" /><inkscape:path-effect
       effect="spiro"
       id="path-effect11"
       is_visible="true"
       lpeversion="1" /><inkscape:path-effect
       effect="spiro"
       id="path-effect2"
       is_visible="true"
       lpeversion="1" /><inkscape:path-effect
       effect="spiro"
       id="path-effect7"
       is_visible="true"
       lpeversion="1" /><inkscape:path-effect
       effect="spiro"
       id="path-effect5"
       is_visible="true"
       lpeversion="1" /><inkscape:path-effect
       effect="spiro"
       id="path-effect3"
       is_visible="true"
       lpeversion="1" /><inkscape:path-effect
       effect="spiro"
       id="path-effect1"
       is_visible="true"
       lpeversion="1" /><inkscape:path-effect
       effect="spiro"
       id="path-effect1-3"
       is_visible="true"
       lpeversion="1" /><inkscape:path-effect
       effect="spiro"
       id="path-effect1-6"
       is_visible="true"
       lpeversion="1" /><inkscape:path-effect
       effect="spiro"
       id="path-effect1-3-1"
       is_visible="true"
       lpeversion="1" /><inkscape:path-effect
       effect="spiro"
       id="path-effect3-8"
       is_visible="true"
       lpeversion="1" /><inkscape:path-effect
       effect="spiro"
       id="path-effect5-7"
       is_visible="true"
       lpeversion="1" /><inkscape:path-effect
       effect="spiro"
       id="path-effect7-9"
       is_visible="true"
       lpeversion="1" /><inkscape:path-effect
       effect="spiro"
       id="path-effect1-2"
       is_visible="true"
       lpeversion="1" /><inkscape:path-effect
       effect="spiro"
       id="path-effect1-3-9"
       is_visible="true"
       lpeversion="1" /><inkscape:path-effect
       effect="spiro"
       id="path-effect3-3"
       is_visible="true"
       lpeversion="1" /><inkscape:path-effect
       effect="spiro"
       id="path-effect5-1"
       is_visible="true"
       lpeversion="1" /><inkscape:path-effect
       effect="spiro"
       id="path-effect7-94"
       is_visible="true"
       lpeversion="1" /><inkscape:path-effect
       effect="spiro"
       id="path-effect1-6-7"
       is_visible="true"
       lpeversion="1" /><inkscape:path-effect
       effect="spiro"
       id="path-effect1-3-1-8"
       is_visible="true"
       lpeversion="1" /><inkscape:path-effect
       effect="spiro"
       id="path-effect3-8-4"
       is_visible="true"
       lpeversion="1" /><inkscape:path-effect
       effect="spiro"
       id="path-effect5-7-5"
       is_visible="true"
       lpeversion="1" /><inkscape:path-effect
       effect="spiro"
       id="path-effect7-9-0"
       is_visible="true"
       lpeversion="1" /><inkscape:path-effect
       effect="spiro"
       id="path-effect1-68"
       is_visible="true"
       lpeversion="1" /><inkscape:path-effect
       effect="spiro"
       id="path-effect1-3-92"
       is_visible="true"
       lpeversion="1" /><inkscape:path-effect
       effect="spiro"
       id="path-effect3-6"
       is_visible="true"
       lpeversion="1" /><inkscape:path-effect
       effect="spiro"
       id="path-effect5-6"
       is_visible="true"
       lpeversion="1" /><inkscape:path-effect
       effect="spiro"
       id="path-effect7-4"
       is_visible="true"
       lpeversion="1" /><inkscape:path-effect
       effect="spiro"
       id="path-effect1-6-9"
       is_visible="true"
       lpeversion="1" /><inkscape:path-effect
       effect="spiro"
       id="path-effect1-3-1-5"
       is_visible="true"
       lpeversion="1" /><inkscape:path-effect
       effect="spiro"
       id="path-effect3-8-0"
       is_visible="true"
       lpeversion="1" /><inkscape:path-effect
       effect="spiro"
       id="path-effect5-7-4"
       is_visible="true"
       lpeversion="1" /><inkscape:path-effect
       effect="spiro"
       id="path-effect7-9-8"
       is_visible="true"
       lpeversion="1" /><inkscape:path-effect
       effect="spiro"
       id="path-effect1-2-7"
       is_visible="true"
       lpeversion="1" /><inkscape:path-effect
       effect="spiro"
       id="path-effect1-3-9-1"
       is_visible="true"
       lpeversion="1" /><inkscape:path-effect
       effect="spiro"
       id="path-effect3-3-7"
       is_visible="true"
       lpeversion="1" /><inkscape:path-effect
       effect="spiro"
       id="path-effect5-1-2"
       is_visible="true"
       lpeversion="1" /><inkscape:path-effect
       effect="spiro"
       id="path-effect7-94-7"
       is_visible="true"
       lpeversion="1" /><inkscape:path-effect
       effect="spiro"
       id="path-effect1-6-7-2"
       is_visible="true"
       lpeversion="1" /><inkscape:path-effect
       effect="spiro"
       id="path-effect1-3-1-8-2"
       is_visible="true"
       lpeversion="1" /><inkscape:path-effect
       effect="spiro"
       id="path-effect3-8-4-6"
       is_visible="true"
       lpeversion="1" /><inkscape:path-effect
       effect="spiro"
       id="path-effect5-7-5-1"
       is_visible="true"
       lpeversion="1" /><inkscape:path-effect
       effect="spiro"
       id="path-effect7-9-0-0"
       is_visible="true"
       lpeversion="1" /><inkscape:path-effect
       effect="spiro"
       id="path-effect2-3"
       is_visible="true"
       lpeversion="1" /><inkscape:path-effect
       effect="spiro"
       id="path-effect2-3-7"
       is_visible="true"
       lpeversion="1" /><inkscape:path-effect
       effect="spiro"
       id="path-effect2-2"
       is_visible="true"
       lpeversion="1" /><inkscape:path-effect
       effect="spiro"
       id="path-effect2-3-0"
       is_visible="true"
       lpeversion="1" /><inkscape:path-effect
       effect="spiro"
       id="path-effect2-28"
       is_visible="true"
       lpeversion="1" /><inkscape:path-effect
       effect="spiro"
       id="path-effect2-28-9"
       is_visible="true"
       lpeversion="1" /><inkscape:path-effect
       effect="spiro"
       id="path-effect2-28-9-4"
       is_visible="true"
       lpeversion="1" /><inkscape:path-effect
       effect="spiro"
       id="path-effect2-28-3"
       is_visible="true"
       lpeversion="1" /><inkscape:path-effect
       effect="spiro"
       id="path-effect2-28-9-47"
       is_visible="true"
       lpeversion="1" /><g
       id="id-f83a9160-6730-4e1a-b9d3-f026adb54697-5"><g
         id="id-d4f1c1fd-5d7e-4cc2-98f2-243a43401039-2"><path
           d="M 6.25,-6.875 H 5.3125 l -0.640625,4.578125 c -0.15625,1.0625 -0.71875,1.625 -1.71875,1.625 C 2,-0.671875 1.625,-1.171875 1.78125,-2.25 l 0.640625,-4.625 h -0.9375 l -0.65625,4.640625 C 0.640625,-0.875 1.34375,0.125 2.90625,0.125 c 1.515625,0 2.5,-0.9375 2.6875,-2.296875 z m 0,0"
           id="id-794839ec-723a-4315-80cb-2ff75269337b-5" /></g><g
         id="id-762b0ead-5bcf-4ffc-a9d4-650f41334f29-4"><path
           d="m 2.453125,-3.34375 c 0.375,0 0.65625,0.234375 0.65625,0.90625 0,0.859375 -0.359375,2 -1.296875,2 -0.265625,0 -0.421875,-0.03125 -0.671875,-0.109375 l 0.3125,-2.25 c 0.28125,-0.28125 0.578125,-0.546875 1,-0.546875 z M 2.625,-3.859375 c -0.40625,0 -0.75,0.15625 -1.078125,0.453125 L 1.8125,-5.375 1.15625,-5.296875 0.4375,-0.171875 C 0.96875,0.015625 1.328125,0.09375 1.765625,0.09375 3.25,0.09375 3.78125,-1.3125 3.78125,-2.375 c 0,-0.953125 -0.453125,-1.484375 -1.15625,-1.484375 z m 0,0"
           id="id-08ca60ef-a63a-4a79-8dde-f37a9d4a8d09-7" /></g></g><g
       id="id-f83a9160-6730-4e1a-b9d3-f026adb54697-1"><g
         id="id-d4f1c1fd-5d7e-4cc2-98f2-243a43401039-4"><path
           d="M 6.25,-6.875 H 5.3125 l -0.640625,4.578125 c -0.15625,1.0625 -0.71875,1.625 -1.71875,1.625 C 2,-0.671875 1.625,-1.171875 1.78125,-2.25 l 0.640625,-4.625 h -0.9375 l -0.65625,4.640625 C 0.640625,-0.875 1.34375,0.125 2.90625,0.125 c 1.515625,0 2.5,-0.9375 2.6875,-2.296875 z m 0,0"
           id="id-794839ec-723a-4315-80cb-2ff75269337b-9" /></g><g
         id="id-762b0ead-5bcf-4ffc-a9d4-650f41334f29-2"><path
           d="m 2.453125,-3.34375 c 0.375,0 0.65625,0.234375 0.65625,0.90625 0,0.859375 -0.359375,2 -1.296875,2 -0.265625,0 -0.421875,-0.03125 -0.671875,-0.109375 l 0.3125,-2.25 c 0.28125,-0.28125 0.578125,-0.546875 1,-0.546875 z M 2.625,-3.859375 c -0.40625,0 -0.75,0.15625 -1.078125,0.453125 L 1.8125,-5.375 1.15625,-5.296875 0.4375,-0.171875 C 0.96875,0.015625 1.328125,0.09375 1.765625,0.09375 3.25,0.09375 3.78125,-1.3125 3.78125,-2.375 c 0,-0.953125 -0.453125,-1.484375 -1.15625,-1.484375 z m 0,0"
           id="id-08ca60ef-a63a-4a79-8dde-f37a9d4a8d09-0" /></g></g><g
       id="id-f83a9160-6730-4e1a-b9d3-f026adb54697-7"><g
         id="id-d4f1c1fd-5d7e-4cc2-98f2-243a43401039-1"><path
           d="M 6.25,-6.875 H 5.3125 l -0.640625,4.578125 c -0.15625,1.0625 -0.71875,1.625 -1.71875,1.625 C 2,-0.671875 1.625,-1.171875 1.78125,-2.25 l 0.640625,-4.625 h -0.9375 l -0.65625,4.640625 C 0.640625,-0.875 1.34375,0.125 2.90625,0.125 c 1.515625,0 2.5,-0.9375 2.6875,-2.296875 z m 0,0"
           id="id-794839ec-723a-4315-80cb-2ff75269337b-7" /></g><g
         id="id-762b0ead-5bcf-4ffc-a9d4-650f41334f29-27"><path
           d="m 2.453125,-3.34375 c 0.375,0 0.65625,0.234375 0.65625,0.90625 0,0.859375 -0.359375,2 -1.296875,2 -0.265625,0 -0.421875,-0.03125 -0.671875,-0.109375 l 0.3125,-2.25 c 0.28125,-0.28125 0.578125,-0.546875 1,-0.546875 z M 2.625,-3.859375 c -0.40625,0 -0.75,0.15625 -1.078125,0.453125 L 1.8125,-5.375 1.15625,-5.296875 0.4375,-0.171875 C 0.96875,0.015625 1.328125,0.09375 1.765625,0.09375 3.25,0.09375 3.78125,-1.3125 3.78125,-2.375 c 0,-0.953125 -0.453125,-1.484375 -1.15625,-1.484375 z m 0,0"
           id="id-08ca60ef-a63a-4a79-8dde-f37a9d4a8d09-2" /></g></g><inkscape:path-effect
       effect="spiro"
       id="path-effect14-7"
       is_visible="true"
       lpeversion="1" /><g
       id="id-6695c8bc-d4fb-408d-af10-16e63854ae55-9"><g
         id="id-0a61603c-02a1-4c32-b915-3b84f2905897-7"><path
           d="M 2.15625,-4.546875 H 3.296875 L 3.5,-5.25 H 2.265625 L 2.4375,-6.546875 1.71875,-6.46875 1.390625,-5.25 h -0.9375 L 0.34375,-4.546875 H 1.25 L 0.8125,-1.40625 c -0.140625,0.984375 0.34375,1.53125 1.25,1.53125 0.40625,0 0.78125,-0.109375 1.171875,-0.359375 L 2.9375,-0.875 c -0.28125,0.140625 -0.5,0.234375 -0.765625,0.234375 -0.390625,0 -0.53125,-0.21875 -0.453125,-0.75 z m 0,0"
           id="id-cf346f64-ce42-4651-93c5-bab93ca876f1-7" /></g></g><inkscape:path-effect
       effect="spiro"
       id="path-effect6-7"
       is_visible="true"
       lpeversion="1" /><inkscape:path-effect
       effect="spiro"
       id="path-effect6-7-2"
       is_visible="true"
       lpeversion="1" /><inkscape:path-effect
       effect="spiro"
       id="path-effect6-7-2-0"
       is_visible="true"
       lpeversion="1" /><g
       id="id-e3ca5a55-9dc5-4503-89f1-e2515b3e117e"><g
         id="id-02dd66b8-eeb6-48b8-8595-e45f9fa7c3a8"><path
           d="M 2.65625,-6.875 H 1.71875 L 0.890625,-1.03125 C 0.765625,-0.109375 0.5,0.3125 -0.453125,0.671875 L -0.265625,1.375 C 0.875,1.03125 1.609375,0.515625 1.8125,-0.921875 Z m 0,0"
           id="id-d3407b9d-85b0-4cb1-8aa1-56e07cf84840" /></g></g><g
       id="id-45f02d02-7900-4436-a95f-125e50de9d03"><g
         id="id-f1c18d70-9ac0-4fe8-a95e-fb077e5dbcef"><path
           d="M 6.015625,-6.875 H 5.046875 L 2.5,-1.03125 1.625,-6.875 H 0.640625 L 1.875,0 h 1 z m 0,0"
           id="id-5bcda3b5-9b24-494d-8420-b6b1315a0efa" /></g></g><g
       id="id-a01a3df8-5823-4a64-96f6-12e06b089f8b"><g
         id="id-c92ee4cc-d609-4d75-8a3c-ac9b6b7f7bc3"><path
           d="M 6.25,-6.875 H 5.3125 l -0.640625,4.578125 c -0.15625,1.0625 -0.71875,1.625 -1.71875,1.625 C 2,-0.671875 1.625,-1.171875 1.78125,-2.25 l 0.640625,-4.625 h -0.9375 l -0.65625,4.640625 C 0.640625,-0.875 1.34375,0.125 2.90625,0.125 c 1.515625,0 2.5,-0.9375 2.6875,-2.296875 z m 0,0"
           id="id-6838874d-4fe8-4261-aa84-ccf150b327c1" /></g></g><g
       id="id-f83a9160-6730-4e1a-b9d3-f026adb54697"><g
         id="id-d4f1c1fd-5d7e-4cc2-98f2-243a43401039"><path
           d="M 6.25,-6.875 H 5.3125 l -0.640625,4.578125 c -0.15625,1.0625 -0.71875,1.625 -1.71875,1.625 C 2,-0.671875 1.625,-1.171875 1.78125,-2.25 l 0.640625,-4.625 h -0.9375 l -0.65625,4.640625 C 0.640625,-0.875 1.34375,0.125 2.90625,0.125 c 1.515625,0 2.5,-0.9375 2.6875,-2.296875 z m 0,0"
           id="id-794839ec-723a-4315-80cb-2ff75269337b" /></g><g
         id="id-762b0ead-5bcf-4ffc-a9d4-650f41334f29"><path
           d="m 2.453125,-3.34375 c 0.375,0 0.65625,0.234375 0.65625,0.90625 0,0.859375 -0.359375,2 -1.296875,2 -0.265625,0 -0.421875,-0.03125 -0.671875,-0.109375 l 0.3125,-2.25 c 0.28125,-0.28125 0.578125,-0.546875 1,-0.546875 z M 2.625,-3.859375 c -0.40625,0 -0.75,0.15625 -1.078125,0.453125 L 1.8125,-5.375 1.15625,-5.296875 0.4375,-0.171875 C 0.96875,0.015625 1.328125,0.09375 1.765625,0.09375 3.25,0.09375 3.78125,-1.3125 3.78125,-2.375 c 0,-0.953125 -0.453125,-1.484375 -1.15625,-1.484375 z m 0,0"
           id="id-08ca60ef-a63a-4a79-8dde-f37a9d4a8d09" /></g></g><g
       id="g4"><g
         id="g2"><path
           d="M 6.25,-6.875 H 5.3125 l -0.640625,4.578125 c -0.15625,1.0625 -0.71875,1.625 -1.71875,1.625 C 2,-0.671875 1.625,-1.171875 1.78125,-2.25 l 0.640625,-4.625 h -0.9375 l -0.65625,4.640625 C 0.640625,-0.875 1.34375,0.125 2.90625,0.125 c 1.515625,0 2.5,-0.9375 2.6875,-2.296875 z m 0,0"
           id="path2" /></g><g
         id="g3"><path
           d="m 2.453125,-3.34375 c 0.375,0 0.65625,0.234375 0.65625,0.90625 0,0.859375 -0.359375,2 -1.296875,2 -0.265625,0 -0.421875,-0.03125 -0.671875,-0.109375 l 0.3125,-2.25 c 0.28125,-0.28125 0.578125,-0.546875 1,-0.546875 z M 2.625,-3.859375 c -0.40625,0 -0.75,0.15625 -1.078125,0.453125 L 1.8125,-5.375 1.15625,-5.296875 0.4375,-0.171875 C 0.96875,0.015625 1.328125,0.09375 1.765625,0.09375 3.25,0.09375 3.78125,-1.3125 3.78125,-2.375 c 0,-0.953125 -0.453125,-1.484375 -1.15625,-1.484375 z m 0,0"
           id="path3" /></g></g><g
       id="g7"><g
         id="g5"><path
           d="M 6.25,-6.875 H 5.3125 l -0.640625,4.578125 c -0.15625,1.0625 -0.71875,1.625 -1.71875,1.625 C 2,-0.671875 1.625,-1.171875 1.78125,-2.25 l 0.640625,-4.625 h -0.9375 l -0.65625,4.640625 C 0.640625,-0.875 1.34375,0.125 2.90625,0.125 c 1.515625,0 2.5,-0.9375 2.6875,-2.296875 z m 0,0"
           id="path4" /></g><g
         id="g6"><path
           d="m 2.453125,-3.34375 c 0.375,0 0.65625,0.234375 0.65625,0.90625 0,0.859375 -0.359375,2 -1.296875,2 -0.265625,0 -0.421875,-0.03125 -0.671875,-0.109375 l 0.3125,-2.25 c 0.28125,-0.28125 0.578125,-0.546875 1,-0.546875 z M 2.625,-3.859375 c -0.40625,0 -0.75,0.15625 -1.078125,0.453125 L 1.8125,-5.375 1.15625,-5.296875 0.4375,-0.171875 C 0.96875,0.015625 1.328125,0.09375 1.765625,0.09375 3.25,0.09375 3.78125,-1.3125 3.78125,-2.375 c 0,-0.953125 -0.453125,-1.484375 -1.15625,-1.484375 z m 0,0"
           id="path5" /></g></g><g
       id="g11"><g
         id="g9"><path
           d="M 6.25,-6.875 H 5.3125 l -0.640625,4.578125 c -0.15625,1.0625 -0.71875,1.625 -1.71875,1.625 C 2,-0.671875 1.625,-1.171875 1.78125,-2.25 l 0.640625,-4.625 h -0.9375 l -0.65625,4.640625 C 0.640625,-0.875 1.34375,0.125 2.90625,0.125 c 1.515625,0 2.5,-0.9375 2.6875,-2.296875 z m 0,0"
           id="path9" /></g><g
         id="g10"><path
           d="m 2.453125,-3.34375 c 0.375,0 0.65625,0.234375 0.65625,0.90625 0,0.859375 -0.359375,2 -1.296875,2 -0.265625,0 -0.421875,-0.03125 -0.671875,-0.109375 l 0.3125,-2.25 c 0.28125,-0.28125 0.578125,-0.546875 1,-0.546875 z M 2.625,-3.859375 c -0.40625,0 -0.75,0.15625 -1.078125,0.453125 L 1.8125,-5.375 1.15625,-5.296875 0.4375,-0.171875 C 0.96875,0.015625 1.328125,0.09375 1.765625,0.09375 3.25,0.09375 3.78125,-1.3125 3.78125,-2.375 c 0,-0.953125 -0.453125,-1.484375 -1.15625,-1.484375 z m 0,0"
           id="path10" /></g></g><g
       id="id-6695c8bc-d4fb-408d-af10-16e63854ae55"><g
         id="id-0a61603c-02a1-4c32-b915-3b84f2905897"><path
           d="M 2.15625,-4.546875 H 3.296875 L 3.5,-5.25 H 2.265625 L 2.4375,-6.546875 1.71875,-6.46875 1.390625,-5.25 h -0.9375 L 0.34375,-4.546875 H 1.25 L 0.8125,-1.40625 c -0.140625,0.984375 0.34375,1.53125 1.25,1.53125 0.40625,0 0.78125,-0.109375 1.171875,-0.359375 L 2.9375,-0.875 c -0.28125,0.140625 -0.5,0.234375 -0.765625,0.234375 -0.390625,0 -0.53125,-0.21875 -0.453125,-0.75 z m 0,0"
           id="id-cf346f64-ce42-4651-93c5-bab93ca876f1" /></g></g><g
       id="g17"><g
         id="g16"><path
           d="M 2.15625,-4.546875 H 3.296875 L 3.5,-5.25 H 2.265625 L 2.4375,-6.546875 1.71875,-6.46875 1.390625,-5.25 h -0.9375 L 0.34375,-4.546875 H 1.25 L 0.8125,-1.40625 c -0.140625,0.984375 0.34375,1.53125 1.25,1.53125 0.40625,0 0.78125,-0.109375 1.171875,-0.359375 L 2.9375,-0.875 c -0.28125,0.140625 -0.5,0.234375 -0.765625,0.234375 -0.390625,0 -0.53125,-0.21875 -0.453125,-0.75 z m 0,0"
           id="path16" /></g></g></defs><g
     inkscape:label="Layer 1"
     inkscape:groupmode="layer"
     id="layer1"
     transform="translate(45.772977,28.706964)"><path
       style="fill:#003b81;fill-opacity:1;stroke:#303030;stroke-width:3;stroke-linejoin:bevel;stroke-dasharray:6, 3;stroke-dashoffset:0;stroke-opacity:1;paint-order:markers stroke fill"
       d="M 993.35767,305.90018 1100.508,305.61573"
       id="path219"
       inkscape:path-effect="#path-effect220"
       inkscape:original-d="m 993.35767,305.90018 c 35.71683,-0.0948 71.43353,-0.18963 107.15033,-0.28445"
       transform="matrix(0,1.0228043,-0.76568049,0,274.81041,-1009.6565)" /><path
       style="fill:#003b81;fill-opacity:1;stroke:#303030;stroke-width:3;stroke-linejoin:bevel;stroke-dasharray:6, 3;stroke-dashoffset:0;stroke-opacity:1;paint-order:markers stroke fill"
       d="M 993.35767,305.90018 1100.508,305.61573"
       id="path218-4-7-9"
       inkscape:path-effect="#path-effect218-9-3-1"
       inkscape:original-d="m 993.35767,305.90018 c 35.71683,-0.0948 71.43353,-0.18963 107.15033,-0.28445"
       transform="matrix(0,1.0228043,-0.76568049,0,211.68257,-1009.6565)" /><path
       style="fill:#003b81;fill-opacity:1;stroke:#303030;stroke-width:3;stroke-linejoin:bevel;stroke-dasharray:6, 3;stroke-dashoffset:0;stroke-opacity:1;paint-order:markers stroke fill"
       d="M 993.35767,305.90018 1100.508,305.61573"
       id="path218-4"
       inkscape:path-effect="#path-effect218-9"
       inkscape:original-d="m 993.35767,305.90018 c 35.71683,-0.0948 71.43353,-0.18963 107.15033,-0.28445"
       transform="matrix(1.0228043,0,0,0.76568049,-1061.7794,-142.08362)" /><path
       style="fill:#003b81;fill-opacity:1;stroke:#303030;stroke-width:3;stroke-linejoin:bevel;stroke-dasharray:6, 3;stroke-dashoffset:0;stroke-opacity:1;paint-order:markers stroke fill"
       d="M 993.35767,305.90018 1100.508,305.61573"
       id="path218-4-7"
       inkscape:path-effect="#path-effect218-9-3"
       inkscape:original-d="m 993.35767,305.90018 c 35.71683,-0.0948 71.43353,-0.18963 107.15033,-0.28445"
       transform="matrix(0,1.0228043,-0.76568049,0,243.04283,-1009.6565)" /><path
       style="fill:#003b81;fill-opacity:1;stroke:#303030;stroke-width:3;stroke-linejoin:bevel;stroke-dasharray:6, 3;stroke-dashoffset:0;stroke-opacity:1;paint-order:markers stroke fill"
       d="M 993.35767,305.90018 1100.508,305.61573"
       id="path218"
       inkscape:path-effect="#path-effect218"
       inkscape:original-d="m 993.35767,305.90018 c 35.71683,-0.0948 71.43353,-0.18963 107.15033,-0.28445"
       transform="matrix(1.0228043,0,0,0.76568049,-1061.7794,-203.85262)" /><rect
       style="fill:none;fill-opacity:1;stroke:#505050;stroke-width:2.30896;stroke-linejoin:bevel;stroke-dasharray:none;stroke-opacity:1;paint-order:markers stroke fill"
       id="rect217"
       width="31.682423"
       height="30.970453"
       x="-22.55583"
       y="30.180534" /><rect
       style="fill:none;fill-opacity:1;stroke:#505050;stroke-width:2.30896;stroke-linejoin:bevel;stroke-dasharray:none;stroke-opacity:1;paint-order:markers stroke fill"
       id="rect217-8"
       width="31.682423"
       height="30.970453"
       x="8.9299383"
       y="30.180534" /><rect
       style="fill:none;fill-opacity:1;stroke:#505050;stroke-width:2.30896;stroke-linejoin:bevel;stroke-dasharray:none;stroke-opacity:1;paint-order:markers stroke fill"
       id="rect217-6"
       width="31.682423"
       height="30.970453"
       x="-22.55583"
       y="61.15099" /><rect
       style="fill:none;fill-opacity:1;stroke:#505050;stroke-width:2.30896;stroke-linejoin:bevel;stroke-dasharray:none;stroke-opacity:1;paint-order:markers stroke fill"
       id="rect217-8-2"
       width="31.682423"
       height="30.970453"
       x="8.9299383"
       y="61.15099" /><circle
       style="fill:#003b81;fill-opacity:1;stroke:none;stroke-width:0.826199;stroke-linejoin:bevel;stroke-dasharray:none;stroke-opacity:1;paint-order:markers stroke fill"
       id="path217"
       cx="-22.998156"
       cy="60.708744"
       r="6.9268742" /><circle
       style="fill:#003b81;fill-opacity:1;stroke:none;stroke-width:0.826199;stroke-linejoin:bevel;stroke-dasharray:none;stroke-opacity:1;paint-order:markers stroke fill"
       id="path217-2"
       cx="9.0282106"
       cy="61.150925"
       r="6.9268742" /><circle
       style="fill:#003b81;fill-opacity:1;stroke:none;stroke-width:0.826199;stroke-linejoin:bevel;stroke-dasharray:none;stroke-opacity:1;paint-order:markers stroke fill"
       id="path217-3"
       cx="41.054577"
       cy="60.708805"
       r="6.9268742" /><circle
       style="fill:#003b81;fill-opacity:1;stroke:none;stroke-width:0.826199;stroke-linejoin:bevel;stroke-dasharray:none;stroke-opacity:1;paint-order:markers stroke fill"
       id="path217-9"
       cx="28.510937"
       cy="-9.0282106"
       transform="rotate(90)"
       r="6.9268742" /><circle
       style="fill:#003b81;fill-opacity:1;stroke:none;stroke-width:0.826199;stroke-linejoin:bevel;stroke-dasharray:none;stroke-opacity:1;paint-order:markers stroke fill"
       id="path217-3-1"
       cx="92.56366"
       cy="-9.0282106"
       transform="rotate(90)"
       r="6.9268742" /><ellipse
       style="fill:none;fill-opacity:1;stroke:#303030;stroke-width:1.5393;stroke-linejoin:bevel;stroke-dasharray:none;stroke-dashoffset:0;stroke-opacity:1;paint-order:markers stroke fill"
       id="path220"
       cx="9.0282106"
       cy="61.150925"
       rx="47.175377"
       ry="46.249607" /><text
       xml:space="preserve"
       transform="matrix(0.37302788,0,0,0.37302788,-1548.9319,-562.97579)"
       id="text225"
       style="font-style:normal;font-variant:normal;font-weight:500;font-stretch:normal;font-size:50.6667px;line-height:52.063px;font-family:'Fira Sans';-inkscape-font-specification:'Fira Sans Medium';text-align:justify;white-space:pre;shape-inside:url(#rect225);display:inline;fill:#606060;fill-opacity:1;stroke:none;stroke-width:11.3386;stroke-linejoin:bevel;stroke-dasharray:none;stroke-dashoffset:0;stroke-opacity:1;paint-order:markers stroke fill"><tspan
         x="4212.4766"
         y="1663.0588"
         id="tspan2">t</tspan></text><text
       xml:space="preserve"
       transform="matrix(0.37302788,0,0,0.37302788,-1580.0176,-563.01545)"
       id="text225-0"
       style="font-style:normal;font-variant:normal;font-weight:500;font-stretch:normal;font-size:50.6667px;line-height:52.063px;font-family:'Fira Sans';-inkscape-font-specification:'Fira Sans Medium';text-align:justify;white-space:pre;shape-inside:url(#rect225-0);display:inline;fill:#606060;fill-opacity:1;stroke:none;stroke-width:11.3386;stroke-linejoin:bevel;stroke-dasharray:none;stroke-dashoffset:0;stroke-opacity:1;paint-order:markers stroke fill"><tspan
         x="4212.4766"
         y="1663.0588"
         id="tspan4">U</tspan></text><path
       style="fill:none;stroke:#404040;stroke-width:5;stroke-dasharray:none;stroke-opacity:1;marker-end:url(#RoundedArrow)"
       d="M 18.880949,16.011238 C 23.968155,11.647169 27.65015,5.6698287 29.259188,-0.83676446 30.585476,-6.1999794 30.512362,-11.902895 29.049015,-17.230345"
       id="path36"
       inkscape:path-effect="#path-effect36"
       inkscape:original-d="M 18.880949,16.011238 C 22.620594,11.446109 25.939892,3.7283669 29.259188,-0.83676446 32.578484,-5.4018932 29.609479,-7.2821034 29.049015,-17.230345"
       sodipodi:nodetypes="csc" /></g></svg>
