<?xml version="1.0" encoding="UTF-8" standalone="no"?>
<!-- Created with Inkscape (http://www.inkscape.org/) -->

<svg
   width="97.204468mm"
   height="234.49695mm"
   viewBox="0 0 97.204467 234.49695"
   version="1.1"
   id="svg1"
   inkscape:version="1.4 (e7c3feb100, 2024-10-09)"
   sodipodi:docname="translation.svg"
   xmlns:inkscape="http://www.inkscape.org/namespaces/inkscape"
   xmlns:sodipodi="http://sodipodi.sourceforge.net/DTD/sodipodi-0.dtd"
   xmlns="http://www.w3.org/2000/svg"
   xmlns:svg="http://www.w3.org/2000/svg"
   xmlns:ns="http://wanglongqi.github.io/WriteTeX">
  <sodipodi:namedview
     id="namedview1"
     pagecolor="#ffffff"
     bordercolor="#000000"
     borderopacity="0.25"
     inkscape:showpageshadow="2"
     inkscape:pageopacity="0.0"
     inkscape:pagecheckerboard="0"
     inkscape:deskcolor="#d1d1d1"
     inkscape:document-units="mm"
     inkscape:zoom="0.7046647"
     inkscape:cx="393.09476"
     inkscape:cy="383.87051"
     inkscape:window-width="1914"
     inkscape:window-height="1044"
     inkscape:window-x="0"
     inkscape:window-y="30"
     inkscape:window-maximized="1"
     inkscape:current-layer="layer1" />
  <defs
     id="defs1">
    <inkscape:path-effect
       effect="spiro"
       id="path-effect2"
       is_visible="true"
       lpeversion="1" />
    <inkscape:path-effect
       effect="spiro"
       id="path-effect334"
       is_visible="true"
       lpeversion="1" />
    <inkscape:path-effect
       effect="spiro"
       id="path-effect334-1"
       is_visible="true"
       lpeversion="1" />
    <inkscape:path-effect
       effect="spiro"
       id="path-effect334-6"
       is_visible="true"
       lpeversion="1" />
    <inkscape:path-effect
       effect="spiro"
       id="path-effect334-1-0"
       is_visible="true"
       lpeversion="1" />
    <inkscape:path-effect
       effect="spiro"
       id="path-effect333"
       is_visible="true"
       lpeversion="1" />
    <marker
       style="overflow:visible"
       id="RoundedArrow-0"
       refX="0"
       refY="0"
       orient="auto-start-reverse"
       inkscape:stockid="RoundedArrow"
       markerWidth="3.135"
       markerHeight="3.0306199"
       viewBox="0 0 6.1347524 5.9304951"
       inkscape:isstock="true"
       inkscape:collect="always"
       preserveAspectRatio="xMidYMid">
      <path
         transform="scale(0.7)"
         d="m -0.21114562,-4.1055728 6.42229122,3.21114561 a 1,1 90 0 1 0,1.78885438 L -0.21114562,4.1055728 A 1.236068,1.236068 31.717474 0 1 -2,3 v -6 a 1.236068,1.236068 148.28253 0 1 1.78885438,-1.1055728 z"
         style="fill:context-stroke;fill-rule:evenodd;stroke:none"
         id="path1367-6" />
    </marker>
    <inkscape:path-effect
       effect="spiro"
       id="path-effect335"
       is_visible="true"
       lpeversion="1" />
    <inkscape:path-effect
       effect="spiro"
       id="path-effect335-0"
       is_visible="true"
       lpeversion="1" />
  </defs>
  <g
     inkscape:label="Layer 1"
     inkscape:groupmode="layer"
     id="layer1"
     transform="translate(23.606531,51.009994)">
    <path
       style="fill:#285797;fill-opacity:1;stroke:#404040;stroke-width:2;stroke-linejoin:bevel;stroke-dasharray:none;stroke-opacity:1;paint-order:markers stroke fill"
       d="m 986.62801,462.08586 28.42879,-28.42882"
       id="path354"
       inkscape:path-effect="#path-effect334"
       inkscape:original-d="m 986.62801,462.08586 c 9.47629,-9.47626 18.95259,-18.95255 28.42879,-28.42882"
       transform="matrix(0.93581877,0,0,0.93581877,-882.10644,-280.91037)" />
    <path
       style="fill:#285797;fill-opacity:1;stroke:#404040;stroke-width:2;stroke-linejoin:bevel;stroke-dasharray:none;stroke-opacity:1;paint-order:markers stroke fill"
       d="m 986.62801,462.08586 28.42879,-28.42882"
       id="path333-6"
       inkscape:path-effect="#path-effect334-1"
       inkscape:original-d="m 986.62801,462.08586 c 9.47629,-9.47626 18.95259,-18.95255 28.42879,-28.42882"
       transform="matrix(0,0.93581877,-0.93581877,0,473.19654,-772.21738)" />
    <path
       style="fill:#285797;fill-opacity:1;stroke:#404040;stroke-width:2;stroke-linejoin:bevel;stroke-dasharray:none;stroke-opacity:1;paint-order:markers stroke fill"
       d="m 986.62801,462.08586 28.42879,-28.42882"
       id="path333-5"
       inkscape:path-effect="#path-effect334-6"
       inkscape:original-d="m 986.62801,462.08586 c 9.47629,-9.47626 18.95259,-18.95255 28.42879,-28.42882"
       transform="matrix(-0.93581877,0,0,0.93581877,962.31892,-280.91037)" />
    <path
       style="fill:#285797;fill-opacity:1;stroke:#404040;stroke-width:2;stroke-linejoin:bevel;stroke-dasharray:none;stroke-opacity:1;paint-order:markers stroke fill"
       d="m 986.62801,462.08586 28.42879,-28.42882"
       id="path333-6-5"
       inkscape:path-effect="#path-effect334-1-0"
       inkscape:original-d="m 986.62801,462.08586 c 9.47629,-9.47626 18.95259,-18.95255 28.42879,-28.42882"
       transform="matrix(0,0.93581877,0.93581877,0,-392.98411,-772.21742)" />
    <path
       style="fill:#285797;fill-opacity:1;stroke:#606060;stroke-width:4;stroke-linejoin:bevel;stroke-dasharray:none;stroke-opacity:1;paint-order:markers stroke fill"
       d="M 951.48391,462.08586 H 1245.1983"
       id="path355"
       inkscape:path-effect="#path-effect333"
       inkscape:original-d="m 951.48391,462.08586 c 97.90479,0 195.80959,0 293.71439,0"
       transform="matrix(0,-0.73336444,0.93581877,0,-391.23002,862.17416)" />
    <rect
       style="fill:#285797;fill-opacity:1;stroke:none;stroke-width:0.935819;stroke-linejoin:bevel;stroke-dasharray:none;stroke-opacity:1;paint-order:markers stroke fill"
       id="rect330"
       width="25.742876"
       height="25.742876"
       x="28.32716"
       y="138.64682" />
    <rect
       style="fill:#285797;fill-opacity:1;stroke:none;stroke-width:0.935819;stroke-linejoin:bevel;stroke-dasharray:none;stroke-opacity:1;paint-order:markers stroke fill"
       id="rect331"
       width="25.742876"
       height="25.742876"
       x="-63.848026"
       y="28.327164"
       transform="rotate(-90)" />
    <rect
       style="fill:#285797;fill-opacity:1;stroke:none;stroke-width:0.935819;stroke-linejoin:bevel;stroke-dasharray:none;stroke-opacity:1;paint-order:markers stroke fill"
       id="rect332"
       width="25.742876"
       height="25.742876"
       x="25.267117"
       y="26.798523"
       transform="rotate(-90)" />
    <circle
       style="fill:#705797;fill-opacity:1;stroke:none;stroke-width:2.12021;stroke-linejoin:bevel;stroke-dasharray:none;stroke-opacity:1;paint-order:markers stroke fill"
       id="circle355"
       cx="11.747964"
       cy="124.25232"
       r="5.1334324" />
    <circle
       style="fill:#705797;fill-opacity:1;stroke:none;stroke-width:2.12021;stroke-linejoin:bevel;stroke-dasharray:none;stroke-opacity:1;paint-order:markers stroke fill"
       id="path334-5"
       cx="68.4645"
       cy="124.25229"
       r="5.1334324" />
    <circle
       style="fill:#705797;fill-opacity:1;stroke:none;stroke-width:2.12021;stroke-linejoin:bevel;stroke-dasharray:none;stroke-opacity:1;paint-order:markers stroke fill"
       id="path334-7"
       cx="68.03389"
       cy="178.35352"
       r="5.1334324" />
    <circle
       style="fill:#705797;fill-opacity:1;stroke:none;stroke-width:2.12021;stroke-linejoin:bevel;stroke-dasharray:none;stroke-opacity:1;paint-order:markers stroke fill"
       id="path334-54"
       cx="12.178576"
       cy="178.35352"
       r="5.1334324" />
    <path
       style="fill:none;fill-opacity:1;stroke:#404040;stroke-width:3;stroke-linejoin:bevel;stroke-dasharray:none;stroke-opacity:1;marker-end:url(#RoundedArrow-0);paint-order:markers stroke fill"
       d="m 1056.5851,396.79074 h 37.6837"
       id="path356"
       inkscape:path-effect="#path-effect335"
       inkscape:original-d="m 1056.5851,396.79074 c 15.3246,0 37.6837,0 37.6837,0"
       transform="matrix(0,-0.93581877,0.93581877,0,-347.25122,1105.2615)"
       sodipodi:nodetypes="cc" />
    <g
       ns:text="$T(\vec a)$"
       transform="matrix(1.8716375,0,0,1.8716375,-348.04561,-108.28733)"
       id="g341"
       style="fill:#606060;fill-opacity:1;stroke:#606060;stroke-width:0.5;stroke-dasharray:none;stroke-opacity:1"><g
   fill="#000000"
   fill-opacity="1"
   id="g357"
   style="fill:#606060;fill-opacity:1;stroke:#606060;stroke-width:0.5;stroke-dasharray:none;stroke-opacity:1">
<path
   d="m 5.609375,-6.875 h -4.875 L 0.625,-6.0625 H 2.546875 L 1.703125,0 h 0.9375 l 0.84375,-6.0625 h 1.90625 z m 0,0"
   transform="translate(178.585,110.99)"
   id="path357"
   style="fill:#606060;fill-opacity:1;stroke:#606060;stroke-width:0.5;stroke-dasharray:none;stroke-opacity:1" />

</g>

<g
   fill="#000000"
   fill-opacity="1"
   id="g358"
   style="fill:#606060;fill-opacity:1;stroke:#606060;stroke-width:0.5;stroke-dasharray:none;stroke-opacity:1">
<path
   d="m 2.25,-7.71875 c -0.96875,1.375 -1.84375,2.5625 -1.84375,4.921875 0,2.375 0.875,3.546875 1.84375,4.9375 L 2.828125,1.75 C 1.9375,0.421875 1.359375,-0.65625 1.359375,-2.796875 1.359375,-4.9375 1.9375,-6 2.828125,-7.328125 Z m 0,0"
   transform="translate(184.56256,110.99)"
   id="path358"
   style="fill:#606060;fill-opacity:1;stroke:#606060;stroke-width:0.5;stroke-dasharray:none;stroke-opacity:1" />

</g>

<g
   fill="#000000"
   fill-opacity="1"
   id="g359"
   style="fill:#606060;fill-opacity:1;stroke:#606060;stroke-width:0.5;stroke-dasharray:none;stroke-opacity:1">
<path
   d="m -1.421875,-8.203125 -0.375,0.34375 0.5,0.546875 h -2.59375 v 0.609375 h 2.59375 l -0.5,0.546875 0.375,0.34375 1.125,-1.1875 z m 0,0"
   transform="translate(193.339,110.871)"
   id="path359"
   style="fill:#606060;fill-opacity:1;stroke:#606060;stroke-width:0.5;stroke-dasharray:none;stroke-opacity:1" />

</g>

<g
   fill="#000000"
   fill-opacity="1"
   id="g340"
   style="fill:#606060;fill-opacity:1;stroke:#606060;stroke-width:0.5;stroke-dasharray:none;stroke-opacity:1">
<path
   d="m 3.3125,-4.640625 c 0.359375,0 0.578125,0.046875 0.859375,0.171875 l -0.40625,2.890625 c -0.40625,0.546875 -0.8125,0.96875 -1.40625,0.96875 -0.5625,0 -0.890625,-0.390625 -0.890625,-1.28125 0,-1.171875 0.515625,-2.75 1.84375,-2.75 z M 3.296875,-5.375 C 1.25,-5.375 0.5,-3.328125 0.5,-1.890625 0.5,-0.6875 1.09375,0.125 2.171875,0.125 c 0.625,0 1.15625,-0.359375 1.5625,-0.875 0.078125,0.5625 0.40625,0.796875 0.9375,0.875 l 0.25,-0.640625 c -0.328125,-0.125 -0.359375,-0.3125 -0.3125,-0.6875 l 0.53125,-3.71875 C 4.546875,-5.21875 3.984375,-5.375 3.296875,-5.375 Z m 0,0"
   transform="translate(187.8,110.99)"
   id="path360"
   style="fill:#606060;fill-opacity:1;stroke:#606060;stroke-width:0.5;stroke-dasharray:none;stroke-opacity:1" />

<path
   d="M 0.984375,-7.71875 0.40625,-7.328125 C 1.296875,-6 1.875,-4.9375 1.875,-2.796875 1.875,-0.65625 1.296875,0.421875 0.40625,1.75 l 0.578125,0.390625 c 0.96875,-1.390625 1.84375,-2.5625 1.84375,-4.9375 0,-2.359375 -0.875,-3.546875 -1.84375,-4.921875 z m 0,0"
   transform="translate(193.46872,110.99)"
   id="path361"
   style="fill:#606060;fill-opacity:1;stroke:#606060;stroke-width:0.5;stroke-dasharray:none;stroke-opacity:1" />

</g>

</g>
    <g
       ns:text="$T(\vec 2a)$"
       transform="matrix(1.8716375,0,0,1.8716375,-358.48757,-191.19777)"
       id="g426"
       style="fill:#606060;fill-opacity:1;stroke:#606060;stroke-width:0.5;stroke-dasharray:none;stroke-opacity:1"><g
   fill="#000000"
   fill-opacity="1"
   id="g362"
   style="fill:#606060;fill-opacity:1;stroke:#606060;stroke-width:0.5;stroke-dasharray:none;stroke-opacity:1">
<path
   d="m 5.609375,-6.875 h -4.875 L 0.625,-6.0625 H 2.546875 L 1.703125,0 h 0.9375 l 0.84375,-6.0625 h 1.90625 z m 0,0"
   transform="translate(178.585,110.99)"
   id="path362"
   style="fill:#606060;fill-opacity:1;stroke:#606060;stroke-width:0.5;stroke-dasharray:none;stroke-opacity:1" />

</g>

<g
   fill="#000000"
   fill-opacity="1"
   id="g363"
   style="fill:#606060;fill-opacity:1;stroke:#606060;stroke-width:0.5;stroke-dasharray:none;stroke-opacity:1">
<path
   d="m 2.25,-7.71875 c -0.96875,1.375 -1.84375,2.5625 -1.84375,4.921875 0,2.375 0.875,3.546875 1.84375,4.9375 L 2.828125,1.75 C 1.9375,0.421875 1.359375,-0.65625 1.359375,-2.796875 1.359375,-4.9375 1.9375,-6 2.828125,-7.328125 Z m 0,0"
   transform="translate(184.56256,110.99)"
   id="path363"
   style="fill:#606060;fill-opacity:1;stroke:#606060;stroke-width:0.5;stroke-dasharray:none;stroke-opacity:1" />

</g>

<g
   fill="#000000"
   fill-opacity="1"
   id="g364"
   style="fill:#606060;fill-opacity:1;stroke:#606060;stroke-width:0.5;stroke-dasharray:none;stroke-opacity:1">
<path
   d="m -1.421875,-8.203125 -0.375,0.34375 0.5,0.546875 h -2.59375 v 0.609375 h 2.59375 l -0.5,0.546875 0.375,0.34375 1.125,-1.1875 z m 0,0"
   transform="translate(192.682,109.257)"
   id="path364"
   style="fill:#606060;fill-opacity:1;stroke:#606060;stroke-width:0.5;stroke-dasharray:none;stroke-opacity:1" />

</g>

<g
   fill="#000000"
   fill-opacity="1"
   id="g346"
   style="fill:#606060;fill-opacity:1;stroke:#606060;stroke-width:0.5;stroke-dasharray:none;stroke-opacity:1">
<path
   d="m 2.578125,-6.984375 c -0.953125,0 -1.59375,0.328125 -2.125,1 L 1.0625,-5.5 C 1.5,-6.015625 1.859375,-6.234375 2.515625,-6.234375 c 0.75,0 1.203125,0.46875 1.203125,1.203125 0,1.09375 -0.578125,1.84375 -3.125,4.296875 V 0 h 4.125 l 0.109375,-0.765625 h -3.1875 C 3.875,-2.8125 4.671875,-3.8125 4.671875,-5.0625 c 0,-1.09375 -0.78125,-1.921875 -2.09375,-1.921875 z m 0,0"
   transform="translate(187.8,110.99)"
   id="path365"
   style="fill:#606060;fill-opacity:1;stroke:#606060;stroke-width:0.5;stroke-dasharray:none;stroke-opacity:1" />

<path
   d="m 3.3125,-4.640625 c 0.359375,0 0.578125,0.046875 0.859375,0.171875 l -0.40625,2.890625 c -0.40625,0.546875 -0.8125,0.96875 -1.40625,0.96875 -0.5625,0 -0.890625,-0.390625 -0.890625,-1.28125 0,-1.171875 0.515625,-2.75 1.84375,-2.75 z M 3.296875,-5.375 C 1.25,-5.375 0.5,-3.328125 0.5,-1.890625 0.5,-0.6875 1.09375,0.125 2.171875,0.125 c 0.625,0 1.15625,-0.359375 1.5625,-0.875 0.078125,0.5625 0.40625,0.796875 0.9375,0.875 l 0.25,-0.640625 c -0.328125,-0.125 -0.359375,-0.3125 -0.3125,-0.6875 l 0.53125,-3.71875 C 4.546875,-5.21875 3.984375,-5.375 3.296875,-5.375 Z m 0,0"
   transform="translate(193.37906,110.99)"
   id="path366"
   style="fill:#606060;fill-opacity:1;stroke:#606060;stroke-width:0.5;stroke-dasharray:none;stroke-opacity:1" />

<path
   d="M 0.984375,-7.71875 0.40625,-7.328125 C 1.296875,-6 1.875,-4.9375 1.875,-2.796875 1.875,-0.65625 1.296875,0.421875 0.40625,1.75 l 0.578125,0.390625 c 0.96875,-1.390625 1.84375,-2.5625 1.84375,-4.9375 0,-2.359375 -0.875,-3.546875 -1.84375,-4.921875 z m 0,0"
   transform="translate(199.04777,110.99)"
   id="path390"
   style="fill:#606060;fill-opacity:1;stroke:#606060;stroke-width:0.5;stroke-dasharray:none;stroke-opacity:1" />

</g>

</g>
    <path
       style="fill:none;fill-opacity:1;stroke:#404040;stroke-width:3;stroke-linejoin:bevel;stroke-dasharray:none;stroke-opacity:1;marker-end:url(#RoundedArrow-0);paint-order:markers stroke fill"
       d="m 1056.5851,396.79074 h 37.6837"
       id="path1"
       inkscape:path-effect="#path-effect2"
       inkscape:original-d="m 1056.5851,396.79074 c 15.3246,0 37.6837,0 37.6837,0"
       transform="matrix(0,-0.93581877,0.93581877,0,-347.25122,1015.3026)"
       sodipodi:nodetypes="cc" />
  </g>
</svg>
